mtllib CB_NEWPLAYSURFACE_CB_PLAYSURFACE80.mtl
g B_playsurface80
usemtl Lvl_Cburst_rock03
v -3587.826904 34.599716 -8000.933105
vn 0.480244 0.368036 -0.796188
vt 3.510992 3.140779
v -3587.826172 168.261826 -8000.934570
vn 0.662174 -0.241457 -0.709383
vt 3.510993 2.970905
v -3287.539795 164.096085 -7955.764648
vn -0.248684 -0.209574 -0.945640
vt 3.142203 2.980075
v -3262.572510 21.052101 -7933.854492
vn -0.275181 0.512477 -0.813414
vt 3.142204 3.159943
v -3567.460938 226.595200 -8022.851563
vn 0.762381 0.367467 -0.532676
vt 3.487371 2.905327
v -3268.152344 222.429459 -7978.516113
vn -0.199124 0.372989 -0.906217
vt 3.119822 2.914378
v -3649.276123 29.369625 -8278.211914
vn 0.672468 0.236990 -0.701158
vt 3.780430 3.142905
v -3649.275635 196.925232 -8278.210938
vn 0.932753 -0.274061 -0.234227
vt 3.780430 2.936924
v -3627.931641 255.258484 -8299.296875
vn 0.518282 0.710703 -0.475695
vt 3.779957 2.855204
v -2339.446533 53.029552 -12352.095703
vn -0.642406 0.105031 0.759133
vt 1.613685 3.134688
v -2364.413086 153.029556 -12374.007813
vn -0.629832 0.239139 0.739002
vt 1.613683 3.000676
v -2701.018311 153.029572 -12660.887695
vn -0.673040 0.154244 0.723344
vt 1.074485 2.996995
v -2676.052002 53.029564 -12638.976563
vn -0.660853 0.189100 0.726302
vt 1.074490 3.131008
v -2002.841187 53.029541 -12065.215820
vn -0.717443 0.101741 0.689147
vt 2.152883 3.138369
v -1803.283691 53.029530 -11798.516602
vn -0.911527 0.193517 0.362862
vt 2.553921 3.130024
v -1828.250610 153.029526 -11820.428711
vn -0.898980 0.213772 0.382279
vt 2.553919 2.996011
v -2027.807617 153.029541 -12087.127930
vn -0.690037 0.320854 0.648770
vt 2.152881 3.004356
v -1663.521729 52.652344 -10850.035156
vn -0.969819 0.243821 -0.001811
vt 3.533727 3.134124
v -1688.488647 152.652344 -10871.947266
vn -0.989891 0.141670 0.006745
vt 3.533724 3.000111
v -1663.521729 52.652344 -10850.035156
vn -0.969819 0.243821 -0.001811
vt 1.533727 3.134124
v -1862.694824 53.279934 -9409.962891
vn -0.883242 0.261002 -0.389565
vt 3.285459 3.128219
v -1887.661743 153.279938 -9431.875000
vn -0.917435 0.048273 -0.394947
vt 3.285456 2.994206
v -1688.488647 152.652344 -10871.947266
vn -0.989891 0.141670 0.006745
vt 1.533724 3.000111
v -1862.694824 53.279934 -9409.962891
vn -0.883242 0.261002 -0.389565
vt 2.285459 3.128219
v -2632.798584 53.279892 -8441.167969
vn -0.688713 0.242898 -0.683136
vt 3.507447 3.128510
v -2657.765625 153.279892 -8463.079102
vn -0.703088 -0.090587 -0.705309
vt 3.507446 2.994497
v -1887.661743 153.279938 -9431.875000
vn -0.917435 0.048273 -0.394947
vt 2.285456 2.994206
v -2632.798584 53.279892 -8441.167969
vn -0.688713 0.242898 -0.683136
vt 2.507447 3.128510
v -2657.765625 153.279892 -8463.079102
vn -0.703088 -0.090587 -0.705309
vt 2.507446 2.994497
v -2326.598145 218.554291 -12386.396484
vn -0.570006 0.482528 0.665026
vt 1.636681 2.936145
v -2663.203613 218.554306 -12673.277344
vn -0.601156 0.464618 0.650186
vt 1.097483 2.932465
v -1790.435791 218.554276 -11832.817383
vn -0.792506 0.505354 0.341396
vt 2.576917 2.931481
v -1989.992798 218.554276 -12099.516602
vn -0.666237 0.449334 0.595170
vt 2.175877 2.939826
v -1650.673828 218.177094 -10884.335938
vn -0.803980 0.594623 0.006300
vt 3.521353 2.936096
v -1849.846924 218.804688 -9444.263672
vn -0.745417 0.589770 -0.310683
vt 3.273086 2.930191
v -1650.673828 218.177094 -10884.335938
vn -0.803980 0.594623 0.006300
vt 1.521353 2.936096
v -2619.950684 218.804642 -8475.468750
vn -0.586725 0.569167 -0.576023
vt 3.468770 2.928316
v -1849.846924 218.804688 -9444.263672
vn -0.745417 0.589770 -0.310683
vt 2.273086 2.930191
v -2619.950684 218.804642 -8475.468750
vn -0.586725 0.569167 -0.576023
vt 2.468770 2.928316
v -3794.570801 252.174255 -8339.290039
vn 0.161807 0.673200 -0.721540
vt 1.023370 -1.898629
v -3795.879883 193.841003 -8353.156250
vn 0.208962 -0.053602 -0.976454
vt 1.024425 -1.832937
v -3972.626709 184.187286 -8394.367188
vn 0.233530 -0.002247 -0.972347
vt 1.208826 -1.833310
v -3961.209717 249.090149 -8379.280273
vn -0.272048 0.794813 -0.542459
vt 1.230381 -1.899104
v -3797.531738 26.285398 -8315.879883
vn 0.244044 -0.013362 -0.969672
vt 1.024425 -1.654435
v -3945.787354 23.201172 -8353.546875
vn 0.214424 0.055177 -0.975181
vt 1.208826 -1.654808
v -3774.871826 -48.340824 -8332.734375
vn 0.189689 0.265629 -0.945230
vt 1.028228 -1.592747
v -3987.177979 -50.955875 -8366.136719
vn -0.305648 0.705256 -0.639682
vt 1.318979 -1.606564
v -3627.931641 255.258484 -8299.296875
vn 0.518282 0.710703 -0.475695
vt 0.816359 -1.898154
v -3614.412842 196.925232 -8321.870117
vn 0.187001 0.117749 -0.975277
vt 0.840024 -1.832565
v -3649.276123 29.369625 -8278.211914
vn 0.672468 0.236990 -0.701158
vt 0.840024 -1.654063
v -3562.564209 -45.725777 -8299.330078
vn 0.463295 0.691003 -0.554862
vt 0.736864 -1.578389
f 12/12/12 13/13/13 10/10/10
f 11/11/11 10/10/10 14/14/14
f 10/10/10 11/11/11 12/12/12
f 31/31/31 12/12/12 11/11/11
f 18/18/18 19/19/19 15/15/15
f 16/16/16 15/15/15 19/19/19
f 15/15/15 16/16/16 14/14/14
f 17/17/17 14/14/14 16/16/16
f 14/14/14 17/17/17 11/11/11
f 30/30/30 11/11/11 17/17/17
f 11/11/11 30/30/30 31/31/31
f 17/17/17 33/33/33 30/30/30
f 33/33/33 17/17/17 32/32/32
f 16/16/16 32/32/32 17/17/17
f 32/32/32 16/16/16 34/34/34
f 19/19/19 34/34/34 16/16/16
f 5/5/5 8/8/8 9/9/9
f 8/8/8 5/5/5 2/2/2
f 6/6/6 2/2/2 5/5/5
f 2/2/2 6/6/6 3/3/3
f 29/29/29 3/3/3 6/6/6
f 3/3/3 29/29/29 28/28/28
f 6/6/6 39/39/39 29/29/29
f 2/2/2 7/7/7 8/8/8
f 7/7/7 2/2/2 1/1/1
f 3/3/3 1/1/1 2/2/2
f 1/1/1 3/3/3 4/4/4
f 28/28/28 4/4/4 3/3/3
f 48/48/48 49/49/49 40/40/40
f 41/41/41 40/40/40 49/49/49
f 40/40/40 41/41/41 42/42/42
f 44/44/44 42/42/42 41/41/41
f 42/42/42 44/44/44 45/45/45
f 46/46/46 45/45/45 44/44/44
f 45/45/45 46/46/46 47/47/47
f 50/50/50 41/41/41 49/49/49
f 41/41/41 50/50/50 44/44/44
f 46/46/46 44/44/44 50/50/50
f 42/42/42 43/43/43 40/40/40
f 50/50/50 51/51/51 46/46/46
f 22/22/22 20/20/20 21/21/21
f 20/20/20 22/22/22 23/23/23
f 35/35/35 23/23/23 22/22/22
f 23/23/23 35/35/35 36/36/36
f 26/26/26 24/24/24 25/25/25
f 24/24/24 26/26/26 27/27/27
f 37/37/37 27/27/27 26/26/26
f 27/27/27 37/37/37 38/38/38
usemtl Lvl_Cburst_rockground_mix
v -2370.023682 296.881561 -12974.080078
vn 0.000000 1.000000 0.000000
vt -3.730904 -2.673283
v -2647.028076 296.881561 -12708.414063
vn -0.369518 0.837009 0.403576
vt -3.369551 -2.993938
v -2305.376953 296.881561 -12431.984375
vn -0.324580 0.864704 0.383320
vt -3.815235 -3.327587
v -2305.376953 296.881561 -12431.984375
vn -0.324580 0.864704 0.383320
vt -2.815235 -3.327587
v -2029.825317 296.881561 -12738.448242
vn 0.000000 1.000000 0.000000
vt -3.174694 -2.957689
v -2370.023682 296.881561 -12974.080078
vn 0.000000 1.000000 0.000000
vt -2.730904 -2.673283
v -3814.240479 264.933746 -8022.905273
vn -0.007223 0.999963 -0.004590
vt -2.846916 -3.649321
v -3611.437256 270.163971 -7962.320313
vn 0.134651 0.970840 -0.198341
vt -3.111477 -3.722448
v -3665.983887 264.933777 -8256.188477
vn 0.179734 0.977098 -0.113908
vt -3.040319 -3.367752
v -3665.983887 264.933777 -8256.188477
vn 0.179734 0.977098 -0.113908
vt 3.783324 2.745944
v -3611.437256 270.163971 -7962.320313
vn 0.134651 0.970840 -0.198341
vt 3.537644 2.770750
v -3567.460938 226.595200 -8022.851563
vn 0.762381 0.367467 -0.532676
vt 3.487371 2.905327
v -2477.551758 294.600281 -8120.513672
vn -0.007608 0.999822 0.017257
vt -2.590630 -3.531509
v -1607.614746 294.600372 -9187.830078
vn 0.009194 0.999948 0.004345
vt -3.725468 -2.243263
v -1784.432373 297.131927 -9396.296875
vn -0.307014 0.946801 -0.096485
vt -3.494808 -1.991646
v -3243.958984 270.163971 -7877.251953
vn -0.091270 0.981162 -0.170269
vt 3.084680 2.781018
v -3268.152344 222.429459 -7978.516113
vn -0.199124 0.372989 -0.906217
vt 3.119822 2.914378
v -2663.203613 218.554306 -12673.277344
vn -0.601156 0.464618 0.650186
vt 1.097483 2.932465
v -2326.598145 218.554291 -12386.396484
vn -0.570006 0.482528 0.665026
vt 1.636681 2.936145
v -2305.376953 296.881561 -12431.984375
vn -0.324580 0.864704 0.383320
vt 1.617049 2.762308
v -2647.028076 296.881561 -12708.414063
vn -0.369518 0.837009 0.403576
vt 1.082192 2.756965
v -1989.992798 218.554276 -12099.516602
vn -0.666237 0.449334 0.595170
vt 2.175877 2.939826
v -1790.435791 218.554276 -11832.817383
vn -0.792506 0.505354 0.341396
vt 2.576917 2.931481
v -1759.930176 296.881531 -11848.018555
vn -0.476345 0.842310 0.252210
vt 2.591084 2.755296
v -1975.651855 296.881531 -12140.990234
vn -0.364344 0.858526 0.360813
vt 2.153628 2.764826
v -1790.435791 218.554276 -11832.817383
vn -0.792506 0.505354 0.341396
vt 2.576917 2.931481
v -1650.673828 218.177094 -10884.335938
vn -0.803980 0.594623 0.006300
vt 3.521353 2.936096
v -1578.714966 296.504333 -10866.277344
vn -0.447911 0.893454 0.033388
vt 3.548560 2.765738
v -1759.930176 296.881531 -11848.018555
vn -0.476345 0.842310 0.252210
vt 2.591084 2.755296
v -1650.673828 218.177094 -10884.335938
vn -0.803980 0.594623 0.006300
vt 1.521353 2.936096
v -1849.846924 218.804688 -9444.263672
vn -0.745417 0.589770 -0.310683
vt 3.273086 2.930191
v -1784.432373 297.131927 -9396.296875
vn -0.307014 0.946801 -0.096485
vt 3.336274 2.758584
v -1578.714966 296.504333 -10866.277344
vn -0.447911 0.893454 0.033388
vt 1.548560 2.765738
v -1849.846924 218.804688 -9444.263672
vn -0.745417 0.589770 -0.310683
vt 2.273086 2.930191
v -2619.950684 218.804642 -8475.468750
vn -0.586725 0.569167 -0.576023
vt 3.468770 2.928316
v -2578.999756 297.131897 -8392.715820
vn -0.325874 0.900951 -0.286519
vt 3.523531 2.759454
v -1784.432373 297.131927 -9396.296875
vn -0.307014 0.946801 -0.096485
vt 2.336274 2.758584
v -2619.950684 218.804642 -8475.468750
vn -0.586725 0.569167 -0.576023
vt 2.468770 2.928316
v -3268.152344 222.429459 -7978.516113
vn -0.199124 0.372989 -0.906217
vt 3.119822 2.914378
v -3243.958984 270.163971 -7877.251953
vn -0.091270 0.981162 -0.170269
vt 3.084680 2.781018
v -2578.999756 297.131897 -8392.715820
vn -0.325874 0.900951 -0.286519
vt 2.523531 2.759454
v -2326.598145 218.554291 -12386.396484
vn -0.570006 0.482528 0.665026
vt 1.636681 2.936145
v -1989.992798 218.554276 -12099.516602
vn -0.666237 0.449334 0.595170
vt 2.175877 2.939826
v -1975.651855 296.881531 -12140.990234
vn -0.364344 0.858526 0.360813
vt 2.153628 2.764826
v -2305.376953 296.881561 -12431.984375
vn -0.324580 0.864704 0.383320
vt 1.617049 2.762308
v -2709.962891 -46.970436 -12631.916992
vn -0.518474 0.608610 0.600648
vt 1.090978 3.286302
v -2359.284424 -46.970448 -12345.616211
vn -0.635400 0.220868 0.739922
vt 1.642130 3.291506
v -2339.446533 53.029552 -12352.095703
vn -0.642406 0.105031 0.759133
vt 1.613685 3.134688
v -2676.052002 53.029564 -12638.976563
vn -0.660853 0.189100 0.726302
vt 1.074490 3.131008
v -2039.111206 -46.970463 -12053.734375
vn -0.547839 0.711371 0.440254
vt 2.171012 3.292936
v -1881.077515 -46.970474 -11787.682617
vn -0.408667 0.905276 0.116043
vt 2.534795 3.280352
v -1803.283691 53.029530 -11798.516602
vn -0.911527 0.193517 0.362862
vt 2.553921 3.130024
v -2002.841187 53.029541 -12065.215820
vn -0.717443 0.101741 0.689147
vt 2.152883 3.138369
v -1881.077515 -46.970474 -11787.682617
vn -0.408667 0.905276 0.116043
vt 2.534795 3.280352
v -1762.572876 -47.347656 -10874.257813
vn -0.381178 0.924325 -0.018078
vt 3.525559 3.282395
v -1663.521729 52.652344 -10850.035156
vn -0.969819 0.243821 -0.001811
vt 3.533727 3.134124
v -1803.283691 53.029530 -11798.516602
vn -0.911527 0.193517 0.362862
vt 2.553921 3.130024
v -1762.572876 -47.347656 -10874.257813
vn -0.381178 0.924325 -0.018078
vt 1.525559 3.282395
v -1956.964844 -46.720062 -9475.237305
vn -0.610380 0.722448 -0.324817
vt 3.227600 3.277573
v -1862.694824 53.279934 -9409.962891
vn -0.883242 0.261002 -0.389565
vt 3.285459 3.128219
v -1663.521729 52.652344 -10850.035156
vn -0.969819 0.243821 -0.001811
vt 1.533727 3.134124
v -1956.964844 -46.720062 -9475.237305
vn -0.610380 0.722448 -0.324817
vt 2.227600 3.277573
v -2686.986816 -46.720104 -8516.713867
vn -0.476590 0.733438 -0.484696
vt 3.473811 3.279686
v -2632.798584 53.279892 -8441.167969
vn -0.688713 0.242898 -0.683136
vt 3.507447 3.128510
v -1862.694824 53.279934 -9409.962891
vn -0.883242 0.261002 -0.389565
vt 2.285459 3.128219
v -2686.986816 -46.720104 -8516.713867
vn -0.476590 0.733438 -0.484696
vt 2.473811 3.279686
v -3276.223145 -45.725784 -8051.969238
vn -0.079420 0.763194 -0.641270
vt 3.133750 3.269391
v -3262.572510 21.052101 -7933.854492
vn -0.275181 0.512477 -0.813414
vt 3.142203 3.159943
v -2632.798584 53.279892 -8441.167969
vn -0.688713 0.242898 -0.683136
vt 2.507447 3.128510
v -2359.284424 -46.970448 -12345.616211
vn -0.635400 0.220868 0.739922
vt 1.642130 3.291506
v -2039.111206 -46.970463 -12053.734375
vn -0.547839 0.711371 0.440254
vt 2.171012 3.292936
v -2002.841187 53.029541 -12065.215820
vn -0.717443 0.101741 0.689147
vt 2.152883 3.138369
v -2339.446533 53.029552 -12352.095703
vn -0.642406 0.105031 0.759133
vt 1.613685 3.134688
v -3276.223145 -45.725784 -8051.969238
vn -0.079420 0.763194 -0.641270
vt 3.133750 3.269391
v -3547.096924 -45.725788 -8044.768555
vn 0.572856 0.691810 -0.439586
vt 3.463750 3.272330
v -3587.826904 34.599716 -8000.933105
vn 0.480244 0.368036 -0.796188
vt 3.510992 3.140779
v -3262.572510 21.052101 -7933.854492
vn -0.275181 0.512477 -0.813414
vt 3.142203 3.159943
v -3562.564209 -45.725777 -8299.330078
vn 0.463295 0.691003 -0.554862
vt 3.675837 3.271984
v -3649.276123 29.369625 -8278.211914
vn 0.672468 0.236990 -0.701158
vt 3.780430 3.142905
v -1975.651855 296.881531 -12140.990234
vn -0.364344 0.858526 0.360813
vt -3.245365 -3.678818
v -1689.627808 296.881561 -12502.814453
vn 0.000000 1.000000 0.000000
vt -3.618481 -3.242098
v -1784.432373 297.131927 -9396.296875
vn -0.307014 0.946801 -0.096485
vt -2.494808 -2.991646
v -1607.614746 294.600372 -9187.830078
vn 0.009194 0.999948 0.004345
vt -2.725468 -3.243263
v -1344.147095 296.378662 -10902.912109
vn 0.004054 0.999991 0.000923
vt -3.069160 -1.173170
v -1344.147095 296.378662 -10902.912109
vn 0.004054 0.999991 0.000923
vt -3.069160 -2.173170
v -1578.714966 296.504333 -10866.277344
vn -0.447911 0.893454 0.033388
vt -2.763166 -2.217388
v -1784.432373 297.131927 -9396.296875
vn -0.307014 0.946801 -0.096485
vt -2.494808 -3.991646
v -1689.627808 296.881561 -12502.814453
vn 0.000000 1.000000 0.000000
vt -3.618481 -2.242098
v -1975.651855 296.881531 -12140.990234
vn -0.364344 0.858526 0.360813
vt -3.245365 -2.678818
v -1759.930176 296.881531 -11848.018555
vn -0.476345 0.842310 0.252210
vt -3.526772 -3.032433
v -1468.248657 296.881531 -12008.270508
vn 0.000263 1.000000 0.000246
vt -3.907270 -2.839008
v -1578.714966 296.504333 -10866.277344
vn -0.447911 0.893454 0.033388
vt -2.763166 -3.217388
v -1344.147095 296.378662 -10902.912109
vn 0.004054 0.999991 0.000923
vt -3.069160 -3.173170
v -1468.248657 296.881531 -12008.270508
vn 0.000263 1.000000 0.000246
vt -2.907270 -1.839008
v -1468.248657 296.881531 -12008.270508
vn 0.000263 1.000000 0.000246
vt -3.907270 -1.839008
v -1759.930176 296.881531 -11848.018555
vn -0.476345 0.842310 0.252210
vt -3.526772 -2.032433
v -1578.714966 296.504333 -10866.277344
vn -0.447911 0.893454 0.033388
vt -3.763166 -3.217388
v -3243.958984 270.163971 -7877.251953
vn -0.091270 0.981162 -0.170269
vt -2.590851 -2.825123
v -3012.596924 264.933746 -7617.521973
vn -0.005599 0.999889 0.013794
vt -2.892664 -3.138618
v -2477.551758 294.600281 -8120.513672
vn -0.007608 0.999822 0.017257
vt -3.590630 -2.531509
v -2477.551758 294.600281 -8120.513672
vn -0.007608 0.999822 0.017257
vt -3.590630 -3.531509
v -2578.999756 297.131897 -8392.715820
vn -0.325874 0.900951 -0.286519
vt -3.458290 -3.202961
v -3243.958984 270.163971 -7877.251953
vn -0.091270 0.981162 -0.170269
vt -2.590851 -3.825123
v -2578.999756 297.131897 -8392.715820
vn -0.325874 0.900951 -0.286519
vt -2.458290 -3.202961
v -3627.931641 255.258484 -8299.296875
vn 0.518282 0.710703 -0.475695
vt 3.779957 2.855204
v -3937.160645 264.933777 -8340.085938
vn -0.082539 0.983527 -0.160819
vt 1.196870 -1.951620
v -3795.146240 264.933777 -8306.854492
vn 0.057688 0.981150 -0.184435
vt 1.020543 -1.948542
v -3794.570801 252.174255 -8339.290039
vn 0.161807 0.673200 -0.721540
vt 1.023370 -1.898629
v -3961.209717 249.090149 -8379.280273
vn -0.272048 0.794813 -0.542459
vt 1.230381 -1.899104
v -3665.983887 264.933777 -8256.188477
vn 0.179734 0.977098 -0.113908
vt 0.857949 -1.942680
v -3627.931641 255.258484 -8299.296875
vn 0.518282 0.710703 -0.475695
vt 0.816359 -1.898154
v -3794.570801 252.174255 -8339.290039
vn 0.161807 0.673200 -0.721540
vt 1.023370 -1.898629
v -3795.146240 264.933777 -8306.854492
vn 0.057688 0.981150 -0.184435
vt 1.020543 -1.948542
v -3795.146240 264.933777 -8306.854492
vn 0.057688 0.981150 -0.184435
vt -2.871826 -3.306599
v -3814.240479 264.933746 -8022.905273
vn -0.007223 0.999963 -0.004590
vt -3.846916 -3.649321
v -3795.146240 264.933777 -8306.854492
vn 0.057688 0.981150 -0.184435
vt -3.871826 -3.306599
v -3937.160645 264.933777 -8340.085938
vn -0.082539 0.983527 -0.160819
vt -3.686569 -3.266487
f 133/133/133 134/134/134 135/135/135
f 67/67/67 68/68/68 62/62/62
f 63/63/63 62/62/62 68/68/68
f 62/62/62 63/63/63 61/61/61
f 156/156/156 61/61/61 63/63/63
f 128/128/128 125/125/125 127/127/127
f 126/126/126 127/127/127 125/125/125
f 127/127/127 126/126/126 130/130/130
f 129/129/129 130/130/130 126/126/126
f 57/57/57 55/55/55 56/56/56
f 131/131/131 56/56/56 55/55/55
f 56/56/56 131/131/131 132/132/132
f 60/60/60 58/58/58 59/59/59
f 58/58/58 60/60/60 165/165/165
f 66/66/66 64/64/64 65/65/65
f 64/64/64 66/66/66 155/155/155
f 71/71/71 69/69/69 70/70/70
f 69/69/69 71/71/71 72/72/72
f 75/75/75 73/73/73 74/74/74
f 73/73/73 75/75/75 76/76/76
f 79/79/79 77/77/77 78/78/78
f 77/77/77 79/79/79 80/80/80
f 83/83/83 81/81/81 82/82/82
f 81/81/81 83/83/83 84/84/84
f 87/87/87 85/85/85 86/86/86
f 85/85/85 87/87/87 88/88/88
f 91/91/91 89/89/89 90/90/90
f 89/89/89 91/91/91 92/92/92
f 95/95/95 93/93/93 94/94/94
f 93/93/93 95/95/95 96/96/96
f 99/99/99 97/97/97 98/98/98
f 97/97/97 99/99/99 100/100/100
f 103/103/103 101/101/101 102/102/102
f 101/101/101 103/103/103 104/104/104
f 107/107/107 105/105/105 106/106/106
f 105/105/105 107/107/107 108/108/108
f 111/111/111 109/109/109 110/110/110
f 109/109/109 111/111/111 112/112/112
f 115/115/115 113/113/113 114/114/114
f 113/113/113 115/115/115 116/116/116
f 119/119/119 117/117/117 118/118/118
f 117/117/117 119/119/119 120/120/120
f 123/123/123 121/121/121 122/122/122
f 121/121/121 123/123/123 124/124/124
f 163/163/163 161/161/161 162/162/162
f 161/161/161 163/163/163 164/164/164
f 136/136/136 137/137/137 138/138/138
f 141/141/141 139/139/139 140/140/140
f 139/139/139 141/141/141 142/142/142
f 143/143/143 144/144/144 145/145/145
f 146/146/146 147/147/147 148/148/148
f 149/149/149 150/150/150 151/151/151
f 152/152/152 153/153/153 154/154/154
f 159/159/159 157/157/157 158/158/158
f 157/157/157 159/159/159 160/160/160
f 166/166/166 167/167/167 168/168/168
f 52/52/52 53/53/53 54/54/54
