mtllib GAND_SWORD.mtl
g Glamdring
usemtl 8_-_Default
v 0.186503 -90.807739 -5.025911
vn 0.047441 -0.092008 -0.994628
vt 0.357887 0.771356
v 2.312426 -86.752182 -0.001276
vn 0.999707 -0.024199 0.000120
vt 0.219353 0.725734
v -0.110441 -117.788292 0.040671
vn 0.252484 -0.967587 0.005270
vt 0.218197 0.999965
v -2.556692 -86.221146 -0.001275
vn -0.999599 -0.028331 0.000166
vt 0.219353 0.719760
v -2.524065 -52.794827 -0.001272
vn -0.999773 0.021300 0.000002
vt 0.219353 0.415760
v 0.054438 -55.709629 -5.300730
vn 0.041952 0.020978 -0.998899
vt 0.365464 0.448550
v -0.103628 -15.201315 3.380563
vn 0.061713 0.958889 0.276991
vt 0.126114 0.015909
v 0.046713 -33.722168 5.609872
vn 0.025471 0.119670 0.992487
vt 0.064650 0.224254
v 2.231177 -22.238451 -0.001275
vn 0.982459 -0.186477 -0.000002
vt 0.219354 0.095071
v 0.974717 -15.326773 -0.001269
vn 0.321838 0.946755 0.008626
vt 0.219353 0.017320
v 0.186502 -90.807762 5.023352
vn 0.047498 -0.090657 0.994749
vt 0.080820 0.771356
v 0.054468 -55.709629 5.298182
vn 0.041955 0.020977 0.998899
vt 0.073243 0.448550
v 2.120777 -53.126476 -0.001272
vn 0.999699 0.024514 -0.000002
vt 0.219353 0.419491
v 1.178999 -15.726797 5.920101
vn 0.669717 -0.725285 -0.159501
vt 0.661176 0.295781
v 1.178999 -15.726793 -0.058111
vn 0.513892 -0.857855 0.000000
vt 0.670800 0.407805
v 1.955912 -10.618429 -0.107089
vn 0.855017 0.518600 0.000000
vt 0.527755 0.407305
v 1.955912 -10.618431 9.416356
vn 0.767856 0.616372 0.174591
vt 0.528196 0.229708
v -2.786499 -10.618429 -0.107089
vn -0.881024 0.473072 0.000000
vt 0.527755 0.407305
v -1.595432 -15.726797 -0.058111
vn -0.491181 -0.871058 0.000000
vt 0.670800 0.407805
v -1.595432 -15.726797 5.920102
vn -0.821407 -0.563708 -0.086736
vt 0.661176 0.295781
v -2.786499 -10.618431 9.416356
vn -0.488458 0.848024 0.205582
vt 0.528196 0.229708
v 1.178999 -15.726793 -0.058111
vn 0.513892 -0.857855 0.000000
vt 0.734611 0.425141
v 1.178999 -15.726797 5.920101
vn 0.669717 -0.725285 -0.159501
vt 0.731323 0.306385
v 1.955912 -10.618429 -0.107089
vn 0.855017 0.518600 0.000000
vt 0.443526 0.412126
v 1.955912 -10.618427 -9.630535
vn 0.474979 0.871242 -0.123826
vt 0.445324 0.228943
v -2.786499 -10.618427 -9.630534
vn -0.789966 0.600701 -0.122927
vt 0.528196 0.229708
v 0.580471 -13.985221 17.905262
vn 0.736547 0.138142 0.662129
vt 0.584093 0.031368
v 1.955912 -10.618431 9.416356
vn 0.767856 0.616372 0.174591
vt 0.445324 0.228943
v -1.139463 -13.999381 17.935726
vn -0.901021 0.002023 0.433771
vt 0.617013 0.088862
v -1.157869 -18.049444 9.535908
vn -0.444623 -0.684464 -0.577771
vt 0.714502 0.233704
v 0.741436 -18.049444 9.535908
vn 0.703683 -0.562788 -0.433705
vt 0.784816 0.255414
v 0.829031 -17.551666 -9.528410
vn 0.446968 -0.715826 0.536482
vt 0.784816 0.255414
v 1.178999 -15.726791 -6.036324
vn 0.844173 -0.531344 0.071032
vt 0.731323 0.306385
v -1.595432 -15.726795 -6.036323
vn -0.638967 -0.757914 0.131487
vt 0.661176 0.295781
v -1.245464 -17.551666 -9.528410
vn -0.692772 -0.592641 0.410905
vt 0.714502 0.233704
v -1.458048 -12.538148 -18.298307
vn -0.778017 0.133488 -0.613898
vt 0.617013 0.088862
v 0.850285 -12.522248 -18.255123
vn 0.921923 0.040325 -0.385268
vt 0.584093 0.031368
v -0.247520 9.751146 2.338093
vn -0.033012 -0.451580 0.891620
vt 0.763772 0.739622
v -2.272368 9.751150 1.169047
vn -0.788671 -0.451580 0.417221
vt 0.821144 0.739622
v -2.272368 -11.043188 1.169045
vn -0.755929 0.000000 0.654654
vt 0.821144 0.993078
v -0.247519 -11.043188 2.338091
vn 0.188982 0.000000 0.981981
vt 0.763772 0.993078
v -2.272367 9.751146 -1.169048
vn -0.755659 -0.451580 -0.474399
vt 0.935888 0.739622
v -2.272367 -11.043196 -1.169050
vn -0.944911 0.000000 -0.327327
vt 0.935888 0.993079
v -0.247520 9.751143 -2.338093
vn 0.033012 -0.451579 -0.891620
vt 0.993260 0.739622
v -0.247519 -11.043192 -2.338095
vn -0.188982 0.000000 -0.981981
vt 0.993260 0.993078
v 1.777328 9.751146 -1.169046
vn 0.788672 -0.451579 -0.417221
vt 0.935888 0.739622
v 1.777328 -11.043196 -1.169048
vn 0.755929 0.000000 -0.654653
vt 0.935888 0.993079
v 1.777329 9.751146 1.169047
vn 0.755660 -0.451580 0.474399
vt 0.821144 0.739622
v 1.777329 -11.043188 1.169044
vn 0.944911 0.000000 0.327327
vt 0.821144 0.993078
v -0.247519 18.751020 4.582666
vn -0.096883 0.858594 0.503419
vt 0.779921 0.455858
v 3.721186 18.751020 2.291334
vn 0.572954 0.652316 0.496193
vt 0.779921 0.428201
v 3.721186 18.751028 -2.291331
vn 0.484414 0.858594 -0.167806
vt 0.779921 0.372887
v -0.247522 18.751020 -4.582662
vn 0.143238 0.652316 -0.744289
vt 0.779921 0.345230
v -4.216223 18.751028 -2.291331
vn -0.387531 0.858594 -0.335612
vt 0.779921 0.372887
v -4.216223 18.751020 2.291334
vn -0.716192 0.652316 0.248097
vt 0.779921 0.428201
v -2.272368 9.751150 1.169047
vn -0.788671 -0.451580 0.417221
vt 0.981417 0.414654
v -0.247520 9.751146 2.338093
vn -0.033012 -0.451580 0.891620
vt 0.981417 0.428765
v -0.247519 13.481318 7.016633
vn 0.029107 -0.253310 0.966947
vt 0.897903 0.485236
v -6.324100 13.481321 3.508316
vn -0.822847 -0.253310 0.508681
vt 0.897903 0.442890
v 1.777329 9.751146 1.169047
vn 0.755660 -0.451580 0.474399
vt 0.981417 0.414654
v 5.829058 13.481321 3.508317
vn 0.851954 -0.253310 0.458266
vt 0.897903 0.442890
v 1.777328 9.751146 -1.169046
vn 0.788672 -0.451579 -0.417221
vt 0.981417 0.386433
v 5.829057 13.481329 -3.508314
vn 0.822848 -0.253309 -0.508681
vt 0.897903 0.358198
v -0.247520 9.751143 -2.338093
vn 0.033012 -0.451579 -0.891620
vt 0.981417 0.372323
v -0.247519 13.481329 -7.016629
vn -0.029106 -0.253309 -0.966947
vt 0.897903 0.315852
v -2.272367 9.751146 -1.169048
vn -0.755659 -0.451580 -0.474399
vt 0.981417 0.386433
v -6.324100 13.481329 -3.508316
vn -0.851955 -0.253309 -0.458266
vt 0.897903 0.358198
v -0.067900 -35.798317 -4.029953
vn 0.033482 0.074680 -0.996645
vt 0.330427 0.247609
v 1.121130 -25.255548 -0.001271
vn 0.986067 -0.166349 -0.000002
vt 0.219353 0.129011
v -0.103628 -15.201315 -3.383105
vn -0.046621 0.958488 -0.281295
vt 0.312593 0.015909
v 0.046684 -33.722164 -5.612420
vn 0.025469 0.119670 -0.992487
vt 0.374057 0.224254
v -0.067881 -35.798321 4.027406
vn 0.033486 0.074680 0.996645
vt 0.108280 0.247609
v -1.502945 -25.163584 -0.001272
vn -0.987092 -0.160151 0.000003
vt 0.219353 0.127977
v -1.490121 -15.343983 -0.001270
vn -0.338690 0.940883 -0.005308
vt 0.219353 0.017514
v -2.612976 -22.167776 -0.001267
vn -0.980969 -0.194167 0.000002
vt 0.219353 0.094276
v -0.720308 -22.805822 13.151711
vn -0.456809 -0.757828 0.465857
vt 0.844667 0.161458
v 0.303875 -22.805822 13.151712
vn 0.471778 -0.823635 -0.314723
vt 0.899129 0.163217
v 0.479065 -21.810272 -13.020503
vn 0.462411 -0.762200 -0.453021
vt 0.899129 0.163217
v -0.895496 -21.810272 -13.020502
vn -0.455757 -0.837133 0.302481
vt 0.844667 0.161458
v 0.829031 -17.551666 -9.528410
vn 0.446968 -0.715826 0.536482
vt 0.714502 0.233704
v 0.479065 -21.810272 -13.020503
vn 0.462411 -0.762200 -0.453021
vt 0.844667 0.161458
v 0.850285 -12.522248 -18.255123
vn 0.921923 0.040325 -0.385268
vt 0.617013 0.088862
v 1.955912 -10.618427 -9.630535
vn 0.474979 0.871242 -0.123826
vt 0.528196 0.229708
v 1.178999 -15.726791 -6.036324
vn 0.844173 -0.531344 0.071032
vt 0.661176 0.295781
v 0.580471 -13.985221 17.905262
vn 0.736547 0.138142 0.662129
vt 0.617013 0.088862
v 0.303875 -22.805822 13.151712
vn 0.471778 -0.823635 -0.314723
vt 0.844667 0.161458
v 0.741436 -18.049444 9.535908
vn 0.703683 -0.562788 -0.433705
vt 0.714502 0.233704
v -0.103628 -15.201315 3.380563
vn 0.061713 0.958889 0.276991
vt 0.126114 0.015909
v 0.974717 -15.326773 -0.001269
vn 0.321838 0.946755 0.008626
vt 0.219353 0.017320
v 0.205490 -15.333719 -0.001270
vn 0.097768 0.995190 0.006231
vt 0.219353 0.017398
v 0.205490 -15.333719 -0.001270
vn 0.097768 0.995190 0.006231
vt 0.219353 0.017398
v -0.155386 -15.197212 2.063565
vn 0.058706 0.998042 -0.021575
vt 0.162424 0.015862
v -0.103628 -15.201315 3.380563
vn 0.061713 0.958889 0.276991
vt 0.126114 0.015909
v 0.046713 -33.722168 5.609872
vn 0.966398 -0.215502 -0.140124
vt 0.064650 0.224254
v -0.067881 -35.798321 4.027406
vn 0.994405 -0.093027 0.050040
vt 0.108280 0.247609
v 1.121130 -25.255548 -0.001271
vn 0.986067 -0.166349 -0.000002
vt 0.219353 0.129011
v 1.121130 -25.255548 -0.001271
vn 0.986067 -0.166349 -0.000002
vt 0.219353 0.129011
v 2.231177 -22.238451 -0.001275
vn 0.982459 -0.186477 -0.000002
vt 0.219354 0.095071
v 0.046713 -33.722168 5.609872
vn 0.966398 -0.215502 -0.140124
vt 0.064650 0.224254
v 0.046684 -33.722164 -5.612420
vn 0.966398 -0.215502 0.140119
vt 0.374057 0.224254
v 2.231177 -22.238451 -0.001275
vn 0.982459 -0.186477 -0.000002
vt 0.219354 0.095071
v 1.121130 -25.255548 -0.001271
vn 0.986067 -0.166349 -0.000002
vt 0.219353 0.129011
v 1.121130 -25.255548 -0.001271
vn 0.986067 -0.166349 -0.000002
vt 0.219353 0.129011
v -0.067900 -35.798317 -4.029953
vn 0.994405 -0.093027 -0.050045
vt 0.330427 0.247609
v 0.046684 -33.722164 -5.612420
vn 0.966398 -0.215502 0.140119
vt 0.374057 0.224254
v 0.974717 -15.326773 -0.001269
vn 0.321838 0.946755 0.008626
vt 0.219353 0.017320
v -0.103628 -15.201315 -3.383105
vn -0.046621 0.958488 -0.281295
vt 0.312593 0.015909
v -0.155386 -15.197212 -2.066107
vn -0.061035 0.997964 0.018505
vt 0.276283 0.015862
v -0.155386 -15.197212 -2.066107
vn -0.061035 0.997964 0.018505
vt 0.276283 0.015862
v 0.205490 -15.333719 -0.001270
vn 0.097768 0.995190 0.006231
vt 0.219353 0.017398
v 0.974717 -15.326773 -0.001269
vn 0.321838 0.946755 0.008626
vt 0.219353 0.017320
v 0.046713 -33.722168 5.609872
vn -0.976427 -0.209869 -0.050445
vt 0.064650 0.224254
v -2.612976 -22.167776 -0.001267
vn -0.980969 -0.194167 0.000002
vt 0.219353 0.094276
v -1.502945 -25.163584 -0.001272
vn -0.987092 -0.160151 0.000003
vt 0.219353 0.127977
v -1.502945 -25.163584 -0.001272
vn -0.987092 -0.160151 0.000003
vt 0.219353 0.127977
v -0.067881 -35.798321 4.027406
vn -0.983933 -0.070662 0.163958
vt 0.108280 0.247609
v 0.046713 -33.722168 5.609872
vn -0.976427 -0.209869 -0.050445
vt 0.064650 0.224254
v -1.490121 -15.343983 -0.001270
vn -0.338690 0.940883 -0.005308
vt 0.219353 0.017514
v -0.103628 -15.201315 3.380563
vn 0.061713 0.958889 0.276991
vt 0.126114 0.015909
v -0.155386 -15.197212 2.063565
vn 0.058706 0.998042 -0.021575
vt 0.162424 0.015862
v -0.155386 -15.197212 2.063565
vn 0.058706 0.998042 -0.021575
vt 0.162424 0.015862
v -0.720899 -15.333719 -0.001270
vn -0.104169 0.994470 -0.013372
vt 0.219353 0.017398
v -1.490121 -15.343983 -0.001270
vn -0.338690 0.940883 -0.005308
vt 0.219353 0.017514
v 0.046684 -33.722164 -5.612420
vn -0.976427 -0.209870 0.050451
vt 0.374057 0.224254
v -0.067900 -35.798317 -4.029953
vn -0.983934 -0.070663 -0.163952
vt 0.330427 0.247609
v -1.502945 -25.163584 -0.001272
vn -0.987092 -0.160151 0.000003
vt 0.219353 0.127977
v -1.502945 -25.163584 -0.001272
vn -0.987092 -0.160151 0.000003
vt 0.219353 0.127977
v -2.612976 -22.167776 -0.001267
vn -0.980969 -0.194167 0.000002
vt 0.219353 0.094276
v 0.046684 -33.722164 -5.612420
vn -0.976427 -0.209870 0.050451
vt 0.374057 0.224254
v -0.103628 -15.201315 -3.383105
vn -0.046621 0.958488 -0.281295
vt 0.312593 0.015909
v -1.490121 -15.343983 -0.001270
vn -0.338690 0.940883 -0.005308
vt 0.219353 0.017514
v -0.720899 -15.333719 -0.001270
vn -0.104169 0.994470 -0.013372
vt 0.219353 0.017398
v -0.720899 -15.333719 -0.001270
vn -0.104169 0.994470 -0.013372
vt 0.219353 0.017398
v -0.155386 -15.197212 -2.066107
vn -0.061035 0.997964 0.018505
vt 0.276283 0.015862
v -0.103628 -15.201315 -3.383105
vn -0.046621 0.958488 -0.281295
vt 0.312593 0.015909
f 3/3/3 2/2/2 11/11/11
f 14/14/14 15/15/15 16/16/16
f 84/84/84 16/16/16 15/15/15
f 16/16/16 84/84/84 83/83/83
f 82/82/82 83/83/83 84/84/84
f 23/23/23 31/31/31 30/30/30
f 77/77/77 30/30/30 31/31/31
f 30/30/30 77/77/77 76/76/76
f 27/27/27 76/76/76 77/77/77
f 76/76/76 27/27/27 29/29/29
f 21/21/21 29/29/29 27/27/27
f 29/29/29 21/21/21 20/20/20
f 18/18/18 20/20/20 21/21/21
f 20/20/20 18/18/18 19/19/19
f 34/34/34 19/19/19 18/18/18
f 19/19/19 34/34/34 22/22/22
f 33/33/33 22/22/22 34/34/34
f 33/33/33 34/34/34 32/32/32
f 25/25/25 37/37/37 36/36/36
f 78/78/78 36/36/36 37/37/37
f 36/36/36 78/78/78 79/79/79
f 32/32/32 79/79/79 78/78/78
f 79/79/79 32/32/32 35/35/35
f 34/34/34 35/35/35 32/32/32
f 35/35/35 34/34/34 36/36/36
f 26/26/26 36/36/36 34/34/34
f 36/36/36 26/26/26 25/25/25
f 18/18/18 25/25/25 26/26/26
f 25/25/25 18/18/18 24/24/24
f 21/21/21 24/24/24 18/18/18
f 24/24/24 21/21/21 28/28/28
f 27/27/27 28/28/28 21/21/21
f 49/49/49 48/48/48 41/41/41
f 38/38/38 41/41/41 48/48/48
f 41/41/41 38/38/38 40/40/40
f 39/39/39 40/40/40 38/38/38
f 40/40/40 39/39/39 43/43/43
f 42/42/42 43/43/43 39/39/39
f 43/43/43 42/42/42 45/45/45
f 44/44/44 45/45/45 42/42/42
f 45/45/45 44/44/44 47/47/47
f 46/46/46 47/47/47 44/44/44
f 47/47/47 46/46/46 49/49/49
f 48/48/48 49/49/49 46/46/46
f 50/50/50 51/51/51 52/52/52
f 55/55/55 50/50/50 54/54/54
f 52/52/52 54/54/54 50/50/50
f 54/54/54 52/52/52 53/53/53
f 67/67/67 66/66/66 59/59/59
f 56/56/56 59/59/59 66/66/66
f 59/59/59 56/56/56 58/58/58
f 57/57/57 58/58/58 56/56/56
f 58/58/58 57/57/57 61/61/61
f 60/60/60 61/61/61 57/57/57
f 61/61/61 60/60/60 63/63/63
f 62/62/62 63/63/63 60/60/60
f 63/63/63 62/62/62 65/65/65
f 64/64/64 65/65/65 62/62/62
f 65/65/65 64/64/64 67/67/67
f 66/66/66 67/67/67 64/64/64
f 65/65/65 53/53/53 63/63/63
f 52/52/52 63/63/63 53/53/53
f 63/63/63 52/52/52 61/61/61
f 51/51/51 61/61/61 52/52/52
f 61/61/61 51/51/51 58/58/58
f 50/50/50 58/58/58 51/51/51
f 58/58/58 50/50/50 59/59/59
f 55/55/55 59/59/59 50/50/50
f 59/59/59 55/55/55 67/67/67
f 54/54/54 67/67/67 55/55/55
f 67/67/67 54/54/54 65/65/65
f 53/53/53 65/65/65 54/54/54
f 68/68/68 69/69/69 13/13/13
f 72/72/72 13/13/13 69/69/69
f 13/13/13 72/72/72 12/12/12
f 5/5/5 12/12/12 72/72/72
f 12/12/12 5/5/5 4/4/4
f 6/6/6 4/4/4 5/5/5
f 4/4/4 6/6/6 1/1/1
f 9/9/9 71/71/71 70/70/70
f 75/75/75 70/70/70 71/71/71
f 70/70/70 75/75/75 74/74/74
f 7/7/7 74/74/74 75/75/75
f 72/72/72 73/73/73 5/5/5
f 68/68/68 5/5/5 73/73/73
f 5/5/5 68/68/68 6/6/6
f 13/13/13 6/6/6 68/68/68
f 6/6/6 13/13/13 2/2/2
f 12/12/12 2/2/2 13/13/13
f 2/2/2 12/12/12 11/11/11
f 4/4/4 11/11/11 12/12/12
f 11/11/11 4/4/4 3/3/3
f 1/1/1 3/3/3 4/4/4
f 3/3/3 1/1/1 2/2/2
f 6/6/6 2/2/2 1/1/1
f 75/75/75 8/8/8 7/7/7
f 9/9/9 7/7/7 8/8/8
f 7/7/7 9/9/9 10/10/10
f 70/70/70 10/10/10 9/9/9
f 35/35/35 36/36/36 79/79/79
f 81/81/81 82/82/82 80/80/80
f 84/84/84 80/80/80 82/82/82
f 86/86/86 87/87/87 85/85/85
f 14/14/14 85/85/85 87/87/87
f 85/85/85 14/14/14 17/17/17
f 16/16/16 17/17/17 14/14/14
f 76/76/76 29/29/29 30/30/30
f 20/20/20 30/30/30 29/29/29
f 30/30/30 20/20/20 23/23/23
f 19/19/19 23/23/23 20/20/20
f 23/23/23 19/19/19 22/22/22
f 90/90/90 88/88/88 89/89/89
f 93/93/93 91/91/91 92/92/92
f 96/96/96 94/94/94 95/95/95
f 99/99/99 97/97/97 98/98/98
f 102/102/102 100/100/100 101/101/101
f 105/105/105 103/103/103 104/104/104
f 108/108/108 106/106/106 107/107/107
f 111/111/111 109/109/109 110/110/110
f 114/114/114 112/112/112 113/113/113
f 117/117/117 115/115/115 116/116/116
f 120/120/120 118/118/118 119/119/119
f 123/123/123 121/121/121 122/122/122
f 126/126/126 124/124/124 125/125/125
f 129/129/129 127/127/127 128/128/128
f 132/132/132 130/130/130 131/131/131
f 135/135/135 133/133/133 134/134/134
f 18/18/18 26/26/26 34/34/34
