mtllib GAND_STAFF.mtl
g Sphere05
usemtl Material_#216
v 23.864882 -1.774075 -1.182567
vn 0.136736 -0.636425 0.759122
vt 0.508570 0.899988
v 14.121630 -0.746684 -9.118704
vn 0.044813 -0.518549 -0.853873
vt 0.844505 0.935436
v 29.514544 -3.646450 -6.111306
vn 0.105943 -0.931798 -0.347172
vt 0.692829 0.879543
v 42.168182 5.124637 -1.412222
vn -0.153585 0.197199 0.968258
vt 0.503978 0.832929
v 25.829088 3.062450 -5.449619
vn -0.131902 0.990123 -0.047518
vt 0.691268 0.892292
v 101.275444 5.151566 -1.657984
vn 0.020256 -0.109445 0.993787
vt 0.463316 0.617584
v 57.646301 5.404909 -2.030206
vn 0.034177 0.462145 0.886146
vt 0.507794 0.777020
v 73.365570 0.647928 -3.542938
vn 0.021710 -0.857790 0.513542
vt 0.565330 0.719576
v 63.725403 5.834169 -4.647305
vn 0.023530 0.849536 -0.527005
vt 0.581770 0.754634
v 104.746506 6.386467 -6.990597
vn 0.004598 0.163756 -0.986490
vt 0.656398 0.604591
v 63.899872 2.105440 -6.783339
vn 0.018398 -0.376558 -0.926210
vt 0.681143 0.753876
v 39.643311 6.168277 -7.077637
vn -0.163742 0.772817 -0.613141
vt 0.727446 0.842025
v 30.829042 0.648487 -8.330036
vn 0.036696 0.128432 -0.991039
vt 0.784850 0.874429
v 43.689510 1.415065 -6.570639
vn 0.213661 -0.780691 -0.587257
vt 0.716127 0.828158
v -0.833150 -0.841555 -10.383561
vn -0.360254 -0.189320 -0.913441
vt 0.922885 0.987843
v 8.427233 1.033673 -8.668227
vn -0.009029 0.580561 -0.814167
vt 0.826249 0.955976
v 8.951065 -4.464786 -8.047332
vn 0.151906 -0.726620 -0.670036
vt 0.801482 0.954476
v 2.577231 -5.617015 -6.192421
vn -0.440724 -0.895981 0.054595
vt 0.740379 0.976294
v 6.902947 -4.949039 -3.630740
vn 0.182043 -0.592359 0.784838
vt 0.633585 0.962103
v 9.110997 3.223301 -4.521076
vn 0.002044 0.843033 0.537858
vt 0.667102 0.953614
v 1.729968 1.027051 -1.946639
vn 0.011958 0.295639 0.955225
vt 0.564275 0.980557
v 145.077148 2.730932 -3.819906
vn -0.150460 -0.979734 0.132227
vt 0.529108 0.471335
v 143.681091 3.152724 -3.637931
vn -0.028300 -0.487493 0.872668
vt 0.525382 0.475829
v 143.652649 2.472144 -4.460020
vn 0.006307 -0.987372 -0.158296
vt 0.529287 0.475784
v 103.742897 2.941452 -3.828268
vn 0.057445 -0.992654 0.106480
vt 0.528826 0.608988
v 149.082977 6.063711 -2.369126
vn 0.122326 0.709232 0.694281
vt 0.569328 0.460173
v 143.731857 6.819456 -3.680570
vn 0.085895 0.961501 -0.261032
vt 0.579950 0.477790
v 143.724747 6.883116 -3.488353
vn 0.078413 0.996911 0.004380
vt 0.563254 0.477792
v 104.689758 7.777550 -3.637901
vn -0.007435 0.982165 0.187873
vt 0.519495 0.604712
v 143.651001 4.600737 -5.584596
vn -0.011901 -0.497164 -0.867575
vt 0.620397 0.476862
v 155.417908 4.989904 -5.901398
vn 0.075411 0.589434 -0.804289
vt 0.670483 0.441701
v 164.966339 3.177602 -7.679776
vn -0.354152 0.415486 -0.837823
vt 0.662445 0.408568
v 164.937576 0.960157 -8.079503
vn -0.384458 -0.458909 -0.800996
vt 0.615234 0.408568
v 143.729568 6.850447 -2.576681
vn 0.029414 0.585439 0.810182
vt 0.549671 0.476567
v -2.008912 2.099133 -4.860182
vn -0.833790 0.498747 0.236740
vt 0.683032 0.991854
v 165.135849 0.676153 -2.765509
vn -0.230397 -0.732026 0.641135
vt 0.485035 0.408568
v 2.467568 -2.675014 -1.754282
vn -0.378904 -0.421920 0.823660
vt 0.546932 0.976887
v 122.919121 2.701598 -3.482742
vn -0.010310 -0.998369 0.056148
vt 0.531824 0.539042
v 121.607094 6.396956 -2.121196
vn 0.010609 0.160454 0.986986
vt 0.469001 0.543841
v 143.691025 6.122031 -6.270273
vn 0.044487 0.425717 -0.903762
vt 0.667208 0.479573
v 45.049122 7.645258 -2.157080
vn -0.100828 0.876134 0.471405
vt 0.517702 0.822405
v 165.143814 4.487302 -4.530941
vn -0.137710 0.804553 0.577694
vt 0.645439 0.408568
v 165.012863 4.783391 -5.921673
vn -0.345743 0.927461 -0.142399
vt 0.675407 0.408568
v 167.004486 3.826261 -8.804413
vn -0.182000 0.419031 -0.889544
vt 0.720612 0.381568
v 167.318039 0.453207 -8.930047
vn -0.464206 -0.478250 -0.745513
vt 0.614569 0.374873
v 166.997375 5.660451 -4.714057
vn -0.304635 0.738084 0.602021
vt 0.695954 0.381568
v 166.998047 6.033193 -6.457338
vn -0.272577 0.932591 -0.236590
vt 0.739407 0.381568
v 167.410812 0.781629 -2.158452
vn -0.450321 -0.200118 0.870152
vt 0.463603 0.374659
v 167.272736 -0.193499 -4.667115
vn -0.595243 -0.795609 0.112663
vt 0.495418 0.374659
v 171.329895 2.683889 -8.702427
vn -0.414906 0.350899 -0.839478
vt 0.671727 0.320388
v 171.072983 -0.488207 -10.069736
vn -0.250582 -0.343085 -0.905263
vt 0.599203 0.324857
v 171.448929 5.386128 -3.367489
vn -0.213804 0.662791 0.717632
vt 0.651178 0.320388
v 171.254059 5.869718 -5.564028
vn -0.510161 0.816137 -0.271397
vt 0.709305 0.320388
v 170.426453 -0.364337 -0.852585
vn -0.272092 -0.188482 0.943632
vt 0.375909 0.335353
v 170.203674 -4.863673 -6.311163
vn -0.640737 -0.767433 -0.022414
vt 0.347988 0.334266
v 172.193390 3.487836 -9.778069
vn -0.537764 0.338162 -0.772306
vt 0.739862 0.306173
v 174.719040 -2.319545 -11.200740
vn -0.343720 -0.130559 -0.929952
vt 0.564815 0.273881
v 172.352051 7.388860 -3.790679
vn -0.620480 0.538788 0.569835
vt 0.742682 0.305156
v 172.255981 7.875761 -6.144264
vn -0.708472 0.678952 -0.192589
vt 0.809808 0.305188
v 172.331314 -0.515658 -0.671740
vn 0.160110 -0.349256 0.923247
vt 0.365521 0.313025
v 175.370712 0.346387 -1.324590
vn -0.188645 -0.037706 0.981321
vt 0.416661 0.268666
v 175.219833 -3.904941 -6.688756
vn -0.250621 -0.965578 0.069632
vt 0.405076 0.268665
v 172.134842 -5.623614 -6.679708
vn 0.001275 -0.995992 0.089428
vt 0.333244 0.313960
v 178.986786 1.262265 -9.506410
vn -0.198832 0.456318 -0.867317
vt 0.631774 0.216609
v 180.293427 -3.714351 -12.819644
vn -0.430513 -0.262042 -0.863709
vt 0.451184 0.200694
v 173.816727 3.655095 -10.298313
vn 0.000689 0.406121 -0.913819
vt 0.695872 0.255719
v 177.633621 7.386799 -4.242605
vn -0.260340 0.965007 -0.031385
vt 0.725039 0.235608
v 173.854050 8.584424 -6.149096
vn 0.024614 0.871816 -0.489214
vt 0.827933 0.290102
v 173.827850 8.082540 -3.538423
vn -0.215342 0.829750 0.514920
vt 0.757417 0.288825
v 179.095490 6.610219 -1.077319
vn -0.274921 0.501699 0.820193
vt 0.637827 0.216609
v 180.604965 -3.029079 -0.053292
vn -0.229903 -0.272440 0.934302
vt 0.367566 0.176540
v 186.335312 -13.338345 -6.021293
vn -0.204230 -0.975236 -0.084877
vt 0.000499 0.117846
v 186.243820 -4.539745 -14.138116
vn -0.026686 -0.147637 -0.988682
vt 0.461338 0.127508
v 186.427734 -3.823597 0.166021
vn -0.056312 -0.295098 0.953806
vt 0.373983 0.129923
v 190.039337 3.032940 -11.632213
vn 0.298159 0.399286 -0.866990
vt 0.679149 0.084330
v 190.063965 -4.512981 -13.660329
vn 0.391281 -0.228929 -0.891342
vt 0.448570 0.079499
v 183.632202 3.365994 -12.269014
vn -0.223161 0.377522 -0.898708
vt 0.632396 0.145260
v 190.294968 9.052410 -2.729847
vn 0.439791 0.666156 0.602345
vt 0.767887 0.069837
v 188.922974 10.898830 -7.044474
vn 0.468531 0.798556 -0.377871
vt 0.942046 0.087286
v 182.543579 12.390423 -6.898407
vn -0.038334 0.973110 -0.227127
vt 0.999500 0.168986
v 183.894119 11.369511 -2.893480
vn -0.061370 0.547593 0.834491
vt 0.870787 0.152506
v 190.138443 -3.889988 0.811432
vn 0.233180 -0.218282 0.947618
vt 0.427812 0.086745
v 190.271332 -11.886654 -5.869210
vn 0.489868 -0.868508 0.075656
vt 0.051134 0.069837
v 192.984970 2.433995 -10.323037
vn 0.601850 0.326284 -0.728914
vt 0.649496 0.047591
v 193.040894 -2.846447 -11.690958
vn 0.706510 -0.174261 -0.685913
vt 0.473403 0.037929
v 193.232147 6.601742 -4.205492
vn 0.818225 0.519458 0.246315
vt 0.707228 0.033098
v 193.160324 7.035412 -6.480735
vn 0.738035 0.556880 -0.381037
vt 0.778220 0.033098
v 195.117126 -2.322636 -1.490802
vn 0.813218 0.041541 0.580474
vt 0.408042 0.031569
v 195.088120 -7.315189 -6.821997
vn 0.880809 -0.472669 0.027577
vt 0.246259 0.007414
v 195.391754 1.232556 -7.346467
vn 0.957112 0.188639 -0.219889
vt 0.580719 0.004077
v 178.217346 10.082524 -5.771160
vn -0.792082 0.601619 -0.103249
vt 0.888309 0.222597
f 7/7/7 8/8/8 6/6/6
f 25/25/25 6/6/6 8/8/8
f 4/4/4 1/1/1 14/14/14
f 3/3/3 14/14/14 1/1/1
f 14/14/14 3/3/3 13/13/13
f 2/2/2 13/13/13 3/3/3
f 13/13/13 2/2/2 16/16/16
f 17/17/17 16/16/16 2/2/2
f 16/16/16 17/17/17 15/15/15
f 18/18/18 15/15/15 17/17/17
f 15/15/15 18/18/18 35/35/35
f 37/37/37 35/35/35 18/18/18
f 35/35/35 37/37/37 21/21/21
f 19/19/19 21/21/21 37/37/37
f 21/21/21 19/19/19 20/20/20
f 1/1/1 20/20/20 19/19/19
f 20/20/20 1/1/1 5/5/5
f 4/4/4 5/5/5 1/1/1
f 5/5/5 4/4/4 12/12/12
f 41/41/41 12/12/12 4/4/4
f 12/12/12 41/41/41 9/9/9
f 7/7/7 9/9/9 41/41/41
f 9/9/9 7/7/7 29/29/29
f 6/6/6 29/29/29 7/7/7
f 29/29/29 6/6/6 39/39/39
f 25/25/25 39/39/39 6/6/6
f 39/39/39 25/25/25 38/38/38
f 10/10/10 38/38/38 25/25/25
f 38/38/38 10/10/10 30/30/30
f 40/40/40 30/30/30 10/10/10
f 30/30/30 40/40/40 31/31/31
f 27/27/27 31/31/31 40/40/40
f 31/31/31 27/27/27 26/26/26
f 28/28/28 26/26/26 27/27/27
f 26/26/26 28/28/28 34/34/34
f 39/39/39 34/34/34 28/28/28
f 34/34/34 39/39/39 23/23/23
f 38/38/38 23/23/23 39/39/39
f 23/23/23 38/38/38 24/24/24
f 30/30/30 24/24/24 38/38/38
f 24/24/24 30/30/30 31/31/31
f 10/10/10 25/25/25 11/11/11
f 8/8/8 11/11/11 25/25/25
f 31/31/31 22/22/22 24/24/24
f 23/23/23 24/24/24 22/22/22
f 34/34/34 23/23/23 26/26/26
f 22/22/22 26/26/26 23/23/23
f 26/26/26 22/22/22 36/36/36
f 28/28/28 29/29/29 39/39/39
f 16/16/16 15/15/15 35/35/35
f 9/9/9 14/14/14 12/12/12
f 13/13/13 12/12/12 14/14/14
f 12/12/12 13/13/13 5/5/5
f 16/16/16 5/5/5 13/13/13
f 5/5/5 16/16/16 20/20/20
f 35/35/35 20/20/20 16/16/16
f 20/20/20 35/35/35 21/21/21
f 37/37/37 18/18/18 19/19/19
f 17/17/17 19/19/19 18/18/18
f 19/19/19 17/17/17 1/1/1
f 2/2/2 1/1/1 17/17/17
f 1/1/1 2/2/2 3/3/3
f 10/10/10 27/27/27 40/40/40
f 45/45/45 33/33/33 44/44/44
f 32/32/32 44/44/44 33/33/33
f 44/44/44 32/32/32 47/47/47
f 43/43/43 47/47/47 32/32/32
f 47/47/47 43/43/43 46/46/46
f 48/48/48 46/46/46 42/42/42
f 43/43/43 42/42/42 46/46/46
f 42/42/42 43/43/43 31/31/31
f 32/32/32 31/31/31 43/43/43
f 31/31/31 32/32/32 22/22/22
f 33/33/33 22/22/22 32/32/32
f 22/22/22 33/33/33 36/36/36
f 45/45/45 36/36/36 33/33/33
f 36/36/36 45/45/45 49/49/49
f 55/55/55 49/49/49 45/45/45
f 49/49/49 55/55/55 48/48/48
f 54/54/54 48/48/48 55/55/55
f 48/48/48 54/54/54 46/46/46
f 52/52/52 46/46/46 54/54/54
f 46/46/46 52/52/52 47/47/47
f 53/53/53 47/47/47 52/52/52
f 47/47/47 53/53/53 44/44/44
f 50/50/50 44/44/44 53/53/53
f 44/44/44 50/50/50 45/45/45
f 51/51/51 45/45/45 50/50/50
f 45/45/45 51/51/51 55/55/55
f 63/63/63 55/55/55 51/51/51
f 55/55/55 63/63/63 54/54/54
f 60/60/60 54/54/54 63/63/63
f 54/54/54 60/60/60 52/52/52
f 61/61/61 52/52/52 60/60/60
f 52/52/52 61/61/61 58/58/58
f 69/69/69 58/58/58 61/61/61
f 58/58/58 69/69/69 59/59/59
f 68/68/68 59/59/59 69/69/69
f 59/59/59 68/68/68 56/56/56
f 66/66/66 56/56/56 68/68/68
f 56/56/56 66/66/66 57/57/57
f 64/64/64 57/57/57 66/66/66
f 57/57/57 64/64/64 65/65/65
f 77/77/77 65/65/65 64/64/64
f 65/65/65 77/77/77 73/73/73
f 75/75/75 73/73/73 77/77/77
f 73/73/73 75/75/75 76/76/76
f 84/84/84 76/76/76 75/75/75
f 76/76/76 84/84/84 85/85/85
f 90/90/90 85/85/85 84/84/84
f 85/85/85 90/90/90 89/89/89
f 88/88/88 89/89/89 90/90/90
f 89/89/89 88/88/88 82/82/82
f 78/78/78 82/82/82 88/88/88
f 82/82/82 78/78/78 81/81/81
f 80/80/80 81/81/81 78/78/78
f 81/81/81 80/80/80 91/91/91
f 77/77/77 91/91/91 80/80/80
f 91/91/91 77/77/77 64/64/64
f 49/49/49 48/48/48 36/36/36
f 42/42/42 36/36/36 48/48/48
f 36/36/36 42/42/42 26/26/26
f 31/31/31 26/26/26 42/42/42
f 52/52/52 58/58/58 53/53/53
f 59/59/59 53/53/53 58/58/58
f 53/53/53 59/59/59 50/50/50
f 56/56/56 50/50/50 59/59/59
f 50/50/50 56/56/56 57/57/57
f 66/66/66 68/68/68 64/64/64
f 67/67/67 64/64/64 68/68/68
f 64/64/64 67/67/67 91/91/91
f 70/70/70 91/91/91 67/67/67
f 91/91/91 70/70/70 81/81/81
f 71/71/71 81/81/81 70/70/70
f 81/81/81 71/71/71 74/74/74
f 72/72/72 74/74/74 71/71/71
f 74/74/74 72/72/72 83/83/83
f 76/76/76 83/83/83 72/72/72
f 83/83/83 76/76/76 85/85/85
f 65/65/65 72/72/72 62/62/62
f 71/71/71 62/62/62 72/72/72
f 62/62/62 71/71/71 61/61/61
f 70/70/70 61/61/61 71/71/71
f 61/61/61 70/70/70 69/69/69
f 67/67/67 69/69/69 70/70/70
f 69/69/69 67/67/67 68/68/68
f 65/65/65 62/62/62 57/57/57
f 65/65/65 73/73/73 72/72/72
f 76/76/76 72/72/72 73/73/73
f 61/61/61 60/60/60 62/62/62
f 60/60/60 63/63/63 62/62/62
f 51/51/51 62/62/62 63/63/63
f 62/62/62 51/51/51 57/57/57
f 50/50/50 57/57/57 51/51/51
f 80/80/80 78/78/78 79/79/79
f 86/86/86 79/79/79 78/78/78
f 79/79/79 86/86/86 87/87/87
f 90/90/90 87/87/87 86/86/86
f 78/78/78 88/88/88 86/86/86
f 90/90/90 86/86/86 88/88/88
f 85/85/85 89/89/89 83/83/83
f 82/82/82 83/83/83 89/89/89
f 83/83/83 82/82/82 74/74/74
f 81/81/81 74/74/74 82/82/82
f 90/90/90 84/84/84 87/87/87
f 75/75/75 87/87/87 84/84/84
f 87/87/87 75/75/75 79/79/79
f 77/77/77 79/79/79 75/75/75
f 79/79/79 77/77/77 80/80/80
f 28/28/28 27/27/27 29/29/29
f 10/10/10 29/29/29 27/27/27
f 29/29/29 10/10/10 9/9/9
f 11/11/11 9/9/9 10/10/10
f 9/9/9 11/11/11 14/14/14
f 8/8/8 14/14/14 11/11/11
f 14/14/14 8/8/8 4/4/4
f 7/7/7 4/4/4 8/8/8
f 4/4/4 7/7/7 41/41/41
