mtllib CINE01_CORWINCONVERSATION1_SHOT8_SWORDCORWIN.mtl
g Mesh01
usemtl Material_#23928
v -7468.862793 232.735031 -7161.468262
vn -0.933946 0.325291 0.148091
vt 0.377520 0.244482
v -7466.194824 241.879761 -7159.203125
vn -0.426781 0.062610 0.902185
vt 0.220542 0.002471
v -7467.846680 241.846649 -7161.542969
vn -0.993877 0.047326 0.099848
vt 0.220542 0.244482
v -7466.524902 234.325668 -7158.092285
vn -0.438206 0.673443 0.595357
vt 0.377520 0.000849
v -7463.343750 241.955887 -7159.464355
vn 0.573342 0.094393 0.813861
vt 0.220542 0.002471
v -7462.418457 234.435303 -7158.467773
vn 0.547517 0.739142 0.392293
vt 0.377520 0.000849
v -7462.144043 241.998917 -7162.064941
vn 0.989992 0.100374 -0.099196
vt 0.220542 0.244482
v -7460.650879 232.954300 -7162.219727
vn 0.915525 0.375219 -0.144999
vt 0.377520 0.244482
v -7463.795898 241.965805 -7164.404785
vn 0.422691 0.092910 -0.901499
vt 0.220542 0.459621
v -7463.069824 234.449570 -7165.582520
vn 0.402068 0.700769 -0.589291
vt 0.390847 0.481477
v -7466.647461 241.889679 -7164.144043
vn -0.577699 0.071306 -0.813129
vt 0.220542 0.459621
v -7467.175781 234.339951 -7165.206543
vn -0.585698 0.712777 -0.385884
vt 0.377520 0.464885
v -7466.414063 250.211746 -7159.166504
vn -0.416382 -0.090039 0.904720
vt 0.377618 0.002471
v -7468.065918 250.178650 -7161.506348
vn -0.990781 -0.101546 0.089676
vt 0.377618 0.244482
v -7463.562500 250.287888 -7159.427246
vn 0.576372 -0.063536 0.814714
vt 0.377618 0.002471
v -7462.363281 250.330917 -7162.028320
vn 0.994728 -0.048540 -0.090338
vt 0.377618 0.244482
v -7464.015137 250.297806 -7164.368164
vn 0.420329 -0.060047 -0.905383
vt 0.377618 0.459621
v -7466.866211 250.221664 -7164.106934
vn -0.572426 -0.086550 -0.815376
vt 0.377618 0.459621
v -7467.161133 258.524811 -7157.985352
vn -0.372082 -0.540213 0.754801
vt 0.220639 0.000849
v -7469.539551 258.477142 -7161.354980
vn -0.834625 -0.549229 0.041822
vt 0.220639 0.244482
v -7463.055176 258.634430 -7158.361328
vn 0.476394 -0.517706 0.710654
vt 0.220639 0.000849
v -7461.327637 258.696381 -7162.105957
vn 0.862326 -0.504216 -0.046472
vt 0.220639 0.244482
v -7463.706055 258.648712 -7165.475586
vn 0.399784 -0.513232 -0.759451
vt 0.220639 0.464885
v -7467.812500 258.539093 -7165.099609
vn -0.448692 -0.535739 -0.715304
vt 0.220639 0.464885
v -7467.573730 232.706772 -7147.385254
vn -0.901412 0.350663 0.253951
vt 0.937654 0.820251
v -7465.382813 234.300629 -7145.616699
vn -0.431334 0.650810 0.624818
vt 0.998224 0.974523
v -7466.524902 234.325668 -7158.092285
vn -0.438206 0.673443 0.595357
vt 0.610611 0.974523
v -7468.862793 232.735031 -7161.468262
vn -0.933946 0.325291 0.148091
vt 0.500091 0.820251
v -7465.382813 234.300629 -7145.616699
vn -0.431334 0.650810 0.624818
vt 0.999500 0.934366
v -7461.276855 234.410263 -7145.992188
vn 0.488525 0.627741 0.606040
vt 0.999500 0.481476
v -7462.418457 234.435303 -7158.467773
vn 0.547517 0.739142 0.392293
vt 0.611887 0.481476
v -7466.524902 234.325668 -7158.092285
vn -0.438206 0.673443 0.595357
vt 0.611887 0.934367
v -7461.276855 234.410263 -7145.992188
vn 0.488525 0.627741 0.606040
vt 0.998224 0.974523
v -7459.361328 232.926041 -7148.136719
vn 0.902432 0.257331 0.345540
vt 0.937654 0.820251
v -7460.650879 232.954300 -7162.219727
vn 0.915525 0.375219 -0.144999
vt 0.500091 0.820251
v -7462.418457 234.435303 -7158.467773
vn 0.547517 0.739142 0.392293
vt 0.610611 0.974523
v -7461.947754 232.982742 -7176.391113
vn 0.881678 0.399780 -0.250638
vt 0.059793 0.820251
v -7464.220215 234.474792 -7178.145996
vn 0.396389 0.678066 -0.618952
vt -0.000777 0.974523
v -7463.069824 234.449570 -7165.582520
vn 0.402068 0.700769 -0.589291
vt 0.389571 0.974523
v -7464.220215 234.474792 -7178.145996
vn 0.396389 0.678066 -0.618952
vt 0.000500 0.481477
v -7468.326172 234.365158 -7177.770020
vn -0.520981 0.606521 -0.600592
vt 0.000500 0.934367
v -7467.175781 234.339951 -7165.206543
vn -0.585698 0.712777 -0.385884
vt 0.390848 0.934367
v -7468.326172 234.365158 -7177.770020
vn -0.520981 0.606521 -0.600592
vt -0.000777 0.974522
v -7470.160156 232.763474 -7175.639648
vn -0.914789 0.212586 -0.343466
vt 0.059793 0.820251
v -7467.175781 234.339951 -7165.206543
vn -0.585698 0.712777 -0.385884
vt 0.389571 0.974523
v -7467.528320 230.994934 -7147.392578
vn -0.756554 -0.498010 0.423807
vt 0.937654 0.626236
v -7465.264160 229.795837 -7145.636719
vn -0.247971 -0.557445 0.792317
vt 0.998224 0.472399
v -7468.817871 231.023193 -7161.476074
vn -0.853201 -0.514749 0.084156
vt 0.500091 0.626236
v -7461.158203 229.905472 -7146.012207
vn 0.566135 -0.647195 0.510519
vt 0.999501 0.481476
v -7459.316406 231.214203 -7148.144043
vn 0.965786 -0.226945 0.125513
vt 0.937654 0.626236
v -7460.605469 231.242462 -7162.227539
vn 0.879040 -0.468455 -0.088538
vt 0.500091 0.626236
v -7461.902832 231.270905 -7176.398438
vn 0.781586 -0.453712 -0.428099
vt 0.059793 0.626236
v -7464.101563 229.970001 -7178.166016
vn 0.276800 -0.536514 -0.797204
vt 0.000500 0.481476
v -7468.207520 229.860367 -7177.790039
vn -0.531485 -0.671477 -0.516374
vt -0.000777 0.472399
v -7470.115234 231.051636 -7175.647461
vn -0.952553 -0.276273 -0.127734
vt 0.059793 0.626236
v -7464.354492 229.922668 -7158.299805
vn -0.096195 -0.616491 0.781464
vt 0.611887 0.481476
v -7465.264160 229.795837 -7145.636719
vn -0.247971 -0.557445 0.792317
vt 0.999500 0.934367
v -7465.005859 229.936935 -7165.414063
vn 0.163911 -0.663525 -0.729977
vt 0.389571 0.476486
v -7468.207520 229.860367 -7177.790039
vn -0.531485 -0.671477 -0.516374
vt 0.000500 0.934367
v -7465.005859 229.936935 -7165.414063
vn 0.163911 -0.663525 -0.729977
vt 0.390847 0.934367
v -7467.064941 223.001144 -7161.652344
vn -0.969084 -0.230407 0.088250
vt 0.513880 0.000573
v -7461.934570 223.138123 -7162.122070
vn 0.979834 -0.178370 -0.090054
vt 0.513880 0.000573
v -7463.429199 132.909698 -7162.166016
vn -0.983150 -0.079437 0.164638
vt 0.655758 0.229626
v -7461.900879 136.611404 -7158.711914
vn 0.517749 -0.103012 0.849308
vt 0.668624 0.004960
v -7464.354492 229.922668 -7158.299805
vn -0.096195 -0.616491 0.781464
vt 0.983358 0.004961
v -7465.648438 217.301483 -7161.793457
vn -0.987853 -0.150755 0.037666
vt 0.982813 0.229627
v -7460.830566 132.979080 -7162.403809
vn 0.985928 -0.026201 -0.165104
vt 0.655758 0.229626
v -7463.049805 217.370880 -7162.031250
vn 0.994402 -0.098291 -0.038765
vt 0.982813 0.229627
v -7462.551758 136.625687 -7165.826172
vn -0.511817 -0.122584 -0.850304
vt 0.668624 0.454292
v -7465.005859 229.936935 -7165.414063
vn 0.163911 -0.663525 -0.729977
vt 0.983358 0.454293
v -7461.880371 123.455070 -7162.327148
vn 0.026287 -0.999645 -0.004412
vt 0.622528 0.229626
v -7462.724609 262.743866 -7167.816895
vn 0.419031 0.028111 -0.907537
vt 0.615403 0.500191
v -7458.847168 262.821594 -7162.324707
vn 0.995122 0.039653 -0.090337
vt 0.406264 0.500191
v -7459.745117 259.958344 -7162.248535
vn 0.811148 -0.575433 -0.104477
vt 0.430480 0.878065
v -7463.059082 259.891937 -7166.942383
vn 0.325173 -0.585395 -0.742681
vt 0.569520 0.878065
v -7463.382324 266.328613 -7166.580078
vn 0.404844 0.648620 -0.644510
vt 0.569010 0.236218
v -7460.280762 266.390778 -7162.186523
vn 0.754519 0.654775 0.044393
vt 0.464476 0.236217
v -7465.697266 268.613739 -7161.686035
vn -0.026287 0.999645 0.004413
vt 0.507879 0.000500
v -7461.327637 258.696381 -7162.105957
vn 0.862326 -0.504216 -0.046472
vt 0.450100 0.999500
v -7463.706055 258.648712 -7165.475586
vn 0.399784 -0.513232 -0.759451
vt 0.549899 0.999501
v -7469.417480 262.565155 -7167.204590
vn -0.576434 0.001534 -0.817142
vt 0.615403 0.500191
v -7462.724609 262.743866 -7167.816895
vn 0.419031 0.028111 -0.907537
vt 0.406264 0.500191
v -7463.059082 259.891937 -7166.942383
vn 0.325173 -0.585395 -0.742681
vt 0.430480 0.878065
v -7468.779785 259.739197 -7166.419434
vn -0.470282 -0.606763 -0.640839
vt 0.569520 0.878065
v -7468.736816 266.185638 -7166.090332
vn -0.366365 0.628524 -0.686101
vt 0.569010 0.236218
v -7463.382324 266.328613 -7166.580078
vn 0.404844 0.648620 -0.644510
vt 0.464476 0.236217
v -7463.706055 258.648712 -7165.475586
vn 0.399784 -0.513232 -0.759451
vt 0.450100 0.999500
v -7467.812500 258.539093 -7165.099609
vn -0.448692 -0.535739 -0.715304
vt 0.549899 0.999501
v -7472.233398 262.464172 -7161.100098
vn -0.995809 -0.013500 0.090452
vt 0.615403 0.500191
v -7469.417480 262.565155 -7167.204590
vn -0.576434 0.001534 -0.817142
vt 0.406264 0.500191
v -7468.779785 259.739197 -7166.419434
vn -0.470282 -0.606763 -0.640839
vt 0.430480 0.878065
v -7471.186035 259.652863 -7161.201660
vn -0.779761 -0.618167 0.099208
vt 0.569520 0.878065
v -7470.989746 266.104858 -7161.207031
vn -0.787899 0.614582 -0.038790
vt 0.569010 0.236218
v -7468.736816 266.185638 -7166.090332
vn -0.366365 0.628524 -0.686101
vt 0.464476 0.236217
v -7467.812500 258.539093 -7165.099609
vn -0.448692 -0.535739 -0.715304
vt 0.450100 0.999500
v -7469.539551 258.477142 -7161.354980
vn -0.834625 -0.549229 0.041822
vt 0.549899 0.999501
v -7468.355957 262.541870 -7155.607910
vn -0.419719 -0.001958 0.907652
vt 0.615403 0.500191
v -7472.233398 262.464172 -7161.100098
vn -0.995809 -0.013500 0.090452
vt 0.406264 0.500191
v -7471.186035 259.652863 -7161.201660
vn -0.779761 -0.618167 0.099208
vt 0.430480 0.878065
v -7467.872559 259.719299 -7156.507813
vn -0.293785 -0.608205 0.737412
vt 0.569520 0.878065
v -7467.887695 266.167023 -7156.812988
vn -0.438224 0.620736 0.650113
vt 0.569010 0.236218
v -7470.989746 266.104858 -7161.207031
vn -0.787899 0.614582 -0.038790
vt 0.464476 0.236217
v -7469.539551 258.477142 -7161.354980
vn -0.834625 -0.549229 0.041822
vt 0.450100 0.999500
v -7467.161133 258.524811 -7157.985352
vn -0.372082 -0.540213 0.754801
vt 0.549899 0.999501
v -7461.663086 262.720581 -7156.220215
vn 0.575746 0.024618 0.817258
vt 0.615403 0.500191
v -7468.355957 262.541870 -7155.607910
vn -0.419719 -0.001958 0.907652
vt 0.406264 0.500191
v -7467.872559 259.719299 -7156.507813
vn -0.293785 -0.608205 0.737412
vt 0.430480 0.878065
v -7462.151855 259.872040 -7157.030762
vn 0.501669 -0.586838 0.635570
vt 0.569520 0.878065
v -7462.533203 266.309998 -7157.302734
vn 0.332985 0.640833 0.691704
vt 0.569010 0.236218
v -7467.887695 266.167023 -7156.812988
vn -0.438224 0.620736 0.650113
vt 0.464476 0.236217
v -7467.161133 258.524811 -7157.985352
vn -0.372082 -0.540213 0.754801
vt 0.450100 0.999500
v -7463.055176 258.634430 -7158.361328
vn 0.476394 -0.517706 0.710654
vt 0.549899 0.999501
v -7458.847168 262.821594 -7162.324707
vn 0.995122 0.039653 -0.090337
vt 0.615403 0.500191
v -7461.663086 262.720581 -7156.220215
vn 0.575746 0.024618 0.817258
vt 0.406264 0.500191
v -7462.151855 259.872040 -7157.030762
vn 0.501669 -0.586838 0.635570
vt 0.430480 0.878065
v -7459.745117 259.958344 -7162.248535
vn 0.811148 -0.575433 -0.104477
vt 0.569520 0.878065
v -7460.280762 266.390778 -7162.186523
vn 0.754519 0.654775 0.044393
vt 0.569010 0.236218
v -7462.533203 266.309998 -7157.302734
vn 0.332985 0.640833 0.691704
vt 0.464476 0.236217
v -7463.055176 258.634430 -7158.361328
vn 0.476394 -0.517706 0.710654
vt 0.450100 0.999500
v -7461.327637 258.696381 -7162.105957
vn 0.862326 -0.504216 -0.046472
vt 0.549899 0.999501
v -7464.354492 229.922668 -7158.299805
vn -0.096195 -0.616491 0.781464
vt 0.511035 0.446820
v -7467.064941 223.001144 -7161.652344
vn -0.969084 -0.230407 0.088250
vt 0.515979 0.474092
v -7465.648438 217.301483 -7161.793457
vn -0.987853 -0.150755 0.037666
vt 0.507753 0.474092
v -7465.005859 229.936935 -7165.414063
vn 0.163911 -0.663525 -0.729977
vt 0.511035 0.504243
v -7465.648438 217.301483 -7161.793457
vn -0.987853 -0.150755 0.037666
vt 0.507753 0.474092
v -7467.064941 223.001144 -7161.652344
vn -0.969084 -0.230407 0.088250
vt 0.515979 0.474092
v -7464.354492 229.922668 -7158.299805
vn -0.096195 -0.616491 0.781464
vt 0.511035 0.446820
v -7463.049805 217.370880 -7162.031250
vn 0.994402 -0.098291 -0.038765
vt 0.514317 0.474092
v -7461.934570 223.138123 -7162.122070
vn 0.979834 -0.178370 -0.090054
vt 0.506091 0.474092
v -7465.005859 229.936935 -7165.414063
vn 0.163911 -0.663525 -0.729977
vt 0.511035 0.504243
v -7461.934570 223.138123 -7162.122070
vn 0.979834 -0.178370 -0.090054
vt 0.506091 0.474092
v -7463.049805 217.370880 -7162.031250
vn 0.994402 -0.098291 -0.038765
vt 0.514317 0.474092
f 59/59/59 53/53/53 60/60/60
f 51/51/51 58/58/58 52/52/52
f 53/53/53 52/52/52 58/58/58
f 56/56/56 49/49/49 57/57/57
f 49/49/49 56/56/56 51/51/51
f 62/62/62 51/51/51 56/56/56
f 51/51/51 62/62/62 58/58/58
f 50/50/50 49/49/49 51/51/51
f 47/47/47 46/46/46 56/56/56
f 48/48/48 56/56/56 46/46/46
f 56/56/56 48/48/48 61/61/61
f 58/58/58 61/61/61 48/48/48
f 58/58/58 48/48/48 54/54/54
f 55/55/55 54/54/54 48/48/48
f 47/47/47 26/26/26 46/46/46
f 25/25/25 46/46/46 26/26/26
f 46/46/46 25/25/25 48/48/48
f 28/28/28 48/48/48 25/25/25
f 48/48/48 28/28/28 55/55/55
f 44/44/44 55/55/55 28/28/28
f 55/55/55 44/44/44 54/54/54
f 43/43/43 54/54/54 44/44/44
f 54/54/54 43/43/43 53/53/53
f 38/38/38 53/53/53 43/43/43
f 53/53/53 38/38/38 52/52/52
f 37/37/37 52/52/52 38/38/38
f 52/52/52 37/37/37 51/51/51
f 35/35/35 51/51/51 37/37/37
f 51/51/51 35/35/35 50/50/50
f 34/34/34 50/50/50 35/35/35
f 50/50/50 34/34/34 49/49/49
f 33/33/33 49/49/49 34/34/34
f 35/35/35 33/33/33 34/34/34
f 33/33/33 35/35/35 36/36/36
f 28/28/28 43/43/43 44/44/44
f 43/43/43 28/28/28 45/45/45
f 33/33/33 47/47/47 49/49/49
f 47/47/47 33/33/33 26/26/26
f 27/27/27 25/25/25 26/26/26
f 25/25/25 27/27/27 28/28/28
f 39/39/39 37/37/37 38/38/38
f 37/37/37 39/39/39 35/35/35
f 2/2/2 1/1/1 4/4/4
f 1/1/1 2/2/2 3/3/3
f 13/13/13 3/3/3 2/2/2
f 3/3/3 13/13/13 14/14/14
f 19/19/19 14/14/14 13/13/13
f 14/14/14 19/19/19 20/20/20
f 3/3/3 12/12/12 1/1/1
f 12/12/12 3/3/3 11/11/11
f 14/14/14 11/11/11 3/3/3
f 11/11/11 14/14/14 18/18/18
f 20/20/20 18/18/18 14/14/14
f 18/18/18 20/20/20 24/24/24
f 11/11/11 10/10/10 12/12/12
f 10/10/10 11/11/11 9/9/9
f 18/18/18 9/9/9 11/11/11
f 9/9/9 18/18/18 17/17/17
f 24/24/24 17/17/17 18/18/18
f 17/17/17 24/24/24 23/23/23
f 9/9/9 8/8/8 10/10/10
f 8/8/8 9/9/9 7/7/7
f 17/17/17 7/7/7 9/9/9
f 7/7/7 17/17/17 16/16/16
f 23/23/23 16/16/16 17/17/17
f 16/16/16 23/23/23 22/22/22
f 7/7/7 6/6/6 8/8/8
f 6/6/6 7/7/7 5/5/5
f 16/16/16 5/5/5 7/7/7
f 5/5/5 16/16/16 15/15/15
f 22/22/22 15/15/15 16/16/16
f 15/15/15 22/22/22 21/21/21
f 5/5/5 4/4/4 6/6/6
f 4/4/4 5/5/5 2/2/2
f 15/15/15 2/2/2 5/5/5
f 2/2/2 15/15/15 13/13/13
f 21/21/21 13/13/13 15/15/15
f 13/13/13 21/21/21 19/19/19
f 42/42/42 40/40/40 41/41/41
f 40/40/40 42/42/42 10/10/10
f 84/84/84 87/87/87 88/88/88
f 87/87/87 84/84/84 83/83/83
f 81/81/81 83/83/83 84/84/84
f 83/83/83 81/81/81 82/82/82
f 85/85/85 82/82/82 81/81/81
f 82/82/82 85/85/85 86/86/86
f 78/78/78 86/86/86 85/85/85
f 78/78/78 94/94/94 93/93/93
f 90/90/90 93/93/93 94/94/94
f 93/93/93 90/90/90 89/89/89
f 91/91/91 89/89/89 90/90/90
f 89/89/89 91/91/91 92/92/92
f 95/95/95 92/92/92 91/91/91
f 92/92/92 95/95/95 96/96/96
f 78/78/78 102/102/102 101/101/101
f 98/98/98 101/101/101 102/102/102
f 101/101/101 98/98/98 97/97/97
f 99/99/99 97/97/97 98/98/98
f 97/97/97 99/99/99 100/100/100
f 103/103/103 100/100/100 99/99/99
f 100/100/100 103/103/103 104/104/104
f 78/78/78 110/110/110 109/109/109
f 106/106/106 109/109/109 110/110/110
f 109/109/109 106/106/106 105/105/105
f 107/107/107 105/105/105 106/106/106
f 105/105/105 107/107/107 108/108/108
f 111/111/111 108/108/108 107/107/107
f 108/108/108 111/111/111 112/112/112
f 78/78/78 118/118/118 117/117/117
f 114/114/114 117/117/117 118/118/118
f 117/117/117 114/114/114 113/113/113
f 115/115/115 113/113/113 114/114/114
f 113/113/113 115/115/115 116/116/116
f 119/119/119 116/116/116 115/115/115
f 116/116/116 119/119/119 120/120/120
f 78/78/78 77/77/77 76/76/76
f 73/73/73 76/76/76 77/77/77
f 76/76/76 73/73/73 72/72/72
f 74/74/74 72/72/72 73/73/73
f 72/72/72 74/74/74 75/75/75
f 79/79/79 75/75/75 74/74/74
f 75/75/75 79/79/79 80/80/80
f 63/63/63 64/64/64 65/65/65
f 64/64/64 63/63/63 71/71/71
f 69/69/69 71/71/71 63/63/63
f 71/71/71 69/69/69 67/67/67
f 70/70/70 67/67/67 69/69/69
f 67/67/67 70/70/70 68/68/68
f 71/71/71 67/67/67 64/64/64
f 68/68/68 64/64/64 67/67/67
f 64/64/64 68/68/68 65/65/65
f 66/66/66 63/63/63 65/65/65
f 63/63/63 66/66/66 69/69/69
f 70/70/70 69/69/69 66/66/66
f 31/31/31 29/29/29 30/30/30
f 29/29/29 31/31/31 32/32/32
f 121/121/121 122/122/122 123/123/123
f 124/124/124 125/125/125 126/126/126
f 127/127/127 128/128/128 129/129/129
f 130/130/130 131/131/131 132/132/132
