mtllib INST_MIRK_TORCHPOST.mtl
g Cylinder01
usemtl 1_-_Default
v 4.667533 2.414107 0.000000
vn 0.521691 0.850091 0.071996
vt 0.981001 0.999500
v 1.963155 1.759328 27.327429
vn 0.075920 0.997112 0.001989
vt 0.981001 0.793366
v 4.234560 -1.366905 27.327246
vn 0.969611 0.234833 0.068618
vt 0.750000 0.793354
v 7.037549 -0.847939 -0.000000
vn 0.967397 -0.234866 0.094768
vt 0.750000 0.999500
v 0.832768 1.168116 0.000000
vn -0.646332 0.761822 -0.043378
vt 1.161760 0.999500
v -1.711920 0.565223 27.327429
vn -0.923071 0.380808 -0.054079
vt 1.161760 0.793366
v 0.832768 -2.863995 0.000000
vn -0.920349 -0.380183 -0.091753
vt 0.338240 0.999500
v -1.711920 -3.298980 27.327429
vn -0.647482 -0.761759 -0.022165
vt 0.338240 0.793366
v -1.711920 0.565223 27.327429
vn -0.923071 0.380808 -0.054079
vt 0.161760 0.793366
v 0.832768 1.168116 0.000000
vn -0.646332 0.761822 -0.043378
vt 0.161760 0.999500
v 4.667534 -4.109985 0.000000
vn 0.075988 -0.997088 -0.006458
vt 0.518999 0.999500
v 1.963156 -4.493084 27.327429
vn 0.523088 -0.850582 0.053750
vt 0.518999 0.793366
v 0.832768 1.168116 0.000000
vn 0.000000 0.000000 -1.000000
vt 0.161760 0.999500
v 4.667533 2.414107 0.000000
vn 0.000000 0.000000 -1.000000
vt -0.018999 0.999500
v 7.037549 -0.847939 -0.000000
vn 0.000000 0.000000 -1.000000
vt -0.250000 0.999500
v 0.832768 -2.863995 0.000000
vn 0.000000 0.000000 -1.000000
vt 0.338240 0.999500
v 4.667534 -4.109985 0.000000
vn 0.000000 0.000000 -1.000000
vt -0.481001 0.999500
v -1.712878 1.244478 116.809181
vn -0.352432 0.414309 0.839130
vt 1.161760 0.000500
v -1.712878 -1.244479 116.809181
vn -0.502939 -0.207155 0.839130
vt 1.338240 0.000500
v 0.654262 -2.013609 116.809181
vn 0.041599 -0.542338 0.839130
vt 1.518999 0.000500
v 0.654261 2.013608 116.809181
vn 0.371381 0.603677 0.705443
vt 0.981001 0.000500
v 2.117234 -0.000001 116.809181
vn 0.528460 -0.128120 0.839235
vt 1.750000 0.000500
v 1.295437 3.986944 112.300346
vn 0.312557 0.940829 0.130954
vt 0.966519 0.060769
v 4.192122 -0.000001 112.307739
vn 0.991340 -0.006524 0.131158
vt 0.750000 0.060670
v 2.117234 -0.000002 100.689117
vn 0.994060 0.102026 -0.037895
vt 0.750000 0.174914
v 0.654261 2.013607 100.685379
vn 0.075992 0.995677 -0.053400
vt 0.981001 0.174964
v 2.117234 -0.000001 116.809181
vn 0.528460 -0.128120 0.839235
vt 0.750000 0.000500
v -3.391499 2.464066 112.300346
vn -0.798187 0.588011 0.130920
vt 0.154600 0.060769
v 1.295437 3.986944 112.300346
vn 0.312557 0.940829 0.130954
vt -0.033481 0.060769
v 0.654261 2.013607 100.685379
vn 0.075992 0.995677 -0.053400
vt -0.018999 0.174964
v -1.712878 1.244476 100.685379
vn -0.879938 0.463228 -0.105489
vt 0.161760 0.174964
v -1.712878 1.244478 116.809181
vn -0.352432 0.414309 0.839130
vt 0.161760 0.000500
v 0.654261 2.013608 116.809181
vn 0.371381 0.603677 0.705443
vt -0.018999 0.000500
v 1.295438 -3.986947 112.300339
vn 0.300052 -0.944885 0.131001
vt 0.533481 0.060769
v 0.654262 -2.013611 100.685379
vn 0.306473 -0.946104 -0.104701
vt 0.518999 0.174964
v 0.654262 -2.013609 116.809181
vn 0.041599 -0.542338 0.839130
vt 0.518999 0.000500
v -3.391498 -2.464070 112.300339
vn -0.805885 -0.577416 0.130920
vt 0.345400 0.060769
v -1.712878 -1.244481 100.685379
vn -0.804213 -0.582823 -0.116442
vt 0.338240 0.174964
v -1.712878 -1.244479 116.809181
vn -0.502939 -0.207155 0.839130
vt 0.338240 0.000500
v 1.640800 3.072654 83.449677
vn 0.523570 0.851565 0.026659
vt 0.981001 0.381098
v 3.261894 0.841470 83.452484
vn 0.999698 -0.000650 0.024582
vt 0.750000 0.381060
v 2.832382 -0.000001 58.359310
vn 0.994578 -0.103035 0.014053
vt 0.750000 0.587207
v 0.875234 2.693691 58.358021
vn 0.309001 0.950977 -0.012677
vt 0.981001 0.587232
v -0.982126 2.220414 83.449677
vn -0.743847 0.668315 0.006846
vt 1.161760 0.381098
v -2.291392 1.664792 58.358021
vn -0.808923 0.587915 0.000356
vt 1.161760 0.587232
v -0.982126 -0.537494 83.449677
vn -0.744027 -0.668019 0.013239
vt 0.338240 0.381098
v -0.982126 2.220414 83.449677
vn -0.743847 0.668315 0.006846
vt 0.161760 0.381098
v -2.291392 1.664792 58.358021
vn -0.808923 0.587915 0.000356
vt 0.161760 0.587232
v -2.291391 -1.664795 58.358021
vn -0.884888 -0.464910 0.028829
vt 0.338240 0.587232
v 0.875234 -2.693694 58.358021
vn 0.076469 -0.995560 0.054894
vt 0.518999 0.587232
v 1.640800 -1.389733 83.449677
vn 0.524483 -0.851310 0.013716
vt 0.518999 0.381098
v -1.712878 1.244476 100.685379
vn -0.879938 0.463228 -0.105489
vt 1.161760 0.174964
f 20/20/20 18/18/18 19/19/19
f 18/18/18 20/20/20 21/21/21
f 22/22/22 21/21/21 20/20/20
f 33/33/33 29/29/29 32/32/32
f 28/28/28 32/32/32 29/29/29
f 32/32/32 28/28/28 39/39/39
f 37/37/37 39/39/39 28/28/28
f 39/39/39 37/37/37 36/36/36
f 34/34/34 36/36/36 37/37/37
f 36/36/36 34/34/34 27/27/27
f 24/24/24 27/27/27 34/34/34
f 27/27/27 24/24/24 21/21/21
f 23/23/23 21/21/21 24/24/24
f 29/29/29 30/30/30 28/28/28
f 31/31/31 28/28/28 30/30/30
f 28/28/28 31/31/31 37/37/37
f 38/38/38 37/37/37 31/31/31
f 37/37/37 38/38/38 34/34/34
f 35/35/35 34/34/34 38/38/38
f 34/34/34 35/35/35 24/24/24
f 25/25/25 24/24/24 35/35/35
f 24/24/24 25/25/25 23/23/23
f 31/31/31 47/47/47 38/38/38
f 46/46/46 38/38/38 47/47/47
f 38/38/38 46/46/46 35/35/35
f 51/51/51 35/35/35 46/46/46
f 35/35/35 51/51/51 25/25/25
f 41/41/41 25/25/25 51/51/51
f 46/46/46 47/47/47 48/48/48
f 48/48/48 49/49/49 46/46/46
f 50/50/50 46/46/46 49/49/49
f 46/46/46 50/50/50 51/51/51
f 42/42/42 51/51/51 50/50/50
f 51/51/51 42/42/42 41/41/41
f 40/40/40 41/41/41 42/42/42
f 41/41/41 40/40/40 25/25/25
f 26/26/26 25/25/25 40/40/40
f 25/25/25 26/26/26 23/23/23
f 52/52/52 26/26/26 44/44/44
f 40/40/40 44/44/44 26/26/26
f 44/44/44 40/40/40 43/43/43
f 42/42/42 43/43/43 40/40/40
f 43/43/43 45/45/45 44/44/44
f 48/48/48 9/9/9 49/49/49
f 8/8/8 49/49/49 9/9/9
f 49/49/49 8/8/8 50/50/50
f 12/12/12 50/50/50 8/8/8
f 50/50/50 12/12/12 42/42/42
f 3/3/3 42/42/42 12/12/12
f 42/42/42 3/3/3 43/43/43
f 2/2/2 43/43/43 3/3/3
f 43/43/43 2/2/2 45/45/45
f 6/6/6 45/45/45 2/2/2
f 7/7/7 9/9/9 10/10/10
f 9/9/9 7/7/7 8/8/8
f 11/11/11 8/8/8 7/7/7
f 8/8/8 11/11/11 12/12/12
f 4/4/4 12/12/12 11/11/11
f 12/12/12 4/4/4 3/3/3
f 1/1/1 3/3/3 4/4/4
f 3/3/3 1/1/1 2/2/2
f 5/5/5 2/2/2 1/1/1
f 2/2/2 5/5/5 6/6/6
f 15/15/15 13/13/13 14/14/14
f 13/13/13 15/15/15 16/16/16
f 17/17/17 16/16/16 15/15/15
