mtllib INST_MIRK_SPIDERWEB.mtl
g Plane10
usemtl Material_#3613
v 267.313049 -46.217751 -19.266685
vn -0.127907 0.379486 -0.916313
vt 0.000000 0.750000
v 267.755096 -152.011078 -27.701321
vn 0.136773 0.407166 -0.903055
vt 0.000000 1.000000
v 139.736221 -55.666187 -3.650893
vn -0.342141 0.449374 -0.825229
vt 0.250000 0.750000
v 144.049896 -139.119461 -85.960884
vn -0.102229 0.832692 -0.544219
vt 0.250000 1.000000
v 7.144702 -99.188240 107.651054
vn 0.100698 0.766132 -0.634745
vt 0.500000 0.750000
v 17.515017 -139.708481 -90.226646
vn 0.170238 0.914203 -0.367766
vt 0.500000 1.000000
v -113.535133 -57.804569 -8.335910
vn 0.205754 0.637513 -0.742458
vt 0.750000 0.750000
v -108.955124 -139.989029 -95.727882
vn -0.101622 0.587698 -0.802673
vt 0.750000 1.000000
v -239.758270 -53.012779 -18.550348
vn -0.079576 0.493847 -0.865900
vt 1.000000 0.750000
v -238.547043 -155.141708 -41.661957
vn -0.397044 0.198092 -0.896167
vt 1.000000 1.000000
v 264.164368 46.681110 40.813915
vn -0.016271 0.121536 -0.992454
vt 0.000000 0.500000
v 137.083786 31.179144 46.960766
vn -0.299206 0.125145 -0.945946
vt 0.250000 0.500000
v 5.266427 -15.039318 143.490753
vn -0.094030 -0.044963 -0.994554
vt 0.500000 0.500000
v -179.385010 65.135605 17.257502
vn 0.226135 0.127009 -0.965780
vt 0.750000 0.500000
v -242.434128 42.138607 32.508244
vn -0.138778 0.184098 -0.973061
vt 1.000000 0.500000
v 264.325165 155.346344 37.745682
vn 0.228977 0.053815 -0.971943
vt 0.000000 0.250000
v 138.143661 152.545242 26.737101
vn -0.022360 -0.190008 -0.981528
vt 0.250000 0.250000
v 9.231420 126.551224 67.834091
vn -0.069807 -0.378783 -0.922849
vt 0.500000 0.250000
v -115.044739 150.802063 20.469170
vn 0.075981 -0.132954 -0.988205
vt 0.750000 0.250000
v -242.410248 150.151566 32.052608
vn -0.138845 0.121394 -0.982846
vt 1.000000 0.250000
v 262.297546 253.585968 76.435074
vn 0.481297 0.329782 -0.812156
vt 0.000000 0.000000
v 139.046600 268.641632 9.508013
vn 0.258391 0.012880 -0.965954
vt 0.250000 0.000000
v 13.473866 272.636322 -13.116738
vn -0.025066 -0.376188 -0.926204
vt 0.500000 0.000000
v -113.912689 267.989929 -1.131618
vn -0.050818 -0.289360 -0.955870
vt 0.750000 0.000000
v -243.849380 251.194748 59.512897
vn -0.253378 0.050617 -0.966042
vt 1.000000 0.000000
f 19/19/19 25/25/25 24/24/24
f 25/25/25 19/19/19 20/20/20
f 14/14/14 20/20/20 19/19/19
f 20/20/20 14/14/14 15/15/15
f 7/7/7 15/15/15 14/14/14
f 15/15/15 7/7/7 9/9/9
f 8/8/8 9/9/9 7/7/7
f 9/9/9 8/8/8 10/10/10
f 7/7/7 6/6/6 8/8/8
f 6/6/6 7/7/7 5/5/5
f 14/14/14 5/5/5 7/7/7
f 5/5/5 14/14/14 13/13/13
f 19/19/19 13/13/13 14/14/14
f 13/13/13 19/19/19 18/18/18
f 24/24/24 18/18/18 19/19/19
f 18/18/18 24/24/24 23/23/23
f 5/5/5 4/4/4 6/6/6
f 4/4/4 5/5/5 3/3/3
f 13/13/13 3/3/3 5/5/5
f 3/3/3 13/13/13 12/12/12
f 18/18/18 12/12/12 13/13/13
f 12/12/12 18/18/18 17/17/17
f 23/23/23 17/17/17 18/18/18
f 17/17/17 23/23/23 22/22/22
f 3/3/3 2/2/2 4/4/4
f 2/2/2 3/3/3 1/1/1
f 12/12/12 1/1/1 3/3/3
f 1/1/1 12/12/12 11/11/11
f 17/17/17 11/11/11 12/12/12
f 11/11/11 17/17/17 16/16/16
f 22/22/22 16/16/16 17/17/17
f 16/16/16 22/22/22 21/21/21
