mtllib INST_MIRK_TREE_SCARYD.mtl
g ScaryTreeD
usemtl 1_-_Default
v -62.695152 124.819046 16.400652
vn -0.926333 0.348843 -0.142183
vt 0.750000 0.999001
v -24.503616 239.659775 47.476654
vn -0.497102 0.217035 0.840111
vt 0.906416 0.333000
v -58.258244 253.577057 -8.035872
vn -0.990654 0.127537 0.048356
vt 0.750000 0.333000
v -32.340603 123.789375 91.753075
vn -0.517118 0.620031 0.590042
vt 0.906416 0.999001
v -32.340603 123.789375 91.753075
vn -0.517118 0.620031 0.590042
vt -0.093584 0.999001
v 41.876396 242.555237 47.603065
vn 0.455169 0.234398 0.858999
vt 0.093584 0.333000
v -24.503616 239.659775 47.476654
vn -0.497102 0.217035 0.840111
vt -0.093584 0.333000
v 37.715042 124.292610 105.604988
vn 0.241494 0.611775 0.753268
vt 0.093584 0.999001
v 74.501785 259.367981 -7.783055
vn 0.994306 0.103068 0.027079
vt 0.250000 0.333000
v 93.984604 125.952553 47.701782
vn 0.921649 0.374967 -0.099815
vt 0.250000 0.999001
v 40.747162 273.285248 -63.295570
vn 0.505674 0.027997 -0.862270
vt 0.406416 0.333000
v 40.845615 126.291122 -75.672234
vn 0.333225 0.137114 -0.932824
vt 0.406416 0.999001
v -25.632860 270.389771 -63.421974
vn -0.545969 0.089804 -0.832979
vt 0.593584 0.333000
v -29.688231 125.346764 -56.144886
vn -0.624062 0.178928 -0.760612
vt 0.593584 0.999001
v 5.250440 424.438568 25.226263
vn -0.473850 -0.108407 0.873907
vt 0.906416 -0.333000
v -18.065710 434.051971 -13.119270
vn -0.999067 -0.043174 0.000770
vt 0.750000 -0.333000
v 51.102730 426.438599 25.313583
vn 0.488615 0.036245 0.871746
vt 0.093584 -0.333000
v 5.250440 424.438568 25.226263
vn -0.473850 -0.108407 0.873907
vt -0.093584 -0.333000
v 73.638847 438.052063 -12.944621
vn 0.969550 0.237824 0.058416
vt 0.250000 -0.333000
v 50.322689 447.665497 -51.290169
vn 0.469775 0.306753 -0.827776
vt 0.406416 -0.333000
v 4.470409 445.665436 -51.377453
vn -0.519953 0.165464 -0.838016
vt 0.593584 -0.333000
v -44.910118 599.684631 90.902229
vn -0.539246 -0.216309 0.813895
vt 0.906416 -0.999001
v -60.881973 608.814819 72.617699
vn -0.999766 0.011805 0.018149
vt 0.750000 -0.999001
v -20.081926 607.177368 91.353371
vn 0.332748 0.006676 0.942992
vt 0.093584 -0.999001
v -44.910118 599.684631 90.902229
vn -0.539246 -0.216309 0.813895
vt -0.093584 -0.999001
v -11.225581 623.800110 73.519958
vn 0.836623 0.467427 0.285612
vt 0.250000 -0.999001
v -27.197432 632.930298 55.235428
vn 0.422846 0.712896 -0.559447
vt 0.406416 -0.999001
v -52.025627 625.437622 54.784286
vn -0.516921 0.490769 -0.701383
vt 0.593584 -0.999001
v -45.277477 651.972839 84.081596
vn -0.244827 0.838581 0.486664
vt 0.500000 0.000000
v -60.881973 608.814819 72.617699
vn -0.999766 0.011805 0.018149
vt 0.500000 -0.553702
v -44.910118 599.684631 90.902229
vn -0.539246 -0.216309 0.813895
vt 0.292362 -0.276851
v -20.081926 607.177368 91.353371
vn 0.332748 0.006676 0.942992
vt 0.292362 0.276851
v -11.225581 623.800110 73.519958
vn 0.836623 0.467427 0.285612
vt 0.500000 0.553702
v -27.197432 632.930298 55.235428
vn 0.422846 0.712896 -0.559447
vt 0.707638 0.276851
v -52.025627 625.437622 54.784286
vn -0.516921 0.490769 -0.701383
vt 0.707638 -0.276851
v -51.098602 15.680413 202.498856
vn -0.894679 0.219427 0.389104
vt 1.100840 0.889210
v -31.319441 34.381001 218.909760
vn -0.154384 0.406220 0.900639
vt 1.239406 0.805536
v -31.254856 78.463570 194.668716
vn -0.496967 0.549448 0.671663
vt 1.199244 0.621655
v -42.200100 54.659386 183.662567
vn -0.795167 0.367919 0.482022
vt 1.135736 0.673407
v -29.688231 125.346764 -56.144886
vn -0.624062 0.178928 -0.760612
vt 1.037634 0.531453
v 40.845615 126.291122 -75.672234
vn 0.333225 0.137114 -0.932824
vt 1.151577 0.508740
v 38.890400 6.144153 -119.205956
vn 0.456716 0.286558 -0.842197
vt 1.074195 0.993694
v -61.740715 5.832177 -96.183182
vn -0.687946 0.392244 -0.610634
vt 0.939244 0.991774
v -62.695152 124.819046 16.400652
vn -0.926333 0.348843 -0.142183
vt 0.773988 0.362101
v -106.114342 5.998058 -1.415871
vn -0.860485 0.367366 -0.352998
vt 0.775271 0.971569
v -57.085724 9.415997 153.852921
vn -0.986347 0.150165 0.067606
vt 1.033656 0.925261
v -40.628422 92.153664 161.737930
vn -0.805657 0.473826 0.355537
vt 1.111369 0.569129
v -32.340603 123.789375 91.753075
vn -0.517118 0.620031 0.590042
vt 1.100541 0.446162
v -62.566982 4.622374 96.945999
vn -0.019630 0.041725 0.998936
vt 0.937538 0.955762
v 3.752445 96.267723 171.424225
vn 0.484923 0.552351 0.678055
vt 1.306014 0.552206
v 11.434705 12.402993 196.839249
vn 0.749754 0.183890 0.635651
vt 1.370441 0.908569
v 38.658962 7.657959 162.694473
vn 0.414540 0.386107 0.824062
vt 1.437977 0.936621
v 37.715042 124.292610 105.604988
vn 0.241494 0.611775 0.753268
vt 1.360211 0.445458
v 2.687221 136.232010 98.679100
vn 0.040283 0.906199 0.420928
vt 1.207513 0.393407
v -18.437986 106.401741 166.581070
vn -0.137974 0.804267 0.578030
vt 1.208689 0.508265
v -6.954431 66.170937 189.617325
vn 0.424302 0.440701 0.791044
vt 1.262758 0.674708
v -10.041428 14.431038 220.835281
vn 0.529353 0.331379 0.781008
vt 1.344552 0.892633
v -84.515434 94.838768 117.312531
vn 0.106819 0.352909 0.929540
vt 1.030556 0.608804
v -96.365479 9.770886 114.826561
vn 0.287757 0.087916 0.953660
vt 0.821981 0.928523
v -51.425056 132.243515 57.816185
vn -0.493026 0.865134 0.092025
vt 0.919536 0.349520
v -96.347527 103.884003 97.134613
vn -0.393136 0.886809 0.242926
vt 0.884050 0.540219
v -122.837288 10.099900 50.703762
vn -0.763210 0.341259 -0.548682
vt 0.630392 0.917524
v -100.365242 97.050629 69.478058
vn -0.662522 0.655483 -0.362500
vt 0.786062 0.620046
v -160.583633 68.549599 116.850555
vn -0.437456 0.754660 0.489000
vt 0.654180 0.672044
v -156.991547 22.092083 135.543732
vn -0.068332 0.245175 0.967068
vt 0.600009 0.868434
v -160.583633 68.549599 116.850555
vn -0.437456 0.754660 0.489000
vt 0.596192 0.635676
v -84.515434 94.838768 117.312531
vn 0.106819 0.352909 0.929540
vt 0.654180 0.672044
v -175.617783 21.245361 84.679100
vn -0.705889 0.365992 -0.606441
vt 0.457767 0.880147
v -160.583633 68.549599 116.850555
vn -0.437456 0.754660 0.489000
vt 0.546286 0.695952
v -204.879318 16.332531 128.640717
vn -0.945661 0.278489 0.167837
vt 0.447801 0.900836
v -204.879318 16.332531 128.640717
vn -0.945661 0.278489 0.167837
vt 0.348814 0.905976
v -160.583633 68.549599 116.850555
vn -0.437456 0.754660 0.489000
vt 0.498153 0.696906
v -175.617783 21.245361 84.679100
vn -0.705889 0.365992 -0.606441
vt 0.560597 0.669342
v 82.048141 1.904303 211.973572
vn -0.490615 0.466236 0.736153
vt 1.649660 0.940725
v 85.907028 91.066048 151.607864
vn -0.121898 0.796751 0.591886
vt 1.570356 0.534959
v 117.126656 92.765305 120.715218
vn 0.856981 0.512214 0.056744
vt 1.674152 0.534992
v 128.678879 -2.719009 176.348816
vn 0.994036 0.095675 -0.052328
vt 1.815042 0.969511
v 117.970665 9.771726 97.049438
vn 0.967317 0.060018 -0.246365
vt 1.678492 0.943771
v 93.984604 125.952553 47.701782
vn 0.921649 0.374967 -0.099815
vt 1.529254 0.458405
v 102.459068 -15.880281 234.893188
vn -0.667957 0.420582 0.613958
vt 1.793195 1.028442
v 121.405388 61.735275 211.135696
vn 0.339605 0.781595 0.523237
vt 1.820628 0.799438
v 85.907028 91.066048 151.607864
vn -0.121898 0.796751 0.591886
vt 1.664626 0.630527
v 82.048141 1.904303 211.973572
vn -0.490615 0.466236 0.736153
vt 1.709903 0.969189
v 121.405388 61.735275 211.135696
vn 0.339605 0.781595 0.523237
vt 1.859748 0.806163
v 131.649826 -18.774752 217.827393
vn 0.973510 0.039131 -0.225272
vt 1.890897 1.045587
v 128.678879 -2.719009 176.348816
vn 0.994036 0.095675 -0.052328
vt 1.835030 0.998176
v 117.126656 92.765305 120.715218
vn 0.856981 0.512214 0.056744
vt 1.737104 0.630479
v 117.126656 92.765305 120.715218
vn 0.856981 0.512214 0.056744
vt 1.859748 0.806163
v 85.907028 91.066048 151.607864
vn -0.121898 0.796751 0.591886
vt 1.737104 0.630479
v -13.454259 -23.591410 234.442276
vn 0.643280 0.126105 0.755174
vt 1.316972 1.055145
v -1.001041 -24.049873 210.086670
vn 0.899121 -0.199241 0.389724
vt 1.336561 1.062184
v -33.500893 -4.052977 238.643631
vn -0.256155 0.553801 0.792268
vt 1.236174 0.969828
v -53.837734 -28.007200 168.981705
vn -0.997695 -0.043664 0.051938
vt 1.066568 1.083592
v -53.547523 -23.167900 205.465836
vn -0.978181 0.108311 0.177287
vt 1.114962 1.056264
v -20.800005 -61.727203 236.000137
vn 0.835313 -0.062587 0.546200
vt 1.288854 1.218377
v -12.639287 -50.621578 220.003311
vn 0.917067 -0.306477 0.255070
vt 1.301644 1.218576
v -49.854847 -49.510078 187.300797
vn -0.991016 -0.133514 -0.007842
vt 1.106622 1.239621
v -49.603016 -61.310928 210.454849
vn -0.988158 -0.115414 -0.101114
vt 1.137612 1.219547
v -199.783768 -31.496412 131.310944
vn -0.724999 -0.191596 0.661564
vt 0.464739 1.103086
v -169.087799 -15.762692 138.471588
vn -0.255951 0.060254 0.964810
vt 0.554170 1.029945
v -185.789932 -18.969980 98.675751
vn -0.818713 -0.249061 -0.517375
vt 0.434146 1.049927
v -199.783768 -31.496412 131.310944
vn -0.724999 -0.191596 0.661564
vt 0.380627 1.114522
v -168.263626 -66.964340 135.994522
vn -0.706563 -0.573102 0.415118
vt 0.559222 1.262718
v -199.783768 -31.496412 131.310944
vn -0.724999 -0.191596 0.661564
vt 0.556962 1.261672
v -185.789932 -18.969980 98.675751
vn -0.818713 -0.249061 -0.517375
vt 0.380627 1.114522
v -168.263626 -66.964340 135.994522
vn -0.706563 -0.573102 0.415118
vt 0.434146 1.049927
v -42.690571 -21.223890 250.995499
vn -0.263618 0.589507 0.763535
vt 1.293730 1.105602
v -32.906273 -66.693871 260.889557
vn 0.828413 0.277609 0.486482
vt 1.271381 1.234581
v -42.690571 -21.223890 250.995499
vn -0.263618 0.589507 0.763535
vt 1.218073 1.044410
v -54.555084 -62.244175 242.011978
vn -0.990056 0.139285 -0.019726
vt 1.158122 1.217621
v -42.690571 -21.223890 250.995499
vn -0.263618 0.589507 0.763535
vt 1.142422 1.088023
v -51.595093 -47.136505 280.970795
vn -0.112487 0.828472 0.548617
vt 1.285792 1.174587
v -41.719845 -77.495216 280.958893
vn 0.818625 0.169712 0.548681
vt 1.261184 1.276915
v -61.432331 -73.346062 269.349365
vn -0.930482 0.354361 -0.092910
vt 1.165274 1.260052
v -51.595093 -47.136505 280.970795
vn -0.112487 0.828472 0.548617
vt 1.155550 1.152071
v -61.493011 -66.858177 307.009644
vn -0.212770 0.477980 0.852211
vt 1.280784 1.251317
v -48.652302 -92.229591 289.217041
vn 0.704949 -0.196860 0.681391
vt 1.243426 1.338379
v -70.955093 -87.849182 283.212189
vn -0.924467 0.380456 -0.024778
vt 1.144138 1.319371
v -61.493011 -66.858177 307.009644
vn -0.212770 0.477980 0.852211
vt 1.146717 1.234433
v -68.109550 -86.843155 309.281799
vn -0.378835 -0.163229 0.910956
vt 1.241225 1.333228
v -56.662884 -102.280327 290.296173
vn 0.628662 -0.436482 0.643636
vt 1.211954 1.380937
v -73.968475 -99.426529 286.899933
vn -0.965445 0.218096 0.142655
vt 1.136547 1.368305
v -68.109550 -86.843155 309.281799
vn -0.378835 -0.163229 0.910956
vt 1.137864 1.322771
v -78.220100 -136.106735 287.953278
vn -0.014651 -0.555591 0.831327
vt 1.157846 1.548569
v -67.698853 -139.545349 271.329712
vn 0.680237 -0.501774 0.534323
vt 1.142138 1.543899
v -79.903549 -137.503632 268.620514
vn -0.989435 0.059532 0.132194
vt 1.088552 1.534921
v -78.220100 -136.106735 287.953278
vn -0.014651 -0.555591 0.831327
vt 1.083100 1.537455
v -80.168007 -175.090622 251.877563
vn -0.367419 -0.621738 0.691697
vt 1.065813 1.699475
v 145.546982 19.702671 258.007446
vn 0.527593 0.734145 0.427407
vt 1.986768 0.872106
v 138.243469 -25.311901 246.220108
vn 0.966895 -0.012976 -0.254843
vt 1.954691 1.068966
v 111.774254 -22.991436 258.811890
vn -0.723769 0.467335 0.507698
vt 1.862367 1.055244
v 147.490677 -5.791237 282.738953
vn 0.524737 0.803996 0.279717
vt 2.026731 0.978481
v 145.795639 -24.646580 268.353027
vn 0.990147 -0.091352 -0.106128
vt 2.014317 1.062562
v 121.805290 -23.408190 279.257080
vn -0.615322 0.678822 0.400724
vt 1.929982 1.053933
v 146.705170 -19.218887 303.740234
vn 0.507287 0.376004 0.775423
vt 2.086945 1.033301
v 140.717941 -37.504196 278.184204
vn 0.774744 -0.619872 0.124622
vt 2.006203 1.115781
v 107.266441 -36.407990 293.209961
vn -0.503751 0.740237 0.445291
vt 1.888379 1.106492
v 146.705170 -19.218887 303.740234
vn 0.507287 0.376004 0.775423
vt 2.040720 1.032572
v 117.079018 -50.361828 315.042572
vn 0.161997 -0.369943 0.914822
vt 1.976177 1.160647
v 109.971230 -57.570156 284.525879
vn 0.618279 -0.785158 -0.035467
vt 1.888247 1.199166
v 84.825348 -58.479977 297.989014
vn -0.484804 0.469381 0.738002
vt 1.802482 1.199247
v 117.079018 -50.361828 315.042572
vn 0.161997 -0.369943 0.914822
vt 1.941869 1.165628
v 78.271324 -86.801811 303.841919
vn 0.379798 -0.793959 0.474745
vt 1.773585 1.323847
v 73.697998 -83.130302 273.686768
vn 0.714873 -0.672850 -0.190339
vt 1.725385 1.308937
v 55.648308 -85.962257 284.843018
vn -0.586311 0.111702 0.802348
vt 1.665754 1.318093
v 43.677269 -124.345764 265.762939
vn 0.185570 -0.778767 0.599238
vt 1.591955 1.485831
f 71/71/71 72/72/72 73/73/73
f 71/71/71 101/101/101 102/102/102
f 101/101/101 71/71/71 68/68/68
f 63/63/63 69/69/69 61/61/61
f 69/69/69 63/63/63 68/68/68
f 62/62/62 68/68/68 63/63/63
f 45/45/45 62/62/62 44/44/44
f 63/63/63 44/44/44 62/62/62
f 44/44/44 63/63/63 60/60/60
f 61/61/61 60/60/60 63/63/63
f 60/60/60 61/61/61 48/48/48
f 58/58/58 48/48/48 61/61/61
f 48/48/48 58/58/58 49/49/49
f 59/59/59 49/49/49 58/58/58
f 59/59/59 64/64/64 65/65/65
f 64/64/64 59/59/59 58/58/58
f 69/69/69 70/70/70 65/65/65
f 99/99/99 65/65/65 70/70/70
f 65/65/65 99/99/99 100/100/100
f 103/103/103 100/100/100 99/99/99
f 61/61/61 66/66/66 67/67/67
f 42/42/42 41/41/41 79/79/79
f 41/41/41 42/42/42 40/40/40
f 43/43/43 40/40/40 42/42/42
f 40/40/40 43/43/43 44/44/44
f 45/45/45 44/44/44 43/43/43
f 79/79/79 78/78/78 42/42/42
f 77/77/77 78/78/78 76/76/76
f 79/79/79 76/76/76 78/78/78
f 76/76/76 79/79/79 75/75/75
f 53/53/53 75/75/75 79/79/79
f 75/75/75 53/53/53 74/74/74
f 52/52/52 74/74/74 53/53/53
f 51/51/51 52/52/52 50/50/50
f 53/53/53 50/50/50 52/52/52
f 50/50/50 53/53/53 54/54/54
f 57/57/57 51/51/51 56/56/56
f 50/50/50 56/56/56 51/51/51
f 56/56/56 50/50/50 55/55/55
f 54/54/54 55/55/55 50/50/50
f 55/55/55 54/54/54 48/48/48
f 91/91/91 51/51/51 90/90/90
f 57/57/57 90/90/90 51/51/51
f 90/90/90 57/57/57 37/37/37
f 56/56/56 37/37/37 57/57/57
f 37/37/37 56/56/56 38/38/38
f 55/55/55 38/38/38 56/56/56
f 38/38/38 55/55/55 47/47/47
f 48/48/48 47/47/47 55/55/55
f 47/47/47 48/48/48 46/46/46
f 49/49/49 46/46/46 48/48/48
f 37/37/37 92/92/92 90/90/90
f 109/109/109 90/90/90 92/92/92
f 47/47/47 39/39/39 38/38/38
f 36/36/36 38/38/38 39/39/39
f 38/38/38 36/36/36 37/37/37
f 94/94/94 37/37/37 36/36/36
f 37/37/37 94/94/94 92/92/92
f 111/111/111 92/92/92 94/94/94
f 36/36/36 39/39/39 47/47/47
f 47/47/47 46/46/46 36/36/36
f 93/93/93 36/36/36 46/46/46
f 36/36/36 93/93/93 94/94/94
f 97/97/97 94/94/94 93/93/93
f 95/95/95 96/96/96 91/91/91
f 97/97/97 98/98/98 94/94/94
f 110/110/110 94/94/94 98/98/98
f 94/94/94 110/110/110 111/111/111
f 114/114/114 111/111/111 110/110/110
f 111/111/111 114/114/114 115/115/115
f 118/118/118 115/115/115 114/114/114
f 115/115/115 118/118/118 119/119/119
f 122/122/122 119/119/119 118/118/118
f 119/119/119 122/122/122 123/123/123
f 126/126/126 123/123/123 122/122/122
f 123/123/123 126/126/126 127/127/127
f 128/128/128 127/127/127 126/126/126
f 128/128/128 125/125/125 124/124/124
f 121/121/121 124/124/124 125/125/125
f 124/124/124 121/121/121 120/120/120
f 117/117/117 120/120/120 121/121/121
f 120/120/120 117/117/117 116/116/116
f 113/113/113 116/116/116 117/117/117
f 116/116/116 113/113/113 112/112/112
f 108/108/108 112/112/112 113/113/113
f 112/112/112 108/108/108 107/107/107
f 95/95/95 107/107/107 108/108/108
f 107/107/107 95/95/95 90/90/90
f 91/91/91 90/90/90 95/95/95
f 6/6/6 7/7/7 5/5/5
f 7/7/7 6/6/6 17/17/17
f 19/19/19 17/17/17 6/6/6
f 17/17/17 19/19/19 26/26/26
f 27/27/27 26/26/26 19/19/19
f 17/17/17 26/26/26 24/24/24
f 7/7/7 17/17/17 18/18/18
f 24/24/24 18/18/18 17/17/17
f 18/18/18 24/24/24 25/25/25
f 5/5/5 8/8/8 6/6/6
f 9/9/9 6/6/6 8/8/8
f 6/6/6 9/9/9 19/19/19
f 20/20/20 19/19/19 9/9/9
f 19/19/19 20/20/20 27/27/27
f 28/28/28 27/27/27 20/20/20
f 8/8/8 10/10/10 9/9/9
f 11/11/11 9/9/9 10/10/10
f 9/9/9 11/11/11 20/20/20
f 21/21/21 20/20/20 11/11/11
f 20/20/20 21/21/21 28/28/28
f 23/23/23 28/28/28 21/21/21
f 10/10/10 12/12/12 11/11/11
f 13/13/13 11/11/11 12/12/12
f 11/11/11 13/13/13 21/21/21
f 16/16/16 21/21/21 13/13/13
f 21/21/21 16/16/16 23/23/23
f 22/22/22 23/23/23 16/16/16
f 12/12/12 14/14/14 13/13/13
f 3/3/3 13/13/13 14/14/14
f 13/13/13 3/3/3 16/16/16
f 15/15/15 16/16/16 3/3/3
f 16/16/16 15/15/15 22/22/22
f 3/3/3 2/2/2 15/15/15
f 2/2/2 3/3/3 1/1/1
f 14/14/14 1/1/1 3/3/3
f 1/1/1 4/4/4 2/2/2
f 143/143/143 146/146/146 144/144/144
f 146/146/146 143/143/143 145/145/145
f 142/142/142 145/145/145 143/143/143
f 145/145/145 142/142/142 141/141/141
f 138/138/138 141/141/141 142/142/142
f 141/141/141 138/138/138 137/137/137
f 132/132/132 137/137/137 138/138/138
f 137/137/137 132/132/132 134/134/134
f 129/129/129 134/134/134 132/132/132
f 134/134/134 129/129/129 131/131/131
f 81/81/81 131/131/131 129/129/129
f 131/131/131 81/81/81 80/80/80
f 82/82/82 80/80/80 81/81/81
f 80/80/80 82/82/82 83/83/83
f 81/81/81 88/88/88 89/89/89
f 84/84/84 86/86/86 87/87/87
f 86/86/86 84/84/84 85/85/85
f 129/129/129 85/85/85 84/84/84
f 85/85/85 129/129/129 130/130/130
f 132/132/132 130/130/130 129/129/129
f 130/130/130 132/132/132 133/133/133
f 135/135/135 133/133/133 132/132/132
f 133/133/133 135/135/135 136/136/136
f 139/139/139 136/136/136 135/135/135
f 136/136/136 139/139/139 140/140/140
f 143/143/143 140/140/140 139/139/139
f 140/140/140 143/143/143 144/144/144
f 32/32/32 33/33/33 29/29/29
f 34/34/34 29/29/29 33/33/33
f 29/29/29 34/34/34 35/35/35
f 35/35/35 30/30/30 29/29/29
f 31/31/31 29/29/29 30/30/30
f 29/29/29 31/31/31 32/32/32
f 104/104/104 105/105/105 106/106/106
usemtl gfgfsgsgfgggg
v -157.698181 665.299866 933.236633
vn 0.988687 0.079305 0.127315
vt 0.000000 0.500000
v -142.798508 382.749695 993.531921
vn 0.988687 0.079305 0.127315
vt 0.000000 1.000000
v -97.321045 579.794373 517.628906
vn 0.988687 0.079305 0.127315
vt 0.500000 0.500000
v -82.421371 297.244232 577.924194
vn 0.988687 0.079305 0.127315
vt 0.500000 1.000000
v -36.943913 494.288849 102.021164
vn 0.988687 0.079305 0.127315
vt 1.000000 0.500000
v -22.044237 211.738708 162.316467
vn 0.988687 0.079305 0.127315
vt 1.000000 1.000000
v -172.597855 947.850037 872.941284
vn 0.988687 0.079305 0.127315
vt 0.000000 0.000000
v -112.220726 862.344543 457.333588
vn 0.988687 0.079305 0.127315
vt 0.500000 0.000000
v -51.843590 776.838989 41.725853
vn 0.988687 0.079305 0.127315
vt 1.000000 0.000000
v 231.685516 437.099060 685.216858
vn 0.919852 0.111821 -0.375990
vt 0.000000 0.500000
v 245.602921 210.365631 651.834167
vn 0.919852 0.111821 -0.375990
vt 0.000000 1.000000
v 99.859894 474.838837 373.931793
vn 0.919852 0.111821 -0.375990
vt 0.500000 0.500000
v 113.777298 248.105408 340.549072
vn 0.919852 0.111821 -0.375990
vt 0.500000 1.000000
v -31.965717 512.578613 62.646683
vn 0.919852 0.111821 -0.375990
vt 1.000000 0.500000
v -18.048315 285.845184 29.263969
vn 0.919852 0.111821 -0.375990
vt 1.000000 1.000000
v 217.768112 663.832458 718.599609
vn 0.919852 0.111821 -0.375990
vt 0.000000 0.000000
v 85.942490 701.572266 407.314484
vn 0.919852 0.111821 -0.375990
vt 0.500000 0.000000
v -45.883121 739.312012 96.029396
vn 0.919852 0.111821 -0.375990
vt 1.000000 0.000000
v -343.976685 436.122467 670.739807
vn 0.895530 -0.212643 0.390908
vt 0.000000 0.500000
v -377.642059 213.321426 626.666443
vn 0.895530 -0.212643 0.390907
vt 0.000000 1.000000
v -201.063416 475.098663 364.541595
vn 0.895530 -0.212643 0.390907
vt 0.500000 0.500000
v -234.728836 252.297607 320.468262
vn 0.895530 -0.212643 0.390907
vt 0.500000 1.000000
v -58.150158 514.074829 58.343430
vn 0.895530 -0.212643 0.390908
vt 1.000000 0.500000
v -91.815567 291.273804 14.270103
vn 0.895530 -0.212643 0.390908
vt 1.000000 1.000000
v -310.311279 658.923462 714.813110
vn 0.895530 -0.212643 0.390908
vt 0.000000 0.000000
v -167.398010 697.899658 408.614929
vn 0.895530 -0.212643 0.390908
vt 0.500000 0.000000
v -24.484749 736.875916 102.416771
vn 0.895530 -0.212643 0.390907
vt 1.000000 0.000000
f 153/153/153 147/147/147 154/154/154
f 149/149/149 154/154/154 147/147/147
f 154/154/154 149/149/149 155/155/155
f 151/151/151 155/155/155 149/149/149
f 147/147/147 148/148/148 149/149/149
f 150/150/150 149/149/149 148/148/148
f 149/149/149 150/150/150 151/151/151
f 152/152/152 151/151/151 150/150/150
f 158/158/158 157/157/157 159/159/159
f 157/157/157 158/158/158 156/156/156
f 163/163/163 156/156/156 158/158/158
f 156/156/156 163/163/163 162/162/162
f 158/158/158 164/164/164 163/163/163
f 164/164/164 158/158/158 160/160/160
f 159/159/159 160/160/160 158/158/158
f 160/160/160 159/159/159 161/161/161
f 167/167/167 166/166/166 168/168/168
f 166/166/166 167/167/167 165/165/165
f 172/172/172 165/165/165 167/167/167
f 165/165/165 172/172/172 171/171/171
f 167/167/167 173/173/173 172/172/172
f 173/173/173 167/167/167 169/169/169
f 168/168/168 169/169/169 167/167/167
f 169/169/169 168/168/168 170/170/170
