mtllib INST_COURAGEPOINT_10.mtl
g CouragePoint_10
usemtl 2_-_Default
v -0.376987 54.011444 -0.626182
vn -0.714715 0.670743 -0.198207
vt 0.002416 0.014992
v 5.116008 37.504093 -8.925200
vn 0.530747 0.274424 -0.801872
vt 0.000500 0.330301
v -6.572391 37.504093 -8.414871
vn -0.598616 0.274424 -0.752563
vt 0.999500 0.330301
v 5.116008 37.504093 -8.925200
vn 0.530747 0.274424 -0.801872
vt 0.000500 0.330301
v 5.116008 21.238319 -8.925200
vn 0.530748 -0.274423 -0.801872
vt 0.000500 0.655206
v -6.572391 21.238319 -8.414873
vn -0.598616 -0.274424 -0.752563
vt 0.999500 0.655206
v -6.572391 37.504093 -8.414871
vn -0.598616 0.274424 -0.752563
vt 0.999500 0.330301
v 5.116008 21.238319 -8.925200
vn 0.530748 -0.274423 -0.801872
vt 0.000500 0.655206
v -0.376987 4.730960 -0.626184
vn -0.714715 -0.670743 -0.198207
vt 0.007246 0.989839
v -6.572391 21.238319 -8.414873
vn -0.598616 -0.274424 -0.752563
vt 0.999500 0.655206
v -0.376987 54.011444 -0.626182
vn 0.825250 0.516318 0.228862
vt 0.002416 0.014992
v 9.213276 37.504089 2.033431
vn 0.926636 0.274424 0.256979
vt 0.000500 0.330301
v 5.116008 37.504093 -8.925200
vn 0.530747 0.274424 -0.801872
vt 0.999500 0.330301
v 9.213276 37.504089 2.033431
vn 0.926636 0.274424 0.256979
vt 0.000500 0.330301
v 9.213276 21.238317 2.033430
vn 0.926636 -0.274423 0.256979
vt 0.000500 0.655206
v 5.116008 21.238319 -8.925200
vn 0.530748 -0.274423 -0.801872
vt 0.999500 0.655206
v 5.116008 37.504093 -8.925200
vn 0.530747 0.274424 -0.801872
vt 0.999500 0.330301
v 9.213276 21.238317 2.033430
vn 0.926636 -0.274423 0.256979
vt 0.000500 0.655206
v -0.376987 4.730960 -0.626184
vn 0.825250 -0.516318 0.228862
vt 0.007246 0.989839
v 5.116008 21.238319 -8.925200
vn 0.530748 -0.274423 -0.801872
vt 0.999500 0.655206
v -0.376987 54.011444 -0.626182
vn 0.825250 0.516318 0.228862
vt 0.002416 0.014992
v 0.057124 37.504089 9.316566
vn 0.041945 0.274423 0.960694
vt 0.000500 0.330301
v 9.213276 37.504089 2.033431
vn 0.926636 0.274424 0.256979
vt 0.999500 0.330301
v 0.057124 37.504089 9.316566
vn 0.041945 0.274423 0.960694
vt 0.000500 0.330301
v 0.057124 21.238319 9.316566
vn 0.041945 -0.274423 0.960694
vt 0.000500 0.655206
v 9.213276 21.238317 2.033430
vn 0.926636 -0.274423 0.256979
vt 0.999500 0.655206
v 9.213276 37.504089 2.033431
vn 0.926636 0.274424 0.256979
vt 0.999500 0.330301
v 0.057124 21.238319 9.316566
vn 0.041945 -0.274423 0.960694
vt 0.000500 0.655206
v -0.376987 4.730960 -0.626184
vn 0.825250 -0.516318 0.228862
vt 0.007246 0.989839
v 9.213276 21.238317 2.033430
vn 0.926636 -0.274423 0.256979
vt 0.999500 0.655206
v -0.376987 54.011444 -0.626182
vn -0.714715 0.670743 -0.198207
vt 0.002416 0.014992
v -9.698956 37.504089 2.859160
vn -0.900712 0.274424 0.336763
vt 0.000500 0.330301
v 0.057124 37.504089 9.316566
vn 0.041945 0.274423 0.960694
vt 0.999500 0.330301
v -9.698956 37.504089 2.859160
vn -0.900712 0.274424 0.336763
vt 0.000500 0.330301
v -9.698956 21.238317 2.859159
vn -0.900712 -0.274424 0.336763
vt 0.000500 0.655206
v 0.057124 21.238319 9.316566
vn 0.041945 -0.274423 0.960694
vt 0.999500 0.655206
v 0.057124 37.504089 9.316566
vn 0.041945 0.274423 0.960694
vt 0.999500 0.330301
v -9.698956 21.238317 2.859159
vn -0.900712 -0.274424 0.336763
vt 0.000500 0.655206
v -0.376987 4.730960 -0.626184
vn -0.714715 -0.670743 -0.198207
vt 0.007246 0.989839
v 0.057124 21.238319 9.316566
vn 0.041945 -0.274423 0.960694
vt 0.999500 0.655206
v -0.376987 54.011444 -0.626182
vn -0.714715 0.670743 -0.198207
vt 0.002416 0.014992
v -6.572391 37.504093 -8.414871
vn -0.598616 0.274424 -0.752563
vt 0.000500 0.330301
v -9.698956 37.504089 2.859160
vn -0.900712 0.274424 0.336763
vt 0.999500 0.330301
v -6.572391 37.504093 -8.414871
vn -0.598616 0.274424 -0.752563
vt 0.000500 0.330301
v -6.572391 21.238319 -8.414873
vn -0.598616 -0.274424 -0.752563
vt 0.000500 0.655206
v -9.698956 21.238317 2.859159
vn -0.900712 -0.274424 0.336763
vt 0.999500 0.655206
v -9.698956 37.504089 2.859160
vn -0.900712 0.274424 0.336763
vt 0.999500 0.330301
v -6.572391 21.238319 -8.414873
vn -0.598616 -0.274424 -0.752563
vt 0.000500 0.655206
v -0.376987 4.730960 -0.626184
vn -0.714715 -0.670743 -0.198207
vt 0.007246 0.989839
v -9.698956 21.238317 2.859159
vn -0.900712 -0.274424 0.336763
vt 0.999500 0.655206
v 7.434789 38.566376 -12.428496
vn -0.523826 -0.315078 0.791412
vt 0.862827 0.028070
v -0.376987 58.344837 -0.626182
vn 0.656857 -0.731681 0.182158
vt 0.862875 0.020199
v -9.187682 38.566376 -11.702742
vn 0.590806 -0.315077 0.742748
vt 0.887765 0.028070
v 7.434791 20.176037 -12.428498
vn -0.523827 0.315078 0.791411
vt 0.862827 0.036181
v 7.434789 38.566376 -12.428496
vn -0.523826 -0.315078 0.791412
vt 0.862827 0.028070
v -9.187520 20.175972 -11.702850
vn 0.590800 0.315080 0.742752
vt 0.887765 0.036181
v -9.187682 38.566376 -11.702742
vn 0.590806 -0.315077 0.742748
vt 0.887765 0.028070
v -0.376987 0.397569 -0.626184
vn 0.656856 0.731680 0.182168
vt 0.862995 0.044535
v 7.434791 20.176037 -12.428498
vn -0.523827 0.315078 0.791411
vt 0.862827 0.036181
v -9.187520 20.175972 -11.702850
vn 0.590800 0.315080 0.742752
vt 0.887765 0.036181
v 13.261654 38.566376 3.156143
vn -0.914550 -0.315078 -0.253623
vt 0.862827 0.028070
v -0.376987 58.344837 -0.626182
vn -0.783653 -0.581944 -0.217322
vt 0.862875 0.020199
v 7.434789 38.566376 -12.428496
vn -0.523826 -0.315078 0.791412
vt 0.887765 0.028070
v 13.261654 20.176033 3.156142
vn -0.914548 0.315080 -0.253626
vt 0.862827 0.036181
v 13.261654 38.566376 3.156143
vn -0.914550 -0.315078 -0.253623
vt 0.862827 0.028070
v 7.434791 20.176037 -12.428498
vn -0.523827 0.315078 0.791411
vt 0.887765 0.036181
v 7.434789 38.566376 -12.428496
vn -0.523826 -0.315078 0.791412
vt 0.887765 0.028070
v -0.376987 0.397569 -0.626184
vn -0.783652 0.581944 -0.217326
vt 0.862995 0.044535
v 13.261654 20.176033 3.156142
vn -0.914548 0.315080 -0.253626
vt 0.862827 0.036181
v 7.434791 20.176037 -12.428498
vn -0.523827 0.315078 0.791411
vt 0.887765 0.036181
v 0.240572 38.566444 13.513712
vn -0.041406 -0.315078 -0.948162
vt 0.862827 0.028070
v -0.376987 58.344837 -0.626182
vn -0.783653 -0.581944 -0.217322
vt 0.862875 0.020199
v 13.261654 38.566376 3.156143
vn -0.914550 -0.315078 -0.253623
vt 0.887765 0.028070
v 0.240377 20.176031 13.513735
vn -0.041395 0.315084 -0.948161
vt 0.862827 0.036181
v 0.240572 38.566444 13.513712
vn -0.041406 -0.315078 -0.948162
vt 0.862827 0.028070
v 13.261654 20.176033 3.156142
vn -0.914548 0.315080 -0.253626
vt 0.887765 0.036181
v 13.261654 38.566376 3.156143
vn -0.914550 -0.315078 -0.253623
vt 0.887765 0.028070
v -0.376987 0.397569 -0.626184
vn -0.783652 0.581944 -0.217326
vt 0.862995 0.044535
v 0.240377 20.176031 13.513735
vn -0.041395 0.315084 -0.948161
vt 0.862827 0.036181
v 13.261654 20.176033 3.156142
vn -0.914548 0.315080 -0.253626
vt 0.887765 0.036181
v -13.633992 38.566444 4.330618
vn 0.888962 -0.315077 -0.332374
vt 0.862827 0.028070
v -0.376987 58.344837 -0.626182
vn 0.656857 -0.731681 0.182158
vt 0.862875 0.020199
v 0.240572 38.566444 13.513712
vn -0.041406 -0.315078 -0.948162
vt 0.887765 0.028070
v -13.634129 20.175970 4.330252
vn 0.888965 0.315084 -0.332361
vt 0.862827 0.036181
v -13.633992 38.566444 4.330618
vn 0.888962 -0.315077 -0.332374
vt 0.862827 0.028070
v 0.240377 20.176031 13.513735
vn -0.041395 0.315084 -0.948161
vt 0.887765 0.036181
v 0.240572 38.566444 13.513712
vn -0.041406 -0.315078 -0.948162
vt 0.887765 0.028070
v -0.376987 0.397569 -0.626184
vn 0.656856 0.731680 0.182168
vt 0.862995 0.044535
v -13.634129 20.175970 4.330252
vn 0.888965 0.315084 -0.332361
vt 0.862827 0.036181
v 0.240377 20.176031 13.513735
vn -0.041395 0.315084 -0.948161
vt 0.887765 0.036181
v -9.187682 38.566376 -11.702742
vn 0.590806 -0.315077 0.742748
vt 0.862827 0.028070
v -0.376987 58.344837 -0.626182
vn 0.656857 -0.731681 0.182158
vt 0.862875 0.020199
v -13.633992 38.566444 4.330618
vn 0.888962 -0.315077 -0.332374
vt 0.887765 0.028070
v -9.187520 20.175972 -11.702850
vn 0.590800 0.315080 0.742752
vt 0.862827 0.036181
v -9.187682 38.566376 -11.702742
vn 0.590806 -0.315077 0.742748
vt 0.862827 0.028070
v -13.634129 20.175970 4.330252
vn 0.888965 0.315084 -0.332361
vt 0.887765 0.036181
v -13.633992 38.566444 4.330618
vn 0.888962 -0.315077 -0.332374
vt 0.887765 0.028070
v -0.376987 0.397569 -0.626184
vn 0.656856 0.731680 0.182168
vt 0.862995 0.044535
v -9.187520 20.175972 -11.702850
vn 0.590800 0.315080 0.742752
vt 0.862827 0.036181
v -13.634129 20.175970 4.330252
vn 0.888965 0.315084 -0.332361
vt 0.887765 0.036181
f 1/1/1 2/2/2 3/3/3
f 6/6/6 4/4/4 5/5/5
f 4/4/4 6/6/6 7/7/7
f 16/16/16 14/14/14 15/15/15
f 14/14/14 16/16/16 17/17/17
f 26/26/26 24/24/24 25/25/25
f 24/24/24 26/26/26 27/27/27
f 36/36/36 34/34/34 35/35/35
f 34/34/34 36/36/36 37/37/37
f 46/46/46 44/44/44 45/45/45
f 44/44/44 46/46/46 47/47/47
f 54/54/54 55/55/55 56/56/56
f 57/57/57 56/56/56 55/55/55
f 64/64/64 65/65/65 66/66/66
f 67/67/67 66/66/66 65/65/65
f 74/74/74 75/75/75 76/76/76
f 77/77/77 76/76/76 75/75/75
f 84/84/84 85/85/85 86/86/86
f 87/87/87 86/86/86 85/85/85
f 94/94/94 95/95/95 96/96/96
f 97/97/97 96/96/96 95/95/95
f 8/8/8 9/9/9 10/10/10
f 11/11/11 12/12/12 13/13/13
f 18/18/18 19/19/19 20/20/20
f 21/21/21 22/22/22 23/23/23
f 28/28/28 29/29/29 30/30/30
f 31/31/31 32/32/32 33/33/33
f 38/38/38 39/39/39 40/40/40
f 41/41/41 42/42/42 43/43/43
f 48/48/48 49/49/49 50/50/50
f 51/51/51 52/52/52 53/53/53
f 58/58/58 59/59/59 60/60/60
f 61/61/61 62/62/62 63/63/63
f 68/68/68 69/69/69 70/70/70
f 71/71/71 72/72/72 73/73/73
f 78/78/78 79/79/79 80/80/80
f 81/81/81 82/82/82 83/83/83
f 88/88/88 89/89/89 90/90/90
f 91/91/91 92/92/92 93/93/93
f 98/98/98 99/99/99 100/100/100
