mtllib MIRKWOOD_SPIDERWEB_COVERS06.mtl
g derWEB_Covers06
usemtl treebark2
v -20671.404297 456.682739 -16158.635742
vn 0.999936 0.000000 -0.011302
vt 0.551442 1.000000
v -20670.595703 723.829163 -16087.216797
vn 0.943647 -0.221298 0.246085
vt 0.913581 0.826454
v -20668.173828 807.858826 -15872.962891
vn 0.999176 0.019942 -0.035345
vt 1.000000 0.435272
v -20665.753906 712.536072 -15658.709961
vn 0.999936 -0.000001 -0.011302
vt 0.836419 0.076454
v -20664.945313 441.625275 -15587.291992
vn 0.999936 -0.000001 -0.011302
vt 0.448558 0.000000
v -20665.753906 174.478882 -15658.709961
vn 0.999936 -0.000001 -0.011302
vt 0.086419 0.173546
v -20668.175781 90.449211 -15872.963867
vn 0.999936 -0.000001 -0.011302
vt 0.000000 0.564728
v -20670.597656 185.771973 -16087.217773
vn 0.999936 -0.000001 -0.011302
vt 0.163581 0.923546
f 3/3/3 1/1/1 2/2/2
f 1/1/1 3/3/3 5/5/5
f 4/4/4 5/5/5 3/3/3
f 7/7/7 5/5/5 6/6/6
f 5/5/5 7/7/7 1/1/1
f 8/8/8 1/1/1 7/7/7
