mtllib MIRKWOOD_SPIDER_HOLES21.mtl
g Spider_Holes21
usemtl cliffy
v -20571.214844 662.483337 -8633.662109
vn 0.509303 0.681679 0.525285
vt 3.693151 -3.015142
v -20583.386719 698.467896 -8659.192383
vn 0.628393 0.119238 0.768703
vt 3.738499 -2.956045
v -20625.732422 698.675049 -8582.586914
vn 0.952923 0.042279 0.300249
vt 3.763986 -3.262959
v -20607.951172 654.437866 -8575.567383
vn 0.690507 0.677012 0.254668
vt 3.721744 -3.251647
v -20581.519531 735.971436 -8640.408203
vn 0.650912 -0.522269 0.550953
vt 3.720404 -3.025511
v -20610.693359 744.339111 -8579.223633
vn 0.763851 -0.613910 0.199116
vt 3.731438 -3.266859
v -20613.826172 736.975891 -8509.275391
vn 0.769560 -0.626534 -0.123420
vt 3.682487 -3.499602
v -20635.257813 700.309082 -8495.598633
vn 0.963109 -0.038546 -0.266338
vt 3.714684 -3.562461
v -20619.673828 664.342651 -8510.083984
vn 0.798274 0.594756 -0.094991
vt 3.693986 -3.485228
v -20466.539063 597.642517 -8370.201172
vn 0.957738 0.273002 0.090596
vt 3.258278 -3.703326
v -20410.191406 557.392822 -8509.789063
vn 0.679798 0.687906 0.254283
vt 3.238390 -3.177164
v -20445.851563 583.158508 -8521.894531
vn 0.455580 0.874827 0.164695
vt 3.349400 -3.202224
v -20495.929688 616.185608 -8401.115234
vn 0.655282 0.668984 -0.350808
vt 3.356172 -3.673390
v -20356.144531 592.372620 -8652.415039
vn 0.845262 0.254967 0.469599
vt 3.255619 -2.666366
v -20397.656250 611.719238 -8645.164063
vn 0.348588 0.695775 0.628000
vt 3.349266 -2.741527
v -20453.962891 629.122253 -8643.850586
vn 0.194842 0.761922 0.617666
vt 3.462755 -2.822565
v -20496.669922 606.585632 -8538.748047
vn 0.333793 0.934800 0.121371
vt 3.466167 -3.217913
v -20540.867188 632.834595 -8435.621094
vn 0.530913 0.732917 -0.425398
vt 3.474837 -3.621545
v -20352.804688 705.672363 -8711.371094
vn 0.699832 0.135849 0.701270
vt 3.348873 -2.537355
v -20395.888672 704.441589 -8696.326172
vn 0.261649 0.110893 0.958771
vt 3.387341 -2.595043
v -20380.458984 820.061829 -8672.576172
vn 0.855724 -0.187063 0.482436
vt 3.424004 -2.743613
v -20420.988281 798.110229 -8662.765625
vn 0.397328 -0.610469 0.685170
vt 3.413085 -2.762619
v -20476.376953 776.756531 -8659.051758
vn 0.255110 -0.687535 0.679864
vt 3.522276 -2.840155
v -20453.675781 702.533569 -8687.702148
vn 0.097844 0.102057 0.989955
vt 3.497792 -2.696986
v -20419.398438 858.310974 -8521.953125
vn 0.878450 -0.424407 0.219555
vt 3.386856 -3.238618
v -20453.386719 829.509827 -8531.862305
vn 0.539001 -0.831427 0.134934
vt 3.375954 -3.244102
v -20456.033203 821.330505 -8368.289063
vn 0.868254 -0.474949 -0.143383
vt 3.312593 -3.718260
v -20483.900391 799.321594 -8398.466797
vn 0.705892 -0.640377 -0.302712
vt 3.332184 -3.715115
v -20527.402344 777.914063 -8432.280273
vn 0.579153 -0.719204 -0.383832
vt 3.446873 -3.653657
v -20502.636719 801.728149 -8546.654297
vn 0.419815 -0.902007 0.100693
vt 3.487202 -3.251048
v -20476.781250 710.031372 -8320.368164
vn 0.917080 -0.042034 -0.396481
vt 3.276374 -3.878427
v -20503.345703 708.226685 -8357.427734
vn 0.773480 -0.033569 -0.632931
vt 3.338011 -3.851282
v -20545.628906 705.780151 -8397.701172
vn 0.656304 -0.035363 -0.753668
vt 3.455578 -3.771975
v -20557.816406 627.043396 -8558.796875
vn 0.359983 0.923650 0.131468
vt 3.606377 -3.235510
v -20596.708984 647.180969 -8471.583984
vn 0.642723 0.685030 -0.342988
vt 3.616758 -3.578249
v -20520.062500 644.148499 -8647.521484
vn 0.257767 0.760566 0.595899
vt 3.600010 -2.899083
v -20521.105469 700.148193 -8684.777344
vn 0.223934 0.116016 0.967674
vt 3.632306 -2.792354
v -20541.642578 756.838135 -8660.555664
vn 0.391409 -0.627503 0.673081
vt 3.655652 -2.913516
v -20562.365234 776.013977 -8564.843750
vn 0.446179 -0.888274 0.109056
vt 3.622437 -3.260761
v -20581.953125 757.947205 -8467.622070
vn 0.617182 -0.714735 -0.328999
vt 3.585207 -3.601694
v -20599.078125 702.909180 -8438.863281
vn 0.747616 -0.045586 -0.662564
vt 3.596508 -3.703917
f 27/27/27 31/31/31 32/32/32
f 10/10/10 32/32/32 31/31/31
f 33/33/33 29/29/29 32/32/32
f 28/28/28 32/32/32 29/29/29
f 32/32/32 28/28/28 27/27/27
f 26/26/26 27/27/27 28/28/28
f 27/27/27 26/26/26 25/25/25
f 21/21/21 25/25/25 26/26/26
f 26/26/26 28/28/28 29/29/29
f 26/26/26 22/22/22 21/21/21
f 30/30/30 29/29/29 39/39/39
f 29/29/29 30/30/30 26/26/26
f 23/23/23 26/26/26 30/30/30
f 26/26/26 23/23/23 22/22/22
f 20/20/20 22/22/22 23/23/23
f 22/22/22 20/20/20 21/21/21
f 19/19/19 21/21/21 20/20/20
f 39/39/39 23/23/23 30/30/30
f 23/23/23 39/39/39 38/38/38
f 20/20/20 14/14/14 19/19/19
f 14/14/14 20/20/20 15/15/15
f 15/15/15 12/12/12 14/14/14
f 12/12/12 15/15/15 16/16/16
f 20/20/20 16/16/16 15/15/15
f 16/16/16 20/20/20 24/24/24
f 23/23/23 24/24/24 20/20/20
f 24/24/24 23/23/23 37/37/37
f 38/38/38 37/37/37 23/23/23
f 37/37/37 38/38/38 5/5/5
f 39/39/39 5/5/5 38/38/38
f 5/5/5 39/39/39 6/6/6
f 37/37/37 16/16/16 24/24/24
f 16/16/16 37/37/37 36/36/36
f 13/13/13 10/10/10 12/12/12
f 11/11/11 12/12/12 10/10/10
f 12/12/12 11/11/11 14/14/14
f 12/12/12 18/18/18 13/13/13
f 18/18/18 12/12/12 17/17/17
f 16/16/16 17/17/17 12/12/12
f 34/34/34 18/18/18 17/17/17
f 18/18/18 34/34/34 35/35/35
f 17/17/17 16/16/16 34/34/34
f 36/36/36 34/34/34 16/16/16
f 34/34/34 36/36/36 1/1/1
f 37/37/37 1/1/1 36/36/36
f 1/1/1 37/37/37 2/2/2
f 5/5/5 2/2/2 37/37/37
f 2/2/2 5/5/5 3/3/3
f 6/6/6 3/3/3 5/5/5
f 3/3/3 6/6/6 7/7/7
f 39/39/39 7/7/7 6/6/6
f 7/7/7 39/39/39 40/40/40
f 29/29/29 40/40/40 39/39/39
f 40/40/40 29/29/29 41/41/41
f 33/33/33 41/41/41 29/29/29
f 41/41/41 33/33/33 18/18/18
f 32/32/32 18/18/18 33/33/33
f 18/18/18 32/32/32 13/13/13
f 10/10/10 13/13/13 32/32/32
f 35/35/35 41/41/41 18/18/18
f 41/41/41 35/35/35 9/9/9
f 34/34/34 9/9/9 35/35/35
f 9/9/9 34/34/34 4/4/4
f 1/1/1 4/4/4 34/34/34
f 4/4/4 1/1/1 3/3/3
f 2/2/2 3/3/3 1/1/1
f 40/40/40 41/41/41 7/7/7
f 8/8/8 7/7/7 41/41/41
f 7/7/7 8/8/8 3/3/3
f 9/9/9 3/3/3 8/8/8
f 3/3/3 9/9/9 4/4/4
f 9/9/9 8/8/8 41/41/41
