mtllib MIRKWOOD_SPIDER_HOLES41.mtl
g Spider_Holes41
usemtl cliffy
v -21933.083984 510.926361 -5871.036621
vn 0.076094 0.892460 -0.444662
vt 3.270514 -3.812778
v -21950.285156 518.053101 -5867.840820
vn 0.670831 0.559049 -0.487288
vt 3.303007 -3.847227
v -21930.642578 536.461304 -5844.363281
vn 0.276519 0.343857 -0.897385
vt 3.244862 -3.904362
v -21911.439453 523.292114 -5854.639648
vn -0.280357 0.694446 -0.662680
vt 3.213816 -3.842398
v -21954.796875 538.957458 -5872.818359
vn 0.923249 0.040832 -0.382027
vt 3.316376 -3.842119
v -21944.734375 556.303223 -5851.957031
vn 0.729383 -0.123204 -0.672920
vt 3.279728 -3.902612
v -21925.076172 573.328003 -5845.425293
vn 0.334708 -0.369324 -0.866931
vt 3.234907 -3.903476
v -21905.886719 561.542175 -5838.753418
vn -0.206664 -0.060303 -0.976552
vt 3.190536 -3.897782
v -21891.445313 546.358582 -5851.714355
vn -0.535650 0.370126 -0.759003
vt 3.171240 -3.832537
v -21904.578125 511.685547 -6003.109375
vn 0.092320 0.981831 -0.165786
vt 3.337471 -3.305099
v -21961.873047 533.076111 -6026.057129
vn 0.643661 0.508429 -0.572015
vt 3.467117 -3.328705
v -21948.722656 528.541931 -5978.020020
vn 0.749153 0.658391 0.072742
vt 3.386936 -3.484648
v -21914.275391 508.571655 -5968.798340
vn 0.018729 0.990604 0.135475
vt 3.309467 -3.465667
v -21976.544922 587.367065 -6017.191406
vn 0.827429 0.194756 -0.526717
vt 3.482124 -3.415519
v -21959.410156 571.633362 -5971.731445
vn 0.987515 0.019368 -0.156329
vt 3.404259 -3.530458
v -21963.091797 559.268066 -5937.914551
vn 0.997766 -0.056349 0.035882
vt 3.384869 -3.643428
v -21954.001953 520.349243 -5943.107910
vn 0.776269 0.598635 0.197590
vt 3.369987 -3.604378
v -21923.166016 502.617706 -5934.095703
vn 0.016629 0.994417 0.104207
vt 3.300041 -3.589920
v -21960.162109 653.710205 -5982.407715
vn 0.723221 -0.032997 -0.689828
vt 3.419495 -3.534927
v -21942.720703 616.354309 -5943.503418
vn 0.842535 -0.393230 -0.368109
vt 3.348724 -3.613996
v -21901.203125 679.682495 -5942.853027
vn 0.319564 0.023730 -0.947268
vt 3.267487 -3.600547
v -21905.273438 640.290222 -5917.025391
vn 0.251593 -0.713122 -0.654337
vt 3.252151 -3.659689
v -21913.693359 621.954834 -5886.807129
vn 0.230300 -0.822642 -0.519829
vt 3.245136 -3.765274
v -21947.687500 599.907349 -5911.582031
vn 0.834877 -0.512075 -0.201889
vt 3.333385 -3.721281
v -21827.318359 657.402954 -5939.383301
vn -0.129019 0.035729 -0.990998
vt 3.110025 -3.522945
v -21853.683594 621.026611 -5915.982910
vn -0.497343 -0.443330 -0.745726
vt 3.146351 -3.591963
v -21800.138672 592.683655 -5956.951172
vn -0.489191 0.253854 -0.834416
vt 3.075428 -3.391993
v -21825.851563 578.641846 -5930.450195
vn -0.820786 0.245597 -0.515744
vt 3.100700 -3.497408
v -21842.058594 567.054504 -5899.968262
vn -0.868593 0.201664 -0.452634
vt 3.109377 -3.615623
v -21867.001953 605.098328 -5886.285645
vn -0.549030 -0.560860 -0.619679
vt 3.149723 -3.702745
v -21826.037109 534.179199 -5980.228027
vn -0.262354 0.689684 -0.674912
vt 3.156471 -3.300176
v -21859.683594 533.214233 -5950.498047
vn -0.525730 0.824171 -0.210595
vt 3.184563 -3.462615
v -21873.316406 525.540222 -5917.810547
vn -0.587526 0.799569 -0.124505
vt 3.186327 -3.585842
v -21956.298828 514.767700 -5903.568848
vn 0.796930 0.603096 -0.034319
vt 3.343365 -3.736236
v -21932.304688 501.281921 -5894.953125
vn 0.098612 0.982001 -0.161087
vt 3.287682 -3.730356
v -21962.351563 545.772949 -5900.452148
vn 0.991505 -0.015077 -0.129193
vt 3.353615 -3.762463
v -21949.388672 578.671143 -5877.715332
vn 0.844068 -0.407311 -0.348780
vt 3.309811 -3.829535
v -21921.939453 597.137024 -5856.172363
vn 0.287810 -0.632890 -0.718760
vt 3.237350 -3.870307
v -21884.537109 584.845703 -5856.635742
vn -0.465354 -0.405058 -0.787003
vt 3.161636 -3.817631
v -21865.076172 555.034851 -5868.832520
vn -0.742446 0.276419 -0.610218
vt 3.131355 -3.744606
v -21891.449219 520.942261 -5882.490234
vn -0.521933 0.798258 -0.300616
vt 3.195190 -3.724330
f 27/27/27 31/31/31 32/32/32
f 10/10/10 32/32/32 31/31/31
f 33/33/33 29/29/29 32/32/32
f 28/28/28 32/32/32 29/29/29
f 32/32/32 28/28/28 27/27/27
f 26/26/26 27/27/27 28/28/28
f 27/27/27 26/26/26 25/25/25
f 21/21/21 25/25/25 26/26/26
f 26/26/26 28/28/28 29/29/29
f 26/26/26 22/22/22 21/21/21
f 30/30/30 29/29/29 39/39/39
f 29/29/29 30/30/30 26/26/26
f 23/23/23 26/26/26 30/30/30
f 26/26/26 23/23/23 22/22/22
f 20/20/20 22/22/22 23/23/23
f 22/22/22 20/20/20 21/21/21
f 19/19/19 21/21/21 20/20/20
f 39/39/39 23/23/23 30/30/30
f 23/23/23 39/39/39 38/38/38
f 20/20/20 14/14/14 19/19/19
f 14/14/14 20/20/20 15/15/15
f 15/15/15 12/12/12 14/14/14
f 12/12/12 15/15/15 16/16/16
f 20/20/20 16/16/16 15/15/15
f 16/16/16 20/20/20 24/24/24
f 23/23/23 24/24/24 20/20/20
f 24/24/24 23/23/23 37/37/37
f 38/38/38 37/37/37 23/23/23
f 37/37/37 38/38/38 7/7/7
f 39/39/39 7/7/7 38/38/38
f 7/7/7 39/39/39 8/8/8
f 37/37/37 16/16/16 24/24/24
f 16/16/16 37/37/37 36/36/36
f 13/13/13 10/10/10 12/12/12
f 11/11/11 12/12/12 10/10/10
f 12/12/12 11/11/11 14/14/14
f 12/12/12 18/18/18 13/13/13
f 18/18/18 12/12/12 17/17/17
f 16/16/16 17/17/17 12/12/12
f 34/34/34 18/18/18 17/17/17
f 18/18/18 34/34/34 35/35/35
f 17/17/17 16/16/16 34/34/34
f 36/36/36 34/34/34 16/16/16
f 34/34/34 36/36/36 5/5/5
f 37/37/37 5/5/5 36/36/36
f 5/5/5 37/37/37 6/6/6
f 7/7/7 6/6/6 37/37/37
f 6/6/6 7/7/7 3/3/3
f 8/8/8 3/3/3 7/7/7
f 3/3/3 8/8/8 9/9/9
f 39/39/39 9/9/9 8/8/8
f 9/9/9 39/39/39 40/40/40
f 29/29/29 40/40/40 39/39/39
f 40/40/40 29/29/29 41/41/41
f 33/33/33 41/41/41 29/29/29
f 41/41/41 33/33/33 18/18/18
f 32/32/32 18/18/18 33/33/33
f 18/18/18 32/32/32 13/13/13
f 10/10/10 13/13/13 32/32/32
f 35/35/35 41/41/41 18/18/18
f 41/41/41 35/35/35 1/1/1
f 34/34/34 1/1/1 35/35/35
f 1/1/1 34/34/34 2/2/2
f 5/5/5 2/2/2 34/34/34
f 2/2/2 5/5/5 3/3/3
f 6/6/6 3/3/3 5/5/5
f 40/40/40 41/41/41 9/9/9
f 4/4/4 9/9/9 41/41/41
f 9/9/9 4/4/4 3/3/3
f 1/1/1 3/3/3 4/4/4
f 3/3/3 1/1/1 2/2/2
f 1/1/1 4/4/4 41/41/41
