mtllib MIRKWOOD_WEB_DECOR06.mtl
g Web_Decor06
usemtl webb
v -20711.058594 475.849243 -5996.547852
vn 0.271019 -0.830805 0.486119
vt 0.000000 0.500000
v -20378.521484 492.848267 -6152.890625
vn 0.271019 -0.830805 0.486119
vt 0.000000 1.000000
v -20658.031250 691.533081 -5860.307129
vn 0.271019 -0.830805 0.486119
vt 0.500000 0.500000
v -20325.492188 708.532104 -6016.649902
vn 0.271019 -0.830805 0.486119
vt 0.500000 1.000000
v -20605.003906 907.216919 -5724.066406
vn 0.271019 -0.830805 0.486119
vt 1.000000 0.500000
v -20272.464844 924.215942 -5880.409180
vn 0.271019 -0.830805 0.486119
vt 1.000000 1.000000
v -21043.597656 458.850250 -5840.205078
vn 0.271019 -0.830805 0.486119
vt 0.000000 0.000000
v -20990.570313 674.534058 -5703.964355
vn 0.271019 -0.830805 0.486119
vt 0.500000 0.000000
v -20937.541016 890.217896 -5567.723633
vn 0.271019 -0.830805 0.486119
vt 1.000000 0.000000
f 3/3/3 2/2/2 4/4/4
f 2/2/2 3/3/3 1/1/1
f 8/8/8 1/1/1 3/3/3
f 1/1/1 8/8/8 7/7/7
f 3/3/3 9/9/9 8/8/8
f 9/9/9 3/3/3 5/5/5
f 4/4/4 5/5/5 3/3/3
f 5/5/5 4/4/4 6/6/6
