mtllib MIRKWOOD_PLANE38.mtl
g Plane38
usemtl 13_-_Default
v -23121.046875 993.198792 -6987.893555
vn 0.279178 -0.960213 -0.007076
vt 0.000000 1.000000
v -22692.330078 1063.330933 -7310.599121
vn 0.185726 -0.970325 0.154839
vt 0.500000 1.000000
v -22228.578125 1201.484375 -6631.651855
vn 0.098857 -0.993756 -0.051735
vt 0.500000 0.500000
v -22677.220703 995.858276 -6298.127441
vn 0.199940 -0.950665 -0.237193
vt 0.000000 0.500000
v -22263.613281 1133.463135 -7633.304688
vn 0.108156 -0.991425 -0.073340
vt 1.000000 1.000000
v -21819.787109 1136.122681 -6943.538574
vn -0.001859 -0.992911 0.118847
vt 1.000000 0.500000
v -21804.677734 1068.650024 -5931.066895
vn 0.031079 -0.956070 -0.291486
vt 0.500000 0.000000
v -22233.394531 998.517822 -5608.361328
vn 0.108156 -0.991425 -0.073340
vt 0.000000 0.000000
v -21375.960938 1138.782227 -6253.772461
vn -0.079437 -0.986157 -0.145551
vt 1.000000 0.000000
f 5/5/5 6/6/6 2/2/2
f 3/3/3 2/2/2 6/6/6
f 2/2/2 3/3/3 1/1/1
f 4/4/4 1/1/1 3/3/3
f 6/6/6 9/9/9 3/3/3
f 7/7/7 3/3/3 9/9/9
f 3/3/3 7/7/7 4/4/4
f 8/8/8 4/4/4 7/7/7
