mtllib MIRKWOOD_PLANE47.mtl
g Plane47
usemtl 13_-_Default
v -19620.697266 961.864197 -9729.067383
vn 0.108156 0.981818 -0.156000
vt 0.000000 1.000000
v -20040.509766 915.214355 -10062.730469
vn 0.042415 0.968183 -0.246623
vt 0.500000 1.000000
v -20439.289063 1069.949463 -9616.347656
vn -0.000328 0.989873 -0.141955
vt 0.500000 0.500000
v -19985.773438 1029.280396 -9279.157227
vn 0.074549 0.996367 -0.041165
vt 0.000000 0.500000
v -20460.324219 868.564453 -10396.393555
vn 0.004797 0.989511 -0.144380
vt 1.000000 1.000000
v -20825.398438 935.980652 -9946.483398
vn -0.066510 0.965532 -0.251644
vt 1.000000 0.500000
v -20770.662109 1050.046631 -9162.910156
vn -0.034325 0.998913 -0.031548
vt 0.500000 0.000000
v -20350.847656 1096.696533 -8829.247070
vn 0.004797 0.989511 -0.144380
vt 0.000000 0.000000
v -21190.474609 1003.396790 -9496.573242
vn -0.108081 0.985578 -0.130212
vt 1.000000 0.000000
f 5/5/5 6/6/6 2/2/2
f 3/3/3 2/2/2 6/6/6
f 2/2/2 3/3/3 1/1/1
f 4/4/4 1/1/1 3/3/3
f 6/6/6 9/9/9 3/3/3
f 7/7/7 3/3/3 9/9/9
f 3/3/3 7/7/7 4/4/4
f 8/8/8 4/4/4 7/7/7
