mtllib MIRKWOOD_MIRK_PLAYSURFACE61.mtl
g k_PlaySurface61
usemtl groundy
v -18898.435547 492.151581 -15704.182617
vn -0.041844 0.140971 0.989129
vt 2.596430 0.498002
v -18871.386719 -61.917923 -15629.967773
vn -0.024133 0.134433 0.990629
vt 2.596430 0.997502
v -18551.066406 -68.473549 -15733.912109
vn 0.613913 0.141306 0.776623
vt 2.250000 0.997502
v -18589.433594 485.877686 -15804.438477
vn 0.611742 0.152028 0.776311
vt 2.250000 0.498002
v -19195.230469 508.234680 -15831.489258
vn -0.686229 0.085335 0.722363
vt 2.931951 0.498002
v -19183.699219 -65.347748 -15756.072266
vn -0.659190 0.091779 0.746355
vt 2.931951 0.997502
v -19332.550781 537.771851 -16118.763672
vn -0.989109 0.017800 0.146104
vt 0.259037 0.498002
v -19341.869141 -77.158165 -16053.217773
vn -0.987217 0.024266 0.157525
vt 0.259037 0.997502
v -19183.699219 -65.347748 -15756.072266
vn -0.659190 0.091779 0.746355
vt -0.068049 0.997502
v -19195.230469 508.234680 -15831.489258
vn -0.686229 0.085335 0.722363
vt -0.068049 0.498002
v -19279.210938 482.768677 -16427.923828
vn -0.862641 -0.050884 -0.503251
vt 0.585815 0.498002
v -19271.884766 -91.822952 -16382.368164
vn -0.851822 -0.056190 -0.520810
vt 0.585815 0.997502
v -19028.765625 452.729614 -16629.791016
vn -0.316628 -0.078859 -0.945266
vt 0.914185 0.498002
v -19006.496094 -102.480293 -16589.509766
vn -0.301761 -0.081012 -0.949935
vt 0.914185 0.997502
v -18704.044922 451.210999 -16618.404297
vn 0.375438 -0.042236 -0.925885
vt 1.240963 0.498002
v -18669.878906 -104.143494 -16577.718750
vn 0.389366 -0.043449 -0.920058
vt 1.240963 0.997502
v -18462.552734 459.155853 -16401.154297
vn 0.881985 0.033359 -0.470096
vt 1.568049 0.498002
v -18419.541016 -96.034325 -16352.512695
vn 0.889629 0.028986 -0.455764
vt 1.568049 0.997502
v -18417.289063 472.846710 -16079.693359
vn 0.973155 0.109876 0.202227
vt 1.903570 0.498002
v -18372.619141 -81.947159 -16019.266602
vn 0.972001 0.101357 0.211991
vt 1.903570 0.997502
v -18932.779297 1117.968262 -15801.000000
vn -0.069003 0.091808 0.993383
vt 2.596430 -0.001499
v -18641.160156 1112.000000 -15895.629883
vn 0.610878 0.056219 0.789726
vt 2.250000 -0.001499
v -19210.603516 1129.304199 -15922.715820
vn -0.712615 0.102500 0.694027
vt 2.931951 -0.001499
v -19333.552734 1148.149780 -16192.068359
vn -0.987710 0.106807 0.114114
vt 0.259037 -0.001499
v -19210.603516 1129.304199 -15922.715820
vn -0.712615 0.102500 0.694027
vt -0.036095 -0.001498
v -19289.404297 1105.646606 -16482.357422
vn -0.857780 0.081797 -0.507467
vt 0.585815 -0.001499
v -19055.783203 1081.040161 -16674.568359
vn -0.330770 0.048217 -0.942479
vt 0.914185 -0.001499
v -18749.326172 1079.526001 -16663.832031
vn 0.349514 0.022688 -0.936656
vt 1.240963 -0.001499
v -18521.419922 1086.908569 -16458.804688
vn 0.869770 0.011984 -0.493312
vt 1.568049 -0.001499
v -18478.701172 1099.733521 -16155.417969
vn 0.980913 0.024374 0.192913
vt 1.903570 -0.001499
v -18822.802734 1864.002319 -15818.607422
vn -0.056249 0.077171 0.995430
vt 2.596430 -0.500999
v -18571.496094 1858.961060 -15897.794922
vn 0.591543 -0.066557 0.803521
vt 2.250000 -0.500999
v -19068.515625 1861.215576 -15919.866211
vn -0.659702 0.203579 0.723429
vt 2.931951 -0.500999
v -19195.656250 1851.862305 -16155.473633
vn -0.956863 0.260346 0.128972
vt 0.259037 -0.500999
v -19210.603516 1129.304199 -15922.715820
vn -0.712615 0.102500 0.694027
vt -0.068049 -0.001499
v -19068.515625 1861.215576 -15919.866211
vn -0.659702 0.203579 0.723429
vt -0.032635 -0.500999
v -19138.390625 1840.507568 -16409.869141
vn -0.821842 0.239073 -0.517127
vt 0.585815 -0.500999
v -18928.134766 1832.269409 -16569.226563
vn -0.316944 0.138404 -0.938291
vt 0.914185 -0.500999
v -18664.039063 1830.916870 -16561.078125
vn 0.362688 -0.015711 -0.931778
vt 1.240963 -0.500999
v -18469.957031 1837.119385 -16388.433594
vn 0.876045 -0.129937 -0.464394
vt 1.568049 -0.500999
v -18431.144531 1848.349243 -16122.570313
vn 0.962566 -0.150881 0.225170
vt 1.903570 -0.500999
v -18629.048828 2499.842773 -15883.456055
vn -0.009924 0.211322 0.977366
vt 2.596430 -1.000500
v -18399.855469 2495.187256 -15957.017578
vn 0.617871 0.068240 0.783313
vt 2.250000 -1.000500
v -18853.318359 2497.332275 -15975.113281
vn -0.617502 0.293191 0.729884
vt 2.931951 -1.000500
v -18969.490234 2488.901123 -16187.722656
vn -0.949331 0.275298 0.151596
vt 0.259037 -1.000500
v -19068.515625 1861.215576 -15919.866211
vn -0.659702 0.203579 0.723429
vt -0.068049 -0.500999
v -18853.318359 2497.332275 -15975.113281
vn -0.617502 0.293191 0.729884
vt -0.028335 -1.000500
v -18919.833984 2478.359131 -16424.433594
vn -0.835552 0.153999 -0.527387
vt 0.585815 -1.000500
v -18728.880859 2470.691895 -16573.476563
vn -0.322292 -0.007932 -0.946607
vt 0.914185 -1.000500
v -18495.583984 2468.973633 -16579.582031
vn 0.364695 -0.139023 -0.920690
vt 1.240963 -1.000500
v -18313.052734 2474.716064 -16418.710938
vn 0.876255 -0.163145 -0.453388
vt 1.568049 -1.000500
v -18269.935547 2485.421631 -16163.752930
vn 0.973118 -0.077093 0.217021
vt 1.903570 -1.000500
v -18571.839844 3171.124023 -16117.893555
vn -0.044096 0.229513 0.972306
vt 2.596430 -1.500000
v -18379.140625 3163.622314 -16176.045898
vn 0.615589 0.144833 0.774644
vt 2.250000 -1.500000
v -18762.128906 3171.688232 -16196.619141
vn -0.658992 0.253520 0.708137
vt 2.931951 -1.500000
v -18860.927734 3165.525879 -16369.832031
vn -0.971457 0.216608 0.096703
vt 0.259037 -1.500000
v -18853.318359 2497.332275 -15975.113281
vn -0.617502 0.293191 0.729884
vt -0.068049 -1.000500
v -18762.128906 3171.688232 -16196.619141
vn -0.658992 0.253520 0.708137
vt -0.022846 -1.500000
v -18818.208984 3154.818115 -16558.048828
vn -0.810391 0.135021 -0.570119
vt 0.585815 -1.500000
v -18658.316406 3143.739014 -16675.353516
vn -0.307301 0.053848 -0.950088
vt 0.914185 -1.500000
v -18461.255859 3138.156250 -16676.107422
vn 0.324973 -0.006347 -0.945702
vt 1.240963 -1.500000
v -18305.386719 3141.569092 -16544.806641
vn 0.856185 -0.025664 -0.516031
vt 1.568049 -1.500000
v -18271.662109 3152.117676 -16343.380859
vn 0.984606 0.034316 0.171385
vt 1.903570 -1.500000
v -18505.466797 3802.391113 -16191.762695
vn -0.007862 0.210189 0.977629
vt 2.596430 -1.999501
v -18365.175781 3792.637451 -16234.349609
vn 0.586399 0.166992 0.792622
vt 2.250000 -1.999501
v -18638.896484 3799.740967 -16240.196289
vn -0.623741 0.207992 0.753450
vt 2.931951 -1.999501
v -18702.662109 3784.164307 -16355.798828
vn -0.978827 0.164448 0.121879
vt 0.259037 -1.999501
v -18762.128906 3171.688232 -16196.619141
vn -0.658992 0.253520 0.708137
vt -0.068049 -1.500000
v -18638.896484 3799.740967 -16240.196289
vn -0.623741 0.207992 0.753450
vt -0.015598 -1.999501
v -18666.539063 3761.913574 -16483.376953
vn -0.798982 0.120920 -0.589072
vt 0.585815 -1.999501
v -18548.613281 3744.982422 -16564.009766
vn -0.267859 0.100205 -0.958233
vt 0.914185 -1.999501
v -18403.810547 3742.397705 -16562.326172
vn 0.357580 0.078785 -0.930553
vt 1.240963 -1.999501
v -18298.910156 3754.989258 -16477.419922
vn 0.883483 0.063865 -0.464089
vt 1.568049 -1.999501
v -18283.580078 3774.647461 -16347.806641
vn 0.962958 0.102379 0.249461
vt 1.903570 -1.999501
v -18552.115234 4461.490723 -16394.125000
vn -0.213860 0.524079 0.824382
vt 2.596430 -2.499001
v -18445.099609 4433.505371 -16393.871094
vn 0.373947 0.389681 0.841613
vt 2.250000 -2.499001
v -18644.052734 4441.765137 -16441.142578
vn -0.748370 0.467100 0.470914
vt 2.931951 -2.499001
v -18678.486328 4382.482422 -16511.080078
vn -0.976371 0.179214 -0.120754
vt 0.259037 -2.499001
v -18638.896484 3799.740967 -16240.196289
vn -0.623741 0.207992 0.753450
vt -0.068049 -1.999501
v -18644.052734 4441.765137 -16441.142578
vn -0.748370 0.467100 0.470914
vt -0.005580 -2.499001
v -18639.771484 4310.394043 -16569.949219
vn -0.702286 -0.149397 -0.696043
vt 0.585815 -2.499001
v -18545.333984 4259.775879 -16591.656250
vn -0.128601 -0.308111 -0.942618
vt 0.914185 -2.499001
v -18438.812500 4255.962402 -16568.042969
vn 0.469232 -0.292988 -0.833054
vt 1.240963 -2.499001
v -18370.523438 4300.219238 -16509.068359
vn 0.951815 -0.126333 -0.279441
vt 1.568049 -2.499001
v -18373.181641 4370.459961 -16440.132813
vn 0.866815 0.145572 0.476907
vt 1.903570 -2.499001
v -18335.738281 4832.447754 -16746.382813
vn -0.046925 0.752437 0.656991
vt 2.596430 -2.998502
v -18273.703125 4844.463867 -16782.226563
vn 0.604295 0.620894 0.499317
vt 2.250000 -2.998502
v -18395.941406 4796.784180 -16754.716797
vn -0.659659 0.625094 0.417262
vt 2.931951 -2.998502
v -18429.570313 4753.082520 -16803.101563
vn -0.957148 0.282871 0.062056
vt 0.259037 -2.998502
v -18644.052734 4441.765137 -16441.142578
vn -0.748370 0.467100 0.470914
vt -0.068049 -2.499001
v -18395.941406 4796.784180 -16754.716797
vn -0.659659 0.625094 0.417262
vt 0.009167 -2.998502
v -18420.726563 4720.689941 -16869.093750
vn -0.882256 -0.246764 -0.400914
vt 0.585815 -2.998502
v -18371.521484 4716.024902 -16920.548828
vn -0.195508 -0.664859 -0.720930
vt 0.914185 -2.998502
v -18306.587891 4742.361816 -16933.904297
vn 0.497081 -0.562503 -0.660682
vt 1.240963 -2.998502
v -18254.128906 4787.964844 -16903.468750
vn 0.901433 -0.181862 -0.392868
vt 1.568049 -2.998502
v -18241.386719 4827.395020 -16844.339844
vn 0.957514 0.283189 0.054504
vt 1.903570 -2.998502
v -18477.160156 5032.776855 -17094.560547
vn -0.142172 0.668089 0.730373
vt 2.596430 -3.498002
v -18444.369141 5051.412598 -17123.294922
vn 0.451085 0.807104 0.380928
vt 2.250000 -3.498002
v -18512.818359 5001.510254 -17095.554688
vn -0.668202 0.255195 0.698843
vt 2.931951 -3.498002
v -18534.654297 4972.243652 -17125.810547
vn -0.912021 -0.263967 0.313910
vt 0.259037 -3.498002
v -18395.941406 4796.784180 -16754.716797
vn -0.659659 0.625094 0.417262
vt -0.068049 -2.998502
v -18512.818359 5001.510254 -17095.554688
vn -0.668202 0.255195 0.698843
vt 0.033030 -3.498002
v -18532.451172 4958.670898 -17171.166016
vn -0.719532 -0.639831 -0.269981
vt 0.585815 -3.498002
v -18507.244141 4967.142090 -17210.408203
vn -0.237676 -0.625291 -0.743318
vt 0.914185 -3.498002
v -18470.830078 4993.693848 -17225.175781
vn 0.296209 -0.300904 -0.906486
vt 1.240963 -3.498002
v -18440.242188 5025.902832 -17208.554688
vn 0.697089 0.157641 -0.699440
vt 1.568049 -3.498002
v -18429.791016 5048.697266 -17168.318359
vn 0.786131 0.585066 -0.199240
vt 1.903570 -3.498002
v -18796.701172 5366.892090 -17281.126953
vn -0.634782 0.731403 -0.249202
vt 2.596430 -3.997502
v -18796.701172 5366.892090 -17281.126953
vn -0.634782 0.731403 -0.249202
vt 2.931951 -3.997502
v -18796.701172 5366.892090 -17281.126953
vn -0.634782 0.731403 -0.249202
vt 0.259037 -3.997502
v -18512.818359 5001.510254 -17095.554688
vn -0.668202 0.255195 0.698843
vt -0.068049 -3.498002
v -18796.701172 5366.892090 -17281.126953
vn -0.634782 0.731403 -0.249202
vt 0.585815 -3.997502
v -18796.701172 5366.892090 -17281.126953
vn -0.634782 0.731403 -0.249202
vt 0.914185 -3.997502
v -18796.701172 5366.892090 -17281.126953
vn -0.634782 0.731403 -0.249202
vt 1.240963 -3.997502
v -18796.701172 5366.892090 -17281.126953
vn -0.634782 0.731403 -0.249202
vt 1.568049 -3.997502
v -18796.701172 5366.892090 -17281.126953
vn -0.634782 0.731403 -0.249202
vt 1.903570 -3.997502
v -18796.701172 5366.892090 -17281.126953
vn -0.634782 0.731403 -0.249202
vt 2.250000 -3.997502
f 110/110/110 100/100/100 111/111/111
f 112/112/112 103/103/103 100/100/100
f 113/113/113 104/104/104 103/103/103
f 114/114/114 105/105/105 104/104/104
f 115/115/115 106/106/106 105/105/105
f 116/116/116 107/107/107 106/106/106
f 100/100/100 101/101/101 102/102/102
f 101/101/101 100/100/100 89/89/89
f 103/103/103 89/89/89 100/100/100
f 89/89/89 103/103/103 92/92/92
f 104/104/104 92/92/92 103/103/103
f 92/92/92 104/104/104 93/93/93
f 105/105/105 93/93/93 104/104/104
f 93/93/93 105/105/105 94/94/94
f 106/106/106 94/94/94 105/105/105
f 94/94/94 106/106/106 95/95/95
f 107/107/107 95/95/95 106/106/106
f 95/95/95 107/107/107 96/96/96
f 98/98/98 96/96/96 107/107/107
f 96/96/96 98/98/98 87/87/87
f 97/97/97 87/87/87 98/98/98
f 87/87/87 97/97/97 86/86/86
f 99/99/99 86/86/86 97/97/97
f 86/86/86 99/99/99 88/88/88
f 108/108/108 97/97/97 98/98/98
f 109/109/109 99/99/99 97/97/97
f 117/117/117 98/98/98 107/107/107
f 75/75/75 88/88/88 77/77/77
f 88/88/88 75/75/75 86/86/86
f 76/76/76 86/86/86 75/75/75
f 86/86/86 76/76/76 87/87/87
f 85/85/85 87/87/87 76/76/76
f 87/87/87 85/85/85 96/96/96
f 84/84/84 96/96/96 85/85/85
f 96/96/96 84/84/84 95/95/95
f 83/83/83 95/95/95 84/84/84
f 95/95/95 83/83/83 94/94/94
f 82/82/82 94/94/94 83/83/83
f 94/94/94 82/82/82 93/93/93
f 81/81/81 93/93/93 82/82/82
f 93/93/93 81/81/81 92/92/92
f 78/78/78 92/92/92 81/81/81
f 92/92/92 78/78/78 89/89/89
f 90/90/90 89/89/89 78/78/78
f 89/89/89 90/90/90 91/91/91
f 79/79/79 78/78/78 67/67/67
f 78/78/78 79/79/79 80/80/80
f 67/67/67 56/56/56 68/68/68
f 68/68/68 69/69/69 67/67/67
f 57/57/57 56/56/56 45/45/45
f 56/56/56 57/57/57 58/58/58
f 45/45/45 34/34/34 46/46/46
f 46/46/46 47/47/47 45/45/45
f 78/78/78 81/81/81 67/67/67
f 70/70/70 67/67/67 81/81/81
f 67/67/67 70/70/70 56/56/56
f 59/59/59 56/56/56 70/70/70
f 56/56/56 59/59/59 45/45/45
f 48/48/48 45/45/45 59/59/59
f 45/45/45 48/48/48 34/34/34
f 37/37/37 34/34/34 48/48/48
f 34/34/34 37/37/37 24/24/24
f 26/26/26 24/24/24 37/37/37
f 24/24/24 26/26/26 7/7/7
f 11/11/11 7/7/7 26/26/26
f 7/7/7 11/11/11 8/8/8
f 12/12/12 8/8/8 11/11/11
f 8/8/8 9/9/9 7/7/7
f 10/10/10 7/7/7 9/9/9
f 7/7/7 10/10/10 24/24/24
f 25/25/25 24/24/24 10/10/10
f 35/35/35 34/34/34 24/24/24
f 34/34/34 35/35/35 36/36/36
f 81/81/81 82/82/82 70/70/70
f 71/71/71 70/70/70 82/82/82
f 70/70/70 71/71/71 59/59/59
f 60/60/60 59/59/59 71/71/71
f 59/59/59 60/60/60 48/48/48
f 49/49/49 48/48/48 60/60/60
f 48/48/48 49/49/49 37/37/37
f 38/38/38 37/37/37 49/49/49
f 37/37/37 38/38/38 26/26/26
f 27/27/27 26/26/26 38/38/38
f 26/26/26 27/27/27 11/11/11
f 13/13/13 11/11/11 27/27/27
f 11/11/11 13/13/13 12/12/12
f 14/14/14 12/12/12 13/13/13
f 82/82/82 83/83/83 71/71/71
f 72/72/72 71/71/71 83/83/83
f 71/71/71 72/72/72 60/60/60
f 61/61/61 60/60/60 72/72/72
f 60/60/60 61/61/61 49/49/49
f 50/50/50 49/49/49 61/61/61
f 49/49/49 50/50/50 38/38/38
f 39/39/39 38/38/38 50/50/50
f 38/38/38 39/39/39 27/27/27
f 28/28/28 27/27/27 39/39/39
f 27/27/27 28/28/28 13/13/13
f 15/15/15 13/13/13 28/28/28
f 13/13/13 15/15/15 14/14/14
f 16/16/16 14/14/14 15/15/15
f 83/83/83 84/84/84 72/72/72
f 73/73/73 72/72/72 84/84/84
f 72/72/72 73/73/73 61/61/61
f 62/62/62 61/61/61 73/73/73
f 61/61/61 62/62/62 50/50/50
f 51/51/51 50/50/50 62/62/62
f 50/50/50 51/51/51 39/39/39
f 40/40/40 39/39/39 51/51/51
f 39/39/39 40/40/40 28/28/28
f 29/29/29 28/28/28 40/40/40
f 28/28/28 29/29/29 15/15/15
f 17/17/17 15/15/15 29/29/29
f 15/15/15 17/17/17 16/16/16
f 18/18/18 16/16/16 17/17/17
f 84/84/84 85/85/85 73/73/73
f 74/74/74 73/73/73 85/85/85
f 73/73/73 74/74/74 62/62/62
f 63/63/63 62/62/62 74/74/74
f 62/62/62 63/63/63 51/51/51
f 52/52/52 51/51/51 63/63/63
f 51/51/51 52/52/52 40/40/40
f 41/41/41 40/40/40 52/52/52
f 40/40/40 41/41/41 29/29/29
f 30/30/30 29/29/29 41/41/41
f 29/29/29 30/30/30 17/17/17
f 19/19/19 17/17/17 30/30/30
f 17/17/17 19/19/19 18/18/18
f 20/20/20 18/18/18 19/19/19
f 85/85/85 76/76/76 74/74/74
f 65/65/65 74/74/74 76/76/76
f 74/74/74 65/65/65 63/63/63
f 54/54/54 63/63/63 65/65/65
f 63/63/63 54/54/54 52/52/52
f 43/43/43 52/52/52 54/54/54
f 52/52/52 43/43/43 41/41/41
f 32/32/32 41/41/41 43/43/43
f 41/41/41 32/32/32 30/30/30
f 22/22/22 30/30/30 32/32/32
f 30/30/30 22/22/22 19/19/19
f 4/4/4 19/19/19 22/22/22
f 19/19/19 4/4/4 20/20/20
f 3/3/3 20/20/20 4/4/4
f 76/76/76 75/75/75 65/65/65
f 64/64/64 65/65/65 75/75/75
f 65/65/65 64/64/64 54/54/54
f 53/53/53 54/54/54 64/64/64
f 54/54/54 53/53/53 43/43/43
f 42/42/42 43/43/43 53/53/53
f 43/43/43 42/42/42 32/32/32
f 31/31/31 32/32/32 42/42/42
f 32/32/32 31/31/31 22/22/22
f 21/21/21 22/22/22 31/31/31
f 22/22/22 21/21/21 4/4/4
f 1/1/1 4/4/4 21/21/21
f 4/4/4 1/1/1 3/3/3
f 2/2/2 3/3/3 1/1/1
f 75/75/75 77/77/77 64/64/64
f 66/66/66 64/64/64 77/77/77
f 64/64/64 66/66/66 53/53/53
f 55/55/55 53/53/53 66/66/66
f 53/53/53 55/55/55 42/42/42
f 44/44/44 42/42/42 55/55/55
f 42/42/42 44/44/44 31/31/31
f 33/33/33 31/31/31 44/44/44
f 31/31/31 33/33/33 21/21/21
f 23/23/23 21/21/21 33/33/33
f 21/21/21 23/23/23 1/1/1
f 5/5/5 1/1/1 23/23/23
f 1/1/1 5/5/5 2/2/2
f 6/6/6 2/2/2 5/5/5
