mtllib MIRKWOOD_PLANE32.mtl
g Plane32
usemtl 13_-_Default
v -21110.296875 1094.053467 -8330.689453
vn -0.373499 0.911871 -0.170265
vt 0.000000 1.000000
v -21742.386719 1004.728455 -7463.950684
vn -0.655087 0.723179 0.218802
vt 0.500000 1.000000
v -21022.160156 1345.315186 -6859.774902
vn -0.246194 0.918008 0.310885
vt 0.500000 0.500000
v -20396.476563 1181.604126 -7741.981445
vn 0.199572 0.975774 -0.089649
vt 0.000000 0.500000
v -22374.476563 915.403564 -6597.211914
vn -0.334429 0.875240 0.349446
vt 1.000000 1.000000
v -21660.656250 1002.954224 -6008.503906
vn -0.574726 0.626714 0.526232
vt 1.000000 0.500000
v -20314.746094 1179.829834 -6286.534668
vn 0.117278 0.881596 0.457203
vt 0.500000 0.000000
v -19682.656250 1269.154785 -7153.273438
vn -0.334429 0.875240 0.349446
vt 0.000000 0.000000
v -20946.835938 1090.504883 -5419.795898
vn -0.263563 0.698155 0.665668
vt 1.000000 0.000000
f 5/5/5 6/6/6 2/2/2
f 3/3/3 2/2/2 6/6/6
f 2/2/2 3/3/3 1/1/1
f 4/4/4 1/1/1 3/3/3
f 6/6/6 9/9/9 3/3/3
f 7/7/7 3/3/3 9/9/9
f 3/3/3 7/7/7 4/4/4
f 8/8/8 4/4/4 7/7/7
