mtllib MIRKWOOD_PLANE18.mtl
g Plane18
usemtl 13_-_Default
v -23618.361328 874.137268 -5908.383789
vn -0.343365 -0.933203 -0.105987
vt 0.000000 1.000000
v -24395.322266 947.550476 -5802.169922
vn -0.132648 -0.968706 -0.209794
vt 0.500000 1.000000
v -24546.667969 1092.167358 -6615.337402
vn -0.155691 -0.987798 0.003817
vt 0.500000 0.500000
v -23736.396484 876.921265 -6722.714355
vn -0.386508 -0.914774 0.117477
vt 0.000000 0.500000
v -25172.283203 1020.963623 -5695.956055
vn -0.180604 -0.983382 0.018486
vt 1.000000 1.000000
v -25290.318359 1023.747681 -6510.286621
vn 0.078335 -0.991736 -0.101608
vt 1.000000 0.500000
v -24631.392578 953.118469 -7430.831055
vn -0.223064 -0.945805 0.236000
vt 0.500000 0.000000
v -23854.431641 879.705322 -7537.044922
vn -0.180604 -0.983382 0.018486
vt 0.000000 0.000000
v -25408.353516 1026.531738 -7324.617188
vn 0.006041 -0.987343 0.158482
vt 1.000000 0.000000
f 5/5/5 6/6/6 2/2/2
f 3/3/3 2/2/2 6/6/6
f 2/2/2 3/3/3 1/1/1
f 4/4/4 1/1/1 3/3/3
f 6/6/6 9/9/9 3/3/3
f 7/7/7 3/3/3 9/9/9
f 3/3/3 7/7/7 4/4/4
f 8/8/8 4/4/4 7/7/7
