mtllib MIRKWOOD_PLANE45.mtl
g Plane45
usemtl 13_-_Default
v -20092.750000 1124.531250 -9636.793945
vn 0.025480 0.996013 -0.085486
vt 0.000000 1.000000
v -20470.320313 1114.732178 -9360.243164
vn 0.017476 0.996365 -0.083380
vt 0.500000 1.000000
v -20142.201172 1143.098999 -8867.962891
vn 0.023736 0.996702 -0.077595
vt 0.500000 0.500000
v -19735.152344 1146.695679 -9177.535156
vn 0.033042 0.996228 -0.080234
vt 0.000000 0.500000
v -20847.890625 1104.933105 -9083.691406
vn 0.024982 0.996649 -0.077886
vt 1.000000 1.000000
v -20490.292969 1127.097534 -8624.433594
vn 0.015296 0.997056 -0.075131
vt 1.000000 0.500000
v -19755.125000 1159.061035 -8441.725586
vn 0.032499 0.996824 -0.072698
vt 0.500000 0.000000
v -19377.554688 1168.860107 -8718.277344
vn 0.024982 0.996649 -0.077886
vt 0.000000 0.000000
v -20132.695313 1149.261963 -8165.174805
vn 0.024607 0.997286 -0.069386
vt 1.000000 0.000000
f 5/5/5 6/6/6 2/2/2
f 3/3/3 2/2/2 6/6/6
f 2/2/2 3/3/3 1/1/1
f 4/4/4 1/1/1 3/3/3
f 6/6/6 9/9/9 3/3/3
f 7/7/7 3/3/3 9/9/9
f 3/3/3 7/7/7 4/4/4
f 8/8/8 4/4/4 7/7/7
