mtllib MIRKWOOD_SPIDERWEB_COVERS12.mtl
g derWEB_Covers12
usemtl treebark2
v -20356.144531 592.372681 -8652.416016
vn 0.845262 0.254967 0.469599
vt 0.565863 1.000000
v -20352.804688 705.672363 -8711.372070
vn 0.699832 0.135849 0.701270
vt 0.879763 0.883350
v -20380.458984 820.061890 -8672.577148
vn 0.855724 -0.187063 0.482436
vt 1.000000 0.576070
v -20419.398438 858.310974 -8521.954102
vn 0.878450 -0.424407 0.219555
vt 0.771778 0.216683
v -20456.035156 821.330566 -8368.290039
vn 0.962311 -0.003933 0.271922
vt 0.403886 0.000000
v -20476.783203 710.031433 -8320.369141
vn 0.952023 -0.047292 0.302349
vt 0.105109 0.120829
v -20466.539063 597.642578 -8370.202148
vn 0.957738 0.273002 0.090596
vt 0.000000 0.432290
v -20410.193359 557.392883 -8509.790039
vn 0.930692 0.043094 0.363257
vt 0.213098 0.787498
f 3/3/3 1/1/1 2/2/2
f 1/1/1 3/3/3 5/5/5
f 4/4/4 5/5/5 3/3/3
f 7/7/7 5/5/5 6/6/6
f 5/5/5 7/7/7 1/1/1
f 8/8/8 1/1/1 7/7/7
