mtllib MIRKWOOD_SPIDERWEB_COVERS01.mtl
g derWEB_Covers01
usemtl treebark2
v -14500.881836 47.191860 -6845.385254
vn 0.893789 0.293549 -0.339071
vt 0.379402 1.000000
v -14537.515625 73.130379 -6919.931641
vn 0.906296 0.177067 -0.383764
vt 0.763300 0.900667
v -14573.173828 169.440887 -6959.704590
vn 0.937624 0.239853 -0.251658
vt 1.000000 0.542063
v -14595.963867 273.071442 -6947.205078
vn 0.966946 0.226719 -0.116683
vt 0.987193 0.150224
v -14593.994141 307.012085 -6864.935059
vn 0.933588 0.317306 -0.166525
vt 0.620597 0.000000
v -14568.746094 279.487122 -6777.776855
vn 0.902352 0.410351 -0.131804
vt 0.194196 0.087574
v -14521.702148 184.763046 -6750.615234
vn 0.892676 0.371893 -0.254609
vt 0.000000 0.457937
v -14487.526367 86.208412 -6775.726074
vn 0.840469 0.387860 -0.378387
vt 0.055804 0.849333
f 2/2/2 3/3/3 1/1/1
f 7/7/7 1/1/1 3/3/3
f 1/1/1 7/7/7 8/8/8
f 5/5/5 3/3/3 4/4/4
f 3/3/3 5/5/5 7/7/7
f 6/6/6 7/7/7 5/5/5
