mtllib MIRKWOOD_PLANE51.mtl
g Plane51
usemtl 13_-_Default
v -19431.123047 1020.191345 -16697.876953
vn -0.149843 0.948813 -0.278029
vt 0.000000 1.000000
v -20319.843750 862.729492 -16295.122070
vn -0.454303 0.866188 -0.208152
vt 0.500000 1.000000
v -19780.968750 1309.147461 -15132.004883
vn -0.191146 0.979592 0.062144
vt 0.500000 0.500000
v -18879.699219 1098.521729 -15559.908203
vn 0.157982 0.987209 0.021454
vt 0.000000 0.500000
v -21208.566406 705.267700 -15892.367188
vn -0.236379 0.970400 0.049491
vt 1.000000 1.000000
v -20657.144531 783.598145 -14754.398438
vn -0.540270 0.839078 0.063686
vt 1.000000 0.500000
v -19217.000000 1019.390381 -14019.184570
vn 0.032196 0.943460 0.329918
vt 0.500000 0.000000
v -18328.277344 1176.852173 -14421.939453
vn -0.236379 0.970400 0.049491
vt 0.000000 0.000000
v -20105.720703 861.928528 -13616.429688
vn -0.300445 0.887323 0.349843
vt 1.000000 0.000000
f 5/5/5 6/6/6 2/2/2
f 3/3/3 2/2/2 6/6/6
f 2/2/2 3/3/3 1/1/1
f 4/4/4 1/1/1 3/3/3
f 6/6/6 9/9/9 3/3/3
f 7/7/7 3/3/3 9/9/9
f 3/3/3 7/7/7 4/4/4
f 8/8/8 4/4/4 7/7/7
