mtllib MIRK_ROCK.mtl
g Box34
usemtl Material_#3609
v 110.547081 6.045576 -213.123077
vn -0.000199 -1.000000 -0.000268
vt 0.000000 1.000000
v 195.831451 6.045567 -2.075059
vn 0.000000 -1.000000 0.000000
vt 0.500000 1.000000
v 10.576340 6.045567 -2.075043
vn -0.000009 -1.000000 -0.000134
vt 0.500000 0.500000
v 10.576316 6.143681 -278.669006
vn 0.040350 -0.797899 -0.601439
vt 0.000000 0.500000
v 149.517685 6.045556 240.352219
vn 0.000000 -1.000000 0.000000
vt 1.000000 1.000000
v 10.576368 6.045552 321.161316
vn 0.000000 -1.000000 0.000000
vt 1.000000 0.500000
v -122.521080 6.045557 199.912582
vn 0.000000 -1.000000 0.000000
vt 1.000000 0.000000
v -174.678772 6.045567 -2.075027
vn 0.000000 -1.000000 0.000000
vt 0.500000 0.000000
v -128.365005 6.045577 -243.945587
vn 0.000164 -1.000000 -0.000268
vt 0.000000 0.000000
v 57.650879 481.756744 -82.051125
vn 0.346387 0.937777 0.024280
vt 0.000000 1.000000
v 10.576331 514.199341 -104.361656
vn -0.014352 0.998407 -0.054559
vt 0.500000 1.000000
v 6.971885 468.543121 -2.295851
vn -0.013945 0.756900 0.653382
vt 0.500000 0.500000
v 85.163597 440.975830 -2.075031
vn 0.217062 0.766251 0.604768
vt 0.000000 0.500000
v -33.156139 481.756744 -87.890060
vn -0.377982 0.924244 -0.053885
vt 1.000000 1.000000
v -66.585045 440.975861 -3.299395
vn -0.308255 0.834533 0.456655
vt 1.000000 0.500000
v -89.119827 383.646027 74.919510
vn -0.184136 0.772868 0.607263
vt 1.000000 0.000000
v -19.542725 379.143188 98.702950
vn -0.009986 0.727856 0.685658
vt 0.500000 0.000000
v 78.443672 383.646027 77.689697
vn 0.122600 0.700061 0.703480
vt 0.000000 0.000000
v 110.547081 6.045576 -213.123077
vn 0.485909 -0.096015 -0.868719
vt 0.000000 1.000000
v 10.576316 6.143681 -278.669006
vn 0.040350 -0.797899 -0.601439
vt 0.500000 1.000000
v 10.576311 111.516579 -324.154236
vn 0.074437 -0.105894 -0.991587
vt 0.500000 0.500000
v 121.657021 97.456139 -218.081131
vn 0.533455 -0.211826 -0.818874
vt 0.000000 0.500000
v -128.365005 6.045577 -243.945587
vn -0.494391 0.021793 -0.868966
vt 1.000000 1.000000
v -107.383118 167.149704 -238.139572
vn -0.565200 0.184408 -0.804079
vt 1.000000 0.000000
v 133.928177 166.017654 -230.095108
vn 0.577687 -0.106297 -0.809307
vt 0.000000 0.000000
v 10.576312 194.742615 -320.170685
vn 0.010032 0.193471 -0.981055
vt 0.500000 0.000000
v -122.521080 6.045557 199.912582
vn -0.538393 0.067385 0.839995
vt 1.000000 1.000000
v -119.639427 97.456123 206.249023
vn -0.533796 -0.063249 0.843245
vt 1.000000 0.500000
v -165.038406 97.456131 -2.075024
vn -0.985493 0.147819 0.083385
vt 0.500000 0.500000
v -174.678772 6.045567 -2.075027
vn -0.977724 0.193533 0.081251
vt 0.500000 1.000000
v -131.448395 164.560013 199.539169
vn -0.556551 0.050041 0.829305
vt 1.000000 0.000000
v -153.463181 164.561874 -2.444425
vn -0.991654 0.093002 -0.089295
vt 0.500000 0.000000
v -122.521080 6.045557 199.912582
vn -0.538393 0.067385 0.839995
vt 0.000000 1.000000
v 10.576368 6.045552 321.161316
vn -0.048309 0.120598 0.991525
vt 0.500000 1.000000
v 10.576366 97.456116 304.340637
vn -0.028049 0.132813 0.990744
vt 0.500000 0.500000
v -119.639427 97.456123 206.249023
vn -0.533796 -0.063249 0.843245
vt 0.000000 0.500000
v 149.517685 6.045556 240.352219
vn 0.518541 0.190081 0.833658
vt 1.000000 1.000000
v 142.287415 97.456123 227.736710
vn 0.533436 0.215390 0.817957
vt 1.000000 0.500000
v 136.621948 164.560013 203.615967
vn 0.524593 0.237294 0.817615
vt 1.000000 0.000000
v 3.696405 164.561859 279.260315
vn -0.004001 0.056015 0.998422
vt 0.500000 0.000000
v -131.448395 164.560013 199.539169
vn -0.556551 0.050041 0.829305
vt 0.000000 0.000000
v 149.517685 6.045556 240.352219
vn 0.518541 0.190081 0.833658
vt 0.000000 1.000000
v 195.831451 6.045567 -2.075059
vn 0.906678 0.357697 -0.223582
vt 0.500000 1.000000
v 176.617477 97.456131 -2.075054
vn 0.988205 0.095146 -0.119989
vt 0.500000 0.500000
v 142.287415 97.456123 227.736710
vn 0.533436 0.215390 0.817957
vt 0.000000 0.500000
v 110.547081 6.045576 -213.123077
vn 0.485909 -0.096015 -0.868719
vt 1.000000 1.000000
v 121.657021 97.456139 -218.081131
vn 0.533455 -0.211826 -0.818874
vt 1.000000 0.500000
v 133.928177 166.017654 -230.095108
vn 0.577687 -0.106297 -0.809307
vt 1.000000 0.000000
v 172.850174 164.561874 -2.075051
vn 0.954673 -0.228610 0.190622
vt 0.500000 0.000000
v 136.621948 164.560013 203.615967
vn 0.524593 0.237294 0.817615
vt 0.000000 0.000000
v 141.450821 243.318878 -200.193359
vn 0.450471 0.235576 -0.861150
vt 1.000000 1.000000
v 115.668884 383.397430 -154.992249
vn 0.399672 0.491874 -0.773513
vt 1.000000 0.000000
v 197.410187 341.431030 -2.075045
vn 0.808395 0.587118 -0.042302
vt 0.500000 0.000000
v 204.904251 236.539383 -2.075050
vn 0.981016 -0.127728 0.145919
vt 0.500000 1.000000
v 115.668884 383.397430 -154.992249
vn 0.399672 0.491874 -0.773513
vt 0.000000 1.000000
v 16.532932 414.779236 -232.893661
vn 0.130781 0.369983 -0.919787
vt 0.500000 1.000000
v 12.631386 475.590454 -167.416885
vn 0.054028 0.700771 -0.711337
vt 0.500000 0.500000
v 84.875229 446.866333 -121.746483
vn 0.418791 0.744682 -0.519676
vt 0.000000 0.500000
v -51.957870 383.820679 -244.139420
vn -0.382505 0.391144 -0.837076
vt 1.000000 1.000000
v -46.811222 446.866333 -168.192886
vn -0.404877 0.739772 -0.537413
vt 1.000000 0.500000
v -33.156139 481.756744 -87.890060
vn -0.377982 0.924244 -0.053885
vt 1.000000 0.000000
v 10.576331 514.199341 -104.361656
vn -0.014352 0.998407 -0.054559
vt 0.500000 0.000000
v 57.650879 481.756744 -82.051125
vn 0.346387 0.937777 0.024280
vt 0.000000 0.000000
v -51.957870 383.820679 -244.139420
vn -0.382505 0.391144 -0.837076
vt 0.000000 1.000000
v -137.481522 341.431030 -5.285927
vn -0.822373 0.440846 -0.359663
vt 0.500000 1.000000
v -112.483299 393.702667 -4.101157
vn -0.610715 0.791851 -0.000516
vt 0.500000 0.500000
v -46.811222 446.866333 -168.192886
vn -0.404877 0.739772 -0.537413
vt 0.000000 0.500000
v -149.015549 308.446655 130.198059
vn -0.644546 0.526998 0.553926
vt 1.000000 1.000000
v -130.280823 347.453522 110.326668
vn -0.353981 0.747828 0.561650
vt 1.000000 0.500000
v -66.585045 440.975861 -3.299395
vn -0.308255 0.834533 0.456655
vt 0.500000 0.000000
v -33.156139 481.756744 -87.890060
vn -0.377982 0.924244 -0.053885
vt 0.000000 0.000000
v -149.015549 308.446655 130.198059
vn -0.644546 0.526998 0.553926
vt 0.000000 1.000000
v -32.118507 298.005646 280.464966
vn 0.028025 0.578577 0.815146
vt 0.500000 1.000000
v -30.745440 333.252258 205.224594
vn -0.023046 0.727840 0.685360
vt 0.500000 0.500000
v -130.280823 347.453522 110.326668
vn -0.353981 0.747828 0.561650
vt 0.000000 0.500000
v 133.420105 308.446655 134.653244
vn 0.376269 0.479443 0.792815
vt 1.000000 1.000000
v 116.057587 347.453522 114.413330
vn 0.220388 0.633083 0.742048
vt 1.000000 0.500000
v 78.443672 383.646027 77.689697
vn 0.122600 0.700061 0.703480
vt 1.000000 0.000000
v -89.119827 383.646027 74.919510
vn -0.184136 0.772868 0.607263
vt 0.000000 0.000000
v 133.420105 308.446655 134.653244
vn 0.376269 0.479443 0.792815
vt 0.000000 1.000000
v 197.410187 341.431030 -2.075045
vn 0.808395 0.587118 -0.042302
vt 0.500000 1.000000
v 150.693985 393.702637 -2.075039
vn 0.437193 0.835079 0.333924
vt 0.500000 0.500000
v 116.057587 347.453522 114.413330
vn 0.220388 0.633083 0.742048
vt 0.000000 0.500000
v 115.668884 383.397430 -154.992249
vn 0.399672 0.491874 -0.773513
vt 1.000000 1.000000
v 84.875229 446.866333 -121.746483
vn 0.418791 0.744682 -0.519676
vt 1.000000 0.500000
v 57.650879 481.756744 -82.051125
vn 0.346387 0.937777 0.024280
vt 1.000000 0.000000
v 85.163597 440.975830 -2.075031
vn 0.217062 0.766251 0.604768
vt 0.500000 0.000000
v 10.576312 194.742615 -320.170685
vn 0.010032 0.193471 -0.981055
vt 0.500000 1.000000
v -107.383118 167.149704 -238.139572
vn -0.565200 0.184408 -0.804079
vt 1.000000 1.000000
v -82.340660 251.790558 -233.615189
vn -0.388290 0.247170 -0.887771
vt 1.000000 0.000000
v 11.332204 292.786987 -264.063782
vn 0.073633 0.213990 -0.974057
vt 0.500000 0.000000
v 141.450821 243.318878 -200.193359
vn 0.450471 0.235576 -0.861150
vt 0.000000 0.000000
v 133.928177 166.017654 -230.095108
vn 0.577687 -0.106297 -0.809307
vt 0.000000 1.000000
v -107.383118 167.149704 -238.139572
vn -0.565200 0.184408 -0.804079
vt 0.000000 1.000000
v -153.463181 164.561874 -2.444425
vn -0.991654 0.093002 -0.089295
vt 0.500000 1.000000
v -149.784531 236.539383 -3.851615
vn -0.899119 0.195571 -0.391584
vt 0.500000 0.000000
v -82.340660 251.790558 -233.615189
vn -0.388290 0.247170 -0.887771
vt -0.004362 0.043066
v -131.448395 164.560013 199.539169
vn -0.556551 0.050041 0.829305
vt 1.000000 1.000000
v -149.021179 236.291702 163.860229
vn -0.713287 -0.045840 0.699371
vt 1.000000 0.000000
v 3.696405 164.561859 279.260315
vn -0.004001 0.056015 0.998422
vt 0.500000 1.000000
v 136.621948 164.560013 203.615967
vn 0.524593 0.237294 0.817615
vt 1.000000 1.000000
v 140.956131 236.291702 167.262451
vn 0.469361 0.140132 0.871816
vt 1.000000 0.000000
v -20.447556 234.874039 325.652008
vn -0.111357 0.070225 0.991296
vt 0.500000 0.000000
v -149.021179 236.291702 163.860229
vn -0.713287 -0.045840 0.699371
vt 0.003364 0.111133
v -131.448395 164.560013 199.539169
vn -0.556551 0.050041 0.829305
vt 0.000000 1.000000
v 133.928177 166.017654 -230.095108
vn 0.577687 -0.106297 -0.809307
vt 1.000000 1.000000
v 141.450821 243.318878 -200.193359
vn 0.450471 0.235576 -0.861150
vt 1.000000 0.000000
v 204.904251 236.539383 -2.075050
vn 0.981016 -0.127728 0.145919
vt 0.500000 0.000000
v 172.850174 164.561874 -2.075051
vn 0.954673 -0.228610 0.190622
vt 0.500000 1.000000
v 140.956131 236.291702 167.262451
vn 0.469361 0.140132 0.871816
vt 0.002966 0.119630
v 136.621948 164.560013 203.615967
vn 0.524593 0.237294 0.817615
vt 0.000000 1.000000
v 11.332204 292.786987 -264.063782
vn 0.073633 0.213990 -0.974057
vt 0.500000 1.000000
v -82.340660 251.790558 -233.615189
vn -0.388290 0.247170 -0.887771
vt 1.000000 1.000000
v -51.957870 383.820679 -244.139420
vn -0.382505 0.391144 -0.837076
vt 1.000000 0.000000
v 16.532932 414.779236 -232.893661
vn 0.130781 0.369983 -0.919787
vt 0.500000 0.000000
v 115.668884 383.397430 -154.992249
vn 0.399672 0.491874 -0.773513
vt 0.000000 0.000000
v 141.450821 243.318878 -200.193359
vn 0.450471 0.235576 -0.861150
vt 0.000000 1.000000
v 140.956131 236.291702 167.262451
vn 0.469361 0.140132 0.871816
vt 1.000000 1.000000
v 133.420105 308.446655 134.653244
vn 0.376269 0.479443 0.792815
vt 1.000000 0.000000
v -32.118507 298.005646 280.464966
vn 0.028025 0.578577 0.815146
vt 0.500000 0.000000
v -20.447556 234.874039 325.652008
vn -0.111357 0.070225 0.991296
vt 0.500000 1.000000
v -174.678772 6.045567 -2.075027
vn -0.977724 0.193533 0.081251
vt 1.349839 0.843023
v -165.038406 97.456131 -2.075024
vn -0.985493 0.147819 0.083385
vt 1.340372 0.365822
v -153.463181 164.561874 -2.444425
vn -0.991654 0.093002 -0.089295
vt 1.348764 -0.118049
v 133.420105 308.446655 134.653244
vn 0.376269 0.479443 0.792815
vt -0.010622 -0.014187
v 140.956131 236.291702 167.262451
vn 0.469361 0.140132 0.871816
vt 0.000000 1.000000
v -149.784531 236.539383 -3.851615
vn -0.899119 0.195571 -0.391584
vt 0.500000 1.000000
v -149.021179 236.291702 163.860229
vn -0.713287 -0.045840 0.699371
vt 1.000000 1.000000
v -149.015549 308.446655 130.198059
vn -0.644546 0.526998 0.553926
vt 1.000000 0.000000
v -137.481522 341.431030 -5.285927
vn -0.822373 0.440846 -0.359663
vt 0.500000 0.000000
v -51.957870 383.820679 -244.139420
vn -0.382505 0.391144 -0.837076
vt 0.054064 -0.034742
v -82.340660 251.790558 -233.615189
vn -0.388290 0.247170 -0.887771
vt 0.000000 1.000000
v -149.015549 308.446655 130.198059
vn -0.644546 0.526998 0.553926
vt 0.022794 -0.013138
v -149.021179 236.291702 163.860229
vn -0.713287 -0.045840 0.699371
vt 0.000000 1.000000
f 29/29/29 30/30/30 27/27/27
f 27/27/27 28/28/28 29/29/29
f 31/31/31 29/29/29 28/28/28
f 29/29/29 31/31/31 32/32/32
f 12/12/12 15/15/15 16/16/16
f 15/15/15 12/12/12 14/14/14
f 11/11/11 14/14/14 12/12/12
f 12/12/12 10/10/10 11/11/11
f 10/10/10 12/12/12 13/13/13
f 12/12/12 18/18/18 13/13/13
f 18/18/18 12/12/12 17/17/17
f 16/16/16 17/17/17 12/12/12
f 74/74/74 79/79/79 75/75/75
f 79/79/79 74/74/74 17/17/17
f 78/78/78 17/17/17 74/74/74
f 76/76/76 77/77/77 74/74/74
f 78/78/78 74/74/74 77/77/77
f 74/74/74 73/73/73 76/76/76
f 73/73/73 74/74/74 72/72/72
f 75/75/75 72/72/72 74/74/74
f 82/82/82 18/18/18 83/83/83
f 18/18/18 82/82/82 87/87/87
f 86/86/86 87/87/87 82/82/82
f 84/84/84 85/85/85 82/82/82
f 86/86/86 82/82/82 85/85/85
f 82/82/82 81/81/81 84/84/84
f 81/81/81 82/82/82 80/80/80
f 83/83/83 80/80/80 82/82/82
f 21/21/21 20/20/20 23/23/23
f 20/20/20 21/21/21 19/19/19
f 22/22/22 19/19/19 21/21/21
f 25/25/25 22/22/22 21/21/21
f 21/21/21 26/26/26 25/25/25
f 26/26/26 21/21/21 24/24/24
f 23/23/23 24/24/24 21/21/21
f 24/24/24 23/23/23 123/123/123
f 122/122/122 123/123/123 23/23/23
f 123/123/123 124/124/124 24/24/24
f 35/35/35 38/38/38 39/39/39
f 38/38/38 35/35/35 37/37/37
f 34/34/34 37/37/37 35/35/35
f 35/35/35 33/33/33 34/34/34
f 33/33/33 35/35/35 36/36/36
f 35/35/35 41/41/41 36/36/36
f 41/41/41 35/35/35 40/40/40
f 39/39/39 40/40/40 35/35/35
f 44/44/44 43/43/43 46/46/46
f 43/43/43 44/44/44 42/42/42
f 45/45/45 42/42/42 44/44/44
f 46/46/46 47/47/47 44/44/44
f 48/48/48 44/44/44 47/47/47
f 44/44/44 50/50/50 45/45/45
f 50/50/50 44/44/44 49/49/49
f 48/48/48 49/49/49 44/44/44
f 57/57/57 58/58/58 55/55/55
f 58/58/58 57/57/57 63/63/63
f 62/62/62 63/63/63 57/57/57
f 55/55/55 56/56/56 57/57/57
f 59/59/59 57/57/57 56/56/56
f 57/57/57 61/61/61 62/62/62
f 61/61/61 57/57/57 60/60/60
f 59/59/59 60/60/60 57/57/57
f 66/66/66 65/65/65 68/68/68
f 65/65/65 66/66/66 64/64/64
f 67/67/67 64/64/64 66/66/66
f 68/68/68 69/69/69 66/66/66
f 16/16/16 66/66/66 69/69/69
f 66/66/66 71/71/71 67/67/67
f 71/71/71 66/66/66 70/70/70
f 16/16/16 70/70/70 66/66/66
f 5/5/5 6/6/6 3/3/3
f 7/7/7 3/3/3 6/6/6
f 3/3/3 7/7/7 8/8/8
f 1/1/1 2/2/2 3/3/3
f 5/5/5 3/3/3 2/2/2
f 3/3/3 4/4/4 1/1/1
f 4/4/4 3/3/3 9/9/9
f 8/8/8 9/9/9 3/3/3
f 53/53/53 51/51/51 52/52/52
f 51/51/51 53/53/53 54/54/54
f 125/125/125 54/54/54 53/53/53
f 54/54/54 125/125/125 126/126/126
f 98/98/98 99/99/99 95/95/95
f 96/96/96 95/95/95 99/99/99
f 95/95/95 96/96/96 94/94/94
f 97/97/97 94/94/94 96/96/96
f 90/90/90 88/88/88 89/89/89
f 88/88/88 90/90/90 91/91/91
f 92/92/92 88/88/88 91/91/91
f 88/88/88 92/92/92 93/93/93
f 102/102/102 100/100/100 101/101/101
f 100/100/100 102/102/102 103/103/103
f 104/104/104 100/100/100 103/103/103
f 100/100/100 104/104/104 105/105/105
f 108/108/108 106/106/106 107/107/107
f 106/106/106 108/108/108 109/109/109
f 110/110/110 109/109/109 108/108/108
f 109/109/109 110/110/110 111/111/111
f 114/114/114 112/112/112 113/113/113
f 112/112/112 114/114/114 115/115/115
f 116/116/116 112/112/112 115/115/115
f 112/112/112 116/116/116 117/117/117
f 120/120/120 118/118/118 119/119/119
f 118/118/118 120/120/120 121/121/121
f 133/133/133 121/121/121 120/120/120
f 121/121/121 133/133/133 134/134/134
f 129/129/129 127/127/127 128/128/128
f 127/127/127 129/129/129 130/130/130
f 131/131/131 127/127/127 130/130/130
f 127/127/127 131/131/131 132/132/132
