mtllib MIRKWOOD_SPIDERWEB_COVERS24.mtl
g derWEB_Covers24
usemtl treebark2
v -21354.367188 526.678101 -5887.728027
vn 0.504416 0.630361 -0.590093
vt 0.515172 1.000000
v -21386.683594 570.355286 -5883.242188
vn 0.134713 0.199361 -0.970622
vt 0.924457 0.816982
v -21373.130859 608.427856 -5873.541504
vn 0.543497 -0.115681 -0.831402
vt 1.000000 0.463441
v -21336.048828 627.348877 -5859.317383
vn 0.397319 -0.092342 -0.913023
vt 0.825538 0.128170
v -21297.767578 613.571289 -5841.265625
vn 0.160845 -0.265395 -0.950628
vt 0.484841 0.000000
v -21273.638672 578.070435 -5834.828613
vn 0.596378 0.268185 -0.756578
vt 0.151718 0.121821
v -21279.001953 531.821533 -5855.451660
vn -0.078267 0.589258 -0.804145
vt 0.000000 0.536549
v -21307.900391 504.724213 -5880.597168
vn 0.117355 0.909412 -0.398996
vt 0.098288 0.933005
f 3/3/3 1/1/1 2/2/2
f 1/1/1 3/3/3 5/5/5
f 4/4/4 5/5/5 3/3/3
f 7/7/7 5/5/5 6/6/6
f 5/5/5 7/7/7 1/1/1
f 8/8/8 1/1/1 7/7/7
