mtllib MIRKWOOD_PLANE33.mtl
g Plane33
usemtl 13_-_Default
v -20202.605469 1492.583984 -7189.189941
vn -0.188262 0.982038 -0.012579
vt 0.000000 1.000000
v -20565.898438 1335.815430 -6940.564941
vn -0.361018 0.930843 0.056551
vt 0.500000 1.000000
v -20184.359375 1487.726440 -6541.404297
vn -0.166611 0.974097 0.152892
vt 0.500000 0.500000
v -19821.066406 1479.907104 -6790.028809
vn 0.022675 0.995223 0.094963
vt 0.000000 0.500000
v -20929.189453 1179.046997 -6691.940430
vn -0.193038 0.968362 0.158152
vt 1.000000 1.000000
v -20547.652344 1166.370239 -6292.779785
vn -0.372993 0.904402 0.207206
vt 1.000000 0.500000
v -19802.820313 1310.461914 -6142.243652
vn -0.013301 0.965183 0.261239
vt 0.500000 0.000000
v -19439.529297 1467.230347 -6390.868164
vn -0.193038 0.968362 0.158152
vt 0.000000 0.000000
v -20166.113281 1153.693359 -5893.618652
vn -0.196421 0.928606 0.314817
vt 1.000000 0.000000
f 5/5/5 6/6/6 2/2/2
f 3/3/3 2/2/2 6/6/6
f 2/2/2 3/3/3 1/1/1
f 4/4/4 1/1/1 3/3/3
f 6/6/6 9/9/9 3/3/3
f 7/7/7 3/3/3 9/9/9
f 3/3/3 7/7/7 4/4/4
f 8/8/8 4/4/4 7/7/7
