mtllib MIRKWOOD_PLANE43.mtl
g Plane43
usemtl 13_-_Default
v -19654.632813 1358.516113 -8585.202148
vn -0.095928 0.993774 -0.056662
vt 0.000000 1.000000
v -20167.085938 1212.309814 -8661.136719
vn -0.333843 0.930933 -0.148030
vt 0.500000 1.000000
v -20231.292969 1330.428833 -8101.535645
vn -0.265134 0.960039 0.089610
vt 0.500000 0.500000
v -19718.019531 1282.152710 -8010.401855
vn -0.032109 0.975728 0.216619
vt 0.000000 0.500000
v -20679.539063 1066.103638 -8737.071289
vn -0.286123 0.953460 0.095117
vt 1.000000 1.000000
v -20742.925781 989.740112 -8162.270996
vn -0.492462 0.870254 -0.011813
vt 1.000000 0.500000
v -20293.859375 1059.583008 -7511.536621
vn -0.233267 0.919881 0.315287
vt 0.500000 0.000000
v -19781.406250 1205.789185 -7435.602051
vn -0.286123 0.953460 0.095117
vt 0.000000 0.000000
v -20806.312500 913.376709 -7587.471191
vn -0.436351 0.872524 0.219774
vt 1.000000 0.000000
f 5/5/5 6/6/6 2/2/2
f 3/3/3 2/2/2 6/6/6
f 2/2/2 3/3/3 1/1/1
f 4/4/4 1/1/1 3/3/3
f 6/6/6 9/9/9 3/3/3
f 7/7/7 3/3/3 9/9/9
f 3/3/3 7/7/7 4/4/4
f 8/8/8 4/4/4 7/7/7
