mtllib MIRKWOOD_SPIDER_HOLES25.mtl
g Spider_Holes25
usemtl cliffy
v -21433.789063 472.488831 -7948.545898
vn 0.147109 0.864741 0.480189
vt 3.900478 -3.328979
v -21406.552734 492.518250 -7979.288574
vn -0.110586 0.707086 0.698427
vt 3.869747 -3.198007
v -21431.931641 511.595123 -7987.921387
vn 0.420958 0.324315 0.847121
vt 3.928329 -3.207081
v -21460.478516 482.771423 -7948.827637
vn 0.712634 0.557057 0.426428
vt 3.955017 -3.364947
v -21378.853516 526.506775 -7994.176270
vn -0.322042 0.462129 0.826272
vt 3.825741 -3.122419
v -21393.582031 548.072876 -8007.195801
vn 0.020219 -0.036386 0.999133
vt 3.866215 -3.104044
v -21414.865234 561.764648 -7992.442383
vn 0.489504 -0.393665 0.778083
vt 3.897949 -3.183575
v -21447.507813 538.326050 -7976.734375
vn 0.758875 -0.200715 0.619533
vt 3.951488 -3.270986
v -21465.382813 512.834839 -7946.058105
vn 0.925188 -0.007875 0.379427
vt 3.963198 -3.388305
v -21209.671875 613.636719 -7797.913086
vn -0.916778 0.163049 0.364600
vt 3.376215 -3.491212
v -21253.640625 539.201050 -7750.118652
vn -0.686108 0.726602 0.036127
vt 3.384443 -3.717606
v -21240.423828 555.083069 -7717.332520
vn -0.541983 0.825202 0.159045
vt 3.347805 -3.654988
v -21197.867188 626.575073 -7763.289063
vn -0.400801 0.401289 0.823606
vt 3.467745 -3.339271
v -21327.021484 497.632111 -7700.479492
vn -0.113681 0.937599 -0.328610
vt 3.469612 -3.980065
v -21310.927734 514.824951 -7669.623047
vn -0.209599 0.861696 -0.462112
vt 3.356640 -3.955055
v -21305.064453 703.852844 -7791.117188
vn 0.142028 -0.950390 0.276745
vt 3.619968 -3.613165
v -21239.001953 676.681519 -7810.542969
vn -0.580283 -0.634515 0.510552
vt 3.484680 -3.473006
v -21225.537109 686.680298 -7775.602539
vn -0.201238 -0.321939 0.925126
vt 3.686859 -3.226873
v -21288.601563 712.220886 -7757.028809
vn 0.271549 -0.811333 0.517688
vt 3.865223 -3.312881
v -21408.103516 604.616333 -7696.211426
vn 0.896503 -0.226409 -0.380816
vt 3.687504 -3.074501
v -21371.287109 670.667908 -7742.741211
vn 0.662137 -0.746879 -0.061203
vt 3.692207 -2.861866
v -21352.220703 680.018921 -7710.323242
vn 0.765711 -0.572912 0.292333
vt 3.862906 -2.592382
v -21387.890625 616.582947 -7665.369141
vn 0.989135 -0.032117 0.143459
vt 3.731813 -2.887535
v -21352.220703 680.018921 -7710.323242
vn 0.765711 -0.572912 0.292333
vt 3.862906 -3.592382
v -21371.287109 670.667908 -7742.741211
vn 0.662137 -0.746879 -0.061203
vt 3.692207 -3.861866
v -21327.021484 497.632111 -7700.479492
vn -0.113681 0.937599 -0.328610
vt 3.469612 -2.980065
v -21385.925781 533.187439 -7682.316895
vn 0.645624 0.532057 -0.547800
vt 3.591969 -3.106465
v -21367.105469 548.421631 -7652.052734
vn 0.680099 0.695966 -0.230428
vt 3.523849 -3.020499
v -21310.927734 514.824951 -7669.623047
vn -0.209599 0.861696 -0.462112
vt 3.356640 -2.955055
v -21293.203125 516.305420 -7821.261230
vn -0.632859 0.761166 0.141830
vt 3.515289 -3.580278
v -21362.429688 476.629913 -7774.408691
vn -0.059457 0.976484 -0.207227
vt 3.618271 -3.812958
v -21251.273438 586.489197 -7866.400879
vn -0.853156 0.213070 0.476157
vt 3.466784 -3.396266
v -21302.884766 557.294922 -7938.352539
vn -0.802704 0.255349 0.538947
vt 3.627920 -3.217365
v -21340.576172 495.941956 -7898.724609
vn -0.586998 0.779177 0.219808
vt 3.672298 -3.380103
v -21401.181641 460.199036 -7857.663574
vn -0.033289 0.992571 -0.117022
vt 3.762402 -3.583685
v -21278.207031 645.287964 -7878.573730
vn -0.523662 -0.584340 0.619939
vt 3.531866 -3.406154
v -21339.939453 670.103760 -7860.378418
vn 0.198633 -0.902850 0.381323
vt 3.643137 -3.551771
v -21377.580078 627.198547 -7933.938965
vn 0.248198 -0.861082 0.443773
vt 3.777004 -3.346049
v -21324.841797 607.274963 -7949.575195
vn -0.485706 -0.547032 0.681795
vt 3.682034 -3.221679
v -21402.400391 638.338623 -7814.415039
vn 0.711976 -0.701010 0.040927
vt 3.733194 -3.774948
v -21437.562500 576.065186 -7770.163086
vn 0.945263 -0.187427 -0.267111
vt 3.768776 -2.949457
v -21402.400391 638.338623 -7814.415039
vn 0.711976 -0.701010 0.040927
vt 3.733194 -2.774948
v -21463.960938 543.955750 -7853.465332
vn 0.967773 -0.171949 -0.183979
vt 3.887659 -3.700063
v -21432.226563 598.382141 -7892.983887
vn 0.743021 -0.658861 0.117564
vt 3.855194 -3.543478
v -21437.562500 576.065186 -7770.163086
vn 0.945263 -0.187427 -0.267111
vt 3.768776 -3.949457
v -21417.394531 509.356018 -7757.101563
vn 0.700289 0.568351 -0.431941
vt 3.716618 -2.949072
v -21417.394531 509.356018 -7757.101563
vn 0.700289 0.568351 -0.431941
vt 3.716618 -3.949072
v -21447.960938 487.049133 -7842.133301
vn 0.727075 0.586496 -0.356910
vt 3.845459 -3.701902
v -21377.228516 487.656708 -7950.478027
vn -0.464574 0.796180 0.387645
vt 3.787426 -3.254180
v -21427.292969 456.720245 -7916.492188
vn 0.086710 0.984040 0.155390
vt 3.861788 -3.422198
v -21344.716797 538.216492 -7983.367676
vn -0.617907 0.339619 0.709119
vt 3.748093 -3.117442
v -21360.593750 577.418091 -7993.432129
vn -0.324007 -0.384071 0.864586
vt 3.788801 -3.114943
v -21402.339844 591.362244 -7980.922852
vn 0.353023 -0.685766 0.636475
vt 3.863850 -3.213344
v -21447.435547 566.149841 -7946.090332
vn 0.788517 -0.545666 0.283706
vt 3.927534 -3.379304
v -21474.980469 521.314209 -7912.354980
vn 0.994257 -0.092419 0.053955
vt 3.956192 -3.513984
v -21464.070313 476.388519 -7903.136230
vn 0.782807 0.618128 -0.071632
vt 3.926159 -3.518541
f 42/42/42 21/21/21 20/20/20
f 22/22/22 20/20/20 21/21/21
f 22/22/22 23/23/23 20/20/20
f 28/28/28 20/20/20 23/23/23
f 20/20/20 28/28/28 27/27/27
f 26/26/26 28/28/28 29/29/29
f 28/28/28 26/26/26 27/27/27
f 46/46/46 27/27/27 26/26/26
f 27/27/27 46/46/46 20/20/20
f 41/41/41 20/20/20 46/46/46
f 20/20/20 41/41/41 42/42/42
f 38/38/38 52/52/52 39/39/39
f 52/52/52 38/38/38 53/53/53
f 54/54/54 53/53/53 38/38/38
f 53/53/53 54/54/54 7/7/7
f 8/8/8 7/7/7 54/54/54
f 7/7/7 8/8/8 3/3/3
f 9/9/9 3/3/3 8/8/8
f 3/3/3 9/9/9 4/4/4
f 56/56/56 4/4/4 9/9/9
f 4/4/4 56/56/56 1/1/1
f 50/50/50 1/1/1 56/56/56
f 1/1/1 50/50/50 49/49/49
f 35/35/35 49/49/49 50/50/50
f 49/49/49 35/35/35 34/34/34
f 30/30/30 34/34/34 35/35/35
f 34/34/34 30/30/30 33/33/33
f 32/32/32 33/33/33 30/30/30
f 33/33/33 32/32/32 36/36/36
f 35/35/35 50/50/50 56/56/56
f 49/49/49 33/33/33 51/51/51
f 33/33/33 49/49/49 34/34/34
f 10/10/10 32/32/32 30/30/30
f 35/35/35 31/31/31 30/30/30
f 9/9/9 55/55/55 56/56/56
f 54/54/54 9/9/9 8/8/8
f 9/9/9 54/54/54 55/55/55
f 43/43/43 55/55/55 54/54/54
f 55/55/55 43/43/43 56/56/56
f 48/48/48 56/56/56 43/43/43
f 56/56/56 48/48/48 35/35/35
f 47/47/47 35/35/35 48/48/48
f 35/35/35 47/47/47 31/31/31
f 14/14/14 31/31/31 47/47/47
f 31/31/31 14/14/14 30/30/30
f 11/11/11 30/30/30 14/14/14
f 30/30/30 11/11/11 10/10/10
f 12/12/12 10/10/10 11/11/11
f 10/10/10 12/12/12 13/13/13
f 12/12/12 14/14/14 15/15/15
f 14/14/14 12/12/12 11/11/11
f 47/47/47 43/43/43 45/45/45
f 43/43/43 47/47/47 48/48/48
f 10/10/10 13/13/13 18/18/18
f 10/10/10 36/36/36 32/32/32
f 36/36/36 10/10/10 17/17/17
f 18/18/18 17/17/17 10/10/10
f 17/17/17 18/18/18 16/16/16
f 19/19/19 16/16/16 18/18/18
f 16/16/16 19/19/19 24/24/24
f 44/44/44 54/54/54 38/38/38
f 54/54/54 44/44/44 43/43/43
f 40/40/40 43/43/43 44/44/44
f 43/43/43 40/40/40 45/45/45
f 40/40/40 44/44/44 38/38/38
f 36/36/36 16/16/16 37/37/37
f 16/16/16 36/36/36 17/17/17
f 24/24/24 25/25/25 16/16/16
f 40/40/40 16/16/16 25/25/25
f 16/16/16 40/40/40 37/37/37
f 38/38/38 37/37/37 40/40/40
f 37/37/37 38/38/38 36/36/36
f 39/39/39 36/36/36 38/38/38
f 36/36/36 39/39/39 33/33/33
f 52/52/52 33/33/33 39/39/39
f 33/33/33 52/52/52 51/51/51
f 5/5/5 51/51/51 52/52/52
f 51/51/51 5/5/5 49/49/49
f 2/2/2 49/49/49 5/5/5
f 49/49/49 2/2/2 1/1/1
f 3/3/3 1/1/1 2/2/2
f 1/1/1 3/3/3 4/4/4
f 52/52/52 6/6/6 5/5/5
f 2/2/2 5/5/5 3/3/3
f 6/6/6 3/3/3 5/5/5
f 3/3/3 6/6/6 7/7/7
f 52/52/52 7/7/7 6/6/6
f 7/7/7 52/52/52 53/53/53
