mtllib MIRKWOOD_MIRK_PLAYSURFACE28.mtl
g k_PlaySurface28
usemtl kk
v -16631.667969 631.935791 -10972.042969
vn -0.374729 0.833493 -0.406039
vt 0.000000 1.000000
v -16392.781250 635.479553 -11185.234375
vn -0.374729 0.833493 -0.406039
vt 1.000000 1.000000
v -16425.589844 612.685181 -11201.745117
vn -0.345209 0.421983 -0.838309
vt 1.000000 0.000000
v -16642.115234 612.223328 -11007.635742
vn -0.725205 0.503469 -0.469677
vt 0.000000 0.000000
v -16392.781250 635.479553 -11185.234375
vn 0.822069 0.160299 -0.546358
vt 0.000000 1.000000
v -16430.917969 474.842407 -11202.578125
vn 0.911417 -0.222165 -0.346355
vt 1.000000 1.000000
v -16464.810547 484.288483 -11215.476563
vn -0.003258 0.110615 -0.993858
vt 1.000000 0.000000
v -16425.589844 612.685181 -11201.745117
vn -0.345209 0.421983 -0.838309
vt 0.000000 0.000000
v -16430.917969 474.842407 -11202.578125
vn 0.911417 -0.222165 -0.346355
vt 0.000000 1.000000
v -16477.589844 326.445435 -11217.271484
vn 0.372683 -0.039489 -0.927118
vt 1.000000 1.000000
v -16511.484375 335.891785 -11230.169922
vn -0.142244 0.138237 -0.980131
vt 1.000000 0.000000
v -16464.810547 484.288483 -11215.476563
vn -0.003258 0.110615 -0.993858
vt 0.000000 0.000000
v -16477.589844 326.445435 -11217.271484
vn 0.372683 -0.039489 -0.927118
vt 0.000000 1.000000
v -16535.929688 171.292282 -11231.360352
vn 0.828280 -0.555372 -0.074257
vt 1.000000 1.000000
v -16553.498047 204.359100 -11242.152344
vn -0.277916 -0.033934 -0.960006
vt 1.000000 0.000000
v -16511.484375 335.891785 -11230.169922
vn -0.142244 0.138237 -0.980131
vt 0.000000 0.000000
v -16535.929688 171.292282 -11231.360352
vn -0.642246 -0.532293 -0.551529
vt 0.000000 1.000000
v -16762.503906 217.742218 -11012.347656
vn -0.642246 -0.532293 -0.551529
vt 1.000000 1.000000
v -16758.072266 244.654770 -11043.482422
vn -0.839474 0.072492 -0.538542
vt 1.000000 0.000000
v -16553.498047 204.359100 -11242.152344
vn -0.277916 -0.033934 -0.960006
vt 0.000000 0.000000
v -16762.503906 217.742218 -11012.347656
vn -0.367930 -0.639448 0.675081
vt 0.000000 1.000000
v -16715.533203 374.087097 -10991.264648
vn -0.543880 0.075496 0.835760
vt 1.000000 1.000000
v -16717.552734 376.643188 -11030.182617
vn -0.885537 0.308186 -0.347628
vt 1.000000 0.000000
v -16758.072266 244.654770 -11043.482422
vn -0.839474 0.072492 -0.538542
vt 0.000000 0.000000
v -16715.533203 374.087097 -10991.264648
vn -0.543880 0.075496 0.835760
vt 0.000000 1.000000
v -16668.519531 522.415161 -10976.949219
vn -0.948669 0.304261 0.086327
vt 1.000000 1.000000
v -16670.537109 524.971191 -11015.867188
vn -0.883635 0.316857 -0.344662
vt 1.000000 0.000000
v -16717.552734 376.643188 -11030.182617
vn -0.885537 0.308186 -0.347628
vt 0.000000 0.000000
v -16668.519531 522.415161 -10976.949219
vn -0.948669 0.304261 0.086327
vt 0.000000 1.000000
v -16631.667969 631.935791 -10972.042969
vn -0.206412 0.303872 0.930084
vt 1.000000 1.000000
v -16642.115234 612.223328 -11007.635742
vn -0.725205 0.503469 -0.469677
vt 1.000000 0.000000
v -16670.537109 524.971191 -11015.867188
vn -0.883635 0.316857 -0.344662
vt 0.000000 0.000000
v -16642.115234 612.223328 -11007.635742
vn -0.725205 0.503469 -0.469677
vt 0.000000 1.000000
v -16425.589844 612.685181 -11201.745117
vn -0.345209 0.421983 -0.838309
vt 1.000000 1.000000
v -16453.724609 588.728333 -11187.869141
vn -0.614207 0.298064 -0.730690
vt 1.000000 0.000000
v -16629.900391 586.515381 -11029.739258
vn -0.650784 0.293004 -0.700449
vt 0.000000 0.000000
v -16425.589844 612.685181 -11201.745117
vn -0.345209 0.421983 -0.838309
vt 0.000000 1.000000
v -16464.810547 484.288483 -11215.476563
vn -0.003258 0.110615 -0.993858
vt 1.000000 1.000000
v -16486.033203 487.344055 -11197.497070
vn -0.601065 0.263997 -0.754338
vt 1.000000 0.000000
v -16453.724609 588.728333 -11187.869141
vn -0.614207 0.298064 -0.730690
vt 0.000000 0.000000
v -16464.810547 484.288483 -11215.476563
vn -0.003258 0.110615 -0.993858
vt 0.000000 1.000000
v -16511.484375 335.891785 -11230.169922
vn -0.142244 0.138237 -0.980131
vt 1.000000 1.000000
v -16532.701172 338.946106 -11212.191406
vn -0.601137 0.263973 -0.754289
vt 1.000000 0.000000
v -16486.033203 487.344055 -11197.497070
vn -0.601065 0.263997 -0.754338
vt 0.000000 0.000000
v -16511.484375 335.891785 -11230.169922
vn -0.142244 0.138237 -0.980131
vt 0.000000 1.000000
v -16553.498047 204.359100 -11242.152344
vn -0.277916 -0.033934 -0.960006
vt 1.000000 1.000000
v -16566.318359 230.837006 -11223.266602
vn -0.630117 0.224979 -0.743194
vt 1.000000 0.000000
v -16532.701172 338.946106 -11212.191406
vn -0.601137 0.263973 -0.754289
vt 0.000000 0.000000
v -16553.498047 204.359100 -11242.152344
vn -0.277916 -0.033934 -0.960006
vt 0.000000 1.000000
v -16758.072266 244.654770 -11043.482422
vn -0.839474 0.072492 -0.538542
vt 1.000000 1.000000
v -16732.404297 263.337585 -11060.867188
vn -0.662308 0.253988 -0.704868
vt 1.000000 0.000000
v -16566.318359 230.837006 -11223.266602
vn -0.630117 0.224979 -0.743194
vt 0.000000 0.000000
v -16758.072266 244.654770 -11043.482422
vn -0.839474 0.072492 -0.538542
vt 0.000000 1.000000
v -16717.552734 376.643188 -11030.182617
vn -0.885537 0.308186 -0.347628
vt 1.000000 1.000000
v -16698.039063 370.626068 -11050.825195
vn -0.657615 0.274371 -0.701615
vt 1.000000 0.000000
v -16732.404297 263.337585 -11060.867188
vn -0.662308 0.253988 -0.704868
vt 0.000000 0.000000
v -16717.552734 376.643188 -11030.182617
vn -0.885537 0.308186 -0.347628
vt 0.000000 1.000000
v -16670.537109 524.971191 -11015.867188
vn -0.883635 0.316857 -0.344662
vt 1.000000 1.000000
v -16651.025391 518.954102 -11036.504883
vn -0.657025 0.275838 -0.701592
vt 1.000000 0.000000
v -16698.039063 370.626068 -11050.825195
vn -0.657615 0.274371 -0.701615
vt 0.000000 0.000000
v -16670.537109 524.971191 -11015.867188
vn -0.883635 0.316857 -0.344662
vt 0.000000 1.000000
v -16642.115234 612.223328 -11007.635742
vn -0.725205 0.503469 -0.469677
vt 1.000000 1.000000
v -16629.900391 586.515381 -11029.739258
vn -0.650784 0.293004 -0.700449
vt 1.000000 0.000000
v -16651.025391 518.954102 -11036.504883
vn -0.657025 0.275838 -0.701592
vt 0.000000 0.000000
v -16391.703125 624.036865 -11172.250977
vn 0.950647 0.070405 0.302181
vt 0.000000 1.000000
v -16438.375000 475.639862 -11186.943359
vn 0.851950 -0.309746 0.422184
vt 1.000000 1.000000
v -16430.917969 474.842407 -11202.578125
vn 0.911417 -0.222165 -0.346355
vt 1.000000 0.000000
v -16392.781250 635.479553 -11185.234375
vn 0.822069 0.160299 -0.546358
vt 0.000000 0.000000
v -16438.375000 475.639862 -11186.943359
vn 0.851950 -0.309746 0.422184
vt 0.000000 1.000000
v -16485.046875 327.242889 -11201.636719
vn 0.911639 -0.327861 0.247834
vt 1.000000 1.000000
v -16477.589844 326.445435 -11217.271484
vn 0.844906 -0.331354 0.419927
vt 1.000000 0.000000
v -16430.917969 474.842407 -11202.578125
vn 0.911417 -0.222165 -0.346355
vt 0.000000 0.000000
v -16485.046875 327.242889 -11201.636719
vn 0.911639 -0.327861 0.247834
vt 0.000000 1.000000
v -16531.718750 178.845917 -11216.330078
vn 0.489646 -0.843497 0.220816
vt 1.000000 1.000000
v -16535.929688 171.292282 -11231.360352
vn 0.828280 -0.555372 -0.074257
vt 1.000000 0.000000
v -16477.589844 326.445435 -11217.271484
vn 0.844906 -0.331354 0.419927
vt 0.000000 0.000000
v -16531.718750 178.845917 -11216.330078
vn 0.489646 -0.843497 0.220816
vt 0.000000 1.000000
v -16746.082031 220.740173 -11007.658203
vn -0.034393 -0.449470 0.892633
vt 1.000000 1.000000
v -16762.503906 217.742218 -11012.347656
vn -0.367930 -0.639448 0.675081
vt 1.000000 0.000000
v -16535.929688 171.292282 -11231.360352
vn 0.828280 -0.555372 -0.074257
vt 0.000000 0.000000
v -16746.082031 220.740173 -11007.658203
vn -0.034393 -0.449470 0.892633
vt 0.000000 1.000000
v -16699.066406 369.068207 -10993.342773
vn 0.087240 -0.123062 0.988557
vt 1.000000 1.000000
v -16715.533203 374.087097 -10991.264648
vn -0.543880 0.075496 0.835760
vt 1.000000 0.000000
v -16762.503906 217.742218 -11012.347656
vn -0.367930 -0.639448 0.675081
vt 0.000000 0.000000
v -16699.066406 369.068207 -10993.342773
vn 0.087240 -0.123062 0.988557
vt 0.000000 1.000000
v -16652.052734 517.396240 -10979.026367
vn -0.020022 -0.073215 0.997115
vt 1.000000 1.000000
v -16668.519531 522.415161 -10976.949219
vn 0.094259 -0.100803 0.990431
vt 1.000000 0.000000
v -16715.533203 374.087097 -10991.264648
vn -0.543880 0.075496 0.835760
vt 0.000000 0.000000
v -16652.052734 517.396240 -10979.026367
vn -0.020022 -0.073215 0.997115
vt 0.000000 1.000000
v -16619.578125 619.849487 -10969.138672
vn 0.140274 0.394002 0.908342
vt 1.000000 1.000000
v -16631.667969 631.935791 -10972.042969
vn -0.206412 0.303872 0.930084
vt 1.000000 0.000000
v -16668.519531 522.415161 -10976.949219
vn 0.094259 -0.100803 0.990431
vt 0.000000 0.000000
v -16619.578125 619.849487 -10969.138672
vn 0.140274 0.394002 0.908342
vt 0.000000 1.000000
v -16391.703125 624.036865 -11172.250977
vn 0.950647 0.070405 0.302181
vt 1.000000 1.000000
v -16392.781250 635.479553 -11185.234375
vn 0.822069 0.160299 -0.546358
vt 1.000000 0.000000
v -16631.667969 631.935791 -10972.042969
vn -0.206412 0.303872 0.930084
vt 0.000000 0.000000
v -16442.093750 584.316650 -11175.788086
vn -0.157230 -0.969582 -0.187586
vt 0.000000 1.000000
v -16618.970703 582.271423 -11016.963867
vn -0.157230 -0.969582 -0.187586
vt 1.000000 1.000000
v -16629.900391 586.515381 -11029.739258
vn -0.157230 -0.969582 -0.187586
vt 1.000000 0.000000
v -16453.724609 588.728333 -11187.869141
vn -0.163507 -0.966937 -0.195699
vt 0.000000 0.000000
v -16618.970703 582.271423 -11016.963867
vn 0.735115 -0.169590 -0.656388
vt 0.000000 1.000000
v -16640.492188 514.361755 -11023.520508
vn 0.735080 -0.169591 -0.656427
vt 1.000000 1.000000
v -16651.025391 518.954102 -11036.504883
vn 0.735109 -0.169609 -0.656390
vt 1.000000 0.000000
v -16629.900391 586.515381 -11029.739258
vn 0.723500 -0.158961 -0.671774
vt 0.000000 0.000000
v -16640.492188 514.361755 -11023.520508
vn 0.735080 -0.169591 -0.656427
vt 0.000000 1.000000
v -16687.503906 366.033417 -11037.840820
vn 0.726694 -0.165961 -0.666613
vt 1.000000 1.000000
v -16698.039063 370.626068 -11050.825195
vn 0.734416 -0.171570 -0.656655
vt 1.000000 0.000000
v -16651.025391 518.954102 -11036.504883
vn 0.735109 -0.169609 -0.656390
vt 0.000000 0.000000
v -16687.503906 366.033417 -11037.840820
vn 0.726694 -0.165961 -0.666613
vt 0.000000 1.000000
v -16721.697266 258.140839 -11048.256836
vn 0.718208 -0.162301 -0.676636
vt 1.000000 1.000000
v -16732.404297 263.337585 -11060.867188
vn 0.718208 -0.162301 -0.676636
vt 1.000000 0.000000
v -16698.039063 370.626068 -11050.825195
vn 0.734416 -0.171570 -0.656655
vt 0.000000 0.000000
v -16721.697266 258.140839 -11048.256836
vn 0.308263 0.942841 0.126591
vt 0.000000 1.000000
v -16554.931641 225.510605 -11211.322266
vn 0.308263 0.942841 0.126591
vt 1.000000 1.000000
v -16566.318359 230.837006 -11223.266602
vn 0.308263 0.942841 0.126591
vt 1.000000 0.000000
v -16732.404297 263.337585 -11060.867188
vn 0.308376 0.942789 0.126699
vt 0.000000 0.000000
v -16554.931641 225.510605 -11211.322266
vn -0.662923 0.135548 0.736315
vt 0.000000 1.000000
v -16520.796875 334.051727 -11200.572266
vn -0.662964 0.135568 0.736274
vt 1.000000 1.000000
v -16532.701172 338.946106 -11212.191406
vn -0.662920 0.135558 0.736316
vt 1.000000 0.000000
v -16566.318359 230.837006 -11223.266602
vn -0.684836 0.139681 0.715184
vt 0.000000 0.000000
v -16520.796875 334.051727 -11200.572266
vn -0.662964 0.135568 0.736274
vt 0.000000 1.000000
v -16474.130859 482.449982 -11185.876953
vn -0.674511 0.140342 0.724802
vt 1.000000 1.000000
v -16486.033203 487.344055 -11197.497070
vn -0.662184 0.138194 0.736488
vt 1.000000 0.000000
v -16532.701172 338.946106 -11212.191406
vn -0.662920 0.135558 0.736316
vt 0.000000 0.000000
v -16474.130859 482.449982 -11185.876953
vn -0.674511 0.140342 0.724802
vt 0.000000 1.000000
v -16442.093750 584.316650 -11175.788086
vn -0.685824 0.145055 0.713165
vt 1.000000 1.000000
v -16453.724609 588.728333 -11187.869141
vn -0.685824 0.145055 0.713165
vt 1.000000 0.000000
v -16486.033203 487.344055 -11197.497070
vn -0.662184 0.138194 0.736488
vt 0.000000 0.000000
f 3/3/3 1/1/1 2/2/2
f 1/1/1 3/3/3 4/4/4
f 5/5/5 7/7/7 8/8/8
f 7/7/7 5/5/5 6/6/6
f 11/11/11 9/9/9 10/10/10
f 9/9/9 11/11/11 12/12/12
f 15/15/15 13/13/13 14/14/14
f 13/13/13 15/15/15 16/16/16
f 19/19/19 17/17/17 18/18/18
f 17/17/17 19/19/19 20/20/20
f 23/23/23 21/21/21 22/22/22
f 21/21/21 23/23/23 24/24/24
f 27/27/27 25/25/25 26/26/26
f 25/25/25 27/27/27 28/28/28
f 31/31/31 29/29/29 30/30/30
f 29/29/29 31/31/31 32/32/32
f 35/35/35 33/33/33 34/34/34
f 33/33/33 35/35/35 36/36/36
f 39/39/39 37/37/37 38/38/38
f 37/37/37 39/39/39 40/40/40
f 43/43/43 41/41/41 42/42/42
f 41/41/41 43/43/43 44/44/44
f 47/47/47 45/45/45 46/46/46
f 45/45/45 47/47/47 48/48/48
f 51/51/51 49/49/49 50/50/50
f 49/49/49 51/51/51 52/52/52
f 55/55/55 53/53/53 54/54/54
f 53/53/53 55/55/55 56/56/56
f 59/59/59 57/57/57 58/58/58
f 57/57/57 59/59/59 60/60/60
f 63/63/63 61/61/61 62/62/62
f 61/61/61 63/63/63 64/64/64
f 67/67/67 65/65/65 66/66/66
f 65/65/65 67/67/67 68/68/68
f 71/71/71 69/69/69 70/70/70
f 69/69/69 71/71/71 72/72/72
f 75/75/75 73/73/73 74/74/74
f 73/73/73 75/75/75 76/76/76
f 79/79/79 77/77/77 78/78/78
f 77/77/77 79/79/79 80/80/80
f 83/83/83 81/81/81 82/82/82
f 81/81/81 83/83/83 84/84/84
f 87/87/87 85/85/85 86/86/86
f 85/85/85 87/87/87 88/88/88
f 91/91/91 89/89/89 90/90/90
f 89/89/89 91/91/91 92/92/92
f 95/95/95 93/93/93 94/94/94
f 93/93/93 95/95/95 96/96/96
f 99/99/99 97/97/97 98/98/98
f 97/97/97 99/99/99 100/100/100
f 103/103/103 101/101/101 102/102/102
f 101/101/101 103/103/103 104/104/104
f 107/107/107 105/105/105 106/106/106
f 105/105/105 107/107/107 108/108/108
f 111/111/111 109/109/109 110/110/110
f 109/109/109 111/111/111 112/112/112
f 115/115/115 113/113/113 114/114/114
f 113/113/113 115/115/115 116/116/116
f 119/119/119 117/117/117 118/118/118
f 117/117/117 119/119/119 120/120/120
f 123/123/123 121/121/121 122/122/122
f 121/121/121 123/123/123 124/124/124
f 127/127/127 125/125/125 126/126/126
f 125/125/125 127/127/127 128/128/128
