mtllib MIRKWOOD_SPIDERWEB_COVERS08.mtl
g derWEB_Covers08
usemtl treebark2
v -20099.437500 363.597382 -10887.513672
vn 0.998705 -0.031730 -0.039773
vt 0.384352 1.000000
v -20096.060547 577.195740 -10973.130859
vn 0.883664 0.065139 0.463568
vt 0.746021 0.803560
v -20089.134766 790.576965 -10969.445313
vn 0.998705 -0.031730 -0.039773
vt 1.000000 0.468548
v -20088.148438 861.713501 -10837.331055
vn 0.999946 -0.010211 -0.001962
vt 0.927461 0.153683
v -20088.425781 804.837158 -10681.915039
vn 0.999946 -0.010211 -0.001962
vt 0.671795 0.000000
v -20085.287109 634.179810 -10608.328125
vn 0.999469 0.026538 0.018919
vt 0.376395 0.148533
v -20080.798828 449.055847 -10585.723633
vn 0.909452 -0.000644 -0.415809
vt 0.124664 0.398451
v -20077.021484 348.779755 -10583.250977
vn 0.997175 0.035944 -0.065958
vt 0.000000 0.548913
v -20078.501953 305.611176 -10629.167969
vn 0.860980 0.442114 -0.251494
vt 0.002894 0.686843
v -20089.777344 291.809814 -10751.722656
vn 0.811324 0.582577 0.048550
vt 0.133826 0.899148
f 3/3/3 1/1/1 2/2/2
f 1/1/1 3/3/3 5/5/5
f 4/4/4 5/5/5 3/3/3
f 1/1/1 5/5/5 7/7/7
f 6/6/6 7/7/7 5/5/5
f 9/9/9 7/7/7 8/8/8
f 7/7/7 9/9/9 1/1/1
f 10/10/10 1/1/1 9/9/9
