mtllib MIRKWOOD_MIRK_PLAYSURFACE73.mtl
g k_PlaySurface73
usemtl sklide
v -14216.048828 620.241333 -6055.527344
vn 0.078551 -0.952057 0.295664
vt 3.038078 -1.940530
v -14204.926758 606.052490 -5911.733887
vn 0.823650 -0.403252 -0.398735
vt 3.202197 -1.942615
v -14345.285156 532.308228 -5789.029297
vn -0.333102 -0.125004 -0.934568
vt 3.367904 -1.493500
v -14391.039063 586.802246 -5807.168457
vn -0.461808 -0.555709 -0.691319
vt 3.307471 -1.493500
v -14575.877930 640.638672 -6277.893066
vn -0.143362 -0.754223 0.640777
vt 2.760860 -0.806290
v -14580.499023 511.808746 -6383.488770
vn -0.105494 -0.052615 0.993027
vt 2.561468 -0.792518
v -14411.466797 539.897461 -6281.414063
vn -0.262503 -0.074859 0.962023
vt 2.696123 -1.432621
v -14391.039063 594.273560 -6273.189941
vn -0.457072 -0.499583 0.735868
vt 2.741245 -1.493501
v -14795.285156 606.957275 -5785.153320
vn -0.009999 -0.420376 -0.907295
vt 3.316260 -0.152415
v -14682.785156 642.461426 -5785.153320
vn -0.006049 -0.690728 -0.723089
vt 3.294803 -0.487685
v -14570.285156 502.443878 -5829.858887
vn -0.002045 -0.018208 -0.999832
vt 3.347667 -0.822958
v -14795.285156 478.071899 -5785.153320
vn -0.075266 -0.059545 -0.995384
vt 3.490518 -0.152415
v -14201.272461 427.962463 -5770.126953
vn 0.475049 -0.105199 -0.873648
vt 3.384117 -1.942614
v -14345.285156 426.261780 -5785.153320
vn 0.023277 -0.085781 -0.996042
vt 3.487821 -1.493501
v -14345.285156 248.974609 -5831.428223
vn 0.158145 -0.282205 -0.946230
vt -0.184828 -1.493501
v -14198.211914 209.155075 -5759.971191
vn 0.499246 -0.051270 -0.864942
vt -0.131317 -1.940530
v -14200.414063 90.578255 -5784.305664
vn 0.519508 0.227465 -0.823633
vt 0.150621 -1.940530
v -14328.898438 140.303665 -5831.428223
vn 0.051402 0.045271 -0.997651
vt 0.175798 -1.542335
v -14570.285156 391.111176 -5785.153320
vn -0.052408 -0.112813 -0.992233
vt 3.485550 -0.822958
v -14570.285156 -5.064970 -5797.862305
vn -0.055532 0.091286 -0.994275
vt 0.475761 -0.822958
v -14312.512695 31.632730 -5831.428223
vn -0.272298 0.152102 -0.950115
vt 0.454192 -1.591168
v -14570.285156 -111.552834 -5824.395020
vn -0.305505 0.264214 -0.914799
vt 0.641510 -0.822959
v -14796.257813 429.035675 -6320.086914
vn 0.125672 0.019416 0.991882
vt 2.535687 -0.149517
v -14793.940430 200.169189 -6282.513672
vn -0.070785 0.009859 0.997443
vt 2.024597 -0.156422
v -14578.155273 339.112061 -6281.428223
vn -0.087424 0.124220 0.988396
vt 2.434813 -0.799504
v -14585.706055 107.494049 -6223.597168
vn -0.076874 0.024768 0.996733
vt 1.634021 -0.776999
v -14780.741211 -45.994240 -6293.010254
vn -0.285355 0.027421 0.958030
vt 1.425297 -0.195759
v -14793.653320 -217.462524 -6282.734863
vn -0.255075 0.211021 0.943614
vt 1.252237 -0.157279
v -14572.516602 -112.666000 -6274.208496
vn -0.177610 0.129969 0.975481
vt 1.328415 -0.816308
v -14579.111328 -2.585977 -6248.902832
vn -0.629434 -0.077394 0.773190
vt 1.422036 -0.796654
v -14346.294922 305.015930 -5783.066895
vn -0.162871 0.570688 -0.804853
vt 3.811029 -1.508428
v -14196.007813 327.731934 -5786.017578
vn 0.360417 0.241022 -0.901115
vt 3.743835 -1.824983
v -14345.285156 248.974609 -5831.428223
vn 0.158145 -0.282205 -0.946230
vt 3.815172 -1.493501
v -14571.448242 191.380051 -5783.005859
vn 0.020051 -0.218866 -0.975549
vt 3.999132 -0.822632
v -14572.612305 281.337189 -5891.621094
vn -0.123577 0.283631 -0.950938
vt 3.761733 -0.822306
v -14346.229492 311.957153 -5919.180664
vn 0.092205 0.286936 -0.953502
vt 3.621256 -1.490631
v -14945.284180 -264.521912 -5831.428223
vn -0.063009 0.173185 -0.982872
vt 0.753480 0.294612
v -15095.284180 -266.349518 -5831.428223
vn -0.446757 0.159085 -0.880398
vt 0.754366 0.741641
v -15095.284180 -158.090164 -5831.428223
vn -0.440380 0.000000 -0.897811
vt 0.689051 0.741641
v -14945.284180 -156.953323 -5831.428223
vn 0.000000 0.000000 -1.000000
vt 0.688195 0.294612
v -15094.452148 274.201111 -5761.298828
vn -0.223044 0.720946 -0.656116
vt 3.191696 0.757097
v -15095.285156 335.194214 -5755.987305
vn 0.014544 -0.029235 -0.999467
vt 2.761007 0.741641
v -14945.285156 336.086365 -5755.987305
vn 0.000283 -0.024963 -0.999688
vt 2.759027 0.294613
v -14944.458008 265.514404 -5761.469238
vn 0.040529 0.591403 -0.805357
vt 3.187044 0.319055
v -15095.339844 444.810516 -5785.537598
vn -0.347653 -0.062532 -0.935536
vt 3.463081 0.741805
v -15095.284180 667.707275 -5785.153320
vn -0.512821 -0.639714 -0.572521
vt 3.281123 0.741641
v -14945.285156 637.332275 -5785.153320
vn -0.235294 -0.518718 -0.821930
vt 3.297734 0.294613
v -14945.312500 488.330017 -5785.345703
vn 0.005203 -0.038566 -0.999242
vt 3.476491 0.294695
v -14900.221680 631.975342 -6262.505371
vn -0.153479 -0.585415 0.796073
vt 2.771760 0.160315
v -14993.971680 650.062500 -6250.652832
vn -0.153976 -0.583716 0.797224
vt 2.792647 0.439710
v -14961.984375 439.517303 -6290.509277
vn 0.138820 -0.056861 0.988684
vt 2.587074 0.344380
v -14806.470703 613.888245 -6274.357910
vn 0.112044 -0.587120 0.801708
vt 2.750873 -0.119080
v -15095.285156 335.194214 -5755.987305
vn 0.014544 -0.029235 -0.999467
vt 3.761007 0.741641
v -14945.285156 336.086365 -5755.987305
vn 0.000283 -0.024963 -0.999688
vt 3.759027 0.294613
v -14926.194336 200.169189 -6298.135254
vn -0.101750 -0.019605 0.994617
vt 2.022978 0.237720
v -14958.723633 -332.832855 -5879.915039
vn -0.296259 0.706076 -0.643186
vt 0.815253 0.334663
v -15122.163086 -346.819733 -5881.649902
vn -0.330112 0.811878 -0.481539
vt 0.816823 0.821742
v -14946.231445 -326.717133 -6248.458496
vn -0.369209 0.645431 0.668658
vt 1.208326 0.297434
v -14795.101563 -258.745544 -6234.852539
vn -0.577560 0.610588 0.541856
vt 1.185175 -0.152963
v -14921.796875 -219.098358 -6301.779297
vn -0.128708 0.139549 0.981815
vt 1.282356 0.224614
v -14227.541016 377.656738 -6317.693848
vn 0.141943 -0.113083 0.983394
vt 2.467173 -1.940530
v -14232.823242 476.214539 -6257.488281
vn -0.317151 -0.252508 0.914142
vt 2.670558 -1.940530
v -14406.779297 433.366943 -6281.428223
vn -0.135252 0.011551 0.990744
vt 2.591684 -1.446592
v -14414.330078 346.642303 -6281.428223
vn 0.127506 0.002553 0.991834
vt 2.450570 -1.424087
v -14206.037109 125.885727 -6299.869629
vn -0.006179 0.130138 0.991477
vt 1.908923 -1.940530
v -14216.789063 251.771271 -6335.185547
vn 0.246057 0.051727 0.967874
vt 2.239417 -1.940530
v -14421.881836 259.917694 -6281.428223
vn 0.206751 0.025348 0.978065
vt 2.226738 -1.401582
v -14392.683594 145.418243 -6281.428223
vn 0.174850 0.008024 0.984562
vt 1.834216 -1.488597
v -14570.285156 633.257690 -5785.153320
vn -0.095432 -0.521106 -0.848140
vt 3.300102 -0.822957
v -14795.285156 346.216980 -5755.987305
vn -0.026024 -0.042195 -0.998770
vt 3.757053 -0.152415
v -14570.285156 101.422890 -5771.330078
vn -0.046898 0.031516 -0.998402
vt 0.236532 -0.822958
v -14795.285156 -48.938713 -5831.428223
vn 0.075394 0.026904 -0.996791
vt 0.581897 -0.152416
v -14795.369141 139.096695 -5810.817383
vn 0.097886 -0.076453 -0.992257
vt 0.263772 -0.153816
v -14571.448242 191.380051 -5783.005859
vn 0.020051 -0.218866 -0.975549
vt -0.000868 -0.822632
v -14581.930664 223.303055 -6252.512695
vn 0.051295 0.100382 0.993626
vt 2.121488 -0.788251
v -14363.486328 30.918762 -6281.428223
vn -0.081002 0.138949 0.986981
vt 1.531737 -1.575613
v -14795.285156 -155.816483 -5831.428223
vn 0.026361 0.008789 -0.999614
vt 0.687335 -0.152416
v -14795.285156 -242.147690 -5831.428223
vn -0.215027 0.255799 -0.942513
vt 0.752588 -0.152416
v -14570.285156 -149.915268 -6239.491211
vn -0.675516 0.521153 0.521611
vt 1.254887 -0.822959
v -14440.014648 -74.957497 -6238.819824
vn -0.684183 0.526721 0.504438
vt 1.314968 -1.211187
v -14309.745117 0.000273 -6238.147949
vn -0.337755 0.703910 0.624846
vt 1.408029 -1.599416
v -14570.284180 -149.915283 -5877.234375
vn -0.750876 0.536141 -0.385666
vt 0.738540 -0.822959
v -14682.784180 -224.873062 -5877.707031
vn -0.666641 0.548510 -0.504704
vt 0.782005 -0.487687
v -14795.285156 -279.284271 -5878.179688
vn -0.548058 0.661930 -0.511352
vt 0.813581 -0.152416
v -14285.874023 0.000273 -6238.148438
vn -0.337189 0.702034 0.627258
vt 1.408029 -1.769973
v -14682.693359 -219.399475 -6237.171875
vn -0.620482 0.540560 0.568153
vt 1.212852 -0.487961
v -14391.039063 589.232910 -5958.781250
vn -0.090295 -0.995298 -0.035054
vt 3.131659 -1.493500
v -14391.039063 590.767578 -6054.504395
vn -0.770862 -0.636612 -0.022296
vt 3.008384 -1.493500
v -14391.039063 592.283447 -6149.055664
vn -0.447514 -0.882480 0.144779
vt 2.886883 -1.493500
v -14227.168945 520.117065 -6164.662598
vn -0.635044 -0.499901 0.588913
vt 2.814806 -1.940530
v -14981.799805 646.879944 -6134.277832
vn -0.403918 -0.914688 -0.014016
vt 2.916778 0.403436
v -15159.925781 681.604370 -6116.499512
vn -0.140312 -0.988824 -0.050399
vt 2.941267 0.934285
v -15181.473633 686.236755 -6226.948242
vn -0.348798 -0.754319 0.556186
vt 2.829832 0.998500
v -15095.284180 -49.830830 -5831.428223
vn -0.441035 0.021763 -0.897226
vt 0.583029 0.741641
v -14945.285156 -49.384769 -5831.428223
vn 0.000016 0.024054 -0.999711
vt 0.582464 0.294612
v -14250.806641 319.661163 -5871.876953
vn 0.422052 0.377130 -0.824406
vt 3.570998 -1.998503
v -14198.211914 209.155075 -5759.971191
vn 0.499246 -0.051270 -0.864942
vt 3.868683 -1.940530
v -14570.501953 280.718109 -5763.155273
vn -0.167076 0.507503 -0.845297
vt 3.940692 -0.858185
v -14570.501953 280.718109 -5763.155273
vn -0.167076 0.507503 -0.845297
vt 2.940692 -0.858185
v -14794.463867 266.066162 -5761.639648
vn -0.048402 0.582633 -0.811293
vt 3.164662 -0.136924
v -14795.285156 346.216980 -5755.987305
vn -0.026024 -0.042195 -0.998770
vt 2.757053 -0.152415
v -14795.455078 266.258789 -5873.892578
vn 0.043216 0.403299 -0.914047
vt 2.945648 -0.155217
v -14795.369141 139.096695 -5810.817383
vn 0.097886 -0.076453 -0.992257
vt 3.263772 -0.153816
v -14945.360352 143.973053 -5810.586914
vn -0.025333 -0.088563 -0.995748
vt 3.250094 0.293185
v -14945.436523 267.219055 -5888.397461
vn 0.032672 0.376320 -0.925913
vt 2.917724 0.291758
v -14795.455078 266.258789 -5873.892578
vn 0.043216 0.403299 -0.914047
vt 3.945648 -0.155217
v -14795.193359 -275.990997 -6056.516113
vn -0.656874 0.752237 0.051535
vt 0.995321 -0.152689
v -14952.477539 -330.855438 -6064.186523
vn -0.432884 0.901251 0.018935
vt 1.003508 0.316048
v -15109.762695 -345.315735 -6071.857422
vn -0.142650 0.989479 0.024137
vt 1.012003 0.784786
v -15097.362305 -342.746002 -6262.064453
vn -0.465717 0.830193 0.306411
vt 1.229805 0.747830
v -14308.869141 0.000265 -6056.428711
vn -0.485981 0.873967 0.002039
vt 0.987905 -1.602026
v -14439.577148 -74.957504 -6057.395508
vn -0.790540 0.612407 0.002156
vt 0.993153 -1.212492
v -14439.138672 -74.957512 -5875.971680
vn -0.722027 0.563933 -0.400820
vt 0.674520 -1.213798
v -14307.993164 0.000257 -5874.708984
vn -0.438126 0.710886 -0.550170
vt 0.576709 -1.604637
v -14252.077148 0.000264 -6047.389648
vn 0.164016 0.977010 0.136197
vt 0.963719 -1.771278
v -14570.285156 -149.915283 -6058.362793
vn -0.809580 0.586981 0.005770
vt 0.996108 -0.822959
v -14705.229492 -239.808304 -6057.254883
vn -0.751310 0.659560 0.022677
vt 0.995591 -0.420797
v -14198.950195 -13.999220 -6035.990234
vn 0.408485 0.894632 0.181034
vt 0.939637 -1.940530
v -14251.638672 0.000257 -5874.708496
vn -0.014799 0.674983 -0.737685
vt 0.576708 -1.772583
v -14201.148438 5.145450 -5871.989258
vn -0.043227 0.616673 -0.786031
vt 0.576707 -1.940530
v -15095.766602 174.209198 -5806.073242
vn -0.556596 -0.138023 -0.819237
vt 0.236251 0.743076
v -14945.360352 143.973053 -5810.586914
vn -0.025333 -0.088563 -0.995748
vt 0.250094 0.293185
v -15099.894531 277.417816 -5879.237793
vn -0.241616 0.390820 -0.888190
vt 2.889473 0.744511
v -15049.941406 -200.187622 -6320.824219
vn -0.672429 0.163003 0.721990
vt 1.313882 0.606508
v -14900.083984 -35.898369 -6319.309082
vn -0.201333 0.011630 0.979454
vt 1.472533 0.159904
v -15019.425781 -25.802500 -6345.607422
vn -0.859915 0.000877 0.510436
vt 1.517690 0.515566
v -15058.448242 200.169189 -6313.756836
vn -0.633923 -0.121367 0.763814
vt 2.021559 0.631861
v -15044.847656 444.758087 -6275.720215
vn 0.167257 -0.058943 0.984150
vt 2.613811 0.591329
v -15093.080078 325.084045 -6287.344238
vn 0.165292 -0.072069 0.983608
vt 2.331053 0.735070
v -15154.592773 568.117798 -6243.939941
vn 0.169188 -0.045831 0.984518
vt 2.735190 0.918389
v -14574.479492 638.793457 -6154.708008
vn -0.141673 -0.989360 -0.033113
vt 2.892088 -0.810456
v -14805.072266 613.021851 -6213.207031
vn -0.083409 -0.996068 -0.029845
vt 2.819708 -0.123247
v -14803.673828 612.155518 -6152.056641
vn -0.084238 -0.996021 -0.029090
vt 2.888544 -0.127414
v -14573.082031 636.948181 -6031.522949
vn -0.144378 -0.988988 -0.032527
vt 3.034294 -0.814623
v -14800.877930 610.422729 -6029.755371
vn -0.086532 -0.995840 -0.028541
vt 3.038656 -0.135747
v -14798.081055 608.690002 -5907.454590
vn -0.061383 -0.998043 0.011900
vt 3.185815 -0.144081
v -14571.683594 635.102905 -5908.338379
vn -0.146578 -0.988660 -0.032666
vt 3.174318 -0.818790
v -14969.628906 643.697388 -6017.903320
vn -0.406899 -0.913381 -0.012995
vt 3.049368 0.367161
v -14957.457031 640.514832 -5901.528320
vn -0.410270 -0.911870 -0.013117
vt 3.179607 0.330887
v -15138.378906 676.972046 -6006.050781
vn -0.248006 -0.967777 -0.043599
vt 3.058585 0.870070
v -15116.832031 672.339661 -5895.602051
vn -0.259538 -0.965156 -0.033377
vt 3.174195 0.805856
v -14198.888672 27.971727 -6203.040039
vn -0.560219 0.611889 0.558343
vt 1.408030 -1.940530
v -14795.455078 266.258789 -5873.892578
vn 0.043216 0.403299 -0.914047
vt -0.054352 -0.155217
v -14572.612305 281.337189 -5891.621094
vn -0.123577 0.283631 -0.950938
vt -0.238267 -0.822306
v -14795.285156 -48.938713 -5831.428223
vn 0.075394 0.026904 -0.996791
vt 3.581897 -0.152416
v -14945.285156 -49.384769 -5831.428223
vn 0.000016 0.024054 -0.999711
vt 3.582464 0.294612
v -15099.894531 277.417816 -5879.237793
vn -0.241616 0.390820 -0.888190
vt -0.110527 0.744511
v -14945.436523 267.219055 -5888.397461
vn 0.032672 0.376320 -0.925913
vt -0.082276 0.291758
v -15127.710938 449.998901 -6260.931152
vn -0.395123 -0.114818 0.911424
vt 2.640547 0.838278
v -14345.285156 248.974609 -5831.428223
vn 0.158145 -0.282205 -0.946230
vt 2.815172 -1.493501
v -14570.285156 101.422890 -5771.330078
vn -0.046898 0.031516 -0.998402
vt 3.236532 -0.822958
v -14571.448242 191.380051 -5783.005859
vn 0.020051 -0.218866 -0.975549
vt 2.999132 -0.822632
f 150/150/150 151/151/151 152/152/152
f 16/16/16 17/17/17 15/15/15
f 18/18/18 15/15/15 17/17/17
f 15/15/15 18/18/18 71/71/71
f 20/20/20 71/71/71 18/18/18
f 71/71/71 20/20/20 72/72/72
f 77/77/77 72/72/72 20/20/20
f 72/72/72 77/77/77 95/95/95
f 40/40/40 95/95/95 77/77/77
f 95/95/95 40/40/40 94/94/94
f 39/39/39 94/94/94 40/40/40
f 17/17/17 120/120/120 18/18/18
f 21/21/21 18/18/18 120/120/120
f 18/18/18 21/21/21 20/20/20
f 22/22/22 20/20/20 21/21/21
f 20/20/20 22/22/22 77/77/77
f 78/78/78 77/77/77 22/22/22
f 77/77/77 78/78/78 40/40/40
f 37/37/37 40/40/40 78/78/78
f 40/40/40 37/37/37 39/39/39
f 38/38/38 39/39/39 37/37/37
f 84/84/84 78/78/78 22/22/22
f 78/78/78 84/84/84 37/37/37
f 56/56/56 37/37/37 84/84/84
f 37/37/37 56/56/56 38/38/38
f 57/57/57 38/38/38 56/56/56
f 109/109/109 57/57/57 56/56/56
f 118/118/118 119/119/119 120/120/120
f 114/114/114 120/120/120 119/119/119
f 120/120/120 114/114/114 21/21/21
f 22/22/22 21/21/21 114/114/114
f 118/118/118 115/115/115 119/119/119
f 111/111/111 119/119/119 115/115/115
f 119/119/119 111/111/111 114/114/114
f 113/113/113 114/114/114 111/111/111
f 114/114/114 113/113/113 22/22/22
f 111/111/111 112/112/112 113/113/113
f 111/111/111 81/81/81 112/112/112
f 81/81/81 111/111/111 85/85/85
f 115/115/115 85/85/85 111/111/111
f 85/85/85 115/115/115 142/142/142
f 118/118/118 142/142/142 115/115/115
f 142/142/142 65/65/65 85/85/85
f 76/76/76 85/85/85 65/65/65
f 85/85/85 76/76/76 81/81/81
f 124/124/124 110/110/110 58/58/58
f 109/109/109 58/58/58 110/110/110
f 58/58/58 109/109/109 108/108/108
f 56/56/56 108/108/108 109/109/109
f 108/108/108 56/56/56 107/107/107
f 84/84/84 107/107/107 56/56/56
f 107/107/107 84/84/84 83/83/83
f 22/22/22 83/83/83 84/84/84
f 83/83/83 22/22/22 82/82/82
f 113/113/113 82/82/82 22/22/22
f 82/82/82 113/113/113 116/116/116
f 112/112/112 116/116/116 113/113/113
f 116/116/116 112/112/112 80/80/80
f 81/81/81 80/80/80 112/112/112
f 80/80/80 81/81/81 29/29/29
f 76/76/76 29/29/29 81/81/81
f 29/29/29 76/76/76 30/30/30
f 68/68/68 30/30/30 76/76/76
f 83/83/83 116/116/116 117/117/117
f 116/116/116 83/83/83 82/82/82
f 80/80/80 79/79/79 116/116/116
f 86/86/86 116/116/116 79/79/79
f 116/116/116 86/86/86 117/117/117
f 107/107/107 117/117/117 86/86/86
f 117/117/117 107/107/107 83/83/83
f 107/107/107 58/58/58 108/108/108
f 58/58/58 107/107/107 59/59/59
f 86/86/86 59/59/59 107/107/107
f 59/59/59 86/86/86 28/28/28
f 79/79/79 28/28/28 86/86/86
f 28/28/28 79/79/79 29/29/29
f 80/80/80 29/29/29 79/79/79
f 28/28/28 58/58/58 59/59/59
f 58/58/58 28/28/28 60/60/60
f 28/28/28 27/27/27 60/60/60
f 27/27/27 28/28/28 26/26/26
f 29/29/29 26/26/26 28/28/28
f 26/26/26 29/29/29 30/30/30
f 25/25/25 27/27/27 26/26/26
f 49/49/49 50/50/50 51/51/51
f 50/50/50 49/49/49 133/133/133
f 132/132/132 133/133/133 49/49/49
f 133/133/133 132/132/132 5/5/5
f 52/52/52 5/5/5 132/132/132
f 5/5/5 52/52/52 6/6/6
f 23/23/23 6/6/6 52/52/52
f 6/6/6 23/23/23 25/25/25
f 24/24/24 25/25/25 23/23/23
f 25/25/25 24/24/24 27/27/27
f 125/125/125 27/27/27 24/24/24
f 27/27/27 125/125/125 60/60/60
f 124/124/124 60/60/60 125/125/125
f 60/60/60 124/124/124 58/58/58
f 125/125/125 24/24/24 55/55/55
f 23/23/23 55/55/55 24/24/24
f 55/55/55 23/23/23 51/51/51
f 52/52/52 51/51/51 23/23/23
f 51/51/51 52/52/52 49/49/49
f 132/132/132 49/49/49 52/52/52
f 124/124/124 125/125/125 126/126/126
f 55/55/55 126/126/126 125/125/125
f 126/126/126 55/55/55 127/127/127
f 51/51/51 127/127/127 55/55/55
f 127/127/127 51/51/51 128/128/128
f 128/128/128 129/129/129 127/127/127
f 133/133/133 131/131/131 134/134/134
f 131/131/131 133/133/133 5/5/5
f 88/88/88 134/134/134 131/131/131
f 135/135/135 134/134/134 136/136/136
f 134/134/134 135/135/135 133/133/133
f 91/91/91 133/133/133 135/135/135
f 133/133/133 91/91/91 50/50/50
f 135/135/135 138/138/138 91/91/91
f 138/138/138 135/135/135 139/139/139
f 136/136/136 139/139/139 135/135/135
f 139/139/139 136/136/136 47/47/47
f 9/9/9 47/47/47 136/136/136
f 47/47/47 9/9/9 48/48/48
f 136/136/136 10/10/10 9/9/9
f 136/136/136 69/69/69 10/10/10
f 11/11/11 10/10/10 69/69/69
f 10/10/10 11/11/11 9/9/9
f 12/12/12 9/9/9 11/11/11
f 9/9/9 12/12/12 48/48/48
f 54/54/54 48/48/48 12/12/12
f 48/48/48 54/54/54 53/53/53
f 128/128/128 149/149/149 129/129/129
f 149/149/149 128/128/128 130/130/130
f 51/51/51 130/130/130 128/128/128
f 130/130/130 51/51/51 93/93/93
f 50/50/50 93/93/93 51/51/51
f 93/93/93 50/50/50 92/92/92
f 91/91/91 92/92/92 50/50/50
f 92/92/92 91/91/91 140/140/140
f 138/138/138 140/140/140 91/91/91
f 140/140/140 138/138/138 141/141/141
f 139/139/139 141/141/141 138/138/138
f 141/141/141 139/139/139 46/46/46
f 47/47/47 46/46/46 139/139/139
f 46/46/46 47/47/47 45/45/45
f 48/48/48 45/45/45 47/47/47
f 45/45/45 48/48/48 53/53/53
f 30/30/30 68/68/68 26/26/26
f 67/67/67 26/26/26 68/68/68
f 26/26/26 67/67/67 75/75/75
f 64/64/64 75/75/75 67/67/67
f 75/75/75 64/64/64 25/25/25
f 63/63/63 25/25/25 64/64/64
f 25/25/25 63/63/63 6/6/6
f 7/7/7 6/6/6 63/63/63
f 6/6/6 7/7/7 5/5/5
f 8/8/8 5/5/5 7/7/7
f 5/5/5 8/8/8 131/131/131
f 89/89/89 131/131/131 8/8/8
f 131/131/131 89/89/89 88/88/88
f 87/87/87 88/88/88 89/89/89
f 88/88/88 87/87/87 134/134/134
f 137/137/137 134/134/134 87/87/87
f 134/134/134 137/137/137 136/136/136
f 69/69/69 136/136/136 137/137/137
f 8/8/8 7/7/7 62/62/62
f 63/63/63 62/62/62 7/7/7
f 62/62/62 63/63/63 61/61/61
f 64/64/64 61/61/61 63/63/63
f 61/61/61 64/64/64 66/66/66
f 67/67/67 66/66/66 64/64/64
f 66/66/66 67/67/67 65/65/65
f 68/68/68 65/65/65 67/67/67
f 65/65/65 68/68/68 76/76/76
f 89/89/89 8/8/8 90/90/90
f 62/62/62 90/90/90 8/8/8
f 87/87/87 89/89/89 1/1/1
f 90/90/90 1/1/1 89/89/89
f 4/4/4 87/87/87 1/1/1
f 87/87/87 4/4/4 137/137/137
f 3/3/3 1/1/1 2/2/2
f 1/1/1 3/3/3 4/4/4
f 69/69/69 4/4/4 3/3/3
f 4/4/4 69/69/69 137/137/137
f 3/3/3 11/11/11 69/69/69
f 11/11/11 3/3/3 14/14/14
f 2/2/2 14/14/14 3/3/3
f 14/14/14 2/2/2 13/13/13
f 12/12/12 11/11/11 19/19/19
f 14/14/14 19/19/19 11/11/11
f 19/19/19 14/14/14 31/31/31
f 13/13/13 31/31/31 14/14/14
f 31/31/31 13/13/13 32/32/32
f 32/32/32 96/96/96 31/31/31
f 36/36/36 31/31/31 96/96/96
f 32/32/32 97/97/97 96/96/96
f 33/33/33 96/96/96 97/97/97
f 96/96/96 33/33/33 36/36/36
f 35/35/35 36/36/36 33/33/33
f 36/36/36 35/35/35 31/31/31
f 98/98/98 31/31/31 35/35/35
f 31/31/31 98/98/98 19/19/19
f 70/70/70 19/19/19 98/98/98
f 19/19/19 70/70/70 12/12/12
f 54/54/54 12/12/12 70/70/70
f 33/33/33 34/34/34 35/35/35
f 98/98/98 35/35/35 106/106/106
f 42/42/42 43/43/43 41/41/41
f 44/44/44 41/41/41 43/43/43
f 41/41/41 44/44/44 123/123/123
f 105/105/105 123/123/123 44/44/44
f 43/43/43 101/101/101 44/44/44
f 100/100/100 44/44/44 101/101/101
f 44/44/44 100/100/100 102/102/102
f 99/99/99 102/102/102 100/100/100
f 99/99/99 100/100/100 101/101/101
f 102/102/102 105/105/105 44/44/44
f 105/105/105 102/102/102 104/104/104
f 103/103/103 104/104/104 102/102/102
f 104/104/104 103/103/103 146/146/146
f 145/145/145 146/146/146 103/103/103
f 147/147/147 148/148/148 121/121/121
f 122/122/122 121/121/121 148/148/148
f 121/121/121 122/122/122 94/94/94
f 95/95/95 94/94/94 122/122/122
f 74/74/74 143/143/143 144/144/144
f 143/143/143 74/74/74 73/73/73
f 71/71/71 73/73/73 74/74/74
f 73/73/73 71/71/71 72/72/72
