mtllib MIRKWOOD_MIRK_PLAYSURFACE11.mtl
g k_PlaySurface11
usemtl Material_#3609
v -13467.243164 370.858276 -5802.527344
vn -0.038312 0.859029 -0.510492
vt 0.465738 -0.396928
v -13484.911133 370.082153 -5790.924316
vn -0.107448 0.926476 -0.360691
vt 0.465323 -0.291487
v -13419.289063 372.215088 -5690.238770
vn 0.029417 0.972343 -0.231697
vt 0.807077 -0.285253
v -13365.258789 370.218933 -5711.841797
vn 0.397484 0.809815 -0.431517
vt 0.841192 -0.569303
v -13345.292969 0.000235 -5369.174316
vn 0.043599 -0.113515 0.992579
vt 1.683496 0.999001
v -13349.464844 100.000221 -5347.687012
vn 0.132182 -0.109119 0.985201
vt 1.727758 0.539831
v -13450.157227 100.000221 -5334.375977
vn -0.138803 -0.166761 0.976179
vt 1.600416 0.539831
v -13445.283203 0.000235 -5369.174316
vn -0.514716 -0.112231 0.849983
vt 1.525767 0.999001
v -13235.661133 0.000240 -5481.698242
vn 0.727934 0.049603 -0.683851
vt 0.409816 0.999001
v -13268.889648 100.000221 -5481.750488
vn 0.719440 -0.009819 -0.694485
vt 0.462356 0.539831
v -13145.283203 100.000221 -5369.174316
vn 0.727934 0.049603 -0.683851
vt 0.000999 0.539831
v -13145.283203 0.000235 -5369.174316
vn 0.779656 0.000000 -0.626208
vt 0.000999 0.999001
v -13520.283203 -64.476189 -5867.621582
vn 0.094070 -0.170328 -0.980887
vt 1.771954 0.999001
v -13520.283203 100.000244 -5935.566895
vn -0.027822 0.076774 -0.996660
vt 1.932724 0.539831
v -13445.283203 100.000244 -5913.577148
vn 0.478919 -0.034769 -0.877170
vt 1.762384 0.539831
v -13445.283203 -64.476189 -5856.541016
vn 0.792516 -0.058064 -0.607080
vt 1.627426 0.999001
v -13595.283203 -64.476196 -5740.913086
vn -1.000000 0.000000 0.000000
vt 0.409552 0.999001
v -13595.283203 100.000237 -5783.742188
vn -1.000000 0.000000 0.000000
vt 0.308210 0.539831
v -13595.283203 100.000244 -5913.577148
vn -0.635781 0.036899 -0.770987
vt 0.000999 0.539831
v -13595.283203 -64.476189 -5856.541016
vn -0.589262 -0.134669 -0.796640
vt 0.135956 0.999001
v -13520.283203 -64.476212 -5444.174316
vn -0.752720 -0.019873 0.658041
vt 1.229995 0.999001
v -13523.096680 100.000221 -5424.085449
vn -0.777651 -0.085274 0.622886
vt 1.273090 0.539831
v -13595.330078 100.000229 -5518.842285
vn -0.885421 -0.016115 0.464510
vt 0.934937 0.539831
v -13595.283203 -64.476204 -5519.174316
vn -0.923958 -0.000460 0.382494
vt 0.934224 0.999001
v -13191.044922 200.000198 -5400.852539
vn 0.264856 0.143685 0.953523
vt 1.080660 -0.431858
v -13276.893555 200.000198 -5364.549805
vn 0.520988 0.163104 0.837836
vt 1.080661 0.024937
v -13250.695313 100.000221 -5367.904785
vn 0.233986 0.013066 0.972152
vt 1.539831 -0.093090
v -13145.283203 100.000221 -5369.174316
vn 0.012010 0.071072 0.997399
vt 1.539830 -0.534147
v -13190.909180 429.473389 -5401.444824
vn 0.121902 -0.104056 0.987073
vt 0.026988 -0.434062
v -13242.534180 435.133423 -5393.727051
vn -0.153222 0.154416 0.976052
vt 0.000999 -0.198419
v -13283.505859 415.759247 -5393.262207
vn 0.087007 0.285727 0.954353
vt 0.089960 -0.027066
v -13322.709961 317.302460 -5409.500488
vn 0.509381 -0.007912 0.860505
vt 0.542044 0.090726
v -13255.005859 314.878815 -5445.929688
vn 0.984143 -0.028126 0.175134
vt 0.553172 -0.291108
v -13190.909180 429.473389 -5401.444824
vn 0.969307 -0.228826 0.089904
vt 0.026988 -0.434062
v -13431.961914 200.000229 -5859.166504
vn 0.608843 0.057075 -0.791235
vt 1.612625 0.080661
v -13350.239258 200.000214 -5724.706055
vn 0.856869 -0.229405 -0.461681
vt 1.165556 0.080661
v -13407.041016 100.000237 -5732.595215
vn 0.959894 -0.110523 -0.257661
vt 1.273825 0.539831
v -13426.041016 354.779297 -5828.597168
vn 0.392346 0.465476 -0.793345
vt 1.530953 -0.630039
v -13325.463867 350.151855 -5728.622070
vn 0.683565 0.513533 -0.518673
vt 1.135740 -0.608791
v -13285.854492 283.889954 -5748.018555
vn 0.831995 0.042114 -0.553183
vt 1.119154 -0.304536
v -13403.225586 291.068207 -5839.769531
vn 0.357877 0.025961 -0.933408
vt 1.521399 -0.337496
v -13456.993164 200.000198 -5285.573242
vn -0.358680 -0.059863 0.931539
vt 1.705109 0.080661
v -13527.985352 200.000198 -5389.185059
vn -0.827216 0.010317 0.561790
vt 1.347959 0.080661
v -13450.157227 308.414948 -5334.375977
vn -0.507709 0.143270 0.849532
vt 1.600416 -0.417147
v -13446.273438 397.706451 -5362.106445
vn -0.177035 0.266299 0.947493
vt 1.540929 -0.827147
v -13476.186523 412.706268 -5400.077637
vn -0.420511 0.670255 0.611497
vt 1.403895 -0.896022
v -13520.283203 403.861115 -5444.174316
vn -0.720949 0.069750 0.689469
vt 1.229995 -0.855408
v -13523.096680 302.678223 -5424.085449
vn -0.766532 0.052850 0.640028
vt 1.273090 -0.390806
v -13595.283203 200.000229 -5856.541016
vn -0.474027 0.209155 -0.855309
vt 0.919339 -0.014928
v -13517.451172 200.000229 -5868.987305
vn -0.028248 0.211074 -0.977062
vt 0.919339 -0.372436
v -13520.283203 100.000244 -5935.566895
vn -0.027822 0.076774 -0.996660
vt 0.460169 -0.544919
v -13595.283203 100.000244 -5913.577148
vn -0.635781 0.036899 -0.770987
vt 0.460169 -0.172758
v -13595.053711 354.447296 -5819.286621
vn 0.003751 0.330591 -0.943767
vt 1.775532 -0.628514
v -13514.133789 353.378021 -5822.185547
vn -0.132017 0.430911 -0.892685
vt 1.654744 -0.623604
v -13501.522461 290.634949 -5828.361328
vn -0.090809 0.126424 -0.987811
vt 1.649463 -0.335507
v -13594.183594 289.435730 -5819.712891
vn -0.095402 0.102556 -0.990142
vt 1.775167 -0.330000
v -13596.657227 200.000214 -5509.361816
vn -0.911996 -0.025569 0.409402
vt 0.955274 0.080661
v -13595.283203 200.000214 -5619.522461
vn -0.999922 0.000702 -0.012476
vt 0.696783 0.080661
v -13595.283203 100.000229 -5632.189453
vn -0.999922 0.000702 -0.012476
vt 0.666811 0.539831
v -13595.283203 397.022522 -5519.174316
vn -0.886760 0.020902 0.461758
vt 0.934224 -0.824007
v -13595.283203 391.384705 -5619.179199
vn -0.999922 -0.012388 0.001571
vt 0.697595 -0.798120
v -13592.685547 298.110504 -5620.436523
vn -0.999922 -0.012388 0.001571
vt 0.698718 -0.369832
v -13595.330078 300.000183 -5518.842285
vn -0.899417 0.034991 0.435689
vt 0.934936 -0.378509
v -13255.005859 314.878815 -5445.929688
vn 0.377221 0.248913 0.892046
vt 0.553172 -0.291108
v -13594.183594 289.435730 -5819.712891
vn -0.095402 0.102556 -0.990142
vt 1.330000 0.082417
v -13501.522461 290.634949 -5828.361328
vn -0.090809 0.126424 -0.987811
vt 1.335507 -0.326132
v -13276.103516 367.668579 -5603.568848
vn 0.804409 0.373388 -0.462068
vt 0.761979 -0.689222
v -13253.235352 292.351593 -5614.776855
vn 0.993355 -0.099726 -0.057447
vt 0.752426 -0.343389
v -13190.909180 429.473389 -5401.444824
vn 0.969307 -0.228826 0.089904
vt 0.149330 -0.973012
v -13255.005859 314.878815 -5445.929688
vn 0.984143 -0.028126 0.175134
vt 0.355697 -0.446828
v -13274.886719 306.168060 -5520.294922
vn 0.981081 -0.122085 -0.150254
vt 0.563019 -0.406830
v -13223.487305 427.235748 -5465.988281
vn 0.524491 0.586749 -0.616956
vt 0.353440 -0.962737
v -13245.256836 400.838654 -5499.337891
vn 0.879959 0.162506 -0.446389
vt 0.466691 -0.841530
v -13335.926758 -64.476204 -5594.237793
vn 0.809643 0.124569 -0.573551
vt 0.834269 0.999001
v -13392.928711 100.000229 -5594.327148
vn 0.890501 -0.060746 -0.450907
vt 0.924396 0.539831
v -13384.830078 -64.476196 -5710.601563
vn 0.953282 0.076404 -0.292259
vt 1.186747 0.999001
v -13322.215820 200.000214 -5600.760742
vn 0.945975 -0.246051 -0.211163
vt 0.828074 0.080661
v -13191.044922 200.000198 -5400.852539
vn 0.763223 0.021311 -0.645784
vt 0.148142 0.080660
v -13258.166016 200.000214 -5491.514648
vn 0.839034 -0.046518 -0.542087
vt 0.468544 0.080661
v -13351.136719 411.538025 -5367.536621
vn 0.188266 0.330316 0.924904
vt 0.109342 0.324841
v -13367.014648 314.536224 -5356.785156
vn 0.493574 0.117480 0.861733
vt 0.554745 0.420498
v -13446.273438 397.706451 -5362.106445
vn -0.177035 0.266299 0.947493
vt 0.172853 0.734762
v -13450.157227 308.414948 -5334.375977
vn -0.507709 0.143270 0.849532
vt 0.582853 0.827619
v -13245.288086 0.000235 -5369.174316
vn 0.067214 -0.033991 0.997159
vt 1.999001 -0.119046
v -13349.464844 100.000221 -5347.687012
vn 0.132182 -0.109119 0.985201
vt 1.539831 0.372830
v -13345.292969 0.000235 -5369.174316
vn 0.043599 -0.113515 0.992579
vt 1.999001 0.296055
v -13145.283203 0.000235 -5369.174316
vn 0.012041 0.000000 0.999928
vt 1.999001 0.999001
v -13145.283203 100.000221 -5369.174316
vn 0.012010 0.071072 0.997399
vt 1.999001 0.539831
v -13250.695313 100.000221 -5367.904785
vn 0.233986 0.013066 0.972152
vt 1.835722 0.539831
v -13245.288086 0.000235 -5369.174316
vn 0.067214 -0.033991 0.997159
vt 1.841248 0.999001
v -13355.130859 200.000198 -5311.989258
vn 0.397999 0.065360 0.915055
vt 1.080661 0.495134
v -13456.993164 200.000198 -5285.573242
vn -0.358680 -0.059863 0.931539
vt 1.080661 0.991040
v -13450.157227 100.000221 -5334.375977
vn -0.138803 -0.166761 0.976179
vt 1.539831 0.827619
v -13595.283203 377.758850 -5719.184082
vn -0.999089 -0.030777 -0.029569
vt 0.460966 -0.735554
v -13589.173828 290.884644 -5722.161133
vn -0.999942 -0.002787 0.010442
vt 0.463560 -0.336653
v -13595.283203 373.453613 -5787.900879
vn -0.999982 -0.005982 0.000843
vt 0.298371 -0.715785
v -13595.053711 354.447296 -5819.286621
vn -0.999982 -0.005982 0.000843
vt 0.224468 -0.628514
v -13594.183594 289.435730 -5819.712891
vn -0.998655 -0.006094 0.051487
vt 0.224833 -0.330000
v -13595.283203 -64.476204 -5619.538086
vn -1.000000 0.000000 0.000000
vt 0.696746 0.999001
v -13595.283203 200.000214 -5740.894043
vn -1.000000 0.000000 0.000000
vt 0.409597 0.080661
v -13595.283203 200.000229 -5856.541016
vn -0.474027 0.209155 -0.855309
vt 0.135956 0.080661
v -13426.041016 354.779297 -5828.597168
vn 0.392346 0.465476 -0.793345
vt 1.630039 -0.640091
v -13403.225586 291.068207 -5839.769531
vn 0.357877 0.025961 -0.933408
vt 1.337496 -0.765710
v -13514.133789 353.378021 -5822.185547
vn -0.132017 0.430911 -0.892685
vt 1.623604 -0.256695
v -13595.283203 -64.476189 -5856.541016
vn -0.589262 -0.134669 -0.796640
vt 0.000999 -0.014928
v -13520.283203 -64.476189 -5867.621582
vn 0.094070 -0.170328 -0.980887
vt 0.000999 -0.356900
v -13517.451172 200.000229 -5868.987305
vn -0.028248 0.211074 -0.977062
vt 1.770718 0.080661
v -13595.283203 391.384705 -5619.179199
vn 0.062381 0.965220 -0.253887
vt 0.697595 0.641900
v -13595.283203 397.022522 -5519.174316
vn -0.051686 0.989442 -0.135397
vt 0.934224 0.918634
v -13494.467773 397.818207 -5544.576172
vn -0.035784 0.961707 -0.271734
vt 1.033150 0.429875
v -13512.738281 382.512878 -5652.039551
vn 0.108151 0.949452 -0.294693
vt 0.750052 0.208341
v -13520.283203 403.861115 -5444.174316
vn -0.201731 0.964292 -0.171599
vt 1.229995 0.814864
v -13420.292969 415.500305 -5456.672852
vn -0.240982 0.922540 -0.301410
vt 1.358150 0.365239
v -13476.186523 412.706268 -5400.077637
vn -0.420511 0.670255 0.611497
vt 1.403895 0.753852
v -13371.241211 429.890900 -5398.931641
vn -0.041180 0.773888 0.631982
vt 1.572153 0.321415
v -13541.439453 371.797211 -5754.397461
vn 0.086510 0.988169 -0.126641
vt 0.462582 0.044228
v -13595.283203 377.758850 -5719.184082
vn 0.111743 0.967429 -0.227145
vt 0.460966 0.365166
v -13383.036133 392.239410 -5575.172852
vn -0.051154 0.903656 -0.425193
vt 1.136530 -0.117321
v -13312.644531 389.134399 -5592.949219
vn 0.452285 0.711463 -0.537828
vt 1.205508 -0.458696
v -13321.763672 426.016357 -5470.217285
vn -0.159156 0.909101 -0.384974
vt 1.481526 -0.081217
v -13267.899414 425.160675 -5485.375000
vn 0.426853 0.624280 -0.654271
vt 1.530630 -0.346741
v -13290.148438 435.094574 -5417.122559
vn 0.080968 0.907361 -0.412480
vt 1.657030 -0.065522
v -13190.909180 429.473389 -5401.444824
vn 0.132181 0.963536 -0.232652
vt 1.850670 -0.434062
v -13223.487305 427.235748 -5465.988281
vn 0.524491 0.586749 -0.616956
vt 1.646560 -0.477443
v -13242.534180 435.133423 -5393.727051
vn 0.150869 0.942209 -0.299133
vt 1.787497 -0.198419
v -13569.663086 372.376495 -5788.352539
vn 0.069874 0.882409 -0.465265
vt 0.337716 0.067421
v -13595.283203 373.453613 -5787.900879
vn 0.095165 0.862647 -0.496773
vt 0.298371 0.175014
v -13484.911133 370.082153 -5790.924316
vn -0.107448 0.926476 -0.360691
vt 0.465323 -0.291487
v -13595.053711 354.447296 -5819.286621
vn 0.003751 0.330591 -0.943767
vt 0.224468 0.087211
v -13267.899414 425.160675 -5485.375000
vn 0.426853 0.624280 -0.654271
vt 0.469370 -0.953209
v -13242.534180 435.133423 -5393.727051
vn -0.153222 0.154416 0.976052
vt 1.787497 -0.999001
v -13290.148438 435.094574 -5417.122559
vn -0.147500 0.458211 0.876519
vt 1.657030 -0.998822
v -13283.505859 415.759247 -5393.262207
vn 0.087007 0.285727 0.954353
vt 1.723965 -0.910040
v -13351.136719 411.538025 -5367.536621
vn 0.188266 0.330316 0.924904
vt 1.678153 -0.890658
v -13371.241211 429.890900 -5398.931641
vn -0.041180 0.773888 0.631982
vt 1.572153 -0.974929
v -13426.041016 354.779297 -5828.597168
vn 0.392346 0.465476 -0.793345
vt 0.469047 -0.640091
v -13514.133789 353.378021 -5822.185547
vn -0.132017 0.430911 -0.892685
vt 0.345256 -0.256695
v -13312.644531 389.134399 -5592.949219
vn 0.452285 0.711463 -0.537828
vt 0.794492 -0.787787
v -13365.258789 370.218933 -5711.841797
vn 0.397484 0.809815 -0.431517
vt 1.158808 -0.700933
v -13325.463867 350.151855 -5728.622070
vn 0.683565 0.513533 -0.518673
vt 0.864260 -0.780916
v -13351.136719 411.538025 -5367.536621
vn 0.188266 0.330316 0.924904
vt 1.678153 0.324841
v -13283.505859 415.759247 -5393.262207
vn 0.087007 0.285727 0.954353
vt 1.723965 -0.027066
v -13290.148438 435.094574 -5417.122559
vn -0.147500 0.458211 0.876519
vt 1.657030 -0.065522
f 131/131/131 132/132/132 133/133/133
f 71/71/71 72/72/72 69/69/69
f 72/72/72 71/71/71 73/73/73
f 68/68/68 73/73/73 71/71/71
f 73/73/73 68/68/68 67/67/67
f 40/40/40 67/67/67 68/68/68
f 67/67/67 40/40/40 39/39/39
f 38/38/38 39/39/39 40/40/40
f 69/69/69 70/70/70 71/71/71
f 72/72/72 73/73/73 130/130/130
f 67/67/67 130/130/130 73/73/73
f 130/130/130 67/67/67 138/138/138
f 39/39/39 138/138/138 67/67/67
f 138/138/138 39/39/39 139/139/139
f 79/79/79 70/70/70 78/78/78
f 70/70/70 79/79/79 71/71/71
f 77/77/77 71/71/71 79/79/79
f 71/71/71 77/77/77 68/68/68
f 36/36/36 68/68/68 77/77/77
f 68/68/68 36/36/36 40/40/40
f 41/41/41 40/40/40 36/36/36
f 40/40/40 41/41/41 38/38/38
f 10/10/10 78/78/78 11/11/11
f 78/78/78 10/10/10 79/79/79
f 75/75/75 79/79/79 10/10/10
f 79/79/79 75/75/75 77/77/77
f 37/37/37 77/77/77 75/75/75
f 77/77/77 37/37/37 36/36/36
f 35/35/35 36/36/36 37/37/37
f 36/36/36 35/35/35 41/41/41
f 107/107/107 41/41/41 35/35/35
f 41/41/41 107/107/107 55/55/55
f 37/37/37 15/15/15 35/35/35
f 14/14/14 35/35/35 15/15/15
f 35/35/35 14/14/14 107/107/107
f 15/15/15 13/13/13 14/14/14
f 13/13/13 15/15/15 16/16/16
f 37/37/37 16/16/16 15/15/15
f 16/16/16 37/37/37 76/76/76
f 75/75/75 76/76/76 37/37/37
f 76/76/76 75/75/75 74/74/74
f 10/10/10 74/74/74 75/75/75
f 74/74/74 10/10/10 9/9/9
f 11/11/11 9/9/9 10/10/10
f 9/9/9 11/11/11 12/12/12
f 55/55/55 53/53/53 54/54/54
f 53/53/53 55/55/55 56/56/56
f 18/18/18 17/17/17 99/99/99
f 17/17/17 18/18/18 19/19/19
f 101/101/101 19/19/19 18/18/18
f 19/19/19 20/20/20 17/17/17
f 59/59/59 99/99/99 24/24/24
f 99/99/99 59/59/59 18/18/18
f 100/100/100 18/18/18 59/59/59
f 18/18/18 100/100/100 101/101/101
f 98/98/98 101/101/101 100/100/100
f 23/23/23 24/24/24 21/21/21
f 24/24/24 23/23/23 59/59/59
f 22/22/22 21/21/21 8/8/8
f 21/21/21 22/22/22 23/23/23
f 57/57/57 23/23/23 22/22/22
f 23/23/23 57/57/57 59/59/59
f 58/58/58 59/59/59 57/57/57
f 59/59/59 58/58/58 100/100/100
f 95/95/95 100/100/100 58/58/58
f 100/100/100 95/95/95 98/98/98
f 97/97/97 98/98/98 95/95/95
f 96/96/96 97/97/97 94/94/94
f 95/95/95 94/94/94 97/97/97
f 94/94/94 95/95/95 62/62/62
f 58/58/58 62/62/62 95/95/95
f 62/62/62 58/58/58 63/63/63
f 57/57/57 63/63/63 58/58/58
f 63/63/63 57/57/57 43/43/43
f 22/22/22 43/43/43 57/57/57
f 43/43/43 22/22/22 42/42/42
f 7/7/7 42/42/42 22/22/22
f 7/7/7 5/5/5 6/6/6
f 5/5/5 7/7/7 8/8/8
f 22/22/22 8/8/8 7/7/7
f 62/62/62 61/61/61 94/94/94
f 61/61/61 62/62/62 60/60/60
f 63/63/63 60/60/60 62/62/62
f 60/60/60 63/63/63 48/48/48
f 43/43/43 48/48/48 63/63/63
f 48/48/48 43/43/43 44/44/44
f 42/42/42 44/44/44 43/43/43
f 48/48/48 47/47/47 60/60/60
f 47/47/47 48/48/48 46/46/46
f 44/44/44 46/46/46 48/48/48
f 46/46/46 44/44/44 45/45/45
f 134/134/134 46/46/46 45/45/45
f 46/46/46 134/134/134 135/135/135
f 118/118/118 119/119/119 4/4/4
f 119/119/119 118/118/118 120/120/120
f 113/113/113 120/120/120 118/118/118
f 120/120/120 113/113/113 122/122/122
f 115/115/115 122/122/122 113/113/113
f 120/120/120 121/121/121 119/119/119
f 121/121/121 123/123/123 124/124/124
f 123/123/123 121/121/121 125/125/125
f 120/120/120 125/125/125 121/121/121
f 125/125/125 120/120/120 122/122/122
f 118/118/118 4/4/4 3/3/3
f 1/1/1 3/3/3 4/4/4
f 3/3/3 1/1/1 2/2/2
f 3/3/3 2/2/2 116/116/116
f 113/113/113 118/118/118 110/110/110
f 3/3/3 110/110/110 118/118/118
f 110/110/110 3/3/3 111/111/111
f 116/116/116 111/111/111 3/3/3
f 111/111/111 116/116/116 117/117/117
f 127/127/127 117/117/117 116/116/116
f 117/117/117 108/108/108 111/111/111
f 110/110/110 111/111/111 108/108/108
f 113/113/113 114/114/114 115/115/115
f 114/114/114 113/113/113 112/112/112
f 110/110/110 112/112/112 113/113/113
f 112/112/112 110/110/110 109/109/109
f 108/108/108 109/109/109 110/110/110
f 142/142/142 115/115/115 141/141/141
f 115/115/115 142/142/142 143/143/143
f 128/128/128 126/126/126 116/116/116
f 136/136/136 4/4/4 140/140/140
f 4/4/4 136/136/136 1/1/1
f 137/137/137 1/1/1 136/136/136
f 1/1/1 137/137/137 128/128/128
f 129/129/129 128/128/128 137/137/137
f 128/128/128 129/129/129 126/126/126
f 127/127/127 126/126/126 129/129/129
f 126/126/126 127/127/127 116/116/116
f 31/31/31 29/29/29 30/30/30
f 29/29/29 31/31/31 32/32/32
f 80/80/80 32/32/32 31/31/31
f 32/32/32 80/80/80 81/81/81
f 82/82/82 81/81/81 80/80/80
f 81/81/81 82/82/82 83/83/83
f 91/91/91 83/83/83 92/92/92
f 83/83/83 91/91/91 81/81/81
f 26/26/26 81/81/81 91/91/91
f 81/81/81 26/26/26 32/32/32
f 33/33/33 32/32/32 26/26/26
f 32/32/32 33/33/33 34/34/34
f 26/26/26 25/25/25 64/64/64
f 25/25/25 26/26/26 27/27/27
f 91/91/91 27/27/27 26/26/26
f 27/27/27 91/91/91 85/85/85
f 92/92/92 85/85/85 91/91/91
f 85/85/85 92/92/92 93/93/93
f 27/27/27 28/28/28 25/25/25
f 85/85/85 84/84/84 27/27/27
f 84/84/84 85/85/85 86/86/86
f 50/50/50 65/65/65 66/66/66
f 65/65/65 50/50/50 49/49/49
f 51/51/51 49/49/49 50/50/50
f 49/49/49 51/51/51 52/52/52
f 105/105/105 52/52/52 51/51/51
f 51/51/51 106/106/106 105/105/105
f 66/66/66 102/102/102 103/103/103
f 102/102/102 66/66/66 104/104/104
f 89/89/89 87/87/87 88/88/88
f 87/87/87 89/89/89 90/90/90
