mtllib MIRKWOOD_AREA4_BARRIERD.mtl
g Area4_barrierd
usemtl weba
v -25419.792969 886.787537 -8108.047363
vn 0.715810 0.654550 0.243272
vt 0.002498 0.997501
v -25639.136719 1284.566528 -8356.916992
vn 0.654410 0.704963 -0.273450
vt 1.001498 0.997501
v -25930.052734 1661.470703 -8023.219238
vn 0.710567 0.681891 -0.173550
vt 1.001499 -0.001499
v -25724.542969 949.498901 -7734.133301
vn 0.752975 0.586817 0.297783
vt 0.002498 -0.001499
v -25875.210938 1333.696167 -8557.159180
vn 0.452421 0.697571 -0.555617
vt 2.000499 0.997502
v -26162.673828 1778.928711 -8234.283203
vn 0.470779 0.704569 -0.530989
vt 2.000499 -0.001499
v -26115.138672 1315.878906 -8746.202148
vn 0.350628 0.724643 -0.593256
vt 2.999500 0.997502
v -26402.417969 1755.955078 -8423.072266
vn 0.289648 0.721618 -0.628785
vt 2.999500 -0.001499
v -26356.410156 1274.703003 -8931.336914
vn 0.309431 0.788519 -0.531499
vt 3.998500 0.997502
v -26649.242188 1618.300171 -8592.066406
vn 0.209374 0.765012 -0.609032
vt 3.998501 -0.001499
v -26242.707031 2119.616211 -7669.585449
vn 0.684402 0.726229 -0.064697
vt 1.001499 -1.000500
v -26015.070313 1404.680786 -7401.563965
vn 0.826550 0.545669 0.138060
vt 0.002498 -1.000500
v -26491.800781 2314.413818 -7867.035156
vn 0.354615 0.844017 -0.402348
vt 2.000500 -1.000500
v -26721.712891 2205.001953 -8060.155273
vn 0.180120 0.783343 -0.594921
vt 2.999500 -1.000500
v -26947.990234 1912.639038 -8240.644531
vn 0.099803 0.721482 -0.685203
vt 3.998501 -1.000499
v -26567.257813 2341.221191 -7278.562012
vn 0.361951 0.862946 0.352585
vt 1.001499 -1.999501
v -26321.078125 1601.427246 -7026.049316
vn 0.647930 0.677946 0.347240
vt 0.002498 -1.999501
v -26825.111328 2530.403320 -7464.363770
vn -0.049358 0.996284 0.070587
vt 2.000500 -1.999501
v -27049.550781 2381.041504 -7660.663574
vn -0.269041 0.955390 -0.121848
vt 2.999501 -1.999500
v -26859.833984 2066.120605 -6881.303223
vn 0.027551 0.822843 0.567601
vt 1.001499 -2.998501
v -26623.794922 1751.440308 -6655.987793
vn 0.278216 0.924664 0.259984
vt 0.002499 -2.998502
v -27111.660156 2204.213623 -7069.940430
vn -0.297163 0.818998 0.490853
vt 2.000500 -2.998501
v -27342.968750 2096.922119 -7261.487305
vn -0.503807 0.819814 0.272183
vt 2.999501 -2.998501
v -27176.085938 1737.898560 -6448.992188
vn -0.170756 0.919835 0.353194
vt 1.001500 -3.997502
v -26936.654297 1747.080444 -6258.505371
vn -0.038177 0.999089 -0.019091
vt 0.002499 -3.997502
v -27414.708984 1742.733276 -6641.824219
vn -0.308959 0.818118 0.485002
vt 2.000501 -3.997502
f 10/10/10 7/7/7 9/9/9
f 7/7/7 10/10/10 8/8/8
f 15/15/15 8/8/8 10/10/10
f 8/8/8 15/15/15 14/14/14
f 8/8/8 5/5/5 7/7/7
f 5/5/5 8/8/8 6/6/6
f 14/14/14 6/6/6 8/8/8
f 6/6/6 14/14/14 13/13/13
f 19/19/19 13/13/13 14/14/14
f 13/13/13 19/19/19 18/18/18
f 23/23/23 18/18/18 19/19/19
f 18/18/18 23/23/23 22/22/22
f 6/6/6 2/2/2 5/5/5
f 2/2/2 6/6/6 3/3/3
f 13/13/13 3/3/3 6/6/6
f 3/3/3 13/13/13 11/11/11
f 18/18/18 11/11/11 13/13/13
f 11/11/11 18/18/18 16/16/16
f 22/22/22 16/16/16 18/18/18
f 16/16/16 22/22/22 20/20/20
f 26/26/26 20/20/20 22/22/22
f 20/20/20 26/26/26 24/24/24
f 21/21/21 24/24/24 25/25/25
f 24/24/24 21/21/21 20/20/20
f 17/17/17 20/20/20 21/21/21
f 20/20/20 17/17/17 16/16/16
f 12/12/12 16/16/16 17/17/17
f 16/16/16 12/12/12 11/11/11
f 4/4/4 11/11/11 12/12/12
f 11/11/11 4/4/4 3/3/3
f 1/1/1 3/3/3 4/4/4
f 3/3/3 1/1/1 2/2/2
