mtllib MIRKWOOD_SPIDER_HOLES33.mtl
g Spider_Holes33
usemtl cliffy
v -22831.281250 478.262146 -7408.870117
vn -0.944850 0.093272 0.313942
vt 3.310989 -3.899961
v -22848.693359 505.090576 -7443.461914
vn -0.542293 -0.385171 0.746700
vt 3.374001 -3.815271
v -22884.630859 456.936890 -7464.483887
vn -0.025237 0.302292 0.952881
vt 3.462875 -3.779242
v -22848.271484 435.850067 -7421.981934
vn -0.594494 0.704484 0.387658
vt 3.355242 -3.867270
v -22886.474609 527.478455 -7422.747070
vn 0.073476 -0.793464 0.604166
vt 3.434647 -3.937888
v -22922.664063 497.818634 -7443.144043
vn 0.580109 -0.339004 0.740641
vt 3.523787 -3.909128
v -22940.869141 467.488892 -7408.399414
vn 0.927118 0.130530 0.351305
vt 3.532894 -3.039009
v -22922.244141 428.578094 -7421.664551
vn 0.494140 0.761491 0.419473
vt 3.505028 -2.961128
v -22884.630859 456.936890 -7464.483887
vn -0.025237 0.302292 0.952881
vt 3.462875 -2.779242
v -22922.664063 497.818634 -7443.144043
vn 0.580109 -0.339004 0.740641
vt 3.523787 -2.909128
v -22885.853516 424.899841 -7390.925293
vn -0.093292 0.995282 0.026649
vt 3.406855 -3.014923
v -22848.271484 435.850067 -7421.981934
vn -0.594494 0.704484 0.387658
vt 3.355242 -2.867270
v -22895.521484 652.653870 -7088.047363
vn 0.074316 -0.951948 0.297105
vt 2.471983 -3.287127
v -22845.964844 630.693787 -7083.121582
vn -0.690386 -0.695909 0.197680
vt 2.352335 -3.236517
v -22846.666016 638.958679 -7056.466309
vn -0.282321 -0.033885 0.958721
vt 3.132435 -3.937140
v -22896.220703 660.918762 -7061.391602
vn 0.069706 -0.811098 0.580742
vt 3.296724 -3.980511
v -22820.929688 583.229614 -7070.932129
vn -0.999687 -0.006873 -0.024068
vt 2.270803 -3.247318
v -22821.628906 591.494446 -7044.275879
vn -0.977019 0.091733 0.192401
vt 2.989586 -3.993563
v -22968.873047 568.685730 -7070.297363
vn 0.998469 0.054533 0.009259
vt 2.589102 -2.463129
v -22944.597656 620.997925 -7082.700195
vn 0.757244 -0.617962 0.211433
vt 2.564535 -2.380390
v -22945.294922 629.262756 -7056.043457
vn 0.601412 -0.312927 0.735105
vt 3.382097 -3.137207
v -22969.572266 576.950562 -7043.641113
vn 0.926510 0.195271 0.321633
vt 3.364079 -3.293663
v -22895.521484 652.653870 -7088.047363
vn 0.074316 -0.951948 0.297105
vt 2.471983 -2.287127
v -22896.220703 660.918762 -7061.391602
vn 0.069706 -0.811098 0.580742
vt 3.296724 -2.980511
v -22894.681641 514.172791 -7045.089355
vn -0.080949 0.951405 -0.297111
vt 2.382380 -2.439789
v -22944.035156 528.677124 -7054.060059
vn 0.631723 0.744946 -0.214431
vt 2.504799 -2.482165
v -22944.734375 536.942017 -7027.403809
vn 0.238225 0.679208 0.694209
vt 3.218193 -3.336310
v -22895.380859 522.437683 -7018.433594
vn -0.088931 0.993261 -0.074324
vt 3.050867 -3.279165
v -22820.929688 583.229614 -7070.932129
vn -0.999687 -0.006873 -0.024068
vt 3.270803 -2.247318
v -22845.406250 538.373108 -7054.482910
vn -0.710955 0.666207 -0.225193
vt 3.292597 -2.338291
v -22846.105469 546.637939 -7027.827637
vn -0.628603 0.757834 0.174775
vt 3.968529 -3.136244
v -22821.628906 591.494446 -7044.275879
vn -0.977019 0.091733 0.192401
vt 3.989586 -2.993563
v -22846.105469 546.637939 -7027.827637
vn -0.628603 0.757834 0.174775
vt 2.968529 -3.136244
v -22894.681641 514.172791 -7045.089355
vn -0.080949 0.951405 -0.297111
vt 3.382380 -2.439789
v -22820.929688 583.229614 -7070.932129
vn -0.999687 -0.006873 -0.024068
vt 3.270803 -3.247318
v -22845.964844 630.693787 -7083.121582
vn -0.690386 -0.695909 0.197680
vt 3.352335 -3.236517
v -22844.355469 611.613220 -7144.662109
vn -0.690381 -0.695910 0.197694
vt 3.130836 -2.823252
v -22819.318359 564.148987 -7132.471680
vn -0.999687 -0.006866 -0.024048
vt 3.069740 -2.818846
v -22895.521484 652.653870 -7088.047363
vn 0.074316 -0.951948 0.297105
vt 3.471983 -3.287127
v -22893.910156 633.573242 -7149.587402
vn 0.074335 -0.951949 0.297100
vt 3.235605 -2.876276
v -22891.523438 605.309448 -7240.745117
vn 0.074334 -0.951948 0.297103
vt 3.302317 -3.565129
v -22841.968750 583.349426 -7235.819824
vn -0.690373 -0.695919 0.197691
vt 3.197548 -3.512104
v -22844.355469 611.613220 -7144.662109
vn -0.690381 -0.695910 0.197694
vt 3.130836 -3.823252
v -22893.910156 633.573242 -7149.587402
vn 0.074335 -0.951949 0.297100
vt 3.235605 -3.876276
v -22816.929688 535.885193 -7223.628906
vn -0.999687 -0.006877 -0.024052
vt 3.136454 -3.507697
v -22819.318359 564.148987 -7132.471680
vn -0.999687 -0.006866 -0.024048
vt 3.069740 -3.818846
v -22944.597656 620.997925 -7082.700195
vn 0.757244 -0.617962 0.211433
vt 3.564535 -3.380390
v -22942.984375 601.917297 -7144.239746
vn 0.757241 -0.617967 0.211430
vt 3.330549 -2.948395
v -22968.873047 568.685730 -7070.297363
vn 0.998469 0.054533 0.009259
vt 3.589102 -3.463129
v -22967.261719 549.605103 -7131.837402
vn 0.998470 0.054522 0.009232
vt 3.369312 -3.006561
v -22964.875000 521.341309 -7222.995117
vn 0.998470 0.054527 0.009244
vt 3.436022 -3.695415
v -22940.597656 573.653503 -7235.396973
vn 0.757241 -0.617965 0.211435
vt 3.397263 -3.637248
v -22942.984375 601.917297 -7144.239746
vn 0.757241 -0.617967 0.211430
vt 3.330549 -3.948395
v -22964.875000 521.341309 -7222.995117
vn 0.998470 0.054527 0.009244
vt 3.436022 -2.695415
v -22944.035156 528.677124 -7054.060059
vn 0.631723 0.744946 -0.214431
vt 3.504799 -3.482165
v -22942.423828 509.596527 -7115.599609
vn 0.631713 0.744954 -0.214434
vt 3.305534 -3.017727
v -22894.681641 514.172791 -7045.089355
vn -0.080949 0.951405 -0.297111
vt 3.382380 -3.439789
v -22893.072266 495.092163 -7106.629395
vn -0.080934 0.951408 -0.297107
vt 3.198082 -2.980272
v -22890.683594 466.828369 -7197.786621
vn -0.080944 0.951407 -0.297109
vt 3.264795 -2.669126
v -22940.037109 481.332733 -7206.757324
vn 0.631710 0.744957 -0.214432
vt 3.372246 -2.706579
v -22845.406250 538.373108 -7054.482910
vn -0.710955 0.666207 -0.225193
vt 3.292597 -3.338291
v -22843.796875 519.292480 -7116.023438
vn -0.710951 0.666215 -0.225179
vt 3.105822 -2.892583
v -22841.406250 491.028656 -7207.180176
vn -0.710954 0.666211 -0.225184
vt 3.172533 -3.581436
v -22843.796875 519.292480 -7116.023438
vn -0.710951 0.666215 -0.225179
vt 3.105822 -3.892583
v -22890.683594 466.828369 -7197.786621
vn -0.080944 0.951407 -0.297109
vt 3.264795 -3.669126
v -22893.072266 495.092163 -7106.629395
vn -0.080934 0.951408 -0.297107
vt 3.198082 -3.980272
v -22838.941406 547.534973 -7351.329590
vn -0.683304 -0.663866 0.303936
vt 3.282082 -3.117835
v -22813.906250 500.070770 -7339.139160
vn -0.994597 0.031017 0.099068
vt 3.220985 -3.113429
v -22888.498047 569.494995 -7356.254883
vn 0.068889 -0.908990 0.411085
vt 3.386850 -3.170858
v -22886.474609 527.478455 -7422.747070
vn 0.073476 -0.793464 0.604166
vt 3.434647 -2.937888
v -22848.693359 505.090576 -7443.461914
vn -0.542293 -0.385171 0.746700
vt 3.374001 -2.815271
v -22831.281250 478.262146 -7408.870117
vn -0.944850 0.093272 0.313942
vt 3.310989 -2.899961
v -22937.572266 537.839050 -7350.906738
vn 0.746367 -0.589607 0.308707
vt 3.481794 -3.242978
v -22961.849609 485.526855 -7338.504395
vn 0.986544 0.097346 0.131357
vt 3.520557 -3.301146
v -22940.037109 481.332733 -7206.757324
vn 0.631710 0.744957 -0.214432
vt 3.372246 -3.706579
v -22937.011719 445.518311 -7322.267090
vn 0.623953 0.773702 -0.109853
vt 3.456779 -3.312310
v -22887.658203 431.013977 -7313.296875
vn -0.081625 0.977122 -0.196391
vt 3.349329 -3.274857
v -22838.382813 455.214264 -7322.690918
vn -0.708841 0.693444 -0.129149
vt 3.257067 -3.187166
f 15/15/15 16/16/16 13/13/13
f 13/13/13 14/14/14 15/15/15
f 17/17/17 15/15/15 14/14/14
f 15/15/15 17/17/17 18/18/18
f 76/76/76 75/75/75 65/65/65
f 75/75/75 76/76/76 51/51/51
f 74/74/74 51/51/51 76/76/76
f 51/51/51 74/74/74 73/73/73
f 7/7/7 73/73/73 74/74/74
f 73/73/73 7/7/7 10/10/10
f 9/9/9 10/10/10 7/7/7
f 76/76/76 7/7/7 74/74/74
f 7/7/7 76/76/76 8/8/8
f 8/8/8 9/9/9 7/7/7
f 9/9/9 8/8/8 11/11/11
f 76/76/76 11/11/11 8/8/8
f 11/11/11 76/76/76 77/77/77
f 76/76/76 65/65/65 77/77/77
f 78/78/78 77/77/77 65/65/65
f 77/77/77 78/78/78 11/11/11
f 12/12/12 11/11/11 78/78/78
f 11/11/11 12/12/12 9/9/9
f 78/78/78 72/72/72 12/12/12
f 72/72/72 78/78/78 68/68/68
f 66/66/66 64/64/64 65/65/65
f 63/63/63 65/65/65 64/64/64
f 65/65/65 63/63/63 78/78/78
f 45/45/45 78/78/78 63/63/63
f 78/78/78 45/45/45 68/68/68
f 67/67/67 68/68/68 45/45/45
f 68/68/68 67/67/67 72/72/72
f 71/71/71 72/72/72 67/67/67
f 64/64/64 45/45/45 63/63/63
f 45/45/45 64/64/64 46/46/46
f 67/67/67 70/70/70 71/71/71
f 70/70/70 67/67/67 69/69/69
f 46/46/46 43/43/43 45/45/45
f 42/42/42 45/45/45 43/43/43
f 45/45/45 42/42/42 67/67/67
f 41/41/41 67/67/67 42/42/42
f 67/67/67 41/41/41 69/69/69
f 73/73/73 69/69/69 41/41/41
f 69/69/69 73/73/73 70/70/70
f 10/10/10 70/70/70 73/73/73
f 41/41/41 42/42/42 43/43/43
f 41/41/41 52/52/52 73/73/73
f 52/52/52 51/51/51 73/73/73
f 51/51/51 52/52/52 53/53/53
f 41/41/41 53/53/53 52/52/52
f 53/53/53 41/41/41 44/44/44
f 43/43/43 44/44/44 41/41/41
f 59/59/59 60/60/60 56/56/56
f 54/54/54 56/56/56 60/60/60
f 56/56/56 54/54/54 50/50/50
f 48/48/48 50/50/50 54/54/54
f 50/50/50 48/48/48 49/49/49
f 47/47/47 49/49/49 48/48/48
f 56/56/56 50/50/50 49/49/49
f 56/56/56 58/58/58 59/59/59
f 62/62/62 58/58/58 57/57/57
f 56/56/56 57/57/57 58/58/58
f 57/57/57 56/56/56 55/55/55
f 49/49/49 55/55/55 56/56/56
f 48/48/48 39/39/39 47/47/47
f 39/39/39 48/48/48 40/40/40
f 37/37/37 39/39/39 40/40/40
f 39/39/39 37/37/37 36/36/36
f 35/35/35 36/36/36 37/37/37
f 57/57/57 61/61/61 62/62/62
f 35/35/35 62/62/62 61/61/61
f 62/62/62 35/35/35 38/38/38
f 37/37/37 38/38/38 35/35/35
f 21/21/21 22/22/22 19/19/19
f 27/27/27 19/19/19 22/22/22
f 19/19/19 27/27/27 26/26/26
f 25/25/25 26/26/26 27/27/27
f 27/27/27 28/28/28 25/25/25
f 33/33/33 25/25/25 28/28/28
f 21/21/21 23/23/23 24/24/24
f 23/23/23 21/21/21 20/20/20
f 19/19/19 20/20/20 21/21/21
f 32/32/32 29/29/29 31/31/31
f 30/30/30 31/31/31 29/29/29
f 31/31/31 30/30/30 34/34/34
f 1/1/1 2/2/2 3/3/3
f 5/5/5 3/3/3 2/2/2
f 3/3/3 5/5/5 6/6/6
f 3/3/3 4/4/4 1/1/1
