mtllib MIRKWOOD_SPIDER_HOLES23.mtl
g Spider_Holes23
usemtl cliffy
v -19850.953125 688.066833 -7504.049805
vn -0.655837 -0.633969 -0.409829
vt 3.340066 -2.824746
v -19822.714844 655.767883 -7506.364746
vn -0.886362 0.069437 -0.457757
vt 3.284135 -2.772414
v -19910.664063 668.748291 -7429.162598
vn -0.549676 0.104643 -0.828798
vt 3.401880 -3.143075
v -19913.783203 706.838379 -7441.021484
vn -0.557871 -0.569284 -0.603900
vt 3.418098 -3.118026
v -19852.548828 632.843323 -7498.869141
vn -0.482424 0.722576 -0.495127
vt 3.338453 -2.829281
v -19924.335938 633.913208 -7443.267090
vn -0.284294 0.731092 -0.620227
vt 3.440281 -3.104864
v -20007.259766 650.483398 -7407.491699
vn -0.076724 0.721122 -0.688547
vt 3.580575 -3.333420
v -20015.406250 684.983704 -7377.924805
vn -0.062095 0.098533 -0.993195
vt 3.574245 -3.450476
v -19991.601563 715.172852 -7398.557617
vn -0.358336 -0.514797 -0.778832
vt 3.542633 -3.359927
v -19896.833984 763.603271 -7744.231445
vn -0.789190 -0.541420 -0.289901
vt 3.631340 -3.108006
v -19851.427734 665.851929 -7773.407227
vn -0.924406 0.031389 -0.380117
vt 3.581043 -2.943513
v -19842.019531 663.034851 -7711.903320
vn -0.983461 0.072332 0.166048
vt 3.485640 -3.121227
v -19884.007813 741.816162 -7687.301270
vn -0.717439 -0.694792 -0.050460
vt 3.552529 -3.276953
v -19904.503906 582.906616 -7736.954590
vn -0.631457 0.693680 -0.346511
vt 3.672717 -3.115943
v -19887.906250 597.490479 -7677.939941
vn -0.510040 0.860113 -0.008057
vt 3.551065 -3.274675
v -19861.968750 608.239807 -7608.339355
vn -0.447208 0.893460 0.041647
vt 3.443636 -3.473832
v -19822.447266 658.380066 -7640.098145
vn -0.960797 0.078985 0.265764
vt 3.389177 -3.331734
v -19861.410156 720.368225 -7619.544434
vn -0.670169 -0.742193 0.004757
vt 3.452892 -3.465794
v -20066.662109 564.598938 -7646.608887
vn -0.291090 0.729328 -0.619151
vt 3.916410 -3.610557
v -20032.562500 584.111389 -7598.316406
vn -0.061569 0.963304 -0.261255
vt 3.781629 -3.718980
v -20219.683594 611.723816 -7554.032227
vn 0.101233 0.646950 -0.755783
vt 3.134390 -3.108572
v -20169.820313 623.431030 -7516.920410
vn 0.316297 0.753536 -0.576316
vt 2.996512 -3.173582
v -20032.562500 584.111389 -7598.316406
vn -0.061569 0.963304 -0.261255
vt 2.781629 -2.718980
v -20066.662109 564.598938 -7646.608887
vn -0.291090 0.729328 -0.619151
vt 2.916410 -2.610557
v -20114.437500 631.633728 -7466.708496
vn 0.360467 0.782419 -0.507823
vt 3.844585 -3.270412
v -19991.130859 599.223755 -7538.206055
vn -0.034612 0.974260 -0.222754
vt 3.650307 -2.868147
v -20032.562500 584.111389 -7598.316406
vn -0.061569 0.963304 -0.261255
vt 3.781629 -2.718980
v -20169.820313 623.431030 -7516.920410
vn 0.316297 0.753536 -0.576316
vt 3.996512 -3.173582
v -19991.130859 599.223755 -7538.206055
vn -0.034612 0.974260 -0.222754
vt 3.650307 -3.868147
v -20245.357422 725.076172 -7510.889160
vn 0.313685 0.025665 -0.949180
vt 3.148929 -3.291207
v -20193.525391 715.982666 -7477.645020
vn 0.553781 -0.042396 -0.831582
vt 3.014897 -3.357920
v -20172.550781 823.622498 -7533.376465
vn -0.370281 -0.245731 -0.895828
vt 3.021495 -3.136919
v -20129.353516 795.297424 -7496.934082
vn 0.079357 -0.789362 -0.608777
vt 2.900969 -3.233085
v -20079.867188 768.061707 -7447.313477
vn 0.100043 -0.831094 -0.547060
vt 2.760990 -3.326152
v -20136.396484 705.771667 -7430.855469
vn 0.625129 -0.059606 -0.778242
vt 2.861876 -3.436360
v -20114.437500 631.633728 -7466.708496
vn 0.360467 0.782419 -0.507823
vt 2.844585 -3.270412
v -20030.126953 826.329224 -7637.689453
vn -0.576221 -0.562141 -0.593268
vt 2.813561 -2.624164
v -20002.984375 794.906128 -7591.232422
vn -0.398270 -0.876204 -0.271382
vt 2.718909 -2.760167
v -20002.984375 794.906128 -7591.232422
vn -0.398270 -0.876204 -0.271382
vt 3.718909 -3.760167
v -20030.126953 826.329224 -7637.689453
vn -0.576221 -0.562141 -0.593268
vt 3.813561 -3.624164
v -19967.712891 764.928040 -7532.747559
vn -0.377296 -0.896167 -0.233524
vt 3.600747 -3.899948
v -20079.867188 768.061707 -7447.313477
vn 0.100043 -0.831094 -0.547060
vt 3.760990 -3.326152
v -20129.353516 795.297424 -7496.934082
vn 0.079357 -0.789362 -0.608777
vt 3.900969 -3.233085
v -20002.984375 794.906128 -7591.232422
vn -0.398270 -0.876204 -0.271382
vt 3.718909 -2.760167
v -19967.712891 764.928040 -7532.747559
vn -0.377296 -0.896167 -0.233524
vt 3.600747 -2.899948
v -19804.660156 654.134766 -7574.130371
vn -0.997376 0.072237 0.004844
vt 3.300955 -3.525382
v -19840.826172 700.573730 -7557.327637
vn -0.678659 -0.719588 -0.147021
vt 3.361731 -3.639380
v -19838.291016 618.257568 -7544.413574
vn -0.550220 0.808438 -0.209012
vt 3.345262 -3.656969
v -19852.548828 632.843323 -7498.869141
vn -0.482424 0.722576 -0.495127
vt 3.338453 -3.829281
v -19822.714844 655.767883 -7506.364746
vn -0.886362 0.069437 -0.457757
vt 3.284135 -3.772414
v -19850.953125 688.066833 -7504.049805
vn -0.655837 -0.633969 -0.409829
vt 3.340066 -3.824746
v -19861.968750 608.239807 -7608.339355
vn -0.447208 0.893460 0.041647
vt 3.443636 -2.473832
v -19953.105469 613.281311 -7483.068848
vn -0.078675 0.949691 -0.303144
vt 3.529807 -3.004998
v -19838.291016 618.257568 -7544.413574
vn -0.550220 0.808438 -0.209012
vt 3.345262 -2.656969
v -20063.494141 639.293579 -7420.735352
vn 0.205347 0.772272 -0.601190
vt 3.705009 -3.358805
v -20136.396484 705.771667 -7430.855469
vn 0.625129 -0.059606 -0.778242
vt 3.861876 -3.436360
v -20083.835938 696.381714 -7388.051758
vn 0.401889 0.006653 -0.915664
vt 3.721285 -3.507725
v -20034.382813 742.908142 -7401.887695
vn -0.076500 -0.689306 -0.720420
vt 3.632479 -3.411059
v -19935.388672 737.235168 -7479.113281
vn -0.416030 -0.855526 -0.308212
vt 3.492433 -3.028109
v -19861.410156 720.368225 -7619.544434
vn -0.670169 -0.742193 0.004757
vt 3.452892 -2.465794
v -19840.826172 700.573730 -7557.327637
vn -0.678659 -0.719588 -0.147021
vt 3.361731 -2.639380
f 23/23/23 24/24/24 21/21/21
f 31/31/31 30/30/30 32/32/32
f 30/30/30 31/31/31 21/21/21
f 22/22/22 21/21/21 31/31/31
f 21/21/21 22/22/22 23/23/23
f 32/32/32 33/33/33 31/31/31
f 34/34/34 31/31/31 33/33/33
f 31/31/31 36/36/36 22/22/22
f 36/36/36 31/31/31 35/35/35
f 34/34/34 35/35/35 31/31/31
f 38/38/38 32/32/32 37/37/37
f 32/32/32 38/38/38 33/33/33
f 57/57/57 56/56/56 42/42/42
f 56/56/56 57/57/57 25/25/25
f 55/55/55 25/25/25 57/57/57
f 25/25/25 55/55/55 53/53/53
f 7/7/7 53/53/53 55/55/55
f 53/53/53 7/7/7 6/6/6
f 3/3/3 6/6/6 7/7/7
f 6/6/6 3/3/3 5/5/5
f 2/2/2 5/5/5 3/3/3
f 53/53/53 5/5/5 54/54/54
f 5/5/5 53/53/53 6/6/6
f 7/7/7 8/8/8 3/3/3
f 1/1/1 2/2/2 3/3/3
f 57/57/57 7/7/7 55/55/55
f 7/7/7 57/57/57 8/8/8
f 9/9/9 8/8/8 57/57/57
f 8/8/8 9/9/9 3/3/3
f 4/4/4 3/3/3 9/9/9
f 3/3/3 4/4/4 1/1/1
f 59/59/59 1/1/1 4/4/4
f 1/1/1 59/59/59 61/61/61
f 60/60/60 61/61/61 59/59/59
f 59/59/59 58/58/58 42/42/42
f 58/58/58 57/57/57 42/42/42
f 57/57/57 58/58/58 9/9/9
f 59/59/59 9/9/9 58/58/58
f 9/9/9 59/59/59 4/4/4
f 25/25/25 27/27/27 28/28/28
f 27/27/27 25/25/25 26/26/26
f 53/53/53 26/26/26 25/25/25
f 26/26/26 53/53/53 52/52/52
f 54/54/54 52/52/52 53/53/53
f 43/43/43 44/44/44 42/42/42
f 45/45/45 42/42/42 44/44/44
f 42/42/42 45/45/45 59/59/59
f 60/60/60 59/59/59 45/45/45
f 16/16/16 20/20/20 29/29/29
f 20/20/20 16/16/16 15/15/15
f 12/12/12 15/15/15 16/16/16
f 15/15/15 12/12/12 14/14/14
f 11/11/11 14/14/14 12/12/12
f 20/20/20 14/14/14 19/19/19
f 14/14/14 20/20/20 15/15/15
f 12/12/12 10/10/10 11/11/11
f 10/10/10 12/12/12 13/13/13
f 40/40/40 10/10/10 39/39/39
f 13/13/13 39/39/39 10/10/10
f 39/39/39 13/13/13 18/18/18
f 12/12/12 18/18/18 13/13/13
f 18/18/18 12/12/12 17/17/17
f 16/16/16 17/17/17 12/12/12
f 17/17/17 16/16/16 46/46/46
f 48/48/48 46/46/46 16/16/16
f 46/46/46 48/48/48 49/49/49
f 46/46/46 18/18/18 17/17/17
f 18/18/18 46/46/46 47/47/47
f 18/18/18 41/41/41 39/39/39
f 46/46/46 51/51/51 47/47/47
f 51/51/51 46/46/46 50/50/50
f 49/49/49 50/50/50 46/46/46
