mtllib MIRKWOOD_MIRK_PLAYSURFACE1001.mtl
g PlaySurface1001
usemtl groundy
v -13300.792969 407.120575 -7416.786133
vn -0.329342 -0.239445 -0.913345
vt 1.000000 1.000000
v -13257.075195 400.020752 -7431.214844
vn -0.267282 -0.298990 -0.916060
vt 1.000000 0.500000
v -13266.798828 390.892395 -7357.554199
vn -0.180890 -0.939928 -0.289506
vt 0.500000 0.500000
v -13321.144531 400.020752 -7369.246582
vn -0.522977 -0.531498 -0.666337
vt 0.500000 1.000000
v -13185.302734 400.020752 -7427.273926
vn -0.226197 -0.344893 -0.910980
vt 1.000000 0.000000
v -13193.792969 390.892395 -7343.133789
vn 0.002187 -0.999982 0.005507
vt 0.500000 0.000000
v -13202.283203 400.020752 -7258.993164
vn 0.201503 -0.354595 0.913049
vt 0.000000 0.000000
v -13276.522461 400.020752 -7283.893066
vn 0.088323 -0.416208 0.904970
vt 0.000000 0.500000
v -13313.317383 407.120575 -7315.644531
vn -0.258797 -0.551330 0.793132
vt -0.000000 1.000000
v -13185.302734 400.020752 -7427.273926
vn -0.226197 -0.344893 -0.910980
vt 1.000000 1.000000
v -13121.256836 400.020752 -7419.680176
vn -0.262308 -0.327290 -0.907786
vt 1.000000 0.500000
v -13119.697266 390.892395 -7331.052734
vn -0.070721 -0.996301 -0.048807
vt 0.500000 0.500000
v -13193.792969 390.892395 -7343.133789
vn 0.002187 -0.999982 0.005507
vt 0.500000 1.000000
v -13063.194336 392.339752 -7426.817871
vn -0.348118 -0.259847 -0.900718
vt 1.000000 0.000000
v -13048.850586 380.645905 -7336.863281
vn -0.311966 -0.944514 -0.102816
vt 0.500000 0.000000
v -13031.393555 392.339752 -7247.537598
vn 0.216578 -0.291569 0.931709
vt 0.000000 0.000000
v -13118.137695 400.020752 -7242.424805
vn 0.214425 -0.350818 0.911564
vt 0.000000 0.500000
v -13202.283203 400.020752 -7258.993164
vn 0.201503 -0.354595 0.913049
vt -0.000000 1.000000
v -13063.194336 392.339752 -7426.817871
vn -0.348118 -0.259847 -0.900718
vt 1.000000 1.000000
v -13009.374023 369.296783 -7467.069336
vn -0.311462 -0.245838 -0.917908
vt 1.000000 0.500000
v -12985.592773 349.906464 -7376.118652
vn -0.135700 -0.990749 0.001402
vt 0.500000 0.500000
v -13048.850586 380.645905 -7336.863281
vn -0.311966 -0.944514 -0.102816
vt 0.500000 1.000000
v -12966.938477 375.290833 -7475.951660
vn -0.219665 -0.173891 -0.959953
vt 1.000000 0.000000
v -12928.540039 348.819305 -7420.615234
vn 0.238135 -0.833073 -0.499280
vt 0.500000 0.000000
v -12899.427734 375.290833 -7346.303223
vn 0.470198 -0.292325 0.832742
vt 0.000000 0.000000
v -12949.356445 369.296783 -7287.681641
vn 0.294667 -0.259966 0.919559
vt 0.000000 0.500000
v -13031.393555 392.339752 -7247.537598
vn 0.216578 -0.291569 0.931709
vt 0.000000 1.000000
v -13300.792969 447.691040 -7416.786133
vn -0.329342 0.239445 -0.913345
vt 0.000000 1.000000
v -13321.144531 454.790833 -7369.246582
vn -0.522976 0.531498 -0.666337
vt 0.500000 1.000000
v -13266.798828 463.919189 -7357.554199
vn -0.180891 0.939928 -0.289506
vt 0.500000 0.500000
v -13257.075195 454.790863 -7431.214844
vn -0.267282 0.298991 -0.916059
vt -0.000000 0.500000
v -13313.317383 447.691010 -7315.644531
vn -0.258797 0.551330 0.793132
vt 1.000000 1.000000
v -13276.522461 454.790863 -7283.893066
vn 0.088323 0.416208 0.904970
vt 1.000000 0.500000
v -13202.283203 454.790863 -7258.993164
vn 0.201503 0.354595 0.913049
vt 1.000000 0.000000
v -13193.792969 463.919189 -7343.133789
vn 0.002187 0.999982 0.005507
vt 0.500000 0.000000
v -13185.302734 454.790863 -7427.273926
vn -0.226197 0.344893 -0.910980
vt -0.000000 0.000000
v -13185.302734 454.790863 -7427.273926
vn -0.226197 0.344893 -0.910980
vt 0.000000 1.000000
v -13193.792969 463.919189 -7343.133789
vn 0.002187 0.999982 0.005507
vt 0.500000 1.000000
v -13119.697266 463.919220 -7331.052734
vn -0.057602 0.997801 -0.032780
vt 0.500000 0.500000
v -13121.256836 454.790863 -7419.680176
vn -0.261299 0.328549 -0.907623
vt -0.000000 0.500000
v -13202.283203 454.790863 -7258.993164
vn 0.201503 0.354595 0.913049
vt 1.000000 1.000000
v -13118.137695 454.790863 -7242.424805
vn 0.217815 0.349409 0.911301
vt 1.000000 0.500000
v -13015.824219 462.502838 -7250.679688
vn 0.229470 0.290858 0.928841
vt 1.000000 0.000000
v -13036.395508 474.196686 -7339.376953
vn -0.202637 0.978857 0.027892
vt 0.500000 0.000000
v -13060.081055 462.502869 -7427.446289
vn -0.331716 0.297298 -0.895309
vt -0.000000 0.000000
v -13060.081055 462.502869 -7427.446289
vn -0.331716 0.297298 -0.895309
vt 0.000000 1.000000
v -13036.395508 474.196686 -7339.376953
vn -0.202637 0.978857 0.027892
vt 0.500000 1.000000
v -12935.771484 505.029144 -7386.173340
vn -0.044437 0.998147 0.041566
vt 0.500000 0.500000
v -12996.918945 485.638824 -7469.583008
vn -0.335057 0.300776 -0.892900
vt -0.000000 0.500000
v -13015.824219 462.502838 -7250.679688
vn 0.229470 0.290858 0.928841
vt 1.000000 1.000000
v -12887.079102 485.638794 -7300.250488
vn 0.336198 0.229918 0.913295
vt 1.000000 0.500000
v -12849.605469 479.713654 -7356.357910
vn 0.581444 0.163693 0.796949
vt 1.000000 0.000000
v -12866.262695 506.209259 -7433.183594
vn 0.437528 0.636010 -0.635658
vt 0.500000 0.000000
v -12939.259766 479.713654 -7481.537598
vn -0.219753 0.160067 -0.962334
vt -0.000000 0.000000
v -13300.792969 407.120575 -7416.786133
vn -0.329342 -0.239445 -0.913345
vt 0.000000 1.000000
v -13339.259766 427.405792 -7373.144043
vn -0.628245 0.000000 -0.778015
vt 0.500000 0.500000
v -13313.537109 427.405792 -7433.923340
vn -0.361960 0.000000 -0.932194
vt -0.000000 0.500000
v -13313.317383 407.120575 -7315.644531
vn -0.258797 -0.551330 0.793132
vt 1.000000 1.000000
v -13328.751953 427.405792 -7304.569824
vn -0.533543 0.000000 0.845773
vt 1.000000 0.500000
v -13313.317383 447.691010 -7315.644531
vn -0.258797 0.551330 0.793132
vt 1.000000 0.000000
v -13321.144531 454.790833 -7369.246582
vn -0.522976 0.531498 -0.666337
vt 0.500000 0.000000
v -13300.792969 447.691040 -7416.786133
vn -0.329342 0.239445 -0.913345
vt -0.000000 0.000000
v -13276.522461 400.020752 -7283.893066
vn 0.088323 -0.416208 0.904970
vt 1.000000 0.500000
v -13279.763672 427.405792 -7259.339844
vn 0.134780 0.000000 0.990876
vt 0.500000 0.500000
v -13328.751953 427.405792 -7304.569824
vn -0.533543 0.000000 0.845773
vt 0.500000 1.000000
v -13202.283203 400.020752 -7258.993164
vn 0.201503 -0.354595 0.913049
vt 1.000000 0.000000
v -13205.113281 427.405792 -7230.946289
vn 0.208258 0.000000 0.978074
vt 0.500000 0.000000
v -13202.283203 454.790863 -7258.993164
vn 0.201503 0.354595 0.913049
vt 0.000000 0.000000
v -13276.522461 454.790863 -7283.893066
vn 0.088323 0.416208 0.904970
vt 0.000000 0.500000
v -13313.317383 447.691010 -7315.644531
vn -0.258797 0.551330 0.793132
vt 0.000000 1.000000
v -13202.283203 400.020752 -7258.993164
vn 0.201503 -0.354595 0.913049
vt 1.000000 1.000000
v -13118.137695 400.020752 -7242.424805
vn 0.214425 -0.350818 0.911564
vt 1.000000 0.500000
v -13117.618164 427.405792 -7212.882324
vn 0.236010 0.000427 0.971751
vt 0.500000 0.500000
v -13205.113281 427.405792 -7230.946289
vn 0.208258 0.000000 0.978074
vt 0.500000 1.000000
v -13031.393555 392.339752 -7247.537598
vn 0.216578 -0.291569 0.931709
vt 1.000000 0.000000
v -13017.270508 427.421295 -7219.437988
vn 0.275967 -0.000292 0.961167
vt 0.500000 0.000000
v -13015.824219 462.502838 -7250.679688
vn 0.229470 0.290858 0.928841
vt 0.000000 0.000000
v -13118.137695 454.790863 -7242.424805
vn 0.217815 0.349409 0.911301
vt 0.000000 0.500000
v -13202.283203 454.790863 -7258.993164
vn 0.201503 0.354595 0.913049
vt 0.000000 1.000000
v -13031.393555 392.339752 -7247.537598
vn 0.216578 -0.291569 0.931709
vt 1.000000 1.000000
v -12949.356445 369.296783 -7287.681641
vn 0.294667 -0.259966 0.919559
vt 1.000000 0.500000
v -12904.063477 427.467804 -7264.905762
vn 0.324754 -0.027413 0.945401
vt 0.500000 0.500000
v -13017.270508 427.421295 -7219.437988
vn 0.275967 -0.000292 0.961167
vt 0.500000 1.000000
v -12899.427734 375.290833 -7346.303223
vn 0.470198 -0.292325 0.832742
vt 1.000000 0.000000
v -12837.306641 427.514282 -7341.679199
vn 0.720668 -0.156783 0.675319
vt 0.500000 0.000000
v -12849.605469 479.713654 -7356.357910
vn 0.581444 0.163693 0.796949
vt 0.000000 0.000000
v -12887.079102 485.638794 -7300.250488
vn 0.336198 0.229918 0.913295
vt 0.000000 0.500000
v -13015.824219 462.502838 -7250.679688
vn 0.229470 0.290858 0.928841
vt 0.000000 1.000000
v -12876.308594 427.529785 -7442.150879
vn 0.170712 -0.155244 -0.973014
vt 0.500000 0.500000
v -12837.306641 427.514282 -7341.679199
vn 0.720668 -0.156783 0.675319
vt 1.000000 0.500000
v -12966.938477 375.290833 -7475.951660
vn -0.219665 -0.173891 -0.959953
vt -0.000000 0.000000
v -12957.497070 427.514282 -7512.120117
vn -0.197042 -0.019928 -0.980192
vt -0.000000 0.500000
v -12939.259766 479.713654 -7481.537598
vn -0.219753 0.160067 -0.962334
vt -0.000000 1.000000
v -12866.262695 506.209259 -7433.183594
vn 0.437528 0.636010 -0.635658
vt 0.500000 1.000000
v -12849.605469 479.713654 -7356.357910
vn 0.581444 0.163693 0.796949
vt 1.000000 1.000000
v -13009.374023 369.296783 -7467.069336
vn -0.311462 -0.245838 -0.917908
vt -0.000000 0.500000
v -13017.300781 427.467804 -7497.386230
vn -0.307986 0.003059 -0.951386
vt 0.500000 0.500000
v -12957.497070 427.514282 -7512.120117
vn -0.197042 -0.019928 -0.980192
vt 0.500000 0.000000
v -13063.194336 392.339752 -7426.817871
vn -0.348118 -0.259847 -0.900718
vt 0.000000 1.000000
v -13067.975586 427.421295 -7456.802246
vn -0.299949 0.001197 -0.953954
vt 0.500000 1.000000
v -13060.081055 462.502869 -7427.446289
vn -0.331716 0.297298 -0.895309
vt 1.000000 1.000000
v -12996.918945 485.638824 -7469.583008
vn -0.335057 0.300776 -0.892900
vt 1.000000 0.500000
v -12939.259766 479.713654 -7481.537598
vn -0.219753 0.160067 -0.962334
vt 1.000000 -0.000000
v -13063.194336 392.339752 -7426.817871
vn -0.348118 -0.259847 -0.900718
vt -0.000000 0.000000
v -13121.256836 400.020752 -7419.680176
vn -0.262308 -0.327290 -0.907786
vt -0.000000 0.500000
v -13121.776367 427.405823 -7449.223145
vn -0.259353 0.000033 -0.965783
vt 0.500000 0.500000
v -13067.975586 427.421295 -7456.802246
vn -0.299949 0.001197 -0.953954
vt 0.500000 0.000000
v -13185.302734 400.020752 -7427.273926
vn -0.226197 -0.344893 -0.910980
vt 0.000000 1.000000
v -13182.472656 427.405792 -7455.320801
vn -0.242591 0.000000 -0.970129
vt 0.500000 1.000000
v -13185.302734 454.790863 -7427.273926
vn -0.226197 0.344893 -0.910980
vt 1.000000 1.000000
v -13121.256836 454.790863 -7419.680176
vn -0.261299 0.328549 -0.907623
vt 1.000000 0.500000
v -13060.081055 462.502869 -7427.446289
vn -0.331716 0.297298 -0.895309
vt 1.000000 0.000000
v -13185.302734 400.020752 -7427.273926
vn -0.226197 -0.344893 -0.910980
vt -0.000000 0.000000
v -13257.075195 400.020752 -7431.214844
vn -0.267282 -0.298990 -0.916060
vt -0.000000 0.500000
v -13253.833984 427.405792 -7455.768066
vn -0.266302 0.000000 -0.963890
vt 0.500000 0.500000
v -13182.472656 427.405792 -7455.320801
vn -0.242591 0.000000 -0.970129
vt 0.500000 0.000000
v -13313.537109 427.405792 -7433.923340
vn -0.361960 0.000000 -0.932194
vt 0.500000 1.000000
v -13300.792969 447.691040 -7416.786133
vn -0.329342 0.239445 -0.913345
vt 1.000000 1.000000
v -13257.075195 454.790863 -7431.214844
vn -0.267282 0.298991 -0.916059
vt 1.000000 0.500000
v -13185.302734 454.790863 -7427.273926
vn -0.226197 0.344893 -0.910980
vt 1.000000 0.000000
f 3/3/3 2/2/2 5/5/5
f 2/2/2 3/3/3 1/1/1
f 4/4/4 1/1/1 3/3/3
f 5/5/5 6/6/6 3/3/3
f 7/7/7 3/3/3 6/6/6
f 3/3/3 9/9/9 4/4/4
f 9/9/9 3/3/3 8/8/8
f 7/7/7 8/8/8 3/3/3
f 56/56/56 4/4/4 58/58/58
f 4/4/4 56/56/56 55/55/55
f 57/57/57 55/55/55 56/56/56
f 58/58/58 59/59/59 56/56/56
f 60/60/60 56/56/56 59/59/59
f 56/56/56 62/62/62 57/57/57
f 62/62/62 56/56/56 61/61/61
f 60/60/60 61/61/61 56/56/56
f 64/64/64 63/63/63 66/66/66
f 63/63/63 64/64/64 58/58/58
f 65/65/65 58/58/58 64/64/64
f 66/66/66 67/67/67 64/64/64
f 68/68/68 64/64/64 67/67/67
f 64/64/64 70/70/70 65/65/65
f 70/70/70 64/64/64 69/69/69
f 68/68/68 69/69/69 64/64/64
f 55/55/55 117/117/117 115/115/115
f 118/118/118 115/115/115 117/117/117
f 115/115/115 114/114/114 55/55/55
f 114/114/114 115/115/115 113/113/113
f 116/116/116 113/113/113 115/115/115
f 115/115/115 120/120/120 116/116/116
f 120/120/120 115/115/115 119/119/119
f 118/118/118 119/119/119 115/115/115
f 12/12/12 11/11/11 14/14/14
f 11/11/11 12/12/12 10/10/10
f 13/13/13 10/10/10 12/12/12
f 14/14/14 15/15/15 12/12/12
f 16/16/16 12/12/12 15/15/15
f 12/12/12 18/18/18 13/13/13
f 18/18/18 12/12/12 17/17/17
f 16/16/16 17/17/17 12/12/12
f 21/21/21 20/20/20 23/23/23
f 20/20/20 21/21/21 19/19/19
f 22/22/22 19/19/19 21/21/21
f 23/23/23 24/24/24 21/21/21
f 25/25/25 21/21/21 24/24/24
f 21/21/21 27/27/27 22/22/22
f 27/27/27 21/21/21 26/26/26
f 25/25/25 26/26/26 21/21/21
f 89/89/89 24/24/24 91/91/91
f 24/24/24 89/89/89 84/84/84
f 90/90/90 84/84/84 89/89/89
f 91/91/91 92/92/92 89/89/89
f 93/93/93 89/89/89 92/92/92
f 89/89/89 95/95/95 90/90/90
f 95/95/95 89/89/89 94/94/94
f 93/93/93 94/94/94 89/89/89
f 97/97/97 96/96/96 99/99/99
f 96/96/96 97/97/97 91/91/91
f 98/98/98 91/91/91 97/97/97
f 99/99/99 100/100/100 97/97/97
f 101/101/101 97/97/97 100/100/100
f 97/97/97 103/103/103 98/98/98
f 103/103/103 97/97/97 102/102/102
f 101/101/101 102/102/102 97/97/97
f 84/84/84 85/85/85 82/82/82
f 86/86/86 82/82/82 85/85/85
f 82/82/82 81/81/81 84/84/84
f 81/81/81 82/82/82 80/80/80
f 83/83/83 80/80/80 82/82/82
f 82/82/82 88/88/88 83/83/83
f 88/88/88 82/82/82 87/87/87
f 86/86/86 87/87/87 82/82/82
f 30/30/30 29/29/29 32/32/32
f 29/29/29 30/30/30 28/28/28
f 31/31/31 28/28/28 30/30/30
f 32/32/32 33/33/33 30/30/30
f 34/34/34 30/30/30 33/33/33
f 30/30/30 36/36/36 31/31/31
f 36/36/36 30/30/30 35/35/35
f 34/34/34 35/35/35 30/30/30
f 39/39/39 38/38/38 41/41/41
f 38/38/38 39/39/39 37/37/37
f 40/40/40 37/37/37 39/39/39
f 41/41/41 42/42/42 39/39/39
f 43/43/43 39/39/39 42/42/42
f 39/39/39 45/45/45 40/40/40
f 45/45/45 39/39/39 44/44/44
f 43/43/43 44/44/44 39/39/39
f 48/48/48 47/47/47 50/50/50
f 47/47/47 48/48/48 46/46/46
f 49/49/49 46/46/46 48/48/48
f 50/50/50 51/51/51 48/48/48
f 52/52/52 48/48/48 51/51/51
f 48/48/48 54/54/54 49/49/49
f 54/54/54 48/48/48 53/53/53
f 52/52/52 53/53/53 48/48/48
f 73/73/73 72/72/72 75/75/75
f 72/72/72 73/73/73 71/71/71
f 74/74/74 71/71/71 73/73/73
f 75/75/75 76/76/76 73/73/73
f 77/77/77 73/73/73 76/76/76
f 73/73/73 79/79/79 74/74/74
f 79/79/79 73/73/73 78/78/78
f 77/77/77 78/78/78 73/73/73
f 106/106/106 105/105/105 108/108/108
f 105/105/105 106/106/106 104/104/104
f 107/107/107 104/104/104 106/106/106
f 108/108/108 109/109/109 106/106/106
f 110/110/110 106/106/106 109/109/109
f 106/106/106 112/112/112 107/107/107
f 112/112/112 106/106/106 111/111/111
f 110/110/110 111/111/111 106/106/106
