mtllib MIRKWOOD_SPIDER_HOLES35.mtl
g Spider_Holes35
usemtl cliffy
v -23279.167969 480.084290 -6050.183105
vn 0.252689 0.917998 -0.305659
vt 3.129549 -2.866476
v -23316.003906 497.422394 -6053.779785
vn 0.767718 0.615854 -0.177010
vt 3.207397 -2.906370
v -23303.880859 524.079163 -6012.561035
vn 0.565882 0.251730 -0.785118
vt 3.150625 -3.033821
v -23262.390625 495.356293 -6015.863770
vn -0.055108 0.649737 -0.758159
vt 3.068626 -2.962203
v -23326.740234 535.777100 -6068.599609
vn 0.992915 0.118083 0.013279
vt 3.241411 -2.881387
v -23324.355469 562.381226 -6038.449707
vn 0.869472 -0.287990 -0.401348
vt 3.213148 -2.984789
v -23292.265625 581.975464 -6026.133789
vn 0.436105 -0.623219 -0.649161
vt 3.138559 -2.989484
v -23270.744141 560.315125 -6000.532715
vn 0.076834 -0.259694 -0.962629
vt 3.074377 -3.040623
v -23242.646484 532.539307 -6009.126465
vn -0.332493 0.169647 -0.927722
vt 3.023743 -2.968967
v -23295.039063 565.030823 -6166.485352
vn 0.818251 -0.071372 0.570413
vt 3.239109 -3.615700
v -23266.464844 505.410461 -6162.727051
vn 0.553277 0.628243 0.546988
vt 3.198633 -3.573851
v -23230.410156 516.380066 -6203.734375
vn 0.746885 0.611491 -0.261232
vt 3.193148 -3.747883
v -23257.173828 572.408752 -6207.369141
vn 0.953342 0.088239 0.288709
vt 3.165855 -3.792558
v -23218.751953 472.378754 -6136.457520
vn -0.070075 0.983265 0.168164
vt 3.097422 -3.578338
v -23185.673828 485.322083 -6178.958984
vn -0.157614 0.961841 0.223653
vt 3.149628 -3.714832
v -23239.923828 637.132751 -6097.565430
vn 0.110650 -0.974011 -0.197634
vt 3.063650 -3.763036
v -23280.578125 615.246460 -6136.798828
vn 0.629857 -0.732892 0.257195
vt 3.176119 -3.696983
v -23243.666016 619.535156 -6179.384277
vn 0.857474 -0.458921 -0.232658
vt 3.073425 -3.834531
v -23205.558594 640.054688 -6142.434082
vn 0.304949 -0.845735 -0.437880
vt 2.970043 -3.844803
v -23159.064453 559.808777 -6070.314941
vn -0.791424 -0.001116 -0.611266
vt 3.908466 -3.709023
v -23189.927734 611.765076 -6072.684570
vn -0.467506 -0.693517 -0.548154
vt 3.955690 -3.759197
v -23158.529297 616.262756 -6119.170898
vn -0.324024 -0.596835 -0.734028
vt 3.909897 -3.794375
v -23129.470703 567.500244 -6117.049805
vn -0.381841 0.179235 -0.906682
vt 3.920563 -3.732325
v -23158.529297 616.262756 -6119.170898
vn -0.324024 -0.596835 -0.734028
vt 2.909897 -3.794375
v -23189.927734 611.765076 -6072.684570
vn -0.467506 -0.693517 -0.548154
vt 2.955690 -3.759197
v -23175.812500 501.929077 -6098.613281
vn -0.644102 0.689960 -0.330285
vt 2.978205 -3.636065
v -23145.273438 513.107727 -6143.521973
vn 0.046221 0.692748 -0.719697
vt 3.029619 -3.707727
v -23159.064453 559.808777 -6070.314941
vn -0.791424 -0.001116 -0.611266
vt 2.908466 -3.709023
v -23129.470703 567.500244 -6117.049805
vn -0.381841 0.179235 -0.906682
vt 2.920563 -3.732325
v -23296.462891 495.145355 -6111.662109
vn 0.662510 0.669383 0.336165
vt 3.213392 -3.689863
v -23253.427734 465.215179 -6087.739258
vn 0.074826 0.996136 -0.045978
vt 3.106754 -3.705730
v -23322.193359 549.121643 -6115.225586
vn 0.949242 0.023553 0.313665
vt 3.269173 -3.725325
v -23326.740234 535.777100 -6068.599609
vn 0.992915 0.118083 0.013279
vt 3.241411 -3.881387
v -23316.003906 497.422394 -6053.779785
vn 0.767718 0.615854 -0.177010
vt 3.207397 -3.906370
v -23279.167969 480.084290 -6050.183105
vn 0.252689 0.917998 -0.305659
vt 3.129549 -3.866476
v -23309.230469 594.482727 -6088.214355
vn 0.791240 -0.611425 0.009981
vt 3.222170 -3.809790
v -23272.580078 614.221252 -6052.568359
vn 0.293669 -0.840265 -0.455756
vt 3.119919 -3.885621
v -23292.265625 581.975464 -6026.133789
vn 0.436105 -0.623219 -0.649161
vt 3.138559 -3.989484
v -23324.355469 562.381226 -6038.449707
vn 0.869472 -0.287990 -0.401348
vt 3.213148 -3.984789
v -23227.246094 591.329834 -6030.229004
vn -0.297809 -0.574605 -0.762325
vt 3.009958 -3.895182
v -23199.214844 544.392273 -6028.249023
vn -0.606409 0.083922 -0.790712
vt 2.950855 -3.853412
v -23227.246094 591.329834 -6030.229004
vn -0.297809 -0.574605 -0.762325
vt 3.009958 -2.895182
v -23242.646484 532.539307 -6009.126465
vn -0.332493 0.169647 -0.927722
vt 3.023743 -3.968967
v -23214.476563 491.992432 -6053.676758
vn -0.498541 0.719546 -0.483436
vt 3.001181 -3.775253
v -23262.390625 495.356293 -6015.863770
vn -0.055108 0.649737 -0.758159
vt 3.068626 -3.962203
f 22/22/22 20/20/20 21/21/21
f 20/20/20 22/22/22 23/23/23
f 27/27/27 15/15/15 14/14/14
f 12/12/12 14/14/14 15/15/15
f 14/14/14 12/12/12 11/11/11
f 10/10/10 11/11/11 12/12/12
f 11/11/11 10/10/10 30/30/30
f 32/32/32 30/30/30 10/10/10
f 30/30/30 32/32/32 33/33/33
f 36/36/36 33/33/33 32/32/32
f 33/33/33 36/36/36 39/39/39
f 38/38/38 39/39/39 36/36/36
f 14/14/14 26/26/26 27/27/27
f 12/12/12 13/13/13 10/10/10
f 18/18/18 10/10/10 13/13/13
f 16/16/16 19/19/19 24/24/24
f 19/19/19 16/16/16 18/18/18
f 17/17/17 18/18/18 16/16/16
f 18/18/18 17/17/17 10/10/10
f 36/36/36 10/10/10 17/17/17
f 10/10/10 36/36/36 32/32/32
f 36/36/36 17/17/17 16/16/16
f 24/24/24 25/25/25 16/16/16
f 38/38/38 36/36/36 37/37/37
f 16/16/16 37/37/37 36/36/36
f 37/37/37 16/16/16 40/40/40
f 25/25/25 40/40/40 16/16/16
f 40/40/40 25/25/25 28/28/28
f 38/38/38 37/37/37 40/40/40
f 33/33/33 34/34/34 30/30/30
f 35/35/35 30/30/30 34/34/34
f 44/44/44 14/14/14 31/31/31
f 14/14/14 44/44/44 26/26/26
f 28/28/28 26/26/26 44/44/44
f 26/26/26 28/28/28 27/27/27
f 29/29/29 27/27/27 28/28/28
f 44/44/44 45/45/45 43/43/43
f 45/45/45 44/44/44 35/35/35
f 31/31/31 35/35/35 44/44/44
f 35/35/35 31/31/31 30/30/30
f 14/14/14 30/30/30 31/31/31
f 30/30/30 14/14/14 11/11/11
f 41/41/41 44/44/44 43/43/43
f 44/44/44 41/41/41 28/28/28
f 40/40/40 28/28/28 41/41/41
f 40/40/40 41/41/41 43/43/43
f 3/3/3 6/6/6 7/7/7
f 6/6/6 3/3/3 5/5/5
f 2/2/2 5/5/5 3/3/3
f 3/3/3 1/1/1 2/2/2
f 1/1/1 3/3/3 4/4/4
f 3/3/3 9/9/9 4/4/4
f 9/9/9 3/3/3 8/8/8
f 7/7/7 8/8/8 3/3/3
f 8/8/8 7/7/7 42/42/42
f 9/9/9 8/8/8 42/42/42
