mtllib MIRKWOOD_TREECANOPY500.mtl
g TreeCanopy500
usemtl sky
v -14056.286133 -293.041718 -30646.964844
vn -0.370711 0.368917 0.852334
vt 0.250250 0.999501
v -10121.078125 -232.437073 -27688.873047
vn -0.653388 0.366092 0.662616
vt 0.000500 0.999501
v -13210.815430 3289.725098 -32742.869141
vn -0.352091 0.255672 0.900369
vt 0.250250 0.749750
v -9005.936523 3950.033936 -30604.359375
vn -0.635585 0.237668 0.734538
vt 0.000500 0.749750
v -19141.007813 -319.056641 -31259.486328
vn 0.021535 0.397005 0.917564
vt 0.500000 0.999501
v -19141.007813 2981.445801 -33741.281250
vn 0.010584 0.271279 0.962443
vt 0.500000 0.749750
v -24225.728516 -293.041718 -30646.962891
vn 0.337800 0.373786 0.863814
vt 0.749750 0.999501
v -25071.199219 3289.725098 -32742.869141
vn 0.336116 0.249622 0.908138
vt 0.749750 0.749750
v -27391.021484 -311.926270 -28091.074219
vn 0.618666 0.416064 0.666441
vt 0.999500 0.999501
v -29276.078125 3950.033936 -30604.357422
vn 0.620175 0.233928 0.748773
vt 0.999500 0.749750
v -12819.161133 7828.909668 -33713.773438
vn -0.349413 -0.003857 0.936961
vt 0.250250 0.500000
v -8530.108398 7828.909668 -31194.146484
vn -0.638230 0.002329 0.769842
vt 0.000500 0.500000
v -19141.007813 7828.909668 -34940.824219
vn 0.000000 0.000000 1.000000
vt 0.500000 0.500000
v -25462.853516 7828.909668 -33713.773438
vn 0.349413 0.003857 0.936961
vt 0.749750 0.500000
v -29751.906250 7828.909668 -31194.144531
vn 0.638230 -0.002330 0.769842
vt 0.999500 0.500000
v -13210.815430 12368.093750 -32742.869141
vn -0.341372 -0.261603 0.902789
vt 0.250250 0.250250
v -9005.936523 11707.785156 -30604.359375
vn -0.613964 -0.217432 0.758796
vt 0.000500 0.250250
v -19141.007813 12676.373047 -33741.277344
vn -0.005131 -0.274780 0.961493
vt 0.500000 0.250250
v -25071.199219 12368.093750 -32742.869141
vn 0.334446 -0.256213 0.906918
vt 0.749750 0.250250
v -29276.078125 11707.785156 -30604.357422
vn 0.637726 -0.217476 0.738924
vt 0.999500 0.250250
v -14056.286133 15612.969727 -30646.962891
vn -0.302941 -0.507192 0.806835
vt 0.250250 0.000500
v -10122.796875 14731.774414 -29220.021484
vn -0.556704 -0.429116 0.711295
vt 0.000500 0.000500
v -19141.007813 15991.227539 -31259.486328
vn 0.004015 -0.541554 0.840657
vt 0.500000 0.000500
v -24225.728516 15612.969727 -30646.962891
vn 0.305192 -0.531405 0.790232
vt 0.749750 0.000500
v -28159.216797 14731.774414 -29220.021484
vn 0.586124 -0.459974 0.666995
vt 0.999500 0.000500
v -30143.353516 -336.888947 -24860.687500
vn 0.776414 0.482959 0.404886
vt 0.250250 0.999501
v -27391.021484 -311.926270 -28091.074219
vn 0.618666 0.416064 0.666441
vt 0.000500 0.999501
v -32385.978516 2759.817383 -26250.544922
vn 0.837202 0.300266 0.457092
vt 0.250250 0.749750
v -29276.078125 3950.033936 -30604.357422
vn 0.620175 0.233928 0.748773
vt 0.000500 0.749750
v -31165.693359 -390.708954 -18042.035156
vn 0.809955 0.584104 -0.052879
vt 0.500000 0.999501
v -34293.695313 2029.698608 -18042.035156
vn 0.925366 0.378334 -0.023710
vt 0.500000 0.749750
v -30143.351563 -336.889557 -11223.383789
vn 0.827289 0.425253 -0.367087
vt 0.749750 0.999501
v -32385.978516 2759.816650 -9833.527344
vn 0.835383 0.312476 -0.452209
vt 0.749750 0.749750
v -27982.205078 -299.874329 -8203.790039
vn 0.651343 0.362956 -0.666345
vt 0.999500 0.999501
v -29276.074219 3950.032715 -5479.713867
vn 0.635661 0.234867 -0.735372
vt 0.999500 0.749750
v -33504.972656 7828.909180 -26944.035156
vn 0.881065 -0.007048 0.472943
vt 0.250250 0.500000
v -29751.906250 7828.909668 -31194.144531
vn 0.638230 -0.002330 0.769842
vt 0.000500 0.500000
v -36039.796875 7828.909180 -18042.035156
vn 1.000000 0.000000 0.000000
vt 0.500000 0.500000
v -33504.968750 7828.908691 -9140.036133
vn 0.881065 0.007048 -0.472943
vt 0.749750 0.500000
v -29751.902344 7828.908203 -4889.927734
vn 0.638230 0.002330 -0.769842
vt 0.999500 0.500000
v -32385.978516 12898.000977 -26250.544922
vn 0.838863 -0.291836 0.459500
vt 0.250250 0.250250
v -29276.078125 11707.785156 -30604.357422
vn 0.637726 -0.217476 0.738924
vt 0.000500 0.250250
v -34293.695313 13628.118164 -18042.035156
vn 0.946084 -0.323749 0.010562
vt 0.500000 0.250250
v -32385.978516 12898.000000 -9833.526367
vn 0.847495 -0.282736 -0.449236
vt 0.749750 0.250250
v -29276.074219 11707.783203 -5479.713379
vn 0.613964 -0.217432 -0.758796
vt 0.999500 0.250250
v -30143.353516 16250.505859 -24860.687500
vn 0.722707 -0.566256 0.396293
vt 0.250250 0.000500
v -28159.216797 14731.774414 -29220.021484
vn 0.586124 -0.459974 0.666995
vt 0.000500 0.000500
v -31165.693359 17033.042969 -18042.035156
vn 0.789003 -0.614151 0.017107
vt 0.500000 0.000500
v -30143.351563 16250.505859 -11223.382813
vn 0.725601 -0.563702 -0.394644
vt 0.749750 0.000500
v -28159.214844 14731.773438 -6864.050293
vn 0.556704 -0.429116 -0.711295
vt 0.999500 0.000500
v -24225.726563 -293.042816 -5437.109375
vn 0.363563 0.368898 -0.855416
vt 0.250250 0.999501
v -27982.205078 -299.874329 -8203.790039
vn 0.651343 0.362956 -0.666345
vt 0.000500 0.999501
v -25071.195313 3289.723877 -3341.204102
vn 0.349870 0.253921 -0.901729
vt 0.250250 0.749750
v -29276.074219 3950.032715 -5479.713867
vn 0.635661 0.234867 -0.735372
vt 0.000500 0.749750
v -19141.003906 -319.057800 -4824.587402
vn -0.021535 0.397005 -0.917564
vt 0.500000 0.999501
v -19141.003906 2981.444336 -2342.793945
vn -0.010584 0.271279 -0.962443
vt 0.500000 0.749750
v -14056.283203 -293.042816 -5437.110352
vn -0.337848 0.373910 -0.863742
vt 0.749750 0.999501
v -13210.812500 3289.723877 -3341.205078
vn -0.336116 0.249622 -0.908138
vt 0.749750 0.749750
v -11164.415039 -304.459869 -7771.177246
vn -0.615852 0.416982 -0.668470
vt 0.999500 0.999501
v -9005.934570 3950.032715 -5479.715332
vn -0.618534 0.234707 -0.749886
vt 0.999500 0.749750
v -25462.851563 7828.908203 -2370.298340
vn 0.349413 -0.003857 -0.936961
vt 0.250250 0.500000
v -29751.902344 7828.908203 -4889.927734
vn 0.638230 0.002330 -0.769842
vt 0.000500 0.500000
v -19141.003906 7828.908203 -1143.247437
vn 0.000000 0.000000 -1.000000
vt 0.500000 0.500000
v -12819.158203 7828.908203 -2370.299561
vn -0.349413 0.003857 -0.936961
vt 0.749750 0.500000
v -8530.106445 7828.908203 -4889.929199
vn -0.638230 -0.002329 -0.769842
vt 0.999500 0.500000
v -25071.195313 12368.092773 -3341.203613
vn 0.341372 -0.261603 -0.902789
vt 0.250250 0.250250
v -29276.074219 11707.783203 -5479.713379
vn 0.613964 -0.217432 -0.758796
vt 0.000500 0.250250
v -19141.003906 12676.372070 -2342.793701
vn 0.005131 -0.274780 -0.961493
vt 0.500000 0.250250
v -13210.812500 12368.092773 -3341.204590
vn -0.334446 -0.256213 -0.906918
vt 0.749750 0.250250
v -9005.934570 11707.783203 -5479.714844
vn -0.637726 -0.217476 -0.738924
vt 0.999500 0.250250
v -24225.726563 15612.968750 -5437.108887
vn 0.302941 -0.507192 -0.806835
vt 0.250250 0.000500
v -28159.214844 14731.773438 -6864.050293
vn 0.556704 -0.429116 -0.711295
vt 0.000500 0.000500
v -19141.003906 15991.226563 -4824.586914
vn -0.004015 -0.541554 -0.840657
vt 0.500000 0.000500
v -14056.283203 15612.968750 -5437.109863
vn -0.305192 -0.531405 -0.790232
vt 0.749750 0.000500
v -10122.794922 14731.773438 -6864.051758
vn -0.586124 -0.459974 -0.666995
vt 0.999500 0.000500
v -8138.658203 -336.889557 -11223.385742
vn -0.773136 0.483134 -0.410904
vt 0.250250 0.999501
v -11164.415039 -304.459869 -7771.177246
vn -0.615852 0.416982 -0.668470
vt 0.000500 0.999501
v -5896.032715 2759.816650 -9833.529297
vn -0.836261 0.301333 -0.458111
vt 0.250250 0.749750
v -9005.934570 3950.032715 -5479.715332
vn -0.618534 0.234707 -0.749886
vt 0.000500 0.749750
v -7116.318848 -390.708954 -18042.037109
vn -0.809955 0.584104 0.052879
vt 0.500000 0.999501
v -3988.314697 2029.698608 -18042.039063
vn -0.925366 0.378334 0.023710
vt 0.500000 0.749750
v -8138.659668 -336.888947 -24860.689453
vn -0.827262 0.426308 0.365923
vt 0.749750 0.999501
v -5896.034180 2759.817383 -26250.546875
vn -0.835383 0.312476 0.452209
vt 0.749750 0.749750
v -10121.078125 -232.437073 -27688.873047
vn -0.653388 0.366092 0.662616
vt 0.999500 0.999501
v -9005.936523 3950.033936 -30604.359375
vn -0.635585 0.237668 0.734538
vt 0.999500 0.749750
v -4777.039551 7828.908691 -9140.038086
vn -0.881065 -0.007048 -0.472943
vt 0.250250 0.500000
v -8530.106445 7828.908203 -4889.929199
vn -0.638230 -0.002329 -0.769842
vt 0.000500 0.500000
v -2242.214844 7828.909180 -18042.039063
vn -1.000000 0.000000 0.000000
vt 0.500000 0.500000
v -4777.041016 7828.909180 -26944.037109
vn -0.881065 0.007048 0.472943
vt 0.749750 0.500000
v -8530.108398 7828.909668 -31194.146484
vn -0.638230 0.002329 0.769842
vt 0.999500 0.500000
v -5896.032715 12898.000000 -9833.529297
vn -0.838863 -0.291836 -0.459500
vt 0.250250 0.250250
v -9005.934570 11707.783203 -5479.714844
vn -0.637726 -0.217476 -0.738924
vt 0.000500 0.250250
v -3988.314697 13628.118164 -18042.037109
vn -0.946084 -0.323749 -0.010562
vt 0.500000 0.250250
v -5896.034180 12898.000977 -26250.546875
vn -0.847495 -0.282736 0.449236
vt 0.749750 0.250250
v -9005.936523 11707.785156 -30604.359375
vn -0.613964 -0.217432 0.758796
vt 0.999500 0.250250
v -8138.658203 16250.505859 -11223.384766
vn -0.722707 -0.566256 -0.396293
vt 0.250250 0.000500
v -10122.794922 14731.773438 -6864.051758
vn -0.586124 -0.459974 -0.666995
vt 0.000500 0.000500
v -7116.318848 17033.042969 -18042.037109
vn -0.789003 -0.614151 -0.017107
vt 0.500000 0.000500
v -8138.659668 16250.505859 -24860.689453
vn -0.725601 -0.563702 0.394644
vt 0.749750 0.000500
v -10122.796875 14731.774414 -29220.021484
vn -0.556704 -0.429116 0.711295
vt 0.999500 0.000500
f 44/44/44 50/50/50 45/45/45
f 50/50/50 44/44/44 49/49/49
f 43/43/43 49/49/49 44/44/44
f 49/49/49 43/43/43 48/48/48
f 41/41/41 48/48/48 43/43/43
f 48/48/48 41/41/41 46/46/46
f 42/42/42 46/46/46 41/41/41
f 46/46/46 42/42/42 47/47/47
f 41/41/41 37/37/37 42/42/42
f 37/37/37 41/41/41 36/36/36
f 43/43/43 36/36/36 41/41/41
f 36/36/36 43/43/43 38/38/38
f 44/44/44 38/38/38 43/43/43
f 38/38/38 44/44/44 39/39/39
f 45/45/45 39/39/39 44/44/44
f 39/39/39 45/45/45 40/40/40
f 36/36/36 29/29/29 37/37/37
f 29/29/29 36/36/36 28/28/28
f 38/38/38 28/28/28 36/36/36
f 28/28/28 38/38/38 31/31/31
f 39/39/39 31/31/31 38/38/38
f 31/31/31 39/39/39 33/33/33
f 40/40/40 33/33/33 39/39/39
f 33/33/33 40/40/40 35/35/35
f 28/28/28 27/27/27 29/29/29
f 27/27/27 28/28/28 26/26/26
f 31/31/31 26/26/26 28/28/28
f 26/26/26 31/31/31 30/30/30
f 33/33/33 30/30/30 31/31/31
f 30/30/30 33/33/33 32/32/32
f 35/35/35 32/32/32 33/33/33
f 32/32/32 35/35/35 34/34/34
f 19/19/19 25/25/25 20/20/20
f 25/25/25 19/19/19 24/24/24
f 18/18/18 24/24/24 19/19/19
f 24/24/24 18/18/18 23/23/23
f 16/16/16 23/23/23 18/18/18
f 23/23/23 16/16/16 21/21/21
f 17/17/17 21/21/21 16/16/16
f 21/21/21 17/17/17 22/22/22
f 16/16/16 12/12/12 17/17/17
f 12/12/12 16/16/16 11/11/11
f 18/18/18 11/11/11 16/16/16
f 11/11/11 18/18/18 13/13/13
f 19/19/19 13/13/13 18/18/18
f 13/13/13 19/19/19 14/14/14
f 20/20/20 14/14/14 19/19/19
f 14/14/14 20/20/20 15/15/15
f 11/11/11 4/4/4 12/12/12
f 4/4/4 11/11/11 3/3/3
f 13/13/13 3/3/3 11/11/11
f 3/3/3 13/13/13 6/6/6
f 14/14/14 6/6/6 13/13/13
f 6/6/6 14/14/14 8/8/8
f 15/15/15 8/8/8 14/14/14
f 8/8/8 15/15/15 10/10/10
f 3/3/3 2/2/2 4/4/4
f 2/2/2 3/3/3 1/1/1
f 6/6/6 1/1/1 3/3/3
f 1/1/1 6/6/6 5/5/5
f 8/8/8 5/5/5 6/6/6
f 5/5/5 8/8/8 7/7/7
f 10/10/10 7/7/7 8/8/8
f 7/7/7 10/10/10 9/9/9
f 69/69/69 75/75/75 70/70/70
f 75/75/75 69/69/69 74/74/74
f 68/68/68 74/74/74 69/69/69
f 74/74/74 68/68/68 73/73/73
f 66/66/66 73/73/73 68/68/68
f 73/73/73 66/66/66 71/71/71
f 67/67/67 71/71/71 66/66/66
f 71/71/71 67/67/67 72/72/72
f 66/66/66 62/62/62 67/67/67
f 62/62/62 66/66/66 61/61/61
f 68/68/68 61/61/61 66/66/66
f 61/61/61 68/68/68 63/63/63
f 69/69/69 63/63/63 68/68/68
f 63/63/63 69/69/69 64/64/64
f 70/70/70 64/64/64 69/69/69
f 64/64/64 70/70/70 65/65/65
f 61/61/61 54/54/54 62/62/62
f 54/54/54 61/61/61 53/53/53
f 63/63/63 53/53/53 61/61/61
f 53/53/53 63/63/63 56/56/56
f 64/64/64 56/56/56 63/63/63
f 56/56/56 64/64/64 58/58/58
f 65/65/65 58/58/58 64/64/64
f 58/58/58 65/65/65 60/60/60
f 53/53/53 52/52/52 54/54/54
f 52/52/52 53/53/53 51/51/51
f 56/56/56 51/51/51 53/53/53
f 51/51/51 56/56/56 55/55/55
f 58/58/58 55/55/55 56/56/56
f 55/55/55 58/58/58 57/57/57
f 60/60/60 57/57/57 58/58/58
f 57/57/57 60/60/60 59/59/59
f 96/96/96 98/98/98 91/91/91
f 93/93/93 91/91/91 98/98/98
f 91/91/91 93/93/93 86/86/86
f 88/88/88 86/86/86 93/93/93
f 86/86/86 88/88/88 78/78/78
f 81/81/81 78/78/78 88/88/88
f 78/78/78 81/81/81 76/76/76
f 80/80/80 76/76/76 81/81/81
f 82/82/82 80/80/80 83/83/83
f 81/81/81 83/83/83 80/80/80
f 83/83/83 81/81/81 89/89/89
f 88/88/88 89/89/89 81/81/81
f 89/89/89 88/88/88 94/94/94
f 93/93/93 94/94/94 88/88/88
f 94/94/94 93/93/93 99/99/99
f 98/98/98 99/99/99 93/93/93
f 84/84/84 82/82/82 85/85/85
f 83/83/83 85/85/85 82/82/82
f 85/85/85 83/83/83 90/90/90
f 89/89/89 90/90/90 83/83/83
f 90/90/90 89/89/89 95/95/95
f 94/94/94 95/95/95 89/89/89
f 95/95/95 94/94/94 100/100/100
f 99/99/99 100/100/100 94/94/94
f 76/76/76 77/77/77 78/78/78
f 79/79/79 78/78/78 77/77/77
f 78/78/78 79/79/79 86/86/86
f 87/87/87 86/86/86 79/79/79
f 86/86/86 87/87/87 91/91/91
f 92/92/92 91/91/91 87/87/87
f 91/91/91 92/92/92 96/96/96
f 97/97/97 96/96/96 92/92/92
usemtl Material_#3608
v -14056.286133 15612.969727 -30646.962891
vn -0.302941 -0.507192 0.806835
vt 0.250250 0.999500
v -10122.796875 14731.774414 -29220.021484
vn -0.556704 -0.429116 0.711295
vt 0.000500 0.999500
v -12480.023438 18026.027344 -26298.261719
vn -0.422853 -0.745825 0.514724
vt 0.250250 0.749750
v -8138.659668 16250.505859 -24860.689453
vn -0.725601 -0.563702 0.394644
vt 0.000500 0.749750
v -19141.007813 15991.227539 -31259.486328
vn 0.004015 -0.541554 0.840657
vt 0.500000 0.999500
v -19141.005859 18924.335938 -27025.589844
vn 0.011400 -0.819449 0.573039
vt 0.500000 0.749750
v -24225.728516 15612.969727 -30646.962891
vn 0.305192 -0.531405 0.790232
vt 0.749750 0.999500
v -25801.990234 18026.027344 -26298.261719
vn 0.433872 -0.733276 0.523508
vt 0.749750 0.749750
v -28159.216797 14731.774414 -29220.021484
vn 0.586124 -0.459974 0.666995
vt 0.999500 0.999500
v -30143.353516 16250.505859 -24860.687500
vn 0.722707 -0.566256 0.396293
vt 0.999500 0.749750
v -11506.861328 19515.812500 -18042.037109
vn -0.502818 -0.864296 -0.012940
vt 0.250250 0.500000
v -7116.318848 17033.042969 -18042.037109
vn -0.789003 -0.614151 -0.017107
vt 0.000500 0.500000
v -19141.005859 20928.744141 -18042.035156
vn 0.000000 -1.000000 0.000000
vt 0.500000 0.500000
v -26775.150391 19515.812500 -18042.035156
vn 0.502818 -0.864296 0.012940
vt 0.749750 0.500000
v -31165.693359 17033.042969 -18042.035156
vn 0.789003 -0.614151 0.017107
vt 0.999500 0.500000
v -12480.021484 18026.027344 -9785.811523
vn -0.433872 -0.733276 -0.523508
vt 0.250250 0.250250
v -8138.658203 16250.505859 -11223.384766
vn -0.722707 -0.566256 -0.396293
vt 0.000500 0.250250
v -19141.005859 18924.335938 -9058.482422
vn -0.011400 -0.819449 -0.573039
vt 0.500000 0.250250
v -25801.988281 18026.027344 -9785.809570
vn 0.422853 -0.745825 -0.514724
vt 0.749750 0.250250
v -30143.351563 16250.505859 -11223.382813
vn 0.725601 -0.563702 -0.394644
vt 0.999500 0.250250
v -14056.283203 15612.968750 -5437.109863
vn -0.305192 -0.531405 -0.790232
vt 0.250250 0.000500
v -10122.794922 14731.773438 -6864.051758
vn -0.586124 -0.459974 -0.666995
vt 0.000500 0.000500
v -19141.003906 15991.226563 -4824.586914
vn -0.004015 -0.541554 -0.840657
vt 0.500000 0.000500
v -24225.726563 15612.968750 -5437.108887
vn 0.302941 -0.507192 -0.806835
vt 0.749750 0.000500
v -28159.214844 14731.773438 -6864.050293
vn 0.556704 -0.429116 -0.711295
vt 0.999500 0.000500
f 119/119/119 125/125/125 120/120/120
f 125/125/125 119/119/119 124/124/124
f 118/118/118 124/124/124 119/119/119
f 124/124/124 118/118/118 123/123/123
f 116/116/116 123/123/123 118/118/118
f 123/123/123 116/116/116 121/121/121
f 117/117/117 121/121/121 116/116/116
f 121/121/121 117/117/117 122/122/122
f 116/116/116 112/112/112 117/117/117
f 112/112/112 116/116/116 111/111/111
f 118/118/118 111/111/111 116/116/116
f 111/111/111 118/118/118 113/113/113
f 119/119/119 113/113/113 118/118/118
f 113/113/113 119/119/119 114/114/114
f 120/120/120 114/114/114 119/119/119
f 114/114/114 120/120/120 115/115/115
f 111/111/111 104/104/104 112/112/112
f 104/104/104 111/111/111 103/103/103
f 113/113/113 103/103/103 111/111/111
f 103/103/103 113/113/113 106/106/106
f 114/114/114 106/106/106 113/113/113
f 106/106/106 114/114/114 108/108/108
f 115/115/115 108/108/108 114/114/114
f 108/108/108 115/115/115 110/110/110
f 103/103/103 102/102/102 104/104/104
f 102/102/102 103/103/103 101/101/101
f 106/106/106 101/101/101 103/103/103
f 101/101/101 106/106/106 105/105/105
f 108/108/108 105/105/105 106/106/106
f 105/105/105 108/108/108 107/107/107
f 110/110/110 107/107/107 108/108/108
f 107/107/107 110/110/110 109/109/109
