mtllib MIRKWOOD_PLANE27.mtl
g Plane27
usemtl 13_-_Default
v -18677.935547 809.238342 -16286.228516
vn 0.017507 0.948813 -0.315352
vt 0.000000 1.000000
v -19646.134766 651.776611 -16407.179688
vn -0.278598 0.866188 -0.414852
vt 0.500000 1.000000
v -19794.394531 1098.194458 -15133.897461
vn -0.195449 0.979592 -0.046887
vt 0.500000 0.500000
v -18802.357422 887.568787 -15027.832031
vn 0.123492 0.987209 0.100838
vt 0.000000 0.500000
v -20614.333984 494.314789 -16528.128906
vn -0.227405 0.970400 -0.081310
vt 1.000000 1.000000
v -20738.755859 572.645203 -15269.734375
vn -0.493932 0.839078 -0.227989
vt 1.000000 0.500000
v -19894.978516 808.437378 -13890.387695
vn -0.144930 0.943460 0.298124
vt 0.500000 0.000000
v -18926.779297 965.899170 -13769.436523
vn -0.227405 0.970400 -0.081310
vt 0.000000 0.000000
v -20863.177734 650.975647 -14011.337891
vn -0.438964 0.887323 0.141308
vt 1.000000 0.000000
f 5/5/5 6/6/6 2/2/2
f 3/3/3 2/2/2 6/6/6
f 2/2/2 3/3/3 1/1/1
f 4/4/4 1/1/1 3/3/3
f 6/6/6 9/9/9 3/3/3
f 7/7/7 3/3/3 9/9/9
f 3/3/3 7/7/7 4/4/4
f 8/8/8 4/4/4 7/7/7
