mtllib SAVE.mtl
g save
usemtl save
v 28.249998 0.000001 -28.250002
vn 0.000000 -0.288101 -0.957600
vt 0.980684 0.413655
v -28.249998 0.000001 -28.249998
vn 0.000000 -0.288101 -0.957600
vt 0.391727 0.413655
v -31.500002 12.600002 -31.499996
vn 0.000000 -0.288101 -0.957600
vt 0.391727 0.288641
v 31.499998 12.600002 -31.500002
vn 0.000000 -0.288101 -0.957600
vt 0.980684 0.288641
v -23.414452 14.755010 -23.414450
vn -0.214911 0.906480 -0.363464
vt 0.991561 0.420207
v 3.373415 20.979094 -18.773012
vn 0.173965 0.440506 -0.880733
vt 0.911855 0.537325
v 23.414448 14.755010 -23.414454
vn 0.360491 0.890188 -0.278590
vt 0.994474 0.654624
v 6.281477 29.599720 -13.914166
vn 0.387203 0.399082 -0.831148
vt 0.809579 0.537199
v -7.632692 29.599720 -20.195646
vn -0.236542 0.478727 -0.845499
vt 0.808122 0.419990
v -1.197107 39.818283 -17.211868
vn 0.578672 0.017574 -0.815371
vt 0.686888 0.419841
v 8.007381 39.818283 -9.204487
vn 0.634460 0.219705 -0.741074
vt 0.688345 0.537049
v 9.287078 47.763912 -6.740986
vn 0.804293 -0.013572 -0.594078
vt 0.594077 0.536933
v 2.546091 47.763912 -16.028063
vn 0.744735 -0.210521 -0.633285
vt 0.592620 0.419725
v 5.670667 53.993237 -16.264044
vn 0.803055 -0.393360 -0.447628
vt 0.518715 0.419634
v 10.967356 53.993237 -5.296689
vn 0.882782 -0.183850 -0.432314
vt 0.520171 0.536842
v 12.677193 59.243237 -3.920727
vn 0.882968 -0.379329 -0.276544
vt 0.457885 0.536765
v 8.756463 59.243237 -16.597918
vn 0.357006 -0.480136 -0.801259
vt 0.456428 0.419557
v 13.502288 64.493240 -18.309198
vn 0.338002 -0.727790 -0.596722
vt 0.394141 0.419480
v 15.905745 64.493240 -2.403454
vn 0.802180 -0.583708 -0.125668
vt 0.395598 0.536689
v -28.249998 0.000001 -28.249998
vn -0.957600 -0.288101 0.000000
vt 0.391727 0.413655
v -28.249994 -0.000001 28.250000
vn -0.957600 -0.288101 0.000000
vt 0.976727 0.413655
v -31.499998 12.599999 31.500004
vn -0.957600 -0.288101 0.000000
vt 0.976727 0.288641
v -31.500002 12.600002 -31.499996
vn -0.957600 -0.288101 0.000000
vt 0.391727 0.288641
v -31.500002 12.600002 -31.499996
vn -0.112789 0.987197 -0.112789
vt 0.391727 0.290696
v -31.499998 12.599999 31.500004
vn -0.102102 0.842382 0.529120
vt 0.976727 0.290696
v -23.414448 14.755008 23.414454
vn -0.351559 0.906815 0.232581
vt 0.884463 0.194635
v -23.414452 14.755010 -23.414450
vn -0.214911 0.906480 -0.363464
vt 0.455815 0.194635
v -23.414448 14.755008 23.414454
vn -0.351559 0.906815 0.232581
vt 0.991576 0.421452
v -18.773010 20.979092 -3.373415
vn -0.880733 0.440506 -0.173965
vt 0.911870 0.538569
v -23.414452 14.755010 -23.414450
vn -0.214911 0.906480 -0.363464
vt 0.994490 0.655868
v -13.914171 29.599716 -6.281474
vn -0.831148 0.399082 -0.387203
vt 0.809594 0.538443
v -20.195650 29.599712 7.632699
vn -0.845499 0.478727 0.236542
vt 0.808138 0.421235
v -17.211870 39.818279 1.197112
vn -0.815371 0.017574 -0.578672
vt 0.686903 0.421086
v -9.204489 39.818279 -8.007378
vn -0.741074 0.219705 -0.634460
vt 0.688360 0.538294
v -6.740987 47.763912 -9.287076
vn -0.594078 -0.013572 -0.804293
vt 0.594092 0.538178
v -16.028065 47.763912 -2.546089
vn -0.633285 -0.210521 -0.744735
vt 0.592636 0.420970
v -16.264044 53.993237 -5.670666
vn -0.447628 -0.393360 -0.803055
vt 0.518730 0.420878
v -5.296689 53.993237 -10.967355
vn -0.432314 -0.183850 -0.882782
vt 0.520187 0.538087
v -3.920728 59.243237 -12.677190
vn -0.276543 -0.379329 -0.882969
vt 0.457900 0.538010
v -16.597919 59.243237 -8.756463
vn -0.801259 -0.480136 -0.357006
vt 0.456443 0.420802
v -18.309200 64.493240 -13.502286
vn -0.596722 -0.727790 -0.338002
vt 0.394157 0.420725
v -2.403456 64.493240 -15.905743
vn -0.125668 -0.583709 -0.802179
vt 0.395614 0.537933
v -28.249994 -0.000001 28.250000
vn 0.000000 -0.288101 0.957600
vt 0.976727 0.413655
v 28.250002 -0.000001 28.249996
vn 0.000000 -0.288101 0.957600
vt 0.395344 0.413655
v 31.500002 12.599999 31.499998
vn 0.000000 -0.288101 0.957600
vt 0.395344 0.288641
v 31.500002 12.599999 31.499998
vn 0.112789 0.987197 0.112789
vt 0.395684 0.290696
v 23.414454 14.755008 23.414448
vn 0.232278 0.904271 0.358248
vt 0.458588 0.194635
v 23.414454 14.755008 23.414448
vn 0.232278 0.904271 0.358248
vt 0.991557 0.419889
v -3.373412 20.979090 18.773012
vn -0.173965 0.440506 0.880733
vt 0.911851 0.537007
v -23.414448 14.755008 23.414454
vn -0.351559 0.906815 0.232581
vt 0.994470 0.654306
v -6.281477 29.599712 13.914176
vn -0.387203 0.399082 0.831149
vt 0.809575 0.536881
v 7.632694 29.599712 20.195652
vn 0.236542 0.478727 0.845499
vt 0.808118 0.419673
v 1.197110 39.818275 17.211872
vn -0.578671 0.017574 0.815371
vt 0.686884 0.419523
v -8.007380 39.818279 9.204493
vn -0.634460 0.219705 0.741074
vt 0.688341 0.536732
v -9.287078 47.763912 6.740988
vn -0.804293 -0.013572 0.594078
vt 0.594073 0.536615
v -2.546091 47.763908 16.028065
vn -0.744735 -0.210521 0.633285
vt 0.592616 0.419407
v -5.670668 53.993237 16.264044
vn -0.803055 -0.393360 0.447628
vt 0.518711 0.419316
v -10.967357 53.993237 5.296690
vn -0.882782 -0.183850 0.432314
vt 0.520167 0.536524
v -12.677193 59.243237 3.920730
vn -0.882968 -0.379329 0.276544
vt 0.457881 0.536448
v -8.756463 59.243237 16.597923
vn -0.357006 -0.480137 0.801259
vt 0.456424 0.419239
v -13.502286 64.493233 18.309202
vn -0.330226 -0.671408 0.663447
vt 0.394137 0.419163
v -15.905743 64.493240 2.403458
vn -0.802179 -0.583709 0.125668
vt 0.395594 0.536371
v 28.250002 -0.000001 28.249996
vn 0.957600 -0.288101 0.000000
vt 0.395684 0.413655
v 28.249998 0.000001 -28.250002
vn 0.957600 -0.288101 0.000000
vt 0.980684 0.413655
v 31.499998 12.600002 -31.500002
vn 0.957600 -0.288101 0.000000
vt 0.980684 0.288641
v 31.500002 12.599999 31.499998
vn 0.957600 -0.288101 0.000000
vt 0.395684 0.288641
v 31.499998 12.600002 -31.500002
vn 0.112789 0.987197 -0.112789
vt 0.980684 0.290696
v 23.414448 14.755010 -23.414454
vn 0.360491 0.890188 -0.278590
vt 0.887236 0.194635
v 23.414448 14.755010 -23.414454
vn 0.360491 0.890188 -0.278590
vt 0.991575 0.421321
v 18.773014 20.979090 3.373415
vn 0.880733 0.440506 0.173965
vt 0.911869 0.538438
v 23.414454 14.755008 23.414448
vn 0.232278 0.904271 0.358248
vt 0.994488 0.655738
v 13.914171 29.599714 6.281483
vn 0.831148 0.399082 0.387203
vt 0.809593 0.538312
v 20.195648 29.599720 -7.632687
vn 0.845499 0.478727 -0.236542
vt 0.808136 0.421104
v 17.211870 39.818283 -1.197105
vn 0.815371 0.017574 0.578672
vt 0.686902 0.420955
v 9.204490 39.818279 8.007383
vn 0.741073 0.219705 0.634460
vt 0.688359 0.538163
v 6.740987 47.763912 9.287078
vn 0.594078 -0.013572 0.804293
vt 0.594091 0.538047
v 16.028065 47.763912 2.546091
vn 0.633285 -0.210520 0.744735
vt 0.592634 0.420839
v 16.264044 53.993237 5.670666
vn 0.447628 -0.393360 0.803055
vt 0.518729 0.420748
v 5.296688 53.993237 10.967356
vn 0.432314 -0.183850 0.882782
vt 0.520185 0.537956
v 3.920728 59.243237 12.677193
vn 0.276544 -0.379329 0.882968
vt 0.457899 0.537879
v 16.597919 59.243237 8.756464
vn 0.801259 -0.480136 0.357006
vt 0.456442 0.420671
v 18.309202 64.493233 13.502290
vn 0.609322 -0.717213 0.338130
vt 0.394155 0.420594
v 2.403458 64.493233 15.905746
vn 0.128060 -0.574582 0.808367
vt 0.395612 0.537802
v 20.833328 69.743233 -6.944440
vn 0.345902 -0.937702 -0.032670
vt 0.332715 0.488596
v 21.398880 70.276443 -21.775663
vn 0.602461 -0.155708 -0.782813
vt 0.331855 0.419404
v 21.775667 70.276443 21.398880
vn 0.802690 0.400649 0.441780
vt 0.331869 0.420517
v -6.944444 69.743233 -20.833328
vn -0.032670 -0.937702 -0.345902
vt 0.332730 0.489840
v -21.775663 70.276443 -21.398876
vn -0.262579 -0.951494 -0.160346
vt 0.331870 0.420648
v -20.833332 69.743233 6.944447
vn -0.345902 -0.937702 0.032670
vt 0.332721 0.489082
v -21.398878 70.276443 21.775663
vn -0.529877 -0.848054 0.005934
vt 0.331861 0.419890
v -15.399597 20.979094 -22.146427
vn 0.176823 0.021025 -0.984018
vt 0.910398 0.420116
v -22.146423 20.979090 15.399596
vn -0.984018 0.021025 -0.176823
vt 0.910414 0.421361
v 15.399599 20.979090 22.146425
vn -0.176823 0.021025 0.984018
vt 0.910405 0.420603
v 22.146427 20.979094 -15.399595
vn 0.984018 0.021025 0.176823
vt 0.910412 0.421230
v 22.146427 20.979094 -15.399595
vn 0.180996 0.705540 -0.685167
vt 0.913312 0.654533
v 20.195648 29.599720 -7.632687
vn 0.845499 0.478727 -0.236542
vt 0.811036 0.654407
v 17.211870 39.818283 -1.197105
vn 0.650472 0.406916 -0.641331
vt 0.689801 0.654257
v 16.028065 47.763912 2.546091
vn 0.828722 0.184275 -0.528454
vt 0.595533 0.654141
v 16.264044 53.993237 5.670666
vn 0.920246 0.046068 -0.388620
vt 0.521628 0.654050
v 16.597919 59.243237 8.756464
vn 0.801259 -0.480136 0.357006
vt 0.459341 0.653974
v 18.309202 64.493233 13.502290
vn 0.609322 -0.717213 0.338130
vt 0.397055 0.653897
v 20.833328 69.743233 6.944447
vn 0.450605 -0.892626 -0.013195
vt 0.333908 0.584628
v 21.775667 70.276443 21.398880
vn 0.802690 0.400649 0.441780
vt 0.334768 0.653820
v 15.399599 20.979090 22.146425
vn 0.685167 0.705540 0.180996
vt 0.913326 0.655647
v 7.632694 29.599712 20.195652
vn 0.236542 0.478727 0.845499
vt 0.811049 0.655521
v 1.197110 39.818275 17.211872
vn 0.641331 0.406917 0.650471
vt 0.689815 0.655371
v -2.546091 47.763908 16.028065
vn 0.528454 0.184275 0.828722
vt 0.595547 0.655255
v -5.670668 53.993237 16.264044
vn 0.388620 0.046068 0.920246
vt 0.521642 0.655164
v -8.756463 59.243237 16.597923
vn -0.357006 -0.480137 0.801259
vt 0.459355 0.655087
v -13.502286 64.493233 18.309202
vn -0.330226 -0.671408 0.663447
vt 0.397069 0.655011
v -15.399597 20.979094 -22.146427
vn -0.685167 0.705540 -0.180996
vt 0.913327 0.655777
v -7.632692 29.599720 -20.195646
vn -0.236542 0.478727 -0.845499
vt 0.811051 0.655651
v -1.197107 39.818283 -17.211868
vn -0.641331 0.406917 -0.650472
vt 0.689817 0.655502
v 2.546091 47.763912 -16.028063
vn -0.528454 0.184274 -0.828722
vt 0.595549 0.655386
v 5.670667 53.993237 -16.264044
vn -0.388620 0.046068 -0.920246
vt 0.521643 0.655295
v 8.756463 59.243237 -16.597918
vn 0.357006 -0.480136 -0.801259
vt 0.459357 0.655218
v 13.502288 64.493240 -18.309198
vn 0.338002 -0.727790 -0.596722
vt 0.397070 0.655142
v 6.944446 69.743233 -20.833330
vn -0.013195 -0.892626 -0.450605
vt 0.333924 0.585873
v 21.398880 70.276443 -21.775663
vn 0.602461 -0.155708 -0.782813
vt 0.334783 0.655065
v 6.944445 69.743233 20.833334
vn 0.000000 0.777702 -0.628634
vt 0.332728 0.489709
v -6.944444 69.743233 20.833334
vn -0.002153 0.828340 -0.560221
vt 0.333922 0.585742
v -21.398878 70.276443 21.775663
vn -0.376450 -0.007547 0.926406
vt 0.334782 0.654934
v -22.146423 20.979090 15.399596
vn -0.180996 0.705540 0.685167
vt 0.913318 0.655019
v -20.195650 29.599712 7.632699
vn -0.845499 0.478727 0.236542
vt 0.811042 0.654893
v -17.211870 39.818279 1.197112
vn -0.650471 0.406917 0.641331
vt 0.689797 0.653940
v -16.028065 47.763912 -2.546089
vn -0.828722 0.184275 0.528454
vt 0.595540 0.654628
v -16.264044 53.993237 -5.670666
vn -0.920246 0.046068 0.388620
vt 0.521624 0.653733
v -16.597919 59.243237 -8.756463
vn -0.801259 -0.480136 -0.357006
vt 0.459347 0.654460
v -18.309200 64.493240 -13.502286
vn -0.596722 -0.727790 -0.338002
vt 0.397051 0.653579
v -20.833330 69.743233 -6.944441
vn -0.451392 -0.891865 0.028665
vt 0.333914 0.585115
v -21.775663 70.276443 -21.398876
vn -0.262579 -0.951494 -0.160346
vt 0.334774 0.654307
v -16.849508 79.973137 17.146193
vn -0.407874 0.848147 0.338060
vt 0.985981 0.016755
v -23.165197 79.973145 6.424283
vn -0.343007 0.937880 0.052231
vt 0.760923 0.016755
v -29.419802 70.276443 8.158838
vn -0.738905 0.613881 0.277794
vt 0.760923 0.147306
v -21.398878 70.276443 21.775663
vn -0.376450 -0.007547 0.926406
vt 0.985981 0.147306
v -6.019006 79.973137 23.273794
vn -0.126270 0.937880 0.323168
vt 0.535212 0.016755
v -16.849508 79.973137 17.146193
vn -0.407874 0.848147 0.338060
vt 0.310154 0.016755
v -21.398878 70.276443 21.775663
vn -0.376450 -0.007547 0.926406
vt 0.310154 0.147306
v -7.644138 70.276443 29.557718
vn -0.128876 0.613881 0.778808
vt 0.535212 0.147306
v 6.424284 79.973137 23.165203
vn 0.052231 0.937880 0.343007
vt 0.760271 0.016755
v 8.158841 70.276443 29.419806
vn 0.277794 0.613881 0.738905
vt 0.760271 0.147306
v 17.146194 79.973137 16.849512
vn 0.338060 0.848147 0.407874
vt 0.985329 0.016755
v 21.775667 70.276443 21.398880
vn 0.802690 0.400649 0.441780
vt 0.985329 0.147306
v 23.273794 79.973145 6.019009
vn 0.323168 0.937880 0.126270
vt 0.534459 0.016755
v 17.146194 79.973137 16.849512
vn 0.338060 0.848147 0.407874
vt 0.309401 0.016755
v 21.775667 70.276443 21.398880
vn 0.802690 0.400649 0.441780
vt 0.309401 0.147306
v 29.557718 70.276443 7.644141
vn 0.778808 0.613881 0.128876
vt 0.534459 0.147306
v 23.165203 79.973145 -6.424281
vn 0.343007 0.937880 -0.052231
vt 0.759517 0.016755
v 29.419807 70.276443 -8.158837
vn 0.738905 0.613881 -0.277794
vt 0.759517 0.147306
v 16.849512 79.973145 -17.146191
vn 0.407874 0.848147 -0.338060
vt 0.984576 0.016755
v 21.398880 70.276443 -21.775663
vn 0.602461 -0.155708 -0.782813
vt 0.984576 0.147306
v 6.019011 79.973145 -23.273790
vn 0.126270 0.937880 -0.323168
vt 0.533807 0.016755
v 16.849512 79.973145 -17.146191
vn 0.407874 0.848147 -0.338060
vt 0.308748 0.016755
v 21.398880 70.276443 -21.775663
vn 0.602461 -0.155708 -0.782813
vt 0.308748 0.147306
v 7.644142 70.276443 -29.557718
vn 0.128876 0.613881 -0.778808
vt 0.533807 0.147306
v -6.424281 79.973145 -23.165197
vn -0.052231 0.937880 -0.343007
vt 0.758865 0.016755
v -8.158838 70.276443 -29.419802
vn -0.277794 0.613881 -0.738905
vt 0.758865 0.147306
v -17.146191 79.973145 -16.849508
vn -0.338060 0.848147 -0.407874
vt 0.983923 0.016755
v -21.775663 70.276443 -21.398876
vn -0.610029 0.613881 -0.501014
vt 0.983923 0.147306
v -23.273788 79.973145 -6.019005
vn -0.323168 0.937880 -0.126270
vt 0.535865 0.016755
v -17.146191 79.973145 -16.849508
vn -0.338060 0.848147 -0.407874
vt 0.310806 0.016755
v -21.775663 70.276443 -21.398876
vn -0.610029 0.613881 -0.501014
vt 0.310806 0.147306
v -29.557714 70.276443 -7.644137
vn -0.778808 0.613881 -0.128876
vt 0.535865 0.147306
v -23.165197 79.973145 6.424283
vn -0.343007 0.937880 0.052231
vt 0.287413 0.317121
v 0.000002 74.220551 0.000002
vn 0.000000 1.000000 0.000000
vt 0.003920 0.317121
v -23.273788 79.973145 -6.019005
vn -0.323168 0.937880 -0.126270
vt 0.249432 0.471625
v 6.424284 79.973137 23.165203
vn 0.052231 0.937880 0.343007
vt 0.010662 0.008114
v 17.146194 79.973137 16.849512
vn 0.338060 0.848147 0.407874
vt 0.143356 0.049513
v 16.849512 79.973145 -17.146191
vn 0.407874 0.848147 -0.338060
vt 0.247122 0.471625
v 6.019011 79.973145 -23.273790
vn 0.126270 0.937880 -0.323168
vt 0.143356 0.584729
v -6.424281 79.973145 -23.165197
vn -0.052231 0.937880 -0.343007
vt 0.010662 0.626128
v 23.273794 79.973145 6.019009
vn 0.323168 0.937880 0.126270
vt 0.247122 0.162617
v 23.165203 79.973145 -6.424281
vn 0.343007 0.937880 -0.052231
vt 0.285103 0.317121
v -16.849508 79.973137 17.146193
vn -0.407874 0.848147 0.338060
vt 0.249432 0.162618
v -6.019006 79.973137 23.273794
vn -0.126270 0.937880 0.323168
vt 0.147204 0.049513
v -17.146191 79.973145 -16.849508
vn -0.338060 0.848147 -0.407874
vt 0.145666 0.584729
v -29.419802 70.276443 8.158838
vn -0.049066 -0.998377 0.028902
vt 0.575004 0.174096
v -20.833332 69.743233 6.944447
vn -0.345902 -0.937702 0.032670
vt 0.581810 0.204982
v -21.398878 70.276443 21.775663
vn -0.376450 -0.007547 0.926406
vt 0.500804 0.175070
v -29.557714 70.276443 -7.644137
vn -0.053099 -0.998589 0.000463
vt 0.663563 0.174079
v -20.833330 69.743233 -6.944441
vn -0.451392 -0.891865 0.028665
vt 0.659642 0.204982
v -21.775663 70.276443 -21.398876
vn -0.262579 -0.951494 -0.160346
vt 0.740644 0.175047
v -8.158838 70.276443 -29.419802
vn -0.028902 -0.998377 -0.049066
vt 0.575000 0.174096
v -6.944444 69.743233 -20.833328
vn -0.032670 -0.937702 -0.345902
vt 0.581818 0.204974
v -21.775663 70.276443 -21.398876
vn -0.262579 -0.951494 -0.160346
vt 0.498693 0.175094
v 7.644142 70.276443 -29.557718
vn 0.028312 -0.998346 -0.050041
vt 0.663559 0.174079
v 21.398880 70.276443 -21.775663
vn 0.602461 -0.155708 -0.782813
vt 0.742755 0.175117
v 6.944446 69.743233 -20.833330
vn -0.013195 -0.892626 -0.450605
vt 0.659650 0.204974
v 29.419807 70.276443 -8.158837
vn 0.049066 -0.998377 -0.028902
vt 0.666447 0.174119
v 20.833328 69.743233 -6.944440
vn 0.345902 -0.937702 -0.032670
vt 0.659642 0.206012
v 29.557718 70.276443 7.644141
vn 0.050041 -0.998346 0.028312
vt 0.577888 0.174102
v 21.775667 70.276443 21.398880
vn 0.039476 -0.998471 0.038693
vt 0.500808 0.175070
v 20.833328 69.743233 6.944447
vn 0.450605 -0.892626 -0.013195
vt 0.581810 0.206012
v 8.158841 70.276443 29.419806
vn 0.028902 -0.998377 0.049066
vt 0.666443 0.174119
v 6.944445 69.743233 20.833334
vn 0.028902 -0.998377 0.049066
vt 0.659650 0.206020
v 21.775667 70.276443 21.398880
vn 0.039476 -0.998471 0.038693
vt 0.742751 0.175117
v -6.944444 69.743233 20.833334
vn -0.028312 -0.998346 0.050041
vt 0.581818 0.206020
v -7.644138 70.276443 29.557718
vn -0.028312 -0.998346 0.050041
vt 0.577884 0.174102
f 22/22/22 20/20/20 21/21/21
f 20/20/20 22/22/22 23/23/23
f 19/19/19 84/84/84 102/102/102
f 84/84/84 19/19/19 18/18/18
f 16/16/16 18/18/18 19/19/19
f 18/18/18 16/16/16 17/17/17
f 15/15/15 17/17/17 16/16/16
f 17/17/17 15/15/15 14/14/14
f 12/12/12 14/14/14 15/15/15
f 14/14/14 12/12/12 13/13/13
f 11/11/11 13/13/13 12/12/12
f 13/13/13 11/11/11 10/10/10
f 8/8/8 10/10/10 11/11/11
f 10/10/10 8/8/8 9/9/9
f 6/6/6 9/9/9 8/8/8
f 9/9/9 6/6/6 91/91/91
f 5/5/5 91/91/91 6/6/6
f 18/18/18 85/85/85 84/84/84
f 6/6/6 7/7/7 5/5/5
f 7/7/7 6/6/6 95/95/95
f 8/8/8 95/95/95 6/6/6
f 95/95/95 8/8/8 96/96/96
f 11/11/11 96/96/96 8/8/8
f 96/96/96 11/11/11 97/97/97
f 12/12/12 97/97/97 11/11/11
f 97/97/97 12/12/12 98/98/98
f 15/15/15 98/98/98 12/12/12
f 98/98/98 15/15/15 99/99/99
f 16/16/16 99/99/99 15/15/15
f 99/99/99 16/16/16 100/100/100
f 19/19/19 100/100/100 16/16/16
f 100/100/100 19/19/19 101/101/101
f 102/102/102 101/101/101 19/19/19
f 101/101/101 102/102/102 103/103/103
f 48/48/48 93/93/93 49/49/49
f 52/52/52 49/49/49 93/93/93
f 49/49/49 52/52/52 51/51/51
f 53/53/53 51/51/51 52/52/52
f 51/51/51 53/53/53 54/54/54
f 56/56/56 54/54/54 53/53/53
f 54/54/54 56/56/56 55/55/55
f 57/57/57 55/55/55 56/56/56
f 55/55/55 57/57/57 58/58/58
f 60/60/60 58/58/58 57/57/57
f 58/58/58 60/60/60 59/59/59
f 61/61/61 59/59/59 60/60/60
f 59/59/59 61/61/61 62/62/62
f 89/89/89 62/62/62 61/61/61
f 62/62/62 89/89/89 130/130/130
f 61/61/61 90/90/90 89/89/89
f 49/49/49 50/50/50 48/48/48
f 50/50/50 49/49/49 123/123/123
f 51/51/51 123/123/123 49/49/49
f 123/123/123 51/51/51 124/124/124
f 54/54/54 124/124/124 51/51/51
f 124/124/124 54/54/54 125/125/125
f 55/55/55 125/125/125 54/54/54
f 125/125/125 55/55/55 126/126/126
f 58/58/58 126/126/126 55/55/55
f 126/126/126 58/58/58 127/127/127
f 59/59/59 127/127/127 58/58/58
f 127/127/127 59/59/59 128/128/128
f 62/62/62 128/128/128 59/59/59
f 128/128/128 62/62/62 129/129/129
f 130/130/130 129/129/129 62/62/62
f 129/129/129 130/130/130 131/131/131
f 69/69/69 94/94/94 70/70/70
f 73/73/73 70/70/70 94/94/94
f 70/70/70 73/73/73 72/72/72
f 74/74/74 72/72/72 73/73/73
f 72/72/72 74/74/74 75/75/75
f 77/77/77 75/75/75 74/74/74
f 75/75/75 77/77/77 76/76/76
f 78/78/78 76/76/76 77/77/77
f 76/76/76 78/78/78 79/79/79
f 81/81/81 79/79/79 78/78/78
f 79/79/79 81/81/81 80/80/80
f 82/82/82 80/80/80 81/81/81
f 80/80/80 82/82/82 83/83/83
f 86/86/86 83/83/83 82/82/82
f 83/83/83 86/86/86 122/122/122
f 121/121/121 122/122/122 86/86/86
f 86/86/86 120/120/120 121/121/121
f 70/70/70 71/71/71 69/69/69
f 71/71/71 70/70/70 104/104/104
f 72/72/72 104/104/104 70/70/70
f 104/104/104 72/72/72 105/105/105
f 75/75/75 105/105/105 72/72/72
f 105/105/105 75/75/75 106/106/106
f 76/76/76 106/106/106 75/75/75
f 106/106/106 76/76/76 107/107/107
f 79/79/79 107/107/107 76/76/76
f 107/107/107 79/79/79 108/108/108
f 80/80/80 108/108/108 79/79/79
f 108/108/108 80/80/80 109/109/109
f 83/83/83 109/109/109 80/80/80
f 109/109/109 83/83/83 110/110/110
f 122/122/122 110/110/110 83/83/83
f 28/28/28 92/92/92 29/29/29
f 32/32/32 29/29/29 92/92/92
f 29/29/29 32/32/32 31/31/31
f 33/33/33 31/31/31 32/32/32
f 31/31/31 33/33/33 34/34/34
f 36/36/36 34/34/34 33/33/33
f 34/34/34 36/36/36 35/35/35
f 37/37/37 35/35/35 36/36/36
f 35/35/35 37/37/37 38/38/38
f 40/40/40 38/38/38 37/37/37
f 38/38/38 40/40/40 39/39/39
f 41/41/41 39/39/39 40/40/40
f 39/39/39 41/41/41 42/42/42
f 87/87/87 42/42/42 41/41/41
f 42/42/42 87/87/87 118/118/118
f 41/41/41 88/88/88 87/87/87
f 29/29/29 30/30/30 28/28/28
f 30/30/30 29/29/29 111/111/111
f 31/31/31 111/111/111 29/29/29
f 111/111/111 31/31/31 112/112/112
f 34/34/34 112/112/112 31/31/31
f 112/112/112 34/34/34 113/113/113
f 35/35/35 113/113/113 34/34/34
f 113/113/113 35/35/35 114/114/114
f 38/38/38 114/114/114 35/35/35
f 114/114/114 38/38/38 115/115/115
f 39/39/39 115/115/115 38/38/38
f 115/115/115 39/39/39 116/116/116
f 42/42/42 116/116/116 39/39/39
f 116/116/116 42/42/42 117/117/117
f 118/118/118 117/117/117 42/42/42
f 117/117/117 118/118/118 119/119/119
f 68/68/68 67/67/67 27/27/27
f 24/24/24 27/27/27 67/67/67
f 27/27/27 24/24/24 26/26/26
f 25/25/25 26/26/26 24/24/24
f 26/26/26 25/25/25 47/47/47
f 46/46/46 47/47/47 25/25/25
f 68/68/68 46/46/46 67/67/67
f 46/46/46 68/68/68 47/47/47
f 45/45/45 43/43/43 44/44/44
f 43/43/43 45/45/45 25/25/25
f 161/161/161 162/162/162 160/160/160
f 163/163/163 160/160/160 162/162/162
f 160/160/160 163/163/163 133/133/133
f 134/134/134 133/133/133 163/163/163
f 133/133/133 134/134/134 132/132/132
f 135/135/135 132/132/132 134/134/134
f 165/165/165 164/164/164 174/174/174
f 164/164/164 165/165/165 166/166/166
f 176/176/176 166/166/166 165/165/165
f 165/165/165 171/171/171 176/176/176
f 171/171/171 165/165/165 170/170/170
f 165/165/165 169/169/169 170/170/170
f 169/169/169 165/165/165 173/173/173
f 165/165/165 172/172/172 173/173/173
f 172/172/172 165/165/165 168/168/168
f 174/174/174 175/175/175 165/165/165
f 167/167/167 165/165/165 175/175/175
f 165/165/165 167/167/167 168/168/168
f 137/137/137 138/138/138 136/136/136
f 139/139/139 136/136/136 138/138/138
f 136/136/136 139/139/139 140/140/140
f 141/141/141 140/140/140 139/139/139
f 140/140/140 141/141/141 142/142/142
f 143/143/143 142/142/142 141/141/141
f 145/145/145 146/146/146 144/144/144
f 147/147/147 144/144/144 146/146/146
f 144/144/144 147/147/147 148/148/148
f 149/149/149 148/148/148 147/147/147
f 148/148/148 149/149/149 150/150/150
f 151/151/151 150/150/150 149/149/149
f 153/153/153 154/154/154 152/152/152
f 155/155/155 152/152/152 154/154/154
f 152/152/152 155/155/155 156/156/156
f 157/157/157 156/156/156 155/155/155
f 156/156/156 157/157/157 158/158/158
f 159/159/159 158/158/158 157/157/157
f 182/182/182 181/181/181 180/180/180
f 178/178/178 180/180/180 181/181/181
f 180/180/180 178/178/178 177/177/177
f 179/179/179 177/177/177 178/178/178
f 179/179/179 197/197/197 198/198/198
f 195/195/195 198/198/198 197/197/197
f 198/198/198 195/195/195 194/194/194
f 196/196/196 194/194/194 195/195/195
f 187/187/187 188/188/188 186/186/186
f 184/184/184 186/186/186 188/188/188
f 186/186/186 184/184/184 183/183/183
f 185/185/185 183/183/183 184/184/184
f 192/192/192 193/193/193 191/191/191
f 190/190/190 191/191/191 193/193/193
f 191/191/191 190/190/190 189/189/189
f 187/187/187 189/189/189 190/190/190
f 65/65/65 63/63/63 64/64/64
f 63/63/63 65/65/65 66/66/66
f 3/3/3 1/1/1 2/2/2
f 1/1/1 3/3/3 4/4/4
