mtllib TENT.mtl
g Plane01
usemtl 1_-_Default
v 20.455402 27.177074 -78.239578
vn -0.110750 0.951779 -0.286096
vt 0.485473 0.666500
v 101.993858 0.000003 -79.352142
vn 0.408262 0.906989 -0.103406
vt 0.000500 0.666500
v 112.363846 0.000007 -162.782990
vn 0.135284 0.976652 -0.166882
vt 0.000500 0.999500
v 27.938337 1.556899 -145.600067
vn -0.120598 0.962693 -0.242238
vt 0.485473 0.999500
v -72.812531 3.832402 -46.878891
vn -0.191016 0.971681 -0.139098
vt 0.999500 0.666500
v -34.503723 3.597334 -110.600563
vn 0.046104 0.998648 0.024033
vt 0.999500 0.999500
v 0.494233 69.925903 8.409554
vn -0.065707 0.934560 -0.349685
vt 0.485473 0.333500
v 96.426926 -0.000002 34.740974
vn 0.677019 0.711239 -0.189166
vt 0.000500 0.333500
v -106.006355 -0.000001 34.121342
vn -0.478262 0.850679 -0.218198
vt 0.999500 0.333500
v 0.000017 177.807297 191.200241
vn 0.837558 0.271455 0.474141
vt 0.485473 0.000500
v 112.363869 -0.000005 104.531700
vn -0.029645 -0.442217 0.896418
vt 0.000500 0.000500
v -119.095497 -0.000005 104.797043
vn -0.705868 0.685080 0.180043
vt 0.999501 0.000500
v 0.013779 164.773514 177.565079
vn 0.006527 -0.655306 0.755336
vt 0.485473 0.000500
v 112.377632 -13.033794 90.896553
vn -0.521783 -0.616925 0.589190
vt 0.000500 0.000500
v -119.081734 -13.033794 91.161896
vn 0.499945 -0.625793 0.598698
vt 0.999501 0.000500
f 11/11/11 13/13/13 14/14/14
f 13/13/13 11/11/11 10/10/10
f 8/8/8 10/10/10 11/11/11
f 10/10/10 8/8/8 7/7/7
f 2/2/2 7/7/7 8/8/8
f 7/7/7 2/2/2 1/1/1
f 3/3/3 1/1/1 2/2/2
f 1/1/1 3/3/3 4/4/4
f 10/10/10 15/15/15 13/13/13
f 15/15/15 10/10/10 12/12/12
f 7/7/7 12/12/12 10/10/10
f 12/12/12 7/7/7 9/9/9
f 1/1/1 9/9/9 7/7/7
f 9/9/9 1/1/1 5/5/5
f 4/4/4 5/5/5 1/1/1
f 5/5/5 4/4/4 6/6/6
usemtl 7_-_Default
v 85.571182 -13.229779 93.851410
vn -0.715569 0.278323 0.640700
vt 0.750000 0.999501
v 87.920929 -14.505586 95.395103
vn 0.776092 -0.531583 0.339266
vt 1.102416 0.999501
v 122.226524 42.233418 100.720863
vn 0.057240 -0.135442 0.989130
vt 1.102417 0.058471
v 115.970131 45.630367 99.312622
vn -0.476975 0.166263 0.863048
vt 0.926208 0.058471
v 111.770149 47.910770 93.851410
vn -0.847070 0.355558 -0.395032
vt 0.750000 0.058471
v 87.920929 -14.505586 95.395103
vn 0.776092 -0.531583 0.339266
vt 0.102416 0.999501
v 87.920929 -14.505586 92.307716
vn -0.199154 -0.002068 -0.979966
vt 0.397584 0.999501
v 122.226524 42.233418 86.981956
vn 0.658540 -0.461922 -0.594098
vt 0.397584 0.058471
v 124.282944 41.116871 93.851410
vn 0.837017 -0.547177 0.000196
vt 0.250000 0.058471
v 122.226524 42.233418 100.720863
vn 0.057240 -0.135442 0.989130
vt 0.102416 0.058471
v 115.970123 45.630367 88.390198
vn -0.476677 0.166101 -0.863244
vt 0.573792 0.058471
v 87.920929 -14.505586 92.307716
vn -0.477158 -0.878817 0.000000
vt 0.637842 0.883497
v 87.920929 -14.505586 95.395103
vn -0.477158 -0.878817 0.000000
vt 0.546722 0.880362
v 85.571182 -13.229779 93.851410
vn -0.477158 -0.878817 0.000000
vt 0.228480 0.881282
v 115.970131 45.630367 99.312622
vn 0.477159 0.878817 0.000000
vt 0.387601 0.880822
v 122.226524 42.233418 100.720863
vn 0.477159 0.878817 0.000000
vt 0.546722 0.880362
v 124.282944 41.116871 93.851410
vn 0.477159 0.878817 0.000000
vt 0.592282 0.881929
v 122.226524 42.233418 86.981956
vn 0.477159 0.878817 0.000000
vt 0.637842 0.883497
v 115.970123 45.630367 88.390198
vn 0.477159 0.878817 0.000000
vt 0.433161 0.882389
v 111.770149 47.910770 93.851410
vn 0.477159 0.878817 0.000000
vt 0.228480 0.881282
v 95.179413 -24.957014 -156.008224
vn -0.729946 0.274127 -0.626126
vt 0.750000 0.999501
v 94.052727 -25.245943 -153.148315
vn -0.233284 -0.243614 0.941398
vt 1.102416 0.999501
v 109.267609 36.948063 -135.121536
vn -0.948673 0.143034 0.282065
vt 1.102417 0.058471
v 109.712074 38.422325 -142.213348
vn -0.902822 0.278354 -0.327766
vt 0.926208 0.058471
v 114.281387 38.233810 -147.848145
vn 0.232154 0.048100 -0.971489
vt 0.750000 0.058471
v 94.052727 -25.245943 -153.148315
vn -0.233284 -0.243614 0.941398
vt 0.102416 0.999501
v 96.972679 -26.051456 -153.745834
vn 0.876073 -0.300727 -0.376907
vt 0.397584 0.999501
v 122.261398 33.363529 -137.780502
vn 0.633978 -0.447039 0.631053
vt 0.397584 0.058471
v 116.056183 34.550453 -134.209579
vn 0.099608 -0.333563 0.937451
vt 0.250000 0.058471
v 109.267609 36.948063 -135.121536
vn -0.948673 0.143034 0.282065
vt 0.102416 0.058471
v 120.042137 35.572624 -144.327240
vn 0.729888 -0.172130 -0.661539
vt 0.573792 0.058471
v 96.972679 -26.051456 -153.745834
vn -0.299982 -0.930057 -0.212142
vt 0.637842 0.883497
v 94.052727 -25.245943 -153.148315
vn -0.299982 -0.930057 -0.212142
vt 0.546722 0.880362
v 95.179413 -24.957014 -156.008224
vn -0.299982 -0.930057 -0.212142
vt 0.228480 0.881282
v 109.712074 38.422325 -142.213348
vn 0.299982 0.930057 0.212143
vt 0.387601 0.880822
v 109.267609 36.948063 -135.121536
vn 0.299982 0.930057 0.212143
vt 0.546722 0.880362
v 116.056183 34.550453 -134.209579
vn 0.299982 0.930057 0.212143
vt 0.592282 0.881929
v 122.261398 33.363529 -137.780502
vn 0.299982 0.930057 0.212143
vt 0.637842 0.883497
v 120.042137 35.572624 -144.327240
vn 0.299982 0.930057 0.212143
vt 0.433161 0.882389
v 114.281387 38.233810 -147.848145
vn 0.299982 0.930057 0.212143
vt 0.228480 0.881282
v -100.698982 4.523204 -119.762054
vn 0.344183 -0.778929 -0.524221
vt 0.750000 0.999501
v -101.899353 3.540942 -117.092545
vn -0.315770 -0.146585 0.937445
vt 1.102416 0.999501
v -163.949707 -1.207846 -140.582016
vn -0.041475 -0.946442 0.320200
vt 1.102417 0.058471
v -160.968842 -1.240709 -147.198532
vn 0.206423 -0.944651 -0.254997
vt 0.926208 0.058471
v -158.608063 3.163218 -152.461334
vn 0.483422 0.205929 -0.850821
vt 0.750000 0.058471
v -101.899353 3.540942 -117.092545
vn -0.315770 -0.146585 0.937445
vt 0.102416 0.999501
v -101.653442 6.566899 -117.653900
vn 0.236481 0.926125 -0.293886
vt 0.397584 0.999501
v -162.855392 12.257661 -143.080032
vn -0.191081 0.741092 0.643639
vt 0.397584 0.058471
v -164.345474 5.989373 -139.740402
vn -0.327347 0.197810 0.923967
vt 0.250000 0.058471
v -163.949707 -1.207846 -140.582016
vn -0.041475 -0.946442 0.320200
vt 0.102416 0.058471
v -160.098862 9.464369 -149.184448
vn 0.343786 0.747356 -0.568569
vt 0.573792 0.058471
v -101.653442 6.566899 -117.653900
vn 0.911746 0.002105 0.410750
vt 0.637842 0.883497
v -101.899353 3.540942 -117.092545
vn 0.911746 0.002105 0.410750
vt 0.546722 0.880362
v -100.698982 4.523204 -119.762054
vn 0.911746 0.002105 0.410750
vt 0.228480 0.881282
v -160.968842 -1.240709 -147.198532
vn -0.911746 -0.002103 -0.410749
vt 0.387601 0.880822
v -163.949707 -1.207846 -140.582016
vn -0.911746 -0.002105 -0.410748
vt 0.546722 0.880362
v -164.345474 5.989373 -139.740402
vn -0.911746 -0.002104 -0.410749
vt 0.592282 0.881929
v -162.855392 12.257661 -143.080032
vn -0.911746 -0.002103 -0.410749
vt 0.637842 0.883497
v -160.098862 9.464369 -149.184448
vn -0.911746 -0.002103 -0.410749
vt 0.433161 0.882389
v -158.608063 3.163218 -152.461334
vn -0.911746 -0.002103 -0.410749
vt 0.228480 0.881282
v -101.322433 -23.745998 81.771065
vn 0.712932 -0.130405 0.689001
vt 0.750000 0.999501
v -106.215775 40.921047 96.562302
vn 0.945547 0.132536 -0.297281
vt 0.750000 0.058471
v -111.354469 38.991875 101.309616
vn 0.433772 -0.203961 0.877634
vt 0.926208 0.058471
v -118.465973 37.652168 101.854233
vn -0.177703 -0.330341 0.926982
vt 1.102417 0.058471
v -104.075287 -24.480576 82.960258
vn -0.931149 -0.304511 0.200587
vt 1.102416 0.999501
v -104.075287 -24.480576 82.960258
vn -0.931149 -0.304511 0.200587
vt 0.102416 0.999501
v -118.465973 37.652168 101.854233
vn -0.177703 -0.330341 0.926982
vt 0.102416 0.058471
v -120.211334 38.883926 94.918716
vn -0.966249 -0.221113 -0.132184
vt 0.250000 0.058471
v -117.356483 40.785267 88.523430
vn -0.722404 -0.067186 -0.688200
vt 0.397584 0.058471
v -103.825966 -23.776508 79.964577
vn 0.266198 0.155107 -0.951357
vt 0.397584 0.999501
v -110.472427 41.482685 90.711632
vn 0.572845 0.189664 -0.797419
vt 0.573792 0.058471
v -103.825966 -23.776508 79.964577
vn 0.165148 -0.963081 -0.212606
vt 0.637842 0.883497
v -101.322433 -23.745998 81.771065
vn 0.165148 -0.963081 -0.212606
vt 0.228480 0.881282
v -104.075287 -24.480576 82.960258
vn 0.165148 -0.963081 -0.212606
vt 0.546722 0.880362
v -120.211334 38.883926 94.918716
vn -0.165149 0.963081 0.212605
vt 0.592282 0.881929
v -118.465973 37.652168 101.854233
vn -0.165149 0.963081 0.212605
vt 0.546722 0.880362
v -111.354469 38.991875 101.309616
vn -0.165149 0.963081 0.212605
vt 0.387601 0.880822
v -117.356483 40.785267 88.523430
vn -0.165149 0.963081 0.212605
vt 0.637842 0.883497
v -110.472427 41.482685 90.711632
vn -0.165149 0.963081 0.212605
vt 0.433161 0.882389
v -106.215775 40.921047 96.562302
vn -0.165148 0.963081 0.212605
vt 0.228480 0.881282
v -4.225717 -16.659925 222.274170
vn -0.765109 0.069938 0.640091
vt 0.750000 0.999501
v 1.657370 -16.339602 225.660309
vn 0.939780 0.014683 0.341464
vt 1.102416 0.999501
v 5.394827 186.553604 201.552521
vn 0.115034 0.110241 0.987225
vt 1.102417 0.058471
v -1.721843 186.542160 200.132050
vn -0.500439 0.099876 0.859991
vt 0.926208 0.058471
v -6.499331 185.905991 194.706573
vn -0.918021 -0.068408 -0.390586
vt 0.750000 0.058471
v 1.657370 -16.339602 225.660309
vn 0.939780 0.014683 0.341464
vt 0.102416 0.999501
v 1.657370 -17.285357 218.930908
vn -0.175795 -0.154538 -0.972221
vt 0.397584 0.999501
v 5.394828 184.641525 187.947296
vn 0.801971 -0.109907 -0.587166
vt 0.397584 0.058471
v 7.734015 185.536911 194.758423
vn 0.999558 -0.029453 0.004144
vt 0.250000 0.058471
v 5.394827 186.553604 201.552521
vn 0.115034 0.110241 0.987225
vt 0.102416 0.058471
v -1.721842 185.022049 189.315918
vn -0.500264 -0.133590 -0.855505
vt 0.573792 0.058471
v 1.657370 -17.285357 218.930908
vn -0.026177 -0.989929 0.139125
vt 0.637842 0.883497
v 1.657370 -16.339602 225.660309
vn -0.026177 -0.989929 0.139125
vt 0.546722 0.880362
v -4.225717 -16.659925 222.274170
vn -0.026177 -0.989929 0.139125
vt 0.228480 0.881282
v -1.721843 186.542160 200.132050
vn 0.026176 0.989929 -0.139125
vt 0.387601 0.880822
v 5.394827 186.553604 201.552521
vn 0.026177 0.989929 -0.139124
vt 0.546722 0.880362
v 7.734015 185.536911 194.758423
vn 0.026177 0.989929 -0.139125
vt 0.592282 0.881929
v 5.394828 184.641525 187.947296
vn 0.026176 0.989929 -0.139125
vt 0.637842 0.883497
v -1.721842 185.022049 189.315918
vn 0.026176 0.989929 -0.139126
vt 0.433161 0.882389
v -6.499331 185.905991 194.706573
vn 0.026177 0.989929 -0.139126
vt 0.228480 0.881282
f 27/27/27 28/28/28 29/29/29
f 18/18/18 19/19/19 16/16/16
f 20/20/20 16/16/16 19/19/19
f 16/16/16 20/20/20 22/22/22
f 26/26/26 22/22/22 20/20/20
f 22/22/22 26/26/26 23/23/23
f 16/16/16 17/17/17 18/18/18
f 22/22/22 23/23/23 21/21/21
f 24/24/24 21/21/21 23/23/23
f 21/21/21 24/24/24 25/25/25
f 40/40/40 46/46/46 42/42/42
f 43/43/43 42/42/42 46/46/46
f 42/42/42 43/43/43 41/41/41
f 44/44/44 41/41/41 43/43/43
f 41/41/41 44/44/44 45/45/45
f 40/40/40 36/36/36 39/39/39
f 36/36/36 40/40/40 42/42/42
f 38/38/38 36/36/36 37/37/37
f 36/36/36 38/38/38 39/39/39
f 60/60/60 66/66/66 62/62/62
f 63/63/63 62/62/62 66/66/66
f 62/62/62 63/63/63 61/61/61
f 64/64/64 61/61/61 63/63/63
f 61/61/61 64/64/64 65/65/65
f 60/60/60 56/56/56 59/59/59
f 56/56/56 60/60/60 62/62/62
f 58/58/58 56/56/56 57/57/57
f 56/56/56 58/58/58 59/59/59
f 98/98/98 99/99/99 96/96/96
f 100/100/100 96/96/96 99/99/99
f 96/96/96 100/100/100 102/102/102
f 106/106/106 102/102/102 100/100/100
f 102/102/102 106/106/106 103/103/103
f 96/96/96 97/97/97 98/98/98
f 102/102/102 103/103/103 101/101/101
f 104/104/104 101/101/101 103/103/103
f 101/101/101 104/104/104 105/105/105
f 32/32/32 30/30/30 31/31/31
f 30/30/30 32/32/32 33/33/33
f 34/34/34 30/30/30 33/33/33
f 30/30/30 34/34/34 35/35/35
f 52/52/52 50/50/50 51/51/51
f 50/50/50 52/52/52 53/53/53
f 54/54/54 50/50/50 53/53/53
f 50/50/50 54/54/54 55/55/55
f 79/79/79 76/76/76 78/78/78
f 76/76/76 79/79/79 80/80/80
f 76/76/76 77/77/77 78/78/78
f 77/77/77 76/76/76 85/85/85
f 82/82/82 83/83/83 81/81/81
f 84/84/84 81/81/81 83/83/83
f 81/81/81 84/84/84 85/85/85
f 86/86/86 85/85/85 84/84/84
f 85/85/85 86/86/86 77/77/77
f 47/47/47 48/48/48 49/49/49
f 67/67/67 68/68/68 69/69/69
f 72/72/72 70/70/70 71/71/71
f 70/70/70 72/72/72 73/73/73
f 74/74/74 70/70/70 73/73/73
f 70/70/70 74/74/74 75/75/75
f 87/87/87 88/88/88 89/89/89
f 92/92/92 90/90/90 91/91/91
f 90/90/90 92/92/92 93/93/93
f 94/94/94 93/93/93 92/92/92
f 95/95/95 94/94/94 92/92/92
f 107/107/107 108/108/108 109/109/109
f 112/112/112 110/110/110 111/111/111
f 110/110/110 112/112/112 113/113/113
f 114/114/114 110/110/110 113/113/113
f 110/110/110 114/114/114 115/115/115
