mtllib LVL_ROAST_MUTTON_ROCK_TILT_PLATFORM_TOP.mtl
g PS_RoastM32
usemtl Lvl_roast_m_largebolders
v 137.197296 129.207367 -247.614624
vn 0.000000 1.000000 0.000000
vt 0.635576 0.941188
v 87.835320 129.207367 -130.350494
vn 0.000000 1.000000 0.000000
vt 0.763902 0.497498
v 344.471497 129.207367 -108.953751
vn 0.000000 1.000000 0.000000
vt 0.034254 0.451130
v 337.815674 129.207367 -179.916397
vn 0.000000 1.000000 0.000000
vt 0.060147 0.714873
v 216.431747 65.855385 -199.907913
vn 0.283995 -0.805172 -0.520620
vt 0.391876 0.661106
v 263.503510 66.892059 -145.590515
vn 0.501976 -0.838081 -0.213638
vt 0.227717 0.228604
v 179.741287 13.483671 -70.843170
vn 0.260914 -0.949137 -0.176249
vt 0.198090 0.121672
v 136.260284 11.247284 -112.079788
vn 0.183348 -0.948806 -0.257198
vt 0.444322 0.770417
v -264.943665 74.047455 -190.267151
vn -0.494126 -0.814780 -0.303270
vt 2.797535 0.228171
v -207.654480 64.800880 -226.257614
vn -0.289572 -0.713222 -0.638328
vt 2.771515 0.497065
v -166.584366 10.588594 -140.494202
vn -0.256764 -0.954282 -0.153028
vt 2.806816 0.504424
v -190.982544 17.392059 -118.144089
vn -0.390648 -0.919984 -0.031996
vt 2.845837 0.101101
v 159.637421 5.423852 41.487881
vn 0.297060 -0.933827 0.199305
vt 0.109284 -1.082966
v 214.401825 48.200890 91.574661
vn 0.639577 -0.517601 0.568358
vt 0.168759 -1.168952
v 149.115814 43.252827 149.356384
vn 0.464779 -0.589559 0.660606
vt 0.350309 -1.436549
v 118.431702 1.099449 73.926941
vn 0.182420 -0.955074 0.233574
vt 0.381602 -1.484353
v -214.952744 64.907303 164.521332
vn -0.436144 -0.814361 0.382876
vt 2.550691 -1.599264
v -281.653687 85.859703 101.218971
vn -0.541236 -0.835264 0.096945
vt 2.845279 -1.172478
v -191.720551 27.172022 38.174774
vn -0.469835 -0.879169 0.079478
vt 2.916395 -1.032296
v -159.027039 14.206687 92.107826
vn -0.287395 -0.944460 0.159373
vt 2.474519 -1.672473
v 318.027496 129.207367 -236.461151
vn 0.000000 1.000000 0.000000
vt 0.121842 0.923145
v -320.811005 129.207367 -239.890976
vn 0.010544 0.999935 -0.004319
vt 1.933206 0.852748
v -346.955200 129.207367 -155.843689
vn 0.000000 1.000000 0.000000
vt 1.999001 0.535943
v -299.022644 129.207367 -186.703522
vn 0.004074 0.999981 -0.004542
vt 1.866173 0.657256
v -263.117371 127.898476 -250.536575
vn 0.000686 0.999946 -0.010388
vt 1.770706 0.899957
v -260.914093 108.940750 193.689774
vn -0.312300 -0.787188 0.531793
vt 2.626873 -1.526042
v -161.499451 103.831375 239.217178
vn -0.180638 -0.674068 0.716242
vt 2.212514 -1.642487
v -206.609558 129.207352 248.018463
vn -0.237438 -0.681590 0.692141
vt 2.254262 -1.529233
v -293.395294 129.207352 204.511826
vn -0.281839 -0.762606 0.582236
vt 2.703057 -1.452821
v 210.942261 129.207352 147.299271
vn 0.426693 -0.603672 0.673434
vt 0.287727 -1.340949
v 237.306885 93.573265 88.458443
vn 0.543228 -0.491535 0.680659
vt 0.228243 -1.254950
v 351.517334 129.207367 25.200834
vn 0.618023 -0.731881 0.287050
vt 0.178656 -0.467985
v -49.869564 129.207367 -269.651337
vn 0.000000 1.000000 0.000000
vt 1.168068 0.999001
v -80.716209 129.207367 -172.507004
vn 0.000000 1.000000 0.000000
vt 1.245897 0.632746
v -218.329376 129.207367 -172.168915
vn -0.003172 0.999988 -0.003754
vt 1.635980 0.613566
v -202.774139 129.207367 -261.298889
vn -0.007461 0.999971 -0.001302
vt 1.600706 0.947946
v 70.858322 3.692597 -127.144890
vn 0.107831 -0.964986 -0.239113
vt 1.120976 0.755122
v -17.369959 4.276401 -176.173004
vn 0.056894 -0.914786 -0.399912
vt 1.785099 0.620422
v -19.035236 65.641090 -247.852905
vn 0.103574 -0.572917 -0.813043
vt 1.758202 0.591000
v 105.203995 62.559605 -231.258514
vn 0.166469 -0.708266 -0.686038
vt 1.050246 0.680352
v -100.978432 4.212741 -170.212692
vn -0.097527 -0.956892 -0.273579
vt 2.353589 0.654151
v -132.851303 66.888771 -246.428345
vn -0.080601 -0.587074 -0.805511
vt 2.330234 0.566282
v -102.469337 7.043784 106.166641
vn -0.120502 -0.969443 0.213681
vt 2.129024 -1.868976
v -35.436188 2.797323 126.418976
vn -0.050130 -0.960736 0.272898
vt 1.589463 -1.887852
v -35.541828 58.689957 226.963959
vn 0.017045 -0.659717 0.751321
vt 1.616004 -1.775120
v -133.446060 57.674698 206.373367
vn -0.219047 -0.748683 0.625694
vt 2.170766 -1.755740
v 60.174721 47.826740 192.395416
vn 0.198830 -0.755916 0.623745
vt 0.949689 -1.819300
v 45.699158 3.632466 134.811752
vn 0.090750 -0.943254 0.319431
vt 0.913109 -1.998502
v -217.064774 38.930386 -28.247442
vn -0.526004 -0.844819 0.097985
vt 2.826561 -0.578134
v -265.113403 76.208038 -19.712570
vn -0.618772 -0.783906 0.051114
vt 2.752680 -0.526570
v -300.200165 88.498993 -116.505074
vn -0.614341 -0.788147 0.037535
vt 2.903263 -0.144875
v -213.942108 27.375700 -66.542473
vn -0.417959 -0.901077 0.115635
vt 2.969757 -0.305299
v -289.536224 129.207367 -39.611519
vn 0.000000 1.000000 0.000000
vt 1.824719 0.110005
v -181.816528 129.207367 -50.436939
vn 0.000000 1.000000 0.000000
vt 1.520419 0.164398
v -293.395294 129.207352 204.511826
vn 0.000000 1.000000 0.000000
vt 1.811492 -0.800802
v -206.609558 129.207352 248.018463
vn 0.000000 1.000000 0.000000
vt 1.561159 -0.951731
v 129.726013 129.207367 -50.514519
vn 0.000000 1.000000 0.000000
vt 0.637244 0.205254
v 351.517334 129.207367 25.200834
vn 0.000000 1.000000 0.000000
vt 0.000999 -0.048198
v 210.942261 129.207352 147.299271
vn 0.000000 1.000000 0.000000
vt 0.387424 -0.521792
v 104.063858 129.207352 185.220062
vn 0.000000 1.000000 0.000000
vt 0.686657 -0.677110
v 195.204666 10.271085 -38.781166
vn 0.330562 -0.938560 -0.099166
vt 0.015058 -0.180502
v 275.441528 65.421112 -73.831032
vn 0.579720 -0.809740 -0.090806
vt 0.173143 -0.048980
v 270.403442 61.190090 18.538183
vn 0.601745 -0.767778 0.220046
vt 0.090070 -0.482358
v 188.431015 6.740077 2.497694
vn 0.269851 -0.961981 0.042099
vt 0.001499 -0.496729
v -43.083843 129.207367 -55.161907
vn 0.000000 1.000000 0.000000
vt 1.127598 0.200082
v -52.083691 129.207352 266.091156
vn 0.000000 1.000000 0.000000
vt 1.121309 -0.999001
v 250.293610 86.970558 -212.091125
vn 0.314152 -0.726907 -0.610667
vt 0.374393 0.624667
v 288.275482 87.664886 -157.033066
vn 0.564363 -0.801334 -0.198388
vt 0.237594 0.264250
v 284.160553 108.088966 -224.276169
vn 0.307611 -0.725870 -0.615214
vt 0.356908 0.588223
v 126.532341 106.990334 -242.162338
vn 0.121924 -0.345705 -0.930389
vt 1.003087 0.630500
v 137.197296 129.207367 -247.614624
vn 0.097771 -0.354894 -0.929780
vt 0.979506 0.605571
v 318.027496 129.207367 -236.461151
vn 0.389983 -0.800673 -0.454792
vt 0.339422 0.551779
v 298.449188 86.681122 -85.537460
vn 0.648891 -0.758300 -0.062619
vt 0.225840 -0.005137
v -283.564270 92.432228 -206.806778
vn -0.482423 -0.784421 -0.389809
vt 2.781434 0.270530
v -226.143051 85.834450 -234.351013
vn -0.303586 -0.592643 -0.746063
vt 2.759747 0.494612
v -302.187622 110.819801 -223.348877
vn -0.434351 -0.781270 -0.448282
vt 2.765330 0.312894
v -331.369415 115.637238 -142.730179
vn -0.638217 -0.769247 -0.030647
vt 2.858928 -0.037912
v -346.955200 129.207367 -155.843689
vn -0.628021 -0.773360 -0.086630
vt 2.836759 0.015573
v -320.811005 129.207367 -239.890976
vn -0.392245 -0.802211 -0.450112
vt 2.749226 0.355259
v -156.156586 87.659523 -251.384720
vn -0.120705 -0.380444 -0.916893
vt 2.322448 0.536990
v 222.036072 63.323509 90.536018
vn 0.667031 -0.320536 0.672552
vt 0.188585 -1.197615
v 155.226746 57.357746 144.054153
vn 0.596156 -0.044832 0.801616
vt 0.339877 -1.420614
v 167.447678 85.565392 133.450455
vn 0.534002 -0.247430 0.808468
vt 0.319016 -1.388745
v 229.671463 78.448387 89.497231
vn 0.610853 -0.285288 0.738559
vt 0.208414 -1.226283
v 324.477997 106.533775 22.979881
vn 0.648521 -0.696043 0.308131
vt 0.149126 -0.472776
v 66.938393 63.833393 200.632156
vn 0.374185 -0.239587 0.895870
vt 0.961883 -1.759563
v 104.063858 129.207352 185.220062
vn 0.404384 -0.304676 0.862349
vt 1.022861 -1.460844
v 76.950066 95.851517 200.588898
vn 0.437664 -0.046616 0.897929
vt 0.986275 -1.640072
v -230.271667 79.583694 174.243179
vn -0.416166 -0.782308 0.463465
vt 2.576082 -1.574859
v -301.818848 100.309654 128.057205
vn -0.518380 -0.845355 0.129064
vt 2.821572 -1.219208
v -342.146149 129.207352 181.729614
vn -0.405360 -0.864396 0.297495
vt 2.774162 -1.312660
v -245.592880 94.262222 183.966476
vn -0.374234 -0.775361 0.508689
vt 2.601478 -1.550451
v -152.147858 88.445023 228.268692
vn -0.195551 -0.606736 0.770474
vt 2.198597 -1.680239
v -287.132050 93.872772 -23.342533
vn -0.641201 -0.765623 0.051793
vt 2.728052 -0.509381
v -331.175995 129.207367 -30.603546
vn 0.000000 1.000000 0.000000
vt 1.941871 0.070993
v -342.146149 129.207352 181.729614
vn 0.000000 1.000000 0.000000
vt 1.951950 -0.722198
v -29.312317 86.827736 -255.118347
vn 0.045616 -0.294863 -0.954450
vt 1.749236 0.581192
v 115.867355 84.773293 -236.709991
vn 0.158668 -0.366750 -0.916689
vt 1.026668 0.655428
v -40.215153 73.750443 230.702194
vn 0.063257 -0.273183 0.959880
vt 1.624851 -1.737542
v -142.796265 73.058670 217.320190
vn -0.232419 -0.615553 0.753044
vt 2.184680 -1.717992
v -52.083691 129.207352 266.091156
vn 0.082748 -0.653738 0.752183
vt 1.669094 -1.549624
v -49.563210 103.875992 238.180069
vn 0.155530 -0.400178 0.903143
vt 1.642549 -1.662373
v -315.783630 102.067108 -129.616669
vn -0.646786 -0.762588 -0.011280
vt 2.881097 -0.091398
v 297.438690 83.860191 20.758869
vn 0.661835 -0.700884 0.265961
vt 0.119596 -0.477567
v -194.420212 25.850430 -14.435136
vn -0.417170 -0.907828 0.042638
vt 2.892875 -0.654478
v 63.280170 2.674893 -40.551804
vn -0.004841 -0.999432 -0.033339
vt 1.051694 -0.162661
v -23.515909 5.930327 -74.671791
vn -0.021477 -0.999750 0.006226
vt 1.719893 -0.215586
v -102.608505 7.279143 -77.641960
vn -0.062063 -0.997773 0.024429
vt 2.278741 -0.186807
v -165.703918 13.722441 -63.211872
vn -0.217831 -0.975233 0.038352
vt 2.696061 -0.221136
v -194.030640 22.882414 -65.890022
vn -0.320869 -0.940981 0.107697
vt 2.869354 -0.276660
v 132.214218 6.714200 -50.612316
vn 0.089984 -0.992934 -0.077368
vt 0.423418 0.018902
v 175.124542 9.585782 -33.603249
vn 0.072252 -0.991828 -0.105150
vt 0.168491 -0.279834
v 168.101654 4.089381 3.366987
vn 0.107314 -0.993239 -0.044263
vt 0.138888 -0.681400
v 54.803604 -0.350928 46.644756
vn -0.016551 -0.999863 -0.000141
vt 0.982401 -1.080581
v -29.388458 5.386988 25.896986
vn -0.046262 -0.998714 -0.020723
vt 1.654678 -1.051719
v -103.083153 8.060939 14.412140
vn -0.076332 -0.997082 0.000529
vt 2.203883 -1.027892
v -163.403961 14.855556 14.386429
vn -0.269343 -0.962848 0.019453
vt 2.585290 -0.946805
v 125.626045 0.422267 11.815051
vn 0.057371 -0.998118 -0.021640
vt 0.402510 -0.732726
v 313.047424 108.437714 -168.475616
vn 0.581252 -0.798810 -0.155080
vt 0.247470 0.299896
v 337.815674 129.207367 -179.916397
vn 0.601135 -0.788496 -0.130037
vt 0.257345 0.335536
v 321.460358 107.944244 -97.245605
vn 0.650870 -0.756953 -0.058224
vt 0.278546 0.038712
v 344.471497 129.207367 -108.953751
vn 0.649416 -0.758161 -0.058746
vt 0.331251 0.082561
v -244.631607 106.868019 -242.444366
vn -0.243838 -0.560648 -0.791339
vt 2.747979 0.492159
v -263.117371 127.898476 -250.536575
vn -0.195902 -0.593855 -0.780358
vt 2.736213 0.489706
v -179.465363 108.433449 -256.341827
vn -0.115739 -0.375351 -0.919628
vt 2.314662 0.507695
v -202.774139 129.207367 -261.298889
vn -0.126691 -0.390630 -0.911788
vt 2.306875 0.478399
v 161.337662 71.462608 138.751923
vn 0.589113 -0.039165 0.807101
vt 0.329446 -1.404678
v 71.944099 79.842484 200.610611
vn 0.413620 -0.100296 0.904908
vt 0.974079 -1.699818
v -321.984009 114.759605 154.895432
vn -0.491206 -0.855353 0.164583
vt 2.797865 -1.265938
v -309.154022 111.540070 -26.973040
vn -0.638994 -0.768250 0.038446
vt 2.703421 -0.492190
v -331.175995 129.207367 -30.603546
vn -0.641685 -0.766376 0.030125
vt 2.678789 -0.474998
v -39.590939 108.017555 -262.384857
vn 0.038020 -0.299164 -0.953444
vt 1.740269 0.571382
v -49.869564 129.207367 -269.651337
vn 0.006261 -0.301666 -0.953393
vt 1.731301 0.561573
v -44.889179 88.813187 234.441132
vn 0.100898 -0.261010 0.960049
vt 1.633700 -1.699957
f 95/95/95 96/96/96 55/55/55
f 57/57/57 60/60/60 59/59/59
f 60/60/60 57/57/57 66/66/66
f 65/65/65 66/66/66 57/57/57
f 66/66/66 65/65/65 56/56/56
f 54/54/54 56/56/56 65/65/65
f 56/56/56 54/54/54 55/55/55
f 53/53/53 55/55/55 54/54/54
f 55/55/55 53/53/53 95/95/95
f 24/24/24 95/95/95 53/53/53
f 95/95/95 24/24/24 23/23/23
f 22/22/22 23/23/23 24/24/24
f 35/35/35 53/53/53 54/54/54
f 53/53/53 35/35/35 24/24/24
f 25/25/25 24/24/24 35/35/35
f 24/24/24 25/25/25 22/22/22
f 35/35/35 36/36/36 25/25/25
f 36/36/36 35/35/35 34/34/34
f 54/54/54 34/34/34 35/35/35
f 34/34/34 54/54/54 65/65/65
f 34/34/34 33/33/33 36/36/36
f 33/33/33 34/34/34 2/2/2
f 65/65/65 2/2/2 34/34/34
f 2/2/2 65/65/65 57/57/57
f 2/2/2 1/1/1 33/33/33
f 1/1/1 2/2/2 3/3/3
f 57/57/57 3/3/3 2/2/2
f 3/3/3 57/57/57 58/58/58
f 59/59/59 58/58/58 57/57/57
f 3/3/3 4/4/4 1/1/1
f 21/21/21 1/1/1 4/4/4
f 29/29/29 91/91/91 26/26/26
f 129/129/129 26/26/26 91/91/91
f 26/26/26 129/129/129 92/92/92
f 90/90/90 92/92/92 129/129/129
f 92/92/92 90/90/90 89/89/89
f 18/18/18 89/89/89 90/90/90
f 89/89/89 18/18/18 17/17/17
f 19/19/19 17/17/17 18/18/18
f 17/17/17 19/19/19 20/20/20
f 117/117/117 20/20/20 19/19/19
f 20/20/20 117/117/117 116/116/116
f 109/109/109 116/116/116 117/117/117
f 116/116/116 109/109/109 108/108/108
f 11/11/11 108/108/108 109/109/109
f 108/108/108 11/11/11 41/41/41
f 10/10/10 41/41/41 11/11/11
f 41/41/41 10/10/10 42/42/42
f 80/80/80 42/42/42 10/10/10
f 11/11/11 12/12/12 9/9/9
f 12/12/12 11/11/11 109/109/109
f 91/91/91 131/131/131 129/129/129
f 130/130/130 129/129/129 131/131/131
f 129/129/129 130/130/130 90/90/90
f 94/94/94 90/90/90 130/130/130
f 90/90/90 94/94/94 18/18/18
f 50/50/50 18/18/18 94/94/94
f 18/18/18 50/50/50 49/49/49
f 51/51/51 49/49/49 50/50/50
f 49/49/49 51/51/51 52/52/52
f 12/12/12 52/52/52 51/51/51
f 52/52/52 12/12/12 110/110/110
f 109/109/109 110/110/110 12/12/12
f 110/110/110 109/109/109 105/105/105
f 117/117/117 105/105/105 109/109/109
f 105/105/105 117/117/117 19/19/19
f 110/110/110 105/105/105 49/49/49
f 19/19/19 49/49/49 105/105/105
f 49/49/49 19/19/19 18/18/18
f 49/49/49 52/52/52 110/110/110
f 77/77/77 131/131/131 78/78/78
f 131/131/131 77/77/77 130/130/130
f 103/103/103 130/130/130 77/77/77
f 130/130/130 103/103/103 94/94/94
f 51/51/51 94/94/94 103/103/103
f 94/94/94 51/51/51 50/50/50
f 12/12/12 51/51/51 9/9/9
f 103/103/103 9/9/9 51/51/51
f 9/9/9 103/103/103 74/74/74
f 77/77/77 74/74/74 103/103/103
f 74/74/74 77/77/77 76/76/76
f 78/78/78 76/76/76 77/77/77
f 76/76/76 78/78/78 79/79/79
f 79/79/79 124/124/124 76/76/76
f 123/123/123 76/76/76 124/124/124
f 76/76/76 123/123/123 74/74/74
f 75/75/75 74/74/74 123/123/123
f 74/74/74 75/75/75 9/9/9
f 10/10/10 9/9/9 75/75/75
f 9/9/9 10/10/10 11/11/11
f 123/123/123 124/124/124 126/126/126
f 75/75/75 123/123/123 125/125/125
f 126/126/126 125/125/125 123/123/123
f 125/125/125 126/126/126 133/133/133
f 10/10/10 75/75/75 80/80/80
f 125/125/125 80/80/80 75/75/75
f 80/80/80 125/125/125 132/132/132
f 133/133/133 132/132/132 125/125/125
f 132/132/132 133/133/133 71/71/71
f 42/42/42 80/80/80 97/97/97
f 132/132/132 97/97/97 80/80/80
f 97/97/97 132/132/132 70/70/70
f 71/71/71 70/70/70 132/132/132
f 70/70/70 71/71/71 69/69/69
f 72/72/72 69/69/69 71/71/71
f 69/69/69 72/72/72 119/119/119
f 120/120/120 119/119/119 72/72/72
f 119/119/119 120/120/120 122/122/122
f 121/121/121 122/122/122 32/32/32
f 122/122/122 121/121/121 119/119/119
f 68/68/68 119/119/119 121/121/121
f 119/119/119 68/68/68 69/69/69
f 67/67/67 69/69/69 68/68/68
f 69/69/69 67/67/67 70/70/70
f 98/98/98 70/70/70 67/67/67
f 70/70/70 98/98/98 97/97/97
f 39/39/39 97/97/97 98/98/98
f 97/97/97 39/39/39 42/42/42
f 38/38/38 42/42/42 39/39/39
f 42/42/42 38/38/38 41/41/41
f 107/107/107 41/41/41 38/38/38
f 41/41/41 107/107/107 108/108/108
f 116/116/116 108/108/108 107/107/107
f 107/107/107 38/38/38 37/37/37
f 39/39/39 37/37/37 38/38/38
f 37/37/37 39/39/39 40/40/40
f 98/98/98 40/40/40 39/39/39
f 40/40/40 98/98/98 5/5/5
f 67/67/67 5/5/5 98/98/98
f 40/40/40 8/8/8 37/37/37
f 8/8/8 40/40/40 5/5/5
f 6/6/6 67/67/67 68/68/68
f 67/67/67 6/6/6 5/5/5
f 7/7/7 5/5/5 6/6/6
f 5/5/5 7/7/7 8/8/8
f 111/111/111 8/8/8 7/7/7
f 8/8/8 111/111/111 37/37/37
f 106/106/106 37/37/37 111/111/111
f 37/37/37 106/106/106 107/107/107
f 115/115/115 107/107/107 106/106/106
f 107/107/107 115/115/115 116/116/116
f 43/43/43 116/116/116 115/115/115
f 116/116/116 43/43/43 20/20/20
f 46/46/46 20/20/20 43/43/43
f 20/20/20 46/46/46 17/17/17
f 100/100/100 17/17/17 46/46/46
f 17/17/17 100/100/100 89/89/89
f 93/93/93 89/89/89 100/100/100
f 89/89/89 93/93/93 92/92/92
f 7/7/7 112/112/112 111/111/111
f 73/73/73 68/68/68 121/121/121
f 68/68/68 73/73/73 6/6/6
f 62/62/62 6/6/6 73/73/73
f 6/6/6 62/62/62 7/7/7
f 61/61/61 7/7/7 62/62/62
f 7/7/7 61/61/61 112/112/112
f 85/85/85 121/121/121 32/32/32
f 121/121/121 85/85/85 73/73/73
f 104/104/104 73/73/73 85/85/85
f 73/73/73 104/104/104 62/62/62
f 63/63/63 62/62/62 104/104/104
f 62/62/62 63/63/63 61/61/61
f 64/64/64 61/61/61 63/63/63
f 61/61/61 64/64/64 112/112/112
f 113/113/113 112/112/112 64/64/64
f 112/112/112 113/113/113 111/111/111
f 118/118/118 111/111/111 113/113/113
f 111/111/111 118/118/118 106/106/106
f 114/114/114 106/106/106 118/118/118
f 106/106/106 114/114/114 115/115/115
f 44/44/44 115/115/115 114/114/114
f 115/115/115 44/44/44 43/43/43
f 45/45/45 43/43/43 44/44/44
f 43/43/43 45/45/45 46/46/46
f 85/85/85 32/32/32 31/31/31
f 104/104/104 85/85/85 84/84/84
f 31/31/31 84/84/84 85/85/85
f 63/63/63 104/104/104 81/81/81
f 84/84/84 81/81/81 104/104/104
f 63/63/63 13/13/13 64/64/64
f 13/13/13 63/63/63 14/14/14
f 81/81/81 14/14/14 63/63/63
f 16/16/16 13/13/13 15/15/15
f 14/14/14 15/15/15 13/13/13
f 15/15/15 14/14/14 82/82/82
f 81/81/81 82/82/82 14/14/14
f 82/82/82 81/81/81 127/127/127
f 84/84/84 127/127/127 81/81/81
f 127/127/127 84/84/84 83/83/83
f 31/31/31 83/83/83 84/84/84
f 83/83/83 31/31/31 30/30/30
f 32/32/32 30/30/30 31/31/31
f 30/30/30 87/87/87 83/83/83
f 88/88/88 83/83/83 87/87/87
f 83/83/83 88/88/88 127/127/127
f 128/128/128 127/127/127 88/88/88
f 127/127/127 128/128/128 82/82/82
f 86/86/86 82/82/82 128/128/128
f 82/82/82 86/86/86 15/15/15
f 47/47/47 15/15/15 86/86/86
f 15/15/15 47/47/47 16/16/16
f 48/48/48 16/16/16 47/47/47
f 13/13/13 113/113/113 64/64/64
f 113/113/113 13/13/13 118/118/118
f 16/16/16 118/118/118 13/13/13
f 118/118/118 16/16/16 114/114/114
f 48/48/48 114/114/114 16/16/16
f 114/114/114 48/48/48 44/44/44
f 47/47/47 44/44/44 48/48/48
f 44/44/44 47/47/47 45/45/45
f 86/86/86 45/45/45 47/47/47
f 45/45/45 86/86/86 99/99/99
f 128/128/128 99/99/99 86/86/86
f 99/99/99 128/128/128 134/134/134
f 88/88/88 134/134/134 128/128/128
f 134/134/134 88/88/88 102/102/102
f 87/87/87 102/102/102 88/88/88
f 102/102/102 87/87/87 101/101/101
f 99/99/99 46/46/46 45/45/45
f 46/46/46 99/99/99 100/100/100
f 134/134/134 100/100/100 99/99/99
f 100/100/100 134/134/134 93/93/93
f 102/102/102 93/93/93 134/134/134
f 93/93/93 102/102/102 27/27/27
f 101/101/101 27/27/27 102/102/102
f 27/27/27 101/101/101 28/28/28
f 27/27/27 92/92/92 93/93/93
f 92/92/92 27/27/27 26/26/26
f 28/28/28 26/26/26 27/27/27
f 26/26/26 28/28/28 29/29/29
