mtllib LVL_ROAST_MUTTON_ROCK05.mtl
g RM_rock05
usemtl Lvl_roast_m_largebolders
v -63.556389 223.641235 137.620544
vn -0.334035 0.204190 0.920178
vt 0.113494 0.281400
v -69.150513 93.836700 141.092453
vn -0.558314 -0.099871 0.823597
vt 0.103245 0.270646
v -2.484720 78.613350 164.562241
vn 0.068967 -0.291241 0.954161
vt 0.057613 0.410340
v 78.660454 219.432205 178.918625
vn 0.099742 -0.041955 0.994128
vt 0.038838 0.577848
v -42.203384 27.979139 147.227219
vn -0.268311 -0.664786 0.697186
vt 0.093473 0.326516
v 85.604576 78.679665 114.585548
vn 0.613779 -0.675993 0.407809
vt 0.206854 0.580523
v 82.893585 95.048622 144.479630
vn 0.500985 -0.537891 0.678002
vt 0.128897 0.580328
v 96.945030 65.401421 -106.827957
vn 0.662474 -0.622232 -0.417080
vt 0.782268 0.564198
v 91.468903 79.224960 -135.196625
vn 0.450267 -0.456324 -0.767482
vt 0.854425 0.548020
v 183.798050 279.383545 -147.675156
vn 0.493068 -0.201660 -0.846296
vt 0.907608 0.733491
v 224.318420 277.163788 -119.354111
vn 0.782759 -0.239344 -0.574458
vt 0.843507 0.820899
v -144.281738 230.216873 97.042206
vn -0.850726 -0.002766 0.525602
vt 0.200207 0.110082
v -89.310753 77.287628 106.694756
vn -0.844917 -0.489462 0.215738
vt 0.187677 0.223546
v -54.767406 77.250031 -139.276184
vn -0.355494 -0.343168 -0.869402
vt 0.831879 0.250021
v 22.401228 60.312241 -145.084625
vn 0.102556 -0.402376 -0.909712
vt 0.864374 0.405859
v 10.565278 9.528481 -117.059242
vn -0.024962 -0.869504 -0.493295
vt 0.789186 0.386783
v -71.515099 63.423351 -115.065483
vn -0.760957 -0.528508 -0.376329
vt 0.765449 0.220282
v 260.129730 663.466370 93.951416
vn 0.675953 0.725821 -0.127560
vt 0.299743 0.931633
v 208.638657 684.975098 102.432411
vn 0.171381 0.960908 0.217452
vt 0.266146 0.828469
v 226.332642 677.574707 125.013771
vn 0.316830 0.826203 0.465841
vt 0.211728 0.868454
v 259.588226 658.843018 125.346260
vn 0.746978 0.426935 0.509658
vt 0.218395 0.936116
v 203.725159 643.047913 154.588821
vn 0.110899 0.188954 0.975704
vt 0.130093 0.827757
v 205.168427 545.360840 154.830780
vn 0.159243 -0.026952 0.986871
vt 0.129794 0.830734
v 270.709930 577.371704 124.561447
vn 0.722671 0.039193 0.690080
vt 0.222943 0.958585
v -0.161585 707.083984 -115.718742
vn -0.098847 0.993939 0.048108
vt 0.792606 0.409571
v 96.349205 709.574158 -114.120445
vn 0.097643 0.995034 -0.019342
vt 0.801000 0.561690
v 89.362976 709.652283 -130.842865
vn 0.118785 0.944600 -0.305974
vt 0.842684 0.544514
v 1.172553 707.489197 -135.899155
vn -0.071867 0.986469 -0.147357
vt 0.840461 0.386516
v 145.122787 698.790894 -110.190834
vn 0.449191 0.823031 -0.347631
vt 0.801874 0.661537
v 102.435387 702.606934 -132.933014
vn 0.305685 0.331296 -0.892636
vt 0.851050 0.570716
v 144.681290 672.805176 139.936966
vn -0.081486 0.546731 0.833334
vt 0.154636 0.705124
v 31.996304 632.694763 125.658005
vn -0.235312 0.130828 0.963074
vt 0.166073 0.473515
v -67.876266 625.326599 92.432343
vn -0.600945 0.436303 0.669705
vt 0.229429 0.264582
v 30.542805 658.357422 119.820648
vn -0.304177 0.413156 0.858358
vt 0.180846 0.469522
v -21.357075 665.351563 89.631973
vn -0.379787 0.725990 0.573324
vt 0.247203 0.358650
v -116.660103 678.687744 -121.781158
vn -0.760103 0.584641 -0.283618
vt 0.774449 0.136094
v -92.292274 692.221802 -112.626427
vn -0.389198 0.913331 0.119795
vt 0.761810 0.213594
v -82.835609 696.743408 -134.776077
vn -0.267530 0.952897 -0.142884
vt 0.820093 0.223334
v -91.376198 689.605408 -145.131119
vn -0.430744 0.543632 -0.720364
vt 0.840293 0.181953
v 3.351171 702.799744 -150.928391
vn -0.018043 0.595461 -0.803182
vt 0.876345 0.371638
v 11.930809 667.943176 -155.230911
vn 0.058383 0.055014 -0.996777
vt 0.888254 0.382770
v -89.962212 659.005615 -146.998199
vn -0.367281 0.024088 -0.929798
vt 0.843891 0.177102
v 181.002457 694.779663 -12.406913
vn 0.549779 0.816563 -0.175976
vt 0.557006 0.751865
v 123.450508 704.815918 -16.675743
vn 0.107041 0.993408 0.041017
vt 0.555023 0.634112
v 163.061707 697.708374 47.619629
vn 0.205072 0.978113 0.035216
vt 0.397642 0.726070
v 267.376190 315.499146 95.793976
vn 0.862902 -0.439330 0.249778
vt 0.296616 0.946692
v 290.232025 389.259949 95.127357
vn 0.981909 -0.052163 0.182027
vt 0.303514 0.993035
v 267.204407 372.594910 121.586189
vn 0.578392 -0.099376 0.809683
vt 0.229847 0.950930
v 235.598816 298.704285 133.911316
vn 0.579620 -0.318190 0.750197
vt 0.190805 0.888873
v -120.631325 470.145569 -117.133301
vn -0.667996 0.034795 -0.743351
vt 0.759681 0.120069
v -63.005268 488.298889 -142.274979
vn -0.210725 0.071155 -0.974952
vt 0.837772 0.232741
v -48.440151 390.181274 -166.735306
vn -0.247649 0.093432 -0.964334
vt 0.904354 0.258000
v -120.513062 380.142731 -139.182281
vn -0.726359 0.081653 -0.682448
vt 0.816754 0.116388
v -129.184875 597.157288 -18.735186
vn -0.930955 0.250378 0.265771
vt 0.503167 0.120181
v -90.059280 565.761719 92.565643
vn -0.601521 0.106235 0.791762
vt 0.224062 0.219511
v -111.416847 658.258545 -16.464508
vn -0.798235 0.550293 0.244946
vt 0.501605 0.158090
v 104.178093 708.913086 -67.331825
vn 0.082400 0.996432 0.018253
vt 0.681720 0.585926
v 163.342117 648.208618 -114.390465
vn 0.694034 0.266901 -0.668641
vt 0.816863 0.697827
v 115.617783 655.438110 -132.728592
vn 0.300041 0.087924 -0.949866
vt 0.853505 0.597550
v 26.826206 552.778076 124.504890
vn -0.204951 -0.017336 0.978619
vt 0.167886 0.462800
v 274.794708 603.816162 95.905434
vn 0.980948 0.165080 -0.102417
vt 0.298007 0.961792
v -124.246925 642.053040 -123.122124
vn -0.923552 0.144859 -0.355059
vt 0.774358 0.111654
v 174.705154 353.739807 144.673782
vn 0.046216 0.072263 0.996314
vt 0.149177 0.767000
v 133.688309 279.534241 168.501312
vn 0.086117 0.107934 0.990421
vt 0.078245 0.687858
v 220.739990 389.798340 -126.770691
vn 0.763367 0.112591 -0.636077
vt 0.861886 0.812305
v 188.883911 396.878540 -152.638275
vn 0.466043 0.126465 -0.875677
vt 0.921600 0.742947
v 168.749039 492.776062 -131.420105
vn 0.386247 0.181765 -0.904309
vt 0.862146 0.705790
v 217.594620 478.426941 -112.915176
vn 0.697400 0.183600 -0.692766
vt 0.825326 0.808376
v 100.092865 400.821655 -181.902237
vn 0.095628 0.097981 -0.990583
vt 0.977215 0.557245
v 89.934906 277.936218 -175.096115
vn 0.085422 -0.107701 -0.990507
vt 0.957307 0.537806
v -62.040508 272.176086 -163.464691
vn -0.203175 -0.054520 -0.977623
vt 0.892813 0.230934
v -158.943253 347.010559 -38.186188
vn -0.999158 0.027067 -0.030848
vt 0.546755 0.056228
v -167.398880 432.323120 -35.109638
vn -0.998005 0.056769 0.027626
vt 0.536882 0.039586
v -120.513062 380.142731 -139.182281
vn -0.726359 0.081653 -0.682448
vt 0.816754 0.116388
v -129.309250 309.069885 77.449440
vn -0.648506 0.222824 0.727867
vt 0.254287 0.137034
v 276.241272 353.869324 -15.164647
vn 0.965202 -0.135999 -0.223358
vt 0.585698 0.944979
v 265.874908 436.094208 -10.788354
vn 0.933009 0.155897 -0.324329
vt 0.572029 0.924685
v 170.247131 231.741806 135.653488
vn 0.575206 -0.407072 0.709529
vt 0.171505 0.756334
v 200.342331 241.684799 91.668610
vn 0.761335 -0.597797 0.251015
vt 0.292116 0.809690
v -135.582626 268.135925 -140.102524
vn -0.730851 -0.128159 -0.670397
vt 0.815724 0.085590
v 236.938858 262.016693 -26.249619
vn 0.855907 -0.515669 -0.038841
vt 0.605481 0.863113
v -158.943253 347.010559 -38.186188
vn -0.999158 0.027067 -0.030848
vt 0.546755 0.056228
v -156.030060 250.277161 -29.629196
vn -0.974048 -0.198191 -0.109316
vt 0.525276 0.063672
v -77.874329 53.820801 -16.559204
vn -0.743106 -0.666893 -0.055197
vt 0.509151 0.224874
v 11.375983 -10.365575 1.679363
vn -0.047973 -0.996269 0.071743
vt 0.482166 0.409548
v 81.035316 697.110718 113.391800
vn -0.061732 0.923163 0.379420
vt 0.377367 0.493052
v 144.681290 672.805176 139.936966
vn -0.081486 0.546731 0.833334
vt 0.430330 0.576801
v 208.638657 684.975098 102.432411
vn 0.171381 0.960908 0.217452
vt 0.623102 0.666499
v 163.061707 697.708374 47.619629
vn 0.205072 0.978113 0.035216
vt 0.658433 0.611028
v 123.450508 704.815918 -16.675743
vn 0.107041 0.993408 0.041017
vt 0.721765 0.565518
v 11.630561 705.677856 -16.395721
vn -0.174054 0.976000 0.130876
vt 0.530152 0.412396
v 207.116699 633.318848 -19.536205
vn 0.866760 0.295723 -0.401590
vt 0.581362 0.803683
v -122.020119 384.004761 76.061943
vn -0.748994 0.026824 0.662033
vt 0.259527 0.151605
v -167.398880 432.323120 -35.109638
vn -0.998005 0.056769 0.027626
vt 0.536882 0.039586
v -79.213150 682.267578 -17.934057
vn -0.402791 0.879909 0.252032
vt 0.513570 0.227452
v -111.416847 658.258545 -16.464508
vn -0.798235 0.550293 0.244946
vt 0.501605 0.158090
v -79.213150 682.267578 -17.934057
vn -0.402791 0.879909 0.252032
vt 0.513570 0.227452
v -124.246925 642.053040 -123.122124
vn -0.923552 0.144859 -0.355059
vt 0.774358 0.111654
v -116.660103 678.687744 -121.781158
vn -0.760103 0.584641 -0.283618
vt 0.774449 0.136094
v -156.030060 250.277161 -29.629196
vn -0.974048 -0.198191 -0.109316
vt 0.525276 0.063672
v 10.565278 9.528481 -117.059242
vn -0.024962 -0.869504 -0.493295
vt 0.789186 0.386783
v 11.375983 -10.365575 1.679363
vn -0.047973 -0.996269 0.071743
vt 0.482166 0.409548
v -77.874329 53.820801 -16.559204
vn -0.743106 -0.666893 -0.055197
vt 0.509151 0.224874
v 186.189163 668.069946 146.452835
vn 0.055066 0.717105 0.694787
vt 0.147173 0.790662
v 104.235245 680.095947 129.077438
vn -0.227296 0.435215 0.871163
vt 0.173577 0.620973
v 81.035316 697.110718 113.391800
vn -0.061732 0.923163 0.379420
vt 0.208908 0.571022
v 11.630561 705.677856 -16.395721
vn -0.174054 0.976000 0.130876
vt 0.530152 0.412396
v 81.035316 697.110718 113.391800
vn -0.061732 0.923163 0.379420
vt 0.208908 0.571022
v 62.758007 506.812866 -155.889923
vn 0.132279 0.152246 -0.979451
vt 0.901464 0.485976
v -79.213150 682.267578 -17.934057
vn -0.402791 0.879909 0.252032
vt 0.513570 0.227452
v 97.869583 55.565666 -7.362464
vn 0.720573 -0.691867 0.045762
vt 0.525137 0.583767
v 104.235245 680.095947 129.077438
vn -0.227296 0.435215 0.871163
vt 0.383541 0.522969
v 97.869583 55.565666 -7.362464
vn 0.720573 -0.691867 0.045762
vt 0.525137 0.583767
v 11.375983 -10.365575 1.679363
vn -0.047973 -0.996269 0.071743
vt 0.482166 0.409548
v 186.189163 668.069946 146.452835
vn 0.055066 0.717105 0.694787
vt 0.488640 0.632347
v 226.332642 677.574707 125.013771
vn 0.316830 0.826203 0.465841
vt 0.605955 0.688147
v -156.030060 250.277161 -29.629196
vn -0.974048 -0.198191 -0.109316
vt 0.525276 0.063672
v -89.310753 77.287628 106.694756
vn -0.844917 -0.489462 0.215738
vt 0.187677 0.223546
v -144.281738 230.216873 97.042206
vn -0.850726 -0.002766 0.525602
vt 0.200207 0.110082
v -8.393275 367.777283 108.682243
vn -0.257152 0.130669 0.957496
vt 0.200850 0.388391
v -129.184875 597.157288 -18.735186
vn -0.930955 0.250378 0.265771
vt 0.503167 0.120181
f 117/117/117 103/103/103 118/118/118
f 118/118/118 119/119/119 117/117/117
f 101/101/101 103/103/103 17/17/17
f 103/103/103 101/101/101 102/102/102
f 17/17/17 100/100/100 80/80/80
f 100/100/100 17/17/17 103/103/103
f 53/53/53 100/100/100 72/72/72
f 100/100/100 53/53/53 80/80/80
f 50/50/50 74/74/74 72/72/72
f 110/110/110 91/91/91 25/25/25
f 57/57/57 25/25/25 91/91/91
f 25/25/25 57/57/57 26/26/26
f 29/29/29 26/26/26 57/57/57
f 26/26/26 29/29/29 27/27/27
f 30/30/30 27/27/27 29/29/29
f 27/27/27 30/30/30 40/40/40
f 41/41/41 40/40/40 30/30/30
f 40/40/40 41/41/41 42/42/42
f 51/51/51 42/42/42 41/41/41
f 42/42/42 51/51/51 50/50/50
f 52/52/52 50/50/50 51/51/51
f 50/50/50 52/52/52 53/53/53
f 71/71/71 53/53/53 52/52/52
f 53/53/53 71/71/71 80/80/80
f 14/14/14 80/80/80 71/71/71
f 80/80/80 14/14/14 17/17/17
f 42/42/42 39/39/39 40/40/40
f 14/14/14 16/16/16 17/17/17
f 16/16/16 14/14/14 15/15/15
f 71/71/71 15/15/15 14/14/14
f 15/15/15 71/71/71 70/70/70
f 52/52/52 70/70/70 71/71/71
f 70/70/70 52/52/52 69/69/69
f 51/51/51 69/69/69 52/52/52
f 69/69/69 51/51/51 109/109/109
f 41/41/41 109/109/109 51/51/51
f 109/109/109 41/41/41 59/59/59
f 30/30/30 59/59/59 41/41/41
f 59/59/59 30/30/30 58/58/58
f 29/29/29 58/58/58 30/30/30
f 58/58/58 29/29/29 43/43/43
f 57/57/57 43/43/43 29/29/29
f 43/43/43 57/57/57 44/44/44
f 43/43/43 44/44/44 45/45/45
f 18/18/18 45/45/45 19/19/19
f 45/45/45 18/18/18 43/43/43
f 92/92/92 43/43/43 18/18/18
f 43/43/43 92/92/92 58/58/58
f 68/68/68 58/58/58 92/92/92
f 58/58/58 68/68/68 59/59/59
f 67/67/67 59/59/59 68/68/68
f 59/59/59 67/67/67 109/109/109
f 66/66/66 109/109/109 67/67/67
f 109/109/109 66/66/66 69/69/69
f 10/10/10 69/69/69 66/66/66
f 69/69/69 10/10/10 70/70/70
f 9/9/9 70/70/70 10/10/10
f 70/70/70 9/9/9 15/15/15
f 8/8/8 15/15/15 9/9/9
f 15/15/15 8/8/8 16/16/16
f 113/113/113 16/16/16 8/8/8
f 16/16/16 113/113/113 114/114/114
f 18/18/18 19/19/19 20/20/20
f 22/22/22 104/104/104 31/31/31
f 104/104/104 22/22/22 20/20/20
f 21/21/21 20/20/20 22/22/22
f 20/20/20 21/21/21 18/18/18
f 61/61/61 18/18/18 21/21/21
f 18/18/18 61/61/61 92/92/92
f 77/77/77 92/92/92 61/61/61
f 92/92/92 77/77/77 68/68/68
f 65/65/65 68/68/68 77/77/77
f 68/68/68 65/65/65 67/67/67
f 66/66/66 67/67/67 65/65/65
f 10/10/10 66/66/66 11/11/11
f 65/65/65 11/11/11 66/66/66
f 11/11/11 65/65/65 76/76/76
f 77/77/77 76/76/76 65/65/65
f 76/76/76 77/77/77 47/47/47
f 61/61/61 47/47/47 77/77/77
f 47/47/47 61/61/61 24/24/24
f 21/21/21 24/24/24 61/61/61
f 24/24/24 21/21/21 22/22/22
f 22/22/22 31/31/31 32/32/32
f 105/105/105 32/32/32 31/31/31
f 32/32/32 105/105/105 34/34/34
f 35/35/35 105/105/105 106/106/106
f 105/105/105 35/35/35 34/34/34
f 33/33/33 34/34/34 35/35/35
f 34/34/34 33/33/33 32/32/32
f 95/95/95 33/33/33 35/35/35
f 33/33/33 95/95/95 56/56/56
f 107/107/107 35/35/35 108/108/108
f 35/35/35 107/107/107 95/95/95
f 9/9/9 10/10/10 8/8/8
f 11/11/11 8/8/8 10/10/10
f 8/8/8 11/11/11 81/81/81
f 76/76/76 81/81/81 11/11/11
f 81/81/81 76/76/76 46/46/46
f 47/47/47 46/46/46 76/76/76
f 46/46/46 47/47/47 48/48/48
f 24/24/24 48/48/48 47/47/47
f 48/48/48 24/24/24 23/23/23
f 22/22/22 23/23/23 24/24/24
f 23/23/23 22/22/22 60/60/60
f 32/32/32 60/60/60 22/22/22
f 60/60/60 32/32/32 55/55/55
f 33/33/33 55/55/55 32/32/32
f 55/55/55 33/33/33 54/54/54
f 56/56/56 54/54/54 33/33/33
f 54/54/54 56/56/56 98/98/98
f 99/99/99 98/98/98 56/56/56
f 81/81/81 111/111/111 8/8/8
f 111/111/111 81/81/81 79/79/79
f 46/46/46 79/79/79 81/81/81
f 79/79/79 46/46/46 49/49/49
f 48/48/48 49/49/49 46/46/46
f 49/49/49 48/48/48 63/63/63
f 23/23/23 63/63/63 48/48/48
f 63/63/63 23/23/23 60/60/60
f 120/120/120 60/60/60 55/55/55
f 60/60/60 120/120/120 63/63/63
f 64/64/64 63/63/63 120/120/120
f 63/63/63 64/64/64 49/49/49
f 78/78/78 49/49/49 64/64/64
f 49/49/49 78/78/78 79/79/79
f 6/6/6 79/79/79 78/78/78
f 79/79/79 6/6/6 111/111/111
f 85/85/85 111/111/111 6/6/6
f 55/55/55 93/93/93 120/120/120
f 78/78/78 7/7/7 6/6/6
f 93/93/93 75/75/75 120/120/120
f 1/1/1 120/120/120 75/75/75
f 120/120/120 1/1/1 64/64/64
f 4/4/4 64/64/64 1/1/1
f 64/64/64 4/4/4 78/78/78
f 3/3/3 78/78/78 4/4/4
f 78/78/78 3/3/3 7/7/7
f 6/6/6 7/7/7 3/3/3
f 3/3/3 4/4/4 1/1/1
f 85/85/85 6/6/6 5/5/5
f 3/3/3 5/5/5 6/6/6
f 5/5/5 3/3/3 2/2/2
f 1/1/1 2/2/2 3/3/3
f 2/2/2 1/1/1 12/12/12
f 75/75/75 12/12/12 1/1/1
f 12/12/12 75/75/75 82/82/82
f 93/93/93 82/82/82 75/75/75
f 82/82/82 93/93/93 94/94/94
f 55/55/55 94/94/94 93/93/93
f 94/94/94 55/55/55 54/54/54
f 13/13/13 2/2/2 12/12/12
f 2/2/2 13/13/13 5/5/5
f 85/85/85 5/5/5 13/13/13
f 82/82/82 83/83/83 12/12/12
f 13/13/13 84/84/84 85/85/85
f 72/72/72 73/73/73 50/50/50
f 62/62/62 50/50/50 73/73/73
f 50/50/50 62/62/62 42/42/42
f 36/36/36 42/42/42 62/62/62
f 42/42/42 36/36/36 39/39/39
f 38/38/38 39/39/39 36/36/36
f 39/39/39 38/38/38 40/40/40
f 28/28/28 40/40/40 38/38/38
f 40/40/40 28/28/28 27/27/27
f 25/25/25 27/27/27 28/28/28
f 27/27/27 25/25/25 26/26/26
f 25/25/25 37/37/37 110/110/110
f 37/37/37 25/25/25 38/38/38
f 28/28/28 38/38/38 25/25/25
f 38/38/38 36/36/36 37/37/37
f 96/96/96 37/37/37 36/36/36
f 37/37/37 96/96/96 97/97/97
f 73/73/73 121/121/121 62/62/62
f 87/87/87 86/86/86 112/112/112
f 86/86/86 87/87/87 88/88/88
f 115/115/115 88/88/88 87/87/87
f 88/88/88 115/115/115 116/116/116
f 89/89/89 86/86/86 88/88/88
f 86/86/86 89/89/89 90/90/90
f 57/57/57 86/86/86 90/90/90
f 86/86/86 57/57/57 91/91/91
