mtllib LVL_ROAST_MUTTON_ROCK01.mtl
g RM_rock01
usemtl Lvl_roast_m_largebolders_wet
v 407.852051 858.561096 -249.365982
vn 0.599295 0.604917 -0.524329
vt 0.295031 0.372477
v 400.016083 825.678589 -267.564880
vn 0.598076 0.111152 -0.793694
vt 0.298859 0.443707
v 272.533875 826.158203 -292.916901
vn 0.118688 0.296557 -0.947611
vt 0.659464 0.578675
v 288.774567 896.915466 -262.690704
vn 0.178994 0.796912 -0.576968
vt 0.636018 0.454313
v -198.357788 -89.851677 -245.241394
vn -0.044227 -0.833482 -0.550773
vt 2.019808 0.520588
v -214.963974 -175.496872 -28.746920
vn -0.161282 -0.980400 0.113156
vt 2.110871 -0.327565
v -359.210236 -123.994202 -30.044949
vn -0.622941 -0.779098 -0.070368
vt 2.524390 -0.282723
v -358.071930 -86.979836 -254.917252
vn -0.364053 -0.779527 -0.509709
vt 2.476017 0.602689
v -357.493073 -60.976742 -282.679932
vn -0.446283 -0.370650 -0.814524
vt 2.468788 0.711881
v -224.599121 -46.655445 -279.164551
vn -0.014584 -0.382074 -0.924017
vt 2.088279 0.661432
v 443.647949 845.547729 65.294334
vn 0.712997 0.697473 0.071872
vt 0.240467 -0.879374
v 485.185852 749.787720 43.607082
vn 0.976990 0.192436 0.091975
vt 0.092403 -0.807751
v 484.045135 764.887024 -84.679688
vn 0.952327 0.256813 -0.164685
vt 0.069942 -0.302142
v 425.449249 865.606750 -114.377220
vn 0.663910 0.741883 -0.093982
vt 0.316627 -0.156233
v -388.293732 749.086792 -240.818283
vn -0.415070 0.102392 -0.904009
vt 2.565538 0.555480
v -372.637604 627.962646 -258.548706
vn -0.290468 0.078618 -0.953650
vt 2.517071 0.621005
v -462.765472 632.544250 -192.538925
vn -0.793655 0.053903 -0.605975
vt 2.788849 0.385830
v -467.577209 757.541321 -178.711151
vn -0.925087 0.106149 -0.364617
vt 2.805426 0.332690
v 316.262665 699.071106 270.301941
vn 0.459034 0.144339 0.876615
vt 0.648677 -1.684676
v 283.772003 604.685120 282.784088
vn 0.330336 -0.205788 0.921157
vt 0.744382 -1.724892
v 432.570068 612.576721 184.415543
vn 0.662155 -0.143649 0.735470
vt 0.296139 -1.345516
v 446.788513 717.220032 170.140289
vn 0.710987 0.069699 0.699743
vt 0.252489 -1.293205
v 47.016079 -95.772247 147.642990
vn 0.219924 -0.576070 0.787259
vt 1.394747 -1.094485
v -77.760437 -96.119003 167.238388
vn 0.003366 -0.617181 0.786814
vt 1.756607 -1.137300
v -46.366196 -186.954956 -24.486910
vn -0.036347 -0.999035 0.024660
vt 1.628092 -0.390781
v 93.897491 -198.302155 -47.620792
vn 0.167066 -0.985281 0.036194
vt 1.221097 -0.338294
v -411.991058 867.885315 227.241440
vn -0.563589 0.630128 0.534141
vt 2.717202 -1.277992
v -402.554108 819.201538 262.564575
vn -0.543661 0.306678 0.781269
vt 2.700413 -1.417955
v -302.231445 808.239746 295.684082
vn -0.144213 0.354439 0.923892
vt 2.419694 -1.584265
v -320.003448 905.424133 242.777954
vn -0.157559 0.725997 0.669405
vt 2.461766 -1.364353
v 443.005524 831.260742 146.962830
vn 0.649217 0.643559 0.405401
vt 0.258691 -1.200872
v 301.236237 884.602356 74.017929
vn 0.207567 0.967794 0.142444
vt 0.650733 -0.874510
v 307.389862 862.846558 177.421249
vn 0.235264 0.794500 0.559840
vt 0.653823 -1.283489
v 279.003815 906.585266 -120.385063
vn 0.181825 0.983319 -0.004929
vt 0.743828 -0.106013
v -443.772491 913.060974 -47.400749
vn -0.737074 0.675447 -0.022212
vt 2.722675 -0.176708
v -444.337189 883.593323 -193.448395
vn -0.785066 0.341125 -0.517016
vt 2.735804 0.384336
v -473.699585 770.268799 -133.915070
vn -0.967395 0.152148 -0.202480
vt 2.831974 0.157934
v -488.322052 806.671204 12.877880
vn -0.959939 0.266381 0.086938
vt 2.863065 -0.388719
v -301.330261 730.654236 315.946686
vn -0.263885 -0.025110 0.964227
vt 2.331250 -1.724113
v -427.351105 767.734924 256.335052
vn -0.767668 -0.023238 0.640426
vt 2.696721 -1.369128
v -425.341736 649.704224 220.882813
vn -0.646018 -0.143657 0.749682
vt 2.711869 -1.251468
v -331.306732 629.608765 289.467743
vn -0.328732 -0.177227 0.927645
vt 2.438276 -1.600083
v -46.366196 -186.954956 -24.486910
vn -0.036347 -0.999035 0.024660
vt 1.628092 -0.390781
v -77.760437 -96.119003 167.238388
vn 0.003366 -0.617181 0.786814
vt 1.756607 -1.137300
v -225.107620 -87.281357 167.555984
vn -0.143729 -0.487521 0.861200
vt 2.179345 -1.097967
v -364.524017 932.429260 -204.648392
vn -0.284582 0.527817 -0.800264
vt 2.504609 0.406468
v -354.018066 947.783752 -68.499176
vn -0.186109 0.982496 0.008068
vt 2.482254 -0.117650
v 159.526382 -80.045341 112.245163
vn 0.509628 -0.614178 0.602549
vt 1.064904 -0.986049
v 47.016079 -95.772247 147.642990
vn 0.219924 -0.576070 0.787259
vt 1.394747 -1.094485
v 93.897491 -198.302155 -47.620792
vn 0.167066 -0.985281 0.036194
vt 1.221097 -0.338294
v 213.122681 -142.805099 -68.554565
vn 0.512047 -0.857398 0.051731
vt 0.874893 -0.288678
v -325.069214 931.261475 137.678024
vn -0.163011 0.970449 0.177924
vt 2.440570 -0.937712
v -419.455048 889.857910 138.588135
vn -0.690467 0.694916 0.200866
vt 2.690226 -0.915977
v 69.907028 887.426758 215.500290
vn 0.130205 0.875719 0.464933
vt 1.342695 -1.368065
v 307.389862 862.846558 177.421249
vn 0.235264 0.794500 0.559840
vt 0.653823 -1.283489
v 301.236237 884.602356 74.017929
vn 0.207567 0.967794 0.142444
vt 0.650733 -0.874510
v 301.236237 884.602356 74.017929
vn 0.207567 0.967794 0.142444
vt 0.650733 -0.874510
v 59.288345 912.560364 93.234680
vn 0.111554 0.985144 0.130562
vt 1.348630 -0.883561
v 69.907028 887.426758 215.500290
vn 0.130205 0.875719 0.464933
vt 1.342695 -1.368065
v -6.577588 -96.495445 -233.232101
vn -0.057436 -0.820271 -0.569083
vt 1.472084 0.420464
v 167.220520 -94.301765 -259.402893
vn 0.054942 -0.792600 -0.607261
vt 0.968284 0.475677
v 93.897491 -198.302155 -47.620792
vn 0.167066 -0.985281 0.036194
vt 1.221097 -0.338294
v -46.366196 -186.954956 -24.486910
vn -0.036347 -0.999035 0.024660
vt 1.628092 -0.390781
v -148.653809 929.840576 118.636787
vn 0.068805 0.988009 0.138220
vt 1.950220 -0.926342
v -141.781113 904.723145 238.482651
vn 0.063821 0.869520 0.489757
vt 1.954545 -1.400282
v -475.761841 640.895691 -141.658127
vn -0.977940 0.026226 -0.207232
vt 2.836336 0.189000
v 481.129120 621.420776 123.751488
vn 0.878789 -0.134012 0.458008
vt 0.138536 -1.120537
v 474.591858 737.178467 116.003395
vn 0.935738 0.128970 0.328269
vt 0.155734 -1.088219
v -507.301208 668.000000 20.608810
vn -0.999249 0.004389 0.038498
vt 2.935881 -0.414085
v 495.111847 627.904419 61.477245
vn 0.980341 -0.143284 0.135653
vt 0.067515 -0.880872
v 430.279633 752.345764 -209.453110
vn 0.909814 0.062862 -0.410228
vt 0.223703 0.206481
v 435.658844 629.379028 -203.003189
vn 0.912408 -0.048517 -0.406397
vt 0.209566 0.179595
v 399.869537 629.567627 -267.527832
vn 0.760287 -0.029806 -0.648903
vt 0.299287 0.443601
v 394.211792 746.751404 -267.601563
vn 0.533933 0.066363 -0.842918
vt 0.315501 0.445450
v -458.758942 786.979431 187.685516
vn -0.916846 0.171130 0.360705
vt 2.823406 -1.100318
v -450.691650 664.695496 159.878265
vn -0.922189 -0.103253 0.372702
vt 2.805898 -0.998405
v 238.042969 740.697083 -325.559998
vn 0.055215 0.220792 -0.973757
vt 0.751855 0.716749
v 263.927887 627.458435 -337.281708
vn 0.278807 0.034839 -0.959715
vt 0.675252 0.755789
v 39.929546 630.352173 -324.256378
vn -0.078629 0.080803 -0.993624
vt 1.320417 0.766181
v 4.234455 745.940796 -295.240356
vn -0.121748 0.220999 -0.967645
vt 1.428631 0.661724
v -171.704376 638.404541 295.399048
vn -0.031193 -0.187743 0.981723
vt 2.035869 -1.701700
v -114.229301 729.817200 313.548370
vn -0.012731 0.079430 0.996759
vt 1.876314 -1.821922
v -473.695770 673.562439 109.924377
vn -0.950823 -0.023440 0.308848
vt 2.857398 -0.775137
v -470.915649 807.034058 123.027328
vn -0.946664 0.252210 0.200541
vt 2.835229 -0.827370
v 489.451660 641.315247 -48.539963
vn 0.983696 -0.099334 -0.149914
vt 0.061683 -0.445978
v -37.002773 -47.818996 -273.762421
vn -0.048585 -0.516732 -0.854768
vt 1.551231 0.588485
v 136.949326 -45.252975 -294.988190
vn -0.033198 -0.424317 -0.904905
vt 1.047981 0.624177
v 326.281769 -7.076629 -287.635284
vn 0.732782 -0.276608 -0.621706
vt 0.506344 0.543068
v 265.973877 -34.982300 -303.061371
vn 0.276036 -0.547491 -0.789973
vt 0.676247 0.620439
v 240.810974 90.582657 -329.872284
vn 0.194504 -0.092892 -0.976493
vt 0.788095 0.675887
v 330.089478 101.121201 -280.890686
vn 0.664833 -0.029092 -0.746425
vt 0.496775 0.515454
v -441.013824 35.885769 -214.607834
vn -0.899997 -0.332470 -0.281901
vt 2.722026 0.466763
v -479.146698 246.939133 -205.124603
vn -0.951096 -0.061461 -0.302720
vt 2.833315 0.439914
v -440.447815 249.722244 -261.079163
vn -0.609538 0.012790 -0.792654
vt 2.711081 0.649648
v -406.321564 54.537918 -265.207336
vn -0.446367 -0.080531 -0.891219
vt 2.612360 0.656509
v -360.001251 -102.758049 107.553551
vn -0.653558 -0.708952 0.265045
vt 2.554260 -0.824476
v -354.464111 -83.143570 150.460907
vn -0.500698 -0.565386 0.655470
vt 2.546983 -0.995005
v -420.483246 50.599316 127.687401
vn -0.811633 -0.201295 0.548391
vt 2.731794 -0.887121
v -437.494659 47.699310 79.236320
vn -0.950156 -0.200064 0.239121
vt 2.770874 -0.691597
v 47.016079 -95.772247 147.642990
vn 0.219924 -0.576070 0.787259
vt 1.394747 -1.094485
v 159.526382 -80.045341 112.245163
vn 0.509628 -0.614178 0.602549
vt 1.064904 -0.986049
v 155.310349 -41.332367 115.718742
vn 0.353194 -0.145012 0.924243
vt 1.077695 -0.998569
v 60.603535 628.029968 310.284393
vn 0.076182 -0.191560 0.978520
vt 1.391747 -1.804647
v -193.217117 929.747742 -222.393356
vn -0.026089 0.881118 -0.472176
vt 2.009645 0.429179
v -186.545334 946.858215 -92.597626
vn 0.027067 0.999602 -0.008013
vt 2.016542 -0.083897
v 326.121796 -20.929558 -245.588699
vn 0.858867 -0.483663 -0.168576
vt 0.515237 0.377500
v 274.083252 -77.923698 -258.606842
vn 0.531793 -0.773299 -0.345261
vt 0.661902 0.443108
v 105.014572 725.888306 323.820099
vn 0.134914 0.175326 0.975223
vt 1.267066 -1.870194
v -189.993240 635.776672 -293.553894
vn -0.143171 0.111786 -0.983365
vt 1.986123 0.708577
v -212.727600 754.241333 -266.419830
vn -0.142919 0.203521 -0.968583
vt 2.056781 0.607964
v -114.229301 729.817200 313.548370
vn -0.012731 0.079430 0.996759
vt 1.876314 -1.821922
v -171.704376 638.404541 295.399048
vn -0.031193 -0.187743 0.981723
vt 2.035869 -1.701700
v 59.288345 912.560364 93.234680
vn 0.111554 0.985144 0.130562
vt 1.348630 -0.883561
v 279.003815 906.585266 -120.385063
vn 0.181825 0.983319 -0.004929
vt 0.743828 -0.106013
v 26.013674 933.940002 -111.927307
vn 0.076900 0.996874 -0.018151
vt 1.432754 -0.074234
v -371.769806 835.641296 -223.839233
vn -0.233125 0.193953 -0.952909
vt 2.521544 0.484052
v -198.097260 844.449341 -245.106674
vn -0.118891 0.248423 -0.961328
vt 2.019088 0.519986
v -198.357788 -89.851677 -245.241394
vn -0.044227 -0.833482 -0.550773
vt 2.019808 0.520588
v -6.577588 -96.495445 -233.232101
vn -0.057436 -0.820271 -0.569083
vt 1.472084 0.420464
v -46.366196 -186.954956 -24.486910
vn -0.036347 -0.999035 0.024660
vt 1.628092 -0.390781
v -141.781113 904.723145 238.482651
vn 0.063821 0.869520 0.489757
vt 1.954545 -1.400282
v -148.653809 929.840576 118.636787
vn 0.068805 0.988009 0.138220
vt 1.950220 -0.926342
v -257.628754 75.206757 -301.396729
vn -0.163227 -0.068969 -0.984175
vt 2.178566 0.758097
v -148.653809 929.840576 118.636787
vn 0.068805 0.988009 0.138220
vt 1.950220 -0.926342
v 31.018543 833.898010 -277.271667
vn -0.093415 0.281330 -0.955054
vt 1.355403 0.583572
v -127.955093 813.945679 299.443542
vn 0.040643 0.443115 0.895543
vt 1.927531 -1.652430
v -447.970398 825.172180 -202.245804
vn -0.750362 0.153821 -0.642881
vt 2.744462 0.419988
v 311.877869 784.456482 235.734665
vn 0.338201 0.423438 0.840428
vt 0.652646 -1.514409
v 84.721222 804.870972 286.353790
vn 0.128029 0.506364 0.852763
vt 1.314412 -1.651222
v 440.150269 792.898010 177.674500
vn 0.699625 0.210146 0.682908
vt 0.273042 -1.321053
v -114.229301 729.817200 313.548370
vn -0.012731 0.079430 0.996759
vt 1.876314 -1.821922
v 84.721222 804.870972 286.353790
vn 0.128029 0.506364 0.852763
vt 1.314412 -1.651222
v -127.955093 813.945679 299.443542
vn 0.040643 0.443115 0.895543
vt 1.927531 -1.652430
v 26.013674 933.940002 -111.927307
vn 0.076900 0.996874 -0.018151
vt 1.432754 -0.074234
v -186.545334 946.858215 -92.597626
vn 0.027067 0.999602 -0.008013
vt 2.016542 -0.083897
v -148.653809 929.840576 118.636787
vn 0.068805 0.988009 0.138220
vt 1.950220 -0.926342
v -148.653809 929.840576 118.636787
vn 0.068805 0.988009 0.138220
vt 1.950220 -0.926342
v 59.288345 912.560364 93.234680
vn 0.111554 0.985144 0.130562
vt 1.348630 -0.883561
v 26.013674 933.940002 -111.927307
vn 0.076900 0.996874 -0.018151
vt 1.432754 -0.074234
v -434.095581 42.752415 -37.420277
vn -0.957521 -0.285615 0.039728
vt 2.737723 -0.233047
v 93.897491 -198.302155 -47.620792
vn 0.167066 -0.985281 0.036194
vt 1.221097 -0.338294
v 316.436279 -31.764063 -69.143715
vn 0.825614 -0.544715 0.147130
vt 0.578414 -0.314813
v 41.114223 917.337463 -253.638931
vn -0.011636 0.717782 -0.696170
vt 1.338641 0.485725
v 26.013674 933.940002 -111.927307
vn 0.076900 0.996874 -0.018151
vt 1.432754 -0.074234
v 354.596588 99.602753 -234.267151
vn 0.939629 -0.133554 -0.315057
vt 0.435827 0.325063
v 155.310349 -41.332367 115.718742
vn 0.353194 -0.145012 0.924243
vt 1.077695 -0.998569
v 246.312393 -31.226013 73.409164
vn 0.550106 -0.295068 0.781229
vt 0.808163 -0.856985
v 226.579163 -21.935425 82.394127
vn 0.355504 -0.235311 0.904569
vt 0.866572 -0.886940
v 253.764908 90.679596 113.897240
vn 0.500744 -0.317684 0.805191
vt 0.794907 -1.018512
v -345.198303 -58.302086 165.980545
vn -0.366748 -0.206991 0.907001
vt 2.523516 -1.058685
v -374.303864 61.106747 161.942719
vn -0.338100 -0.083833 0.937369
vt 2.606197 -1.034765
v 96.535194 87.120697 -340.724396
vn -0.039513 -0.195331 -0.979941
vt 1.199782 0.758368
v -75.010010 82.225052 -318.614044
vn -0.088615 -0.137610 -0.986515
vt 1.651260 0.775614
v 271.152527 -30.455969 38.171314
vn 0.772394 -0.523960 0.358988
vt 0.729840 -0.725032
v 69.907028 887.426758 215.500290
vn 0.130205 0.875719 0.464933
vt 1.342695 -1.368065
v -141.781113 904.723145 238.482651
vn 0.063821 0.869520 0.489757
vt 1.954545 -1.400282
v -473.699585 770.268799 -133.915070
vn -0.967395 0.152148 -0.202480
vt 2.831974 0.157934
v -444.337189 883.593323 -193.448395
vn -0.785066 0.341125 -0.517016
vt 2.735804 0.384336
v -447.970398 825.172180 -202.245804
vn -0.750362 0.153821 -0.642881
vt 2.744462 0.419988
v -447.970398 825.172180 -202.245804
vn -0.750362 0.153821 -0.642881
vt 2.744462 0.419988
v -467.577209 757.541321 -178.711151
vn -0.925087 0.106149 -0.364617
vt 2.805426 0.332690
v -473.699585 770.268799 -133.915070
vn -0.967395 0.152148 -0.202480
vt 2.831974 0.157934
v -444.337189 883.593323 -193.448395
vn -0.785066 0.341125 -0.517016
vt 2.735804 0.384336
v -364.524017 932.429260 -204.648392
vn -0.284582 0.527817 -0.800264
vt 2.504609 0.406468
v -371.769806 835.641296 -223.839233
vn -0.233125 0.193953 -0.952909
vt 2.521544 0.484052
v -447.970398 825.172180 -202.245804
vn -0.750362 0.153821 -0.642881
vt 2.744462 0.419988
v -77.760437 -96.119003 167.238388
vn 0.003366 -0.617181 0.786814
vt 1.756607 -1.137300
v 283.772003 604.685120 282.784088
vn 0.330336 -0.205788 0.921157
vt 0.744382 -1.724892
v -171.704376 638.404541 295.399048
vn -0.031193 -0.187743 0.981723
vt 2.035869 -1.701700
v -77.760437 -96.119003 167.238388
vn 0.003366 -0.617181 0.786814
vt 1.756607 -1.137300
v 47.016079 -95.772247 147.642990
vn 0.219924 -0.576070 0.787259
vt 1.394747 -1.094485
f 54/54/54 55/55/55 56/56/56
f 151/151/151 150/150/150 45/45/45
f 97/97/97 45/45/45 150/150/150
f 45/45/45 97/97/97 96/96/96
f 98/98/98 96/96/96 97/97/97
f 96/96/96 98/98/98 99/99/99
f 76/76/76 99/99/99 98/98/98
f 99/99/99 76/76/76 83/83/83
f 75/75/75 83/83/83 76/76/76
f 83/83/83 75/75/75 84/84/84
f 53/53/53 84/84/84 75/75/75
f 84/84/84 53/53/53 38/38/38
f 35/35/35 38/38/38 53/53/53
f 38/38/38 35/35/35 37/37/37
f 36/36/36 37/37/37 35/35/35
f 69/69/69 38/38/38 37/37/37
f 5/5/5 6/6/6 7/7/7
f 96/96/96 7/7/7 6/6/6
f 7/7/7 96/96/96 140/140/140
f 99/99/99 140/140/140 96/96/96
f 140/140/140 99/99/99 69/69/69
f 83/83/83 69/69/69 99/99/99
f 69/69/69 83/83/83 38/38/38
f 84/84/84 38/38/38 83/83/83
f 35/35/35 46/46/46 36/36/36
f 46/46/46 35/35/35 47/47/47
f 53/53/53 47/47/47 35/35/35
f 98/98/98 41/41/41 76/76/76
f 40/40/40 76/76/76 41/41/41
f 76/76/76 40/40/40 75/75/75
f 39/39/39 41/41/41 42/42/42
f 41/41/41 39/39/39 40/40/40
f 28/28/28 40/40/40 39/39/39
f 40/40/40 28/28/28 75/75/75
f 27/27/27 75/75/75 28/28/28
f 75/75/75 27/27/27 53/53/53
f 52/52/52 53/53/53 27/27/27
f 53/53/53 52/52/52 47/47/47
f 29/29/29 28/28/28 39/39/39
f 28/28/28 29/29/29 27/27/27
f 30/30/30 27/27/27 29/29/29
f 27/27/27 30/30/30 52/52/52
f 97/97/97 150/150/150 98/98/98
f 151/151/151 98/98/98 150/150/150
f 98/98/98 151/151/151 41/41/41
f 45/45/45 41/41/41 151/151/151
f 41/41/41 45/45/45 42/42/42
f 81/81/81 42/42/42 45/45/45
f 42/42/42 81/81/81 39/39/39
f 82/82/82 39/39/39 81/81/81
f 39/39/39 82/82/82 29/29/29
f 126/126/126 29/29/29 82/82/82
f 29/29/29 126/126/126 30/30/30
f 121/121/121 30/30/30 126/126/126
f 30/30/30 121/121/121 52/52/52
f 122/122/122 52/52/52 121/121/121
f 45/45/45 167/167/167 81/81/81
f 43/43/43 44/44/44 6/6/6
f 45/45/45 6/6/6 44/44/44
f 6/6/6 45/45/45 96/96/96
f 120/120/120 118/118/118 119/119/119
f 118/118/118 120/120/120 6/6/6
f 66/66/66 37/37/37 18/18/18
f 37/37/37 66/66/66 69/69/69
f 93/93/93 69/69/69 66/66/66
f 69/69/69 93/93/93 140/140/140
f 92/92/92 140/140/140 93/93/93
f 140/140/140 92/92/92 7/7/7
f 8/8/8 7/7/7 92/92/92
f 7/7/7 8/8/8 5/5/5
f 10/10/10 5/5/5 8/8/8
f 5/5/5 10/10/10 86/86/86
f 153/153/153 86/86/86 10/10/10
f 86/86/86 153/153/153 152/152/152
f 79/79/79 152/152/152 153/153/153
f 152/152/152 79/79/79 90/90/90
f 78/78/78 90/90/90 79/79/79
f 90/90/90 78/78/78 91/91/91
f 73/73/73 91/91/91 78/78/78
f 91/91/91 73/73/73 145/145/145
f 152/152/152 87/87/87 86/86/86
f 87/87/87 152/152/152 90/90/90
f 91/91/91 88/88/88 90/90/90
f 89/89/89 90/90/90 88/88/88
f 90/90/90 89/89/89 87/87/87
f 61/61/61 87/87/87 89/89/89
f 87/87/87 61/61/61 86/86/86
f 60/60/60 86/86/86 61/61/61
f 86/86/86 60/60/60 5/5/5
f 91/91/91 145/145/145 88/88/88
f 106/106/106 88/88/88 145/145/145
f 88/88/88 106/106/106 89/89/89
f 107/107/107 89/89/89 106/106/106
f 89/89/89 107/107/107 61/61/61
f 51/51/51 61/61/61 107/107/107
f 61/61/61 51/51/51 141/141/141
f 145/145/145 85/85/85 106/106/106
f 142/142/142 106/106/106 85/85/85
f 106/106/106 142/142/142 107/107/107
f 51/51/51 107/107/107 142/142/142
f 60/60/60 62/62/62 63/63/63
f 62/62/62 60/60/60 61/61/61
f 48/48/48 51/51/51 142/142/142
f 51/51/51 48/48/48 50/50/50
f 49/49/49 50/50/50 48/48/48
f 72/72/72 145/145/145 73/73/73
f 145/145/145 72/72/72 85/85/85
f 71/71/71 85/85/85 72/72/72
f 85/85/85 71/71/71 13/13/13
f 14/14/14 13/13/13 71/71/71
f 13/13/13 14/14/14 11/11/11
f 32/32/32 11/11/11 14/14/14
f 11/11/11 32/32/32 31/31/31
f 33/33/33 31/31/31 32/32/32
f 31/31/31 33/33/33 128/128/128
f 132/132/132 128/128/128 33/33/33
f 33/33/33 155/155/155 132/132/132
f 133/133/133 155/155/155 156/156/156
f 155/155/155 133/133/133 132/132/132
f 131/131/131 132/132/132 133/133/133
f 132/132/132 131/131/131 108/108/108
f 128/128/128 129/129/129 108/108/108
f 12/12/12 68/68/68 67/67/67
f 68/68/68 12/12/12 31/31/31
f 11/11/11 31/31/31 12/12/12
f 67/67/67 70/70/70 12/12/12
f 70/70/70 67/67/67 154/154/154
f 147/147/147 154/154/154 67/67/67
f 149/149/149 147/147/147 67/67/67
f 147/147/147 149/149/149 148/148/148
f 12/12/12 13/13/13 11/11/11
f 13/13/13 12/12/12 85/85/85
f 70/70/70 85/85/85 12/12/12
f 85/85/85 70/70/70 142/142/142
f 154/154/154 142/142/142 70/70/70
f 142/142/142 154/154/154 48/48/48
f 147/147/147 48/48/48 154/154/154
f 48/48/48 147/147/147 146/146/146
f 148/148/148 146/146/146 147/147/147
f 146/146/146 148/148/148 168/168/168
f 149/149/149 168/168/168 148/148/148
f 168/168/168 149/149/149 21/21/21
f 67/67/67 21/21/21 149/149/149
f 21/21/21 67/67/67 22/22/22
f 68/68/68 22/22/22 67/67/67
f 22/22/22 68/68/68 130/130/130
f 31/31/31 130/130/130 68/68/68
f 130/130/130 31/31/31 128/128/128
f 19/19/19 21/21/21 22/22/22
f 21/21/21 19/19/19 20/20/20
f 128/128/128 22/22/22 130/130/130
f 22/22/22 128/128/128 19/19/19
f 108/108/108 19/19/19 128/128/128
f 19/19/19 108/108/108 20/20/20
f 103/103/103 20/20/20 108/108/108
f 20/20/20 103/103/103 102/102/102
f 100/100/100 102/102/102 103/103/103
f 102/102/102 100/100/100 101/101/101
f 111/111/111 103/103/103 108/108/108
f 103/103/103 111/111/111 112/112/112
f 170/170/170 103/103/103 169/169/169
f 103/103/103 170/170/170 171/171/171
f 105/105/105 52/52/52 124/124/124
f 52/52/52 105/105/105 47/47/47
f 104/104/104 47/47/47 105/105/105
f 47/47/47 104/104/104 46/46/46
f 117/117/117 46/46/46 104/104/104
f 46/46/46 117/117/117 116/116/116
f 110/110/110 116/116/116 117/117/117
f 116/116/116 110/110/110 15/15/15
f 16/16/16 15/15/15 110/110/110
f 15/15/15 16/16/16 17/17/17
f 94/94/94 17/17/17 16/16/16
f 17/17/17 94/94/94 93/93/93
f 95/95/95 93/93/93 94/94/94
f 93/93/93 95/95/95 92/92/92
f 9/9/9 92/92/92 95/95/95
f 92/92/92 9/9/9 8/8/8
f 10/10/10 8/8/8 9/9/9
f 10/10/10 123/123/123 153/153/153
f 123/123/123 10/10/10 95/95/95
f 9/9/9 95/95/95 10/10/10
f 79/79/79 153/153/153 109/109/109
f 123/123/123 109/109/109 153/153/153
f 109/109/109 123/123/123 16/16/16
f 95/95/95 16/16/16 123/123/123
f 16/16/16 95/95/95 94/94/94
f 93/93/93 66/66/66 17/17/17
f 18/18/18 17/17/17 66/66/66
f 17/17/17 18/18/18 15/15/15
f 127/127/127 15/15/15 18/18/18
f 15/15/15 127/127/127 116/116/116
f 163/163/163 164/164/164 116/116/116
f 165/165/165 166/166/166 163/163/163
f 16/16/16 110/110/110 109/109/109
f 80/80/80 109/109/109 110/110/110
f 109/109/109 80/80/80 79/79/79
f 77/77/77 79/79/79 80/80/80
f 79/79/79 77/77/77 78/78/78
f 74/74/74 78/78/78 77/77/77
f 78/78/78 74/74/74 73/73/73
f 71/71/71 73/73/73 74/74/74
f 73/73/73 71/71/71 72/72/72
f 110/110/110 117/117/117 80/80/80
f 125/125/125 80/80/80 117/117/117
f 80/80/80 125/125/125 77/77/77
f 3/3/3 77/77/77 125/125/125
f 77/77/77 3/3/3 74/74/74
f 2/2/2 74/74/74 3/3/3
f 74/74/74 2/2/2 71/71/71
f 1/1/1 71/71/71 2/2/2
f 71/71/71 1/1/1 14/14/14
f 34/34/34 14/14/14 1/1/1
f 14/14/14 34/34/34 32/32/32
f 3/3/3 1/1/1 2/2/2
f 1/1/1 3/3/3 4/4/4
f 4/4/4 34/34/34 1/1/1
f 34/34/34 4/4/4 143/143/143
f 3/3/3 143/143/143 4/4/4
f 143/143/143 3/3/3 125/125/125
f 143/143/143 144/144/144 34/34/34
f 125/125/125 117/117/117 143/143/143
f 104/104/104 143/143/143 117/117/117
f 143/143/143 104/104/104 144/144/144
f 105/105/105 144/144/144 104/104/104
f 114/114/114 113/113/113 32/32/32
f 113/113/113 114/114/114 115/115/115
f 25/25/25 23/23/23 24/24/24
f 23/23/23 25/25/25 26/26/26
f 59/59/59 64/64/64 65/65/65
f 64/64/64 59/59/59 58/58/58
f 57/57/57 58/58/58 59/59/59
f 134/134/134 135/135/135 136/136/136
f 137/137/137 138/138/138 139/139/139
f 157/157/157 158/158/158 159/159/159
f 160/160/160 161/161/161 162/162/162
