mtllib PLANT_THICKBUSH_ROASTMUTTON.mtl
g Plane03
usemtl 7_-_Default
v 7.442909 6.960254 33.734863
vn 0.151976 -0.846314 -0.510544
vt 0.000499 0.999500
v 8.078674 17.699615 11.213905
vn 0.369612 -0.743147 -0.557780
vt 0.333500 0.999500
v 25.998180 21.955462 14.401175
vn 0.410567 -0.664108 -0.624816
vt 0.333500 0.749750
v 26.124025 6.974895 34.363605
vn 0.286092 -0.722742 -0.629123
vt 0.000500 0.749750
v 7.972001 32.628506 -8.787311
vn 0.596267 -0.507030 -0.622403
vt 0.666500 0.999500
v 23.842104 40.220005 -2.471565
vn 0.621496 -0.408697 -0.668364
vt 0.666500 0.749750
v 5.851104 50.856251 -25.704229
vn 0.727891 -0.419033 -0.542758
vt 0.999500 0.999501
v 18.612764 60.505531 -16.039284
vn 0.714123 -0.316958 -0.624152
vt 0.999500 0.749750
v 41.832531 29.584131 20.761719
vn 0.623926 -0.404846 -0.668443
vt 0.333500 0.500000
v 44.023975 11.283031 37.590237
vn 0.519855 -0.489110 -0.700373
vt 0.000500 0.500000
v 36.555801 49.887165 7.238618
vn 0.764412 -0.103421 -0.636379
vt 0.666500 0.500000
v 27.499094 70.701622 -3.137629
vn 0.825641 -0.003472 -0.564185
vt 0.999500 0.500000
v 54.498131 39.268894 30.517105
vn 0.765756 -0.099173 -0.635438
vt 0.333500 0.250250
v 59.822384 18.948620 43.995613
vn 0.690468 -0.197259 -0.695947
vt 0.000500 0.250250
v 45.387257 60.079578 20.180792
vn 0.819695 0.213712 -0.531439
vt 0.666500 0.250250
v 32.223034 79.833450 12.472416
vn 0.846059 0.308264 -0.434923
vt 0.999500 0.250250
v 63.274673 49.457333 43.499702
vn 0.758839 0.010930 -0.651187
vt 0.333500 0.000500
v 72.439751 28.650719 53.796162
vn 0.651559 -0.085980 -0.753710
vt 0.000500 0.000499
v 50.055710 69.186600 35.821991
vn 0.786272 0.319980 -0.528572
vt 0.666500 0.000500
v 32.974728 86.412018 29.952038
vn 0.781574 0.504544 -0.366848
vt 0.999501 0.000500
v -30.823158 3.346914 -20.052994
vn -0.408386 -0.478158 0.777551
vt 0.000499 0.999500
v -9.263364 -1.321582 -8.377705
vn -0.326321 -0.283094 0.901872
vt 0.333500 0.999500
v -10.004124 15.982136 -1.348315
vn -0.229265 -0.245675 0.941850
vt 0.333500 0.749750
v -33.610497 18.254395 -9.126993
vn -0.257850 -0.370842 0.892182
vt 0.000500 0.749750
v 14.321163 -3.618636 -0.540286
vn -0.128153 -0.030049 0.991299
vt 0.666500 0.999500
v 14.735949 14.924732 1.772963
vn -0.025625 0.012818 0.999590
vt 0.666500 0.749750
v 39.052425 -4.684120 2.647332
vn -0.120227 0.146754 0.981839
vt 0.999500 0.999501
v 39.602734 13.803936 -0.048671
vn 0.010825 0.145170 0.989348
vt 0.999500 0.749750
v -9.580505 34.533569 0.897681
vn -0.022790 0.016382 0.999606
vt 0.333500 0.500000
v -34.329201 35.583130 -2.157213
vn -0.058796 -0.116239 0.991480
vt 0.000500 0.500000
v 15.280877 33.402992 -0.990428
vn 0.183588 0.273224 0.944269
vt 0.666500 0.500000
v 39.234428 30.921347 -7.547892
vn 0.214632 0.396907 0.892411
vt 0.999500 0.500000
v -9.041148 53.001808 -1.933050
vn 0.186298 0.276561 0.942766
vt 0.333500 0.250250
v -33.896942 54.142391 0.021477
vn 0.151855 0.147826 0.977286
vt 0.000500 0.250250
v 14.893414 50.493637 -8.549501
vn 0.371754 0.502307 0.780696
vt 0.666500 0.250250
v 36.989674 45.501591 -19.026451
vn 0.388976 0.607007 0.692993
vt 0.999500 0.250250
v -9.447945 70.065475 -9.551826
vn 0.285103 0.312722 0.906047
vt 0.333500 0.000500
v -33.363346 72.600365 -2.876543
vn 0.279995 0.140998 0.949591
vt 0.000500 0.000499
v 12.617915 65.033203 -20.073515
vn 0.460196 0.524210 0.716536
vt 0.666500 0.000500
v 32.125740 56.669018 -33.204266
vn 0.516510 0.672896 0.529555
vt 0.999501 0.000500
v 26.237867 55.914875 14.928860
vn 0.081621 0.506783 -0.858201
vt 0.000499 0.999500
v 13.331104 39.595028 1.144454
vn -0.160776 0.533458 -0.830406
vt 0.333500 0.999500
v -2.349962 47.664845 7.338155
vn -0.252643 0.472003 -0.844621
vt 0.333500 0.749750
v 10.965837 66.524368 16.821781
vn -0.124700 0.444254 -0.887180
vt 0.000500 0.749750
v 0.009534 20.768978 -8.397404
vn -0.476045 0.460716 -0.749081
vt 0.666500 0.999500
v -14.416451 26.471296 2.031125
vn -0.556443 0.384580 -0.736525
vt 0.666500 0.749750
v -12.084473 -0.395251 -13.758529
vn -0.597743 0.500259 -0.626453
vt 0.999500 0.999501
v -23.731365 3.376023 0.366174
vn -0.659419 0.385895 -0.645175
vt 0.999500 0.749750
v -16.747921 53.337490 17.821449
vn -0.560208 0.383070 -0.734455
vt 0.333500 0.500000
v -4.709218 74.560287 23.074482
vn -0.446972 0.374701 -0.812290
vt 0.000500 0.500000
v -26.016420 30.220438 16.200256
vn -0.800849 0.252228 -0.543159
vt 0.666500 0.500000
v -31.324772 5.856132 17.264954
vn -0.872085 0.240993 -0.425900
vt 0.999500 0.500000
v -28.300735 57.064625 32.034840
vn -0.803550 0.250222 -0.540090
vt 0.333500 0.250250
v -19.078873 80.203323 33.612446
vn -0.717573 0.256840 -0.647397
vt 0.000500 0.250250
v -33.549103 32.688583 33.127953
vn -0.953444 0.090960 -0.287525
vt 0.666500 0.250250
v -34.082729 7.862758 35.642849
vn -0.985204 0.073813 -0.154679
vt 0.999500 0.250250
v -35.772556 59.520950 48.991215
vn -0.852433 0.159375 -0.497953
vt 0.333500 0.000500
v -30.584328 83.908592 47.869923
vn -0.754600 0.130971 -0.642982
vt 0.000500 0.000499
v -36.239491 34.694767 51.515892
vn -0.972396 -0.004529 -0.233294
vt 0.666500 0.000500
v -31.777647 10.267817 54.035286
vn -0.996827 -0.079595 -0.000897
vt 0.999501 0.000500
v -24.075874 6.992416 11.817557
vn 0.514704 -0.701922 -0.492326
vt 0.000499 0.999500
v -8.344046 22.809008 0.624829
vn 0.696081 -0.630674 -0.343106
vt 0.333500 0.999500
v 1.836117 22.848427 16.301001
vn 0.767889 -0.545815 -0.335309
vt 0.333500 0.749750
v -11.316333 3.514255 25.026493
vn 0.686221 -0.578255 -0.441274
vt 0.000500 0.749750
v 4.852192 42.100487 -8.128993
vn 0.888671 -0.430235 -0.158626
vt 0.666500 0.999500
v 11.191398 44.881638 9.233594
vn 0.933424 -0.329584 -0.141752
vt 0.666500 0.749750
v 14.265539 64.103691 -15.212800
vn 0.920623 -0.390296 0.011066
vt 0.999500 0.999501
v 15.930944 68.544632 2.867145
vn 0.962593 -0.270131 -0.021066
vt 0.999500 0.749750
v 8.116389 25.659903 33.680115
vn 0.934983 -0.326337 -0.138965
vt 0.333500 0.500000
v -1.180663 3.596873 40.731297
vn 0.888647 -0.379763 -0.257073
vt 0.000500 0.500000
v 12.789997 49.336647 27.316097
vn 0.994839 -0.073006 0.070469
vt 0.666500 0.500000
v 12.544177 73.374428 20.603617
vn 0.981624 -0.007257 0.190690
vt 0.999500 0.500000
v 9.648141 30.128754 51.764988
vn 0.994888 -0.069447 0.073309
vt 0.333500 0.250250
v 5.040520 6.438475 58.126751
vn 0.989822 -0.133887 -0.048233
vt 0.000500 0.250250
v 9.336089 54.162449 45.040714
vn 0.942204 0.191941 0.274611
vt 0.666500 0.250250
v 4.364886 77.247002 36.958500
vn 0.887495 0.252601 0.385417
vt 0.999500 0.250250
v 6.127121 34.950294 69.477562
vn 0.994958 0.040451 0.091769
vt 0.333500 0.000500
v 6.505373 10.920912 76.213821
vn 0.996844 -0.006490 -0.079125
vt 0.000500 0.000499
v 1.096985 58.013420 61.370651
vn 0.910626 0.298194 0.286079
vt 0.666500 0.000500
v -7.797893 78.926079 51.052025
vn 0.782952 0.433395 0.446267
vt 0.999501 0.000500
f 8/8/8 5/5/5 7/7/7
f 5/5/5 8/8/8 6/6/6
f 12/12/12 6/6/6 8/8/8
f 6/6/6 12/12/12 11/11/11
f 16/16/16 11/11/11 12/12/12
f 11/11/11 16/16/16 15/15/15
f 20/20/20 15/15/15 16/16/16
f 15/15/15 20/20/20 19/19/19
f 13/13/13 19/19/19 17/17/17
f 19/19/19 13/13/13 15/15/15
f 9/9/9 15/15/15 13/13/13
f 15/15/15 9/9/9 11/11/11
f 3/3/3 11/11/11 9/9/9
f 11/11/11 3/3/3 6/6/6
f 2/2/2 6/6/6 3/3/3
f 6/6/6 2/2/2 5/5/5
f 3/3/3 1/1/1 2/2/2
f 1/1/1 3/3/3 4/4/4
f 9/9/9 4/4/4 3/3/3
f 4/4/4 9/9/9 10/10/10
f 13/13/13 10/10/10 9/9/9
f 10/10/10 13/13/13 14/14/14
f 17/17/17 14/14/14 13/13/13
f 14/14/14 17/17/17 18/18/18
f 33/33/33 39/39/39 37/37/37
f 39/39/39 33/33/33 35/35/35
f 29/29/29 35/35/35 33/33/33
f 35/35/35 29/29/29 31/31/31
f 23/23/23 31/31/31 29/29/29
f 31/31/31 23/23/23 26/26/26
f 22/22/22 26/26/26 23/23/23
f 26/26/26 22/22/22 25/25/25
f 28/28/28 25/25/25 27/27/27
f 25/25/25 28/28/28 26/26/26
f 32/32/32 26/26/26 28/28/28
f 26/26/26 32/32/32 31/31/31
f 36/36/36 31/31/31 32/32/32
f 31/31/31 36/36/36 35/35/35
f 40/40/40 35/35/35 36/36/36
f 35/35/35 40/40/40 39/39/39
f 23/23/23 21/21/21 22/22/22
f 21/21/21 23/23/23 24/24/24
f 29/29/29 24/24/24 23/23/23
f 24/24/24 29/29/29 30/30/30
f 33/33/33 30/30/30 29/29/29
f 30/30/30 33/33/33 34/34/34
f 37/37/37 34/34/34 33/33/33
f 34/34/34 37/37/37 38/38/38
f 54/54/54 57/57/57 58/58/58
f 57/57/57 54/54/54 53/53/53
f 50/50/50 53/53/53 54/54/54
f 53/53/53 50/50/50 49/49/49
f 44/44/44 49/49/49 50/50/50
f 49/49/49 44/44/44 43/43/43
f 41/41/41 43/43/43 44/44/44
f 43/43/43 41/41/41 42/42/42
f 46/46/46 42/42/42 45/45/45
f 42/42/42 46/46/46 43/43/43
f 51/51/51 43/43/43 46/46/46
f 43/43/43 51/51/51 49/49/49
f 55/55/55 49/49/49 51/51/51
f 49/49/49 55/55/55 53/53/53
f 59/59/59 53/53/53 55/55/55
f 53/53/53 59/59/59 57/57/57
f 48/48/48 45/45/45 47/47/47
f 45/45/45 48/48/48 46/46/46
f 52/52/52 46/46/46 48/48/48
f 46/46/46 52/52/52 51/51/51
f 56/56/56 51/51/51 52/52/52
f 51/51/51 56/56/56 55/55/55
f 60/60/60 55/55/55 56/56/56
f 55/55/55 60/60/60 59/59/59
f 66/66/66 62/62/62 65/65/65
f 62/62/62 66/66/66 63/63/63
f 71/71/71 63/63/63 66/66/66
f 63/63/63 71/71/71 69/69/69
f 75/75/75 69/69/69 71/71/71
f 69/69/69 75/75/75 73/73/73
f 79/79/79 73/73/73 75/75/75
f 73/73/73 79/79/79 77/77/77
f 63/63/63 61/61/61 62/62/62
f 61/61/61 63/63/63 64/64/64
f 69/69/69 64/64/64 63/63/63
f 64/64/64 69/69/69 70/70/70
f 73/73/73 70/70/70 69/69/69
f 70/70/70 73/73/73 74/74/74
f 77/77/77 74/74/74 73/73/73
f 74/74/74 77/77/77 78/78/78
f 68/68/68 65/65/65 67/67/67
f 65/65/65 68/68/68 66/66/66
f 72/72/72 66/66/66 68/68/68
f 66/66/66 72/72/72 71/71/71
f 76/76/76 71/71/71 72/72/72
f 71/71/71 76/76/76 75/75/75
f 80/80/80 75/75/75 76/76/76
f 75/75/75 80/80/80 79/79/79
usemtl 8_-_Default
v 28.891253 46.352158 0.196267
vn -0.022232 -0.895693 -0.444117
vt 0.000500 0.999500
v 38.999821 49.054749 -8.040952
vn 0.154946 -0.947779 -0.278759
vt 0.000500 0.749750
v 42.327396 47.080853 -1.945958
vn 0.288914 -0.926075 -0.242722
vt 0.333500 0.749750
v 31.788618 42.674313 5.263595
vn 0.222184 -0.910120 -0.349737
vt 0.333500 0.999500
v 46.259506 48.085838 5.703249
vn 0.615671 -0.788001 0.001884
vt 0.666500 0.749750
v 36.125751 41.277901 12.266558
vn 0.571207 -0.812752 -0.114703
vt 0.666500 0.999500
v 49.373936 53.106693 14.112824
vn 0.724505 -0.688775 0.026098
vt 0.999500 0.749750
v 40.739391 43.666939 20.804838
vn 0.669783 -0.725342 -0.158962
vt 0.999500 0.999500
v 49.308487 52.611740 -15.775282
vn 0.392290 -0.916693 -0.076044
vt 0.000500 0.500000
v 52.534878 52.640163 -8.953840
vn 0.514017 -0.856977 -0.037105
vt 0.333500 0.500000
v 55.423519 56.032547 -1.170364
vn 0.770542 -0.606236 0.196835
vt 0.666500 0.500000
v 56.462902 63.246109 6.476934
vn 0.851516 -0.481770 0.206924
vt 0.999500 0.500000
v 59.553234 57.177456 -23.153893
vn 0.590619 -0.796097 0.131903
vt 0.000500 0.250250
v 62.111938 59.310410 -16.014128
vn 0.692005 -0.702645 0.165586
vt 0.333500 0.250250
v 63.386082 64.824234 -8.656397
vn 0.857993 -0.363355 0.363072
vt 0.666500 0.250250
v 61.953636 73.548386 -2.360850
vn 0.908499 -0.223917 0.352833
vt 0.999500 0.250250
v 69.448341 62.809395 -30.380247
vn 0.628391 -0.717040 0.301628
vt 0.000500 0.000500
v 70.797386 66.928001 -23.399872
vn 0.712995 -0.642506 0.280758
vt 0.333500 0.000500
v 70.016853 74.059013 -17.020124
vn 0.838223 -0.279235 0.468412
vt 0.666500 0.000500
v 65.942650 83.426186 -12.560639
vn 0.875291 -0.018874 0.483229
vt 0.999501 0.000500
v 22.432041 38.464512 12.480456
vn 0.213432 -0.480430 0.850667
vt 0.000500 0.999500
v 29.917694 41.574478 9.497072
vn 0.827423 -0.400672 0.393489
vt 0.333500 0.999500
v 28.937906 51.216751 18.050207
vn 0.372812 -0.285186 0.882995
vt 0.333500 0.749750
v 21.733538 47.059875 15.721053
vn -0.349595 -0.284327 0.892716
vt 0.000500 0.749750
v 31.306614 48.376637 3.979569
vn 0.890492 0.035104 -0.453642
vt 0.666500 0.999500
v 33.832100 56.921387 13.344321
vn 0.984695 -0.007416 0.174130
vt 0.666500 0.749750
v 27.323311 56.036446 3.718292
vn 0.499038 0.231024 -0.835218
vt 0.999500 0.999500
v 31.208546 63.196609 8.020223
vn 0.841914 0.178210 -0.509334
vt 0.999500 0.749750
v 21.811962 61.841808 19.899143
vn -0.394505 -0.006860 0.918868
vt 0.333500 0.500000
v 18.731455 55.704563 14.659654
vn -0.889611 -0.177056 0.421003
vt 0.000500 0.500000
v 28.493324 67.503212 18.503000
vn 0.536823 0.263182 0.801596
vt 0.666500 0.500000
v 30.543499 71.784775 11.286865
vn 0.941225 0.270015 0.202949
vt 0.999500 0.500000
v 15.461357 70.601273 12.825879
vn -0.943782 0.081103 0.320466
vt 0.333500 0.250250
v 17.344358 62.992271 9.197515
vn -0.908336 -0.297838 -0.293629
vt 0.000500 0.250250
v 20.910397 77.305214 14.827489
vn -0.232723 0.537492 0.810520
vt 0.666500 0.250250
v 27.544928 80.435768 10.267860
vn 0.481659 0.522181 0.703797
vt 0.999500 0.250250
v 16.243000 76.005272 1.109422
vn -0.950742 -0.143616 -0.274708
vt 0.333500 0.000500
v 20.314789 68.504845 2.440449
vn -0.621148 -0.450949 -0.640953
vt 0.000500 0.000500
v 18.337580 84.078362 4.122600
vn -0.762754 0.517145 0.388289
vt 0.666500 0.000500
v 26.128834 87.738724 4.833599
vn -0.085336 0.711135 0.697857
vt 0.999501 0.000500
v -13.862820 45.024815 30.261097
vn -0.617475 -0.578354 0.533134
vt 0.000500 0.999500
v -20.096146 55.312634 32.661854
vn -0.594532 -0.369001 0.714402
vt 0.000500 0.749750
v -26.342125 54.667904 26.268574
vn -0.752153 -0.516392 0.409397
vt 0.333500 0.749750
v -18.369650 44.317921 22.548067
vn -0.728323 -0.670779 0.140006
vt 0.333500 0.999500
v -28.752598 56.176331 17.640078
vn -0.824664 -0.544169 -0.154302
vt 0.666500 0.749750
v -19.424948 47.020927 13.938961
vn -0.684606 -0.596726 -0.418607
vt 0.666500 0.999500
v -27.362303 60.667725 10.011415
vn -0.701725 -0.502855 -0.504696
vt 0.999500 0.749750
v -17.899593 53.226608 7.656857
vn -0.564970 -0.514296 -0.645220
vt 0.999500 0.999500
v -23.013605 67.156052 33.957527
vn -0.476966 -0.076098 0.875621
vt 0.000500 0.500000
v -30.572208 67.251915 29.145010
vn -0.732300 -0.220585 0.644266
vt 0.333500 0.500000
v -34.543190 67.993843 21.007597
vn -0.940955 -0.315234 0.123412
vt 0.666500 0.500000
v -33.998489 70.684586 12.477344
vn -0.898569 -0.364384 -0.244536
vt 0.999500 0.500000
v -22.704233 79.397049 33.236881
vn -0.259713 0.194977 0.945798
vt 0.000500 0.250250
v -30.953480 80.801636 30.030773
vn -0.589050 0.091461 0.802904
vt 0.333500 0.250250
v -36.457947 81.319275 22.821781
vn -0.931493 -0.022755 0.363048
vt 0.666500 0.250250
v -37.343452 82.391121 13.969147
vn -0.990282 -0.138496 0.012699
vt 0.999500 0.250250
v -19.737541 90.818405 29.888918
vn -0.095544 0.302782 0.948259
vt 0.000500 0.000500
v -27.952612 93.904938 28.075651
vn -0.356705 0.263271 0.896354
vt 0.333500 0.000500
v -34.735207 94.773911 22.094185
vn -0.806072 0.179426 0.563963
vt 0.666500 0.000500
v -37.422562 94.649666 13.546402
vn -0.977724 0.067529 0.198733
vt 0.999501 0.000500
v -1.914527 43.796860 -0.125211
vn -0.716380 -0.689168 -0.108847
vt 0.000500 0.999500
v -9.793044 51.669685 -7.424974
vn -0.598777 -0.733073 -0.322600
vt 0.000500 0.749750
v -5.128665 49.057045 -12.276329
vn -0.572294 -0.684467 -0.451647
vt 0.333500 0.749750
v 1.258366 39.812698 -4.779059
vn -0.659632 -0.658038 -0.363140
vt 0.333500 0.999500
v 1.932713 48.870201 -17.284719
vn -0.332391 -0.534865 -0.776811
vt 0.666500 0.749750
v 6.857367 37.754383 -10.628561
vn -0.444898 -0.536023 -0.717457
vt 0.666500 0.999500
v 11.155513 51.866268 -20.689587
vn -0.287932 -0.419744 -0.860762
vt 0.999500 0.749750
v 15.144924 38.763527 -16.123413
vn -0.467316 -0.414433 -0.780936
vt 0.999500 0.999500
v -16.933584 60.229271 -14.806479
vn -0.424592 -0.694689 -0.580627
vt 0.000500 0.500000
v -10.900259 59.191460 -19.218327
vn -0.381176 -0.616015 -0.689369
vt 0.333500 0.500000
v -2.790317 60.826260 -22.681175
vn -0.105395 -0.381615 -0.918293
vt 0.666500 0.500000
v 6.689313 65.427574 -23.430470
vn -0.062548 -0.247608 -0.966839
vt 0.999500 0.500000
v -23.392651 69.581444 -21.952244
vn -0.210923 -0.588036 -0.780849
vt 0.000500 0.250250
v -16.275543 70.164742 -25.280783
vn -0.158764 -0.483157 -0.861019
vt 0.333500 0.250250
v -7.668509 73.376480 -26.609516
vn 0.122822 -0.184246 -0.975176
vt 0.666500 0.250250
v 1.328879 79.020355 -24.375586
vn 0.155062 -0.039619 -0.987110
vt 0.999500 0.250250
v -29.309834 79.754234 -28.536585
vn -0.029616 -0.555210 -0.831183
vt 0.000500 0.000500
v -21.536768 81.831856 -30.201349
vn -0.033026 -0.456353 -0.889186
vt 0.333500 0.000500
v -13.071872 86.195663 -28.991173
vn 0.251933 -0.144775 -0.956854
vt 0.666500 0.000500
v -5.285101 92.186752 -23.727837
vn 0.350061 0.098355 -0.931549
vt 0.999501 0.000500
f 97/97/97 98/98/98 93/93/93
f 94/94/94 93/93/93 98/98/98
f 93/93/93 94/94/94 89/89/89
f 90/90/90 89/89/89 94/94/94
f 89/89/89 90/90/90 82/82/82
f 83/83/83 82/82/82 90/90/90
f 82/82/82 83/83/83 81/81/81
f 84/84/84 81/81/81 83/83/83
f 86/86/86 84/84/84 85/85/85
f 83/83/83 85/85/85 84/84/84
f 85/85/85 83/83/83 91/91/91
f 90/90/90 91/91/91 83/83/83
f 91/91/91 90/90/90 95/95/95
f 94/94/94 95/95/95 90/90/90
f 95/95/95 94/94/94 99/99/99
f 98/98/98 99/99/99 94/94/94
f 99/99/99 100/100/100 95/95/95
f 96/96/96 95/95/95 100/100/100
f 95/95/95 96/96/96 91/91/91
f 92/92/92 91/91/91 96/96/96
f 91/91/91 92/92/92 85/85/85
f 87/87/87 85/85/85 92/92/92
f 85/85/85 87/87/87 86/86/86
f 88/88/88 86/86/86 87/87/87
f 128/128/128 126/126/126 127/127/127
f 125/125/125 127/127/127 126/126/126
f 127/127/127 125/125/125 132/132/132
f 131/131/131 132/132/132 125/125/125
f 132/132/132 131/131/131 136/136/136
f 135/135/135 136/136/136 131/131/131
f 136/136/136 135/135/135 140/140/140
f 139/139/139 140/140/140 135/135/135
f 138/138/138 139/139/139 134/134/134
f 135/135/135 134/134/134 139/139/139
f 134/134/134 135/135/135 130/130/130
f 131/131/131 130/130/130 135/135/135
f 130/130/130 131/131/131 123/123/123
f 125/125/125 123/123/123 131/131/131
f 123/123/123 125/125/125 124/124/124
f 126/126/126 124/124/124 125/125/125
f 137/137/137 138/138/138 133/133/133
f 134/134/134 133/133/133 138/138/138
f 133/133/133 134/134/134 129/129/129
f 130/130/130 129/129/129 134/134/134
f 129/129/129 130/130/130 122/122/122
f 123/123/123 122/122/122 130/130/130
f 122/122/122 123/123/123 121/121/121
f 124/124/124 121/121/121 123/123/123
f 113/113/113 119/119/119 117/117/117
f 119/119/119 113/113/113 115/115/115
f 109/109/109 115/115/115 113/113/113
f 115/115/115 109/109/109 111/111/111
f 103/103/103 111/111/111 109/109/109
f 111/111/111 103/103/103 106/106/106
f 102/102/102 106/106/106 103/103/103
f 106/106/106 102/102/102 105/105/105
f 108/108/108 105/105/105 107/107/107
f 105/105/105 108/108/108 106/106/106
f 112/112/112 106/106/106 108/108/108
f 106/106/106 112/112/112 111/111/111
f 116/116/116 111/111/111 112/112/112
f 111/111/111 116/116/116 115/115/115
f 120/120/120 115/115/115 116/116/116
f 115/115/115 120/120/120 119/119/119
f 103/103/103 101/101/101 102/102/102
f 101/101/101 103/103/103 104/104/104
f 109/109/109 104/104/104 103/103/103
f 104/104/104 109/109/109 110/110/110
f 113/113/113 110/110/110 109/109/109
f 110/110/110 113/113/113 114/114/114
f 117/117/117 114/114/114 113/113/113
f 114/114/114 117/117/117 118/118/118
f 157/157/157 158/158/158 153/153/153
f 154/154/154 153/153/153 158/158/158
f 153/153/153 154/154/154 149/149/149
f 150/150/150 149/149/149 154/154/154
f 149/149/149 150/150/150 142/142/142
f 143/143/143 142/142/142 150/150/150
f 142/142/142 143/143/143 141/141/141
f 144/144/144 141/141/141 143/143/143
f 158/158/158 159/159/159 154/154/154
f 155/155/155 154/154/154 159/159/159
f 154/154/154 155/155/155 150/150/150
f 151/151/151 150/150/150 155/155/155
f 150/150/150 151/151/151 143/143/143
f 145/145/145 143/143/143 151/151/151
f 143/143/143 145/145/145 144/144/144
f 146/146/146 144/144/144 145/145/145
f 159/159/159 160/160/160 155/155/155
f 156/156/156 155/155/155 160/160/160
f 155/155/155 156/156/156 151/151/151
f 152/152/152 151/151/151 156/156/156
f 151/151/151 152/152/152 145/145/145
f 147/147/147 145/145/145 152/152/152
f 145/145/145 147/147/147 146/146/146
f 148/148/148 146/146/146 147/147/147
