mtllib ANIMATEDINSTANCES_BAT_ROCKFALL_01__BA.mtl
g Rockfall_01__BA
usemtl Ground_Grass_Blend
v -9750.206055 -316.737946 -10781.643555
vn 0.652378 0.757799 0.012005
vt 3.054836 3.669652
v -9773.130859 -315.898499 -10772.999023
vn 0.253866 0.885626 -0.388868
vt 3.169464 3.626427
v -9789.312500 -307.796112 -10719.937500
vn 0.017593 0.994567 -0.102601
vt 3.255756 3.333936
v -9762.718750 -310.053192 -10696.721680
vn 0.694724 0.717297 0.053320
vt 3.122791 3.217857
v -9839.001953 -317.140015 -10781.917969
vn -0.024836 0.995413 -0.092397
vt 3.498814 3.671025
v -9865.238281 -316.806213 -10802.357422
vn -0.570670 0.807783 -0.147724
vt 3.629997 3.773221
v -9877.825195 -310.091705 -10717.015625
vn 0.023908 0.995305 -0.093787
vt 3.698322 3.319327
v -9844.307617 -307.808960 -10703.108398
vn -0.027634 0.992465 -0.119368
vt 3.530735 3.249788
v -9789.828125 -316.488068 -10785.893555
vn 0.565435 0.347428 -0.748049
vt 3.252945 3.690899
v -9806.708008 -314.541626 -10797.748047
vn 0.225351 0.905623 -0.359256
vt 3.337349 3.750176
f 7/7/7 5/5/5 6/6/6
f 5/5/5 7/7/7 8/8/8
f 3/3/3 5/5/5 8/8/8
f 5/5/5 3/3/3 10/10/10
f 9/9/9 10/10/10 2/2/2
f 3/3/3 2/2/2 10/10/10
f 2/2/2 3/3/3 1/1/1
f 4/4/4 1/1/1 3/3/3
usemtl Rock_wall1
v -9836.788086 -356.483398 -10769.115234
vn 0.169273 -0.642904 -0.747008
vt 3.070885 3.490488
v -9843.456055 -353.078888 -10709.513672
vn 0.004896 -0.998329 0.057574
vt 3.096336 3.243239
v -9871.308594 -353.091705 -10713.970703
vn -0.526775 -0.849771 -0.019934
vt 3.219063 3.294165
v -9860.430664 -356.149597 -10794.596680
vn -0.495470 -0.867962 -0.033927
vt 3.166943 3.565328
v -9788.459961 -353.066040 -10726.343750
vn -0.001034 -0.999323 0.036779
vt 3.894966 3.304863
v -9770.916992 -355.241913 -10760.196289
vn -0.010838 -0.673649 -0.738972
vt 3.829693 3.457830
v -9753.357422 -356.081329 -10773.439453
vn 0.558651 -0.814677 0.155601
vt 3.745754 3.489482
v -9788.459961 -353.066040 -10726.343750
vn -0.001034 -0.999323 0.036779
vt 2.894966 3.304863
v -9804.494141 -353.885010 -10784.945313
vn 0.070520 -0.818498 -0.570165
vt 2.952633 3.548450
v -9804.494141 -353.885010 -10784.945313
vn 0.070520 -0.818498 -0.570165
vt 3.952633 3.548450
v -9767.549805 -353.053192 -10703.708984
vn 0.542544 -0.827806 0.142768
vt 3.797592 3.219858
f 11/11/11 19/19/19 18/18/18
f 11/11/11 13/13/13 14/14/14
f 13/13/13 11/11/11 12/12/12
f 18/18/18 12/12/12 11/11/11
f 20/20/20 16/16/16 15/15/15
f 17/17/17 15/15/15 16/16/16
f 15/15/15 17/17/17 21/21/21
usemtl Rock_top_blend
v -9774.912109 -337.398529 -10764.532227
vn 0.071556 -0.220218 -0.972823
vt 0.518065 0.500000
v -9770.916992 -355.241913 -10760.196289
vn -0.010838 -0.673649 -0.738972
vt 0.518065 1.000000
v -9804.494141 -353.885010 -10784.945313
vn 0.070520 -0.818498 -0.570165
vt 0.704241 1.000000
v -9808.489258 -336.041626 -10789.281250
vn 0.096046 -0.319512 -0.942702
vt 0.704241 0.500000
v -9840.783203 -338.640015 -10773.451172
vn 0.166211 -0.211938 -0.963045
vt 0.865097 0.500000
v -9836.788086 -356.483398 -10769.115234
vn 0.169273 -0.642904 -0.747008
vt 0.865097 1.000000
v -9860.430664 -356.149597 -10794.596680
vn 0.688845 0.094946 -0.718664
vt 1.013467 1.000000
v -9871.564453 -338.306213 -10799.532227
vn 0.628355 -0.143220 -0.764629
vt 1.013467 0.500000
v -9871.564453 -338.306213 -10799.532227
vn -0.982001 -0.150986 -0.113482
vt 1.013467 0.500000
v -9860.430664 -356.149597 -10794.596680
vn -0.495470 -0.867962 -0.033927
vt 1.013467 1.000000
v -9871.308594 -353.091705 -10713.970703
vn -0.526775 -0.849771 -0.019934
vt 1.424080 1.000000
v -9843.456055 -353.078888 -10709.513672
vn 0.050197 -0.048110 0.997580
vt 1.585961 1.000000
v -9843.257813 -330.443909 -10707.668945
vn 0.006054 -0.115416 0.993299
vt 1.585961 0.500000
v -9880.139648 -331.591705 -10716.498047
vn -0.207733 0.007554 0.978156
vt 1.424080 0.500000
v -9871.308594 -353.091705 -10713.970703
vn -0.157848 0.051073 0.986142
vt 1.424080 1.000000
v -9746.411133 -338.237946 -10776.710938
vn -0.377690 -0.199878 -0.904101
vt 0.408706 0.500000
v -9753.357422 -356.081329 -10773.439453
vn -0.496892 -0.167282 -0.851537
vt 0.408706 1.000000
v -9767.549805 -353.053192 -10703.708984
vn 0.542544 -0.827806 0.142768
vt 0.000000 1.000000
v -9753.357422 -356.081329 -10773.439453
vn 0.558651 -0.814677 0.155601
vt 0.408706 1.000000
v -9746.411133 -338.237946 -10776.710938
vn 0.979776 -0.096215 0.175446
vt 0.408706 0.500000
v -9767.549805 -353.053192 -10703.708984
vn -0.682654 0.045237 0.729340
vt 2.000000 1.000000
v -9759.474609 -331.553192 -10701.058594
vn -0.641491 -0.096928 0.760982
vt 2.000000 0.500000
v -9788.261719 -330.431091 -10724.499023
vn -0.216349 -0.082350 0.972837
vt 1.842525 0.500000
v -9788.459961 -353.066040 -10726.343750
vn -0.260780 -0.076155 0.962390
vt 1.842525 1.000000
v -9773.130859 -315.898529 -10772.999023
vn 0.102955 -0.357875 -0.928077
vt 0.518065 0.000000
v -9806.708008 -314.541626 -10797.748047
vn 0.084667 -0.371173 -0.924696
vt 0.704241 0.000000
v -9839.001953 -317.140015 -10781.917969
vn 0.115485 -0.353424 -0.928307
vt 0.865097 0.000000
v -9865.238281 -316.806213 -10802.357422
vn 0.589015 -0.273233 -0.760529
vt 1.013467 0.000000
v -9759.474609 -331.553192 -10701.058594
vn 0.975245 -0.128754 0.179775
vt 0.000000 0.500000
v -9880.139648 -331.591705 -10716.498047
vn -0.985260 -0.145476 -0.089992
vt 1.424080 0.500000
v -9750.206055 -316.737946 -10781.643555
vn -0.348526 -0.267605 -0.898286
vt 0.408706 0.000000
v -9762.718750 -310.053192 -10696.722656
vn -0.649529 -0.243319 0.720353
vt 2.000000 0.000000
v -9789.311523 -307.796143 -10719.938477
vn -0.198588 -0.220930 0.954857
vt 1.842525 0.000000
v -9844.307617 -307.808960 -10703.108398
vn -0.040080 -0.199135 0.979152
vt 1.585961 0.000000
v -9877.825195 -310.091705 -10717.016602
vn -0.302044 -0.076576 0.950213
vt 1.424080 0.000000
v -9750.206055 -316.737946 -10781.643555
vn 0.652378 0.757799 0.012005
vt 0.408706 0.000000
v -9762.718750 -310.053192 -10696.722656
vn 0.694724 0.717297 0.053320
vt 0.000000 0.000000
v -9877.825195 -310.091705 -10717.016602
vn -0.973820 0.182045 -0.136139
vt 1.424080 0.000000
v -9865.238281 -316.806213 -10802.357422
vn -0.570670 0.807783 -0.147724
vt 1.013467 0.000000
f 29/29/29 49/49/49 48/48/48
f 25/25/25 47/47/47 46/46/46
f 47/47/47 25/25/25 48/48/48
f 26/26/26 48/48/48 25/25/25
f 48/48/48 26/26/26 29/29/29
f 28/28/28 29/29/29 26/26/26
f 26/26/26 27/27/27 28/28/28
f 27/27/27 26/26/26 24/24/24
f 25/25/25 24/24/24 26/26/26
f 24/24/24 25/25/25 22/22/22
f 46/46/46 22/22/22 25/25/25
f 22/22/22 46/46/46 37/37/37
f 52/52/52 37/37/37 46/46/46
f 37/37/37 38/38/38 22/22/22
f 23/23/23 22/22/22 38/38/38
f 22/22/22 23/23/23 24/24/24
f 36/36/36 33/33/33 35/35/35
f 34/34/34 35/35/35 33/33/33
f 35/35/35 34/34/34 56/56/56
f 55/55/55 56/56/56 34/34/34
f 44/44/44 33/33/33 45/45/45
f 33/33/33 44/44/44 34/34/34
f 54/54/54 34/34/34 44/44/44
f 34/34/34 54/54/54 55/55/55
f 53/53/53 54/54/54 43/43/43
f 44/44/44 43/43/43 54/54/54
f 43/43/43 44/44/44 42/42/42
f 45/45/45 42/42/42 44/44/44
f 32/32/32 30/30/30 31/31/31
f 30/30/30 32/32/32 51/51/51
f 30/30/30 59/59/59 60/60/60
f 59/59/59 30/30/30 51/51/51
f 41/41/41 39/39/39 40/40/40
f 39/39/39 41/41/41 50/50/50
f 58/58/58 50/50/50 41/41/41
f 41/41/41 57/57/57 58/58/58
