mtllib ANIMATEDINSTANCES_CAVE_BRIDGE_202__AI.mtl
g _Bridge_202__AI
usemtl Cave_Blender
v -5760.856445 875.335449 5304.564941
vn -0.014252 -0.184273 0.982772
vt -1.003732 -3.910468
v -5678.775879 867.502869 5307.719238
vn 0.914797 -0.097923 0.391865
vt -1.205598 -3.921324
v -5680.341309 889.699951 5303.809082
vn 0.413248 0.608329 0.677615
vt -1.201685 -3.844785
v -5759.794922 895.589233 5301.052246
vn 0.050417 0.763408 0.643945
vt -1.006386 -3.837893
v -5760.856445 875.335449 5304.564941
vn -0.014252 -0.184273 0.982772
vt 0.096151 0.000000
v -5761.981934 853.854248 5294.137695
vn -0.040182 -0.780437 0.623942
vt 0.207817 0.000000
v -5694.229492 845.885254 5295.998535
vn 0.484802 -0.771801 0.411449
vt 0.207817 -0.090685
v -5678.775879 867.502869 5307.719238
vn 0.914797 -0.097923 0.391865
vt 0.096151 -0.110116
v -5762.657715 840.965637 5267.864258
vn -0.051137 -0.998691 0.001155
vt 0.344555 0.000000
v -5710.397949 834.152100 5267.867188
vn 0.183203 -0.982228 -0.040797
vt 0.344555 -0.069582
v -5761.981934 853.854248 5241.437012
vn -0.040152 -0.781523 -0.622583
vt 0.481940 0.000000
v -5701.793945 846.792847 5239.784668
vn 0.462091 -0.692664 -0.553794
vt 0.481940 -0.080357
v -5760.856445 875.335449 5230.989258
vn -0.005070 -0.181690 -0.983343
vt 0.593648 0.000000
v -5694.463867 869.024658 5228.442383
vn 0.657177 -0.048690 -0.752162
vt 0.593648 -0.088722
v -5759.794922 895.589233 5234.676758
vn 0.037588 0.766826 -0.640754
vt -1.006386 -3.671954
v -5689.713867 890.406555 5232.257324
vn 0.647474 0.614599 -0.450605
vt -1.178254 -3.665906
v -5694.463867 869.024658 5228.442383
vn 0.657177 -0.048690 -0.752162
vt -1.166378 -3.605358
v -5760.856445 875.335449 5230.989258
vn -0.005070 -0.181690 -0.983343
vt -1.003732 -3.612832
v -5759.794922 895.589233 5267.864258
vn 0.043580 0.999050 0.000000
vt -1.006386 -3.754923
v -5701.541504 891.298218 5267.867188
vn 0.613497 0.785297 -0.083246
vt -1.148683 -3.754930
v -5759.794922 895.589233 5301.052246
vn 0.050417 0.763408 0.643945
vt -1.006386 -3.837893
v -5680.341309 889.699951 5303.809082
vn 0.413248 0.608329 0.677615
vt -1.201685 -3.844785
v -5820.572266 897.329651 5303.125000
vn -0.656651 0.604296 0.451261
vt -0.854443 -3.843074
v -5830.436523 897.612122 5267.867676
vn -0.826454 0.556967 -0.082224
vt -0.829782 -3.754931
v -5818.846191 875.790466 5306.749512
vn -0.535233 -0.154412 0.830471
vt -0.858757 -3.916878
v -5820.572266 897.329651 5303.125000
vn -0.656651 0.604296 0.451261
vt -0.854443 -3.843074
v -5810.354980 853.169495 5295.441406
vn -0.569641 -0.657485 0.493176
vt 0.207817 0.065585
v -5818.846191 875.790466 5306.749512
vn -0.535233 -0.154412 0.830471
vt 0.096151 0.078715
v -5801.233398 839.911316 5267.866211
vn -0.301938 -0.953293 0.008079
vt 0.344555 0.052266
v -5811.590332 853.151978 5240.097168
vn -0.583233 -0.648742 -0.488849
vt 0.481940 0.067260
v -5817.544434 875.780212 5228.849121
vn -0.694771 -0.116897 -0.709668
vt 0.593648 0.076948
v -5813.073242 897.114929 5232.864746
vn -0.459994 0.590046 -0.663514
vt -0.873190 -3.667424
v -5817.544434 875.780212 5228.849121
vn -0.694771 -0.116897 -0.709668
vt -0.862012 -3.607482
v -5818.195313 875.785339 5267.799316
vn -0.964922 -0.261490 -0.023439
vt -0.757873 -3.756289
v -5818.846191 875.790466 5306.749512
vn -0.535233 -0.154412 0.830471
vt -0.765722 -3.856765
v -5820.572266 897.329651 5303.125000
vn -0.656651 0.604296 0.451261
vt -0.854443 -3.843074
v -5830.436523 897.612122 5267.867676
vn -0.826454 0.556967 -0.082224
vt -0.829782 -3.754931
v -5678.775879 867.502869 5307.719238
vn 0.914797 -0.097923 0.391865
vt -1.261346 -3.854484
v -5701.541504 891.298218 5267.867188
vn 0.613497 0.785297 -0.083246
vt -1.148683 -3.754930
v -5680.341309 889.699951 5303.809082
vn 0.413248 0.608329 0.677615
vt -1.201685 -3.844785
v -5811.590332 853.151978 5240.097168
vn -0.583233 -0.648742 -0.488849
vt -0.691956 -3.682915
v -5801.233398 839.911316 5267.866211
vn -0.301938 -0.953293 0.008079
vt -0.648812 -3.755345
v -5810.972656 853.160767 5267.769043
vn -0.890747 -0.454057 0.020030
vt -0.691984 -3.755092
v -5817.544434 875.780212 5228.849121
vn -0.694771 -0.116897 -0.709668
vt -0.765689 -3.653576
v -5810.354980 853.169495 5295.441406
vn -0.569641 -0.657485 0.493176
vt -0.692013 -3.827270
v -5813.073242 897.114929 5232.864746
vn -0.459994 0.590046 -0.663514
vt -0.873190 -3.667424
v -5694.229492 845.885254 5295.998535
vn 0.484802 -0.771801 0.411449
vt -1.329658 -3.824834
v -5710.397949 834.152100 5267.867188
vn 0.183203 -0.982228 -0.040797
vt -1.366735 -3.753675
v -5698.011719 846.339050 5267.891602
vn 0.798958 -0.589889 -0.117037
vt -1.323985 -3.754444
v -5686.619629 868.263733 5268.081055
vn 0.974799 -0.139598 -0.174008
vt -1.244811 -3.754216
v -5701.793945 846.792847 5239.784668
vn 0.462091 -0.692664 -0.553794
vt -1.326790 -3.682640
v -5694.463867 869.024658 5228.442383
vn 0.657177 -0.048690 -0.752162
vt -1.256537 -3.653949
v -5689.713867 890.406555 5232.257324
vn 0.647474 0.614599 -0.450605
vt -1.178254 -3.665906
f 21/21/21 22/22/22 20/20/20
f 23/23/23 21/21/21 19/19/19
f 20/20/20 19/19/19 21/21/21
f 19/19/19 20/20/20 15/15/15
f 16/16/16 15/15/15 20/20/20
f 15/15/15 16/16/16 17/17/17
f 19/19/19 24/24/24 23/23/23
f 24/24/24 19/19/19 32/32/32
f 15/15/15 32/32/32 19/19/19
f 32/32/32 15/15/15 18/18/18
f 17/17/17 18/18/18 15/15/15
f 18/18/18 33/33/33 32/32/32
f 6/6/6 27/27/27 29/29/29
f 27/27/27 6/6/6 5/5/5
f 7/7/7 5/5/5 6/6/6
f 5/5/5 7/7/7 8/8/8
f 5/5/5 28/28/28 27/27/27
f 31/31/31 13/13/13 30/30/30
f 11/11/11 30/30/30 13/13/13
f 30/30/30 11/11/11 29/29/29
f 9/9/9 29/29/29 11/11/11
f 29/29/29 9/9/9 6/6/6
f 10/10/10 6/6/6 9/9/9
f 6/6/6 10/10/10 7/7/7
f 10/10/10 11/11/11 12/12/12
f 11/11/11 10/10/10 9/9/9
f 13/13/13 12/12/12 11/11/11
f 12/12/12 13/13/13 14/14/14
f 34/34/34 35/35/35 36/36/36
f 35/35/35 34/34/34 45/45/45
f 43/43/43 45/45/45 34/34/34
f 45/45/45 43/43/43 42/42/42
f 41/41/41 42/42/42 43/43/43
f 34/34/34 41/41/41 43/43/43
f 41/41/41 34/34/34 44/44/44
f 34/34/34 46/46/46 44/44/44
f 46/46/46 34/34/34 37/37/37
f 36/36/36 37/37/37 34/34/34
f 49/49/49 48/48/48 51/51/51
f 48/48/48 49/49/49 47/47/47
f 50/50/50 47/47/47 49/49/49
f 47/47/47 50/50/50 38/38/38
f 39/39/39 38/38/38 50/50/50
f 38/38/38 39/39/39 40/40/40
f 49/49/49 51/51/51 50/50/50
f 52/52/52 50/50/50 51/51/51
f 50/50/50 52/52/52 39/39/39
f 53/53/53 39/39/39 52/52/52
f 2/2/2 3/3/3 1/1/1
f 4/4/4 1/1/1 3/3/3
f 1/1/1 4/4/4 25/25/25
f 26/26/26 25/25/25 4/4/4
