mtllib ANIMATEDINSTANCES_MAZE_DOOR_003__AI.mtl
g ze_Door_003__AI
usemtl Lvl_dwarven_plc_stone02
v -7403.033691 -400.233337 8592.981445
vn 0.995211 0.097746 0.000000
vt 2.459343 1.000000
v -7403.033691 -400.233307 8411.182617
vn 0.980705 0.195492 0.000000
vt 1.918550 1.000000
v -7403.033691 -228.342789 8411.182617
vn 1.000000 0.000001 0.000000
vt 1.918550 0.495000
v -7403.033691 -228.342804 8592.981445
vn 1.000000 0.000001 0.000000
vt 2.459343 0.495000
v -7403.033691 -145.230270 8411.182617
vn 0.707107 0.707107 0.000000
vt 1.918550 0.250822
v -7403.033691 -145.230286 8592.981445
vn 0.894427 0.447214 0.000000
vt 2.459343 0.250822
v -7484.409180 -523.217773 8411.182617
vn -1.000000 -0.000001 0.000000
vt 1.918550 1.503087
v -7484.409180 -523.217773 8592.981445
vn -1.000000 -0.000001 0.000000
vt 2.459343 1.503087
v -7484.409180 -228.342804 8592.981445
vn -1.000000 -0.000001 0.000000
vt 2.459343 0.495000
v -7403.033691 -228.342789 8229.384766
vn 1.000000 0.000000 0.000000
vt 1.377756 0.495000
v -7484.409668 -145.230270 8411.182617
vn -0.707107 0.707106 0.000000
vt 1.918550 0.250822
v -7484.409180 -228.342789 8411.182617
vn -1.000000 -0.000001 0.000000
vt 1.918550 0.495000
v -7484.409668 -145.230286 8592.981445
vn -0.447214 0.894427 0.000000
vt 2.459343 0.250822
v -7403.033691 -145.230270 8411.182617
vn 0.707107 0.707107 0.000000
vt 1.918550 0.495000
v -7403.033691 -145.230286 8592.981445
vn 0.894427 0.447214 0.000000
vt 2.459343 0.495000
v -7403.033691 -400.233307 8229.384766
vn 0.995211 0.097747 0.000000
vt 1.377756 1.000000
v -7484.409668 -145.230270 8229.384766
vn -0.894428 0.447213 0.000000
vt 1.377757 0.250822
v -7484.409180 -228.342789 8229.384766
vn -1.000000 -0.000001 0.000000
vt 1.377756 0.495000
v -7403.033691 -145.230270 8229.384766
vn 0.447214 0.894427 0.000000
vt 1.377757 0.250822
v -7484.409180 -523.217773 8229.384766
vn -1.000000 -0.000001 0.000000
vt 1.377756 1.503087
v -7403.033691 -145.230270 8229.384766
vn 0.447214 0.894427 0.000000
vt 1.377756 0.495000
f 7/7/7 8/8/8 9/9/9
f 15/15/15 14/14/14 13/13/13
f 11/11/11 13/13/13 14/14/14
f 13/13/13 11/11/11 9/9/9
f 12/12/12 9/9/9 11/11/11
f 9/9/9 12/12/12 7/7/7
f 18/18/18 7/7/7 12/12/12
f 7/7/7 18/18/18 20/20/20
f 18/18/18 12/12/12 17/17/17
f 11/11/11 17/17/17 12/12/12
f 17/17/17 11/11/11 21/21/21
f 14/14/14 21/21/21 11/11/11
f 5/5/5 10/10/10 19/19/19
f 10/10/10 5/5/5 3/3/3
f 6/6/6 3/3/3 5/5/5
f 3/3/3 6/6/6 4/4/4
f 3/3/3 4/4/4 1/1/1
f 3/3/3 16/16/16 10/10/10
f 16/16/16 3/3/3 2/2/2
f 1/1/1 2/2/2 3/3/3
usemtl Lvl_dwarven_plc_stone06
v -7389.552734 -444.652374 8411.182617
vn 0.995211 0.097747 0.000000
vt 3.176003 0.000500
v -7389.552734 -523.842346 8411.182617
vn 1.000000 0.000002 0.000000
vt 3.176003 0.999500
v -7389.552734 -523.842285 8229.384766
vn 1.000000 0.000002 0.000000
vt 2.770691 0.999500
v -7389.552734 -444.652344 8229.384766
vn 0.980705 0.195492 0.000000
vt 2.770691 0.000500
v -7389.552734 -523.842346 8592.981445
vn 1.000000 0.000002 0.000000
vt 3.581314 0.999500
v -7389.552734 -444.652374 8592.981445
vn 0.980705 0.195492 0.000000
vt 3.581314 0.000500
f 22/22/22 27/27/27 26/26/26
f 22/22/22 24/24/24 25/25/25
f 24/24/24 22/22/22 23/23/23
f 26/26/26 23/23/23 22/22/22
usemtl Lvl_dwarven_plc_stone03
v -7403.033691 -400.233307 8411.182617
vn 0.980705 0.195492 0.000000
vt 3.162627 -1.000000
v -7389.552734 -444.652374 8411.182617
vn 0.995211 0.097747 0.000000
vt 3.176003 0.000500
v -7389.552734 -444.652344 8229.384766
vn 0.980705 0.195492 0.000000
vt 2.770691 0.000500
v -7403.033691 -400.233307 8229.384766
vn 0.995211 0.097747 0.000000
vt 2.767106 -1.000000
v -7403.033691 -400.233337 8592.981445
vn 0.995211 0.097746 0.000000
vt 3.558148 -1.000000
v -7389.552734 -444.652374 8592.981445
vn 0.980705 0.195492 0.000000
vt 3.581314 0.000500
f 28/28/28 32/32/32 33/33/33
f 28/28/28 30/30/30 31/31/31
f 30/30/30 28/28/28 29/29/29
f 33/33/33 29/29/29 28/28/28
