mtllib ANIMATEDINSTANCES_ROCKFALL_600__AI.mtl
g ockfall_600__AI
usemtl blend_low
v -9213.764648 -49.419773 4942.378906
vn 0.959802 0.009527 0.280515
vt 0.128098 0.000000
v -9254.562500 -49.419777 4983.002441
vn 0.934514 0.002559 0.355917
vt 0.000000 0.000000
v -9254.562500 -135.884064 4983.002441
vn 0.934891 0.002663 0.354925
vt 0.000000 1.000000
v -9212.686523 -136.165253 4942.503418
vn 0.960034 0.008961 0.279742
vt 0.128098 1.000000
v -9226.624023 -49.700935 4886.473633
vn 0.999346 0.003059 0.036034
vt 0.255733 0.000000
v -9226.624023 -136.165253 4886.473633
vn 0.999500 0.000000 0.031620
vt 0.255733 1.000000
v -9210.980469 -49.700932 4837.137695
vn 0.953228 0.000000 0.302252
vt 0.370888 0.000000
v -9210.980469 -136.165253 4837.137695
vn 0.953228 0.000000 0.302252
vt 0.370888 1.000000
v -9334.210938 -49.419769 4839.374512
vn 0.062450 0.000000 -0.998048
vt 0.663833 0.000000
v -9210.980469 -49.700932 4837.137695
vn -0.018150 0.000000 -0.999835
vt 0.370888 0.000000
v -9210.980469 -136.165253 4837.137695
vn -0.018150 0.000000 -0.999835
vt 0.370888 1.000000
v -9334.210938 -109.676331 4839.374512
vn 0.065701 0.006331 -0.997819
vt 0.663833 1.000000
v -9449.532227 -49.419769 4822.754883
vn 0.149088 0.012618 -0.988743
vt 0.911465 0.000000
v -9446.159180 -91.377182 4822.213867
vn 0.155503 0.025233 -0.987513
vt 0.911465 1.000000
v -9439.570313 -49.419769 4845.002441
vn -0.975055 -0.147336 -0.166010
vt 0.965699 0.000000
v -9449.532227 -49.419769 4822.754883
vn -0.909877 -0.078390 0.407406
vt 0.911465 0.000000
v -9446.159180 -91.377182 4822.213867
vn -0.665747 -0.670087 0.328274
vt 0.911465 1.000000
v -9433.031250 -91.377190 4847.140625
vn -0.646188 -0.755977 -0.104594
vt 0.965699 1.000000
v -9470.541016 -49.419769 4875.424805
vn -0.685715 -0.130288 -0.716115
vt 1.062291 0.000000
v -9462.893555 -91.377190 4875.016113
vn -0.772425 -0.635098 0.003266
vt 1.062291 1.000000
v -9418.566406 -49.419773 4925.609375
vn -0.684425 -0.139760 0.715562
vt 1.223040 0.000000
v -9470.541016 -49.419769 4875.424805
vn -0.688487 -0.132443 0.713053
vt 1.062291 0.000000
v -9409.463867 -91.377190 4925.640625
vn -0.808831 -0.568673 -0.149676
vt 1.223040 1.000000
v -9451.640625 -49.419773 4951.398438
vn -0.940932 -0.212904 -0.263285
vt 1.316354 0.000000
v -9418.566406 -49.419773 4925.609375
vn -0.609454 -0.132807 -0.781619
vt 1.223040 0.000000
v -9442.082031 -91.377190 4952.120605
vn -0.789339 -0.560551 -0.250454
vt 1.316354 1.000000
v -9442.593750 -49.419777 4975.380371
vn -0.962926 -0.266811 -0.039818
vt 1.373382 0.000000
v -9430.376953 -91.377190 4976.648926
vn -0.802135 -0.593187 -0.068627
vt 1.373382 1.000000
v -9454.241211 -49.419777 4997.204590
vn -0.823867 -0.210837 -0.526109
vt 1.433969 0.000000
v -9445.892578 -91.377190 4997.288574
vn -0.608187 -0.674365 -0.418736
vt 1.433969 1.000000
v -9349.482422 -49.419777 5012.396973
vn -0.149162 -0.013287 0.988724
vt 1.670613 0.000000
v -9454.241211 -49.419777 4997.204590
vn -0.143470 -0.026572 0.989298
vt 1.433969 0.000000
v -9445.892578 -91.377190 4997.288574
vn -0.149162 -0.013287 0.988724
vt 1.433969 1.000000
v -9349.482422 -109.676338 5012.396973
vn -0.154822 0.000000 0.987942
vt 1.670613 1.000000
v -9252.398438 -49.419777 5025.924316
vn -0.138091 0.000143 0.990420
vt 1.898427 0.000000
v -9251.581055 -136.165268 5026.063477
vn -0.138178 0.000287 0.990407
vt 1.898427 1.000000
v -9254.562500 -49.419777 4983.002441
vn 0.934514 0.002559 0.355917
vt 2.000000 0.000000
v -9252.398438 -49.419777 5025.924316
vn 0.998688 0.009330 -0.050353
vt 1.898427 0.000000
v -9251.581055 -136.165268 5026.063477
vn 0.998205 0.004665 -0.059716
vt 1.898427 1.000000
v -9254.562500 -135.884064 4983.002441
vn 0.934891 0.002663 0.354925
vt 2.000000 1.000000
f 20/20/20 21/21/21 22/22/22
f 21/21/21 20/20/20 23/23/23
f 30/30/30 29/29/29 28/28/28
f 27/27/27 28/28/28 29/29/29
f 28/28/28 27/27/27 26/26/26
f 24/24/24 26/26/26 27/27/27
f 26/26/26 24/24/24 23/23/23
f 25/25/25 23/23/23 24/24/24
f 16/16/16 17/17/17 15/15/15
f 18/18/18 15/15/15 17/17/17
f 15/15/15 18/18/18 19/19/19
f 20/20/20 19/19/19 18/18/18
f 2/2/2 3/3/3 1/1/1
f 4/4/4 1/1/1 3/3/3
f 1/1/1 4/4/4 5/5/5
f 6/6/6 5/5/5 4/4/4
f 5/5/5 6/6/6 7/7/7
f 8/8/8 7/7/7 6/6/6
f 10/10/10 11/11/11 9/9/9
f 12/12/12 9/9/9 11/11/11
f 9/9/9 12/12/12 13/13/13
f 14/14/14 13/13/13 12/12/12
f 32/32/32 33/33/33 31/31/31
f 34/34/34 31/31/31 33/33/33
f 31/31/31 34/34/34 35/35/35
f 36/36/36 35/35/35 34/34/34
f 39/39/39 37/37/37 38/38/38
f 37/37/37 39/39/39 40/40/40
usemtl Ground_main
v -9433.031250 -91.377190 4847.140625
vn -0.646188 -0.755977 -0.104594
vt 2.592888 3.256012
v -9342.022461 -109.676331 4888.384766
vn -0.234567 -0.968069 -0.088433
vt 3.090431 3.065498
v -9462.893555 -91.377190 4875.016113
vn -0.772425 -0.635098 0.003266
vt 2.590950 3.473068
v -9439.570313 -49.419769 4845.002441
vn 0.000000 1.000000 0.000000
vt 3.503422 -3.473701
v -9342.023438 -49.419773 4888.394043
vn 0.000598 1.000000 -0.000647
vt 3.015682 -3.690659
v -9334.210938 -49.419769 4839.374512
vn 0.001184 0.999999 0.000279
vt 2.976624 -3.445564
v -9449.532227 -49.419769 4822.754883
vn 0.000000 1.000000 0.000000
vt 3.553230 -3.362465
v -9334.210938 -109.676331 4839.374512
vn -0.198793 -0.979990 -0.010051
vt 2.885147 3.832130
v -9210.980469 -136.165253 4837.137695
vn -0.210843 -0.975231 -0.066855
vt 3.387161 3.406250
v -9226.624023 -136.165253 4886.473633
vn -0.219465 -0.975493 -0.015765
vt 3.506279 3.635990
v -9226.624023 -136.165253 4886.473633
vn -0.219465 -0.975493 -0.015765
vt 3.506279 2.635990
v -9334.210938 -109.676331 4839.374512
vn -0.198793 -0.979990 -0.010051
vt 2.885147 2.832130
v -9349.482422 -49.419777 5012.396973
vn 0.000000 1.000000 0.000000
vt 3.052982 -3.310677
v -9252.398438 -49.419777 5025.924316
vn 0.000000 1.000000 0.000000
vt 2.567562 -3.378311
v -9254.562500 -49.419777 4983.002441
vn 0.000000 1.000000 0.000000
vt 2.578381 -3.163704
v -9345.752930 -49.419773 4950.400391
vn 0.000000 1.000000 0.000000
vt 3.034332 -3.000694
v -9213.764648 -49.419773 4942.378906
vn 0.001172 0.999995 -0.002784
vt 2.374393 -2.960587
v -9342.023438 -49.419773 4888.394043
vn 0.000598 1.000000 -0.000647
vt 3.015682 -2.690659
v -9418.566406 -49.419773 4925.609375
vn 0.000000 1.000000 0.000000
vt 3.398399 -2.876740
v -9451.640625 -49.419773 4951.398438
vn 0.000000 1.000000 0.000000
vt 3.563770 -3.005684
v -9442.593750 -49.419777 4975.380371
vn 0.000000 1.000000 0.000000
vt 3.518539 -3.125595
v -9226.624023 -49.700935 4886.473633
vn 0.002360 0.999996 -0.001484
vt 3.438690 -3.681061
v -9210.980469 -49.700932 4837.137695
vn 0.002295 0.999997 0.000728
vt 3.360470 -3.434380
v -9334.210938 -49.419769 4839.374512
vn 0.001184 0.999999 0.000279
vt 3.976624 -3.445564
v -9226.624023 -49.700935 4886.473633
vn 0.002360 0.999996 -0.001484
vt 2.438690 -3.681061
v -9470.541016 -49.419769 4875.424805
vn 0.000000 1.000000 0.000000
vt 3.658276 -3.625816
v -9418.566406 -49.419773 4925.609375
vn 0.000000 1.000000 0.000000
vt 3.398399 -3.876740
v -9212.686523 -136.165253 4942.503418
vn -0.183317 -0.982130 -0.042612
vt 3.749397 2.788177
v -9345.751953 -109.676338 4950.391113
vn -0.228313 -0.973187 -0.027943
vt 3.295746 3.298904
v -9442.082031 -91.377190 4952.120605
vn -0.789339 -0.560551 -0.250454
vt 2.926380 3.674850
v -9409.463867 -91.377190 4925.640625
vn -0.808831 -0.568673 -0.149676
vt 2.952137 3.466740
v -9254.562500 -135.884064 4983.002441
vn -0.237363 -0.970584 -0.040328
vt 3.748787 3.076046
v -9251.581055 -136.165268 5026.063477
vn -0.262704 -0.964803 0.011889
vt 3.915588 3.231865
v -9349.482422 -109.676338 5012.396973
vn -0.239635 -0.970849 -0.005177
vt 3.501068 3.532314
v -9430.376953 -91.377190 4976.648926
vn -0.802135 -0.593187 -0.068627
vt 3.043152 3.727657
v -9454.241211 -49.419777 4997.204590
vn 0.000000 1.000000 0.000000
vt 3.576775 -3.234711
v -9445.892578 -91.377190 4997.288574
vn -0.608187 -0.674365 -0.418736
vt 3.081009 3.858444
v -9433.031250 -91.377190 4847.140625
vn -0.646188 -0.755977 -0.104594
vt 3.592888 3.256012
v -9446.159180 -91.377182 4822.213867
vn -0.665747 -0.670087 0.328274
vt 3.479012 3.212574
v -9334.210938 -109.676331 4839.374512
vn -0.198793 -0.979990 -0.010051
vt 3.885147 2.832130
v -9213.764648 -49.419773 4942.378906
vn 0.001172 0.999995 -0.002784
vt 2.374393 -3.960587
f 48/48/48 49/49/49 50/50/50
f 77/77/77 75/75/75 69/69/69
f 70/70/70 69/69/69 75/75/75
f 69/69/69 70/70/70 42/42/42
f 71/71/71 42/42/42 70/70/70
f 42/42/42 71/71/71 43/43/43
f 69/69/69 74/74/74 77/77/77
f 74/74/74 69/69/69 72/72/72
f 42/42/42 72/72/72 69/69/69
f 72/72/72 42/42/42 68/68/68
f 51/51/51 68/68/68 42/42/42
f 72/72/72 73/73/73 74/74/74
f 43/43/43 41/41/41 42/42/42
f 52/52/52 42/42/42 41/41/41
f 42/42/42 52/52/52 51/51/51
f 58/58/58 55/55/55 57/57/57
f 55/55/55 58/58/58 56/56/56
f 59/59/59 56/56/56 58/58/58
f 56/56/56 59/59/59 61/61/61
f 60/60/60 61/61/61 59/59/59
f 54/54/54 55/55/55 53/53/53
f 56/56/56 53/53/53 55/55/55
f 53/53/53 56/56/56 61/61/61
f 61/61/61 76/76/76 53/53/53
f 45/45/45 66/66/66 67/67/67
f 66/66/66 45/45/45 44/44/44
f 46/46/46 44/44/44 45/45/45
f 44/44/44 46/46/46 47/47/47
f 46/46/46 45/45/45 65/65/65
f 81/81/81 65/65/65 45/45/45
f 62/62/62 63/63/63 64/64/64
f 78/78/78 79/79/79 80/80/80
