mtllib ANIMATEDINSTANCES_BAT_ROCKFALL_03__BA.mtl
g Rockfall_03__BA
usemtl Ground_Grass_Blend
v -9894.156250 -308.143524 -10554.110352
vn -0.683856 0.727715 -0.052661
vt 3.779011 3.508656
v -9865.634766 -308.141388 -10546.630859
vn 0.006455 0.999407 0.033827
vt 3.636406 3.471258
v -9869.528320 -305.616699 -10620.220703
vn -0.039971 0.999003 0.019892
vt 3.652191 3.862195
v -9886.823242 -307.890564 -10630.580078
vn -0.699982 0.711440 -0.062274
vt 3.738667 3.913991
v -9833.783203 -308.139191 -10559.958008
vn -0.010128 0.999573 0.027407
vt 3.477146 3.537891
v -9835.965820 -305.612762 -10635.099609
vn -0.002153 0.999427 0.033776
vt 3.484379 3.936592
v -9798.681641 -308.136993 -10543.851563
vn 0.009215 0.999792 0.018171
vt 3.301640 3.457361
v -9778.975586 -308.134766 -10534.236328
vn -0.001745 0.999993 0.003345
vt 3.203110 3.409285
v -9771.679688 -307.866913 -10610.496094
vn 0.028085 0.999487 0.015430
vt 3.162949 3.813571
v -9810.921875 -305.604889 -10609.980469
vn 0.001209 0.999398 0.034665
vt 3.359158 3.810994
v -9817.815430 -308.138062 -10542.931641
vn -0.000056 1.000000 -0.000013
vt 3.397305 3.452760
f 5/5/5 11/11/11 7/7/7
f 4/4/4 1/1/1 3/3/3
f 2/2/2 3/3/3 1/1/1
f 3/3/3 2/2/2 6/6/6
f 5/5/5 6/6/6 2/2/2
f 6/6/6 5/5/5 10/10/10
f 7/7/7 10/10/10 5/5/5
f 10/10/10 7/7/7 9/9/9
f 8/8/8 9/9/9 7/7/7
usemtl rock_blend
v -9780.186523 -351.134796 -10543.168945
vn 0.989537 -0.114272 0.088088
vt 0.000000 1.000000
v -9774.032227 -350.866913 -10610.596680
vn 0.989993 -0.108744 0.089932
vt 0.384243 1.000000
v -9771.679688 -329.366913 -10610.496094
vn 0.993198 -0.076292 0.087959
vt 0.384243 0.500000
v -9777.896484 -329.634796 -10539.566406
vn 0.995470 -0.031208 0.089806
vt 0.000000 0.500000
v -9810.921875 -348.604889 -10609.980469
vn 0.376567 0.001756 -0.926388
vt 0.570136 1.000000
v -9810.921875 -327.104889 -10609.980469
vn 0.377300 0.000000 -0.926091
vt 0.570136 0.500000
v -9771.679688 -329.366913 -10610.496094
vn -0.014195 0.002156 -0.999897
vt 0.384243 0.500000
v -9774.032227 -350.866913 -10610.596680
vn -0.016308 0.006467 -0.999846
vt 0.384243 1.000000
v -9835.965820 -348.612762 -10635.099609
vn 0.183756 0.000000 -0.982972
vt 0.737870 1.000000
v -9835.965820 -327.112762 -10635.099609
vn 0.183756 0.000000 -0.982972
vt 0.737870 0.500000
v -9869.528320 -348.616699 -10620.220703
vn 0.059796 0.010834 -0.998152
vt 0.911477 1.000000
v -9869.528320 -327.116699 -10620.220703
vn 0.055337 -0.003264 -0.998462
vt 0.911477 0.500000
v -9881.117188 -350.890564 -10627.472656
vn 0.524643 0.038482 -0.850452
vt 1.007414 1.000000
v -9889.983398 -329.390564 -10631.969727
vn 0.507573 0.007018 -0.861580
vt 1.007414 0.500000
v -9887.306641 -351.143494 -10559.834961
vn -0.508577 -0.858919 -0.060067
vt 1.392662 1.000000
v -9896.235352 -329.643494 -10560.830078
vn -0.995190 -0.037908 -0.090329
vt 1.392662 0.500000
v -9889.983398 -329.390564 -10631.969727
vn -0.972174 -0.217353 -0.087384
vt 1.007414 0.500000
v -9881.117188 -350.890564 -10627.472656
vn -0.467769 -0.882647 -0.046109
vt 1.007414 1.000000
v -9864.492188 -351.141357 -10555.462891
vn 0.080855 -0.127139 0.988584
vt 1.532090 1.000000
v -9864.554688 -329.641357 -10551.960938
vn 0.061172 -0.198962 0.978096
vt 1.532090 0.500000
v -9896.235352 -329.643494 -10560.830078
vn -0.241235 -0.176038 0.954367
vt 1.392662 0.500000
v -9887.306641 -351.143494 -10559.834961
vn -0.188110 -0.032706 0.981603
vt 1.392662 1.000000
v -9832.639648 -351.139160 -10568.788086
vn -0.207943 -0.157838 0.965322
vt 1.695364 1.000000
v -9832.702148 -329.639160 -10565.286133
vn -0.205786 -0.201853 0.957553
vt 1.695364 0.500000
v -9816.670898 -351.138062 -10551.763672
vn -0.372389 -0.150255 0.915833
vt 1.805742 1.000000
v -9816.733398 -329.638062 -10548.261719
vn -0.369585 -0.196018 0.908286
vt 1.805742 0.500000
v -9797.539063 -351.136993 -10552.683594
vn -0.222369 -0.157367 0.962179
vt 1.896317 1.000000
v -9797.601563 -329.636993 -10549.181641
vn -0.203850 -0.196343 0.959112
vt 1.896317 0.500000
v -9780.186523 -351.134796 -10543.168945
vn -0.456226 -0.123095 0.881309
vt 2.000000 1.000000
v -9777.896484 -329.634796 -10539.566406
vn -0.432062 -0.170968 0.885490
vt 2.000000 0.500000
v -9778.976563 -308.134796 -10534.236328
vn -0.425932 -0.237809 0.872943
vt 2.000000 0.000000
v -9798.681641 -308.136993 -10543.851563
vn -0.195408 -0.245225 0.949569
vt 1.896317 0.000000
v -9865.634766 -308.141357 -10546.630859
vn 0.065810 -0.243025 0.967785
vt 1.532090 0.000000
v -9894.155273 -308.143494 -10554.110352
vn -0.244399 -0.267635 0.932009
vt 1.392662 0.000000
v -9833.782227 -308.139160 -10559.956055
vn -0.202839 -0.245212 0.948012
vt 1.695364 0.000000
v -9817.813477 -308.138062 -10542.931641
vn -0.365898 -0.241216 0.898851
vt 1.805742 0.000000
v -9810.921875 -305.604889 -10609.980469
vn 0.377300 0.000000 -0.926091
vt 0.570136 0.000000
v -9771.679688 -307.866913 -10610.496094
vn -0.013139 0.000000 -0.999914
vt 0.384243 0.000000
v -9835.965820 -305.612762 -10635.099609
vn 0.183756 0.000000 -0.982972
vt 0.737870 0.000000
v -9771.679688 -307.866913 -10610.496094
vn 0.995734 0.013182 0.091324
vt 0.384243 0.000000
v -9778.976563 -308.134796 -10534.236328
vn 0.995098 0.026361 0.095313
vt 0.000000 0.000000
v -9886.823242 -307.890564 -10630.580078
vn -0.699982 0.711440 -0.062274
vt 1.007414 0.000000
v -9894.155273 -308.143494 -10554.110352
vn -0.683856 0.727715 -0.052661
vt 1.392662 0.000000
v -9886.823242 -307.890564 -10630.580078
vn 0.506684 -0.008718 -0.862088
vt 1.007414 0.000000
v -9869.528320 -305.616699 -10620.220703
vn 0.061155 0.000000 -0.998128
vt 0.911477 0.000000
f 22/22/22 24/24/24 25/25/25
f 23/23/23 25/25/25 55/55/55
f 25/25/25 23/23/23 22/22/22
f 21/21/21 22/22/22 23/23/23
f 22/22/22 21/21/21 20/20/20
f 17/17/17 20/20/20 21/21/21
f 20/20/20 17/17/17 16/16/16
f 18/18/18 16/16/16 17/17/17
f 16/16/16 18/18/18 19/19/19
f 21/21/21 50/50/50 17/17/17
f 50/50/50 21/21/21 56/56/56
f 23/23/23 56/56/56 21/21/21
f 56/56/56 23/23/23 55/55/55
f 50/50/50 48/48/48 17/17/17
f 49/49/49 17/17/17 48/48/48
f 17/17/17 49/49/49 18/18/18
f 30/30/30 32/32/32 33/33/33
f 32/32/32 30/30/30 31/31/31
f 34/34/34 31/31/31 30/30/30
f 31/31/31 34/34/34 35/35/35
f 36/36/36 35/35/35 34/34/34
f 35/35/35 36/36/36 37/37/37
f 38/38/38 37/37/37 36/36/36
f 37/37/37 38/38/38 39/39/39
f 40/40/40 39/39/39 38/38/38
f 39/39/39 40/40/40 41/41/41
f 45/45/45 32/32/32 44/44/44
f 31/31/31 44/44/44 32/32/32
f 44/44/44 31/31/31 46/46/46
f 35/35/35 46/46/46 31/31/31
f 46/46/46 35/35/35 47/47/47
f 37/37/37 47/47/47 35/35/35
f 47/47/47 37/37/37 43/43/43
f 39/39/39 43/43/43 37/37/37
f 43/43/43 39/39/39 42/42/42
f 41/41/41 42/42/42 39/39/39
f 54/54/54 53/53/53 27/27/27
f 28/28/28 27/27/27 53/53/53
f 27/27/27 28/28/28 26/26/26
f 29/29/29 26/26/26 28/28/28
f 15/15/15 51/51/51 52/52/52
f 51/51/51 15/15/15 14/14/14
f 12/12/12 14/14/14 15/15/15
f 14/14/14 12/12/12 13/13/13
usemtl Rock_wall1
v -9774.032227 -350.866913 -10610.596680
vn -0.029756 -0.999417 -0.016739
vt 0.307884 0.602476
v -9780.186523 -351.134796 -10543.168945
vn 0.002195 -0.999990 -0.003773
vt 0.332936 0.307884
v -9797.539063 -351.136993 -10552.683594
vn -0.020518 -0.999458 -0.025725
vt 0.394385 0.342916
v -9887.306641 -351.143494 -10559.834961
vn -0.508577 -0.858919 -0.060067
vt 0.692116 0.380293
v -9881.117188 -350.890564 -10627.472656
vn -0.467769 -0.882647 -0.046109
vt 0.666955 0.675649
v -9869.528320 -348.616699 -10620.220703
vn 0.040183 -0.998869 -0.025425
vt 0.613021 0.637906
v -9835.965820 -348.612762 -10635.099609
vn 0.012059 -0.999179 -0.038673
vt 0.508358 0.692116
v -9832.639648 -351.139160 -10568.788086
vn 0.012594 -0.999175 -0.038602
vt 0.503845 0.401590
v -9864.492188 -351.141357 -10555.462891
vn -0.004022 -0.999245 -0.038644
vt 0.603176 0.353042
v -9810.921875 -348.604889 -10609.980469
vn 0.004692 -0.999259 -0.038216
vt 0.430260 0.600598
v -9816.670898 -351.138062 -10551.763672
vn 0.019964 -0.998939 -0.041495
vt 0.454047 0.339565
f 60/60/60 61/61/61 62/62/62
f 64/64/64 63/63/63 66/66/66
f 63/63/63 64/64/64 62/62/62
f 65/65/65 62/62/62 64/64/64
f 62/62/62 65/65/65 60/60/60
f 59/59/59 57/57/57 58/58/58
f 57/57/57 59/59/59 66/66/66
f 67/67/67 66/66/66 59/59/59
f 66/66/66 67/67/67 64/64/64
