mtllib ANIMATEDINSTANCES_OH_ROCKFALL_201__AI.mtl
g ockfall_201__AI
usemtl Rockfall_edge
v -5337.734863 -874.447144 -12891.666992
vn -0.886821 -0.143345 -0.439318
vt 0.121475 0.000000
v -5305.621582 -876.223450 -12921.469727
vn -0.159828 -0.156846 -0.974605
vt 0.000000 0.000000
v -5307.437012 -928.223450 -12911.942383
vn -0.250135 -0.706601 -0.661928
vt 0.000000 1.000000
v -5329.356445 -926.447144 -12891.555664
vn -0.768824 -0.472028 -0.431393
vt 0.121475 1.000000
v -5340.902832 -884.030396 -12845.071289
vn -0.947478 -0.094458 -0.305553
vt 0.243593 0.000000
v -5336.226563 -936.030396 -12846.664063
vn -0.711381 -0.634392 -0.302462
vt 0.243593 1.000000
v -5364.436035 -888.680176 -12800.056641
vn -0.905382 -0.147467 -0.398167
vt 0.371220 0.000000
v -5347.439453 -940.680176 -12811.603516
vn -0.676190 -0.670547 -0.305178
vt 0.371220 1.000000
v -5329.798828 -892.844666 -12811.466797
vn 0.463152 0.591760 0.659781
vt 0.464985 0.000000
v -5364.436035 -888.680176 -12800.056641
vn 0.298608 -0.112831 0.947683
vt 0.371220 0.000000
v -5347.439453 -940.680176 -12811.603516
vn 0.276789 -0.104806 0.955198
vt 0.371220 1.000000
v -5328.041504 -944.844666 -12817.159180
vn 0.553309 -0.106498 0.826140
vt 0.464985 1.000000
v -5279.130859 -889.446960 -12871.956055
vn 0.591734 -0.095586 0.800446
vt 0.661816 0.000000
v -5289.220703 -941.446960 -12872.622070
vn 0.606754 -0.127419 0.784611
vt 0.661816 1.000000
v -5240.717773 -894.330872 -12886.485352
vn 0.343201 -0.077892 0.936027
vt 0.782432 0.000000
v -5254.078613 -946.330872 -12885.877930
vn 0.342493 -0.077067 0.936354
vt 0.782432 1.000000
v -5305.621582 -876.223450 -12921.469727
vn -0.159828 -0.156846 -0.974605
vt 1.000000 0.000000
v -5240.717773 -894.330872 -12886.485352
vn 0.443695 -0.124360 -0.887507
vt 0.782432 0.000000
v -5254.078613 -946.330872 -12885.877930
vn 0.124996 -0.696922 -0.706170
vt 0.782432 1.000000
v -5307.437012 -928.223450 -12911.942383
vn -0.250135 -0.706601 -0.661928
vt 1.000000 1.000000
f 19/19/19 17/17/17 18/18/18
f 17/17/17 19/19/19 20/20/20
f 2/2/2 3/3/3 1/1/1
f 4/4/4 1/1/1 3/3/3
f 1/1/1 4/4/4 5/5/5
f 6/6/6 5/5/5 4/4/4
f 5/5/5 6/6/6 7/7/7
f 8/8/8 7/7/7 6/6/6
f 10/10/10 11/11/11 9/9/9
f 12/12/12 9/9/9 11/11/11
f 9/9/9 12/12/12 13/13/13
f 14/14/14 13/13/13 12/12/12
f 13/13/13 14/14/14 15/15/15
f 16/16/16 15/15/15 14/14/14
usemtl Ground_Grass_Blend
v -5307.437012 -928.223450 -12911.942383
vn -0.250135 -0.706601 -0.661928
vt 3.837708 3.390223
v -5254.078613 -946.330872 -12885.877930
vn 0.124996 -0.696922 -0.706170
vt 3.466848 3.182161
v -5289.220703 -941.446960 -12872.622070
vn -0.236429 -0.946720 -0.218682
vt 3.692799 3.101883
v -5329.356445 -926.447144 -12891.555664
vn -0.768824 -0.472028 -0.431393
vt 3.006411 3.215912
v -5307.437012 -928.223450 -12911.942383
vn -0.250135 -0.706601 -0.661928
vt 2.837708 3.390223
v -5289.220703 -941.446960 -12872.622070
vn -0.236429 -0.946720 -0.218682
vt 2.692799 3.101883
v -5336.226563 -936.030396 -12846.664063
vn -0.711381 -0.634392 -0.302462
vt 3.010054 2.976658
v -5328.041504 -944.844666 -12817.159180
vn -0.246250 -0.945270 -0.214071
vt 2.949022 2.803944
v -5336.226563 -936.030396 -12846.664063
vn -0.711381 -0.634392 -0.302462
vt 3.010054 3.976658
v -5328.041504 -944.844666 -12817.159180
vn -0.246250 -0.945270 -0.214071
vt 2.949022 3.803944
v -5347.439453 -940.680176 -12811.603516
vn -0.676190 -0.670547 -0.305178
vt 3.127720 3.751585
v -5340.902832 -884.030396 -12845.071289
vn 0.175253 0.963973 0.200105
vt 3.010054 3.976658
v -5364.436035 -888.680176 -12800.056641
vn 0.179730 0.964480 0.193587
vt 3.127720 3.751585
v -5329.798828 -892.844666 -12811.466797
vn 0.463152 0.591760 0.659781
vt 2.949022 3.803944
v -5340.902832 -884.030396 -12845.071289
vn 0.175253 0.963973 0.200105
vt 3.010054 2.976658
v -5329.798828 -892.844666 -12811.466797
vn 0.463152 0.591760 0.659781
vt 2.949022 2.803944
v -5279.130859 -889.446960 -12871.956055
vn 0.181614 0.966702 0.180289
vt 2.692799 3.101883
v -5279.130859 -889.446960 -12871.956055
vn 0.181614 0.966702 0.180289
vt 3.692799 3.101883
v -5240.717773 -894.330872 -12886.485352
vn 0.184012 0.969726 0.160532
vt 3.466848 3.182161
v -5305.621582 -876.223450 -12921.469727
vn 0.190106 0.969112 0.157107
vt 3.837708 3.390223
v -5305.621582 -876.223450 -12921.469727
vn 0.190106 0.969112 0.157107
vt 2.837708 3.390223
v -5337.734863 -874.447144 -12891.666992
vn 0.185998 0.965584 0.181802
vt 3.006411 3.215912
f 21/21/21 22/22/22 23/23/23
f 26/26/26 24/24/24 25/25/25
f 24/24/24 26/26/26 27/27/27
f 28/28/28 27/27/27 26/26/26
f 37/37/37 35/35/35 36/36/36
f 35/35/35 37/37/37 42/42/42
f 41/41/41 42/42/42 37/37/37
f 29/29/29 30/30/30 31/31/31
f 32/32/32 33/33/33 34/34/34
f 38/38/38 39/39/39 40/40/40
