mtllib ANIMATEDINSTANCES_OH_ROCKFALL_203__AI.mtl
g ockfall_203__AI
usemtl Ground_Grass_Blend
v -5289.008301 -961.900818 -12743.866211
vn -0.450981 -0.883015 0.130007
vt 2.843224 3.438744
v -5345.548828 -941.669617 -12799.270508
vn -0.642597 -0.714137 -0.277628
vt 3.127720 3.751587
v -5321.782715 -945.525635 -12805.171875
vn -0.221344 -0.648788 -0.728067
vt 2.949020 3.803944
v -5256.619141 -966.070068 -12771.250977
vn -0.214036 -0.961692 -0.171281
vt 3.541714 3.574062
v -5289.008301 -961.900818 -12743.866211
vn -0.450981 -0.883015 0.130007
vt 3.843224 3.438744
v -5321.782715 -945.525635 -12805.171875
vn -0.221344 -0.648788 -0.728067
vt 3.949020 3.803944
v -5234.713379 -962.884705 -12805.750977
vn -0.145299 -0.646761 -0.748725
vt 3.376867 3.827650
v -5250.617676 -915.032654 -12767.402344
vn 0.653007 0.347271 0.673041
vt 3.541714 3.574062
v -5220.566406 -911.592468 -12812.708984
vn 0.178729 0.965018 0.191824
vt 3.376867 3.827650
v -5327.089844 -892.844666 -12807.773438
vn 0.174112 0.964576 0.198185
vt 3.949020 3.803944
v -5327.089844 -892.844666 -12807.773438
vn 0.174112 0.964576 0.198185
vt 2.949020 3.803944
v -5362.749512 -888.680176 -12797.666016
vn 0.169872 0.964557 0.201923
vt 3.127720 3.751587
v -5309.624512 -909.900818 -12740.991211
vn 0.008556 0.674491 0.738233
vt 2.843224 3.438744
v -5309.624512 -909.900818 -12740.991211
vn 0.008556 0.674491 0.738233
vt 3.843224 3.438744
f 1/1/1 2/2/2 3/3/3
f 6/6/6 4/4/4 5/5/5
f 4/4/4 6/6/6 7/7/7
f 10/10/10 8/8/8 9/9/9
f 8/8/8 10/10/10 14/14/14
f 11/11/11 12/12/12 13/13/13
usemtl Rockfall_edge
v -5327.089844 -892.844666 -12807.773438
vn -0.162020 -0.080137 -0.983528
vt 0.315700 0.000000
v -5220.566406 -911.592468 -12812.708984
vn -0.066359 -0.116128 -0.991015
vt 0.000000 0.000000
v -5234.713379 -962.884705 -12805.750977
vn -0.145299 -0.646761 -0.748725
vt 0.000000 1.000000
v -5321.782715 -945.525635 -12805.171875
vn -0.221344 -0.648788 -0.728067
vt 0.315700 1.000000
v -5362.749512 -888.680176 -12797.666016
vn -0.264333 -0.063437 -0.962343
vt 0.417642 0.000000
v -5345.548828 -941.669617 -12799.270508
vn -0.642597 -0.714137 -0.277628
vt 0.417642 1.000000
v -5309.624512 -909.900818 -12740.991211
vn 0.008556 0.674491 0.738233
vt 0.654834 0.000000
v -5362.749512 -888.680176 -12797.666016
vn -0.751108 -0.262159 0.605895
vt 0.417642 0.000000
v -5289.008301 -961.900818 -12743.866211
vn -0.450981 -0.883015 0.130007
vt 0.654834 1.000000
v -5250.617676 -915.032654 -12767.402344
vn 0.653007 0.347271 0.673041
vt 0.835178 0.000000
v -5289.008301 -961.900818 -12743.866211
vn 0.530531 -0.008906 0.847619
vt 0.654834 1.000000
v -5256.619141 -966.070068 -12771.250977
vn 0.741728 -0.142580 0.655370
vt 0.835178 1.000000
v -5220.566406 -911.592468 -12812.708984
vn 0.835095 -0.149852 0.529302
vt 1.000000 0.000000
v -5234.713379 -962.884705 -12805.750977
vn 0.839822 -0.161324 0.518338
vt 1.000000 1.000000
f 20/20/20 21/21/21 22/22/22
f 21/21/21 20/20/20 23/23/23
f 16/16/16 17/17/17 15/15/15
f 18/18/18 15/15/15 17/17/17
f 15/15/15 18/18/18 19/19/19
f 20/20/20 19/19/19 18/18/18
f 21/21/21 25/25/25 24/24/24
f 26/26/26 24/24/24 25/25/25
f 24/24/24 26/26/26 27/27/27
f 28/28/28 27/27/27 26/26/26
