mtllib CH4_INTRO_ANIM_INST.mtl
g firestick
usemtl poles
v 1536.152466 325.542084 -10602.520508
vn -0.806340 0.426454 -0.409821
vt 0.750000 0.999501
v 1538.358521 326.964447 -10603.139648
vn -0.225010 0.661809 -0.715108
vt 0.875000 0.999501
v 1537.528442 307.951324 -10603.750977
vn -0.305235 0.000654 -0.952277
vt 0.875000 0.699959
v 1535.659790 308.032928 -10603.002930
vn -0.760223 0.001362 -0.649660
vt 0.750000 0.714173
v 1540.344849 325.360931 -10604.005859
vn 0.281048 0.473439 -0.834786
vt 1.000000 0.999501
v 1539.452759 307.867310 -10604.349609
vn 0.459959 -0.048946 -0.886590
vt 1.000000 0.717284
v 1541.955444 325.292389 -10602.215820
vn 0.830097 0.401432 -0.387028
vt 0.125000 0.999501
v 1540.907593 307.803802 -10602.727539
vn 0.978118 -0.062472 -0.198448
vt 0.125000 0.713789
v 1539.452759 307.867310 -10604.349609
vn 0.459959 -0.048946 -0.886590
vt 0.011888 0.713816
v 1540.344849 325.360931 -10604.005859
vn 0.281048 0.473439 -0.834786
vt -0.000000 0.999501
v 1541.829224 325.293335 -10599.809570
vn 0.872101 0.384054 0.303221
vt 0.250000 0.999501
v 1540.786865 307.809052 -10600.554688
vn 0.831213 -0.046500 0.554006
vt 0.250000 0.706586
v 1540.040649 325.372925 -10598.198242
vn 0.409785 0.392297 0.823516
vt 0.375000 0.999501
v 1539.169922 307.879669 -10599.111328
vn 0.199917 -0.013728 0.979717
vt 0.375000 0.695903
v 1537.637085 325.478973 -10598.324219
vn -0.286255 0.421525 0.860450
vt 0.500000 0.999501
v 1537.010742 307.973938 -10599.224609
vn -0.546400 0.017257 0.837346
vt 0.500000 0.695771
v 1536.026489 325.548096 -10600.114258
vn -0.800043 0.454064 0.392119
vt 0.625000 0.999501
v 1535.553467 308.037567 -10600.829102
vn -0.978157 0.028221 0.205944
vt 0.625000 0.706429
v 1536.442139 283.070465 -10602.214844
vn -0.338452 0.008442 -0.940946
vt 0.875000 0.307974
v 1534.959106 283.135193 -10601.282227
vn -0.938153 0.021368 -0.345561
vt 0.750000 0.308443
v 1537.931763 283.005402 -10598.004883
vn 0.327493 -0.034745 0.944215
vt 0.375000 0.264207
v 1539.304565 282.945465 -10599.208008
vn 0.891376 -0.063419 0.448807
vt 0.250000 0.290045
v 1534.414185 265.859436 -10600.465820
vn -0.918459 -0.093969 0.384192
vt 0.625000 0.000499
v 1534.880981 283.138611 -10599.440430
vn -0.878213 0.021221 0.477799
vt 0.625000 0.289699
v 1534.427368 264.238190 -10602.066406
vn -0.885394 -0.100760 -0.453790
vt 0.750000 0.000499
v 1535.577148 267.902832 -10599.274414
vn -0.372562 -0.108993 0.921585
vt 0.500000 0.000499
v 1536.120239 283.084503 -10598.099609
vn -0.349638 0.010651 0.936824
vt 0.500000 0.263916
v 1537.175537 267.810608 -10599.190430
vn 0.324407 -0.149697 0.933997
vt 0.375000 0.000499
v 1538.274170 265.662323 -10600.263672
vn 0.862066 -0.175310 0.475509
vt 0.250000 0.000499
v 1539.417969 282.940521 -10601.047852
vn 0.942900 -0.067906 -0.326080
vt 0.125000 0.307597
v 1538.291748 264.142914 -10601.864258
vn 0.928939 -0.184216 -0.321149
vt 0.125000 0.000499
v 1538.184570 282.994385 -10602.431641
vn 0.321752 -0.037736 -0.946072
vt 0.028791 0.307621
v 1537.187256 263.436218 -10603.055664
vn 0.335047 -0.164253 -0.927774
vt 0.042083 -0.011779
v 1538.184570 282.994385 -10602.431641
vn 0.321752 -0.037736 -0.946072
vt 1.000000 0.316022
v 1537.187256 263.436218 -10603.055664
vn 0.335047 -0.164253 -0.927774
vt 1.000000 0.000499
v 1535.589966 263.553772 -10603.139648
vn -0.369632 -0.172219 -0.913079
vt 0.875000 0.000499
f 3/3/3 5/5/5 6/6/6
f 5/5/5 3/3/3 2/2/2
f 1/1/1 2/2/2 3/3/3
f 3/3/3 6/6/6 34/34/34
f 7/7/7 9/9/9 10/10/10
f 9/9/9 7/7/7 8/8/8
f 11/11/11 8/8/8 7/7/7
f 8/8/8 11/11/11 12/12/12
f 13/13/13 12/12/12 11/11/11
f 12/12/12 13/13/13 14/14/14
f 15/15/15 14/14/14 13/13/13
f 14/14/14 15/15/15 16/16/16
f 17/17/17 16/16/16 15/15/15
f 16/16/16 17/17/17 18/18/18
f 1/1/1 18/18/18 17/17/17
f 18/18/18 1/1/1 4/4/4
f 3/3/3 4/4/4 1/1/1
f 4/4/4 3/3/3 19/19/19
f 34/34/34 19/19/19 3/3/3
f 19/19/19 34/34/34 35/35/35
f 32/32/32 9/9/9 30/30/30
f 8/8/8 30/30/30 9/9/9
f 30/30/30 8/8/8 22/22/22
f 12/12/12 22/22/22 8/8/8
f 22/22/22 12/12/12 21/21/21
f 14/14/14 21/21/21 12/12/12
f 21/21/21 14/14/14 27/27/27
f 16/16/16 27/27/27 14/14/14
f 27/27/27 16/16/16 24/24/24
f 18/18/18 24/24/24 16/16/16
f 24/24/24 18/18/18 20/20/20
f 4/4/4 20/20/20 18/18/18
f 20/20/20 4/4/4 19/19/19
f 26/26/26 27/27/27 24/24/24
f 27/27/27 26/26/26 21/21/21
f 28/28/28 21/21/21 26/26/26
f 21/21/21 28/28/28 22/22/22
f 29/29/29 22/22/22 28/28/28
f 22/22/22 29/29/29 30/30/30
f 31/31/31 30/30/30 29/29/29
f 30/30/30 31/31/31 32/32/32
f 33/33/33 32/32/32 31/31/31
f 26/26/26 24/24/24 23/23/23
f 20/20/20 23/23/23 24/24/24
f 23/23/23 20/20/20 25/25/25
f 19/19/19 25/25/25 20/20/20
f 25/25/25 19/19/19 36/36/36
f 35/35/35 36/36/36 19/19/19
usemtl logend
v 1536.088501 258.943542 -10601.165039
vn -0.061296 -0.877316 0.475983
vt 0.500000 0.500000
v 1537.187256 263.436218 -10603.055664
vn 0.335047 -0.164253 -0.927774
vt 0.500000 0.000500
v 1538.291748 264.142914 -10601.864258
vn 0.928939 -0.184216 -0.321149
vt 0.146800 0.146800
v 1535.589966 263.553772 -10603.139648
vn -0.369632 -0.172219 -0.913079
vt 0.853200 0.146800
v 1534.427368 264.238190 -10602.066406
vn -0.885394 -0.100760 -0.453790
vt 0.999501 0.500000
v 1536.026489 325.548096 -10600.114258
vn -0.800043 0.454064 0.392119
vt 0.853200 0.853200
v 1539.056885 326.931793 -10601.165039
vn 0.083754 0.989849 0.114820
vt 0.500000 0.500000
v 1536.152466 325.542084 -10602.520508
vn -0.806340 0.426454 -0.409821
vt 0.999501 0.500000
v 1537.637085 325.478973 -10598.324219
vn -0.286255 0.421525 0.860450
vt 0.500000 0.999501
v 1540.040649 325.372925 -10598.198242
vn 0.409785 0.392297 0.823516
vt 0.146800 0.853200
v 1541.829224 325.293335 -10599.809570
vn 0.872101 0.384054 0.303221
vt 0.000500 0.500000
v 1541.955444 325.292389 -10602.215820
vn 0.830097 0.401432 -0.387028
vt 0.146800 0.146800
v 1540.344849 325.360931 -10604.005859
vn 0.281048 0.473439 -0.834786
vt 0.500000 0.000500
v 1538.358521 326.964447 -10603.139648
vn -0.225010 0.661809 -0.715108
vt 0.853200 0.146800
v 1534.414185 265.859436 -10600.465820
vn -0.918459 -0.093969 0.384192
vt 0.853200 0.853200
v 1535.577148 267.902832 -10599.274414
vn -0.372562 -0.108993 0.921585
vt 0.500000 0.999500
v 1537.175537 267.810608 -10599.190430
vn 0.324407 -0.149697 0.933997
vt 0.146800 0.853200
v 1538.274170 265.662323 -10600.263672
vn 0.862066 -0.175310 0.475509
vt 0.000500 0.500000
f 43/43/43 48/48/48 49/49/49
f 48/48/48 43/43/43 47/47/47
f 46/46/46 47/47/47 43/43/43
f 46/46/46 43/43/43 45/45/45
f 42/42/42 45/45/45 43/43/43
f 49/49/49 50/50/50 43/43/43
f 44/44/44 43/43/43 50/50/50
f 43/43/43 44/44/44 42/42/42
f 51/51/51 41/41/41 37/37/37
f 40/40/40 37/37/37 41/41/41
f 37/37/37 40/40/40 38/38/38
f 37/37/37 52/52/52 51/51/51
f 52/52/52 37/37/37 53/53/53
f 37/37/37 54/54/54 53/53/53
f 54/54/54 37/37/37 39/39/39
f 38/38/38 39/39/39 37/37/37
