mtllib INST_OH_GOBLINGATE.mtl
g nst_Goblin_Gate
usemtl goblin_gate
v 5.531277 -172.232620 16.068918
vn 0.000000 0.000000 1.000000
vt 0.000000 1.000000
v 257.904572 -172.232346 16.068895
vn 0.000000 0.000000 1.000000
vt 1.000000 1.000000
v 257.904419 -21.809843 16.068970
vn 0.000000 0.000000 1.000000
vt 1.000000 0.000000
v 5.531114 -21.810112 16.068983
vn 0.000000 0.000000 1.000000
vt 0.000000 0.000000
v 5.530949 134.463806 16.069048
vn 0.000000 0.000000 1.000000
vt 0.000000 -1.115897
v 257.904236 134.464081 16.069038
vn 0.000000 0.000000 1.000000
vt 1.000000 -1.115897
v 257.904785 -21.809896 -4.498983
vn 1.000000 0.000001 0.000018
vt 1.001667 -0.107092
v 257.904633 134.464096 -4.498922
vn 1.000000 0.000001 0.000019
vt 1.001667 0.993061
v 257.904236 134.464020 16.069038
vn 1.000000 0.000001 0.000018
vt 0.923188 0.993060
v 257.904419 -21.809919 16.068970
vn 1.000000 0.000001 0.000018
vt 0.923188 -0.107092
v 257.904968 -172.232361 -4.499051
vn 1.000000 0.000001 0.000018
vt 1.001667 -1.115000
v 257.904572 -172.232376 16.068895
vn 1.000000 0.000001 0.000018
vt 0.923188 -1.115000
v 5.531478 -21.810165 -4.499086
vn -1.000000 -0.000001 -0.000018
vt 1.001667 -3.004281
v 5.531641 -172.232651 -4.499154
vn -1.000000 -0.000001 -0.000018
vt 1.001667 -2.017070
v 5.531277 -172.232651 16.068918
vn -1.000000 -0.000001 -0.000018
vt 0.923188 -2.017071
v 5.531114 -21.810188 16.068983
vn -1.000000 -0.000001 -0.000018
vt 0.923188 -3.004281
v 5.531313 134.463776 -4.499021
vn -1.000000 -0.000001 -0.000018
vt 1.001667 -3.108786
v 5.531478 -21.810165 -4.499086
vn -1.000000 -0.000001 -0.000018
vt 1.001667 -2.004281
v 5.531114 -21.810188 16.068983
vn -1.000000 -0.000001 -0.000018
vt 0.923188 -2.004281
v 5.530949 134.463776 16.069048
vn -1.000000 -0.000001 -0.000018
vt 0.923188 -3.108787
v 5.531641 -172.232651 -4.499154
vn 0.000000 0.000000 -1.000000
vt 1.000000 1.000900
v 5.531478 -21.810150 -4.499086
vn 0.000000 0.000000 -1.000000
vt 1.000000 0.001467
v 257.904785 -21.809881 -4.498983
vn 0.000000 0.000000 -1.000000
vt 0.000000 0.001467
v 257.904968 -172.232361 -4.499051
vn 0.000000 0.000000 -1.000000
vt 0.000000 1.000900
v 5.531313 134.463776 -4.499021
vn 0.000000 0.000000 -1.000000
vt 1.000000 -1.109228
v 257.904633 134.464035 -4.498922
vn 0.000000 0.000000 -1.000000
vt 0.000000 -1.109228
f 15/15/15 13/13/13 14/14/14
f 13/13/13 15/15/15 16/16/16
f 8/8/8 9/9/9 7/7/7
f 10/10/10 7/7/7 9/9/9
f 7/7/7 10/10/10 11/11/11
f 12/12/12 11/11/11 10/10/10
f 3/3/3 1/1/1 2/2/2
f 1/1/1 3/3/3 4/4/4
f 5/5/5 4/4/4 3/3/3
f 3/3/3 6/6/6 5/5/5
f 21/21/21 22/22/22 23/23/23
f 25/25/25 23/23/23 22/22/22
f 23/23/23 25/25/25 26/26/26
f 23/23/23 24/24/24 21/21/21
f 19/19/19 17/17/17 18/18/18
f 17/17/17 19/19/19 20/20/20
