mtllib INST_OH_SHRUB_01.mtl
g Inst_Shrub_01
usemtl Shrub_Bark
v -1.251209 29.475883 -6.842693
vn 0.426906 -0.268512 -0.863512
vt 1.412244 0.205852
v -0.024335 0.358026 -8.274888
vn 0.864225 0.060977 -0.499397
vt 1.769675 0.972366
v -14.355482 0.161186 -0.000014
vn -0.863769 0.032924 -0.502811
vt 1.039191 1.312996
v -13.161469 33.645821 -0.000008
vn -0.940063 0.340616 -0.016203
vt 0.681760 0.546482
v -1.251209 29.475883 6.842673
vn 0.501369 0.065860 0.862723
vt 2.142728 -0.134778
v -0.024335 0.358024 8.274858
vn 0.003887 0.047179 0.998879
vt 2.500159 0.631735
v -13.161469 33.645821 -0.000008
vn -0.940063 0.340616 -0.016203
vt 2.873212 -0.475409
v -14.355482 0.161186 -0.000014
vn -0.863769 0.032924 -0.502811
vt 3.230643 0.291105
v 33.677147 76.875923 -5.342851
vn 0.534840 -0.123262 -0.835914
vt 0.936919 -0.813486
v 25.050545 81.857285 -0.832257
vn -0.921612 0.385435 -0.045507
vt 0.206435 -0.472855
v 33.677151 78.823227 5.163904
vn 0.405924 -0.159683 0.899848
vt 1.667403 -1.154116
v 25.050545 81.857285 -0.832257
vn -0.921612 0.385435 -0.045507
vt 2.397887 -1.494746
v 38.277691 105.814720 -9.055187
vn 0.221800 0.004747 -0.975081
vt 0.640065 -1.450092
v 30.649126 105.957291 -4.664087
vn -0.963772 -0.024959 0.265556
vt -0.090419 -1.109461
v 38.277691 108.730515 -1.256546
vn 0.662102 0.254389 0.704916
vt 1.370549 -1.790722
v 30.649126 105.957291 -4.664087
vn -0.963772 -0.024959 0.265556
vt 2.101033 -2.131352
v 24.116068 126.094818 -15.205124
vn -0.026447 -0.183164 -0.982727
vt 0.359199 -2.052412
v 20.709751 124.167831 -10.911361
vn -0.726733 -0.370583 0.578383
vt -0.371286 -1.711781
v 24.116070 128.830307 -10.270185
vn 0.517798 0.775242 0.361780
vt 1.089683 -2.393042
v 20.709751 124.167831 -10.911361
vn -0.726733 -0.370583 0.578383
vt 1.820167 -2.733672
v 6.370062 133.545959 -16.109734
vn -0.823400 0.496312 -0.275113
vt -0.587889 -2.176289
v 24.116068 126.094818 -15.205124
vn -0.026447 -0.183164 -0.982727
vt 0.142595 -2.516919
v 6.370062 133.545959 -16.109734
vn -0.823400 0.496312 -0.275113
vt 0.142595 -2.516919
v 24.116070 128.830307 -10.270185
vn 0.517798 0.775242 0.361780
vt 0.873079 -2.857550
v 6.370062 133.545959 -16.109734
vn -0.823400 0.496312 -0.275113
vt 0.873079 -2.857550
v 20.709751 124.167831 -10.911361
vn -0.726733 -0.370583 0.578383
vt 1.603563 -3.198180
v -16.031925 87.800499 1.273604
vn -0.253618 -0.422981 0.869922
vt 0.841258 0.100778
v 13.796137 54.378304 5.304401
vn -0.675964 -0.543214 0.497986
vt 1.694448 0.816690
v 20.561148 60.594795 -0.000003
vn 0.595338 0.624560 0.505467
vt 1.276324 1.314991
v -12.075277 94.186409 -2.903092
vn 0.467745 0.883818 -0.008996
vt 0.423134 0.599079
v -16.031925 87.800507 -7.079791
vn -0.289169 -0.373242 -0.881517
vt 1.259382 -0.397522
v 13.796141 54.378304 -5.304410
vn 0.029535 -0.025326 -0.999243
vt 2.112572 0.318389
v -12.075277 94.186409 -2.903092
vn 0.467745 0.883818 -0.008996
vt 1.677506 -0.895823
v 20.561148 60.594795 -0.000003
vn 0.595338 0.624560 0.505467
vt 2.530696 -0.179911
v -26.091648 90.929253 -1.316406
vn 0.120612 -0.408851 0.904596
vt 0.617359 -0.087095
v -26.339340 97.882027 -5.132523
vn -0.242785 0.969550 -0.032059
vt 0.199235 0.411206
v -26.091646 90.929253 -8.948645
vn -0.021905 -0.443660 -0.895927
vt 1.035483 -0.585396
v -26.339340 97.882027 -5.132523
vn -0.242785 0.969550 -0.032059
vt 1.453607 -1.083696
v -34.329628 84.322556 -4.511499
vn -0.011197 -0.291401 0.956535
vt 0.388159 -0.279417
v -39.558941 87.630524 -7.709813
vn -0.748186 0.547598 -0.374638
vt -0.029965 0.218884
v -34.329628 84.322556 -10.908131
vn 0.558827 -0.517404 -0.648079
vt 0.806283 -0.777718
v -39.558941 87.630524 -7.709813
vn -0.748186 0.547598 -0.374638
vt 1.224407 -1.276018
v -40.324276 73.696846 -10.053141
vn -0.285181 -0.946372 -0.151831
vt -0.225123 0.055127
v -34.329628 84.322556 -4.511499
vn -0.011197 -0.291401 0.956535
vt 0.193001 -0.443174
v -40.324276 73.696846 -10.053141
vn -0.285181 -0.946372 -0.151831
vt 0.193001 -0.443174
v -34.329628 84.322556 -10.908131
vn 0.558827 -0.517404 -0.648079
vt 0.611125 -0.941474
v -40.324276 73.696846 -10.053141
vn -0.285181 -0.946372 -0.151831
vt 0.611125 -0.941474
v -39.558941 87.630524 -7.709813
vn -0.748186 0.547598 -0.374638
vt 1.029249 -1.439775
v 32.508137 93.718246 -0.308106
vn -0.678538 0.734341 -0.018131
vt 0.982162 1.371757
v 48.487026 109.047485 -13.018288
vn -0.240912 0.959369 0.146878
vt 0.655523 1.097673
v 47.398712 102.373444 -16.900997
vn -0.580445 -0.483906 -0.654918
vt 1.036910 0.643153
v 35.116982 87.267258 3.312404
vn 0.574157 0.077843 0.815036
vt 1.744937 0.462717
v 52.025406 102.373444 -11.084450
vn 0.773028 -0.406430 0.487076
vt 1.418297 0.188634
v 48.487026 109.047485 -13.018288
vn -0.240912 0.959369 0.146878
vt 1.799685 -0.265886
v 73.064964 87.093864 -28.410276
vn -0.149152 -0.219435 0.964159
vt 0.716007 -0.400658
v 65.687668 69.059769 -26.700308
vn -0.398265 -0.860829 0.316794
vt 0.450322 -0.623594
v 75.509750 85.174652 -34.513142
vn 0.953677 -0.018662 -0.300254
vt 0.831710 -1.078114
v 63.637920 101.494377 -29.279707
vn -0.892290 -0.221924 -0.393151
vt 0.633927 0.305010
v 70.008987 106.572189 -30.137636
vn 0.466799 0.809391 -0.356349
vt 0.252539 0.759530
v 69.013344 87.093864 -33.503860
vn -0.767540 -0.010433 -0.640916
vt 0.334620 0.053862
v 65.687668 69.059769 -26.700308
vn -0.398265 -0.860829 0.316794
vt 0.068935 -0.169074
v 73.064964 87.093864 -28.410276
vn -0.149152 -0.219435 0.964159
vt 0.450322 -0.623594
v 75.509750 85.174652 -34.513142
vn 0.953677 -0.018662 -0.300254
vt -0.046767 0.508382
v 65.687668 69.059769 -26.700308
vn -0.398265 -0.860829 0.316794
vt -0.312452 0.285445
v 69.013344 87.093864 -33.503860
vn -0.767540 -0.010433 -0.640916
vt 0.068935 -0.169074
v 67.739876 101.494377 -24.122852
vn 0.536244 -0.511525 0.671405
vt 1.015314 -0.149509
v 75.509750 85.174652 -34.513142
vn 0.953677 -0.018662 -0.300254
vt 1.097395 -0.855177
v 70.008987 106.572189 -30.137636
vn 0.466799 0.809391 -0.356349
vt 1.396701 -0.604029
v 29.567282 87.267265 -3.664521
vn 0.086147 -0.712164 -0.696708
vt 1.363550 0.917237
v 32.508137 93.718246 -0.308106
vn -0.678538 0.734341 -0.018131
vt 2.126324 0.008197
f 18/18/18 21/21/21 22/22/22
f 18/18/18 17/17/17 14/14/14
f 13/13/13 14/14/14 17/17/17
f 14/14/14 13/13/13 10/10/10
f 9/9/9 10/10/10 13/13/13
f 10/10/10 9/9/9 4/4/4
f 1/1/1 4/4/4 9/9/9
f 4/4/4 1/1/1 3/3/3
f 2/2/2 3/3/3 1/1/1
f 6/6/6 2/2/2 5/5/5
f 1/1/1 5/5/5 2/2/2
f 5/5/5 1/1/1 11/11/11
f 9/9/9 11/11/11 1/1/1
f 11/11/11 9/9/9 15/15/15
f 13/13/13 15/15/15 9/9/9
f 15/15/15 13/13/13 19/19/19
f 17/17/17 19/19/19 13/13/13
f 8/8/8 6/6/6 7/7/7
f 5/5/5 7/7/7 6/6/6
f 7/7/7 5/5/5 12/12/12
f 11/11/11 12/12/12 5/5/5
f 12/12/12 11/11/11 16/16/16
f 15/15/15 16/16/16 11/11/11
f 16/16/16 15/15/15 20/20/20
f 19/19/19 20/20/20 15/15/15
f 17/17/17 23/23/23 24/24/24
f 19/19/19 25/25/25 26/26/26
f 34/34/34 32/32/32 33/33/33
f 31/31/31 33/33/33 32/32/32
f 33/33/33 31/31/31 38/38/38
f 37/37/37 38/38/38 31/31/31
f 38/38/38 37/37/37 42/42/42
f 41/41/41 42/42/42 37/37/37
f 32/32/32 28/28/28 31/31/31
f 27/27/27 31/31/31 28/28/28
f 31/31/31 27/27/27 37/37/37
f 35/35/35 37/37/37 27/27/27
f 37/37/37 35/35/35 41/41/41
f 39/39/39 41/41/41 35/35/35
f 28/28/28 29/29/29 27/27/27
f 30/30/30 27/27/27 29/29/29
f 27/27/27 30/30/30 35/35/35
f 36/36/36 35/35/35 30/30/30
f 35/35/35 36/36/36 39/39/39
f 40/40/40 39/39/39 36/36/36
f 40/40/40 43/43/43 44/44/44
f 39/39/39 45/45/45 46/46/46
f 41/41/41 47/47/47 48/48/48
f 53/53/53 68/68/68 54/54/54
f 68/68/68 53/53/53 66/66/66
f 51/51/51 66/66/66 53/53/53
f 66/66/66 51/51/51 58/58/58
f 50/50/50 58/58/58 51/51/51
f 58/58/58 50/50/50 59/59/59
f 60/60/60 59/59/59 63/63/63
f 59/59/59 60/60/60 58/58/58
f 55/55/55 58/58/58 60/60/60
f 58/58/58 55/55/55 66/66/66
f 67/67/67 66/66/66 55/55/55
f 66/66/66 67/67/67 68/68/68
f 52/52/52 54/54/54 70/70/70
f 54/54/54 52/52/52 53/53/53
f 69/69/69 53/53/53 52/52/52
f 53/53/53 69/69/69 51/51/51
f 49/49/49 51/51/51 69/69/69
f 51/51/51 49/49/49 50/50/50
f 55/55/55 56/56/56 57/57/57
f 60/60/60 61/61/61 62/62/62
f 63/63/63 64/64/64 65/65/65
usemtl Shrub_Branch_01
v 26.708427 85.736244 -0.603224
vn 0.000000 0.000000 -1.000000
vt 0.000000 1.000000
v -29.038254 102.779716 -0.603219
vn 0.000000 0.000000 -1.000000
vt 1.000000 1.000000
v -20.516518 130.653061 -0.603220
vn 0.000000 0.000000 -1.000000
vt 1.000000 0.000000
v -37.680801 89.135452 20.494268
vn -0.573228 -0.020018 -0.819152
vt 1.000000 0.000000
v -6.315279 90.230774 -1.481526
vn -0.573228 -0.020018 -0.819152
vt 0.384173 0.000000
v -5.298057 61.101608 -1.481525
vn -0.573228 -0.020018 -0.819152
vt 0.384173 1.000000
v 30.789362 58.115944 12.647330
vn -0.999391 -0.034900 0.000001
vt 0.384173 1.000000
v 30.224291 74.298111 47.371231
vn -0.999391 -0.034900 0.000001
vt 1.000000 1.000000
v 29.302372 100.698097 35.053207
vn -0.999391 -0.034900 0.000001
vt 1.000000 0.000000
v -36.663578 60.006283 20.494272
vn -0.573228 -0.020018 -0.819152
vt 1.000000 1.000000
v 81.364571 110.924995 6.723460
vn -0.573226 -0.020017 0.819153
vt 1.000000 0.000000
v 49.999016 109.829674 -15.252290
vn -0.573226 -0.020017 0.819153
vt 0.384173 0.000000
v 51.016232 80.700516 -15.252285
vn -0.573226 -0.020017 0.819153
vt 0.384173 1.000000
v 82.381790 81.795830 6.723464
vn -0.573226 -0.020018 0.819153
vt 1.000000 1.000000
v 29.867441 84.515930 0.329304
vn -0.999391 -0.034900 0.000001
vt 0.384173 0.000000
v 35.230160 113.609581 -0.603225
vn 0.000000 0.000000 -1.000000
vt 0.000000 0.000000
f 73/73/73 71/71/71 72/72/72
f 71/71/71 73/73/73 86/86/86
f 76/76/76 74/74/74 75/75/75
f 74/74/74 76/76/76 80/80/80
f 79/79/79 77/77/77 78/78/78
f 77/77/77 79/79/79 85/85/85
f 83/83/83 81/81/81 82/82/82
f 81/81/81 83/83/83 84/84/84
usemtl Shrub_Branch_03
v 22.101336 71.295807 -61.076023
vn 0.999391 0.034900 -0.000001
vt 1.000000 0.000000
v 22.101370 71.295815 -2.782181
vn 0.999391 0.034900 -0.000001
vt 0.000000 0.000000
v 23.118584 42.166641 -2.782182
vn 0.999391 0.034900 -0.000001
vt 0.000000 1.000000
v 23.118549 42.166641 -61.076027
vn 0.999391 0.034900 -0.000001
vt 1.000000 1.000000
f 89/89/89 87/87/87 88/88/88
f 87/87/87 89/89/89 90/90/90
