mtllib INST_PUZZLE_PIECE1_PIECE1_IRON.mtl
g Piece1_Iron
usemtl gob_cog_01
v 1.398987 -7.596858 15.217167
vn -1.000000 -0.000003 0.000000
vt 0.006960 1.000000
v 1.398827 7.873091 22.940241
vn -1.000000 -0.000003 0.000000
vt 1.000000 1.000000
v 1.398784 23.066856 -7.494085
vn -1.000000 -0.000003 0.000000
vt 1.000000 0.000000
v 1.398963 7.596911 -15.217162
vn -1.000000 -0.000003 0.000000
vt 0.006960 0.000000
v 1.399006 -7.873008 -22.940231
vn -1.000000 -0.000003 0.000000
vt 1.000000 0.000000
v 1.399030 -23.066780 7.494099
vn -1.000000 -0.000003 0.000000
vt 1.000000 1.000000
v -3.916653 -7.833955 3.652608
vn -1.000000 -0.000003 0.000000
vt 0.257500 0.280922
v -3.916672 -0.753244 8.610576
vn -1.000000 -0.000003 0.000000
vt 0.512087 0.501401
v -3.916696 8.611185 0.752884
vn -1.000000 -0.000003 0.000000
vt 0.001449 0.755988
v -3.916692 7.080838 4.957482
vn -1.000000 -0.000003 0.000000
vt 0.257500 0.721880
v -3.916683 3.653220 7.833596
vn -1.000000 -0.000003 0.000000
vt 0.443871 0.628694
v -3.916661 -4.957841 7.080228
vn -1.000000 -0.000003 0.000000
vt 0.443871 0.374107
v -3.916650 -8.610933 -0.753854
vn -1.000000 -0.000003 0.000000
vt 0.001449 0.246814
v -3.916654 -7.080585 -4.958450
vn -1.000000 -0.000003 0.000000
vt 0.256036 0.280922
v -3.916685 4.958093 -7.081197
vn -1.000000 -0.000003 0.000000
vt 0.442407 0.628694
v -3.916662 -3.652967 -7.834566
vn -1.000000 -0.000003 0.000000
vt 0.442407 0.374107
v -3.916674 0.753495 -8.611545
vn -1.000000 -0.000003 0.000000
vt 0.510624 0.501401
v -3.916693 7.834208 -3.653578
vn -1.000000 -0.000003 0.000000
vt 0.256037 0.721880
v 3.916094 23.066849 -7.494089
vn 1.000000 0.000003 0.000000
vt 1.000000 0.000000
v 3.916137 7.873082 22.940235
vn 1.000000 0.000003 0.000000
vt 1.000000 1.000000
v 3.916162 -7.596968 15.217464
vn 1.000000 0.000003 0.000000
vt 0.006960 1.000000
v 3.916129 7.596797 -15.216862
vn 1.000000 0.000003 0.000000
vt 0.006960 0.000000
v 3.916204 -23.066889 7.494396
vn 1.000000 0.000003 0.000000
vt 1.000000 1.000000
v 3.916173 -7.873123 -22.939932
vn 1.000000 0.000003 0.000000
vt 1.000000 0.000000
f 9/9/9 18/18/18 15/15/15
f 9/9/9 13/13/13 7/7/7
f 13/13/13 9/9/9 14/14/14
f 15/15/15 14/14/14 9/9/9
f 14/14/14 15/15/15 16/16/16
f 17/17/17 16/16/16 15/15/15
f 8/8/8 7/7/7 12/12/12
f 7/7/7 8/8/8 9/9/9
f 10/10/10 9/9/9 8/8/8
f 8/8/8 11/11/11 10/10/10
f 3/3/3 1/1/1 2/2/2
f 1/1/1 3/3/3 4/4/4
f 5/5/5 1/1/1 4/4/4
f 1/1/1 5/5/5 6/6/6
f 21/21/21 19/19/19 20/20/20
f 19/19/19 21/21/21 22/22/22
f 24/24/24 22/22/22 21/21/21
f 21/21/21 23/23/23 24/24/24
usemtl cog_side
v 1.398649 -1.968247 -10.154844
vn -0.000001 0.204251 -0.978918
vt 0.013889 0.722222
v 1.398641 0.727028 -10.318287
vn 0.000002 -0.576765 -0.816910
vt 0.013889 1.138888
v 3.916645 0.727035 -10.318288
vn 0.000001 -0.321044 -0.947064
vt 1.013889 1.138889
v 1.398664 -7.512060 -15.422864
vn -0.000001 0.340159 -0.940368
vt 0.013889 0.305555
v 3.916653 -1.968240 -10.154844
vn -0.000001 0.473826 -0.880619
vt 1.013889 0.722223
v 3.916668 -7.512053 -15.422863
vn 0.000000 -0.170519 -0.985354
vt 1.013889 0.305556
v 3.916679 -11.247749 -12.953052
vn 0.000003 -0.998467 -0.055351
vt 1.013889 -0.111111
v 1.398675 -11.247756 -12.953052
vn 0.000002 -0.839832 -0.542846
vt 0.013889 -0.111111
v 1.398667 -8.572109 -5.788778
vn 0.000003 -0.995847 0.091038
vt 0.013889 -0.527778
v 3.916672 -8.572102 -5.788778
vn 0.000003 -0.980704 -0.195500
vt 1.013889 -0.527777
v 3.916675 -9.778193 -3.372881
vn 0.000001 -0.525725 -0.850654
vt 1.013889 -0.944444
v 1.398671 -9.778200 -3.372881
vn 0.000002 -0.745643 -0.666346
vt 0.013889 -0.944445
v 3.916695 -17.112341 -1.205805
vn 0.000002 -0.938602 -0.345003
vt 1.013889 -1.361111
v 1.398691 -17.112347 -1.205806
vn 0.000002 -0.644303 -0.764770
vt 0.013889 -1.361111
v 3.916695 -16.841269 3.264308
vn 0.000001 -0.547169 0.837022
vt 1.013889 -1.777777
v 1.398691 -16.841274 3.264306
vn 0.000002 -0.890034 0.455893
vt 0.013889 -1.777778
v 3.916674 -9.299001 4.529264
vn 0.000002 -0.659660 0.751564
vt 1.013889 -2.194444
v 1.398669 -9.299008 4.529264
vn 0.000001 -0.419082 0.907948
vt 0.013889 -2.194445
v 3.916669 -7.809817 6.781719
vn 0.000003 -0.999551 0.029964
vt 1.013889 -2.611111
v 1.398665 -7.809825 6.781719
vn 0.000003 -0.949894 0.312573
vt 0.013889 -2.611112
v 3.916675 -9.600150 14.216814
vn 0.000001 -0.906560 0.422076
vt 1.013889 -3.027777
v 1.398670 -9.600155 14.216811
vn 0.000002 -0.906561 0.422076
vt 0.013889 -3.027778
v 1.398641 0.727028 -10.318287
vn 0.000002 -0.576765 -0.816910
vt 0.013889 -3.861111
v 1.398627 5.593647 -16.217604
vn 0.000001 -0.207480 -0.978239
vt 0.013889 -3.444445
v 3.916631 5.593654 -16.217602
vn 0.000001 -0.207480 -0.978239
vt 1.013889 -3.444444
v 3.916663 -5.593382 16.217113
vn -0.000001 0.207480 0.978239
vt 1.013889 -3.444444
v 1.398659 -5.593390 16.217113
vn -0.000001 0.207480 0.978239
vt 0.013889 -3.444445
v 1.398665 -7.596773 15.216965
vn 0.000001 -0.446663 0.894702
vt 0.013889 -3.236111
v 3.916649 -0.726763 10.317799
vn -0.000001 0.321044 0.947064
vt 1.013889 -3.861111
v 1.398645 -0.726770 10.317798
vn -0.000002 0.576765 0.816910
vt 0.013889 -3.861111
v 3.916649 -0.726763 10.317799
vn -0.000001 0.321044 0.947064
vt 1.013889 -2.861111
v 3.916642 1.968511 10.154355
vn 0.000001 -0.473826 0.880619
vt 1.013889 -3.277777
v 1.398638 1.968503 10.154355
vn 0.000000 -0.204251 0.978919
vt 0.013889 -3.277778
v 3.916626 7.512324 15.422375
vn 0.000000 0.170519 0.985354
vt 1.013889 -3.694444
v 1.398622 7.512318 15.422374
vn 0.000001 -0.340159 0.940368
vt 0.013889 -3.694445
v 3.916626 7.512324 15.422375
vn 0.000000 0.170519 0.985354
vt 1.013889 -2.694444
v 3.916616 11.248020 12.952562
vn -0.000003 0.998467 0.055351
vt 1.013889 -3.111111
v 1.398612 11.248013 12.952563
vn -0.000002 0.839832 0.542846
vt 0.013889 -3.111111
v 3.916623 8.572371 5.788288
vn -0.000003 0.980704 0.195500
vt 1.013889 -3.527777
v 1.398619 8.572365 5.788289
vn -0.000003 0.995847 -0.091038
vt 0.013889 -3.527778
v 3.916620 9.778463 3.372391
vn -0.000002 0.525725 0.850654
vt 1.013889 -3.944444
v 1.398615 9.778456 3.372391
vn -0.000002 0.745643 0.666346
vt 0.013889 -3.944445
v 3.916620 9.778463 3.372391
vn -0.000002 0.525725 0.850654
vt 1.013889 -2.944444
v 3.916599 17.112608 1.205319
vn -0.000003 0.938601 0.345003
vt 1.013889 -3.361111
v 1.398595 17.112600 1.205319
vn -0.000002 0.644303 0.764771
vt 0.013889 -3.361111
v 1.398615 9.778456 3.372391
vn -0.000002 0.745643 0.666346
vt 0.013889 -2.944445
v 1.398616 9.600413 -14.217300
vn -0.000003 0.906561 -0.422076
vt 0.013889 -3.027778
v 3.916620 9.600421 -14.217300
vn -0.000003 0.906561 -0.422076
vt 1.013889 -3.027777
v 3.916625 7.597037 -15.217451
vn -0.000001 0.446663 -0.894702
vt 1.013889 -3.236111
v 1.398621 7.597030 -15.217452
vn -0.000001 0.446663 -0.894702
vt 0.013889 -3.236111
v 3.916669 -7.596766 15.216964
vn 0.000001 -0.446663 0.894702
vt 1.013889 -3.236111
v 3.916645 0.727035 -10.318288
vn 0.000001 -0.321044 -0.947064
vt 1.013889 -3.861111
v 1.398645 -0.726770 10.317798
vn -0.000002 0.576765 0.816910
vt 0.013889 -2.861111
v 1.397219 -3.652953 -7.834565
vn 1.000000 0.000003 0.000000
vt 0.933013 0.250000
v 1.397208 0.753509 -8.611544
vn 1.000000 0.000003 0.000000
vt 1.000000 0.500000
v 1.397197 4.958107 -7.081196
vn 1.000000 0.000003 0.000000
vt 0.933013 0.750000
v 1.397189 7.834221 -3.653577
vn 1.000000 0.000003 0.000000
vt 0.750000 0.933013
v 1.397186 8.611199 0.752884
vn 1.000000 0.000003 0.000000
vt 0.500000 1.000000
v 1.397190 7.080853 4.957483
vn 1.000000 0.000003 0.000000
vt 0.250000 0.933013
v 1.397199 3.653233 7.833596
vn 1.000000 0.000003 0.000000
vt 0.066987 0.750000
v 1.397210 -0.753229 8.610576
vn 1.000000 0.000003 0.000000
vt 0.000000 0.500000
v 1.397221 -4.957827 7.080227
vn 1.000000 0.000003 0.000000
vt 0.066987 0.250000
v 1.397229 -7.833941 3.652609
vn 1.000000 0.000003 0.000000
vt 0.250000 0.066987
v 1.397231 -8.610920 -0.753853
vn 1.000000 0.000003 0.000000
vt 0.500000 0.000000
v 1.397228 -7.080572 -4.958450
vn 1.000000 0.000003 0.000000
vt 0.750000 0.066987
v 1.398621 7.810081 -6.782207
vn -0.000003 0.949894 -0.312572
vt 0.013889 -2.611111
v 3.916625 7.810088 -6.782207
vn -0.000003 0.999551 -0.029964
vt 1.013889 -2.611111
v 1.398621 7.810081 -6.782207
vn -0.000003 0.949894 -0.312572
vt 0.013889 -3.611111
v 1.398617 9.299264 -4.529752
vn -0.000001 0.419082 -0.907948
vt 0.013889 -3.194445
v 3.916621 9.299271 -4.529752
vn -0.000002 0.659660 -0.751564
vt 1.013889 -3.194444
v 3.916625 7.810088 -6.782207
vn -0.000003 0.999551 -0.029964
vt 1.013889 -3.611111
v 1.398596 16.841532 -3.264794
vn -0.000002 0.890035 -0.455893
vt 0.013889 -2.777778
v 3.916600 16.841537 -3.264795
vn -0.000001 0.547169 -0.837022
vt 1.013889 -2.777777
v 1.398596 16.841532 -3.264794
vn -0.000002 0.890035 -0.455893
vt 0.013889 -3.777778
v 3.916600 16.841537 -3.264795
vn -0.000001 0.547169 -0.837022
vt 1.013889 -3.777777
v 1.398622 7.512318 15.422374
vn 0.000001 -0.340159 0.940368
vt 0.013889 -2.694445
f 82/82/82 83/83/83 84/84/84
f 81/81/81 82/82/82 80/80/80
f 84/84/84 80/80/80 82/82/82
f 80/80/80 84/84/84 88/88/88
f 86/86/86 88/88/88 84/84/84
f 88/88/88 86/86/86 87/87/87
f 84/84/84 85/85/85 86/86/86
f 79/79/79 80/80/80 78/78/78
f 88/88/88 78/78/78 80/80/80
f 78/78/78 88/88/88 89/89/89
f 26/26/26 27/27/27 25/25/25
f 29/29/29 25/25/25 27/27/27
f 25/25/25 29/29/29 28/28/28
f 30/30/30 28/28/28 29/29/29
f 28/28/28 30/30/30 32/32/32
f 31/31/31 32/32/32 30/30/30
f 32/32/32 31/31/31 33/33/33
f 34/34/34 33/33/33 31/31/31
f 33/33/33 34/34/34 36/36/36
f 35/35/35 36/36/36 34/34/34
f 36/36/36 35/35/35 38/38/38
f 37/37/37 38/38/38 35/35/35
f 38/38/38 37/37/37 40/40/40
f 39/39/39 40/40/40 37/37/37
f 40/40/40 39/39/39 42/42/42
f 41/41/41 42/42/42 39/39/39
f 42/42/42 41/41/41 44/44/44
f 43/43/43 44/44/44 41/41/41
f 44/44/44 43/43/43 46/46/46
f 45/45/45 46/46/46 43/43/43
f 46/46/46 45/45/45 75/75/75
f 54/54/54 51/51/51 50/50/50
f 52/52/52 50/50/50 51/51/51
f 50/50/50 52/52/52 75/75/75
f 46/46/46 75/75/75 52/52/52
f 50/50/50 53/53/53 54/54/54
f 47/47/47 48/48/48 49/49/49
f 74/74/74 49/49/49 48/48/48
f 49/49/49 74/74/74 73/73/73
f 71/71/71 73/73/73 74/74/74
f 73/73/73 71/71/71 72/72/72
f 91/91/91 72/72/72 71/71/71
f 49/49/49 76/76/76 47/47/47
f 71/71/71 90/90/90 91/91/91
f 65/65/65 66/66/66 63/63/63
f 64/64/64 63/63/63 66/66/66
f 63/63/63 64/64/64 61/61/61
f 62/62/62 61/61/61 64/64/64
f 61/61/61 62/62/62 60/60/60
f 100/100/100 60/60/60 62/62/62
f 58/58/58 59/59/59 56/56/56
f 57/57/57 56/56/56 59/59/59
f 56/56/56 57/57/57 55/55/55
f 77/77/77 55/55/55 57/57/57
f 99/99/99 98/98/98 68/68/68
f 69/69/69 68/68/68 98/98/98
f 68/68/68 69/69/69 67/67/67
f 70/70/70 67/67/67 69/69/69
f 96/96/96 97/97/97 93/93/93
f 94/94/94 93/93/93 97/97/97
f 93/93/93 94/94/94 92/92/92
f 95/95/95 92/92/92 94/94/94
usemtl P1_Cog_side
v 1.397429 -7.833729 3.652634
vn 0.000002 -0.865118 0.501568
vt 1.000000 -3.118022
v 1.397421 -4.957485 7.080572
vn 0.000001 -0.498384 0.866956
vt 1.000000 -3.578243
v -3.916460 -4.957498 7.080570
vn 0.000002 -0.644166 0.764885
vt 0.000000 -3.578243
v -3.916452 -7.833743 3.652634
vn 0.000002 -0.940304 0.340336
vt 0.000000 -3.118022
v 1.397421 -4.957485 7.080572
vn 0.000001 -0.498384 0.866956
vt 1.000000 -2.578243
v 1.397409 -0.753073 8.610437
vn 0.000000 0.001799 0.999998
vt 1.000000 -3.038462
v -3.916472 -0.753086 8.610436
vn 0.000000 -0.175396 0.984498
vt 0.000000 -3.038462
v -3.916460 -4.957498 7.080570
vn 0.000002 -0.644166 0.764885
vt 0.000000 -2.578243
v 1.397398 3.653474 7.833732
vn -0.000001 0.501612 0.865093
vt 1.000000 -3.500000
v -3.916483 3.653460 7.833734
vn -0.000001 0.340306 0.940315
vt 0.000000 -3.500000
v 1.397398 3.653474 7.833732
vn -0.000001 0.501612 0.865093
vt 1.000000 1.004504
v 1.397390 7.080954 4.957138
vn -0.000002 0.866952 0.498392
vt 1.000000 0.563738
v -3.916492 7.080940 4.957137
vn -0.000002 0.764925 0.644120
vt 0.000000 0.563738
v -3.916483 3.653460 7.833734
vn -0.000001 0.340306 0.940315
vt 0.000000 1.004504
v 1.397387 8.611255 0.752496
vn -0.000003 0.999998 -0.001821
vt 1.000000 0.103518
v -3.916495 8.611240 0.752495
vn -0.000003 0.984493 0.175424
vt 0.000000 0.103518
v 1.397389 7.834263 -3.653942
vn -0.000002 0.865100 -0.501599
vt 1.000000 -0.356702
v -3.916492 7.834249 -3.653942
vn -0.000003 0.940305 -0.340333
vt 0.000000 -0.356703
v 1.397398 4.958365 -7.080966
vn -0.000001 0.498461 -0.866912
vt 1.000000 -0.816922
v -3.916483 4.958352 -7.080966
vn -0.000002 0.644170 -0.764882
vt 0.000000 -0.816923
v 1.397409 0.753606 -8.611745
vn 0.000000 -0.001746 -0.999998
vt 1.000000 -1.277142
v -3.916472 0.753592 -8.611746
vn 0.000000 0.175506 -0.984478
vt 0.000000 -1.277143
v 1.397420 -3.652940 -7.835039
vn 0.000001 -0.501615 -0.865091
vt 1.000000 -1.737362
v -3.916461 -3.652953 -7.835040
vn 0.000001 -0.340308 -0.940314
vt 0.000000 -1.737363
v 1.397429 -7.080362 -4.958467
vn 0.000002 -0.866901 -0.498481
vt 1.000000 -2.197582
v -3.916452 -7.080374 -4.958469
vn 0.000002 -0.764895 -0.644155
vt 0.000000 -2.197582
v 1.397432 -8.611064 -0.754717
vn 0.000003 -0.999998 0.001799
vt 1.000000 -2.657803
v -3.916449 -8.611078 -0.754718
vn 0.000003 -0.984477 -0.175513
vt 0.000000 -2.657803
f 113/113/113 111/111/111 112/112/112
f 111/111/111 113/113/113 114/114/114
f 102/102/102 103/103/103 101/101/101
f 104/104/104 101/101/101 103/103/103
f 101/101/101 104/104/104 127/127/127
f 128/128/128 127/127/127 104/104/104
f 127/127/127 128/128/128 125/125/125
f 126/126/126 125/125/125 128/128/128
f 125/125/125 126/126/126 123/123/123
f 124/124/124 123/123/123 126/126/126
f 123/123/123 124/124/124 121/121/121
f 122/122/122 121/121/121 124/124/124
f 121/121/121 122/122/122 119/119/119
f 120/120/120 119/119/119 122/122/122
f 119/119/119 120/120/120 117/117/117
f 118/118/118 117/117/117 120/120/120
f 117/117/117 118/118/118 115/115/115
f 116/116/116 115/115/115 118/118/118
f 115/115/115 116/116/116 112/112/112
f 113/113/113 112/112/112 116/116/116
f 109/109/109 110/110/110 106/106/106
f 107/107/107 106/106/106 110/110/110
f 106/106/106 107/107/107 105/105/105
f 108/108/108 105/105/105 107/107/107
