mtllib INST_PUZZLE_PIECE5_PIECE5_IRON.mtl
g Piece5_Iron
usemtl Piece5_Iron
v -2.122012 26.912436 -3.281662
vn 0.000000 0.694718 -0.719283
vt 0.287730 0.746667
v -2.122012 28.133345 -0.000413
vn 0.000000 1.000000 0.000000
vt 0.287730 0.500000
v 2.124082 28.133345 -0.000413
vn 0.000000 1.000000 0.000000
vt 0.000000 0.500000
v 2.124082 26.912436 -3.281662
vn 0.000000 0.694718 -0.719283
vt 0.000000 0.746667
v -2.122012 22.871572 -4.627365
vn 0.000000 -0.079333 -0.996848
vt 0.302415 0.406109
v 2.124082 22.871572 -4.627365
vn 0.000000 -0.079333 -0.996848
vt 0.000000 0.406109
v 2.124082 19.029032 -2.625413
vn 0.000000 -0.237850 -0.971302
vt 0.000000 0.576902
v -2.122012 19.029032 -2.625412
vn 0.000000 -0.237850 -0.971302
vt 0.302415 0.576902
v -2.122011 22.871572 4.626539
vn -1.000000 0.000000 0.000000
vt 0.129841 0.130944
v -2.122012 22.871572 -4.627365
vn -1.000000 0.000000 0.000000
vt 0.823591 0.130944
v -2.122012 19.029032 -2.625412
vn -1.000000 0.000000 0.000000
vt 0.673508 0.230084
v -2.122011 19.029032 2.624586
vn -1.000000 0.000000 0.000000
vt 0.279924 0.230084
v 2.124083 22.871572 4.626539
vn 0.000000 -0.079333 0.996848
vt 1.000102 0.343592
v -2.122011 22.871572 4.626539
vn 0.000000 -0.079333 0.996848
vt 0.700181 0.343592
v -2.122011 19.029032 2.624586
vn 0.000000 -0.237850 0.971302
vt 0.700181 0.464961
v 2.124082 19.029032 2.624586
vn 0.000000 -0.237850 0.971302
vt 1.000102 0.464961
v 2.124082 22.871572 -4.627365
vn 1.000000 0.000000 0.000000
vt 0.823591 0.130944
v 2.124083 22.871572 4.626539
vn 1.000000 0.000000 0.000000
vt 0.129841 0.130944
v 2.124082 19.029032 2.624586
vn 1.000000 0.000000 0.000000
vt 0.279924 0.230084
v 2.124082 19.029032 -2.625413
vn 1.000000 0.000000 0.000000
vt 0.673508 0.230084
v -2.122012 26.912436 -3.281662
vn 0.000000 0.694718 -0.719283
vt 0.302415 0.235316
v 2.124082 26.912436 -3.281662
vn 0.000000 0.694718 -0.719283
vt 0.000000 0.235316
v 2.124082 28.133345 -0.000413
vn 1.000000 0.000000 0.000000
vt 0.476716 -0.004813
v 2.124082 26.912436 3.280836
vn 1.000000 0.000000 0.000000
vt 0.230726 0.026687
v 2.124082 26.912436 -3.281662
vn 1.000000 0.000000 0.000000
vt 0.722706 0.026687
v -2.122012 28.133345 -0.000413
vn -1.000000 0.000000 0.000000
vt 0.476716 -0.004813
v -2.122012 26.912436 -3.281662
vn -1.000000 0.000000 0.000000
vt 0.722706 0.026687
v -2.122011 26.912436 3.280837
vn -1.000000 0.000000 0.000000
vt 0.230726 0.026687
v 2.124082 26.912436 3.280836
vn 0.000000 0.694718 0.719283
vt 1.000102 0.222222
v -2.122011 26.912436 3.280837
vn 0.000000 0.694718 0.719283
vt 0.700181 0.222222
v -2.122011 26.912436 3.280837
vn 0.000000 0.694718 0.719283
vt 1.000000 0.226546
v 2.124082 26.912436 3.280836
vn 0.000000 0.694718 0.719283
vt 0.704589 0.226546
v 2.124082 28.133345 -0.000413
vn 0.000000 1.000000 0.000000
vt 0.704589 0.371715
v -2.122012 28.133345 -0.000413
vn 0.000000 1.000000 0.000000
vt 1.000000 0.371715
v -2.122012 19.029032 -2.625412
vn 0.000000 -0.237850 -0.971302
vt 1.000000 0.225896
v 2.124082 19.029032 -2.625413
vn 0.000000 -0.237850 -0.971302
vt 0.669420 0.225896
v 2.124082 -2.842664 -2.625414
vn 0.000000 0.000000 -1.000000
vt 0.669420 0.750224
v -2.122012 -2.842664 -2.625413
vn 0.000000 0.000000 -1.000000
vt 1.000000 0.750224
v -2.122012 -2.842664 -2.625413
vn -1.000000 0.000000 0.000000
vt 0.673508 0.794388
v -2.122012 -2.842664 2.624585
vn -1.000000 0.000000 0.000000
vt 0.279924 0.794388
v 2.124082 19.029032 2.624586
vn 0.000000 -0.237850 0.971302
vt 0.285024 0.233819
v -2.122011 19.029032 2.624586
vn 0.000000 -0.237850 0.971302
vt 0.000000 0.233819
v -2.122012 -2.842664 2.624585
vn 0.000000 0.000000 1.000000
vt 0.000000 0.786215
v 2.124082 -2.842664 2.624585
vn 0.000000 0.000000 1.000000
vt 0.285024 0.786215
v 2.124082 -2.842664 2.624585
vn 1.000000 0.000000 0.000000
vt 0.279924 0.794388
v 2.124082 -2.842664 -2.625414
vn 1.000000 0.000000 0.000000
vt 0.673508 0.794388
f 1/1/1 3/3/3 4/4/4
f 3/3/3 1/1/1 2/2/2
f 12/12/12 39/39/39 40/40/40
f 39/39/39 12/12/12 11/11/11
f 9/9/9 11/11/11 12/12/12
f 11/11/11 9/9/9 10/10/10
f 28/28/28 10/10/10 9/9/9
f 10/10/10 28/28/28 26/26/26
f 26/26/26 27/27/27 10/10/10
f 18/18/18 25/25/25 23/23/23
f 25/25/25 18/18/18 17/17/17
f 19/19/19 17/17/17 18/18/18
f 17/17/17 19/19/19 20/20/20
f 45/45/45 20/20/20 19/19/19
f 20/20/20 45/45/45 46/46/46
f 23/23/23 24/24/24 18/18/18
f 14/14/14 29/29/29 30/30/30
f 29/29/29 14/14/14 13/13/13
f 15/15/15 13/13/13 14/14/14
f 13/13/13 15/15/15 16/16/16
f 6/6/6 21/21/21 22/22/22
f 21/21/21 6/6/6 5/5/5
f 7/7/7 5/5/5 6/6/6
f 5/5/5 7/7/7 8/8/8
f 33/33/33 31/31/31 32/32/32
f 31/31/31 33/33/33 34/34/34
f 37/37/37 35/35/35 36/36/36
f 35/35/35 37/37/37 38/38/38
f 43/43/43 41/41/41 42/42/42
f 41/41/41 43/43/43 44/44/44
usemtl Piston_Side
v -6.789004 -18.254740 -0.000415
vn -0.992722 0.000000 0.120428
vt 2.040674 0.809082
v -5.151309 -18.254740 4.499584
vn -0.683020 0.000000 0.730399
vt 2.368452 0.809082
v -5.151309 -2.577234 4.499585
vn -0.837885 0.000000 0.545847
vt 2.368452 0.301063
v -6.789004 -2.577234 -0.000414
vn -0.992720 0.000006 -0.120446
vt 2.040674 0.301063
v -1.004824 -18.254740 6.893138
vn -0.053816 0.000000 0.998551
vt 2.696229 0.809082
v -1.004824 -2.577236 6.893139
vn -0.290974 0.000000 0.956731
vt 2.696229 0.301063
v 3.710996 -18.254740 6.062083
vn 0.600611 0.000000 0.799541
vt 3.024007 0.809082
v 3.710996 -2.577236 6.062084
vn 0.391980 0.000000 0.919974
vt 3.024007 0.301063
v 3.710996 -18.254740 6.062083
vn 0.600611 0.000000 0.799541
vt 0.074007 0.809082
v 6.789121 -18.254740 2.394115
vn 0.974041 0.000000 0.226370
vt 0.401785 0.809082
v 6.789121 -2.577236 2.394116
vn 0.891643 0.000000 0.452740
vt 0.401785 0.301063
v 3.710996 -2.577236 6.062084
vn 0.391980 0.000000 0.919974
vt 0.074007 0.301063
v 6.789120 -18.254740 -2.394946
vn 0.891643 0.000000 -0.452740
vt 0.729563 0.809082
v 6.789121 -2.577235 -2.394945
vn 0.974041 0.000000 -0.226370
vt 0.729563 0.301063
v 3.710995 -18.254740 -6.062914
vn 0.391979 0.000000 -0.919974
vt 1.057341 0.809082
v 3.710995 -2.577235 -6.062913
vn 0.600611 0.000000 -0.799541
vt 1.057341 0.301063
v -1.004825 -18.254740 -6.893968
vn -0.291020 0.000015 -0.956717
vt 1.385118 0.809082
v -1.004825 -2.577234 -6.893967
vn -0.053861 0.000000 -0.998548
vt 1.385118 0.301063
v -5.151309 -18.254740 -4.500413
vn -0.837875 0.000021 -0.545862
vt 1.712896 0.809082
v -5.151309 -2.577234 -4.500413
vn -0.683020 0.000000 -0.730399
vt 1.712896 0.301063
v -7.358341 -28.133341 -6.428148
vn -0.837864 0.000000 -0.545879
vt 1.935585 0.790338
v -9.698184 -28.133341 -0.000415
vn -0.992718 0.000000 0.120458
vt 2.305584 0.790338
v -9.698184 -18.133341 -0.000414
vn -0.992719 0.000000 -0.120457
vt 2.305584 0.288285
v 5.301816 -18.133341 8.659739
vn 0.392049 0.000000 0.919945
vt 3.415585 0.288285
v -1.434511 -18.133341 9.847239
vn -0.290991 0.000000 0.956726
vt 3.045584 0.288285
v -1.434512 -28.133341 9.847239
vn -0.053795 0.000000 0.998552
vt 3.045584 0.790338
v 5.301816 -28.133341 8.659739
vn 0.600691 0.000000 0.799482
vt 3.415585 0.790338
v -7.358341 -18.133341 -6.428147
vn -0.683027 0.000000 -0.730393
vt 1.935585 0.288285
v -1.434513 -18.133341 -9.848069
vn -0.053795 0.000000 -0.998552
vt 1.565585 0.288285
v -1.434513 -28.133341 -9.848069
vn -0.290991 0.000000 -0.956726
vt 1.565585 0.790338
v 5.301816 -28.133341 8.659739
vn 0.600691 0.000000 0.799482
vt 0.085585 0.790338
v 9.698300 -28.133341 3.419505
vn 0.974050 0.000000 0.226333
vt 0.455585 0.790338
v 9.698300 -18.133341 3.419505
vn 0.891680 0.000000 0.452666
vt 0.455585 0.288285
v 5.301816 -18.133341 8.659739
vn 0.392049 0.000000 0.919945
vt 0.085585 0.288285
v -7.358340 -28.133341 6.427318
vn -0.683027 0.000000 0.730393
vt 2.675585 0.790338
v -7.358340 -18.133341 6.427319
vn -0.837864 0.000000 0.545879
vt 2.675585 0.288285
v 9.698299 -28.133341 -3.420337
vn 0.891680 0.000000 -0.452667
vt 0.825585 0.790338
v 9.698300 -18.133341 -3.420337
vn 0.974050 0.000000 -0.226333
vt 0.825585 0.288285
v 5.301815 -28.133341 -8.660570
vn 0.392048 0.000000 -0.919945
vt 1.195585 0.790338
v 5.301815 -18.133341 -8.660570
vn 0.600690 0.000000 -0.799482
vt 1.195585 0.288285
f 53/53/53 54/54/54 51/51/51
f 52/52/52 51/51/51 54/54/54
f 51/51/51 52/52/52 48/48/48
f 49/49/49 48/48/48 52/52/52
f 48/48/48 49/49/49 47/47/47
f 50/50/50 47/47/47 49/49/49
f 47/47/47 50/50/50 65/65/65
f 66/66/66 65/65/65 50/50/50
f 65/65/65 66/66/66 63/63/63
f 64/64/64 63/63/63 66/66/66
f 63/63/63 64/64/64 61/61/61
f 62/62/62 61/61/61 64/64/64
f 61/61/61 62/62/62 59/59/59
f 60/60/60 59/59/59 62/62/62
f 59/59/59 60/60/60 56/56/56
f 57/57/57 56/56/56 60/60/60
f 56/56/56 57/57/57 55/55/55
f 58/58/58 55/55/55 57/57/57
f 73/73/73 70/70/70 72/72/72
f 71/71/71 72/72/72 70/70/70
f 72/72/72 71/71/71 81/81/81
f 82/82/82 81/81/81 71/71/71
f 81/81/81 82/82/82 68/68/68
f 69/69/69 68/68/68 82/82/82
f 68/68/68 69/69/69 67/67/67
f 74/74/74 67/67/67 69/69/69
f 67/67/67 74/74/74 76/76/76
f 75/75/75 76/76/76 74/74/74
f 76/76/76 75/75/75 85/85/85
f 86/86/86 85/85/85 75/75/75
f 85/85/85 86/86/86 83/83/83
f 84/84/84 83/83/83 86/86/86
f 83/83/83 84/84/84 78/78/78
f 79/79/79 78/78/78 84/84/84
f 78/78/78 79/79/79 77/77/77
f 80/80/80 77/77/77 79/79/79
usemtl Piston_top
v 6.789121 -2.577235 -2.394945
vn 0.000000 1.000000 0.000000
vt 0.671010 0.969846
v 3.710995 -2.577235 -6.062913
vn 0.000000 1.000000 0.000000
vt 0.933013 0.750000
v -1.004825 -2.577234 -6.893967
vn 0.000000 1.000000 0.000000
vt 0.992404 0.413176
v 3.710996 -2.577236 6.062084
vn 0.000000 1.000000 0.000000
vt 0.066987 0.750000
v -6.789004 -2.577234 -0.000414
vn 0.000001 1.000000 0.000000
vt 0.500000 0.000000
v -5.151309 -2.577234 4.499585
vn 0.000000 1.000000 0.000000
vt 0.178606 0.116978
v -5.151309 -2.577234 -4.500413
vn 0.000000 1.000000 0.000000
vt 0.821394 0.116978
v 6.789121 -2.577236 2.394116
vn 0.000000 1.000000 0.000000
vt 0.328990 0.969846
v -1.004824 -2.577236 6.893139
vn 0.000000 1.000000 0.000000
vt 0.007596 0.413176
v -7.358340 -18.133341 6.427319
vn 0.000000 1.000000 0.000000
vt 0.178606 0.116978
v -1.434511 -18.133341 9.847239
vn 0.000000 1.000000 0.000000
vt 0.007596 0.413176
v 5.301816 -18.133341 8.659739
vn 0.000000 1.000000 0.000000
vt 0.066987 0.750000
v 9.698300 -18.133341 3.419505
vn -0.000001 1.000000 0.000000
vt 0.328990 0.969846
v 9.698300 -18.133341 -3.420337
vn 0.000000 1.000000 0.000000
vt 0.671010 0.969846
v 5.301815 -18.133341 -8.660570
vn 0.000000 1.000000 0.000001
vt 0.933013 0.750000
v -1.434513 -18.133341 -9.848069
vn 0.000000 1.000000 0.000000
vt 0.992404 0.413176
v -7.358341 -18.133341 -6.428147
vn 0.000000 1.000000 0.000000
vt 0.821394 0.116978
v -9.698184 -18.133341 -0.000414
vn 0.000000 1.000000 0.000000
vt 0.500000 0.000000
f 87/87/87 88/88/88 89/89/89
f 94/94/94 87/87/87 90/90/90
f 89/89/89 90/90/90 87/87/87
f 90/90/90 89/89/89 92/92/92
f 93/93/93 92/92/92 89/89/89
f 92/92/92 93/93/93 91/91/91
f 92/92/92 95/95/95 90/90/90
f 99/99/99 100/100/100 98/98/98
f 102/102/102 98/98/98 100/100/100
f 98/98/98 102/102/102 96/96/96
f 103/103/103 96/96/96 102/102/102
f 96/96/96 103/103/103 104/104/104
f 96/96/96 97/97/97 98/98/98
f 100/100/100 101/101/101 102/102/102
