mtllib OVERHILL_A_01_OBJECT316.mtl
g Object316
usemtl Lvl_dwarven_plc_stone03
v -7425.467773 -400.233337 7766.224609
vn 0.995212 0.097745 0.000000
vt 2.408118 -1.000000
v -7425.467285 -400.233337 7961.751953
vn 0.989167 0.146796 -0.000002
vt 3.010147 -1.000000
v -7411.986328 -444.652374 7961.751465
vn 0.989167 0.146796 -0.000002
vt 3.010022 0.000500
v -7425.466797 -400.233337 8158.171875
vn 0.989167 0.146796 0.000000
vt 3.612176 -1.000000
v -7411.986328 -444.652405 8158.171875
vn 0.989167 0.146795 0.000000
vt 3.611926 0.000500
v -7411.986816 -444.652374 7766.224121
vn 0.989167 0.146796 0.000001
vt 2.408117 0.000500
f 4/4/4 5/5/5 2/2/2
f 3/3/3 2/2/2 5/5/5
f 2/2/2 3/3/3 1/1/1
f 6/6/6 1/1/1 3/3/3
usemtl Lvl_dwarven_plc_stone06
v -7411.986328 -523.842346 8158.171875
vn 1.000000 0.000001 0.000000
vt 3.611926 0.999500
v -7411.986328 -523.842346 7961.751465
vn 1.000000 0.000001 -0.000002
vt 3.010022 0.999500
v -7411.986328 -444.652374 7961.751465
vn 0.989167 0.146796 -0.000002
vt 3.010022 0.000500
v -7411.986816 -523.842346 7766.224121
vn 1.000000 0.000001 0.000001
vt 2.408117 0.999500
v -7411.986816 -444.652374 7766.224121
vn 0.989167 0.146796 0.000001
vt 2.408117 0.000500
v -7411.986328 -444.652405 8158.171875
vn 0.989167 0.146795 0.000000
vt 3.611926 0.000500
f 10/10/10 11/11/11 8/8/8
f 9/9/9 8/8/8 11/11/11
f 8/8/8 9/9/9 7/7/7
f 12/12/12 7/7/7 9/9/9
