mtllib OVERHILL_A_01_LINE349.mtl
g Line349
usemtl Rock_Grass_Blend_M2
v -6250.204102 893.176697 4033.155762
vn -0.855792 0.218979 0.468689
vt 0.113999 1.000000
v -6244.452148 920.067749 4031.094727
vn -0.807160 0.138593 0.573834
vt 0.113999 0.878600
v -6242.618652 920.067749 3980.958008
vn -0.970062 0.110240 -0.216397
vt 0.000000 0.878600
v -6248.222656 893.176697 3978.968506
vn -0.882106 0.214839 -0.419205
vt 0.000000 1.000000
v -6195.723633 893.176697 4065.524414
vn -0.323545 0.175143 0.929862
vt 0.247231 1.000000
v -6194.043945 920.067749 4061.043945
vn -0.324938 0.149388 0.933862
vt 0.247231 0.878600
v -6132.362305 893.176697 4074.043945
vn 0.161836 0.202203 0.965879
vt 0.381641 1.000000
v -6135.418945 920.067749 4068.926514
vn 0.344756 0.195256 0.918160
vt 0.381641 0.878600
v -6093.485840 893.176697 4033.763672
vn 0.915463 0.228909 0.330950
vt 0.499336 1.000000
v -6099.448242 920.067749 4031.657227
vn 0.921327 0.202390 0.331955
vt 0.499336 0.878600
v -6097.747070 893.176697 3976.293701
vn 0.705472 0.203344 -0.678941
vt 0.620493 1.000000
v -6103.391113 920.067749 3978.482910
vn 0.818607 0.189499 -0.542193
vt 0.620493 0.878600
v -6152.688965 893.176697 3947.508545
vn 0.325303 0.168793 -0.930423
vt 0.750897 1.000000
v -6154.226074 920.067749 3951.849609
vn 0.326217 0.151945 -0.933003
vt 0.750897 0.878600
v -6215.589355 893.176697 3935.405518
vn -0.157109 0.206866 -0.965672
vt 0.885565 1.000000
v -6212.424805 920.067749 3940.651123
vn -0.418552 0.143690 -0.896754
vt 0.885565 0.878600
v -6248.222656 893.176697 3978.968506
vn -0.882106 0.214839 -0.419205
vt 1.000000 1.000000
v -6242.618652 920.067749 3980.958008
vn -0.970062 0.110240 -0.216397
vt 1.000000 0.878600
v -6170.230957 1114.684937 3963.750488
vn 0.240775 0.765489 -0.596703
vt 0.489983 0.089868
v -6204.308594 1119.745605 4002.295654
vn -0.040658 0.998450 -0.038016
vt 0.271798 0.477572
v -6164.322754 1119.745605 4016.455322
vn 0.030680 0.999365 0.018130
vt 0.582027 0.561503
v -6125.967773 1114.684937 3986.004883
vn 0.670931 0.678262 -0.299687
vt 0.827023 0.244885
v -6245.610840 1114.684937 4038.276611
vn -0.589443 0.779604 0.211601
vt -0.002443 0.850060
v -6244.288086 1114.684937 3988.138184
vn -0.685627 0.664569 -0.297093
vt -0.038384 0.393655
v -6247.424316 1097.726929 3987.031982
vn -0.940056 0.079605 -0.331599
vt -0.143931 0.362745
v -6249.242188 1097.726929 4039.190674
vn -0.867062 0.002620 0.498194
vt -0.093587 0.931435
v -6203.377441 1114.684937 4063.368896
vn -0.309078 0.597513 0.739898
vt 0.334475 1.030682
v -6203.900391 1097.726929 4064.762939
vn -0.334265 -0.066224 0.940150
vt 0.303436 1.157621
v -6151.875977 1114.684937 4071.089600
vn 0.154228 0.656776 0.738146
vt 0.705701 1.035884
v -6150.333496 1097.726929 4074.063965
vn 0.406009 -0.025539 0.913512
vt 0.771120 1.153909
v -6122.393066 1114.684937 4030.254883
vn 0.701495 0.651847 0.288098
vt 0.892255 0.645433
v -6118.688477 1097.726929 4031.515625
vn 0.947022 0.084876 0.309751
vt 1.004114 0.655433
v -6125.967773 1114.684937 3986.004883
vn 0.670931 0.678262 -0.299687
vt 0.827023 0.244885
v -6122.574707 1097.726929 3983.934570
vn 0.821599 0.151679 -0.549517
vt 0.927721 0.183367
v -6170.230957 1114.684937 3963.750488
vn 0.240775 0.765489 -0.596703
vt 0.489983 0.089868
v -6167.074219 1097.726929 3959.016602
vn 0.337813 0.156577 -0.928098
vt 0.541621 -0.029701
v -6218.991211 1114.684937 3954.368164
vn -0.116652 0.742013 -0.660159
vt 0.118877 0.059061
v -6221.865234 1097.726929 3947.960693
vn -0.371446 0.132887 -0.918896
vt 0.063230 -0.064913
v -6244.288086 1114.684937 3988.138184
vn -0.685627 0.664569 -0.297093
vt -0.038384 0.393655
v -6247.424316 1097.726929 3987.031982
vn -0.940056 0.079605 -0.331599
vt -0.143931 0.362745
v -6243.573242 1024.880249 3980.619141
vn -0.938248 -0.020237 -0.345371
vt -0.355974 0.312452
v -6241.167480 1024.880249 4021.189209
vn -0.858989 -0.098904 0.502350
vt -0.273892 1.060817
v -6190.065430 1024.880249 4051.550537
vn -0.264380 -0.044176 0.963406
vt 0.258185 1.367863
v -6147.522949 1024.880249 4050.514160
vn 0.515245 0.001880 0.857041
vt 0.877931 1.378219
v -6115.321777 1024.880249 4022.988525
vn 0.966576 0.067357 0.247375
vt 1.220154 0.629286
v -6122.444336 1024.880249 3982.027588
vn 0.815172 0.086085 -0.572786
vt 1.104674 0.063403
v -6157.089844 1024.880249 3964.055176
vn 0.309755 0.054638 -0.949245
vt 0.640002 -0.250059
v -6216.089355 1024.880249 3952.702637
vn -0.434014 0.011098 -0.900838
vt -0.056758 -0.295457
v -6243.573242 1024.880249 3980.619141
vn -0.938248 -0.020237 -0.345371
vt -0.355974 0.312452
v -6244.288086 1114.684937 3988.138184
vn -0.685627 0.664569 -0.297093
vt -0.038384 0.393655
v -6245.610840 1114.684937 4038.276611
vn -0.589443 0.779604 0.211601
vt -0.002443 0.850060
v -6203.377441 1114.684937 4063.368896
vn -0.309078 0.597513 0.739898
vt 0.334475 1.030682
v -6151.875977 1114.684937 4071.089600
vn 0.154228 0.656776 0.738146
vt 0.705701 1.035884
v -6122.393066 1114.684937 4030.254883
vn 0.701495 0.651847 0.288098
vt 0.892255 0.645433
v -6218.991211 1114.684937 3954.368164
vn -0.116652 0.742013 -0.660159
vt 0.118877 0.059061
v -6241.167480 1024.880249 4021.189209
vn -0.858989 -0.098904 0.502350
vt 0.113999 0.405423
v -6243.573242 1024.880249 3980.619141
vn -0.938248 -0.020237 -0.345371
vt 0.000000 0.405423
v -6190.065430 1024.880249 4051.550537
vn -0.264380 -0.044176 0.963406
vt 0.247231 0.405423
v -6147.522949 1024.880249 4050.514160
vn 0.515245 0.001880 0.857041
vt 0.381641 0.405423
v -6115.321777 1024.880249 4022.988525
vn 0.966576 0.067357 0.247375
vt 0.499336 0.405423
v -6122.444336 1024.880249 3982.027588
vn 0.815172 0.086085 -0.572786
vt 0.620493 0.405423
v -6157.089844 1024.880249 3964.055176
vn 0.309755 0.054638 -0.949245
vt 0.750897 0.405423
v -6216.089355 1024.880249 3952.702637
vn -0.434014 0.011098 -0.900838
vt 0.885565 0.405423
v -6243.573242 1024.880249 3980.619141
vn -0.938248 -0.020237 -0.345371
vt 1.000000 0.405423
f 21/21/21 54/54/54 22/22/22
f 54/54/54 21/21/21 53/53/53
f 52/52/52 53/53/53 21/21/21
f 51/51/51 52/52/52 21/21/21
f 50/50/50 51/51/51 20/20/20
f 21/21/21 20/20/20 51/51/51
f 20/20/20 21/21/21 19/19/19
f 22/22/22 19/19/19 21/21/21
f 19/19/19 55/55/55 20/20/20
f 50/50/50 20/20/20 55/55/55
f 49/49/49 40/40/40 48/48/48
f 38/38/38 48/48/48 40/40/40
f 48/48/48 38/38/38 47/47/47
f 36/36/36 47/47/47 38/38/38
f 47/47/47 36/36/36 46/46/46
f 34/34/34 46/46/46 36/36/36
f 46/46/46 34/34/34 45/45/45
f 32/32/32 45/45/45 34/34/34
f 45/45/45 32/32/32 44/44/44
f 30/30/30 44/44/44 32/32/32
f 44/44/44 30/30/30 43/43/43
f 28/28/28 43/43/43 30/30/30
f 43/43/43 28/28/28 42/42/42
f 26/26/26 42/42/42 28/28/28
f 42/42/42 26/26/26 41/41/41
f 25/25/25 41/41/41 26/26/26
f 24/24/24 25/25/25 23/23/23
f 26/26/26 23/23/23 25/25/25
f 23/23/23 26/26/26 27/27/27
f 28/28/28 27/27/27 26/26/26
f 27/27/27 28/28/28 29/29/29
f 30/30/30 29/29/29 28/28/28
f 29/29/29 30/30/30 31/31/31
f 32/32/32 31/31/31 30/30/30
f 31/31/31 32/32/32 33/33/33
f 34/34/34 33/33/33 32/32/32
f 33/33/33 34/34/34 35/35/35
f 36/36/36 35/35/35 34/34/34
f 35/35/35 36/36/36 37/37/37
f 38/38/38 37/37/37 36/36/36
f 37/37/37 38/38/38 39/39/39
f 40/40/40 39/39/39 38/38/38
f 61/61/61 60/60/60 10/10/10
f 59/59/59 10/10/10 60/60/60
f 10/10/10 59/59/59 8/8/8
f 58/58/58 8/8/8 59/59/59
f 8/8/8 58/58/58 6/6/6
f 2/2/2 6/6/6 58/58/58
f 6/6/6 2/2/2 1/1/1
f 3/3/3 1/1/1 2/2/2
f 1/1/1 3/3/3 4/4/4
f 57/57/57 3/3/3 56/56/56
f 2/2/2 56/56/56 3/3/3
f 56/56/56 2/2/2 58/58/58
f 62/62/62 61/61/61 12/12/12
f 10/10/10 12/12/12 61/61/61
f 12/12/12 10/10/10 9/9/9
f 8/8/8 9/9/9 10/10/10
f 9/9/9 8/8/8 7/7/7
f 6/6/6 7/7/7 8/8/8
f 7/7/7 6/6/6 5/5/5
f 1/1/1 5/5/5 6/6/6
f 9/9/9 11/11/11 12/12/12
f 14/14/14 12/12/12 11/11/11
f 12/12/12 14/14/14 62/62/62
f 16/16/16 62/62/62 14/14/14
f 62/62/62 16/16/16 63/63/63
f 64/64/64 63/63/63 16/16/16
f 16/16/16 18/18/18 64/64/64
f 16/16/16 17/17/17 18/18/18
f 17/17/17 16/16/16 15/15/15
f 14/14/14 15/15/15 16/16/16
f 15/15/15 14/14/14 13/13/13
f 11/11/11 13/13/13 14/14/14
