mtllib OVERHILL_A_01_LINE194.mtl
g Line194
usemtl Lvl_dwarven_plc_stone02
v -7566.527832 -42.788517 8471.794922
vn 0.000000 -1.000000 0.000000
vt 0.767740 0.097651
v -7566.528320 -42.788509 8350.590820
vn 0.000000 -1.000000 0.000000
vt 0.255002 0.097651
v -7403.375488 -42.788502 8229.385742
vn 0.000000 -1.000000 0.000000
vt -0.257736 -0.350621
v -7403.375488 -42.788521 8592.981445
vn 0.000000 -1.000000 0.000000
vt 1.280402 -0.350621
v -7743.578125 -42.788521 8592.981445
vn -0.000001 -1.000000 0.000000
vt 1.280401 0.584106
v -7743.578125 -42.788517 8471.794922
vn -0.000002 -1.000000 0.000000
vt 0.767740 0.584107
v -7566.527832 -42.788521 8592.981445
vn 0.000000 -1.000000 0.000000
vt 1.280401 0.097650
v -7802.470215 -42.788330 8592.981445
vn -0.000003 -1.000000 0.000000
vt 1.280401 0.745916
v -7802.470215 -42.788357 8464.901367
vn -0.000002 -1.000000 0.000000
vt 0.738577 0.745916
v -7743.578613 -42.788509 8350.590820
vn -0.000001 -1.000000 0.000000
vt 0.255002 0.584107
v -7743.578613 -42.788506 8229.385742
vn -0.000001 -1.000000 0.000000
vt -0.257737 0.584107
v -7566.528320 -42.788506 8229.385742
vn 0.000000 -1.000000 0.000000
vt -0.257736 0.097651
v -7802.470215 -42.788410 8356.113281
vn -0.000002 -1.000000 0.000000
vt 0.278365 0.745916
v -7802.470215 -42.788406 8229.385742
vn -0.000002 -1.000000 0.000000
vt -0.257737 0.745915
f 10/10/10 14/14/14 11/11/11
f 14/14/14 10/10/10 13/13/13
f 9/9/9 13/13/13 10/10/10
f 11/11/11 2/2/2 10/10/10
f 2/2/2 11/11/11 12/12/12
f 12/12/12 3/3/3 2/2/2
f 1/1/1 2/2/2 3/3/3
f 2/2/2 1/1/1 10/10/10
f 6/6/6 10/10/10 1/1/1
f 10/10/10 6/6/6 9/9/9
f 3/3/3 4/4/4 1/1/1
f 4/4/4 7/7/7 1/1/1
f 5/5/5 1/1/1 7/7/7
f 1/1/1 5/5/5 6/6/6
f 8/8/8 6/6/6 5/5/5
f 6/6/6 8/8/8 9/9/9
