mtllib OVERHILL_A_01_OBJECT201.mtl
g Object201
usemtl Material_#44425
v -10223.904297 -1174.335571 12886.130859
vn -0.958286 0.241965 -0.152121
vt 0.499990 -0.017606
v -10205.915039 -1100.462402 12886.130859
vn -0.962955 0.234493 -0.133160
vt 0.499990 -0.219847
v -10196.956055 -1174.335571 12843.830078
vn -0.826148 0.201179 -0.526314
vt 0.330085 -0.017606
v -10200.035156 -1109.419678 12912.652344
vn -0.852543 0.225140 0.471681
vt 0.580085 -0.187080
v -10218.024414 -1174.335571 12912.652344
vn -0.794869 0.220271 0.565388
vt 0.580085 -0.017606
v -10193.723633 -1175.229614 12928.133789
vn -0.527691 0.146232 0.836755
vt 0.665037 -0.076313
v -10205.915039 -1100.462402 12886.130859
vn 0.988381 0.094103 -0.119363
vt 0.658117 0.159959
v -10200.035156 -1109.419678 12912.652344
vn 0.978444 0.046503 -0.201210
vt 0.641007 0.078681
v -10193.723633 -1175.229614 12928.133789
vn 0.988381 0.094103 -0.119363
vt 0.530623 0.021980
v -10196.956055 -1174.335571 12843.830078
vn 0.989360 0.140851 -0.036435
vt 0.533921 0.275698
f 9/9/9 7/7/7 8/8/8
f 7/7/7 9/9/9 10/10/10
f 4/4/4 5/5/5 6/6/6
f 5/5/5 4/4/4 1/1/1
f 2/2/2 1/1/1 4/4/4
f 1/1/1 2/2/2 3/3/3
