mtllib OVERHILL_A_01_LINE162.mtl
g Line162
usemtl Stone_Moss_Blend
v -10013.155273 -1464.917725 12972.497070
vn 0.000000 0.000000 1.000000
vt 0.593328 1.000000
v -10013.155273 -1247.018677 12972.497070
vn 0.000000 0.000000 1.000000
vt 0.593328 0.244274
v -10192.269531 -1247.018677 12972.497070
vn 0.000000 0.000000 1.000000
vt 0.000000 0.244274
v -10192.269531 -1464.917603 12972.497070
vn 0.000000 0.000000 1.000000
vt 0.000000 1.000000
v -10013.155273 -1464.917603 12849.730469
vn 1.000000 0.000000 0.000000
vt 1.000000 1.000000
v -10013.155273 -1247.018677 12849.730469
vn 1.000000 -0.000002 0.000002
vt 1.000000 0.244274
v -10013.155273 -1247.018677 12972.497070
vn 1.000000 0.000000 0.000000
vt 0.593328 0.244274
v -10013.155273 -1464.917725 12972.497070
vn 1.000000 0.000000 0.000000
vt 0.593328 1.000000
v -10192.269531 -1464.917603 12972.497070
vn -1.000000 0.000000 0.000000
vt 2.000000 1.000000
v -10192.269531 -1247.018677 12972.497070
vn -1.000000 0.000000 0.000000
vt 2.000000 0.244274
v -10192.269531 -1247.018677 12849.729492
vn -1.000000 0.000000 0.000000
vt 1.593328 0.244274
v -10192.269531 -1464.917603 12849.730469
vn -1.000000 0.000000 0.000000
vt 1.593328 1.000000
v -10013.155273 -1029.119751 12972.497070
vn 0.000000 0.006142 0.999981
vt 0.593328 -0.511453
v -10192.269531 -1029.119629 12972.497070
vn 0.000000 0.000000 1.000000
vt 0.000000 -0.511453
v -10192.269531 -1175.917603 12972.497070
vn 0.000000 0.000000 1.000000
vt 0.000000 -0.002322
v -10013.155273 -1175.917603 12972.497070
vn 0.000000 0.000000 1.000000
vt 0.593328 -0.002322
v -10013.155273 -1029.119629 12849.730469
vn 1.000000 0.000000 -0.000000
vt 1.000000 -0.511453
v -10013.155273 -1029.119751 12972.497070
vn 1.000000 0.000000 -0.000000
vt 0.593328 -0.511453
v -10013.155273 -1175.917603 12972.497070
vn 1.000000 0.000000 0.000000
vt 0.593328 -0.002322
v -10013.155273 -1175.917603 12849.730469
vn 1.000000 0.000000 0.000000
vt 1.000000 -0.002322
v -10192.269531 -1029.119629 12849.730469
vn 0.000003 0.000003 -1.000000
vt 1.593328 -0.511453
v -10013.155273 -1029.119629 12849.730469
vn -0.000001 -0.006142 -0.999981
vt 1.000000 -0.511453
v -10013.155273 -1175.917603 12849.730469
vn 0.000004 0.000002 -1.000000
vt 1.000000 -0.002322
v -10192.269531 -1175.917603 12849.729492
vn 0.000005 0.000001 -1.000000
vt 1.593328 -0.002322
v -10192.269531 -1029.119629 12972.497070
vn -1.000000 0.000000 0.000000
vt 2.000000 -0.511453
v -10192.269531 -1029.119629 12849.730469
vn -1.000000 0.000000 0.000000
vt 1.593328 -0.511453
v -10192.269531 -1175.917603 12849.729492
vn -1.000000 0.000000 0.000000
vt 1.593328 -0.002322
v -10192.269531 -1175.917603 12972.497070
vn -1.000000 0.000000 0.000000
vt 2.000000 -0.002322
v -10192.269531 -1464.917603 12849.730469
vn 0.000002 -0.000002 -1.000000
vt 1.593328 1.000000
v -10192.269531 -1247.018677 12849.729492
vn 0.000004 -0.000003 -1.000000
vt 1.593328 0.244274
v -10013.155273 -1247.018677 12849.730469
vn 0.000003 -0.000002 -1.000000
vt 1.000000 0.244274
v -10013.155273 -1464.917603 12849.730469
vn 0.000000 0.000000 -1.000000
vt 1.000000 1.000000
v -10013.155273 -1464.917603 12670.615234
vn 1.000000 -0.000002 0.000002
vt 1.740712 1.000000
v -10013.154297 -1247.018555 12670.615234
vn 1.000000 -0.000003 0.000004
vt 1.740712 0.244274
v -10013.154297 -1247.018555 12670.615234
vn -0.000003 1.000000 0.000002
vt 1.740712 0.495371
v -10087.842773 -1247.018433 12670.615234
vn 0.000001 1.000000 0.000004
vt 1.740712 0.244274
v -10087.842773 -1247.019165 12849.730469
vn -0.000003 1.000000 0.000002
vt 1.000000 0.244274
v -10013.154297 -1247.018555 12849.730469
vn -0.000008 1.000000 0.000000
vt 1.000000 0.495371
v -10087.842773 -1464.917603 12670.616211
vn -0.000008 -0.000002 -1.000000
vt 1.998000 1.000000
v -10087.842773 -1247.018555 12670.615234
vn -0.000003 -0.000003 -1.000000
vt 1.998000 0.244274
v -10013.154297 -1247.018555 12670.615234
vn -0.000008 -0.000002 -1.000000
vt 1.741000 0.244274
v -10013.154297 -1464.917480 12670.615234
vn -0.000013 0.000000 -1.000000
vt 1.741000 1.000000
f 35/35/35 37/37/37 38/38/38
f 37/37/37 35/35/35 36/36/36
f 6/6/6 5/5/5 33/33/33
f 5/5/5 6/6/6 7/7/7
f 20/20/20 7/7/7 6/6/6
f 7/7/7 20/20/20 19/19/19
f 17/17/17 19/19/19 20/20/20
f 19/19/19 17/17/17 18/18/18
f 7/7/7 8/8/8 5/5/5
f 33/33/33 34/34/34 6/6/6
f 9/9/9 10/10/10 11/11/11
f 28/28/28 11/11/11 10/10/10
f 11/11/11 28/28/28 27/27/27
f 25/25/25 27/27/27 28/28/28
f 27/27/27 25/25/25 26/26/26
f 11/11/11 12/12/12 9/9/9
f 1/1/1 2/2/2 3/3/3
f 16/16/16 3/3/3 2/2/2
f 3/3/3 16/16/16 15/15/15
f 13/13/13 15/15/15 16/16/16
f 15/15/15 13/13/13 14/14/14
f 3/3/3 4/4/4 1/1/1
f 23/23/23 21/21/21 22/22/22
f 21/21/21 23/23/23 24/24/24
f 31/31/31 24/24/24 23/23/23
f 24/24/24 31/31/31 30/30/30
f 29/29/29 30/30/30 31/31/31
f 31/31/31 32/32/32 29/29/29
f 41/41/41 39/39/39 40/40/40
f 39/39/39 41/41/41 42/42/42
