mtllib OVERHILL_A_01_ROCK65.mtl
g rock65
usemtl stone_01
v -6497.835449 -224.316528 -2535.252441
vn 0.460141 0.656213 0.598043
vt 0.568869 0.245908
v -6506.980469 -210.529129 -2543.769287
vn -0.286123 0.931553 -0.224370
vt 0.863179 0.265537
v -6511.592773 -213.982666 -2539.289063
vn -0.402949 0.681949 0.610391
vt 0.852876 0.141740
v -6506.460449 -224.315231 -2532.863281
vn -0.062983 0.504304 0.861226
vt 0.679176 0.082149
v -6504.944824 -224.317810 -2555.795410
vn -0.121656 0.587923 -0.799716
vt 1.097532 0.411550
v -6514.526855 -224.316620 -2553.956055
vn -0.491797 0.675289 -0.549655
vt 1.115390 0.251223
v -6501.445313 -212.858261 -2548.433105
vn 0.532147 0.818155 -0.217811
vt 0.854618 0.403619
v -6515.201660 -224.317688 -2536.251953
vn -0.685759 0.415129 0.597832
vt 0.853763 0.017307
v -6517.369141 -224.315750 -2545.436523
vn -0.830225 0.544537 -0.119188
vt 1.042899 0.123809
v -6496.721680 -219.708435 -2551.566895
vn 0.589203 0.634915 -0.499723
vt 0.856041 0.566142
v -6493.763184 -224.317413 -2542.680908
vn 0.765714 0.612240 0.197092
vt 0.606502 0.451313
f 3/3/3 4/4/4 1/1/1
f 4/4/4 3/3/3 8/8/8
f 11/11/11 7/7/7 1/1/1
f 2/2/2 1/1/1 7/7/7
f 1/1/1 2/2/2 3/3/3
f 9/9/9 3/3/3 2/2/2
f 3/3/3 9/9/9 8/8/8
f 2/2/2 6/6/6 9/9/9
f 6/6/6 2/2/2 5/5/5
f 7/7/7 5/5/5 2/2/2
f 5/5/5 7/7/7 10/10/10
f 11/11/11 10/10/10 7/7/7
