mtllib OVERHILL_A_01_ROCK78.mtl
g rock78
usemtl stone_01
v -3660.151123 203.563248 237.360046
vn -0.271477 0.689863 0.671111
vt 0.225680 0.155548
v -3638.764404 227.200928 192.961700
vn 0.190319 0.966427 -0.172622
vt 0.233170 -0.052878
v -3663.815674 228.713959 184.039322
vn -0.294448 0.954678 -0.043482
vt 0.413272 -0.068449
v -3682.717041 208.855316 211.433456
vn -0.774422 0.554795 0.304095
vt 0.443374 0.109459
v -3649.257568 109.688889 224.952057
vn -0.232224 -0.779940 0.581176
vt 0.191210 1.173662
v -3654.756836 121.730515 239.547745
vn -0.288964 -0.570141 0.769050
vt 0.191457 0.983577
v -3682.240723 122.373306 215.608444
vn -0.653001 -0.658744 0.373692
vt 0.478065 0.980973
v -3668.098877 109.688889 208.578552
vn -0.560428 -0.812032 0.162862
vt 0.454520 1.176831
v -3611.384766 109.688889 209.019806
vn 0.513563 -0.825820 0.232968
vt -0.097012 1.190425
v -3591.843262 122.373299 215.300873
vn 0.706264 -0.684188 0.181874
vt -0.165288 0.997204
v -3617.539551 121.087730 239.395523
vn 0.275036 -0.695894 0.663390
vt 0.030399 0.989757
v -3624.330322 109.688889 226.262146
vn 0.255081 -0.791641 0.555192
vt 0.060004 1.183203
v -3628.136719 109.688889 178.104691
vn 0.274963 -0.810056 -0.517885
vt 0.217826 1.200990
v -3619.988770 122.373306 161.788452
vn 0.339866 -0.618832 -0.708194
vt 0.225495 1.010620
v -3598.047852 122.373306 186.482269
vn 0.619749 -0.703690 -0.347463
vt -0.021553 1.005892
v -3614.104248 109.688889 194.368713
vn 0.535121 -0.818988 -0.207132
vt 0.001637 1.196702
v -3665.583008 109.688889 187.122284
vn -0.410761 -0.827536 -0.382702
vt 0.607709 1.187606
v -3684.468018 122.373306 177.878082
vn -0.665939 -0.677384 -0.312533
vt 0.694220 0.993698
v -3650.740479 122.373306 158.901733
vn -0.148828 -0.694405 -0.704026
vt 0.456353 1.006283
v -3647.269531 109.688889 174.464874
vn -0.128120 -0.782567 -0.609241
vt 0.421117 1.198058
v -3607.329346 196.606232 170.964127
vn 0.732052 0.527172 -0.431497
vt 0.110111 0.249573
v -3623.350098 201.898300 147.249939
vn 0.345295 0.528169 -0.775763
vt 0.281116 0.203827
v -3614.546143 225.687912 203.945496
vn 0.358909 0.912769 0.195033
vt 0.051746 -0.038048
v -3627.704590 198.271179 238.831131
vn 0.275675 0.490883 0.826460
vt 0.074790 0.203609
v -3660.521729 154.434616 255.071167
vn -0.256164 0.014074 0.966531
vt 0.173064 0.617666
v -3612.111816 152.776230 252.176147
vn 0.335342 -0.181813 0.924386
vt -0.027360 0.617857
v -3570.541992 156.092987 222.944809
vn 0.932457 0.135694 0.334829
vt -0.274872 0.625202
v -3588.875244 198.754730 214.317200
vn 0.780802 0.584424 0.220900
vt -0.136599 0.219053
v -3685.942871 208.314240 175.099365
vn -0.721166 0.588780 -0.365044
vt 0.657109 0.124562
v -3705.994873 156.093002 168.218246
vn -0.890547 0.027637 -0.454050
vt 0.787195 0.620776
v -3695.443359 156.093002 224.581146
vn -0.849977 -0.137848 0.508465
vt 0.480096 0.605620
v -3653.956787 156.093002 143.434937
vn -0.194343 -0.207029 -0.958838
vt 0.479228 0.636106
v -3650.694824 207.190369 151.564362
vn -0.213210 0.574763 -0.790056
vt 0.434133 0.148010
v -3611.161133 156.093002 143.930603
vn 0.517739 -0.062875 -0.853225
vt 0.217275 0.642502
v -3581.355225 156.093002 176.576416
vn 0.866528 -0.206317 -0.454491
vt -0.065313 0.637345
f 19/19/19 17/17/17 18/18/18
f 17/17/17 19/19/19 20/20/20
f 13/13/13 20/20/20 19/19/19
f 1/1/1 4/4/4 31/31/31
f 30/30/30 31/31/31 4/4/4
f 31/31/31 30/30/30 18/18/18
f 32/32/32 18/18/18 30/30/30
f 18/18/18 32/32/32 19/19/19
f 14/14/14 19/19/19 32/32/32
f 19/19/19 14/14/14 13/13/13
f 15/15/15 13/13/13 14/14/14
f 13/13/13 15/15/15 16/16/16
f 10/10/10 16/16/16 15/15/15
f 16/16/16 10/10/10 9/9/9
f 11/11/11 9/9/9 10/10/10
f 9/9/9 11/11/11 12/12/12
f 5/5/5 12/12/12 11/11/11
f 32/32/32 34/34/34 14/14/14
f 35/35/35 14/14/14 34/34/34
f 14/14/14 35/35/35 15/15/15
f 10/10/10 15/15/15 35/35/35
f 30/30/30 33/33/33 32/32/32
f 22/22/22 32/32/32 33/33/33
f 32/32/32 22/22/22 34/34/34
f 21/21/21 34/34/34 22/22/22
f 34/34/34 21/21/21 35/35/35
f 27/27/27 35/35/35 21/21/21
f 35/35/35 27/27/27 10/10/10
f 26/26/26 10/10/10 27/27/27
f 10/10/10 26/26/26 11/11/11
f 6/6/6 11/11/11 26/26/26
f 11/11/11 6/6/6 5/5/5
f 7/7/7 5/5/5 6/6/6
f 5/5/5 7/7/7 8/8/8
f 21/21/21 22/22/22 2/2/2
f 33/33/33 2/2/2 22/22/22
f 2/2/2 33/33/33 3/3/3
f 29/29/29 3/3/3 33/33/33
f 17/17/17 8/8/8 18/18/18
f 7/7/7 18/18/18 8/8/8
f 18/18/18 7/7/7 31/31/31
f 6/6/6 31/31/31 7/7/7
f 31/31/31 6/6/6 25/25/25
f 26/26/26 25/25/25 6/6/6
f 25/25/25 26/26/26 24/24/24
f 27/27/27 24/24/24 26/26/26
f 24/24/24 27/27/27 28/28/28
f 21/21/21 28/28/28 27/27/27
f 28/28/28 21/21/21 23/23/23
f 2/2/2 23/23/23 21/21/21
f 23/23/23 2/2/2 1/1/1
f 3/3/3 1/1/1 2/2/2
f 1/1/1 3/3/3 4/4/4
f 29/29/29 4/4/4 3/3/3
f 4/4/4 29/29/29 30/30/30
f 33/33/33 30/30/30 29/29/29
f 28/28/28 23/23/23 24/24/24
f 1/1/1 24/24/24 23/23/23
f 24/24/24 1/1/1 25/25/25
f 31/31/31 25/25/25 1/1/1
