mtllib OVERHILL_A_01_OBJECT55.mtl
g Object55
usemtl Rock_Grass_Blend
v -8179.564453 752.025574 5346.144531
vn -0.938685 0.329735 0.100727
vt 0.658919 -0.755794
v -8099.080566 893.487305 5347.447754
vn 0.393815 0.900133 0.186199
vt 0.666409 -0.964219
v -8106.179199 902.011230 5281.185059
vn -0.394786 0.816373 -0.421520
vt 0.846511 -0.979790
v -8159.316406 787.961243 5266.380371
vn -0.841905 0.297338 -0.450318
vt 0.876613 -0.801882
v -8032.630859 757.814209 5385.079102
vn 0.897564 0.233239 0.374136
vt 0.543350 -0.661769
v -8010.434082 793.530701 5322.579590
vn 0.933391 0.351369 0.072949
vt 0.714356 -0.707515
v -8095.834961 883.827332 5414.261719
vn -0.255396 0.707277 0.659190
vt 0.484985 -0.949389
v -8205.713867 62.595825 5438.442871
vn -0.784919 -0.161954 0.598058
vt 0.405879 0.877800
v -8194.972656 386.011902 5453.734863
vn -0.769570 0.055907 0.636110
vt 0.456954 0.077813
v -8238.649414 400.191833 5342.509766
vn -0.984557 0.086705 0.152085
vt 0.632611 0.053687
v -8250.132813 62.825527 5333.715820
vn -0.990652 -0.069730 0.117248
vt 0.606303 0.877609
v -8127.484375 99.056946 5498.098633
vn -0.028941 -0.239739 0.970406
vt 0.158367 0.885146
v -8102.724609 421.163757 5527.516602
vn 0.130680 0.027291 0.991049
vt 0.227503 0.089208
v -8214.754883 434.294403 5221.630371
vn -0.896550 0.117701 -0.427019
vt 0.894974 0.024620
v -8132.571289 460.251678 5134.315918
vn -0.017617 0.119616 -0.992664
vt 1.155391 0.039750
v -8154.048828 108.036095 5130.329590
vn -0.217611 -0.086668 -0.972180
vt 1.220434 0.880720
v -8232.149414 81.453873 5220.072266
vn -0.911088 -0.044375 -0.409816
vt 0.913335 0.865563
v -8041.328613 479.124908 5221.015137
vn 0.816201 0.007396 -0.577720
vt 0.889920 0.059138
v -8001.059570 469.897949 5315.711426
vn 0.997607 -0.012094 -0.068078
vt 0.682435 0.090245
v -8039.119141 132.850266 5314.403320
vn 0.986465 -0.150737 -0.064532
vt 0.650514 0.902445
v -8073.355469 127.343613 5217.902832
vn 0.831537 -0.138110 -0.538026
vt 0.912468 0.896050
v -8064.977051 120.638817 5419.489746
vn 0.874934 -0.224774 0.428913
vt 0.367926 0.897289
v -8031.093750 439.943024 5420.452637
vn 0.916932 -0.028490 0.398026
vt 0.455638 0.110539
v -8105.922852 802.910767 5216.419922
vn 0.100015 0.348375 -0.932004
vt 1.090348 -0.786779
v -8040.628418 813.800476 5267.565918
vn 0.810346 0.357140 -0.464533
vt 0.867372 -0.763332
v -8084.732910 749.349243 5477.771973
vn 0.360045 0.247625 0.899472
vt 0.296640 -0.692289
v -8154.100586 729.567444 5419.376953
vn -0.797361 0.206206 0.567181
vt 0.508029 -0.707733
v -8144.748047 -48.609711 5423.596680
vn 0.197152 -0.438776 0.876702
vt 0.267951 1.257148
v -8202.548828 -48.609707 5393.961914
vn -0.725512 -0.273287 0.631622
vt 0.463638 1.249701
v -8233.365234 -48.609707 5310.871582
vn -0.982924 -0.152795 0.102534
vt 0.624696 1.243521
v -8085.422852 -48.609703 5297.763184
vn 0.969319 -0.242865 -0.037911
vt 0.658734 1.270563
v -8105.477051 -48.609711 5375.896973
vn 0.847439 -0.313196 0.428666
vt 0.411686 1.265836
v -8162.913086 -48.609699 5172.110840
vn 0.012106 -0.204244 -0.978845
vt 1.127459 1.253641
v -8106.129883 -48.609703 5225.453125
vn 0.839608 -0.178410 -0.513058
vt 0.889592 1.266227
v -8219.150391 -48.609703 5221.346680
vn -0.871479 -0.091820 -0.481760
vt 0.911304 1.240916
f 33/33/33 35/35/35 17/17/17
f 17/17/17 11/11/11 10/10/10
f 17/17/17 16/16/16 33/33/33
f 16/16/16 17/17/17 14/14/14
f 10/10/10 14/14/14 17/17/17
f 14/14/14 10/10/10 1/1/1
f 27/27/27 1/1/1 10/10/10
f 1/1/1 27/27/27 7/7/7
f 26/26/26 7/7/7 27/27/27
f 7/7/7 26/26/26 5/5/5
f 2/2/2 5/5/5 6/6/6
f 5/5/5 2/2/2 7/7/7
f 1/1/1 7/7/7 2/2/2
f 30/30/30 17/17/17 35/35/35
f 17/17/17 30/30/30 11/11/11
f 8/8/8 11/11/11 30/30/30
f 11/11/11 8/8/8 10/10/10
f 9/9/9 10/10/10 8/8/8
f 10/10/10 9/9/9 27/27/27
f 13/13/13 27/27/27 9/9/9
f 27/27/27 13/13/13 26/26/26
f 23/23/23 26/26/26 13/13/13
f 26/26/26 23/23/23 5/5/5
f 19/19/19 5/5/5 23/23/23
f 5/5/5 19/19/19 6/6/6
f 25/25/25 6/6/6 19/19/19
f 6/6/6 25/25/25 2/2/2
f 3/3/3 2/2/2 25/25/25
f 2/2/2 3/3/3 1/1/1
f 4/4/4 1/1/1 3/3/3
f 1/1/1 4/4/4 14/14/14
f 4/4/4 3/3/3 24/24/24
f 25/25/25 24/24/24 3/3/3
f 24/24/24 25/25/25 18/18/18
f 19/19/19 18/18/18 25/25/25
f 18/18/18 19/19/19 20/20/20
f 23/23/23 20/20/20 19/19/19
f 20/20/20 23/23/23 22/22/22
f 13/13/13 22/22/22 23/23/23
f 22/22/22 13/13/13 12/12/12
f 9/9/9 12/12/12 13/13/13
f 12/12/12 9/9/9 8/8/8
f 22/22/22 12/12/12 28/28/28
f 8/8/8 28/28/28 12/12/12
f 28/28/28 8/8/8 29/29/29
f 30/30/30 29/29/29 8/8/8
f 4/4/4 24/24/24 15/15/15
f 18/18/18 15/15/15 24/24/24
f 15/15/15 18/18/18 21/21/21
f 20/20/20 21/21/21 18/18/18
f 21/21/21 20/20/20 31/31/31
f 22/22/22 31/31/31 20/20/20
f 31/31/31 22/22/22 32/32/32
f 28/28/28 32/32/32 22/22/22
f 31/31/31 34/34/34 21/21/21
f 15/15/15 14/14/14 4/4/4
f 14/14/14 15/15/15 16/16/16
f 21/21/21 16/16/16 15/15/15
f 16/16/16 21/21/21 33/33/33
f 34/34/34 33/33/33 21/21/21
