mtllib OVERHILL_A_01_OBJECT336.mtl
g Object336
usemtl Lvl_dwarven_plc_stone03
v -6637.470703 -12.033059 8698.127930
vn 0.000000 -0.146795 -0.989167
vt 2.440394 0.000000
v -6287.207031 -12.033120 8698.127930
vn -0.000001 -0.146796 -0.989167
vt 3.042361 0.000000
v -6462.925293 -56.452137 8711.608398
vn 0.000000 -0.290410 -0.956902
vt 2.740587 -1.000000
v -6287.207031 -56.452168 8711.608398
vn -0.000001 -0.146795 -0.989167
vt 3.042611 -1.000000
v -5059.231934 -56.452244 8354.592773
vn -0.956903 -0.290409 0.000000
vt 2.056918 -1.000000
v -5072.712891 -12.033197 8354.592773
vn -0.989167 -0.146796 0.000000
vt 2.056668 0.000000
v -5072.712891 -12.033154 8158.170898
vn -0.989167 -0.146796 0.000000
vt 2.560588 0.000000
v -5059.231934 -56.452198 8158.170410
vn -0.989167 -0.146795 0.000000
vt 2.560869 -1.000000
v -7425.467285 -56.451702 7766.224609
vn 0.956902 -0.290410 -0.000001
vt 3.485187 -1.000000
v -7411.986816 -12.032657 7766.224609
vn 0.989167 -0.146797 -0.000001
vt 3.484937 0.000000
v -7411.986328 -12.032700 7961.751953
vn 0.989167 -0.146797 -0.000002
vt 3.876153 0.000000
v -6462.338867 -56.451721 7211.893066
vn 0.000000 -0.097744 0.995212
vt 2.741595 -1.000000
v -6287.206543 -56.451752 7211.893066
vn -0.000001 -0.290410 0.956902
vt 3.042611 -1.000000
v -6287.206543 -12.032710 7225.373535
vn -0.000001 -0.146796 0.989167
vt 3.042361 0.000000
v -5059.231934 -56.452320 8711.609375
vn -0.956902 -0.290410 0.000000
vt 1.280943 -1.000000
v -5072.712891 -12.033273 8698.128906
vn -0.989167 -0.146796 0.000000
vt 1.280756 0.000000
v -6637.470215 -12.032649 7225.373535
vn 0.000000 -0.146796 0.989167
vt 2.440394 0.000000
v -6637.469727 -56.451691 7211.893066
vn 0.000000 -0.290410 0.956902
vt 2.440581 -1.000000
v -7425.466797 -56.451580 7211.893066
vn 0.989167 -0.146795 0.000002
vt 2.440581 -1.000000
v -5072.712402 -12.032928 7225.374023
vn -0.989166 -0.146798 -0.000002
vt 3.218301 0.000000
v -5059.230957 -56.451992 7211.893066
vn -0.956899 -0.290420 -0.000003
vt 3.218801 -1.000000
v -5059.231934 -56.452072 7568.910645
vn -0.989167 -0.146797 -0.000001
vt 2.246669 -1.000000
v -5072.712891 -12.033026 7568.911133
vn -0.989167 -0.146796 -0.000001
vt 2.246294 0.000000
v -7411.986328 -12.032538 7225.374023
vn 0.989167 -0.146797 0.000001
vt 2.440394 0.000000
v -6112.075195 -56.451786 7211.893555
vn -0.000001 -0.146795 0.989167
vt 3.343625 -1.000000
v -5936.942871 -56.451817 7211.893555
vn 0.000000 -0.290410 0.956902
vt 3.644640 -1.000000
v -5936.943359 -12.032771 7225.374512
vn -0.000001 -0.146795 0.989167
vt 3.644328 0.000000
v -5072.712891 -12.033026 7568.911133
vn -0.989167 -0.146796 -0.000001
vt 3.246294 0.000000
v -5059.231934 -56.452072 7568.910645
vn -0.989167 -0.146797 -0.000001
vt 3.246669 -1.000000
v -5059.231934 -56.452114 7765.331543
vn -0.956902 -0.290410 0.000000
vt 2.586658 -1.000000
v -5072.712891 -12.033069 7765.331543
vn -0.989167 -0.146796 0.000000
vt 2.586346 0.000000
v -5936.943848 -12.033181 8698.127930
vn -0.000001 -0.146796 -0.989167
vt 3.644328 0.000000
v -5936.943848 -56.452229 8711.608398
vn 0.000000 -0.290410 -0.956902
vt 3.644640 -1.000000
v -6112.075684 -56.452198 8711.608398
vn -0.000000 -0.097744 -0.995212
vt 3.343625 -1.000000
v -5059.231934 -56.452114 7765.331543
vn -0.956902 -0.290410 0.000000
vt 3.586658 -1.000000
v -5072.712891 -12.033069 7765.331543
vn -0.989167 -0.146796 0.000000
vt 3.586346 0.000000
v -7411.985840 -12.032838 8698.128906
vn 0.989166 -0.146799 -0.000001
vt 3.450228 0.000000
v -7425.467285 -56.451908 8711.609375
vn 0.989166 -0.146803 0.000001
vt 3.450728 -1.000000
v -7425.466797 -56.451786 8158.172363
vn 0.956901 -0.290415 0.000000
vt 2.478495 -1.000000
v -7411.986328 -12.032743 8158.172363
vn 0.989167 -0.146796 0.000000
vt 2.478120 0.000000
v -7411.986328 -12.032516 7225.374023
vn 0.000001 -0.146796 0.989167
vt 0.634493 0.000000
v -7206.599609 -56.451591 7211.893066
vn 0.000000 -0.290411 0.956902
vt 1.236522 -1.000000
v -6987.732910 -12.032588 7225.373535
vn 0.000000 -0.146796 0.989167
vt 1.838427 0.000000
v -6987.733398 -12.032998 8698.127930
vn -0.000001 -0.146797 -0.989167
vt 1.838427 0.000000
v -6987.733398 -56.452045 8711.608398
vn -0.000001 -0.290409 -0.956903
vt 1.838552 -1.000000
v -7206.600586 -56.451977 8711.609375
vn -0.000000 -0.097747 -0.995211
vt 1.236522 -1.000000
v -7411.986816 -12.032922 8698.127930
vn -0.000001 -0.146803 -0.989166
vt 0.634493 0.000000
v -6987.732910 -56.451630 7211.893066
vn 0.000000 -0.146795 0.989167
vt 1.838552 -1.000000
v -7425.466309 -56.451553 7211.893066
vn 0.000000 -0.290412 0.956902
vt 0.634493 -1.000000
v -5936.943848 -56.452229 8711.608398
vn 0.000000 -0.290410 -0.956902
vt 2.644640 -1.000000
v -5936.943848 -12.033181 8698.127930
vn -0.000001 -0.146796 -0.989167
vt 2.644328 0.000000
v -5586.681152 -12.033242 8698.127930
vn 0.000000 -0.146796 -0.989167
vt 3.433874 0.000000
v -7411.986328 -12.032743 8158.172363
vn 0.989167 -0.146796 0.000000
vt 3.478120 0.000000
v -7425.466797 -56.451786 8158.172363
vn 0.956901 -0.290415 0.000000
vt 3.478495 -1.000000
v -7425.466797 -56.451744 7961.752441
vn 0.956902 -0.290410 -0.000001
vt 2.876466 -1.000000
v -5586.680664 -56.452290 8711.608398
vn 0.000000 -0.290413 -0.956901
vt 3.434249 -1.000000
v -5072.712891 -12.032897 7225.374023
vn 0.000000 -0.146797 0.989167
vt 3.450228 0.000000
v -5586.680176 -12.032832 7225.374023
vn 0.000000 -0.146796 0.989167
vt 2.246294 0.000000
v -5586.680176 -56.451878 7211.893555
vn 0.000000 -0.290412 0.956902
vt 2.246669 -1.000000
v -5059.231445 -56.451969 7211.893066
vn 0.000001 -0.290415 0.956901
vt 3.450728 -1.000000
v -5586.680664 -56.452290 8711.608398
vn 0.000000 -0.290413 -0.956901
vt 2.434249 -1.000000
v -5586.681152 -12.033242 8698.127930
vn 0.000000 -0.146796 -0.989167
vt 2.433874 0.000000
v -5072.713379 -12.033311 8698.127930
vn 0.000000 -0.146798 -0.989166
vt 3.450228 0.000000
v -5059.232422 -56.452320 8711.608398
vn 0.000001 -0.146800 -0.989166
vt 3.450728 -1.000000
v -5586.680176 -12.032832 7225.374023
vn 0.000000 -0.146796 0.989167
vt 3.246294 0.000000
v -5936.943359 -12.032771 7225.374512
vn -0.000001 -0.146795 0.989167
vt 2.644328 0.000000
v -5936.942871 -56.451817 7211.893555
vn 0.000000 -0.290410 0.956902
vt 2.644640 -1.000000
v -5586.680176 -56.451878 7211.893555
vn 0.000000 -0.290412 0.956902
vt 3.246669 -1.000000
v -6637.470215 -56.452106 8711.608398
vn 0.000000 -0.290410 -0.956902
vt 2.440581 -1.000000
v -7425.466797 -56.451744 7961.752441
vn 0.956902 -0.290410 -0.000001
vt 3.876466 -1.000000
v -7425.467285 -56.451908 8711.609375
vn -0.000001 -0.146806 -0.989165
vt 0.634493 -1.000000
v -7411.986328 -12.032700 7961.751953
vn 0.989167 -0.146797 -0.000002
vt 2.876153 0.000000
f 22/22/22 20/20/20 21/21/21
f 20/20/20 22/22/22 23/23/23
f 3/3/3 69/69/69 1/1/1
f 45/45/45 1/1/1 69/69/69
f 1/1/1 45/45/45 44/44/44
f 46/46/46 44/44/44 45/45/45
f 44/44/44 46/46/46 47/47/47
f 71/71/71 47/47/47 46/46/46
f 1/1/1 2/2/2 3/3/3
f 34/34/34 32/32/32 33/33/33
f 32/32/32 34/34/34 2/2/2
f 4/4/4 2/2/2 34/34/34
f 2/2/2 4/4/4 3/3/3
f 42/42/42 41/41/41 49/49/49
f 41/41/41 42/42/42 43/43/43
f 48/48/48 43/43/43 42/42/42
f 43/43/43 48/48/48 17/17/17
f 18/18/18 17/17/17 48/48/48
f 17/17/17 18/18/18 12/12/12
f 17/17/17 12/12/12 14/14/14
f 12/12/12 13/13/13 14/14/14
f 25/25/25 14/14/14 13/13/13
f 14/14/14 25/25/25 27/27/27
f 26/26/26 27/27/27 25/25/25
f 6/6/6 15/15/15 16/16/16
f 15/15/15 6/6/6 5/5/5
f 7/7/7 5/5/5 6/6/6
f 5/5/5 7/7/7 8/8/8
f 35/35/35 8/8/8 7/7/7
f 7/7/7 36/36/36 35/35/35
f 10/10/10 19/19/19 24/24/24
f 19/19/19 10/10/10 9/9/9
f 11/11/11 9/9/9 10/10/10
f 9/9/9 11/11/11 70/70/70
f 30/30/30 28/28/28 29/29/29
f 28/28/28 30/30/30 31/31/31
f 37/37/37 39/39/39 40/40/40
f 39/39/39 37/37/37 38/38/38
f 52/52/52 50/50/50 51/51/51
f 50/50/50 52/52/52 56/56/56
f 59/59/59 57/57/57 58/58/58
f 57/57/57 59/59/59 60/60/60
f 63/63/63 61/61/61 62/62/62
f 61/61/61 63/63/63 64/64/64
f 67/67/67 65/65/65 66/66/66
f 65/65/65 67/67/67 68/68/68
f 53/53/53 55/55/55 72/72/72
f 55/55/55 53/53/53 54/54/54
usemtl Lvl_dwarven_plc_stone06
v -5072.712891 -12.033026 7568.911133
vn -0.989167 -0.146796 -0.000001
vt 2.246419 0.999500
v -5072.712891 67.156921 7568.911133
vn -1.000000 -0.000000 0.000000
vt 2.246419 0.000500
v -5072.712402 67.157043 7225.374023
vn -1.000000 -0.000001 -0.000001
vt 3.218300 0.000500
v -5072.712891 67.156921 7568.911133
vn -1.000000 -0.000000 0.000000
vt 3.246419 0.000500
v -5072.712891 -12.033026 7568.911133
vn -0.989167 -0.146796 -0.000001
vt 3.246419 0.999500
v -5072.712891 -12.033069 7765.331543
vn -0.989167 -0.146796 0.000000
vt 2.586533 0.999500
v -5072.712891 67.156754 8354.592773
vn -1.000000 -0.000001 0.000000
vt 2.056918 0.000500
v -5072.712891 -12.033197 8354.592773
vn -0.989167 -0.146796 0.000000
vt 2.056918 0.999500
v -5072.712891 -12.033273 8698.128906
vn -0.989167 -0.146796 0.000000
vt 1.281068 0.999500
v -7411.986328 67.157433 7225.374023
vn 0.000000 -0.000002 1.000000
vt 0.634993 0.000500
v -7411.986328 -12.032516 7225.374023
vn 0.000001 -0.146796 0.989167
vt 0.634993 0.999500
v -6987.732910 -12.032588 7225.373535
vn 0.000000 -0.146796 0.989167
vt 1.838801 0.999500
v -5072.712402 -12.032928 7225.374023
vn -0.989166 -0.146798 -0.000002
vt 3.218300 0.999500
v -7411.986328 -12.032538 7225.374023
vn 0.989167 -0.146797 0.000001
vt 2.440706 0.999500
v -7411.985840 67.157410 7225.374023
vn 1.000000 -0.000003 0.000001
vt 2.440706 0.000500
v -7411.986328 67.157295 7766.224609
vn 1.000000 -0.000001 -0.000001
vt 3.485187 0.000500
v -7411.985840 67.157135 8698.128906
vn 1.000000 -0.000002 0.000000
vt 3.450228 0.000500
v -7411.985840 -12.032838 8698.128906
vn 0.989166 -0.146799 -0.000001
vt 3.450228 0.999500
v -7411.986328 -12.032743 8158.172363
vn 0.989167 -0.146796 0.000000
vt 2.478245 0.999500
v -7411.986328 -12.032700 7961.751953
vn 0.989167 -0.146797 -0.000002
vt 2.876340 0.999500
v -7411.985840 67.157249 7961.751953
vn 1.000000 -0.000002 -0.000002
vt 2.876340 0.000500
v -7411.985840 67.157204 8158.172363
vn 1.000000 -0.000002 0.000000
vt 3.478245 0.000500
v -7411.985840 67.157204 8158.172363
vn 1.000000 -0.000002 0.000000
vt 2.478245 0.000500
v -7411.986816 67.157028 8698.127930
vn 0.000000 0.000002 -1.000000
vt 0.634993 0.000500
v -6987.733398 67.156952 8698.127930
vn 0.000000 0.000002 -1.000000
vt 1.838802 0.000500
v -6987.733398 -12.032998 8698.127930
vn -0.000001 -0.146797 -0.989167
vt 1.838801 0.999500
v -7411.986816 -12.032922 8698.127930
vn -0.000001 -0.146803 -0.989166
vt 0.634993 0.999500
v -6987.732910 67.157364 7225.374023
vn 0.000000 -0.000002 1.000000
vt 1.838802 0.000500
v -5936.943848 67.156769 8698.127930
vn -0.000001 -0.000001 -1.000000
vt 3.644515 0.000500
v -5936.943848 -12.033181 8698.127930
vn -0.000001 -0.146796 -0.989167
vt 3.644515 0.999500
v -6287.207031 -12.033120 8698.127930
vn -0.000001 -0.146796 -0.989167
vt 3.042610 0.999500
v -6287.207031 67.156830 8698.127930
vn -0.000000 0.000002 -1.000000
vt 3.042610 0.000500
v -7411.985840 67.157249 7961.751953
vn 1.000000 -0.000002 -0.000002
vt 3.876340 0.000500
v -7411.986328 -12.032700 7961.751953
vn 0.989167 -0.146797 -0.000002
vt 3.876340 0.999500
v -7411.986816 -12.032657 7766.224609
vn 0.989167 -0.146797 -0.000001
vt 3.485187 0.999500
v -6637.470703 67.156891 8698.127930
vn 0.000000 0.000002 -1.000000
vt 2.440706 0.000500
v -6637.470703 -12.033059 8698.127930
vn 0.000000 -0.146795 -0.989167
vt 2.440706 0.999500
v -6637.470215 67.157303 7225.374023
vn 0.000000 -0.000003 1.000000
vt 2.440706 0.000500
v -5586.680176 67.157120 7225.374023
vn 0.000000 -0.000002 1.000000
vt 3.246419 0.000500
v -5936.943359 67.157181 7225.374512
vn 0.000000 -0.000003 1.000000
vt 2.644515 0.000500
v -5936.943359 -12.032771 7225.374512
vn -0.000001 -0.146795 0.989167
vt 2.644515 0.999500
v -5072.713379 67.156662 8698.127930
vn 0.000000 -0.000001 -1.000000
vt 3.450228 0.000500
v -5072.713379 -12.033311 8698.127930
vn 0.000000 -0.146798 -0.989166
vt 3.450228 0.999500
v -5586.681152 -12.033242 8698.127930
vn 0.000000 -0.146796 -0.989167
vt 2.433999 0.999500
v -5586.681152 67.156708 8698.127930
vn 0.000000 -0.000001 -1.000000
vt 2.433999 0.000500
v -5586.680176 -12.032832 7225.374023
vn 0.000000 -0.146796 0.989167
vt 3.246419 0.999500
v -5072.712891 67.157074 7225.374023
vn 0.000000 -0.000002 1.000000
vt 3.450228 0.000500
v -5586.680176 67.157120 7225.374023
vn 0.000000 -0.000002 1.000000
vt 2.246419 0.000500
v -5586.680176 -12.032832 7225.374023
vn 0.000000 -0.146796 0.989167
vt 2.246419 0.999500
v -5586.681152 67.156708 8698.127930
vn 0.000000 -0.000001 -1.000000
vt 3.433999 0.000500
v -5586.681152 -12.033242 8698.127930
vn 0.000000 -0.146796 -0.989167
vt 3.433999 0.999500
v -5936.943848 -12.033181 8698.127930
vn -0.000001 -0.146796 -0.989167
vt 2.644515 0.999500
v -5936.943848 67.156769 8698.127930
vn -0.000001 -0.000001 -1.000000
vt 2.644515 0.000500
v -5072.712891 -12.032897 7225.374023
vn 0.000000 -0.146797 0.989167
vt 3.450228 0.999500
v -6637.470215 -12.032649 7225.373535
vn 0.000000 -0.146796 0.989167
vt 2.440706 0.999500
v -6287.206543 -12.032710 7225.373535
vn -0.000001 -0.146796 0.989167
vt 3.042610 0.999500
v -6287.206543 67.157242 7225.374023
vn -0.000001 -0.000003 1.000000
vt 3.042610 0.000500
v -5936.943359 -12.032771 7225.374512
vn -0.000001 -0.146795 0.989167
vt 3.644515 0.999500
v -5936.943359 67.157181 7225.374512
vn 0.000000 -0.000003 1.000000
vt 3.644515 0.000500
v -7411.986328 -12.032743 8158.172363
vn 0.989167 -0.146796 0.000000
vt 3.478245 0.999500
v -5072.712891 67.156792 8158.170898
vn -1.000000 -0.000001 0.000000
vt 2.560807 0.000500
v -5072.712891 67.156883 7765.331543
vn -1.000000 -0.000001 0.000000
vt 3.586533 0.000500
v -5072.712891 -12.033069 7765.331543
vn -0.989167 -0.146796 0.000000
vt 3.586533 0.999500
v -5072.712891 -12.033154 8158.170898
vn -0.989167 -0.146796 0.000000
vt 2.560807 0.999500
v -5072.712891 67.156883 7765.331543
vn -1.000000 -0.000001 0.000000
vt 2.586533 0.000500
v -5072.712891 67.156677 8698.128906
vn -1.000000 -0.000001 0.000000
vt 1.281068 0.000500
f 91/91/91 89/89/89 90/90/90
f 89/89/89 91/91/91 95/95/95
f 103/103/103 101/101/101 102/102/102
f 101/101/101 103/103/103 104/104/104
f 109/109/109 104/104/104 103/103/103
f 104/104/104 109/109/109 108/108/108
f 98/98/98 108/108/108 109/109/109
f 108/108/108 98/98/98 97/97/97
f 96/96/96 97/97/97 98/98/98
f 98/98/98 99/99/99 96/96/96
f 84/84/84 100/100/100 82/82/82
f 100/100/100 84/84/84 110/110/110
f 127/127/127 110/110/110 84/84/84
f 110/110/110 127/127/127 129/129/129
f 128/128/128 129/129/129 127/127/127
f 129/129/129 128/128/128 131/131/131
f 130/130/130 131/131/131 128/128/128
f 82/82/82 83/83/83 84/84/84
f 135/135/135 136/136/136 133/133/133
f 80/80/80 133/133/133 136/136/136
f 133/133/133 80/80/80 79/79/79
f 81/81/81 79/79/79 80/80/80
f 79/79/79 81/81/81 138/138/138
f 133/133/133 134/134/134 135/135/135
f 107/107/107 105/105/105 106/106/106
f 105/105/105 107/107/107 88/88/88
f 86/86/86 88/88/88 107/107/107
f 88/88/88 86/86/86 87/87/87
f 94/94/94 92/92/92 93/93/93
f 92/92/92 94/94/94 132/132/132
f 113/113/113 111/111/111 112/112/112
f 111/111/111 113/113/113 118/118/118
f 116/116/116 114/114/114 115/115/115
f 114/114/114 116/116/116 117/117/117
f 121/121/121 119/119/119 120/120/120
f 119/119/119 121/121/121 126/126/126
f 124/124/124 122/122/122 123/123/123
f 122/122/122 124/124/124 125/125/125
f 75/75/75 73/73/73 74/74/74
f 73/73/73 75/75/75 85/85/85
f 78/78/78 76/76/76 77/77/77
f 76/76/76 78/78/78 137/137/137
