mtllib OVERHILL_A_01_LINE415.mtl
g Line415
usemtl Material_#44425
v -11554.538086 -1052.308838 12071.136719
vn 0.505326 0.000000 -0.862929
vt 0.080093 0.245370
v -11554.538086 -919.558838 12071.136719
vn 0.252689 0.000000 -0.967548
vt 0.080093 -0.240250
v -11535.325195 -919.558838 12090.340820
vn 0.862776 0.000000 -0.505586
vt 0.000000 -0.240250
v -11535.325195 -1052.308838 12090.340820
vn 0.967520 0.000000 -0.252793
vt 0.000000 0.245370
v -11635.536133 -1052.308838 12071.131836
vn -0.197673 0.464815 -0.863060
vt 0.313075 0.245370
v -11635.536133 -919.558838 12071.132813
vn 0.000048 0.000000 -1.000000
vt 0.313075 -0.240250
v -11555.111328 -1052.538086 12167.024414
vn 0.248376 0.000000 0.968664
vt 0.749989 0.245370
v -11555.111328 -919.788086 12167.024414
vn 0.494729 0.000000 0.869047
vt 0.749989 -0.240250
v -11635.536133 -919.558838 12167.176758
vn 0.001894 0.000000 0.999998
vt 0.528141 -0.240250
v -11635.536133 -1052.308838 12167.176758
vn -0.083862 0.518391 0.851022
vt 0.528141 0.245370
v -11535.325195 -1052.308838 12147.967773
vn 0.856217 0.000000 0.516616
vt 0.830093 0.245370
v -11535.325195 -919.558838 12147.967773
vn 0.966063 0.000000 0.258308
vt 0.830093 -0.240250
v -11535.325195 -1052.308838 12090.340820
vn 0.967520 0.000000 -0.252793
vt 1.000000 0.245370
v -11535.325195 -919.558838 12090.340820
vn 0.862776 0.000000 -0.505586
vt 1.000000 -0.240250
v -11554.538086 -782.994812 12071.136719
vn 0.505326 0.000000 -0.862929
vt 0.080093 -0.257066
v -11535.325195 -782.994812 12090.340820
vn 0.967520 0.000000 -0.252793
vt 0.000000 -0.257066
v -11535.325195 -919.558838 12090.340820
vn 0.862776 0.000000 -0.505586
vt 0.000000 0.246795
v -11554.538086 -919.558838 12071.136719
vn 0.252689 0.000000 -0.967548
vt 0.080093 0.246795
v -11635.536133 -782.994812 12071.132813
vn 0.000048 0.000000 -1.000000
vt 0.313075 -0.257066
v -11635.536133 -919.558838 12071.132813
vn 0.000048 0.000000 -1.000000
vt 0.313075 0.246795
v -11535.325195 -782.994812 12090.340820
vn 0.967520 0.000000 -0.252793
vt 1.000000 -0.257066
v -11535.325195 -782.994812 12147.967773
vn 0.856217 0.000000 0.516616
vt 0.830093 -0.257066
v -11535.325195 -919.558838 12147.967773
vn 0.966063 0.000000 0.258308
vt 0.830093 0.246795
v -11535.325195 -919.558838 12090.340820
vn 0.862776 0.000000 -0.505586
vt 1.000000 0.246795
v -11555.111328 -783.224060 12167.024414
vn 0.248376 0.000000 0.968664
vt 0.749989 -0.257066
v -11635.536133 -782.994812 12167.176758
vn 0.001894 0.000000 0.999998
vt 0.528141 -0.257066
v -11635.536133 -919.558838 12167.176758
vn 0.001894 0.000000 0.999998
vt 0.528141 0.246795
v -11555.111328 -919.788086 12167.024414
vn 0.494729 0.000000 0.869047
vt 0.749989 0.246795
f 2/2/2 5/5/5 6/6/6
f 5/5/5 2/2/2 1/1/1
f 3/3/3 1/1/1 2/2/2
f 1/1/1 3/3/3 4/4/4
f 7/7/7 9/9/9 10/10/10
f 9/9/9 7/7/7 8/8/8
f 11/11/11 8/8/8 7/7/7
f 8/8/8 11/11/11 12/12/12
f 13/13/13 12/12/12 11/11/11
f 12/12/12 13/13/13 14/14/14
f 26/26/26 27/27/27 25/25/25
f 28/28/28 25/25/25 27/27/27
f 25/25/25 28/28/28 22/22/22
f 23/23/23 22/22/22 28/28/28
f 22/22/22 23/23/23 21/21/21
f 24/24/24 21/21/21 23/23/23
f 16/16/16 17/17/17 15/15/15
f 18/18/18 15/15/15 17/17/17
f 15/15/15 18/18/18 19/19/19
f 20/20/20 19/19/19 18/18/18
