mtllib OVERHILL_A_01_PLANE07.mtl
g Plane07
usemtl stone_01
v -6560.556152 -223.802780 -2454.941406
vn 0.484458 0.785368 0.385355
vt 0.070240 0.129298
v -6566.140625 -218.178619 -2459.383301
vn 0.000000 1.000000 0.000000
vt 0.293454 0.352512
v -6572.137207 -223.802780 -2451.844482
vn -0.313876 0.863583 0.394596
vt 0.516668 0.129298
v -6560.144043 -223.802780 -2466.922119
vn 0.313876 0.863583 -0.394596
vt 0.070240 0.575726
v -6571.725098 -223.802780 -2463.825195
vn -0.484458 0.785368 -0.385355
vt 0.516668 0.575726
f 2/2/2 1/1/1 4/4/4
f 1/1/1 2/2/2 3/3/3
f 5/5/5 3/3/3 2/2/2
f 4/4/4 5/5/5 2/2/2
