mtllib OVERHILL_A_01_LINE306.mtl
g Line306
usemtl stone_01
v -10070.991211 335.969757 -12603.238281
vn 0.063479 0.189546 0.979818
vt 0.648115 -0.414085
v -10060.156250 151.846237 -12659.401367
vn 0.180207 -0.301466 0.936293
vt 0.756059 0.325468
v -10034.979492 150.313477 -12676.714844
vn 0.961306 -0.002430 0.275472
vt 0.769428 0.362490
v -10053.978516 310.008667 -12624.920898
vn 0.946413 0.277546 0.165140
vt 0.661950 -0.284989
v -10077.333984 345.647980 -12630.040039
vn -0.058782 0.998261 0.004378
vt 0.465605 -0.407305
v -10059.632813 330.125153 -12641.820313
vn 0.753607 0.633807 -0.174257
vt 0.577662 -0.326653
v -10086.328125 319.584625 -12692.238281
vn -0.179157 0.825736 -0.534848
vt 0.310166 -0.156718
v -10067.202148 305.214539 -12695.981445
vn 0.761613 0.486499 -0.428094
vt 0.445735 -0.147493
v -10093.718750 230.060486 -12784.776367
vn -0.188106 0.774410 -0.604074
vt 0.157369 0.259948
v -10063.819336 219.293243 -12783.369141
vn 0.661839 0.569314 -0.487700
vt 0.327132 0.302364
v -10102.704102 175.609711 -12864.194336
vn -0.176815 0.524452 -0.832878
vt -0.008368 0.585360
v -10071.090820 170.482468 -12850.531250
vn 0.772481 0.278731 -0.570599
vt 0.191245 0.587224
v -10096.279297 57.176220 -12880.366211
vn -0.129314 -0.095591 -0.986986
vt 0.113661 1.026812
v -10059.532227 70.684006 -12865.441406
vn 0.715914 -0.000866 -0.698188
vt 0.304801 0.961902
v -10075.952148 -53.233570 -12842.775391
vn -0.011526 -0.611279 -0.791331
vt 0.402670 1.349209
v -10042.280273 -23.025156 -12833.537109
vn 0.865722 -0.182735 -0.465976
vt 0.550094 1.235533
v -10046.425781 -123.508469 -12733.370117
vn 0.292948 -0.936999 0.190302
vt 0.938825 1.414087
v -10017.219727 -82.670242 -12740.680664
vn 0.917069 -0.382927 0.111138
vt 0.934535 1.286443
v -10045.303711 -79.096931 -12700.574219
vn 0.326149 -0.236899 0.915153
vt 0.973367 1.203000
v -10016.267578 -44.976414 -12712.844727
vn 0.848686 -0.011854 0.528764
vt 0.963851 1.107285
v -10058.620117 27.610369 -12704.290039
vn 0.177736 -0.132501 0.975117
vt 0.796685 0.836007
v -10027.569336 45.590294 -12715.998047
vn 0.944051 0.004623 0.329767
vt 0.813894 0.795804
v -10088.508789 305.932800 -12618.219727
vn -0.696628 -0.094773 0.711145
vt -0.033406 -0.440232
v -10088.909180 143.947769 -12666.249023
vn -0.637551 -0.221987 0.737733
vt -0.375615 -0.043531
v -10094.163086 326.049286 -12635.119141
vn -0.891133 0.395104 0.223102
vt 0.288328 -0.374421
v -10101.732422 301.138672 -12689.280273
vn -0.893820 0.427063 -0.136758
vt 0.174313 -0.225115
v -10117.749023 212.927536 -12772.903320
vn -0.902441 0.387475 -0.188315
vt 0.012044 0.171004
v -10132.606445 163.221344 -12838.593750
vn -0.885927 0.346968 -0.307809
vt -0.112365 0.587224
v -10130.865234 62.264019 -12851.598633
vn -0.906227 -0.046077 -0.420274
vt -0.032778 1.158942
v -10124.899414 -32.777382 -12817.503906
vn -0.876931 -0.376273 -0.299017
vt 0.061700 1.502234
v -10099.839844 -92.422462 -12724.647461
vn -0.697940 -0.711610 0.080563
vt -0.100199 1.769093
v -10098.886719 -54.728638 -12696.811523
vn -0.652495 -0.317691 0.687985
vt -0.395296 1.381947
v -10098.902344 37.170307 -12702.155273
vn -0.526447 -0.054676 0.848448
vt -0.616358 0.598764
v -10130.584961 1.913478 -12771.156250
vn -0.978105 -0.089257 0.187997
vt -0.215842 1.231633
v -10102.459961 302.669434 -12652.326172
vn -0.968264 0.067734 0.240577
vt 0.067408 -0.311775
v -10119.037109 176.583435 -12716.528320
vn -0.978909 0.026900 0.202516
vt -0.162693 0.093591
v -10131.462891 98.341614 -12767.326172
vn -0.977085 -0.000208 0.212850
vt -0.318400 0.590009
f 29/29/29 13/13/13 30/30/30
f 15/15/15 30/30/30 13/13/13
f 30/30/30 15/15/15 31/31/31
f 17/17/17 31/31/31 15/15/15
f 31/31/31 17/17/17 32/32/32
f 19/19/19 32/32/32 17/17/17
f 32/32/32 19/19/19 33/33/33
f 21/21/21 33/33/33 19/19/19
f 33/33/33 21/21/21 24/24/24
f 2/2/2 24/24/24 21/21/21
f 24/24/24 2/2/2 23/23/23
f 1/1/1 23/23/23 2/2/2
f 23/23/23 1/1/1 25/25/25
f 5/5/5 25/25/25 1/1/1
f 25/25/25 5/5/5 26/26/26
f 7/7/7 26/26/26 5/5/5
f 26/26/26 7/7/7 27/27/27
f 9/9/9 27/27/27 7/7/7
f 24/24/24 23/23/23 35/35/35
f 35/35/35 36/36/36 24/24/24
f 37/37/37 24/24/24 36/36/36
f 24/24/24 37/37/37 33/33/33
f 34/34/34 33/33/33 37/37/37
f 33/33/33 34/34/34 32/32/32
f 30/30/30 32/32/32 34/34/34
f 32/32/32 30/30/30 31/31/31
f 30/30/30 34/34/34 29/29/29
f 37/37/37 29/29/29 34/34/34
f 9/9/9 28/28/28 27/27/27
f 28/28/28 9/9/9 11/11/11
f 23/23/23 25/25/25 35/35/35
f 26/26/26 35/35/35 25/25/25
f 35/35/35 26/26/26 36/36/36
f 27/27/27 36/36/36 26/26/26
f 36/36/36 27/27/27 37/37/37
f 28/28/28 37/37/37 27/27/27
f 37/37/37 28/28/28 29/29/29
f 11/11/11 29/29/29 28/28/28
f 29/29/29 11/11/11 13/13/13
f 12/12/12 13/13/13 11/11/11
f 13/13/13 12/12/12 14/14/14
f 22/22/22 14/14/14 12/12/12
f 14/14/14 22/22/22 16/16/16
f 20/20/20 16/16/16 22/22/22
f 16/16/16 20/20/20 18/18/18
f 10/10/10 11/11/11 9/9/9
f 11/11/11 10/10/10 12/12/12
f 12/12/12 3/3/3 22/22/22
f 3/3/3 12/12/12 10/10/10
f 3/3/3 8/8/8 4/4/4
f 8/8/8 3/3/3 10/10/10
f 8/8/8 6/6/6 4/4/4
f 13/13/13 14/14/14 15/15/15
f 16/16/16 15/15/15 14/14/14
f 15/15/15 16/16/16 17/17/17
f 18/18/18 17/17/17 16/16/16
f 17/17/17 18/18/18 19/19/19
f 20/20/20 19/19/19 18/18/18
f 19/19/19 20/20/20 21/21/21
f 22/22/22 21/21/21 20/20/20
f 21/21/21 22/22/22 2/2/2
f 3/3/3 2/2/2 22/22/22
f 2/2/2 3/3/3 1/1/1
f 4/4/4 1/1/1 3/3/3
f 1/1/1 4/4/4 5/5/5
f 6/6/6 5/5/5 4/4/4
f 5/5/5 6/6/6 7/7/7
f 8/8/8 7/7/7 6/6/6
f 7/7/7 8/8/8 9/9/9
f 10/10/10 9/9/9 8/8/8
