mtllib OVERHILL_A_01_LINE303.mtl
g Line303
usemtl waterin
v -9290.765625 -1132.733398 -6171.016602
vn -0.901065 0.018116 -0.433305
vt 0.000000 0.573232
v -9230.096680 -1132.733398 -6295.151855
vn -0.959384 0.011507 -0.281870
vt 0.312748 0.573232
v -9237.385742 -1954.602905 -6295.151855
vn -0.944546 0.007295 -0.328298
vt 0.312748 1.265155
v -9295.150391 -1954.602905 -6171.016602
vn -0.906633 0.004838 -0.421892
vt 0.000000 1.265155
v -9217.081055 -1132.733398 -6384.950195
vn -0.997689 0.015127 -0.066234
vt 0.552536 0.573232
v -9227.283203 -1954.602905 -6384.950195
vn -0.997033 0.011199 -0.076159
vt 0.552536 1.265155
v -9219.326172 -1132.733398 -6466.891113
vn -0.986629 0.019749 0.161780
vt 0.770052 0.573232
v -9229.528320 -1954.602905 -6466.891113
vn -0.993061 0.012327 0.116954
vt 0.770052 1.265155
v -9260.757813 -1132.733398 -6601.955566
vn -0.959303 0.033724 0.280356
vt 1.000000 0.573232
v -9270.959961 -1954.602905 -6601.955566
vn -0.955963 0.011867 0.293248
vt 1.000000 1.265155
v -9283.605469 -977.983398 -6171.016602
vn -0.912136 0.018126 -0.409488
vt 0.000000 0.322975
v -9230.290039 -977.983398 -6295.151855
vn -0.957930 0.011321 -0.286778
vt 0.312748 0.322975
v -9212.824219 -977.983398 -6384.950195
vn -0.996384 0.021296 -0.082249
vt 0.552536 0.322975
v -9215.069336 -977.983398 -6466.891113
vn -0.988533 0.027180 0.148536
vt 0.770052 0.322975
v -9250.660156 -977.983398 -6601.955566
vn -0.967129 0.035331 0.251820
vt 1.000000 0.322975
v -9282.229492 -887.493347 -6171.016602
vn -0.914693 0.094881 -0.392855
vt 0.000000 0.196835
v -9228.914063 -887.493347 -6295.151855
vn -0.946825 0.137537 -0.290870
vt 0.312748 0.196835
v -9211.448242 -887.493347 -6384.950195
vn -0.995139 0.075407 -0.063349
vt 0.552536 0.196835
v -9213.693359 -887.493347 -6466.891113
vn -0.986070 0.095049 0.136500
vt 0.770052 0.196835
v -9248.016602 -887.493347 -6601.955566
vn -0.949228 0.201934 0.241224
vt 1.000000 0.196835
v -9268.841797 -840.816772 -6171.016602
vn -0.796290 0.499686 -0.340933
vt 0.000000 0.129440
v -9215.804688 -840.816772 -6295.151855
vn -0.863878 0.462278 -0.200035
vt 0.312748 0.129440
v -9208.228516 -840.816772 -6384.950195
vn -0.955589 0.293773 -0.023374
vt 0.552536 0.129440
v -9209.912109 -840.816772 -6466.891113
vn -0.895529 0.442910 0.043101
vt 0.770052 0.129440
v -9228.873047 -840.816772 -6601.955566
vn -0.853913 0.495992 0.157557
vt 1.000000 0.129440
v -9176.432617 -827.430176 -6171.016602
vn -0.003086 0.999995 -0.000276
vt 0.000000 0.002596
v -9176.432617 -827.430176 -6295.151855
vn -0.004517 0.999990 -0.000079
vt 0.312748 0.002596
v -9206.409180 -827.557007 -6295.151855
vn -0.477397 0.876216 -0.065863
vt 0.312748 0.078189
v -9241.767578 -827.557007 -6171.016602
vn -0.443991 0.883606 -0.148704
vt 0.000000 0.078189
v -9176.432617 -827.430176 -6384.950195
vn -0.005015 0.999987 0.000023
vt 0.552536 0.002596
v -9201.358398 -827.557007 -6384.950195
vn -0.516812 0.856090 -0.003857
vt 0.552536 0.078189
v -9176.432617 -827.430176 -6466.891113
vn -0.004869 0.999988 -0.000242
vt 0.770052 0.002596
v -9202.480469 -827.557007 -6466.891113
vn -0.333809 0.942640 0.000838
vt 0.770052 0.078189
v -9162.988281 -827.430176 -6601.955566
vn -0.004086 0.999992 -0.000256
vt 1.000000 0.002596
v -9201.383789 -827.557007 -6601.955566
vn -0.480675 0.876677 0.019739
vt 1.000000 0.078189
f 3/3/3 4/4/4 1/1/1
f 6/6/6 3/3/3 2/2/2
f 1/1/1 2/2/2 3/3/3
f 2/2/2 1/1/1 11/11/11
f 12/12/12 11/11/11 16/16/16
f 11/11/11 12/12/12 2/2/2
f 5/5/5 2/2/2 12/12/12
f 2/2/2 5/5/5 6/6/6
f 8/8/8 6/6/6 5/5/5
f 17/17/17 16/16/16 21/21/21
f 16/16/16 17/17/17 12/12/12
f 13/13/13 12/12/12 17/17/17
f 12/12/12 13/13/13 5/5/5
f 7/7/7 5/5/5 13/13/13
f 5/5/5 7/7/7 8/8/8
f 10/10/10 8/8/8 7/7/7
f 22/22/22 21/21/21 29/29/29
f 21/21/21 22/22/22 17/17/17
f 18/18/18 17/17/17 22/22/22
f 17/17/17 18/18/18 13/13/13
f 14/14/14 13/13/13 18/18/18
f 13/13/13 14/14/14 7/7/7
f 9/9/9 7/7/7 14/14/14
f 7/7/7 9/9/9 10/10/10
f 28/28/28 29/29/29 26/26/26
f 29/29/29 28/28/28 22/22/22
f 23/23/23 22/22/22 28/28/28
f 22/22/22 23/23/23 18/18/18
f 19/19/19 18/18/18 23/23/23
f 18/18/18 19/19/19 14/14/14
f 15/15/15 14/14/14 19/19/19
f 14/14/14 15/15/15 9/9/9
f 19/19/19 20/20/20 15/15/15
f 26/26/26 27/27/27 28/28/28
f 31/31/31 28/28/28 27/27/27
f 28/28/28 31/31/31 23/23/23
f 24/24/24 23/23/23 31/31/31
f 23/23/23 24/24/24 19/19/19
f 25/25/25 19/19/19 24/24/24
f 19/19/19 25/25/25 20/20/20
f 24/24/24 35/35/35 25/25/25
f 35/35/35 24/24/24 33/33/33
f 31/31/31 33/33/33 24/24/24
f 33/33/33 31/31/31 30/30/30
f 27/27/27 30/30/30 31/31/31
f 30/30/30 32/32/32 33/33/33
f 34/34/34 33/33/33 32/32/32
f 33/33/33 34/34/34 35/35/35
usemtl waterout
v -9293.361328 -1129.194214 -6171.016602
vn -0.901065 0.018116 -0.433305
vt 0.000000 0.573232
v -9232.692383 -1129.194214 -6295.151855
vn -0.959384 0.011507 -0.281870
vt 0.312748 0.573232
v -9239.981445 -1951.063721 -6295.151855
vn -0.944546 0.007295 -0.328298
vt 0.312748 1.265155
v -9297.746094 -1951.063721 -6171.016602
vn -0.906633 0.004838 -0.421892
vt 0.000000 1.265155
v -9219.676758 -1129.194214 -6384.950195
vn -0.997689 0.015127 -0.066234
vt 0.552536 0.573232
v -9229.878906 -1951.063721 -6384.950195
vn -0.997033 0.011199 -0.076159
vt 0.552536 1.265155
v -9221.921875 -1129.194214 -6466.891113
vn -0.986629 0.019749 0.161780
vt 0.770052 0.573232
v -9232.124023 -1951.063721 -6466.891113
vn -0.993061 0.012327 0.116954
vt 0.770052 1.265155
v -9263.353516 -1129.194214 -6601.955566
vn -0.959303 0.033724 0.280356
vt 1.000000 0.573232
v -9273.555664 -1951.063721 -6601.955566
vn -0.955963 0.011867 0.293248
vt 1.000000 1.265155
v -9286.201172 -974.444214 -6171.016602
vn -0.912136 0.018126 -0.409488
vt 0.000000 0.322975
v -9232.885742 -974.444214 -6295.151855
vn -0.957930 0.011321 -0.286778
vt 0.312748 0.322975
v -9215.419922 -974.444214 -6384.950195
vn -0.996384 0.021296 -0.082249
vt 0.552536 0.322975
v -9217.665039 -974.444214 -6466.891113
vn -0.988533 0.027180 0.148536
vt 0.770052 0.322975
v -9253.255859 -974.444214 -6601.955566
vn -0.967129 0.035331 0.251820
vt 1.000000 0.322975
v -9284.825195 -883.954163 -6171.016602
vn -0.914693 0.094881 -0.392855
vt 0.000000 0.196835
v -9231.509766 -883.954163 -6295.151855
vn -0.946825 0.137537 -0.290870
vt 0.312748 0.196835
v -9214.043945 -883.954163 -6384.950195
vn -0.995139 0.075407 -0.063349
vt 0.552536 0.196835
v -9216.289063 -883.954163 -6466.891113
vn -0.986070 0.095049 0.136500
vt 0.770052 0.196835
v -9250.612305 -883.954163 -6601.955566
vn -0.949228 0.201934 0.241224
vt 1.000000 0.196835
v -9271.437500 -837.277588 -6171.016602
vn -0.796290 0.499686 -0.340933
vt 0.000000 0.129440
v -9218.400391 -837.277588 -6295.151855
vn -0.863878 0.462278 -0.200035
vt 0.312748 0.129440
v -9210.824219 -837.277588 -6384.950195
vn -0.955589 0.293773 -0.023374
vt 0.552536 0.129440
v -9212.507813 -837.277588 -6466.891113
vn -0.895529 0.442910 0.043101
vt 0.770052 0.129440
v -9231.468750 -837.277588 -6601.955566
vn -0.853913 0.495992 0.157557
vt 1.000000 0.129440
v -9179.028320 -823.890991 -6171.016602
vn -0.003086 0.999995 -0.000276
vt 0.000000 0.002596
v -9179.028320 -823.890991 -6295.151855
vn -0.004517 0.999990 -0.000079
vt 0.312748 0.002596
v -9209.004883 -824.017822 -6295.151855
vn -0.477397 0.876216 -0.065863
vt 0.312748 0.078189
v -9244.363281 -824.017822 -6171.016602
vn -0.443991 0.883606 -0.148704
vt 0.000000 0.078189
v -9179.028320 -823.890991 -6384.950195
vn -0.005015 0.999987 0.000023
vt 0.552536 0.002596
v -9203.954102 -824.017822 -6384.950195
vn -0.516812 0.856090 -0.003857
vt 0.552536 0.078189
v -9179.028320 -823.890991 -6466.891113
vn -0.004869 0.999988 -0.000242
vt 0.770052 0.002596
v -9205.076172 -824.017822 -6466.891113
vn -0.333809 0.942640 0.000838
vt 0.770052 0.078189
v -9165.583984 -823.890991 -6601.955566
vn -0.004086 0.999992 -0.000256
vt 1.000000 0.002596
v -9203.979492 -824.017822 -6601.955566
vn -0.480675 0.876677 0.019739
vt 1.000000 0.078189
f 38/38/38 39/39/39 36/36/36
f 41/41/41 38/38/38 37/37/37
f 36/36/36 37/37/37 38/38/38
f 37/37/37 36/36/36 46/46/46
f 47/47/47 46/46/46 51/51/51
f 46/46/46 47/47/47 37/37/37
f 40/40/40 37/37/37 47/47/47
f 37/37/37 40/40/40 41/41/41
f 43/43/43 41/41/41 40/40/40
f 52/52/52 51/51/51 56/56/56
f 51/51/51 52/52/52 47/47/47
f 48/48/48 47/47/47 52/52/52
f 47/47/47 48/48/48 40/40/40
f 42/42/42 40/40/40 48/48/48
f 40/40/40 42/42/42 43/43/43
f 45/45/45 43/43/43 42/42/42
f 57/57/57 56/56/56 64/64/64
f 56/56/56 57/57/57 52/52/52
f 53/53/53 52/52/52 57/57/57
f 52/52/52 53/53/53 48/48/48
f 49/49/49 48/48/48 53/53/53
f 48/48/48 49/49/49 42/42/42
f 44/44/44 42/42/42 49/49/49
f 42/42/42 44/44/44 45/45/45
f 63/63/63 64/64/64 61/61/61
f 64/64/64 63/63/63 57/57/57
f 58/58/58 57/57/57 63/63/63
f 57/57/57 58/58/58 53/53/53
f 54/54/54 53/53/53 58/58/58
f 53/53/53 54/54/54 49/49/49
f 50/50/50 49/49/49 54/54/54
f 49/49/49 50/50/50 44/44/44
f 54/54/54 55/55/55 50/50/50
f 61/61/61 62/62/62 63/63/63
f 66/66/66 63/63/63 62/62/62
f 63/63/63 66/66/66 58/58/58
f 59/59/59 58/58/58 66/66/66
f 58/58/58 59/59/59 54/54/54
f 60/60/60 54/54/54 59/59/59
f 54/54/54 60/60/60 55/55/55
f 59/59/59 70/70/70 60/60/60
f 70/70/70 59/59/59 68/68/68
f 66/66/66 68/68/68 59/59/59
f 68/68/68 66/66/66 65/65/65
f 62/62/62 65/65/65 66/66/66
f 65/65/65 67/67/67 68/68/68
f 69/69/69 68/68/68 67/67/67
f 68/68/68 69/69/69 70/70/70
