mtllib OVERHILL_A_01_LINE346.mtl
g Line346
usemtl Cave_Blender
v -4196.317871 786.842224 5083.821777
vn -0.560783 0.718403 -0.411607
vt -3.974708 -3.324630
v -4219.531250 769.573975 5072.234863
vn -0.111923 0.974786 -0.193043
vt -3.857047 -3.265848
v -4405.732910 801.515076 5295.523438
vn -0.115836 0.925393 -0.360873
vt -3.391543 -3.824070
v -4387.904297 820.557800 5320.872559
vn -0.367241 0.601135 -0.709768
vt -3.470897 -3.947069
v -4191.502930 928.391907 5087.295898
vn -0.856285 -0.212241 -0.470882
vt 3.304773 3.176213
v -4183.181641 820.243591 5091.766602
vn -0.842361 0.224276 -0.490029
vt 3.304773 3.698713
v -4376.485840 851.776184 5333.242188
vn -0.571238 0.136304 -0.809388
vt 3.810151 3.698713
v -4374.097656 959.562317 5319.468750
vn -0.530337 -0.235556 -0.814405
vt 3.810151 3.176214
v -4210.645020 989.861084 5076.997559
vn -0.767160 -0.501259 -0.400256
vt 3.304773 2.724171
v -4382.805664 1020.910217 5295.810059
vn -0.443931 -0.493205 -0.748114
vt 3.810151 2.724171
v -4402.924316 1071.887573 5255.979492
vn -0.402269 -0.770207 -0.494935
vt 3.810151 2.305646
v -4244.956055 1040.827759 5058.573730
vn -0.502275 -0.847768 -0.170322
vt 3.304773 2.305646
v -4437.690430 1096.106812 5197.494141
vn -0.154570 -0.987185 -0.039686
vt 3.810151 1.887121
v -4297.307617 1064.827637 5030.443848
vn 0.036788 -0.983005 0.179854
vt 3.304773 1.887121
v -4476.097656 1072.508789 5141.068848
vn 0.168752 -0.855072 0.490280
vt 3.810151 1.468596
v -4349.659668 1040.827637 5002.313965
vn 0.517906 -0.733301 0.440503
vt 3.304773 1.468596
v -4502.933594 1021.447449 5107.254883
vn 0.330124 -0.507323 0.796016
vt 3.810151 1.050072
v -4382.478516 989.376221 4984.675293
vn 0.695786 -0.444933 0.563841
vt 3.304773 1.050072
v -4520.762207 960.268127 5089.234863
vn 0.431683 -0.232406 0.871572
vt 3.810151 0.631546
v -4401.308105 927.850586 4974.562012
vn 0.806176 -0.229376 0.545406
vt 3.304773 0.631546
v -4536.001953 853.130737 5082.739746
vn 0.480626 0.211082 0.851142
vt 3.810152 0.213022
v -4411.434082 820.243591 4969.121094
vn 0.855622 0.195508 0.479257
vt 3.304773 0.213022
v -4514.442383 802.438110 5124.806641
vn 0.233320 0.963776 0.129219
vt -3.119769 -3.397278
v -4375.085449 769.573914 4988.651855
vn 0.392493 0.919374 0.026455
vt -3.468162 -3.056890
v -4395.225586 787.369629 4976.422363
vn 0.696887 0.661276 0.277602
vt -3.360900 -2.995965
v -4527.565918 820.245300 5100.449707
vn 0.427199 0.683314 0.592101
vt -3.049020 -3.287063
v -4186.799805 734.511780 4510.716309
vn -0.657807 0.714508 0.238259
vt -2.983596 -1.847145
v -4208.450684 715.629211 4521.974609
vn -0.212824 0.976379 0.037291
vt -2.884748 -1.890198
v -4119.371582 741.444641 4814.188477
vn -0.371340 0.923613 -0.095110
vt -3.107446 -2.620732
v -4090.757813 758.712830 4812.562988
vn -0.777734 0.623208 -0.082107
vt -3.238608 -2.616668
v -4179.574707 874.385010 4506.426758
vn -0.898037 -0.217670 0.382295
vt 2.341298 3.176213
v -4171.443848 766.218933 4501.618164
vn -0.893167 0.256714 0.369256
vt 2.341298 3.698713
v -4072.083740 792.114197 4813.363770
vn -0.989053 0.145262 0.025963
vt 2.853789 3.698713
v -4082.909180 900.262512 4813.552246
vn -0.971710 -0.235258 -0.020822
vt 2.853789 3.176213
v -4198.821777 935.895935 4517.249023
vn -0.786518 -0.510972 0.346840
vt 2.341298 2.724171
v -4107.817383 961.731812 4813.974609
vn -0.869435 -0.490821 -0.056372
vt 2.853790 2.724171
v -4152.446777 1012.698425 4814.765137
vn -0.639233 -0.767532 0.047703
vt 2.853790 2.305646
v -4233.461426 986.937500 4536.593750
vn -0.466607 -0.845746 0.258827
vt 2.341298 2.305646
v -4220.551758 1036.698364 4815.954102
vn -0.128444 -0.986674 0.099880
vt 2.853790 1.887121
v -4286.482910 1011.052063 4566.032227
vn 0.106676 -0.991552 0.073793
vt 2.341298 1.887121
v -4288.657715 1012.698303 4817.142578
vn 0.498231 -0.857889 0.125670
vt 2.853790 1.468596
v -4339.642090 987.166931 4595.411133
vn 0.596154 -0.795271 -0.110201
vt 2.341298 1.468596
v -4331.354980 961.246887 4817.883301
vn 0.849802 -0.507505 0.142395
vt 2.853790 1.050072
v -4373.073730 935.787659 4613.781738
vn 0.850208 -0.472599 -0.231941
vt 2.341298 1.050072
v -4355.847656 899.721252 4818.314941
vn 0.968377 -0.236662 0.078974
vt 2.853790 0.631546
v -4392.340332 874.303589 4624.285156
vn 0.932974 -0.225745 -0.280355
vt 2.341298 0.631546
v -4369.020996 792.114258 4818.545410
vn 0.977496 0.210732 0.009648
vt 2.853790 0.213022
v -4402.916016 766.719299 4629.840332
vn 0.926858 0.189147 -0.324279
vt 2.341298 0.213022
v -4348.271973 759.240295 4817.976563
vn 0.737592 0.671385 -0.072113
vt 2.853790 0.106511
v -4390.158203 736.248047 4620.969727
vn 0.708476 0.642183 -0.292682
vt 2.341298 0.106511
v -4706.945801 878.105774 5402.924805
vn -0.150483 0.148125 -0.977453
vt 3.320627 3.698713
v -4376.485840 851.776184 5333.242188
vn -0.571238 0.136304 -0.809388
vt 2.810151 3.698713
v -4387.904297 820.557800 5320.872559
vn -0.367241 0.601135 -0.709768
vt 2.810151 3.849356
v -4710.049805 846.344238 5389.579102
vn -0.090706 0.647499 -0.756649
vt 3.320627 3.849356
v -4374.097656 959.562317 5319.468750
vn -0.530337 -0.235556 -0.814405
vt 2.810151 3.176214
v -4703.853027 985.934875 5390.269531
vn -0.166226 -0.241417 -0.956079
vt 3.320627 3.176214
v -4382.805664 1020.910217 5295.810059
vn -0.443931 -0.493205 -0.748114
vt 2.810151 2.724171
v -4705.259766 1046.925659 5365.977051
vn -0.155143 -0.530964 -0.833071
vt 3.320627 2.724171
v -4402.924316 1071.887573 5255.979492
vn -0.402269 -0.770207 -0.494935
vt 2.810151 2.305646
v -4710.506836 1097.117798 5323.981934
vn -0.125695 -0.822949 -0.554036
vt 3.320627 2.305646
v -4437.690430 1096.106812 5197.494141
vn -0.154570 -0.987185 -0.039686
vt 2.810151 1.887121
v -4720.947266 1120.008789 5261.278809
vn -0.055991 -0.994811 0.084952
vt 3.320627 1.887121
v -4476.097656 1072.508789 5141.068848
vn 0.168752 -0.855072 0.490280
vt 2.810151 1.468596
v -4733.574219 1094.965576 5199.812500
vn 0.015394 -0.733966 0.679012
vt 3.320627 1.468596
v -4502.933594 1021.447449 5107.254883
vn 0.330124 -0.507323 0.796016
vt 2.810151 1.050072
v -4743.144531 1042.909668 5162.215332
vn 0.045444 -0.448539 0.892607
vt 3.320627 1.050072
v -4750.098633 981.081604 5141.474121
vn 0.051965 -0.228282 0.972207
vt 3.320627 0.631546
v -4520.762207 960.268127 5089.234863
vn 0.431683 -0.232406 0.871572
vt 2.810151 0.631546
v -4757.230957 873.413940 5132.238281
vn 0.058297 0.226698 0.972219
vt 3.320627 0.213022
v -4536.001953 853.130737 5082.739746
vn 0.480626 0.211082 0.851142
vt 2.810152 0.213022
v -4751.531250 823.560852 5176.651367
vn 0.064018 0.957849 0.280050
vt -2.527047 -3.526890
v -4514.442383 802.438110 5124.806641
vn 0.233320 0.963776 0.129219
vt -3.119769 -3.397278
v -4527.565918 820.245300 5100.449707
vn 0.427199 0.683314 0.592101
vt -3.049020 -3.287063
v -4754.585449 841.953308 5150.593750
vn 0.073456 0.680135 0.729398
vt -2.519412 -3.412423
v -4090.757813 758.712830 4812.562988
vn -0.777734 0.623208 -0.082107
vt 2.853789 3.849356
v -4196.317871 786.842224 5083.821777
vn -0.560783 0.718403 -0.411607
vt 3.304773 3.849356
v -4321.733887 741.444580 4817.718750
vn 0.302908 0.943210 -0.136386
vt -3.601540 -2.629558
v -4348.271973 759.240295 4817.976563
vn 0.737592 0.671385 -0.072113
vt -3.487163 -2.626409
v -4286.228516 762.200928 4277.451172
vn -0.787270 0.161518 0.595078
vt 1.732208 3.698713
v -4441.546875 774.566895 4112.574219
vn -0.990485 0.087456 0.106257
vt 1.267558 3.732667
v -4440.422363 743.468079 4115.764648
vn -0.704091 0.342641 0.621975
vt 1.267558 3.866334
v -4302.166504 732.266907 4288.083496
vn -0.663618 0.606931 0.437317
vt 1.732208 3.849356
v -4427.167480 890.007385 4129.619141
vn -0.984765 0.054668 0.165074
vt 1.335468 3.116792
v -4293.905762 862.703735 4282.780273
vn -0.818997 -0.212078 0.533166
vt 1.732208 3.176213
v -4425.495605 933.802429 4152.016113
vn -0.982096 -0.188355 -0.003215
vt 1.369423 2.724171
v -4311.842285 919.843201 4294.916504
vn -0.710242 -0.540533 0.450977
vt 1.732209 2.724171
v -4447.765137 955.809204 4179.618652
vn -0.391009 -0.862561 0.321093
vt 1.301513 2.373556
v -4344.048340 967.239990 4316.649902
vn -0.455279 -0.817376 0.353011
vt 1.732209 2.339601
v -4471.230469 960.371399 4205.392090
vn -0.055657 -0.977941 0.201330
vt 1.267558 2.065385
v -4384.012695 989.598633 4343.376465
vn 0.036085 -0.993686 0.106234
vt 1.732209 1.887121
v -4527.727051 955.697266 4243.746094
vn 0.376513 -0.909613 -0.175622
vt 1.267559 1.604416
v -4442.581543 967.354675 4382.856934
vn 0.582413 -0.776571 -0.240276
vt 1.732209 1.468596
v -4473.543457 919.580872 4403.575684
vn 0.731738 -0.551785 -0.400116
vt 1.732209 1.050072
v -4561.437500 936.925171 4268.411621
vn 0.613298 -0.612746 -0.498405
vt 1.267559 1.143448
v -4491.346680 862.430664 4415.445801
vn 0.830118 -0.255061 -0.495831
vt 1.732209 0.631546
v -4596.166504 884.152466 4270.344238
vn 0.276254 -0.026289 -0.960725
vt 1.267559 0.775855
v -4501.029297 762.451111 4421.782227
vn 0.836589 0.200686 -0.509749
vt 1.732209 0.213022
v -4616.099121 770.396118 4259.082031
vn 0.139196 0.189577 -0.971949
vt 1.267559 0.246977
v -4489.562988 733.792847 4411.645020
vn 0.639543 0.664992 -0.385707
vt -3.133845 -1.655327
v -4466.895020 715.328003 4398.765625
vn 0.181513 0.979042 -0.092352
vt -3.238638 -1.582175
v -4599.177734 725.193848 4246.437988
vn 0.152772 0.942523 -0.297171
vt -2.907931 -1.201355
v -4611.030762 747.794983 4254.553711
vn 0.737457 0.433406 -0.517992
vt -2.805473 -1.290915
v -4186.799805 734.511780 4510.716309
vn -0.657807 0.714508 0.238259
vt -3.983596 -1.847145
v -4302.166504 732.266907 4288.083496
vn -0.663618 0.606931 0.437317
vt -3.700149 -1.270687
v -4320.508301 715.157471 4300.404785
vn -0.268137 0.946867 0.177611
vt -3.604605 -1.336273
v -4208.450684 715.629211 4521.974609
vn -0.212824 0.976379 0.037291
vt -3.884748 -1.890198
v -4489.562988 733.792847 4411.645020
vn 0.639543 0.664992 -0.385707
vt 1.732209 0.106511
v -4710.049805 846.344238 5389.579102
vn -0.090706 0.647499 -0.756649
vt -2.640690 -3.128774
v -4387.904297 820.557800 5320.872559
vn -0.367241 0.601135 -0.709768
vt -3.470897 -2.947069
v -4405.732910 801.515076 5295.523438
vn -0.115836 0.925393 -0.360873
vt -3.391543 -2.824070
v -4717.262207 826.758423 5361.123535
vn -0.009365 0.952925 -0.303062
vt -2.612720 -2.988070
v -4387.904297 820.557800 5320.872559
vn -0.367241 0.601135 -0.709768
vt 3.810151 3.849356
v -4196.317871 786.842224 5083.821777
vn -0.560783 0.718403 -0.411607
vt -2.974708 -3.324630
v -4219.531250 769.573975 5072.234863
vn -0.111923 0.974786 -0.193043
vt -2.857047 -3.265848
v -4186.799805 734.511780 4510.716309
vn -0.657807 0.714508 0.238259
vt 2.341298 3.849356
v -4440.422363 743.468079 4115.764648
vn -0.704091 0.342641 0.621975
vt -3.348879 -0.823270
v -4446.407715 725.193848 4121.861816
vn -0.440327 0.884517 0.154082
vt -3.289855 -0.889916
v -4754.585449 841.953308 5150.593750
vn 0.073456 0.680135 0.729398
vt 3.320627 0.106511
v -4527.565918 820.245300 5100.449707
vn 0.427199 0.683314 0.592101
vt 2.810152 0.106511
v -4527.565918 820.245300 5100.449707
vn 0.427199 0.683314 0.592101
vt 3.810152 0.106511
v -4395.225586 787.369629 4976.422363
vn 0.696887 0.661276 0.277602
vt 3.304773 0.106511
v -4390.158203 736.248047 4620.969727
vn 0.708476 0.642183 -0.292682
vt -3.374147 -2.167806
v -4366.198730 715.970215 4609.357422
vn 0.277627 0.946100 -0.166790
vt -3.490378 -2.108654
v -4611.030762 747.794983 4254.553711
vn 0.737457 0.433406 -0.517992
vt 1.267559 0.123488
v -4297.308594 769.573914 5030.443359
vn 0.066287 0.990479 -0.120655
vt -3.662604 -3.161369
v -4375.085449 769.573914 4988.651855
vn 0.392493 0.919374 0.026455
vt -3.468162 -3.056890
v -4514.442383 802.438110 5124.806641
vn 0.233320 0.963776 0.129219
vt -3.119769 -3.397278
v -4460.087891 801.976563 5210.165039
vn 0.084852 0.994544 -0.060683
vt -3.255656 -3.610674
v -4220.552734 741.444580 4815.953613
vn -0.006264 0.994428 -0.105236
vt -3.854493 -2.625145
v -4287.324707 715.799744 4565.666016
vn -0.018846 0.999120 -0.037460
vt -3.687563 -1.999426
v -4366.198730 715.970215 4609.357422
vn 0.277627 0.946100 -0.166790
vt -3.490378 -2.108654
v -4321.733887 741.444580 4817.718750
vn 0.302908 0.943210 -0.136386
vt -3.601540 -2.629558
v -4717.262207 826.758423 5361.123535
vn -0.009365 0.952925 -0.303062
vt -2.612720 -3.988070
v -4405.732910 801.515076 5295.523438
vn -0.115836 0.925393 -0.360873
vt -3.391543 -3.824070
v -4460.087891 801.976563 5210.165039
vn 0.084852 0.994544 -0.060683
vt -3.255656 -3.610674
v -4734.396973 825.159607 5268.887695
vn 0.012258 0.999767 -0.017783
vt -2.569883 -3.757480
v -4219.531250 769.573975 5072.234863
vn -0.111923 0.974786 -0.193043
vt -2.857047 -3.265848
v -4119.371582 741.444641 4814.188477
vn -0.371340 0.923613 -0.095110
vt -3.107446 -2.620732
v -4220.552734 741.444580 4815.953613
vn -0.006264 0.994428 -0.105236
vt -2.854493 -2.625145
v -4219.531250 769.573975 5072.234863
vn -0.111923 0.974786 -0.193043
vt -3.857047 -3.265848
v -4320.508301 715.157471 4300.404785
vn -0.268137 0.946867 0.177611
vt -3.604605 -1.336273
v -4446.407715 725.193848 4121.861816
vn -0.440327 0.884517 0.154082
vt -3.289855 -0.889916
v -4522.792969 725.193848 4184.149902
vn 0.015173 0.999686 0.019927
vt -3.098893 -1.045636
v -4393.701660 715.242737 4349.585449
vn 0.010893 0.999842 0.014081
vt -3.421621 -1.459224
v -4466.895020 715.328003 4398.765625
vn 0.181513 0.979042 -0.092352
vt -3.238638 -1.582175
v -4514.442383 802.438110 5124.806641
vn 0.233320 0.963776 0.129219
vt -3.119769 -3.397278
v -4751.531250 823.560852 5176.651367
vn 0.064018 0.957849 0.280050
vt -2.527047 -3.526890
v -4405.732910 801.515076 5295.523438
vn -0.115836 0.925393 -0.360873
vt -3.391543 -3.824070
v -4208.450684 715.629211 4521.974609
vn -0.212824 0.976379 0.037291
vt -3.884748 -1.890198
v -4208.450684 715.629211 4521.974609
vn -0.212824 0.976379 0.037291
vt -2.884748 -1.890198
v -4599.177734 725.193848 4246.437988
vn 0.152772 0.942523 -0.297171
vt -2.907931 -1.201355
f 73/73/73 71/71/71 72/72/72
f 71/71/71 73/73/73 74/74/74
f 115/115/115 75/75/75 32/32/32
f 33/33/33 32/32/32 75/75/75
f 32/32/32 33/33/33 31/31/31
f 34/34/34 31/31/31 33/33/33
f 31/31/31 34/34/34 35/35/35
f 36/36/36 35/35/35 34/34/34
f 35/35/35 36/36/36 37/37/37
f 9/9/9 37/37/37 36/36/36
f 37/37/37 9/9/9 12/12/12
f 11/11/11 12/12/12 9/9/9
f 12/12/12 11/11/11 13/13/13
f 31/31/31 35/35/35 86/86/86
f 32/32/32 31/31/31 84/84/84
f 86/86/86 84/84/84 31/31/31
f 84/84/84 86/86/86 85/85/85
f 34/34/34 33/33/33 6/6/6
f 75/75/75 6/6/6 33/33/33
f 6/6/6 75/75/75 76/76/76
f 5/5/5 34/34/34 6/6/6
f 34/34/34 5/5/5 36/36/36
f 9/9/9 36/36/36 5/5/5
f 76/76/76 112/112/112 6/6/6
f 7/7/7 6/6/6 112/112/112
f 6/6/6 7/7/7 5/5/5
f 8/8/8 5/5/5 7/7/7
f 5/5/5 8/8/8 9/9/9
f 10/10/10 9/9/9 8/8/8
f 9/9/9 10/10/10 11/11/11
f 86/86/86 87/87/87 85/85/85
f 87/87/87 86/86/86 88/88/88
f 35/35/35 88/88/88 86/86/86
f 88/88/88 35/35/35 38/38/38
f 37/37/37 38/38/38 35/35/35
f 38/38/38 37/37/37 39/39/39
f 12/12/12 39/39/39 37/37/37
f 39/39/39 12/12/12 14/14/14
f 13/13/13 14/14/14 12/12/12
f 14/14/14 13/13/13 15/15/15
f 88/88/88 89/89/89 87/87/87
f 89/89/89 88/88/88 90/90/90
f 38/38/38 90/90/90 88/88/88
f 90/90/90 38/38/38 40/40/40
f 39/39/39 40/40/40 38/38/38
f 40/40/40 39/39/39 41/41/41
f 14/14/14 41/41/41 39/39/39
f 41/41/41 14/14/14 16/16/16
f 15/15/15 16/16/16 14/14/14
f 16/16/16 15/15/15 17/17/17
f 90/90/90 40/40/40 42/42/42
f 41/41/41 42/42/42 40/40/40
f 42/42/42 41/41/41 43/43/43
f 16/16/16 43/43/43 41/41/41
f 43/43/43 16/16/16 18/18/18
f 17/17/17 18/18/18 16/16/16
f 18/18/18 17/17/17 19/19/19
f 90/90/90 91/91/91 89/89/89
f 91/91/91 90/90/90 92/92/92
f 42/42/42 92/92/92 90/90/90
f 92/92/92 42/42/42 44/44/44
f 43/43/43 44/44/44 42/42/42
f 94/94/94 91/91/91 93/93/93
f 92/92/92 93/93/93 91/91/91
f 93/93/93 92/92/92 44/44/44
f 96/96/96 94/94/94 95/95/95
f 93/93/93 95/95/95 94/94/94
f 95/95/95 93/93/93 46/46/46
f 44/44/44 46/46/46 93/93/93
f 46/46/46 44/44/44 45/45/45
f 43/43/43 45/45/45 44/44/44
f 45/45/45 43/43/43 20/20/20
f 18/18/18 20/20/20 43/43/43
f 20/20/20 18/18/18 19/19/19
f 98/98/98 96/96/96 97/97/97
f 95/95/95 97/97/97 96/96/96
f 97/97/97 95/95/95 48/48/48
f 46/46/46 48/48/48 95/95/95
f 48/48/48 46/46/46 47/47/47
f 45/45/45 47/47/47 46/46/46
f 47/47/47 45/45/45 22/22/22
f 20/20/20 22/22/22 45/45/45
f 22/22/22 20/20/20 21/21/21
f 19/19/19 21/21/21 20/20/20
f 124/124/124 98/98/98 97/97/97
f 21/21/21 120/120/120 22/22/22
f 121/121/121 22/22/22 120/120/120
f 22/22/22 121/121/121 47/47/47
f 49/49/49 47/47/47 121/121/121
f 47/47/47 49/49/49 48/48/48
f 50/50/50 48/48/48 49/49/49
f 48/48/48 50/50/50 97/97/97
f 107/107/107 97/97/97 50/50/50
f 97/97/97 107/107/107 124/124/124
f 125/125/125 140/140/140 129/129/129
f 140/140/140 125/125/125 128/128/128
f 127/127/127 128/128/128 125/125/125
f 128/128/128 148/148/148 140/140/140
f 143/143/143 141/141/141 142/142/142
f 141/141/141 143/143/143 144/144/144
f 145/145/145 144/144/144 143/143/143
f 144/144/144 145/145/145 130/130/130
f 131/131/131 130/130/130 145/145/145
f 130/130/130 131/131/131 129/129/129
f 132/132/132 129/129/129 131/131/131
f 129/129/129 132/132/132 125/125/125
f 126/126/126 125/125/125 132/132/132
f 125/125/125 126/126/126 127/127/127
f 141/141/141 144/144/144 149/149/149
f 130/130/130 149/149/149 144/144/144
f 149/149/149 130/130/130 129/129/129
f 143/143/143 151/151/151 145/145/145
f 99/99/99 100/100/100 101/101/101
f 100/100/100 99/99/99 123/123/123
f 122/122/122 123/123/123 99/99/99
f 123/123/123 122/122/122 77/77/77
f 78/78/78 77/77/77 122/122/122
f 77/77/77 78/78/78 24/24/24
f 25/25/25 24/24/24 78/78/78
f 24/24/24 25/25/25 23/23/23
f 26/26/26 23/23/23 25/25/25
f 101/101/101 102/102/102 99/99/99
f 83/83/83 80/80/80 79/79/79
f 81/81/81 79/79/79 80/80/80
f 79/79/79 81/81/81 82/82/82
f 85/85/85 83/83/83 84/84/84
f 79/79/79 84/84/84 83/83/83
f 84/84/84 79/79/79 32/32/32
f 82/82/82 32/32/32 79/79/79
f 32/32/32 82/82/82 115/115/115
f 65/65/65 66/66/66 67/67/67
f 66/66/66 65/65/65 64/64/64
f 63/63/63 64/64/64 65/65/65
f 64/64/64 63/63/63 62/62/62
f 61/61/61 62/62/62 63/63/63
f 62/62/62 61/61/61 60/60/60
f 59/59/59 60/60/60 61/61/61
f 60/60/60 59/59/59 58/58/58
f 57/57/57 58/58/58 59/59/59
f 58/58/58 57/57/57 56/56/56
f 55/55/55 56/56/56 57/57/57
f 56/56/56 55/55/55 51/51/51
f 52/52/52 51/51/51 55/55/55
f 51/51/51 52/52/52 53/53/53
f 53/53/53 54/54/54 51/51/51
f 70/70/70 118/118/118 119/119/119
f 118/118/118 70/70/70 69/69/69
f 68/68/68 69/69/69 70/70/70
f 69/69/69 68/68/68 67/67/67
f 65/65/65 67/67/67 68/68/68
f 29/29/29 27/27/27 28/28/28
f 27/27/27 29/29/29 30/30/30
f 113/113/113 30/30/30 29/29/29
f 29/29/29 114/114/114 113/113/113
f 110/110/110 108/108/108 109/109/109
f 108/108/108 110/110/110 111/111/111
f 116/116/116 117/117/117 104/104/104
f 105/105/105 104/104/104 117/117/117
f 104/104/104 105/105/105 103/103/103
f 106/106/106 103/103/103 105/105/105
f 135/135/135 133/133/133 134/134/134
f 133/133/133 135/135/135 136/136/136
f 146/146/146 136/136/136 135/135/135
f 136/136/136 146/146/146 147/147/147
f 137/137/137 138/138/138 139/139/139
f 150/150/150 139/139/139 138/138/138
f 3/3/3 1/1/1 2/2/2
f 1/1/1 3/3/3 4/4/4
