mtllib OVERHILL_A_01_ROCK91.mtl
g rock91
usemtl stone_01
v -3484.361572 109.540833 198.159653
vn -0.413818 0.817225 0.401120
vt 0.231043 0.471125
v -3478.081299 116.945686 190.244171
vn 0.100345 0.971232 -0.215963
vt 0.525353 0.490755
v -3482.148926 114.160576 187.028030
vn -0.508251 0.820824 -0.260632
vt 0.515050 0.366957
v -3487.179688 109.541885 191.515106
vn -0.664403 0.746989 0.024010
vt 0.341349 0.307367
v -3468.684814 109.539810 190.312881
vn 0.687014 0.720701 -0.092748
vt 0.759706 0.636767
v -3471.163818 109.540756 182.845184
vn 0.386938 0.807083 -0.445978
vt 0.777564 0.476440
v -3473.769775 115.067352 194.179153
vn 0.307586 0.848226 0.431165
vt 0.516792 0.628837
v -3485.390381 109.539902 184.169373
vn -0.547307 0.683093 -0.483569
vt 0.515936 0.242524
v -3478.274902 109.541466 181.469467
vn -0.055191 0.731359 -0.679756
vt 0.705073 0.349026
v -3470.766846 109.543022 197.626099
vn 0.583290 0.633935 0.507838
vt 0.518215 0.791359
v -3477.993408 109.540123 200.633667
vn 0.046024 0.743678 0.666952
vt 0.268675 0.676530
f 3/3/3 4/4/4 1/1/1
f 4/4/4 3/3/3 8/8/8
f 11/11/11 7/7/7 1/1/1
f 2/2/2 1/1/1 7/7/7
f 1/1/1 2/2/2 3/3/3
f 9/9/9 3/3/3 2/2/2
f 3/3/3 9/9/9 8/8/8
f 2/2/2 6/6/6 9/9/9
f 6/6/6 2/2/2 5/5/5
f 7/7/7 5/5/5 2/2/2
f 5/5/5 7/7/7 10/10/10
f 11/11/11 10/10/10 7/7/7
