mtllib OVERHILL_A_01_LINE326.mtl
g Line326
usemtl Wall_Grass_Blend
v -8444.534180 -895.903015 -7598.849609
vn 0.618401 -0.774112 0.135394
vt -1.228058 0.000000
v -8361.831055 -835.862854 -7624.500000
vn 0.741712 -0.632663 -0.222712
vt -0.703840 0.393502
v -8392.902344 -816.843445 -7555.569336
vn 0.647000 -0.337485 0.683736
vt -0.620993 -0.609446
v -8462.759766 -884.048096 -7552.912598
vn 0.521972 -0.515718 0.679396
vt -1.019467 -0.210634
v -8479.819336 -888.967346 -7636.116211
vn 0.203713 -0.676889 -0.707335
vt -0.507733 1.465478
v -8416.051758 -824.735657 -7678.066406
vn 0.210103 -0.357452 -0.909992
vt -0.506031 1.497036
v -8529.205078 -872.031006 -7631.313965
vn -0.343886 -0.294808 -0.891533
vt -0.507733 1.465478
v -8494.618164 -797.563782 -7668.628418
vn -0.377896 -0.067014 -0.923420
vt 0.000116 1.688403
v -8568.493164 -855.931213 -7606.798340
vn -0.517816 -0.167383 -0.838957
vt -0.507733 1.465478
v -8558.093750 -771.734070 -7630.451660
vn -0.467715 -0.016645 -0.883723
vt 0.424861 1.565802
v -8620.339844 -835.732300 -7582.697266
vn -0.880287 -0.170484 -0.442753
vt -0.507733 1.465478
v -8630.153320 -743.621094 -7596.644531
vn -0.760520 0.060581 -0.646483
vt 0.960341 1.481961
v -8628.004883 -828.043274 -7542.077148
vn -0.933170 -0.175807 0.313504
vt -0.507733 1.465478
v -8644.222656 -731.285217 -7536.089355
vn -0.948496 0.038418 0.314452
vt 1.439082 0.504461
v -8594.100586 -835.330200 -7511.172852
vn -0.457329 -0.180312 0.870826
vt -1.032508 0.569541
v -8591.891602 -742.975952 -7491.886230
vn -0.256770 0.072249 0.963768
vt 1.320497 -0.704344
v -8518.323242 -861.719971 -7521.716797
vn 0.210819 -0.270712 0.939292
vt -1.032508 0.569541
v -8482.509766 -781.021240 -7506.729492
vn 0.298278 -0.028998 0.954039
vt 0.264726 -0.871160
v -8462.759766 -884.048096 -7552.912598
vn 0.521972 -0.515718 0.679396
vt -1.019467 -0.210634
v -8392.902344 -816.843445 -7555.569336
vn 0.647000 -0.337485 0.683736
vt -0.620993 -0.609446
v -8287.008789 -429.447052 -7661.689941
vn 0.975700 0.118994 -0.183983
vt -0.269243 0.471420
v -8308.092773 -417.400146 -7621.684082
vn 0.732017 0.178124 0.657589
vt -0.074388 0.233615
v -8309.316406 -459.874359 -7613.910645
vn 0.716331 0.034667 0.696899
vt -0.145129 0.165036
v -8284.625000 -473.982666 -7660.761719
vn 0.976212 -0.127625 -0.175275
vt -0.426561 0.448102
v -8322.701172 -465.728668 -7694.911621
vn 0.291650 -0.013533 -0.956429
vt -0.247925 0.826295
v -8319.521484 -422.399048 -7690.850098
vn 0.317009 0.152159 -0.936137
vt -0.142278 0.754926
v -8308.092773 -417.400146 -7621.684082
vn 0.732017 0.178124 0.657589
vt -0.074388 0.233615
v -8365.205078 -394.710327 -7591.674805
vn 0.381506 0.275267 0.882429
vt 0.269771 0.164030
v -8376.202148 -433.302032 -7578.766113
vn 0.352814 0.165330 0.920971
vt 0.267396 0.051455
v -8309.316406 -459.874359 -7613.910645
vn 0.716331 0.034667 0.696899
vt -0.145129 0.165036
v -8380.383789 -445.572998 -7686.354980
vn -0.257179 0.099858 -0.961191
vt 0.077003 0.978692
v -8368.776367 -405.188385 -7683.543457
vn -0.256900 0.196079 -0.946338
vt 0.105979 0.866676
v -8427.867188 -426.412933 -7659.073242
vn -0.423536 0.139542 -0.895067
vt 0.423156 0.945973
v -8409.321289 -388.827789 -7660.247559
vn -0.379888 0.227651 -0.896582
vt 0.367274 0.824517
v -8446.441406 -374.311279 -7642.558105
vn -0.587507 0.428941 -0.686182
vt 0.585103 0.761710
v -8471.337891 -409.412445 -7638.356445
vn -0.657475 0.310780 -0.686398
vt 0.686909 0.879002
v -8456.709961 -366.497711 -7607.738281
vn -0.686988 0.694797 0.212849
vt 0.706244 0.546979
v -8483.364258 -400.261871 -7597.578613
vn -0.808531 0.528523 0.258731
vt 0.856077 0.536965
v -8446.399414 -408.933899 -7569.617188
vn -0.136565 0.367394 0.919985
vt 0.717691 0.175418
v -8425.146484 -373.902649 -7583.862305
vn -0.074510 0.500297 0.862642
vt 0.620514 0.276269
v -8299.495117 -381.234222 -7659.958984
vn 0.873510 0.450144 -0.185338
vt -0.098076 0.498223
v -8314.583984 -372.612488 -7631.327637
vn 0.679407 0.491546 0.544784
vt 0.026289 0.361226
v -8314.583984 -372.612488 -7631.327637
vn 0.679407 0.491546 0.544784
vt 0.026289 0.361226
v -8355.458984 -356.373840 -7609.850586
vn 0.453867 0.658156 0.600696
vt 0.260525 0.326515
v -8322.763672 -376.190125 -7680.828613
vn 0.282187 0.460721 -0.841491
vt -0.025317 0.676980
v -8358.014648 -363.872772 -7675.599121
vn -0.111732 0.579795 -0.807065
vt 0.131272 0.735212
v -8387.032227 -352.163849 -7658.927246
vn -0.174477 0.595907 -0.783870
vt 0.321253 0.693589
v -8413.597656 -341.774658 -7646.266602
vn -0.301885 0.672908 -0.675322
vt 0.471113 0.678817
v -8420.947266 -336.182648 -7621.347168
vn -0.386128 0.915593 0.112225
vt 0.551775 0.546263
v -8398.357422 -341.482208 -7604.259766
vn 0.132864 0.720781 0.680310
vt 0.475331 0.391753
v -8331.148438 -352.662201 -7655.440918
vn 0.461637 0.873023 -0.157232
vt 0.089322 0.544002
v -8366.094727 -338.688385 -7636.366211
vn 0.169950 0.974657 -0.145465
vt 0.290889 0.510052
f 17/17/17 19/19/19 20/20/20
f 39/39/39 40/40/40 37/37/37
f 49/49/49 37/37/37 40/40/40
f 37/37/37 49/49/49 35/35/35
f 48/48/48 35/35/35 49/49/49
f 35/35/35 48/48/48 34/34/34
f 47/47/47 34/34/34 48/48/48
f 34/34/34 47/47/47 46/46/46
f 52/52/52 46/46/46 47/47/47
f 46/46/46 52/52/52 51/51/51
f 44/44/44 51/51/51 52/52/52
f 51/51/51 44/44/44 43/43/43
f 28/28/28 43/43/43 44/44/44
f 43/43/43 28/28/28 27/27/27
f 29/29/29 27/27/27 28/28/28
f 27/27/27 29/29/29 30/30/30
f 18/18/18 30/30/30 29/29/29
f 30/30/30 18/18/18 20/20/20
f 17/17/17 20/20/20 18/18/18
f 47/47/47 48/48/48 52/52/52
f 49/49/49 52/52/52 48/48/48
f 52/52/52 49/49/49 50/50/50
f 40/40/40 50/50/50 49/49/49
f 50/50/50 40/40/40 28/28/28
f 29/29/29 28/28/28 40/40/40
f 28/28/28 44/44/44 50/50/50
f 52/52/52 50/50/50 44/44/44
f 40/40/40 39/39/39 29/29/29
f 18/18/18 29/29/29 39/39/39
f 43/43/43 41/41/41 51/51/51
f 45/45/45 51/51/51 41/41/41
f 51/51/51 45/45/45 46/46/46
f 32/32/32 46/46/46 45/45/45
f 46/46/46 32/32/32 34/34/34
f 33/33/33 34/34/34 32/32/32
f 34/34/34 33/33/33 35/35/35
f 36/36/36 35/35/35 33/33/33
f 35/35/35 36/36/36 37/37/37
f 38/38/38 37/37/37 36/36/36
f 37/37/37 38/38/38 39/39/39
f 16/16/16 39/39/39 38/38/38
f 39/39/39 16/16/16 18/18/18
f 17/17/17 18/18/18 16/16/16
f 32/32/32 31/31/31 33/33/33
f 31/31/31 32/32/32 26/26/26
f 45/45/45 26/26/26 32/32/32
f 26/26/26 45/45/45 41/41/41
f 16/16/16 15/15/15 17/17/17
f 15/15/15 16/16/16 14/14/14
f 38/38/38 14/14/14 16/16/16
f 14/14/14 38/38/38 12/12/12
f 36/36/36 12/12/12 38/38/38
f 12/12/12 36/36/36 10/10/10
f 33/33/33 10/10/10 36/36/36
f 10/10/10 33/33/33 8/8/8
f 31/31/31 8/8/8 33/33/33
f 8/8/8 31/31/31 25/25/25
f 26/26/26 25/25/25 31/31/31
f 25/25/25 26/26/26 21/21/21
f 41/41/41 21/21/21 26/26/26
f 21/21/21 41/41/41 22/22/22
f 42/42/42 22/22/22 41/41/41
f 14/14/14 13/13/13 15/15/15
f 13/13/13 14/14/14 11/11/11
f 12/12/12 11/11/11 14/14/14
f 11/11/11 12/12/12 9/9/9
f 10/10/10 9/9/9 12/12/12
f 9/9/9 10/10/10 8/8/8
f 22/22/22 23/23/23 21/21/21
f 24/24/24 21/21/21 23/23/23
f 21/21/21 24/24/24 25/25/25
f 6/6/6 25/25/25 24/24/24
f 25/25/25 6/6/6 8/8/8
f 7/7/7 8/8/8 6/6/6
f 8/8/8 7/7/7 9/9/9
f 23/23/23 3/3/3 24/24/24
f 2/2/2 24/24/24 3/3/3
f 24/24/24 2/2/2 6/6/6
f 5/5/5 6/6/6 2/2/2
f 6/6/6 5/5/5 7/7/7
f 1/1/1 2/2/2 3/3/3
f 2/2/2 1/1/1 5/5/5
f 3/3/3 4/4/4 1/1/1
