mtllib OVERHILL_A_01_LINE25.mtl
g Line25
usemtl Vines
v -4515.174805 -1109.060059 -13361.431641
vn -0.001388 0.000000 0.999999
vt 0.901529 1.000000
v -4515.174805 -1028.810059 -13361.431641
vn -0.001388 0.000000 0.999999
vt 0.901529 0.500000
v -4622.149414 -1028.810059 -13361.580078
vn -0.001388 0.000000 0.999999
vt 0.000000 0.500000
v -4622.149414 -1109.060059 -13361.580078
vn -0.001388 0.000000 0.999999
vt 0.000000 1.000000
v -4515.174805 -868.310059 -13361.431641
vn -0.001388 0.000000 0.999999
vt 0.901529 -0.500000
v -4622.149414 -868.310059 -13361.580078
vn -0.001388 0.000000 0.999999
vt 0.000000 -0.500000
v -4622.149414 -948.560059 -13361.580078
vn -0.001388 0.000000 0.999999
vt 0.000000 0.000000
v -4515.174805 -948.560059 -13361.431641
vn -0.001388 0.000000 0.999999
vt 0.901529 0.000000
v -4515.174805 -788.060059 -13361.431641
vn -0.001388 0.000000 0.999999
vt 0.901529 -1.000000
v -4622.149414 -788.060059 -13361.580078
vn -0.001388 0.000000 0.999999
vt 0.000000 -1.000000
f 3/3/3 4/4/4 1/1/1
f 1/1/1 2/2/2 3/3/3
f 8/8/8 3/3/3 2/2/2
f 3/3/3 8/8/8 7/7/7
f 5/5/5 7/7/7 8/8/8
f 7/7/7 5/5/5 6/6/6
f 9/9/9 6/6/6 5/5/5
f 6/6/6 9/9/9 10/10/10
