mtllib OVERHILL_A_01_LINE67.mtl
g Line67
usemtl Ground_Grass_Blend
v -9618.889648 -631.928711 -11014.498047
vn 0.610474 0.605959 0.510034
vt 3.399990 3.823802
v -9658.308594 -591.207520 -11046.622070
vn 0.476347 0.567317 0.671748
vt 3.597084 3.984422
v -9701.862305 -591.190796 -11028.181641
vn 0.277103 0.512093 0.813003
vt 3.814854 3.892220
v -9668.274414 -631.928711 -10946.851563
vn 0.372550 0.712086 0.595097
vt 3.646912 3.485570
v -9911.392578 -591.428284 -11134.922852
vn -0.829987 0.511280 0.222969
vt 3.862503 3.425926
v -9913.123047 -598.139404 -11182.032227
vn -0.859010 0.346480 -0.376900
vt 3.871155 3.661473
v -9932.782227 -624.390686 -11191.421875
vn -0.849511 0.442127 -0.287846
vt 3.969452 3.708421
v -9932.782227 -624.390686 -11191.421875
vn -0.849511 0.442127 -0.287846
vt 2.969452 3.708421
v -9942.771484 -631.928711 -11113.157227
vn -0.934180 0.345590 0.088742
vt 3.019398 3.317099
v -9911.392578 -591.428284 -11134.922852
vn -0.829987 0.511280 0.222969
vt 2.862503 3.425926
v -9921.315430 -631.928711 -11061.712891
vn -0.692848 0.606560 0.389932
vt 2.912117 3.059877
v -9921.315430 -631.928711 -11061.712891
vn -0.692848 0.606560 0.389932
vt 3.912117 3.059877
v -9865.564453 -591.216492 -11098.046875
vn -0.647498 0.473669 0.596979
vt 3.633362 3.241547
v -9836.692383 -591.191040 -11052.286133
vn -0.556861 0.516714 0.650317
vt 3.489002 3.012743
v -9892.781250 -631.928711 -11012.689453
vn -0.530952 0.649747 0.543984
vt 3.769447 2.814760
v -9766.040039 -591.177795 -11018.788086
vn -0.141933 0.710311 0.689430
vt 3.135742 3.845253
v -9831.281250 -631.928711 -10975.262695
vn -0.546945 0.513528 0.661166
vt 3.461948 3.627625
v -9784.296875 -631.928711 -10912.625000
vn -0.456277 0.561012 0.690707
vt 3.227024 3.314437
v -9766.040039 -591.177795 -11018.788086
vn -0.141933 0.710311 0.689430
vt 3.135742 2.845253
v -9892.781250 -631.928711 -11012.689453
vn -0.530952 0.649747 0.543984
vt 3.769447 3.814760
v -9886.250000 -604.850525 -11223.737305
vn -0.790530 0.489883 -0.367528
vt 3.736794 3.870000
v -9907.409180 -626.967346 -11228.608398
vn -0.770785 0.472829 -0.426994
vt 3.842583 3.894357
v -9886.250000 -604.850525 -11223.737305
vn -0.790530 0.489883 -0.367528
vt 3.736794 2.870000
v -9862.560547 -617.268860 -11315.232422
vn -0.916823 0.397032 0.042431
vt 3.618343 3.327476
v -9880.838867 -634.440735 -11314.193359
vn -0.916024 0.391276 -0.088333
vt 3.709736 3.322281
v -9907.409180 -626.967346 -11228.608398
vn -0.770785 0.472829 -0.426994
vt 3.842583 2.894357
v -9889.563477 -630.015259 -11389.039063
vn -0.779246 0.269733 0.565703
vt 3.753361 3.696509
v -9740.184570 -631.928711 -10914.861328
vn 0.154536 0.567746 0.808569
vt 3.006462 3.325619
v -9668.274414 -631.928711 -10946.851563
vn 0.372550 0.712086 0.595097
vt 2.646912 3.485570
v -9701.862305 -591.190796 -11028.181641
vn 0.277103 0.512093 0.813003
vt 2.814854 3.892220
v -9618.889648 -631.928711 -11014.498047
vn 0.610474 0.605959 0.510034
vt 3.399990 2.823802
v -9575.817383 -591.207458 -11151.960938
vn 0.827875 0.265744 0.493968
vt 3.184628 3.511117
v -9658.308594 -591.207520 -11046.622070
vn 0.476347 0.567317 0.671748
vt 3.597084 2.984422
f 31/31/31 32/32/32 33/33/33
f 14/14/14 15/15/15 19/19/19
f 15/15/15 14/14/14 12/12/12
f 13/13/13 12/12/12 14/14/14
f 12/12/12 13/13/13 5/5/5
f 21/21/21 22/22/22 6/6/6
f 7/7/7 6/6/6 22/22/22
f 6/6/6 7/7/7 5/5/5
f 20/20/20 17/17/17 16/16/16
f 18/18/18 16/16/16 17/17/17
f 16/16/16 18/18/18 28/28/28
f 29/29/29 16/16/16 28/28/28
f 16/16/16 29/29/29 30/30/30
f 25/25/25 24/24/24 27/27/27
f 24/24/24 25/25/25 23/23/23
f 26/26/26 23/23/23 25/25/25
f 3/3/3 1/1/1 2/2/2
f 1/1/1 3/3/3 4/4/4
f 8/8/8 9/9/9 10/10/10
f 11/11/11 10/10/10 9/9/9
