mtllib OVERHILL_A_01_OBJECT31.mtl
g Object31
usemtl Rock_wall1
v -9676.059570 337.138885 -11942.324219
vn -0.984680 -0.003033 -0.174345
vt 3.102428 -0.610528
v -9713.737305 740.646667 -11827.561523
vn -0.920811 0.186592 -0.342477
vt 3.218970 -0.919948
v -9603.480469 765.631104 -11942.202148
vn -0.717182 0.316802 -0.620715
vt 3.100457 -0.978169
v -9684.583008 432.178314 -11737.312500
vn -0.991740 -0.095395 -0.085740
vt 3.344941 -0.671418
v -9696.273438 453.887787 -11660.443359
vn -0.986531 -0.102196 0.127724
vt 3.439780 -0.701222
v -9734.076172 723.372253 -11619.397461
vn -0.989634 0.072538 0.123951
vt 3.468874 -0.921964
v -9738.073242 732.962646 -11710.560547
vn -0.980926 0.183263 -0.064797
vt 3.334030 -0.910593
v -9585.602539 450.400452 -11500.043945
vn -0.679578 -0.118169 0.724024
vt 3.694985 -0.677375
v -9614.851563 723.372253 -11464.771484
vn -0.524091 0.043812 0.850535
vt 3.692300 -0.917221
v -9690.603516 723.372253 -11530.427734
vn -0.792391 0.037159 0.608880
vt 3.584569 -0.921460
v -9637.005859 453.887787 -11549.172852
vn -0.759030 -0.097479 0.643716
vt 3.590617 -0.700571
v -9550.879883 445.044373 -11460.214844
vn -0.931946 -0.126915 0.339660
vt 3.757146 -0.616192
v -9500.036133 723.372253 -11437.819336
vn -0.459647 0.207774 0.863455
vt 3.829769 -0.871697
v -9486.645508 381.079773 -11358.790039
vn -0.934754 0.169615 0.312196
vt 3.918618 -0.496097
v -9441.168945 664.997253 -11376.879883
vn -0.949449 0.122535 0.289020
vt 3.945799 -0.820807
v -9490.750000 367.335266 -11121.749023
vn -0.952618 0.247248 0.177164
vt 3.260583 -0.451993
v -9427.205078 638.637329 -11199.016602
vn -0.945096 0.107577 0.308579
vt 3.185088 -0.815813
v -9441.168945 664.997253 -11376.879883
vn -0.949449 0.122535 0.289020
vt 2.945799 -0.820807
v -9486.645508 381.079773 -11358.790039
vn -0.934754 0.169615 0.312196
vt 2.918618 -0.496097
v -9393.797852 345.939758 -10833.236328
vn -0.998508 0.028662 -0.046483
vt 3.549762 -0.425242
v -9372.584961 658.934937 -11036.091797
vn -0.991894 0.088796 0.090893
vt 3.392574 -0.859116
v -9439.497070 342.503632 -10619.892578
vn -0.960738 -0.231423 -0.153056
vt 3.813910 -0.460700
v -9559.542969 707.483887 -10643.179688
vn -0.980504 0.046821 -0.190838
vt 3.813910 -0.955741
v -9431.707031 735.513367 -10834.622070
vn -0.957100 0.029020 -0.288300
vt 3.558424 -1.011542
v -9439.497070 342.503632 -10619.892578
vn -0.960738 -0.231423 -0.153056
vt 2.813910 -0.460700
v -9439.691406 340.785553 -10394.342773
vn -0.936841 -0.111335 -0.331562
vt 3.090569 -0.460700
v -9509.875000 684.100342 -10433.666992
vn -0.998214 -0.040081 -0.044294
vt 3.081907 -0.808481
v -9559.542969 707.483887 -10643.179688
vn -0.980504 0.046821 -0.190838
vt 2.813910 -0.955741
v -9602.569336 306.660004 -10224.782227
vn -0.930789 0.109530 -0.348761
vt 3.315969 -0.408245
v -9548.864258 616.790283 -10233.206055
vn -0.957840 0.083889 -0.274783
vt 3.344622 -0.764367
v -9660.672852 936.429260 -11657.102539
vn -0.948822 0.307705 -0.071093
vt 3.468021 -1.187357
v -9601.975586 959.099182 -11766.806641
vn -0.857355 0.421200 -0.295859
vt 3.331403 -1.243506
v -9655.734375 938.069397 -11553.803711
vn -0.761305 0.370690 0.531981
vt 3.584901 -1.188889
v -9564.055664 936.429260 -11512.400391
vn -0.248255 0.318011 0.915007
vt 3.694176 -1.158413
v -9446.398438 981.411804 -11539.524414
vn -0.255602 0.384124 0.887196
vt 3.818812 -1.216058
v -9473.119141 900.811218 -11247.871094
vn -0.991402 -0.009958 0.130475
vt 3.101865 -1.186956
v -9395.692383 930.812683 -11394.969727
vn -0.926400 0.243290 0.287389
vt 2.950122 -1.173374
v -9395.692383 930.812683 -11394.969727
vn -0.926400 0.243290 0.287389
vt 3.950122 -1.173374
v -9570.593750 1149.321533 -11606.293945
vn -0.724528 0.426533 0.541414
vt 3.545173 -1.462939
v -9587.270508 1103.391968 -11694.807617
vn -0.922111 0.364144 -0.130810
vt 3.440038 -1.407854
v -9513.258789 1067.863770 -11560.029297
vn -0.178448 0.366151 0.913285
vt 3.685577 -1.405272
v -9384.469727 909.939392 -11164.224609
vn -0.954488 0.201464 0.219920
vt 3.254322 -1.196665
v -9625.250000 270.530518 -9988.959961
vn -0.993641 0.048815 0.101465
vt 3.582198 -0.332525
v -9607.069336 580.804016 -10023.687500
vn -0.986549 0.158553 -0.039775
vt 3.601008 -0.664713
v -9585.248047 266.279846 -9830.807617
vn -0.992015 0.036972 -0.120577
vt 3.722382 -0.332525
v -9581.109375 575.606934 -9842.957031
vn -0.994684 0.098314 -0.030627
vt 3.731787 -0.650299
v -9725.674805 283.088501 -9496.857422
vn -0.924399 0.115963 -0.363371
vt 4.000000 -0.291245
v -9687.375977 553.213501 -9480.590820
vn -0.927641 0.222330 -0.300086
vt 4.000000 -0.634245
v -9623.889648 570.409851 -9664.100586
vn -0.948353 0.127516 -0.290458
vt 3.862565 -0.635884
v -9648.389648 262.029175 -9669.804688
vn -0.917926 0.080114 -0.388580
vt 3.862565 -0.332525
v -9509.057617 1022.523621 -10653.488281
vn -0.937638 0.266780 -0.222852
vt 3.813910 -1.303434
v -9345.178711 916.226013 -10838.484375
vn -0.875138 0.378079 -0.301975
vt 3.556054 -1.195482
v -9459.476563 926.104736 -10443.036133
vn -0.954901 0.294039 0.041296
vt 3.090569 -1.112458
v -9509.057617 1022.523621 -10653.488281
vn -0.937638 0.266780 -0.222852
vt 2.813910 -1.303434
v -9517.575195 926.920654 -10240.648438
vn -0.958906 0.217800 -0.181829
vt 3.373274 -1.059356
v -9424.616211 1296.175903 -10637.130859
vn -0.807799 0.553630 -0.202374
vt 3.826492 -1.783677
v -9216.030273 1226.504150 -10829.590820
vn -0.708652 0.405222 -0.577588
vt 3.549762 -1.791775
v -9342.288086 1241.394043 -10426.687500
vn -0.896398 0.351937 0.269464
vt 3.090569 -1.739432
v -9424.616211 1296.175903 -10637.130859
vn -0.807799 0.553630 -0.202374
vt 2.826492 -1.783677
v -9260.450195 1482.391724 -10586.000977
vn -0.700677 0.678391 -0.220993
vt 3.813910 -2.056974
v -9211.071289 1385.071899 -10696.376953
vn -0.432863 0.579756 -0.690299
vt 3.702931 -1.996670
v -9282.846680 1392.516968 -10478.822266
vn -0.769955 0.515854 0.375585
vt 3.988501 -1.989698
v -9282.846680 1392.516968 -10478.822266
vn -0.769955 0.515854 0.375585
vt 2.988501 -1.989698
v -9444.928711 1006.226196 -10337.834961
vn -0.889272 0.414722 -0.192875
vt 3.252436 -1.333299
v -9326.620117 975.937317 -11002.753906
vn -0.889488 0.452459 0.063977
vt 3.375329 -1.307406
v -9670.827148 453.887787 -11598.057617
vn -0.895823 -0.110242 0.430521
vt 3.525711 -0.700882
v -9642.961914 719.493896 -9452.809570
vn -0.946945 0.216068 -0.237929
vt 4.000000 -0.974244
v -9591.295898 830.881226 -9640.795898
vn -0.963722 0.147710 -0.222312
vt 3.862565 -0.953874
v -9530.273438 891.077515 -10006.485352
vn -0.977351 0.196280 -0.079116
vt 3.619818 -0.999474
v -9526.145508 892.152954 -9845.158203
vn -0.980597 0.193834 -0.029299
vt 3.741192 -0.970645
v -9669.125977 64.178307 -11744.217773
vn -0.988122 -0.135215 0.073020
vt 3.346366 -0.303834
v -9676.059570 -30.861111 -11942.324219
vn -0.985371 -0.139624 0.097723
vt 3.102428 -0.267700
v -9680.166992 85.887779 -11669.831055
vn -0.986700 -0.134361 0.091490
vt 3.439376 -0.320710
v -9662.725586 85.887779 -11601.662109
vn -0.847522 -0.202305 0.490692
vt 3.527061 -0.320710
v -9623.855469 85.887772 -11555.626953
vn -0.700997 -0.200026 0.684538
vt 3.591094 -0.320753
v -9567.463867 70.032913 -11523.281250
vn -0.644024 -0.168379 0.746245
vt 3.695201 -0.306882
v -9483.726563 53.433472 -11470.727539
vn -0.960095 -0.053990 0.274413
vt 3.756933 -0.271072
v -9619.771484 -179.498352 -11758.026367
vn -0.946628 -0.208723 0.245621
vt 3.346366 0.000000
v -9620.117188 -238.944061 -11862.020508
vn -0.969187 -0.212450 0.124666
vt 3.102428 0.000000
v -9581.112305 -218.000977 -11703.734375
vn -0.896697 -0.314118 0.311872
vt 3.439376 0.000000
v -9539.649414 -218.694229 -11648.885742
vn -0.878822 -0.079435 0.470491
vt 3.527061 0.000000
v -9516.446289 -214.097855 -11589.379883
vn -0.781935 -0.304905 0.543700
vt 3.591094 0.000000
v -9488.978516 -218.304245 -11534.804688
vn -0.741076 -0.195844 0.642224
vt 3.695201 0.000000
v -9457.204102 -211.203049 -11496.352539
vn -0.750870 -0.137798 0.645915
vt 3.756933 0.000000
f 18/18/18 19/19/19 16/16/16
f 17/17/17 16/16/16 21/21/21
f 16/16/16 17/17/17 18/18/18
f 36/36/36 18/18/18 17/17/17
f 18/18/18 36/36/36 37/37/37
f 17/17/17 42/42/42 36/36/36
f 42/42/42 17/17/17 21/21/21
f 16/16/16 20/20/20 21/21/21
f 24/24/24 21/21/21 20/20/20
f 21/21/21 24/24/24 42/42/42
f 52/52/52 42/42/42 24/24/24
f 42/42/42 52/52/52 65/65/65
f 57/57/57 65/65/65 52/52/52
f 60/60/60 61/61/61 56/56/56
f 57/57/57 56/56/56 61/61/61
f 56/56/56 57/57/57 51/51/51
f 52/52/52 51/51/51 57/57/57
f 51/51/51 52/52/52 23/23/23
f 24/24/24 23/23/23 52/52/52
f 23/23/23 24/24/24 22/22/22
f 20/20/20 22/22/22 24/24/24
f 62/62/62 60/60/60 56/56/56
f 35/35/35 41/41/41 34/34/34
f 33/33/33 34/34/34 41/41/41
f 34/34/34 33/33/33 10/10/10
f 31/31/31 10/10/10 33/33/33
f 10/10/10 31/31/31 6/6/6
f 32/32/32 6/6/6 31/31/31
f 6/6/6 32/32/32 7/7/7
f 2/2/2 7/7/7 32/32/32
f 7/7/7 2/2/2 4/4/4
f 1/1/1 4/4/4 2/2/2
f 4/4/4 1/1/1 71/71/71
f 72/72/72 71/71/71 1/1/1
f 71/71/71 72/72/72 78/78/78
f 79/79/79 78/78/78 72/72/72
f 6/6/6 7/7/7 4/4/4
f 32/32/32 3/3/3 2/2/2
f 1/1/1 2/2/2 3/3/3
f 41/41/41 39/39/39 33/33/33
f 40/40/40 33/33/33 39/39/39
f 33/33/33 40/40/40 31/31/31
f 32/32/32 31/31/31 40/40/40
f 76/76/76 82/82/82 83/83/83
f 82/82/82 76/76/76 75/75/75
f 8/8/8 75/75/75 76/76/76
f 75/75/75 8/8/8 11/11/11
f 10/10/10 11/11/11 8/8/8
f 11/11/11 10/10/10 66/66/66
f 6/6/6 66/66/66 10/10/10
f 66/66/66 6/6/6 5/5/5
f 4/4/4 5/5/5 6/6/6
f 5/5/5 4/4/4 73/73/73
f 71/71/71 73/73/73 4/4/4
f 73/73/73 71/71/71 80/80/80
f 78/78/78 80/80/80 71/71/71
f 5/5/5 73/73/73 66/66/66
f 74/74/74 66/66/66 73/73/73
f 66/66/66 74/74/74 11/11/11
f 75/75/75 11/11/11 74/74/74
f 73/73/73 80/80/80 74/74/74
f 81/81/81 74/74/74 80/80/80
f 74/74/74 81/81/81 75/75/75
f 82/82/82 75/75/75 81/81/81
f 8/8/8 9/9/9 10/10/10
f 9/9/9 8/8/8 12/12/12
f 76/76/76 12/12/12 8/8/8
f 12/12/12 76/76/76 77/77/77
f 83/83/83 77/77/77 76/76/76
f 77/77/77 83/83/83 84/84/84
f 9/9/9 34/34/34 10/10/10
f 34/34/34 9/9/9 13/13/13
f 12/12/12 13/13/13 9/9/9
f 13/13/13 12/12/12 15/15/15
f 14/14/14 15/15/15 12/12/12
f 15/15/15 38/38/38 13/13/13
f 35/35/35 13/13/13 38/38/38
f 13/13/13 35/35/35 34/34/34
f 49/49/49 50/50/50 47/47/47
f 50/50/50 49/49/49 45/45/45
f 46/46/46 45/45/45 49/49/49
f 45/45/45 46/46/46 43/43/43
f 44/44/44 43/43/43 46/46/46
f 43/43/43 44/44/44 29/29/29
f 30/30/30 29/29/29 44/44/44
f 29/29/29 30/30/30 26/26/26
f 27/27/27 26/26/26 30/30/30
f 26/26/26 27/27/27 25/25/25
f 28/28/28 25/25/25 27/27/27
f 47/47/47 48/48/48 49/49/49
f 54/54/54 28/28/28 53/53/53
f 27/27/27 53/53/53 28/28/28
f 53/53/53 27/27/27 55/55/55
f 30/30/30 55/55/55 27/27/27
f 55/55/55 30/30/30 69/69/69
f 44/44/44 69/69/69 30/30/30
f 69/69/69 44/44/44 70/70/70
f 46/46/46 70/70/70 44/44/44
f 70/70/70 46/46/46 68/68/68
f 49/49/49 68/68/68 46/46/46
f 68/68/68 49/49/49 67/67/67
f 48/48/48 67/67/67 49/49/49
f 59/59/59 54/54/54 58/58/58
f 53/53/53 58/58/58 54/54/54
f 58/58/58 53/53/53 64/64/64
f 55/55/55 64/64/64 53/53/53
f 58/58/58 63/63/63 59/59/59
