mtllib OVERHILL_A_01_LINE165.mtl
g Line165
usemtl Slab_Moss_Mix
v -11073.228516 -785.239319 13217.120117
vn 0.000000 1.000000 0.000000
vt 1.041609 0.000498
v -11072.914063 -785.239319 13047.443359
vn 0.000000 1.000000 0.000000
vt 1.040805 0.499999
v -11156.291016 -785.239319 13047.443359
vn 0.000000 1.000000 0.000000
vt 1.254244 0.499999
v -11156.291016 -785.239319 13217.120117
vn 0.000000 1.000000 0.000000
vt 1.254245 0.000499
v -10878.349609 -785.239319 13217.120117
vn 0.000000 1.000000 0.000000
vt 0.542735 0.000498
v -10868.905273 -785.239319 13132.281250
vn 0.000000 1.000000 0.000000
vt 0.518558 0.250248
v -10964.650391 -785.239319 13132.281250
vn 0.000000 1.000000 0.000000
vt 0.763657 0.250248
v -10970.997070 -785.239319 13217.120117
vn 0.000000 1.000000 0.000000
vt 0.779905 0.000498
v -10676.361328 -785.239319 13217.120117
vn 0.000000 1.000000 0.000000
vt 0.025659 0.000498
v -10670.090820 -785.239319 13132.281250
vn 0.000000 1.000000 0.000000
vt 0.009606 0.250248
v -10773.161133 -785.239319 13132.281250
vn 0.000000 1.000000 0.000000
vt 0.273459 0.250248
v -10785.703125 -785.239319 13217.120117
vn 0.000000 1.000000 0.000000
vt 0.305565 0.000498
v -10859.460938 -785.239319 13047.443359
vn 0.000000 1.000000 0.000000
vt 0.494381 0.499999
v -10850.017578 -785.239319 12962.604492
vn 0.000000 1.000000 0.000000
vt 0.470205 0.749749
v -10951.956055 -785.239319 12962.604492
vn 0.000000 1.000000 0.000000
vt 0.731162 0.749749
v -10958.302734 -785.239319 13047.443359
vn 0.000000 1.000000 0.000000
vt 0.747410 0.499999
v -10760.619141 -785.239319 13047.442383
vn 0.000000 1.000000 0.000000
vt 0.241353 0.499998
v -10748.078125 -785.239319 12962.604492
vn 0.000000 1.000000 0.000000
vt 0.209247 0.749749
v -10567.020508 -785.239319 13047.442383
vn 0.000000 1.000000 0.000000
vt -0.254247 0.499998
v -10567.020508 -785.239319 12962.604492
vn 0.000000 1.000000 0.000000
vt -0.254247 0.749748
v -10657.548828 -785.239319 12962.604492
vn 0.000000 1.000000 0.000000
vt -0.022500 0.749749
v -10663.820313 -785.239319 13047.442383
vn 0.000000 1.000000 0.000000
vt -0.006447 0.499998
v -11072.599609 -785.239319 12877.765625
vn 0.000000 1.000000 0.000000
vt 1.040000 0.999499
v -11156.291016 -785.239319 12877.765625
vn 0.000000 1.000000 0.000000
vt 1.254244 0.999499
v -10735.536133 -785.239319 12877.765625
vn 0.000000 1.000000 0.000000
vt 0.177141 0.999499
v -10651.278320 -785.239319 12877.765625
vn 0.000000 1.000000 0.000000
vt -0.038553 0.999499
v -10567.020508 -785.239319 13217.120117
vn 0.000000 1.000000 0.000000
vt -0.254247 0.000498
v -10567.020508 -785.239319 13132.281250
vn 0.000000 1.000000 0.000000
vt -0.254247 0.250248
v -10840.573242 -785.239319 12877.765625
vn 0.000000 1.000000 0.000000
vt 0.446028 0.999499
v -10945.609375 -785.239319 12877.765625
vn 0.000000 1.000000 0.000000
vt 0.714914 0.999499
v -10567.020508 -785.239319 12877.765625
vn 0.000000 1.000000 0.000000
vt -0.254247 0.999499
v -11050.646484 -785.239319 12877.765625
vn 0.000000 1.000000 0.000000
vt 0.983802 0.999499
f 26/26/26 20/20/20 31/31/31
f 20/20/20 26/26/26 21/21/21
f 25/25/25 21/21/21 26/26/26
f 21/21/21 25/25/25 18/18/18
f 29/29/29 18/18/18 25/25/25
f 18/18/18 29/29/29 14/14/14
f 30/30/30 14/14/14 29/29/29
f 14/14/14 30/30/30 15/15/15
f 32/32/32 15/15/15 30/30/30
f 15/15/15 32/32/32 23/23/23
f 21/21/21 19/19/19 20/20/20
f 19/19/19 21/21/21 22/22/22
f 18/18/18 22/22/22 21/21/21
f 22/22/22 18/18/18 17/17/17
f 14/14/14 17/17/17 18/18/18
f 17/17/17 14/14/14 13/13/13
f 15/15/15 13/13/13 14/14/14
f 13/13/13 15/15/15 16/16/16
f 2/2/2 16/16/16 15/15/15
f 24/24/24 3/3/3 23/23/23
f 2/2/2 23/23/23 3/3/3
f 23/23/23 2/2/2 15/15/15
f 22/22/22 28/28/28 19/19/19
f 28/28/28 22/22/22 10/10/10
f 17/17/17 10/10/10 22/22/22
f 10/10/10 17/17/17 11/11/11
f 13/13/13 11/11/11 17/17/17
f 11/11/11 13/13/13 6/6/6
f 16/16/16 6/6/6 13/13/13
f 6/6/6 16/16/16 7/7/7
f 2/2/2 7/7/7 16/16/16
f 7/7/7 2/2/2 1/1/1
f 3/3/3 1/1/1 2/2/2
f 1/1/1 3/3/3 4/4/4
f 1/1/1 8/8/8 7/7/7
f 5/5/5 7/7/7 8/8/8
f 7/7/7 5/5/5 6/6/6
f 12/12/12 6/6/6 5/5/5
f 6/6/6 12/12/12 11/11/11
f 9/9/9 11/11/11 12/12/12
f 11/11/11 9/9/9 10/10/10
f 27/27/27 10/10/10 9/9/9
f 10/10/10 27/27/27 28/28/28
