mtllib OVERHILL_A_01_LINE468.mtl
g Line468
usemtl Material_#44425
v -7312.110840 199.906891 7706.486328
vn 0.862776 0.000000 0.505586
vt -0.002411 -0.240250
v -7331.323730 199.906891 7725.690430
vn 0.252689 0.000000 0.967548
vt 0.077682 -0.240250
v -7331.323730 67.156898 7725.690430
vn 0.505326 0.000000 0.862929
vt 0.077682 0.245370
v -7312.110840 67.156898 7706.486328
vn 0.967520 0.000000 0.252793
vt -0.002411 0.245370
v -7412.321777 199.906891 7725.694336
vn 0.000048 0.000000 1.000000
vt 0.310664 -0.240250
v -7412.321777 67.156891 7725.694336
vn 0.000048 0.000000 1.000000
vt 0.310664 0.245370
v -7412.321777 199.906891 7629.649902
vn 0.001894 0.000000 -0.999998
vt 0.525729 -0.240250
v -7331.896973 199.677643 7629.802246
vn 0.494729 0.000000 -0.869047
vt 0.747578 -0.240250
v -7331.896973 66.927643 7629.802246
vn 0.248376 0.000000 -0.968664
vt 0.747578 0.245370
v -7412.321777 67.156883 7629.649902
vn 0.000799 0.585041 -0.811003
vt 0.525729 0.245370
v -7312.110840 199.906891 7648.859375
vn 0.966063 0.000000 -0.258308
vt 0.827682 -0.240250
v -7312.110840 67.156891 7648.859375
vn 0.856217 0.000000 -0.516616
vt 0.827682 0.245370
v -7312.110840 199.906891 7706.486328
vn 0.862776 0.000000 0.505586
vt 0.997589 -0.240250
v -7312.110840 67.156898 7706.486328
vn 0.967520 0.000000 0.252793
vt 0.997589 0.245370
v -7312.110840 199.906891 7706.486328
vn 0.862776 0.000000 0.505586
vt -0.002411 0.246795
v -7312.110840 346.267639 7706.486328
vn 0.967520 0.000000 0.252793
vt -0.002411 -0.257066
v -7331.323730 346.267639 7725.690430
vn 0.505326 0.000000 0.862929
vt 0.077682 -0.257066
v -7331.323730 199.906891 7725.690430
vn 0.252689 0.000000 0.967548
vt 0.077682 0.246795
v -7412.321777 346.267639 7725.694336
vn 0.000048 0.000000 1.000000
vt 0.310664 -0.257066
v -7412.321777 199.906891 7725.694336
vn 0.000048 0.000000 1.000000
vt 0.310664 0.246795
v -7312.110840 199.906891 7648.859375
vn 0.966063 0.000000 -0.258308
vt 0.827682 0.246795
v -7312.110840 346.267639 7648.859375
vn 0.856217 0.000000 -0.516616
vt 0.827682 -0.257066
v -7312.110840 346.267639 7706.486328
vn 0.967520 0.000000 0.252793
vt 0.997589 -0.257066
v -7312.110840 199.906891 7706.486328
vn 0.862776 0.000000 0.505586
vt 0.997589 0.246795
v -7412.321777 199.906891 7629.649902
vn 0.001894 0.000000 -0.999998
vt 0.525729 0.246795
v -7412.321777 346.267639 7629.649902
vn 0.001894 0.000000 -0.999998
vt 0.525729 -0.257066
v -7331.896973 346.267639 7629.802246
vn 0.248376 0.000000 -0.968664
vt 0.747578 -0.257066
v -7331.896973 199.677643 7629.802246
vn 0.494729 0.000000 -0.869047
vt 0.747578 0.246795
f 5/5/5 6/6/6 2/2/2
f 3/3/3 2/2/2 6/6/6
f 2/2/2 3/3/3 1/1/1
f 4/4/4 1/1/1 3/3/3
f 10/10/10 7/7/7 9/9/9
f 8/8/8 9/9/9 7/7/7
f 9/9/9 8/8/8 12/12/12
f 11/11/11 12/12/12 8/8/8
f 12/12/12 11/11/11 14/14/14
f 13/13/13 14/14/14 11/11/11
f 27/27/27 25/25/25 26/26/26
f 25/25/25 27/27/27 28/28/28
f 22/22/22 28/28/28 27/27/27
f 28/28/28 22/22/22 21/21/21
f 23/23/23 21/21/21 22/22/22
f 21/21/21 23/23/23 24/24/24
f 17/17/17 15/15/15 16/16/16
f 15/15/15 17/17/17 18/18/18
f 19/19/19 18/18/18 17/17/17
f 18/18/18 19/19/19 20/20/20
