mtllib OVERHILL_A_01_OBJECT63.mtl
g Object63
usemtl step1
v -9622.255859 -962.070435 11237.888672
vn -0.147808 -0.000003 -0.989016
vt 0.406582 0.999500
v -9688.936523 -962.070435 11247.853516
vn -0.803855 -0.000002 -0.594825
vt 0.715945 0.991920
v -9688.937500 -933.723145 11247.853516
vn -0.757884 0.333329 -0.560806
vt 0.715862 0.670722
v -9622.255859 -933.722961 11237.887695
vn -0.464109 0.816495 -0.343422
vt 0.406500 0.678303
v -9671.848633 -933.723022 11362.198242
vn -0.593411 0.799999 0.088684
vt 0.137488 0.700000
v -9671.848633 -962.070251 11362.198242
vn -0.989016 -0.000003 0.147808
vt 0.137488 1.000000
v -9654.759766 -962.070129 11476.542969
vn -0.665602 0.589752 0.457347
vt -0.246251 1.000000
v -9654.759766 -933.722839 11476.542969
vn -0.283080 0.408254 0.867868
vt -0.246251 0.700000
v -9588.079102 -933.722717 11466.577148
vn -0.610069 0.666676 0.428205
vt -0.246251 0.000000
v -9605.167969 -933.722839 11352.232422
vn -0.822907 0.554706 0.122982
vt 0.137488 0.000000
v -9588.079102 -962.070129 11466.577148
vn 0.147807 0.000009 0.989016
vt 0.406582 0.999500
v -9588.079102 -933.722717 11466.577148
vn -0.610069 0.666676 0.428205
vt 0.406500 0.678303
v -9654.759766 -933.722839 11476.542969
vn -0.283080 0.408254 0.867868
vt 0.715862 0.670722
v -9654.759766 -962.070129 11476.542969
vn -0.665602 0.589752 0.457347
vt 0.715945 0.991920
v -9605.166992 -905.375488 11352.231445
vn -0.593407 0.800002 0.088684
vt 0.807872 0.700000
v -9605.167969 -933.722839 11352.232422
vn -0.822907 0.554706 0.122982
vt 0.807872 1.000000
v -9588.079102 -933.722717 11466.577148
vn -0.610069 0.666676 0.428205
vt 0.458500 1.000000
v -9588.078125 -905.375305 11466.576172
vn -0.699334 0.707113 0.104515
vt 0.458500 0.700000
v -9521.398438 -905.375183 11456.611328
vn -0.699339 0.707108 0.104515
vt 0.458500 0.000000
v -9538.486328 -905.375244 11342.267578
vn -0.822912 0.554699 0.122983
vt 0.807872 0.000000
v -9538.486328 -877.027954 11342.267578
vn -0.593411 0.799999 0.088684
vt 0.037366 0.700000
v -9538.486328 -905.375244 11342.267578
vn -0.822912 0.554699 0.122983
vt 0.037366 1.000000
v -9521.398438 -905.375183 11456.611328
vn -0.699339 0.707108 0.104515
vt 0.449968 1.000000
v -9521.397461 -877.027771 11456.612305
vn -0.699338 0.707109 0.104515
vt 0.449968 0.700000
v -9454.716797 -877.027649 11446.646484
vn -0.699338 0.707109 0.104515
vt 0.449968 0.000000
v -9471.805664 -877.027710 11332.302734
vn -0.822911 0.554701 0.122983
vt 0.037366 0.000000
v -9471.805664 -848.680359 11332.301758
vn -0.593409 0.800001 0.088684
vt 0.784605 0.700000
v -9471.805664 -877.027710 11332.302734
vn -0.822911 0.554701 0.122983
vt 0.784605 1.000000
v -9454.716797 -877.027649 11446.646484
vn -0.699338 0.707109 0.104515
vt 1.284605 1.000000
v -9454.716797 -848.680176 11446.646484
vn -0.699337 0.707110 0.104515
vt 1.284605 0.700000
v -9397.071289 -848.680054 11430.819336
vn -0.705770 0.704186 0.077526
vt 1.284605 0.000000
v -9409.125977 -848.680176 11322.863281
vn -0.702647 0.707111 0.079257
vt 0.800315 0.049500
v -9409.125977 -825.100464 11322.862305
vn -0.898462 0.430174 0.087841
vt 0.784605 0.700000
v -9409.125977 -848.680176 11322.863281
vn -0.702647 0.707111 0.079257
vt 0.784605 1.000000
v -9397.071289 -848.680054 11430.819336
vn -0.705770 0.704186 0.077526
vt 1.284605 1.000000
v -9397.145508 -827.966858 11433.320313
vn -0.915942 0.386123 0.109362
vt 1.284605 0.700000
v -9688.937500 -933.723145 11247.853516
vn -0.757884 0.333329 -0.560806
vt 0.521227 0.700000
v -9688.936523 -962.070435 11247.853516
vn -0.803855 -0.000002 -0.594825
vt 0.521227 1.000000
v -9622.255859 -933.722961 11237.887695
vn -0.464109 0.816495 -0.343422
vt 0.521227 0.000000
v -9622.255859 -905.375610 11237.887695
vn -0.884599 0.447221 0.132202
vt 1.157244 0.700000
v -9622.255859 -933.722961 11237.887695
vn -0.464109 0.816495 -0.343422
vt 1.157244 1.000000
v -9555.575195 -905.375305 11227.922852
vn -0.442305 0.894425 0.066101
vt 1.157244 0.000000
v -9555.575195 -877.028076 11227.922852
vn -0.884604 0.447211 0.132203
vt -0.375236 0.700000
v -9555.575195 -905.375305 11227.922852
vn -0.442305 0.894425 0.066101
vt -0.375236 1.000000
v -9488.894531 -877.027771 11217.958008
vn -0.442305 0.894426 0.066101
vt -0.375236 0.000000
v -9488.894531 -848.680481 11217.958008
vn -0.884603 0.447214 0.132203
vt 0.284605 0.700000
v -9488.894531 -877.027771 11217.958008
vn -0.442305 0.894426 0.066101
vt 0.284605 1.000000
v -9422.212891 -848.680176 11207.992188
vn -0.637192 0.769087 0.049922
vt 0.316024 0.099000
v -9413.858398 -825.100464 11206.860352
vn -0.805325 0.591923 0.032851
vt 0.284605 0.700000
v -9422.212891 -848.680176 11207.992188
vn -0.637192 0.769087 0.049922
vt 0.284605 1.000000
v -9627.592773 -990.417786 11202.200195
vn -0.147808 -0.000003 -0.989016
vt 0.406582 0.999500
v -9694.273438 -990.417725 11212.166016
vn -0.803855 -0.000002 -0.594825
vt 0.722270 1.000000
v -9694.273438 -962.070435 11212.166016
vn -0.757884 0.333329 -0.560806
vt 0.722270 0.700000
v -9627.592773 -962.070251 11202.200195
vn -0.066105 0.894426 -0.442303
vt 0.406500 0.678303
v -9677.184570 -962.070313 11326.509766
vn -0.593411 0.799999 0.088684
vt 0.137488 0.700000
v -9677.184570 -990.417603 11326.509766
vn -0.989016 -0.000003 0.147808
vt 0.137488 1.000000
v -9660.095703 -990.417419 11440.854492
vn -0.989016 -0.000001 0.147808
vt -0.246251 1.000000
v -9660.095703 -962.070190 11440.854492
vn -0.699341 0.707106 0.104515
vt -0.246251 0.700000
v -9593.415039 -962.070068 11430.888672
vn -0.000002 1.000000 -0.000001
vt -0.246251 0.000000
v -9610.503906 -962.070129 11316.544922
vn -0.000003 1.000000 -0.000001
vt 0.137488 0.000000
v -9677.184570 -990.417603 11326.509766
vn -0.989016 -0.000003 0.147808
vt 0.338531 1.000000
v -9677.184570 -962.070313 11326.509766
vn -0.593411 0.799999 0.088684
vt 0.338531 0.700000
v -9627.592773 -962.070251 11202.200195
vn -0.066105 0.894426 -0.442303
vt 0.722270 0.000000
v -9610.503906 -962.070129 11316.544922
vn -0.000003 1.000000 -0.000001
vt 0.338531 0.000000
f 13/13/13 11/11/11 12/12/12
f 11/11/11 13/13/13 14/14/14
f 15/15/15 18/18/18 19/19/19
f 18/18/18 15/15/15 17/17/17
f 16/16/16 17/17/17 15/15/15
f 40/40/40 16/16/16 15/15/15
f 16/16/16 40/40/40 41/41/41
f 15/15/15 42/42/42 40/40/40
f 42/42/42 15/15/15 20/20/20
f 19/19/19 20/20/20 15/15/15
f 6/6/6 37/37/37 38/38/38
f 37/37/37 6/6/6 5/5/5
f 7/7/7 5/5/5 6/6/6
f 5/5/5 7/7/7 8/8/8
f 5/5/5 8/8/8 9/9/9
f 5/5/5 39/39/39 37/37/37
f 39/39/39 5/5/5 10/10/10
f 9/9/9 10/10/10 5/5/5
f 22/22/22 43/43/43 44/44/44
f 43/43/43 22/22/22 21/21/21
f 23/23/23 21/21/21 22/22/22
f 21/21/21 23/23/23 24/24/24
f 21/21/21 24/24/24 25/25/25
f 21/21/21 45/45/45 43/43/43
f 45/45/45 21/21/21 26/26/26
f 25/25/25 26/26/26 21/21/21
f 28/28/28 46/46/46 47/47/47
f 46/46/46 28/28/28 27/27/27
f 29/29/29 27/27/27 28/28/28
f 27/27/27 29/29/29 30/30/30
f 27/27/27 30/30/30 31/31/31
f 27/27/27 48/48/48 46/46/46
f 48/48/48 27/27/27 32/32/32
f 31/31/31 32/32/32 27/27/27
f 52/52/52 61/61/61 53/53/53
f 62/62/62 53/53/53 61/61/61
f 53/53/53 62/62/62 63/63/63
f 64/64/64 63/63/63 62/62/62
f 53/53/53 51/51/51 52/52/52
f 51/51/51 53/53/53 54/54/54
f 49/49/49 50/50/50 33/33/33
f 34/34/34 33/33/33 50/50/50
f 33/33/33 34/34/34 35/35/35
f 35/35/35 36/36/36 33/33/33
f 57/57/57 55/55/55 56/56/56
f 55/55/55 57/57/57 58/58/58
f 55/55/55 59/59/59 60/60/60
f 59/59/59 55/55/55 58/58/58
f 3/3/3 1/1/1 2/2/2
f 1/1/1 3/3/3 4/4/4
