mtllib OVERHILL_A_01_LINE388.mtl
g Line388
usemtl Material_#44438
v -6343.440430 -599.303406 13049.610352
vn 0.000000 1.000000 0.000000
vt -3.532794 1.000000
v -6343.440430 -599.303467 13647.798828
vn 0.000000 1.000000 0.000000
vt -0.504708 1.000000
v -6283.201660 -599.303406 13647.798828
vn 0.000000 1.000000 0.000000
vt -0.504708 0.000000
v -6283.201660 -599.303406 13049.609375
vn 0.000000 1.000000 0.000000
vt -3.532794 0.000000
v -6283.201660 -599.303406 13049.609375
vn 1.000000 0.000000 0.000000
vt 2.275232 0.000000
v -6283.201660 -599.303406 13647.798828
vn 1.000000 0.000000 0.000000
vt 0.000000 0.000000
v -6283.201660 -659.094849 13647.798828
vn 1.000000 0.000000 0.000000
vt 0.000000 1.000000
v -6283.201660 -659.094849 13049.609375
vn 1.000000 0.000000 0.000000
vt 2.275232 1.000000
v -6283.201660 -599.303406 13647.798828
vn 0.000004 -0.000003 1.000000
vt 0.000000 0.000000
v -6343.440430 -599.303467 13647.798828
vn 0.000004 -0.000003 1.000000
vt -0.758853 0.000000
v -6343.440430 -659.094910 13647.798828
vn 0.000004 -0.000003 1.000000
vt -0.758853 1.000000
v -6283.201660 -659.094849 13647.798828
vn 0.000004 -0.000003 1.000000
vt 0.000000 1.000000
v -6343.440430 -599.303467 13647.798828
vn -1.000000 0.000000 0.000000
vt -0.758853 0.000000
v -6343.440430 -599.303406 13049.610352
vn -1.000000 0.000000 0.000000
vt -3.088972 0.000000
v -6343.440430 -659.094849 13049.609375
vn -1.000000 0.000000 0.000000
vt -3.088972 1.000000
v -6343.440430 -659.094910 13647.798828
vn -1.000000 0.000001 0.000000
vt -0.758853 1.000000
v -6343.440430 -659.094849 13049.609375
vn 0.000000 -1.000000 0.000000
vt -3.532794 1.000000
v -6283.201660 -659.094849 13049.609375
vn 0.000000 -1.000000 0.000000
vt -3.532794 0.000000
v -6283.201660 -659.094849 13647.798828
vn 0.000000 -1.000000 0.000000
vt -0.504708 0.000000
v -6343.440430 -659.094910 13647.798828
vn 0.000000 -1.000000 0.000000
vt -0.504708 1.000000
f 3/3/3 1/1/1 2/2/2
f 1/1/1 3/3/3 4/4/4
f 7/7/7 5/5/5 6/6/6
f 5/5/5 7/7/7 8/8/8
f 11/11/11 9/9/9 10/10/10
f 9/9/9 11/11/11 12/12/12
f 15/15/15 13/13/13 14/14/14
f 13/13/13 15/15/15 16/16/16
f 19/19/19 17/17/17 18/18/18
f 17/17/17 19/19/19 20/20/20
