mtllib OVERHILL_A_01_STONE_BLOCK_39.mtl
g Stone_Block_39
usemtl Stone_Moss_Blend
v -11000.902344 -775.917358 13856.890625
vn 0.000000 0.000000 1.000000
vt 1.240303 0.986545
v -11000.902344 -696.792419 13856.890625
vn 0.000000 0.000000 1.000000
vt 1.240303 0.747049
v -11163.231445 -696.792419 13856.890625
vn 0.000000 0.000000 1.000000
vt 0.745183 0.747049
v -11163.231445 -775.917480 13856.890625
vn 0.000000 0.000000 1.000000
vt 0.745183 0.986545
v -11000.902344 -696.792419 13856.890625
vn 0.000001 1.000000 -0.000003
vt 0.483529 0.739259
v -11000.902344 -696.792664 13777.765625
vn 0.000001 1.000000 -0.000003
vt 0.483529 0.499763
v -11163.231445 -696.792542 13777.765625
vn 0.000001 1.000000 -0.000003
vt -0.000255 0.499763
v -11163.231445 -696.792419 13856.890625
vn 0.000000 1.000000 -0.000002
vt -0.000255 0.739259
v -11000.902344 -775.917664 13777.765625
vn 0.000000 0.000000 -1.000000
vt 0.741128 0.494183
v -11163.231445 -775.917480 13777.765625
vn 0.000000 0.000000 -1.000000
vt 0.246008 0.494183
v -11163.231445 -696.792542 13777.765625
vn 0.000000 0.000000 -1.000000
vt 0.246008 0.254687
v -11000.902344 -696.792664 13777.765625
vn 0.000000 0.000000 -1.000000
vt 0.741128 0.254687
v -11000.902344 -696.792419 13856.890625
vn 1.000000 0.000000 0.000000
vt 0.243004 0.744546
v -11000.902344 -775.917358 13856.890625
vn 1.000000 0.000000 0.000000
vt 0.243004 0.999494
v -11000.902344 -775.917664 13777.765625
vn 1.000000 0.000000 0.000000
vt 0.743503 0.999501
v -11000.902344 -696.792664 13777.765625
vn 1.000000 0.000000 0.000000
vt 0.743503 0.744547
v -11163.231445 -696.792542 13777.765625
vn -1.000000 0.000000 0.000000
vt 0.243004 0.744546
v -11163.231445 -775.917480 13777.765625
vn -1.000000 0.000000 0.000000
vt 0.243004 0.999494
v -11163.231445 -775.917480 13856.890625
vn -1.000000 0.000000 0.000000
vt 0.743503 0.999501
v -11163.231445 -696.792419 13856.890625
vn -1.000000 0.000000 0.000000
vt 0.743503 0.744547
v -11000.902344 -775.917358 13856.890625
vn 0.000001 -1.000000 0.000000
vt 0.483529 0.739259
v -11163.231445 -775.917480 13856.890625
vn 0.000001 -1.000000 0.000000
vt -0.000255 0.739259
v -11163.231445 -775.917480 13777.765625
vn 0.000001 -1.000000 0.000000
vt -0.000255 0.499763
v -11000.902344 -775.917664 13777.765625
vn -0.000001 -1.000000 0.000004
vt 0.483529 0.499763
f 3/3/3 1/1/1 2/2/2
f 1/1/1 3/3/3 4/4/4
f 7/7/7 5/5/5 6/6/6
f 5/5/5 7/7/7 8/8/8
f 11/11/11 9/9/9 10/10/10
f 9/9/9 11/11/11 12/12/12
f 15/15/15 13/13/13 14/14/14
f 13/13/13 15/15/15 16/16/16
f 19/19/19 17/17/17 18/18/18
f 17/17/17 19/19/19 20/20/20
f 23/23/23 21/21/21 22/22/22
f 21/21/21 23/23/23 24/24/24
