mtllib OVERHILL_A_01_OH_DWARFSTEP948.mtl
g OH_DwarfStep948
usemtl Material_#43802
v -6361.647949 -1228.936646 13760.542969
vn -1.000000 -0.000002 0.000004
vt 1.752570 0.112589
v -6361.647461 -1318.936768 13760.542969
vn -1.000000 -0.000004 0.000002
vt 1.752571 0.499420
v -6361.647461 -1258.936768 13800.542969
vn -1.000000 0.000000 0.000000
vt 1.915697 0.243038
v -6361.647949 -1228.936768 13800.541992
vn -1.000000 -0.000008 0.000000
vt 1.915697 0.112782
v -6361.647461 -1288.936768 13840.542969
vn -1.000000 -0.000004 0.000002
vt 2.081346 0.376245
v -6361.647461 -1318.936646 13880.542969
vn -1.000000 -0.000004 0.000002
vt 2.241096 0.500603
v -6361.647461 -1288.936646 13880.542969
vn -1.000000 0.000000 0.000005
vt 2.241096 0.376245
v -6361.647461 -1258.936768 13840.542969
vn -1.000000 0.000000 0.000000
vt 2.081346 0.243038
f 5/5/5 8/8/8 3/3/3
f 4/4/4 1/1/1 3/3/3
f 2/2/2 3/3/3 1/1/1
f 3/3/3 2/2/2 5/5/5
f 6/6/6 5/5/5 2/2/2
f 5/5/5 6/6/6 7/7/7
usemtl Lvl_dwarven_plc_stone02
v -6061.647461 -1078.936890 13560.542969
vn 1.000000 0.000000 0.000000
vt 0.360913 -0.278490
v -6061.647461 -1108.936890 13600.542969
vn 0.994417 0.084414 0.063310
vt 0.491949 -0.150023
v -6061.647461 -1348.936768 13560.542969
vn 1.000000 0.000000 0.000000
vt 0.360913 0.877714
v -6061.647461 -1228.936768 13760.542969
vn 0.988125 0.122921 0.092191
vt 1.016095 0.363845
v -6061.647461 -1258.936768 13800.542969
vn 1.000000 0.000000 0.000000
vt 1.147132 0.492313
v -6061.647461 -1288.936768 13840.542969
vn 1.000000 0.000000 0.000000
vt 1.278168 0.620780
v -6061.647461 -1318.936646 13880.542969
vn 1.000000 -0.000001 0.000000
vt 1.409205 0.749247
v -6061.647461 -1348.936646 13920.542969
vn 1.000000 -0.000002 0.000000
vt 1.540241 0.877714
v -6061.647461 -1318.936646 13920.542969
vn 1.000000 -0.000002 0.000000
vt 1.540241 0.749247
v -6061.647461 -1288.936646 13880.542969
vn 1.000000 0.000000 0.000000
vt 1.409205 0.620780
v -6061.647461 -1258.936768 13840.542969
vn 1.000000 0.000000 0.000000
vt 1.278168 0.492313
v -6061.647461 -1228.936768 13800.542969
vn 1.000000 0.000000 0.000000
vt 1.147132 0.363845
v -6061.647461 -1168.936890 13680.542969
vn 0.991786 0.102327 0.076745
vt 0.754022 0.106911
v -6061.647461 -1198.936768 13720.542969
vn 1.000000 0.000000 0.000000
vt 0.885059 0.235378
v -6061.647461 -1198.936768 13760.542969
vn 1.000000 0.000000 0.000000
vt 1.016096 0.235378
v -6061.647461 -1168.936768 13720.542969
vn 1.000000 0.000000 0.000000
vt 0.885059 0.106911
v -6061.647461 -1138.936768 13640.542969
vn 0.999701 -0.019567 -0.014675
vt 0.622987 -0.021556
v -6061.647461 -1138.936768 13680.542969
vn 1.000000 0.000000 0.000000
vt 0.754023 -0.021556
v -6061.647461 -1108.936890 13640.542969
vn 1.000000 0.000000 0.000000
vt 0.622986 -0.150023
v -6061.647461 -1078.936890 13600.542969
vn 1.000000 0.000000 0.000000
vt 0.491949 -0.278490
f 21/21/21 24/24/24 22/22/22
f 12/12/12 22/22/22 23/23/23
f 22/22/22 12/12/12 21/21/21
f 10/10/10 21/21/21 12/12/12
f 21/21/21 10/10/10 25/25/25
f 27/27/27 25/25/25 10/10/10
f 25/25/25 26/26/26 21/21/21
f 20/20/20 13/13/13 12/12/12
f 11/11/11 12/12/12 13/13/13
f 12/12/12 11/11/11 10/10/10
f 9/9/9 10/10/10 11/11/11
f 10/10/10 9/9/9 28/28/28
f 13/13/13 14/14/14 11/11/11
f 14/14/14 13/13/13 19/19/19
f 15/15/15 14/14/14 18/18/18
f 14/14/14 15/15/15 11/11/11
f 16/16/16 11/11/11 15/15/15
f 15/15/15 17/17/17 16/16/16
usemtl Dwarf_Stone_Step
v -6061.647949 -1258.936768 13800.541992
vn 0.000000 0.000000 1.000000
vt 0.116319 1.000000
v -6061.647949 -1228.936768 13800.541992
vn 0.000000 0.000000 1.000000
vt 0.116319 0.680556
v -6211.647949 -1228.936768 13800.542969
vn 0.000000 0.000000 1.000000
vt 0.593256 0.680556
v -6211.647949 -1258.936768 13800.542969
vn 0.000000 0.781906 0.623396
vt 0.593256 1.000000
v -6061.647949 -1258.936768 13840.541992
vn 0.000000 1.000000 0.000000
vt 1.204849 0.673165
v -6061.647949 -1258.936768 13800.541992
vn 0.000000 1.000000 0.000000
vt 1.204849 0.057717
v -6211.647949 -1258.936768 13800.542969
vn 0.000000 0.781906 0.623396
vt 0.724972 0.057716
v -6211.647949 -1258.936768 13840.542969
vn 0.000000 1.000000 0.000000
vt 0.724972 0.673165
v -6061.647949 -1288.936768 13840.541992
vn 0.000000 0.000000 1.000000
vt 1.204849 1.000000
v -6061.647949 -1258.936768 13840.541992
vn 0.000000 0.000000 1.000000
vt 1.204849 0.673165
v -6211.647949 -1258.936768 13840.542969
vn 0.000000 0.000000 1.000000
vt 0.724972 0.673165
v -6211.647949 -1288.936768 13840.542969
vn 0.000000 0.755517 0.655129
vt 0.724972 1.000000
v -6061.647949 -1288.936768 13880.541992
vn 0.000000 1.000000 0.000000
vt 0.720316 0.680469
v -6061.647949 -1288.936768 13840.541992
vn 0.000000 1.000000 0.000000
vt 0.720316 0.213006
v -6211.647949 -1288.936768 13840.542969
vn 0.000000 0.755517 0.655129
vt 1.174447 0.213006
v -6211.647949 -1288.936768 13880.542969
vn 0.000000 1.000000 0.000000
vt 1.174447 0.680468
v -6061.647949 -1318.936768 13880.541992
vn 0.000000 0.000000 1.000000
vt 0.720316 1.000000
v -6061.647949 -1288.936768 13880.541992
vn 0.000000 0.000000 1.000000
vt 0.720316 0.680469
v -6211.647949 -1288.936768 13880.542969
vn 0.000000 0.000000 1.000000
vt 1.174447 0.680468
v -6211.647949 -1318.936768 13880.542969
vn 0.000000 0.000000 1.000000
vt 1.174447 1.000000
v -6061.647949 -1318.936646 13920.541992
vn 0.000000 1.000000 -0.000001
vt 0.096003 0.671666
v -6061.647949 -1318.936768 13880.541992
vn 0.000000 1.000000 -0.000001
vt 0.096003 0.279850
v -6211.647949 -1318.936768 13880.542969
vn 0.000000 1.000000 -0.000001
vt -0.304859 0.279850
v -6061.647949 -1078.936890 13560.542969
vn 0.000000 0.000000 1.000000
vt 0.930177 1.000000
v -6061.647949 -1048.936890 13560.542969
vn -0.361499 0.699364 0.616610
vt 0.930177 0.652128
v -6211.647949 -1048.936890 13560.542969
vn 0.000000 0.628411 0.777882
vt 0.502391 0.652128
v -6061.647949 -1348.936646 13920.541992
vn 0.000000 0.000000 1.000000
vt 0.096003 1.000000
v -6061.647949 -1318.936646 13920.541992
vn -0.000003 0.000000 1.000000
vt 0.096003 0.671666
v -6211.647949 -1318.936646 13920.542969
vn 0.000000 0.000000 1.000000
vt -0.304859 0.671666
v -6211.647949 -1348.936646 13920.542969
vn 0.000000 0.000000 1.000000
vt -0.304859 1.000000
v -6211.647949 -1078.936890 13560.542969
vn 0.000000 0.000000 1.000000
vt 0.502391 1.000000
v -6361.647949 -1048.936890 13560.542969
vn 0.000000 0.628411 0.777882
vt 0.074604 0.652128
v -6361.647949 -1078.936890 13560.542969
vn 0.000000 0.000000 1.000000
vt 0.074604 1.000000
v -6211.647949 -1078.936890 13600.542969
vn 0.000000 1.000000 0.000000
vt 0.464000 0.684952
v -6211.647949 -1078.936890 13560.542969
vn 0.000000 1.000000 0.000000
vt 0.464000 0.333178
v -6361.647949 -1078.936890 13560.542969
vn 0.000000 1.000000 -0.000001
vt 0.928000 0.333178
v -6361.647949 -1078.936890 13600.542969
vn 0.000000 1.000000 -0.000001
vt 0.928000 0.684952
v -6211.647949 -1108.936890 13600.542969
vn 0.000000 0.730744 0.682652
vt 0.464000 1.000000
v -6211.647949 -1078.936890 13600.542969
vn 0.000000 0.000000 1.000000
vt 0.464000 0.684952
v -6361.647949 -1078.936890 13600.542969
vn 0.000000 0.000001 1.000000
vt 0.928000 0.684952
v -6361.647949 -1108.936890 13600.542969
vn 0.000000 0.730744 0.682651
vt 0.928000 1.000000
v -6211.647949 -1108.936890 13640.542969
vn 0.000000 1.000000 -0.000001
vt 0.795248 0.669310
v -6211.647949 -1108.936890 13600.542969
vn 0.000000 0.730744 0.682652
vt 0.795248 0.342177
v -6361.647949 -1108.936890 13600.542969
vn 0.000000 0.730744 0.682651
vt 0.258450 0.342177
v -6361.647949 -1108.936890 13640.542969
vn 0.000000 1.000000 0.000000
vt 0.258450 0.669310
v -6211.647949 -1138.936890 13640.542969
vn 0.000000 0.778642 0.627469
vt 0.795248 1.000000
v -6211.647949 -1108.936890 13640.542969
vn 0.000000 0.000000 1.000000
vt 0.795248 0.669310
v -6361.647949 -1108.936890 13640.542969
vn 0.000000 0.000001 1.000000
vt 0.258450 0.669310
v -6361.647949 -1138.936890 13640.542969
vn 0.000000 0.778642 0.627468
vt 0.258450 1.000000
v -6211.647949 -1138.936768 13680.542969
vn 0.000000 1.000000 -0.000001
vt 0.637863 0.680040
v -6211.647949 -1138.936890 13640.542969
vn 0.000000 0.778642 0.627469
vt 0.637863 0.349838
v -6361.647949 -1138.936890 13640.542969
vn 0.000000 0.778642 0.627468
vt 0.275761 0.349838
v -6211.647949 -1228.936768 13760.541992
vn 0.000000 1.000000 0.000000
vt 0.593256 0.285914
v -6211.647949 -1228.936768 13800.542969
vn 0.000000 1.000000 0.000000
vt 0.593256 0.680556
v -6061.647949 -1228.936768 13800.541992
vn 0.000000 1.000000 0.000000
vt 0.116319 0.680556
v -6061.647949 -1108.936890 13640.542969
vn 0.000000 1.000000 -0.000001
vt 1.332045 0.669310
v -6061.647949 -1108.936890 13600.542969
vn 0.000000 0.730744 0.682652
vt 1.332045 0.342177
v -6361.647949 -1138.936768 13680.542969
vn 0.000000 0.000000 1.000000
vt 0.275761 0.680040
v -6361.647949 -1168.936768 13680.542969
vn 0.000000 0.768845 0.639435
vt 0.275761 1.000000
v -6211.647949 -1168.936890 13680.542969
vn 0.000000 0.768845 0.639435
vt 0.637863 1.000000
v -6211.647949 -1168.936768 13720.542969
vn 0.000000 1.000000 -0.000001
vt 0.435505 0.688550
v -6211.647949 -1168.936890 13680.542969
vn 0.000000 0.768845 0.639435
vt 0.435505 0.198699
v -6361.647949 -1168.936768 13680.542969
vn 0.000000 0.768845 0.639435
vt 0.000201 0.198699
v -6361.647949 -1168.936768 13720.542969
vn 0.000000 1.000000 -0.000001
vt 0.000201 0.688550
v -6211.647949 -1198.936768 13720.542969
vn 0.000000 0.774008 0.633176
vt 0.435505 0.989700
v -6211.647949 -1168.936768 13720.542969
vn 0.000000 0.000001 1.000000
vt 0.435505 0.688550
v -6361.647949 -1168.936768 13720.542969
vn 0.000000 0.000000 1.000000
vt 0.000201 0.688550
v -6361.647949 -1198.936768 13720.542969
vn 0.000000 0.774007 0.633176
vt 0.000201 0.989700
v -6211.647949 -1198.936768 13760.542969
vn 0.000000 1.000000 0.000000
vt 0.797780 0.653775
v -6211.647949 -1198.936768 13720.542969
vn 0.000000 0.774008 0.633176
vt 0.797780 0.251586
v -6361.647949 -1198.936768 13720.542969
vn 0.000000 0.774007 0.633176
vt 1.299231 0.251586
v -6361.647949 -1198.936768 13760.542969
vn 0.000000 1.000000 0.000000
vt 1.299231 0.653775
v -6211.647949 -1228.936768 13760.541992
vn 0.000000 0.000000 1.000000
vt 0.797780 1.000000
v -6211.647949 -1198.936768 13760.541992
vn 0.000000 0.000000 1.000000
vt 0.797780 0.653775
v -6361.647949 -1198.936768 13760.542969
vn 0.000002 0.000000 1.000000
vt 1.299231 0.653775
v -6361.647949 -1228.936646 13760.542969
vn 0.000001 0.633343 0.773871
vt 1.299231 1.000000
v -6361.647949 -1228.936646 13760.542969
vn 0.000001 0.633343 0.773871
vt 1.070193 0.285913
v -6361.647949 -1228.936768 13800.541992
vn 0.000000 1.000000 0.000001
vt 1.070193 0.680555
v -6361.647949 -1228.936768 13800.541992
vn 0.000000 0.000000 1.000000
vt 1.070193 0.680555
v -6361.647461 -1258.936768 13800.542969
vn 0.000001 0.781908 0.623393
vt 1.070193 1.000000
v -6361.647461 -1258.936768 13800.542969
vn 0.000001 0.781908 0.623393
vt 0.245095 0.057716
v -6361.647461 -1258.936768 13840.542969
vn 0.000000 1.000000 -0.000001
vt 0.245095 0.673164
v -6361.647461 -1258.936768 13840.542969
vn 0.000001 0.000000 1.000000
vt 0.245095 0.673164
v -6361.647461 -1288.936768 13840.542969
vn 0.000001 0.755517 0.655129
vt 0.245095 1.000000
v -6361.647461 -1288.936768 13840.542969
vn 0.000001 0.755517 0.655129
vt 1.628577 0.213005
v -6361.647949 -1288.936768 13880.542969
vn 0.000000 1.000000 0.000000
vt 1.628577 0.680468
v -6361.647949 -1288.936768 13880.542969
vn 0.000000 0.000000 1.000000
vt 1.628577 0.680468
v -6361.647949 -1318.936768 13880.542969
vn 0.000000 0.000000 1.000000
vt 1.628577 1.000000
v -6211.647949 -1318.936646 13920.542969
vn 0.000000 1.000000 -0.000002
vt -0.304859 0.671666
v -6361.647949 -1318.936768 13880.542969
vn 0.000000 1.000000 -0.000001
vt -0.705720 0.279849
v -6361.647461 -1318.936646 13920.542969
vn 0.000000 1.000000 -0.000001
vt -0.705720 0.671665
v -6361.647461 -1318.936646 13920.542969
vn 0.000000 0.000001 1.000000
vt -0.705720 0.671665
v -6361.647461 -1348.936646 13920.542969
vn -0.000001 0.000001 1.000000
vt -0.705720 1.000000
v -6061.647949 -1228.936768 13760.541992
vn 0.000000 1.000000 0.000000
vt 0.116319 0.285914
v -6061.647949 -1228.936768 13760.541992
vn 0.000000 0.000000 1.000000
vt 0.296329 1.000000
v -6061.647949 -1198.936768 13760.541992
vn 0.000000 0.000000 1.000000
vt 0.296329 0.653776
v -6061.647949 -1198.936768 13760.542969
vn 0.000000 1.000000 0.000000
vt 0.296329 0.653776
v -6061.647949 -1198.936768 13720.542969
vn 0.000000 0.774008 0.633176
vt 0.296329 0.251587
v -6061.647949 -1198.936768 13720.542969
vn 0.000000 0.774008 0.633176
vt 0.870808 0.989700
v -6061.647949 -1168.936768 13720.542969
vn 0.000000 0.000002 1.000000
vt 0.870808 0.688551
v -6061.647949 -1168.936768 13720.542969
vn 0.000000 1.000000 -0.000001
vt 0.870808 0.688551
v -6061.647949 -1168.936890 13680.542969
vn 0.000000 0.768845 0.639435
vt 0.870808 0.198700
v -6211.647949 -1138.936768 13680.542969
vn 0.000000 0.000000 1.000000
vt 0.637863 0.680040
v -6061.647949 -1168.936890 13680.542969
vn 0.000000 0.768845 0.639435
vt 0.999966 1.000000
v -6061.647949 -1138.936890 13680.542969
vn 0.000000 0.000000 1.000000
vt 0.999966 0.680041
v -6061.647949 -1138.936890 13680.542969
vn 0.000000 1.000000 -0.000001
vt 0.999966 0.680041
v -6061.647949 -1138.936890 13640.542969
vn 0.000000 0.778641 0.627469
vt 0.999966 0.349839
v -6061.647949 -1138.936890 13640.542969
vn 0.000000 0.778641 0.627469
vt 1.332045 1.000000
v -6061.647949 -1108.936890 13640.542969
vn 0.000000 0.000000 1.000000
vt 1.332045 0.669310
v -6061.647949 -1108.936890 13600.542969
vn 0.000000 0.730744 0.682652
vt 0.000000 1.000000
v -6361.647949 -1138.936768 13680.542969
vn 0.000000 1.000000 -0.000001
vt 0.275761 0.680040
v -6061.647949 -1078.936890 13600.542969
vn 0.000000 0.000000 1.000000
vt 0.000000 0.684952
v -6061.647949 -1078.936890 13600.542969
vn 0.000000 1.000000 0.000000
vt 0.000000 0.684952
v -6061.647949 -1078.936890 13560.542969
vn 0.000000 1.000000 0.000000
vt 0.000000 0.333179
f 31/31/31 29/29/29 30/30/30
f 29/29/29 31/31/31 32/32/32
f 107/107/107 32/32/32 31/31/31
f 32/32/32 107/107/107 108/108/108
f 36/36/36 109/109/109 110/110/110
f 109/109/109 36/36/36 35/35/35
f 33/33/33 35/35/35 36/36/36
f 35/35/35 33/33/33 34/34/34
f 39/39/39 37/37/37 38/38/38
f 37/37/37 39/39/39 40/40/40
f 111/111/111 40/40/40 39/39/39
f 40/40/40 111/111/111 112/112/112
f 43/43/43 41/41/41 42/42/42
f 41/41/41 43/43/43 44/44/44
f 113/113/113 44/44/44 43/43/43
f 44/44/44 113/113/113 114/114/114
f 47/47/47 45/45/45 46/46/46
f 45/45/45 47/47/47 48/48/48
f 115/115/115 48/48/48 47/47/47
f 48/48/48 115/115/115 116/116/116
f 51/51/51 49/49/49 50/50/50
f 49/49/49 51/51/51 117/117/117
f 118/118/118 117/117/117 51/51/51
f 117/117/117 118/118/118 119/119/119
f 54/54/54 52/52/52 53/53/53
f 52/52/52 54/54/54 59/59/59
f 60/60/60 59/59/59 54/54/54
f 59/59/59 60/60/60 61/61/61
f 57/57/57 55/55/55 56/56/56
f 55/55/55 57/57/57 58/58/58
f 120/120/120 58/58/58 57/57/57
f 58/58/58 120/120/120 121/121/121
f 63/63/63 141/141/141 142/142/142
f 141/141/141 63/63/63 62/62/62
f 64/64/64 62/62/62 63/63/63
f 62/62/62 64/64/64 65/65/65
f 67/67/67 138/138/138 140/140/140
f 138/138/138 67/67/67 66/66/66
f 68/68/68 66/66/66 67/67/67
f 66/66/66 68/68/68 69/69/69
f 71/71/71 84/84/84 85/85/85
f 84/84/84 71/71/71 70/70/70
f 72/72/72 70/70/70 71/71/71
f 70/70/70 72/72/72 73/73/73
f 75/75/75 136/136/136 137/137/137
f 136/136/136 75/75/75 74/74/74
f 76/76/76 74/74/74 75/75/75
f 74/74/74 76/76/76 77/77/77
f 79/79/79 134/134/134 135/135/135
f 134/134/134 79/79/79 78/78/78
f 80/80/80 78/78/78 79/79/79
f 78/78/78 80/80/80 139/139/139
f 82/82/82 105/105/105 106/106/106
f 105/105/105 82/82/82 81/81/81
f 83/83/83 81/81/81 82/82/82
f 81/81/81 83/83/83 122/122/122
f 88/88/88 86/86/86 87/87/87
f 86/86/86 88/88/88 131/131/131
f 132/132/132 131/131/131 88/88/88
f 131/131/131 132/132/132 133/133/133
f 90/90/90 129/129/129 130/130/130
f 129/129/129 90/90/90 89/89/89
f 91/91/91 89/89/89 90/90/90
f 89/89/89 91/91/91 92/92/92
f 94/94/94 127/127/127 128/128/128
f 127/127/127 94/94/94 93/93/93
f 95/95/95 93/93/93 94/94/94
f 93/93/93 95/95/95 96/96/96
f 98/98/98 125/125/125 126/126/126
f 125/125/125 98/98/98 97/97/97
f 99/99/99 97/97/97 98/98/98
f 97/97/97 99/99/99 100/100/100
f 102/102/102 123/123/123 124/124/124
f 123/123/123 102/102/102 101/101/101
f 103/103/103 101/101/101 102/102/102
f 101/101/101 103/103/103 104/104/104
