mtllib OVERHILL_A_01_BOX91.mtl
g Box91
usemtl goblin_beam
v -955.650574 -2142.126465 18804.716797
vn 0.559193 0.000000 -0.829037
vt 0.786197 0.999500
v -951.505432 -2142.126465 18807.513672
vn 0.559193 0.000000 -0.829037
vt 0.497785 0.999500
v -951.505432 -2228.009521 18807.513672
vn 0.559193 0.000000 -0.829037
vt 0.497786 -0.426215
v -955.650635 -2228.009521 18804.716797
vn 0.559193 0.000000 -0.829037
vt 0.786197 -0.426215
v -961.869690 -2142.126465 18813.937500
vn -0.559193 0.000000 0.829037
vt 0.786197 0.999500
v -961.869690 -2228.009521 18813.937500
vn -0.559193 0.000000 0.829037
vt 0.786197 -0.426215
v -957.724487 -2228.009521 18816.732422
vn -0.559193 0.000000 0.829037
vt 0.497786 -0.426215
v -957.724487 -2142.126465 18816.734375
vn -0.559193 0.000000 0.829037
vt 0.497785 0.999500
v -955.650574 -2142.126465 18804.716797
vn -0.829037 0.000000 -0.559193
vt 0.280034 -0.426216
v -955.650635 -2228.009521 18804.716797
vn -0.829037 0.000000 -0.559193
vt 0.280034 0.999500
v -961.869690 -2228.009521 18813.937500
vn -0.829037 0.000000 -0.559193
vt 1.003948 0.999500
v -961.869690 -2142.126465 18813.937500
vn -0.829037 0.000000 -0.559193
vt 1.003948 -0.426215
v -951.505432 -2228.009521 18807.513672
vn 0.829037 0.000000 0.559193
vt 0.280034 0.999500
v -951.505432 -2142.126465 18807.513672
vn 0.829037 0.000000 0.559193
vt 0.280034 -0.426215
v -957.724487 -2142.126465 18816.734375
vn 0.829037 0.000000 0.559193
vt 1.003948 -0.426215
v -957.724487 -2228.009521 18816.732422
vn 0.829037 0.000000 0.559193
vt 1.003948 0.999501
f 3/3/3 1/1/1 2/2/2
f 1/1/1 3/3/3 4/4/4
f 7/7/7 5/5/5 6/6/6
f 5/5/5 7/7/7 8/8/8
f 11/11/11 9/9/9 10/10/10
f 9/9/9 11/11/11 12/12/12
f 15/15/15 13/13/13 14/14/14
f 13/13/13 15/15/15 16/16/16
