mtllib OVERHILL_A_01_LINE451.mtl
g Line451
usemtl Material_#44425
v -7907.297852 -411.319366 8608.277344
vn 0.862936 0.000000 0.505313
vt 0.020072 0.245370
v -7907.297852 -278.569366 8608.277344
vn 0.967556 0.000000 0.252657
vt 0.020072 -0.240250
v -7926.501953 -278.569366 8627.490234
vn 0.505586 0.000000 0.862776
vt -0.060021 -0.240250
v -7926.501953 -411.319366 8627.490234
vn 0.252793 0.000000 0.967520
vt -0.060021 0.245370
v -7907.297852 -411.319366 8550.650391
vn 0.967529 0.000000 -0.252762
vt 0.189979 0.245370
v -7907.297852 -278.569366 8550.650391
vn 0.862812 0.000000 -0.505525
vt 0.189979 -0.240250
v -7926.506836 -411.319366 8531.446289
vn 0.505374 0.000000 -0.862901
vt 0.270064 0.245370
v -7926.506836 -278.569366 8531.446289
vn 0.252687 0.000000 -0.967548
vt 0.270064 -0.240250
v -7984.133301 -411.319366 8531.446289
vn -0.252724 0.000000 -0.967538
vt 0.439969 0.245370
v -7984.133301 -278.569366 8531.446289
vn -0.505449 0.000000 -0.862856
vt 0.439969 -0.240250
v -8003.342285 -411.319366 8550.655273
vn -0.863283 0.000000 -0.504721
vt 0.520064 0.245370
v -8003.342285 -278.569366 8550.655273
vn -0.968015 0.000000 -0.250892
vt 0.520064 -0.240250
v -8003.186035 -411.548615 8607.704102
vn -0.968519 0.000000 0.248941
vt 0.689969 0.245370
v -8003.186035 -278.798615 8607.704102
vn -0.868918 0.000000 0.494956
vt 0.689969 -0.240250
v -7984.128906 -411.319366 8627.490234
vn -0.516616 0.000000 0.856217
vt 0.770073 0.245370
v -7984.128906 -278.569366 8627.490234
vn -0.258308 0.000000 0.966063
vt 0.770073 -0.240250
v -7926.501953 -411.319366 8627.490234
vn 0.252793 0.000000 0.967520
vt 0.939979 0.245370
v -7926.501953 -278.569366 8627.490234
vn 0.505586 0.000000 0.862776
vt 0.939979 -0.240250
v -7907.297852 -142.005341 8608.277344
vn 0.862936 0.000000 0.505313
vt 0.424420 -0.257066
v -7926.501953 -142.005341 8627.490234
vn 0.252793 0.000000 0.967520
vt 0.344327 -0.257066
v -7926.501953 -278.569366 8627.490234
vn 0.505586 0.000000 0.862776
vt 0.344327 0.246795
v -7907.297852 -278.569366 8608.277344
vn 0.967556 0.000000 0.252657
vt 0.424420 0.246795
v -7907.297852 -142.005341 8550.650391
vn 0.967529 0.000000 -0.252762
vt 0.594327 -0.257066
v -7907.297852 -278.569366 8550.650391
vn 0.862812 0.000000 -0.505525
vt 0.594327 0.246795
v -7926.501953 -142.005341 8627.490234
vn 0.252793 0.000000 0.967520
vt 1.344327 -0.257066
v -7984.128906 -142.005341 8627.490234
vn -0.516616 0.000000 0.856217
vt 1.174420 -0.257066
v -7984.128906 -278.569366 8627.490234
vn -0.258308 0.000000 0.966063
vt 1.174420 0.246795
v -7926.501953 -278.569366 8627.490234
vn 0.505586 0.000000 0.862776
vt 1.344327 0.246795
v -7926.506836 -142.005341 8531.446289
vn 0.505374 0.000000 -0.862901
vt 0.674412 -0.257066
v -7926.506836 -278.569366 8531.446289
vn 0.252687 0.000000 -0.967548
vt 0.674412 0.246795
v -7984.133301 -142.005341 8531.446289
vn -0.252724 0.000000 -0.967538
vt 0.844317 -0.257066
v -7984.133301 -278.569366 8531.446289
vn -0.505449 0.000000 -0.862856
vt 0.844317 0.246795
v -8003.342285 -142.005341 8550.655273
vn -0.863283 0.000000 -0.504721
vt 0.924412 -0.257066
v -8003.342285 -278.569366 8550.655273
vn -0.968015 0.000000 -0.250892
vt 0.924412 0.246795
v -8003.186035 -142.234589 8607.704102
vn -0.968519 0.000000 0.248941
vt 1.094316 -0.257066
v -8003.186035 -278.798615 8607.704102
vn -0.868918 0.000000 0.494956
vt 1.094316 0.246795
f 1/1/1 3/3/3 4/4/4
f 3/3/3 1/1/1 2/2/2
f 5/5/5 2/2/2 1/1/1
f 2/2/2 5/5/5 6/6/6
f 7/7/7 6/6/6 5/5/5
f 6/6/6 7/7/7 8/8/8
f 9/9/9 8/8/8 7/7/7
f 8/8/8 9/9/9 10/10/10
f 11/11/11 10/10/10 9/9/9
f 10/10/10 11/11/11 12/12/12
f 13/13/13 12/12/12 11/11/11
f 12/12/12 13/13/13 14/14/14
f 15/15/15 14/14/14 13/13/13
f 14/14/14 15/15/15 16/16/16
f 17/17/17 16/16/16 15/15/15
f 16/16/16 17/17/17 18/18/18
f 20/20/20 21/21/21 19/19/19
f 22/22/22 19/19/19 21/21/21
f 19/19/19 22/22/22 23/23/23
f 24/24/24 23/23/23 22/22/22
f 23/23/23 24/24/24 29/29/29
f 30/30/30 29/29/29 24/24/24
f 29/29/29 30/30/30 31/31/31
f 32/32/32 31/31/31 30/30/30
f 31/31/31 32/32/32 33/33/33
f 34/34/34 33/33/33 32/32/32
f 33/33/33 34/34/34 35/35/35
f 36/36/36 35/35/35 34/34/34
f 35/35/35 36/36/36 26/26/26
f 27/27/27 26/26/26 36/36/36
f 26/26/26 27/27/27 25/25/25
f 28/28/28 25/25/25 27/27/27
