mtllib OVERHILL_A_01_LINE15.mtl
g Line15
usemtl Ground_Grass_Blend
v -3513.029541 -815.192383 -13360.108398
vn 0.000000 1.000000 0.000000
vt 2.870686 3.551842
v -3640.784180 -815.192383 -13358.744141
vn 0.000000 1.000000 0.000000
vt 3.509460 3.545025
v -3612.009766 -815.192383 -13277.535156
vn 0.000000 1.000000 0.000000
vt 3.365589 3.138977
v -3506.834229 -815.192383 -13298.677734
vn 0.000000 1.000000 0.000000
vt 2.839708 3.244688
v -3727.098633 -815.192383 -13602.348633
vn 0.000000 1.000000 0.000000
vt 2.941031 3.763042
v -3817.218262 -815.192383 -13575.345703
vn 0.000000 1.000000 0.000000
vt 3.391630 3.628029
v -3698.328613 -815.192383 -13521.151367
vn 0.000000 1.000000 0.000000
vt 2.797180 3.357056
v -3954.761719 -815.192383 -13423.012695
vn 0.000000 1.000000 0.000000
vt 3.079348 3.866365
v -3973.994629 -815.192383 -13322.082031
vn 0.000000 1.000000 0.000000
vt 3.175512 3.361713
v -3904.788818 -815.192383 -13360.184570
vn 0.000000 1.000000 0.000000
vt 2.829483 3.552225
v -3854.815918 -815.192383 -13297.356445
vn 0.000000 1.000000 0.000000
vt 3.579618 3.238085
v -3804.835449 -815.192383 -13234.519531
vn 0.000000 1.000000 0.000000
vt 3.329716 2.923897
v -3722.809814 -815.192383 -13296.631836
vn 0.000000 1.000000 0.000000
vt 2.919588 3.234461
v -3762.187256 -815.192383 -13368.655273
vn 0.000000 1.000000 0.000000
vt 3.116474 3.594578
v -3754.854980 -815.192383 -13171.681641
vn 0.000000 1.000000 0.000000
vt 3.079815 3.609711
v -3654.894287 -815.192383 -13046.006836
vn 0.000000 1.000000 0.000000
vt 2.580011 2.981335
v -3683.432373 -815.192383 -13224.608398
vn 0.000000 1.000000 0.000000
vt 2.722702 3.874344
v -3554.460938 -815.192383 -13115.116211
vn 0.000000 1.000000 0.000000
vt 3.077845 2.326881
v -3442.046143 -815.192383 -13185.649414
vn 0.000000 1.000000 0.000000
vt 2.515770 2.679546
v -3860.856689 -815.192383 -12997.490234
vn 0.000000 1.000000 0.000000
vt 3.609823 2.738752
v -3745.647461 -815.192383 -12950.323242
vn 0.000000 1.000000 0.000000
vt 3.033777 2.502916
v -3807.855957 -815.192383 -13084.585938
vn 0.000000 1.000000 0.000000
vt 3.344818 3.174232
v -3969.759277 -815.192383 -13230.185547
vn 0.000000 1.000000 0.000000
vt 3.154335 2.902229
v -3928.892578 -815.192383 -13148.043945
vn 0.000000 1.000000 0.000000
vt 2.950003 2.491524
v -3912.287598 -815.192383 -13263.771484
vn 0.000000 1.000000 0.000000
vt 2.866978 3.070156
v -3804.835449 -815.192383 -13234.519531
vn 0.000000 1.000000 0.000000
vt 3.329716 3.923897
v -3860.071777 -815.192383 -13174.178711
vn 0.000000 1.000000 0.000000
vt 3.605898 3.622194
v -3896.602051 -815.192383 -13099.787109
vn 0.000000 1.000000 0.000000
vt 3.788549 3.250237
v -3928.892578 -815.192383 -13148.043945
vn 0.000000 1.000000 0.000000
vt 3.950003 2.491524
v -3860.071777 -815.192383 -13174.178711
vn 0.000000 1.000000 0.000000
vt 3.605898 2.622194
v -3912.287598 -815.192383 -13263.771484
vn 0.000000 1.000000 0.000000
vt 3.866978 3.070156
v -3904.788818 -815.192383 -13360.184570
vn 0.000000 1.000000 0.000000
vt 3.829483 3.552225
v -3801.558594 -815.192383 -13440.667969
vn 0.000000 1.000000 0.000000
vt 3.313332 3.954639
v -3854.815918 -815.192383 -13297.356445
vn 0.000000 1.000000 0.000000
vt 2.579618 3.238085
v -3605.147461 -815.192383 -13505.111328
vn 0.000000 1.000000 0.000000
vt 3.331276 3.276857
v -3643.027832 -815.192383 -13570.068359
vn 0.000000 1.000000 0.000000
vt 3.520678 3.601641
v -3698.328613 -815.192383 -13521.151367
vn 0.000000 1.000000 0.000000
vt 3.797180 3.357056
v -3669.558350 -815.192383 -13439.954102
vn 0.000000 1.000000 0.000000
vt 3.653332 2.951071
v -3639.089844 -815.192383 -13599.878906
vn 0.000000 1.000000 0.000000
vt 3.500988 3.750694
v -3727.098633 -815.192383 -13602.348633
vn 0.000000 1.000000 0.000000
vt 3.941031 3.763042
v -3801.558594 -815.192383 -13440.667969
vn 0.000000 1.000000 0.000000
vt 3.313332 2.954639
v -3899.849121 -815.192383 -13514.746094
vn 0.000000 1.000000 0.000000
vt 2.804785 3.325031
v -3954.761719 -815.192383 -13423.012695
vn 0.000000 1.000000 0.000000
vt 3.079348 2.866365
v -3904.788818 -815.192383 -13360.184570
vn 0.000000 1.000000 0.000000
vt 2.829483 2.552225
v -3554.460938 -815.192383 -13115.116211
vn 0.000000 1.000000 0.000000
vt 3.077845 3.326881
v -3448.985596 -815.192383 -13125.009766
vn 0.000000 1.000000 0.000000
vt 2.550467 3.376350
v -3442.046143 -815.192383 -13185.649414
vn 0.000000 1.000000 0.000000
vt 2.515770 3.679546
v -3683.432373 -815.192383 -13224.608398
vn 0.000000 1.000000 0.000000
vt 2.722702 2.874344
v -3546.200684 -815.192383 -13437.414063
vn 0.000000 1.000000 0.000000
vt 3.036541 3.938372
v -3546.200684 -815.192383 -13437.414063
vn 0.000000 1.000000 0.000000
vt 3.036541 2.938372
v -3669.558350 -815.192383 -13439.954102
vn 0.000000 1.000000 0.000000
vt 3.653332 3.951071
v -3928.892578 -815.192383 -13148.043945
vn 0.000000 1.000000 0.000000
vt 3.950003 3.491524
v -3640.784180 -815.192383 -13358.744141
vn 0.000000 1.000000 0.000000
vt 2.509460 3.545025
v -3669.558350 -815.192383 -13439.954102
vn 0.000000 1.000000 0.000000
vt 2.653332 3.951071
v -3669.558350 -815.192383 -13439.954102
vn 0.000000 1.000000 0.000000
vt 2.653332 2.951071
v -3722.809814 -815.192383 -13296.631836
vn 0.000000 1.000000 0.000000
vt 3.919588 3.234461
v -3683.432373 -815.192383 -13224.608398
vn 0.000000 1.000000 0.000000
vt 3.722702 2.874344
v -3654.894287 -815.192383 -13046.006836
vn 0.000000 1.000000 0.000000
vt 3.580011 2.981335
v -3683.432373 -815.192383 -13224.608398
vn 0.000000 1.000000 0.000000
vt 3.722702 3.874344
v -3899.849121 -815.192383 -13514.746094
vn 0.000000 1.000000 0.000000
vt 3.804785 3.325031
v -3904.788818 -815.192383 -13360.184570
vn 0.000000 1.000000 0.000000
vt 3.829483 2.552225
f 42/42/42 43/43/43 44/44/44
f 29/29/29 30/30/30 31/31/31
f 12/12/12 31/31/31 30/30/30
f 31/31/31 12/12/12 11/11/11
f 13/13/13 11/11/11 12/12/12
f 11/11/11 13/13/13 14/14/14
f 53/53/53 14/14/14 13/13/13
f 14/14/14 53/53/53 54/54/54
f 48/48/48 13/13/13 12/12/12
f 14/14/14 32/32/32 11/11/11
f 32/32/32 14/14/14 33/33/33
f 54/54/54 33/33/33 14/14/14
f 17/17/17 26/26/26 15/15/15
f 27/27/27 15/15/15 26/26/26
f 15/15/15 27/27/27 22/22/22
f 28/28/28 22/22/22 27/27/27
f 22/22/22 28/28/28 20/20/20
f 52/52/52 28/28/28 27/27/27
f 17/17/17 15/15/15 16/16/16
f 22/22/22 16/16/16 15/15/15
f 16/16/16 22/22/22 21/21/21
f 20/20/20 21/21/21 22/22/22
f 4/4/4 18/18/18 19/19/19
f 18/18/18 4/4/4 3/3/3
f 1/1/1 3/3/3 4/4/4
f 3/3/3 1/1/1 2/2/2
f 49/49/49 2/2/2 1/1/1
f 2/2/2 49/49/49 51/51/51
f 2/2/2 56/56/56 3/3/3
f 57/57/57 3/3/3 56/56/56
f 3/3/3 57/57/57 18/18/18
f 35/35/35 38/38/38 50/50/50
f 38/38/38 35/35/35 37/37/37
f 36/36/36 37/37/37 35/35/35
f 37/37/37 36/36/36 40/40/40
f 39/39/39 40/40/40 36/36/36
f 41/41/41 60/60/60 61/61/61
f 60/60/60 41/41/41 6/6/6
f 7/7/7 6/6/6 41/41/41
f 6/6/6 7/7/7 5/5/5
f 55/55/55 7/7/7 41/41/41
f 25/25/25 23/23/23 24/24/24
f 23/23/23 25/25/25 9/9/9
f 34/34/34 9/9/9 25/25/25
f 9/9/9 34/34/34 10/10/10
f 8/8/8 9/9/9 10/10/10
f 45/45/45 46/46/46 47/47/47
f 58/58/58 45/45/45 59/59/59
