mtllib OVERHILL_A_01_LINE449.mtl
g Line449
usemtl Material_#44425
v -5158.656738 -400.233429 8589.307617
vn -0.505313 0.000000 -0.862936
vt 0.901814 0.245370
v -5177.869629 -400.233429 8608.511719
vn -0.967520 0.000000 -0.252793
vt 0.821721 0.245370
v -5177.869629 -267.483429 8608.512695
vn -0.862776 0.000000 -0.505586
vt 0.821721 -0.240250
v -5158.656738 -267.483429 8589.308594
vn -0.252656 0.000000 -0.967556
vt 0.901814 -0.240250
v -5101.029785 -400.233429 8589.307617
vn 0.252763 0.000000 -0.967528
vt 1.071721 0.245370
v -5101.029785 -267.483429 8589.308594
vn 0.505525 0.000000 -0.862812
vt 1.071721 -0.240250
v -5081.825684 -400.233429 8608.516602
vn 0.862901 0.000000 -0.505373
vt 1.151806 0.245370
v -5081.825684 -267.483429 8608.517578
vn 0.967548 0.000000 -0.252687
vt 1.151806 -0.240250
v -5081.825684 -400.233429 8666.143555
vn 0.967538 0.000000 0.252725
vt 1.321711 0.245370
v -5081.825684 -267.483429 8666.143555
vn 0.862856 0.000000 0.505450
vt 1.321711 -0.240250
v -5101.034668 -400.233429 8685.352539
vn 0.504721 0.000000 0.863283
vt 1.401806 0.245370
v -5101.034668 -267.483429 8685.352539
vn 0.250891 0.000000 0.968015
vt 1.401806 -0.240250
v -5158.083496 -400.462677 8685.196289
vn -0.248941 0.000000 0.968519
vt 1.571710 0.245370
v -5158.083496 -267.712677 8685.196289
vn -0.494957 0.000000 0.868918
vt 1.571710 -0.240250
v -5177.869629 -400.233429 8666.138672
vn -0.856217 0.000000 0.516616
vt 1.651814 0.245370
v -5177.869629 -267.483429 8666.139648
vn -0.966063 0.000000 0.258308
vt 1.651814 -0.240250
v -5177.869629 -400.233429 8608.511719
vn -0.967520 0.000000 -0.252793
vt 1.821721 0.245370
v -5177.869629 -267.483429 8608.512695
vn -0.862776 0.000000 -0.505586
vt 1.821721 -0.240250
v -5158.656738 -130.919388 8589.308594
vn -0.505313 0.000000 -0.862936
vt 1.148199 -0.257066
v -5158.656738 -267.483429 8589.308594
vn -0.252656 0.000000 -0.967556
vt 1.148199 0.246795
v -5177.869629 -267.483429 8608.512695
vn -0.862776 0.000000 -0.505586
vt 1.068106 0.246795
v -5177.869629 -130.919403 8608.512695
vn -0.967520 0.000000 -0.252793
vt 1.068106 -0.257066
v -5101.029785 -130.919388 8589.308594
vn 0.252763 0.000000 -0.967528
vt 1.318106 -0.257066
v -5101.029785 -267.483429 8589.308594
vn 0.505525 0.000000 -0.862812
vt 1.318106 0.246795
v -5177.869629 -130.919403 8608.512695
vn -0.967520 0.000000 -0.252793
vt 2.068106 -0.257066
v -5177.869629 -267.483429 8608.512695
vn -0.862776 0.000000 -0.505586
vt 2.068106 0.246795
v -5177.869629 -267.483429 8666.139648
vn -0.966063 0.000000 0.258308
vt 1.898199 0.246795
v -5177.869629 -130.919403 8666.139648
vn -0.856217 0.000000 0.516616
vt 1.898199 -0.257066
v -5081.825684 -130.919403 8608.517578
vn 0.862901 0.000000 -0.505373
vt 1.398191 -0.257066
v -5081.825684 -267.483429 8608.517578
vn 0.967548 0.000000 -0.252687
vt 1.398191 0.246795
v -5081.825684 -130.919403 8666.143555
vn 0.967538 0.000000 0.252725
vt 1.568096 -0.257066
v -5081.825684 -267.483429 8666.143555
vn 0.862856 0.000000 0.505450
vt 1.568096 0.246795
v -5101.034668 -130.919418 8685.352539
vn 0.504721 0.000000 0.863283
vt 1.648191 -0.257066
v -5101.034668 -267.483429 8685.352539
vn 0.250891 0.000000 0.968015
vt 1.648191 0.246795
v -5158.083496 -131.148666 8685.196289
vn -0.248941 0.000000 0.968519
vt 1.818095 -0.257066
v -5158.083496 -267.712677 8685.196289
vn -0.494957 0.000000 0.868918
vt 1.818095 0.246795
f 2/2/2 3/3/3 1/1/1
f 4/4/4 1/1/1 3/3/3
f 1/1/1 4/4/4 5/5/5
f 6/6/6 5/5/5 4/4/4
f 5/5/5 6/6/6 7/7/7
f 8/8/8 7/7/7 6/6/6
f 7/7/7 8/8/8 9/9/9
f 10/10/10 9/9/9 8/8/8
f 9/9/9 10/10/10 11/11/11
f 12/12/12 11/11/11 10/10/10
f 11/11/11 12/12/12 13/13/13
f 14/14/14 13/13/13 12/12/12
f 13/13/13 14/14/14 15/15/15
f 16/16/16 15/15/15 14/14/14
f 15/15/15 16/16/16 17/17/17
f 18/18/18 17/17/17 16/16/16
f 27/27/27 25/25/25 26/26/26
f 25/25/25 27/27/27 28/28/28
f 36/36/36 28/28/28 27/27/27
f 28/28/28 36/36/36 35/35/35
f 34/34/34 35/35/35 36/36/36
f 35/35/35 34/34/34 33/33/33
f 32/32/32 33/33/33 34/34/34
f 33/33/33 32/32/32 31/31/31
f 30/30/30 31/31/31 32/32/32
f 31/31/31 30/30/30 29/29/29
f 24/24/24 29/29/29 30/30/30
f 29/29/29 24/24/24 23/23/23
f 20/20/20 23/23/23 24/24/24
f 23/23/23 20/20/20 19/19/19
f 21/21/21 19/19/19 20/20/20
f 19/19/19 21/21/21 22/22/22
