mtllib OVERHILL_A_01_ROCK206.mtl
g rock206
usemtl Rock_Grass_Blend
v -11156.385742 -69.005692 -10184.023438
vn -0.449155 0.781761 0.432562
vt 0.480088 0.232352
v -11133.099609 -69.503242 -10201.916992
vn 0.618897 0.740703 -0.261390
vt 0.464227 0.501036
v -11143.820313 -70.669403 -10212.111328
vn -0.271156 0.819530 -0.504822
vt 0.592640 0.490701
v -11161.038086 -70.449364 -10203.097656
vn -0.745093 0.638188 -0.193786
vt 0.632032 0.317467
v -11177.303711 -80.166893 -10162.964844
vn -0.571808 0.598869 0.560707
vt 0.467027 -0.064765
v -11167.344727 -74.351624 -10169.398438
vn -0.493909 0.627318 0.602101
vt 0.455562 0.054156
v -11179.107422 -77.778023 -10197.791992
vn -0.817455 0.572794 0.060614
vt 0.726640 0.165641
v -11193.880859 -84.225464 -10195.872070
vn -0.837861 0.521784 -0.160406
vt 0.875084 0.000959
v -11104.291016 -96.755806 -10154.470703
vn 0.587627 0.260844 0.765934
vt -0.057678 0.509084
v -11105.335938 -85.527122 -10159.871094
vn 0.750762 0.372454 0.545559
vt 0.019493 0.495962
v -11138.243164 -78.377045 -10155.854492
vn -0.004572 0.545779 0.837916
vt 0.172387 0.177467
v -11138.572266 -85.193138 -10138.492188
vn 0.083470 0.589900 0.803151
vt 0.064653 0.087511
v -11100.186523 -114.879128 -10225.728516
vn 0.832065 0.036081 -0.553504
vt 0.440958 1.063977
v -11106.878906 -98.852371 -10217.584961
vn 0.840353 0.069754 -0.537533
vt 0.429104 0.893205
v -11098.597656 -94.120880 -10189.688477
vn 0.985082 0.136738 -0.104480
vt 0.176036 0.744652
v -11093.682617 -102.598160 -10181.333984
vn 0.989034 0.012592 0.147151
vt 0.063922 0.797581
v -11177.275391 -98.832214 -10244.673828
vn -0.302847 0.359962 -0.882446
vt 1.098651 0.552044
v -11169.394531 -88.378212 -10233.229492
vn -0.521323 0.365868 -0.770949
vt 0.898665 0.503125
v -11131.857422 -96.407684 -10231.180664
vn 0.323271 0.078857 -0.943015
vt 0.694267 0.798560
v -11134.694336 -110.412506 -10249.408203
vn 0.341370 0.250317 -0.905984
vt 0.886573 0.986187
v -11114.416016 -85.391014 -10201.787109
vn 0.965002 0.242803 -0.099081
vt 0.360498 0.676351
v -11116.319336 -86.790497 -10218.041992
vn 0.788660 0.140216 -0.598628
vt 0.478230 0.763655
v -11124.267578 -71.250168 -10188.781250
vn 0.550773 0.711148 0.436942
vt 0.328084 0.489439
v -11140.876953 -72.227554 -10174.247070
vn 0.000547 0.658482 0.752597
vt 0.328133 0.291217
v -11115.447266 -78.206856 -10175.916016
vn 0.745476 0.491310 0.450422
vt 0.195099 0.494706
v -11153.935547 -76.658005 -10221.627930
vn -0.394430 0.430259 -0.811974
vt 0.714359 0.494752
v -11130.664063 -82.842781 -10223.640625
vn 0.257807 0.200210 -0.945226
vt 0.595976 0.685945
f 3/3/3 2/2/2 27/27/27
f 22/22/22 27/27/27 2/2/2
f 27/27/27 22/22/22 19/19/19
f 14/14/14 19/19/19 22/22/22
f 19/19/19 14/14/14 13/13/13
f 15/15/15 13/13/13 14/14/14
f 13/13/13 15/15/15 16/16/16
f 10/10/10 16/16/16 15/15/15
f 16/16/16 10/10/10 9/9/9
f 11/11/11 9/9/9 10/10/10
f 9/9/9 11/11/11 12/12/12
f 5/5/5 12/12/12 11/11/11
f 15/15/15 14/14/14 21/21/21
f 22/22/22 21/21/21 14/14/14
f 21/21/21 22/22/22 2/2/2
f 10/10/10 15/15/15 21/21/21
f 27/27/27 19/19/19 18/18/18
f 26/26/26 4/4/4 3/3/3
f 1/1/1 3/3/3 4/4/4
f 3/3/3 1/1/1 2/2/2
f 23/23/23 2/2/2 1/1/1
f 2/2/2 23/23/23 21/21/21
f 25/25/25 21/21/21 23/23/23
f 21/21/21 25/25/25 10/10/10
f 24/24/24 10/10/10 25/25/25
f 10/10/10 24/24/24 11/11/11
f 6/6/6 11/11/11 24/24/24
f 11/11/11 6/6/6 5/5/5
f 7/7/7 5/5/5 6/6/6
f 5/5/5 7/7/7 8/8/8
f 18/18/18 8/8/8 7/7/7
f 8/8/8 18/18/18 17/17/17
f 19/19/19 17/17/17 18/18/18
f 17/17/17 19/19/19 20/20/20
f 13/13/13 20/20/20 19/19/19
f 1/1/1 24/24/24 23/23/23
f 25/25/25 23/23/23 24/24/24
f 3/3/3 27/27/27 26/26/26
f 18/18/18 26/26/26 27/27/27
f 26/26/26 18/18/18 4/4/4
f 7/7/7 4/4/4 18/18/18
f 4/4/4 7/7/7 1/1/1
f 6/6/6 1/1/1 7/7/7
f 1/1/1 6/6/6 24/24/24
