mtllib OVERHILL_A_01_LINE28.mtl
g Line28
usemtl Ground_Grass_Blend
v -4637.834961 -788.060059 -13520.642578
vn 0.000000 1.000000 0.000000
vt 3.494711 3.354513
v -4561.315918 -788.060059 -13455.560547
vn 0.000000 1.000000 0.000000
vt 3.112118 3.029106
v -4545.602539 -788.060059 -13553.601563
vn 0.000000 1.000000 0.000000
vt 3.033550 3.519308
v -4630.133301 -788.060059 -13441.647461
vn 0.000000 1.000000 0.000000
vt 3.456203 2.959541
v -4622.431641 -788.060059 -13362.653320
vn 0.000000 1.000000 0.000000
vt 3.417696 2.564568
v -4515.457031 -788.060059 -13362.504883
vn 0.000000 1.000000 0.000000
vt 2.882822 2.563826
v -4476.953125 -788.060059 -13376.268555
vn 0.000000 1.000000 0.000000
vt 2.690302 2.632643
v -4512.439941 -788.060059 -13542.839844
vn 0.000000 1.000000 0.000000
vt 2.867737 3.465500
v -4464.103516 -788.060059 -13416.471680
vn 0.000000 1.000000 0.000000
vt 2.626055 2.833658
v -4492.499023 -788.060059 -13469.473633
vn 0.000000 1.000000 0.000000
vt 2.768032 3.098669
f 2/2/2 7/7/7 9/9/9
f 7/7/7 2/2/2 6/6/6
f 5/5/5 6/6/6 2/2/2
f 9/9/9 10/10/10 2/2/2
f 8/8/8 2/2/2 10/10/10
f 2/2/2 8/8/8 3/3/3
f 2/2/2 4/4/4 5/5/5
f 4/4/4 2/2/2 1/1/1
f 3/3/3 1/1/1 2/2/2
