mtllib OVERHILL_A_01_ROCK59.mtl
g rock59
usemtl stone_01
v -6525.437988 -200.207291 -2468.857910
vn 0.486939 0.659878 0.572234
vt 0.231043 0.471125
v -6538.616699 -189.771088 -2486.170410
vn -0.067405 0.966427 -0.247944
vt 0.525353 0.490755
v -6547.147949 -189.103088 -2478.104004
vn -0.172419 0.954678 0.242614
vt 0.515050 0.366957
v -6540.160156 -197.870804 -2465.177734
vn -0.087328 0.501415 0.860789
vt 0.341349 0.307367
v -6540.969238 -203.278854 -2502.945801
vn -0.053449 0.462532 -0.884990
vt 0.759706 0.636767
v -6553.509277 -200.942383 -2501.396729
vn -0.550013 0.495053 -0.672613
vt 0.777564 0.476440
v -6529.441406 -190.439087 -2493.496094
vn 0.336717 0.912769 -0.231247
vt 0.516792 0.628837
v -6518.355469 -202.543762 -2481.327148
vn 0.896299 0.422743 0.133930
vt 0.268675 0.676530
v -6518.544922 -231.991180 -2465.162109
vn 0.752604 0.224261 0.619108
vt -0.044979 0.509198
v -6509.980469 -231.994354 -2484.786377
vn 0.957337 0.256650 0.132803
vt 0.137920 0.900421
v -6513.147461 -231.987991 -2506.998291
vn 0.680181 0.332171 -0.653465
vt 0.514061 1.014139
v -6520.215820 -202.330276 -2501.515625
vn 0.580448 0.527211 -0.620588
vt 0.518215 0.791359
v -6555.100098 -198.109695 -2471.191406
vn -0.676068 0.544053 0.496929
vt 0.515936 0.242524
v -6561.826172 -231.987991 -2464.682617
vn -0.783343 0.229400 0.577710
vt 0.514062 -0.025088
v -6537.539063 -231.987991 -2457.535889
vn 0.124902 0.210450 0.969593
vt 0.100056 0.129624
v -6561.145020 -231.987991 -2490.121094
vn -0.956067 0.093595 -0.277805
vt 0.932245 0.164585
v -6557.292969 -198.605896 -2489.774902
vn -0.820747 0.545754 -0.168902
vt 0.705073 0.349026
v -6552.372070 -231.987991 -2506.856934
vn -0.453092 0.165007 -0.876060
vt 1.031618 0.545637
v -6533.555176 -231.987991 -2512.038818
vn -0.017261 0.297846 -0.954458
vt 0.857351 0.891871
f 15/15/15 4/4/4 14/14/14
f 4/4/4 15/15/15 1/1/1
f 9/9/9 1/1/1 15/15/15
f 1/1/1 9/9/9 8/8/8
f 10/10/10 8/8/8 9/9/9
f 8/8/8 10/10/10 11/11/11
f 8/8/8 7/7/7 1/1/1
f 7/7/7 8/8/8 12/12/12
f 11/11/11 12/12/12 8/8/8
f 12/12/12 11/11/11 5/5/5
f 2/2/2 7/7/7 5/5/5
f 12/12/12 5/5/5 7/7/7
f 7/7/7 2/2/2 1/1/1
f 3/3/3 1/1/1 2/2/2
f 1/1/1 3/3/3 4/4/4
f 13/13/13 4/4/4 3/3/3
f 4/4/4 13/13/13 14/14/14
f 17/17/17 14/14/14 13/13/13
f 14/14/14 17/17/17 16/16/16
f 6/6/6 16/16/16 17/17/17
f 16/16/16 6/6/6 18/18/18
f 5/5/5 18/18/18 6/6/6
f 18/18/18 5/5/5 19/19/19
f 11/11/11 19/19/19 5/5/5
f 5/5/5 6/6/6 2/2/2
f 17/17/17 2/2/2 6/6/6
f 2/2/2 17/17/17 3/3/3
f 13/13/13 3/3/3 17/17/17
