mtllib OVERHILL_A_01_OBJECT72.mtl
g Object72
usemtl Lvl_dwarven_plc_stone06
v -6827.973145 -1348.936890 13780.536133
vn -0.000356 -0.000484 1.000000
vt 0.447648 0.000500
v -6827.963867 -1408.936768 13780.506836
vn -0.000356 -0.000484 1.000000
vt 0.447679 0.999500
v -6727.970703 -1408.922241 13780.542969
vn -0.000179 -0.000242 1.000000
vt 0.776198 0.999500
v -6727.970703 -1348.936768 13780.542969
vn -0.000033 0.000001 1.000000
vt 0.776200 0.000500
v -6927.973145 -1348.936890 13780.535156
vn -0.000008 -0.000486 1.000000
vt 0.119141 0.000500
v -6927.963379 -1408.936890 13780.506836
vn -0.000008 -0.000486 1.000000
vt 0.119174 0.999500
v -6968.322266 -1348.936890 13780.542969
vn 0.000457 0.000001 1.000000
vt -0.013407 0.000500
v -6968.322266 -1408.936890 13780.542969
vn 0.000914 0.000000 1.000000
vt -0.013407 0.999500
f 1/1/1 3/3/3 4/4/4
f 3/3/3 1/1/1 2/2/2
f 5/5/5 2/2/2 1/1/1
f 2/2/2 5/5/5 6/6/6
f 7/7/7 6/6/6 5/5/5
f 6/6/6 7/7/7 8/8/8
