mtllib OVERHILL_A_01_LINE437.mtl
g Line437
usemtl Lvl_dwarven_plc_stone06
v -7280.344238 -56.452091 7616.017578
vn 0.000000 0.000000 -1.000000
vt 0.846094 0.000000
v -7280.344238 -130.948120 7616.017578
vn 0.000000 0.000000 -1.000000
vt 0.846094 1.000000
v -7425.167969 -130.947937 7616.017578
vn 0.000000 0.000000 -1.000000
vt 0.331902 1.000000
v -7425.167969 -56.451908 7616.017578
vn 0.000000 0.000000 -1.000000
vt 0.331902 0.000000
v -7280.344238 -56.452015 7746.156250
vn 1.000000 0.000000 0.000000
vt 1.331902 0.000000
v -7280.344238 -130.948044 7746.156250
vn 1.000000 0.000000 0.000000
vt 1.331902 1.000000
v -7280.344238 -130.948120 7616.017578
vn 1.000000 0.000000 0.000000
vt 0.846094 1.000000
v -7280.344238 -56.452091 7616.017578
vn 1.000000 0.000000 0.000000
vt 0.846094 0.000000
v -7425.167969 -56.451893 7746.156250
vn 0.000000 0.000000 1.000000
vt 1.846094 0.000000
v -7425.167969 -130.947922 7746.156250
vn 0.000000 0.000000 1.000000
vt 1.846094 1.000000
v -7280.344238 -130.948044 7746.156250
vn 0.000000 0.000000 1.000000
vt 1.331902 1.000000
v -7280.344238 -56.452015 7746.156250
vn 0.000000 0.000000 1.000000
vt 1.331902 0.000000
v -7425.167969 -56.451908 7616.017578
vn -1.000000 0.000000 0.000000
vt 2.331902 0.000000
v -7425.167969 -130.947937 7616.017578
vn -1.000000 0.000000 0.000000
vt 2.331902 1.000000
v -7425.167969 -130.947922 7746.156250
vn -1.000000 0.000000 0.000000
vt 1.846094 1.000000
v -7425.167969 -56.451893 7746.156250
vn -1.000000 0.000000 0.000000
vt 1.846094 0.000000
v -7425.167969 -130.947922 7277.072266
vn 0.000000 0.000000 -1.000000
vt 0.331902 1.000000
v -7425.167969 -56.452316 7277.072266
vn 0.000000 0.000000 -1.000000
vt 0.331902 0.000000
v -7280.344238 -56.452076 7277.072266
vn 0.000000 0.000000 -1.000000
vt 0.846094 0.000000
v -7280.344238 -130.948105 7277.072266
vn 1.000000 0.000000 0.000000
vt 0.846094 1.000000
v -7280.344238 -56.452076 7277.072266
vn 1.000000 0.000000 0.000000
vt 0.846094 0.000000
v -7280.344238 -56.452000 7407.210938
vn 1.000000 0.000000 0.000000
vt 1.331902 0.000000
v -7280.344238 -130.948029 7407.210938
vn 1.000000 0.000000 0.000000
vt 1.331902 1.000000
v -7425.167969 -130.947906 7407.210938
vn -1.000000 0.000000 0.000000
vt 1.846094 1.000000
v -7425.167969 -56.451878 7407.210938
vn -1.000000 0.000000 0.000000
vt 1.846094 0.000000
v -7425.167969 -56.452316 7277.072266
vn -1.000000 0.000000 0.000000
vt 2.331902 0.000000
v -7280.344238 -130.948105 7277.072266
vn 0.000000 0.000000 -1.000000
vt 0.846094 1.000000
v -7425.167969 -56.451878 7407.210938
vn 0.000000 0.000000 1.000000
vt 1.846094 0.000000
v -7425.167969 -130.947906 7407.210938
vn 0.000000 0.000000 1.000000
vt 1.846094 1.000000
v -7280.344238 -130.948029 7407.210938
vn 0.000000 0.000000 1.000000
vt 1.331902 1.000000
v -7425.167969 -130.947922 7277.072266
vn -1.000000 0.000000 0.000000
vt 2.331902 1.000000
v -7280.344238 -56.452000 7407.210938
vn 0.000000 0.000000 1.000000
vt 1.331902 0.000000
f 3/3/3 1/1/1 2/2/2
f 1/1/1 3/3/3 4/4/4
f 7/7/7 5/5/5 6/6/6
f 5/5/5 7/7/7 8/8/8
f 11/11/11 9/9/9 10/10/10
f 9/9/9 11/11/11 12/12/12
f 15/15/15 13/13/13 14/14/14
f 13/13/13 15/15/15 16/16/16
f 19/19/19 17/17/17 18/18/18
f 17/17/17 19/19/19 27/27/27
f 22/22/22 20/20/20 21/21/21
f 20/20/20 22/22/22 23/23/23
f 26/26/26 24/24/24 25/25/25
f 24/24/24 26/26/26 31/31/31
f 30/30/30 28/28/28 29/29/29
f 28/28/28 30/30/30 32/32/32
usemtl Lvl_dwarven_plc_rock05
v -7280.344238 -56.452015 7746.156250
vn 0.000001 1.000000 0.000000
vt -0.064884 0.495363
v -7280.344238 -56.452091 7616.017578
vn 0.000001 1.000000 -0.000001
vt -0.064884 -0.078775
v -7425.167969 -56.451908 7616.017578
vn 0.000001 1.000000 0.000000
vt 0.509254 -0.078775
v -7425.167969 -56.451893 7746.156250
vn 0.000001 1.000000 0.000000
vt 0.509254 0.495364
v -7280.344238 -130.948044 7746.156250
vn -0.000001 -1.000000 0.000000
vt -0.064884 0.495363
v -7425.167969 -130.947922 7746.156250
vn -0.000001 -1.000000 0.000000
vt 0.509254 0.495364
v -7425.167969 -130.947937 7616.017578
vn -0.000001 -1.000000 0.000000
vt 0.509254 -0.078775
v -7280.344238 -130.948120 7616.017578
vn -0.000001 -1.000000 0.000001
vt -0.064884 -0.078775
v -7280.344238 -130.948029 7407.210938
vn -0.000001 -1.000000 0.000000
vt -0.064884 0.495363
v -7425.167969 -130.947906 7407.210938
vn -0.000001 -1.000000 0.000000
vt 0.509254 0.495364
v -7425.167969 -130.947922 7277.072266
vn -0.000001 -1.000000 0.000000
vt 0.509254 -0.078775
v -7280.344238 -130.948105 7277.072266
vn -0.000001 -1.000000 0.000001
vt -0.064884 -0.078775
v -7425.167969 -56.452316 7277.072266
vn 0.000000 1.000000 -0.000002
vt 0.509254 -0.078775
v -7425.167969 -56.451878 7407.210938
vn 0.000001 1.000000 -0.000003
vt 0.509254 0.495364
v -7280.344238 -56.452000 7407.210938
vn 0.000000 1.000000 -0.000002
vt -0.064884 0.495363
v -7280.344238 -56.452076 7277.072266
vn -0.000002 1.000000 -0.000001
vt -0.064884 -0.078775
f 35/35/35 33/33/33 34/34/34
f 33/33/33 35/35/35 36/36/36
f 39/39/39 37/37/37 38/38/38
f 37/37/37 39/39/39 40/40/40
f 43/43/43 41/41/41 42/42/42
f 41/41/41 43/43/43 44/44/44
f 47/47/47 45/45/45 46/46/46
f 45/45/45 47/47/47 48/48/48
