mtllib OVERHILL_A_01_BR_ROCK199.mtl
g br_rock199
usemtl Rock_Grass_Blend
v -12346.699219 533.050659 -10057.101563
vn -0.876907 0.391050 -0.279489
vt 0.225680 -0.481409
v -12315.178711 586.569336 -10036.083008
vn 0.185173 0.905016 0.382958
vt 0.233170 -0.689835
v -12306.744141 591.762634 -10059.886719
vn -0.154035 0.870711 -0.467050
vt 0.413272 -0.705406
v -12324.968750 548.944824 -10079.083984
vn -0.497172 0.393210 -0.773438
vt 0.443374 -0.527497
v -12293.213867 533.339966 -10013.261719
vn 0.568617 0.230625 0.789612
vt 0.110111 -0.387384
v -12273.657227 548.644592 -10028.965820
vn 0.762773 0.390264 0.515627
vt 0.281116 -0.433130
v -12325.277344 580.947632 -10012.921875
vn -0.498382 0.672976 0.546552
vt 0.051746 -0.675004
v -12379.463867 287.191376 -10043.156250
vn -0.970104 -0.060169 0.235113
vt -0.027360 0.617857
v -12370.800781 389.267212 -10032.555664
vn -0.951794 0.085562 0.294562
vt 0.023715 0.092254
v -12369.610352 398.533630 -10081.322266
vn -0.949973 0.162913 -0.266477
vt 0.199372 0.068128
v -12379.673828 287.191406 -10100.128906
vn -0.945918 0.036833 -0.322308
vt 0.173064 0.617666
v -12352.195313 287.191376 -9995.501953
vn -0.503437 -0.161437 0.848816
vt -0.274872 0.625202
v -12344.813477 400.582001 -9985.185547
vn -0.342331 0.024676 0.939255
vt -0.205736 0.103649
v -12337.826172 415.672607 -10118.297852
vn -0.559616 0.236228 -0.794371
vt 0.461735 0.039061
v -12286.980469 428.210266 -10130.881836
vn 0.418907 0.257642 -0.870711
vt 0.722152 0.054191
v -12285.628906 287.191406 -10161.255859
vn 0.277392 0.096848 -0.955863
vt 0.787195 0.620776
v -12345.643555 287.191406 -10143.904297
vn -0.582110 0.106723 -0.806076
vt 0.480096 0.605620
v -12263.608398 432.630646 -10079.590820
vn 0.971170 0.093164 -0.219431
vt 0.456681 0.073580
v -12263.322266 425.862000 -10037.319336
vn 0.920399 0.021032 0.390415
vt 0.249196 0.104686
v -12266.351563 287.191406 -10050.542969
vn 0.912252 -0.135152 0.386692
vt 0.217275 0.642502
v -12262.995117 287.191406 -10101.480469
vn 0.980137 -0.060320 -0.188925
vt 0.479228 0.636106
v -12302.681641 287.191376 -10012.313477
vn 0.517408 -0.213951 0.828561
vt -0.065313 0.637345
v -12294.869141 410.902496 -10007.316406
vn 0.577336 -0.025006 0.816124
vt 0.022399 0.124981
v -12294.596680 555.792419 -10084.633789
vn 0.476680 0.430021 -0.766719
vt 0.657109 -0.512394
v -12276.736328 558.124817 -10053.394531
vn 0.898089 0.432051 -0.082272
vt 0.434133 -0.488947
v -12330.477539 527.734619 -9992.710938
vn -0.124527 0.193701 0.973125
vt -0.136599 -0.417904
v -12348.680664 522.238342 -10027.507813
vn -0.949916 0.203376 0.237270
vt 0.074790 -0.433348
v -12346.872070 234.798355 -10014.544922
vn -0.308866 -0.299217 0.902813
vt -0.165288 0.997204
v -12375.369141 234.798355 -10048.887695
vn -0.942969 -0.108133 0.314828
vt 0.030399 0.989757
v -12372.541992 234.798370 -10110.340820
vn -0.940930 -0.048651 -0.335088
vt 0.191457 0.983577
v -12276.731445 234.798355 -10068.509766
vn 0.887835 -0.263536 0.377224
vt 0.225495 1.010620
v -12309.839844 234.798355 -10026.392578
vn 0.547419 -0.286124 0.786426
vt -0.021553 1.005892
v -12291.984375 234.798370 -10159.240234
vn 0.462415 -0.010249 -0.886604
vt 0.694220 0.993698
v -12270.617188 234.798370 -10112.865234
vn 0.982764 -0.110822 -0.147967
vt 0.456353 1.006283
v -12339.998047 234.798370 -10152.175781
vn -0.503700 0.081504 -0.860025
vt 0.478065 0.980973
f 33/33/33 35/35/35 17/17/17
f 17/17/17 11/11/11 10/10/10
f 17/17/17 16/16/16 33/33/33
f 16/16/16 17/17/17 14/14/14
f 10/10/10 14/14/14 17/17/17
f 14/14/14 10/10/10 1/1/1
f 27/27/27 1/1/1 10/10/10
f 1/1/1 27/27/27 7/7/7
f 26/26/26 7/7/7 27/27/27
f 7/7/7 26/26/26 5/5/5
f 2/2/2 5/5/5 6/6/6
f 5/5/5 2/2/2 7/7/7
f 1/1/1 7/7/7 2/2/2
f 30/30/30 17/17/17 35/35/35
f 17/17/17 30/30/30 11/11/11
f 8/8/8 11/11/11 30/30/30
f 11/11/11 8/8/8 10/10/10
f 9/9/9 10/10/10 8/8/8
f 10/10/10 9/9/9 27/27/27
f 13/13/13 27/27/27 9/9/9
f 27/27/27 13/13/13 26/26/26
f 23/23/23 26/26/26 13/13/13
f 26/26/26 23/23/23 5/5/5
f 19/19/19 5/5/5 23/23/23
f 5/5/5 19/19/19 6/6/6
f 25/25/25 6/6/6 19/19/19
f 6/6/6 25/25/25 2/2/2
f 3/3/3 2/2/2 25/25/25
f 2/2/2 3/3/3 1/1/1
f 4/4/4 1/1/1 3/3/3
f 1/1/1 4/4/4 14/14/14
f 4/4/4 3/3/3 24/24/24
f 25/25/25 24/24/24 3/3/3
f 24/24/24 25/25/25 18/18/18
f 19/19/19 18/18/18 25/25/25
f 18/18/18 19/19/19 20/20/20
f 23/23/23 20/20/20 19/19/19
f 20/20/20 23/23/23 22/22/22
f 13/13/13 22/22/22 23/23/23
f 22/22/22 13/13/13 12/12/12
f 9/9/9 12/12/12 13/13/13
f 12/12/12 9/9/9 8/8/8
f 22/22/22 12/12/12 28/28/28
f 8/8/8 28/28/28 12/12/12
f 28/28/28 8/8/8 29/29/29
f 30/30/30 29/29/29 8/8/8
f 4/4/4 24/24/24 15/15/15
f 18/18/18 15/15/15 24/24/24
f 15/15/15 18/18/18 21/21/21
f 20/20/20 21/21/21 18/18/18
f 21/21/21 20/20/20 31/31/31
f 22/22/22 31/31/31 20/20/20
f 31/31/31 22/22/22 32/32/32
f 28/28/28 32/32/32 22/22/22
f 31/31/31 34/34/34 21/21/21
f 15/15/15 14/14/14 4/4/4
f 14/14/14 15/15/15 16/16/16
f 21/21/21 16/16/16 15/15/15
f 16/16/16 21/21/21 33/33/33
f 34/34/34 33/33/33 21/21/21
