mtllib OVERHILL_A_01_OBJECT225.mtl
g Object225
usemtl Dwarf_Stone_Step
v -10790.018555 -775.917664 13938.315430
vn 0.000000 1.000000 0.000000
vt 0.297806 0.684952
v -10835.537109 -775.917664 13938.315430
vn 0.083534 0.996505 0.000000
vt 0.297806 0.333179
v -10835.537109 -775.917664 14045.491211
vn 0.111602 0.993753 0.000000
vt 0.556049 0.333178
v -10790.018555 -775.917664 14044.010742
vn 0.000000 1.000000 0.000000
vt 0.556049 0.684952
v -10790.018555 -813.797119 13938.315430
vn 1.000000 0.000000 -0.000002
vt 0.297806 1.000000
v -10790.018555 -775.917664 13938.315430
vn 1.000000 0.000000 -0.000002
vt 0.297806 0.684952
v -10790.018555 -775.917664 14044.010742
vn 1.000000 0.000000 -0.000001
vt 0.556049 0.684952
v -10790.018555 -813.797119 14044.010742
vn 1.000000 0.000000 0.000000
vt 0.556049 1.000000
v -10750.018555 -813.797058 13938.315430
vn -0.000002 1.000000 0.000000
vt 0.933712 0.669310
v -10790.018555 -813.797119 13938.315430
vn -0.000002 1.000000 0.000000
vt 0.933712 0.342177
v -10790.018555 -813.797119 14044.010742
vn -0.000002 1.000000 0.000000
vt 0.664909 0.342177
v -10750.018555 -813.797058 14044.010742
vn -0.000001 1.000000 0.000000
vt 0.664909 0.669310
v -10750.018555 -851.097473 13938.315430
vn 0.999999 0.000000 -0.001310
vt 0.933712 1.000000
v -10750.018555 -813.797058 13938.315430
vn 1.000000 0.000000 -0.000002
vt 0.933712 0.669310
v -10750.018555 -813.797058 14044.010742
vn 1.000000 0.000000 -0.000001
vt 0.664909 0.669310
v -10750.018555 -851.097778 14044.010742
vn 1.000000 0.000000 0.000000
vt 0.664909 1.000000
v -10835.537109 -775.917664 14177.764648
vn 0.564870 0.825180 0.000000
vt 0.922585 0.333178
v -10790.018555 -775.917664 14177.764648
vn 0.000000 1.000000 0.000000
vt 0.922585 0.684952
v -10790.018555 -775.917664 14177.764648
vn 1.000000 0.000000 0.000001
vt 0.922585 0.684952
v -10790.018555 -813.797119 14177.764648
vn 1.000000 0.000000 0.000001
vt 0.922585 1.000000
v -10790.018555 -813.797119 14177.764648
vn -0.000001 1.000000 0.000000
vt 0.297508 0.342177
v -10750.018555 -813.797119 14177.765625
vn -0.000001 1.000000 0.000000
vt 0.297508 0.669310
v -10750.018555 -813.797119 14177.765625
vn 1.000000 0.000000 0.000001
vt 0.297508 0.669310
v -10750.018555 -851.097778 14177.765625
vn 1.000000 0.000000 0.000001
vt 0.297508 1.000000
f 3/3/3 1/1/1 2/2/2
f 1/1/1 3/3/3 4/4/4
f 17/17/17 4/4/4 3/3/3
f 4/4/4 17/17/17 18/18/18
f 7/7/7 5/5/5 6/6/6
f 5/5/5 7/7/7 8/8/8
f 19/19/19 8/8/8 7/7/7
f 8/8/8 19/19/19 20/20/20
f 11/11/11 9/9/9 10/10/10
f 9/9/9 11/11/11 12/12/12
f 21/21/21 12/12/12 11/11/11
f 12/12/12 21/21/21 22/22/22
f 15/15/15 13/13/13 14/14/14
f 13/13/13 15/15/15 16/16/16
f 23/23/23 16/16/16 15/15/15
f 16/16/16 23/23/23 24/24/24
