mtllib OVERHILL_A_01_OBJECT315.mtl
g Object315
usemtl Lvl_dwarven_plc_stone03
v -5072.713379 -444.652405 8354.591797
vn -0.989167 0.146796 0.000000
vt 1.807286 0.000500
v -5072.712891 -444.652405 8698.127930
vn -0.989167 0.146796 0.000000
vt 0.869624 0.000500
v -5059.232422 -400.233368 8711.608398
vn -0.989167 0.146795 0.000000
vt 0.869499 -1.000000
v -5059.232422 -400.233368 8354.591797
vn -0.995212 0.097743 0.000000
vt 1.807287 -1.000000
v -5059.232422 -400.233337 8158.169922
vn -0.989167 0.146794 -0.000001
vt 2.267345 -1.000000
v -5072.713379 -444.652405 8158.169922
vn -0.989167 0.146796 -0.000001
vt 2.267282 0.000500
v -5072.712891 -444.652374 7225.373047
vn -0.989166 0.146798 -0.000002
vt 3.409290 0.000500
v -5072.713379 -444.652374 7568.910156
vn -0.989167 0.146796 -0.000001
vt 2.611926 0.000500
v -5059.232422 -400.233307 7568.910156
vn -0.989167 0.146796 -0.000001
vt 2.612176 -1.000000
v -5072.713379 -444.652374 7568.910156
vn -0.989167 0.146796 -0.000001
vt 3.611926 0.000500
v -5072.713379 -444.652374 7765.331055
vn -0.989167 0.146796 0.000001
vt 3.010022 0.000500
v -5059.232422 -400.233337 7765.330566
vn -0.995212 0.097743 0.000000
vt 3.010147 -1.000000
v -5059.232422 -400.233307 7568.910156
vn -0.989167 0.146796 -0.000001
vt 3.612176 -1.000000
v -5059.231445 -400.233307 7211.892090
vn -0.989166 0.146800 -0.000002
vt 3.409791 -1.000000
f 9/9/9 7/7/7 8/8/8
f 7/7/7 9/9/9 14/14/14
f 2/2/2 3/3/3 1/1/1
f 4/4/4 1/1/1 3/3/3
f 1/1/1 4/4/4 6/6/6
f 5/5/5 6/6/6 4/4/4
f 12/12/12 10/10/10 11/11/11
f 10/10/10 12/12/12 13/13/13
usemtl Lvl_dwarven_plc_stone06
v -5072.713379 -523.842346 8158.169922
vn -1.000000 0.000001 0.000000
vt 2.267282 0.999500
v -5072.713379 -523.842346 8354.591797
vn -1.000000 0.000001 0.000000
vt 1.807286 0.999500
v -5072.713379 -444.652405 8354.591797
vn -0.989167 0.146796 0.000000
vt 1.807286 0.000500
v -5072.713379 -523.842285 7568.910156
vn -1.000000 0.000001 0.000000
vt 3.611926 0.999500
v -5072.713379 -444.652374 7568.910156
vn -0.989167 0.146796 -0.000001
vt 3.611926 0.000500
v -5072.713379 -523.842346 7454.409668
vn -1.000000 0.000001 -0.000001
vt 3.877687 0.999500
v -5072.712891 -523.842346 8698.127930
vn -1.000000 0.000001 0.000000
vt 0.869624 0.999500
v -5072.712891 -444.652405 8698.127930
vn -0.989167 0.146796 0.000000
vt 0.869624 0.000500
v -5072.713379 -523.842346 7765.331055
vn -1.000000 0.000001 0.000000
vt 3.010022 0.999500
v -5072.713379 -444.652374 7765.331055
vn -0.989167 0.146796 0.000001
vt 3.010022 0.000500
v -5072.713379 -444.652405 8158.169922
vn -0.989167 0.146796 -0.000001
vt 2.267282 0.000500
v -5072.712891 -444.652374 7225.373047
vn -0.989166 0.146798 -0.000002
vt 3.409290 0.000500
v -5072.712891 -523.842346 7339.891602
vn -1.000000 0.000001 -0.000001
vt 3.143488 0.999500
v -5072.713379 -523.842346 7454.409668
vn -1.000000 0.000001 -0.000001
vt 2.877687 0.999500
v -5072.713379 -444.652374 7568.910156
vn -0.989167 0.146796 -0.000001
vt 2.611926 0.000500
v -5072.712891 -523.842346 7225.373047
vn -1.000000 0.000001 -0.000001
vt 3.409290 0.999500
f 23/23/23 24/24/24 18/18/18
f 19/19/19 18/18/18 24/24/24
f 18/18/18 19/19/19 20/20/20
f 21/21/21 22/22/22 16/16/16
f 17/17/17 16/16/16 22/22/22
f 16/16/16 17/17/17 15/15/15
f 25/25/25 15/15/15 17/17/17
f 30/30/30 27/27/27 26/26/26
f 28/28/28 26/26/26 27/27/27
f 26/26/26 28/28/28 29/29/29
