mtllib OVERHILL_A_01_BOX88.mtl
g Box88
usemtl goblin_beam
v -940.206116 -2227.109863 18919.466797
vn 0.000000 1.000000 0.000000
vt 0.497786 -0.426215
v -887.992065 -2227.109863 18842.056641
vn 0.000000 1.000000 0.000000
vt 0.497785 0.999500
v -892.137268 -2227.109863 18839.259766
vn 0.000000 1.000000 0.000000
vt 0.786197 0.999500
v -944.351257 -2227.109863 18916.671875
vn 0.000000 1.000000 0.000000
vt 0.786197 -0.426215
v -944.351257 -2227.109863 18916.671875
vn -0.829038 0.000000 -0.559193
vt 1.003948 0.999500
v -892.137268 -2227.109863 18839.259766
vn -0.829038 0.000000 -0.559193
vt 1.003948 -0.426215
v -892.137268 -2242.109863 18839.259766
vn -0.829038 0.000000 -0.559193
vt 0.280034 -0.426216
v -944.351257 -2242.109863 18916.671875
vn -0.829038 0.000000 -0.559193
vt 0.280034 0.999500
v -940.206116 -2227.109863 18919.466797
vn -0.559193 0.000000 0.829038
vt 1.000000 0.250242
v -944.351257 -2227.109863 18916.671875
vn -0.559193 0.000000 0.829038
vt 0.000000 0.250242
v -944.351257 -2242.109863 18916.671875
vn -0.559193 0.000000 0.829038
vt 0.000000 0.517391
v -940.206116 -2242.109863 18919.466797
vn -0.559193 0.000000 0.829038
vt 1.000000 0.517391
v -887.992065 -2227.109863 18842.056641
vn 0.829038 0.000000 0.559193
vt 1.003948 -0.426215
v -940.206116 -2227.109863 18919.466797
vn 0.829038 0.000000 0.559193
vt 1.003948 0.999501
v -940.206116 -2242.109863 18919.466797
vn 0.829038 0.000000 0.559193
vt 0.280034 0.999500
v -887.992065 -2242.109863 18842.056641
vn 0.829038 0.000000 0.559193
vt 0.280034 -0.426215
v -892.137268 -2227.109863 18839.259766
vn 0.559193 0.000000 -0.829038
vt 1.000000 0.250242
v -887.992065 -2227.109863 18842.056641
vn 0.559193 0.000000 -0.829038
vt 0.000000 0.250242
v -887.992065 -2242.109863 18842.056641
vn 0.559193 0.000000 -0.829038
vt 0.000000 0.517391
v -892.137268 -2242.109863 18839.259766
vn 0.559193 0.000000 -0.829038
vt 1.000000 0.517391
f 3/3/3 1/1/1 2/2/2
f 1/1/1 3/3/3 4/4/4
f 7/7/7 5/5/5 6/6/6
f 5/5/5 7/7/7 8/8/8
f 11/11/11 9/9/9 10/10/10
f 9/9/9 11/11/11 12/12/12
f 15/15/15 13/13/13 14/14/14
f 13/13/13 15/15/15 16/16/16
f 19/19/19 17/17/17 18/18/18
f 17/17/17 19/19/19 20/20/20
