mtllib OVERHILL_A_01_LINE102.mtl
g Line102
usemtl Ground_Grass_Blend
v -7119.843262 72.224136 -3174.869873
vn 0.000008 1.000000 -0.000008
vt 2.755474 3.082794
v -7070.006348 72.224380 -3144.084229
vn 0.000002 1.000000 -0.000006
vt 3.040516 3.015438
v -7020.169922 72.224136 -3166.102783
vn 0.000003 1.000000 -0.000005
vt 3.138866 2.761393
v -7119.843262 72.224136 -3174.869873
vn 0.000008 1.000000 -0.000008
vt 3.755474 3.082794
v -7153.290039 72.224625 -3210.349365
vn 0.000017 1.000000 -0.000003
vt 3.511780 3.075607
v -7132.953613 72.224380 -3168.886963
vn 0.000016 1.000000 -0.000007
vt 3.730274 3.150299
v -7119.843262 72.224380 -3148.467773
vn 0.000008 1.000000 -0.000009
vt 3.848820 3.176140
v -7119.843262 72.224625 -3122.065674
vn 0.000009 1.000000 -0.000007
vt 2.942165 3.269485
v -7020.169922 72.224136 -3113.298584
vn 0.000005 1.000000 0.000000
vt 3.325558 2.948083
v -7119.843262 72.224380 -3148.467773
vn 0.000008 1.000000 -0.000009
vt 2.848820 3.176140
v -7146.063477 72.224625 -3162.904053
vn 0.000016 1.000000 -0.000006
vt 3.705074 3.217802
v -7119.843262 72.224625 -3122.065674
vn 0.000009 1.000000 -0.000007
vt 3.942165 3.269485
f 2/2/2 1/1/1 10/10/10
f 1/1/1 2/2/2 3/3/3
f 9/9/9 3/3/3 2/2/2
f 2/2/2 8/8/8 9/9/9
f 8/8/8 2/2/2 10/10/10
f 6/6/6 5/5/5 11/11/11
f 5/5/5 6/6/6 4/4/4
f 7/7/7 4/4/4 6/6/6
f 12/12/12 6/6/6 11/11/11
f 6/6/6 12/12/12 7/7/7
