mtllib OVERHILL_A_01_POST05.mtl
g post05
usemtl ground_peg
v -7605.869141 -762.787842 -14508.269531
vn -0.183013 0.965926 -0.183013
vt 1.000000 1.000000
v -7595.159668 -758.729553 -14497.559570
vn -0.183013 0.965926 -0.183013
vt 1.000000 0.000000
v -7584.072266 -758.729553 -14508.647461
vn -0.183013 0.965926 -0.183013
vt 0.833377 0.000000
v -7594.781738 -762.787842 -14519.356445
vn -0.183013 0.965926 -0.183013
vt 0.830878 1.000000
v -7594.781738 -762.787842 -14519.356445
vn 0.715144 -0.046750 -0.697412
vt 0.828069 1.000000
v -7584.072266 -758.729553 -14508.647461
vn 0.715137 -0.046757 -0.697419
vt 0.830567 0.000000
v -7579.039551 -801.310242 -14500.631836
vn 0.715144 -0.046750 -0.697412
vt 0.000000 0.000000
v -7586.867188 -804.282349 -14508.459961
vn 0.715152 -0.046743 -0.697404
vt 0.000000 1.000000
v -7605.869141 -762.787842 -14508.269531
vn -0.673355 -0.305267 -0.673354
vt 0.828069 0.000000
v -7594.781738 -762.787842 -14519.356445
vn -0.673355 -0.305267 -0.673354
vt 0.830567 1.000000
v -7586.867188 -804.282349 -14508.459961
vn -0.673355 -0.305267 -0.673354
vt 0.000000 1.000000
v -7594.972168 -804.282349 -14500.354492
vn -0.673355 -0.305267 -0.673354
vt 0.000000 0.000000
v -7584.072266 -758.729553 -14508.647461
vn 0.691079 0.211761 0.691062
vt 0.828069 0.000000
v -7595.159668 -758.729553 -14497.559570
vn 0.691070 0.211765 0.691070
vt 0.830567 1.000000
v -7587.143555 -801.315735 -14492.526367
vn 0.691079 0.211761 0.691062
vt 0.000000 1.000000
v -7579.039551 -801.310242 -14500.631836
vn 0.691088 0.211757 0.691054
vt 0.000000 0.000000
v -7595.159668 -758.729553 -14497.559570
vn -0.697420 -0.046751 0.715136
vt 0.828069 1.000000
v -7605.869141 -762.787842 -14508.269531
vn -0.697420 -0.046751 0.715136
vt 0.830567 0.000000
v -7594.972168 -804.282349 -14500.354492
vn -0.697420 -0.046751 0.715136
vt 0.000000 0.000000
v -7587.143555 -801.315735 -14492.526367
vn -0.697420 -0.046751 0.715136
vt 0.000000 1.000000
f 3/3/3 1/1/1 2/2/2
f 1/1/1 3/3/3 4/4/4
f 7/7/7 5/5/5 6/6/6
f 5/5/5 7/7/7 8/8/8
f 11/11/11 9/9/9 10/10/10
f 9/9/9 11/11/11 12/12/12
f 15/15/15 13/13/13 14/14/14
f 13/13/13 15/15/15 16/16/16
f 19/19/19 17/17/17 18/18/18
f 17/17/17 19/19/19 20/20/20
