mtllib OVERHILL_A_01_OH_RUIN_CEILING38374.mtl
g in_Ceiling38374
usemtl Stone_Moss_Blend
v -12307.439453 -389.702637 11950.109375
vn 0.000000 -1.000000 0.000000
vt 2.241654 0.495933
v -12144.324219 -389.702637 11950.109375
vn 0.000000 -1.000000 0.000000
vt 1.744358 0.495933
v -12144.324219 -389.702637 12113.225586
vn 0.000000 -1.000000 0.000000
vt 1.744358 -0.008134
v -12307.439453 -389.702637 12113.225586
vn 0.000000 -1.000000 0.000000
vt 2.241654 -0.008134
v -12307.439453 -389.702667 11786.995117
vn 0.000000 -1.000000 0.000000
vt 2.241655 1.000000
v -12144.324219 -389.702667 11786.995117
vn 0.000000 -1.000000 0.000000
vt 1.744358 1.000000
v -11981.208984 -389.702667 11786.995117
vn 0.000000 -1.000000 0.000000
vt 1.247061 1.000000
v -11981.208984 -389.702637 11950.109375
vn 0.000000 -1.000000 0.000000
vt 1.247061 0.495933
v -11981.208984 -389.702637 12113.225586
vn 0.000000 -1.000000 0.000000
vt 1.247061 -0.008134
f 1/1/1 3/3/3 4/4/4
f 3/3/3 1/1/1 2/2/2
f 5/5/5 2/2/2 1/1/1
f 2/2/2 5/5/5 6/6/6
f 9/9/9 3/3/3 8/8/8
f 2/2/2 8/8/8 3/3/3
f 8/8/8 2/2/2 7/7/7
f 6/6/6 7/7/7 2/2/2
