mtllib OVERHILL_A_01_LINE325.mtl
g Line325
usemtl Wall_Grass_Blend
v -8919.743164 -916.757019 -6932.165039
vn 0.567277 -0.774112 0.280977
vt -1.228058 0.000000
v -8810.645508 -840.989868 -6938.324219
vn 0.773559 -0.632663 -0.036660
vt -0.703840 0.393502
v -8869.734375 -816.988464 -6863.407715
vn 0.462371 -0.337485 0.819949
vt -0.620993 -0.609446
v -8956.083008 -901.796814 -6881.481445
vn 0.342107 -0.515718 0.785492
vt -1.019467 -0.210634
v -8951.570313 -908.004578 -6988.568359
vn 0.368781 -0.676889 -0.637041
vt -0.507733 1.465478
v -8860.682617 -826.947937 -7020.467285
vn 0.424009 -0.357452 -0.832132
vt -0.506031 1.497036
v -9013.506836 -886.631958 -6997.765625
vn -0.117990 -0.294808 -0.948244
vt -0.507733 1.465478
v -8959.765625 -792.658630 -7032.896484
vn -0.143275 -0.067014 -0.987411
vt 0.000116 1.688403
v -9069.098633 -866.314941 -6979.741699
vn -0.299473 -0.167383 -0.939308
vt -0.507733 1.465478
v -9049.143555 -760.063049 -7005.529785
vn -0.240030 -0.016645 -0.970623
vt 0.424861 1.565802
v -9139.939453 -840.825134 -6966.059082
vn -0.747027 -0.170484 -0.642562
vt -0.507733 1.465478
v -9147.698242 -724.586121 -6986.132813
vn -0.581531 0.060581 -0.811266
vt 0.960341 1.481961
v -9161.726563 -831.122009 -6918.661621
vn -0.981295 -0.175807 0.078437
vt -0.507733 1.465478
v -9183.412109 -709.018982 -6916.281250
vn -0.996394 0.038418 0.075650
vt 1.439082 0.504461
v -9129.646484 -840.317688 -6870.469727
vn -0.654417 -0.180312 0.734320
vt -1.032508 0.569541
v -9132.830078 -723.772034 -6846.180664
vn -0.482299 0.072249 0.873022
vt 1.320497 -0.704344
v -9033.642578 -873.619995 -6860.247070
vn -0.022678 -0.270712 0.962393
vt -1.032508 0.569541
v -8994.365234 -771.782959 -6830.961426
vn 0.058616 -0.028998 0.997859
vt 0.264726 -0.871160
v -8956.083008 -901.796814 -6881.481445
vn 0.342107 -0.515718 0.785492
vt -1.019467 -0.210634
v -8869.734375 -816.988464 -6863.407715
vn 0.462371 -0.337485 0.819949
vt -0.620993 -0.609446
v -8707.675781 -328.116913 -6961.019043
vn 0.991227 0.118994 0.057526
vt -0.269243 0.471420
v -8745.704102 -312.914429 -6918.470703
vn 0.551188 0.178124 0.815147
vt -0.074388 0.233615
v -8749.575195 -366.514404 -6909.325684
vn 0.526458 0.034667 0.849494
vt -0.145129 0.165036
v -8705.040039 -384.318237 -6959.155273
vn 0.989618 -0.127625 0.066098
vt -0.426561 0.448102
v -8741.236328 -373.902161 -7012.594238
vn 0.514368 -0.013533 -0.857463
vt -0.247925 0.826295
v -8738.583008 -319.222748 -7006.650391
vn 0.534064 0.152159 -0.831639
vt -0.142278 0.754926
v -8745.704102 -312.914429 -6918.470703
vn 0.551188 0.178124 0.815147
vt -0.074388 0.233615
v -8824.797852 -284.281189 -6899.161621
vn 0.156695 0.275266 0.948512
vt 0.269771 0.164030
v -8842.204102 -332.981659 -6886.712891
vn 0.119531 0.165330 0.978968
vt 0.267396 0.051455
v -8749.575195 -366.514404 -6909.325684
vn 0.526458 0.034667 0.849494
vt -0.145129 0.165036
v -8814.478516 -348.466919 -7019.727051
vn -0.017007 0.099858 -0.994856
vt 0.077003 0.978692
v -8801.124023 -297.503876 -7012.740723
vn -0.020329 0.196080 -0.980377
vt 0.105979 0.866676
v -8880.948242 -324.288025 -7000.817871
vn -0.194419 0.139542 -0.970942
vt 0.423156 0.945973
v -8857.881836 -276.857788 -6996.594727
vn -0.151701 0.227651 -0.961853
vt 0.367274 0.824517
v -8908.733398 -258.538788 -6986.266113
vn -0.404053 0.428941 -0.807930
vt 0.585103 0.761710
v -8940.500977 -302.834412 -6988.722168
vn -0.471891 0.310780 -0.825067
vt 0.686909 0.879002
v -8931.937500 -248.678513 -6946.766602
vn -0.718075 0.694797 0.040328
vt 0.706244 0.546979
v -8967.675781 -291.286926 -6942.463867
vn -0.847106 0.528523 0.055444
vt 0.856077 0.536965
v -8930.950195 -302.230499 -6896.940918
vn -0.355073 0.367394 0.859619
vt 0.717691 0.175418
v -8900.578125 -258.023132 -6907.895020
vn -0.280989 0.500297 0.818992
vt 0.620514 0.276269
v -8723.493164 -267.275146 -6962.711914
vn 0.892401 0.450144 0.031488
vt -0.098076 0.498223
v -8750.708984 -256.395020 -6932.260742
vn 0.527430 0.491546 0.692965
vt 0.026289 0.361226
v -8750.708984 -256.395020 -6932.260742
vn 0.527430 0.491546 0.692965
vt 0.026289 0.361226
v -8807.315430 -235.902817 -6918.441406
vn 0.295064 0.658156 0.692653
vt 0.260525 0.326515
v -8745.613281 -260.909790 -6995.369141
vn 0.477380 0.460721 -0.748228
vt -0.025317 0.676980
v -8790.372070 -245.366028 -6999.728027
vn 0.086834 0.579795 -0.810122
vt 0.131272 0.735212
v -8830.992188 -230.590012 -6988.172363
vn 0.020341 0.595907 -0.802796
vt 0.321253 0.693589
v -8867.385742 -217.479492 -6980.780762
vn -0.129543 0.672908 -0.728295
vt 0.471113 0.678817
v -8883.992188 -210.422684 -6952.511719
vn -0.401808 0.915593 0.015478
vt 0.551775 0.546263
v -8861.548828 -217.110443 -6924.691895
vn -0.035665 0.720781 0.692245
vt 0.475331 0.391753
v -8763.629883 -231.218903 -6966.842773
vn 0.485963 0.873023 -0.040882
vt 0.089322 0.544002
v -8812.243164 -213.584793 -6954.155762
vn 0.200093 0.974657 -0.100030
vt 0.290889 0.510052
f 17/17/17 19/19/19 20/20/20
f 39/39/39 40/40/40 37/37/37
f 49/49/49 37/37/37 40/40/40
f 37/37/37 49/49/49 35/35/35
f 48/48/48 35/35/35 49/49/49
f 35/35/35 48/48/48 34/34/34
f 47/47/47 34/34/34 48/48/48
f 34/34/34 47/47/47 46/46/46
f 52/52/52 46/46/46 47/47/47
f 46/46/46 52/52/52 51/51/51
f 44/44/44 51/51/51 52/52/52
f 51/51/51 44/44/44 43/43/43
f 28/28/28 43/43/43 44/44/44
f 43/43/43 28/28/28 27/27/27
f 29/29/29 27/27/27 28/28/28
f 27/27/27 29/29/29 30/30/30
f 18/18/18 30/30/30 29/29/29
f 30/30/30 18/18/18 20/20/20
f 17/17/17 20/20/20 18/18/18
f 47/47/47 48/48/48 52/52/52
f 49/49/49 52/52/52 48/48/48
f 52/52/52 49/49/49 50/50/50
f 40/40/40 50/50/50 49/49/49
f 50/50/50 40/40/40 28/28/28
f 29/29/29 28/28/28 40/40/40
f 28/28/28 44/44/44 50/50/50
f 52/52/52 50/50/50 44/44/44
f 40/40/40 39/39/39 29/29/29
f 18/18/18 29/29/29 39/39/39
f 43/43/43 41/41/41 51/51/51
f 45/45/45 51/51/51 41/41/41
f 51/51/51 45/45/45 46/46/46
f 32/32/32 46/46/46 45/45/45
f 46/46/46 32/32/32 34/34/34
f 33/33/33 34/34/34 32/32/32
f 34/34/34 33/33/33 35/35/35
f 36/36/36 35/35/35 33/33/33
f 35/35/35 36/36/36 37/37/37
f 38/38/38 37/37/37 36/36/36
f 37/37/37 38/38/38 39/39/39
f 16/16/16 39/39/39 38/38/38
f 39/39/39 16/16/16 18/18/18
f 17/17/17 18/18/18 16/16/16
f 32/32/32 31/31/31 33/33/33
f 31/31/31 32/32/32 26/26/26
f 45/45/45 26/26/26 32/32/32
f 26/26/26 45/45/45 41/41/41
f 16/16/16 15/15/15 17/17/17
f 15/15/15 16/16/16 14/14/14
f 38/38/38 14/14/14 16/16/16
f 14/14/14 38/38/38 12/12/12
f 36/36/36 12/12/12 38/38/38
f 12/12/12 36/36/36 10/10/10
f 33/33/33 10/10/10 36/36/36
f 10/10/10 33/33/33 8/8/8
f 31/31/31 8/8/8 33/33/33
f 8/8/8 31/31/31 25/25/25
f 26/26/26 25/25/25 31/31/31
f 25/25/25 26/26/26 21/21/21
f 41/41/41 21/21/21 26/26/26
f 21/21/21 41/41/41 22/22/22
f 42/42/42 22/22/22 41/41/41
f 14/14/14 13/13/13 15/15/15
f 13/13/13 14/14/14 11/11/11
f 12/12/12 11/11/11 14/14/14
f 11/11/11 12/12/12 9/9/9
f 10/10/10 9/9/9 12/12/12
f 9/9/9 10/10/10 8/8/8
f 22/22/22 23/23/23 21/21/21
f 24/24/24 21/21/21 23/23/23
f 21/21/21 24/24/24 25/25/25
f 6/6/6 25/25/25 24/24/24
f 25/25/25 6/6/6 8/8/8
f 7/7/7 8/8/8 6/6/6
f 8/8/8 7/7/7 9/9/9
f 23/23/23 3/3/3 24/24/24
f 2/2/2 24/24/24 3/3/3
f 24/24/24 2/2/2 6/6/6
f 5/5/5 6/6/6 2/2/2
f 6/6/6 5/5/5 7/7/7
f 1/1/1 2/2/2 3/3/3
f 2/2/2 1/1/1 5/5/5
f 3/3/3 4/4/4 1/1/1
