mtllib OVERHILL_A_01_OBJECT89.mtl
g Object89
usemtl 8_-_Default
v -8334.458008 -650.601746 12614.268555
vn 0.000000 -0.160181 -0.987088
vt 0.999500 0.999001
v -8334.458008 -545.338562 12614.268555
vn -0.707107 0.000000 -0.707107
vt 0.999500 0.000000
v -8242.930664 -545.338623 12614.268555
vn -0.000000 0.000000 -1.000000
vt 0.268372 0.000000
v -8242.930664 -650.601746 12614.268555
vn 0.000000 -0.160181 -0.987088
vt 0.268372 0.999001
v -8334.458008 -650.601746 12878.637695
vn -0.987087 -0.160182 0.000000
vt 0.999500 0.999001
v -8334.458008 -545.338623 12878.637695
vn -1.000000 -0.000000 0.000000
vt 0.999500 0.000000
v -8334.458008 -545.338562 12614.268555
vn -0.707107 0.000000 -0.707107
vt 0.000500 0.000000
v -8334.458008 -650.601746 12614.268555
vn -0.987087 -0.160182 0.000000
vt 0.000499 0.999001
v -8242.930664 -650.601746 12878.637695
vn 0.000000 -0.160182 0.987087
vt 0.999500 0.999001
v -8242.930664 -545.338623 12878.637695
vn 0.000000 0.000000 1.000000
vt 0.999500 0.000000
v -8334.458008 -545.338623 12878.637695
vn 0.000000 0.000000 1.000000
vt 0.000500 0.000000
v -8334.458008 -650.601746 12878.637695
vn 0.000000 -0.160182 0.987087
vt 0.000500 0.999001
f 3/3/3 1/1/1 2/2/2
f 1/1/1 3/3/3 4/4/4
f 7/7/7 5/5/5 6/6/6
f 5/5/5 7/7/7 8/8/8
f 11/11/11 9/9/9 10/10/10
f 9/9/9 11/11/11 12/12/12
usemtl Lvl_dwarven_plc_stone03
v -8242.930664 -695.714539 12863.600586
vn 0.000000 -0.316228 0.948683
vt 0.749688 0.999157
v -8242.930664 -650.601746 12878.637695
vn 0.000000 -0.160182 0.987087
vt 0.916188 0.999501
v -8334.458008 -650.601746 12878.637695
vn 0.000000 -0.160182 0.987087
vt 0.999501 0.002563
v -8319.419922 -695.714539 12863.600586
vn 0.000000 -0.316228 0.948683
vt 0.000500 0.000499
v -8334.458008 -650.601746 12614.268555
vn 0.000000 -0.160181 -0.987088
vt 0.999501 0.000500
v -8242.930664 -650.601746 12614.268555
vn 0.000000 -0.160181 -0.987088
vt 0.000499 -0.003060
v -8242.930664 -695.714539 12629.306641
vn -0.000009 -0.031168 -0.999514
vt 0.000046 0.999502
v -8319.419922 -695.714539 12629.306641
vn -0.000015 -0.047347 -0.998878
vt 0.917329 0.996912
v -8334.458008 -650.601746 12878.637695
vn -0.987087 -0.160182 0.000000
vt 0.999500 0.000499
v -8334.458008 -650.601746 12614.268555
vn -0.987087 -0.160182 0.000000
vt 0.000500 0.000000
v -8319.419922 -695.714539 12629.306641
vn -0.998878 -0.047349 0.000000
vt 0.085066 1.000000
v -8319.419922 -695.714539 12863.600586
vn -0.998878 -0.047350 0.000000
vt 0.917567 1.000000
f 15/15/15 13/13/13 14/14/14
f 13/13/13 15/15/15 16/16/16
f 19/19/19 17/17/17 18/18/18
f 17/17/17 19/19/19 20/20/20
f 23/23/23 21/21/21 22/22/22
f 21/21/21 23/23/23 24/24/24
