mtllib OVERHILL_A_01_ROCK87.mtl
g rock87
usemtl stone_01
v -3561.466064 195.205017 459.212158
vn -0.678054 0.082649 0.730350
vt 0.225680 0.155548
v -3564.635010 214.985809 440.917847
vn -0.631079 0.775656 0.009821
vt 0.233170 -0.052878
v -3573.290527 206.888306 435.060516
vn -0.924993 0.373438 0.070229
vt 0.413272 -0.068449
v -3571.116211 190.914963 445.557953
vn -0.907964 -0.308760 0.283319
vt 0.443374 0.109459
v -3522.341797 171.839401 446.497284
vn 0.476735 -0.775452 0.414003
vt 0.191210 1.173662
v -3528.400146 171.978088 454.174469
vn 0.286297 -0.727383 0.623657
vt 0.191457 0.983577
v -3537.783203 164.208084 440.796021
vn 0.107714 -0.978723 0.174639
vt 0.478065 0.980973
v -3528.604980 166.374115 437.309448
vn 0.276443 -0.960034 -0.043759
vt 0.454520 1.176831
v -3510.707275 187.744446 441.244720
vn 0.972333 -0.165753 0.164603
vt -0.097012 1.190425
v -3509.275391 198.372391 446.577576
vn 0.983564 0.078530 0.162588
vt -0.165288 0.997204
v -3516.417725 185.849731 456.491669
vn 0.737516 -0.354431 0.574847
vt 0.030399 0.989757
v -3514.453613 181.119781 448.768982
vn 0.794406 -0.406691 0.451134
vt 0.060004 1.183203
v -3516.595459 184.532593 425.131927
vn 0.778985 -0.185192 -0.599071
vt 0.217826 1.200990
v -3519.199219 193.134216 418.743042
vn 0.665281 0.020694 -0.746306
vt 0.225495 1.010620
v -3511.795898 198.932022 432.174957
vn 0.922780 0.108095 -0.369854
vt -0.021553 1.005892
v -3511.851318 188.193115 433.951080
vn 0.963435 -0.055844 -0.262059
vt 0.001637 1.196702
v -3528.230713 169.484970 427.054413
vn 0.362025 -0.745042 -0.560223
vt 0.607709 1.187606
v -3539.223145 167.166992 422.326416
vn 0.086844 -0.860822 -0.501441
vt 0.694220 0.993698
v -3528.955566 181.813370 415.323517
vn 0.413166 -0.398506 -0.818833
vt 0.456353 1.006283
v -3522.701660 177.674759 422.108978
vn 0.498041 -0.456341 -0.737366
vt 0.421117 1.198058
v -3543.439453 219.707840 429.884369
vn 0.041701 0.969467 -0.241652
vt 0.110111 0.249573
v -3550.981934 217.666443 417.734009
vn -0.218399 0.745719 -0.629448
vt 0.281116 0.203827
v -3556.202148 222.561234 447.721680
vn -0.468090 0.796226 0.383296
vt 0.051746 -0.038048
v -3549.177246 205.688889 461.638000
vn -0.170798 0.344678 0.923052
vt 0.074790 0.203609
v -3542.432617 178.246429 463.914429
vn -0.135580 -0.382302 0.914037
vt 0.173064 0.617666
v -3526.584717 196.309723 465.553833
vn 0.389701 -0.044554 0.919863
vt -0.027360 0.617857
v -3515.313232 215.965103 454.346802
vn 0.501105 0.725065 0.472413
vt -0.274872 0.625202
v -3537.593506 222.967377 452.318695
vn 0.054223 0.909479 0.412199
vt -0.136599 0.219053
v -3572.636719 193.190659 427.658234
vn -0.926677 -0.111525 -0.358933
vt 0.657109 0.124562
v -3559.108398 170.330750 418.882233
vn -0.605114 -0.568291 -0.557568
vt 0.787195 0.620776
v -3554.678467 168.638504 446.946747
vn -0.413823 -0.834753 0.363232
vt 0.480096 0.605620
v -3543.178711 192.475906 410.260590
vn -0.001614 -0.080936 -0.996718
vt 0.479228 0.636106
v -3561.548340 208.526291 418.452576
vn -0.609808 0.352481 -0.709853
vt 0.434133 0.148010
v -3529.670166 208.585251 413.309082
vn 0.343897 0.528208 -0.776357
vt 0.217275 0.642502
v -3519.630371 216.551971 431.118866
vn 0.691857 0.624197 -0.362921
vt -0.065313 0.637345
f 19/19/19 17/17/17 18/18/18
f 17/17/17 19/19/19 20/20/20
f 13/13/13 20/20/20 19/19/19
f 1/1/1 4/4/4 31/31/31
f 30/30/30 31/31/31 4/4/4
f 31/31/31 30/30/30 18/18/18
f 32/32/32 18/18/18 30/30/30
f 18/18/18 32/32/32 19/19/19
f 14/14/14 19/19/19 32/32/32
f 19/19/19 14/14/14 13/13/13
f 15/15/15 13/13/13 14/14/14
f 13/13/13 15/15/15 16/16/16
f 10/10/10 16/16/16 15/15/15
f 16/16/16 10/10/10 9/9/9
f 11/11/11 9/9/9 10/10/10
f 9/9/9 11/11/11 12/12/12
f 5/5/5 12/12/12 11/11/11
f 32/32/32 34/34/34 14/14/14
f 35/35/35 14/14/14 34/34/34
f 14/14/14 35/35/35 15/15/15
f 10/10/10 15/15/15 35/35/35
f 30/30/30 33/33/33 32/32/32
f 22/22/22 32/32/32 33/33/33
f 32/32/32 22/22/22 34/34/34
f 21/21/21 34/34/34 22/22/22
f 34/34/34 21/21/21 35/35/35
f 27/27/27 35/35/35 21/21/21
f 35/35/35 27/27/27 10/10/10
f 26/26/26 10/10/10 27/27/27
f 10/10/10 26/26/26 11/11/11
f 6/6/6 11/11/11 26/26/26
f 11/11/11 6/6/6 5/5/5
f 7/7/7 5/5/5 6/6/6
f 5/5/5 7/7/7 8/8/8
f 21/21/21 22/22/22 2/2/2
f 33/33/33 2/2/2 22/22/22
f 2/2/2 33/33/33 3/3/3
f 29/29/29 3/3/3 33/33/33
f 17/17/17 8/8/8 18/18/18
f 7/7/7 18/18/18 8/8/8
f 18/18/18 7/7/7 31/31/31
f 6/6/6 31/31/31 7/7/7
f 31/31/31 6/6/6 25/25/25
f 26/26/26 25/25/25 6/6/6
f 25/25/25 26/26/26 24/24/24
f 27/27/27 24/24/24 26/26/26
f 24/24/24 27/27/27 28/28/28
f 21/21/21 28/28/28 27/27/27
f 28/28/28 21/21/21 23/23/23
f 2/2/2 23/23/23 21/21/21
f 23/23/23 2/2/2 1/1/1
f 3/3/3 1/1/1 2/2/2
f 1/1/1 3/3/3 4/4/4
f 29/29/29 4/4/4 3/3/3
f 4/4/4 29/29/29 30/30/30
f 33/33/33 30/30/30 29/29/29
f 28/28/28 23/23/23 24/24/24
f 1/1/1 24/24/24 23/23/23
f 24/24/24 1/1/1 25/25/25
f 31/31/31 25/25/25 1/1/1
