mtllib OVERHILL_A_01_PLANE58.mtl
g Plane58
usemtl spike
v -8303.652344 -891.198669 16426.093750
vn 0.686277 -0.590025 -0.425317
vt 1.000000 1.000000
v -8298.684570 -878.542175 16416.550781
vn 0.850000 0.000000 -0.526783
vt 0.000000 1.000000
v -8287.588867 -878.542175 16434.457031
vn 0.850000 0.000000 -0.526783
vt 0.500000 0.012882
v -8303.652344 -891.198669 16426.093750
vn 0.045234 -0.590026 0.806116
vt 1.000000 1.000000
v -8287.588867 -878.542175 16434.457031
vn 0.056025 -0.000001 0.998429
vt 0.500000 0.012882
v -8308.620117 -878.542175 16435.636719
vn 0.056025 -0.000001 0.998429
vt 0.000000 1.000000
v -8303.652344 -865.885681 16426.093750
vn 0.045234 0.590025 0.806117
vt 1.000000 1.000000
v -8303.652344 -865.885681 16426.093750
vn 0.686277 0.590025 -0.425316
vt 1.000000 1.000000
f 1/1/1 2/2/2 3/3/3
f 8/8/8 3/3/3 2/2/2
f 4/4/4 5/5/5 6/6/6
f 7/7/7 6/6/6 5/5/5
