mtllib OVERHILL_A_01_PLANE19.mtl
g Plane19
usemtl stone_01
v -3657.845703 109.347336 159.480621
vn -0.632174 0.683478 0.364986
vt 0.269585 0.269585
v -3652.738770 115.645523 156.532104
vn 0.000000 1.000000 0.000000
vt 0.500000 0.500000
v -3656.719238 109.347336 149.637665
vn -0.310222 0.784251 -0.537320
vt 0.730415 0.269585
v -3648.758301 109.347336 163.426544
vn 0.310222 0.784251 0.537320
vt 0.269585 0.730415
v -3647.631836 109.347336 153.583588
vn 0.632174 0.683478 -0.364985
vt 0.730415 0.730415
f 2/2/2 1/1/1 4/4/4
f 1/1/1 2/2/2 3/3/3
f 5/5/5 3/3/3 2/2/2
f 4/4/4 5/5/5 2/2/2
