mtllib OVERHILL_A_01_OBJECT182.mtl
g Object182
usemtl Cave_Blender
v -9977.025391 -217.076141 16259.950195
vn 0.235975 -0.675969 -0.698128
vt 0.901847 -2.978305
v -10012.652344 -422.987885 16525.271484
vn 0.251662 -0.730826 -0.634476
vt 0.952743 -3.357335
v -10250.998047 -422.961029 16449.109375
vn 0.109434 -0.739642 -0.664044
vt 1.293238 -3.248532
v -10211.944336 -217.043915 16207.734375
vn 0.097862 -0.657864 -0.746752
vt 1.237446 -2.903711
v -10211.944336 -217.043915 16207.734375
vn 0.097862 -0.657864 -0.746752
vt 1.237446 -2.903711
v -10250.998047 -422.961029 16449.109375
vn 0.109434 -0.739642 -0.664044
vt 1.293238 -3.248532
v -10593.751953 -422.917206 16418.240234
vn 0.049100 -0.749020 -0.660725
vt 1.782885 -3.204432
v -10534.437500 -224.914520 16210.112305
vn 0.037230 -0.726849 -0.685787
vt 1.698151 -2.907108
v -10792.207031 -422.982269 16401.726563
vn 0.154026 -0.746957 -0.646785
vt 2.066393 -3.180842
v -10713.429688 -225.002655 16199.251953
vn 0.162196 -0.643602 -0.747977
vt 1.953854 -2.891593
v -10963.977539 -422.992157 16330.158203
vn 0.358776 -0.750310 -0.555261
vt 2.311780 -3.078602
v -10862.857422 -225.007034 16136.970703
vn 0.418153 -0.690955 -0.589687
vt 2.167322 -2.802620
v -10862.857422 -225.007034 16136.970703
vn 0.418153 -0.690955 -0.589687
vt 2.167322 -2.802620
v -10963.977539 -422.992157 16330.158203
vn 0.358776 -0.750310 -0.555261
vt 2.311780 -3.078602
v -11128.516602 -422.917328 16175.790039
vn 0.518550 -0.736422 -0.434498
vt 2.546835 -2.858076
v -11128.516602 -422.917328 16175.790039
vn 0.518550 -0.736422 -0.434498
vt 2.546835 -3.858076
v -10968.840820 -224.894974 16037.712891
vn 0.556347 -0.640327 -0.529584
vt 2.318727 -3.660822
v -10862.857422 -225.007034 16136.970703
vn 0.418153 -0.690955 -0.589687
vt 2.167322 -3.802620
v -11061.616211 -224.733353 15922.553711
vn 0.704142 -0.636741 -0.314237
vt 2.451262 -3.496309
v -11219.382813 -422.806976 16018.420898
vn 0.618115 -0.748370 -0.240577
vt 2.676644 -3.633263
v -11079.094727 -224.373718 15783.364258
vn 0.746271 -0.652247 -0.132868
vt 2.476232 -3.297468
v -11248.059570 -422.681702 15925.079102
vn 0.624921 -0.756455 -0.193002
vt 2.717610 -3.499918
v -11276.735352 -422.556458 15831.737305
vn 0.643769 -0.761962 -0.070534
vt 2.758576 -3.366572
v -11070.702148 -224.293030 15501.097656
vn 0.775471 -0.630027 -0.041372
vt 2.464243 -2.894230
v -11079.094727 -224.373718 15783.364258
vn 0.746271 -0.652247 -0.132868
vt 2.476232 -3.297468
v -11276.735352 -422.556458 15831.737305
vn 0.643769 -0.761962 -0.070534
vt 2.758576 -3.366572
v -11268.204102 -422.499573 15544.757813
vn 0.654931 -0.754174 -0.047816
vt 2.746388 -2.956601
v -11157.608398 -226.788864 15123.201172
vn 0.724114 -0.608737 -0.324188
vt 2.588394 -2.354378
v -11318.416016 -430.292389 15251.020508
vn 0.577307 -0.764721 -0.286213
vt 2.818120 -2.536977
v -11308.159180 -227.086090 14940.938477
vn 0.493032 -0.637430 -0.592117
vt 2.803467 -2.094002
v -11446.449219 -430.494781 15096.024414
vn 0.373946 -0.766414 -0.522277
vt 3.001024 -2.315554
v -11685.725586 -430.497711 14985.650391
vn 0.147493 -0.756420 -0.637240
vt 3.342847 -2.157877
v -11604.885742 -227.100983 14807.419922
vn 0.167107 -0.624929 -0.762587
vt 3.227361 -1.903261
v -11918.324219 -430.380157 14981.955078
vn 0.018292 -0.742043 -0.670102
vt 3.675132 -2.152597
v -11915.775391 -226.942047 14780.824219
vn 0.034842 -0.617596 -0.785724
vt 3.671490 -1.865267
v -11604.885742 -227.100983 14807.419922
vn 0.167107 -0.624929 -0.762587
vt 3.227361 -1.903261
v -11685.725586 -430.497711 14985.650391
vn 0.147493 -0.756420 -0.637240
vt 3.342847 -2.157877
v -12186.878906 -430.252838 14961.452148
vn -0.125838 -0.796492 -0.591410
vt 3.058781 -2.123307
v -12219.892578 -213.187653 14779.762695
vn -0.159555 -0.606515 -0.778898
vt 3.105942 -1.863750
v -11915.775391 -226.942047 14780.824219
vn 0.034842 -0.617596 -0.785724
vt 2.671490 -1.865267
v -11918.324219 -430.380157 14981.955078
vn 0.018292 -0.742043 -0.670102
vt 2.675132 -2.152597
v -12596.369141 -245.403473 15010.452148
vn -0.054445 -0.680503 -0.730720
vt 3.643766 -2.193307
v -12506.847656 -228.941803 14969.859375
vn -0.343461 -0.618724 -0.706552
vt 3.515879 -2.135318
v -12441.479492 -446.076813 15127.897461
vn -0.385919 -0.734480 -0.558217
vt 3.422496 -2.361086
v -12572.731445 -462.410187 15232.528320
vn -0.156255 -0.788737 -0.594541
vt 3.609998 -2.510559
v -12337.092773 -438.062531 15034.474609
vn -0.284596 -0.756480 -0.588850
vt 3.273372 -2.227625
v -12403.193359 -220.922638 14877.100586
vn -0.424677 -0.587598 -0.688751
vt 3.367802 -2.002805
v -12441.479492 -446.076813 15127.897461
vn -0.385919 -0.734480 -0.558217
vt 3.422496 -2.361086
v -12506.847656 -228.941803 14969.859375
vn -0.343461 -0.618724 -0.706552
vt 3.515879 -2.135318
f 13/13/13 14/14/14 15/15/15
f 30/30/30 31/31/31 32/32/32
f 31/31/31 30/30/30 29/29/29
f 28/28/28 29/29/29 30/30/30
f 29/29/29 28/28/28 27/27/27
f 24/24/24 27/27/27 28/28/28
f 27/27/27 24/24/24 26/26/26
f 25/25/25 26/26/26 24/24/24
f 32/32/32 33/33/33 30/30/30
f 7/7/7 5/5/5 6/6/6
f 5/5/5 7/7/7 8/8/8
f 9/9/9 8/8/8 7/7/7
f 8/8/8 9/9/9 10/10/10
f 11/11/11 10/10/10 9/9/9
f 10/10/10 11/11/11 12/12/12
f 21/21/21 22/22/22 23/23/23
f 22/22/22 21/21/21 20/20/20
f 19/19/19 20/20/20 21/21/21
f 20/20/20 19/19/19 16/16/16
f 17/17/17 16/16/16 19/19/19
f 16/16/16 17/17/17 18/18/18
f 38/38/38 39/39/39 40/40/40
f 39/39/39 38/38/38 47/47/47
f 46/46/46 47/47/47 38/38/38
f 47/47/47 46/46/46 48/48/48
f 40/40/40 41/41/41 38/38/38
f 48/48/48 49/49/49 47/47/47
f 1/1/1 3/3/3 4/4/4
f 3/3/3 1/1/1 2/2/2
f 34/34/34 36/36/36 37/37/37
f 36/36/36 34/34/34 35/35/35
f 44/44/44 42/42/42 43/43/43
f 42/42/42 44/44/44 45/45/45
