mtllib OVERHILL_A_01_OBJECT185.mtl
g Object185
usemtl Cave_Blender
v -8184.572266 -1213.183716 15273.363281
vn -0.497297 0.181672 -0.848346
vt 0.625767 0.258720
v -8042.129883 -1213.183716 15190.380859
vn -0.308398 0.297415 -0.903568
vt 0.215616 0.345705
v -8040.008789 -1277.509277 15202.489258
vn -0.316354 -0.189607 -0.929499
vt 0.216241 0.600174
v -8183.382813 -1273.786865 15277.199219
vn -0.474847 -0.072937 -0.877041
vt 0.624642 0.510609
v -7848.115234 -1213.183594 15132.416016
vn 0.013761 0.494546 -0.869042
vt -0.315352 0.377652
v -7846.665039 -1275.616821 15153.800781
vn -0.046897 -0.307539 -0.950379
vt -0.308328 0.609683
v -7733.308594 -1234.072632 15158.050781
vn 0.371117 0.186391 -0.909687
vt -0.599408 0.391393
v -7731.495117 -1299.631470 15180.242188
vn 0.326165 -0.287791 -0.900440
vt -0.592918 0.635366
v -8033.514160 -1173.743774 15224.031250
vn -0.271930 0.561766 -0.781328
vt 0.210234 0.122110
v -8174.645020 -1173.743774 15284.583984
vn -0.500879 0.175694 -0.847497
vt 0.605716 0.069974
v -7862.196777 -1173.743774 15215.315430
vn -0.018723 0.472117 -0.881337
vt -0.237267 0.083580
v -7746.831543 -1173.743652 15224.399414
vn 0.236768 0.451605 -0.860229
vt -0.531097 0.034136
v -7621.258789 -1173.743896 15276.143555
vn 0.363511 0.297924 -0.882667
vt -0.829882 -0.085462
v -7597.425293 -1261.792603 15250.040039
vn 0.426440 -0.000688 -0.904516
vt -0.904619 0.323543
v -7529.552734 -1311.576782 15262.320313
vn 0.219198 0.058619 -0.973918
vt -1.207316 0.475726
v -7597.513184 -1325.160645 15266.510742
vn 0.238196 -0.250806 -0.938274
vt -0.896088 0.567749
v -8299.244141 -1229.897705 15351.857422
vn -0.782808 0.125236 -0.609530
vt 0.961839 0.241554
f 8/8/8 14/14/14 16/16/16
f 14/14/14 8/8/8 7/7/7
f 6/6/6 7/7/7 8/8/8
f 6/6/6 5/5/5 7/7/7
f 5/5/5 6/6/6 2/2/2
f 3/3/3 2/2/2 6/6/6
f 2/2/2 3/3/3 1/1/1
f 4/4/4 1/1/1 3/3/3
f 1/1/1 4/4/4 17/17/17
f 17/17/17 10/10/10 1/1/1
f 9/9/9 1/1/1 10/10/10
f 1/1/1 9/9/9 2/2/2
f 11/11/11 2/2/2 9/9/9
f 2/2/2 11/11/11 5/5/5
f 12/12/12 5/5/5 11/11/11
f 5/5/5 12/12/12 7/7/7
f 13/13/13 7/7/7 12/12/12
f 7/7/7 13/13/13 14/14/14
f 15/15/15 14/14/14 13/13/13
f 14/14/14 15/15/15 16/16/16
