mtllib OVERHILL_A_01_OBJECT295.mtl
g Object295
usemtl 8_-_Default
v -5029.302734 -146.824280 7910.025879
vn -0.000001 -0.229753 -0.973249
vt 0.199900 0.000500
v -5029.302734 -181.307037 7927.267090
vn -0.000001 -0.850651 -0.525731
vt 0.000100 0.000500
v -5089.026367 -181.307037 7927.267578
vn -0.000001 -0.850651 -0.525731
vt 0.000100 0.999500
v -5150.302734 -181.307037 7927.267578
vn -0.000001 -0.850651 -0.525731
vt 0.000225 0.999500
v -5150.302734 -181.307037 7996.232910
vn 0.000001 -0.850651 0.525731
vt 0.449775 0.999501
v -5210.026367 -181.307037 7996.232910
vn 0.000001 -0.850651 0.525731
vt 0.449775 0.000500
v -5210.026367 -146.824280 8013.474121
vn 0.000001 -0.229753 0.973249
vt 0.291687 0.000500
v -5210.026367 -181.307037 7996.232910
vn 0.000001 -0.850651 0.525731
vt -0.078741 0.000500
v -5150.302734 -181.307037 7996.232910
vn 0.000001 -0.850651 0.525731
vt -0.078741 0.999500
v -5089.026367 -146.824280 7910.025879
vn -0.000001 -0.229753 -0.973249
vt 0.199900 0.999500
v -5210.026855 -181.307037 7927.267578
vn -0.000001 -0.850651 -0.525731
vt 0.000225 0.000499
v -5029.302734 -77.858765 7910.025879
vn -0.000001 0.000000 -1.000000
vt 0.999500 0.000501
v -5029.302734 -146.824280 7910.025879
vn -0.000001 -0.229753 -0.973249
vt 0.000500 0.000500
v -5089.026367 -146.824280 7910.025879
vn -0.000001 -0.229753 -0.973249
vt 0.000500 0.999499
v -5089.026367 -77.858765 7910.025879
vn -0.000001 0.000000 -1.000000
vt 0.999500 0.999500
v -5029.302734 -181.307037 7927.267090
vn -0.000001 -0.850651 -0.525731
vt 0.449775 0.000500
v -5029.302246 -181.307037 7996.232910
vn 0.000001 -0.850651 0.525731
vt 0.000225 0.000499
v -5089.026367 -181.307037 7996.232910
vn 0.000001 -0.850651 0.525731
vt 0.000225 0.999500
v -5089.026367 -77.858772 8013.474121
vn 0.000001 0.000000 1.000000
vt 0.000499 0.999500
v -5089.026367 -146.824280 8013.474121
vn 0.000001 -0.229753 0.973249
vt 0.999500 0.999501
v -5029.302246 -146.824280 8013.474121
vn 0.000001 -0.229753 0.973249
vt 0.999501 0.000500
v -5029.302246 -77.858772 8013.474121
vn 0.000001 0.000000 1.000000
vt 0.000499 0.000499
v -5089.026367 -146.824280 8013.474121
vn 0.000001 -0.229753 0.973249
vt 0.000100 0.999500
v -5089.026367 -181.307037 7996.232910
vn 0.000001 -0.850651 0.525731
vt 0.199900 0.999501
v -5029.302246 -181.307037 7996.232910
vn 0.000001 -0.850651 0.525731
vt 0.199900 0.000500
v -5029.302246 -146.824280 8013.474121
vn 0.000001 -0.229753 0.973249
vt 0.000100 0.000500
v -5089.026367 -77.858772 8047.957031
vn -0.013372 -0.999642 -0.023160
vt 0.826087 0.999500
v -5089.026367 -77.858772 8013.474121
vn 0.000000 -1.000000 0.000000
vt 0.999500 0.998880
v -5029.302246 -77.858772 8013.474121
vn -0.013372 -0.999642 -0.023160
vt 0.999500 0.000500
v -5081.026367 -86.479576 8229.250000
vn -0.026735 -0.998570 -0.046304
vt 0.000500 0.865129
v -5089.026367 -77.858765 7910.025879
vn -0.399927 -0.916288 0.021781
vt 0.000499 0.999159
v -5089.026367 -77.858765 7875.542969
vn -0.733008 -0.680220 0.000001
vt 0.173915 0.999500
v -5081.026855 -86.479393 7694.250000
vn -0.399927 -0.916288 0.021781
vt 0.999500 0.865368
v -5029.302734 -77.858765 7910.025879
vn 0.000000 -0.999203 0.039920
vt 0.000500 0.000500
v -5150.302734 -146.824280 8013.474121
vn 0.000001 -0.229753 0.973249
vt 0.291687 0.999500
v -5150.302734 -146.824280 7910.025879
vn -0.000001 -0.229753 -0.973249
vt -0.138547 0.999500
v -5150.302734 -181.307037 7927.267578
vn -0.000001 -0.850651 -0.525731
vt 0.219707 0.999501
v -5210.026855 -181.307037 7927.267578
vn -0.000001 -0.850651 -0.525731
vt 0.219707 0.000500
v -5150.302734 -77.858765 7875.543457
vn 0.013372 -0.999642 0.023161
vt 0.826087 0.999500
v -5150.302734 -77.858765 7910.025879
vn 0.000000 -1.000000 0.000000
vt 0.999500 0.998880
v -5210.026855 -77.858765 7910.025879
vn 0.013372 -0.999642 0.023161
vt 0.999500 0.000500
v -5158.302734 -86.479706 7694.250000
vn 0.026735 -0.998570 0.046305
vt 0.000500 0.865129
v -5089.026367 -181.307037 7927.267578
vn -0.000001 -0.850651 -0.525731
vt 0.449775 0.999501
v -5210.026855 -146.824280 7910.025879
vn -0.000001 -0.229753 -0.973249
vt -0.138547 0.000500
v -5150.302734 -77.858765 7910.025879
vn -0.000001 0.000000 -1.000000
vt 0.168229 0.999500
v -5150.302734 -146.824280 7910.025879
vn -0.000001 -0.229753 -0.973249
vt 0.705974 0.999501
v -5210.026855 -146.824280 7910.025879
vn -0.000001 -0.229753 -0.973249
vt 0.705974 0.000500
v -5210.026855 -77.858765 7910.025879
vn -0.000001 0.000000 -1.000000
vt 0.168229 0.000499
v -5150.302734 -146.824280 8013.474121
vn 0.000001 -0.229753 0.973249
vt 0.461659 0.999499
v -5150.302734 -77.858772 8013.474121
vn 0.000001 0.000000 1.000000
vt 0.999500 0.999500
v -5210.026367 -77.858772 8013.474121
vn 0.000001 0.000000 1.000000
vt 0.999500 0.000501
v -5210.026367 -146.824280 8013.474121
vn 0.000001 -0.229753 0.973249
vt 0.461659 0.000500
v -5150.302734 -77.858772 8013.474121
vn 0.399932 -0.916286 -0.021781
vt 0.000499 0.999159
v -5150.302734 -77.858772 8047.957031
vn 0.733015 -0.680213 -0.000001
vt 0.173915 0.999500
v -5158.301758 -86.479416 8229.250000
vn 0.399932 -0.916286 -0.021781
vt 0.999500 0.865368
v -5210.026367 -77.858772 8013.474121
vn 0.000000 -0.999203 -0.039920
vt 0.000500 0.000500
f 3/3/3 1/1/1 2/2/2
f 1/1/1 3/3/3 10/10/10
f 6/6/6 4/4/4 5/5/5
f 4/4/4 6/6/6 11/11/11
f 9/9/9 7/7/7 8/8/8
f 7/7/7 9/9/9 35/35/35
f 14/14/14 12/12/12 13/13/13
f 12/12/12 14/14/14 15/15/15
f 18/18/18 16/16/16 17/17/17
f 16/16/16 18/18/18 43/43/43
f 21/21/21 19/19/19 20/20/20
f 19/19/19 21/21/21 22/22/22
f 25/25/25 23/23/23 24/24/24
f 23/23/23 25/25/25 26/26/26
f 29/29/29 27/27/27 28/28/28
f 27/27/27 29/29/29 30/30/30
f 33/33/33 31/31/31 32/32/32
f 31/31/31 33/33/33 34/34/34
f 38/38/38 36/36/36 37/37/37
f 36/36/36 38/38/38 44/44/44
f 41/41/41 39/39/39 40/40/40
f 39/39/39 41/41/41 42/42/42
f 47/47/47 45/45/45 46/46/46
f 45/45/45 47/47/47 48/48/48
f 51/51/51 49/49/49 50/50/50
f 49/49/49 51/51/51 52/52/52
f 55/55/55 53/53/53 54/54/54
f 53/53/53 55/55/55 56/56/56
usemtl Lvl_dwarven_plc_stone06
v -5210.026855 -146.824280 7910.025879
vn -1.000000 0.000000 0.000001
vt 1.010364 0.412012
v -5210.026855 -181.307037 7927.267578
vn -1.000000 -0.000002 0.000001
vt 0.936691 0.236035
v -5210.026367 -181.307037 7996.232910
vn -1.000000 -0.000001 0.000001
vt 0.642001 0.236035
v -5210.026855 -77.858765 7910.025879
vn -0.999234 0.000000 -0.039120
vt 1.010364 0.763965
v -5210.026367 -77.858772 8013.474121
vn -0.998271 0.000000 0.058786
vt 0.568328 0.763965
v -5210.026367 -146.824280 8013.474121
vn -1.000000 0.000000 0.000002
vt 0.568328 0.412012
v -5029.302246 -77.858772 8013.474121
vn 0.999234 0.000000 0.039120
vt 0.999500 0.764286
v -5029.302246 -146.824280 8013.474121
vn 1.000000 0.000000 -0.000001
vt 0.999501 0.411905
v -5029.302734 -77.858765 7910.025879
vn 0.998271 0.000000 -0.058785
vt 0.000500 0.764286
v -5029.302734 -146.824280 7910.025879
vn 1.000000 0.000000 -0.000001
vt 0.000500 0.411905
v -5029.302734 -181.307037 7927.267090
vn 1.000000 0.000000 -0.000001
vt 0.167000 0.235714
v -5029.302246 -181.307037 7996.232910
vn 1.000000 0.000000 -0.000001
vt 0.833000 0.235714
v -5029.302246 -77.858772 8013.474121
vn 0.999234 0.000000 0.039120
vt 0.603345 0.000000
v -5029.302246 -77.858765 7910.025879
vn 0.998271 0.000000 -0.058785
vt 0.396655 0.000000
v -5029.302246 -26.134628 7910.025879
vn 0.993089 0.000000 -0.117366
vt 0.396655 1.000000
v -5089.646973 -129.582703 8238.474609
vn 0.618757 -0.304323 0.724242
vt 1.799699 0.999500
v -5089.646973 -26.134434 8238.474609
vn 0.000001 0.000000 1.000000
vt 2.998500 0.999500
v -5149.681641 -26.134434 8238.474609
vn 0.000001 0.000000 1.000000
vt 2.998500 0.000500
v -5149.681641 -129.582703 8238.474609
vn -0.618758 -0.304323 0.724242
vt 1.799699 0.000500
v -5089.646973 -129.582748 8099.681152
vn 0.409106 -0.843028 0.349193
vt 2.299201 0.999500
v -5089.646973 -129.582703 8238.474609
vn 0.000000 -1.000000 0.000000
vt 2.998501 0.999500
v -5149.681641 -129.582703 8238.474609
vn 0.000000 -1.000000 0.000000
vt 2.998501 0.000500
v -5149.681641 -129.582748 8099.681152
vn -0.409106 -0.843028 0.349194
vt 2.299201 0.000500
v -5089.646973 -181.306839 8047.957031
vn 0.409107 -0.349194 0.843028
vt 1.999500 0.999500
v -5149.681641 -181.306839 8047.957031
vn -0.409106 -0.349193 0.843028
vt 1.999500 0.000500
v -5089.646973 -250.272354 8047.957031
vn 0.425215 -0.427076 0.797997
vt 0.401099 0.999500
v -5089.646973 -181.306839 8047.957031
vn 0.409107 -0.349194 0.843028
vt 1.200299 0.999500
v -5149.681641 -181.306839 8047.957031
vn -0.409106 -0.349193 0.843028
vt 1.200299 0.000500
v -5149.681641 -250.272354 8047.957031
vn -0.425214 -0.427075 0.797997
vt 0.401099 0.000500
v -5089.646973 -284.755096 7996.232910
vn 0.397183 -0.878361 0.265946
vt 1.699800 0.999500
v -5089.646973 -250.272354 8047.957031
vn 0.425215 -0.427076 0.797997
vt 1.999500 0.999500
v -5149.681641 -250.272354 8047.957031
vn -0.425214 -0.427075 0.797997
vt 1.999500 0.000500
v -5149.681641 -284.755127 7996.232910
vn -0.397182 -0.878361 0.265947
vt 1.699800 0.000500
v -5089.647461 -284.755096 7927.267578
vn 0.397182 -0.878361 -0.265947
vt 1.300200 0.999500
v -5149.681641 -284.755127 7927.267578
vn -0.397183 -0.878361 -0.265946
vt 1.300200 0.000500
v -5089.647461 -250.272339 7875.542969
vn 0.425215 -0.427075 -0.797997
vt 1.000499 0.999500
v -5149.681641 -250.272339 7875.543457
vn -0.425216 -0.427075 -0.797997
vt 1.000499 0.000500
v -5089.647461 -181.306824 7875.542969
vn 0.409106 -0.349193 -0.843028
vt 1.799700 0.999500
v -5089.647461 -250.272339 7875.542969
vn 0.425215 -0.427075 -0.797997
vt 2.598901 0.999500
v -5149.681641 -250.272339 7875.543457
vn -0.425216 -0.427075 -0.797997
vt 2.598901 0.000500
v -5149.681641 -181.306824 7875.543457
vn -0.409106 -0.349194 -0.843028
vt 1.799700 0.000500
v -5089.647461 -129.582748 7823.818848
vn 0.409106 -0.843028 -0.349194
vt 0.700799 0.999500
v -5089.647461 -181.306824 7875.542969
vn 0.409106 -0.349193 -0.843028
vt 1.000499 0.999500
v -5149.681641 -181.306824 7875.543457
vn -0.409106 -0.349194 -0.843028
vt 1.000499 0.000500
v -5149.682129 -129.582748 7823.819336
vn -0.409106 -0.843028 -0.349193
vt 0.700799 0.000500
v -5089.647461 -129.582687 7685.025879
vn 0.615991 -0.731416 -0.292550
vt 0.001499 0.999500
v -5149.682129 -129.582687 7685.025879
vn -0.615991 -0.731416 -0.292550
vt 0.001499 0.000500
v -5089.647461 -26.134409 7685.025879
vn -0.000001 0.000000 -1.000000
vt 0.001499 0.999500
v -5089.647461 -129.582687 7685.025879
vn -0.000001 0.000000 -1.000000
vt 1.200300 0.999500
v -5149.682129 -129.582687 7685.025879
vn -0.000001 0.000000 -1.000000
vt 1.200300 0.000500
v -5149.682129 -26.134409 7685.025879
vn -0.000001 0.000000 -1.000000
vt 0.001499 0.000500
v -5210.026855 -77.858765 7910.025879
vn -0.999234 0.000000 -0.039120
vt 0.603345 0.000000
v -5210.026367 -77.858772 8013.474121
vn -0.998271 0.000000 0.058786
vt 0.396655 0.000000
v -5210.026367 -26.134634 8013.474121
vn -0.993089 0.000000 0.117367
vt 0.396655 1.000000
v -5210.026855 -26.134628 7910.025879
vn -0.987699 0.000000 -0.156365
vt 0.603345 1.000000
v -5158.302246 -86.479416 8229.250000
vn -0.972450 -0.000001 0.233110
vt 0.000500 0.000000
v -5158.302246 -34.755280 8229.250000
vn -0.860070 0.448748 0.242702
vt 0.000500 1.000000
v -5158.302734 -86.479553 7694.250000
vn -0.972451 0.000000 -0.233108
vt 0.999500 0.000000
v -5158.302734 -34.755413 7694.250000
vn -0.860070 0.448749 -0.242700
vt 0.999500 1.000000
v -5029.302246 -26.134634 8013.474121
vn 0.987699 0.000000 0.156365
vt 0.603345 1.000000
v -5081.026855 -86.479393 7694.250000
vn 0.972451 0.000000 -0.233109
vt 0.000500 0.000000
v -5081.026855 -34.755257 7694.250000
vn 0.860070 0.448748 -0.242702
vt 0.000500 1.000000
v -5081.026367 -86.479576 8229.250000
vn 0.972451 0.000000 0.233108
vt 0.999500 0.000000
v -5081.026367 -34.755440 8229.250000
vn 0.860070 0.448749 0.242701
vt 0.999500 1.000000
v -5089.646973 -26.134434 8238.474609
vn 0.615991 0.731416 0.292550
vt 0.001499 0.999500
v -5089.647461 -26.134409 7685.025879
vn 0.615991 0.731416 -0.292551
vt 2.998501 0.999500
v -5149.682129 -26.134409 7685.025879
vn -0.615991 0.731417 -0.292550
vt 2.998501 0.000500
v -5149.681641 -26.134434 8238.474609
vn -0.615992 0.731416 0.292550
vt 0.001499 0.000500
f 74/74/74 72/72/72 73/73/73
f 72/72/72 74/74/74 75/75/75
f 87/87/87 88/88/88 86/86/86
f 89/89/89 86/86/86 88/88/88
f 86/86/86 89/89/89 90/90/90
f 91/91/91 90/90/90 89/89/89
f 90/90/90 91/91/91 92/92/92
f 93/93/93 92/92/92 91/91/91
f 115/115/115 114/114/114 111/111/111
f 108/108/108 111/111/111 114/114/114
f 111/111/111 108/108/108 110/110/110
f 109/109/109 110/110/110 108/108/108
f 110/110/110 109/109/109 112/112/112
f 112/112/112 113/113/113 110/110/110
f 120/120/120 119/119/119 116/116/116
f 69/69/69 116/116/116 119/119/119
f 116/116/116 69/69/69 71/71/71
f 70/70/70 71/71/71 69/69/69
f 71/71/71 70/70/70 117/117/117
f 117/117/117 118/118/118 71/71/71
f 99/99/99 100/100/100 98/98/98
f 101/101/101 98/98/98 100/100/100
f 98/98/98 101/101/101 102/102/102
f 103/103/103 102/102/102 101/101/101
f 58/58/58 59/59/59 57/57/57
f 62/62/62 57/57/57 59/59/59
f 57/57/57 62/62/62 61/61/61
f 60/60/60 57/57/57 61/61/61
f 63/63/63 64/64/64 65/65/65
f 66/66/66 65/65/65 64/64/64
f 64/64/64 67/67/67 66/66/66
f 67/67/67 64/64/64 68/68/68
f 77/77/77 78/78/78 76/76/76
f 79/79/79 76/76/76 78/78/78
f 76/76/76 79/79/79 80/80/80
f 81/81/81 80/80/80 79/79/79
f 84/84/84 82/82/82 83/83/83
f 82/82/82 84/84/84 85/85/85
f 96/96/96 94/94/94 95/95/95
f 94/94/94 96/96/96 97/97/97
f 106/106/106 104/104/104 105/105/105
f 104/104/104 106/106/106 107/107/107
f 123/123/123 121/121/121 122/122/122
f 121/121/121 123/123/123 124/124/124
usemtl Lvl_dwarven_plc_stone08
v -5081.026367 -34.755123 8229.250000
vn 0.860070 0.448749 0.242701
vt 0.001499 0.730135
v -5029.302246 -26.134476 8013.474121
vn -0.164398 0.986394 0.000000
vt 1.189965 0.999865
v -5029.302246 -26.134472 7910.025879
vn -0.164398 0.986394 0.000000
vt 1.810035 0.999865
v -5210.026855 -26.134476 8013.474121
vn 0.164398 0.986394 0.000000
vt 1.810035 0.999865
v -5158.302246 -34.755123 8229.250000
vn -0.860070 0.448748 0.242702
vt 2.998502 0.730136
v -5158.302734 -34.755100 7694.250000
vn -0.860070 0.448749 -0.242700
vt 0.001499 0.730135
v -5081.026855 -34.755100 7694.250000
vn 0.860070 0.448748 -0.242702
vt 2.998502 0.730136
v -5210.026855 -26.134472 7910.025879
vn 0.164398 0.986394 0.000000
vt 1.189965 0.999865
f 127/127/127 125/125/125 126/126/126
f 125/125/125 127/127/127 131/131/131
f 130/130/130 128/128/128 129/129/129
f 128/128/128 130/130/130 132/132/132
usemtl Lvl_dwarven_plc_rock05
v -5089.647461 -284.755096 7927.267578
vn 0.397182 -0.878361 -0.265947
vt 0.862207 1.035179
v -5089.647461 -250.272339 7875.542969
vn 0.425215 -0.427075 -0.797997
vt 0.655517 0.892465
v -5081.026855 -245.658768 7884.164063
vn 0.888496 -0.216528 -0.404586
vt 0.689965 0.873370
v -5081.026855 -177.736008 7884.164063
vn 0.879466 -0.182142 -0.439732
vt 0.689965 0.592257
v -5081.026367 -276.134430 7929.877441
vn 0.872264 -0.468052 -0.141716
vt 0.872637 0.999500
v -5089.647461 -181.306824 7875.542969
vn 0.409106 -0.349193 -0.843028
vt 0.655517 0.607036
v -5081.026855 -120.962051 7827.390137
vn 0.894598 -0.406427 -0.185772
vt 0.463096 0.357285
v -5081.026367 -276.134430 7993.622559
vn 0.872263 -0.468053 0.141714
vt 1.127363 0.999500
v -5089.646973 -284.755096 7996.232910
vn 0.397183 -0.878361 0.265946
vt 1.137793 1.035179
v -5089.647461 -129.582748 7823.818848
vn 0.409106 -0.843028 -0.349194
vt 0.448827 0.392964
v -5081.026367 -245.658783 8039.336426
vn 0.888496 -0.216529 0.404586
vt 1.310035 0.873370
v -5081.026367 -177.736023 8039.336426
vn 0.879466 -0.182143 0.439731
vt 1.310035 0.592257
v -5089.646973 -181.306839 8047.957031
vn 0.409107 -0.349194 0.843028
vt 1.344483 0.607036
v -5081.026855 -34.755100 7694.250000
vn 0.860070 0.448748 -0.242702
vt 0.000999 0.000499
v -5081.026855 -120.961990 7694.250000
vn 0.927439 -0.269023 -0.259777
vt 0.000999 0.357285
v -5089.647461 -129.582687 7685.025879
vn 0.615991 -0.731416 -0.292550
vt -0.033449 0.392964
v -5089.646973 -250.272354 8047.957031
vn 0.425215 -0.427076 0.797997
vt 1.344483 0.892465
v -5081.026367 -120.962021 8229.250000
vn 0.940037 -0.215265 0.264559
vt 1.999001 0.357286
v -5081.026367 -120.962067 8096.110352
vn 0.899361 -0.395122 0.187158
vt 1.536904 0.357286
v -5081.026367 -34.755123 8229.250000
vn 0.860070 0.448749 0.242701
vt 1.999001 0.000500
v -5089.646973 -129.582748 8099.681152
vn 0.409106 -0.843028 0.349193
vt 1.551173 0.392964
v -5089.646973 -129.582703 8238.474609
vn 0.618757 -0.304323 0.724242
vt 2.033449 0.392964
v -5089.646973 -26.134434 8238.474609
vn 0.615991 0.731416 0.292550
vt 2.033449 -0.035179
v -5149.681641 -26.134434 8238.474609
vn -0.615992 0.731416 0.292550
vt 1.924196 -0.396556
v -5149.682129 -26.134409 7685.025879
vn -0.615991 0.731417 -0.292550
vt -0.142703 -0.396556
v -5158.302734 -34.755100 7694.250000
vn -0.860070 0.448749 -0.242700
vt -0.108254 -0.360878
v -5158.302246 -34.755123 8229.250000
vn -0.860070 0.448748 0.242702
vt 1.889747 -0.360877
v -5158.302246 -120.962021 8229.250000
vn -0.927439 -0.269022 0.259777
vt 1.889747 -0.004091
v -5149.681641 -129.582703 8238.474609
vn -0.618758 -0.304323 0.724242
vt 1.924196 0.031587
v -5158.302246 -120.962067 8096.110352
vn -0.906030 -0.378490 0.189356
vt 1.427650 -0.004091
v -5149.681641 -129.582748 8099.681152
vn -0.409106 -0.843028 0.349194
vt 1.441919 0.031587
v -5158.302246 -177.736023 8039.336426
vn -0.879465 -0.182143 0.439733
vt 1.200781 0.230880
v -5149.681641 -181.306839 8047.957031
vn -0.409106 -0.349193 0.843028
vt 1.235229 0.245659
v -5158.302246 -245.658783 8039.336426
vn -0.888495 -0.216529 0.404589
vt 1.200781 0.511993
v -5149.681641 -250.272354 8047.957031
vn -0.425214 -0.427075 0.797997
vt 1.235229 0.531087
v -5158.302246 -276.134430 7993.622559
vn -0.872264 -0.468052 0.141715
vt 1.018109 0.638123
v -5149.681641 -284.755127 7996.232910
vn -0.397182 -0.878361 0.265947
vt 1.028539 0.673802
v -5158.302734 -276.134430 7929.877441
vn -0.872264 -0.468052 -0.141714
vt 0.763383 0.638123
v -5149.681641 -284.755127 7927.267578
vn -0.397183 -0.878361 -0.265946
vt 0.752953 0.673802
v -5158.302734 -245.658768 7884.164063
vn -0.888496 -0.216529 -0.404587
vt 0.580711 0.511993
v -5149.681641 -250.272339 7875.543457
vn -0.425216 -0.427075 -0.797997
vt 0.546263 0.531087
v -5158.302734 -177.736008 7884.164063
vn -0.879465 -0.182144 -0.439732
vt 0.580712 0.230880
v -5149.681641 -181.306824 7875.543457
vn -0.409106 -0.349194 -0.843028
vt 0.546263 0.245659
v -5158.302734 -120.962051 7827.390137
vn -0.939519 -0.270962 -0.209482
vt 0.353842 -0.004092
v -5149.682129 -129.582748 7823.819336
vn -0.409106 -0.843028 -0.349193
vt 0.339574 0.031587
v -5158.302734 -120.961990 7694.250000
vn -0.951733 -0.137673 -0.274320
vt -0.108254 -0.004092
v -5149.682129 -129.582687 7685.025879
vn -0.615991 -0.731416 -0.292550
vt -0.142703 0.031587
v -5089.647461 -26.134409 7685.025879
vn 0.615991 0.731416 -0.292551
vt -0.033449 -0.035179
f 168/168/168 169/169/169 166/166/166
f 167/167/167 166/166/166 169/169/169
f 166/166/166 167/167/167 164/164/164
f 165/165/165 164/164/164 167/167/167
f 164/164/164 165/165/165 162/162/162
f 163/163/163 162/162/162 165/165/165
f 162/162/162 163/163/163 160/160/160
f 161/161/161 160/160/160 163/163/163
f 160/160/160 161/161/161 159/159/159
f 156/156/156 159/159/159 161/161/161
f 159/159/159 156/156/156 158/158/158
f 157/157/157 158/158/158 156/156/156
f 158/158/158 157/157/157 178/178/178
f 179/179/179 178/178/178 157/157/157
f 178/178/178 179/179/179 176/176/176
f 177/177/177 176/176/176 179/179/179
f 176/176/176 177/177/177 174/174/174
f 175/175/175 174/174/174 177/177/177
f 159/159/159 162/162/162 160/160/160
f 162/162/162 159/159/159 178/178/178
f 158/158/158 178/178/178 159/159/159
f 178/178/178 176/176/176 162/162/162
f 174/174/174 162/162/162 176/176/176
f 162/162/162 174/174/174 164/164/164
f 172/172/172 164/164/164 174/174/174
f 164/164/164 172/172/172 166/166/166
f 170/170/170 166/166/166 172/172/172
f 166/166/166 170/170/170 168/168/168
f 171/171/171 168/168/168 170/170/170
f 168/168/168 171/171/171 169/169/169
f 174/174/174 175/175/175 172/172/172
f 173/173/173 172/172/172 175/175/175
f 172/172/172 173/173/173 170/170/170
f 171/171/171 170/170/170 173/173/173
f 146/146/146 180/180/180 152/152/152
f 155/155/155 152/152/152 180/180/180
f 152/152/152 155/155/155 150/150/150
f 154/154/154 150/150/150 155/155/155
f 150/150/150 154/154/154 151/151/151
f 153/153/153 151/151/151 154/154/154
f 151/151/151 153/153/153 144/144/144
f 145/145/145 144/144/144 153/153/153
f 144/144/144 145/145/145 143/143/143
f 149/149/149 143/143/143 145/145/145
f 143/143/143 149/149/149 140/140/140
f 141/141/141 140/140/140 149/149/149
f 140/140/140 141/141/141 137/137/137
f 133/133/133 137/137/137 141/141/141
f 137/137/137 133/133/133 135/135/135
f 134/134/134 135/135/135 133/133/133
f 135/135/135 134/134/134 136/136/136
f 138/138/138 136/136/136 134/134/134
f 135/135/135 140/140/140 137/137/137
f 140/140/140 135/135/135 143/143/143
f 136/136/136 143/143/143 135/135/135
f 150/150/150 146/146/146 152/152/152
f 146/146/146 150/150/150 139/139/139
f 151/151/151 139/139/139 150/150/150
f 139/139/139 151/151/151 136/136/136
f 144/144/144 136/136/136 151/151/151
f 136/136/136 144/144/144 143/143/143
f 136/136/136 138/138/138 139/139/139
f 142/142/142 139/139/139 138/138/138
f 139/139/139 142/142/142 147/147/147
f 148/148/148 147/147/147 142/142/142
f 139/139/139 147/147/147 146/146/146
f 148/148/148 146/146/146 147/147/147
f 146/146/146 148/148/148 180/180/180
