mtllib OVERHILL_A_01_LINE342.mtl
g Line342
usemtl Roots
v -7654.434082 -343.218750 -6445.513184
vn 0.010925 0.925416 -0.378795
vt 0.500000 0.702123
v -7607.382324 -336.506592 -6435.529785
vn -0.130629 0.988467 -0.076608
vt 0.500000 1.000000
v -7608.000000 -345.407593 -6439.666992
vn 0.204834 -0.055758 -0.977207
vt 0.000000 1.000000
v -7653.748535 -351.247742 -6448.823242
vn 0.079303 -0.366707 -0.926950
vt 0.000000 0.702123
v -7654.937500 -346.927094 -6437.459473
vn -0.118871 0.363073 0.924147
vt 1.000000 0.702123
v -7610.299316 -340.298096 -6426.936523
vn -0.234978 0.055329 0.970425
vt 1.000000 1.000000
v -7654.251953 -354.956085 -6440.769531
vn -0.055837 -0.921861 0.383476
vt 1.500000 0.702123
v -7610.916992 -349.199097 -6431.073730
vn 0.110051 -0.991379 0.071112
vt 1.500000 1.000000
v -7653.748535 -351.247742 -6448.823242
vn 0.079303 -0.366707 -0.926950
vt 2.000000 0.702123
v -7608.000000 -345.407593 -6439.666992
vn 0.204834 -0.055758 -0.977207
vt 2.000000 1.000000
v -7688.225586 -343.547516 -6443.056152
vn -0.163233 0.893239 -0.418903
vt 0.500000 0.496684
v -7686.277344 -350.253693 -6446.212402
vn -0.310186 -0.453394 -0.835595
vt 0.000000 0.496684
v -7684.896973 -345.862488 -6436.257324
vn 0.230517 0.430729 0.872545
vt 1.000000 0.496684
v -7682.949219 -352.568665 -6439.413086
vn 0.070530 -0.889318 0.451818
vt 1.500000 0.496684
v -7686.277344 -350.253693 -6446.212402
vn -0.310186 -0.453394 -0.835595
vt 2.000000 0.496684
v -7714.754395 -349.063507 -6427.786133
vn -0.560513 0.762765 -0.322514
vt 0.560510 0.254818
v -7713.068848 -353.506165 -6430.188965
vn -0.533411 -0.684733 -0.496602
vt 0.121019 0.254818
v -7710.475098 -349.359314 -6424.378418
vn 0.478541 0.662482 0.576296
vt 1.000000 0.254818
v -7708.789551 -353.801971 -6426.781250
vn 0.471833 -0.789543 0.392422
vt 1.439490 0.254818
v -7713.068848 -353.506165 -6430.188965
vn -0.533411 -0.684733 -0.496602
vt 1.878981 0.254818
v -7727.105957 -359.320007 -6393.840332
vn -0.922077 0.299991 -0.244499
vt 0.795082 0.000000
v -7726.083008 -361.800873 -6395.340332
vn -0.280254 -0.907097 -0.314060
vt 0.590164 0.000000
v -7724.384766 -359.047180 -6392.435547
vn 0.248906 0.889137 0.384032
vt 1.000000 0.000000
v -7723.361816 -361.528046 -6393.935547
vn 0.887421 -0.336894 0.314622
vt 1.204918 0.000000
v -7726.083008 -361.800873 -6395.340332
vn -0.280254 -0.907097 -0.314060
vt 1.409836 0.000000
f 10/10/10 8/8/8 9/9/9
f 7/7/7 9/9/9 8/8/8
f 9/9/9 7/7/7 15/15/15
f 14/14/14 15/15/15 7/7/7
f 15/15/15 14/14/14 20/20/20
f 19/19/19 20/20/20 14/14/14
f 20/20/20 19/19/19 25/25/25
f 24/24/24 25/25/25 19/19/19
f 8/8/8 6/6/6 7/7/7
f 5/5/5 7/7/7 6/6/6
f 7/7/7 5/5/5 14/14/14
f 13/13/13 14/14/14 5/5/5
f 14/14/14 13/13/13 19/19/19
f 18/18/18 19/19/19 13/13/13
f 19/19/19 18/18/18 24/24/24
f 23/23/23 24/24/24 18/18/18
f 21/21/21 23/23/23 16/16/16
f 18/18/18 16/16/16 23/23/23
f 16/16/16 18/18/18 11/11/11
f 13/13/13 11/11/11 18/18/18
f 11/11/11 13/13/13 1/1/1
f 5/5/5 1/1/1 13/13/13
f 1/1/1 5/5/5 2/2/2
f 6/6/6 2/2/2 5/5/5
f 22/22/22 21/21/21 17/17/17
f 16/16/16 17/17/17 21/21/21
f 17/17/17 16/16/16 12/12/12
f 11/11/11 12/12/12 16/16/16
f 12/12/12 11/11/11 4/4/4
f 1/1/1 4/4/4 11/11/11
f 4/4/4 1/1/1 3/3/3
f 2/2/2 3/3/3 1/1/1
