mtllib OVERHILL_A_01_OBJECT219.mtl
g Object219
usemtl 8_-_Default
v -11072.433594 -1339.093872 12996.291992
vn -1.000000 0.000000 0.000000
vt 0.004828 0.999500
v -11072.433594 -1339.093872 13175.185547
vn -1.000000 0.000000 0.000000
vt 0.999500 0.999500
v -11072.433594 -1248.868286 13174.407227
vn -0.988308 0.152473 0.000000
vt 0.995172 0.000500
v -11072.433594 -1248.868286 12995.513672
vn -0.988308 0.152473 -0.000001
vt 0.000499 0.000500
v -11072.433594 -1339.093872 13175.185547
vn 0.000000 0.004314 0.999991
vt 0.000500 0.999500
v -10893.540039 -1339.093872 13175.185547
vn 0.000000 0.004314 0.999991
vt 0.999500 0.999500
v -10893.540039 -1248.868286 13174.407227
vn 0.000000 0.156736 0.987641
vt 0.999500 0.000500
v -11072.433594 -1248.868286 13174.407227
vn 0.000000 0.156736 0.987641
vt 0.000500 0.000500
v -10893.540039 -1339.093872 13175.185547
vn 1.000000 0.000000 0.000000
vt 0.000499 0.999500
v -10893.540039 -1339.093872 12996.291992
vn 1.000000 0.000000 0.000000
vt 0.995172 0.999500
v -10893.540039 -1248.868286 12995.513672
vn 0.988308 0.152473 0.000000
vt 0.999500 0.000500
v -10893.540039 -1248.868286 13174.407227
vn 0.988308 0.152473 0.000000
vt 0.004828 0.000500
v -10893.540039 -1339.093872 12996.291992
vn 0.000000 -0.004315 -0.999991
vt 0.000500 0.999500
v -11072.433594 -1339.093872 12996.291992
vn 0.000001 -0.004314 -0.999991
vt 0.999500 0.999500
v -11072.433594 -1248.868286 12995.513672
vn 0.000000 0.148208 -0.988956
vt 0.999500 0.000500
v -10893.540039 -1248.868286 12995.513672
vn -0.000001 0.148206 -0.988956
vt 0.000500 0.000500
f 3/3/3 1/1/1 2/2/2
f 1/1/1 3/3/3 4/4/4
f 7/7/7 5/5/5 6/6/6
f 5/5/5 7/7/7 8/8/8
f 11/11/11 9/9/9 10/10/10
f 9/9/9 11/11/11 12/12/12
f 15/15/15 13/13/13 14/14/14
f 13/13/13 15/15/15 16/16/16
usemtl Lvl_dwarven_plc_stone03
v -10893.540039 -1248.868286 12995.513672
vn -0.000001 0.148206 -0.988956
vt 0.000499 0.999500
v -11072.433594 -1248.868286 12995.513672
vn 0.000000 0.148208 -0.988956
vt 0.999501 0.999500
v -11058.174805 -1203.755493 13009.772461
vn -0.455230 0.765200 -0.455231
vt 0.919873 0.000500
v -11028.107422 -1203.755493 13009.772461
vn -0.220703 0.568072 -0.792833
vt 0.751966 0.000500
v -10937.881836 -1203.755493 13009.772461
vn 0.108260 0.557559 -0.823048
vt 0.248118 0.000500
v -10907.798828 -1203.755493 13009.772461
vn 0.455229 0.765202 -0.455229
vt 0.080127 0.000500
v -10907.798828 -1203.755493 13130.073242
vn 0.823045 0.557559 0.108277
vt 0.248076 0.000499
v -10907.798828 -1203.755493 13160.148438
vn 0.455229 0.765202 0.455228
vt 0.080127 0.000499
v -10893.540039 -1248.868286 13174.407227
vn 0.988308 0.152473 0.000000
vt 0.000499 0.999500
v -10907.798828 -1203.755493 13039.847656
vn 0.792845 0.568069 -0.220668
vt 0.751924 0.000500
v -10907.798828 -1203.755493 13009.772461
vn 0.455229 0.765202 -0.455229
vt 0.919873 0.000500
v -10893.540039 -1248.868286 12995.513672
vn 0.988308 0.152473 0.000000
vt 0.999500 0.999500
v -11028.099609 -1203.755493 13160.148438
vn -0.108260 0.557559 0.823048
vt 0.248076 0.000500
v -11058.174805 -1203.755493 13160.148438
vn -0.455229 0.765202 0.455228
vt 0.080127 0.000500
v -11072.433594 -1248.868286 13174.407227
vn 0.000000 0.156736 0.987641
vt 0.000499 0.999500
v -10937.874023 -1203.755493 13160.148438
vn 0.220633 0.568065 0.792858
vt 0.751924 0.000500
v -10907.798828 -1203.755493 13160.148438
vn 0.455229 0.765202 0.455228
vt 0.919873 0.000500
v -10893.540039 -1248.868286 13174.407227
vn 0.000000 0.156736 0.987641
vt 0.999500 0.999501
v -11058.174805 -1203.755493 13039.855469
vn -0.823051 0.557557 -0.108245
vt 0.248118 0.000500
v -11058.174805 -1203.755493 13009.772461
vn -0.455230 0.765200 -0.455231
vt 0.080127 0.000500
v -11072.433594 -1248.868286 12995.513672
vn -0.988308 0.152473 -0.000001
vt 0.000500 0.999500
v -11058.174805 -1203.755493 13130.081055
vn -0.851761 0.413740 0.321437
vt 0.751966 0.000500
v -11058.174805 -1203.755493 13160.148438
vn -0.455229 0.765202 0.455228
vt 0.919873 0.000500
v -11072.433594 -1248.868286 13174.407227
vn -0.988308 0.152473 0.000000
vt 0.999500 0.999501
f 28/28/28 27/27/27 25/25/25
f 25/25/25 23/23/23 24/24/24
f 23/23/23 25/25/25 26/26/26
f 27/27/27 26/26/26 25/25/25
f 19/19/19 17/17/17 18/18/18
f 17/17/17 19/19/19 20/20/20
f 21/21/21 17/17/17 20/20/20
f 17/17/17 21/21/21 22/22/22
f 31/31/31 29/29/29 30/30/30
f 29/29/29 31/31/31 32/32/32
f 33/33/33 32/32/32 31/31/31
f 34/34/34 33/33/33 31/31/31
f 37/37/37 35/35/35 36/36/36
f 35/35/35 37/37/37 38/38/38
f 39/39/39 38/38/38 37/37/37
f 40/40/40 39/39/39 37/37/37
usemtl Lvl_dwarven_plc_stone06
v -11028.107422 -1203.755493 13009.772461
vn -0.220703 0.568072 -0.792833
vt 0.999500 0.200250
v -11058.174805 -1203.755493 13009.772461
vn -0.455230 0.765200 -0.455231
vt 0.999501 0.000500
v -11058.174805 -1203.755493 13039.855469
vn -0.823051 0.557557 -0.108245
vt 0.799650 0.000500
v -10937.874023 -1203.755493 13160.148438
vn 0.220633 0.568065 0.792858
vt 0.000500 0.799700
v -10907.798828 -1203.755493 13160.148438
vn 0.455229 0.765202 0.455228
vt 0.000500 0.999500
v -10907.798828 -1203.755493 13130.073242
vn 0.823045 0.557559 0.108277
vt 0.200300 0.999500
v -10907.798828 -1203.755493 13039.847656
vn 0.792845 0.568069 -0.220668
vt 0.799700 0.999501
v -10907.798828 -1203.755493 13009.772461
vn 0.455229 0.765202 -0.455229
vt 0.999500 0.999500
v -10937.881836 -1203.755493 13009.772461
vn 0.108260 0.557559 -0.823048
vt 0.999500 0.799650
v -11058.174805 -1203.755493 13130.081055
vn -0.851761 0.413740 0.321437
vt 0.200250 0.000500
v -11058.174805 -1203.755493 13160.148438
vn -0.455229 0.765202 0.455228
vt 0.000500 0.000500
v -11028.099609 -1203.755493 13160.148438
vn -0.108260 0.557559 0.823048
vt 0.000500 0.200300
f 41/41/41 42/42/42 43/43/43
f 44/44/44 45/45/45 46/46/46
f 47/47/47 48/48/48 49/49/49
f 50/50/50 51/51/51 52/52/52
usemtl Lvl_dwarven_plc_stone01
v -11058.174805 -1070.328125 13039.855469
vn -0.923927 -0.000001 -0.382568
vt 0.914001 0.746027
v -11028.107422 -1070.328125 13009.772461
vn -0.382799 0.000001 -0.923832
vt 0.836022 0.746027
v -11028.107422 -1203.755493 13009.772461
vn -0.220703 0.568072 -0.792833
vt 0.836022 1.247626
v -11058.174805 -1203.755493 13039.855469
vn -0.823051 0.557557 -0.108245
vt 0.914001 1.247626
v -10937.874023 -1203.755493 13160.148438
vn 0.220633 0.568065 0.792858
vt 0.336010 1.247626
v -10907.798828 -1203.755493 13130.073242
vn 0.823045 0.557559 0.108277
vt 0.413990 1.247626
v -10907.798828 -1070.328125 13130.073242
vn 0.923879 0.000001 0.382684
vt 0.413990 0.746027
v -10937.874023 -1070.328125 13160.148438
vn 0.382683 -0.000001 0.923880
vt 0.336010 0.746027
v -10907.798828 -1203.755493 13039.847656
vn 0.792845 0.568069 -0.220668
vt 0.586010 1.247626
v -10937.881836 -1203.755493 13009.772461
vn 0.108260 0.557559 -0.823048
vt 0.664001 1.247626
v -10937.881836 -1070.328125 13009.772461
vn 0.382626 0.000001 -0.923904
vt 0.664001 0.746027
v -10907.798828 -1070.328125 13039.847656
vn 0.923855 0.000001 -0.382741
vt 0.586010 0.746027
v -11058.174805 -1203.755493 13130.081055
vn -0.851761 0.413740 0.321437
vt 0.086022 1.247626
v -11028.099609 -1203.755493 13160.148438
vn -0.108260 0.557559 0.823048
vt 0.163989 1.247626
v -11028.099609 -1070.328125 13160.148438
vn -0.382626 -0.000001 0.923904
vt 0.163990 0.746027
v -11058.174805 -1070.328125 13130.081055
vn -0.923855 -0.000001 0.382741
vt 0.086022 0.746027
v -11058.174805 -1203.755493 13130.081055
vn -0.851761 0.413740 0.321437
vt 1.086022 1.247626
v -11058.174805 -1070.328125 13130.081055
vn -0.923855 -0.000001 0.382741
vt 1.086022 0.746027
v -11058.174805 -942.375854 13039.855469
vn -0.862944 0.000000 -0.505300
vt 0.914001 0.746027
v -11028.107422 -942.375854 13009.772461
vn -0.252800 0.000001 -0.967519
vt 0.836022 0.746027
v -11028.107422 -1070.328125 13009.772461
vn -0.382799 0.000001 -0.923832
vt 0.836022 1.247626
v -11058.174805 -1070.328125 13039.855469
vn -0.923927 -0.000001 -0.382568
vt 0.914001 1.247626
v -10937.874023 -1070.328125 13160.148438
vn 0.382683 -0.000001 0.923880
vt 0.336010 1.247626
v -10907.798828 -1070.328125 13130.073242
vn 0.923879 0.000001 0.382684
vt 0.413990 1.247626
v -10907.798828 -942.375854 13130.073242
vn 0.862856 0.000000 0.505450
vt 0.413990 0.746027
v -10937.874023 -942.375854 13160.148438
vn 0.252725 -0.000001 0.967538
vt 0.336010 0.746027
v -10907.798828 -1070.328125 13039.847656
vn 0.923855 0.000001 -0.382741
vt 0.586010 1.247626
v -10937.881836 -1070.328125 13009.772461
vn 0.382626 0.000001 -0.923904
vt 0.664001 1.247626
v -10937.881836 -942.375854 13009.772461
vn 0.505375 0.000001 -0.862900
vt 0.664001 0.746027
v -10907.798828 -942.375854 13039.847656
vn 0.967529 0.000001 -0.252762
vt 0.586010 0.746027
v -11058.174805 -1070.328125 13130.081055
vn -0.923855 -0.000001 0.382741
vt 0.086022 1.247626
v -11028.099609 -1070.328125 13160.148438
vn -0.382626 -0.000001 0.923904
vt 0.163989 1.247626
v -11028.099609 -942.375854 13160.148438
vn -0.505375 -0.000001 0.862900
vt 0.163990 0.746027
v -11058.174805 -942.375854 13130.081055
vn -0.967529 -0.000001 0.252762
vt 0.086022 0.746027
v -11058.174805 -1070.328125 13130.081055
vn -0.923855 -0.000001 0.382741
vt 1.086022 1.247626
v -11058.174805 -942.375854 13130.081055
vn -0.967529 -0.000001 0.252762
vt 1.086022 0.746027
f 68/68/68 65/65/65 67/67/67
f 66/66/66 67/67/67 65/65/65
f 67/67/67 66/66/66 60/60/60
f 57/57/57 60/60/60 66/66/66
f 60/60/60 57/57/57 59/59/59
f 58/58/58 59/59/59 57/57/57
f 59/59/59 58/58/58 64/64/64
f 61/61/61 64/64/64 58/58/58
f 64/64/64 61/61/61 63/63/63
f 62/62/62 63/63/63 61/61/61
f 63/63/63 62/62/62 54/54/54
f 55/55/55 54/54/54 62/62/62
f 54/54/54 55/55/55 53/53/53
f 56/56/56 53/53/53 55/55/55
f 53/53/53 56/56/56 70/70/70
f 69/69/69 70/70/70 56/56/56
f 86/86/86 83/83/83 85/85/85
f 84/84/84 85/85/85 83/83/83
f 85/85/85 84/84/84 78/78/78
f 75/75/75 78/78/78 84/84/84
f 78/78/78 75/75/75 77/77/77
f 76/76/76 77/77/77 75/75/75
f 77/77/77 76/76/76 82/82/82
f 79/79/79 82/82/82 76/76/76
f 82/82/82 79/79/79 81/81/81
f 80/80/80 81/81/81 79/79/79
f 81/81/81 80/80/80 72/72/72
f 73/73/73 72/72/72 80/80/80
f 72/72/72 73/73/73 71/71/71
f 74/74/74 71/71/71 73/73/73
f 71/71/71 74/74/74 88/88/88
f 87/87/87 88/88/88 74/74/74
