mtllib OVERHILL_A_01_OBJECT68.mtl
g Object68
usemtl Material_#44425
v -6921.774414 -1005.089233 13677.897461
vn -0.766743 -0.629420 -0.126234
vt 0.080093 0.245370
v -6891.688965 -1031.076050 13624.745117
vn -0.840698 -0.486373 -0.238051
vt 0.080093 0.002560
v -6874.479980 -1044.400269 13641.000000
vn -0.403805 -0.891086 0.207139
vt 0.000000 0.002560
v -6904.561523 -1018.410828 13694.154297
vn -0.220703 -0.919681 0.324771
vt 0.000000 0.245370
v -6922.047852 -953.381531 13652.459961
vn -0.863626 0.029532 -0.503268
vt 0.250000 0.245370
v -6891.962402 -979.367859 13599.307617
vn -0.825312 0.155072 -0.542967
vt 0.250000 0.002560
v -6905.016602 -932.231506 13651.758789
vn -0.454601 0.671215 -0.585499
vt 0.330085 0.245370
v -6874.931152 -958.219971 13598.607422
vn -0.296306 0.781093 -0.549633
vt 0.330085 0.002560
v -6853.650391 -920.482910 13675.088867
vn 0.220665 0.919688 -0.324779
vt 0.499990 0.245370
v -6823.564941 -946.471436 13621.937500
vn 0.446441 0.877282 -0.176255
vt 0.499990 0.002560
v -6836.437500 -933.800476 13691.343750
vn 0.766705 0.629476 0.126186
vt 0.580085 0.245370
v -6806.352051 -959.791199 13638.193359
vn 0.861232 0.424022 0.280150
vt 0.580085 0.002560
v -6836.164063 -985.508179 13716.781250
vn 0.863628 -0.029492 0.503266
vt 0.749989 0.245370
v -6806.078613 -1011.498474 13663.629883
vn 0.803982 -0.208368 0.556953
vt 0.749989 0.002560
v -6853.194824 -1006.662170 13717.484375
vn 0.454665 -0.671162 0.585509
vt 0.830093 0.245370
v -6823.113770 -1032.651611 13664.331055
vn 0.229831 -0.816657 0.529385
vt 0.830093 0.002560
v -6904.561523 -1018.410828 13694.154297
vn -0.220703 -0.919681 0.324771
vt 1.000000 0.245370
v -6874.479980 -1044.400269 13641.000000
vn -0.403805 -0.891086 0.207139
vt 1.000000 0.002560
v -6880.371094 -1040.853027 13604.749023
vn -0.313523 -0.724353 -0.614017
vt 0.080093 -0.088786
v -6867.222656 -1050.669434 13628.178711
vn -0.148470 -0.986782 -0.064941
vt 0.000000 -0.056013
v -6882.187500 -1013.547729 13594.998047
vn -0.416445 -0.498397 -0.760377
vt 0.165046 -0.076320
v -6790.081055 -975.395813 13562.781250
vn 0.349716 0.729679 -0.587594
vt 0.499990 -0.219847
v -6847.374023 -982.024719 13549.921875
vn -0.054233 -0.065001 -0.996410
vt 0.330085 -0.219847
v -6776.927734 -985.208496 13586.209961
vn 0.915928 -0.223211 -0.333546
vt 0.580085 -0.187080
v -6809.929688 -1044.040405 13641.038086
vn 0.495137 -0.818329 0.291851
vt 0.830093 -0.056013
v -6788.834473 -1026.394409 13633.165039
vn 0.658099 -0.565425 -0.497192
vt 0.749989 -0.088780
v -6867.222656 -1050.669434 13628.178711
vn -0.148470 -0.986782 -0.064941
vt 1.000000 -0.056013
v -6790.651367 -999.089539 13623.415039
vn 0.910196 -0.410419 -0.055676
vt 0.665037 -0.076313
v -6868.463867 -999.666382 13557.792969
vn -0.385625 -0.493046 -0.779871
vt 0.250000 -0.187088
v -6788.834473 -1026.394409 13633.165039
vn 0.658099 -0.565425 -0.497192
vt 0.547080 0.097583
v -6809.929688 -1044.040405 13641.038086
vn 0.495137 -0.818329 0.291851
vt 0.588908 0.169511
v -6867.222656 -1050.669434 13628.178711
vn -0.148470 -0.986782 -0.064941
vt 0.714365 0.169511
v -6880.371094 -1040.853027 13604.749023
vn -0.313523 -0.724353 -0.614017
vt 0.756173 0.097568
v -6868.463867 -999.666382 13557.792969
vn -0.385625 -0.493046 -0.779871
vt 0.756173 -0.118218
v -6776.927734 -985.208496 13586.209961
vn 0.915928 -0.223211 -0.333546
vt 0.547080 -0.118200
v -6790.651367 -999.089539 13623.415039
vn 0.910196 -0.410419 -0.055676
vt 0.547080 -0.010309
v -6882.187500 -1013.547729 13594.998047
vn -0.416445 -0.498397 -0.760377
vt 0.756173 -0.010325
v -6847.374023 -982.024719 13549.921875
vn -0.054233 -0.065001 -0.996410
vt 0.714354 -0.190129
v -6790.081055 -975.395813 13562.781250
vn 0.349716 0.729679 -0.587594
vt 0.588899 -0.190129
v -6964.728027 -966.432861 13800.458984
vn -0.599470 -0.015913 0.800239
vt 0.529338 0.235693
v -6913.361328 -954.684143 13823.790039
vn 0.063954 -0.637191 0.768048
vt 0.601439 0.235693
v -6896.334961 -933.529358 13823.083984
vn 0.364117 0.001901 0.931351
vt 0.625466 0.195548
v -6896.607910 -881.821228 13797.646484
vn 0.437039 0.572673 0.693572
vt 0.625466 0.075139
v -6913.821289 -868.505798 13781.392578
vn 0.099581 0.941402 0.322251
vt 0.601432 0.035013
v -6965.187500 -880.254395 13758.062500
vn -0.450580 0.892050 0.034986
vt 0.529332 0.035013
v -6982.218750 -901.406677 13758.764648
vn -0.891226 0.453559 -0.000026
vt 0.505299 0.075150
v -6981.945313 -953.113892 13784.201172
vn -0.963530 -0.267538 0.005717
vt 0.505299 0.195557
v -6896.334961 -933.529358 13823.083984
vn 0.364117 0.001901 0.931351
vt 0.080093 -0.244850
v -6913.361328 -954.684143 13823.790039
vn 0.063954 -0.637191 0.768048
vt 0.000000 -0.244850
v -6853.194824 -1006.662170 13717.484375
vn 0.454665 -0.671162 0.585509
vt 0.000000 0.246795
v -6836.164063 -985.508179 13716.781250
vn 0.863628 -0.029492 0.503266
vt 0.080093 0.246795
v -6896.607910 -881.821228 13797.646484
vn 0.437039 0.572673 0.693572
vt 0.250000 -0.244850
v -6836.437500 -933.800476 13691.343750
vn 0.766705 0.629476 0.126186
vt 0.250000 0.246795
v -6913.361328 -954.684143 13823.790039
vn 0.063954 -0.637191 0.768048
vt 1.000000 -0.244850
v -6964.728027 -966.432861 13800.458984
vn -0.599470 -0.015913 0.800239
vt 0.830093 -0.244850
v -6904.561523 -1018.410828 13694.154297
vn -0.220703 -0.919681 0.324771
vt 0.830093 0.246795
v -6853.194824 -1006.662170 13717.484375
vn 0.454665 -0.671162 0.585509
vt 1.000000 0.246795
v -6913.821289 -868.505798 13781.392578
vn 0.099581 0.941402 0.322251
vt 0.330085 -0.244850
v -6853.650391 -920.482910 13675.088867
vn 0.220665 0.919688 -0.324779
vt 0.330085 0.246795
v -6965.187500 -880.254395 13758.062500
vn -0.450580 0.892050 0.034986
vt 0.499990 -0.244850
v -6905.016602 -932.231506 13651.758789
vn -0.454601 0.671215 -0.585499
vt 0.499990 0.246795
v -6982.218750 -901.406677 13758.764648
vn -0.891226 0.453559 -0.000026
vt 0.580085 -0.244850
v -6922.047852 -953.381531 13652.459961
vn -0.863626 0.029532 -0.503268
vt 0.580085 0.246795
v -6981.945313 -953.113892 13784.201172
vn -0.963530 -0.267538 0.005717
vt 0.749989 -0.244850
v -6921.774414 -1005.089233 13677.897461
vn -0.766743 -0.629420 -0.126234
vt 0.749989 0.246795
f 30/30/30 31/31/31 32/32/32
f 35/35/35 38/38/38 39/39/39
f 38/38/38 35/35/35 34/34/34
f 36/36/36 34/34/34 35/35/35
f 34/34/34 36/36/36 37/37/37
f 30/30/30 37/37/37 36/36/36
f 37/37/37 30/30/30 33/33/33
f 32/32/32 33/33/33 30/30/30
f 25/25/25 26/26/26 14/14/14
f 28/28/28 14/14/14 26/26/26
f 14/14/14 28/28/28 12/12/12
f 24/24/24 12/12/12 28/28/28
f 12/12/12 24/24/24 10/10/10
f 22/22/22 10/10/10 24/24/24
f 10/10/10 22/22/22 8/8/8
f 23/23/23 8/8/8 22/22/22
f 8/8/8 23/23/23 29/29/29
f 16/16/16 25/25/25 14/14/14
f 25/25/25 16/16/16 27/27/27
f 18/18/18 27/27/27 16/16/16
f 16/16/16 17/17/17 18/18/18
f 17/17/17 16/16/16 15/15/15
f 14/14/14 15/15/15 16/16/16
f 15/15/15 14/14/14 13/13/13
f 12/12/12 13/13/13 14/14/14
f 13/13/13 12/12/12 11/11/11
f 10/10/10 11/11/11 12/12/12
f 11/11/11 10/10/10 9/9/9
f 8/8/8 9/9/9 10/10/10
f 9/9/9 8/8/8 7/7/7
f 6/6/6 7/7/7 8/8/8
f 7/7/7 6/6/6 5/5/5
f 2/2/2 5/5/5 6/6/6
f 5/5/5 2/2/2 1/1/1
f 3/3/3 1/1/1 2/2/2
f 1/1/1 3/3/3 4/4/4
f 20/20/20 3/3/3 2/2/2
f 8/8/8 29/29/29 6/6/6
f 21/21/21 6/6/6 29/29/29
f 6/6/6 21/21/21 2/2/2
f 19/19/19 2/2/2 21/21/21
f 2/2/2 19/19/19 20/20/20
f 57/57/57 54/54/54 56/56/56
f 55/55/55 56/56/56 54/54/54
f 56/56/56 55/55/55 65/65/65
f 64/64/64 65/65/65 55/55/55
f 65/65/65 64/64/64 63/63/63
f 62/62/62 63/63/63 64/64/64
f 63/63/63 62/62/62 61/61/61
f 60/60/60 61/61/61 62/62/62
f 61/61/61 60/60/60 59/59/59
f 58/58/58 59/59/59 60/60/60
f 59/59/59 58/58/58 53/53/53
f 52/52/52 53/53/53 58/58/58
f 53/53/53 52/52/52 51/51/51
f 48/48/48 51/51/51 52/52/52
f 51/51/51 48/48/48 50/50/50
f 49/49/49 50/50/50 48/48/48
f 42/42/42 40/40/40 41/41/41
f 40/40/40 42/42/42 43/43/43
f 44/44/44 40/40/40 43/43/43
f 40/40/40 44/44/44 45/45/45
f 46/46/46 40/40/40 45/45/45
f 40/40/40 46/46/46 47/47/47
