mtllib OVERHILL_A_01_LINE94.mtl
g Line94
usemtl waterin
v -9253.125977 -1132.733276 -6884.577637
vn -0.901028 0.020249 -0.433287
vt 0.000000 0.619633
v -9192.458008 -1132.733276 -7008.712891
vn -0.960794 0.021913 -0.276395
vt 0.312748 0.619633
v -9202.660156 -1954.602783 -7008.712891
vn -0.944517 0.010644 -0.328289
vt 0.312748 1.349405
v -9260.424805 -1954.602783 -6884.577637
vn -0.906614 0.008052 -0.421884
vt 0.000000 1.349405
v -9182.355469 -1132.733276 -7098.511230
vn -0.998906 0.019931 -0.042295
vt 0.552536 0.619633
v -9192.557617 -1954.602783 -7098.511230
vn -0.997773 0.012386 -0.065538
vt 0.552536 1.349405
v -9184.600586 -1132.733276 -7180.452148
vn -0.993365 0.019853 0.113280
vt 0.770052 0.619633
v -9194.802734 -1954.602783 -7180.452148
vn -0.996334 0.012368 0.084654
vt 0.770052 1.349405
v -9211.935547 -1132.733276 -7315.516602
vn -0.979890 0.022025 0.198318
vt 1.000000 0.619633
v -9222.137695 -1954.602783 -7315.516602
vn -0.980055 0.012166 0.198352
vt 1.000000 1.349405
v -9245.965820 -977.983276 -6884.577637
vn -0.903624 0.026752 -0.427490
vt 0.000000 0.355688
v -9188.201172 -977.983276 -7008.712891
vn -0.962547 0.020645 -0.270328
vt 0.312748 0.355688
v -9178.098633 -977.983276 -7098.511230
vn -0.998877 0.021337 -0.042300
vt 0.552536 0.355688
v -9180.343750 -977.983276 -7180.452148
vn -0.993338 0.021192 0.113269
vt 0.770052 0.355688
v -9207.678711 -977.983276 -7315.516602
vn -0.980450 0.023508 0.195361
vt 1.000000 0.355688
v -9244.589844 -887.493225 -6884.577637
vn -0.904026 0.075935 -0.420679
vt 0.000000 0.222648
v -9186.825195 -887.493225 -7008.712891
vn -0.961163 0.080725 -0.263910
vt 0.312748 0.222648
v -9176.722656 -887.493225 -7098.511230
vn -0.998000 0.050864 -0.037534
vt 0.552536 0.222648
v -9178.967773 -887.493225 -7180.452148
vn -0.990883 0.073468 0.112927
vt 0.770052 0.222648
v -9205.035156 -887.493225 -7315.516602
vn -0.973982 0.126577 0.187980
vt 1.000000 0.222648
v -9234.116211 -840.816650 -6884.577637
vn -0.821585 0.439193 -0.363465
vt 0.000000 0.151566
v -9181.079102 -840.816650 -7008.712891
vn -0.887876 0.418290 -0.191597
vt 0.312748 0.151566
v -9173.502930 -840.816650 -7098.511230
vn -0.955589 0.293773 -0.023374
vt 0.552536 0.151566
v -9175.186523 -840.816650 -7180.452148
vn -0.895529 0.442910 0.043101
vt 0.770052 0.151566
v -9194.147461 -840.816650 -7315.516602
vn -0.883286 0.446589 0.142705
vt 1.000000 0.151566
v -9141.707031 -827.430054 -6884.577637
vn -0.003086 0.999995 -0.000276
vt 0.000000 0.017784
v -9141.707031 -827.430054 -7008.712891
vn -0.004517 0.999990 -0.000079
vt 0.312748 0.017784
v -9171.683594 -827.556885 -7008.712891
vn -0.477397 0.876216 -0.065863
vt 0.312748 0.097512
v -9207.041992 -827.556885 -6884.577637
vn -0.443991 0.883606 -0.148704
vt 0.000000 0.097512
v -9141.707031 -827.430054 -7098.511230
vn -0.005015 0.999987 0.000023
vt 0.552536 0.017784
v -9166.632813 -827.556885 -7098.511230
vn -0.516812 0.856090 -0.003857
vt 0.552536 0.097512
v -9141.707031 -827.430054 -7180.452148
vn -0.004869 0.999988 -0.000242
vt 0.770052 0.017784
v -9167.754883 -827.556885 -7180.452148
vn -0.333809 0.942640 0.000838
vt 0.770052 0.097512
v -9128.262695 -827.430054 -7315.516602
vn -0.004086 0.999992 -0.000256
vt 1.000000 0.017784
v -9166.658203 -827.556885 -7315.516602
vn -0.480675 0.876677 0.019739
vt 1.000000 0.097512
f 3/3/3 4/4/4 1/1/1
f 6/6/6 3/3/3 2/2/2
f 1/1/1 2/2/2 3/3/3
f 2/2/2 1/1/1 11/11/11
f 12/12/12 11/11/11 16/16/16
f 11/11/11 12/12/12 2/2/2
f 5/5/5 2/2/2 12/12/12
f 2/2/2 5/5/5 6/6/6
f 8/8/8 6/6/6 5/5/5
f 17/17/17 16/16/16 21/21/21
f 16/16/16 17/17/17 12/12/12
f 13/13/13 12/12/12 17/17/17
f 12/12/12 13/13/13 5/5/5
f 7/7/7 5/5/5 13/13/13
f 5/5/5 7/7/7 8/8/8
f 10/10/10 8/8/8 7/7/7
f 22/22/22 21/21/21 29/29/29
f 21/21/21 22/22/22 17/17/17
f 18/18/18 17/17/17 22/22/22
f 17/17/17 18/18/18 13/13/13
f 14/14/14 13/13/13 18/18/18
f 13/13/13 14/14/14 7/7/7
f 9/9/9 7/7/7 14/14/14
f 7/7/7 9/9/9 10/10/10
f 28/28/28 29/29/29 26/26/26
f 29/29/29 28/28/28 22/22/22
f 23/23/23 22/22/22 28/28/28
f 22/22/22 23/23/23 18/18/18
f 19/19/19 18/18/18 23/23/23
f 18/18/18 19/19/19 14/14/14
f 15/15/15 14/14/14 19/19/19
f 14/14/14 15/15/15 9/9/9
f 19/19/19 20/20/20 15/15/15
f 26/26/26 27/27/27 28/28/28
f 31/31/31 28/28/28 27/27/27
f 28/28/28 31/31/31 23/23/23
f 24/24/24 23/23/23 31/31/31
f 23/23/23 24/24/24 19/19/19
f 25/25/25 19/19/19 24/24/24
f 19/19/19 25/25/25 20/20/20
f 24/24/24 35/35/35 25/25/25
f 35/35/35 24/24/24 33/33/33
f 31/31/31 33/33/33 24/24/24
f 33/33/33 31/31/31 30/30/30
f 27/27/27 30/30/30 31/31/31
f 30/30/30 32/32/32 33/33/33
f 34/34/34 33/33/33 32/32/32
f 33/33/33 34/34/34 35/35/35
usemtl waterout
v -9255.721680 -1129.194092 -6884.577637
vn -0.901028 0.020249 -0.433287
vt 0.000000 0.619633
v -9195.053711 -1129.194092 -7008.712891
vn -0.960794 0.021913 -0.276395
vt 0.312748 0.619633
v -9205.255859 -1951.063599 -7008.712891
vn -0.944517 0.010644 -0.328289
vt 0.312748 1.349405
v -9263.020508 -1951.063599 -6884.577637
vn -0.906614 0.008052 -0.421884
vt 0.000000 1.349405
v -9184.951172 -1129.194092 -7098.511230
vn -0.998906 0.019931 -0.042295
vt 0.552536 0.619633
v -9195.153320 -1951.063599 -7098.511230
vn -0.997773 0.012386 -0.065538
vt 0.552536 1.349405
v -9187.196289 -1129.194092 -7180.452148
vn -0.993365 0.019853 0.113280
vt 0.770052 0.619633
v -9197.398438 -1951.063599 -7180.452148
vn -0.996334 0.012368 0.084654
vt 0.770052 1.349405
v -9214.531250 -1129.194092 -7315.516602
vn -0.979890 0.022025 0.198318
vt 1.000000 0.619633
v -9224.733398 -1951.063599 -7315.516602
vn -0.980055 0.012166 0.198352
vt 1.000000 1.349405
v -9248.561523 -974.444092 -6884.577637
vn -0.903624 0.026752 -0.427490
vt 0.000000 0.355688
v -9190.796875 -974.444092 -7008.712891
vn -0.962547 0.020645 -0.270328
vt 0.312748 0.355688
v -9180.694336 -974.444092 -7098.511230
vn -0.998877 0.021337 -0.042300
vt 0.552536 0.355688
v -9182.939453 -974.444092 -7180.452148
vn -0.993338 0.021192 0.113269
vt 0.770052 0.355688
v -9210.274414 -974.444092 -7315.516602
vn -0.980450 0.023508 0.195361
vt 1.000000 0.355688
v -9247.185547 -883.954041 -6884.577637
vn -0.904026 0.075935 -0.420679
vt 0.000000 0.222648
v -9189.420898 -883.954041 -7008.712891
vn -0.961163 0.080725 -0.263910
vt 0.312748 0.222648
v -9179.318359 -883.954041 -7098.511230
vn -0.998000 0.050864 -0.037534
vt 0.552536 0.222648
v -9181.563477 -883.954041 -7180.452148
vn -0.990883 0.073468 0.112927
vt 0.770052 0.222648
v -9207.630859 -883.954041 -7315.516602
vn -0.973982 0.126577 0.187980
vt 1.000000 0.222648
v -9236.711914 -837.277466 -6884.577637
vn -0.821585 0.439193 -0.363465
vt 0.000000 0.151566
v -9183.674805 -837.277466 -7008.712891
vn -0.887876 0.418290 -0.191597
vt 0.312748 0.151566
v -9176.098633 -837.277466 -7098.511230
vn -0.955589 0.293773 -0.023374
vt 0.552536 0.151566
v -9177.782227 -837.277466 -7180.452148
vn -0.895529 0.442910 0.043101
vt 0.770052 0.151566
v -9196.743164 -837.277466 -7315.516602
vn -0.883286 0.446589 0.142705
vt 1.000000 0.151566
v -9144.302734 -823.890869 -6884.577637
vn -0.003086 0.999995 -0.000276
vt 0.000000 0.017784
v -9144.302734 -823.890869 -7008.712891
vn -0.004517 0.999990 -0.000079
vt 0.312748 0.017784
v -9174.279297 -824.017700 -7008.712891
vn -0.477397 0.876216 -0.065863
vt 0.312748 0.097512
v -9209.637695 -824.017700 -6884.577637
vn -0.443991 0.883606 -0.148704
vt 0.000000 0.097512
v -9144.302734 -823.890869 -7098.511230
vn -0.005015 0.999987 0.000023
vt 0.552536 0.017784
v -9169.228516 -824.017700 -7098.511230
vn -0.516812 0.856090 -0.003857
vt 0.552536 0.097512
v -9144.302734 -823.890869 -7180.452148
vn -0.004869 0.999988 -0.000242
vt 0.770052 0.017784
v -9170.350586 -824.017700 -7180.452148
vn -0.333809 0.942640 0.000838
vt 0.770052 0.097512
v -9130.858398 -823.890869 -7315.516602
vn -0.004086 0.999992 -0.000256
vt 1.000000 0.017784
v -9169.253906 -824.017700 -7315.516602
vn -0.480675 0.876677 0.019739
vt 1.000000 0.097512
f 38/38/38 39/39/39 36/36/36
f 41/41/41 38/38/38 37/37/37
f 36/36/36 37/37/37 38/38/38
f 37/37/37 36/36/36 46/46/46
f 47/47/47 46/46/46 51/51/51
f 46/46/46 47/47/47 37/37/37
f 40/40/40 37/37/37 47/47/47
f 37/37/37 40/40/40 41/41/41
f 43/43/43 41/41/41 40/40/40
f 52/52/52 51/51/51 56/56/56
f 51/51/51 52/52/52 47/47/47
f 48/48/48 47/47/47 52/52/52
f 47/47/47 48/48/48 40/40/40
f 42/42/42 40/40/40 48/48/48
f 40/40/40 42/42/42 43/43/43
f 45/45/45 43/43/43 42/42/42
f 57/57/57 56/56/56 64/64/64
f 56/56/56 57/57/57 52/52/52
f 53/53/53 52/52/52 57/57/57
f 52/52/52 53/53/53 48/48/48
f 49/49/49 48/48/48 53/53/53
f 48/48/48 49/49/49 42/42/42
f 44/44/44 42/42/42 49/49/49
f 42/42/42 44/44/44 45/45/45
f 63/63/63 64/64/64 61/61/61
f 64/64/64 63/63/63 57/57/57
f 58/58/58 57/57/57 63/63/63
f 57/57/57 58/58/58 53/53/53
f 54/54/54 53/53/53 58/58/58
f 53/53/53 54/54/54 49/49/49
f 50/50/50 49/49/49 54/54/54
f 49/49/49 50/50/50 44/44/44
f 54/54/54 55/55/55 50/50/50
f 61/61/61 62/62/62 63/63/63
f 66/66/66 63/63/63 62/62/62
f 63/63/63 66/66/66 58/58/58
f 59/59/59 58/58/58 66/66/66
f 58/58/58 59/59/59 54/54/54
f 60/60/60 54/54/54 59/59/59
f 54/54/54 60/60/60 55/55/55
f 59/59/59 70/70/70 60/60/60
f 70/70/70 59/59/59 68/68/68
f 66/66/66 68/68/68 59/59/59
f 68/68/68 66/66/66 65/65/65
f 62/62/62 65/65/65 66/66/66
f 65/65/65 67/67/67 68/68/68
f 69/69/69 68/68/68 67/67/67
f 68/68/68 69/69/69 70/70/70
