mtllib OVERHILL_A_01_PLANE54.mtl
g Plane54
usemtl spike
v -8281.370117 -932.646851 16339.619141
vn -0.045234 0.590026 -0.806116
vt 1.000000 1.000000
v -8276.916992 -943.994019 16331.063477
vn -0.056025 0.000001 -0.998429
vt 0.000000 1.000000
v -8295.772461 -943.994019 16332.122070
vn -0.056025 0.000001 -0.998429
vt 0.500000 0.012882
v -8281.370117 -932.646851 16339.619141
vn -0.686277 0.590025 0.425316
vt 1.000000 1.000000
v -8295.772461 -943.994019 16332.122070
vn -0.850000 0.000000 0.526782
vt 0.500000 0.012882
v -8285.823242 -943.994019 16348.174805
vn -0.850000 0.000000 0.526782
vt 0.000000 1.000000
v -8281.370117 -955.341187 16339.619141
vn -0.686277 -0.590025 0.425316
vt 1.000000 1.000000
v -8281.370117 -955.341187 16339.619141
vn -0.045233 -0.590025 -0.806117
vt 1.000000 1.000000
f 1/1/1 2/2/2 3/3/3
f 8/8/8 3/3/3 2/2/2
f 4/4/4 5/5/5 6/6/6
f 7/7/7 6/6/6 5/5/5
