mtllib OVERHILL_A_01_ROCK76.mtl
g rock76
usemtl stone_01
v -3512.441162 124.560959 560.077515
vn -0.237114 0.690833 0.683028
vt 0.231043 0.471125
v -3506.433105 132.022385 545.728699
vn 0.181024 0.966427 -0.182346
vt 0.525353 0.490755
v -3514.477295 132.499985 543.330017
vn -0.296320 0.954678 -0.028012
vt 0.515050 0.366957
v -3519.982910 126.231438 552.277588
vn -0.758620 0.552940 0.344605
vt 0.341349 0.307367
v -3496.887451 122.364914 538.275208
vn 0.709710 0.524810 -0.469985
vt 0.759706 0.636767
v -3502.329102 124.035400 531.064575
vn 0.304367 0.526949 -0.793527
vt 0.777564 0.476440
v -3498.617432 131.544800 548.791016
vn 0.368624 0.912769 0.175982
vt 0.516792 0.628837
v -3502.188965 122.890472 560.005249
vn 0.319606 0.497843 0.806228
vt 0.268675 0.676530
v -3512.265381 109.378853 565.666687
vn -0.150257 0.329887 0.931986
vt 0.068569 0.510663
v -3497.053223 109.376579 563.954346
vn 0.344748 0.381633 0.857616
vt 0.213727 0.821157
v -3484.432129 109.381126 554.053101
vn 0.842207 0.480860 0.243846
vt 0.512252 0.911410
v -3490.353760 123.043114 551.636353
vn 0.792709 0.582347 0.180237
vt 0.518215 0.791359
v -3521.599854 126.060646 540.877441
vn -0.740350 0.587230 -0.327174
vt 0.515936 0.242524
v -3528.034668 109.381126 539.039612
vn -0.865474 0.323235 -0.382720
vt 0.512252 0.086626
v -3523.777344 109.381126 556.632324
vn -0.755406 0.300572 0.582252
vt 0.183676 0.209414
v -3512.040283 109.381126 530.367615
vn -0.232659 0.136791 -0.962891
vt 0.844143 0.237160
v -3510.877686 125.705887 532.876343
vn -0.254633 0.573727 -0.778459
vt 0.705073 0.349026
v -3498.541748 109.381126 529.816833
vn 0.522792 0.250210 -0.814913
vt 0.923011 0.539583
v -3488.606934 109.381126 539.615234
vn 0.766491 0.440606 -0.467288
vt 0.784704 0.814372
f 15/15/15 4/4/4 14/14/14
f 4/4/4 15/15/15 1/1/1
f 9/9/9 1/1/1 15/15/15
f 1/1/1 9/9/9 8/8/8
f 10/10/10 8/8/8 9/9/9
f 8/8/8 10/10/10 11/11/11
f 8/8/8 7/7/7 1/1/1
f 7/7/7 8/8/8 12/12/12
f 11/11/11 12/12/12 8/8/8
f 12/12/12 11/11/11 5/5/5
f 2/2/2 7/7/7 5/5/5
f 12/12/12 5/5/5 7/7/7
f 7/7/7 2/2/2 1/1/1
f 3/3/3 1/1/1 2/2/2
f 1/1/1 3/3/3 4/4/4
f 13/13/13 4/4/4 3/3/3
f 4/4/4 13/13/13 14/14/14
f 17/17/17 14/14/14 13/13/13
f 14/14/14 17/17/17 16/16/16
f 6/6/6 16/16/16 17/17/17
f 16/16/16 6/6/6 18/18/18
f 5/5/5 18/18/18 6/6/6
f 18/18/18 5/5/5 19/19/19
f 11/11/11 19/19/19 5/5/5
f 5/5/5 6/6/6 2/2/2
f 17/17/17 2/2/2 6/6/6
f 2/2/2 17/17/17 3/3/3
f 13/13/13 3/3/3 17/17/17
