mtllib OVERHILL_A_01_FOG_PLANEC_01.mtl
g Fog_PlaneC_01
usemtl Fog_Bank_TopV2
v 844.163696 -1100.441040 4596.857910
vn 0.000000 1.000000 0.000000
vt 0.853912 -3.330956
v -500.949493 -1100.441040 4596.677246
vn 0.000000 1.000000 0.000000
vt 0.097832 -3.331057
v -500.949219 -1100.441040 5795.071777
vn 0.000000 1.000000 0.000000
vt 0.097832 -2.657446
v 844.163940 -1100.441040 5795.071777
vn 0.000000 1.000000 0.000000
vt 0.853912 -2.657446
v -1846.063232 -1100.440918 2200.068848
vn 0.000000 1.000000 0.000000
vt -0.658248 -3.678178
v -1846.062988 -1100.440918 3398.282471
vn 0.000000 1.000000 0.000000
vt -0.658249 -3.004668
v -500.949799 -1100.440918 3398.282227
vn 0.000000 1.000000 0.000000
vt 0.097832 -3.004667
v -500.950073 -1100.440918 2200.068604
vn 0.000000 1.000000 0.000000
vt 0.097832 -3.678178
v -1846.062622 -1100.441040 4596.677246
vn 0.000000 1.000000 0.000000
vt -0.658249 -2.331058
v -500.949493 -1100.441040 4596.677246
vn 0.000000 1.000000 0.000000
vt 0.097832 -2.331057
v -1846.062378 -1100.441040 5795.072266
vn 0.000000 1.000000 0.000000
vt -0.658249 -2.657447
v -1846.062622 -1100.441040 4596.677246
vn 0.000000 1.000000 0.000000
vt -0.658249 -3.331058
v 844.163391 -1100.440918 3398.463135
vn 0.000000 1.000000 0.000000
vt 0.853912 -3.004567
v 844.163696 -1100.441040 4596.857910
vn 0.000000 1.000000 0.000000
vt 0.853912 -2.330956
v 844.163147 -1100.440918 2200.068359
vn 0.000000 1.000000 0.000000
vt 0.853913 -3.678178
f 12/12/12 11/11/11 2/2/2
f 3/3/3 2/2/2 11/11/11
f 2/2/2 3/3/3 1/1/1
f 4/4/4 1/1/1 3/3/3
f 7/7/7 6/6/6 9/9/9
f 6/6/6 7/7/7 5/5/5
f 8/8/8 5/5/5 7/7/7
f 9/9/9 10/10/10 7/7/7
f 7/7/7 15/15/15 8/8/8
f 15/15/15 7/7/7 13/13/13
f 10/10/10 13/13/13 7/7/7
f 13/13/13 10/10/10 14/14/14
