mtllib OVERHILL_A_01_LINE130.mtl
g Line130
usemtl Rock_wall1
v -8616.318359 -2377.774414 -13662.068359
vn -0.539095 -0.009371 -0.842193
vt 0.000000 2.506243
v -8716.423828 -2520.487061 -13586.221680
vn -0.177560 -0.016361 -0.983974
vt 0.196704 2.506243
v -8733.731445 -1548.708740 -13596.136719
vn -0.315008 0.019141 -0.948896
vt 0.196704 1.841826
v -8616.318359 -1469.472046 -13662.069336
vn -0.503298 -0.018448 -0.863916
vt 0.000000 1.814688
v -8909.405273 -1232.204834 -13541.600586
vn -0.198599 0.005818 -0.980064
vt 0.393408 1.284653
v -8743.860352 -1160.523438 -13596.349609
vn -0.391152 -0.035642 -0.919636
vt 0.196704 1.273023
v -8899.030273 -1627.945435 -13606.044922
vn 0.020917 0.044271 -0.998801
vt 0.393408 1.868963
v -8839.942383 -1053.222778 -13585.499023
vn -0.205344 -0.060081 -0.976844
vt 0.393408 1.000000
v -8710.126953 -957.805115 -13611.220703
vn -0.366598 -0.012812 -0.930291
vt 0.196704 1.000000
v -8607.818359 -862.387512 -13676.334961
vn -0.511860 0.020928 -0.858814
vt 0.000000 1.000000
v -8598.013672 -1088.842041 -13692.795898
vn -0.553514 0.008898 -0.832793
vt 0.000000 1.261392
v -8839.942383 -2663.199463 -13585.498047
vn 0.016012 -0.018927 -0.999693
vt 0.393408 2.506243
f 11/11/11 9/9/9 10/10/10
f 9/9/9 11/11/11 6/6/6
f 4/4/4 6/6/6 11/11/11
f 6/6/6 4/4/4 3/3/3
f 1/1/1 3/3/3 4/4/4
f 3/3/3 1/1/1 2/2/2
f 6/6/6 8/8/8 9/9/9
f 8/8/8 6/6/6 5/5/5
f 3/3/3 5/5/5 6/6/6
f 5/5/5 3/3/3 7/7/7
f 2/2/2 7/7/7 3/3/3
f 7/7/7 2/2/2 12/12/12
usemtl Rock_top_blend
v -8727.522461 -867.533630 -13609.676758
vn -0.393747 0.001953 -0.919217
vt 0.196704 0.000000
v -8616.318359 -783.821045 -13662.069336
vn -0.436117 0.052887 -0.898334
vt 0.000000 0.000000
v -8607.818359 -862.387512 -13676.334961
vn -0.511860 0.020928 -0.858814
vt 0.000000 1.000000
v -8710.126953 -957.805115 -13611.220703
vn -0.366598 -0.012812 -0.930291
vt 0.196704 1.000000
v -8839.942383 -1053.222778 -13585.499023
vn -0.205344 -0.060081 -0.976844
vt 0.393408 1.000000
v -8839.942383 -951.246216 -13585.499023
vn -0.127463 -0.005014 -0.991831
vt 0.393408 0.000000
f 14/14/14 15/15/15 13/13/13
f 16/16/16 13/13/13 15/15/15
f 13/13/13 16/16/16 18/18/18
f 17/17/17 18/18/18 16/16/16
