mtllib OVERHILL_A_01_LINE347.mtl
g Line347
usemtl wall_base_blend
v -4712.477051 236.394958 1562.533325
vn -0.036271 -0.223133 -0.974113
vt 0.005678 1.000000
v -4766.452637 236.394958 1563.585327
vn -0.423605 -0.230970 -0.875906
vt 0.100700 1.000000
v -4768.204102 321.532684 1545.106445
vn -0.306603 -0.110961 -0.945348
vt 0.100700 -0.000075
v -4698.938965 321.532684 1541.290527
vn -0.058916 -0.095630 -0.993672
vt 0.005678 -0.000075
v -4821.740723 236.394958 1657.543701
vn -0.966045 -0.145370 0.213597
vt 0.249756 1.000000
v -4794.462891 236.394989 1710.093140
vn -0.668322 -0.095184 0.737758
vt 0.398796 1.000000
v -4804.945801 321.532654 1711.581055
vn -0.740613 0.009962 0.671858
vt 0.398796 -0.000075
v -4836.010254 321.532684 1648.400146
vn -0.994484 -0.040300 0.096838
vt 0.249756 -0.000075
v -4736.634277 236.394989 1746.474854
vn -0.045673 -0.092981 0.994620
vt 0.559034 1.000000
v -4736.847168 321.532654 1754.424072
vn -0.045373 -0.025339 0.998649
vt 0.559034 -0.000075
v -4672.638184 236.394989 1713.977539
vn 0.035198 -0.002394 0.999378
vt 0.727373 1.000000
v -4661.485352 321.532654 1716.155273
vn 0.786102 -0.039988 0.616802
vt 0.727373 -0.000075
v -4658.861328 236.394989 1654.661133
vn 0.965519 -0.132219 0.224256
vt 0.870196 1.000000
v -4645.261230 321.532684 1646.304321
vn 0.972778 -0.051510 0.225942
vt 0.870196 -0.000075
v -4801.976074 236.394958 1595.313843
vn -0.870814 -0.235518 -0.431525
vt 0.175360 1.000000
v -4819.016602 321.532684 1579.598877
vn -0.832410 -0.097642 -0.545490
vt 0.175360 -0.000075
f 12/12/12 13/13/13 14/14/14
f 13/13/13 12/12/12 11/11/11
f 10/10/10 11/11/11 12/12/12
f 4/4/4 1/1/1 3/3/3
f 2/2/2 3/3/3 1/1/1
f 3/3/3 2/2/2 16/16/16
f 15/15/15 16/16/16 2/2/2
f 16/16/16 15/15/15 8/8/8
f 5/5/5 8/8/8 15/15/15
f 8/8/8 5/5/5 7/7/7
f 6/6/6 7/7/7 5/5/5
f 7/7/7 6/6/6 10/10/10
f 9/9/9 10/10/10 6/6/6
f 10/10/10 9/9/9 11/11/11
usemtl Rock_wall1
v -4815.190918 1132.088013 1645.134521
vn -0.999074 -0.040031 0.015770
vt 0.249756 -1.283413
v -4795.889648 1132.088013 1579.616577
vn -0.643831 -0.004675 -0.765153
vt 0.175360 -1.283413
v -4820.422852 902.463074 1568.586548
vn -0.770055 0.091892 -0.631324
vt 0.175360 -0.918414
v -4815.062988 902.463013 1717.498657
vn -0.764169 0.062983 0.641934
vt 0.398796 -0.918414
v -4745.090820 902.463013 1761.520508
vn -0.046212 0.063612 0.996904
vt 0.559034 -0.918414
v -4741.358398 1132.088013 1730.805664
vn -0.045693 -0.009963 0.998906
vt 0.559034 -1.283413
v -4683.570801 1132.088013 1701.461182
vn 0.787482 -0.005145 0.616316
vt 0.727373 -1.283413
v -4667.655273 902.463013 1722.198730
vn 0.784939 0.072507 0.615316
vt 0.727373 -0.918414
v -4671.130371 1132.088013 1647.899292
vn 0.973790 0.024046 0.226176
vt 0.870196 -1.283413
v -4841.231445 902.463074 1648.491455
vn -0.994199 0.082390 0.069135
vt 0.249756 -0.918414
v -4793.576660 1132.088013 1697.953613
vn -0.768477 -0.013522 0.639734
vt 0.398796 -1.283413
v -4650.984863 902.463074 1650.425903
vn 0.971288 0.075544 0.225595
vt 0.870196 -0.918414
v -4824.572266 1326.400513 1573.982300
vn -0.837484 -0.137694 -0.528829
vt 0.175360 -1.648413
v -4815.062988 1326.400513 1717.498779
vn -0.807296 -0.153145 0.569929
vt 0.398796 -1.648413
v -4846.818359 1326.400513 1652.378174
vn -0.982764 -0.163198 0.086843
vt 0.249756 -1.648413
v -4745.090820 1326.400513 1761.520508
vn -0.227310 -0.156301 0.961197
vt 0.559034 -1.648413
v -4667.655273 1326.400513 1722.198730
vn 0.677552 -0.132700 0.723405
vt 0.727373 -1.648413
v -4650.984863 1326.400513 1650.425903
vn 0.968853 -0.103372 0.225030
vt 0.870196 -1.648413
v -4836.057129 672.838074 1563.883789
vn -0.808654 -0.043845 -0.586649
vt 0.175360 -0.567716
v -4850.280273 672.838074 1639.256592
vn -0.990963 -0.076948 0.109869
vt 0.249756 -0.567716
v -4815.428711 672.838074 1713.068970
vn -0.743896 -0.092335 0.661886
vt 0.398796 -0.567716
v -4737.060059 672.838074 1762.373413
vn 0.036340 -0.084541 0.995757
vt 0.559034 -0.567716
v -4650.332031 672.838074 1718.333130
vn 0.872635 -0.010665 0.488257
vt 0.727373 -0.567716
v -4631.661621 672.838074 1637.947510
vn 0.974040 0.007996 0.226235
vt 0.870196 -0.567716
v -4751.905762 1132.088013 1560.403931
vn -0.114648 0.008139 -0.993373
vt 0.100700 -1.283413
v -4757.520020 902.463074 1539.083984
vn -0.163811 0.091754 -0.982215
vt 0.100700 -0.918414
v -4769.955078 672.838074 1526.627563
vn -0.277474 -0.016558 -0.960590
vt 0.100700 -0.567716
v -4763.031250 1326.400513 1546.301392
vn -0.152941 -0.091562 -0.983984
vt 0.100700 -1.648413
v -4689.469727 1132.088013 1571.867798
vn 0.103783 0.011675 -0.994531
vt 0.005678 -1.283413
v -4676.165039 902.463074 1540.257935
vn 0.014337 0.112167 -0.993586
vt 0.005678 -0.918414
v -4685.400879 672.838074 1520.047852
vn -0.046969 0.019470 -0.998707
vt 0.005678 -0.567716
v -4683.038086 1326.400513 1549.296997
vn 0.037167 -0.116515 -0.992493
vt 0.005678 -1.648413
v -4790.905762 497.185364 1694.951904
vn -0.744965 -0.023984 0.666673
vt 0.398796 -0.283896
v -4819.816406 497.185364 1634.867065
vn -0.992935 -0.043886 0.110249
vt 0.249756 -0.283896
v -4836.010254 321.532684 1648.400146
vn -0.994484 -0.040300 0.096838
vt 0.249756 -0.000075
v -4804.945801 321.532654 1711.581055
vn -0.740613 0.009962 0.671858
vt 0.398796 -0.000075
v -4806.124512 497.185364 1571.632813
vn -0.819845 -0.068922 -0.568423
vt 0.175360 -0.283896
v -4819.016602 321.532684 1579.598877
vn -0.832410 -0.097642 -0.545490
vt 0.175360 -0.000075
v -4726.665527 497.185364 1735.367432
vn -0.044232 0.022168 0.998775
vt 0.559034 -0.283896
v -4736.847168 321.532654 1754.424072
vn -0.045373 -0.025339 0.998649
vt 0.559034 -0.000075
v -4661.485352 321.532654 1716.155273
vn 0.786102 -0.039988 0.616802
vt 0.727373 -0.000075
v -4655.573730 497.185364 1699.266968
vn 0.787129 -0.041369 0.615400
vt 0.727373 -0.283896
v -4645.261230 321.532684 1646.304321
vn 0.972778 -0.051510 0.225942
vt 0.870196 -0.000075
v -4640.269043 497.185364 1633.373657
vn 0.973316 -0.039382 0.226066
vt 0.870196 -0.283896
v -4754.846191 497.185364 1540.164185
vn -0.295233 -0.060575 -0.953503
vt 0.100700 -0.283896
v -4687.381836 497.185364 1535.604614
vn -0.070657 -0.065808 -0.995328
vt 0.005678 -0.283896
v -4698.938965 321.532684 1541.290527
vn -0.058916 -0.095630 -0.993672
vt 0.005678 -0.000075
v -4768.204102 321.532684 1545.106445
vn -0.306603 -0.110961 -0.945348
vt 0.100700 -0.000075
f 45/45/45 46/46/46 42/42/42
f 45/45/45 44/44/44 48/48/48
f 44/44/44 45/45/45 41/41/41
f 42/42/42 41/41/41 45/45/45
f 41/41/41 42/42/42 18/18/18
f 19/19/19 18/18/18 42/42/42
f 18/18/18 19/19/19 17/17/17
f 26/26/26 17/17/17 19/19/19
f 17/17/17 26/26/26 27/27/27
f 20/20/20 27/27/27 26/26/26
f 27/27/27 20/20/20 22/22/22
f 21/21/21 22/22/22 20/20/20
f 22/22/22 21/21/21 23/23/23
f 24/24/24 23/23/23 21/21/21
f 23/23/23 24/24/24 25/25/25
f 28/28/28 25/25/25 24/24/24
f 18/18/18 44/44/44 41/41/41
f 44/44/44 18/18/18 29/29/29
f 17/17/17 29/29/29 18/18/18
f 17/17/17 31/31/31 29/29/29
f 31/31/31 17/17/17 30/30/30
f 27/27/27 30/30/30 17/17/17
f 30/30/30 27/27/27 32/32/32
f 22/22/22 32/32/32 27/27/27
f 32/32/32 22/22/22 33/33/33
f 23/23/23 33/33/33 22/22/22
f 33/33/33 23/23/23 34/34/34
f 25/25/25 34/34/34 23/23/23
f 46/46/46 47/47/47 42/42/42
f 43/43/43 42/42/42 47/47/47
f 42/42/42 43/43/43 19/19/19
f 35/35/35 19/19/19 43/43/43
f 19/19/19 35/35/35 26/26/26
f 36/36/36 26/26/26 35/35/35
f 26/26/26 36/36/36 20/20/20
f 37/37/37 20/20/20 36/36/36
f 20/20/20 37/37/37 21/21/21
f 38/38/38 21/21/21 37/37/37
f 21/21/21 38/38/38 24/24/24
f 39/39/39 24/24/24 38/38/38
f 24/24/24 39/39/39 28/28/28
f 40/40/40 28/28/28 39/39/39
f 60/60/60 40/40/40 39/39/39
f 59/59/59 60/60/60 58/58/58
f 39/39/39 58/58/58 60/60/60
f 58/58/58 39/39/39 38/38/38
f 47/47/47 62/62/62 43/43/43
f 61/61/61 43/43/43 62/62/62
f 43/43/43 61/61/61 35/35/35
f 53/53/53 35/35/35 61/61/61
f 35/35/35 53/53/53 36/36/36
f 50/50/50 36/36/36 53/53/53
f 36/36/36 50/50/50 37/37/37
f 49/49/49 37/37/37 50/50/50
f 37/37/37 49/49/49 38/38/38
f 55/55/55 38/38/38 49/49/49
f 38/38/38 55/55/55 58/58/58
f 57/57/57 58/58/58 55/55/55
f 58/58/58 57/57/57 59/59/59
f 62/62/62 63/63/63 61/61/61
f 64/64/64 61/61/61 63/63/63
f 61/61/61 64/64/64 53/53/53
f 54/54/54 53/53/53 64/64/64
f 53/53/53 54/54/54 50/50/50
f 51/51/51 50/50/50 54/54/54
f 50/50/50 51/51/51 49/49/49
f 52/52/52 49/49/49 51/51/51
f 49/49/49 52/52/52 55/55/55
f 56/56/56 55/55/55 52/52/52
f 55/55/55 56/56/56 57/57/57
