mtllib OVERHILL_A_01_LINE404.mtl
g Line404
usemtl Stone_Moss_Blend
v -10893.540039 -2349.395996 13175.185547
vn 0.000000 0.000000 1.000000
vt 0.750001 2.692932
v -10893.540039 -1456.998291 13175.185547
vn 0.000000 0.000000 1.000000
vt 0.750001 -1.497923
v -11072.433594 -1456.998291 13175.185547
vn 0.000000 0.000000 1.000000
vt 0.000000 -1.497923
v -11072.433594 -2349.395996 13175.185547
vn 0.000000 0.000000 1.000000
vt 0.000000 2.692932
v -10893.540039 -2349.395996 12996.291992
vn 1.000000 0.000000 0.000000
vt 1.500000 2.692932
v -10893.540039 -1456.998291 12996.291992
vn 1.000000 0.000000 0.000000
vt 1.500000 -1.497923
v -10893.540039 -1456.998291 13175.185547
vn 1.000000 0.000000 0.000000
vt 0.750001 -1.497923
v -10893.540039 -2349.395996 13175.185547
vn 1.000000 0.000000 0.000000
vt 0.750001 2.692932
v -11072.434570 -2349.395996 12996.291992
vn 0.000000 0.000000 -1.000000
vt 2.250001 2.692932
v -11072.434570 -1456.998291 12996.291992
vn 0.000000 0.000000 -1.000000
vt 2.250001 -1.497923
v -10893.540039 -1456.998291 12996.291992
vn 0.000000 0.000000 -1.000000
vt 1.500000 -1.497923
v -10893.540039 -2349.395996 12996.291992
vn 0.000000 0.000000 -1.000000
vt 1.500000 2.692932
v -11072.433594 -2349.395996 13175.185547
vn -1.000000 0.000000 0.000000
vt 3.000000 2.692932
v -11072.433594 -1456.998291 13175.185547
vn -1.000000 0.000000 0.000000
vt 3.000000 -1.497923
v -11072.434570 -1456.998291 12996.291992
vn -1.000000 0.000000 0.000000
vt 2.250001 -1.497923
v -11072.434570 -2349.395996 12996.291992
vn -1.000000 0.000000 0.000000
vt 2.250001 2.692932
v -10893.540039 -1339.093872 13175.185547
vn 0.000000 0.004314 0.999991
vt 0.750001 -2.000000
v -11072.433594 -1339.093872 13175.185547
vn 0.000000 0.004314 0.999991
vt 0.000000 -2.000000
v -10893.540039 -1339.093872 12996.291992
vn 1.000000 0.000000 0.000000
vt 1.500000 -2.000000
v -10893.540039 -1339.093872 13175.185547
vn 1.000000 0.000000 0.000000
vt 0.750001 -2.000000
v -11072.434570 -1339.093872 12996.291992
vn 0.000001 -0.004314 -0.999991
vt 2.250001 -2.000000
v -10893.540039 -1339.093872 12996.291992
vn 0.000000 -0.004315 -0.999991
vt 1.500000 -2.000000
v -11072.433594 -1339.093872 13175.185547
vn -1.000000 0.000000 0.000000
vt 3.000000 -2.000000
v -11072.434570 -1339.093872 12996.291992
vn -1.000000 0.000000 0.000000
vt 2.250001 -2.000000
f 7/7/7 8/8/8 5/5/5
f 5/5/5 6/6/6 7/7/7
f 19/19/19 7/7/7 6/6/6
f 7/7/7 19/19/19 20/20/20
f 1/1/1 3/3/3 4/4/4
f 3/3/3 1/1/1 2/2/2
f 3/3/3 17/17/17 18/18/18
f 17/17/17 3/3/3 2/2/2
f 9/9/9 11/11/11 12/12/12
f 11/11/11 9/9/9 10/10/10
f 11/11/11 21/21/21 22/22/22
f 21/21/21 11/11/11 10/10/10
f 13/13/13 14/14/14 15/15/15
f 23/23/23 15/15/15 14/14/14
f 15/15/15 23/23/23 24/24/24
f 15/15/15 16/16/16 13/13/13
