mtllib OVERHILL_A_01_LINE24.mtl
g Line24
usemtl Ground_Grass_Blend
v -4563.108887 -1012.702942 -13168.196289
vn 0.000000 1.000000 0.000000
vt 3.121084 3.592281
v -4518.513184 -1012.702942 -13110.833984
vn 0.000000 1.000000 0.000000
vt 2.898106 3.305471
v -4518.164063 -1012.702942 -13187.031250
vn 0.000000 1.000000 0.000000
vt 2.896360 3.686457
v -4555.957520 -1012.702942 -13215.919922
vn 0.000000 1.000000 0.000000
vt 3.085327 3.830900
v -4666.873047 -1012.702942 -12889.973633
vn 0.000000 1.000000 0.000000
vt 3.639906 3.201170
v -4606.770020 -1012.702942 -12824.543945
vn 0.000000 1.000000 0.000000
vt 3.339390 2.874020
v -4577.404297 -1012.702942 -12931.151367
vn 0.000000 1.000000 0.000000
vt 3.192562 3.407059
v -4648.393555 -1012.702942 -13058.828125
vn 0.000000 1.000000 0.000000
vt 3.547506 3.045444
v -4666.873047 -1012.702942 -12889.973633
vn 0.000000 1.000000 0.000000
vt 3.639906 2.201170
v -4577.404297 -1012.702942 -12931.151367
vn 0.000000 1.000000 0.000000
vt 3.192562 2.407059
v -4582.381348 -1012.702942 -13042.265625
vn 0.000000 1.000000 0.000000
vt 3.217445 2.962627
v -4607.704590 -1012.702942 -13225.557617
vn 0.000000 1.000000 0.000000
vt 3.344063 3.879089
v -4487.935547 -1012.702942 -12972.329102
vn 0.000000 1.000000 0.000000
vt 2.745218 3.612946
v -4516.369141 -1012.702942 -13025.702148
vn 0.000000 1.000000 0.000000
vt 2.887386 3.879812
v -4582.381348 -1012.702942 -13042.265625
vn 0.000000 1.000000 0.000000
vt 3.217445 3.962627
v -4560.798340 -1012.702942 -12808.576172
vn 0.000000 1.000000 0.000000
vt 3.109531 2.794182
v -4472.105469 -1012.702942 -12897.932617
vn 0.000000 1.000000 0.000000
vt 2.666067 3.240963
v -4516.369141 -1012.702942 -13025.702148
vn 0.000000 1.000000 0.000000
vt 2.887386 2.879812
f 10/10/10 8/8/8 9/9/9
f 8/8/8 10/10/10 11/11/11
f 18/18/18 2/2/2 11/11/11
f 1/1/1 11/11/11 2/2/2
f 11/11/11 1/1/1 8/8/8
f 12/12/12 8/8/8 1/1/1
f 1/1/1 4/4/4 12/12/12
f 4/4/4 1/1/1 3/3/3
f 2/2/2 3/3/3 1/1/1
f 17/17/17 13/13/13 7/7/7
f 14/14/14 7/7/7 13/13/13
f 7/7/7 14/14/14 15/15/15
f 5/5/5 6/6/6 7/7/7
f 16/16/16 7/7/7 6/6/6
f 7/7/7 16/16/16 17/17/17
