mtllib OVERHILL_A_01_LINE144.mtl
g Line144
usemtl Lvl_dwarven_plc_stone02
v -5921.647949 -1348.936890 12790.515625
vn 1.000000 0.000000 -0.000002
vt 0.593002 0.000000
v -5921.647949 -1559.436890 12790.515625
vn 1.000000 0.000000 -0.000001
vt 0.593002 1.000000
v -5921.647949 -1559.437012 12650.515625
vn 1.000000 0.000000 -0.000001
vt 0.000000 1.000000
v -5921.647949 -1348.937012 12650.515625
vn 1.000000 0.000000 -0.000000
vt 0.000000 0.000000
v -5991.647949 -1348.936890 12790.515625
vn -0.000000 -0.000000 1.000000
vt 0.889504 0.000000
v -5991.647949 -1559.436890 12790.515625
vn 0.000000 0.000000 1.000000
vt 0.889504 1.000000
v -5921.647949 -1559.436890 12790.515625
vn 0.000000 0.000000 1.000000
vt 0.593002 1.000000
v -5921.647949 -1348.936890 12790.515625
vn -0.000000 -0.000000 1.000000
vt 0.593002 0.000000
v -5991.634766 -1348.937012 13150.529297
vn 1.000000 0.000000 -0.000035
vt 2.414423 0.000000
v -5991.634766 -1559.437012 13150.529297
vn 1.000000 0.000000 -0.000037
vt 2.414423 1.000000
v -5991.647949 -1559.436890 12790.515625
vn 1.000000 0.000000 -0.000037
vt 0.889504 1.000000
v -5991.647949 -1348.936890 12790.515625
vn 1.000000 0.000000 -0.000040
vt 0.889504 0.000000
v -5991.647949 -1348.936890 13510.541992
vn 0.561914 -0.000001 -0.827195
vt 3.939336 0.000000
v -5991.647949 -1559.436890 13510.541992
vn 1.000000 0.000000 0.000036
vt 3.939336 1.000000
v -5921.647949 -1348.936890 13510.541992
vn 0.000000 -0.000001 -1.000000
vt 3.235837 0.000000
v -5921.647949 -1559.436890 13510.541992
vn 0.000000 0.000000 -1.000000
vt 3.235837 1.000000
v -5991.647949 -1559.436890 13510.541992
vn 0.000000 0.000000 -1.000000
vt 2.939336 1.000000
v -5991.647949 -1348.936890 13510.541992
vn 0.561914 -0.000001 -0.827195
vt 2.939336 0.000000
v -5921.647949 -1348.936768 13650.541992
vn 1.000000 0.000000 0.000000
vt 3.828838 0.000000
v -5921.647949 -1559.436768 13650.541992
vn 1.000000 0.000000 0.000000
vt 3.828838 1.000000
v -5921.647949 -1559.436890 13510.541992
vn 1.000000 0.000000 0.000000
vt 3.235837 1.000000
v -5921.647949 -1348.936890 13510.541992
vn 1.000000 0.000000 0.000000
vt 3.235837 0.000000
v -6041.647949 -1348.936768 13650.541992
vn -0.000003 0.000000 1.000000
vt 3.337126 0.000000
v -6041.647949 -1559.436768 13650.541992
vn 0.000000 0.000000 1.000000
vt 3.337126 1.000000
v -5921.647949 -1559.436768 13650.541992
vn 0.000000 0.000000 1.000000
vt 2.828838 1.000000
v -5921.647949 -1348.936768 13650.541992
vn 0.000000 0.000000 1.000000
vt 2.828838 0.000000
v -6041.647949 -1348.936646 13920.541992
vn 1.000000 0.000000 0.000000
vt 3.480771 0.000000
v -6041.647949 -1559.436646 13920.541992
vn 1.000000 0.000000 0.000000
vt 3.480771 1.000000
v -6041.647949 -1559.436768 13650.541992
vn 1.000000 0.000000 0.000000
vt 2.337126 1.000000
v -6041.647949 -1348.936768 13650.541992
vn 1.000000 0.000000 0.000000
vt 2.337126 0.000000
v -6381.647949 -1348.936646 13920.541992
vn -0.000003 0.000000 1.000000
vt 3.920918 0.000000
v -6381.647949 -1559.436646 13920.541992
vn 0.000000 0.000000 1.000000
vt 3.920918 1.000000
v -6041.647949 -1559.436646 13920.541992
vn 0.000000 0.000000 1.000000
vt 2.480771 1.000000
v -6041.647949 -1348.936646 13920.541992
vn -0.000003 0.000000 1.000000
vt 2.480771 0.000000
v -6381.647949 -1348.936646 13780.541992
vn -0.561906 -0.000001 0.827201
vt 3.513920 0.000000
v -6381.647949 -1559.436646 13780.541992
vn -1.000000 0.000000 0.000000
vt 3.513920 1.000000
v -6381.647949 -1559.436646 13920.541992
vn -1.000000 0.000000 0.000000
vt 2.920918 1.000000
v -6381.647949 -1348.936646 13920.541992
vn -1.000000 0.000000 0.000000
vt 2.920918 0.000000
v -6381.647949 -1348.936646 13780.541992
vn -0.561906 -0.000001 0.827201
vt 2.513920 0.000000
v -6606.254395 -1348.936768 13780.541992
vn -0.000000 -0.000001 1.000000
vt 3.465290 0.000000
v -6604.039551 -1559.436768 13780.541992
vn -0.000001 0.000000 1.000000
vt 3.455909 1.000000
v -6381.647949 -1559.436646 13780.541992
vn -0.000001 0.000000 1.000000
vt 2.513920 1.000000
v -6727.970703 -1559.436768 13780.541992
vn -1.000000 0.000000 0.000000
vt 2.980847 1.000000
v -6727.970703 -1408.922241 13780.541992
vn -1.000000 0.000000 0.000000
vt 2.980846 0.284967
v -6727.970703 -1408.932739 13760.541992
vn -0.894433 0.000000 0.447202
vt 3.065561 0.285016
v -6727.970703 -1559.436890 13760.541992
vn -0.707130 0.000000 0.707083
vt 3.065561 1.000000
v -6968.322266 -1408.937134 13760.525391
vn 0.970147 0.000000 0.242517
vt 3.083625 0.285036
v -6968.321777 -1408.936890 13780.541992
vn 1.000000 0.000000 -0.000024
vt 3.168283 0.285036
v -6968.321777 -1559.436890 13780.541992
vn 1.000000 0.000000 -0.000024
vt 3.168283 1.000000
v -6968.322266 -1559.437134 13760.525391
vn 0.447170 0.000000 0.894449
vt 3.083625 1.000000
v -6968.321777 -1559.436890 13780.541992
vn 0.000001 0.000000 1.000000
vt 3.168283 1.000000
v -6968.321777 -1408.936890 13780.541992
vn 0.000001 0.000000 1.000000
vt 3.168283 0.285036
v -7145.654297 -1559.437134 13780.541992
vn 0.000001 0.000000 1.000000
vt 3.919415 1.000000
v -7145.654297 -1348.937134 13850.534180
vn 1.000000 -0.000002 0.000001
vt 3.215915 0.000000
v -7145.654297 -1559.437134 13850.534180
vn 1.000000 0.000000 0.000002
vt 3.215915 1.000000
v -7145.654297 -1559.437134 13780.541992
vn 1.000000 0.000000 0.000002
vt 2.919415 1.000000
v -7145.654297 -1348.937134 13780.541992
vn 1.000000 -0.000002 0.000001
vt 2.919415 0.000000
v -7285.654297 -1348.937134 13850.534180
vn -0.000000 0.000000 1.000000
vt 3.808915 0.000000
v -7285.654297 -1559.437134 13850.534180
vn -0.000001 0.000000 1.000000
vt 3.808915 1.000000
v -7145.654297 -1559.437134 13850.534180
vn -0.000001 0.000000 1.000000
vt 3.215915 1.000000
v -7145.654297 -1348.937134 13850.534180
vn -0.000001 0.000000 1.000000
vt 3.215915 0.000000
v -7285.654297 -1348.937012 13730.534180
vn -1.000000 0.000000 -0.000003
vt 3.317199 0.000000
v -7285.654297 -1559.437012 13730.534180
vn -1.000000 0.000000 0.000001
vt 3.317199 1.000000
v -7285.654297 -1559.437134 13850.534180
vn -1.000000 0.000000 0.000001
vt 2.808915 1.000000
v -7285.654297 -1348.937134 13850.534180
vn -1.000000 0.000000 0.000000
vt 2.808915 0.000000
v -7682.941406 -1348.937256 13730.534180
vn -0.000000 0.000000 1.000000
vt 4.000000 0.000000
v -7682.941406 -1559.437256 13730.534180
vn -0.000001 0.000000 1.000000
vt 4.000000 1.000000
v -7285.654297 -1559.437012 13730.534180
vn -0.000001 0.000000 1.000000
vt 2.317199 1.000000
v -7285.654297 -1348.937012 13730.534180
vn -0.000000 0.000000 1.000000
vt 2.317199 0.000000
v -6727.970703 -1408.932739 13760.541992
vn -0.894433 0.000000 0.447202
vt 2.065561 0.285016
v -6727.970703 -1559.436890 13760.541992
vn -0.707130 0.000000 0.707083
vt 2.065561 1.000000
v -6727.970703 -1408.922241 13780.541992
vn -0.000179 -0.000242 1.000000
vt 3.980846 0.284967
v -6727.970703 -1348.936768 13780.541992
vn -1.000000 0.000000 0.000000
vt 2.980847 0.000000
v -6727.970703 -1348.936890 13760.541992
vn -1.000000 0.000000 0.000000
vt 3.065561 0.000000
v -6727.970703 -1348.936768 13780.541992
vn -0.000033 0.000001 1.000000
vt 3.980847 0.000000
v -6727.970703 -1559.436768 13780.541992
vn -0.000001 0.000000 1.000000
vt 3.980847 1.000000
v -7145.654297 -1348.937134 13780.541992
vn 0.000000 0.000000 1.000000
vt 3.919415 0.000000
v -6968.321777 -1348.936890 13780.541992
vn 0.000001 0.000000 1.000000
vt 3.168283 0.000000
v -6968.322266 -1348.937134 13760.525391
vn 1.000000 0.000000 -0.000007
vt 3.083625 0.000000
v -6968.321777 -1348.936890 13780.541992
vn 1.000000 0.000000 -0.000024
vt 3.168283 0.000000
f 7/7/7 5/5/5 6/6/6
f 5/5/5 7/7/7 8/8/8
f 10/10/10 13/13/13 14/14/14
f 13/13/13 10/10/10 9/9/9
f 11/11/11 9/9/9 10/10/10
f 9/9/9 11/11/11 12/12/12
f 75/75/75 72/72/72 40/40/40
f 41/41/41 40/40/40 72/72/72
f 40/40/40 41/41/41 39/39/39
f 42/42/42 39/39/39 41/41/41
f 72/72/72 76/76/76 41/41/41
f 48/48/48 49/49/49 47/47/47
f 50/50/50 47/47/47 49/49/49
f 47/47/47 50/50/50 70/70/70
f 71/71/71 70/70/70 50/50/50
f 80/80/80 47/47/47 79/79/79
f 47/47/47 80/80/80 48/48/48
f 43/43/43 44/44/44 45/45/45
f 73/73/73 45/45/45 44/44/44
f 45/45/45 73/73/73 74/74/74
f 45/45/45 46/46/46 43/43/43
f 78/78/78 77/77/77 52/52/52
f 53/53/53 52/52/52 77/77/77
f 52/52/52 53/53/53 51/51/51
f 17/17/17 15/15/15 16/16/16
f 15/15/15 17/17/17 18/18/18
f 21/21/21 19/19/19 20/20/20
f 19/19/19 21/21/21 22/22/22
f 25/25/25 23/23/23 24/24/24
f 23/23/23 25/25/25 26/26/26
f 29/29/29 27/27/27 28/28/28
f 27/27/27 29/29/29 30/30/30
f 33/33/33 31/31/31 32/32/32
f 31/31/31 33/33/33 34/34/34
f 37/37/37 35/35/35 36/36/36
f 35/35/35 37/37/37 38/38/38
f 56/56/56 54/54/54 55/55/55
f 54/54/54 56/56/56 57/57/57
f 60/60/60 58/58/58 59/59/59
f 58/58/58 60/60/60 61/61/61
f 64/64/64 62/62/62 63/63/63
f 62/62/62 64/64/64 65/65/65
f 68/68/68 66/66/66 67/67/67
f 66/66/66 68/68/68 69/69/69
f 3/3/3 1/1/1 2/2/2
f 1/1/1 3/3/3 4/4/4
