mtllib OVERHILL_A_01_OBJECT165.mtl
g Object165
usemtl Cave_Blender
v -9634.184570 -372.853088 9709.683594
vn -0.468280 -0.836849 -0.283545
vt 0.412072 3.379218
v -9495.086914 -417.737091 9611.313477
vn -0.437249 -0.897783 -0.052902
vt 0.213360 3.519747
v -9434.812500 -459.849274 9655.446289
vn -0.469474 -0.827480 -0.308012
vt 0.127255 3.456699
v -9574.449219 -439.091980 9754.929688
vn -0.512525 -0.775586 -0.368489
vt 0.326736 3.314580
v -9786.511719 -337.465149 9913.173828
vn -0.587279 -0.806059 -0.073300
vt 0.629682 3.088519
v -9639.790039 -438.520203 9937.068359
vn -0.625823 -0.778179 0.052752
vt 0.420080 3.054383
v -9721.751953 -237.728714 10305.637695
vn -0.394437 -0.834521 0.384701
vt 0.537168 2.527856
v -9786.511719 -337.465149 9913.173828
vn -0.587279 -0.806059 -0.073300
vt 0.629682 3.088519
v -9639.790039 -438.520203 9937.068359
vn -0.625823 -0.778179 0.052752
vt 0.420080 3.054383
v -9557.069336 -449.343933 10218.293945
vn -0.575910 -0.644205 0.503316
vt 0.301908 2.652632
v -9386.997070 -151.296097 10510.199219
vn -0.302053 -0.599579 0.741126
vt 0.058947 3.235623
v -9721.751953 -237.728714 10305.637695
vn -0.394437 -0.834521 0.384701
vt 0.537168 3.527856
v -9557.069336 -449.343933 10218.293945
vn -0.575910 -0.644205 0.503316
vt 0.301908 3.652632
v -9345.102539 -465.538757 10388.914063
vn -0.364080 -0.626101 0.689524
vt -0.000901 3.408888
v -9069.601563 -303.377167 10545.711914
vn -0.061378 -0.559241 0.826730
vt -0.394474 3.184892
v -9083.916016 -488.126678 10416.831055
vn 0.070855 -0.694590 0.715908
vt -0.374026 3.369006
v -8807.489258 -314.257050 10442.763672
vn 0.332598 -0.619656 0.710918
vt -0.768921 3.331961
v -8914.932617 -541.648621 10284.096680
vn 0.398798 -0.699778 0.592681
vt -0.615430 3.558627
v -8791.424805 -538.613953 10167.070313
vn 0.498012 -0.740572 0.451150
vt -0.791871 3.725807
v -8791.424805 -538.613953 10167.070313
vn 0.498012 -0.740572 0.451150
vt -0.791871 3.725807
v -8676.822266 -378.263489 10307.026367
vn 0.466727 -0.740065 0.484222
vt -0.955588 3.525871
v -8807.489258 -314.257050 10442.763672
vn 0.332598 -0.619656 0.710918
vt -0.768921 3.331961
v -8710.835938 -526.084167 10080.446289
vn 0.603038 -0.753950 0.260584
vt -0.906997 3.849556
v -8630.620117 -387.445496 10195.102539
vn 0.528910 -0.764948 0.367572
vt -1.021591 3.685762
v -8568.895508 -410.455017 10081.905273
vn 0.145430 -0.869921 0.471261
vt -1.109769 3.847472
v -8669.520508 -500.700012 9989.917969
vn 0.486758 -0.819806 0.301639
vt -0.966020 3.978883
v -8568.895508 -410.455017 10081.905273
vn 0.145430 -0.869921 0.471261
vt -1.109769 2.847472
v -8516.690430 -493.892273 9965.117188
vn -0.254604 -0.850293 0.460628
vt -1.184348 3.014312
v -8427.582031 -494.007263 10030.902344
vn -0.370565 -0.781935 0.501258
vt -1.311645 2.920334
v -8427.582031 -494.007263 10030.902344
vn -0.370565 -0.781935 0.501258
vt -1.311645 3.920334
v -8524.369141 -405.920349 10105.764648
vn -0.297239 -0.835497 0.462161
vt -1.173378 3.813387
v -8568.895508 -410.455017 10081.905273
vn 0.145430 -0.869921 0.471261
vt -1.109769 3.847472
v -8343.874023 -493.907532 10083.690430
vn -0.423609 -0.720663 0.548817
vt -1.431228 3.844922
v -8476.727539 -377.459412 10218.153320
vn -0.341461 -0.848777 0.403710
vt -1.241438 3.652832
v -8276.653320 -493.863708 10137.831055
vn -0.429300 -0.725663 0.537695
vt -1.527258 3.767578
v -8437.322266 -333.277527 10322.791992
vn -0.253063 -0.811703 0.526400
vt -1.297730 3.503348
v -8207.937500 -493.836365 10198.237305
vn -0.321225 -0.699894 0.637937
vt -1.625424 3.681283
v -8342.308594 -266.297089 10429.020508
vn -0.182138 -0.747266 0.639076
vt -1.433465 3.351593
v -8342.308594 -266.297089 10429.020508
vn -0.182138 -0.747266 0.639076
vt -1.433465 3.351593
v -8207.937500 -493.836365 10198.237305
vn -0.321225 -0.699894 0.637937
vt -1.625424 3.681283
v -8118.865234 -493.829041 10228.167969
vn -0.171454 -0.654977 0.735941
vt -1.752669 3.638525
v -8206.585938 -266.280975 10461.253906
vn -0.152183 -0.645266 0.748647
vt -1.627354 3.305546
v -7989.197754 -493.884216 10247.366211
vn -0.015853 -0.645329 0.763740
vt -1.937909 3.611099
v -8008.681641 -266.352264 10498.581055
vn -0.066643 -0.650100 0.756921
vt -1.910074 3.252221
v -7776.875488 -266.577118 10485.362305
vn 0.092218 -0.652268 0.752358
vt -2.241226 3.271105
v -7845.647461 -494.049011 10236.127930
vn 0.190522 -0.664639 0.722465
vt -2.142980 3.627154
v -7619.919922 -277.479462 10436.282227
vn 0.289442 -0.667283 0.686263
vt -2.465448 3.341218
v -7738.317383 -494.285339 10183.296875
vn 0.376703 -0.689409 0.618716
vt -2.296309 3.702626
v -7536.461914 -277.555359 10383.523438
vn 0.420548 -0.671031 0.610620
vt -2.584674 3.416589
v -7666.587891 -494.339539 10128.732422
vn 0.373295 -0.696108 0.613257
vt -2.398780 3.780575
v -7490.859375 -277.248840 10349.153320
vn 0.174425 -0.708710 0.683598
vt -2.649821 3.465689
v -7570.125977 -494.120544 10097.251953
vn 0.131852 -0.726985 0.673875
vt -2.536582 3.825548
v -10523.468750 -135.241165 10536.548828
vn 0.340825 -0.666032 0.663506
vt 1.682479 3.197982
v -10630.972656 -411.134216 10361.996094
vn 0.430873 -0.683509 0.589206
vt 1.836055 3.447343
v -10500.134766 -426.072449 10203.651367
vn 0.621828 -0.716395 0.316400
vt 1.649144 3.673551
v -10358.751953 -236.824783 10276.043945
vn 0.472467 -0.801889 0.365718
vt 1.447168 3.570132
v -10829.894531 -185.792938 10654.319336
vn 0.171487 -0.617366 0.767757
vt 2.120229 3.029739
v -10870.249023 -410.824921 10472.371094
vn 0.183623 -0.697585 0.692574
vt 2.177878 3.289665
v -11116.858398 -185.621063 10682.523438
vn -0.089287 -0.607145 0.789558
vt 2.530177 2.989448
v -11102.850586 -422.468597 10476.064453
vn -0.038965 -0.715992 0.697020
vt 2.510166 3.284389
v -11415.541992 -185.556732 10615.944336
vn -0.264920 -0.622978 0.736013
vt 2.956868 3.084560
v -11358.430664 -422.419037 10424.784180
vn -0.211440 -0.713766 0.667706
vt 2.875281 3.357646
v -11358.430664 -422.419037 10424.784180
vn -0.211440 -0.713766 0.667706
vt 2.875281 3.357646
v -11415.541992 -185.556732 10615.944336
vn -0.264920 -0.622978 0.736013
vt 2.956868 3.084560
v -11600.958984 -193.575882 10523.436523
vn -0.411886 -0.607882 0.678844
vt 3.221750 3.216715
v -11508.643555 -430.428406 10351.853516
vn -0.359965 -0.709597 0.605721
vt 3.089871 3.461834
v -10032.348633 -437.087463 9743.493164
vn 0.351155 -0.755353 0.553293
vt 0.980878 3.330919
v -9963.214844 -349.349304 9817.584961
vn 0.319259 -0.781074 0.536653
vt 0.882116 3.225074
v -10102.766602 -309.413513 9933.367188
vn 0.238414 -0.795753 0.556719
vt 1.081475 3.059671
v -10197.597656 -433.966736 9849.186523
vn 0.262482 -0.743019 0.615651
vt 1.216948 3.179928
v -10199.972656 -285.455627 10004.535156
vn 0.268085 -0.841121 0.469730
vt 1.220341 2.958002
v -10324.843750 -433.990051 9888.073242
vn 0.289955 -0.771342 0.566532
vt 1.398728 3.124377
v -10477.390625 -426.150330 10023.221680
vn 0.590005 -0.768660 0.247093
vt 1.616653 3.931307
v -10296.315430 -269.845886 10122.008789
vn 0.373756 -0.853507 0.363087
vt 1.357974 3.790182
v -10358.751953 -236.824783 10276.043945
vn 0.472467 -0.801889 0.365718
vt 1.447168 3.570132
v -10500.134766 -426.072449 10203.651367
vn 0.621828 -0.716395 0.316400
vt 1.649144 3.673551
v -11769.536133 -454.430603 10207.247070
vn -0.070311 -0.734453 0.675008
vt 3.462575 3.668414
v -11613.032227 -438.426208 10258.340820
vn -0.312287 -0.721747 0.617704
vt 3.238997 3.595423
v -11690.866211 -201.571609 10446.577148
vn -0.303165 -0.625380 0.719021
vt 3.350189 3.326513
v -11824.660156 -217.567215 10405.784180
vn -0.056872 -0.621224 0.781566
vt 3.541323 3.384789
v -9728.250977 -369.686432 9623.163086
vn 0.087553 -0.779200 0.620630
vt 0.546452 3.502820
v -9762.186523 -449.385773 9546.356445
vn 0.177790 -0.753652 0.632771
vt 0.594932 3.612543
v -9677.666992 -449.340973 9528.337891
vn 0.099241 -0.787148 0.608727
vt 0.474190 3.638283
v -9654.837891 -381.092926 9607.483398
vn -0.039306 -0.820495 0.570300
vt 0.441577 3.525218
v -8516.690430 -493.892273 9965.117188
vn -0.254604 -0.850293 0.460628
vt -1.184348 3.014312
v -8568.895508 -410.455017 10081.905273
vn 0.145430 -0.869921 0.471261
vt -1.109769 2.847472
v -8588.666016 -494.003113 9953.213867
vn 0.109204 -0.851258 0.513259
vt -1.081526 3.031317
v -8568.895508 -410.455017 10081.905273
vn 0.145430 -0.869921 0.471261
vt -1.109769 2.847472
v -8669.520508 -500.700012 9989.917969
vn 0.486758 -0.819806 0.301639
vt -0.966020 2.978883
v -10324.843750 -433.990051 9888.073242
vn 0.289955 -0.771342 0.566532
vt 1.398728 3.124377
v -10199.972656 -285.455627 10004.535156
vn 0.268085 -0.841121 0.469730
vt 1.220341 2.958002
v -10296.315430 -269.845886 10122.008789
vn 0.373756 -0.853507 0.363087
vt 1.357974 2.790182
v -10456.182617 -425.773865 9986.735352
vn 0.430147 -0.799109 0.419998
vt 1.586355 2.983431
v -10456.182617 -425.773865 9986.735352
vn 0.430147 -0.799109 0.419998
vt 1.586355 3.983431
v -9963.214844 -349.349304 9817.584961
vn 0.319259 -0.781074 0.536653
vt 0.882116 3.225074
v -10032.348633 -437.087463 9743.493164
vn 0.351155 -0.755353 0.553293
vt 0.980878 3.330919
v -9832.674805 -448.216949 9577.230469
vn 0.316438 -0.772914 0.549974
vt 0.695630 3.568437
v -9782.800781 -368.583160 9647.054688
vn 0.306710 -0.799734 0.516096
vt 0.624381 3.468688
v -9517.519531 -414.514679 9577.069336
vn -0.191789 -0.894324 0.404228
vt 0.245407 3.568667
v -9516.041016 -447.887604 9512.762695
vn -0.113437 -0.841223 0.528656
vt 0.243295 3.660533
v -9392.507813 -472.283478 9548.173828
vn -0.418133 -0.891017 0.176787
vt 0.066819 3.609946
v -9495.086914 -417.737091 9611.313477
vn -0.437249 -0.897783 -0.052902
vt 0.213360 3.519747
v -9517.519531 -414.514679 9577.069336
vn -0.191789 -0.894324 0.404228
vt 0.245407 3.568667
v -9516.041016 -447.887604 9512.762695
vn -0.113437 -0.841223 0.528656
vt 0.243295 3.660533
v -9392.507813 -472.283478 9548.173828
vn -0.418133 -0.891017 0.176787
vt 0.066819 3.609946
f 27/27/27 28/28/28 29/29/29
f 52/52/52 51/51/51 50/50/50
f 49/49/49 50/50/50 51/51/51
f 50/50/50 49/49/49 48/48/48
f 47/47/47 48/48/48 49/49/49
f 48/48/48 47/47/47 46/46/46
f 45/45/45 46/46/46 47/47/47
f 46/46/46 45/45/45 43/43/43
f 44/44/44 43/43/43 45/45/45
f 43/43/43 44/44/44 42/42/42
f 41/41/41 39/39/39 40/40/40
f 39/39/39 41/41/41 42/42/42
f 43/43/43 42/42/42 41/41/41
f 12/12/12 13/13/13 11/11/11
f 14/14/14 11/11/11 13/13/13
f 11/11/11 14/14/14 15/15/15
f 16/16/16 15/15/15 14/14/14
f 15/15/15 16/16/16 17/17/17
f 18/18/18 17/17/17 16/16/16
f 17/17/17 18/18/18 19/19/19
f 36/36/36 37/37/37 38/38/38
f 37/37/37 36/36/36 35/35/35
f 34/34/34 35/35/35 36/36/36
f 35/35/35 34/34/34 33/33/33
f 31/31/31 33/33/33 34/34/34
f 33/33/33 31/31/31 30/30/30
f 32/32/32 30/30/30 31/31/31
f 61/61/61 62/62/62 59/59/59
f 60/60/60 59/59/59 62/62/62
f 59/59/59 60/60/60 57/57/57
f 58/58/58 57/57/57 60/60/60
f 57/57/57 58/58/58 53/53/53
f 54/54/54 53/53/53 58/58/58
f 53/53/53 54/54/54 55/55/55
f 55/55/55 56/56/56 53/53/53
f 6/6/6 5/5/5 4/4/4
f 1/1/1 4/4/4 5/5/5
f 4/4/4 1/1/1 3/3/3
f 2/2/2 3/3/3 1/1/1
f 3/3/3 2/2/2 105/105/105
f 80/80/80 77/77/77 79/79/79
f 78/78/78 79/79/79 77/77/77
f 79/79/79 78/78/78 65/65/65
f 66/66/66 65/65/65 78/78/78
f 65/65/65 66/66/66 63/63/63
f 63/63/63 64/64/64 65/65/65
f 25/25/25 24/24/24 23/23/23
f 21/21/21 23/23/23 24/24/24
f 23/23/23 21/21/21 20/20/20
f 22/22/22 20/20/20 21/21/21
f 23/23/23 26/26/26 25/25/25
f 97/97/97 98/98/98 95/95/95
f 98/98/98 97/97/97 81/81/81
f 82/82/82 81/81/81 97/97/97
f 81/81/81 82/82/82 83/83/83
f 95/95/95 96/96/96 97/97/97
f 100/100/100 99/99/99 83/83/83
f 84/84/84 83/83/83 99/99/99
f 83/83/83 84/84/84 81/81/81
f 69/69/69 67/67/67 68/68/68
f 67/67/67 69/69/69 70/70/70
f 72/72/72 70/70/70 69/69/69
f 69/69/69 71/71/71 72/72/72
f 9/9/9 7/7/7 8/8/8
f 7/7/7 9/9/9 10/10/10
f 92/92/92 90/90/90 91/91/91
f 90/90/90 92/92/92 93/93/93
f 94/94/94 74/74/74 73/73/73
f 75/75/75 73/73/73 74/74/74
f 73/73/73 75/75/75 76/76/76
f 103/103/103 101/101/101 102/102/102
f 101/101/101 103/103/103 104/104/104
f 85/85/85 86/86/86 87/87/87
f 87/87/87 88/88/88 89/89/89
