mtllib OVERHILL_A_01_LINE30.mtl
g Line30
usemtl Rock_wall1
v -5161.458984 -1371.748535 -14106.665039
vn 0.928985 -0.052219 -0.366416
vt 0.264568 1.435362
v -5167.958008 -1371.748535 -13965.677734
vn 0.994131 -0.028035 0.104485
vt 0.003377 1.435362
v -5167.958008 -1795.791382 -13965.677734
vn 0.991207 -0.055180 -0.120270
vt 0.003377 1.975652
v -5190.830078 -1795.791382 -14042.728516
vn 0.861031 -0.151340 -0.485511
vt 0.264568 1.975652
v -5204.308105 -1371.748413 -14185.924805
vn 0.524096 -0.053327 -0.849988
vt 0.431318 1.435362
v -5233.548340 -1795.791382 -14087.631836
vn 0.330648 -0.234690 -0.914107
vt 0.431318 1.975652
v -5264.394531 -1371.748413 -14193.190430
vn 0.129519 -0.080798 -0.988280
vt 0.509747 1.435362
v -5272.820313 -1795.791382 -14092.379883
vn 0.078236 -0.232052 -0.969552
vt 0.509747 1.975652
v -5359.483398 -1371.748413 -14198.960938
vn -0.460077 -0.090641 -0.883240
vt 0.662098 1.435362
v -5334.969727 -1795.791382 -14096.152344
vn -0.560529 -0.225591 -0.796816
vt 0.662098 1.975652
v -5425.973633 -1371.748535 -14110.338867
vn -0.989965 -0.027054 -0.138698
vt 0.900702 1.435362
v -5378.427734 -1795.791382 -14038.229492
vn -0.987280 -0.054070 -0.149517
vt 0.900702 1.975652
v -5363.202637 -1371.748535 -13987.827148
vn -0.973222 0.015581 0.229338
vt 1.119162 1.435362
v -5399.785645 -1795.791382 -13960.963867
vn -0.961743 0.066130 -0.265853
vt 1.119162 1.975652
v -5134.547363 -1055.734741 -14113.682617
vn 0.890325 -0.155795 -0.427842
vt 0.264568 1.000000
v -5167.958008 -1055.734741 -13965.677734
vn 0.974825 -0.005276 0.222908
vt 0.003377 1.000000
v -5222.565430 -1055.734741 -14157.802734
vn 0.376457 -0.146552 -0.914769
vt 0.431318 1.000000
v -5266.782715 -1055.734741 -14163.149414
vn 0.206152 -0.105928 -0.972770
vt 0.509747 1.000000
v -5349.475098 -1055.734741 -14188.594727
vn -0.442831 -0.212005 -0.871180
vt 0.662098 1.000000
v -5380.770508 -1055.734741 -14106.776367
vn -0.990377 -0.053520 -0.127631
vt 0.900702 1.000000
v -5363.202637 -1055.734741 -13987.827148
vn -0.966475 0.046823 0.252455
vt 1.119162 1.000000
f 14/14/14 13/13/13 12/12/12
f 11/11/11 12/12/12 13/13/13
f 12/12/12 11/11/11 10/10/10
f 9/9/9 10/10/10 11/11/11
f 10/10/10 9/9/9 8/8/8
f 7/7/7 8/8/8 9/9/9
f 8/8/8 7/7/7 6/6/6
f 5/5/5 6/6/6 7/7/7
f 6/6/6 5/5/5 4/4/4
f 1/1/1 4/4/4 5/5/5
f 4/4/4 1/1/1 3/3/3
f 2/2/2 3/3/3 1/1/1
f 16/16/16 2/2/2 15/15/15
f 1/1/1 15/15/15 2/2/2
f 15/15/15 1/1/1 17/17/17
f 5/5/5 17/17/17 1/1/1
f 17/17/17 5/5/5 18/18/18
f 7/7/7 18/18/18 5/5/5
f 18/18/18 7/7/7 19/19/19
f 9/9/9 19/19/19 7/7/7
f 19/19/19 9/9/9 20/20/20
f 11/11/11 20/20/20 9/9/9
f 20/20/20 11/11/11 21/21/21
f 13/13/13 21/21/21 11/11/11
usemtl Rock_top_blend
v -5127.250977 -961.791382 -14139.250977
vn 0.982159 -0.111995 -0.151064
vt 0.264568 0.000000
v -5167.958008 -961.791382 -13965.677734
vn 0.973584 0.000000 0.228328
vt 0.003377 0.000000
v -5167.958008 -1055.734741 -13965.677734
vn 0.974825 -0.005276 0.222908
vt 0.003377 1.000000
v -5134.547363 -1055.734741 -14113.682617
vn 0.890325 -0.155795 -0.427842
vt 0.264568 1.000000
v -5204.308105 -961.791382 -14185.924805
vn 0.351030 -0.305809 -0.885019
vt 0.431318 0.000000
v -5222.565430 -1055.734741 -14157.802734
vn 0.376457 -0.146552 -0.914769
vt 0.431318 1.000000
v -5264.394531 -961.791382 -14193.190430
vn 0.170314 -0.304062 -0.937304
vt 0.509747 0.000000
v -5266.782715 -1055.734741 -14163.149414
vn 0.206152 -0.105928 -0.972770
vt 0.509747 1.000000
v -5376.765137 -961.791382 -14227.768555
vn -0.115321 -0.410658 -0.904467
vt 0.662098 0.000000
v -5349.475098 -1055.734741 -14188.594727
vn -0.442831 -0.212005 -0.871180
vt 0.662098 1.000000
v -5410.976074 -961.791382 -14149.502930
vn -0.925599 -0.349566 -0.145158
vt 0.900702 0.000000
v -5380.770508 -1055.734741 -14106.776367
vn -0.990377 -0.053520 -0.127631
vt 0.900702 1.000000
v -5363.202637 -961.791382 -13987.827148
vn -0.972807 -0.088890 0.213879
vt 1.119162 0.000000
v -5363.202637 -1055.734741 -13987.827148
vn -0.966475 0.046823 0.252455
vt 1.119162 1.000000
f 23/23/23 24/24/24 22/22/22
f 25/25/25 22/22/22 24/24/24
f 22/22/22 25/25/25 26/26/26
f 27/27/27 26/26/26 25/25/25
f 26/26/26 27/27/27 28/28/28
f 29/29/29 28/28/28 27/27/27
f 28/28/28 29/29/29 30/30/30
f 31/31/31 30/30/30 29/29/29
f 30/30/30 31/31/31 32/32/32
f 33/33/33 32/32/32 31/31/31
f 32/32/32 33/33/33 34/34/34
f 35/35/35 34/34/34 33/33/33
