mtllib OVERHILL_A_01_LINE436.mtl
g Line436
usemtl Material_#44425
v -5162.322266 -400.233307 7779.961426
vn -0.382600 0.000000 0.923914
vt 0.080093 0.245370
v -5162.322266 -267.483307 7779.961426
vn -0.252689 0.000000 0.967548
vt 0.080093 -0.240250
v -5181.535156 -267.483307 7760.757324
vn -0.862776 0.000000 0.505586
vt 0.000000 -0.240250
v -5181.535156 -400.233307 7760.757324
vn -0.967520 0.000000 0.252793
vt 0.000000 0.245370
v -5081.324219 -370.577271 7779.965332
vn -0.000048 0.000000 1.000000
vt 0.313075 0.136883
v -5161.749023 -400.462555 7684.073242
vn -0.248376 0.000000 -0.968664
vt 0.749989 0.245370
v -5161.749023 -267.712555 7684.073242
vn -0.494729 0.000000 -0.869047
vt 0.749989 -0.240250
v -5081.324219 -267.483307 7683.920898
vn -0.001894 0.000000 -0.999998
vt 0.528141 -0.240250
v -5081.324219 -400.233307 7683.920898
vn -0.001894 0.000000 -0.999998
vt 0.528141 0.245370
v -5181.535156 -400.233307 7703.130371
vn -0.856217 0.000000 -0.516616
vt 0.830093 0.245370
v -5181.535156 -267.483307 7703.130371
vn -0.966063 0.000000 -0.258308
vt 0.830093 -0.240250
v -5181.535156 -400.233307 7760.757324
vn -0.967520 0.000000 0.252793
vt 1.000000 0.245370
v -5181.535156 -267.483307 7760.757324
vn -0.862776 0.000000 0.505586
vt 1.000000 -0.240250
v -5162.322266 -130.919281 7779.961426
vn -0.382600 0.000000 0.923914
vt 0.080093 -0.257066
v -5181.535156 -130.919281 7760.757324
vn -0.967520 0.000000 0.252793
vt 0.000000 -0.257066
v -5181.535156 -267.483307 7760.757324
vn -0.862776 0.000000 0.505586
vt 0.000000 0.246795
v -5162.322266 -267.483307 7779.961426
vn -0.252689 0.000000 0.967548
vt 0.080093 0.246795
v -5081.324219 -267.483307 7779.965332
vn -0.000048 0.000000 1.000000
vt 0.313075 0.246795
v -5081.324219 -203.139740 7779.965332
vn -0.000048 0.000000 1.000000
vt 0.313075 0.009396
v -5181.535156 -130.919281 7760.757324
vn -0.967520 0.000000 0.252793
vt 1.000000 -0.257066
v -5181.535156 -130.919281 7703.130371
vn -0.856217 0.000000 -0.516616
vt 0.830093 -0.257066
v -5181.535156 -267.483307 7703.130371
vn -0.966063 0.000000 -0.258308
vt 0.830093 0.246795
v -5181.535156 -267.483307 7760.757324
vn -0.862776 0.000000 0.505586
vt 1.000000 0.246795
v -5161.749023 -131.148529 7684.073242
vn -0.248376 0.000000 -0.968664
vt 0.749989 -0.257066
v -5081.324219 -130.919281 7683.920898
vn -0.001894 0.000000 -0.999998
vt 0.528141 -0.257066
v -5081.324219 -267.483307 7683.920898
vn -0.001894 0.000000 -0.999998
vt 0.528141 0.246795
v -5161.749023 -267.712555 7684.073242
vn -0.494729 0.000000 -0.869047
vt 0.749989 0.246795
v -5081.324219 -400.233307 7779.965332
vn -0.000048 0.000000 1.000000
vt 0.313075 0.245370
v -5081.324219 -267.483307 7779.965332
vn -0.000048 0.000000 1.000000
vt 0.313075 -0.240250
v -5081.324219 -130.919281 7779.965332
vn -0.000048 0.000000 1.000000
vt 0.313075 -0.257066
f 1/1/1 28/28/28 5/5/5
f 1/1/1 3/3/3 4/4/4
f 3/3/3 1/1/1 2/2/2
f 5/5/5 2/2/2 1/1/1
f 2/2/2 5/5/5 29/29/29
f 6/6/6 8/8/8 9/9/9
f 8/8/8 6/6/6 7/7/7
f 10/10/10 7/7/7 6/6/6
f 7/7/7 10/10/10 11/11/11
f 12/12/12 11/11/11 10/10/10
f 11/11/11 12/12/12 13/13/13
f 23/23/23 20/20/20 22/22/22
f 21/21/21 22/22/22 20/20/20
f 22/22/22 21/21/21 27/27/27
f 24/24/24 27/27/27 21/21/21
f 27/27/27 24/24/24 26/26/26
f 25/25/25 26/26/26 24/24/24
f 15/15/15 16/16/16 14/14/14
f 17/17/17 14/14/14 16/16/16
f 14/14/14 17/17/17 19/19/19
f 18/18/18 19/19/19 17/17/17
f 19/19/19 30/30/30 14/14/14
