mtllib OVERHILL_A_01_PLANE133.mtl
g Plane133
usemtl Slab_Moss_Mix
v -10035.535156 -1328.835815 14213.045898
vn 0.000000 1.000000 0.000000
vt -0.255779 -0.122252
v -10168.406250 -1328.835815 14202.891602
vn 0.000000 1.000000 0.000000
vt 0.123341 -0.090671
v -10124.106445 -1328.835815 14334.950195
vn 0.000000 1.000000 0.000000
vt -0.003058 -0.501372
v -10035.535156 -1328.835815 14334.950195
vn 0.000000 1.000000 0.000000
vt -0.255779 -0.501372
v -10035.535156 -1328.835815 14091.140625
vn 0.000000 1.000000 0.000000
vt -0.255779 0.256870
v -10168.406250 -1328.835815 14091.143555
vn 0.000000 1.000000 0.000000
vt 0.123341 0.256860
v -10035.535156 -1328.835815 13847.331055
vn 0.000001 1.000000 0.000000
vt -0.255780 1.015111
v -10212.678711 -1328.835693 13847.331055
vn 0.000001 1.000000 0.000000
vt 0.249664 1.015111
v -10168.406250 -1328.835693 13979.396484
vn 0.000000 1.000000 0.000000
vt 0.123341 0.604392
v -10035.535156 -1328.835815 13969.235352
vn 0.000000 1.000000 0.000000
vt -0.255779 0.635992
v -10301.277344 -1328.835693 13989.557617
vn 0.000000 1.000000 0.000000
vt 0.502462 0.572792
v -10301.277344 -1328.835693 14091.146484
vn 0.000000 1.000000 0.000000
vt 0.502462 0.256851
v -10434.148438 -1328.835693 13999.717773
vn 0.000001 1.000000 0.000001
vt 0.881583 0.541192
v -10567.019531 -1328.835571 14009.878906
vn 0.000000 1.000000 0.000001
vt 1.260704 0.509592
v -10434.148438 -1328.835693 14091.149414
vn 0.000000 1.000000 0.000001
vt 0.881583 0.256841
v -10434.148438 -1328.835693 14182.582031
vn 0.000000 1.000000 0.000001
vt 0.881583 -0.027509
v -10567.019531 -1328.835693 14172.426758
vn 0.000000 1.000000 0.000001
vt 1.260704 0.004072
v -10567.019531 -1328.835815 14334.950195
vn 0.000000 1.000000 0.000001
vt 1.260704 -0.501371
v -10389.849609 -1328.835815 14334.950195
vn 0.000000 1.000000 0.000001
vt 0.755185 -0.501372
v -10301.277344 -1328.835815 14192.736328
vn 0.000000 1.000000 0.000000
vt 0.502462 -0.059090
v -10212.678711 -1328.835815 14334.950195
vn 0.000000 1.000000 0.000000
vt 0.249664 -0.501372
v -10389.848633 -1328.835571 13847.331055
vn 0.000001 1.000000 0.000001
vt 0.755184 1.015111
v -10567.019531 -1328.835449 13847.331055
vn 0.000001 1.000000 0.000001
vt 1.260703 1.015112
f 5/5/5 10/10/10 9/9/9
f 7/7/7 9/9/9 10/10/10
f 9/9/9 7/7/7 8/8/8
f 1/1/1 3/3/3 4/4/4
f 3/3/3 1/1/1 2/2/2
f 5/5/5 2/2/2 1/1/1
f 2/2/2 5/5/5 6/6/6
f 9/9/9 6/6/6 5/5/5
f 6/6/6 9/9/9 11/11/11
f 8/8/8 11/11/11 9/9/9
f 11/11/11 8/8/8 22/22/22
f 2/2/2 21/21/21 3/3/3
f 21/21/21 2/2/2 20/20/20
f 6/6/6 20/20/20 2/2/2
f 20/20/20 6/6/6 12/12/12
f 11/11/11 12/12/12 6/6/6
f 12/12/12 11/11/11 13/13/13
f 22/22/22 13/13/13 11/11/11
f 13/13/13 22/22/22 23/23/23
f 23/23/23 14/14/14 13/13/13
f 15/15/15 13/13/13 14/14/14
f 13/13/13 15/15/15 12/12/12
f 16/16/16 12/12/12 15/15/15
f 12/12/12 16/16/16 20/20/20
f 19/19/19 20/20/20 16/16/16
f 20/20/20 19/19/19 21/21/21
f 17/17/17 15/15/15 14/14/14
f 15/15/15 17/17/17 16/16/16
f 18/18/18 16/16/16 17/17/17
f 16/16/16 18/18/18 19/19/19
