mtllib OVERHILL_A_01_OBJECT287.mtl
g Object287
usemtl 8_-_Default
v -5674.454102 -523.111267 7404.267090
vn 1.000000 0.000000 0.000000
vt 0.004828 0.999500
v -5674.454102 -523.111267 7225.373047
vn 1.000000 0.000000 0.000000
vt 0.999500 0.999500
v -5674.454102 -432.885742 7226.151855
vn 0.988308 0.152473 0.000000
vt 0.995172 0.000500
v -5674.454102 -432.885742 7405.045898
vn 0.988308 0.152473 0.000001
vt 0.000499 0.000500
v -5674.454102 -523.111267 7225.373047
vn 0.000000 0.008627 -0.999963
vt 0.000500 0.999500
v -5853.348145 -523.111267 7225.373535
vn 0.000000 0.008627 -0.999963
vt 0.999500 0.999500
v -5853.348145 -432.885742 7226.151855
vn 0.000000 0.156736 -0.987641
vt 0.999500 0.000500
v -5674.454102 -432.885742 7226.151855
vn 0.000000 0.156736 -0.987641
vt 0.000500 0.000500
v -5853.348145 -523.111267 7225.373535
vn -1.000000 0.000000 0.000000
vt 0.000499 0.999500
v -5853.348145 -523.111267 7404.267090
vn -1.000000 0.000000 0.000000
vt 0.995172 0.999500
v -5853.348145 -432.885742 7405.045898
vn -0.988308 0.152473 0.000000
vt 0.999500 0.000500
v -5853.348145 -432.885742 7226.151855
vn -0.988308 0.152473 0.000000
vt 0.004828 0.000500
v -5853.348145 -523.111267 7404.267090
vn 0.000000 -0.008629 0.999963
vt 0.000500 0.999500
v -5674.454102 -523.111267 7404.267090
vn -0.000001 -0.008628 0.999963
vt 0.999500 0.999500
v -5674.454102 -432.885742 7405.045898
vn 0.000000 0.148208 0.988956
vt 0.999500 0.000500
v -5853.348145 -432.885742 7405.045898
vn 0.000001 0.148206 0.988956
vt 0.000500 0.000500
v -5673.675293 108.467651 7405.824219
vn 0.447453 -0.231341 0.863867
vt 0.999500 0.999001
v -5673.675293 213.730804 7405.824219
vn -0.000001 -0.534716 0.845032
vt 0.999500 0.000000
v -5763.900879 213.730804 7405.824219
vn 0.000000 -0.534716 0.845032
vt 0.500000 0.000000
v -5673.675293 213.730820 7225.373535
vn 0.000000 -0.003635 -0.999993
vt 0.000500 0.000000
v -5673.675293 108.467659 7225.373535
vn 0.863868 -0.231340 -0.447453
vt 0.000500 0.999001
v -5854.126465 108.467659 7225.373535
vn -0.447453 -0.231342 -0.863867
vt 0.999500 0.999001
v -5854.126465 108.467651 7405.824219
vn -0.863867 -0.231342 0.447453
vt 0.999500 0.999001
v -5854.126465 213.730804 7405.824219
vn -0.999692 0.000180 0.024818
vt 0.999500 0.000000
v -5854.126465 213.730820 7225.373535
vn -1.000000 0.000000 0.000000
vt 0.000499 0.000000
v -5854.126465 108.467651 7405.824219
vn -0.863867 -0.231342 0.447453
vt 0.000499 0.999001
v -5854.126465 213.730804 7405.824219
vn -0.000001 -0.534716 0.845032
vt 0.000499 0.000000
v -5673.675293 108.467659 7225.373535
vn 0.863868 -0.231340 -0.447453
vt 0.999500 0.999001
v -5673.675293 213.730820 7225.373535
vn 0.999998 -0.000016 -0.002153
vt 0.999500 0.000000
v -5673.675293 213.730804 7405.824219
vn 0.999420 -0.004842 0.033715
vt 0.000500 0.000000
v -5673.675293 108.467651 7405.824219
vn 0.447453 -0.231341 0.863867
vt 0.000499 0.999001
v -5854.126465 213.730820 7225.373535
vn 0.000000 -0.003635 -0.999993
vt 0.999500 0.000000
v -5854.126465 108.467659 7225.373535
vn -0.447453 -0.231342 -0.863867
vt 0.000499 0.999001
f 3/3/3 1/1/1 2/2/2
f 1/1/1 3/3/3 4/4/4
f 19/19/19 17/17/17 18/18/18
f 17/17/17 19/19/19 26/26/26
f 27/27/27 26/26/26 19/19/19
f 7/7/7 5/5/5 6/6/6
f 5/5/5 7/7/7 8/8/8
f 11/11/11 9/9/9 10/10/10
f 9/9/9 11/11/11 12/12/12
f 15/15/15 13/13/13 14/14/14
f 13/13/13 15/15/15 16/16/16
f 22/22/22 20/20/20 21/21/21
f 20/20/20 22/22/22 32/32/32
f 25/25/25 23/23/23 24/24/24
f 23/23/23 25/25/25 33/33/33
f 30/30/30 28/28/28 29/29/29
f 28/28/28 30/30/30 31/31/31
usemtl Lvl_dwarven_plc_stone03
v -5718.788086 -387.772949 7240.411133
vn 0.108260 0.557559 -0.823048
vt 0.248076 0.000500
v -5688.712891 -387.772949 7240.411133
vn 0.455229 0.765202 -0.455228
vt 0.080127 0.000500
v -5674.454102 -432.885742 7226.151855
vn 0.000000 0.156736 -0.987641
vt 0.000499 0.999500
v -5839.088867 -387.772949 7240.411133
vn -0.455229 0.765202 -0.455228
vt 0.919873 0.000500
v -5809.013672 -387.772949 7240.411133
vn -0.165223 0.561870 -0.810558
vt 0.751924 0.000500
v -5853.348145 -432.885742 7405.045898
vn -0.988308 0.152473 0.000000
vt 0.999500 0.999500
v -5839.088867 -387.772980 7390.786621
vn -0.455229 0.765202 0.455229
vt 0.919873 0.000500
v -5853.348145 -432.885742 7226.151855
vn -0.988308 0.152473 0.000000
vt 0.000499 0.999500
v -5853.348145 -432.885742 7226.151855
vn 0.000000 0.156736 -0.987641
vt 0.999500 0.999501
v -5688.712891 -387.772949 7240.411133
vn 0.455229 0.765202 -0.455228
vt 0.919873 0.000500
v -5688.712891 -387.772980 7270.478516
vn 0.851761 0.413740 -0.321437
vt 0.751966 0.000500
v -5674.454102 -432.885742 7405.045898
vn 0.988308 0.152473 0.000001
vt 0.000500 0.999500
v -5674.454102 -432.885742 7226.151855
vn 0.988308 0.152473 0.000000
vt 0.999500 0.999501
v -5839.088867 -387.772980 7360.711426
vn -0.810551 0.561872 0.165249
vt 0.751924 0.000500
v -5839.088867 -387.772980 7270.485840
vn -0.810558 0.561869 -0.165223
vt 0.248076 0.000499
v -5839.088867 -387.772949 7240.411133
vn -0.455229 0.765202 -0.455228
vt 0.080127 0.000499
v -5853.348145 -432.885742 7405.045898
vn 0.000001 0.148206 0.988956
vt 0.000499 0.999500
v -5809.006348 -387.772980 7390.786621
vn -0.165197 0.561867 0.810565
vt 0.248118 0.000500
v -5839.088867 -387.772980 7390.786621
vn -0.455229 0.765202 0.455229
vt 0.080127 0.000500
v -5688.712891 -387.772980 7360.704102
vn 0.823051 0.557557 0.108245
vt 0.248118 0.000500
v -5688.712891 -387.772980 7390.786621
vn 0.455230 0.765200 0.455231
vt 0.080127 0.000500
v -5674.454102 -432.885742 7405.045898
vn 0.000000 0.148208 0.988956
vt 0.999501 0.999500
v -5688.712891 -387.772980 7390.786621
vn 0.455230 0.765200 0.455231
vt 0.919873 0.000500
v -5718.780762 -387.772980 7390.786621
vn 0.220703 0.568072 0.792833
vt 0.751966 0.000500
v -5718.788086 63.354885 7240.411133
vn 0.183121 -0.472648 -0.862016
vt 0.083750 0.250250
v -5688.712891 63.354885 7240.411133
vn 0.329345 -0.676505 -0.658690
vt 0.083750 0.083750
v -5688.712891 63.354885 7270.478516
vn 0.926755 -0.350281 -0.135751
vt 0.250208 0.083750
v -5809.013672 63.354885 7240.411133
vn -0.137010 -0.467013 -0.873571
vt 0.749688 0.999157
v -5854.126465 108.467659 7225.373535
vn -0.447453 -0.231342 -0.863867
vt 0.999501 0.002563
v -5718.788086 63.354885 7240.411133
vn 0.183121 -0.472648 -0.862016
vt 0.250187 0.998125
v -5688.712891 63.354885 7240.411133
vn 0.329345 -0.676505 -0.658690
vt 0.083687 0.997781
v -5673.675293 108.467659 7225.373535
vn 0.863868 -0.231340 -0.447453
vt 0.000500 0.000499
v -5839.088867 63.354885 7240.411133
vn -0.658690 -0.676505 -0.329345
vt 0.916188 0.999501
v -5688.712891 63.354885 7270.478516
vn 0.926755 -0.350281 -0.135751
vt 0.751109 0.967626
v -5673.675293 108.467659 7225.373535
vn 0.863868 -0.231340 -0.447453
vt 0.999500 0.000499
v -5688.712891 63.354881 7360.704102
vn 0.862025 -0.472641 0.183092
vt 0.251608 0.991530
v -5688.712891 63.354877 7390.786621
vn 0.658692 -0.676503 0.329346
vt 0.085066 0.999500
v -5673.675293 108.467651 7405.824219
vn 0.447453 -0.231341 0.863867
vt 0.000500 0.048308
v -5688.712891 63.354885 7240.411133
vn 0.329345 -0.676505 -0.658690
vt 0.917567 0.959660
v -5718.780762 63.354877 7390.786621
vn 0.089751 -0.463102 0.881749
vt 0.750871 0.972308
v -5673.675293 108.467651 7405.824219
vn 0.447453 -0.231341 0.863867
vt 0.999501 0.000500
v -5809.006348 63.354877 7390.786621
vn -0.136989 -0.467010 0.873576
vt 0.251370 0.992702
v -5839.088867 63.354877 7390.786621
vn -0.329345 -0.676504 0.658691
vt 0.084828 0.999502
v -5854.126465 108.467651 7405.824219
vn -0.863867 -0.231342 0.447453
vt 0.000499 0.041288
v -5688.712891 63.354877 7390.786621
vn 0.658692 -0.676503 0.329346
vt 0.917329 0.965511
v -5839.088867 63.354881 7360.711426
vn -0.873567 -0.467015 0.137032
vt 0.749750 0.999500
v -5854.126465 108.467651 7405.824219
vn -0.863867 -0.231342 0.447453
vt 0.999501 0.000499
v -5839.088867 63.354885 7270.485840
vn -0.873571 -0.467013 -0.137011
vt 0.250250 0.999500
v -5809.006348 63.354877 7390.786621
vn -0.136989 -0.467010 0.873576
vt 0.916250 0.749709
v -5839.088867 63.354877 7390.786621
vn -0.329345 -0.676504 0.658691
vt 0.916250 0.916250
v -5839.088867 63.354881 7360.711426
vn -0.873567 -0.467015 0.137032
vt 0.749750 0.916250
v -5854.126465 108.467659 7225.373535
vn -0.447453 -0.231342 -0.863867
vt 0.000499 0.000499
v -5839.088867 63.354885 7240.411133
vn -0.658690 -0.676505 -0.329345
vt 0.083750 0.999500
v -5839.088867 63.354877 7390.786621
vn -0.329345 -0.676504 0.658691
vt 0.916250 0.999500
v -5688.712891 63.354881 7360.704102
vn 0.862025 -0.472641 0.183092
vt 0.749709 0.083750
v -5688.712891 63.354877 7390.786621
vn 0.658692 -0.676503 0.329346
vt 0.916250 0.083750
v -5718.780762 63.354877 7390.786621
vn 0.089751 -0.463102 0.881749
vt 0.916250 0.250208
v -5839.088867 63.354885 7270.485840
vn -0.873571 -0.467013 -0.137011
vt 0.250250 0.916250
v -5839.088867 63.354885 7240.411133
vn -0.658690 -0.676505 -0.329345
vt 0.083750 0.916250
v -5809.013672 63.354885 7240.411133
vn -0.137010 -0.467013 -0.873571
vt 0.083750 0.749750
f 58/58/58 59/59/59 60/60/60
f 36/36/36 34/34/34 35/35/35
f 34/34/34 36/36/36 38/38/38
f 37/37/37 38/38/38 36/36/36
f 42/42/42 37/37/37 36/36/36
f 39/39/39 40/40/40 41/41/41
f 47/47/47 41/41/41 40/40/40
f 41/41/41 47/47/47 48/48/48
f 48/48/48 49/49/49 41/41/41
f 43/43/43 44/44/44 45/45/45
f 53/53/53 45/45/45 44/44/44
f 45/45/45 53/53/53 54/54/54
f 46/46/46 43/43/43 45/45/45
f 56/56/56 50/50/50 55/55/55
f 50/50/50 56/56/56 57/57/57
f 50/50/50 51/51/51 52/52/52
f 51/51/51 50/50/50 57/57/57
f 64/64/64 62/62/62 65/65/65
f 62/62/62 64/64/64 63/63/63
f 61/61/61 62/62/62 63/63/63
f 62/62/62 61/61/61 66/66/66
f 68/68/68 67/67/67 72/72/72
f 67/67/67 68/68/68 69/69/69
f 70/70/70 69/69/69 68/68/68
f 68/68/68 71/71/71 70/70/70
f 77/77/77 76/76/76 74/74/74
f 75/75/75 74/74/74 76/76/76
f 74/74/74 75/75/75 73/73/73
f 73/73/73 78/78/78 74/74/74
f 80/80/80 79/79/79 87/87/87
f 79/79/79 80/80/80 81/81/81
f 86/86/86 81/81/81 80/80/80
f 80/80/80 85/85/85 86/86/86
f 82/82/82 83/83/83 84/84/84
f 88/88/88 89/89/89 90/90/90
f 91/91/91 92/92/92 93/93/93
usemtl Lvl_dwarven_plc_stone06
v -5839.088867 -387.772980 7360.711426
vn -0.810551 0.561872 0.165249
vt 0.799700 0.999501
v -5839.088867 -387.772980 7390.786621
vn -0.455229 0.765202 0.455229
vt 0.999500 0.999500
v -5809.006348 -387.772980 7390.786621
vn -0.165197 0.561867 0.810565
vt 0.999500 0.799650
v -5809.013672 -387.772949 7240.411133
vn -0.165223 0.561870 -0.810558
vt 0.000500 0.799700
v -5839.088867 -387.772949 7240.411133
vn -0.455229 0.765202 -0.455228
vt 0.000500 0.999500
v -5839.088867 -387.772980 7270.485840
vn -0.810558 0.561869 -0.165223
vt 0.200300 0.999500
v -5718.780762 -387.772980 7390.786621
vn 0.220703 0.568072 0.792833
vt 0.999500 0.200250
v -5688.712891 -387.772980 7390.786621
vn 0.455230 0.765200 0.455231
vt 0.999501 0.000500
v -5688.712891 -387.772980 7360.704102
vn 0.823051 0.557557 0.108245
vt 0.799650 0.000500
v -5688.712891 -387.772980 7270.478516
vn 0.851761 0.413740 -0.321437
vt 0.200250 0.000500
v -5688.712891 -387.772949 7240.411133
vn 0.455229 0.765202 -0.455228
vt 0.000500 0.000500
v -5718.788086 -387.772949 7240.411133
vn 0.108260 0.557559 -0.823048
vt 0.000500 0.200300
f 94/94/94 95/95/95 96/96/96
f 97/97/97 98/98/98 99/99/99
f 100/100/100 101/101/101 102/102/102
f 103/103/103 104/104/104 105/105/105
usemtl Lvl_dwarven_plc_stone01
v -5809.006348 -387.772919 7390.786621
vn -0.165197 0.561867 0.810565
vt 0.664001 1.247626
v -5718.780762 -387.772919 7390.786621
vn 0.220703 0.568072 0.792833
vt 0.836022 1.247626
v -5718.780762 63.354877 7390.786621
vn 0.089751 -0.463102 0.881749
vt 0.836022 -0.262177
v -5688.712891 -387.772919 7360.704102
vn 0.823051 0.557557 0.108245
vt 0.914001 1.247626
v -5688.712891 63.354881 7360.704102
vn 0.862025 -0.472641 0.183092
vt 0.914001 -0.262177
v -5809.013672 63.354885 7240.411133
vn -0.137010 -0.467013 -0.873571
vt 0.336010 -0.262177
v -5809.013672 -387.772919 7240.411133
vn -0.165223 0.561870 -0.810558
vt 0.336010 1.247626
v -5839.088867 -387.772919 7270.485840
vn -0.810558 0.561869 -0.165223
vt 0.413990 1.247626
v -5839.088867 63.354881 7360.711426
vn -0.873567 -0.467015 0.137032
vt 0.586010 -0.262177
v -5839.088867 -387.772919 7360.711426
vn -0.810551 0.561872 0.165249
vt 0.586010 1.247626
v -5688.712891 63.354885 7270.478516
vn 0.926755 -0.350281 -0.135751
vt 1.086022 -0.262177
v -5688.712891 -387.772919 7270.478516
vn 0.851761 0.413740 -0.321437
vt 1.086022 1.247626
v -5809.006348 63.354877 7390.786621
vn -0.136989 -0.467010 0.873576
vt 0.664001 -0.262177
v -5839.088867 63.354885 7270.485840
vn -0.873571 -0.467013 -0.137011
vt 0.413990 -0.262177
v -5718.788086 63.354885 7240.411133
vn 0.183121 -0.472648 -0.862016
vt 0.163990 -0.262177
v -5718.788086 -387.772919 7240.411133
vn 0.108260 0.557559 -0.823048
vt 0.163989 1.247626
v -5688.712891 63.354885 7270.478516
vn 0.926755 -0.350281 -0.135751
vt 0.086022 -0.262177
v -5688.712891 -387.772919 7270.478516
vn 0.851761 0.413740 -0.321437
vt 0.086022 1.247626
f 122/122/122 123/123/123 120/120/120
f 121/121/121 120/120/120 123/123/123
f 120/120/120 121/121/121 111/111/111
f 112/112/112 111/111/111 121/121/121
f 111/111/111 112/112/112 113/113/113
f 113/113/113 119/119/119 111/111/111
f 119/119/119 113/113/113 114/114/114
f 115/115/115 114/114/114 113/113/113
f 114/114/114 115/115/115 106/106/106
f 117/117/117 116/116/116 109/109/109
f 110/110/110 109/109/109 116/116/116
f 109/109/109 110/110/110 107/107/107
f 108/108/108 107/107/107 110/110/110
f 107/107/107 108/108/108 106/106/106
f 118/118/118 106/106/106 108/108/108
f 106/106/106 118/118/118 114/114/114
