mtllib OVERHILL_A_01_LINE62.mtl
g Line62
usemtl Edge_grab_01
v -7790.020020 -799.999390 -13254.279297
vn 0.532300 0.618966 0.577528
vt 0.261218 0.500000
v -7902.517578 -799.999512 -13169.585938
vn 0.286225 0.879505 0.380192
vt -0.023061 0.500000
v -7901.126465 -853.999390 -13183.219727
vn 0.600328 -0.225467 0.767314
vt 0.000000 1.000000
v -7801.894043 -853.999268 -13263.935547
vn 0.713249 -0.283418 0.641054
vt 0.261218 1.000000
v -7714.881348 -799.999329 -13350.659180
vn 0.655980 0.593703 0.466054
vt 0.500273 0.500000
v -7731.456543 -853.999207 -13357.434570
vn 0.796213 -0.309613 0.519792
vt 0.500273 1.000000
v -7676.413574 -799.999329 -13414.158203
vn 0.729327 0.590933 0.344791
vt 0.651885 0.500000
v -7692.988770 -853.999207 -13420.933594
vn 0.896100 -0.308391 0.319218
vt 0.651885 1.000000
v -7658.720215 -799.999390 -13488.265625
vn 0.790924 0.593110 0.150531
vt 0.800969 0.500000
v -7674.985840 -853.999268 -13491.683594
vn 0.947659 -0.290725 0.131988
vt 0.800969 1.000000
v -7649.680664 -799.999390 -13599.806641
vn 0.972963 0.216246 0.081126
vt 1.031709 0.500000
v -7666.662598 -853.999268 -13588.790039
vn 0.955396 -0.283749 0.081889
vt 1.000000 1.000000
v -7801.894043 -799.999268 -13263.935547
vn 0.000006 1.000000 0.000007
vt 0.261218 0.000000
v -7901.126465 -799.999390 -13183.219727
vn 0.000007 1.000000 0.000010
vt 0.000000 0.000000
v -7731.456543 -799.999207 -13357.434570
vn 0.000006 1.000000 0.000005
vt 0.500273 0.000000
v -7692.988770 -799.999207 -13420.933594
vn -0.001145 0.999999 -0.000292
vt 0.651885 0.000000
v -7674.985840 -799.999390 -13491.683594
vn -0.000708 1.000000 0.000159
vt 0.800969 0.000000
v -7666.662598 -799.999268 -13588.790039
vn -0.000038 1.000000 -0.000474
vt 1.000000 0.000000
f 12/12/12 11/11/11 10/10/10
f 9/9/9 10/10/10 11/11/11
f 10/10/10 9/9/9 8/8/8
f 7/7/7 8/8/8 9/9/9
f 8/8/8 7/7/7 6/6/6
f 5/5/5 6/6/6 7/7/7
f 6/6/6 5/5/5 4/4/4
f 1/1/1 4/4/4 5/5/5
f 4/4/4 1/1/1 3/3/3
f 2/2/2 3/3/3 1/1/1
f 14/14/14 2/2/2 13/13/13
f 1/1/1 13/13/13 2/2/2
f 13/13/13 1/1/1 15/15/15
f 5/5/5 15/15/15 1/1/1
f 15/15/15 5/5/5 16/16/16
f 7/7/7 16/16/16 5/5/5
f 16/16/16 7/7/7 17/17/17
f 9/9/9 17/17/17 7/7/7
f 17/17/17 9/9/9 18/18/18
f 11/11/11 18/18/18 9/9/9
