mtllib OVERHILL_A_01_OBJECT373.mtl
g Object373
usemtl Lvl_dwarven_plc_stone02
v 1692.906616 -733.763672 5592.751953
vn 1.000000 -0.000083 0.000040
vt -0.005449 0.747296
v 1692.933716 -407.419281 5592.751953
vn 1.000000 -0.000083 0.000040
vt -0.005448 -0.262484
v 1692.930664 -407.416351 5669.384277
vn 1.000000 -0.000083 0.000040
vt 0.240995 -0.262522
v 1692.912598 -733.763550 5669.384277
vn 1.000000 -0.000055 -0.000078
vt 0.240995 0.747259
v 1609.206909 -733.760620 5592.751953
vn -0.000214 -0.000001 -1.000000
vt -0.005449 0.747296
v 1609.222534 -407.416199 5592.751953
vn -0.000214 -0.000001 -1.000000
vt -0.005448 -0.262484
v 1692.906738 -407.416473 5592.733887
vn -0.000214 -0.000001 -1.000000
vt 0.240995 -0.262522
v 1692.906738 -733.763672 5592.751953
vn -0.000002 -0.000055 -1.000000
vt 0.240995 0.747259
f 3/3/3 1/1/1 2/2/2
f 1/1/1 3/3/3 4/4/4
f 7/7/7 5/5/5 6/6/6
f 5/5/5 7/7/7 8/8/8
