mtllib OVERHILL_A_01_LINE04.mtl
g Line04
usemtl Rock_wall1
v -6894.905273 -644.216675 -12301.879883
vn 0.794377 -0.573267 -0.200822
vt 0.000000 0.272194
v -6904.556641 -644.528687 -12341.832031
vn 0.602747 -0.662297 -0.445038
vt 0.137000 0.272194
v -6895.246094 -587.064331 -12346.881836
vn 0.853830 -0.010562 -0.520445
vt 0.137000 -0.012570
v -6882.854492 -586.752319 -12301.879883
vn 0.965310 0.054671 -0.255317
vt 0.000000 -0.012570
v -7002.611328 -644.528687 -12431.028320
vn 0.258134 -0.776378 -0.574982
vt 0.482716 0.272194
v -6998.216309 -587.064331 -12439.563477
vn 0.482807 0.003401 -0.875720
vt 0.482716 -0.012570
v -7070.711426 -644.528687 -12447.786133
vn 0.062321 -0.489794 -0.869608
vt 0.658622 0.272194
v -7069.797363 -587.064331 -12460.779297
vn 0.128322 0.001241 -0.991732
vt 0.658622 -0.012570
v -7152.731445 -644.528687 -12447.382813
vn -0.442102 -0.800585 -0.404486
vt 0.864350 0.272194
v -7160.121582 -587.064331 -12458.897461
vn -0.518378 0.002413 -0.855148
vt 0.864350 -0.012570
v -7185.539063 -636.207458 -12380.617188
vn -0.648901 -0.637902 -0.414739
vt 1.052103 0.272194
v -7195.208496 -578.743103 -12394.651367
vn -0.720220 0.018486 -0.693499
vt 1.052103 -0.012570
v -7233.326172 -611.186890 -12348.334961
vn -0.420289 -0.744629 -0.518542
vt 1.209778 0.272194
v -7244.164551 -553.722534 -12365.611328
vn -0.309390 -0.115652 -0.943876
vt 1.209778 -0.012570
v -7297.867676 -539.573303 -12365.262695
vn -0.002363 -0.015704 -0.999874
vt 1.346858 -0.012570
v -7287.029785 -597.037598 -12347.986328
vn -0.210641 -0.877877 -0.430072
vt 1.346858 0.272194
v -7340.732910 -590.925537 -12347.636719
vn -0.032476 -0.734375 -0.677967
vt 1.483937 0.272194
v -7351.571289 -533.461243 -12364.913086
vn -0.081718 0.094887 -0.992128
vt 1.483937 -0.012570
v -7464.306641 -604.848389 -12328.102539
vn 0.090381 -0.769410 -0.632328
vt 1.799848 0.272194
v -7475.145020 -547.384033 -12345.378906
vn -0.124346 -0.000603 -0.992239
vt 1.799848 -0.012570
v -7578.670410 -575.079224 -12337.419922
vn -0.111887 0.003613 -0.993714
vt 2.031966 -0.012570
v -7526.907715 -560.891724 -12341.399414
vn -0.078754 0.005370 -0.996880
vt 1.915907 -0.012570
v -7516.069336 -618.356079 -12324.123047
vn 0.121619 -0.664786 -0.737068
vt 1.915907 0.272194
v -7567.832031 -632.543579 -12320.143555
vn 0.092000 -0.830026 -0.550085
vt 2.031966 0.272194
v -7674.843262 -644.528687 -12302.598633
vn -0.186033 -0.814417 -0.549652
vt 2.299337 0.272194
v -7685.681641 -587.064331 -12319.875000
vn -0.313776 -0.000958 -0.949497
vt 2.299337 -0.012570
v -7766.559570 -644.528687 -12253.800781
vn -0.271107 -0.816613 -0.509553
vt 2.542636 0.272194
v -7777.397949 -587.064331 -12271.077148
vn -0.466210 -0.121767 -0.876254
vt 2.542636 -0.012570
v -7619.375000 -644.528687 -12108.952148
vn 0.348272 -0.817444 0.458794
vt 3.246658 0.272194
v -7568.580078 -644.528687 -12147.510742
vn 0.500885 -0.795383 0.341292
vt 3.470783 0.272194
v -7561.277344 -587.064331 -12127.280273
vn 0.708544 -0.009456 0.705604
vt 3.470783 -0.012570
v -7612.072266 -587.064331 -12088.721680
vn 0.601079 0.108229 0.791827
vt 3.246658 -0.012570
v -7524.842285 -632.543579 -12207.466797
vn 0.526878 -0.776944 0.344611
vt 3.691295 0.272194
v -7517.539551 -575.079285 -12187.236328
vn 0.678059 -0.112145 0.726402
vt 3.691295 -0.012570
v -7469.767578 -560.891724 -12213.922852
vn 0.487654 -0.002764 0.873033
vt 3.841723 -0.012570
v -7477.070313 -618.356079 -12234.154297
vn 0.436635 -0.837983 0.327314
vt 3.841723 0.272194
v -7429.298340 -604.848389 -12260.840820
vn 0.372230 -0.752730 0.542993
vt 3.992151 0.272194
v -7421.995605 -547.384033 -12240.610352
vn 0.368264 0.115019 0.922579
vt 3.992151 -0.012570
v -7429.298340 -604.848389 -12260.840820
vn 0.372230 -0.752730 0.542993
vt 2.992151 0.272194
v -7331.348145 -590.925537 -12290.561523
vn 0.030127 -0.819868 0.571759
vt 3.251470 0.272194
v -7324.045410 -533.461243 -12270.331055
vn 0.164297 -0.008693 0.986373
vt 3.251470 -0.012570
v -7421.995605 -547.384033 -12240.610352
vn 0.368264 0.115019 0.922579
vt 2.992151 -0.012570
v -7224.305664 -553.722595 -12270.855469
vn -0.059846 0.005036 0.998195
vt 3.506753 -0.012570
v -7274.175781 -539.573303 -12270.592773
vn 0.014781 0.000147 0.999891
vt 3.379112 -0.012570
v -7281.478027 -597.037659 -12290.824219
vn -0.145354 -0.706291 0.692839
vt 3.379112 0.272194
v -7231.608398 -611.186890 -12291.085938
vn -0.296948 -0.650607 0.698951
vt 3.506753 0.272194
v -7151.894531 -644.216675 -12279.597656
vn -0.216045 -0.966462 0.138840
vt 3.731380 0.272194
v -7144.591797 -586.752319 -12259.367188
vn -0.179903 -0.093588 0.979222
vt 3.731380 -0.012570
f 34/34/34 36/36/36 35/35/35
f 37/37/37 35/35/35 36/36/36
f 35/35/35 37/37/37 38/38/38
f 34/34/34 33/33/33 36/36/36
f 33/33/33 34/34/34 30/30/30
f 31/31/31 30/30/30 34/34/34
f 30/30/30 31/31/31 29/29/29
f 32/32/32 29/29/29 31/31/31
f 4/4/4 1/1/1 3/3/3
f 2/2/2 3/3/3 1/1/1
f 3/3/3 2/2/2 6/6/6
f 5/5/5 6/6/6 2/2/2
f 6/6/6 5/5/5 8/8/8
f 7/7/7 8/8/8 5/5/5
f 8/8/8 7/7/7 10/10/10
f 9/9/9 10/10/10 7/7/7
f 10/10/10 9/9/9 12/12/12
f 11/11/11 12/12/12 9/9/9
f 12/12/12 11/11/11 14/14/14
f 13/13/13 14/14/14 11/11/11
f 14/14/14 13/13/13 16/16/16
f 16/16/16 15/15/15 14/14/14
f 15/15/15 16/16/16 17/17/17
f 27/27/27 28/28/28 25/25/25
f 26/26/26 25/25/25 28/28/28
f 25/25/25 26/26/26 24/24/24
f 21/21/21 24/24/24 26/26/26
f 24/24/24 21/21/21 23/23/23
f 22/22/22 23/23/23 21/21/21
f 23/23/23 22/22/22 19/19/19
f 20/20/20 19/19/19 22/22/22
f 19/19/19 20/20/20 17/17/17
f 18/18/18 17/17/17 20/20/20
f 17/17/17 18/18/18 15/15/15
f 42/42/42 39/39/39 41/41/41
f 40/40/40 41/41/41 39/39/39
f 41/41/41 40/40/40 44/44/44
f 45/45/45 44/44/44 40/40/40
f 44/44/44 45/45/45 43/43/43
f 46/46/46 43/43/43 45/45/45
f 43/43/43 46/46/46 48/48/48
f 47/47/47 48/48/48 46/46/46
usemtl Rock_top_blend
v -7152.731445 -526.814331 -12447.382813
vn -0.162097 0.814520 -0.557030
vt 0.864350 -1.000000
v -7070.711426 -526.814331 -12447.786133
vn 0.130948 0.660525 -0.739296
vt 0.658622 -1.000000
v -7069.797363 -587.064331 -12460.779297
vn 0.128322 0.001241 -0.991732
vt 0.658622 -0.012570
v -7160.121582 -587.064331 -12458.897461
vn -0.518378 0.002413 -0.855148
vt 0.864350 -0.012570
v -7195.208496 -578.743103 -12394.651367
vn -0.720220 0.018486 -0.693499
vt 1.052103 -0.012570
v -7185.539063 -518.493103 -12380.617188
vn -0.325608 0.838313 -0.437276
vt 1.052103 -1.000000
v -7233.326172 -493.472565 -12348.334961
vn 0.109927 0.753741 -0.647912
vt 1.209778 -1.000000
v -7287.029785 -479.323303 -12347.986328
vn 0.117229 0.741317 -0.660838
vt 1.346858 -1.000000
v -7297.867676 -539.573303 -12365.262695
vn -0.002363 -0.015704 -0.999874
vt 1.346858 -0.012570
v -7351.571289 -533.461243 -12364.913086
vn -0.081718 0.094887 -0.992128
vt 1.483937 -0.012570
v -7244.164551 -553.722534 -12365.611328
vn -0.309390 -0.115652 -0.943876
vt 1.209778 -0.012570
v -7475.145020 -547.384033 -12345.378906
vn -0.124346 -0.000603 -0.992239
vt 1.799848 -0.012570
v -7464.306641 -487.134033 -12328.102539
vn -0.233195 0.783591 -0.575852
vt 1.799848 -1.000000
v -7340.732910 -473.211212 -12347.636719
vn -0.074993 0.846324 -0.527363
vt 1.483937 -1.000000
v -7567.832031 -514.829224 -12320.143555
vn -0.219560 0.797249 -0.562306
vt 2.031966 -1.000000
v -7516.069336 -500.641724 -12324.123047
vn -0.254799 0.784468 -0.565409
vt 1.915907 -1.000000
v -7526.907715 -560.891724 -12341.399414
vn -0.078754 0.005370 -0.996880
vt 1.915907 -0.012570
v -7578.670410 -575.079224 -12337.419922
vn -0.111887 0.003613 -0.993714
vt 2.031966 -0.012570
v -7685.681641 -587.064331 -12319.875000
vn -0.313776 -0.000958 -0.949497
vt 2.299337 -0.012570
v -7674.843262 -526.814331 -12302.598633
vn -0.227617 0.722142 -0.653224
vt 2.299337 -1.000000
v -7766.559570 -526.814331 -12253.800781
vn -0.273904 0.812372 -0.514809
vt 2.542636 -1.000000
v -7612.072266 -587.064331 -12088.721680
vn 0.601079 0.108229 0.791827
vt 3.246658 -0.012570
v -7561.277344 -587.064331 -12127.280273
vn 0.708544 -0.009456 0.705604
vt 3.470783 -0.012570
v -7568.580078 -526.814331 -12147.510742
vn 0.431152 0.720358 0.543315
vt 3.470783 -1.000000
v -7619.375000 -526.814331 -12108.952148
vn 0.228197 0.926044 0.300614
vt 3.246658 -1.000000
v -7517.539551 -575.079285 -12187.236328
vn 0.678059 -0.112145 0.726402
vt 3.691295 -0.012570
v -7524.842285 -514.829285 -12207.466797
vn 0.314052 0.747274 0.585622
vt 3.691295 -1.000000
v -7777.397949 -587.064331 -12271.077148
vn -0.466210 -0.121767 -0.876254
vt 2.542636 -0.012570
v -7477.070313 -500.641724 -12234.154297
vn 0.059965 0.828806 0.556313
vt 3.841723 -1.000000
v -7469.767578 -560.891724 -12213.922852
vn 0.487654 -0.002764 0.873033
vt 3.841723 -0.012570
v -7421.995605 -547.384033 -12240.610352
vn 0.368264 0.115019 0.922579
vt 3.992151 -0.012570
v -7429.298340 -487.134033 -12260.840820
vn 0.062160 0.844692 0.531631
vt 3.992151 -1.000000
v -7421.995605 -547.384033 -12240.610352
vn 0.368264 0.115019 0.922579
vt 2.992151 -0.012570
v -7324.045410 -533.461243 -12270.331055
vn 0.164297 -0.008693 0.986373
vt 3.251470 -0.012570
v -7331.348145 -473.211212 -12290.561523
vn 0.127019 0.775726 0.618155
vt 3.251470 -1.000000
v -7429.298340 -487.134033 -12260.840820
vn 0.062160 0.844692 0.531631
vt 2.992151 -1.000000
v -7231.608398 -493.472565 -12291.085938
vn 0.266269 0.751748 0.603304
vt 3.506753 -1.000000
v -7281.478027 -479.323303 -12290.824219
vn 0.166104 0.763477 0.624109
vt 3.379112 -1.000000
v -7274.175781 -539.573303 -12270.592773
vn 0.014781 0.000147 0.999891
vt 3.379112 -0.012570
v -7224.305664 -553.722595 -12270.855469
vn -0.059846 0.005036 0.998195
vt 3.506753 -0.012570
v -7144.591797 -586.752319 -12259.367188
vn -0.179903 -0.093588 0.979222
vt 3.731380 -0.012570
v -7151.894531 -526.502319 -12279.597656
vn 0.105968 0.919938 0.377472
vt 3.731380 -1.000000
v -7002.611328 -526.814331 -12431.028320
vn 0.411332 0.650252 -0.638732
vt 0.482716 -1.000000
v -6998.216309 -587.064331 -12439.563477
vn 0.482807 0.003401 -0.875720
vt 0.482716 -0.012570
v -6904.556641 -526.814331 -12341.832031
vn 0.675012 0.662881 -0.323955
vt 0.137000 -1.000000
v -6895.246094 -587.064331 -12346.881836
vn 0.853830 -0.010562 -0.520445
vt 0.137000 -0.012570
v -6894.905273 -526.502319 -12301.879883
vn 0.357919 0.849416 -0.387797
vt 0.000000 -1.000000
v -6882.854492 -586.752319 -12301.879883
vn 0.965310 0.054671 -0.255317
vt 0.000000 -0.012570
f 75/75/75 78/78/78 77/77/77
f 79/79/79 77/77/77 78/78/78
f 77/77/77 79/79/79 80/80/80
f 75/75/75 74/74/74 78/78/78
f 74/74/74 75/75/75 71/71/71
f 72/72/72 71/71/71 75/75/75
f 71/71/71 72/72/72 70/70/70
f 73/73/73 70/70/70 72/72/72
f 55/55/55 59/59/59 57/57/57
f 59/59/59 55/55/55 53/53/53
f 54/54/54 53/53/53 55/55/55
f 53/53/53 54/54/54 52/52/52
f 49/49/49 52/52/52 54/54/54
f 52/52/52 49/49/49 51/51/51
f 50/50/50 51/51/51 49/49/49
f 51/51/51 50/50/50 92/92/92
f 91/91/91 92/92/92 50/50/50
f 92/92/92 91/91/91 94/94/94
f 93/93/93 94/94/94 91/91/91
f 94/94/94 93/93/93 96/96/96
f 95/95/95 96/96/96 93/93/93
f 57/57/57 56/56/56 55/55/55
f 56/56/56 57/57/57 58/58/58
f 76/76/76 69/69/69 67/67/67
f 68/68/68 67/67/67 69/69/69
f 67/67/67 68/68/68 66/66/66
f 63/63/63 66/66/66 68/68/68
f 66/66/66 63/63/63 65/65/65
f 64/64/64 65/65/65 63/63/63
f 65/65/65 64/64/64 60/60/60
f 61/61/61 60/60/60 64/64/64
f 60/60/60 61/61/61 58/58/58
f 62/62/62 58/58/58 61/61/61
f 58/58/58 62/62/62 56/56/56
f 84/84/84 81/81/81 83/83/83
f 82/82/82 83/83/83 81/81/81
f 83/83/83 82/82/82 86/86/86
f 87/87/87 86/86/86 82/82/82
f 86/86/86 87/87/87 85/85/85
f 88/88/88 85/85/85 87/87/87
f 85/85/85 88/88/88 90/90/90
f 89/89/89 90/90/90 88/88/88
usemtl Ground_main
v -7331.348145 -590.925537 -12290.561523
vn 0.030127 -0.819868 0.571759
vt 2.962284 3.204118
v -7340.732910 -590.925537 -12347.636719
vn -0.032476 -0.734375 -0.677967
vt 3.009209 3.489493
v -7287.029785 -597.037598 -12347.986328
vn -0.210641 -0.877877 -0.430072
vt 2.740692 3.491239
v -7287.029785 -597.037598 -12347.986328
vn -0.210641 -0.877877 -0.430072
vt 3.740692 3.491239
v -7281.478027 -597.037659 -12290.824219
vn -0.145354 -0.706291 0.692839
vt 3.712936 3.205428
v -7331.348145 -590.925537 -12290.561523
vn 0.030127 -0.819868 0.571759
vt 3.962284 3.204118
v -7340.732910 -473.211212 -12347.636719
vn -0.074993 0.846324 -0.527363
vt 3.009209 3.489493
v -7464.306641 -487.134033 -12328.102539
vn -0.233195 0.783591 -0.575852
vt 3.627075 3.391824
v -7446.802246 -483.374939 -12294.471680
vn -0.165355 0.984035 0.065821
vt 3.539555 3.223670
v -7336.040527 -469.452118 -12319.099609
vn 0.001940 0.999993 0.003193
vt 2.985744 3.346806
v -7516.069336 -500.641724 -12324.123047
vn -0.254799 0.784468 -0.565409
vt 3.885887 3.371925
v -7496.569824 -496.882629 -12279.138672
vn -0.240210 0.966837 0.086750
vt 3.788391 3.147002
v -6894.905273 -644.216675 -12301.879883
vn 0.794377 -0.573267 -0.200822
vt 1.773388 3.277700
v -7151.894531 -644.216675 -12279.597656
vn -0.216045 -0.966462 0.138840
vt 3.050285 3.163169
v -6904.556641 -644.528687 -12341.832031
vn 0.602747 -0.662297 -0.445038
vt 1.828323 3.460468
v -7287.029785 -479.323303 -12347.986328
vn 0.117229 0.741317 -0.660838
vt 2.740688 3.491239
v -7233.326172 -493.472565 -12348.334961
vn 0.109927 0.753741 -0.647912
vt 3.472172 3.492984
v -7287.029785 -479.323303 -12347.986328
vn 0.117229 0.741317 -0.660838
vt 3.740688 3.491239
v -7284.253906 -475.564209 -12319.405273
vn 0.190000 0.981654 -0.015967
vt 3.726810 3.348333
v -7232.467285 -489.713470 -12319.710938
vn 0.343955 0.938918 0.011300
vt 3.467880 3.349861
v -7151.894531 -526.502319 -12279.597656
vn 0.105968 0.919938 0.377472
vt 3.065014 3.149297
v -7136.190430 -526.658325 -12348.505859
vn 0.094854 0.995479 0.005018
vt 2.986496 3.493837
v -7168.716797 -522.497742 -12330.107422
vn 0.338963 0.940664 -0.015957
vt 3.149124 3.401846
v -7051.752930 -526.736328 -12355.254883
vn 0.000473 0.999997 -0.002541
vt 2.564304 3.527583
v -7674.843262 -526.814331 -12302.598633
vn -0.227617 0.722142 -0.653224
vt 2.679760 3.264302
v -7766.559570 -526.814331 -12253.800781
vn -0.273904 0.812372 -0.514809
vt 3.138340 3.020315
v -7621.711426 -526.814331 -12225.054688
vn -0.083460 0.995614 0.042286
vt 2.414101 2.876583
v -7152.731445 -644.528687 -12447.382813
vn -0.442102 -0.800585 -0.404486
vt 3.069199 3.988223
v -7002.611328 -644.528687 -12431.028320
vn 0.258134 -0.776378 -0.574982
vt 2.318600 3.906450
v -7070.711426 -644.528687 -12447.786133
vn 0.062321 -0.489794 -0.869608
vt 2.659100 3.990239
v -7336.040527 -469.452118 -12319.099609
vn 0.001940 0.999993 0.003193
vt 3.985744 3.346806
v -7621.711426 -526.814331 -12225.054688
vn -0.083460 0.995614 0.042286
vt 3.414101 2.876583
v -7546.336914 -511.070160 -12263.804688
vn -0.216486 0.972419 0.086801
vt 3.037228 3.070335
v -7567.832031 -514.829224 -12320.143555
vn -0.219560 0.797249 -0.562306
vt 3.144703 3.352027
v -7231.608398 -493.472565 -12291.085938
vn 0.266269 0.751748 0.603304
vt 3.463585 3.206738
v -7674.843262 -526.814331 -12302.598633
vn -0.227617 0.722142 -0.653224
vt 3.679760 3.264302
v -7516.069336 -500.641724 -12324.123047
vn -0.254799 0.784468 -0.565409
vt 2.885887 3.371925
v -7496.569824 -496.882629 -12279.138672
vn -0.240210 0.966837 0.086750
vt 2.788391 3.147002
v -7477.070313 -618.356079 -12234.154297
vn 0.436635 -0.837983 0.327314
vt 2.690895 2.922079
v -7524.842285 -632.543579 -12207.466797
vn 0.526878 -0.776944 0.344611
vt 2.929752 2.788643
v -7567.832031 -632.543579 -12320.143555
vn 0.092000 -0.830026 -0.550085
vt 3.144703 3.352027
v -7516.069336 -618.356079 -12324.123047
vn 0.121619 -0.664786 -0.737068
vt 2.885887 3.371925
v -7429.298340 -604.848389 -12260.840820
vn 0.372230 -0.752730 0.542993
vt 3.452034 3.055515
v -7464.306641 -604.848389 -12328.102539
vn 0.090381 -0.769410 -0.632328
vt 3.627075 3.391824
v -7477.070313 -618.356079 -12234.154297
vn 0.436635 -0.837983 0.327314
vt 3.690895 2.922079
v -7516.069336 -618.356079 -12324.123047
vn 0.121619 -0.664786 -0.737068
vt 3.885887 3.371925
v -7568.580078 -644.528687 -12147.510742
vn 0.500885 -0.795383 0.341292
vt 3.148441 2.488863
v -7674.843262 -644.528687 -12302.598633
vn -0.186033 -0.814417 -0.549652
vt 3.679760 3.264302
v -7231.608398 -611.186890 -12291.085938
vn -0.296948 -0.650607 0.698951
vt 3.463585 3.206738
v -7233.326172 -611.186890 -12348.334961
vn -0.420289 -0.744629 -0.518542
vt 3.472172 3.492984
v -7185.539063 -636.207458 -12380.617188
vn -0.648901 -0.637902 -0.414739
vt 3.233238 3.654395
v -7619.375000 -644.528687 -12108.952148
vn 0.348272 -0.817444 0.458794
vt 3.402416 2.296070
v -7619.375000 -644.528687 -12108.952148
vn 0.348272 -0.817444 0.458794
vt 2.402416 2.296070
v -7766.559570 -644.528687 -12253.800781
vn -0.271107 -0.816613 -0.509553
vt 3.112492 3.067038
v -7674.843262 -644.528687 -12302.598633
vn -0.186033 -0.814417 -0.549652
vt 2.679760 3.264302
v -7002.611328 -526.814331 -12431.028320
vn 0.411332 0.650252 -0.638732
vt 3.318600 3.906450
v -7070.711426 -526.814331 -12447.786133
vn 0.130948 0.660525 -0.739296
vt 3.659100 3.990239
v -7051.752930 -526.736328 -12355.254883
vn 0.000473 0.999997 -0.002541
vt 3.564304 3.527583
v -6904.556641 -526.814331 -12341.832031
vn 0.675012 0.662881 -0.323955
vt 2.828323 3.460468
v -6894.905273 -526.502319 -12301.879883
vn 0.357919 0.849416 -0.387797
vt 1.780067 3.260708
v -6894.905273 -526.502319 -12301.879883
vn 0.357919 0.849416 -0.387797
vt 2.780067 3.260708
v -7070.711426 -526.814331 -12447.786133
vn 0.130948 0.660525 -0.739296
vt 2.659100 3.990239
v -7152.731445 -526.814331 -12447.382813
vn -0.162097 0.814520 -0.557030
vt 3.069199 3.988223
v -7331.348145 -473.211212 -12290.561523
vn 0.127019 0.775726 0.618155
vt 3.962284 3.204118
v -7281.478027 -479.323303 -12290.824219
vn 0.166104 0.763477 0.624109
vt 3.712933 3.205428
v -7429.298340 -487.134033 -12260.840820
vn 0.062160 0.844692 0.531631
vt 3.452034 3.055515
v -7331.348145 -473.211212 -12290.561523
vn 0.127019 0.775726 0.618155
vt 2.962284 3.204118
v -7477.070313 -500.641724 -12234.154297
vn 0.059965 0.828806 0.556313
vt 3.690895 2.922079
v -7621.711426 -526.814331 -12225.054688
vn -0.083460 0.995614 0.042286
vt 3.414101 3.876583
v -7568.580078 -526.814331 -12147.510742
vn 0.431152 0.720358 0.543315
vt 3.148441 3.488863
v -7524.842285 -514.829285 -12207.466797
vn 0.314052 0.747274 0.585622
vt 2.929752 3.788643
v -7524.842285 -514.829285 -12207.466797
vn 0.314052 0.747274 0.585622
vt 2.929752 2.788643
v -7477.070313 -500.641724 -12234.154297
vn 0.059965 0.828806 0.556313
vt 2.690895 2.922079
v -7185.539063 -518.493103 -12380.617188
vn -0.325608 0.838313 -0.437276
vt 3.233238 3.654395
v -7619.375000 -526.814331 -12108.952148
vn 0.228197 0.926044 0.300614
vt 2.402416 2.296070
v -7619.375000 -526.814331 -12108.952148
vn 0.228197 0.926044 0.300614
vt 3.402416 3.296070
f 149/149/149 150/150/150 151/151/151
f 127/127/127 160/160/160 115/115/115
f 161/161/161 115/115/115 160/160/160
f 115/115/115 161/161/161 116/116/116
f 131/131/131 116/116/116 161/161/161
f 116/116/116 131/131/131 119/119/119
f 117/117/117 119/119/119 131/131/131
f 119/119/119 117/117/117 118/118/118
f 120/120/120 118/118/118 117/117/117
f 118/118/118 120/120/120 159/159/159
f 158/158/158 159/159/159 120/120/120
f 117/117/117 156/156/156 120/120/120
f 115/115/115 116/116/116 113/113/113
f 119/119/119 113/113/113 116/116/116
f 113/113/113 119/119/119 170/170/170
f 118/118/118 170/170/170 119/119/119
f 170/170/170 118/118/118 159/159/159
f 127/127/127 115/115/115 114/114/114
f 113/113/113 114/114/114 115/115/115
f 163/163/163 106/106/106 162/162/162
f 105/105/105 162/162/162 106/106/106
f 162/162/162 105/105/105 164/164/164
f 108/108/108 164/164/164 105/105/105
f 107/107/107 108/108/108 104/104/104
f 105/105/105 104/104/104 108/108/108
f 104/104/104 105/105/105 103/103/103
f 106/106/106 103/103/103 105/105/105
f 103/103/103 106/106/106 112/112/112
f 109/109/109 110/110/110 111/111/111
f 125/125/125 111/111/111 110/110/110
f 146/146/146 147/147/147 110/110/110
f 124/124/124 110/110/110 147/147/147
f 110/110/110 124/124/124 125/125/125
f 126/126/126 125/125/125 124/124/124
f 100/100/100 110/110/110 145/145/145
f 110/110/110 100/100/100 146/146/146
f 100/100/100 101/101/101 102/102/102
f 101/101/101 100/100/100 145/145/145
f 132/132/132 128/128/128 130/130/130
f 129/129/129 130/130/130 128/128/128
f 130/130/130 129/129/129 133/133/133
f 134/134/134 133/133/133 129/129/129
f 128/128/128 168/168/168 129/129/129
f 169/169/169 129/129/129 168/168/168
f 129/129/129 169/169/169 134/134/134
f 140/140/140 141/141/141 142/142/142
f 141/141/141 140/140/140 139/139/139
f 98/98/98 139/139/139 140/140/140
f 139/139/139 98/98/98 97/97/97
f 99/99/99 97/97/97 98/98/98
f 135/135/135 136/136/136 137/137/137
f 143/143/143 137/137/137 136/136/136
f 137/137/137 143/143/143 144/144/144
f 148/148/148 144/144/144 143/143/143
f 137/137/137 138/138/138 135/135/135
f 154/154/154 152/152/152 153/153/153
f 152/152/152 154/154/154 155/155/155
f 157/157/157 155/155/155 154/154/154
f 121/121/121 122/122/122 123/123/123
f 171/171/171 123/123/123 122/122/122
f 172/172/172 166/166/166 165/165/165
f 167/167/167 165/165/165 166/166/166
