mtllib OVERHILL_A_01_LINE164.mtl
g Line164
usemtl Lvl_dwarven_plc_stone03
v -8147.867188 -1168.937012 13478.889648
vn 0.000000 0.000000 1.000000
vt 1.318752 0.000000
v -8147.867188 -1228.936768 13478.889648
vn 0.000000 0.000000 1.000000
vt 1.318752 1.000000
v -8015.404297 -1228.936768 13478.889648
vn 0.000000 0.000000 1.000000
vt 1.609895 1.000000
v -8147.867188 -1168.937012 13678.889648
vn 0.000000 0.000000 1.000000
vt 0.879168 0.000000
v -8347.866211 -1168.937012 13678.889648
vn 0.000000 0.000000 1.000000
vt 0.439584 0.000000
v -8347.866211 -1228.936890 13678.889648
vn 0.000000 0.000000 1.000000
vt 0.439584 1.000000
v -8347.866211 -1168.937012 13678.889648
vn -1.000000 -0.000004 0.000000
vt 0.439584 0.000000
v -8347.867188 -1168.937012 13478.889648
vn -1.000000 -0.000004 0.000000
vt 0.000000 0.000000
v -8347.866211 -1228.936768 13478.889648
vn -1.000000 -0.000004 0.000000
vt 0.000000 1.000000
v -8347.866211 -1228.936890 13678.889648
vn -1.000000 -0.000004 0.000000
vt 0.439584 1.000000
v -7682.940430 -1168.937012 13710.535156
vn -1.000000 -0.000004 0.000008
vt 3.000000 0.000000
v -7682.941406 -1168.937012 13578.889648
vn -1.000000 -0.000004 0.000008
vt 2.560416 0.000000
v -7682.941406 -1228.936768 13578.889648
vn -1.000000 -0.000004 0.000008
vt 2.560416 1.000000
v -7882.941406 -1228.936768 13578.889648
vn 0.000000 0.000000 1.000000
vt 2.120831 1.000000
v -7682.941406 -1228.936768 13578.889648
vn 0.000000 0.000000 1.000000
vt 2.560416 1.000000
v -7682.941406 -1168.937012 13578.889648
vn 0.000000 0.000000 1.000000
vt 2.560416 0.000000
v -7882.941406 -1168.937012 13578.889648
vn 0.000000 0.000000 1.000000
vt 2.120831 0.000000
v -8015.404297 -1168.937012 13478.889648
vn 0.000000 0.000000 1.000000
vt 1.609895 0.000000
v -7682.939941 -1228.936890 13710.535156
vn -1.000000 -0.000004 0.000008
vt 3.000000 1.000000
v -7882.941406 -1228.936768 13478.889648
vn -1.000000 -0.000004 0.000000
vt 1.901039 1.000000
v -7882.941406 -1228.936768 13578.889648
vn -1.000000 -0.000004 0.000000
vt 2.120831 1.000000
v -7882.941406 -1168.937012 13578.889648
vn -1.000000 -0.000004 0.000000
vt 2.120831 0.000000
v -7882.941406 -1168.937012 13478.889648
vn -1.000000 -0.000004 0.000000
vt 1.901039 0.000000
v -7882.941406 -1228.936768 13478.889648
vn 0.000000 0.000000 1.000000
vt 1.901039 1.000000
v -7882.941406 -1168.937012 13478.889648
vn 0.000000 0.000000 1.000000
vt 1.901039 0.000000
v -8147.866699 -1228.936890 13678.889648
vn 1.000000 0.000004 0.000000
vt 0.879168 1.000000
v -8147.867188 -1228.936768 13478.889648
vn 1.000000 0.000004 0.000000
vt 1.318752 1.000000
v -8147.867188 -1168.937012 13478.889648
vn 1.000000 0.000004 0.000000
vt 1.318752 0.000000
v -8147.867188 -1168.937012 13678.889648
vn 1.000000 0.000004 0.000000
vt 0.879168 0.000000
v -8147.866699 -1228.936890 13678.889648
vn 0.000000 0.000000 1.000000
vt 0.879168 1.000000
f 6/6/6 4/4/4 5/5/5
f 4/4/4 6/6/6 30/30/30
f 3/3/3 1/1/1 2/2/2
f 1/1/1 3/3/3 18/18/18
f 25/25/25 18/18/18 3/3/3
f 3/3/3 24/24/24 25/25/25
f 9/9/9 7/7/7 8/8/8
f 7/7/7 9/9/9 10/10/10
f 13/13/13 11/11/11 12/12/12
f 11/11/11 13/13/13 19/19/19
f 16/16/16 14/14/14 15/15/15
f 14/14/14 16/16/16 17/17/17
f 22/22/22 20/20/20 21/21/21
f 20/20/20 22/22/22 23/23/23
f 28/28/28 26/26/26 27/27/27
f 26/26/26 28/28/28 29/29/29
usemtl Lvl_dwarven_plc_stone06
v -8347.866211 -1228.936890 13678.889648
vn 0.000000 0.000000 1.000000
vt 0.439584 0.000000
v -8347.866211 -1288.936646 13678.889648
vn 0.000000 0.000000 1.000000
vt 0.439584 1.000000
v -8147.866699 -1288.936646 13678.889648
vn 0.554580 0.000001 0.832131
vt 0.879168 1.000000
v -8147.866699 -1228.936890 13678.889648
vn 0.000000 0.000000 1.000000
vt 0.879168 0.000000
v -7882.940918 -1288.936646 13578.889648
vn -1.000000 -0.000004 0.000000
vt 2.120831 1.000000
v -7882.941406 -1228.936768 13578.889648
vn -1.000000 -0.000004 0.000000
vt 2.120831 0.000000
v -7882.941406 -1228.936768 13478.889648
vn -1.000000 -0.000004 0.000000
vt 1.901039 0.000000
v -7682.941406 -1228.936768 13578.889648
vn -1.000000 -0.000004 0.000008
vt 2.560416 0.000000
v -7682.940918 -1288.936646 13578.889648
vn -1.000000 -0.000004 0.000008
vt 2.560416 1.000000
v -7682.939941 -1288.936646 13710.535156
vn -1.000000 -0.000004 0.000008
vt 3.000000 1.000000
v -7682.939941 -1228.936890 13710.535156
vn -1.000000 -0.000004 0.000008
vt 3.000000 0.000000
v -7882.941406 -1228.936768 13578.889648
vn 0.000000 0.000000 1.000000
vt 2.120831 0.000000
v -7882.940918 -1288.936646 13578.889648
vn 0.000000 0.000000 1.000000
vt 2.120831 1.000000
v -7682.940918 -1288.936646 13578.889648
vn 0.000000 0.000000 1.000000
vt 2.560416 1.000000
v -7682.941406 -1228.936768 13578.889648
vn 0.000000 0.000000 1.000000
vt 2.560416 0.000000
v -7882.940918 -1288.936646 13478.889648
vn -1.000000 -0.000004 0.000000
vt 1.901039 1.000000
v -8347.866211 -1288.936646 13678.889648
vn -1.000000 -0.000004 0.000000
vt 0.439584 1.000000
v -8347.866211 -1228.936890 13678.889648
vn -1.000000 -0.000004 0.000000
vt 0.439584 0.000000
v -8347.866211 -1228.936768 13478.889648
vn -1.000000 -0.000004 0.000000
vt 0.000000 0.000000
v -8147.866699 -1228.936890 13678.889648
vn 1.000000 0.000004 0.000000
vt 0.879168 0.000000
v -8147.866699 -1288.936646 13478.889648
vn 1.000000 0.000004 0.000000
vt 1.318752 1.000000
v -8147.867188 -1228.936768 13478.889648
vn 1.000000 0.000004 0.000000
vt 1.318752 0.000000
v -8347.866211 -1288.936646 13478.889648
vn -1.000000 -0.000004 0.000000
vt 0.000000 1.000000
v -7882.940918 -1288.936646 13478.889648
vn 0.000000 0.000000 1.000000
vt 1.901039 1.000000
v -7882.941406 -1228.936768 13478.889648
vn 0.000000 0.000000 1.000000
vt 1.901039 0.000000
v -8015.404297 -1228.936768 13478.889648
vn 0.000000 0.000000 1.000000
vt 1.609895 0.000000
v -8015.403809 -1288.936646 13478.889648
vn 0.000000 0.000000 1.000000
vt 1.609895 1.000000
v -8147.867188 -1228.936768 13478.889648
vn 0.000000 0.000000 1.000000
vt 1.318752 0.000000
v -8147.866699 -1288.936646 13478.889648
vn 0.000000 0.000000 1.000000
vt 1.318752 1.000000
f 50/50/50 33/33/33 51/51/51
f 51/51/51 52/52/52 50/50/50
f 33/33/33 31/31/31 32/32/32
f 31/31/31 33/33/33 34/34/34
f 56/56/56 54/54/54 55/55/55
f 54/54/54 56/56/56 57/57/57
f 58/58/58 57/57/57 56/56/56
f 57/57/57 58/58/58 59/59/59
f 37/37/37 35/35/35 36/36/36
f 35/35/35 37/37/37 46/46/46
f 40/40/40 38/38/38 39/39/39
f 38/38/38 40/40/40 41/41/41
f 44/44/44 42/42/42 43/43/43
f 42/42/42 44/44/44 45/45/45
f 49/49/49 47/47/47 48/48/48
f 47/47/47 49/49/49 53/53/53
