mtllib OVERHILL_A_01_OBJECT101.mtl
g Object101
usemtl Slab_Moss_Mix
v -11735.536133 -866.569824 12442.905273
vn 0.000000 1.000000 0.000000
vt 0.000000 0.330655
v -11804.808594 -866.569824 12442.905273
vn 0.000000 1.000000 0.000000
vt 0.230908 0.330655
v -11804.808594 -866.569824 12577.765625
vn 0.000000 1.000000 0.000000
vt 0.230904 1.000000
v -11735.538086 -866.569824 12577.765625
vn 0.000000 1.000000 0.000000
vt 0.000001 1.000000
v -12035.536133 -866.569824 12376.284180
vn 0.000000 1.000000 0.000000
vt 1.000000 0.000000
v -12035.537109 -866.569824 12442.905273
vn 0.000000 1.000000 0.000000
vt 1.000000 0.330656
v -11902.201172 -866.569824 12442.905273
vn 0.000000 1.000000 0.000000
vt 0.555548 0.330656
v -11902.201172 -866.569824 12376.284180
vn 0.000000 1.000000 0.000000
vt 0.555550 0.000000
v -11735.536133 -866.569824 12376.284180
vn 0.000000 1.000000 0.000000
vt 0.000000 -0.000000
v -11804.808594 -866.569824 12376.284180
vn 0.000000 1.000000 0.000000
vt 0.230910 -0.000000
v -11902.201172 -866.569824 12577.765625
vn 0.000000 1.000000 0.000000
vt 0.555544 1.000000
v -12035.538086 -866.569824 12577.765625
vn 0.000000 1.000000 0.000000
vt 1.000000 1.000000
f 1/1/1 3/3/3 4/4/4
f 3/3/3 1/1/1 2/2/2
f 9/9/9 2/2/2 1/1/1
f 2/2/2 9/9/9 10/10/10
f 11/11/11 3/3/3 7/7/7
f 2/2/2 7/7/7 3/3/3
f 7/7/7 2/2/2 8/8/8
f 10/10/10 8/8/8 2/2/2
f 7/7/7 8/8/8 5/5/5
f 7/7/7 12/12/12 11/11/11
f 12/12/12 7/7/7 6/6/6
f 5/5/5 6/6/6 7/7/7
