mtllib OVERHILL_A_01_OBJECT181.mtl
g Object181
usemtl Cave_Blender
v -8852.008789 -203.516647 15409.148438
vn -0.596170 -0.786026 0.163537
vt -0.705319 -2.762876
v -8547.201172 -431.555481 15394.891602
vn -0.642422 -0.764322 0.055733
vt -1.140759 -2.742509
v -8381.961914 -421.323547 15739.835938
vn -0.609940 -0.737729 0.289360
vt -1.376815 -3.235287
v -8591.428711 -214.737625 15829.156250
vn -0.688070 -0.650370 0.321835
vt -1.077577 -3.362886
v -8545.185547 -215.501053 15980.748047
vn -0.733802 -0.679352 0.003894
vt -1.143638 -3.579446
v -8298.210938 -421.508972 15942.518555
vn -0.626215 -0.774695 0.087765
vt -1.496459 -3.524833
v -8300.410156 -421.855682 16003.551758
vn -0.628931 -0.758010 -0.172818
vt -1.493317 -3.612023
v -8515.250000 -422.400604 16536.201172
vn -0.451298 -0.724223 -0.521374
vt -1.186403 -3.372950
v -8679.708984 -215.886688 16316.056641
vn -0.594413 -0.690633 -0.411945
vt -0.951462 -3.058459
v -8468.279297 -422.134491 16465.580078
vn -0.609647 -0.720019 -0.331516
vt -1.253504 -3.272062
v -8814.168945 -216.617279 16378.068359
vn -0.273844 -0.699323 -0.660271
vt -0.759376 -3.147046
v -8696.980469 -422.646942 16671.066406
vn -0.282832 -0.733682 -0.617832
vt -0.926788 -3.565616
v -8916.919922 -422.819580 16731.251953
vn -0.101445 -0.750632 -0.652886
vt -0.612589 -3.651594
v -9006.487305 -216.851044 16443.765625
vn -0.075356 -0.817493 -0.570988
vt -0.484635 -3.240900
v -9006.487305 -216.851044 16443.765625
vn -0.075356 -0.817493 -0.570988
vt -0.484635 -3.240900
v -8916.919922 -422.819580 16731.251953
vn -0.101445 -0.750632 -0.652886
vt -0.612589 -3.651594
v -9253.898438 -422.918701 16737.509766
vn 0.032699 -0.753454 -0.656687
vt -0.131191 -3.660534
v -9253.245117 -216.986176 16457.755859
vn 0.023577 -0.688913 -0.724460
vt -0.132123 -3.260885
v -9555.567383 -422.972412 16700.009766
vn 0.141203 -0.748384 -0.648061
vt 0.299765 -3.606964
v -9535.469727 -217.057343 16419.515625
vn 0.144262 -0.805786 -0.574366
vt 0.271055 -3.206257
v -9789.338867 -422.988007 16632.457031
vn 0.238012 -0.738139 -0.631269
vt 0.633724 -3.510457
v -9745.560547 -217.075165 16349.575195
vn 0.228971 -0.730986 -0.642831
vt 0.571183 -3.106341
v -9977.025391 -217.076141 16259.950195
vn 0.235975 -0.675969 -0.698128
vt 0.901847 -2.978305
v -9745.560547 -217.075165 16349.575195
vn 0.228971 -0.730986 -0.642831
vt 0.571183 -3.106341
v -9789.338867 -422.988007 16632.457031
vn 0.238012 -0.738139 -0.631269
vt 0.633724 -3.510457
v -10012.652344 -422.987885 16525.271484
vn 0.251662 -0.730826 -0.634476
vt 0.952743 -3.357335
v -8750.297852 -198.505768 14996.458008
vn -0.629944 -0.628942 -0.455634
vt -0.850620 -2.173317
v -8473.284180 -432.287140 15230.221680
vn -0.500462 -0.767657 -0.400300
vt -1.246355 -2.507265
v -8263.528320 -432.646515 15070.748047
vn -0.247179 -0.763064 -0.597189
vt -1.546006 -2.279447
v -8437.922852 -199.007965 14793.866211
vn -0.230002 -0.659915 -0.715270
vt -1.296870 -1.883900
v -8105.712891 -432.829132 15047.268555
vn -0.059970 -0.734499 -0.675955
vt -1.771457 -2.245904
v -8156.293457 -199.259415 14739.939453
vn -0.051630 -0.602761 -0.796250
vt -1.699198 -1.806862
v -7845.168457 -432.922516 15041.981445
vn 0.023092 -0.723440 -0.690001
vt -2.143663 -2.238352
v -7834.384766 -214.129913 14770.831055
vn 0.086280 -0.652342 -0.752998
vt -2.159068 -1.850993
v -7650.910156 -222.193268 14806.098633
vn 0.095898 -0.650911 -0.753073
vt -2.421175 -1.901376
v -7711.709961 -440.972809 15057.127930
vn 0.120714 -0.732781 -0.669671
vt -2.334318 -2.259990
v -7434.768555 -246.083893 14845.620117
vn -0.069288 -0.685943 -0.724349
vt -2.729949 -1.957836
v -7424.313965 -464.888947 15133.938477
vn -0.087331 -0.779688 -0.620048
vt -2.744884 -2.369718
v -7586.074219 -448.976471 15107.698242
vn 0.122330 -0.771274 -0.624637
vt -2.513798 -2.332232
v -7535.030273 -230.198151 14824.504883
vn 0.061763 -0.665485 -0.743852
vt -2.586718 -1.927670
v -8545.185547 -215.501053 15980.748047
vn -0.733802 -0.679352 0.003894
vt -1.143638 -2.579446
v -8300.410156 -421.855682 16003.551758
vn -0.628931 -0.758010 -0.172818
vt -1.493317 -2.612023
f 25/25/25 23/23/23 24/24/24
f 23/23/23 25/25/25 26/26/26
f 33/33/33 34/34/34 35/35/35
f 34/34/34 33/33/33 32/32/32
f 31/31/31 32/32/32 33/33/33
f 32/32/32 31/31/31 30/30/30
f 29/29/29 30/30/30 31/31/31
f 30/30/30 29/29/29 27/27/27
f 28/28/28 27/27/27 29/29/29
f 27/27/27 28/28/28 2/2/2
f 1/1/1 2/2/2 3/3/3
f 2/2/2 1/1/1 27/27/27
f 5/5/5 6/6/6 7/7/7
f 6/6/6 5/5/5 3/3/3
f 4/4/4 3/3/3 5/5/5
f 3/3/3 4/4/4 1/1/1
f 39/39/39 40/40/40 37/37/37
f 40/40/40 39/39/39 35/35/35
f 36/36/36 35/35/35 39/39/39
f 35/35/35 36/36/36 33/33/33
f 37/37/37 38/38/38 39/39/39
f 17/17/17 15/15/15 16/16/16
f 15/15/15 17/17/17 18/18/18
f 19/19/19 18/18/18 17/17/17
f 18/18/18 19/19/19 20/20/20
f 21/21/21 20/20/20 19/19/19
f 20/20/20 21/21/21 22/22/22
f 42/42/42 10/10/10 9/9/9
f 8/8/8 9/9/9 10/10/10
f 9/9/9 8/8/8 11/11/11
f 12/12/12 11/11/11 8/8/8
f 11/11/11 12/12/12 13/13/13
f 13/13/13 14/14/14 11/11/11
f 9/9/9 41/41/41 42/42/42
