mtllib OVERHILL_A_01_LINE178.mtl
g Line178
usemtl Slab_Moss_Mix
v -11735.538086 -942.375549 12674.719727
vn 0.000000 1.000000 0.000000
vt -1.000001 2.843486
v -11893.869141 -942.375549 12677.765625
vn 0.000000 1.000000 0.000000
vt -0.472229 2.833333
v -11885.538086 -942.375549 12777.765625
vn 0.000000 1.000000 0.000000
vt -0.500000 2.500000
v -11735.538086 -942.375549 12777.765625
vn 0.000000 1.000000 0.000000
vt -1.000000 2.500000
v -12302.204102 -942.375549 12376.284180
vn 0.000000 1.000000 0.000000
vt 0.888892 3.833333
v -12435.536133 -942.375549 12376.284180
vn 0.000000 1.000000 0.000000
vt 1.333333 3.833334
v -12435.537109 -942.375549 12477.024414
vn 0.000000 1.000000 0.000000
vt 1.333333 3.500002
v -12268.871094 -942.375549 12477.025391
vn 0.000000 1.000000 0.000000
vt 0.777779 3.500000
v -12035.538086 -942.375549 12577.765625
vn 0.000000 1.000000 0.000000
vt -0.000001 3.166667
v -12035.537109 -942.375549 12442.905273
vn 0.000000 1.000000 0.000000
vt -0.000001 3.612896
v -12152.201172 -942.375549 12477.025391
vn 0.000000 1.000000 0.000000
vt 0.388878 3.500000
v -12135.538086 -942.375549 12577.765625
vn 0.000000 1.000000 0.000000
vt 0.333333 3.166667
v -12135.538086 -942.375549 12677.765625
vn 0.000000 1.000000 0.000000
vt 0.333333 2.833333
v -12035.537109 -942.375549 12677.765625
vn 0.000000 1.000000 0.000000
vt -0.000002 2.833333
v -11902.201172 -942.375549 12577.765625
vn 0.000000 1.000000 0.000000
vt -0.444457 3.166667
v -12235.538086 -942.375549 12577.765625
vn 0.000000 1.000000 0.000000
vt 0.666666 3.166667
v -12235.538086 -942.375549 12677.765625
vn 0.000000 1.000000 0.000000
vt 0.666666 2.833333
v -12168.863281 -942.375549 12376.284180
vn 0.000000 1.000000 0.000000
vt 0.444423 3.833333
v -12035.536133 -942.375549 12376.284180
vn 0.000000 1.000000 0.000000
vt -0.000001 3.833333
v -12435.538086 -942.375549 12577.765625
vn 0.000000 1.000000 0.000000
vt 1.333333 3.166667
v -12135.538086 -942.375549 12777.765625
vn 0.000000 1.000000 0.000000
vt 0.333333 2.500000
v -12035.537109 -942.375549 12777.765625
vn 0.000000 1.000000 0.000000
vt -0.000004 2.500000
v -11735.538086 -942.375549 12577.765625
vn 0.000000 1.000000 0.000000
vt -1.000001 3.166667
v -12235.538086 -942.375549 12777.765625
vn 0.000000 1.000000 0.000000
vt 0.666666 2.500000
f 10/10/10 19/19/19 18/18/18
f 6/6/6 7/7/7 5/5/5
f 8/8/8 5/5/5 7/7/7
f 5/5/5 8/8/8 18/18/18
f 11/11/11 18/18/18 8/8/8
f 18/18/18 11/11/11 10/10/10
f 9/9/9 10/10/10 11/11/11
f 7/7/7 20/20/20 8/8/8
f 16/16/16 8/8/8 20/20/20
f 8/8/8 16/16/16 11/11/11
f 12/12/12 11/11/11 16/16/16
f 11/11/11 12/12/12 9/9/9
f 14/14/14 9/9/9 12/12/12
f 9/9/9 14/14/14 15/15/15
f 2/2/2 15/15/15 14/14/14
f 15/15/15 2/2/2 23/23/23
f 1/1/1 23/23/23 2/2/2
f 14/14/14 12/12/12 13/13/13
f 16/16/16 13/13/13 12/12/12
f 13/13/13 16/16/16 17/17/17
f 4/4/4 1/1/1 3/3/3
f 2/2/2 3/3/3 1/1/1
f 3/3/3 2/2/2 22/22/22
f 14/14/14 22/22/22 2/2/2
f 22/22/22 14/14/14 21/21/21
f 13/13/13 21/21/21 14/14/14
f 21/21/21 13/13/13 24/24/24
f 17/17/17 24/24/24 13/13/13
