mtllib OVERHILL_A_01_OBJECT51.mtl
g Object51
usemtl Rock_wall1
v 1385.141113 -1432.253296 -13000.989258
vn 0.059574 0.000000 -0.998224
vt 3.036320 2.900057
v 1151.845337 -1432.253296 -12956.029297
vn -0.559332 0.000000 -0.828944
vt 3.373700 2.900057
v 1151.845337 -570.507446 -12956.029297
vn -0.470472 0.049805 -0.881008
vt 3.373700 1.988791
v 1385.141113 -570.507446 -13000.989258
vn 0.059607 0.046336 -0.997146
vt 3.036320 1.988791
v 1022.632813 -1432.253296 -12825.350586
vn -0.592494 0.000000 -0.805575
vt 3.634661 2.900057
v 1022.632751 -570.507446 -12825.350586
vn -0.623068 0.048477 -0.780664
vt 3.634661 1.988791
v 869.990723 -1432.253296 -12730.510742
vn -0.274533 0.000000 -0.961578
vt 3.889846 2.900057
v 869.990723 -570.507446 -12730.510742
vn -0.340975 0.046652 -0.938914
vt 3.889846 1.988791
v 869.990723 -1432.253296 -12730.510742
vn -0.274533 0.000000 -0.961578
vt 2.889846 2.900057
v 733.556030 -1432.253296 -12711.210938
vn 0.137996 0.000000 -0.990433
vt 3.085515 2.900057
v 733.556030 -570.507446 -12711.210938
vn 0.090854 0.029364 -0.995431
vt 3.085515 1.988791
v 869.990723 -570.507446 -12730.510742
vn -0.340975 0.046652 -0.938914
vt 2.889846 1.988791
v 596.194946 -542.974915 -12812.916992
vn 0.987964 -0.006003 -0.154565
vt 3.405557 1.988791
v 596.194946 -1404.720703 -12812.916992
vn 0.988179 0.000000 -0.153304
vt 3.405557 2.900057
v 627.197876 -1379.887939 -12931.994141
vn 0.981854 0.000000 0.189641
vt 3.514168 2.900057
v 627.197876 -518.142029 -12931.994141
vn 0.988003 -0.002575 0.154414
vt 3.514168 1.988791
v 644.356201 -1432.253296 -12736.528320
vn 0.695722 0.000000 -0.718311
vt 3.263586 2.900057
v 644.356201 -570.507446 -12736.528320
vn 0.603526 0.005639 -0.797323
vt 3.263586 1.988791
v 635.131897 -1355.054932 -13058.337891
vn 0.990569 0.000000 -0.137014
vt 3.645673 2.900057
v 635.131897 -493.309113 -13058.337891
vn 0.988704 0.001871 -0.149871
vt 3.645673 1.988791
v 635.131897 -1355.054932 -13058.337891
vn 0.990569 0.000000 -0.137014
vt 0.648000 2.896266
v 596.407532 -1338.257568 -13168.648438
vn 0.795154 0.000000 -0.606407
vt 0.756920 2.889985
v 596.407532 -476.511688 -13168.648438
vn 0.824670 0.025177 -0.565054
vt 0.756920 1.978720
v 635.131897 -493.309113 -13058.337891
vn 0.988704 0.001871 -0.149871
vt 0.648000 1.985000
v 320.364807 -1310.000000 -13327.128906
vn -0.019328 0.000000 -0.999813
vt 1.043808 2.861699
v 320.364807 -448.254181 -13327.128906
vn -0.046658 0.062235 -0.996970
vt 1.043808 1.950433
v 506.304993 -459.714203 -13255.017578
vn 0.540038 0.042534 -0.840565
vt 0.865839 1.972439
v 506.304993 -1321.460083 -13255.017578
vn 0.537191 0.000001 -0.843461
vt 0.865839 2.883705
v 115.387527 -1390.362671 -13238.375000
vn -0.490713 0.000000 -0.871321
vt 1.321117 2.839693
v 115.387527 -528.616821 -13238.375000
vn -0.478149 0.071966 -0.875325
vt 1.321117 1.928428
v -145.566559 -1390.362671 -13072.954102
vn -0.526972 0.000000 -0.849883
vt 1.667799 2.825052
v -145.566559 -528.616821 -13072.954102
vn -0.513253 0.069993 -0.855378
vt 1.667799 1.913786
v -305.260651 -1413.353394 -12975.031250
vn -0.009027 0.000000 -0.999959
vt 1.857779 2.859658
v -305.260651 -551.607544 -12975.031250
vn -0.186755 0.072387 -0.979736
vt 1.857779 1.948392
v -502.846832 -1467.835693 -13025.782227
vn 0.672773 0.000000 -0.739849
vt 2.137976 2.894263
v -502.846832 -606.089783 -13025.782227
vn 0.566262 0.071063 -0.821156
vt 2.137976 1.982998
v -626.889099 -1469.056396 -13208.313477
vn 0.686423 0.000000 -0.727203
vt 2.422318 2.928869
v -626.889099 -607.310425 -13208.313477
vn 0.720600 0.071011 -0.689705
vt 2.422318 2.017603
v -726.647156 -1480.165527 -13283.917969
vn 0.506213 0.000000 -0.862409
vt 2.664995 2.980777
v -726.647156 -618.419678 -13283.917969
vn 0.497446 0.083756 -0.863442
vt 2.664995 2.069512
v -858.359070 -1495.569824 -13341.642578
vn 0.369606 0.000000 -0.929189
vt 2.891651 3.021151
v -858.359070 -633.823975 -13341.642578
vn 0.344230 0.088581 -0.934697
vt 2.891651 2.109885
v -1028.388916 -1518.778320 -13396.035156
vn 0.125361 0.000000 -0.992111
vt 3.107891 3.055756
v -1028.388916 -657.032288 -13396.035156
vn 0.021601 0.090585 -0.995655
vt 3.107891 2.144490
v -1508.204712 -734.130920 -13120.687500
vn -0.418400 0.037745 -0.907478
vt 3.936000 2.144490
v -1448.621704 -733.215271 -13165.421875
vn -0.644586 0.030133 -0.763938
vt 3.742109 2.144490
v -1448.621704 -1594.961182 -13165.421875
vn -0.660623 0.000000 -0.750718
vt 3.742109 3.055756
v -1508.204712 -1595.876709 -13120.687500
vn -0.412869 0.000000 -0.910790
vt 3.936000 3.055756
v -1288.622681 -1556.901611 -13329.926758
vn -0.417016 0.000000 -0.908899
vt 3.454324 3.055756
v -1288.622681 -695.155640 -13329.926758
vn -0.507717 0.082536 -0.857561
vt 3.454324 2.144490
v 1175.904541 23.918344 -12900.947266
vn -0.421722 -0.197146 -0.885033
vt 3.373700 1.266190
v 1402.405273 23.918346 -12944.597656
vn 0.062076 -0.195841 -0.978669
vt 3.036320 1.266190
v 1050.455444 23.918339 -12774.075195
vn -0.641750 -0.174809 -0.746725
vt 3.634661 1.266190
v 902.259399 23.918335 -12681.997070
vn -0.339731 -0.128162 -0.931750
vt 3.889846 1.266190
v 769.798584 23.918335 -12663.259766
vn 0.132418 -0.087104 -0.987359
vt 3.085515 1.266190
v 902.259399 23.918335 -12681.997070
vn -0.339731 -0.128162 -0.931750
vt 2.889846 1.266190
v 1151.845337 174.868942 -12956.029297
vn -0.432254 -0.150257 -0.889145
vt 3.373700 1.000000
v 1266.509033 174.868942 -12993.771484
vn -0.162898 -0.199256 -0.966313
vt 3.205010 1.000000
v 1022.632751 174.868927 -12825.350586
vn -0.671046 -0.118854 -0.731828
vt 3.634661 1.000000
v 1077.701294 174.868942 -12898.817383
vn -0.682888 -0.188748 -0.705718
vt 3.504180 1.000000
v 869.990723 174.868927 -12730.510742
vn -0.332950 -0.181390 -0.925333
vt 3.889846 1.000000
v 733.556030 174.868927 -12711.210938
vn 0.139492 -0.149178 -0.978922
vt 3.085515 1.000000
v 869.990723 174.868927 -12730.510742
vn -0.332950 -0.181390 -0.925333
vt 2.889846 1.000000
v 657.630249 31.439669 -12712.044922
vn 0.588252 -0.042142 -0.807579
vt 3.263586 1.266190
v 650.355469 182.390259 -12748.370117
vn 0.651119 -0.095542 -0.752938
vt 3.263586 1.000000
v 600.271240 51.450901 -12809.947266
vn 0.973154 -0.046051 -0.225500
vt 3.405557 1.266190
v 626.206177 192.395905 -12787.458008
vn 0.897881 -0.035243 -0.438825
vt 3.334571 1.000000
v -502.846832 -165.727219 -12943.317383
vn 0.522981 -0.142615 -0.840328
vt 2.137976 1.441000
v -313.043365 -119.792229 -12919.703125
vn -0.151789 -0.144992 -0.977721
vt 1.857779 1.441000
v -1165.103516 12.801591 -13397.346680
vn -0.231763 -0.097053 -0.967919
vt 3.281107 1.000000
v -1028.388916 12.738390 -13420.495117
vn 0.128269 -0.094346 -0.987242
vt 3.107891 1.000000
v -1028.389038 -200.383331 -13313.569336
vn -0.057856 -0.153862 -0.986397
vt 3.107891 1.441000
v -502.846832 47.394470 -13050.243164
vn 0.667781 -0.016983 -0.744164
vt 2.137976 1.000000
v -406.989166 66.038559 -13017.099609
vn 0.202848 -0.070482 -0.976670
vt 1.997877 1.000000
v -1422.939575 -166.767990 -13173.112305
vn -0.516755 -0.050245 -0.854658
vt 3.742109 1.309372
v -1508.204956 -140.631332 -13120.687500
vn -0.241319 0.563463 -0.790110
vt 3.936000 1.309372
v -1505.758667 10.319722 -13137.434570
vn -0.964959 0.031414 -0.260514
vt 3.936000 1.000000
v 491.354431 64.928917 -13211.378906
vn 0.479667 -0.117861 -0.869499
vt 0.865839 1.265361
v 323.390686 63.884411 -13263.983398
vn -0.062349 -0.185493 -0.980666
vt 1.043808 1.309372
v 409.813416 241.812393 -13305.372070
vn 0.141481 -0.018355 -0.989771
vt 0.954823 1.000000
v -1455.666626 12.927970 -13186.741211
vn -0.673949 -0.012189 -0.738677
vt 3.742109 1.000000
v -626.889099 -184.761703 -13125.847656
vn 0.729550 -0.107547 -0.675418
vt 2.422318 1.441000
v -726.647400 -194.355270 -13201.452148
vn 0.498857 -0.082703 -0.862729
vt 2.664995 1.441000
v -726.647156 18.766476 -13308.378906
vn 0.546888 -0.137011 -0.825919
vt 2.664995 1.000000
v 1385.141113 174.868942 -13000.989258
vn 0.043664 -0.147263 -0.988133
vt 3.036320 1.000000
v -626.889099 28.360010 -13232.774414
vn 0.727905 -0.046120 -0.684125
vt 2.422318 1.000000
v 588.932190 83.022820 -13146.829102
vn 0.800662 -0.071046 -0.594889
vt 0.756920 1.262680
v 635.131897 101.116714 -13058.337891
vn 0.977491 -0.077927 -0.196058
vt 3.645673 1.266190
v 648.704407 252.067291 -13068.451172
vn 0.985847 -0.022119 -0.166180
vt 3.645673 1.000000
v 642.589966 227.234390 -12946.895508
vn 0.989063 -0.031028 0.144194
vt 3.514168 1.000000
v 629.236084 76.283806 -12930.509766
vn 0.989741 -0.034160 0.138730
vt 3.514168 1.266190
v 506.304993 251.513245 -13279.478516
vn 0.444722 0.021788 -0.895404
vt 0.865839 1.000000
v 603.193665 251.790253 -13185.935547
vn 0.789545 -0.066461 -0.610083
vt 0.756920 1.000000
v 613.406616 202.401489 -12832.606445
vn 0.999188 -0.031242 -0.025444
vt 3.405557 1.000000
v 635.131897 101.116714 -13058.337891
vn 0.977491 -0.077927 -0.196058
vt 0.648000 1.260000
v 115.387535 -17.078470 -13155.910156
vn -0.443328 -0.187850 -0.876455
vt 1.321117 1.375390
v -145.566559 -82.426132 -12990.489258
vn -0.438425 -0.135829 -0.888445
vt 1.667799 1.408398
v -858.359070 -200.509735 -13259.176758
vn 0.325372 -0.142831 -0.934737
vt 2.891651 1.441000
v 648.704407 252.067291 -13068.451172
vn 0.985847 -0.022119 -0.166180
vt 0.648000 1.000000
v 115.387520 208.103027 -13262.835938
vn -0.379222 -0.056850 -0.923558
vt 1.321117 1.000000
v 306.674255 232.111542 -13307.190430
vn -0.136818 0.066356 -0.988371
vt 1.043808 1.000000
v -145.566559 130.695572 -13097.415039
vn -0.485637 -0.097607 -0.868694
vt 1.667799 1.000000
v -17.029097 173.145309 -13188.201172
vn -0.537311 -0.030594 -0.842829
vt 1.494458 1.000000
v -303.813141 89.500198 -13017.524414
vn -0.204645 -0.080034 -0.975559
vt 1.857779 1.000000
v -1267.279175 -200.256989 -13250.272461
vn -0.463622 -0.175731 -0.868431
vt 3.454324 1.309372
v -1506.735962 -437.843719 -13096.653320
vn -0.492427 -0.000735 -0.870353
vt 3.936000 1.643795
v -1518.093384 -224.259140 -13138.936523
vn -0.347125 -0.052363 -0.936356
vt 3.936000 1.380282
v -1294.953735 12.864791 -13353.554688
vn -0.494715 -0.009978 -0.868998
vt 3.454324 1.000000
v -857.495300 12.611923 -13374.041016
vn 0.381629 -0.094431 -0.919479
vt 2.891651 1.000000
f 47/47/47 48/48/48 45/45/45
f 46/46/46 45/45/45 106/106/106
f 45/45/45 46/46/46 47/47/47
f 50/50/50 47/47/47 46/46/46
f 47/47/47 50/50/50 49/49/49
f 44/44/44 49/49/49 50/50/50
f 49/49/49 44/44/44 43/43/43
f 42/42/42 43/43/43 44/44/44
f 75/75/75 106/106/106 107/107/107
f 106/106/106 75/75/75 46/46/46
f 105/105/105 46/46/46 75/75/75
f 46/46/46 105/105/105 50/50/50
f 72/72/72 50/50/50 105/105/105
f 50/50/50 72/72/72 44/44/44
f 98/98/98 44/44/44 72/72/72
f 44/44/44 98/98/98 42/42/42
f 83/83/83 42/42/42 98/98/98
f 105/105/105 75/75/75 81/81/81
f 107/107/107 76/76/76 75/75/75
f 77/77/77 75/75/75 76/76/76
f 75/75/75 77/77/77 81/81/81
f 68/68/68 73/73/73 74/74/74
f 73/73/73 68/68/68 86/86/86
f 82/82/82 86/86/86 68/68/68
f 86/86/86 82/82/82 84/84/84
f 83/83/83 84/84/84 82/82/82
f 84/84/84 83/83/83 109/109/109
f 98/98/98 109/109/109 83/83/83
f 109/109/109 98/98/98 71/71/71
f 72/72/72 71/71/71 98/98/98
f 71/71/71 72/72/72 70/70/70
f 105/105/105 70/70/70 72/72/72
f 70/70/70 105/105/105 108/108/108
f 81/81/81 108/108/108 105/105/105
f 68/68/68 74/74/74 69/69/69
f 104/104/104 69/69/69 74/74/74
f 69/69/69 104/104/104 97/97/97
f 102/102/102 97/97/97 104/104/104
f 97/97/97 102/102/102 96/96/96
f 42/42/42 41/41/41 43/43/43
f 41/41/41 42/42/42 40/40/40
f 83/83/83 40/40/40 42/42/42
f 40/40/40 83/83/83 38/38/38
f 82/82/82 38/38/38 83/83/83
f 38/38/38 82/82/82 36/36/36
f 68/68/68 36/36/36 82/82/82
f 36/36/36 68/68/68 34/34/34
f 69/69/69 34/34/34 68/68/68
f 34/34/34 69/69/69 32/32/32
f 97/97/97 32/32/32 69/69/69
f 32/32/32 97/97/97 30/30/30
f 96/96/96 30/30/30 97/97/97
f 30/30/30 96/96/96 26/26/26
f 79/79/79 26/26/26 96/96/96
f 26/26/26 79/79/79 78/78/78
f 80/80/80 78/78/78 79/79/79
f 78/78/78 80/80/80 92/92/92
f 102/102/102 103/103/103 96/96/96
f 100/100/100 96/96/96 103/103/103
f 96/96/96 100/100/100 79/79/79
f 101/101/101 79/79/79 100/100/100
f 79/79/79 101/101/101 80/80/80
f 40/40/40 39/39/39 41/41/41
f 39/39/39 40/40/40 37/37/37
f 38/38/38 37/37/37 40/40/40
f 37/37/37 38/38/38 35/35/35
f 36/36/36 35/35/35 38/38/38
f 35/35/35 36/36/36 33/33/33
f 34/34/34 33/33/33 36/36/36
f 33/33/33 34/34/34 31/31/31
f 32/32/32 31/31/31 34/34/34
f 31/31/31 32/32/32 29/29/29
f 30/30/30 29/29/29 32/32/32
f 29/29/29 30/30/30 25/25/25
f 26/26/26 25/25/25 30/30/30
f 25/25/25 26/26/26 27/27/27
f 78/78/78 27/27/27 26/26/26
f 27/27/27 78/78/78 23/23/23
f 87/87/87 23/23/23 78/78/78
f 23/23/23 87/87/87 24/24/24
f 87/87/87 95/95/95 24/24/24
f 93/93/93 78/78/78 92/92/92
f 78/78/78 93/93/93 87/87/87
f 95/95/95 87/87/87 93/93/93
f 93/93/93 99/99/99 95/95/95
f 27/27/27 28/28/28 25/25/25
f 28/28/28 27/27/27 22/22/22
f 23/23/23 22/22/22 27/27/27
f 22/22/22 23/23/23 21/21/21
f 24/24/24 21/21/21 23/23/23
f 56/56/56 62/62/62 63/63/63
f 62/62/62 56/56/56 55/55/55
f 12/12/12 55/55/55 56/56/56
f 55/55/55 12/12/12 11/11/11
f 9/9/9 11/11/11 12/12/12
f 11/11/11 9/9/9 10/10/10
f 18/18/18 10/10/10 17/17/17
f 10/10/10 18/18/18 11/11/11
f 64/64/64 11/11/11 18/18/18
f 11/11/11 64/64/64 55/55/55
f 65/65/65 55/55/55 64/64/64
f 55/55/55 65/65/65 62/62/62
f 65/65/65 64/64/64 66/66/66
f 18/18/18 66/66/66 64/64/64
f 66/66/66 18/18/18 13/13/13
f 17/17/17 13/13/13 18/18/18
f 13/13/13 17/17/17 14/14/14
f 16/16/16 66/66/66 13/13/13
f 66/66/66 16/16/16 91/91/91
f 20/20/20 91/91/91 16/16/16
f 91/91/91 20/20/20 88/88/88
f 16/16/16 19/19/19 20/20/20
f 19/19/19 16/16/16 15/15/15
f 13/13/13 15/15/15 16/16/16
f 15/15/15 13/13/13 14/14/14
f 90/90/90 88/88/88 89/89/89
f 88/88/88 90/90/90 91/91/91
f 94/94/94 91/91/91 90/90/90
f 91/91/91 94/94/94 66/66/66
f 67/67/67 66/66/66 94/94/94
f 66/66/66 67/67/67 65/65/65
f 52/52/52 4/4/4 51/51/51
f 3/3/3 51/51/51 4/4/4
f 51/51/51 3/3/3 53/53/53
f 6/6/6 53/53/53 3/3/3
f 53/53/53 6/6/6 54/54/54
f 8/8/8 54/54/54 6/6/6
f 7/7/7 8/8/8 5/5/5
f 6/6/6 5/5/5 8/8/8
f 5/5/5 6/6/6 2/2/2
f 3/3/3 2/2/2 6/6/6
f 2/2/2 3/3/3 1/1/1
f 4/4/4 1/1/1 3/3/3
f 53/53/53 60/60/60 51/51/51
f 60/60/60 53/53/53 59/59/59
f 61/61/61 53/53/53 54/54/54
f 53/53/53 61/61/61 59/59/59
f 85/85/85 52/52/52 58/58/58
f 51/51/51 58/58/58 52/52/52
f 58/58/58 51/51/51 57/57/57
f 60/60/60 57/57/57 51/51/51
usemtl Rock_top_blend
v -626.889099 28.360010 -13232.774414
vn 0.727905 -0.046120 -0.684125
vt 2.422318 1.000000
v -726.647156 18.766476 -13308.378906
vn 0.546888 -0.137011 -0.825919
vt 2.664995 1.000000
v -726.647156 102.394753 -13283.917969
vn 0.280850 0.798694 -0.532176
vt 2.664995 0.000000
v -626.889099 111.988289 -13208.313477
vn 0.738460 0.189298 -0.647181
vt 2.422318 0.000000
v -1288.622681 96.493088 -13329.926758
vn -0.235265 0.923285 -0.303636
vt 3.454324 0.000000
v -1294.953735 12.864791 -13353.554688
vn -0.494715 -0.009978 -0.868998
vt 3.454324 1.000000
v -1455.666626 12.927970 -13186.741211
vn -0.673949 -0.012189 -0.738677
vt 3.742109 1.000000
v -502.846832 47.394470 -13050.243164
vn 0.667781 -0.016983 -0.744164
vt 2.137976 1.000000
v -502.846832 131.022751 -13025.782227
vn 0.053129 0.916149 -0.397302
vt 2.137976 0.000000
v 650.355591 276.582031 -12748.370117
vn 0.654920 0.002633 -0.755694
vt 3.263586 0.000000
v 733.556030 266.946045 -12711.210938
vn 0.044083 0.000000 -0.999028
vt 3.085515 0.000000
v 733.556030 174.868927 -12711.210938
vn 0.139492 -0.149178 -0.978922
vt 3.085515 1.000000
v -406.989166 149.666840 -12992.638672
vn -0.078188 0.750607 -0.656106
vt 1.997877 0.000000
v -303.813141 173.128510 -12993.063477
vn -0.342482 0.835314 -0.430066
vt 1.857779 0.000000
v -303.813141 89.500198 -13017.524414
vn -0.204645 -0.080034 -0.975559
vt 1.857779 1.000000
v 613.406616 202.401489 -12832.606445
vn 0.999188 -0.031242 -0.025444
vt 3.405557 1.000000
v 611.215210 293.458282 -12832.559570
vn 0.996915 0.020140 0.075855
vt 3.405557 0.000000
v 625.110596 285.020203 -12787.434570
vn 0.751131 0.633451 -0.185856
vt 3.334571 0.000000
v -1028.388916 96.366684 -13396.034180
vn -0.009394 0.925045 -0.379742
vt 3.107891 0.000000
v -1028.388916 12.738390 -13420.495117
vn 0.128269 -0.094346 -0.987242
vt 3.107891 1.000000
v -1165.103516 12.801591 -13397.346680
vn -0.231763 -0.097053 -0.967919
vt 3.281107 1.000000
v -1161.937866 96.429886 -13373.302734
vn -0.161711 0.803779 -0.572528
vt 3.281107 0.000000
v -857.495300 12.611923 -13374.041016
vn 0.381629 -0.094431 -0.919479
vt 2.891651 1.000000
v -857.495300 96.240204 -13349.580078
vn 0.111942 0.924172 -0.365204
vt 2.891651 0.000000
v -406.989166 66.038559 -13017.099609
vn 0.202848 -0.070482 -0.976670
vt 1.997877 1.000000
v 648.704407 252.067291 -13068.451172
vn 0.985847 -0.022119 -0.166180
vt 3.645673 1.000000
v 648.704407 335.522064 -13068.451172
vn 0.984824 0.000000 -0.173555
vt 3.645673 0.000000
v 641.494263 314.490082 -12946.872070
vn 0.992255 0.008234 0.123944
vt 3.514168 0.000000
v 1266.509033 258.323914 -12993.771484
vn -0.230371 0.000000 -0.973103
vt 3.205010 0.000000
v 1266.509033 174.868942 -12993.771484
vn -0.162898 -0.199256 -0.966313
vt 3.205010 1.000000
v 1151.845337 174.868942 -12956.029297
vn -0.432254 -0.150257 -0.889145
vt 3.373700 1.000000
v 409.813416 325.440704 -13280.911133
vn 0.038509 0.772764 -0.633524
vt 0.954823 0.000000
v 506.304993 335.141541 -13255.017578
vn 0.529043 0.202844 -0.823995
vt 0.865839 0.000000
v 506.304993 251.513245 -13279.478516
vn 0.444722 0.021788 -0.895404
vt 0.865839 1.000000
v -145.566559 130.695572 -13097.415039
vn -0.485637 -0.097607 -0.868694
vt 1.667799 1.000000
v 115.387520 208.103027 -13262.835938
vn -0.379222 -0.056850 -0.923558
vt 1.321117 1.000000
v -17.029097 173.145309 -13188.201172
vn -0.537311 -0.030594 -0.842829
vt 1.494458 1.000000
v -17.029095 256.773621 -13163.740234
vn -0.428592 0.854849 -0.292476
vt 1.494458 0.000000
v -1505.758667 10.319722 -13137.434570
vn -0.964959 0.031414 -0.260514
vt 3.936000 1.000000
v -1505.758911 93.774727 -13137.434570
vn -0.442438 -0.000001 -0.896799
vt 3.936000 0.000000
v -1456.808716 93.774727 -13161.583984
vn -0.619704 0.139136 -0.772404
vt 3.742109 0.000000
v -145.566559 214.323883 -13072.954102
vn -0.514130 0.703055 -0.491309
vt 1.667799 0.000000
v 115.387527 291.731323 -13238.375000
vn -0.344468 0.263552 -0.901045
vt 1.321117 0.000000
v 306.674255 315.739838 -13282.729492
vn -0.090124 0.279591 -0.955880
vt 1.043808 0.000000
v 306.674255 232.111542 -13307.190430
vn -0.136818 0.066356 -0.988371
vt 1.043808 1.000000
v 642.589966 227.234390 -12946.895508
vn 0.989063 -0.031028 0.144194
vt 3.514168 1.000000
v 869.990723 258.323914 -12730.510742
vn -0.406275 0.000000 -0.913751
vt 2.889846 0.000000
v 869.990723 174.868927 -12730.510742
vn -0.332950 -0.181390 -0.925333
vt 2.889846 1.000000
v 626.206177 192.395905 -12787.458008
vn 0.897881 -0.035243 -0.438825
vt 3.334571 1.000000
v 869.990723 258.323914 -12730.510742
vn -0.406275 0.000000 -0.913751
vt 3.889846 0.000000
v 1022.632751 258.323914 -12825.350586
vn -0.675588 0.000000 -0.737279
vt 3.634661 0.000000
v 1022.632751 174.868927 -12825.350586
vn -0.671046 -0.118854 -0.731828
vt 3.634661 1.000000
v 603.193665 251.790253 -13185.935547
vn 0.789545 -0.066461 -0.610083
vt 0.756920 1.000000
v 603.193665 335.331909 -13173.705078
vn 0.852120 0.056272 -0.520313
vt 0.756920 0.000000
v 1385.141113 258.323914 -13000.989258
vn 0.043610 0.000000 -0.999049
vt 3.036320 0.000000
v 1385.141113 174.868942 -13000.989258
vn 0.043664 -0.147263 -0.988133
vt 3.036320 1.000000
v 650.355469 182.390259 -12748.370117
vn 0.651119 -0.095542 -0.752938
vt 3.263586 1.000000
v 1077.701294 258.323914 -12898.817383
vn -0.743102 0.000000 -0.669178
vt 3.504180 0.000000
v 1151.845337 258.323914 -12956.029297
vn -0.518089 0.000000 -0.855327
vt 3.373700 0.000000
v 1077.701294 174.868942 -12898.817383
vn -0.682888 -0.188748 -0.705718
vt 3.504180 1.000000
v 648.704407 252.067291 -13068.451172
vn 0.985847 -0.022119 -0.166180
vt 0.648000 1.000000
v 409.813416 241.812393 -13305.372070
vn 0.141481 -0.018355 -0.989771
vt 0.954823 1.000000
v 869.990723 174.868927 -12730.510742
vn -0.332950 -0.181390 -0.925333
vt 3.889846 1.000000
v 648.704407 335.522064 -13068.451172
vn 0.984824 0.000000 -0.173555
vt 0.648000 0.000000
f 161/161/161 172/172/172 159/159/159
f 139/139/139 164/164/164 165/165/165
f 164/164/164 139/139/139 138/138/138
f 140/140/140 138/138/138 139/139/139
f 138/138/138 140/140/140 168/168/168
f 169/169/169 168/168/168 140/140/140
f 168/168/168 169/169/169 167/167/167
f 161/161/161 167/167/167 169/169/169
f 167/167/167 161/161/161 160/160/160
f 159/159/159 160/160/160 161/161/161
f 173/173/173 170/170/170 163/163/163
f 162/162/162 163/163/163 170/170/170
f 163/163/163 162/162/162 142/142/142
f 143/143/143 142/142/142 162/162/162
f 142/142/142 143/143/143 141/141/141
f 171/171/171 141/141/141 143/143/143
f 141/141/141 171/171/171 153/153/153
f 154/154/154 153/153/153 171/171/171
f 153/153/153 154/154/154 152/152/152
f 145/145/145 152/152/152 154/154/154
f 152/152/152 145/145/145 147/147/147
f 146/146/146 147/147/147 145/145/145
f 147/147/147 146/146/146 151/151/151
f 144/144/144 151/151/151 146/146/146
f 151/151/151 144/144/144 123/123/123
f 124/124/124 123/123/123 144/144/144
f 123/123/123 124/124/124 122/122/122
f 134/134/134 122/122/122 124/124/124
f 122/122/122 134/134/134 118/118/118
f 117/117/117 118/118/118 134/134/134
f 118/118/118 117/117/117 113/113/113
f 110/110/110 113/113/113 117/117/117
f 113/113/113 110/110/110 112/112/112
f 111/111/111 112/112/112 110/110/110
f 112/112/112 111/111/111 132/132/132
f 112/112/112 132/132/132 133/133/133
f 129/129/129 133/133/133 132/132/132
f 133/133/133 129/129/129 128/128/128
f 130/130/130 128/128/128 129/129/129
f 128/128/128 130/130/130 131/131/131
f 115/115/115 131/131/131 130/130/130
f 131/131/131 115/115/115 114/114/114
f 116/116/116 114/114/114 115/115/115
f 114/114/114 116/116/116 150/150/150
f 148/148/148 150/150/150 116/116/116
f 150/150/150 148/148/148 149/149/149
f 137/137/137 135/135/135 136/136/136
f 135/135/135 137/137/137 155/155/155
f 126/126/126 155/155/155 137/137/137
f 155/155/155 126/126/126 125/125/125
f 127/127/127 125/125/125 126/126/126
f 125/125/125 127/127/127 158/158/158
f 119/119/119 158/158/158 127/127/127
f 158/158/158 119/119/119 166/166/166
f 121/121/121 166/166/166 119/119/119
f 156/156/156 157/157/157 120/120/120
f 121/121/121 120/120/120 157/157/157
f 120/120/120 121/121/121 119/119/119
