mtllib OVERHILL_A_01_LINE230.mtl
g Line230
usemtl Stone_Moss_Blend
v -12035.536133 -1489.417480 12877.765625
vn -1.000000 -0.000005 0.000000
vt 0.493223 1.000000
v -12035.537109 -1332.509277 12877.765625
vn -1.000000 -0.000005 0.000000
vt 0.493223 0.498418
v -12035.537109 -1332.509277 12777.765625
vn -1.000000 -0.000005 0.000000
vt -0.011777 0.498418
v -12035.536133 -1489.417480 12777.765625
vn -1.000000 -0.000005 0.000000
vt -0.011777 1.000000
v -11885.536133 -1489.417480 12877.765625
vn 0.000000 0.000000 1.000000
vt 1.250723 1.000000
v -11885.537109 -1332.509277 12877.765625
vn 0.000000 0.000000 1.000000
vt 1.250723 0.498418
v -12035.537109 -1332.509277 12877.765625
vn 0.000000 0.000000 1.000000
vt 0.493223 0.498418
v -12035.536133 -1489.417480 12877.765625
vn 0.000000 0.000000 1.000000
vt 0.493223 1.000000
v -11735.536133 -1489.417480 12877.765625
vn 0.000000 0.000000 1.000000
vt 2.008223 1.000000
v -11735.537109 -1332.509277 12877.765625
vn 0.000000 -0.000000 1.000000
vt 2.008223 0.498418
v -12035.537109 -1275.917236 12877.765625
vn -1.000000 -0.000005 0.000000
vt 0.493223 0.317512
v -12035.537109 -1275.917236 12777.765625
vn -1.000000 -0.000005 0.000000
vt -0.011777 0.317512
v -11960.537109 -1275.917236 12877.765625
vn 0.000000 0.000000 1.000000
vt 0.871973 0.317512
v -12035.537109 -1275.917236 12877.765625
vn 0.000000 0.000000 1.000000
vt 0.493223 0.317512
v -11735.537109 -1275.917236 12877.765625
vn 0.000001 0.000000 1.000000
vt 2.008223 0.317512
v -11810.537109 -1275.917236 12877.765625
vn 0.000000 0.000000 1.000000
vt 1.629473 0.317512
v -11885.537109 -1275.917236 12877.765625
vn 0.000000 0.000000 1.000000
vt 1.250723 0.317512
f 3/3/3 4/4/4 1/1/1
f 1/1/1 2/2/2 3/3/3
f 11/11/11 3/3/3 2/2/2
f 3/3/3 11/11/11 12/12/12
f 6/6/6 5/5/5 9/9/9
f 5/5/5 6/6/6 7/7/7
f 13/13/13 7/7/7 6/6/6
f 7/7/7 13/13/13 14/14/14
f 7/7/7 8/8/8 5/5/5
f 9/9/9 10/10/10 6/6/6
f 15/15/15 6/6/6 10/10/10
f 6/6/6 17/17/17 13/13/13
f 17/17/17 6/6/6 16/16/16
f 15/15/15 16/16/16 6/6/6
