mtllib OVERHILL_A_01_OBJECT317.mtl
g Object317
usemtl Lvl_dwarven_plc_stone02
v -7403.375977 -42.788536 8592.980469
vn 0.000000 -0.000001 -1.000000
vt -0.758853 0.000000
v -7403.375488 -203.139801 8592.980469
vn 0.000000 -0.000001 -1.000000
vt -0.758853 0.494098
v -7566.540527 -203.139801 8592.980469
vn 0.000000 -0.000001 -1.000000
vt -1.258869 0.494098
v -7566.528320 -42.788536 8592.980469
vn 0.000000 -0.000001 -1.000000
vt -1.258794 0.000000
v -7743.590820 -203.139801 8592.980469
vn 0.000000 -0.000001 -1.000000
vt -1.914894 0.494098
v -7743.578613 -42.788536 8592.980469
vn 0.000000 -0.000001 -1.000000
vt -1.914819 0.000000
v -7566.552246 -370.577515 8592.981445
vn 0.000000 -0.000001 -1.000000
vt -1.258794 1.000000
v -7403.375488 -267.483368 8592.980469
vn 0.000000 -0.000001 -1.000000
vt -0.758853 0.688448
v -7403.387207 -370.577515 8592.981445
vn 0.000000 -0.000002 -1.000000
vt -0.758853 1.000000
v -7743.602539 -370.577515 8592.981445
vn 0.000000 -0.000001 -1.000000
vt -1.914819 1.000000
v -7403.387207 -523.842285 8592.981445
vn 0.000000 -0.000001 -1.000000
vt -0.758853 1.492887
v -7566.564453 -523.842285 8592.981445
vn 0.000000 -0.000001 -1.000000
vt -1.258869 1.492887
v -7403.387207 -400.202637 8592.981445
vn 0.000001 -0.000002 -1.000000
vt -0.758853 1.095272
v -7743.614746 -523.842285 8592.981445
vn 0.000000 -0.000002 -1.000000
vt -1.914894 1.492887
v -7403.375977 -42.788521 8229.384766
vn 0.000000 -0.000001 1.000000
vt -0.758853 0.000000
v -7566.528809 -42.788521 8229.384766
vn 0.000000 -0.000001 1.000000
vt -1.258794 0.000000
v -7566.540527 -203.139771 8229.384766
vn 0.000000 -0.000001 1.000000
vt -1.258869 0.494098
v -7403.375488 -203.139771 8229.384766
vn 0.000024 -0.000000 1.000000
vt -0.758853 0.494098
v -7743.578613 -42.788521 8229.384766
vn 0.000000 -0.000001 1.000000
vt -1.914819 0.000000
v -7743.590820 -203.139832 8229.384766
vn 0.000000 -0.000001 1.000000
vt -1.914894 0.494098
v -7403.375488 -267.483276 8229.384766
vn 0.000032 -0.000000 1.000000
vt -0.758853 0.688447
v -7566.552246 -370.577515 8229.383789
vn 0.000000 -0.000001 1.000000
vt -1.258794 1.000000
v -7403.387207 -370.577484 8229.384766
vn 0.000000 -0.000001 1.000000
vt -0.758853 1.000000
v -7743.602539 -370.577515 8229.384766
vn 0.000000 -0.000001 1.000000
vt -1.914819 1.000000
v -7403.387207 -523.842285 8229.383789
vn 0.000000 -0.000002 1.000000
vt -0.758853 1.492887
v -7403.387207 -400.235474 8229.383789
vn 0.000000 -0.000002 1.000000
vt -0.758853 1.095378
v -7566.564453 -523.842346 8229.383789
vn 0.000000 -0.000001 1.000000
vt -1.258869 1.492887
v -7743.614746 -523.842346 8229.383789
vn 0.000000 -0.000001 1.000000
vt -1.914894 1.492887
v -7802.470703 -123.148705 8592.980469
vn 0.000000 -0.000001 -1.000000
vt -2.133047 0.247617
v -7802.470703 -42.788536 8592.980469
vn 0.000000 -0.000001 -1.000000
vt -2.133032 0.000000
v -7802.470703 -203.139801 8592.980469
vn 0.000000 -0.000001 -1.000000
vt -2.133062 0.494098
v -7802.470703 -370.577545 8592.981445
vn 0.000000 -0.000001 -1.000000
vt -2.133018 1.000000
v -7802.470703 -523.842285 8592.981445
vn 0.000000 -0.000002 -1.000000
vt -2.132974 1.492887
v -7802.470703 -123.153755 8229.384766
vn 0.000000 -0.000001 1.000000
vt -2.133047 0.247633
v -7802.470703 -203.139832 8229.384766
vn 0.000000 -0.000001 1.000000
vt -2.133062 0.494098
v -7802.470703 -42.788521 8229.384766
vn 0.000000 -0.000001 1.000000
vt -2.133031 0.000000
v -7802.470703 -370.577515 8229.384766
vn 0.000000 -0.000001 1.000000
vt -2.132943 1.000000
v -7802.470703 -523.842346 8229.383789
vn 0.000000 -0.000001 1.000000
vt -2.132974 1.492887
v -7920.641113 -203.139801 8592.980469
vn 0.000000 -0.000001 -1.000000
vt -2.570919 0.494098
v -7920.652832 -370.577515 8592.981445
vn 0.000000 -0.000001 -1.000000
vt -2.570843 1.000000
v -7920.664551 -523.842285 8592.981445
vn 0.000000 -0.000001 -1.000000
vt -2.570919 1.492887
v -7920.628906 -42.788582 8229.384766
vn 0.000000 -0.000001 1.000000
vt -2.570843 0.000000
v -7920.641113 -203.139832 8229.384766
vn 0.000000 -0.000001 1.000000
vt -2.570919 0.494098
v -7920.652832 -370.577515 8229.384766
vn 0.000000 -0.000001 1.000000
vt -2.570843 1.000000
v -7920.665039 -523.842346 8229.383789
vn 0.000000 -0.000001 1.000000
vt -2.570919 1.492887
v -7920.628906 -42.788414 8592.980469
vn 0.000000 -0.000001 -1.000000
vt -2.570843 0.000000
f 3/3/3 4/4/4 1/1/1
f 10/10/10 12/12/12 14/14/14
f 12/12/12 10/10/10 7/7/7
f 5/5/5 7/7/7 10/10/10
f 7/7/7 5/5/5 3/3/3
f 6/6/6 3/3/3 5/5/5
f 3/3/3 6/6/6 4/4/4
f 12/12/12 13/13/13 11/11/11
f 13/13/13 12/12/12 9/9/9
f 7/7/7 9/9/9 12/12/12
f 9/9/9 7/7/7 8/8/8
f 3/3/3 8/8/8 7/7/7
f 8/8/8 3/3/3 2/2/2
f 1/1/1 2/2/2 3/3/3
f 30/30/30 39/39/39 46/46/46
f 39/39/39 30/30/30 29/29/29
f 6/6/6 29/29/29 30/30/30
f 29/29/29 6/6/6 31/31/31
f 5/5/5 31/31/31 6/6/6
f 31/31/31 5/5/5 32/32/32
f 10/10/10 32/32/32 5/5/5
f 32/32/32 10/10/10 33/33/33
f 14/14/14 33/33/33 10/10/10
f 31/31/31 39/39/39 29/29/29
f 39/39/39 31/31/31 40/40/40
f 32/32/32 40/40/40 31/31/31
f 40/40/40 32/32/32 41/41/41
f 33/33/33 41/41/41 32/32/32
f 17/17/17 18/18/18 15/15/15
f 18/18/18 17/17/17 21/21/21
f 22/22/22 21/21/21 17/17/17
f 21/21/21 22/22/22 23/23/23
f 27/27/27 23/23/23 22/22/22
f 23/23/23 27/27/27 26/26/26
f 25/25/25 26/26/26 27/27/27
f 34/34/34 42/42/42 43/43/43
f 42/42/42 34/34/34 36/36/36
f 20/20/20 36/36/36 34/34/34
f 36/36/36 20/20/20 19/19/19
f 17/17/17 19/19/19 20/20/20
f 19/19/19 17/17/17 16/16/16
f 15/15/15 16/16/16 17/17/17
f 43/43/43 35/35/35 34/34/34
f 20/20/20 34/34/34 35/35/35
f 20/20/20 22/22/22 17/17/17
f 22/22/22 20/20/20 24/24/24
f 35/35/35 24/24/24 20/20/20
f 24/24/24 35/35/35 37/37/37
f 43/43/43 37/37/37 35/35/35
f 37/37/37 43/43/43 44/44/44
f 24/24/24 27/27/27 22/22/22
f 27/27/27 24/24/24 28/28/28
f 37/37/37 28/28/28 24/24/24
f 28/28/28 37/37/37 38/38/38
f 44/44/44 38/38/38 37/37/37
f 38/38/38 44/44/44 45/45/45
