mtllib OVERHILL_A_01_STONE_BLOCK_01.mtl
g Stone_Block_01
usemtl Stone_Moss_Blend
v -7307.120117 -695.714417 12802.596680
vn 0.573576 0.000000 -0.819152
vt 1.240303 0.986545
v -7307.120117 -616.589478 12802.596680
vn 0.573576 0.000000 -0.819152
vt 1.240303 0.747049
v -7197.147949 -616.589478 12879.599609
vn 0.573576 0.000000 -0.819152
vt 0.745183 0.747049
v -7197.147949 -695.714539 12879.599609
vn 0.573576 0.000000 -0.819152
vt 0.745183 0.986545
v -7307.120117 -616.589478 12802.596680
vn -0.000002 1.000000 0.000002
vt 0.483529 0.739259
v -7352.504395 -616.589722 12867.412109
vn -0.000002 1.000000 0.000002
vt 0.483529 0.499763
v -7242.532227 -616.589600 12944.415039
vn -0.000002 1.000000 0.000002
vt -0.000255 0.499763
v -7197.147949 -616.589478 12879.599609
vn -0.000001 1.000000 0.000001
vt -0.000255 0.739259
v -7352.504395 -695.714722 12867.412109
vn -0.573576 0.000000 0.819152
vt 0.741128 0.494183
v -7242.532227 -695.714539 12944.415039
vn -0.573576 0.000000 0.819152
vt 0.246008 0.494183
v -7242.532227 -616.589600 12944.415039
vn -0.573576 0.000000 0.819152
vt 0.246008 0.254687
v -7352.504395 -616.589722 12867.412109
vn -0.573576 0.000000 0.819152
vt 0.741128 0.254687
v -7307.120117 -616.589478 12802.596680
vn -0.819152 0.000000 -0.573576
vt 0.243004 0.744546
v -7307.120117 -695.714417 12802.596680
vn -0.819152 0.000000 -0.573576
vt 0.243004 0.999494
v -7352.504395 -695.714722 12867.412109
vn -0.819152 0.000000 -0.573576
vt 0.743503 0.999501
v -7352.504395 -616.589722 12867.412109
vn -0.819152 0.000000 -0.573576
vt 0.743503 0.744547
v -7242.532227 -616.589600 12944.415039
vn 0.819152 0.000000 0.573576
vt 0.243004 0.744546
v -7242.532227 -695.714539 12944.415039
vn 0.819152 0.000000 0.573576
vt 0.243004 0.999494
v -7197.147949 -695.714539 12879.599609
vn 0.819152 0.000000 0.573576
vt 0.743503 0.999501
v -7197.147949 -616.589478 12879.599609
vn 0.819152 0.000000 0.573576
vt 0.743503 0.744547
v -7307.120117 -695.714417 12802.596680
vn -0.000001 -1.000000 -0.000001
vt 0.483529 0.739259
v -7197.147949 -695.714539 12879.599609
vn -0.000001 -1.000000 -0.000001
vt -0.000255 0.739259
v -7242.532227 -695.714539 12944.415039
vn -0.000001 -1.000000 -0.000001
vt -0.000255 0.499763
v -7352.504395 -695.714722 12867.412109
vn 0.000004 -1.000000 -0.000003
vt 0.483529 0.499763
f 3/3/3 1/1/1 2/2/2
f 1/1/1 3/3/3 4/4/4
f 7/7/7 5/5/5 6/6/6
f 5/5/5 7/7/7 8/8/8
f 11/11/11 9/9/9 10/10/10
f 9/9/9 11/11/11 12/12/12
f 15/15/15 13/13/13 14/14/14
f 13/13/13 15/15/15 16/16/16
f 19/19/19 17/17/17 18/18/18
f 17/17/17 19/19/19 20/20/20
f 23/23/23 21/21/21 22/22/22
f 21/21/21 23/23/23 24/24/24
