mtllib OVERHILL_A_01_ROPE_06.mtl
g rope_06
usemtl bridge_rope
v -7332.421387 -819.896179 -14020.482422
vn -0.204571 0.975482 -0.081150
vt 0.333333 -0.448788
v -7261.393066 -793.872498 -13949.455078
vn -0.550847 0.792972 0.260313
vt 0.333333 1.000000
v -7258.721680 -797.718201 -13950.717773
vn 0.688960 0.084371 -0.719872
vt 0.000000 1.000000
v -7329.891113 -823.793640 -14021.886719
vn 0.719328 -0.408014 -0.562221
vt 0.000000 -0.448788
v -7333.247070 -824.208374 -14018.410156
vn -0.515194 -0.566196 0.643426
vt 0.666667 -0.448788
v -7262.062988 -798.127380 -13947.226563
vn -0.138112 -0.877343 0.459559
vt 0.666667 1.000000
v -7329.891113 -823.793640 -14021.886719
vn 0.719328 -0.408014 -0.562221
vt 1.000000 -0.448788
v -7258.721680 -797.718201 -13950.717773
vn 0.688960 0.084371 -0.719872
vt 1.000000 1.000000
v -7370.263672 -827.968323 -14058.325195
vn -0.126750 0.991929 -0.003270
vt 0.333333 -1.207777
v -7368.045410 -831.932312 -14060.041016
vn 0.689580 -0.417278 -0.591911
vt 0.000000 -1.207777
v -7371.435059 -832.354126 -14056.598633
vn -0.563286 -0.572903 0.595392
vt 0.666667 -1.207777
v -7368.045410 -831.932312 -14060.041016
vn 0.689580 -0.417278 -0.591911
vt 1.000000 -1.207777
v -7408.916504 -829.556091 -14096.978516
vn -0.054552 0.996137 0.068809
vt 0.333333 -1.974209
v -7406.983887 -833.531860 -14098.979492
vn 0.652414 -0.422456 -0.629195
vt 0.000000 -1.974209
v -7410.403809 -833.954895 -14095.566406
vn -0.598014 -0.572859 0.560546
vt 0.666667 -1.974209
v -7406.983887 -833.531860 -14098.979492
vn 0.652414 -0.422456 -0.629195
vt 1.000000 -1.974209
v -7446.444336 -826.716858 -14134.505859
vn 0.000988 0.992240 0.124331
vt 0.333333 -2.718302
v -7444.732422 -830.675903 -14136.728516
vn 0.627508 -0.422329 -0.654119
vt 0.000000 -2.718302
v -7448.175781 -831.097168 -14133.338867
vn -0.628584 -0.569234 0.529958
vt 0.666667 -2.718302
v -7444.732422 -830.675903 -14136.728516
vn 0.627508 -0.422329 -0.654119
vt 1.000000 -2.718302
v -7483.839355 -819.884277 -14171.901367
vn 0.061635 0.980795 0.185045
vt 0.333333 -3.465199
v -7482.372070 -823.798706 -14174.367188
vn 0.605997 -0.419979 -0.675563
vt 0.000000 -3.465199
v -7485.841309 -824.215210 -14171.004883
vn -0.667715 -0.559625 0.490893
vt 0.666667 -3.465199
v -7482.372070 -823.798706 -14174.367188
vn 0.605997 -0.419979 -0.675563
vt 1.000000 -3.465199
v -7521.541016 -807.479858 -14209.602539
vn 0.113890 0.964766 0.237183
vt 0.333333 -3.231357
v -7483.839355 -819.884277 -14171.901367
vn 0.061635 0.980795 0.185045
vt 0.333333 -2.465199
v -7482.372070 -823.798706 -14174.367188
vn 0.605997 -0.419979 -0.675563
vt 0.000000 -2.465199
v -7520.277832 -811.327148 -14212.273438
vn 0.574812 -0.412231 -0.706864
vt 0.000000 -3.231357
v -7523.769043 -811.736511 -14208.931641
vn -0.688707 -0.552254 0.469786
vt 0.666667 -3.231357
v -7485.841309 -824.215210 -14171.004883
vn -0.667715 -0.559625 0.490893
vt 0.666667 -2.465199
v -7520.277832 -811.327148 -14212.273438
vn 0.574812 -0.412231 -0.706864
vt 1.000000 -3.231357
v -7482.372070 -823.798706 -14174.367188
vn 0.605997 -0.419979 -0.675563
vt 1.000000 -2.465199
v -7558.984375 -792.391113 -14247.045898
vn 0.474457 0.871613 -0.123216
vt 0.333333 -4.000000
v -7557.787109 -796.211731 -14249.782227
vn 0.246848 -0.787793 -0.564312
vt 0.000000 -4.000000
v -7561.285156 -796.618225 -14246.448242
vn -0.721305 -0.083819 0.687527
vt 0.666667 -4.000000
v -7557.787109 -796.211731 -14249.782227
vn 0.246848 -0.787793 -0.564312
vt 1.000000 -4.000000
f 30/30/30 31/31/31 32/32/32
f 31/31/31 30/30/30 29/29/29
f 26/26/26 29/29/29 30/30/30
f 29/29/29 26/26/26 25/25/25
f 27/27/27 25/25/25 26/26/26
f 25/25/25 27/27/27 28/28/28
f 29/29/29 36/36/36 31/31/31
f 36/36/36 29/29/29 35/35/35
f 25/25/25 35/35/35 29/29/29
f 35/35/35 25/25/25 33/33/33
f 28/28/28 33/33/33 25/25/25
f 33/33/33 28/28/28 34/34/34
f 8/8/8 6/6/6 7/7/7
f 5/5/5 7/7/7 6/6/6
f 7/7/7 5/5/5 12/12/12
f 11/11/11 12/12/12 5/5/5
f 12/12/12 11/11/11 16/16/16
f 15/15/15 16/16/16 11/11/11
f 16/16/16 15/15/15 20/20/20
f 19/19/19 20/20/20 15/15/15
f 20/20/20 19/19/19 24/24/24
f 23/23/23 24/24/24 19/19/19
f 6/6/6 2/2/2 5/5/5
f 1/1/1 5/5/5 2/2/2
f 5/5/5 1/1/1 11/11/11
f 9/9/9 11/11/11 1/1/1
f 11/11/11 9/9/9 15/15/15
f 13/13/13 15/15/15 9/9/9
f 15/15/15 13/13/13 19/19/19
f 17/17/17 19/19/19 13/13/13
f 19/19/19 17/17/17 23/23/23
f 21/21/21 23/23/23 17/17/17
f 2/2/2 3/3/3 1/1/1
f 4/4/4 1/1/1 3/3/3
f 1/1/1 4/4/4 9/9/9
f 10/10/10 9/9/9 4/4/4
f 9/9/9 10/10/10 13/13/13
f 14/14/14 13/13/13 10/10/10
f 13/13/13 14/14/14 17/17/17
f 18/18/18 17/17/17 14/14/14
f 17/17/17 18/18/18 21/21/21
f 22/22/22 21/21/21 18/18/18
