mtllib OVERHILL_A_01_FOG_PLANEC_02.mtl
g Fog_PlaneC_02
usemtl Fog_Bank_LowerV2
v 844.163696 -1170.490967 4596.857910
vn 0.000000 1.000000 0.000000
vt -3.499126 -1.501364
v -500.949493 -1170.490967 4596.677246
vn 0.000000 1.000000 0.000000
vt -3.828952 -0.794297
v -500.949219 -1170.490967 5795.071777
vn 0.000000 1.000000 0.000000
vt -3.198969 -0.500531
v 844.163940 -1170.490967 5795.071777
vn 0.000000 1.000000 0.000000
vt -2.869237 -1.207642
v -1846.063232 -1170.490845 2200.068848
vn 0.000000 1.000000 0.000000
vt -3.418554 -0.674673
v -1846.062988 -1170.490845 3398.282471
vn 0.000000 1.000000 0.000000
vt -2.788666 -0.380951
v -500.949799 -1170.490845 3398.282227
vn 0.000000 1.000000 0.000000
vt -2.458935 -1.088063
v -500.950073 -1170.490845 2200.068604
vn 0.000000 1.000000 0.000000
vt -3.088823 -1.381785
v -1846.062622 -1170.490967 4596.677246
vn 0.000000 1.000000 0.000000
vt -3.158683 -0.087186
v -500.949493 -1170.490967 4596.677246
vn 0.000000 1.000000 0.000000
vt -2.828952 -0.794297
v -500.949799 -1170.490845 3398.282227
vn 0.000000 1.000000 0.000000
vt -3.458935 -1.088063
v -1846.062988 -1170.490845 3398.282471
vn 0.000000 1.000000 0.000000
vt -3.788666 -0.380951
v -1846.062378 -1170.490967 5795.072266
vn 0.000000 1.000000 0.000000
vt -3.528701 0.206580
v -1846.062378 -1170.490967 5795.072266
vn 0.000000 1.000000 0.000000
vt -2.528701 0.206580
v 844.163391 -1170.490845 3398.463135
vn 0.000000 1.000000 0.000000
vt -3.129109 -1.795130
v 844.163696 -1170.490967 4596.857910
vn 0.000000 1.000000 0.000000
vt -2.499126 -1.501364
v 844.163147 -1170.490845 2200.068359
vn 0.000000 1.000000 0.000000
vt -2.759091 -2.088896
v 844.163147 -1170.490845 2200.068359
vn 0.000000 1.000000 0.000000
vt -3.759091 -2.088896
f 3/3/3 2/2/2 13/13/13
f 2/2/2 3/3/3 1/1/1
f 4/4/4 1/1/1 3/3/3
f 9/9/9 11/11/11 12/12/12
f 11/11/11 9/9/9 10/10/10
f 14/14/14 10/10/10 9/9/9
f 15/15/15 10/10/10 16/16/16
f 10/10/10 15/15/15 11/11/11
f 18/18/18 11/11/11 15/15/15
f 7/7/7 5/5/5 6/6/6
f 5/5/5 7/7/7 8/8/8
f 17/17/17 8/8/8 7/7/7
