mtllib OVERHILL_A_01_WALL7.mtl
g wall7
usemtl Ground_Grass_Blend
v -9826.220703 -375.766266 -11226.754883
vn -0.036542 0.990229 -0.134579
vt 3.436649 2.885060
v -9807.632813 -387.799164 -11322.382813
vn -0.058562 0.988052 -0.142564
vt 3.343712 3.363199
v -9862.560547 -391.268860 -11315.232422
vn -0.073146 0.986977 -0.143269
vt 3.618351 3.327449
v -9886.250000 -378.850525 -11223.737305
vn -0.037269 0.986423 -0.159941
vt 3.736794 2.869975
v -9874.268555 -359.408722 -11114.129883
vn -0.030251 0.991985 -0.122682
vt 3.676888 3.321939
v -9857.585938 -356.456543 -11052.266602
vn -0.045422 0.987862 -0.148547
vt 3.593479 3.012622
v -9795.226563 -354.637512 -11061.921875
vn -0.008182 0.991170 -0.132342
vt 3.281681 3.060896
v -9822.011719 -360.034943 -11121.086914
vn 0.005116 0.991727 -0.128262
vt 3.415604 3.356721
v -9848.308594 -343.084351 -10995.233398
vn -0.460577 0.872037 -0.165589
vt 3.547089 2.727453
v -9761.700195 -344.572876 -11018.834961
vn 0.038546 0.977592 -0.206948
vt 3.114048 2.845460
v -9806.359375 -314.541626 -10799.772461
vn -0.135766 0.726912 0.673176
vt 3.337345 3.750148
v -9773.124023 -313.549500 -10801.716797
vn 0.038008 0.997956 0.051366
vt 3.171169 3.759871
v -9799.979492 -312.368042 -10840.369141
vn 0.010137 0.999043 -0.042539
vt 3.305447 3.953135
v -9719.392578 -332.902924 -10925.540039
vn 0.712398 0.697245 0.079612
vt 2.902508 3.378987
v -9703.760742 -343.113464 -10968.847656
vn 0.165229 0.965466 -0.201433
vt 2.824352 3.595526
v -9768.080078 -333.297302 -10976.416016
vn 0.049183 0.976061 -0.211863
vt 3.145947 3.633368
v -9780.839844 -323.312561 -10930.512695
vn 0.029941 0.984534 -0.172615
vt 3.209747 3.403851
v -9846.826172 -323.030182 -10890.697266
vn -0.658037 0.728671 -0.189805
vt 3.539680 3.204775
v -9793.599609 -315.147858 -10880.966797
vn 0.010828 0.993537 -0.112988
vt 3.273548 3.156121
v -9844.762695 -332.933411 -10946.874023
vn -0.664816 0.731590 -0.150983
vt 3.529362 3.485659
v -9682.073242 -356.646240 -11015.805664
vn 0.132976 0.986534 -0.095223
vt 3.715912 2.830313
v -9653.053711 -361.083923 -11070.239258
vn 0.094250 0.994254 -0.050762
vt 3.570816 3.102484
v -9695.246094 -357.386780 -11076.070313
vn 0.052021 0.992782 -0.108066
vt 3.781776 3.131639
v -9695.246094 -357.386780 -11076.070313
vn 0.052021 0.992782 -0.108066
vt 2.781776 3.131639
v -9682.073242 -356.646240 -11015.805664
vn 0.132976 0.986534 -0.095223
vt 2.715912 2.830313
v -9848.308594 -343.084351 -10995.233398
vn -0.460577 0.872037 -0.165589
vt 3.547089 3.727453
v -9761.700195 -344.572876 -11018.834961
vn 0.038546 0.977592 -0.206948
vt 3.114048 3.845460
v -9732.995117 -323.004333 -10871.194336
vn 0.705173 0.705172 0.073912
vt 2.970520 3.107257
v -9856.016602 -319.886169 -10848.447266
vn -0.476238 0.864212 -0.162281
vt 3.585632 2.993525
v -9799.979492 -312.368042 -10840.369141
vn 0.010137 0.999043 -0.042539
vt 3.305447 2.953135
v -9741.329102 -319.887115 -10827.978516
vn 0.516181 0.855895 0.031635
vt 3.012192 2.891181
v -9856.016602 -319.886169 -10848.447266
vn -0.476238 0.864212 -0.162281
vt 3.585632 3.993525
v -9835.625000 -312.624603 -10802.077148
vn -0.061273 0.995913 0.066359
vt 3.483669 3.761673
v -9864.889648 -316.806244 -10804.381836
vn -0.575755 0.740439 0.346781
vt 3.629993 3.773198
v -9838.654297 -317.139984 -10783.942383
vn 0.012195 0.681130 0.732061
vt 3.498817 3.671000
v -9789.480469 -316.488098 -10787.917969
vn -0.401584 0.707506 0.581520
vt 3.252949 3.690878
v -9772.782227 -315.898529 -10775.023438
vn 0.006550 0.746263 0.665619
vt 3.169456 3.626402
v -9749.858398 -316.737946 -10783.667969
vn 0.610593 0.727762 0.312311
vt 3.054840 3.669626
v -9741.329102 -319.887115 -10827.978516
vn 0.516181 0.855895 0.031635
vt 3.012192 3.891181
v -9682.073242 -356.646240 -11015.805664
vn 0.132976 0.986534 -0.095223
vt 2.715912 3.830313
v -9886.250000 -378.850525 -11223.737305
vn -0.037269 0.986423 -0.159941
vt 3.736794 3.869975
v -9913.123047 -372.139404 -11182.032227
vn -0.052284 0.986523 -0.155042
vt 3.871162 3.661449
v -9911.392578 -365.428284 -11134.922852
vn -0.082997 0.987010 -0.137559
vt 3.862511 3.425901
v -9590.375000 -370.755463 -11130.481445
vn 0.308450 0.927308 0.212034
vt 3.257420 3.403695
v -9634.826172 -366.917694 -11137.824219
vn 0.054869 0.995543 -0.076705
vt 3.479679 3.440411
v -10214.157227 -503.426910 -11340.977539
vn -0.032529 0.998059 0.053105
vt 3.376331 3.456177
v -10242.329102 -506.171753 -11301.885742
vn -0.444268 0.568431 0.692468
vt 3.517193 3.260714
v -10161.723633 -506.171722 -11250.190430
vn -0.450519 0.563329 0.692599
vt 3.114166 3.002237
v -10189.006836 -504.064148 -11323.327148
vn -0.056862 0.996434 0.062342
vt 3.250584 3.367925
v -10161.767578 -497.615387 -11384.495117
vn -0.110625 0.989959 0.087997
vt 3.114388 3.673764
v -10182.945313 -498.295471 -11400.425781
vn -0.097174 0.991648 0.084803
vt 3.220276 3.753416
v -10182.945313 -498.295471 -11400.425781
vn -0.097174 0.991648 0.084803
vt 3.220276 2.753416
v -10161.767578 -497.615387 -11384.495117
vn -0.110625 0.989959 0.087997
vt 3.114388 2.673764
v -10142.675781 -488.354523 -11452.762695
vn -0.187983 0.974545 0.122165
vt 3.018925 3.015101
v -10171.127930 -490.165314 -11466.700195
vn -0.140262 0.980708 0.136153
vt 3.161186 3.084789
v -10129.318359 -475.248535 -11519.585938
vn -0.195585 0.973711 0.116763
vt 2.952141 3.349218
v -10156.787109 -477.590942 -11535.394531
vn -0.158838 0.978577 0.130989
vt 3.089481 3.428262
v -10117.584961 -460.914520 -11623.691406
vn -0.133590 0.985736 0.102365
vt 2.893475 3.869744
v -10129.318359 -475.248535 -11519.585938
vn -0.195585 0.973711 0.116763
vt 3.952141 3.349218
v -10092.988281 -460.309845 -11597.596680
vn -0.162906 0.984452 0.065698
vt 3.770489 3.739270
v -10117.584961 -460.914520 -11623.691406
vn -0.133590 0.985736 0.102365
vt 3.893475 3.869744
v -10029.105469 -444.326721 -11732.462891
vn -0.086934 0.993208 0.077333
vt 3.451077 3.413601
v -10117.584961 -460.914520 -11623.691406
vn -0.133590 0.985736 0.102365
vt 3.893475 2.869744
v -10092.988281 -460.309845 -11597.596680
vn -0.162906 0.984452 0.065698
vt 3.770489 2.739270
v -10013.229492 -445.888580 -11697.347656
vn -0.128571 0.991297 0.028286
vt 3.371693 3.238025
v -9892.869141 -428.216461 -11791.837891
vn -0.107848 0.993498 0.036479
vt 2.769894 3.710479
v -9891.949219 -428.599548 -11756.857422
vn -0.126020 0.991978 -0.009938
vt 2.765293 3.535573
v -9767.759766 -414.944672 -11777.114258
vn -0.091627 0.995648 0.017036
vt 3.144344 3.636859
v -9892.869141 -428.216461 -11791.837891
vn -0.107848 0.993498 0.036479
vt 3.769894 3.710479
v -9891.949219 -428.599548 -11756.857422
vn -0.126020 0.991978 -0.009938
vt 3.765293 3.535573
v -9780.092773 -416.581787 -11745.226563
vn -0.072509 0.997343 -0.007058
vt 3.206013 3.477423
v -9648.031250 -409.382141 -11719.095703
vn -0.068800 0.997623 0.003861
vt 3.545708 3.346765
v -9671.262695 -411.154541 -11690.085938
vn -0.054721 0.998314 -0.019332
vt 3.661861 3.201717
v -9598.776367 -403.658508 -11587.421875
vn -0.081610 0.995257 -0.052941
vt 3.299431 2.688396
v -9564.647461 -401.750824 -11613.552734
vn -0.090736 0.993630 -0.066825
vt 3.128784 2.819053
v -9564.647461 -401.750824 -11613.552734
vn -0.090736 0.993630 -0.066825
vt 3.128784 3.819053
v -9598.776367 -403.658508 -11587.421875
vn -0.081610 0.995257 -0.052941
vt 3.299431 3.688396
v -9589.708984 -389.236267 -11450.151367
vn -0.079795 0.993019 -0.086868
vt 3.254093 3.002045
v -9550.879883 -387.203674 -11460.214844
vn -0.052942 0.996076 -0.070924
vt 3.059948 3.052362
v -9826.220703 -375.766266 -11226.754883
vn -0.036542 0.990229 -0.134579
vt 3.436649 3.885060
v -9590.375000 -370.755463 -11130.481445
vn 0.308450 0.927308 0.212034
vt 3.257420 2.403695
v -9545.646484 -375.539551 -11258.342773
vn -0.013721 0.998673 -0.049628
vt 3.033779 3.042999
v -9590.681641 -375.963074 -11254.414063
vn -0.006961 0.997739 -0.066847
vt 3.258957 3.023358
v -9634.826172 -366.917694 -11137.824219
vn 0.054869 0.995543 -0.076705
vt 3.479679 2.440411
v -10142.584961 -502.309601 -11294.217773
vn -0.111729 0.991062 0.072890
vt 3.018471 3.222378
v -10122.130859 -495.540283 -11357.387695
vn -0.183225 0.977666 0.102942
vt 2.916203 3.538226
v -10109.407227 -483.969025 -11421.492188
vn -0.261300 0.957244 0.124122
vt 2.852585 3.858749
v -10109.407227 -483.969025 -11421.492188
vn -0.261300 0.957244 0.124122
vt 2.852585 2.858749
v -10084.206055 -467.059937 -11479.658203
vn -0.271125 0.956282 0.109621
vt 2.726578 3.149577
v -10039.762695 -453.179657 -11523.959961
vn -0.275701 0.960438 0.039341
vt 3.504364 3.371088
v -9995.320313 -440.472839 -11568.262695
vn -0.199244 0.979880 -0.011721
vt 3.282146 3.592600
v -9995.320313 -440.472839 -11568.262695
vn -0.199244 0.979880 -0.011721
vt 3.282146 2.592600
v -9901.002930 -425.574432 -11605.459961
vn -0.151895 0.987242 -0.047765
vt 2.810562 2.778589
v -9901.002930 -425.574432 -11605.459961
vn -0.151895 0.987242 -0.047765
vt 3.810562 2.778589
v -9808.964844 -415.215607 -11601.491211
vn -0.095280 0.994147 -0.050930
vt 3.350372 2.758742
v -9708.040039 -405.425354 -11518.314453
vn -0.061142 0.995803 -0.068107
vt 2.845745 2.342859
v -9708.040039 -405.425354 -11518.314453
vn -0.061142 0.995803 -0.068107
vt 3.845745 2.342859
v -9671.262695 -411.154541 -11690.085938
vn -0.054721 0.998314 -0.019332
vt 2.661861 3.201717
v -9708.040039 -405.425354 -11518.314453
vn -0.061142 0.995803 -0.068107
vt 3.845745 3.342859
v -9699.585938 -389.744385 -11374.332031
vn -0.050965 0.992410 -0.111911
vt 3.803478 2.622950
v -9590.681641 -375.963074 -11254.414063
vn -0.006961 0.997739 -0.066847
vt 3.258957 2.023358
v -9545.646484 -375.539551 -11258.342773
vn -0.013721 0.998673 -0.049628
vt 3.033779 2.042999
v -10096.162109 -499.993256 -11265.108398
vn -0.155833 0.980328 0.121136
vt 3.786358 3.076831
v -10056.633789 -498.848724 -11239.729492
vn -0.115902 0.981682 0.151221
vt 3.588718 2.949937
v -10040.407227 -478.918030 -11303.262695
vn -0.284531 0.939905 0.188732
vt 3.507584 3.267603
v -10082.494141 -489.354858 -11330.280273
vn -0.277807 0.950925 0.136250
vt 3.718018 3.402688
v -10036.166016 -463.065063 -11361.364258
vn -0.392857 0.904601 0.165409
vt 3.486374 3.558110
v -10076.139648 -476.624756 -11390.221680
vn -0.356422 0.927622 0.111715
vt 3.686245 3.702397
v -10001.717773 -441.720642 -11404.823242
vn -0.408972 0.911333 0.047058
vt 3.314137 3.775404
v -10032.495117 -456.368011 -11435.769531
vn -0.366328 0.928070 0.067007
vt 3.468021 3.930136
v -10032.495117 -456.368011 -11435.769531
vn -0.366328 0.928070 0.067007
vt 3.468021 2.930136
v -10001.717773 -441.720642 -11404.823242
vn -0.408972 0.911333 0.047058
vt 3.314137 2.775404
v -9998.745117 -438.691223 -11453.167969
vn -0.360240 0.932859 -0.001203
vt 3.299271 3.017127
v -9941.006836 -418.125610 -11419.295898
vn -0.257962 0.962819 -0.080218
vt 3.010582 2.847766
v -9889.563477 -404.015289 -11389.039063
vn -0.094974 0.986023 -0.136892
vt 2.753365 2.696482
v -9900.240234 -416.728485 -11470.062500
vn -0.153637 0.982916 -0.101347
vt 2.806747 3.101602
v -9958.397461 -428.085693 -11466.606445
vn -0.234797 0.969725 -0.067108
vt 3.097534 3.084318
v -10081.116211 -506.171753 -11198.497070
vn -0.081540 0.988526 0.127150
vt 2.711128 2.743773
v -10056.633789 -498.848724 -11239.729492
vn -0.115902 0.981682 0.151221
vt 2.588718 2.949937
v -10096.162109 -499.993256 -11265.108398
vn -0.155833 0.980328 0.121136
vt 2.786358 3.076831
v -9745.236328 -357.197052 -11068.996094
vn 0.008171 0.986281 -0.164872
vt 3.031731 3.096268
v -9728.418945 -364.142212 -11129.456055
vn 0.011066 0.993341 -0.114683
vt 2.947643 3.398565
v -9708.451172 -374.224152 -11240.583984
vn -0.010387 0.994600 -0.103261
vt 2.847801 3.954209
v -9708.451172 -374.224152 -11240.583984
vn -0.010387 0.994600 -0.103261
vt 2.847801 2.954209
v -9699.585938 -389.744385 -11374.332031
vn -0.050965 0.992410 -0.111911
vt 2.803478 3.622950
v -9855.534180 -408.974945 -11446.764648
vn -0.090604 0.990868 -0.099854
vt 3.583218 3.985111
v -9889.563477 -404.015289 -11389.039063
vn -0.094974 0.986023 -0.136892
vt 3.753365 3.696482
v -9826.801758 -403.966339 -11412.686523
vn -0.063721 0.991659 -0.112032
vt 3.439556 3.814721
v -9900.240234 -416.728485 -11470.062500
vn -0.153637 0.982916 -0.101347
vt 3.806747 3.101602
v -9889.563477 -404.015289 -11389.039063
vn -0.094974 0.986023 -0.136892
vt 3.753365 2.696482
v -9855.534180 -408.974945 -11446.764648
vn -0.090604 0.990868 -0.099854
vt 3.583218 2.985111
v -10082.494141 -489.354858 -11330.280273
vn -0.277807 0.950925 0.136250
vt 2.718018 3.402688
v -10122.130859 -495.540283 -11357.387695
vn -0.183225 0.977666 0.102942
vt 3.916203 3.538226
v -10109.407227 -483.969025 -11421.492188
vn -0.261300 0.957244 0.124122
vt 3.852585 3.858749
v -10084.206055 -467.059937 -11479.658203
vn -0.271125 0.956282 0.109621
vt 3.726578 3.149577
v -10109.407227 -483.969025 -11421.492188
vn -0.261300 0.957244 0.124122
vt 3.852585 2.858749
v -9901.002930 -425.574432 -11605.459961
vn -0.151895 0.987242 -0.047765
vt 2.810562 3.778589
v -9808.964844 -415.215607 -11601.491211
vn -0.095280 0.994147 -0.050930
vt 3.350372 3.758742
v -9901.002930 -425.574432 -11605.459961
vn -0.151895 0.987242 -0.047765
vt 3.810562 3.778589
v -9826.801758 -403.966339 -11412.686523
vn -0.063721 0.991659 -0.112032
vt 3.439556 2.814721
v -9708.040039 -405.425354 -11518.314453
vn -0.061142 0.995803 -0.068107
vt 2.845745 3.342859
v -9699.585938 -389.744385 -11374.332031
vn -0.050965 0.992410 -0.111911
vt 2.803478 2.622950
v -9699.585938 -389.744385 -11374.332031
vn -0.050965 0.992410 -0.111911
vt 3.803478 3.622950
v -9708.451172 -374.224152 -11240.583984
vn -0.010387 0.994600 -0.103261
vt 3.847801 2.954209
v -9708.451172 -374.224152 -11240.583984
vn -0.010387 0.994600 -0.103261
vt 3.847801 3.954209
v -9728.418945 -364.142212 -11129.456055
vn 0.011066 0.993341 -0.114683
vt 3.947643 3.398565
v -9648.031250 -409.382141 -11719.095703
vn -0.068800 0.997623 0.003861
vt 2.545708 3.346765
f 24/24/24 10/10/10 25/25/25
f 10/10/10 7/7/7 6/6/6
f 7/7/7 10/10/10 121/121/121
f 24/24/24 121/121/121 10/10/10
f 6/6/6 9/9/9 10/10/10
f 7/7/7 5/5/5 6/6/6
f 5/5/5 7/7/7 8/8/8
f 121/121/121 8/8/8 7/7/7
f 8/8/8 121/121/121 122/122/122
f 24/24/24 122/122/122 121/121/121
f 80/80/80 122/122/122 123/123/123
f 122/122/122 80/80/80 8/8/8
f 41/41/41 8/8/8 80/80/80
f 8/8/8 41/41/41 5/5/5
f 42/42/42 5/5/5 41/41/41
f 5/5/5 42/42/42 43/43/43
f 16/16/16 26/26/26 20/20/20
f 26/26/26 16/16/16 27/27/27
f 15/15/15 27/27/27 16/16/16
f 27/27/27 15/15/15 40/40/40
f 16/16/16 14/14/14 15/15/15
f 14/14/14 16/16/16 17/17/17
f 20/20/20 17/17/17 16/16/16
f 17/17/17 20/20/20 18/18/18
f 17/17/17 28/28/28 14/14/14
f 28/28/28 17/17/17 19/19/19
f 18/18/18 19/19/19 17/17/17
f 19/19/19 18/18/18 30/30/30
f 29/29/29 30/30/30 18/18/18
f 30/30/30 28/28/28 19/19/19
f 28/28/28 30/30/30 31/31/31
f 12/12/12 36/36/36 37/37/37
f 36/36/36 12/12/12 11/11/11
f 13/13/13 11/11/11 12/12/12
f 11/11/11 13/13/13 33/33/33
f 32/32/32 33/33/33 13/13/13
f 33/33/33 32/32/32 34/34/34
f 34/34/34 35/35/35 33/33/33
f 11/11/11 33/33/33 35/35/35
f 37/37/37 38/38/38 12/12/12
f 39/39/39 12/12/12 38/38/38
f 12/12/12 39/39/39 13/13/13
f 116/116/116 137/137/137 117/117/117
f 91/91/91 117/117/117 137/137/137
f 117/117/117 91/91/91 90/90/90
f 60/60/60 90/90/90 91/91/91
f 90/90/90 60/60/60 59/59/59
f 61/61/61 59/59/59 60/60/60
f 90/90/90 113/113/113 117/117/117
f 114/114/114 117/117/117 113/113/113
f 117/117/117 114/114/114 116/116/116
f 115/115/115 116/116/116 114/114/114
f 113/113/113 112/112/112 114/114/114
f 112/112/112 113/113/113 111/111/111
f 90/90/90 111/111/111 113/113/113
f 111/111/111 90/90/90 135/135/135
f 59/59/59 135/135/135 90/90/90
f 111/111/111 135/135/135 136/136/136
f 108/108/108 109/109/109 110/110/110
f 109/109/109 108/108/108 107/107/107
f 106/106/106 107/107/107 108/108/108
f 107/107/107 106/106/106 105/105/105
f 103/103/103 105/105/105 106/106/106
f 105/105/105 103/103/103 104/104/104
f 108/108/108 133/133/133 106/106/106
f 133/133/133 108/108/108 134/134/134
f 110/110/110 134/134/134 108/108/108
f 119/119/119 48/48/48 118/118/118
f 48/48/48 119/119/119 120/120/120
f 46/46/46 47/47/47 48/48/48
f 46/46/46 50/50/50 51/51/51
f 50/50/50 46/46/46 49/49/49
f 48/48/48 49/49/49 46/46/46
f 49/49/49 48/48/48 85/85/85
f 120/120/120 85/85/85 48/48/48
f 85/85/85 120/120/120 132/132/132
f 49/49/49 85/85/85 86/86/86
f 132/132/132 86/86/86 85/85/85
f 86/86/86 50/50/50 49/49/49
f 50/50/50 86/86/86 87/87/87
f 2/2/2 125/125/125 128/128/128
f 125/125/125 2/2/2 124/124/124
f 1/1/1 124/124/124 2/2/2
f 4/4/4 1/1/1 3/3/3
f 2/2/2 3/3/3 1/1/1
f 3/3/3 2/2/2 127/127/127
f 128/128/128 127/127/127 2/2/2
f 127/127/127 128/128/128 126/126/126
f 69/69/69 70/70/70 68/68/68
f 71/71/71 68/68/68 70/70/70
f 68/68/68 71/71/71 147/147/147
f 98/98/98 147/147/147 71/71/71
f 95/95/95 70/70/70 94/94/94
f 70/70/70 95/95/95 71/71/71
f 96/96/96 71/71/71 95/95/95
f 71/71/71 96/96/96 98/98/98
f 64/64/64 62/62/62 63/63/63
f 62/62/62 64/64/64 65/65/65
f 92/92/92 65/65/65 64/64/64
f 65/65/65 92/92/92 67/67/67
f 93/93/93 67/67/67 92/92/92
f 65/65/65 66/66/66 62/62/62
f 66/66/66 65/65/65 67/67/67
f 131/131/131 129/129/129 130/130/130
f 129/129/129 131/131/131 138/138/138
f 140/140/140 138/138/138 131/131/131
f 138/138/138 140/140/140 141/141/141
f 142/142/142 141/141/141 140/140/140
f 138/138/138 139/139/139 129/129/129
f 21/21/21 22/22/22 23/23/23
f 45/45/45 23/23/23 22/22/22
f 23/23/23 45/45/45 146/146/146
f 145/145/145 146/146/146 45/45/45
f 22/22/22 44/44/44 45/45/45
f 83/83/83 81/81/81 82/82/82
f 81/81/81 83/83/83 84/84/84
f 144/144/144 84/84/84 83/83/83
f 143/143/143 144/144/144 83/83/83
f 54/54/54 88/88/88 89/89/89
f 88/88/88 54/54/54 53/53/53
f 52/52/52 53/53/53 54/54/54
f 54/54/54 55/55/55 52/52/52
f 55/55/55 54/54/54 56/56/56
f 89/89/89 56/56/56 54/54/54
f 56/56/56 57/57/57 55/55/55
f 57/57/57 56/56/56 58/58/58
f 75/75/75 72/72/72 74/74/74
f 73/73/73 74/74/74 72/72/72
f 74/74/74 73/73/73 97/97/97
f 78/78/78 100/100/100 101/101/101
f 100/100/100 78/78/78 99/99/99
f 77/77/77 99/99/99 78/78/78
f 78/78/78 76/76/76 77/77/77
f 76/76/76 78/78/78 79/79/79
f 101/101/101 79/79/79 78/78/78
f 79/79/79 101/101/101 102/102/102
