mtllib OVERHILL_A_01_LINE465.mtl
g Line465
usemtl Lvl_dwarven_plc_stone06
v -5072.195801 346.267670 7788.970703
vn 0.000000 0.000000 1.000000
vt 0.331902 1.000000
v -5072.195801 425.457764 7788.970703
vn 0.000000 0.000000 1.000000
vt 0.331902 0.000000
v -5195.227051 425.457581 7788.970703
vn 0.000000 0.000000 1.000000
vt 0.846094 0.000000
v -5195.227051 346.266998 7788.970703
vn 0.000000 0.000000 1.000000
vt 0.846094 1.000000
v -5195.227051 346.266998 7788.970703
vn -1.000000 0.000000 0.000000
vt 0.846094 1.000000
v -5195.227051 425.457581 7788.970703
vn -1.000000 0.000000 0.000000
vt 0.846094 0.000000
v -5195.227051 425.457642 7658.832031
vn -1.000000 0.000000 0.000000
vt 1.331902 0.000000
v -5195.227051 346.267090 7658.832031
vn -1.000000 0.000000 0.000000
vt 1.331902 1.000000
v -5195.227051 346.267090 7658.832031
vn 0.000000 0.000000 -1.000000
vt 1.331902 1.000000
v -5195.227051 425.457642 7658.832031
vn 0.000000 0.000000 -1.000000
vt 1.331902 0.000000
v -5072.195801 425.457764 7658.832031
vn 0.000000 0.000000 -1.000000
vt 1.846094 0.000000
v -5072.195801 346.267670 7658.832031
vn 0.000000 0.000000 -1.000000
vt 1.846094 1.000000
v -5072.195801 346.267670 7658.832031
vn 1.000000 0.000000 0.000000
vt 1.846094 1.000000
v -5072.195801 425.457764 7658.832031
vn 1.000000 0.000000 0.000000
vt 1.846094 0.000000
v -5072.195801 425.457764 7788.970703
vn 1.000000 0.000000 0.000000
vt 2.331902 0.000000
v -5072.195801 346.267670 7788.970703
vn 1.000000 0.000000 0.000000
vt 2.331902 1.000000
f 3/3/3 1/1/1 2/2/2
f 1/1/1 3/3/3 4/4/4
f 7/7/7 5/5/5 6/6/6
f 5/5/5 7/7/7 8/8/8
f 11/11/11 9/9/9 10/10/10
f 9/9/9 11/11/11 12/12/12
f 15/15/15 13/13/13 14/14/14
f 13/13/13 15/15/15 16/16/16
usemtl Lvl_dwarven_plc_rock05
v -5072.195801 346.267670 7788.970703
vn 0.000005 -1.000000 -0.000001
vt 0.509254 -0.078775
v -5195.227051 346.266998 7788.970703
vn 0.000005 -1.000000 -0.000001
vt -0.064884 -0.078775
v -5195.227051 346.267090 7658.832031
vn 0.000005 -1.000000 -0.000001
vt -0.064884 0.495363
v -5072.195801 346.267670 7658.832031
vn 0.000005 -1.000000 0.000000
vt 0.509254 0.495364
f 19/19/19 17/17/17 18/18/18
f 17/17/17 19/19/19 20/20/20
