mtllib OVERHILL_A_01_LINE148.mtl
g Line148
usemtl Stone_Moss_Blend
v -10735.536133 -708.528015 12714.612305
vn 1.000000 0.000000 0.000000
vt 1.132381 -0.505681
v -10735.536133 -708.528015 12877.765625
vn 1.000000 0.000000 0.000000
vt 0.487509 -0.505681
v -10735.536133 -785.239441 12877.765625
vn 1.000000 0.000000 0.000000
vt 0.487509 -0.258558
v -10735.536133 -785.239441 12714.612305
vn 1.000000 0.000000 0.000000
vt 1.132381 -0.258558
v -10735.536133 -708.528259 12677.765625
vn 1.000000 0.000000 0.000000
vt 1.257990 -0.505681
v -10735.536133 -785.239380 12677.765625
vn 1.000000 0.000000 0.000000
vt 1.257990 -0.258559
v -10735.536133 -708.528015 12551.435547
vn 1.000000 0.000000 0.000000
vt 1.688645 -0.505681
v -10735.536133 -785.239380 12551.435547
vn 1.000000 0.000000 0.000000
vt 1.688645 -0.258558
v -10735.536133 -708.528015 12376.284180
vn 1.000000 0.000000 0.000000
vt 2.244914 -0.505681
v -10735.536133 -785.239380 12376.284180
vn 1.000000 0.000000 0.000000
vt 2.244914 -0.258558
v -10735.536133 -1175.917603 12877.765625
vn 0.000000 0.000000 -1.000000
vt 0.487509 1.000000
v -10735.536133 -863.807617 12877.765625
vn 0.000000 0.000000 -1.000000
vt 0.487509 -0.005453
v -10567.020508 -863.807617 12877.765625
vn 0.000000 0.000000 -1.000000
vt -0.006391 -0.005453
v -10567.020508 -1175.917603 12877.765625
vn 0.000000 0.000000 -1.000000
vt -0.006391 1.000000
v -10735.536133 -1175.917603 12714.612305
vn 1.000000 0.000000 0.000000
vt 1.132381 1.000000
v -10735.536133 -863.807617 12714.612305
vn 1.000000 0.000000 0.000000
vt 1.132381 -0.005453
v -10735.536133 -863.807617 12877.765625
vn 1.000000 0.000000 0.000000
vt 0.487509 -0.005453
v -10735.536133 -1175.917603 12877.765625
vn 1.000000 0.000000 0.000000
vt 0.487509 1.000000
v -10735.536133 -1175.917603 12677.765625
vn 1.000000 0.000000 0.000000
vt 1.257990 1.000000
v -10735.536133 -863.807617 12677.765625
vn 1.000000 0.000000 0.000000
vt 1.257990 -0.005453
v -10735.536133 -1175.917603 12551.435547
vn 1.000000 0.000000 0.000000
vt 1.688645 1.000000
v -10735.536133 -863.807617 12551.435547
vn 1.000000 0.000000 0.000000
vt 1.688645 -0.005453
v -10735.536133 -1175.917603 12376.284180
vn 1.000000 0.000000 0.000000
vt 2.244914 1.000000
v -10735.536133 -863.807617 12376.284180
vn 1.000000 0.000000 0.000000
vt 2.244914 -0.005453
v -10735.536133 -785.239441 12877.765625
vn 0.000000 0.000000 -1.000000
vt 0.487509 -0.258558
v -10651.278320 -785.239441 12877.765625
vn 0.000000 0.000000 -1.000000
vt 0.240559 -0.258558
v -10735.536133 -1566.595825 12877.765625
vn 0.000000 0.000000 -1.000000
vt 0.487509 2.257138
v -10567.020508 -1566.595825 12877.765625
vn 0.000000 0.000000 -1.000000
vt -0.006391 2.257138
v -10735.536133 -1566.595825 12714.612305
vn 1.000000 0.000000 0.000000
vt 1.132381 2.257138
v -10735.536133 -1566.595825 12877.765625
vn 1.000000 0.000000 0.000000
vt 0.487509 2.257138
v -10735.536133 -1566.595947 12677.765625
vn 1.000000 0.000000 0.000000
vt 1.257990 2.257138
v -11156.291016 -863.807678 13217.120117
vn -1.000000 0.000000 0.000000
vt -2.260476 -0.005453
v -11156.291016 -863.807678 12948.855469
vn -1.000000 0.000001 0.000000
vt -3.250813 -0.005453
v -11156.291016 -942.375916 12948.854492
vn -0.850651 0.000002 0.525731
vt -3.253290 0.247653
v -11156.291016 -942.375977 13217.120117
vn -1.000000 0.000000 0.000000
vt -2.260476 0.247653
v -11156.291016 -785.239441 12877.765625
vn -1.000000 0.000001 0.000001
vt -3.513249 -0.258558
v -11156.291016 -863.807495 12877.765625
vn -1.000000 0.000000 0.000001
vt -3.513249 -0.005453
v -11156.291016 -785.239441 12948.854492
vn -1.000000 0.000001 0.000000
vt -3.250813 -0.258558
v -10567.020508 -1175.917603 13047.442383
vn 1.000000 -0.000001 0.000000
vt -0.637640 1.000000
v -10567.020508 -942.375977 13047.442383
vn 1.000000 0.000000 0.000000
vt -0.637640 0.247653
v -10567.020508 -942.375977 13217.120117
vn 0.832050 0.000000 0.554700
vt -1.269280 0.247653
v -10567.020508 -1175.917603 13217.120117
vn 0.707107 0.000000 0.707107
vt -1.269280 1.000000
v -10567.020508 -863.807617 12877.764648
vn 1.000000 0.000000 0.000000
vt -0.006000 -0.005453
v -10567.020508 -863.807678 13047.442383
vn 1.000000 0.000000 0.000000
vt -0.637640 -0.005453
v -10567.020508 -942.375916 12877.764648
vn 1.000000 0.000000 0.000000
vt -0.006000 0.247653
v -10567.020508 -863.807678 13217.120117
vn 0.707107 0.000000 0.707107
vt -1.269280 -0.005453
v -10785.703125 -863.807678 13217.120117
vn 0.000000 0.000000 1.000000
vt -2.008229 -0.005453
v -10785.703125 -942.375916 13217.120117
vn 0.000000 0.000001 1.000000
vt -2.008229 0.247653
v -10567.020508 -1566.595703 13047.443359
vn 1.000000 -0.000001 0.000000
vt -0.637640 2.258247
v -10567.020508 -1566.595825 13217.120117
vn 0.447213 0.000000 0.894427
vt -1.269280 2.258247
v -10785.703125 -1175.917603 13217.120117
vn 0.000000 0.000001 1.000000
vt -2.008228 1.000000
v -10785.703125 -785.239441 13217.120117
vn -0.000001 0.000000 1.000000
vt -2.008229 -0.258558
v -10878.349609 -785.239441 13217.120117
vn 0.000000 0.000000 1.000000
vt -2.321289 -0.258558
v -10785.703125 -1566.595703 13217.120117
vn 0.000000 0.000001 1.000000
vt -2.008227 2.258247
v -11073.245117 -785.239441 13217.120117
vn 0.000070 0.000000 1.000000
vt -2.979857 -0.258558
v -11156.291016 -863.807678 13217.120117
vn 0.000000 0.000000 1.000000
vt -3.260476 -0.005453
v -10970.997070 -863.807678 13217.120117
vn 0.000000 0.000000 1.000000
vt -2.634352 -0.005453
v -10970.997070 -785.239441 13217.120117
vn 0.000000 0.000000 1.000000
vt -2.634352 -0.258558
v -11156.291016 -942.375916 12877.765625
vn -1.000000 0.000001 0.000000
vt -3.513249 0.247653
v -11156.291016 -785.239441 13217.120117
vn -1.000000 0.000000 0.000000
vt -2.260476 -0.258558
v -11156.291016 -942.375977 13217.120117
vn 0.000000 0.000000 1.000000
vt -3.260476 0.247653
v -10970.997070 -942.375916 13217.120117
vn 0.000000 0.000000 1.000000
vt -2.634352 0.247653
v -10567.020508 -785.239441 12962.604492
vn 1.000000 0.000000 0.000000
vt -0.321824 -0.258558
v -10567.020508 -785.239441 13047.442383
vn 1.000000 0.000000 0.000000
vt -0.637640 -0.258558
v -10567.020508 -785.239441 13217.120117
vn 0.707107 0.000000 0.707107
vt -1.269280 -0.258558
v -10676.362305 -785.239441 13217.120117
vn 0.000000 0.000000 1.000000
vt -1.638756 -0.258558
v -10567.020508 -785.239441 13132.281250
vn 1.000000 0.000000 0.000000
vt -0.953460 -0.258558
v -10567.020508 -1175.917603 12877.764648
vn 1.000000 -0.000001 0.000000
vt -0.006000 1.000000
v -10567.020508 -1566.595581 12877.765625
vn 1.000000 -0.000001 0.000000
vt -0.006000 2.258247
v -11156.291016 -1175.917603 12948.855469
vn -0.707107 0.000002 0.707107
vt -3.253290 1.000000
v -11156.291016 -1175.917603 12877.765625
vn -1.000000 0.000001 0.000000
vt -3.513249 1.000000
v -10785.703125 -1175.917603 12948.855469
vn -0.707107 0.000002 0.707106
vt -1.999525 1.000000
v -10785.703125 -942.375916 12948.855469
vn -0.894428 0.000001 0.447213
vt -1.999526 0.247653
v -11156.291992 -1566.595581 12948.856445
vn -0.894427 0.000001 0.447213
vt -3.253290 2.258247
v -11156.291992 -1566.595581 12877.765625
vn -1.000000 0.000001 0.000000
vt -3.513249 2.258247
v -10785.704102 -1566.595703 12948.856445
vn -0.447214 0.000001 0.894427
vt -1.999525 2.258247
v -10785.704102 -1566.595581 13217.121094
vn -1.000000 0.000000 0.000000
vt -2.008227 2.258247
v -10785.704102 -1175.917603 13217.121094
vn -1.000000 0.000000 -0.000001
vt -2.008228 0.999690
v -10785.703125 -1175.917603 12948.855469
vn -0.707107 0.000002 0.707106
vt -2.999525 1.000000
v -10785.704102 -1566.595703 12948.856445
vn -0.447214 0.000001 0.894427
vt -2.999525 2.258247
v -10785.704102 -942.375916 13217.120117
vn -1.000000 0.000000 -0.000001
vt -2.008229 0.247653
v -10785.703125 -942.375916 12948.855469
vn -0.894428 0.000001 0.447213
vt -2.999526 0.247653
v -10567.020508 -785.239441 12877.764648
vn 1.000000 0.000000 0.000000
vt -0.006000 -0.258558
v -10567.020508 -785.239441 12877.765625
vn 0.000000 0.000000 -1.000000
vt -0.006391 -0.258558
v -11156.291016 -785.239441 13217.120117
vn -0.000001 0.000000 1.000000
vt -3.260476 -0.258558
f 72/72/72 73/73/73 34/34/34
f 76/76/76 72/72/72 70/70/70
f 34/34/34 70/70/70 72/72/72
f 70/70/70 34/34/34 59/59/59
f 33/33/33 59/59/59 34/34/34
f 59/59/59 33/33/33 37/37/37
f 36/36/36 37/37/37 33/33/33
f 33/33/33 38/38/38 36/36/36
f 59/59/59 71/71/71 70/70/70
f 74/74/74 70/70/70 71/71/71
f 70/70/70 74/74/74 76/76/76
f 71/71/71 75/75/75 74/74/74
f 33/33/33 60/60/60 38/38/38
f 60/60/60 33/33/33 32/32/32
f 34/34/34 32/32/32 33/33/33
f 32/32/32 34/34/34 35/35/35
f 50/50/50 51/51/51 54/54/54
f 51/51/51 50/50/50 42/42/42
f 49/49/49 42/42/42 50/50/50
f 42/42/42 49/49/49 39/39/39
f 69/69/69 39/39/39 49/49/49
f 39/39/39 69/69/69 68/68/68
f 40/40/40 68/68/68 45/45/45
f 68/68/68 40/40/40 39/39/39
f 41/41/41 39/39/39 40/40/40
f 39/39/39 41/41/41 42/42/42
f 48/48/48 42/42/42 41/41/41
f 42/42/42 48/48/48 51/51/51
f 56/56/56 61/61/61 57/57/57
f 62/62/62 57/57/57 61/61/61
f 57/57/57 62/62/62 47/47/47
f 48/48/48 47/47/47 62/62/62
f 47/47/47 48/48/48 46/46/46
f 41/41/41 46/46/46 48/48/48
f 46/46/46 41/41/41 40/40/40
f 45/45/45 43/43/43 40/40/40
f 44/44/44 40/40/40 43/43/43
f 40/40/40 44/44/44 46/46/46
f 65/65/65 46/46/46 44/44/44
f 46/46/46 65/65/65 47/47/47
f 66/66/66 47/47/47 65/65/65
f 47/47/47 66/66/66 52/52/52
f 44/44/44 67/67/67 65/65/65
f 52/52/52 53/53/53 47/47/47
f 58/58/58 47/47/47 53/53/53
f 47/47/47 58/58/58 57/57/57
f 55/55/55 57/57/57 58/58/58
f 57/57/57 55/55/55 56/56/56
f 85/85/85 56/56/56 55/55/55
f 44/44/44 64/64/64 67/67/67
f 64/64/64 44/44/44 63/63/63
f 43/43/43 63/63/63 44/44/44
f 63/63/63 43/43/43 83/83/83
f 2/2/2 3/3/3 1/1/1
f 4/4/4 1/1/1 3/3/3
f 1/1/1 4/4/4 5/5/5
f 6/6/6 5/5/5 4/4/4
f 5/5/5 6/6/6 7/7/7
f 8/8/8 7/7/7 6/6/6
f 7/7/7 8/8/8 9/9/9
f 10/10/10 9/9/9 8/8/8
f 3/3/3 17/17/17 4/4/4
f 16/16/16 4/4/4 17/17/17
f 4/4/4 16/16/16 6/6/6
f 20/20/20 6/6/6 16/16/16
f 6/6/6 20/20/20 8/8/8
f 22/22/22 8/8/8 20/20/20
f 8/8/8 22/22/22 10/10/10
f 24/24/24 10/10/10 22/22/22
f 22/22/22 23/23/23 24/24/24
f 23/23/23 22/22/22 21/21/21
f 20/20/20 21/21/21 22/22/22
f 21/21/21 20/20/20 19/19/19
f 16/16/16 19/19/19 20/20/20
f 19/19/19 16/16/16 15/15/15
f 17/17/17 15/15/15 16/16/16
f 15/15/15 17/17/17 18/18/18
f 15/15/15 31/31/31 19/19/19
f 31/31/31 15/15/15 29/29/29
f 18/18/18 29/29/29 15/15/15
f 29/29/29 18/18/18 30/30/30
f 13/13/13 12/12/12 25/25/25
f 12/12/12 13/13/13 11/11/11
f 14/14/14 11/11/11 13/13/13
f 11/11/11 14/14/14 27/27/27
f 28/28/28 27/27/27 14/14/14
f 25/25/25 26/26/26 13/13/13
f 84/84/84 13/13/13 26/26/26
f 81/81/81 82/82/82 78/78/78
f 79/79/79 78/78/78 82/82/82
f 78/78/78 79/79/79 77/77/77
f 80/80/80 77/77/77 79/79/79
