mtllib OVERHILL_A_01_LINE433.mtl
g Line433
usemtl Material_#44425
v -5181.535156 -267.483368 8162.765137
vn -0.862776 0.000000 -0.505586
vt 0.128374 -0.240250
v -5162.322266 -267.483368 8143.561035
vn -0.252689 0.000000 -0.967548
vt 0.208467 -0.240250
v -5162.322266 -400.233368 8143.561035
vn -0.382600 0.000000 -0.923914
vt 0.208467 0.245370
v -5181.535156 -400.233368 8162.765137
vn -0.967520 0.000000 -0.252793
vt 0.128374 0.245370
v -5081.324219 -267.483368 8143.557129
vn -0.000032 -0.000001 -1.000000
vt 0.441449 -0.240250
v -5081.324219 -370.578827 8143.557129
vn -0.000048 0.000000 -1.000000
vt 0.441449 0.136889
v -5081.324219 -267.483368 8239.601563
vn -0.001894 0.000000 0.999998
vt 0.656514 -0.240250
v -5161.749023 -267.712616 8239.449219
vn -0.494729 0.000000 0.869047
vt 0.878363 -0.240250
v -5161.749023 -400.462616 8239.449219
vn -0.248376 0.000000 0.968664
vt 0.878363 0.245370
v -5081.324219 -400.233368 8239.601563
vn 0.083862 0.518391 0.851022
vt 0.656514 0.245370
v -5181.535156 -267.483368 8220.392578
vn -0.966063 0.000000 0.258308
vt 0.958467 -0.240250
v -5181.535156 -400.233368 8220.392578
vn -0.856217 0.000000 0.516616
vt 0.958467 0.245370
v -5181.535156 -267.483368 8162.765137
vn -0.862776 0.000000 -0.505586
vt 1.128374 -0.240250
v -5181.535156 -400.233368 8162.765137
vn -0.967520 0.000000 -0.252793
vt 1.128374 0.245370
v -5181.535156 -267.483368 8162.765137
vn -0.862776 0.000000 -0.505586
vt 0.128374 0.246795
v -5181.535156 -130.919327 8162.765137
vn -0.967520 0.000000 -0.252793
vt 0.128374 -0.257066
v -5162.322266 -130.919327 8143.561035
vn -0.382600 0.000000 -0.923914
vt 0.208467 -0.257066
v -5162.322266 -267.483368 8143.561035
vn -0.252689 0.000000 -0.967548
vt 0.208467 0.246795
v -5081.324219 -203.139832 8143.557129
vn -0.000024 -0.000000 -1.000000
vt 0.441449 0.009396
v -5081.324219 -267.483368 8143.557129
vn -0.000032 -0.000001 -1.000000
vt 0.441449 0.246795
v -5181.535156 -267.483368 8220.392578
vn -0.966063 0.000000 0.258308
vt 0.958467 0.246795
v -5181.535156 -130.919342 8220.392578
vn -0.856217 0.000000 0.516616
vt 0.958467 -0.257066
v -5181.535156 -130.919327 8162.765137
vn -0.967520 0.000000 -0.252793
vt 1.128374 -0.257066
v -5181.535156 -267.483368 8162.765137
vn -0.862776 0.000000 -0.505586
vt 1.128374 0.246795
v -5081.324219 -267.483368 8239.601563
vn -0.001894 0.000000 0.999998
vt 0.656514 0.246795
v -5081.324219 -130.919357 8239.601563
vn -0.001894 0.000000 0.999998
vt 0.656514 -0.257066
v -5161.749023 -131.148590 8239.449219
vn -0.248376 0.000000 0.968664
vt 0.878363 -0.257066
v -5161.749023 -267.712616 8239.449219
vn -0.494729 0.000000 0.869047
vt 0.878363 0.246795
v -5081.324219 -130.919342 8143.557129
vn -0.000048 0.000000 -1.000000
vt 0.441449 -0.257066
v -5081.324219 -400.233368 8143.557129
vn 0.197673 0.464815 -0.863060
vt 0.441449 0.245370
f 17/17/17 29/29/29 19/19/19
f 17/17/17 15/15/15 16/16/16
f 15/15/15 17/17/17 18/18/18
f 19/19/19 18/18/18 17/17/17
f 18/18/18 19/19/19 20/20/20
f 13/13/13 14/14/14 11/11/11
f 12/12/12 11/11/11 14/14/14
f 11/11/11 12/12/12 8/8/8
f 9/9/9 8/8/8 12/12/12
f 8/8/8 9/9/9 7/7/7
f 10/10/10 7/7/7 9/9/9
f 27/27/27 25/25/25 26/26/26
f 25/25/25 27/27/27 28/28/28
f 22/22/22 28/28/28 27/27/27
f 28/28/28 22/22/22 21/21/21
f 23/23/23 21/21/21 22/22/22
f 21/21/21 23/23/23 24/24/24
f 4/4/4 1/1/1 3/3/3
f 2/2/2 3/3/3 1/1/1
f 3/3/3 2/2/2 6/6/6
f 5/5/5 6/6/6 2/2/2
f 6/6/6 30/30/30 3/3/3
