mtllib OVERHILL_A_01_CAVE_SIDE_WALL.mtl
g cave_side_wall
usemtl wall_base_blend
v -7523.729004 -860.142212 -11904.058594
vn 0.982533 -0.035663 0.182639
vt 0.122325 0.000000
v -7538.546875 -860.142212 -11828.735352
vn 0.946399 0.055623 0.318175
vt 0.000000 0.000000
v -7538.546875 -954.269409 -11828.735352
vn 0.946541 0.000000 0.322584
vt 0.000000 1.000000
v -7523.729004 -958.664978 -11904.058594
vn 0.999274 0.000000 0.038110
vt 0.122325 1.000000
v -7526.919922 -860.142212 -11984.387695
vn 0.973392 -0.120338 -0.195002
vt 0.244113 0.000000
v -7526.919922 -958.664978 -11984.387695
vn 0.935713 0.000000 -0.352762
vt 0.244113 1.000000
v -7567.774902 -860.142151 -12055.931641
vn 0.813504 -0.123410 -0.568314
vt 0.368925 0.000000
v -7567.774902 -958.664917 -12055.931641
vn 0.333418 -0.148820 -0.930959
vt 0.368925 1.000000
v -7672.365234 -861.925659 -12161.112305
vn 0.690295 -0.035249 -0.722669
vt 0.593653 0.000000
v -7672.365234 -960.448425 -12161.112305
vn 0.698932 -0.101990 -0.707879
vt 0.593653 1.000000
v -7764.405762 -861.925659 -12255.782227
vn 0.825948 0.000000 -0.563746
vt 0.793680 0.000000
v -7764.405762 -960.448425 -12255.782227
vn 0.841886 0.000000 -0.539656
vt 0.793680 1.000000
v -7828.548340 -861.925659 -12382.087891
vn 0.926260 0.000000 -0.376885
vt 1.008285 0.000000
v -7828.548340 -960.448425 -12382.087891
vn 0.931419 0.000000 -0.363948
vt 1.008285 1.000000
v -7874.801270 -973.570801 -12519.875977
vn 0.986580 0.000000 -0.163279
vt 1.199712 0.000000
v -7874.801270 -1072.093628 -12519.875977
vn 0.970460 0.000000 -0.241263
vt 1.199712 1.000000
v -7875.419434 -1072.093628 -12668.427734
vn 0.999991 0.000000 -0.004161
vt 1.388509 1.000000
v -7875.419434 -973.570801 -12668.427734
vn 0.999991 0.000000 -0.004161
vt 1.388509 0.000000
v -7876.037598 -1072.093506 -12816.978516
vn 0.994078 0.000000 -0.108667
vt 1.577305 1.000000
v -7876.037598 -973.570801 -12816.978516
vn 0.990339 0.000000 -0.138671
vt 1.577305 0.000000
v -7908.969727 -1072.093628 -12916.523438
vn 0.680175 0.000000 -0.733050
vt 1.736028 1.000000
v -7908.969727 -973.570801 -12916.523438
vn 0.949394 0.000000 -0.314087
vt 1.736028 0.000000
f 20/20/20 21/21/21 22/22/22
f 21/21/21 20/20/20 19/19/19
f 18/18/18 19/19/19 20/20/20
f 19/19/19 18/18/18 17/17/17
f 15/15/15 17/17/17 18/18/18
f 2/2/2 3/3/3 1/1/1
f 4/4/4 1/1/1 3/3/3
f 1/1/1 4/4/4 5/5/5
f 6/6/6 5/5/5 4/4/4
f 5/5/5 6/6/6 7/7/7
f 8/8/8 7/7/7 6/6/6
f 7/7/7 8/8/8 9/9/9
f 10/10/10 9/9/9 8/8/8
f 9/9/9 10/10/10 11/11/11
f 12/12/12 11/11/11 10/10/10
f 11/11/11 12/12/12 13/13/13
f 14/14/14 13/13/13 12/12/12
f 13/13/13 14/14/14 15/15/15
f 16/16/16 15/15/15 14/14/14
f 15/15/15 16/16/16 17/17/17
usemtl Rock_wall1
v -7494.782227 -732.219666 -11919.702148
vn 0.983256 -0.058399 0.172617
vt 0.122325 -0.156429
v -7523.729004 -860.142212 -11904.058594
vn 0.982533 -0.035663 0.182639
vt 0.122325 0.000000
v -7526.919922 -860.142212 -11984.387695
vn 0.973392 -0.120338 -0.195002
vt 0.244113 0.000000
v -7567.774902 -860.142151 -12055.931641
vn 0.813504 -0.123410 -0.568314
vt 0.368925 0.000000
v -7672.365234 -861.925659 -12161.112305
vn 0.690295 -0.035249 -0.722669
vt 0.593653 0.000000
v -7546.070801 -732.219666 -12079.971680
vn 0.743986 -0.057487 -0.665718
vt 0.368925 -0.156429
v -7497.973145 -732.219666 -12000.030273
vn 0.930662 -0.071774 -0.358771
vt 0.244113 -0.156429
v -7764.405762 -861.925659 -12255.782227
vn 0.825948 0.000000 -0.563746
vt 0.793680 0.000000
v -7764.405762 -420.198456 -12255.782227
vn 0.790139 -0.113116 -0.602399
vt 0.793680 -0.464714
v -7672.365234 -420.198456 -12161.112305
vn 0.638557 -0.172342 -0.750029
vt 0.593653 -0.464714
v -7796.477051 -420.198456 -12318.935547
vn 0.831449 -0.113809 -0.543819
vt 0.900982 -0.464714
v -7828.548340 -861.925659 -12382.087891
vn 0.926260 0.000000 -0.376885
vt 1.008285 0.000000
v -7874.801270 -973.570801 -12519.875977
vn 0.986580 0.000000 -0.163279
vt 1.199712 0.000000
v -7874.801270 -546.961121 -12519.875977
vn 0.990078 0.000000 -0.140518
vt 1.199712 -0.464714
v -7851.674805 -483.579773 -12450.982422
vn 0.948013 0.000000 -0.318233
vt 1.103999 -0.464714
v -7828.548340 -420.198425 -12382.087891
vn 0.885057 -0.020675 -0.465024
vt 1.008285 -0.464714
v -7875.419434 -973.570801 -12668.427734
vn 0.999991 0.000000 -0.004161
vt 1.388509 0.000000
v -7875.419434 -539.402344 -12668.427734
vn 0.999991 0.000000 -0.004161
vt 1.388509 -0.464714
v -7875.110352 -543.181763 -12594.151367
vn 0.999991 0.000000 -0.004161
vt 1.294110 -0.464714
v -7479.815430 -148.289948 -11904.058594
vn 0.959074 -0.117955 0.257418
vt 0.122325 -0.805540
v -7538.546875 -148.289963 -11828.735352
vn 0.795068 -0.017666 0.606263
vt 0.000000 -0.805540
v -7538.546875 -418.414948 -11828.735352
vn 0.892845 -0.044085 0.448200
vt 0.000000 -0.464714
v -7476.612793 -148.289948 -12022.562500
vn 0.982167 -0.155585 -0.105557
vt 0.244113 -0.805540
v -7523.729004 -418.414948 -11904.058594
vn 0.985295 -0.072040 0.154935
vt 0.122325 -0.464714
v -7526.919922 -418.414948 -11984.387695
vn 0.972621 -0.072831 -0.220692
vt 0.244113 -0.464714
v -7494.199219 -148.289948 -12109.868164
vn 0.897747 -0.200292 -0.392343
vt 0.368925 -0.805540
v -7567.774902 -418.414948 -12055.931641
vn 0.814010 -0.131411 -0.565791
vt 0.368925 -0.464714
v -7566.372559 -150.073441 -12236.852539
vn 0.651846 -0.255190 -0.714125
vt 0.593653 -0.805540
v -7704.570801 -150.073441 -12307.583008
vn 0.557282 -0.209091 -0.803566
vt 0.793680 -0.805540
v -7766.559570 -150.073441 -12344.835938
vn 0.553699 -0.073479 -0.829469
vt 0.900982 -0.858599
v -7851.674805 -207.885941 -12450.982422
vn 0.928357 0.019517 -0.371178
vt 1.103999 -0.858599
v -7828.548340 -150.073441 -12382.087891
vn 0.901432 0.000699 -0.432921
vt 1.008285 -0.911659
v -7875.110352 -291.486145 -12594.151367
vn 0.998247 0.001144 0.059177
vt 1.294110 -0.779010
v -7874.801270 -265.698425 -12519.875977
vn 0.985256 0.049808 -0.163677
vt 1.199712 -0.805540
v -7444.012207 121.835045 -11903.701172
vn 0.859777 -0.084711 0.503594
vt 0.122325 -1.146000
v -7437.749023 160.121124 -12036.394531
vn 0.988769 -0.130201 -0.073373
vt 0.244113 -1.146000
v -7455.335938 200.389679 -12123.699219
vn 0.939087 -0.122546 -0.321090
vt 0.368925 -1.146000
v -7527.509277 218.547531 -12250.684570
vn 0.775966 -0.107263 -0.621588
vt 0.593653 -1.226274
v -7656.098633 198.034103 -12334.291016
vn 0.448858 -0.113363 -0.886383
vt 0.793680 -1.266411
v -7742.323242 142.604782 -12358.189453
vn 0.379414 -0.089528 -0.920885
vt 0.900982 -1.192826
v -7851.674805 -92.747879 -12450.982422
vn 0.887605 -0.077814 -0.453986
vt 1.103999 -0.961079
v -7831.157715 22.407398 -12450.982422
vn 0.936044 -0.020823 -0.351266
vt 1.103999 -1.063574
v -7851.674805 137.562668 -12450.982422
vn 0.966241 0.115081 -0.230511
vt 1.103999 -1.166068
v -7828.548340 120.051559 -12382.087891
vn 0.633339 -0.024331 -0.773492
vt 1.008285 -1.146000
v -7886.076172 -104.345406 -12594.084961
vn 0.979677 -0.029371 0.198422
vt 1.294110 -0.955953
v -7894.190918 -105.405830 -12517.220703
vn 0.946933 -0.025805 -0.320394
vt 1.199712 -0.956919
v -7555.081055 -733.405823 -11832.787109
vn 0.910998 0.036325 0.410808
vt 0.000000 -0.156000
v -7538.546875 -860.142212 -11828.735352
vn 0.946399 0.055623 0.318175
vt 0.000000 0.000000
v -7538.546875 121.835045 -11828.735352
vn 0.778430 -0.042641 0.626282
vt 0.000000 -1.146000
v -7908.969727 -973.570801 -12916.523438
vn 0.949394 0.000000 -0.314087
vt 1.736028 0.000000
v -7908.969727 -531.843567 -12916.523438
vn 0.954722 -0.011340 -0.297282
vt 1.736028 -0.464714
v -7876.037598 -531.843567 -12816.978516
vn 0.981315 0.000000 -0.192407
vt 1.577305 -0.464714
v -7876.037598 -973.570801 -12816.978516
vn 0.990339 0.000000 -0.138671
vt 1.577305 0.000000
v -7909.063477 -391.722717 -12934.963867
vn 0.995136 0.018595 0.096742
vt 1.736028 -0.699422
v -7876.037598 -368.849243 -12816.978516
vn 0.988187 0.021051 -0.151800
vt 1.577305 -0.699422
v -7943.595215 -167.367050 -12934.963867
vn 0.978646 0.130103 0.159141
vt 1.736028 -0.922711
v -7892.052734 -177.969177 -12819.908203
vn 0.932989 0.027366 -0.358864
vt 1.577305 -0.883940
v -7875.728516 -535.622925 -12742.703125
vn 0.999991 0.000000 -0.004161
vt 1.482907 -0.464714
v -7875.728516 -343.061584 -12742.703125
vn 0.998167 -0.007293 -0.060079
vt 1.482907 -0.725951
v -7875.419434 -317.273865 -12668.427734
vn 0.998864 -0.046921 -0.008367
vt 1.388509 -0.752481
v -7862.517578 -140.627136 -12742.602539
vn 0.978420 -0.089885 -0.186051
vt 1.482907 -0.920579
v -7854.395996 -122.486267 -12674.472656
vn 0.993355 -0.079021 0.083671
vt 1.388509 -0.946069
v -7865.559082 82.823418 -12594.084961
vn 0.966764 0.036633 0.253031
vt 1.294110 -1.132923
v -7873.674316 54.910881 -12517.220703
vn 0.978152 0.009647 -0.207668
vt 1.199712 -1.108320
v -7886.076172 269.992249 -12594.084961
vn 0.954870 0.104670 0.277972
vt 1.294110 -1.309892
v -7894.190918 215.227585 -12517.220703
vn 0.991955 0.120699 -0.038178
vt 1.199712 -1.259721
v -7871.536133 12.939519 -12819.908203
vn 0.873491 -0.019510 -0.486450
vt 1.577305 -1.068486
v -7842.000488 61.837708 -12742.602539
vn 0.969269 -0.001967 -0.245997
vt 1.482907 -1.115235
v -7892.052734 203.848206 -12819.908203
vn 0.863085 0.090890 -0.496813
vt 1.577305 -1.253031
v -7862.517578 264.302551 -12742.602539
vn 0.967968 0.097562 -0.231345
vt 1.482907 -1.309892
v -7833.878906 72.330627 -12674.472656
vn 0.991713 -0.001873 0.128460
vt 1.388509 -1.139687
v -7854.395996 278.020569 -12674.472656
vn 0.974081 0.100285 0.202753
vt 1.388509 -1.333305
v -7978.126953 80.020515 -12934.963867
vn 0.804229 0.044685 -0.592637
vt 1.736028 -1.146000
f 30/30/30 34/34/34 38/38/38
f 34/34/34 37/37/37 38/38/38
f 53/53/53 38/38/38 37/37/37
f 38/38/38 53/53/53 54/54/54
f 63/63/63 54/54/54 53/53/53
f 36/36/36 34/34/34 35/35/35
f 34/34/34 36/36/36 37/37/37
f 56/56/56 37/37/37 36/36/36
f 37/37/37 56/56/56 53/53/53
f 68/68/68 53/53/53 56/56/56
f 53/53/53 68/68/68 63/63/63
f 64/64/64 63/63/63 68/68/68
f 63/63/63 64/64/64 54/54/54
f 35/35/35 39/39/39 36/36/36
f 39/39/39 41/41/41 36/36/36
f 55/55/55 36/36/36 41/41/41
f 36/36/36 55/55/55 56/56/56
f 67/67/67 56/56/56 55/55/55
f 56/56/56 67/67/67 68/68/68
f 86/86/86 68/68/68 67/67/67
f 68/68/68 86/86/86 64/64/64
f 65/65/65 64/64/64 86/86/86
f 64/64/64 65/65/65 54/54/54
f 66/66/66 54/54/54 65/65/65
f 54/54/54 66/66/66 52/52/52
f 62/62/62 52/52/52 66/66/66
f 52/52/52 62/62/62 51/51/51
f 61/61/61 51/51/51 62/62/62
f 51/51/51 61/61/61 50/50/50
f 60/60/60 50/50/50 61/61/61
f 50/50/50 60/60/60 48/48/48
f 59/59/59 48/48/48 60/60/60
f 33/33/33 52/52/52 51/51/51
f 67/67/67 85/85/85 86/86/86
f 88/88/88 86/86/86 85/85/85
f 86/86/86 88/88/88 65/65/65
f 85/85/85 87/87/87 88/88/88
f 40/40/40 39/39/39 75/75/75
f 39/39/39 40/40/40 41/41/41
f 82/82/82 41/41/41 40/40/40
f 41/41/41 82/82/82 55/55/55
f 84/84/84 55/55/55 82/82/82
f 55/55/55 84/84/84 67/67/67
f 93/93/93 67/67/67 84/84/84
f 67/67/67 93/93/93 85/85/85
f 94/94/94 85/85/85 93/93/93
f 85/85/85 94/94/94 87/87/87
f 75/75/75 80/80/80 40/40/40
f 81/81/81 40/40/40 80/80/80
f 40/40/40 81/81/81 82/82/82
f 83/83/83 82/82/82 81/81/81
f 82/82/82 83/83/83 84/84/84
f 90/90/90 84/84/84 83/83/83
f 84/84/84 90/90/90 93/93/93
f 92/92/92 93/93/93 90/90/90
f 93/93/93 92/92/92 94/94/94
f 74/74/74 75/75/75 72/72/72
f 75/75/75 74/74/74 80/80/80
f 77/77/77 80/80/80 74/74/74
f 80/80/80 77/77/77 81/81/81
f 79/79/79 81/81/81 77/77/77
f 81/81/81 79/79/79 83/83/83
f 89/89/89 83/83/83 79/79/79
f 83/83/83 89/89/89 90/90/90
f 91/91/91 90/90/90 89/89/89
f 90/90/90 91/91/91 92/92/92
f 89/89/89 95/95/95 91/91/91
f 95/95/95 89/89/89 79/79/79
f 79/79/79 78/78/78 95/95/95
f 78/78/78 79/79/79 76/76/76
f 77/77/77 76/76/76 79/79/79
f 76/76/76 77/77/77 73/73/73
f 74/74/74 73/73/73 77/77/77
f 73/73/73 74/74/74 72/72/72
f 48/48/48 59/59/59 45/45/45
f 58/58/58 45/45/45 59/59/59
f 45/45/45 58/58/58 42/42/42
f 57/57/57 42/42/42 58/58/58
f 42/42/42 57/57/57 43/43/43
f 71/71/71 43/43/43 57/57/57
f 43/43/43 44/44/44 42/42/42
f 46/46/46 42/42/42 44/44/44
f 42/42/42 46/46/46 45/45/45
f 47/47/47 45/45/45 46/46/46
f 45/45/45 47/47/47 48/48/48
f 49/49/49 48/48/48 47/47/47
f 48/48/48 49/49/49 50/50/50
f 32/32/32 50/50/50 49/49/49
f 50/50/50 32/32/32 51/51/51
f 31/31/31 51/51/51 32/32/32
f 51/51/51 31/31/31 33/33/33
f 54/54/54 52/52/52 38/38/38
f 33/33/33 38/38/38 52/52/52
f 38/38/38 33/33/33 30/30/30
f 31/31/31 30/30/30 33/33/33
f 30/30/30 31/31/31 27/27/27
f 32/32/32 27/27/27 31/31/31
f 27/27/27 32/32/32 28/28/28
f 49/49/49 28/28/28 32/32/32
f 28/28/28 49/49/49 29/29/29
f 47/47/47 29/29/29 49/49/49
f 29/29/29 47/47/47 23/23/23
f 46/46/46 23/23/23 47/47/47
f 23/23/23 46/46/46 69/69/69
f 44/44/44 69/69/69 46/46/46
f 27/27/27 28/28/28 26/26/26
f 29/29/29 26/26/26 28/28/28
f 26/26/26 29/29/29 25/25/25
f 23/23/23 25/25/25 29/29/29
f 25/25/25 23/23/23 24/24/24
f 69/69/69 24/24/24 23/23/23
f 24/24/24 69/69/69 70/70/70
