mtllib OVERHILL_A_01_WATERFALLS03.mtl
g Waterfalls03
usemtl waterin
v -7559.230469 -882.291565 -6987.348145
vn -0.755333 0.065429 -0.652067
vt 0.999500 0.730144
v -7623.755371 -1108.297485 -6826.062500
vn -0.956212 0.039281 -0.290026
vt 0.666500 0.730144
v -7617.982910 -942.270691 -6817.276367
vn -0.920759 0.084855 -0.380792
vt 0.666500 0.630244
v -7551.068359 -761.247314 -6966.033691
vn -0.783308 0.128848 -0.608134
vt 0.999500 0.630244
v -7626.635742 -1108.020386 -6646.813965
vn -0.899793 0.053943 0.432969
vt 0.333500 0.730144
v -7620.481934 -942.030212 -6648.227539
vn -0.941672 0.085497 0.325491
vt 0.333500 0.630244
v -7567.842285 -881.462402 -6480.387695
vn -0.859645 0.088242 0.503214
vt 0.000500 0.730144
v -7558.516602 -760.530090 -6494.848145
vn -0.833512 0.100500 0.543285
vt 0.000500 0.630244
v -7603.231445 -798.089539 -6800.359863
vn -0.916890 0.114457 -0.382378
vt 0.666500 0.530344
v -7535.219238 -659.076050 -6934.258789
vn -0.707103 0.118125 -0.697174
vt 0.999500 0.530344
v -7604.863281 -797.932495 -6651.050293
vn -0.901942 0.095806 0.421095
vt 0.333500 0.530344
v -7540.044922 -658.611450 -6514.702637
vn -0.787791 0.122082 0.603723
vt 0.000500 0.530344
v -7578.901367 -516.308777 -6783.837891
vn -0.865977 0.046196 -0.497945
vt 0.666500 0.368922
v -7510.938965 -403.321381 -6902.111816
vn -0.574348 0.036207 -0.817810
vt 0.999500 0.368922
v -7580.533203 -516.151672 -6655.445801
vn -0.852672 0.039287 0.520967
vt 0.333500 0.368922
v -7513.581055 -403.067017 -6536.374512
vn -0.628858 0.051175 0.775834
vt 0.000500 0.368922
v -7581.803223 -257.328613 -6773.380859
vn -0.834740 0.031328 -0.549752
vt 0.666500 0.200664
v -7518.090820 -158.909622 -6881.482910
vn -0.567291 0.028952 -0.823008
vt 0.999500 0.200664
v -7583.041992 -257.216949 -6658.801758
vn -0.851974 0.022024 0.523120
vt 0.333500 0.200664
v -7519.500977 -158.758911 -6550.691406
vn -0.545551 0.011252 0.838002
vt 0.000500 0.200664
v -7567.643066 -31.233824 -6767.476563
vn -0.850343 0.044511 -0.524343
vt 0.666500 0.012006
v -7511.551758 46.228363 -6871.345703
vn -0.609551 0.013453 -0.792632
vt 0.999500 0.012006
v -7568.607422 -31.200619 -6660.966309
vn -0.870240 0.037919 0.491167
vt 0.333500 0.012006
v -7512.159180 47.272995 -6557.945801
vn -0.563911 0.018051 0.825638
vt 0.000500 0.012006
v -7560.333008 159.693390 -6764.652344
vn -0.882146 0.062949 -0.466751
vt 0.666500 -0.126018
v -7518.990234 213.274261 -6866.586914
vn -0.713342 0.044962 -0.699372
vt 0.999500 -0.126018
v -7561.033203 159.935638 -6662.169922
vn -0.913200 0.068918 0.401642
vt 0.333500 -0.126018
v -7519.093262 214.584610 -6561.287109
vn -0.641322 0.025175 0.766859
vt 0.000500 -0.126018
v -7540.028809 330.943787 -6763.548828
vn -0.917183 0.104535 -0.384510
vt 0.666500 -0.264041
v -7505.662109 360.941406 -6864.359375
vn -0.790945 0.063771 -0.608555
vt 0.999500 -0.264041
v -7540.506836 331.477081 -6662.752441
vn -0.935440 0.098289 0.339546
vt 0.333500 -0.264041
v -7505.539063 362.128632 -6562.739258
vn -0.731554 0.060379 0.679105
vt 0.000500 -0.264041
v -7525.369629 457.906464 -6763.091309
vn -0.878622 0.411354 -0.242510
vt 0.666500 -0.377651
v -7501.856934 482.292938 -6863.479004
vn -0.851984 0.489855 -0.184839
vt 0.999500 -0.377651
v -7525.694336 458.556305 -6663.064941
vn -0.902851 0.421904 0.082809
vt 0.333500 -0.377651
v -7501.936523 483.076813 -6563.231934
vn -0.846964 0.264626 0.461114
vt 0.000500 -0.377651
v -7469.096191 516.333191 -6762.930664
vn -0.627824 0.777831 0.028553
vt 0.666500 -0.497364
v -7461.823242 527.869141 -6863.152832
vn -0.570020 0.818416 0.072605
vt 0.999500 -0.497364
v -7469.387695 516.996826 -6663.180664
vn -0.607517 0.792836 -0.048312
vt 0.333500 -0.497364
v -7461.956543 528.268982 -6563.381836
vn -0.639123 0.765493 -0.074449
vt 0.000500 -0.497364
v -7402.782715 555.965942 -6762.901855
vn -0.483222 0.874293 0.045915
vt 0.666500 -0.580457
v -7400.946289 556.341431 -6863.007813
vn -0.423617 0.905762 -0.011994
vt 0.999500 -0.580457
v -7403.079590 556.569580 -6663.197266
vn -0.512654 0.858593 -0.001884
vt 0.333500 -0.580457
v -7401.127441 556.355286 -6563.436035
vn -0.465135 0.881530 -0.080956
vt 0.000500 -0.580457
f 5/5/5 7/7/7 8/8/8
f 6/6/6 8/8/8 12/12/12
f 8/8/8 6/6/6 5/5/5
f 2/2/2 5/5/5 6/6/6
f 1/1/1 2/2/2 3/3/3
f 6/6/6 3/3/3 2/2/2
f 3/3/3 6/6/6 11/11/11
f 12/12/12 11/11/11 6/6/6
f 11/11/11 12/12/12 16/16/16
f 3/3/3 4/4/4 1/1/1
f 4/4/4 3/3/3 9/9/9
f 11/11/11 9/9/9 3/3/3
f 9/9/9 11/11/11 15/15/15
f 16/16/16 15/15/15 11/11/11
f 15/15/15 16/16/16 20/20/20
f 9/9/9 10/10/10 4/4/4
f 10/10/10 9/9/9 13/13/13
f 15/15/15 13/13/13 9/9/9
f 13/13/13 15/15/15 19/19/19
f 20/20/20 19/19/19 15/15/15
f 19/19/19 20/20/20 24/24/24
f 13/13/13 14/14/14 10/10/10
f 14/14/14 13/13/13 17/17/17
f 19/19/19 17/17/17 13/13/13
f 17/17/17 19/19/19 23/23/23
f 24/24/24 23/23/23 19/19/19
f 23/23/23 24/24/24 28/28/28
f 17/17/17 18/18/18 14/14/14
f 18/18/18 17/17/17 21/21/21
f 23/23/23 21/21/21 17/17/17
f 21/21/21 23/23/23 27/27/27
f 28/28/28 27/27/27 23/23/23
f 27/27/27 28/28/28 32/32/32
f 21/21/21 22/22/22 18/18/18
f 22/22/22 21/21/21 25/25/25
f 27/27/27 25/25/25 21/21/21
f 25/25/25 27/27/27 31/31/31
f 32/32/32 31/31/31 27/27/27
f 31/31/31 32/32/32 36/36/36
f 25/25/25 26/26/26 22/22/22
f 26/26/26 25/25/25 29/29/29
f 31/31/31 29/29/29 25/25/25
f 29/29/29 31/31/31 35/35/35
f 36/36/36 35/35/35 31/31/31
f 35/35/35 36/36/36 40/40/40
f 29/29/29 30/30/30 26/26/26
f 30/30/30 29/29/29 33/33/33
f 35/35/35 33/33/33 29/29/29
f 33/33/33 35/35/35 39/39/39
f 40/40/40 39/39/39 35/35/35
f 39/39/39 40/40/40 44/44/44
f 33/33/33 34/34/34 30/30/30
f 34/34/34 33/33/33 37/37/37
f 39/39/39 37/37/37 33/33/33
f 37/37/37 39/39/39 43/43/43
f 44/44/44 43/43/43 39/39/39
f 43/43/43 41/41/41 37/37/37
f 38/38/38 37/37/37 41/41/41
f 37/37/37 38/38/38 34/34/34
f 41/41/41 42/42/42 38/38/38
usemtl waterout
v -7563.187988 -882.291565 -6987.348145
vn -0.755333 0.065429 -0.652067
vt 0.999500 0.730144
v -7627.712891 -1108.297485 -6826.062500
vn -0.956212 0.039281 -0.290026
vt 0.666500 0.730144
v -7621.940430 -942.270691 -6817.276367
vn -0.920759 0.084855 -0.380792
vt 0.666500 0.630244
v -7555.025879 -761.247314 -6966.033691
vn -0.783308 0.128848 -0.608134
vt 0.999500 0.630244
v -7630.593262 -1108.020386 -6646.813965
vn -0.899793 0.053943 0.432969
vt 0.333500 0.730144
v -7624.439453 -942.030212 -6648.227539
vn -0.941672 0.085497 0.325491
vt 0.333500 0.630244
v -7571.799805 -881.462402 -6480.387695
vn -0.859645 0.088242 0.503214
vt 0.000500 0.730144
v -7562.473633 -760.530090 -6494.848145
vn -0.833512 0.100500 0.543285
vt 0.000500 0.630244
v -7607.188965 -798.089539 -6800.359863
vn -0.916890 0.114457 -0.382378
vt 0.666500 0.530344
v -7539.176758 -659.076050 -6934.258789
vn -0.707104 0.118124 -0.697174
vt 0.999500 0.530344
v -7608.820801 -797.932495 -6651.050293
vn -0.901943 0.095806 0.421095
vt 0.333500 0.530344
v -7544.002441 -658.611450 -6514.702637
vn -0.787790 0.122082 0.603724
vt 0.000500 0.530344
v -7582.858887 -516.308777 -6783.837891
vn -0.865977 0.046196 -0.497945
vt 0.666500 0.368922
v -7514.896484 -403.321381 -6902.111816
vn -0.574350 0.036207 -0.817809
vt 0.999500 0.368922
v -7584.490723 -516.151672 -6655.445801
vn -0.852673 0.039287 0.520966
vt 0.333500 0.368922
v -7517.538574 -403.067017 -6536.374512
vn -0.628859 0.051175 0.775833
vt 0.000500 0.368922
v -7585.760742 -257.328613 -6773.380859
vn -0.834741 0.031328 -0.549751
vt 0.666500 0.200664
v -7522.048340 -158.909622 -6881.482910
vn -0.567292 0.028953 -0.823007
vt 0.999500 0.200664
v -7586.999512 -257.216949 -6658.801758
vn -0.851973 0.022024 0.523122
vt 0.333500 0.200664
v -7523.458008 -158.758911 -6550.691406
vn -0.545551 0.011252 0.838002
vt 0.000500 0.200664
v -7571.600586 -31.233824 -6767.476563
vn -0.850342 0.044511 -0.524345
vt 0.666500 0.012006
v -7515.509277 46.228363 -6871.345703
vn -0.609552 0.013453 -0.792632
vt 0.999500 0.012006
v -7572.564941 -31.200619 -6660.966309
vn -0.870238 0.037918 0.491170
vt 0.333500 0.012006
v -7516.116211 47.272995 -6557.945801
vn -0.563909 0.018051 0.825640
vt 0.000500 0.012006
v -7564.290039 159.693390 -6764.652344
vn -0.882145 0.062948 -0.466753
vt 0.666500 -0.126018
v -7522.948242 213.274261 -6866.586914
vn -0.713343 0.044961 -0.699372
vt 0.999500 -0.126018
v -7564.991211 159.935638 -6662.169922
vn -0.913199 0.068917 0.401643
vt 0.333500 -0.126018
v -7523.050293 214.584610 -6561.287109
vn -0.641317 0.025174 0.766863
vt 0.000500 -0.126018
v -7543.986328 330.943787 -6763.548828
vn -0.917181 0.104536 -0.384514
vt 0.666500 -0.264041
v -7509.619629 360.941406 -6864.359375
vn -0.790944 0.063772 -0.608557
vt 0.999500 -0.264041
v -7544.464355 331.477081 -6662.752441
vn -0.935439 0.098289 0.339550
vt 0.333500 -0.264041
v -7509.496094 362.128632 -6562.739258
vn -0.731548 0.060379 0.679111
vt 0.000500 -0.264041
v -7529.326660 457.906464 -6763.091309
vn -0.878622 0.411354 -0.242511
vt 0.666500 -0.377651
v -7505.814453 482.292938 -6863.479004
vn -0.851985 0.489855 -0.184836
vt 0.999500 -0.377651
v -7529.652344 458.556305 -6663.064941
vn -0.902850 0.421907 0.082808
vt 0.333500 -0.377651
v -7505.894043 483.076813 -6563.231934
vn -0.846958 0.264624 0.461124
vt 0.000500 -0.377651
v -7473.054199 516.333191 -6762.930664
vn -0.627824 0.777832 0.028555
vt 0.666500 -0.497364
v -7465.780273 527.869141 -6863.152832
vn -0.570017 0.818419 0.072599
vt 0.999500 -0.497364
v -7473.344727 516.996826 -6663.180664
vn -0.607517 0.792836 -0.048311
vt 0.333500 -0.497364
v -7465.913574 528.268982 -6563.381836
vn -0.639121 0.765494 -0.074446
vt 0.000500 -0.497364
v -7406.740234 555.965942 -6762.901855
vn -0.483220 0.874294 0.045913
vt 0.666500 -0.580457
v -7404.903320 556.341431 -6863.007813
vn -0.423617 0.905762 -0.011994
vt 0.999500 -0.580457
v -7407.036621 556.569580 -6663.197266
vn -0.512652 0.858594 -0.001881
vt 0.333500 -0.580457
v -7405.084961 556.355286 -6563.436035
vn -0.465135 0.881530 -0.080956
vt 0.000500 -0.580457
f 49/49/49 51/51/51 52/52/52
f 50/50/50 52/52/52 56/56/56
f 52/52/52 50/50/50 49/49/49
f 46/46/46 49/49/49 50/50/50
f 45/45/45 46/46/46 47/47/47
f 50/50/50 47/47/47 46/46/46
f 47/47/47 50/50/50 55/55/55
f 56/56/56 55/55/55 50/50/50
f 55/55/55 56/56/56 60/60/60
f 47/47/47 48/48/48 45/45/45
f 48/48/48 47/47/47 53/53/53
f 55/55/55 53/53/53 47/47/47
f 53/53/53 55/55/55 59/59/59
f 60/60/60 59/59/59 55/55/55
f 59/59/59 60/60/60 64/64/64
f 53/53/53 54/54/54 48/48/48
f 54/54/54 53/53/53 57/57/57
f 59/59/59 57/57/57 53/53/53
f 57/57/57 59/59/59 63/63/63
f 64/64/64 63/63/63 59/59/59
f 63/63/63 64/64/64 68/68/68
f 57/57/57 58/58/58 54/54/54
f 58/58/58 57/57/57 61/61/61
f 63/63/63 61/61/61 57/57/57
f 61/61/61 63/63/63 67/67/67
f 68/68/68 67/67/67 63/63/63
f 67/67/67 68/68/68 72/72/72
f 61/61/61 62/62/62 58/58/58
f 62/62/62 61/61/61 65/65/65
f 67/67/67 65/65/65 61/61/61
f 65/65/65 67/67/67 71/71/71
f 72/72/72 71/71/71 67/67/67
f 71/71/71 72/72/72 76/76/76
f 65/65/65 66/66/66 62/62/62
f 66/66/66 65/65/65 69/69/69
f 71/71/71 69/69/69 65/65/65
f 69/69/69 71/71/71 75/75/75
f 76/76/76 75/75/75 71/71/71
f 75/75/75 76/76/76 80/80/80
f 69/69/69 70/70/70 66/66/66
f 70/70/70 69/69/69 73/73/73
f 75/75/75 73/73/73 69/69/69
f 73/73/73 75/75/75 79/79/79
f 80/80/80 79/79/79 75/75/75
f 79/79/79 80/80/80 84/84/84
f 73/73/73 74/74/74 70/70/70
f 74/74/74 73/73/73 77/77/77
f 79/79/79 77/77/77 73/73/73
f 77/77/77 79/79/79 83/83/83
f 84/84/84 83/83/83 79/79/79
f 83/83/83 84/84/84 88/88/88
f 77/77/77 78/78/78 74/74/74
f 78/78/78 77/77/77 81/81/81
f 83/83/83 81/81/81 77/77/77
f 81/81/81 83/83/83 87/87/87
f 88/88/88 87/87/87 83/83/83
f 87/87/87 85/85/85 81/81/81
f 82/82/82 81/81/81 85/85/85
f 81/81/81 82/82/82 78/78/78
f 85/85/85 86/86/86 82/82/82
usemtl WaterChurned
v -7610.699707 -826.957275 -7238.848633
vn 0.005118 0.991489 -0.130088
vt 0.000000 1.000000
v -7872.021973 -827.018555 -7128.403809
vn -0.076855 0.988835 -0.127666
vt 0.250000 1.000000
v -7793.160645 -815.542603 -7020.027344
vn 0.046045 0.998769 0.018462
vt 0.250000 0.750000
v -7586.994629 -826.508423 -7139.635742
vn 0.042784 0.996979 0.064828
vt 0.000000 0.750000
v -8000.385742 -827.055115 -6725.714355
vn -0.097453 0.994827 0.028681
vt 0.500000 1.000000
v -7882.824219 -816.061279 -6731.000000
vn 0.019175 0.999226 -0.034361
vt 0.500000 0.750000
v -7870.547363 -827.027405 -6341.563477
vn -0.040976 0.990612 0.130416
vt 0.750000 1.000000
v -7796.497559 -815.573303 -6440.375488
vn 0.004746 0.999944 0.009501
vt 0.750000 0.750000
v -7602.083984 -826.957336 -6210.956055
vn -0.002346 0.999928 0.011752
vt 1.000000 1.000000
v -7583.404297 -826.511047 -6304.827148
vn 0.010287 0.994679 0.102510
vt 1.000000 0.750000
v -7714.303711 -829.953674 -6935.875000
vn -0.083157 0.991944 -0.095563
vt 0.250000 0.500000
v -7566.048340 -826.994873 -7046.387695
vn 0.054667 0.953293 -0.297059
vt 0.000000 0.500000
v -7778.886719 -830.291260 -6732.059082
vn -0.063672 0.996875 0.046750
vt 0.500000 0.500000
v -7716.141113 -829.975403 -6527.145996
vn -0.003096 0.991852 0.127356
vt 0.750000 0.500000
v -7562.231934 -826.996887 -6414.138672
vn 0.029625 0.995139 -0.093919
vt 1.000000 0.500000
v -7594.034668 -788.204224 -6845.738281
vn 0.166576 0.969336 -0.180668
vt 0.250000 0.250000
v -7525.165039 -826.100830 -6929.723145
vn 0.256897 0.948738 -0.184122
vt 0.000000 0.250000
v -7618.224609 -788.393188 -6722.119141
vn 0.026899 0.998369 -0.050357
vt 0.500000 0.250000
v -7594.270020 -788.204529 -6598.485352
vn 0.070042 0.972930 0.220228
vt 0.750000 0.250000
v -7515.996094 -826.100830 -6509.093262
vn 0.088971 0.898450 0.429966
vt 1.000000 0.250000
v -7496.458496 -826.880432 -6782.451172
vn 0.262763 0.963687 -0.047569
vt 0.250000 0.000000
v -7480.501953 -826.866760 -6833.320801
vn 0.009880 0.999909 0.009231
vt 0.000000 0.000000
v -7499.897949 -826.885864 -6721.046387
vn 0.324750 0.944019 0.058011
vt 0.500000 0.000000
v -7496.713867 -826.880554 -6666.664063
vn 0.314413 0.936938 -0.152619
vt 0.750000 0.000000
v -7482.819336 -826.866943 -6615.416016
vn 0.328596 0.944291 0.018424
vt 1.000000 0.000000
f 98/98/98 95/95/95 97/97/97
f 95/95/95 98/98/98 96/96/96
f 103/103/103 96/96/96 98/98/98
f 96/96/96 103/103/103 102/102/102
f 108/108/108 102/102/102 103/103/103
f 102/102/102 108/108/108 107/107/107
f 113/113/113 107/107/107 108/108/108
f 107/107/107 113/113/113 112/112/112
f 96/96/96 93/93/93 95/95/95
f 93/93/93 96/96/96 94/94/94
f 102/102/102 94/94/94 96/96/96
f 94/94/94 102/102/102 101/101/101
f 107/107/107 101/101/101 102/102/102
f 101/101/101 107/107/107 106/106/106
f 112/112/112 106/106/106 107/107/107
f 106/106/106 112/112/112 111/111/111
f 104/104/104 111/111/111 109/109/109
f 111/111/111 104/104/104 106/106/106
f 99/99/99 106/106/106 104/104/104
f 106/106/106 99/99/99 101/101/101
f 91/91/91 101/101/101 99/99/99
f 101/101/101 91/91/91 94/94/94
f 90/90/90 94/94/94 91/91/91
f 94/94/94 90/90/90 93/93/93
f 105/105/105 109/109/109 110/110/110
f 109/109/109 105/105/105 104/104/104
f 100/100/100 104/104/104 105/105/105
f 104/104/104 100/100/100 99/99/99
f 92/92/92 99/99/99 100/100/100
f 99/99/99 92/92/92 91/91/91
f 89/89/89 91/91/91 92/92/92
f 91/91/91 89/89/89 90/90/90
