mtllib OVERHILL_A_01_LINE108.mtl
g Line108
usemtl Vine_Ledge
v -7506.403809 -353.313629 -6873.567383
vn -0.933916 -0.047505 0.354322
vt 0.848213 0.000000
v -7528.713379 -347.569183 -6930.690918
vn -0.935124 -0.014183 0.354036
vt 0.491341 0.000000
v -7528.713379 -431.916534 -6930.690918
vn -0.931481 0.000000 0.363790
vt 0.491341 1.000000
v -7506.403809 -437.660980 -6873.567383
vn -0.977426 0.000000 0.211280
vt 0.848213 1.000000
v -7492.497070 -352.248322 -6769.949219
vn -0.997432 -0.047036 0.054017
vt 1.453986 0.000000
v -7492.497070 -436.595673 -6769.949219
vn -0.999933 0.008521 0.007785
vt 1.453986 1.000000
v -7498.045410 -351.715668 -6649.333008
vn -0.991332 -0.006470 -0.131221
vt 2.153575 0.000000
v -7500.198242 -436.063019 -6649.333008
vn -0.985041 0.032285 -0.169268
vt 2.153575 1.000000
v -7523.613770 -351.183136 -6532.566895
vn -0.919634 0.015935 -0.392453
vt 2.846148 0.000000
v -7527.625488 -435.530487 -6532.545898
vn -0.958045 0.049528 -0.282305
vt 2.846148 1.000000
v -7557.079590 -343.113068 -6426.665039
vn -0.873740 0.020714 -0.485952
vt 3.508774 0.000000
v -7563.068359 -427.460449 -6423.918945
vn -0.947866 0.057094 -0.313514
vt 3.508774 1.000000
f 2/2/2 3/3/3 1/1/1
f 4/4/4 1/1/1 3/3/3
f 1/1/1 4/4/4 5/5/5
f 6/6/6 5/5/5 4/4/4
f 5/5/5 6/6/6 7/7/7
f 8/8/8 7/7/7 6/6/6
f 7/7/7 8/8/8 9/9/9
f 10/10/10 9/9/9 8/8/8
f 9/9/9 10/10/10 11/11/11
f 12/12/12 11/11/11 10/10/10
