mtllib OVERHILL_A_01_WALL9.mtl
g wall9
usemtl step1
v -10310.426758 -648.306824 -11174.478516
vn -0.954620 -0.000007 0.297827
vt 0.500000 1.000000
v -10310.426758 -619.959534 -11174.478516
vn -0.675020 0.707105 0.210596
vt 0.500000 0.716304
v -10338.946289 -619.959534 -11265.891602
vn -0.853840 0.447209 0.266385
vt 0.000000 0.716304
v -10338.946289 -648.306763 -11265.891602
vn -0.349675 -0.141644 0.926102
vt 0.000000 1.000000
v -10268.888672 -619.959534 -11183.377930
vn -0.628195 0.707105 0.324613
vt 0.517563 0.080290
v -10312.848633 -619.959534 -11268.449219
vn -0.397305 0.894427 0.205303
vt 0.035127 0.160580
v -10268.888672 -619.959534 -11183.377930
vn -0.628195 0.707105 0.324613
vt 0.784605 1.000000
v -10268.888672 -591.612305 -11183.376953
vn -0.628195 0.707105 0.324613
vt 0.784605 0.700000
v -10312.848633 -591.612305 -11268.449219
vn -0.794611 0.447210 0.410606
vt 0.284605 0.700000
v -10312.848633 -619.959534 -11268.449219
vn -0.397305 0.894427 0.205303
vt 0.284605 1.000000
v -10229.559570 -591.612305 -11199.283203
vn -0.561027 0.708943 0.427375
vt 0.800315 0.049500
v -10287.590820 -591.612305 -11275.500977
vn -0.355306 0.894748 0.270526
vt 0.316024 0.099000
v -10229.559570 -591.612305 -11199.283203
vn -0.561027 0.708943 0.427375
vt 0.500000 1.000000
v -10229.236328 -562.866272 -11199.144531
vn -0.560465 0.709515 0.427163
vt 0.500000 0.716304
v -10287.300781 -562.866272 -11275.290039
vn -0.710067 0.450636 0.541047
vt 0.000000 0.716304
v -10287.590820 -591.612305 -11275.500977
vn -0.355306 0.894748 0.270526
vt 0.000000 1.000000
v -10193.246094 -562.866211 -11221.713867
vn -0.479284 0.707108 0.519889
vt 0.517563 0.080290
v -10263.650391 -562.866211 -11286.620117
vn -0.303126 0.894427 0.328807
vt 0.035127 0.160580
v -10193.246094 -562.866211 -11221.713867
vn -0.479284 0.707108 0.519889
vt 0.784605 1.000000
v -10193.246094 -534.518982 -11221.713867
vn -0.479284 0.707109 0.519889
vt 0.784605 0.700000
v -10263.650391 -534.518982 -11286.620117
vn -0.606252 0.447217 0.657613
vt 0.284605 0.700000
v -10263.650391 -562.866211 -11286.620117
vn -0.303126 0.894427 0.328807
vt 0.284605 1.000000
v -10161.725586 -534.518982 -11250.151367
vn -0.381716 0.707393 0.594884
vt 0.800315 0.049500
v -10242.329102 -534.518982 -11301.885742
vn -0.241563 0.894426 0.376363
vt 0.316024 0.099000
v -10161.725586 -534.518982 -11250.151367
vn -0.381716 0.707393 0.594884
vt 0.500000 1.000000
v -10161.723633 -506.171692 -11250.190430
vn -0.450519 0.563329 0.692599
vt 0.500000 0.700000
v -10242.329102 -506.171692 -11301.885742
vn -0.444268 0.568431 0.692468
vt 0.000000 0.700000
v -10242.329102 -534.518982 -11301.885742
vn -0.241563 0.894426 0.376363
vt 0.000000 1.000000
v -10281.907227 -648.306824 -11083.065430
vn -0.550296 -0.000004 0.834970
vt 1.000000 1.000000
v -10281.907227 -619.959534 -11083.065430
vn -0.426920 0.894427 0.133192
vt 1.000000 0.716304
v -10224.928711 -619.959534 -11098.305664
vn -0.794611 0.447209 0.410606
vt 1.000000 0.000000
v -10224.928711 -619.959534 -11098.305664
vn -0.794611 0.447209 0.410606
vt 1.284605 1.000000
v -10224.928711 -591.612305 -11098.305664
vn -0.397306 0.894427 0.205303
vt 1.284605 0.700000
v -10171.528320 -591.612305 -11123.065430
vn -0.709368 0.452374 0.540514
vt 1.284605 0.000000
v -10171.528320 -591.612305 -11123.065430
vn -0.709368 0.452374 0.540514
vt 1.000000 1.000000
v -10171.170898 -562.866272 -11122.998047
vn -0.354410 0.895185 0.270254
vt 1.000000 0.716304
v -10122.840820 -562.866211 -11156.807617
vn -0.606252 0.447217 0.657613
vt 1.000000 0.000000
v -10122.840820 -562.866211 -11156.807617
vn -0.606252 0.447217 0.657613
vt 1.284605 1.000000
v -10122.840820 -534.518982 -11156.807617
vn -0.303126 0.894428 0.328807
vt 1.284605 0.700000
v -10081.123047 -534.518982 -11198.417969
vn -0.482632 0.448528 0.752256
vt 1.284605 0.000000
v -10081.123047 -534.518982 -11198.417969
vn -0.482632 0.448528 0.752256
vt 1.000000 1.000000
v -10081.117188 -506.171692 -11198.496094
vn -0.529799 0.191997 0.826106
vt 1.000000 0.700000
f 26/26/26 41/41/41 42/42/42
f 41/41/41 26/26/26 25/25/25
f 27/27/27 25/25/25 26/26/26
f 25/25/25 27/27/27 28/28/28
f 4/4/4 1/1/1 3/3/3
f 2/2/2 3/3/3 1/1/1
f 3/3/3 2/2/2 6/6/6
f 5/5/5 6/6/6 2/2/2
f 31/31/31 5/5/5 30/30/30
f 2/2/2 30/30/30 5/5/5
f 30/30/30 2/2/2 29/29/29
f 1/1/1 29/29/29 2/2/2
f 22/22/22 19/19/19 21/21/21
f 20/20/20 21/21/21 19/19/19
f 21/21/21 20/20/20 24/24/24
f 23/23/23 24/24/24 20/20/20
f 40/40/40 23/23/23 39/39/39
f 20/20/20 39/39/39 23/23/23
f 39/39/39 20/20/20 38/38/38
f 19/19/19 38/38/38 20/20/20
f 34/34/34 11/11/11 33/33/33
f 8/8/8 33/33/33 11/11/11
f 33/33/33 8/8/8 32/32/32
f 7/7/7 32/32/32 8/8/8
f 11/11/11 12/12/12 8/8/8
f 9/9/9 8/8/8 12/12/12
f 8/8/8 9/9/9 7/7/7
f 10/10/10 7/7/7 9/9/9
f 37/37/37 17/17/17 36/36/36
f 14/14/14 36/36/36 17/17/17
f 36/36/36 14/14/14 35/35/35
f 13/13/13 35/35/35 14/14/14
f 17/17/17 18/18/18 14/14/14
f 15/15/15 14/14/14 18/18/18
f 14/14/14 15/15/15 13/13/13
f 16/16/16 13/13/13 15/15/15
