mtllib OVERHILL_A_01_OBJECT151.mtl
g Object151
usemtl Material_#1156
v -8328.158203 -1291.428345 15431.139648
vn -0.136549 -0.014665 -0.990525
vt 1.022511 0.649384
v -8298.322266 -1290.228149 15352.169922
vn -0.712566 -0.025385 -0.701146
vt 0.833092 0.667431
v -8292.172852 -1692.743896 15354.254883
vn -0.713651 0.085199 -0.695301
vt 0.851443 1.238370
v -8328.158203 -1711.838623 15431.139648
vn -0.711958 0.127359 -0.690576
vt 1.018290 1.234149
v -8299.244141 -1229.897705 15351.857422
vn -0.782808 0.125236 -0.609530
vt 0.830341 0.581856
v -8183.382813 -1273.786865 15277.199219
vn -0.474847 -0.072937 -0.877041
vt 0.607846 0.659922
v -7723.426758 -1591.332397 15278.980469
vn 0.247378 -0.004827 -0.968907
vt -0.159366 1.092263
v -7731.495117 -1299.631470 15180.242188
vn 0.326165 -0.287791 -0.900440
vt -0.162812 0.719403
v -7597.513184 -1325.160645 15266.510742
vn 0.238196 -0.250806 -0.938274
vt -0.374421 0.709493
v -7597.854980 -1572.215698 15330.724609
vn 0.199993 -0.246737 -0.948221
vt -0.372307 1.014174
v -8291.563477 -1173.743774 15358.628906
vn -0.663517 0.077148 -0.744173
vt 0.817868 0.495717
v -8174.645020 -1173.743774 15284.583984
vn -0.500879 0.175694 -0.847497
vt 0.578779 0.495717
v -7621.258789 -1173.743896 15276.143555
vn 0.363511 0.297924 -0.882667
vt -0.327048 0.428427
v -7404.463379 -1403.328613 15284.951172
vn 0.091162 -0.025552 -0.995508
vt -0.624397 0.698090
v -7529.552734 -1311.576782 15262.320313
vn 0.219198 0.058619 -0.973918
vt -0.462700 0.633684
v -7838.792480 -1614.558472 15269.897461
vn -0.001703 -0.014316 -0.999896
vt 0.036815 1.140483
v -7846.665039 -1275.616821 15153.800781
vn -0.046897 -0.307539 -0.950379
vt 0.036815 0.722055
v -8027.625977 -1653.029907 15273.174805
vn -0.172499 0.054813 -0.983483
vt 0.336695 1.179283
v -8040.008789 -1277.509277 15202.489258
vn -0.316354 -0.189607 -0.929499
vt 0.325885 0.672830
v -8175.387207 -1681.156616 15302.988281
vn -0.379846 -0.047375 -0.923836
vt 0.622542 1.213047
f 11/11/11 12/12/12 5/5/5
f 2/2/2 5/5/5 6/6/6
f 5/5/5 2/2/2 1/1/1
f 4/4/4 1/1/1 3/3/3
f 2/2/2 3/3/3 1/1/1
f 3/3/3 2/2/2 20/20/20
f 6/6/6 20/20/20 2/2/2
f 20/20/20 6/6/6 18/18/18
f 19/19/19 18/18/18 6/6/6
f 18/18/18 19/19/19 16/16/16
f 17/17/17 16/16/16 19/19/19
f 16/16/16 17/17/17 8/8/8
f 8/8/8 7/7/7 16/16/16
f 7/7/7 8/8/8 9/9/9
f 14/14/14 15/15/15 13/13/13
f 15/15/15 14/14/14 9/9/9
f 10/10/10 9/9/9 14/14/14
f 9/9/9 10/10/10 7/7/7
