mtllib OVERHILL_A_01_OBJECT159.mtl
g Object159
usemtl Cave_Blender
v -8156.293457 -199.259354 14739.939453
vn -0.051630 -0.602761 -0.796250
vt -1.699198 -1.806863
v -8145.997070 231.141098 14498.765625
vn -0.061629 -0.651712 -0.755958
vt -1.713908 -1.462328
v -7791.164063 230.926620 14513.762695
vn 0.052887 -0.667240 -0.742963
vt -2.220812 -1.483753
v -7834.384766 -214.129913 14770.831055
vn 0.086280 -0.652342 -0.752998
vt -2.159068 -1.850994
v -7591.477051 222.845688 14552.105469
vn 0.075306 -0.650645 -0.755639
vt -2.506079 -1.538528
v -7650.909668 -222.193329 14806.098633
vn 0.095898 -0.650911 -0.753073
vt -2.421175 -1.901376
v -7434.768555 -246.083832 14845.619141
vn -0.069288 -0.685943 -0.724349
vt -2.729948 -1.957834
v -7453.257324 199.003342 14575.203125
vn -0.125491 -0.627650 -0.768315
vt -2.703536 -1.571525
v -7309.314453 150.651901 14515.069336
vn -0.374617 -0.688365 -0.621141
vt -2.909169 -1.485620
v -7176.808594 -223.946228 14808.651367
vn -0.288354 -0.679127 -0.675010
vt -3.098463 -1.905023
v -7016.241211 151.047607 14310.023438
vn -0.425872 -0.720920 -0.546725
vt -3.327845 -1.192697
v -6832.620605 -223.789078 14567.928711
vn -0.447942 -0.676116 -0.584992
vt -3.590160 -1.561134
v -6605.632324 151.406265 13950.823242
vn -0.487419 -0.720388 -0.493421
vt -3.914429 -0.679554
v -6605.632324 151.406265 13950.823242
vn -0.487419 -0.720388 -0.493421
vt -2.914429 -0.679554
v -6379.128906 -223.615936 14171.249023
vn -0.501345 -0.717199 -0.484024
vt -3.238005 -0.994448
v -6832.620605 -223.789078 14567.928711
vn -0.447942 -0.676116 -0.584992
vt -2.590160 -1.561134
v -6170.190430 151.988068 13458.869141
vn -0.576112 -0.724824 -0.377790
vt -3.536489 0.023238
v -5883.389160 -223.401489 13611.173828
vn -0.586254 -0.719314 -0.372686
vt -3.946205 -0.194342
v -5972.174316 153.196884 13015.772461
vn -0.654153 -0.740411 -0.154514
vt -3.819370 0.656232
v -5972.174316 153.196884 13015.772461
vn -0.654153 -0.740411 -0.154514
vt -2.819370 0.656232
v -5622.983398 -215.196854 13080.658203
vn -0.618168 -0.775115 -0.130632
vt -3.318214 0.563538
v -5883.389160 -223.401489 13611.173828
vn -0.586254 -0.719314 -0.372686
vt -2.946205 -0.194342
v -5968.440918 154.451065 12394.291016
vn -0.655522 -0.745664 0.119485
vt -2.824704 1.544063
v -5618.372559 -214.669327 12313.522461
vn -0.674038 -0.727742 0.126740
vt -3.324801 1.659447
v -7535.030273 -230.198090 14824.504883
vn 0.061763 -0.665485 -0.743852
vt -2.586717 -1.927671
f 21/21/21 23/23/23 24/24/24
f 23/23/23 21/21/21 20/20/20
f 22/22/22 20/20/20 21/21/21
f 3/3/3 1/1/1 2/2/2
f 1/1/1 3/3/3 4/4/4
f 5/5/5 4/4/4 3/3/3
f 4/4/4 5/5/5 6/6/6
f 8/8/8 6/6/6 5/5/5
f 6/6/6 8/8/8 25/25/25
f 7/7/7 25/25/25 8/8/8
f 9/9/9 7/7/7 8/8/8
f 7/7/7 9/9/9 10/10/10
f 11/11/11 10/10/10 9/9/9
f 10/10/10 11/11/11 12/12/12
f 13/13/13 12/12/12 11/11/11
f 19/19/19 18/18/18 17/17/17
f 15/15/15 17/17/17 18/18/18
f 17/17/17 15/15/15 14/14/14
f 16/16/16 14/14/14 15/15/15
usemtl Cave_Moss_Ground
v -8145.997070 231.141098 14498.765625
vn -0.061629 -0.651712 -0.755958
vt -1.713908 -1.462328
v -8167.208984 454.174805 14210.895508
vn -0.046059 -0.915029 -0.400750
vt -1.683605 -1.051085
v -7757.910645 453.855347 14228.203125
vn -0.027663 -0.904493 -0.425591
vt -2.268317 -1.075810
v -7791.164063 230.926620 14513.762695
vn 0.052887 -0.667240 -0.742963
vt -2.220812 -1.483753
v -7016.241211 151.047607 14310.023438
vn -0.425872 -0.720920 -0.546725
vt -3.327845 -1.192697
v -7193.359863 374.746338 14083.969727
vn -0.308852 -0.882720 -0.354142
vt -3.074819 -0.869763
v -6808.233398 375.315094 13747.032227
vn -0.298837 -0.892958 -0.336635
vt -3.625000 -0.388423
v -6605.632324 151.406265 13950.823242
vn -0.487419 -0.720388 -0.493421
vt -3.914429 -0.679554
v -6605.632324 151.406265 13950.823242
vn -0.487419 -0.720388 -0.493421
vt -2.914429 -0.679554
v -6808.233398 375.315094 13747.032227
vn -0.298837 -0.892958 -0.336635
vt -2.625000 -0.388423
v -6414.096191 376.281891 13301.737305
vn -0.353970 -0.906342 -0.230760
vt -3.188053 0.247711
v -6170.190430 151.988068 13458.869141
vn -0.576112 -0.724824 -0.377790
vt -3.536489 0.023238
v -6258.504395 378.225769 12953.790039
vn -0.476095 -0.869874 -0.129043
vt -3.410326 0.744779
v -5972.174316 153.196884 13015.772461
vn -0.654153 -0.740411 -0.154514
vt -3.819370 0.656232
v -6255.470703 380.285065 12448.686523
vn -0.496088 -0.863932 0.086708
vt -3.414661 1.466355
v -5968.440918 154.451065 12394.291016
vn -0.655522 -0.745664 0.119485
vt -3.824704 1.544063
v -7309.314453 150.651901 14515.069336
vn -0.374617 -0.688365 -0.621141
vt -2.909169 -1.485620
v -7483.206543 422.002075 14257.971680
vn -0.181960 -0.869801 -0.458626
vt -2.660752 -1.118337
v -7591.477051 222.845688 14552.105469
vn 0.075306 -0.650645 -0.755639
vt -2.506079 -1.538528
v -7453.257324 199.003342 14575.203125
vn -0.125491 -0.627650 -0.768315
vt -2.703536 -1.571525
v -8300.105469 622.198059 13526.919922
vn -0.068819 -0.988465 -0.134914
vt -1.493753 -0.073977
v -7917.452637 634.028381 13463.951172
vn -0.054408 -0.991829 -0.115392
vt -2.040400 0.015978
v -7624.103516 610.112854 13425.723633
vn -0.138888 -0.981854 -0.129124
vt -2.459470 0.070589
v -7310.410645 574.536194 13314.007813
vn -0.137191 -0.984757 -0.106924
vt -2.907604 0.230183
v -7054.116699 557.153137 13238.455078
vn -0.110251 -0.990991 -0.076033
vt -3.273738 0.338115
v -6823.687500 521.088196 13206.828125
vn -0.238323 -0.962550 -0.129228
vt -3.602922 0.383296
v -6568.624023 499.189514 12556.217773
vn -0.229217 -0.973111 0.022679
vt -2.967299 1.312739
v -6823.687500 521.088196 13206.828125
vn -0.238323 -0.962550 -0.129228
vt -2.602922 0.383296
v -8027.525879 652.662537 12627.733398
vn -0.099005 -0.994625 0.030329
vt -1.883153 1.210575
v -8432.866211 707.035461 12722.547852
vn -0.090857 -0.995546 0.025141
vt -1.304096 1.075125
v -7765.000977 608.822815 12593.474609
vn -0.108432 -0.993444 0.036220
vt -2.258189 1.259515
v -7427.461426 564.162659 12544.044922
vn -0.102313 -0.994444 0.024751
vt -2.740388 1.330129
v -7121.883789 539.715393 12512.205078
vn -0.072446 -0.996826 0.033019
vt -3.176928 1.375615
v -6836.294434 530.383484 12521.212891
vn -0.150465 -0.988072 0.032766
vt -3.584912 1.362747
v -6836.294434 530.383484 12521.212891
vn -0.150465 -0.988072 0.032766
vt -2.584912 1.362747
f 46/46/46 55/55/55 54/54/54
f 47/47/47 54/54/54 56/56/56
f 54/54/54 47/47/47 46/46/46
f 27/27/27 46/46/46 47/47/47
f 26/26/26 27/27/27 28/28/28
f 47/47/47 28/28/28 27/27/27
f 28/28/28 47/47/47 48/48/48
f 56/56/56 48/48/48 47/47/47
f 48/48/48 56/56/56 49/49/49
f 57/57/57 49/49/49 56/56/56
f 49/49/49 57/57/57 50/50/50
f 58/58/58 50/50/50 57/57/57
f 50/50/50 58/58/58 59/59/59
f 28/28/28 29/29/29 26/26/26
f 29/29/29 28/28/28 43/43/43
f 48/48/48 43/43/43 28/28/28
f 43/43/43 48/48/48 31/31/31
f 49/49/49 31/31/31 48/48/48
f 31/31/31 49/49/49 32/32/32
f 50/50/50 32/32/32 49/49/49
f 32/32/32 50/50/50 51/51/51
f 59/59/59 51/51/51 50/50/50
f 43/43/43 44/44/44 29/29/29
f 30/30/30 32/32/32 33/33/33
f 32/32/32 30/30/30 31/31/31
f 42/42/42 31/31/31 30/30/30
f 31/31/31 42/42/42 43/43/43
f 45/45/45 43/43/43 42/42/42
f 43/43/43 45/45/45 44/44/44
f 36/36/36 35/35/35 53/53/53
f 35/35/35 36/36/36 34/34/34
f 37/37/37 34/34/34 36/36/36
f 38/38/38 37/37/37 36/36/36
f 37/37/37 38/38/38 39/39/39
f 53/53/53 60/60/60 36/36/36
f 52/52/52 36/36/36 60/60/60
f 36/36/36 52/52/52 38/38/38
f 40/40/40 38/38/38 52/52/52
f 38/38/38 40/40/40 39/39/39
f 41/41/41 39/39/39 40/40/40
