mtllib OVERHILL_A_01_GROUND1.mtl
g ground1
usemtl groundMain2
v -5325.248535 -887.923340 -14000.693359
vn 0.000000 1.000000 0.000000
vt 3.931774 2.754766
v -5258.251953 -887.923340 -13987.055664
vn 0.000000 1.000000 0.000000
vt 3.596794 2.686579
v -5270.679688 -887.923340 -14060.527344
vn 0.000000 1.000000 0.000000
vt 3.658930 3.053938
v -5253.742676 -887.923279 -14098.797852
vn 0.000000 1.000000 0.000000
vt 3.574245 3.245293
v -5278.549316 -887.923279 -14122.096680
vn 0.000000 1.000000 0.000000
vt 3.698278 3.361784
v -5317.242188 -887.923279 -14114.413086
vn 0.000000 1.000000 0.000000
vt 3.891745 3.323368
v -5317.242188 -887.923279 -14114.413086
vn 0.000000 1.000000 0.000000
vt 2.891745 3.323368
v -5375.472168 -887.923279 -14132.109375
vn 0.000000 1.000000 0.000000
vt 3.126842 3.305504
v -5387.475586 -887.923279 -14089.961914
vn 0.000000 1.000000 0.000000
vt 3.424278 2.928411
v -5325.248535 -887.923340 -14000.693359
vn 0.000000 1.000000 0.000000
vt 2.931774 2.754766
v -5325.248535 -887.923340 -14000.693359
vn 0.000000 1.000000 0.000000
vt 2.931774 3.754766
v -5387.475586 -887.923279 -14089.961914
vn 0.000000 1.000000 0.000000
vt 3.424278 3.928411
v -5363.169434 -887.923340 -13988.113281
vn 0.000000 1.000000 0.000000
vt 3.411877 3.611046
f 11/11/11 12/12/12 13/13/13
f 3/3/3 1/1/1 2/2/2
f 1/1/1 3/3/3 4/4/4
f 5/5/5 1/1/1 4/4/4
f 1/1/1 5/5/5 6/6/6
f 9/9/9 7/7/7 8/8/8
f 7/7/7 9/9/9 10/10/10
