mtllib OVERHILL_A_01_ROCK_BRIDGE02.mtl
g Rock_bridge02
usemtl Rock_Grass_Blend_M2
v -11980.260742 409.796997 -9957.853516
vn 0.640430 0.004304 0.768005
vt 0.094844 0.236126
v -12022.731445 404.119690 -9947.544922
vn 0.013555 -0.399580 0.916598
vt 0.489790 0.114391
v -12022.477539 363.113678 -9975.142578
vn -0.079176 -0.631551 0.771281
vt 0.483301 -0.295269
v -11965.317383 372.257599 -9991.304688
vn 0.834276 -0.196063 0.515309
vt -0.295531 -0.013819
v -11985.443359 422.032013 -9989.664063
vn 0.585442 0.809510 0.044165
vt 0.133567 0.679742
v -11968.142578 404.713867 -10048.670898
vn 0.803402 0.588063 -0.093419
vt -0.257039 0.985187
v -12022.251953 414.948273 -10066.759766
vn 0.058688 0.931368 -0.359318
vt 0.480220 1.300203
v -12023.254883 432.978851 -10004.013672
vn 0.026371 0.986604 -0.160990
vt 0.485184 0.849786
v -12066.487305 422.263153 -9990.072266
vn -0.662518 0.748546 -0.027374
vt 0.887208 0.684598
v -12082.414063 404.944977 -10049.079102
vn -0.653904 0.717019 -0.241440
vt 1.299942 0.992301
v -12079.992188 373.555084 -9993.597656
vn -0.914488 -0.103760 0.391082
vt 1.266947 0.026117
v -12065.469727 410.604095 -9959.319336
vn -0.709728 -0.273406 0.649258
vt 0.887226 0.253432
v -12022.477539 363.113678 -9975.142578
vn -0.079176 -0.631551 0.771281
vt 0.483301 -0.295269
v -12022.731445 404.119690 -9947.544922
vn 0.013555 -0.399580 0.916598
vt 0.489790 0.114391
v -11955.779297 262.034149 -10080.500000
vn 0.829498 -0.431538 0.354552
vt -0.183476 0.148002
v -12022.378906 247.702164 -10055.167969
vn -0.024637 -0.643920 0.764696
vt 0.507053 -0.195233
v -12021.953125 216.783997 -10088.779297
vn 0.052337 -0.967988 0.245481
vt 0.501039 0.153518
v -11971.207031 227.556396 -10107.819336
vn 0.562691 -0.799681 -0.209498
vt 0.146372 0.327422
v -11958.085938 295.467804 -10139.593750
vn 0.755220 0.082596 -0.650247
vt -0.159560 0.948702
v -11976.336914 253.242462 -10153.219727
vn 0.452231 -0.333643 -0.827145
vt 0.182224 0.742085
v -12022.257813 304.741699 -10155.985352
vn 0.000511 0.267893 -0.963449
vt 0.505800 1.170801
v -12021.311523 261.094360 -10167.097656
vn -0.002919 -0.307766 -0.951458
vt 0.496554 0.868843
v -12064.544922 253.228165 -10153.194336
vn -0.554277 -0.388800 -0.735942
vt 0.798721 0.741855
v -12087.529297 295.512634 -10139.672852
vn -0.783304 0.079427 -0.616544
vt 1.182558 0.949775
v -12085.614258 263.372437 -10082.865234
vn -0.807783 -0.495247 0.319713
vt 1.162698 0.180053
v -12067.335938 228.562317 -10109.597656
vn -0.495390 -0.867458 -0.045895
vt 0.818225 0.343661
v -12022.378906 247.702164 -10055.167969
vn -0.024637 -0.643920 0.764696
vt 0.507053 -0.195233
v -12021.953125 216.783997 -10088.779297
vn 0.052337 -0.967988 0.245481
vt 0.501039 0.153518
v -11965.317383 372.257599 -9991.304688
vn 0.834276 -0.196063 0.515309
vt 0.162017 0.052156
v -12022.477539 363.113678 -9975.142578
vn -0.079176 -0.631551 0.771281
vt 0.000000 0.052156
v -12022.329102 307.646851 -10021.252930
vn -0.038564 -0.597740 0.800762
vt 0.000000 0.276833
v -11956.643555 321.978821 -10046.584961
vn 0.847656 -0.250540 0.467663
vt 0.162017 0.276833
v -12022.477539 363.113678 -9975.142578
vn -0.079176 -0.631551 0.771281
vt 1.000000 0.052156
v -12079.992188 373.555084 -9993.597656
vn -0.914488 -0.103760 0.391082
vt 0.833598 0.052156
v -12088.420898 323.317139 -10048.950195
vn -0.823290 -0.364229 0.435352
vt 0.833598 0.276833
v -12022.329102 307.646851 -10021.252930
vn -0.038564 -0.597740 0.800762
vt 1.000000 0.276833
v -11968.142578 404.713867 -10048.670898
vn 0.803402 0.588063 -0.093419
vt 0.336918 0.052156
v -11958.691406 355.412506 -10105.678711
vn 0.798530 0.453139 -0.396252
vt 0.336918 0.276833
v -12022.251953 414.948273 -10066.759766
vn 0.058688 0.931368 -0.359318
vt 0.497882 0.052156
v -12022.260742 365.831360 -10124.093750
vn -0.034635 0.626067 -0.778999
vt 0.497882 0.276833
v -12082.414063 404.944977 -10049.079102
vn -0.653904 0.717019 -0.241440
vt 0.664829 0.052156
v -12092.249023 355.643616 -10106.086914
vn -0.892295 0.335027 -0.302601
vt 0.664829 0.276833
v -12022.378906 247.702164 -10055.167969
vn -0.024637 -0.643920 0.764696
vt 0.000000 0.464920
v -11955.779297 262.034149 -10080.500000
vn 0.829498 -0.431538 0.354552
vt 0.162017 0.464920
v -11958.085938 295.467804 -10139.593750
vn 0.755220 0.082596 -0.650247
vt 0.336918 0.464920
v -12022.257813 304.741699 -10155.985352
vn 0.000511 0.267893 -0.963449
vt 0.497882 0.464920
v -12087.529297 295.512634 -10139.672852
vn -0.783304 0.079427 -0.616544
vt 0.664829 0.464920
v -12085.614258 263.372437 -10082.865234
vn -0.807783 -0.495247 0.319713
vt 0.833598 0.464920
v -12022.378906 247.702164 -10055.167969
vn -0.024637 -0.643920 0.764696
vt 1.000000 0.464920
v -12021.953125 216.783997 -10088.779297
vn 0.052337 -0.967988 0.245481
vt 0.501039 0.153518
v -12005.413086 222.460236 -10120.027344
vn 0.111455 -0.935322 -0.335784
vt 0.391727 0.399843
v -11971.207031 227.556396 -10107.819336
vn 0.562691 -0.799681 -0.209498
vt 0.146372 0.327422
v -12036.374023 220.965073 -10117.383789
vn -0.095010 -0.927750 -0.360905
vt 0.595871 0.377072
v -12005.199219 240.776932 -10152.401367
vn 0.120251 -0.783747 -0.609327
vt 0.390317 0.678801
v -12021.311523 261.094360 -10167.097656
vn -0.002919 -0.307766 -0.951458
vt 0.496554 0.868843
v -11976.336914 253.242462 -10153.219727
vn 0.452231 -0.333643 -0.827145
vt 0.182224 0.742085
v -12064.544922 253.228165 -10153.194336
vn -0.554277 -0.388800 -0.735942
vt 0.798721 0.741855
v -12034.872070 240.683426 -10152.236328
vn -0.149919 -0.764081 -0.627458
vt 0.585966 0.677377
v -12067.335938 228.562317 -10109.597656
vn -0.495390 -0.867458 -0.045895
vt 0.818225 0.343661
v -11980.260742 409.796997 -9957.853516
vn 0.640430 0.004304 0.768005
vt 0.094844 0.236126
v -12019.649414 437.305817 -9942.660156
vn 0.350191 0.749195 0.562204
vt 0.340125 0.369845
v -12022.731445 404.119690 -9947.544922
vn 0.013555 -0.399580 0.916598
vt 0.489790 0.114391
v -12023.254883 432.978851 -10004.013672
vn 0.026371 0.986604 -0.160990
vt 0.485184 0.849786
v -12045.457031 438.312256 -9967.700195
vn -0.134878 0.990123 -0.038262
vt 0.646499 0.631407
v -12009.380859 435.344452 -9964.940430
vn 0.272157 0.961367 0.041279
vt 0.338717 0.594748
v -11985.443359 422.032013 -9989.664063
vn 0.585442 0.809510 0.044165
vt 0.133567 0.679742
v -12065.469727 410.604095 -9959.319336
vn -0.709728 -0.273406 0.649258
vt 0.887226 0.253432
v -12055.643555 435.938965 -9937.541016
vn -0.539640 0.524715 0.658379
vt 0.647211 0.321174
v -12066.487305 422.263153 -9990.072266
vn -0.662518 0.748546 -0.027374
vt 0.887208 0.684598
f 5/5/5 6/6/6 7/7/7
f 6/6/6 5/5/5 4/4/4
f 1/1/1 4/4/4 5/5/5
f 4/4/4 1/1/1 3/3/3
f 2/2/2 3/3/3 1/1/1
f 9/9/9 8/8/8 7/7/7
f 5/5/5 7/7/7 8/8/8
f 12/12/12 13/13/13 14/14/14
f 13/13/13 12/12/12 11/11/11
f 9/9/9 11/11/11 12/12/12
f 11/11/11 9/9/9 10/10/10
f 7/7/7 10/10/10 9/9/9
f 30/30/30 31/31/31 29/29/29
f 32/32/32 29/29/29 31/31/31
f 29/29/29 32/32/32 37/37/37
f 38/38/38 37/37/37 32/32/32
f 37/37/37 38/38/38 39/39/39
f 40/40/40 39/39/39 38/38/38
f 39/39/39 40/40/40 41/41/41
f 42/42/42 41/41/41 40/40/40
f 41/41/41 42/42/42 34/34/34
f 35/35/35 34/34/34 42/42/42
f 34/34/34 35/35/35 33/33/33
f 36/36/36 33/33/33 35/35/35
f 49/49/49 36/36/36 48/48/48
f 35/35/35 48/48/48 36/36/36
f 48/48/48 35/35/35 47/47/47
f 42/42/42 47/47/47 35/35/35
f 47/47/47 42/42/42 40/40/40
f 31/31/31 43/43/43 32/32/32
f 44/44/44 32/32/32 43/43/43
f 32/32/32 44/44/44 38/38/38
f 45/45/45 38/38/38 44/44/44
f 38/38/38 45/45/45 40/40/40
f 46/46/46 40/40/40 45/45/45
f 40/40/40 46/46/46 47/47/47
f 57/57/57 58/58/58 59/59/59
f 53/53/53 59/59/59 58/58/58
f 59/59/59 53/53/53 50/50/50
f 51/51/51 50/50/50 53/53/53
f 50/50/50 51/51/51 52/52/52
f 54/54/54 52/52/52 51/51/51
f 52/52/52 54/54/54 56/56/56
f 55/55/55 56/56/56 54/54/54
f 57/57/57 55/55/55 58/58/58
f 54/54/54 58/58/58 55/55/55
f 58/58/58 54/54/54 53/53/53
f 51/51/51 53/53/53 54/54/54
f 61/61/61 60/60/60 66/66/66
f 60/60/60 61/61/61 62/62/62
f 68/68/68 62/62/62 61/61/61
f 62/62/62 68/68/68 67/67/67
f 69/69/69 67/67/67 68/68/68
f 65/65/65 66/66/66 63/63/63
f 66/66/66 65/65/65 61/61/61
f 64/64/64 61/61/61 65/65/65
f 61/61/61 64/64/64 68/68/68
f 69/69/69 68/68/68 64/64/64
f 63/63/63 64/64/64 65/65/65
f 64/64/64 63/63/63 69/69/69
f 21/21/21 22/22/22 23/23/23
f 22/22/22 21/21/21 20/20/20
f 19/19/19 20/20/20 21/21/21
f 20/20/20 19/19/19 18/18/18
f 15/15/15 18/18/18 19/19/19
f 18/18/18 15/15/15 17/17/17
f 16/16/16 17/17/17 15/15/15
f 28/28/28 27/27/27 26/26/26
f 25/25/25 26/26/26 27/27/27
f 26/26/26 25/25/25 23/23/23
f 24/24/24 23/23/23 25/25/25
f 23/23/23 24/24/24 21/21/21
