mtllib OVERHILL_A_01_LINE189.mtl
g Line189
usemtl Slab_Moss_Mix
v -10735.536133 -708.527954 12376.284180
vn 0.000000 1.000000 0.000001
vt 0.000500 1.019977
v -10945.609375 -708.527954 12376.284180
vn 0.000000 1.000000 0.000000
vt 0.500000 1.019977
v -10945.609375 -708.527954 12543.427734
vn 0.000000 1.000000 0.000000
vt 0.500000 0.510537
v -10840.573242 -708.528015 12547.431641
vn 0.000001 1.000000 0.000000
vt 0.250250 0.498334
v -10735.536133 -708.528076 12551.435547
vn 0.000001 1.000000 0.000000
vt 0.000500 0.486131
v -11012.689453 -708.527954 12376.284180
vn 0.000000 1.000000 0.000000
vt 0.659499 1.019977
v -11050.646484 -708.527954 12543.427734
vn 0.000000 1.000000 0.000000
vt 0.749750 0.510537
v -10945.609375 -708.527954 12877.765625
vn 0.000000 1.000000 0.000000
vt 0.500000 -0.508494
v -10840.572266 -708.527954 12877.765625
vn 0.000000 1.000000 0.000000
vt 0.250250 -0.508494
v -10840.572266 -708.527954 12712.604492
vn 0.000000 1.000000 -0.000001
vt 0.250250 -0.005098
v -10945.609375 -708.527954 12710.596680
vn 0.000000 1.000000 0.000000
vt 0.500000 0.001022
v -11155.682617 -708.527954 12877.765625
vn 0.000000 1.000000 0.000000
vt 0.999500 -0.508494
v -11050.645508 -708.527954 12877.765625
vn 0.000000 1.000000 0.000000
vt 0.749750 -0.508494
v -11050.645508 -708.527954 12710.596680
vn 0.000000 1.000000 0.000000
vt 0.749750 0.001022
v -11155.682617 -708.527954 12710.596680
vn 0.000000 1.000000 0.000000
vt 0.999500 0.001022
v -11155.682617 -708.527954 12543.427734
vn 0.000000 1.000000 0.000000
vt 0.999500 0.510538
v -10735.536133 -708.527954 12877.765625
vn 0.000000 1.000000 0.000000
vt 0.000500 -0.508495
v -10735.536133 -708.527954 12714.612305
vn 0.000000 1.000000 -0.000002
vt 0.000500 -0.011218
v -10735.536133 -708.528198 12677.765625
vn 0.000001 1.000000 -0.000003
vt 0.000500 0.101088
v -11084.186523 -708.527954 12376.284180
vn 0.000000 1.000000 0.000000
vt 0.829500 1.019977
v -11155.682617 -708.527954 12376.284180
vn 0.000000 1.000000 0.000000
vt 0.999500 1.019977
f 14/14/14 13/13/13 8/8/8
f 13/13/13 14/14/14 12/12/12
f 15/15/15 12/12/12 14/14/14
f 17/17/17 18/18/18 9/9/9
f 10/10/10 9/9/9 18/18/18
f 9/9/9 10/10/10 8/8/8
f 11/11/11 8/8/8 10/10/10
f 8/8/8 11/11/11 14/14/14
f 7/7/7 14/14/14 11/11/11
f 14/14/14 7/7/7 15/15/15
f 16/16/16 15/15/15 7/7/7
f 10/10/10 4/4/4 11/11/11
f 3/3/3 11/11/11 4/4/4
f 11/11/11 3/3/3 7/7/7
f 16/16/16 20/20/20 21/21/21
f 20/20/20 16/16/16 7/7/7
f 7/7/7 6/6/6 20/20/20
f 6/6/6 7/7/7 2/2/2
f 3/3/3 2/2/2 7/7/7
f 2/2/2 3/3/3 1/1/1
f 4/4/4 1/1/1 3/3/3
f 1/1/1 4/4/4 5/5/5
f 10/10/10 5/5/5 4/4/4
f 5/5/5 10/10/10 19/19/19
f 18/18/18 19/19/19 10/10/10
