mtllib OVERHILL_A_01_LINE34.mtl
g Line34
usemtl Rock_wall1
v -4575.425781 -1401.339478 -12872.179688
vn 0.641978 0.012752 0.766617
vt 0.080776 1.507397
v -4606.770020 -1401.339478 -12824.543945
vn 0.703564 -0.022599 0.710272
vt -0.004304 1.507397
v -4606.770020 -1767.203003 -12824.543945
vn 0.324140 0.094782 0.941249
vt -0.004304 2.023792
v -4560.798340 -1767.203003 -12808.576172
vn 0.414423 0.171934 0.893696
vt 0.080776 2.023792
v -4512.073730 -1401.339478 -12936.005859
vn 0.958988 0.043837 0.280036
vt 0.300883 1.507397
v -4472.105469 -1767.203003 -12897.932617
vn 0.987355 0.118786 0.104975
vt 0.300883 2.023792
v -4523.380859 -1401.339478 -12989.146484
vn 0.939179 0.025203 -0.342502
vt 0.433859 1.507397
v -4487.935547 -1767.203003 -12972.329102
vn 0.920031 0.071424 -0.385281
vt 0.433859 2.023792
v -4543.690430 -1401.339478 -13027.269531
vn 0.966856 0.021585 -0.254409
vt 0.539584 1.507397
v -4516.369141 -1767.203003 -13025.702148
vn 0.981471 0.072533 -0.177349
vt 0.539584 2.023792
v -4545.222168 -1401.339478 -13088.078125
vn 0.999646 0.024521 -0.010289
vt 0.688463 1.507397
v -4518.513184 -1767.202881 -13110.833984
vn 0.997308 0.073137 -0.005323
vt 0.688463 2.023792
v -4544.972656 -1401.339478 -13142.504883
vn 0.897810 0.015574 -0.440107
vt 0.821677 1.507397
v -4518.164063 -1767.202881 -13187.031250
vn 0.807369 0.129226 -0.575722
vt 0.821677 2.023792
v -4571.967773 -1401.339478 -13163.139648
vn 0.707494 0.036134 -0.705795
vt 0.904841 1.507397
v -4555.957520 -1767.202881 -13215.919922
vn 0.586041 0.088526 -0.805431
vt 0.904841 2.023792
v -4607.704590 -1401.339478 -13225.557617
vn 0.931976 0.021436 -0.361885
vt 0.996864 1.507397
v -4607.704590 -1767.202881 -13225.557617
vn 0.183098 0.000000 -0.983095
vt 0.996864 2.023792
v -4575.091797 -1093.111816 -12836.288086
vn 0.614900 -0.207960 0.760691
vt 0.080776 1.000000
v -4606.770020 -1093.111816 -12824.543945
vn 0.122743 -0.128217 0.984121
vt -0.004304 1.000000
v -4496.602539 -1093.111816 -12915.364258
vn 0.940786 -0.196838 0.276000
vt 0.300883 1.000000
v -4510.611816 -1093.111816 -12981.202148
vn 0.932462 -0.122773 -0.339766
vt 0.433859 1.000000
v -4535.773926 -1093.111816 -13028.434570
vn 0.958934 -0.126520 -0.253847
vt 0.539584 1.000000
v -4537.671387 -1093.111694 -13103.772461
vn 0.991534 -0.129440 -0.010278
vt 0.688463 1.000000
v -4537.362305 -1093.111694 -13171.204102
vn 0.885593 -0.176677 -0.429547
vt 0.821677 1.000000
v -4570.808105 -1093.111694 -13196.769531
vn 0.543655 -0.138228 -0.827848
vt 0.904841 1.000000
v -4607.704590 -1093.111694 -13225.557617
vn 0.711042 -0.029854 -0.702516
vt 0.996864 1.000000
f 18/18/18 17/17/17 16/16/16
f 15/15/15 16/16/16 17/17/17
f 16/16/16 15/15/15 14/14/14
f 13/13/13 14/14/14 15/15/15
f 14/14/14 13/13/13 12/12/12
f 11/11/11 12/12/12 13/13/13
f 12/12/12 11/11/11 10/10/10
f 9/9/9 10/10/10 11/11/11
f 10/10/10 9/9/9 8/8/8
f 7/7/7 8/8/8 9/9/9
f 8/8/8 7/7/7 6/6/6
f 5/5/5 6/6/6 7/7/7
f 6/6/6 5/5/5 4/4/4
f 1/1/1 4/4/4 5/5/5
f 4/4/4 1/1/1 3/3/3
f 2/2/2 3/3/3 1/1/1
f 20/20/20 2/2/2 19/19/19
f 1/1/1 19/19/19 2/2/2
f 19/19/19 1/1/1 21/21/21
f 5/5/5 21/21/21 1/1/1
f 21/21/21 5/5/5 22/22/22
f 7/7/7 22/22/22 5/5/5
f 22/22/22 7/7/7 23/23/23
f 9/9/9 23/23/23 7/7/7
f 23/23/23 9/9/9 24/24/24
f 11/11/11 24/24/24 9/9/9
f 24/24/24 11/11/11 25/25/25
f 13/13/13 25/25/25 11/11/11
f 25/25/25 13/13/13 26/26/26
f 15/15/15 26/26/26 13/13/13
f 26/26/26 15/15/15 27/27/27
f 17/17/17 27/27/27 15/15/15
usemtl Rock_top_blend
v -4560.798340 -1012.702942 -12808.576172
vn 0.248689 -0.264922 0.931649
vt 0.080776 0.000000
v -4606.770020 -1012.702942 -12824.543945
vn -0.328110 0.000000 0.944640
vt -0.004304 0.000000
v -4606.770020 -1093.111816 -12824.543945
vn 0.122743 -0.128217 0.984121
vt -0.004304 1.000000
v -4575.091797 -1093.111816 -12836.288086
vn 0.614900 -0.207960 0.760691
vt 0.080776 1.000000
v -4472.105469 -1012.702942 -12897.932617
vn 0.842036 -0.346211 0.413659
vt 0.300883 0.000000
v -4496.602539 -1093.111816 -12915.364258
vn 0.940786 -0.196838 0.276000
vt 0.300883 1.000000
v -4487.935547 -1012.702942 -12972.329102
vn 0.928776 -0.229838 -0.290776
vt 0.433859 0.000000
v -4510.611816 -1093.111816 -12981.202148
vn 0.932462 -0.122773 -0.339766
vt 0.433859 1.000000
v -4516.369141 -1012.702942 -13025.702148
vn 0.922402 -0.211622 -0.323097
vt 0.539584 0.000000
v -4535.773926 -1093.111816 -13028.434570
vn 0.958934 -0.126520 -0.253847
vt 0.539584 1.000000
v -4518.513184 -1012.702942 -13110.833984
vn 0.972368 -0.232980 -0.014835
vt 0.688463 0.000000
v -4537.671387 -1093.111694 -13103.772461
vn 0.991534 -0.129440 -0.010278
vt 0.688463 1.000000
v -4518.164063 -1012.702942 -13187.031250
vn 0.921790 -0.274062 -0.274212
vt 0.821677 0.000000
v -4537.362305 -1093.111694 -13171.204102
vn 0.885593 -0.176677 -0.429547
vt 0.821677 1.000000
v -4555.957520 -1012.702942 -13215.919922
vn 0.456872 -0.285064 -0.842619
vt 0.904841 0.000000
v -4570.808105 -1093.111694 -13196.769531
vn 0.543655 -0.138228 -0.827848
vt 0.904841 1.000000
v -4607.704590 -1012.702942 -13225.557617
vn 0.876115 -0.080986 -0.475251
vt 0.996864 0.000000
v -4607.704590 -1093.111694 -13225.557617
vn 0.711042 -0.029854 -0.702516
vt 0.996864 1.000000
f 29/29/29 30/30/30 28/28/28
f 31/31/31 28/28/28 30/30/30
f 28/28/28 31/31/31 32/32/32
f 33/33/33 32/32/32 31/31/31
f 32/32/32 33/33/33 34/34/34
f 35/35/35 34/34/34 33/33/33
f 34/34/34 35/35/35 36/36/36
f 37/37/37 36/36/36 35/35/35
f 36/36/36 37/37/37 38/38/38
f 39/39/39 38/38/38 37/37/37
f 38/38/38 39/39/39 40/40/40
f 41/41/41 40/40/40 39/39/39
f 40/40/40 41/41/41 42/42/42
f 43/43/43 42/42/42 41/41/41
f 42/42/42 43/43/43 44/44/44
f 45/45/45 44/44/44 43/43/43
