mtllib INST_WH_FLIPPADDLE_01.mtl
g Wh3_Paddle
usemtl wood_planks
v -96.013298 3.644970 -4.246789
vn 0.000846 0.706998 -0.707215
vt 1.507584 1.000000
v -74.535927 3.644969 -4.221113
vn 0.000846 0.706998 -0.707215
vt 1.507584 0.000000
v -74.535927 -4.590718 -4.218588
vn 0.001069 -0.447433 -0.894317
vt 0.987923 0.000000
v -96.013298 -4.590717 -4.244264
vn 0.000535 -0.894454 -0.447160
vt 0.987923 1.000000
v -74.535927 -4.590738 5.154796
vn 0.001341 -0.894545 0.446975
vt 0.506811 0.000000
v -96.013298 -4.590737 5.219247
vn 0.002683 -0.448153 0.893953
vt 0.506811 1.000000
v -74.535896 3.644968 5.165607
vn 0.002123 0.706642 0.707568
vt -0.000000 0.000000
v -96.013298 3.644969 5.230059
vn 0.002123 0.706642 0.707568
vt -0.000000 1.000000
v -96.013298 3.644970 -4.246789
vn 0.000846 0.706998 -0.707215
vt 0.987923 1.000000
v -96.013298 3.644969 5.230059
vn 0.002123 0.706642 0.707568
vt 0.506811 1.000000
v -74.535896 3.644968 5.165607
vn 0.002123 0.706642 0.707568
vt 0.506811 0.000000
v -74.535927 3.644969 -4.221113
vn 0.000846 0.706998 -0.707215
vt 0.987923 0.000000
f 11/11/11 9/9/9 10/10/10
f 9/9/9 11/11/11 12/12/12
f 3/3/3 1/1/1 2/2/2
f 1/1/1 3/3/3 4/4/4
f 5/5/5 4/4/4 3/3/3
f 4/4/4 5/5/5 6/6/6
f 7/7/7 6/6/6 5/5/5
f 6/6/6 7/7/7 8/8/8
usemtl 3_-_Default
v -76.557823 49.740189 6.640297
vn -1.000000 0.000000 0.000000
vt -0.000939 0.005987
v -76.557846 -0.472915 -5.656799
vn -1.000000 0.000000 0.000000
vt 0.423617 0.055310
v -76.557846 -0.472915 6.640298
vn -1.000000 0.000000 0.000000
vt 0.423617 0.005987
v -76.557823 -50.686028 -5.656797
vn -1.000000 0.000000 0.000000
vt 0.848173 0.055310
v -76.557823 -50.686028 6.640299
vn -1.000000 0.000000 0.000000
vt 0.848173 0.005987
v -76.557831 49.740189 -5.656800
vn -1.000000 0.000000 0.000000
vt -0.000939 0.055310
v -76.557800 -0.472895 6.640285
vn 0.000000 0.000000 1.000000
vt 0.426138 0.500000
v 14.568612 -0.472940 6.640277
vn 0.000000 0.000000 1.000000
vt 0.426139 0.749750
v 14.568635 49.740208 6.640276
vn 0.000000 0.000000 1.000000
vt 0.000500 0.749750
v -76.557785 49.740242 6.640285
vn 0.000000 0.000000 1.000000
vt 0.000500 0.500000
v 99.574318 49.740162 6.640268
vn 0.000000 0.000000 1.000000
vt 0.000500 0.999500
v 14.568633 49.740208 -5.656820
vn 0.000000 0.000000 -1.000000
vt 0.000500 0.749750
v 14.568610 -0.472939 -5.656818
vn 0.000000 0.000000 -1.000000
vt 0.426139 0.749750
v -76.557808 -0.472915 -5.656811
vn 0.000000 0.000000 -1.000000
vt 0.426138 0.500000
v -76.557785 49.740242 -5.656812
vn 0.000000 0.000000 -1.000000
vt 0.000500 0.500000
v 99.574318 49.740162 -5.656828
vn 0.000000 0.000000 -1.000000
vt 0.000500 0.999500
v -76.557785 49.740242 6.640285
vn 0.000000 1.000000 0.000000
vt 0.886956 0.500000
v 14.568635 49.740208 6.640276
vn 0.000000 1.000000 0.000000
vt 0.886956 0.250000
v 14.568633 49.740208 -5.656820
vn 0.000000 1.000000 0.000000
vt 1.000000 0.250000
v -76.557785 49.740242 -5.656812
vn 0.000000 1.000000 0.000000
vt 1.000000 0.500000
v 99.574318 49.740162 6.640268
vn 0.000000 1.000000 0.000000
vt 0.886956 0.064620
v 99.574318 49.740162 -5.656828
vn 0.000000 1.000000 0.000000
vt 1.000000 0.064620
v 99.574318 49.740162 6.640268
vn 1.000000 0.000000 0.000000
vt -0.000939 0.005987
v 99.574272 -50.686077 6.640270
vn 1.000000 0.000000 0.000000
vt 0.848173 0.005987
v 99.574272 -50.686077 -5.656826
vn 1.000000 0.000000 0.000000
vt 0.848173 0.055310
v 99.574318 49.740162 -5.656828
vn 1.000000 0.000000 0.000000
vt -0.000939 0.055310
v 99.574272 -50.686077 6.640270
vn -0.000000 -1.000000 0.000000
vt 0.886956 0.064620
v 14.568597 -50.686031 6.640279
vn 0.000000 -1.000000 0.000000
vt 0.886956 0.250000
v 14.568587 -50.686031 -5.656818
vn 0.000000 -1.000000 0.000000
vt 1.000000 0.250000
v 99.574272 -50.686077 -5.656826
vn -0.000000 -1.000000 0.000000
vt 1.000000 0.064620
v -76.557777 -50.686008 6.640286
vn 0.000000 -1.000000 0.000000
vt 0.886956 0.500000
v -76.557785 -50.686008 -5.656811
vn 0.000000 -1.000000 0.000000
vt 1.000000 0.500000
v 14.568587 -50.686031 -5.656818
vn 0.000000 0.000000 -1.000000
vt 0.851777 0.749750
v -76.557785 -50.686008 -5.656811
vn 0.000000 0.000000 -1.000000
vt 0.851777 0.500000
v 99.574272 -50.686077 -5.656826
vn 0.000000 0.000000 -1.000000
vt 0.851777 0.999500
v -76.557777 -50.686008 6.640286
vn 0.000000 0.000000 1.000000
vt 0.851777 0.500000
v 14.568597 -50.686031 6.640279
vn 0.000000 0.000000 1.000000
vt 0.851777 0.749750
v 99.574272 -50.686077 6.640270
vn 0.000000 0.000000 1.000000
vt 0.851777 0.999500
f 37/37/37 35/35/35 36/36/36
f 35/35/35 37/37/37 38/38/38
f 24/24/24 26/26/26 27/27/27
f 26/26/26 24/24/24 25/25/25
f 28/28/28 25/25/25 24/24/24
f 25/25/25 28/28/28 47/47/47
f 46/46/46 26/26/26 45/45/45
f 25/25/25 45/45/45 26/26/26
f 45/45/45 25/25/25 47/47/47
f 22/22/22 19/19/19 21/21/21
f 20/20/20 21/21/21 19/19/19
f 21/21/21 20/20/20 23/23/23
f 50/50/50 23/23/23 20/20/20
f 20/20/20 49/49/49 50/50/50
f 49/49/49 20/20/20 48/48/48
f 19/19/19 48/48/48 20/20/20
f 33/33/33 34/34/34 30/30/30
f 31/31/31 30/30/30 34/34/34
f 30/30/30 31/31/31 29/29/29
f 32/32/32 29/29/29 31/31/31
f 42/42/42 39/39/39 41/41/41
f 40/40/40 41/41/41 39/39/39
f 41/41/41 40/40/40 44/44/44
f 43/43/43 44/44/44 40/40/40
f 17/17/17 14/14/14 16/16/16
f 14/14/14 17/17/17 15/15/15
f 13/13/13 14/14/14 15/15/15
f 14/14/14 13/13/13 18/18/18
g WH_Paddle_Part
usemtl WoodPlate
v -91.479561 -15.276111 22.120089
vn 1.000000 0.000000 0.000000
vt 0.658962 0.660869
v -91.479576 -15.276110 -21.136818
vn 1.000000 0.000000 0.000000
vt 0.658962 0.346758
v -91.479576 13.120664 -21.136818
vn 1.000000 0.000000 0.000000
vt 0.342947 0.346758
v -91.479561 13.120663 22.120089
vn 1.000000 0.000000 0.000000
vt 0.342947 0.660869
f 53/53/53 51/51/51 52/52/52
f 51/51/51 53/53/53 54/54/54
