mtllib INST_SWORDLIGHT_CRATE-DESTR.mtl
g cratedestr_LOD1
usemtl crate-destruct
v 32.818214 7.499997 26.828999
vn 0.958742 0.127179 -0.254242
vt 0.112670 0.926264
v 32.818203 7.500003 -26.828663
vn 0.958718 0.254363 0.127116
vt 0.898115 0.926264
v 32.818203 62.500004 -26.829000
vn 0.958750 -0.127165 0.254220
vt 0.898115 0.098582
v 32.818214 62.499996 26.829000
vn 0.958720 -0.254352 -0.127124
vt 0.112670 0.098582
v 35.000290 -0.000002 35.000286
vn 0.707106 0.000001 0.707108
vt 0.000499 0.999501
v 35.000286 0.000002 -35.000294
vn 0.707108 0.000002 -0.707106
vt 0.999501 0.999501
v 35.000282 5.000003 -29.330889
vn 0.963117 0.120390 0.240649
vt 0.933346 0.959645
v 35.000290 4.999997 29.330997
vn 0.963091 0.240782 -0.120333
vt 0.076717 0.959645
v 35.000092 70.000267 -35.000088
vn 0.577351 0.577353 -0.577347
vt 0.999501 0.000499
v 34.999996 65.000000 -29.330999
vn 0.963094 -0.240772 0.120328
vt 0.933346 0.056562
v 35.000198 70.000267 35.000103
vn 0.577346 0.577353 0.577353
vt 0.000499 0.000499
v 35.000290 65.000000 29.330999
vn 0.963113 -0.120388 -0.240665
vt 0.076717 0.056562
v 26.828997 7.500000 -32.818211
vn -0.254242 0.127179 -0.958742
vt 0.112670 0.926264
v -26.828663 7.500003 -32.818203
vn 0.127116 0.254363 -0.958718
vt 0.898115 0.926264
v -26.829006 62.500004 -32.818203
vn 0.254220 -0.127165 -0.958750
vt 0.898115 0.098582
v 26.828997 62.499996 -32.818207
vn -0.127124 -0.254352 -0.958720
vt 0.112670 0.098582
v 35.000286 0.000002 -35.000294
vn 0.707108 0.000002 -0.707106
vt 0.000499 0.999501
v -35.000294 0.000002 -35.000286
vn -0.707104 0.000002 -0.707109
vt 0.999501 0.999501
v -29.330894 5.000003 -35.000282
vn 0.240649 0.120390 -0.963117
vt 0.933346 0.959645
v 29.330996 5.000000 -35.000286
vn -0.120330 0.240783 -0.963091
vt 0.076717 0.959645
v -35.000103 70.000275 -35.000217
vn -0.577347 0.577350 -0.577353
vt 0.999501 0.000499
v -29.331005 65.000000 -34.999996
vn 0.120332 -0.240777 -0.963092
vt 0.933346 0.056562
v 35.000092 70.000267 -35.000088
vn 0.577351 0.577353 -0.577347
vt 0.000499 0.000499
v 29.330996 65.000000 -35.000282
vn -0.240662 -0.120390 -0.963114
vt 0.076717 0.056562
v -32.818211 7.499999 -26.828997
vn -0.958742 0.127179 0.254242
vt 0.112670 0.926264
v -32.818203 7.500001 26.828663
vn -0.958718 0.254363 -0.127116
vt 0.898115 0.926264
v -32.818203 62.500004 26.829008
vn -0.958750 -0.127165 -0.254220
vt 0.898115 0.098582
v -32.818211 62.499996 -26.828995
vn -0.958720 -0.254352 0.127124
vt 0.112670 0.098582
v -35.000294 0.000002 -35.000286
vn -0.707104 0.000002 -0.707109
vt 0.000499 0.999501
v -35.000286 -0.000002 35.000294
vn -0.707109 0.000002 0.707104
vt 0.999501 0.999501
v -35.000282 5.000000 29.330894
vn -0.963117 0.120390 -0.240649
vt 0.933346 0.959645
v -35.000286 5.000000 -29.330996
vn -0.963091 0.240783 0.120330
vt 0.076717 0.959645
v -35.000187 70.000267 35.000114
vn -0.577353 0.577350 0.577348
vt 0.999501 0.000499
v -34.999996 65.000000 29.331007
vn -0.963093 -0.240776 -0.120331
vt 0.933346 0.056562
v -35.000103 70.000275 -35.000217
vn -0.577347 0.577350 -0.577353
vt 0.000499 0.000499
v -35.000286 65.000000 -29.330994
vn -0.963114 -0.120389 0.240662
vt 0.076717 0.056562
v -26.828997 7.499997 32.818211
vn 0.254242 0.127179 0.958742
vt 0.112670 0.926264
v 26.828663 7.500000 32.818203
vn -0.127116 0.254363 0.958718
vt 0.898115 0.926264
v 26.829006 62.500004 32.818207
vn -0.254220 -0.127165 0.958750
vt 0.898115 0.098582
v -26.828997 62.499996 32.818211
vn 0.127124 -0.254352 0.958720
vt 0.112670 0.098582
v -35.000286 -0.000002 35.000294
vn -0.707109 0.000002 0.707104
vt 0.000499 0.999501
v 35.000290 -0.000002 35.000286
vn 0.707106 0.000001 0.707108
vt 0.999501 0.999501
v 29.330894 5.000000 35.000282
vn -0.240649 0.120390 0.963117
vt 0.933346 0.959645
v -29.330996 4.999997 35.000286
vn 0.120331 0.240783 0.963091
vt 0.076717 0.959645
v 35.000198 70.000267 35.000103
vn 0.577346 0.577353 0.577353
vt 0.999501 0.000499
v 29.331005 65.000000 35.000000
vn -0.120328 -0.240772 0.963094
vt 0.933346 0.056562
v -35.000187 70.000267 35.000114
vn -0.577353 0.577350 0.577348
vt 0.000499 0.000499
v -29.330996 65.000000 35.000286
vn 0.240663 -0.120386 0.963114
vt 0.076717 0.056562
v -26.828999 67.818306 27.500029
vn 0.254242 0.958742 -0.127179
vt 0.112670 0.926264
v 26.828661 67.818306 27.500019
vn -0.127116 0.958718 -0.254363
vt 0.898115 0.926264
v 26.829000 67.818306 -27.499981
vn -0.254220 0.958750 0.127165
vt 0.898115 0.098582
v -26.829002 67.818306 -27.499968
vn 0.127124 0.958720 0.254352
vt 0.112670 0.098582
v -35.000187 70.000267 35.000114
vn -0.577353 0.577350 0.577348
vt 0.000499 0.999501
v 35.000198 70.000267 35.000103
vn 0.577346 0.577353 0.577353
vt 0.999501 0.999501
v 29.330893 70.000381 30.000019
vn -0.240645 0.963119 -0.120381
vt 0.933346 0.959645
v -29.330997 70.000381 30.000025
vn 0.120329 0.963092 -0.240778
vt 0.076717 0.959645
v 29.330999 70.000099 -29.999973
vn -0.120326 0.963093 0.240775
vt 0.933346 0.056562
v -29.331001 70.000381 -29.999968
vn 0.240665 0.963113 0.120391
vt 0.076717 0.056562
f 33/33/33 35/35/35 36/36/36
f 36/36/36 34/34/34 33/33/33
f 34/34/34 36/36/36 28/28/28
f 25/25/25 28/28/28 36/36/36
f 28/28/28 25/25/25 27/27/27
f 26/26/26 27/27/27 25/25/25
f 27/27/27 34/34/34 28/28/28
f 34/34/34 27/27/27 31/31/31
f 26/26/26 31/31/31 27/27/27
f 31/31/31 26/26/26 32/32/32
f 25/25/25 32/32/32 26/26/26
f 32/32/32 25/25/25 36/36/36
f 33/33/33 34/34/34 30/30/30
f 31/31/31 30/30/30 34/34/34
f 30/30/30 31/31/31 29/29/29
f 32/32/32 29/29/29 31/31/31
f 29/29/29 32/32/32 35/35/35
f 36/36/36 35/35/35 32/32/32
f 58/58/58 35/35/35 56/56/56
f 35/35/35 58/58/58 9/9/9
f 57/57/57 9/9/9 58/58/58
f 9/9/9 57/57/57 54/54/54
f 55/55/55 54/54/54 57/57/57
f 54/54/54 55/55/55 53/53/53
f 57/57/57 51/51/51 55/55/55
f 51/51/51 57/57/57 52/52/52
f 58/58/58 52/52/52 57/57/57
f 52/52/52 58/58/58 49/49/49
f 56/56/56 49/49/49 58/58/58
f 49/49/49 56/56/56 50/50/50
f 35/35/35 53/53/53 56/56/56
f 55/55/55 56/56/56 53/53/53
f 56/56/56 55/55/55 50/50/50
f 51/51/51 50/50/50 55/55/55
f 50/50/50 51/51/51 49/49/49
f 52/52/52 49/49/49 51/51/51
f 5/5/5 8/8/8 11/11/11
f 12/12/12 11/11/11 8/8/8
f 11/11/11 12/12/12 9/9/9
f 10/10/10 9/9/9 12/12/12
f 9/9/9 10/10/10 6/6/6
f 7/7/7 6/6/6 10/10/10
f 8/8/8 1/1/1 12/12/12
f 4/4/4 12/12/12 1/1/1
f 12/12/12 4/4/4 10/10/10
f 3/3/3 10/10/10 4/4/4
f 10/10/10 3/3/3 7/7/7
f 2/2/2 7/7/7 3/3/3
f 7/7/7 5/5/5 6/6/6
f 5/5/5 7/7/7 8/8/8
f 2/2/2 8/8/8 7/7/7
f 8/8/8 2/2/2 1/1/1
f 3/3/3 1/1/1 2/2/2
f 1/1/1 3/3/3 4/4/4
f 21/21/21 22/22/22 18/18/18
f 19/19/19 18/18/18 22/22/22
f 18/18/18 19/19/19 17/17/17
f 20/20/20 17/17/17 19/19/19
f 17/17/17 20/20/20 23/23/23
f 24/24/24 23/23/23 20/20/20
f 21/21/21 23/23/23 24/24/24
f 15/15/15 22/22/22 16/16/16
f 22/22/22 15/15/15 19/19/19
f 14/14/14 19/19/19 15/15/15
f 19/19/19 14/14/14 20/20/20
f 13/13/13 20/20/20 14/14/14
f 20/20/20 13/13/13 24/24/24
f 24/24/24 22/22/22 21/21/21
f 22/22/22 24/24/24 16/16/16
f 13/13/13 16/16/16 24/24/24
f 16/16/16 13/13/13 15/15/15
f 14/14/14 15/15/15 13/13/13
f 48/48/48 45/45/45 47/47/47
f 45/45/45 48/48/48 46/46/46
f 40/40/40 46/46/46 48/48/48
f 46/46/46 40/40/40 39/39/39
f 37/37/37 39/39/39 40/40/40
f 39/39/39 37/37/37 38/38/38
f 44/44/44 38/38/38 37/37/37
f 38/38/38 44/44/44 43/43/43
f 41/41/41 43/43/43 44/44/44
f 43/43/43 41/41/41 42/42/42
f 46/46/46 42/42/42 45/45/45
f 42/42/42 46/46/46 43/43/43
f 39/39/39 43/43/43 46/46/46
f 43/43/43 39/39/39 38/38/38
f 44/44/44 47/47/47 41/41/41
f 47/47/47 44/44/44 48/48/48
f 37/37/37 48/48/48 44/44/44
f 48/48/48 37/37/37 40/40/40
