mtllib INST_LT_CHEST.mtl
g t_chest_silver_
usemtl chest_front
v 31.735138 4.060015 -17.633423
vn 0.000000 1.000000 0.000000
vt 0.000499 0.920978
v -31.993582 4.060015 -17.633417
vn 0.000000 1.000000 0.000000
vt 3.000000 0.920979
v -31.993578 4.060013 19.157383
vn 0.000000 1.000000 0.000000
vt 3.000000 0.417186
v 31.735142 4.060013 19.157377
vn 0.000000 1.000000 0.000000
vt 0.000500 0.417186
v 34.729740 0.000001 -20.628025
vn 0.000000 0.000000 -1.000000
vt 0.000500 0.999500
v -34.988182 0.000001 -20.628017
vn 0.000000 0.000000 -1.000000
vt 3.000000 0.999500
v -34.988182 32.579868 -20.628017
vn 0.000000 0.791805 -0.610774
vt 3.000000 0.339937
v 34.729740 32.579868 -20.628023
vn 0.000000 0.791805 -0.610774
vt 0.000500 0.339937
v -31.993582 4.060015 -17.633417
vn 0.000000 0.000000 1.000000
vt 2.008491 1.000000
v 31.735138 4.060015 -17.633423
vn 0.000000 0.000000 1.000000
vt -1.008492 1.000000
v 31.735138 32.579868 -17.633423
vn 0.000000 0.000000 1.000000
vt -1.008492 0.338647
v -31.993578 4.060013 19.157383
vn 1.000000 0.000000 0.000000
vt 0.001000 0.999501
v -31.993582 4.060015 -17.633417
vn 1.000000 0.000000 0.000000
vt 1.999001 0.999500
v -31.993582 32.579868 -17.633417
vn 1.000000 0.000000 0.000000
vt 1.999001 0.338664
v -34.988178 -0.000001 22.151983
vn 0.000000 0.000000 1.000000
vt 3.000000 0.999501
v 34.729744 -0.000001 22.151976
vn 0.000000 0.000000 1.000000
vt 0.000500 0.999501
v 34.729744 32.579868 22.151978
vn 0.000000 0.791805 0.610774
vt 0.000500 0.339937
v -34.988178 32.579868 22.151983
vn 0.000000 0.791805 0.610774
vt 3.000000 0.339937
v 31.735142 32.579868 19.157377
vn -1.000000 0.000000 0.000000
vt 0.000999 0.338664
v 31.735138 32.579868 -17.633423
vn -1.000000 0.000000 0.000000
vt 1.999000 0.338664
v 31.735138 4.060015 -17.633423
vn -1.000000 0.000000 0.000000
vt 1.999001 0.999500
v 31.735142 4.060013 19.157377
vn 0.000000 0.000000 -1.000000
vt -1.008491 1.000000
v -31.993578 4.060013 19.157383
vn 0.000000 0.000000 -1.000000
vt 2.008492 1.000000
v -31.993578 32.579868 19.157383
vn 0.000000 0.000000 -1.000000
vt 2.008492 0.338647
v 31.735142 32.579868 19.157377
vn 0.000000 0.000000 -1.000000
vt -1.008491 0.338647
v 31.735142 4.060013 19.157377
vn -1.000000 0.000000 0.000000
vt 0.000999 0.999500
v -31.993578 32.579868 19.157383
vn 1.000000 0.000000 0.000000
vt 0.000999 0.338664
v -31.993582 32.579868 -17.633417
vn 0.000000 0.000000 1.000000
vt 2.008491 0.338647
f 3/3/3 1/1/1 2/2/2
f 1/1/1 3/3/3 4/4/4
f 7/7/7 5/5/5 6/6/6
f 5/5/5 7/7/7 8/8/8
f 11/11/11 9/9/9 10/10/10
f 9/9/9 11/11/11 28/28/28
f 14/14/14 12/12/12 13/13/13
f 12/12/12 14/14/14 27/27/27
f 17/17/17 15/15/15 16/16/16
f 15/15/15 17/17/17 18/18/18
f 21/21/21 19/19/19 20/20/20
f 19/19/19 21/21/21 26/26/26
f 24/24/24 22/22/22 23/23/23
f 22/22/22 24/24/24 25/25/25
usemtl chest_side_01
v -31.993578 32.579868 19.157383
vn 0.000000 1.000000 0.000000
vt 0.260149 0.432203
v -31.993582 32.579868 -17.633417
vn 0.000000 1.000000 0.000000
vt 0.767391 0.432204
v -34.988182 32.579868 -20.628017
vn 0.000000 0.791805 -0.610774
vt 0.837321 0.338112
v -34.988178 32.579868 22.151983
vn 0.000000 0.791805 0.610774
vt 0.999501 0.336254
v 34.729744 32.579868 22.151978
vn 0.000000 0.791805 0.610774
vt 0.000500 0.336248
v 31.735142 32.579868 19.157377
vn 0.000000 1.000000 0.000000
vt 0.043410 0.429447
v -31.993578 32.579868 19.157383
vn 0.000000 1.000000 0.000000
vt 0.956590 0.429452
v 31.735138 32.579868 -17.633423
vn 0.000000 1.000000 0.000000
vt 0.231692 0.436695
v 31.735142 32.579868 19.157377
vn 0.000000 1.000000 0.000000
vt 0.757187 0.436700
v 34.729744 32.579868 22.151978
vn 0.000000 0.791805 0.610774
vt 0.827117 0.336253
v 34.729740 32.579868 -20.628023
vn 0.000000 0.791805 -0.610774
vt 0.161762 0.336247
v -34.988182 0.000001 -20.628017
vn -1.000000 0.000000 0.000000
vt 0.999501 0.999500
v -34.988178 -0.000001 22.151983
vn -1.000000 0.000000 0.000000
vt 0.000500 0.999501
v -34.988178 32.579868 22.151983
vn -1.000000 0.000000 0.000000
vt 0.000500 0.343495
v -34.988178 32.579868 22.151983
vn 0.000000 0.791805 0.610774
vt 0.190219 0.338111
v -31.993582 32.579868 -17.633417
vn 0.000000 1.000000 0.000000
vt 0.956590 0.341084
v 31.735138 32.579868 -17.633423
vn 0.000000 1.000000 0.000000
vt 0.043410 0.341079
v 34.729740 32.579868 -20.628023
vn 0.000000 0.791805 -0.610774
vt 0.000499 0.439108
v -34.988182 32.579868 -20.628017
vn 0.000000 0.791805 -0.610774
vt 0.999501 0.439114
v 34.729740 32.579868 -20.628023
vn 1.000000 0.000000 0.000000
vt 0.999500 0.343495
v 34.729744 32.579868 22.151978
vn 1.000000 0.000000 0.000000
vt 0.000499 0.343495
v 34.729744 -0.000001 22.151976
vn 1.000000 0.000000 0.000000
vt 0.000500 0.999500
v 34.729740 0.000001 -20.628025
vn 1.000000 0.000000 0.000000
vt 0.999500 0.999500
v -34.988182 32.579868 -20.628017
vn -1.000000 0.000000 0.000000
vt 0.999500 0.343495
v 36.396057 21.226990 -10.489510
vn 0.967113 -0.176953 -0.182703
vt 0.757518 0.570396
v 36.396057 21.407854 -6.317000
vn 0.962728 0.121427 0.241684
vt 0.660832 0.566718
v 34.913952 19.707573 -7.401734
vn 0.817164 -0.336760 -0.467799
vt 0.685968 0.601292
v 34.913952 19.200817 -10.380738
vn 0.793725 -0.588793 -0.152721
vt 0.754998 0.611597
v 34.913952 23.180649 11.300854
vn 0.797558 0.581897 0.159049
vt 0.252588 0.530669
v 34.913948 21.150265 13.679370
vn 0.877657 -0.055824 0.476027
vt 0.197472 0.571956
v 36.396053 21.077751 10.938287
vn 0.968985 -0.191971 0.155610
vt 0.260989 0.573430
v 36.396053 21.516672 6.764319
vn 0.978854 0.194573 -0.063143
vt 0.357709 0.564505
v 34.913952 23.180649 5.644785
vn 0.803881 0.509205 -0.307386
vt 0.388903 0.530669
v 34.913952 21.012260 4.551157
vn 0.712683 -0.109529 -0.692882
vt 0.414245 0.574762
v 36.396053 18.006056 7.230947
vn 0.991856 -0.043162 -0.119831
vt 0.346896 0.635892
v 34.913952 18.394745 6.297409
vn 0.491397 -0.175258 -0.853120
vt 0.368529 0.627988
v 34.913952 14.769061 5.427247
vn 0.587257 0.579925 -0.564638
vt 0.388692 0.701715
v 36.396053 14.060202 6.108523
vn 0.906226 -0.306782 0.290929
vt 0.372905 0.716130
v 36.396057 12.666163 0.496314
vn 0.888902 0.458097 0.000235
vt 0.502953 0.752983
v 34.913952 13.681355 0.496314
vn 0.565106 0.825014 0.002569
vt 0.502953 0.723744
v 34.913952 14.783719 -4.359306
vn 0.576416 0.617650 0.535026
vt 0.615468 0.701417
v 36.396057 13.950559 -4.829966
vn 0.900780 -0.340339 -0.269750
vt 0.626374 0.718359
v 36.396057 17.892010 -6.571549
vn 0.992887 0.119045 -0.001953
vt 0.666731 0.638211
v 34.913952 18.041899 -5.517878
vn 0.657822 0.007258 0.753139
vt 0.642315 0.634023
v 34.913952 23.108135 -5.232266
vn 0.805317 0.480019 0.347917
vt 0.630445 0.532143
v 34.913952 21.222778 -4.507130
vn 0.772203 0.024784 0.634893
vt 0.609703 0.570481
v 34.913956 21.150265 -13.124809
vn 0.871668 -0.022808 -0.489565
vt 0.818584 0.571956
v 34.913952 18.974855 10.575718
vn 0.802181 -0.585525 0.116900
vt 0.269391 0.616192
v 34.913952 19.852695 7.883852
vn 0.822441 -0.326065 0.466126
vt 0.331767 0.598341
v 34.913952 17.617367 8.164490
vn 0.532814 -0.129957 0.836194
vt 0.325264 0.643796
v 34.913952 13.351342 6.789801
vn 0.552788 -0.603353 0.574796
vt 0.357119 0.732825
v 34.913952 11.650972 0.496314
vn 0.546901 -0.837177 0.005863
vt 0.502953 0.779330
v 34.913952 13.117396 -5.300625
vn 0.536809 -0.653390 -0.533777
vt 0.637280 0.737582
v 34.913952 17.742121 -7.625219
vn 0.551172 -0.217318 -0.805594
vt 0.691146 0.641259
v 34.913952 23.253160 -10.598280
vn 0.786382 0.599344 -0.149633
vt 0.760039 0.529194
v -10.790227 21.779894 -22.151976
vn -0.182703 -0.176953 -0.967113
vt 0.757518 0.570396
v -6.617720 21.960758 -22.151976
vn 0.241684 0.121428 -0.962727
vt 0.660832 0.566718
v -7.702455 20.260475 -20.669872
vn -0.467798 -0.336760 -0.817164
vt 0.685968 0.601292
v -10.681462 19.753719 -20.669872
vn -0.152721 -0.588792 -0.793726
vt 0.754998 0.611597
v 11.000132 23.733551 -20.669870
vn 0.159049 0.581898 -0.797558
vt 0.252588 0.530669
v 13.378649 21.703167 -20.669870
vn 0.476026 -0.055823 -0.877658
vt 0.197472 0.571956
v 10.637565 21.630655 -22.151974
vn 0.155610 -0.191972 -0.968985
vt 0.260989 0.573430
v 6.463600 22.069576 -22.151976
vn -0.063142 0.194574 -0.978853
vt 0.357709 0.564505
v 5.344066 23.733551 -20.669870
vn -0.307386 0.509206 -0.803880
vt 0.388903 0.530669
v 4.250435 21.565165 -20.669870
vn -0.692883 -0.109529 -0.712683
vt 0.414245 0.574762
v 6.930229 18.558960 -22.151976
vn -0.119831 -0.043162 -0.991856
vt 0.346896 0.635892
v 5.996690 18.947647 -20.669870
vn -0.853121 -0.175258 -0.491396
vt 0.368529 0.627988
v 5.126525 15.321964 -20.669872
vn -0.564638 0.579925 -0.587257
vt 0.388692 0.701715
v 5.807805 14.613106 -22.151976
vn 0.290930 -0.306782 -0.906226
vt 0.372905 0.716130
v 0.195595 13.219068 -22.151978
vn 0.000235 0.458098 -0.888902
vt 0.502953 0.752983
v 0.195596 14.234258 -20.669872
vn 0.002569 0.825014 -0.565106
vt 0.502953 0.723744
v -4.660026 15.336622 -20.669872
vn 0.535026 0.617650 -0.576416
vt 0.615468 0.701417
v -5.130684 14.503462 -22.151976
vn -0.269750 -0.340338 -0.900780
vt 0.626374 0.718359
v -6.872269 18.444914 -22.151976
vn -0.001953 0.119045 -0.992887
vt 0.666731 0.638211
v -5.818600 18.594801 -20.669872
vn 0.753139 0.007258 -0.657822
vt 0.642315 0.634023
v -5.532989 23.661037 -20.669870
vn 0.347917 0.480020 -0.805317
vt 0.630445 0.532143
v -4.807849 21.775681 -20.669870
vn 0.634892 0.024785 -0.772203
vt 0.609703 0.570481
v -13.425532 21.703167 -20.669872
vn -0.489565 -0.022808 -0.871669
vt 0.818584 0.571956
v 10.274996 19.527758 -20.669870
vn 0.116899 -0.585526 -0.802181
vt 0.269391 0.616192
v 7.583131 20.405598 -20.669870
vn 0.466127 -0.326066 -0.822440
vt 0.331767 0.598341
v 7.863767 18.170269 -20.669870
vn 0.836195 -0.129956 -0.532812
vt 0.325264 0.643796
v 6.489082 13.904247 -20.669872
vn 0.574797 -0.603353 -0.552787
vt 0.357119 0.732825
v 0.195596 12.203876 -20.669872
vn 0.005864 -0.837177 -0.546901
vt 0.502953 0.779330
v -5.601346 13.670300 -20.669872
vn -0.533777 -0.653389 -0.536810
vt 0.637280 0.737582
v -7.925939 18.295023 -20.669872
vn -0.805594 -0.217318 -0.551173
vt 0.691146 0.641259
v -10.899003 23.806063 -20.669872
vn -0.149633 0.599343 -0.786383
vt 0.760039 0.529194
v -36.396046 21.226990 11.086617
vn -0.967113 -0.176953 0.182704
vt 0.757518 0.570396
v -36.396046 21.407854 6.914107
vn -0.962728 0.121427 -0.241684
vt 0.660832 0.566718
v -34.913940 19.707573 7.998841
vn -0.817164 -0.336761 0.467798
vt 0.685968 0.601292
v -34.913940 19.200817 10.977846
vn -0.793725 -0.588793 0.152722
vt 0.754998 0.611597
v -34.913940 23.180649 -10.703748
vn -0.797558 0.581898 -0.159049
vt 0.252588 0.530669
v -34.913940 21.150265 -13.082264
vn -0.877658 -0.055823 -0.476026
vt 0.197472 0.571956
v -36.396046 21.077751 -10.341180
vn -0.968985 -0.191972 -0.155610
vt 0.260989 0.573430
v -36.396046 21.516672 -6.167212
vn -0.978853 0.194574 0.063143
vt 0.357709 0.564505
v -34.913940 23.180649 -5.047680
vn -0.803880 0.509206 0.307386
vt 0.388903 0.530669
v -34.913940 21.012260 -3.954051
vn -0.712683 -0.109529 0.692883
vt 0.414245 0.574762
v -36.396046 18.006056 -6.633843
vn -0.991856 -0.043162 0.119831
vt 0.346896 0.635892
v -34.913940 18.394745 -5.700303
vn -0.491396 -0.175258 0.853120
vt 0.368529 0.627988
v -34.913940 14.769061 -4.830140
vn -0.587257 0.579925 0.564638
vt 0.388692 0.701715
v -36.396046 14.060203 -5.511418
vn -0.906225 -0.306782 -0.290930
vt 0.372905 0.716130
v -36.396046 12.666163 0.100791
vn -0.888902 0.458097 -0.000234
vt 0.502953 0.752983
v -34.913940 13.681355 0.100791
vn -0.565106 0.825014 -0.002569
vt 0.502953 0.723744
v -34.913940 14.783719 4.956412
vn -0.576416 0.617650 -0.535026
vt 0.615468 0.701417
v -36.396046 13.950559 5.427071
vn -0.900780 -0.340339 0.269750
vt 0.626374 0.718359
v -36.396046 17.892010 7.168653
vn -0.992887 0.119044 0.001953
vt 0.666731 0.638211
v -34.913940 18.041899 6.114984
vn -0.657821 0.007258 -0.753139
vt 0.642315 0.634023
v -34.913940 23.108135 5.829373
vn -0.805317 0.480019 -0.347916
vt 0.630445 0.532143
v -34.913940 21.222778 5.104236
vn -0.772203 0.024785 -0.634892
vt 0.609703 0.570481
v -34.913940 21.150265 13.721916
vn -0.871668 -0.022808 0.489566
vt 0.818584 0.571956
v -34.913940 18.974855 -9.978611
vn -0.802181 -0.585526 -0.116899
vt 0.269391 0.616192
v -34.913940 19.852695 -7.286747
vn -0.822440 -0.326066 -0.466126
vt 0.331767 0.598341
v -34.913940 17.617367 -7.567382
vn -0.532812 -0.129957 -0.836195
vt 0.325264 0.643796
v -34.913940 13.351343 -6.192696
vn -0.552787 -0.603353 -0.574797
vt 0.357119 0.732825
v -34.913940 11.650972 0.100791
vn -0.546901 -0.837177 -0.005863
vt 0.502953 0.779330
v -34.913940 13.117396 5.897729
vn -0.536808 -0.653390 0.533777
vt 0.637280 0.737582
v -34.913940 17.742121 8.222323
vn -0.551172 -0.217318 0.805594
vt 0.691146 0.641259
v -34.913940 23.253160 11.195387
vn -0.786382 0.599344 0.149633
vt 0.760039 0.529194
f 29/29/29 31/31/31 43/43/43
f 31/31/31 29/29/29 30/30/30
f 109/109/109 110/110/110 97/97/97
f 111/111/111 97/97/97 110/110/110
f 97/97/97 111/111/111 98/98/98
f 101/101/101 98/98/98 111/111/111
f 98/98/98 101/101/101 100/100/100
f 102/102/102 100/100/100 101/101/101
f 100/100/100 102/102/102 103/103/103
f 85/85/85 103/103/103 102/102/102
f 103/103/103 85/85/85 105/105/105
f 104/104/104 105/105/105 85/85/85
f 114/114/114 104/104/104 85/85/85
f 111/111/111 112/112/112 101/101/101
f 113/113/113 101/101/101 112/112/112
f 101/101/101 113/113/113 102/102/102
f 86/86/86 102/102/102 113/113/113
f 102/102/102 86/86/86 85/85/85
f 84/84/84 85/85/85 86/86/86
f 85/85/85 84/84/84 114/114/114
f 106/106/106 114/114/114 84/84/84
f 84/84/84 87/87/87 106/106/106
f 87/87/87 84/84/84 86/86/86
f 94/94/94 97/97/97 96/96/96
f 98/98/98 96/96/96 97/97/97
f 96/96/96 98/98/98 99/99/99
f 100/100/100 99/99/99 98/98/98
f 96/96/96 95/95/95 94/94/94
f 93/93/93 94/94/94 95/95/95
f 94/94/94 93/93/93 91/91/91
f 92/92/92 91/91/91 93/93/93
f 91/91/91 92/92/92 88/88/88
f 94/94/94 109/109/109 97/97/97
f 109/109/109 94/94/94 108/108/108
f 91/91/91 108/108/108 94/94/94
f 108/108/108 91/91/91 90/90/90
f 88/88/88 90/90/90 91/91/91
f 90/90/90 88/88/88 89/89/89
f 89/89/89 107/107/107 90/90/90
f 108/108/108 90/90/90 107/107/107
f 136/136/136 134/134/134 116/116/116
f 133/133/133 116/116/116 134/134/134
f 116/116/116 133/133/133 117/117/117
f 144/144/144 117/117/117 133/133/133
f 143/143/143 144/144/144 132/132/132
f 133/133/133 132/132/132 144/144/144
f 132/132/132 133/133/133 131/131/131
f 134/134/134 131/131/131 133/133/133
f 129/129/129 131/131/131 130/130/130
f 131/131/131 129/129/129 132/132/132
f 142/142/142 132/132/132 129/129/129
f 132/132/132 142/142/142 143/143/143
f 141/141/141 142/142/142 128/128/128
f 129/129/129 128/128/128 142/142/142
f 128/128/128 129/129/129 127/127/127
f 130/130/130 127/127/127 129/129/129
f 125/125/125 127/127/127 126/126/126
f 127/127/127 125/125/125 128/128/128
f 140/140/140 128/128/128 125/125/125
f 128/128/128 140/140/140 141/141/141
f 125/125/125 126/126/126 124/124/124
f 125/125/125 139/139/139 140/140/140
f 139/139/139 125/125/125 122/122/122
f 124/124/124 122/122/122 125/125/125
f 122/122/122 124/124/124 123/123/123
f 117/117/117 115/115/115 116/116/116
f 115/115/115 117/117/117 118/118/118
f 116/116/116 135/135/135 136/136/136
f 135/135/135 116/116/116 145/145/145
f 115/115/115 145/145/145 116/116/116
f 145/145/145 115/115/115 137/137/137
f 118/118/118 137/137/137 115/115/115
f 120/120/120 138/138/138 121/121/121
f 139/139/139 121/121/121 138/138/138
f 121/121/121 139/139/139 122/122/122
f 120/120/120 121/121/121 119/119/119
f 122/122/122 119/119/119 121/121/121
f 119/119/119 122/122/122 123/123/123
f 66/66/66 79/79/79 80/80/80
f 79/79/79 66/66/66 78/78/78
f 63/63/63 78/78/78 66/66/66
f 78/78/78 63/63/63 77/77/77
f 60/60/60 77/77/77 63/63/63
f 77/77/77 60/60/60 59/59/59
f 57/57/57 59/59/59 60/60/60
f 59/59/59 57/57/57 58/58/58
f 58/58/58 76/76/76 59/59/59
f 77/77/77 59/59/59 76/76/76
f 63/63/63 62/62/62 60/60/60
f 61/61/61 60/60/60 62/62/62
f 60/60/60 61/61/61 57/57/57
f 63/63/63 64/64/64 62/62/62
f 64/64/64 63/63/63 65/65/65
f 66/66/66 65/65/65 63/63/63
f 65/65/65 66/66/66 67/67/67
f 80/80/80 67/67/67 66/66/66
f 67/67/67 80/80/80 70/70/70
f 81/81/81 70/70/70 80/80/80
f 70/70/70 81/81/81 82/82/82
f 69/69/69 68/68/68 67/67/67
f 65/65/65 67/67/67 68/68/68
f 67/67/67 70/70/70 69/69/69
f 71/71/71 69/69/69 70/70/70
f 69/69/69 71/71/71 72/72/72
f 54/54/54 72/72/72 71/71/71
f 72/72/72 54/54/54 74/74/74
f 73/73/73 74/74/74 54/54/54
f 83/83/83 73/73/73 54/54/54
f 70/70/70 82/82/82 71/71/71
f 55/55/55 71/71/71 82/82/82
f 71/71/71 55/55/55 54/54/54
f 53/53/53 54/54/54 55/55/55
f 54/54/54 53/53/53 83/83/83
f 75/75/75 83/83/83 53/53/53
f 55/55/55 56/56/56 53/53/53
f 75/75/75 53/53/53 56/56/56
f 46/46/46 44/44/44 45/45/45
f 44/44/44 46/46/46 47/47/47
f 50/50/50 48/48/48 49/49/49
f 48/48/48 50/50/50 51/51/51
f 40/40/40 42/42/42 52/52/52
f 42/42/42 40/40/40 41/41/41
f 34/34/34 32/32/32 33/33/33
f 32/32/32 34/34/34 35/35/35
f 38/38/38 36/36/36 37/37/37
f 36/36/36 38/38/38 39/39/39
g Chest_Top93837
usemtl chest_front
v -34.988182 49.031002 13.804664
vn 0.000000 0.852199 0.523218
vt 3.000000 0.000500
v 34.729740 49.031002 13.804658
vn 0.000000 0.852199 0.523218
vt 0.000500 0.000499
v 34.729740 49.030994 -12.280708
vn 0.000000 0.852199 -0.523218
vt 0.000500 0.295077
v -34.988182 49.030994 -12.280703
vn 0.000000 0.852199 -0.523218
vt 3.000000 0.000502
v 34.729740 49.030994 -12.280708
vn 0.000000 0.852199 -0.523218
vt 0.000499 0.000499
v 34.729740 32.579861 -20.628023
vn 0.000000 0.791805 -0.610774
vt 0.000499 0.342347
v -34.988182 32.579861 -20.628017
vn 0.000000 0.791805 -0.610774
vt 3.000000 0.342427
v 34.729740 49.031002 13.804658
vn 0.000000 0.852199 0.523218
vt 0.000500 0.003766
v -34.988182 49.031002 13.804664
vn 0.000000 0.852199 0.523218
vt 3.000000 0.003763
v -34.988178 32.579868 22.151983
vn 0.000000 0.791805 0.610774
vt 3.000000 0.337542
v -34.988182 49.030994 -12.280703
vn 0.000000 0.852199 -0.523218
vt 3.000000 0.295078
v 34.729744 32.579868 22.151978
vn 0.000000 0.791805 0.610774
vt 0.000500 0.337546
f 148/148/148 146/146/146 147/147/147
f 146/146/146 148/148/148 156/156/156
f 151/151/151 149/149/149 150/150/150
f 149/149/149 151/151/151 152/152/152
f 155/155/155 153/153/153 154/154/154
f 153/153/153 155/155/155 157/157/157
usemtl chest_side_01
v -34.988182 32.579861 -20.628017
vn -1.000000 0.000000 0.000000
vt 0.966136 0.335249
v -34.988178 32.579868 22.151983
vn -1.000000 0.000000 0.000000
vt 0.042206 0.335250
v -34.988182 49.031002 13.804664
vn -1.000000 0.000000 0.000000
vt 0.237132 0.000500
v 34.729740 32.579861 -20.628023
vn 0.000000 -1.000000 0.000000
vt 0.000500 0.338664
v 34.729744 32.579868 22.151978
vn 0.000000 -1.000000 0.000000
vt 0.000500 0.999501
v -34.988178 32.579868 22.151983
vn 0.000000 -1.000000 0.000000
vt 0.999501 0.999500
v -34.988182 32.579861 -20.628017
vn 0.000000 -1.000000 0.000000
vt 0.999500 0.338664
v -34.988182 49.030994 -12.280703
vn -1.000000 0.000000 0.000000
vt 0.760087 0.000500
v 31.406744 32.453945 17.089495
vn 0.000000 -1.000000 0.000000
vt 0.055608 0.905797
v -31.122629 32.453945 17.089500
vn 0.000000 -1.000000 0.000000
vt 0.933271 0.905797
v -31.122633 32.453945 -14.109274
vn 0.000000 -1.000000 0.000000
vt 0.933271 0.775362
v 31.406740 32.453945 -14.109279
vn 0.000000 -1.000000 0.000000
vt 0.055608 0.775362
v 34.729744 32.579868 22.151978
vn 1.000000 0.000000 0.000000
vt 0.034133 0.335249
v 34.729740 32.579861 -20.628023
vn 1.000000 0.000000 0.000000
vt 0.961382 0.335249
v 34.729740 49.030994 -12.280708
vn 1.000000 0.000000 0.000000
vt 0.766455 0.000500
v 34.729740 49.031002 13.804658
vn 1.000000 0.000000 0.000000
vt 0.229060 0.000500
f 160/160/160 158/158/158 159/159/159
f 158/158/158 160/160/160 165/165/165
f 163/163/163 161/161/161 162/162/162
f 161/161/161 163/163/163 164/164/164
f 168/168/168 166/166/166 167/167/167
f 166/166/166 168/168/168 169/169/169
f 172/172/172 170/170/170 171/171/171
f 170/170/170 172/172/172 173/173/173
