mtllib INST_WH2_SINK_PLAT.mtl
g Inst_Sink_Plat
usemtl Rotten_Platform
v 0.963102 11.600391 -96.565697
vn 0.034882 0.998881 0.031932
vt 0.888910 0.741039
v -0.370374 8.570783 -0.337138
vn 0.034882 0.998881 0.031932
vt 0.000000 0.741039
v 38.750797 7.204642 -0.337158
vn 0.034882 0.998881 0.031932
vt 0.000000 0.486401
v 40.907722 10.205508 -99.948883
vn 0.037496 0.998819 0.030902
vt 0.888910 0.486401
v 0.963108 11.600245 86.708046
vn 0.034878 0.998768 -0.035295
vt 0.898799 0.741039
v 40.907768 10.205335 80.393707
vn 0.028890 0.998864 -0.037899
vt 0.898799 0.486401
v -0.299142 -24.545807 -96.565880
vn -0.084292 0.002949 -0.996437
vt 1.000000 0.741039
v 0.963102 11.600391 -96.565697
vn -0.084292 0.002949 -0.996437
vt 0.888910 0.741039
v 40.907722 10.205508 -99.948883
vn -0.084292 0.002949 -0.996437
vt 0.888910 0.486401
v 39.645454 -25.940691 -99.948975
vn -0.084290 0.002946 -0.996437
vt 1.000000 0.486401
v 39.645504 -25.940863 80.393616
vn 0.155951 -0.005448 0.987750
vt 1.000000 0.486401
v 40.907768 10.205335 80.393707
vn 0.155951 -0.005448 0.987750
vt 0.898799 0.486401
v 0.963108 11.600245 86.708046
vn 0.155951 -0.005448 0.987750
vt 0.898799 0.741039
v -0.299136 -24.545956 86.708031
vn 0.155952 -0.005446 0.987750
vt 1.000000 0.741039
v 0.963102 11.600391 -96.565697
vn -0.999310 0.034896 -0.012749
vt 0.937219 0.487126
v -0.299142 -24.545807 -96.565880
vn -0.999310 0.034896 -0.012749
vt 0.937219 0.336836
v -1.525334 -24.503061 -0.337271
vn -0.999310 0.034896 -0.012749
vt 0.000000 0.336836
v -0.370374 8.570783 -0.337138
vn -0.999310 0.034897 -0.012749
vt 0.000000 0.487126
v -0.299136 -24.545956 86.708031
vn -0.999292 0.034896 0.014094
vt 0.947109 0.336836
v 0.963108 11.600245 86.708046
vn -0.999292 0.034896 0.014094
vt 0.947108 0.487126
v 40.907722 10.205508 -99.948883
vn 0.999179 -0.034892 0.020584
vt 0.937219 0.487126
v 38.750797 7.204642 -0.337158
vn 0.999179 -0.034892 0.020584
vt 0.000000 0.487126
v 37.595829 -25.869202 -0.337295
vn 0.999179 -0.034892 0.020584
vt 0.000000 0.336836
v 39.645454 -25.940691 -99.948975
vn 0.999179 -0.034893 0.020584
vt 0.937219 0.336836
v 40.907768 10.205335 80.393707
vn 0.999068 -0.034888 -0.025396
vt 0.947108 0.487126
v 39.645504 -25.940863 80.393616
vn 0.999068 -0.034888 -0.025396
vt 0.947109 0.336836
v 79.642677 4.931118 86.702057
vn 0.034889 0.999094 -0.024355
vt 0.888910 0.741039
v 77.498665 2.832529 -2.458924
vn 0.034891 0.999134 0.022674
vt 0.000000 0.741039
v 43.029663 4.036212 -2.458885
vn 0.034891 0.999134 0.022674
vt 0.000000 0.486401
v 41.037422 6.279257 86.702217
vn 0.034889 0.999094 -0.024355
vt 0.888910 0.486401
v 79.779343 8.847927 -89.698853
vn 0.034815 0.996964 0.069653
vt 0.898799 0.741039
v 41.174046 10.196041 -94.836807
vn 0.026050 0.997480 0.065989
vt 0.898799 0.486401
v 78.517197 -27.298141 86.702240
vn 0.562723 -0.019649 0.826412
vt 1.000000 0.741039
v 79.642677 4.931118 86.702057
vn 0.902054 -0.031498 0.430473
vt 0.888910 0.741039
v 41.037422 6.279257 86.702217
vn -0.714826 0.024965 0.698856
vt 0.888910 0.486401
v 39.911968 -25.950005 86.702278
vn -0.714827 0.024963 0.698856
vt 1.000000 0.486401
v 39.911800 -25.950157 -94.836731
vn -0.351329 0.012267 -0.936172
vt 1.000000 0.486401
v 41.174046 10.196041 -94.836807
vn -0.891454 0.031129 -0.452041
vt 0.898799 0.486401
v 79.779343 8.847927 -89.698853
vn 0.759575 -0.026526 -0.649879
vt 0.898799 0.741039
v 78.517075 -27.298271 -89.698837
vn 0.759575 -0.026526 -0.649879
vt 1.000000 0.741039
v 79.642677 4.931118 86.702057
vn 0.902054 -0.031498 0.430473
vt 0.937219 0.487126
v 78.517197 -27.298141 86.702240
vn 0.562723 -0.019649 0.826412
vt 0.937219 0.336836
v 76.448990 -27.225983 -2.458790
vn 0.999391 -0.034900 0.000255
vt 0.000000 0.336836
v 77.498665 2.832529 -2.458924
vn 0.999391 -0.034900 0.000255
vt 0.000000 0.487126
v 78.517075 -27.298271 -89.698837
vn 0.759575 -0.026526 -0.649879
vt 0.947109 0.336836
v 79.779343 8.847927 -89.698853
vn 0.759575 -0.026526 -0.649879
vt 0.947108 0.487126
v 41.037422 6.279257 86.702217
vn -0.714826 0.024965 0.698856
vt 0.937219 0.487126
v 43.029663 4.036212 -2.458885
vn -0.999391 0.034899 -0.000403
vt 0.000000 0.487126
v 41.980000 -26.022299 -2.458751
vn -0.999391 0.034899 -0.000403
vt 0.000000 0.336836
v 39.911968 -25.950005 86.702278
vn -0.714827 0.024963 0.698856
vt 0.937219 0.336836
v 41.174046 10.196041 -94.836807
vn -0.891454 0.031129 -0.452041
vt 0.947108 0.487126
v 39.911800 -25.950157 -94.836731
vn -0.351329 0.012267 -0.936172
vt 0.947109 0.336836
v -41.314320 9.614871 -83.805626
vn 0.034899 0.999381 0.004491
vt 0.888910 1.000000
v -39.254070 9.146811 4.336703
vn 0.034899 0.999381 0.004491
vt 0.000000 1.000000
v -1.945460 7.843966 4.336689
vn 0.034899 0.999381 0.004491
vt 0.000000 0.745362
v 0.142363 8.167184 -79.586853
vn 0.034421 0.999396 0.004705
vt 0.888910 0.745362
v -41.351238 8.557202 99.948952
vn 0.034899 0.999367 0.006928
vt 0.898799 1.000000
v 0.105479 7.109489 96.953918
vn 0.035414 0.999347 0.007141
vt 0.898799 0.745362
v -42.455822 -23.073668 -83.805824
vn 0.101118 -0.003525 -0.994868
vt 1.000000 1.000000
v -41.314320 9.614871 -83.805626
vn 0.101118 -0.003525 -0.994868
vt 0.888910 1.000000
v 0.142363 8.167184 -79.586853
vn 0.101118 -0.003525 -0.994868
vt 0.888910 0.745362
v -0.999169 -24.521351 -79.586945
vn 0.101120 -0.003528 -0.994868
vt 1.000000 0.745362
v -0.999113 -24.521530 96.953819
vn 0.071969 -0.002516 0.997404
vt 1.000000 0.745362
v 0.105479 7.109489 96.953918
vn 0.071969 -0.002516 0.997404
vt 0.898799 0.745362
v -41.351238 8.557202 99.948952
vn 0.071969 -0.002516 0.997404
vt 0.898799 1.000000
v -42.455811 -23.073818 99.948914
vn 0.071971 -0.002514 0.997404
vt 1.000000 1.000000
v -41.314320 9.614871 -83.805626
vn -0.999114 0.034889 0.023539
vt 0.937219 0.746087
v -42.455822 -23.073668 -83.805824
vn -0.999114 0.034889 0.023539
vt 0.937219 0.595797
v -40.381760 -23.146166 4.336566
vn -0.999114 0.034889 0.023539
vt 0.000000 0.595797
v -39.254070 9.146811 4.336703
vn -0.999114 0.034889 0.023539
vt 0.000000 0.746087
v -42.455811 -23.073818 99.948914
vn -0.999156 0.034891 -0.021700
vt 0.947109 0.595797
v -41.351238 8.557202 99.948952
vn -0.999156 0.034891 -0.021700
vt 0.947108 0.746087
v 0.142363 8.167184 -79.586853
vn 0.999085 -0.034889 0.024721
vt 0.937219 0.746087
v -1.945460 7.843966 4.336689
vn 0.999085 -0.034889 0.024721
vt 0.000000 0.746087
v -3.073166 -24.449015 4.336548
vn 0.999085 -0.034889 0.024721
vt 0.000000 0.595797
v -0.999169 -24.521351 -79.586945
vn 0.999085 -0.034890 0.024720
vt 0.937219 0.595797
v 0.105479 7.109489 96.953918
vn 0.999140 -0.034891 -0.022402
vt 0.947108 0.746087
v -0.999113 -24.521530 96.953819
vn 0.999140 -0.034891 -0.022402
vt 0.947109 0.595797
v -41.217155 13.073331 81.464523
vn 0.034876 0.998721 -0.036607
vt 0.888910 1.000000
v -43.318787 10.070573 -2.458892
vn 0.034876 0.998721 -0.036607
vt 0.000000 1.000000
v -76.556763 11.231269 -2.458872
vn 0.034876 0.998721 -0.036607
vt 0.000000 0.745362
v -78.443672 14.373321 81.464661
vn 0.034876 0.998721 -0.036607
vt 0.888910 0.745362
v -41.217258 13.073242 -87.316055
vn 0.034877 0.998736 0.036204
vt 0.898799 1.000000
v -78.443802 14.373208 -87.316116
vn 0.034836 0.999220 0.018577
vt 0.898799 0.745362
v -42.479424 -23.072870 81.464691
vn 0.000004 0.000005 1.000000
vt 1.000000 1.000000
v -41.217155 13.073331 81.464523
vn 0.000004 0.000005 1.000000
vt 0.888910 1.000000
v -78.443672 14.373321 81.464661
vn 0.000004 0.000005 1.000000
vt 0.888910 0.745362
v -79.705910 -21.772875 81.464729
vn 0.000001 0.000002 1.000000
vt 1.000000 0.745362
v -79.706055 -21.772987 -87.316010
vn -0.022542 0.000786 -0.999746
vt 1.000000 0.745362
v -78.443802 14.373208 -87.316116
vn -0.022542 0.000786 -0.999746
vt 0.898799 0.745362
v -41.217258 13.073242 -87.316055
vn 0.000001 -0.000003 -1.000000
vt 0.898799 1.000000
v -42.479527 -23.072960 -87.316048
vn -0.000001 0.000000 -1.000000
vt 1.000000 1.000000
v -41.217155 13.073331 81.464523
vn 0.999108 -0.034890 -0.023771
vt 0.937219 0.746087
v -42.479424 -23.072870 81.464691
vn 0.999108 -0.034890 -0.023771
vt 0.937219 0.595797
v -44.473759 -23.003267 -2.458770
vn 0.999108 -0.034890 -0.023771
vt 0.000000 0.595797
v -43.318787 10.070573 -2.458892
vn 0.999108 -0.034890 -0.023772
vt 0.000000 0.746087
v -42.479527 -23.072960 -87.316048
vn 0.999115 -0.034890 0.023509
vt 0.947109 0.595797
v -41.217258 13.073242 -87.316055
vn 0.999115 -0.034890 0.023509
vt 0.947108 0.746087
v -78.443672 14.373321 81.464661
vn -0.999108 0.034890 -0.023770
vt 0.937219 0.746087
v -76.556763 11.231269 -2.458872
vn -0.999108 0.034890 -0.023770
vt 0.000000 0.746087
v -77.711731 -21.842573 -2.458741
vn -0.999108 0.034890 -0.023770
vt 0.000000 0.595797
v -79.705910 -21.772875 81.464729
vn -0.999108 0.034889 -0.023770
vt 0.937219 0.595797
v -78.443802 14.373208 -87.316116
vn -0.999322 0.034897 0.011756
vt 0.947108 0.746087
v -79.706055 -21.772987 -87.316010
vn -0.999322 0.034897 0.011756
vt 0.947109 0.595797
f 9/9/9 7/7/7 8/8/8
f 7/7/7 9/9/9 10/10/10
f 1/1/1 3/3/3 4/4/4
f 3/3/3 1/1/1 2/2/2
f 5/5/5 3/3/3 2/2/2
f 3/3/3 5/5/5 6/6/6
f 19/19/19 20/20/20 17/17/17
f 18/18/18 17/17/17 20/20/20
f 17/17/17 18/18/18 15/15/15
f 15/15/15 16/16/16 17/17/17
f 21/21/21 22/22/22 23/23/23
f 25/25/25 23/23/23 22/22/22
f 23/23/23 25/25/25 26/26/26
f 23/23/23 24/24/24 21/21/21
f 27/27/27 28/28/28 29/29/29
f 31/31/31 29/29/29 28/28/28
f 29/29/29 31/31/31 32/32/32
f 29/29/29 30/30/30 27/27/27
f 47/47/47 48/48/48 49/49/49
f 51/51/51 49/49/49 48/48/48
f 49/49/49 51/51/51 52/52/52
f 49/49/49 50/50/50 47/47/47
f 53/53/53 54/54/54 55/55/55
f 57/57/57 55/55/55 54/54/54
f 55/55/55 57/57/57 58/58/58
f 55/55/55 56/56/56 53/53/53
f 69/69/69 67/67/67 68/68/68
f 67/67/67 69/69/69 70/70/70
f 72/72/72 70/70/70 69/69/69
f 69/69/69 71/71/71 72/72/72
f 75/75/75 77/77/77 78/78/78
f 77/77/77 75/75/75 74/74/74
f 73/73/73 74/74/74 75/75/75
f 75/75/75 76/76/76 73/73/73
f 79/79/79 80/80/80 81/81/81
f 83/83/83 81/81/81 80/80/80
f 81/81/81 83/83/83 84/84/84
f 81/81/81 82/82/82 79/79/79
f 98/98/98 96/96/96 95/95/95
f 93/93/93 95/95/95 96/96/96
f 95/95/95 93/93/93 94/94/94
f 95/95/95 97/97/97 98/98/98
f 99/99/99 100/100/100 101/101/101
f 103/103/103 101/101/101 100/100/100
f 101/101/101 103/103/103 104/104/104
f 101/101/101 102/102/102 99/99/99
f 13/13/13 11/11/11 12/12/12
f 11/11/11 13/13/13 14/14/14
f 39/39/39 37/37/37 38/38/38
f 37/37/37 39/39/39 40/40/40
f 43/43/43 41/41/41 42/42/42
f 41/41/41 43/43/43 44/44/44
f 46/46/46 44/44/44 43/43/43
f 43/43/43 45/45/45 46/46/46
f 61/61/61 59/59/59 60/60/60
f 59/59/59 61/61/61 62/62/62
f 65/65/65 63/63/63 64/64/64
f 63/63/63 65/65/65 66/66/66
f 85/85/85 87/87/87 88/88/88
f 87/87/87 85/85/85 86/86/86
f 91/91/91 89/89/89 90/90/90
f 89/89/89 91/91/91 92/92/92
f 35/35/35 33/33/33 34/34/34
f 33/33/33 35/35/35 36/36/36
usemtl Plat_Rope
v 74.876411 3.771865 49.529781
vn 0.382120 0.327711 0.864054
vt 0.333333 0.463936
v 77.174507 -27.651226 49.529919
vn 0.583700 0.042692 0.810846
vt 0.333333 1.000000
v 86.456841 -26.775656 42.801800
vn 0.906397 0.068548 0.416827
vt 0.000000 1.000000
v 83.525597 11.358818 42.801609
vn 0.906420 0.068539 -0.416780
vt 0.000000 0.463936
v 83.525597 11.358818 42.801609
vn 0.906420 0.068539 -0.416780
vt 1.000000 0.463936
v 86.456841 -26.775656 42.801800
vn 0.906397 0.068548 0.416827
vt 1.000000 1.000000
v 77.174896 -27.651237 36.072845
vn 0.586616 0.043987 -0.808670
vt 0.666667 1.000000
v 74.876770 3.772144 36.072693
vn 0.384291 0.327492 -0.863174
vt 0.666667 0.463936
v 57.110344 7.833050 49.529781
vn 0.078774 0.578298 0.812014
vt 0.333333 0.075474
v 83.525597 11.358818 42.801609
vn 0.202302 0.884998 0.419347
vt 0.000000 0.463936
v 58.373806 17.108246 42.801617
vn 0.134972 0.990849 0.000035
vt 0.000000 0.075474
v 58.373806 17.108246 42.801617
vn 0.134972 0.990849 0.000035
vt 1.000000 0.075474
v 83.525597 11.358818 42.801609
vn 0.202302 0.884998 0.419347
vt 1.000000 0.463936
v 57.110390 7.833398 36.072704
vn 0.078782 0.578355 -0.811972
vt 0.666667 0.075474
v -0.315853 10.478802 49.529804
vn 0.026932 0.584557 0.810906
vt 0.333333 -1.006387
v 0.045833 19.795546 42.801640
vn 0.038792 0.999247 0.000035
vt 0.000000 -1.006387
v 0.045833 19.795546 42.801640
vn 0.038792 0.999247 0.000035
vt 1.000000 -1.006387
v -0.315844 10.479152 36.072716
vn 0.026934 0.584615 -0.810864
vt 0.666667 -1.006387
v -55.110722 12.208929 49.529823
vn -0.031153 0.582955 0.811907
vt 0.333333 -2.038101
v -55.610081 21.552860 42.801666
vn -0.053364 0.998575 0.000036
vt 0.000000 -2.038101
v -55.610081 21.552860 42.801666
vn -0.053364 0.998575 0.000036
vt 1.000000 -2.038101
v -55.110748 12.209280 36.072739
vn -0.031157 0.583012 -0.811866
vt 0.666667 -2.038101
v -74.582657 9.497758 49.529839
vn -0.356259 0.352721 0.865256
vt 0.333333 -2.454320
v -82.726166 17.777342 42.801670
vn -0.125198 0.899182 -0.419281
vt 0.000000 -2.454320
v -82.726166 17.777342 42.801670
vn -0.125198 0.899182 -0.419281
vt 1.000000 -2.454320
v -74.582993 9.498065 36.072750
vn -0.354286 0.352856 -0.866011
vt 0.666667 -2.454320
v -78.904060 -22.173258 49.529984
vn -0.582480 0.080497 0.808849
vt 0.333333 -3.000000
v -82.726166 17.777342 42.801670
vn -0.900277 0.124940 0.417002
vt 0.000000 -2.454320
v -88.115936 -20.734617 42.801853
vn -0.900316 0.124949 -0.416916
vt 0.000000 -3.000000
v -88.115936 -20.734617 42.801853
vn -0.900316 0.124949 -0.416916
vt 1.000000 -3.000000
v -82.726166 17.777342 42.801670
vn -0.900277 0.124940 0.417002
vt 1.000000 -2.454320
v -78.904449 -22.173243 36.072887
vn -0.579937 0.079127 -0.810810
vt 0.666667 -3.000000
v 77.174507 -27.651226 49.529919
vn 0.093912 -0.995580 0.000004
vt 0.000000 1.000000
v 77.174896 -27.651237 36.072845
vn 0.093912 -0.995580 0.000004
vt 0.000000 1.000000
v 86.456841 -26.775656 42.801800
vn 0.093912 -0.995580 0.000004
vt 0.000000 1.000000
v -78.904449 -22.173243 36.072887
vn -0.154304 -0.988023 0.000003
vt 0.000000 1.000000
v -78.904060 -22.173258 49.529984
vn -0.154304 -0.988023 0.000003
vt 0.000000 1.000000
v -88.115936 -20.734617 42.801853
vn -0.154304 -0.988023 0.000003
vt 0.000000 1.000000
v 74.876404 3.771869 -46.995392
vn 0.382120 0.327710 0.864055
vt 0.333333 0.463936
v 77.174500 -27.651222 -46.995239
vn 0.583700 0.042692 0.810846
vt 0.333333 1.000000
v 86.456833 -26.775652 -53.723366
vn 0.906397 0.068548 0.416828
vt 0.000000 1.000000
v 83.525589 11.358822 -53.723557
vn 0.906420 0.068539 -0.416780
vt 0.000000 0.463936
v 83.525589 11.358822 -53.723557
vn 0.906420 0.068539 -0.416780
vt 1.000000 0.463936
v 86.456833 -26.775652 -53.723366
vn 0.906397 0.068548 0.416828
vt 1.000000 1.000000
v 77.174889 -27.651236 -60.452324
vn 0.586617 0.043987 -0.808669
vt 0.666667 1.000000
v 74.876762 3.772147 -60.452477
vn 0.384291 0.327492 -0.863174
vt 0.666667 0.463936
v 57.110332 7.833055 -46.995384
vn 0.078774 0.578298 0.812014
vt 0.333333 0.075474
v 83.525589 11.358822 -53.723557
vn 0.202302 0.884998 0.419348
vt 0.000000 0.463936
v 58.373802 17.108250 -53.723549
vn 0.134972 0.990849 0.000035
vt 0.000000 0.075474
v 58.373802 17.108250 -53.723549
vn 0.134972 0.990849 0.000035
vt 1.000000 0.075474
v 83.525589 11.358822 -53.723557
vn 0.202302 0.884998 0.419348
vt 1.000000 0.463936
v 57.110382 7.833403 -60.452469
vn 0.078782 0.578356 -0.811972
vt 0.666667 0.075474
v -0.315861 10.478806 -46.995365
vn 0.026932 0.584557 0.810906
vt 0.333333 -1.006387
v 0.045825 19.795549 -53.723530
vn 0.038792 0.999247 0.000035
vt 0.000000 -1.006387
v 0.045825 19.795549 -53.723530
vn 0.038792 0.999247 0.000035
vt 1.000000 -1.006387
v -0.315852 10.479156 -60.452454
vn 0.026934 0.584615 -0.810864
vt 0.666667 -1.006387
v -55.110729 12.208933 -46.995342
vn -0.031153 0.582955 0.811907
vt 0.333333 -2.038101
v -55.610088 21.552864 -53.723507
vn -0.053364 0.998575 0.000035
vt 0.000000 -2.038101
v -55.610088 21.552864 -53.723507
vn -0.053364 0.998575 0.000035
vt 1.000000 -2.038101
v -55.110752 12.209284 -60.452431
vn -0.031157 0.583012 -0.811866
vt 0.666667 -2.038101
v -74.582664 9.497763 -46.995335
vn -0.356258 0.352721 0.865256
vt 0.333333 -2.454320
v -82.726173 17.777346 -53.723495
vn -0.125198 0.899182 -0.419281
vt 0.000000 -2.454320
v -82.726173 17.777346 -53.723495
vn -0.125198 0.899182 -0.419281
vt 1.000000 -2.454320
v -74.583000 9.498070 -60.452423
vn -0.354286 0.352857 -0.866010
vt 0.666667 -2.454320
v -78.904068 -22.173256 -46.995186
vn -0.582480 0.080497 0.808850
vt 0.333333 -3.000000
v -82.726173 17.777346 -53.723495
vn -0.900277 0.124940 0.417002
vt 0.000000 -2.454320
v -88.115944 -20.734613 -53.723312
vn -0.900316 0.124949 -0.416915
vt 0.000000 -3.000000
v -88.115944 -20.734613 -53.723312
vn -0.900316 0.124949 -0.416915
vt 1.000000 -3.000000
v -82.726173 17.777346 -53.723495
vn -0.900277 0.124940 0.417002
vt 1.000000 -2.454320
v -78.904457 -22.173239 -60.452274
vn -0.579936 0.079127 -0.810810
vt 0.666667 -3.000000
v 77.174500 -27.651222 -46.995239
vn 0.093912 -0.995580 0.000004
vt 0.000000 1.000000
v 77.174889 -27.651236 -60.452324
vn 0.093912 -0.995580 0.000004
vt 0.000000 1.000000
v 86.456833 -26.775652 -53.723366
vn 0.093912 -0.995580 0.000004
vt 0.000000 1.000000
v -78.904457 -22.173239 -60.452274
vn -0.154305 -0.988023 0.000003
vt 0.000000 1.000000
v -78.904068 -22.173256 -46.995186
vn -0.154305 -0.988023 0.000003
vt 0.000000 1.000000
v -88.115944 -20.734613 -53.723312
vn -0.154305 -0.988023 0.000003
vt 0.000000 1.000000
f 137/137/137 138/138/138 139/139/139
f 128/128/128 127/127/127 124/124/124
f 123/123/123 124/124/124 127/127/127
f 124/124/124 123/123/123 120/120/120
f 119/119/119 120/120/120 123/123/123
f 120/120/120 119/119/119 115/115/115
f 113/113/113 115/115/115 119/119/119
f 115/115/115 113/113/113 114/114/114
f 105/105/105 114/114/114 113/113/113
f 107/107/107 105/105/105 106/106/106
f 105/105/105 107/107/107 108/108/108
f 132/132/132 131/131/131 127/127/127
f 131/131/131 132/132/132 133/133/133
f 130/130/130 129/129/129 126/126/126
f 125/125/125 126/126/126 129/129/129
f 126/126/126 125/125/125 122/122/122
f 121/121/121 122/122/122 125/125/125
f 122/122/122 121/121/121 118/118/118
f 116/116/116 118/118/118 121/121/121
f 118/118/118 116/116/116 112/112/112
f 117/117/117 112/112/112 116/116/116
f 130/130/130 134/134/134 135/135/135
f 134/134/134 130/130/130 136/136/136
f 111/111/111 109/109/109 110/110/110
f 109/109/109 111/111/111 112/112/112
f 168/168/168 167/167/167 164/164/164
f 163/163/163 164/164/164 167/167/167
f 164/164/164 163/163/163 160/160/160
f 159/159/159 160/160/160 163/163/163
f 160/160/160 159/159/159 156/156/156
f 154/154/154 156/156/156 159/159/159
f 156/156/156 154/154/154 150/150/150
f 155/155/155 150/150/150 154/154/154
f 168/168/168 172/172/172 173/173/173
f 172/172/172 168/168/168 174/174/174
f 149/149/149 147/147/147 148/148/148
f 147/147/147 149/149/149 150/150/150
f 143/143/143 152/152/152 151/151/151
f 153/153/153 151/151/151 152/152/152
f 151/151/151 153/153/153 157/157/157
f 158/158/158 157/157/157 153/153/153
f 157/157/157 158/158/158 161/161/161
f 162/162/162 161/161/161 158/158/158
f 161/161/161 162/162/162 165/165/165
f 166/166/166 165/165/165 162/162/162
f 145/145/145 143/143/143 144/144/144
f 143/143/143 145/145/145 146/146/146
f 170/170/170 169/169/169 165/165/165
f 169/169/169 170/170/170 171/171/171
f 140/140/140 141/141/141 142/142/142
f 175/175/175 176/176/176 177/177/177
f 178/178/178 179/179/179 180/180/180
