mtllib INST_WH2_LT_BIGDOOR_O_15.mtl
g WH2_BigDoor005_
usemtl BigDoor
v -0.000183 152.305023 -4.242850
vn -1.000000 0.000000 -0.000004
vt 0.899259 0.000000
v -0.000137 51.746017 -4.242839
vn -1.000000 0.000000 -0.000004
vt 0.899259 0.333350
v -0.000167 51.753677 4.242814
vn -1.000000 0.000000 -0.000004
vt 1.000000 0.333300
v -0.000106 152.305054 4.242791
vn -1.000000 0.000001 0.000009
vt 1.000000 0.000000
v 71.861977 152.305054 4.242819
vn 0.000000 0.000000 1.000000
vt 0.500000 -1.106536
v 71.861961 51.746017 4.242811
vn 0.000000 0.000000 1.000000
vt 0.500000 -0.406554
v 143.724136 51.738373 4.242840
vn 0.000000 0.000000 1.000000
vt 0.000000 -0.406501
v 143.724091 152.305054 4.242847
vn 0.000000 0.000000 1.000000
vt 0.000000 -1.106536
v -0.000137 -50.283333 -4.242843
vn -1.000000 0.000000 -0.000004
vt 0.899259 0.666700
v -0.000167 -50.275681 4.242809
vn -1.000000 0.000000 -0.000004
vt 1.000000 0.666650
v -0.000137 -152.305038 -4.242848
vn -1.000000 0.000000 -0.000004
vt 0.899259 1.000000
v -0.000167 -152.305038 4.242805
vn -1.000000 0.000000 -0.000004
vt 1.000000 1.000000
v -0.000167 -50.275681 4.242809
vn 0.000000 0.000000 1.000000
vt 1.000000 0.293429
v 71.861961 -50.283333 4.242807
vn 0.000000 0.000000 1.000000
vt 0.500000 0.293481
v -0.000167 51.753677 4.242814
vn 0.000000 0.000000 1.000000
vt 1.000000 -0.406606
v -0.000167 -152.305038 4.242805
vn 0.000000 0.000000 1.000000
vt 1.000000 0.993464
v 71.861961 -152.305038 4.242802
vn 0.000000 0.000000 1.000000
vt 0.500000 0.993464
v -0.000106 152.305054 4.242791
vn 0.000000 0.000000 1.000000
vt 1.000000 -1.106536
v 143.724136 -152.305038 4.242831
vn 0.000000 0.000000 1.000000
vt 0.000000 0.993464
v 143.724136 -50.290977 4.242836
vn 0.000000 0.000000 1.000000
vt 0.000000 0.293534
v 143.724014 152.305023 -4.242777
vn 0.000001 1.000000 0.000004
vt 1.003673 0.980481
v 71.861954 152.305084 -4.242805
vn 0.000001 1.000000 0.000004
vt 1.003698 0.480481
v 71.861977 152.305054 4.242819
vn 0.000001 1.000000 0.000004
vt 0.915612 0.480481
v 143.724091 152.305054 4.242847
vn 0.000000 1.000000 -0.000004
vt 0.915612 0.980481
v -0.000183 152.305023 -4.242850
vn 0.000000 1.000000 -0.000004
vt 1.003723 -0.101904
v -0.000106 152.305054 4.242791
vn 0.000000 1.000000 -0.000004
vt 0.915612 -0.101904
v 143.724014 152.305023 -4.242777
vn 1.000000 0.000001 -0.000008
vt 0.899259 0.000000
v 143.724091 152.305054 4.242847
vn 1.000000 0.000001 -0.000008
vt 1.000000 0.000000
v 143.724136 51.738373 4.242840
vn 1.000000 0.000001 -0.000008
vt 1.000000 0.333300
v 143.724045 51.746017 -4.242782
vn 1.000000 0.000000 -0.000011
vt 0.899259 0.333350
v 143.724045 -50.283333 -4.242787
vn 1.000000 0.000000 -0.000011
vt 0.899259 0.666700
v 143.724136 -50.290977 4.242836
vn 1.000000 0.000000 -0.000011
vt 1.000000 0.666650
v 143.724045 -152.305038 -4.242791
vn 1.000000 0.000000 -0.000011
vt 0.899259 1.000000
v 143.724136 -152.305038 4.242831
vn 1.000000 0.000000 -0.000011
vt 1.000000 1.000000
v 71.861954 152.305084 -4.242805
vn 0.000000 0.000000 -1.000000
vt 0.500000 -1.106536
v 143.724014 152.305023 -4.242777
vn 0.000000 0.000000 -1.000000
vt 0.000000 -1.106536
v 143.724045 51.746017 -4.242782
vn 0.000000 0.000000 -1.000000
vt 0.000000 -0.406501
v 71.861900 51.746017 -4.242822
vn 0.000001 0.000000 -1.000000
vt 0.500000 -0.406554
v -0.000137 -50.283333 -4.242843
vn 0.000000 0.000000 -1.000000
vt 1.000000 0.293429
v -0.000137 51.746017 -4.242839
vn 0.000000 0.000000 -1.000000
vt 1.000000 -0.406606
v 71.861900 -50.283333 -4.242826
vn 0.000000 0.000000 -1.000000
vt 0.500000 0.293481
v -0.000137 -152.305038 -4.242848
vn 0.000000 0.000000 -1.000000
vt 1.000000 0.993464
v 71.861900 -152.305038 -4.242831
vn 0.000000 0.000000 -1.000000
vt 0.500000 0.993464
v -0.000183 152.305023 -4.242850
vn 0.000001 0.000000 -1.000000
vt 1.000000 -1.106536
v 143.724045 -152.305038 -4.242791
vn 0.000001 0.000000 -1.000000
vt 0.000000 0.993464
v 143.724045 -50.283333 -4.242787
vn 0.000001 0.000000 -1.000000
vt 0.000000 0.293534
f 3/3/3 4/4/4 1/1/1
f 1/1/1 2/2/2 3/3/3
f 9/9/9 3/3/3 2/2/2
f 3/3/3 9/9/9 10/10/10
f 11/11/11 10/10/10 9/9/9
f 10/10/10 11/11/11 12/12/12
f 18/18/18 15/15/15 6/6/6
f 13/13/13 6/6/6 15/15/15
f 6/6/6 13/13/13 14/14/14
f 16/16/16 14/14/14 13/13/13
f 14/14/14 16/16/16 17/17/17
f 6/6/6 5/5/5 18/18/18
f 8/8/8 5/5/5 7/7/7
f 6/6/6 7/7/7 5/5/5
f 7/7/7 6/6/6 20/20/20
f 14/14/14 20/20/20 6/6/6
f 20/20/20 14/14/14 19/19/19
f 17/17/17 19/19/19 14/14/14
f 37/37/37 35/35/35 36/36/36
f 35/35/35 37/37/37 38/38/38
f 46/46/46 38/38/38 37/37/37
f 38/38/38 46/46/46 41/41/41
f 45/45/45 41/41/41 46/46/46
f 41/41/41 45/45/45 43/43/43
f 44/44/44 35/35/35 38/38/38
f 38/38/38 40/40/40 44/44/44
f 40/40/40 38/38/38 39/39/39
f 41/41/41 39/39/39 38/38/38
f 39/39/39 41/41/41 42/42/42
f 43/43/43 42/42/42 41/41/41
f 34/34/34 33/33/33 32/32/32
f 31/31/31 32/32/32 33/33/33
f 32/32/32 31/31/31 29/29/29
f 30/30/30 29/29/29 31/31/31
f 29/29/29 30/30/30 27/27/27
f 27/27/27 28/28/28 29/29/29
f 21/21/21 22/22/22 23/23/23
f 25/25/25 23/23/23 22/22/22
f 23/23/23 25/25/25 26/26/26
f 23/23/23 24/24/24 21/21/21
