mtllib INST_LT_GRIF_SIGN_01.mtl
g Inst_Sign_Rod3_
usemtl signArm
v 64.396515 56.331841 -0.746532
vn 0.000000 0.000000 -1.000000
vt 0.000000 1.000000
v 15.137573 56.331841 -0.746527
vn 0.000000 0.000000 -1.000000
vt 0.500000 1.000000
v 15.137573 80.099342 -0.746527
vn 0.000000 0.000000 -1.000000
vt 0.500000 0.657005
v 64.396515 80.099342 -0.746532
vn 0.000000 0.000000 -1.000000
vt 0.000000 0.657005
v -34.121368 56.331841 -0.746523
vn 0.000000 0.000000 -1.000000
vt 1.000000 1.000000
v -34.121368 80.099342 -0.746523
vn 0.000000 0.000000 -1.000000
vt 1.000000 0.714976
v 15.137573 91.193665 -0.746527
vn 0.000000 0.000000 -1.000000
vt 0.500000 0.496291
v 64.396515 103.866844 -0.746532
vn 0.000000 0.000000 -1.000000
vt 0.000000 0.301932
v 64.396515 56.331841 1.329388
vn 0.000000 0.000000 1.000000
vt 0.000000 1.000000
v 64.396515 80.099342 1.329388
vn 0.000000 0.000000 1.000000
vt 0.000000 0.657005
v 15.137573 80.099342 1.329392
vn 0.000000 0.000000 1.000000
vt 0.500000 0.657005
v 15.137573 56.331841 1.329392
vn 0.000000 0.000000 1.000000
vt 0.500000 1.000000
v -34.121368 80.099342 1.329397
vn 0.000000 0.000000 1.000000
vt 1.000000 0.714976
v -34.121368 56.331841 1.329397
vn 0.000000 0.000000 1.000000
vt 1.000000 1.000000
v 64.396515 103.866844 1.329388
vn 0.000000 0.000000 1.000000
vt 0.000000 0.301932
v 15.137573 91.193672 1.329392
vn 0.000000 0.000000 1.000000
vt 0.500000 0.496291
v -84.132957 55.159454 1.099633
vn -1.000000 0.000000 0.000000
vt 0.997926 0.044664
v -65.408737 61.062744 -4.803651
vn -0.019633 0.833599 -0.552021
vt 0.929812 0.018617
v -65.408737 49.256168 -4.803651
vn -0.019632 -0.552021 -0.833599
vt 0.929812 0.070132
v -84.132957 55.159454 1.099633
vn -1.000000 0.000000 0.000000
vt 0.997926 0.209485
v -65.408745 61.062744 7.002924
vn -0.019633 0.552021 0.833599
vt 0.929812 0.173326
v -65.408737 61.062744 -4.803651
vn -0.019633 0.833599 -0.552021
vt 0.929812 0.224840
v -84.132957 55.159454 1.099633
vn -1.000000 0.000000 0.000000
vt 0.997926 0.121646
v -65.408745 49.256168 7.002923
vn -0.019633 -0.833599 0.552021
vt 0.929812 0.121811
v -57.356636 59.576332 -3.317232
vn 0.651850 0.509456 -0.561735
vt 0.875800 0.018782
v -57.356636 50.742588 -3.317232
vn 0.651850 -0.561735 -0.509455
vt 0.875800 0.070297
v -57.356636 59.576328 5.516509
vn 0.651849 0.561736 0.509456
vt 0.875800 0.173326
v -57.356636 59.576332 -3.317232
vn 0.651850 0.509456 -0.561735
vt 0.875800 0.224840
v -57.356636 50.742592 5.516508
vn 0.651849 -0.509456 0.561736
vt 0.875800 0.121811
v -54.577892 57.320862 -1.061759
vn 0.484881 0.673037 -0.558491
vt 0.821927 0.018782
v -54.577892 52.998058 -1.061759
vn 0.484881 -0.558492 -0.673036
vt 0.821927 0.070297
v -54.577892 57.320862 3.261043
vn 0.484880 0.558491 0.673037
vt 0.821927 0.173326
v -54.577892 57.320862 -1.061759
vn 0.484881 0.673037 -0.558491
vt 0.821927 0.224840
v -54.577892 52.998058 3.261043
vn 0.484880 -0.673036 0.558492
vt 0.821927 0.121811
v -54.577892 52.998058 -1.061759
vn 0.484881 -0.558492 -0.673036
vt 0.821927 0.070297
v -54.577892 57.320862 -1.061759
vn 0.484881 0.673037 -0.558491
vt 0.821927 0.018782
v 0.707455 57.320858 -1.061758
vn -0.016841 0.447150 -0.894300
vt 0.486315 0.018782
v 0.707454 52.998055 -1.061758
vn -0.016841 -0.894300 -0.447150
vt 0.486315 0.070297
v -54.577892 57.320862 -1.061759
vn 0.484881 0.673037 -0.558491
vt 0.821927 0.224840
v -54.577892 57.320862 3.261043
vn 0.484880 0.558491 0.673037
vt 0.821927 0.173326
v 0.707454 57.320858 3.261044
vn -0.016841 0.894300 0.447150
vt 0.486315 0.173326
v 0.707455 57.320858 -1.061758
vn -0.016841 0.447150 -0.894300
vt 0.486315 0.224840
v -54.577892 52.998058 3.261043
vn 0.484880 -0.673036 0.558492
vt 0.821927 0.121811
v 0.707453 52.998055 3.261044
vn -0.016842 -0.447150 0.894300
vt 0.486315 0.121811
v 58.827187 58.405518 -2.146413
vn -0.614529 0.705559 -0.352904
vt 0.118709 0.018782
v 58.831337 51.913330 -2.146481
vn -0.614310 -0.352965 -0.705719
vt 0.118681 0.070297
v 58.827187 58.405518 4.345706
vn -0.614507 0.352812 0.705624
vt 0.118709 0.173326
v 58.827187 58.405518 -2.146413
vn -0.614529 0.705559 -0.352904
vt 0.118709 0.224840
v 58.827187 51.913395 4.345706
vn -0.614484 -0.705732 0.352635
vt 0.118709 0.121811
v 60.647209 61.898903 -5.639770
vn -0.854054 0.410827 -0.319080
vt 0.054578 0.018376
v 60.654774 48.419914 -5.639893
vn -0.853968 -0.318984 -0.411081
vt 0.054528 0.069890
v 58.831337 51.913330 -2.146481
vn -0.614310 -0.352965 -0.705719
vt 0.118681 0.069890
v 58.827187 58.405518 -2.146413
vn -0.614529 0.705559 -0.352904
vt 0.118709 0.018376
v 64.797287 63.543060 -7.283964
vn -0.581968 0.363658 -0.727370
vt 0.002633 0.018376
v 64.797287 46.775845 -7.283964
vn -0.582203 -0.727197 -0.363627
vt 0.002633 0.069890
v 60.647209 61.898903 7.839095
vn -0.854039 0.318911 0.410990
vt 0.054578 0.173326
v 60.647209 61.898903 -5.639770
vn -0.854054 0.410827 -0.319080
vt 0.054578 0.224840
v 58.827187 58.405518 -2.146413
vn -0.614529 0.705559 -0.352904
vt 0.118709 0.224840
v 58.827187 58.405518 4.345706
vn -0.614507 0.352812 0.705624
vt 0.118709 0.173326
v 64.797287 63.543060 9.483252
vn -0.581741 0.727504 0.363752
vt 0.002633 0.173326
v 64.797287 63.543060 -7.283964
vn -0.581968 0.363658 -0.727370
vt 0.002633 0.224840
v 60.647209 48.420036 7.839094
vn -0.854098 -0.410973 0.318775
vt 0.054578 0.121811
v 58.827187 51.913395 4.345706
vn -0.614484 -0.705732 0.352635
vt 0.118709 0.121811
v 64.797287 46.775845 9.483249
vn -0.581743 -0.363750 0.727503
vt 0.002633 0.121811
f 17/17/17 18/18/18 19/19/19
f 25/25/25 19/19/19 18/18/18
f 19/19/19 25/25/25 26/26/26
f 30/30/30 26/26/26 25/25/25
f 26/26/26 30/30/30 31/31/31
f 23/23/23 19/19/19 24/24/24
f 26/26/26 24/24/24 19/19/19
f 24/24/24 26/26/26 29/29/29
f 31/31/31 29/29/29 26/26/26
f 29/29/29 31/31/31 34/34/34
f 23/23/23 24/24/24 21/21/21
f 29/29/29 21/21/21 24/24/24
f 21/21/21 29/29/29 27/27/27
f 34/34/34 27/27/27 29/29/29
f 27/27/27 34/34/34 32/32/32
f 20/20/20 21/21/21 22/22/22
f 27/27/27 22/22/22 21/21/21
f 22/22/22 27/27/27 28/28/28
f 32/32/32 28/28/28 27/27/27
f 28/28/28 32/32/32 33/33/33
f 36/36/36 37/37/37 35/35/35
f 38/38/38 35/35/35 37/37/37
f 35/35/35 38/38/38 43/43/43
f 44/44/44 43/43/43 38/38/38
f 43/43/43 44/44/44 40/40/40
f 41/41/41 40/40/40 44/44/44
f 40/40/40 41/41/41 39/39/39
f 42/42/42 39/39/39 41/41/41
f 46/46/46 37/37/37 45/45/45
f 37/37/37 46/46/46 38/38/38
f 49/49/49 38/38/38 46/46/46
f 38/38/38 49/49/49 44/44/44
f 47/47/47 44/44/44 49/49/49
f 44/44/44 47/47/47 41/41/41
f 48/48/48 41/41/41 47/47/47
f 41/41/41 48/48/48 42/42/42
f 53/53/53 50/50/50 52/52/52
f 51/51/51 52/52/52 50/50/50
f 52/52/52 51/51/51 63/63/63
f 62/62/62 63/63/63 51/51/51
f 63/63/63 62/62/62 59/59/59
f 56/56/56 59/59/59 62/62/62
f 59/59/59 56/56/56 58/58/58
f 57/57/57 58/58/58 56/56/56
f 61/61/61 57/57/57 60/60/60
f 56/56/56 60/60/60 57/57/57
f 60/60/60 56/56/56 64/64/64
f 62/62/62 64/64/64 56/56/56
f 64/64/64 62/62/62 55/55/55
f 51/51/51 55/55/55 62/62/62
f 55/55/55 51/51/51 54/54/54
f 50/50/50 54/54/54 51/51/51
f 8/8/8 4/4/4 7/7/7
f 3/3/3 7/7/7 4/4/4
f 7/7/7 3/3/3 6/6/6
f 2/2/2 6/6/6 3/3/3
f 6/6/6 2/2/2 5/5/5
f 3/3/3 1/1/1 2/2/2
f 1/1/1 3/3/3 4/4/4
f 16/16/16 10/10/10 15/15/15
f 10/10/10 16/16/16 11/11/11
f 13/13/13 11/11/11 16/16/16
f 11/11/11 13/13/13 12/12/12
f 14/14/14 12/12/12 13/13/13
f 11/11/11 9/9/9 10/10/10
f 9/9/9 11/11/11 12/12/12
g Inst_GrifSign_
usemtl Default_Standard
v 53.430527 35.431000 -2.365927
vn 0.987164 0.159708 0.000000
vt 0.070786 0.140786
v 37.920727 51.466568 -2.365925
vn -0.046529 0.998917 0.000000
vt 0.174787 0.002839
v 37.920727 51.466568 4.612484
vn 0.405450 0.914117 0.000000
vt 0.174787 0.002839
v 53.430527 35.430996 4.612483
vn 0.987164 0.159708 0.000000
vt 0.070786 0.140786
v 43.704037 15.189377 4.612484
vn 0.977897 -0.209087 0.000000
vt 0.142417 0.320934
v 43.704037 15.189377 -2.365926
vn 0.977897 -0.209087 0.000000
vt 0.142417 0.320934
v 24.776798 45.420368 -2.365924
vn -0.236968 0.971518 0.000000
vt 0.292416 0.063006
v 24.776798 45.420368 4.612485
vn -0.329367 0.944202 0.000000
vt 0.292416 0.063006
v 4.798069 42.528709 -2.365922
vn 0.017625 0.999845 0.000000
vt 0.451190 0.082385
v 4.798069 42.528706 4.612487
vn -0.063277 0.997996 0.000000
vt 0.451190 0.082385
v -11.237514 44.105976 -2.365921
vn 0.224514 0.974471 0.000000
vt 0.631089 0.066758
v -11.237514 44.105976 4.612488
vn 0.161403 0.986889 0.000000
vt 0.631089 0.066758
v -36.736698 51.729446 -2.365919
vn -0.452812 0.891606 0.000000
vt 0.797791 0.000499
v -36.736698 51.729446 4.612491
vn -0.061280 0.998121 0.000000
vt 0.797791 0.000499
v -50.669228 36.745388 -2.365918
vn -0.999924 0.012305 0.000000
vt 0.915645 0.156103
v -50.669228 36.745388 4.612492
vn -0.918531 0.395348 0.000000
vt 0.915645 0.156103
v -47.514683 27.544651 -2.365918
vn -0.955788 -0.294055 0.000000
vt 0.884554 0.218919
v -47.514683 27.544651 4.612492
vn -0.950987 -0.309231 0.000000
vt 0.884554 0.218919
v -42.782902 11.246204 -2.365918
vn -0.999752 -0.022288 0.000000
vt 0.848246 0.360795
v -42.782902 11.246204 4.612491
vn -0.988238 -0.152926 0.000000
vt 0.848246 0.360795
v -44.360172 -3.474975 -2.365918
vn -0.942919 0.333022 0.000000
vt 0.858230 0.501346
v -44.360172 -3.474980 4.612491
vn -0.975386 0.220503 0.000000
vt 0.858230 0.501346
v -50.406372 -15.830254 -2.365918
vn -0.999982 -0.006041 0.000000
vt 0.911863 0.611307
v -50.406372 -15.830254 4.612492
vn -0.973498 0.228696 0.000000
vt 0.911863 0.611307
v -45.411663 -37.123390 -2.365918
vn -0.483296 -0.875457 0.000000
vt 0.865415 0.781743
v -45.411663 -37.123390 4.612491
vn -0.819382 -0.573247 0.000000
vt 0.865415 0.781743
v -30.690498 -38.963539 -2.365919
vn -0.380660 -0.924715 0.000000
vt 0.744158 0.799709
v -30.690498 -38.963539 4.612490
vn -0.253454 -0.967348 0.000000
vt 0.744158 0.799709
v -13.340533 -48.952904 -2.365921
vn -0.620121 -0.784506 0.000000
vt 0.597786 0.891792
v -13.340533 -48.952904 4.612488
vn -0.560884 -0.827894 0.000000
vt 0.597786 0.891792
v -0.722387 -60.519547 -2.365922
vn 0.283681 -0.958919 0.000000
vt 0.498846 0.988377
v -0.722386 -60.519547 4.612487
vn -0.294632 -0.955611 0.000000
vt 0.498846 0.988377
v 11.895761 -49.215790 -2.365923
vn 0.528089 -0.849189 0.000000
vt 0.404674 0.890953
v 11.895761 -49.215790 4.612486
vn 0.600206 -0.799845 0.000000
vt 0.404674 0.890953
v 29.508617 -40.277931 -2.365925
vn 0.286010 -0.958227 0.000000
vt 0.254519 0.812996
v 29.508617 -40.277931 4.612485
vn 0.371099 -0.928593 0.000000
vt 0.254519 0.812996
v 45.018417 -37.123390 -2.365926
vn 0.768748 -0.639551 0.000000
vt 0.133038 0.780154
v 45.018417 -37.123390 4.612484
vn 0.495949 -0.868352 0.000000
vt 0.133038 0.780154
v 52.379002 -18.459038 -2.365927
vn 0.971945 0.235207 0.000000
vt 0.068437 0.625167
v 52.379002 -18.459038 4.612483
vn 0.996489 -0.083727 0.000000
vt 0.068437 0.625167
v 44.229782 -4.526489 -2.365926
vn 0.981512 0.191399 0.000000
vt 0.128495 0.507526
v 44.229782 -4.526489 4.612484
vn 0.934723 0.355378 0.000000
vt 0.128495 0.507526
v 53.430527 35.431000 -2.365927
vn 0.000000 0.000000 -1.000000
vt 0.070786 0.140786
v 43.704037 15.189377 -2.365926
vn 0.000000 0.000000 -1.000000
vt 0.142417 0.320934
v 37.920727 51.466568 -2.365925
vn 0.000000 0.000000 -1.000000
vt 0.174787 0.002839
v 37.920727 51.466568 4.612484
vn 0.000000 0.000000 1.000000
vt 0.174787 0.002839
v 43.704037 15.189377 4.612484
vn 0.000000 0.000000 1.000000
vt 0.142417 0.320934
v 53.430527 35.430996 4.612483
vn 0.000000 0.000000 1.000000
vt 0.070786 0.140786
v 44.229782 -4.526489 -2.365926
vn 0.000000 0.000000 -1.000000
vt 0.128495 0.507526
v 52.379002 -18.459038 -2.365927
vn 0.000000 0.000000 -1.000000
vt 0.068437 0.625167
v -0.065196 -4.000732 -2.365922
vn 0.000000 0.000000 -1.000000
vt 0.493362 0.504436
v -44.360172 -3.474980 4.612491
vn 0.000000 0.000000 1.000000
vt 0.858230 0.501346
v -50.406372 -15.830254 4.612492
vn 0.000000 0.000000 1.000000
vt 0.911863 0.611307
v -0.065195 -4.000732 4.612487
vn 0.000000 0.000000 1.000000
vt 0.493362 0.504436
v -44.360172 -3.474975 -2.365918
vn 0.000000 0.000000 -1.000000
vt 0.858230 0.501346
v -42.782902 11.246204 -2.365918
vn 0.000000 0.000000 -1.000000
vt 0.848246 0.360795
v -42.782902 11.246204 4.612491
vn 0.000000 0.000000 1.000000
vt 0.848246 0.360795
v 44.229782 -4.526489 4.612484
vn 0.000000 0.000000 1.000000
vt 0.128495 0.507526
v 24.776798 45.420368 -2.365924
vn 0.000000 0.000000 -1.000000
vt 0.292416 0.063006
v 24.776798 45.420368 4.612485
vn 0.000000 0.000000 1.000000
vt 0.292416 0.063006
v -47.514683 27.544651 -2.365918
vn 0.000000 0.000000 -1.000000
vt 0.884554 0.218919
v -36.736698 51.729446 -2.365919
vn 0.000000 0.000000 -1.000000
vt 0.797791 0.000499
v -36.736698 51.729446 4.612491
vn 0.000000 0.000000 1.000000
vt 0.797791 0.000499
v -47.514683 27.544651 4.612492
vn 0.000000 0.000000 1.000000
vt 0.884554 0.218919
v -50.669228 36.745388 -2.365918
vn 0.000000 0.000000 -1.000000
vt 0.915645 0.156103
v -50.669228 36.745388 4.612492
vn 0.000000 0.000000 1.000000
vt 0.915645 0.156103
v -11.237514 44.105976 -2.365921
vn 0.000000 0.000000 -1.000000
vt 0.631089 0.066758
v 4.798069 42.528709 -2.365922
vn 0.000000 0.000000 -1.000000
vt 0.451190 0.082385
v 4.798069 42.528706 4.612487
vn 0.000000 0.000000 1.000000
vt 0.451190 0.082385
v -11.237514 44.105976 4.612488
vn 0.000000 0.000000 1.000000
vt 0.631089 0.066758
v 29.508617 -40.277931 -2.365925
vn 0.000000 0.000000 -1.000000
vt 0.254519 0.812996
v -50.406372 -15.830254 -2.365918
vn 0.000000 0.000000 -1.000000
vt 0.911863 0.611307
v -30.690498 -38.963539 4.612490
vn 0.000000 0.000000 1.000000
vt 0.744158 0.799709
v 52.379002 -18.459038 4.612483
vn 0.000000 0.000000 1.000000
vt 0.068437 0.625167
v -0.722387 -60.519547 -2.365922
vn 0.000000 0.000000 -1.000000
vt 0.498846 0.988377
v -13.340533 -48.952904 -2.365921
vn 0.000000 0.000000 -1.000000
vt 0.597786 0.891792
v -0.722386 -60.519547 4.612487
vn 0.000000 0.000000 1.000000
vt 0.498846 0.988377
v 11.895761 -49.215790 4.612486
vn 0.000000 0.000000 1.000000
vt 0.404674 0.890953
v -30.690498 -38.963539 -2.365919
vn 0.000000 0.000000 -1.000000
vt 0.744158 0.799709
v 11.895761 -49.215790 -2.365923
vn 0.000000 0.000000 -1.000000
vt 0.404674 0.890953
v -13.340533 -48.952904 4.612488
vn 0.000000 0.000000 1.000000
vt 0.597786 0.891792
v 29.508617 -40.277931 4.612485
vn 0.000000 0.000000 1.000000
vt 0.254519 0.812996
v -45.411663 -37.123390 -2.365918
vn 0.000000 0.000000 -1.000000
vt 0.865415 0.781743
v -45.411663 -37.123390 4.612491
vn 0.000000 0.000000 1.000000
vt 0.865415 0.781743
v 45.018417 -37.123390 -2.365926
vn 0.000000 0.000000 -1.000000
vt 0.133038 0.780154
v 45.018417 -37.123390 4.612484
vn 0.000000 0.000000 1.000000
vt 0.133038 0.780154
f 143/143/143 147/147/147 136/136/136
f 140/140/140 143/143/143 115/115/115
f 136/136/136 115/115/115 143/143/143
f 115/115/115 136/136/136 119/119/119
f 144/144/144 139/139/139 115/115/115
f 140/140/140 115/115/115 139/139/139
f 115/115/115 135/135/135 144/144/144
f 135/135/135 115/115/115 114/114/114
f 113/113/113 114/114/114 115/115/115
f 114/114/114 149/149/149 135/135/135
f 132/132/132 123/123/123 115/115/115
f 108/108/108 115/115/115 123/123/123
f 115/115/115 108/108/108 113/113/113
f 115/115/115 131/131/131 132/132/132
f 131/131/131 115/115/115 120/120/120
f 119/119/119 120/120/120 115/115/115
f 107/107/107 108/108/108 109/109/109
f 123/123/123 109/109/109 108/108/108
f 126/126/126 125/125/125 129/129/129
f 125/125/125 126/126/126 120/120/120
f 131/131/131 120/120/120 126/126/126
f 70/70/70 69/69/69 105/105/105
f 106/106/106 105/105/105 69/69/69
f 105/105/105 106/106/106 103/103/103
f 104/104/104 103/103/103 106/106/106
f 103/103/103 104/104/104 101/101/101
f 102/102/102 101/101/101 104/104/104
f 101/101/101 102/102/102 99/99/99
f 100/100/100 99/99/99 102/102/102
f 99/99/99 100/100/100 97/97/97
f 98/98/98 97/97/97 100/100/100
f 97/97/97 98/98/98 95/95/95
f 96/96/96 95/95/95 98/98/98
f 95/95/95 96/96/96 93/93/93
f 94/94/94 93/93/93 96/96/96
f 93/93/93 94/94/94 91/91/91
f 92/92/92 91/91/91 94/94/94
f 91/91/91 92/92/92 89/89/89
f 90/90/90 89/89/89 92/92/92
f 69/69/69 65/65/65 68/68/68
f 65/65/65 69/69/69 70/70/70
f 71/71/71 72/72/72 66/66/66
f 67/67/67 66/66/66 72/72/72
f 66/66/66 67/67/67 65/65/65
f 68/68/68 65/65/65 67/67/67
f 89/89/89 90/90/90 87/87/87
f 88/88/88 87/87/87 90/90/90
f 87/87/87 88/88/88 85/85/85
f 86/86/86 85/85/85 88/88/88
f 85/85/85 86/86/86 83/83/83
f 84/84/84 83/83/83 86/86/86
f 83/83/83 84/84/84 81/81/81
f 82/82/82 81/81/81 84/84/84
f 81/81/81 82/82/82 79/79/79
f 80/80/80 79/79/79 82/82/82
f 79/79/79 80/80/80 77/77/77
f 78/78/78 77/77/77 80/80/80
f 77/77/77 78/78/78 75/75/75
f 76/76/76 75/75/75 78/78/78
f 75/75/75 76/76/76 73/73/73
f 74/74/74 73/73/73 76/76/76
f 73/73/73 74/74/74 71/71/71
f 72/72/72 71/71/71 74/74/74
f 118/118/118 137/137/137 145/145/145
f 137/137/137 118/118/118 117/117/117
f 116/116/116 117/117/117 118/118/118
f 117/117/117 148/148/148 137/137/137
f 145/145/145 141/141/141 118/118/118
f 142/142/142 118/118/118 141/141/141
f 142/142/142 146/146/146 118/118/118
f 138/138/138 118/118/118 146/146/146
f 118/118/118 138/138/138 122/122/122
f 146/146/146 150/150/150 138/138/138
f 118/118/118 124/124/124 133/133/133
f 124/124/124 118/118/118 111/111/111
f 122/122/122 111/111/111 118/118/118
f 133/133/133 134/134/134 118/118/118
f 121/121/121 118/118/118 134/134/134
f 118/118/118 121/121/121 116/116/116
f 111/111/111 110/110/110 124/124/124
f 110/110/110 111/111/111 112/112/112
f 130/130/130 128/128/128 127/127/127
f 121/121/121 127/127/127 128/128/128
f 127/127/127 121/121/121 134/134/134
