mtllib LAKETOWN_PUB_PS_PUB_DIRT_LAYER02.mtl
g ub_dirt_layer02
usemtl 11_-_Default
v -513.975220 -2725.274658 591.974915
vn 1.000000 0.000000 0.000000
vt 0.043607 0.019660
v -513.975220 -2756.052734 591.974915
vn 1.000000 0.000000 0.000000
vt 0.043607 0.967495
v -513.975281 -2756.052734 306.540497
vn 1.000000 0.000000 0.000000
vt 1.223607 0.967495
v -513.975281 -2725.274658 306.540497
vn 1.000000 0.000000 0.000000
vt 1.223607 0.019660
v -513.975342 -2756.052734 21.106155
vn 1.000000 0.000000 0.000000
vt 2.403607 0.967495
v -513.975342 -2725.274658 21.106157
vn 1.000000 0.000000 0.000000
vt 2.403607 0.019660
v -513.975403 -2756.052734 -264.328278
vn 1.000000 0.000000 0.000000
vt 3.583608 0.967495
v -513.975403 -2725.274658 -264.328278
vn 1.000000 0.000000 0.000000
vt 3.583607 0.019660
v -492.941772 -2725.274658 -262.289459
vn 0.000000 0.000000 1.000000
vt 0.043607 0.019041
v -492.941772 -2756.052734 -262.289459
vn 0.000000 0.000000 1.000000
vt 0.043607 0.968819
v -139.219162 -2756.052734 -262.289459
vn 0.000000 0.000000 1.000000
vt 1.223607 0.968819
v -139.219162 -2725.274658 -262.289459
vn 0.000000 0.000000 1.000000
vt 1.223607 0.019041
v -3.368720 -2725.274658 -262.289490
vn 0.000000 0.000000 1.000000
vt 2.403607 0.019041
v -3.368718 -2756.052734 -262.289520
vn 0.000000 0.000000 1.000000
vt 2.403607 0.968819
v 68.137253 -2756.052734 -262.289520
vn 0.000000 0.000000 1.000000
vt 2.998749 0.968819
v 68.137283 -2725.274658 -262.289520
vn 0.000000 0.000000 1.000000
vt 2.998748 0.019041
f 11/11/11 9/9/9 10/10/10
f 9/9/9 11/11/11 12/12/12
f 3/3/3 1/1/1 2/2/2
f 1/1/1 3/3/3 4/4/4
f 5/5/5 4/4/4 3/3/3
f 4/4/4 5/5/5 6/6/6
f 7/7/7 6/6/6 5/5/5
f 6/6/6 7/7/7 8/8/8
f 15/15/15 13/13/13 14/14/14
f 13/13/13 15/15/15 16/16/16
