mtllib LAKETOWN_WAREHOUSE3_ANIM_WH3_DOORS_31__AI.mtl
g H3_Doors_31__AI
usemtl barn_door
v 2319.085938 -3648.441650 -489.338348
vn 0.999904 0.000000 0.013860
vt 0.899259 0.000000
v 2319.085938 -3743.149170 -489.338379
vn 0.999904 0.000000 0.013860
vt 0.899259 0.333350
v 2319.197998 -3743.135498 -497.418304
vn 0.999904 0.000000 0.013860
vt 1.000000 0.333300
v 2319.197998 -3648.441650 -497.418304
vn 0.999904 0.000000 0.013862
vt 1.000000 0.000000
v 2250.663330 -3648.441406 -497.614044
vn 0.002885 0.000000 -0.999996
vt 0.500000 0.000000
v 2250.663330 -3743.142334 -497.614044
vn 0.002885 0.000000 -0.999996
vt 0.500000 0.333325
v 2182.818115 -3743.148926 -497.809753
vn 0.002885 0.000000 -0.999996
vt 0.000000 0.333350
v 2182.818115 -3648.441406 -497.809753
vn 0.002885 0.000000 -0.999996
vt 0.000000 0.000000
v 2182.706055 -3743.135498 -489.729919
vn -0.002886 0.000000 0.999996
vt 0.000000 0.333300
v 2250.551514 -3743.142334 -489.534149
vn -0.002886 0.000000 0.999996
vt 0.500000 0.333325
v 2250.551514 -3648.441650 -489.534119
vn -0.002886 0.000000 0.999996
vt 0.500000 0.000000
v 2182.706055 -3648.441650 -489.729889
vn -0.002886 0.000000 0.999996
vt 0.000000 0.000000
v 2319.085938 -3832.984375 -489.338409
vn 0.999904 0.000000 0.013862
vt 0.899259 0.666700
v 2319.197998 -3832.970947 -497.418335
vn 0.999904 0.000000 0.013862
vt 1.000000 0.666650
v 2319.085938 -3922.806396 -489.338409
vn 0.999904 0.000000 0.013860
vt 0.899259 1.000000
v 2319.197998 -3922.806396 -497.418365
vn 0.999904 0.000000 0.013860
vt 1.000000 1.000000
v 2319.197998 -3832.970947 -497.418335
vn 0.002856 0.000000 -0.999996
vt 1.000000 0.666650
v 2250.663330 -3832.977783 -497.614044
vn 0.002856 0.000000 -0.999996
vt 0.500000 0.666675
v 2319.197998 -3743.135498 -497.418304
vn 0.002856 0.000000 -0.999996
vt 1.000000 0.333300
v 2319.197998 -3922.806396 -497.418365
vn 0.002856 0.000000 -0.999996
vt 1.000000 1.000000
v 2250.663330 -3922.806396 -497.614075
vn 0.002856 0.000000 -0.999996
vt 0.500000 1.000000
v 2182.706055 -3832.970947 -489.729919
vn -0.002885 0.000000 0.999996
vt 0.000000 0.666650
v 2250.551270 -3832.977783 -489.534180
vn -0.002885 0.000000 0.999996
vt 0.500000 0.666675
v 2182.706055 -3922.806396 -489.729950
vn -0.002885 0.000000 0.999996
vt 0.000000 1.000000
v 2250.551270 -3922.806396 -489.534180
vn -0.002885 0.000000 0.999996
vt 0.500000 1.000000
v 2319.197998 -3648.441650 -497.418304
vn 0.002856 0.000000 -0.999996
vt 1.000000 0.000000
v 2182.817871 -3922.806396 -497.809753
vn 0.002885 0.000000 -0.999996
vt 0.000000 1.000000
v 2182.818115 -3832.984375 -497.809753
vn 0.002885 0.000000 -0.999996
vt 0.000000 0.666700
v 2319.085938 -3743.149170 -489.338379
vn -0.002857 0.000000 0.999996
vt 1.000000 0.333350
v 2319.085938 -3648.441650 -489.338348
vn -0.002857 0.000000 0.999996
vt 1.000000 0.000000
v 2319.085938 -3922.806396 -489.338409
vn -0.002857 0.000000 0.999996
vt 1.000000 1.000000
v 2319.085938 -3832.984375 -489.338409
vn -0.002857 0.000000 0.999996
vt 1.000000 0.666700
v 2250.551514 -3648.441650 -489.534119
vn 0.000000 1.000000 0.000000
vt 0.499997 0.000016
v 2319.085938 -3648.441650 -489.338348
vn 0.000000 1.000000 0.000000
vt 0.999996 0.000029
v 2319.197998 -3648.441650 -497.418304
vn 0.000000 1.000000 0.000000
vt 0.999996 0.039892
v 2250.663330 -3648.441406 -497.614044
vn 0.000000 1.000000 0.000000
vt 0.499996 0.039872
v 2182.706055 -3648.441650 -489.729889
vn 0.000000 1.000000 0.000000
vt -0.000003 0.000003
v 2182.818115 -3648.441406 -497.809753
vn 0.000000 1.000000 0.000000
vt -0.000004 0.039852
v 2182.706055 -3648.441650 -489.729980
vn -0.999904 0.000000 -0.013848
vt 0.899259 0.000000
v 2182.818115 -3648.441650 -497.809662
vn -0.999904 0.000000 -0.013848
vt 1.000000 0.000000
v 2182.818115 -3743.148926 -497.809662
vn -0.999904 0.000000 -0.013848
vt 1.000000 0.333300
v 2182.706055 -3743.135742 -489.729980
vn -0.999904 0.000000 -0.013847
vt 0.899259 0.333350
v 2182.706055 -3832.970947 -489.730011
vn -0.999904 0.000000 -0.013847
vt 0.899259 0.666700
v 2182.818115 -3832.984375 -497.809692
vn -0.999904 0.000000 -0.013847
vt 1.000000 0.666650
v 2182.706055 -3922.806396 -489.730011
vn -0.999904 0.000000 -0.013847
vt 0.899259 1.000000
v 2182.817627 -3922.806641 -497.810150
vn -0.999905 0.000003 -0.013811
vt 1.000000 1.000000
f 3/3/3 4/4/4 1/1/1
f 14/14/14 15/15/15 16/16/16
f 15/15/15 14/14/14 13/13/13
f 3/3/3 13/13/13 14/14/14
f 13/13/13 3/3/3 2/2/2
f 1/1/1 2/2/2 3/3/3
f 9/9/9 11/11/11 12/12/12
f 11/11/11 9/9/9 10/10/10
f 22/22/22 10/10/10 9/9/9
f 10/10/10 22/22/22 23/23/23
f 24/24/24 23/23/23 22/22/22
f 23/23/23 24/24/24 25/25/25
f 30/30/30 11/11/11 29/29/29
f 10/10/10 29/29/29 11/11/11
f 29/29/29 10/10/10 32/32/32
f 23/23/23 32/32/32 10/10/10
f 32/32/32 23/23/23 31/31/31
f 25/25/25 31/31/31 23/23/23
f 26/26/26 19/19/19 6/6/6
f 17/17/17 6/6/6 19/19/19
f 6/6/6 17/17/17 18/18/18
f 20/20/20 18/18/18 17/17/17
f 18/18/18 20/20/20 21/21/21
f 6/6/6 5/5/5 26/26/26
f 8/8/8 5/5/5 7/7/7
f 6/6/6 7/7/7 5/5/5
f 7/7/7 6/6/6 28/28/28
f 18/18/18 28/28/28 6/6/6
f 28/28/28 18/18/18 27/27/27
f 21/21/21 27/27/27 18/18/18
f 46/46/46 45/45/45 44/44/44
f 43/43/43 44/44/44 45/45/45
f 44/44/44 43/43/43 41/41/41
f 42/42/42 41/41/41 43/43/43
f 41/41/41 42/42/42 39/39/39
f 39/39/39 40/40/40 41/41/41
f 34/34/34 35/35/35 33/33/33
f 36/36/36 33/33/33 35/35/35
f 33/33/33 36/36/36 37/37/37
f 38/38/38 37/37/37 36/36/36
