mtllib LAKETOWN_WAREHOUSE2_PS_WH2_HALL_484847__GX.mtl
g Hall_484847__GX
usemtl Material_#0
v -3580.377686 -3480.446045 764.643677
vn -0.000980 1.000000 0.000001
vt 1.500000 0.987507
v -3580.377686 -3480.442627 919.917664
vn -0.000871 1.000000 -0.000011
vt 1.500000 0.490890
v -3547.863037 -3480.414063 919.930664
vn -0.000926 1.000000 0.000000
vt 1.000000 0.490816
v -3547.863037 -3480.410645 764.643616
vn -0.001089 0.999999 0.000023
vt 1.000000 0.987507
v -3580.377930 -3480.442627 1069.745972
vn -0.000871 1.000000 0.000000
vt 1.500000 -0.005801
v -3547.863037 -3480.414307 1069.759155
vn -0.000871 1.000000 0.000000
vt 1.000000 -0.005876
v -3753.017090 -3170.558838 764.591248
vn 0.000956 -0.999999 -0.001323
vt 0.991135 0.499756
v -3558.670410 -3170.367188 764.591187
vn 0.000986 -0.999999 -0.001322
vt 0.991135 1.006334
v -3558.670410 -3170.390137 781.930054
vn 0.000986 -0.999999 -0.001323
vt 1.497947 1.006335
v -3753.017090 -3170.581787 781.930054
vn 0.000000 0.000001 1.000000
vt 0.510024 0.499756
v -3558.670410 -3170.390137 781.930054
vn 0.000000 0.000001 1.000000
vt 0.510024 1.006334
v -3558.670410 -3156.569336 781.929993
vn 0.000000 0.000001 1.000000
vt 0.991135 1.006334
v -3753.017090 -3170.581787 781.930054
vn 0.000957 -0.999999 -0.001324
vt 1.497947 0.499756
v -3752.869873 -3171.114746 1047.468018
vn 0.000957 -0.999999 -0.001323
vt 0.506811 0.499756
v -3752.869873 -3171.137695 1064.806885
vn 0.000957 -0.999999 -0.001322
vt -0.000000 0.499755
v -3959.183838 -3171.329346 1064.806885
vn 0.000929 -0.999999 -0.001323
vt -0.000000 1.006334
v -3959.183838 -3171.306396 1047.468140
vn 0.000929 -0.999999 -0.001324
vt 0.506811 1.006334
v -3752.869873 -3156.582520 1047.468018
vn 0.000000 0.000000 -1.000000
vt 0.987923 0.499756
v -3752.869873 -3171.114746 1047.468018
vn 0.000000 0.000000 -1.000000
vt 0.506811 0.499756
v -3959.183838 -3171.306396 1047.468140
vn 0.000000 0.000000 -1.000000
vt 0.506811 1.006334
v -3959.183838 -3156.585205 1047.468140
vn 0.000000 0.000000 -1.000000
vt 0.987923 1.006334
v -3558.400391 -3170.923096 1047.468018
vn 0.000985 -0.999999 -0.001324
vt 0.506812 -0.006823
v -3558.400391 -3170.946045 1064.806885
vn 0.000985 -0.999999 -0.001323
vt -0.000000 -0.006823
v -3959.693848 -3156.574463 781.930054
vn 0.000000 0.000000 1.000000
vt 0.991135 -0.006823
v -3959.693848 -3170.773193 781.930054
vn 0.000000 0.000001 1.000000
vt 0.510024 -0.006823
v -3959.693848 -3170.773193 781.930054
vn 0.000927 -0.999999 -0.001324
vt 1.497947 -0.006823
v -3959.693848 -3170.750244 764.591248
vn 0.000927 -0.999999 -0.001324
vt 0.991135 -0.006823
v -3753.017090 -3156.571777 781.930054
vn 0.000000 0.000000 1.000000
vt 0.991135 0.499756
v -3558.400391 -3170.923096 1047.468018
vn 0.000000 0.000000 -1.000000
vt 0.506812 -0.006823
v -3558.400391 -3156.580078 1047.468018
vn 0.000000 0.000000 -1.000000
vt 0.987923 -0.006823
f 16/16/16 17/17/17 14/14/14
f 22/22/22 23/23/23 14/14/14
f 15/15/15 14/14/14 23/23/23
f 14/14/14 15/15/15 16/16/16
f 1/1/1 3/3/3 4/4/4
f 3/3/3 1/1/1 2/2/2
f 3/3/3 5/5/5 6/6/6
f 5/5/5 3/3/3 2/2/2
f 9/9/9 7/7/7 8/8/8
f 7/7/7 9/9/9 13/13/13
f 26/26/26 7/7/7 13/13/13
f 7/7/7 26/26/26 27/27/27
f 12/12/12 10/10/10 11/11/11
f 10/10/10 12/12/12 28/28/28
f 10/10/10 24/24/24 25/25/25
f 24/24/24 10/10/10 28/28/28
f 18/18/18 20/20/20 21/21/21
f 20/20/20 18/18/18 19/19/19
f 29/29/29 19/19/19 18/18/18
f 18/18/18 30/30/30 29/29/29
usemtl Wood_Halls
v -3753.304443 -3388.323730 764.966248
vn 0.000000 0.000000 1.000000
vt 0.605119 0.245000
v -3753.112793 -3481.366211 764.966248
vn 0.000000 0.000000 1.000000
vt 0.975767 0.245000
v -3554.434570 -3481.366211 764.966125
vn 0.000001 0.000000 1.000000
vt 0.975767 1.000000
v -3962.001465 -3388.471191 1064.966187
vn 0.000001 0.000000 -1.000000
vt -1.224171 -0.510000
v -3753.304443 -3388.470947 1064.966431
vn 0.000000 0.000000 -1.000000
vt -1.224171 0.245000
v -3753.112793 -3481.366211 1064.966431
vn 0.000000 0.000000 -1.000000
vt -1.594233 0.245000
v -3961.809814 -3157.148682 1064.966309
vn 0.000001 0.000000 -1.000000
vt -0.785037 -0.510000
v -3753.112549 -3157.148438 1064.966553
vn 0.000000 0.000000 -1.000000
vt -0.785037 0.245000
v -3961.809814 -3481.366455 1064.966187
vn 0.000001 0.000000 -1.000000
vt -1.594233 -0.510000
v -3962.001953 -3388.323975 764.966064
vn -0.000001 0.000000 1.000000
vt 0.605119 -0.510000
v -3753.519043 -3156.853760 764.966248
vn 0.000000 0.000000 1.000000
vt 0.165398 0.245000
v -3961.810303 -3481.366455 764.966064
vn -0.000001 0.000000 1.000000
vt 0.975767 -0.510000
v -3554.625977 -3388.323730 764.966125
vn 0.000001 0.000000 1.000000
vt 0.605119 1.000000
v -3554.840576 -3156.853760 764.966125
vn 0.000001 0.000000 1.000000
vt 0.165398 1.000000
v -3554.434570 -3157.148438 1064.966187
vn -0.000002 0.000000 -1.000000
vt -0.785037 1.000000
v -3554.626221 -3388.470947 1064.966064
vn -0.000002 0.000000 -1.000000
vt -1.224171 1.000000
v -3962.216553 -3156.854004 764.966064
vn -0.000001 0.000000 1.000000
vt 0.165398 -0.510000
v -3554.434570 -3481.366211 1064.966064
vn -0.000002 0.000000 -1.000000
vt -1.594233 1.000000
f 34/34/34 36/36/36 39/39/39
f 36/36/36 34/34/34 35/35/35
f 37/37/37 35/35/35 34/34/34
f 35/35/35 37/37/37 38/38/38
f 38/38/38 45/45/45 35/35/35
f 46/46/46 35/35/35 45/45/45
f 35/35/35 46/46/46 36/36/36
f 48/48/48 36/36/36 46/46/46
f 44/44/44 41/41/41 43/43/43
f 31/31/31 43/43/43 41/41/41
f 43/43/43 31/31/31 33/33/33
f 32/32/32 33/33/33 31/31/31
f 31/31/31 42/42/42 32/32/32
f 42/42/42 31/31/31 40/40/40
f 41/41/41 40/40/40 31/31/31
f 40/40/40 41/41/41 47/47/47
usemtl floor_wood
v -3753.112549 -3481.366211 914.966492
vn -0.000001 1.000000 0.000000
vt 0.510516 -1.329951
v -3554.434326 -3481.366211 914.966248
vn 0.000000 1.000000 0.000000
vt 0.510516 -1.767792
v -3554.434814 -3481.366211 764.966248
vn 0.000000 1.000000 0.000000
vt -0.205385 -1.767886
v -3753.112793 -3481.366211 764.966248
vn -0.000001 1.000000 0.000000
vt -0.205386 -1.330046
v -3961.810059 -3481.366455 914.966248
vn -0.000014 1.000000 0.000000
vt 0.510516 -0.889513
v -3961.809814 -3481.366455 1064.966309
vn -0.000014 1.000000 0.000000
vt 1.186838 -0.889513
v -3961.810303 -3481.366455 764.966003
vn -0.000014 1.000000 0.000000
vt -0.205386 -0.889607
v -3753.112549 -3481.366211 1064.966553
vn -0.000001 1.000000 0.000000
vt 1.186839 -1.329951
v -3554.434326 -3481.366211 1064.966187
vn 0.000000 1.000000 0.000000
vt 1.186838 -1.767792
f 53/53/53 52/52/52 55/55/55
f 52/52/52 53/53/53 49/49/49
f 54/54/54 49/49/49 53/53/53
f 49/49/49 54/54/54 56/56/56
f 51/51/51 52/52/52 49/49/49
f 56/56/56 57/57/57 49/49/49
f 50/50/50 49/49/49 57/57/57
f 49/49/49 50/50/50 51/51/51
usemtl wood_boards
v -3554.840576 -3156.854004 764.966248
vn 0.000000 -0.999998 -0.001929
vt 0.442446 -0.759424
v -3554.651611 -3157.148438 917.624146
vn 0.000001 -1.000000 -0.000001
vt 0.442446 -0.005287
v -3753.330078 -3157.148438 917.624329
vn 0.000000 -1.000000 -0.000002
vt -0.312554 -0.005287
v -3962.027832 -3157.148438 917.624023
vn -0.000001 -1.000000 -0.000002
vt -1.067554 -0.005287
v -3753.112549 -3157.148682 1064.966675
vn 0.000000 -1.000000 -0.000001
vt -0.312554 0.723254
v -3962.216553 -3156.854004 764.966125
vn -0.000001 -0.999998 -0.001929
vt -1.067554 -0.759424
v -3961.809814 -3157.148682 1064.966309
vn -0.000001 -1.000000 -0.000002
vt -1.067554 0.723254
v -3753.519043 -3156.854004 764.966370
vn 0.000000 -0.999998 -0.001929
vt -0.312554 -0.759424
v -3554.434570 -3157.148438 1064.966187
vn 0.000002 -1.000000 0.000000
vt 0.442446 0.723254
f 61/61/61 62/62/62 64/64/64
f 62/62/62 61/61/61 60/60/60
f 63/63/63 60/60/60 61/61/61
f 60/60/60 63/63/63 65/65/65
f 66/66/66 62/62/62 59/59/59
f 60/60/60 59/59/59 62/62/62
f 59/59/59 60/60/60 58/58/58
f 65/65/65 58/58/58 60/60/60
