mtllib LAKETOWN_WAREHOUSE2_PS_WH2_ROPETRACK__GX.mtl
g 2_RopeTrack__GX
usemtl large_beams
v -9885.535156 -2703.673096 -4084.495605
vn 0.001001 -1.000000 0.000000
vt 1.635788 -1.328326
v -9885.535156 -2703.672607 -4640.110352
vn 0.001001 -1.000000 0.000000
vt 0.914062 -1.328326
v -9835.387695 -2703.622559 -4640.110352
vn 0.001001 -1.000000 0.000000
vt 0.914062 -2.246535
v -9835.387695 -2703.622559 -4084.495605
vn 0.001005 -1.000000 0.000000
vt 1.635788 -2.246535
v -9835.387695 -2703.619385 -3388.938965
vn 0.001005 -1.000000 0.000005
vt 2.635642 -2.246535
v -9885.535156 -2703.676270 -3388.938965
vn 0.001131 -0.999999 -0.000005
vt 2.635642 -1.328326
v -9835.387695 -2653.503418 -4084.535156
vn 1.000000 -0.000004 0.000000
vt 1.635788 -0.184326
v -9835.387695 -2703.622559 -4084.495605
vn 1.000000 -0.000004 0.000000
vt 1.635788 -1.328326
v -9835.387695 -2703.622559 -4640.110352
vn 1.000000 -0.000004 0.000000
vt 0.914062 -1.328326
v -9835.387695 -2653.503418 -4640.149902
vn 1.000000 -0.000004 0.000000
vt 0.914062 -0.184326
v -9835.387695 -2703.619385 -3388.938965
vn 1.000000 -0.000004 0.000000
vt 2.635642 -1.328326
v -9835.387695 -2653.503418 -3388.958496
vn 1.000000 -0.000003 0.000000
vt 2.635642 -0.184326
v -9885.535156 -2653.553955 -4084.535156
vn -0.001005 1.000000 0.000000
vt 1.635788 -1.328326
v -9835.387695 -2653.503418 -4084.535156
vn -0.001005 1.000000 0.000000
vt 1.635788 -2.246535
v -9835.387695 -2653.503418 -4640.149902
vn -0.001005 1.000000 0.000000
vt 0.914062 -2.246535
v -9885.535156 -2653.553955 -4640.149902
vn -0.001007 1.000000 0.000000
vt 0.914062 -1.328326
v -9885.535156 -2653.560303 -3388.958740
vn -0.001131 0.999999 0.000009
vt 2.635642 -1.328326
v -9835.387695 -2653.503418 -3388.958496
vn -0.001131 0.999999 0.000009
vt 2.635642 -2.246535
v -9885.535156 -2653.553955 -4084.535156
vn -1.000000 0.000004 0.000000
vt 1.635788 -0.184326
v -9885.535156 -2653.553955 -4640.149902
vn -1.000000 0.000004 0.000000
vt 0.914062 -0.184326
v -9885.535156 -2703.672607 -4640.110352
vn -1.000000 0.000004 0.000000
vt 0.914062 -1.328326
v -9885.535156 -2703.673096 -4084.495605
vn -1.000000 0.000004 0.000000
vt 1.635788 -1.328326
v -9885.535156 -2703.676270 -3388.938965
vn -1.000000 0.000002 0.000000
vt 2.635642 -1.328326
v -9885.535156 -2653.560303 -3388.958740
vn -1.000000 0.000002 0.000000
vt 2.635642 -0.184326
v -9835.387695 -2653.503418 -4640.149902
vn 0.000001 -0.000788 -1.000000
vt 0.999500 0.999264
v -9835.387695 -2703.622559 -4640.110352
vn 0.000001 -0.000788 -1.000000
vt 0.999501 -0.324653
v -9885.535156 -2703.672607 -4640.110352
vn 0.000001 -0.000788 -1.000000
vt 0.867746 -0.324954
v -9885.535156 -2653.553955 -4640.149902
vn 0.000001 -0.000788 -1.000000
vt 0.867746 0.998963
v -9835.387695 -2653.503418 -3388.958496
vn -0.000005 0.000392 1.000000
vt 0.999500 0.999264
v -9885.535156 -2653.560303 -3388.958740
vn -0.000005 0.000392 1.000000
vt 0.867746 0.998963
v -9885.535156 -2703.676270 -3388.939209
vn -0.000005 0.000392 1.000000
vt 0.867746 -0.324954
v -9835.387695 -2703.619385 -3388.938965
vn -0.000005 0.000392 1.000000
vt 0.999501 -0.324653
f 27/27/27 25/25/25 26/26/26
f 25/25/25 27/27/27 28/28/28
f 3/3/3 1/1/1 2/2/2
f 1/1/1 3/3/3 4/4/4
f 5/5/5 1/1/1 4/4/4
f 1/1/1 5/5/5 6/6/6
f 12/12/12 11/11/11 7/7/7
f 8/8/8 7/7/7 11/11/11
f 7/7/7 8/8/8 9/9/9
f 9/9/9 10/10/10 7/7/7
f 17/17/17 18/18/18 13/13/13
f 14/14/14 13/13/13 18/18/18
f 13/13/13 14/14/14 15/15/15
f 15/15/15 16/16/16 13/13/13
f 21/21/21 19/19/19 20/20/20
f 19/19/19 21/21/21 22/22/22
f 19/19/19 23/23/23 24/24/24
f 23/23/23 19/19/19 22/22/22
f 31/31/31 29/29/29 30/30/30
f 29/29/29 31/31/31 32/32/32
usemtl GuideTop
v -9874.551758 -2704.820313 -3428.415283
vn 0.000000 -1.000000 -0.000000
vt 0.000000 1.000000
v -9844.895508 -2704.820313 -3428.415283
vn 0.000000 -1.000000 -0.000000
vt 1.000000 1.000000
v -9844.895508 -2704.820313 -3398.759521
vn 0.000000 -1.000000 -0.000001
vt 1.000000 0.000000
v -9874.551758 -2704.820313 -3398.759277
vn 0.000000 -1.000000 -0.000001
vt 0.000000 0.000000
v -9844.895508 -2704.820068 -4600.504395
vn 0.000000 -1.000000 0.000000
vt 1.000000 1.000000
v -9874.551758 -2704.820068 -4600.504395
vn 0.000000 -1.000000 0.000000
vt 0.000000 1.000000
v -9874.551758 -2704.820068 -4630.160156
vn 0.000000 -1.000000 0.000000
vt 0.000000 0.000000
v -9844.895508 -2704.820068 -4630.160156
vn 0.000000 -1.000000 0.000000
vt 1.000000 0.000000
f 35/35/35 33/33/33 34/34/34
f 33/33/33 35/35/35 36/36/36
f 39/39/39 37/37/37 38/38/38
f 37/37/37 39/39/39 40/40/40
usemtl Guide
v -9874.551758 -2704.820068 -4600.504395
vn 0.000000 -1.000000 0.000000
vt 0.000000 1.000000
v -9844.895508 -2704.820068 -4600.504395
vn 0.000000 -1.000000 0.000000
vt 1.000000 1.000000
v -9844.895508 -2704.820313 -3428.415283
vn 0.000000 -1.000000 -0.000000
vt 1.000000 -4.000000
v -9874.551758 -2704.820313 -3428.415283
vn 0.000000 -1.000000 -0.000000
vt 0.000000 -4.000000
f 43/43/43 41/41/41 42/42/42
f 41/41/41 43/43/43 44/44/44
