mtllib LAKETOWN_EXTERIOR_PS_LT_WINDOWS22936.mtl
g LT_Windows22936
usemtl donut_window
v 2237.690430 464.854279 -1873.077148
vn -1.000000 0.000000 0.000000
vt 1.000000 0.000000
v 2237.690186 464.854279 -1990.356445
vn -1.000000 0.000000 0.000000
vt 0.000000 0.000000
v 2237.690186 318.396088 -1990.356445
vn -1.000000 0.000000 0.000000
vt 0.000000 1.000000
v 2237.690430 318.396088 -1873.077148
vn -1.000000 0.000000 0.000000
vt 1.000000 1.000000
v 2237.690430 464.854309 -2639.704834
vn -1.000000 0.000000 0.000000
vt 1.000000 0.000000
v 2237.690430 464.854309 -2756.984131
vn -1.000000 0.000000 0.000000
vt 0.000000 0.000000
v 2237.690430 318.396118 -2756.984375
vn -1.000000 0.000000 0.000000
vt 0.000000 1.000000
v 2237.690430 318.396118 -2639.705078
vn -1.000000 0.000000 0.000000
vt 1.000000 1.000000
v 2232.891846 155.769028 -2452.179199
vn -0.707106 0.000000 -0.707107
vt 1.000000 0.000000
v 2232.891846 21.975548 -2452.179199
vn -0.707106 0.000000 -0.707107
vt 1.000000 1.000000
v 2158.715088 21.975544 -2378.002441
vn -0.707106 0.000000 -0.707107
vt 0.000000 1.000000
v 2158.715088 155.769028 -2378.002441
vn -0.707106 0.000000 -0.707107
vt 0.000000 0.000000
v 2156.020996 21.975544 -2363.374023
vn -1.000000 0.000000 0.000000
vt 0.000000 1.000000
v 2156.020996 21.975538 -2258.472168
vn -1.000000 0.000000 0.000000
vt 1.000000 1.000000
v 2156.020996 155.769058 -2258.472168
vn -1.000000 0.000000 0.000000
vt 1.000000 0.000000
v 2156.020996 155.769058 -2363.374023
vn -1.000000 0.000000 0.000000
vt 0.000000 0.000000
v 2158.715088 21.975508 -2244.158203
vn -0.707106 0.000000 0.707107
vt 0.000000 1.000000
v 2232.891846 21.975504 -2169.981445
vn -0.707106 0.000001 0.707107
vt 1.000000 1.000000
v 2232.891846 155.769028 -2169.981445
vn -0.707106 0.000000 0.707107
vt 1.000000 0.000000
v 2158.715088 155.769028 -2244.158203
vn -0.707106 0.000000 0.707108
vt 0.000000 0.000000
f 3/3/3 1/1/1 2/2/2
f 1/1/1 3/3/3 4/4/4
f 7/7/7 5/5/5 6/6/6
f 5/5/5 7/7/7 8/8/8
f 11/11/11 9/9/9 10/10/10
f 9/9/9 11/11/11 12/12/12
f 15/15/15 13/13/13 14/14/14
f 13/13/13 15/15/15 16/16/16
f 19/19/19 17/17/17 18/18/18
f 17/17/17 19/19/19 20/20/20
