mtllib LAKETOWN_EXTERIOR_PS_LT_WINDOWS2520.mtl
g LT_Windows2520
usemtl donut_window
v 595.175354 497.748230 2261.112793
vn 0.707107 0.000000 0.707107
vt 1.000000 0.000000
v 595.175354 363.954742 2261.112793
vn 0.707107 0.000000 0.707107
vt 1.000000 1.000000
v 669.352173 363.954742 2186.936035
vn 0.707107 0.000000 0.707107
vt 0.000000 1.000000
v 669.352173 497.748230 2186.936035
vn 0.707107 0.000000 0.707107
vt 0.000000 0.000000
v 672.046265 363.954742 2172.307617
vn 1.000000 0.000000 0.000000
vt 0.000000 1.000000
v 672.046204 363.954742 2067.405762
vn 1.000000 0.000000 0.000000
vt 1.000000 1.000000
v 672.046204 497.748260 2067.405762
vn 1.000000 0.000000 0.000000
vt 1.000000 0.000000
v 672.046265 497.748260 2172.307617
vn 1.000000 0.000000 0.000000
vt 0.000000 0.000000
v 669.352173 363.954712 2053.091797
vn 0.707106 0.000000 -0.707108
vt 0.000000 1.000000
v 595.175354 363.954712 1978.915039
vn 0.707106 0.000001 -0.707107
vt 1.000000 1.000000
v 595.175232 497.748230 1978.915039
vn 0.707106 0.000000 -0.707108
vt 1.000000 0.000000
v 669.352173 497.748230 2053.091797
vn 0.707106 0.000000 -0.707108
vt 0.000000 0.000000
f 3/3/3 1/1/1 2/2/2
f 1/1/1 3/3/3 4/4/4
f 7/7/7 5/5/5 6/6/6
f 5/5/5 7/7/7 8/8/8
f 11/11/11 9/9/9 10/10/10
f 9/9/9 11/11/11 12/12/12
