mtllib LAKETOWN_WAREHOUSE2_PS_WH2_PUB_DOORARCH_373756.mtl
g DoorArch_373756
usemtl Material_#0
v -9977.982422 -2716.818115 -7249.594238
vn 0.000153 -0.000139 1.000000
vt 0.987923 -0.006823
v -9860.750000 -2716.818115 -7249.594238
vn 0.000001 -0.000306 1.000000
vt 0.987923 0.499756
v -9860.750000 -2699.479248 -7249.588867
vn 0.000000 -0.000307 1.000000
vt 1.507584 0.499756
v -9977.982422 -2699.479248 -7249.588867
vn 0.000000 -0.000306 1.000000
vt 1.507584 -0.006823
v -9977.982422 -2716.818115 -7269.077148
vn 0.000000 -1.000000 -0.000001
vt 0.506812 -0.006823
v -9860.750000 -2716.818115 -7269.266602
vn 0.001213 -0.999999 -0.000001
vt 0.506811 0.499756
v -9860.750000 -2716.818115 -7249.594238
vn 0.001213 -0.999999 -0.000001
vt 0.987923 0.499756
v -9977.982422 -2716.818115 -7249.594238
vn 0.000000 -1.000000 -0.000001
vt 0.987923 -0.006823
v -9977.982422 -2699.479248 -7269.100098
vn -0.001613 -0.001323 -0.999998
vt -0.000000 -0.006823
v -9860.750000 -2699.479248 -7269.289551
vn -0.001584 -0.001324 -0.999998
vt -0.000000 0.499755
v -9860.750000 -2716.818115 -7269.266602
vn -0.001584 -0.001323 -0.999998
vt 0.506811 0.499756
v -9977.982422 -2716.818115 -7269.077148
vn -0.001613 -0.001322 -0.999998
vt 0.506812 -0.006823
v -9739.398438 -2716.523682 -7249.594238
vn 0.000154 -0.000140 1.000000
vt 0.987923 1.006334
v -9739.398438 -2699.184814 -7249.588867
vn 0.000000 -0.000310 1.000000
vt 1.507584 1.006334
v -9739.398438 -2716.523682 -7269.455566
vn 0.002426 -0.999997 -0.000001
vt 0.506811 1.006334
v -9739.398438 -2716.523682 -7249.594238
vn 0.002426 -0.999997 -0.000001
vt 0.987923 1.006334
v -9739.398438 -2699.184814 -7269.478516
vn -0.001554 -0.001324 -0.999998
vt -0.000000 1.006334
v -9739.398438 -2716.523682 -7269.455566
vn -0.000116 -0.001692 -0.999999
vt 0.506811 1.006334
v -9739.398438 -2902.608887 -7249.589355
vn 0.000306 0.000028 1.000000
vt 0.510024 1.006334
v -9739.398438 -2809.566406 -7249.591797
vn 0.000306 0.000028 1.000000
vt 0.510024 0.499756
v -9756.737305 -2809.566406 -7249.586426
vn 0.000306 0.000028 1.000000
vt -0.009638 0.499756
v -9756.737305 -2902.608887 -7249.583984
vn 0.000306 0.000028 1.000000
vt -0.009638 1.006334
v -9756.737305 -2902.608887 -7269.095215
vn 0.001323 -0.002059 -0.999997
vt 1.497947 1.006335
v -9756.737305 -2809.566406 -7269.286621
vn 0.001323 -0.002059 -0.999997
vt 1.497947 0.499756
v -9739.398438 -2809.566162 -7269.263672
vn 0.001323 -0.002059 -0.999997
vt 0.991135 0.499756
v -9739.398438 -2902.608887 -7269.072266
vn 0.001322 -0.002059 -0.999997
vt 0.991135 1.006334
v -9756.737305 -2902.608887 -7249.583984
vn -1.000000 0.000000 0.000000
vt 0.991135 1.006334
v -9756.737305 -2809.566406 -7249.586426
vn -1.000000 0.000000 0.000000
vt 0.991135 0.499756
v -9756.737305 -2809.566406 -7269.286621
vn -1.000000 0.000000 0.000000
vt 0.510024 0.499756
v -9756.737305 -2902.608887 -7269.095215
vn -1.000000 0.000000 0.000001
vt 0.510024 1.006334
v -9739.398438 -2716.523682 -7249.594238
vn 0.000154 -0.000140 1.000000
vt 0.510024 -0.006823
v -9756.737305 -2716.523682 -7249.588867
vn 0.000306 0.000028 1.000000
vt -0.009638 -0.006823
v -9756.737305 -2716.523682 -7269.478516
vn 0.001323 -0.002059 -0.999997
vt 1.497947 -0.006823
v -9739.398438 -2716.523682 -7269.455566
vn -0.000116 -0.001692 -0.999999
vt 0.991135 -0.006823
v -9756.737305 -2716.523682 -7249.588867
vn -1.000000 0.000000 0.000000
vt 0.991135 -0.006823
v -9756.737305 -2716.523682 -7269.478516
vn -1.000000 0.000000 0.000001
vt 0.510024 -0.006823
v -9960.643555 -2902.608887 -7249.594238
vn 0.000306 0.000028 1.000000
vt 0.987923 -0.006823
v -9960.643555 -2809.713379 -7249.597168
vn 0.000306 0.000028 1.000000
vt 0.987923 0.499756
v -9977.982422 -2809.713379 -7249.591797
vn 0.000306 0.000028 1.000000
vt 1.507584 0.499756
v -9977.982422 -2902.608887 -7249.588867
vn 0.000306 0.000028 1.000000
vt 1.507584 -0.006823
v -9960.643555 -2902.608643 -7269.077637
vn 1.000000 0.000000 0.000000
vt 0.506812 -0.006823
v -9960.643555 -2809.713379 -7269.269043
vn 1.000000 0.000000 0.000000
vt 0.506811 0.499756
v -9960.643555 -2809.713379 -7249.597168
vn 1.000000 0.000000 0.000000
vt 0.987923 0.499756
v -9960.643555 -2902.608887 -7249.594238
vn 1.000000 0.000000 0.000000
vt 0.987923 -0.006823
v -9977.982422 -2902.608643 -7269.100586
vn 0.001323 -0.002063 -0.999997
vt -0.000000 -0.006823
v -9977.982422 -2809.713379 -7269.291992
vn 0.001322 -0.002063 -0.999997
vt -0.000000 0.499755
v -9960.643555 -2809.713379 -7269.269043
vn 0.001323 -0.002063 -0.999997
vt 0.506811 0.499756
v -9960.643555 -2902.608643 -7269.077637
vn 0.001323 -0.002063 -0.999997
vt 0.506812 -0.006823
v -9960.643555 -2716.817871 -7249.599609
vn 0.000306 0.000028 1.000000
vt 0.987923 1.006334
v -9977.982422 -2716.817871 -7249.594238
vn 0.000153 -0.000139 1.000000
vt 1.507584 1.006334
v -9960.643555 -2716.817871 -7269.460449
vn 1.000000 0.000000 0.000000
vt 0.506811 1.006334
v -9960.643555 -2716.817871 -7249.599609
vn 1.000000 0.000000 0.000000
vt 0.987923 1.006334
v -9977.982422 -2716.817871 -7269.483398
vn 0.001323 -0.002063 -0.999997
vt -0.000000 1.006334
v -9960.643555 -2716.817871 -7269.460449
vn 0.001323 -0.002062 -0.999997
vt 0.506811 1.006334
v -9977.982422 -2699.479248 -7269.100098
vn 0.000000 1.000000 0.000001
vt 0.506812 -0.006823
v -9977.982422 -2699.479248 -7249.588867
vn 0.000000 1.000000 0.000001
vt 0.987923 -0.006823
v -9860.750000 -2699.479248 -7249.588867
vn -0.001213 0.999999 0.000001
vt 0.987923 0.499756
v -9860.750000 -2699.479248 -7269.289551
vn -0.001213 0.999999 0.000001
vt 0.506811 0.499756
v -9739.398438 -2699.184814 -7269.478516
vn -0.002426 0.999997 0.000001
vt 0.506811 1.006334
v -9739.398438 -2699.184814 -7249.588867
vn -0.002426 0.999997 0.000001
vt 0.987923 1.006334
f 7/7/7 8/8/8 5/5/5
f 5/5/5 6/6/6 7/7/7
f 15/15/15 7/7/7 6/6/6
f 7/7/7 15/15/15 16/16/16
f 1/1/1 3/3/3 4/4/4
f 3/3/3 1/1/1 2/2/2
f 3/3/3 13/13/13 14/14/14
f 13/13/13 3/3/3 2/2/2
f 9/9/9 11/11/11 12/12/12
f 11/11/11 9/9/9 10/10/10
f 11/11/11 17/17/17 18/18/18
f 17/17/17 11/11/11 10/10/10
f 19/19/19 20/20/20 21/21/21
f 31/31/31 21/21/21 20/20/20
f 21/21/21 31/31/31 32/32/32
f 21/21/21 22/22/22 19/19/19
f 27/27/27 29/29/29 30/30/30
f 29/29/29 27/27/27 28/28/28
f 29/29/29 35/35/35 36/36/36
f 35/35/35 29/29/29 28/28/28
f 25/25/25 33/33/33 34/34/34
f 33/33/33 25/25/25 24/24/24
f 23/23/23 24/24/24 25/25/25
f 25/25/25 26/26/26 23/23/23
f 37/37/37 38/38/38 39/39/39
f 49/49/49 39/39/39 38/38/38
f 39/39/39 49/49/49 50/50/50
f 39/39/39 40/40/40 37/37/37
f 45/45/45 47/47/47 48/48/48
f 47/47/47 45/45/45 46/46/46
f 47/47/47 53/53/53 54/54/54
f 53/53/53 47/47/47 46/46/46
f 43/43/43 51/51/51 52/52/52
f 51/51/51 43/43/43 42/42/42
f 41/41/41 42/42/42 43/43/43
f 43/43/43 44/44/44 41/41/41
f 57/57/57 55/55/55 56/56/56
f 55/55/55 57/57/57 58/58/58
f 59/59/59 58/58/58 57/57/57
f 57/57/57 60/60/60 59/59/59
