mtllib LAKETOWN_WAREHOUSE2_PS_WH2_OBJECT173.mtl
g WH2_Object173
usemtl wood_planks
v -10250.504883 -3362.655273 -6866.256348
vn 0.707321 0.000023 -0.706892
vt 1.507584 1.000000
v -10250.577148 -2982.926025 -6866.184082
vn 0.707322 0.000085 -0.706891
vt 1.507584 0.000000
v -10227.230469 -2982.926270 -6842.822754
vn 0.948760 0.000076 -0.315997
vt 0.987923 0.000000
v -10227.158203 -3362.655273 -6842.895508
vn 1.000000 -0.000045 0.000152
vt 0.987923 1.000000
v -10253.727539 -2982.926270 -6816.326660
vn 0.316475 0.000096 0.948601
vt 0.506811 0.000000
v -10253.909180 -3362.655518 -6816.144531
vn 0.000654 0.000040 1.000000
vt 0.506811 1.000000
v -10277.111328 -2982.926025 -6839.649902
vn -0.706181 0.000214 0.708031
vt -0.000000 0.000000
v -10277.293945 -3362.655273 -6839.467773
vn -0.706180 -0.000159 0.708032
vt -0.000000 1.000000
v -10250.577148 -3638.665771 -6866.184082
vn 0.707321 -0.000149 -0.706893
vt 1.507584 0.000000
v -10250.504883 -3362.655273 -6866.256348
vn 0.707321 0.000023 -0.706892
vt 1.507584 -1.000000
v -10227.158203 -3362.655273 -6842.895508
vn 1.000000 -0.000045 0.000152
vt 0.987923 -1.000000
v -10227.230469 -3638.665771 -6842.823242
vn 0.948664 -0.000067 0.316287
vt 0.987923 0.000000
v -10253.909180 -3362.655518 -6816.144531
vn 0.000654 0.000040 1.000000
vt 0.506812 -1.000000
v -10253.727539 -3638.665771 -6816.326660
vn -0.315235 -0.000334 0.949014
vt 0.506811 0.000000
v -10277.293945 -3362.655273 -6839.467773
vn -0.706180 -0.000159 0.708032
vt -0.000000 -1.000000
v -10277.111328 -3638.665771 -6839.649902
vn -0.706182 -0.000374 0.708030
vt -0.000000 0.000000
v -10250.614258 -2652.047607 -6866.147461
vn 0.707322 0.000067 -0.706891
vt 1.507584 -0.500000
v -10227.267578 -2652.047607 -6842.786621
vn 1.000000 0.000051 0.000152
vt 0.987923 -0.500000
v -10253.636719 -2652.047607 -6816.417480
vn 0.000654 0.000118 1.000000
vt 0.506811 -0.500000
v -10277.020508 -2652.047607 -6839.740723
vn -0.706181 0.000179 0.708031
vt -0.000000 -0.500000
v -10250.631836 -2516.661865 -6866.129395
vn 0.707322 0.000076 -0.706891
vt 1.507584 -0.750000
v -10227.285156 -2516.661865 -6842.768555
vn 0.948664 0.000034 0.316286
vt 0.987923 -0.750000
v -10253.590820 -2516.661865 -6816.463379
vn -0.315236 0.000170 0.949013
vt 0.506811 -0.750000
v -10276.975586 -2516.661865 -6839.786621
vn -0.706182 0.000191 0.708030
vt -0.000000 -0.750000
f 7/7/7 8/8/8 6/6/6
f 5/5/5 6/6/6 4/4/4
f 6/6/6 5/5/5 7/7/7
f 19/19/19 7/7/7 5/5/5
f 7/7/7 19/19/19 20/20/20
f 23/23/23 20/20/20 19/19/19
f 20/20/20 23/23/23 24/24/24
f 3/3/3 4/4/4 1/1/1
f 4/4/4 3/3/3 5/5/5
f 18/18/18 5/5/5 3/3/3
f 5/5/5 18/18/18 19/19/19
f 22/22/22 19/19/19 18/18/18
f 19/19/19 22/22/22 23/23/23
f 1/1/1 2/2/2 3/3/3
f 17/17/17 3/3/3 2/2/2
f 3/3/3 17/17/17 18/18/18
f 21/21/21 18/18/18 17/17/17
f 18/18/18 21/21/21 22/22/22
f 11/11/11 9/9/9 10/10/10
f 9/9/9 11/11/11 12/12/12
f 13/13/13 12/12/12 11/11/11
f 12/12/12 13/13/13 14/14/14
f 15/15/15 14/14/14 13/13/13
f 14/14/14 15/15/15 16/16/16
