mtllib LAKETOWN_WAREHOUSE3_PS_WH3_PLATFORN84847__GX.mtl
g atforn84847__GX
usemtl wood_planks
v 3192.100586 -3327.547852 3257.542725
vn 0.000406 1.000000 -0.000348
vt 1.507584 0.000000
v 3192.057373 -3327.547852 3350.045654
vn 0.000416 1.000000 -0.000001
vt 1.507584 0.500000
v 3208.594727 -3327.564941 3350.210938
vn 0.600510 0.799596 0.005766
vt 0.987923 0.500000
v 3209.636963 -3327.564941 3237.884033
vn 0.333976 0.668345 -0.664662
vt 0.987923 0.000000
v 3208.594727 -3347.137451 3350.178467
vn 0.599963 -0.800005 0.005965
vt 0.506811 0.500000
v 3209.636719 -3347.137451 3237.851807
vn 0.668229 -0.667770 -0.327954
vt 0.506811 0.000000
v 3192.040771 -3347.137451 3350.026367
vn -0.000001 -1.000000 0.000000
vt -0.000000 0.500000
v 3192.083984 -3347.137451 3257.523438
vn 0.000000 -1.000000 0.000000
vt -0.000000 0.000000
v 2895.911377 -3327.564941 3350.232910
vn -0.600341 0.799722 -0.005932
vt 0.987923 -0.250013
v 2895.894775 -3347.137451 3350.245850
vn -0.600301 -0.799754 -0.005705
vt 0.506811 -0.249975
v 2894.869629 -3347.137451 3451.668701
vn -0.668464 -0.667766 0.327482
vt 0.506811 -0.333300
v 2894.869385 -3327.564941 3451.636475
vn -0.334078 0.668304 0.664651
vt 0.987923 -0.333350
v 2912.423828 -3347.137451 3350.049072
vn 0.000000 -1.000000 0.000000
vt -0.000000 -0.249975
v 2912.394531 -3347.137451 3433.965576
vn 0.000000 -1.000000 -0.000001
vt -0.000000 -0.333300
v 2912.405762 -3327.547607 3433.946045
vn -0.000405 1.000000 0.000385
vt 1.507584 -0.333350
v 2912.449219 -3327.547852 3349.987061
vn -0.000414 1.000000 -0.000001
vt 1.507584 -0.250013
v 2896.953613 -3327.564941 3237.906250
vn -0.575360 0.576125 -0.580552
vt 0.987923 -1.000698
v 3053.295166 -3327.564941 3237.895020
vn -0.000032 0.894203 -0.447661
vt 0.987923 -0.500349
v 3053.278320 -3347.137451 3237.875732
vn -0.000079 -0.706757 -0.707456
vt 0.506811 -0.500337
v 2896.919922 -3347.137451 3237.899658
vn -0.407942 -0.814956 -0.411619
vt 0.506811 -1.000673
v 2912.458740 -3347.137451 3257.536621
vn 0.000000 -1.000000 0.000000
vt -0.000000 -1.000673
v 3052.271240 -3347.137451 3257.530029
vn 0.000000 -1.000000 0.000001
vt -0.000000 -0.500337
v 2912.492432 -3327.547852 3257.542725
vn -0.000354 1.000000 -0.000293
vt 1.507584 -1.000698
v 3052.296631 -3327.547852 3257.542725
vn 0.000000 1.000000 -0.000350
vt 1.507584 -0.500349
v 3207.552979 -3327.564941 3451.614502
vn 0.575698 0.574825 0.581506
vt 0.987923 -1.000000
v 3051.211670 -3327.564697 3451.625488
vn 0.000031 0.894081 0.447906
vt 0.987923 -0.500000
v 3051.211426 -3347.137451 3451.625488
vn 0.000123 -0.707108 0.707106
vt 0.506811 -0.500000
v 3207.552979 -3347.137451 3451.582275
vn 0.407396 -0.815295 0.411489
vt 0.506811 -1.000000
v 3192.002930 -3347.137451 3433.922363
vn -0.000001 -1.000000 -0.000001
vt -0.000000 -1.000000
v 3052.193359 -3347.137451 3433.942871
vn 0.000000 -1.000000 -0.000001
vt -0.000000 -0.500000
v 3192.014404 -3327.547607 3433.946289
vn 0.000355 1.000000 0.000324
vt 1.507584 -1.000000
v 3052.210205 -3327.547607 3433.946289
vn 0.000000 1.000000 0.000386
vt 1.507584 -0.500000
v 2894.869385 -3327.564941 3451.636475
vn -0.334078 0.668304 0.664651
vt 0.987923 0.000000
v 2894.869629 -3347.137451 3451.668701
vn -0.668464 -0.667766 0.327482
vt 0.506811 0.000000
v 2912.394531 -3347.137451 3433.965576
vn 0.000000 -1.000000 -0.000001
vt -0.000000 0.000000
v 2912.405762 -3327.547607 3433.946045
vn -0.000405 1.000000 0.000385
vt 1.507584 0.000000
v 2896.953613 -3327.564941 3237.906250
vn -0.575360 0.576125 -0.580552
vt 0.987923 -0.166675
v 2896.919922 -3347.137451 3237.899658
vn -0.407942 -0.814956 -0.411619
vt 0.506811 -0.166650
v 2912.458740 -3347.137451 3257.536621
vn 0.000000 -1.000000 0.000000
vt -0.000000 -0.166650
v 2912.492432 -3327.547852 3257.542725
vn -0.000354 1.000000 -0.000293
vt 1.507584 -0.166675
v 3192.014404 -3327.547607 3433.946289
vn 0.000355 1.000000 0.000324
vt 1.507584 1.000000
v 3207.552979 -3327.564941 3451.614502
vn 0.575698 0.574825 0.581506
vt 0.987923 1.000000
v 3207.552979 -3347.137451 3451.582275
vn 0.407396 -0.815295 0.411489
vt 0.506811 1.000000
v 3192.002930 -3347.137451 3433.922363
vn -0.000001 -1.000000 -0.000001
vt -0.000000 1.000000
v 3125.194092 -3417.204590 3353.933350
vn -0.707424 -0.541883 -0.453777
vt 0.506811 -3.485054
v 3125.194092 -3402.025146 3366.670410
vn -0.707460 0.540970 0.454810
vt 0.987923 -3.485054
v 3125.078125 -3329.774658 3280.565918
vn -0.894515 0.341856 0.288057
vt 0.987923 -2.992377
v 2981.091797 -3344.966309 3267.818604
vn 0.894341 -0.342719 -0.287574
vt 0.575671 -3.067031
v 2981.092041 -3329.761230 3280.577148
vn 0.446502 0.685443 0.575156
vt 1.056782 -3.067031
v 2981.092041 -3402.011719 3366.681885
vn 0.799791 0.459839 0.385852
vt 1.056782 -3.528530
v 2981.091553 -3417.216797 3353.923340
vn 0.554179 -0.637654 -0.535054
vt 0.575671 -3.528530
v 3142.732422 -3417.216797 3353.923340
vn 0.554178 -0.637655 -0.535054
vt -0.000000 -3.444215
v 3125.194092 -3417.204590 3353.933350
vn -0.707424 -0.541883 -0.453777
vt 0.506811 -3.444215
v 3125.078125 -3344.954346 3267.828613
vn -0.447853 -0.685223 -0.574367
vt 0.506811 -2.910700
v 3142.732666 -3344.966309 3267.818604
vn 0.894340 -0.342719 -0.287575
vt -0.000000 -2.910700
v 3125.194092 -3402.025146 3366.670410
vn -0.707460 0.540970 0.454810
vt 0.987923 -3.444215
v 3142.732910 -3402.011719 3366.681885
vn 0.799792 0.459839 0.385851
vt 1.507584 -3.444215
v 3142.732910 -3329.761230 3280.577148
vn 0.446502 0.685443 0.575156
vt 1.507584 -2.910700
v 3125.078125 -3329.774658 3280.565918
vn -0.894515 0.341856 0.288057
vt 0.987923 -2.910700
v 3142.732910 -3402.011719 3366.681885
vn 0.799792 0.459839 0.385851
vt 1.056782 -3.528530
v 3142.732422 -3417.216797 3353.923340
vn 0.554178 -0.637655 -0.535054
vt 0.575671 -3.528530
v 3142.732666 -3344.966309 3267.818604
vn 0.894340 -0.342719 -0.287575
vt 0.575671 -3.067031
v 3142.732910 -3329.761230 3280.577148
vn 0.446502 0.685443 0.575156
vt 1.056782 -3.067031
v 3142.732422 -3498.558594 3450.862793
vn 0.706779 -0.541927 -0.454730
vt -0.000000 -3.977730
v 3125.310059 -3498.546631 3450.873047
vn -0.894508 -0.342988 -0.286731
vt 0.506811 -3.977730
v 3125.310059 -3483.367188 3463.610107
vn -0.447934 0.684631 0.575009
vt 0.987923 -3.977730
v 3142.732910 -3483.353516 3463.621338
vn 0.706759 0.541941 0.454743
vt 1.507584 -3.977730
v 3142.732910 -3483.353516 3463.621338
vn 0.706759 0.541941 0.454743
vt 1.056782 -3.990029
v 3142.732422 -3498.558594 3450.862793
vn 0.706779 -0.541927 -0.454730
vt 0.575671 -3.990029
v 2981.091553 -3498.558594 3450.862793
vn 0.706779 -0.541927 -0.454729
vt 0.575671 -3.990029
v 2981.092041 -3483.353516 3463.621338
vn 0.706759 0.541941 0.454742
vt 1.056782 -3.990029
v 2981.092041 -3402.011719 3366.681885
vn 0.799791 0.459839 0.385852
vt 1.507584 -3.444215
v 2963.553223 -3402.025146 3366.670410
vn -0.707460 0.540970 0.454809
vt 0.987923 -3.444215
v 2963.669189 -3483.367188 3463.610107
vn -0.447934 0.684631 0.575009
vt 0.987923 -3.977730
v 2981.092041 -3483.353516 3463.621338
vn 0.706759 0.541941 0.454742
vt 1.507584 -3.977730
v 2963.553223 -3402.025146 3366.670410
vn -0.707460 0.540970 0.454809
vt 0.987923 -3.485054
v 2963.553223 -3417.204590 3353.933594
vn -0.707424 -0.541884 -0.453777
vt 0.506811 -3.485054
v 2963.669189 -3498.546631 3450.873047
vn -0.894507 -0.342989 -0.286732
vt 0.506811 -3.977730
v 2963.553223 -3417.204590 3353.933594
vn -0.707424 -0.541884 -0.453777
vt 0.506811 -3.444215
v 2981.091553 -3417.216797 3353.923340
vn 0.554179 -0.637654 -0.535054
vt -0.000000 -3.444215
v 2981.091553 -3498.558594 3450.862793
vn 0.706779 -0.541927 -0.454729
vt -0.000000 -3.977730
v 3125.078125 -3344.954346 3267.828613
vn -0.447853 -0.685223 -0.574367
vt 0.506811 -2.992377
v 2963.437256 -3329.774658 3280.565918
vn -0.894516 0.341855 0.288056
vt 0.987923 -2.992377
v 2981.092041 -3329.761230 3280.577148
vn 0.446502 0.685443 0.575156
vt 1.507584 -2.910700
v 2963.437256 -3329.774658 3280.565918
vn -0.894516 0.341855 0.288056
vt 0.987923 -2.910700
v 2963.437256 -3344.954346 3267.828613
vn -0.447853 -0.685223 -0.574367
vt 0.506811 -2.992377
v 2963.437256 -3344.954346 3267.828613
vn -0.447853 -0.685223 -0.574367
vt 0.506811 -2.910700
v 2981.091797 -3344.966309 3267.818604
vn 0.894341 -0.342719 -0.287574
vt -0.000000 -2.910700
f 62/62/62 63/63/63 60/60/60
f 68/68/68 69/69/69 60/60/60
f 61/61/61 60/60/60 69/69/69
f 60/60/60 61/61/61 62/62/62
f 24/24/24 1/1/1 18/18/18
f 4/4/4 18/18/18 1/1/1
f 18/18/18 4/4/4 19/19/19
f 6/6/6 19/19/19 4/4/4
f 19/19/19 6/6/6 8/8/8
f 5/5/5 8/8/8 6/6/6
f 8/8/8 5/5/5 7/7/7
f 44/44/44 7/7/7 5/5/5
f 3/3/3 5/5/5 6/6/6
f 3/3/3 1/1/1 2/2/2
f 1/1/1 3/3/3 4/4/4
f 6/6/6 4/4/4 3/3/3
f 5/5/5 43/43/43 44/44/44
f 43/43/43 5/5/5 42/42/42
f 3/3/3 42/42/42 5/5/5
f 42/42/42 3/3/3 41/41/41
f 2/2/2 41/41/41 3/3/3
f 19/19/19 22/22/22 21/21/21
f 22/22/22 19/19/19 8/8/8
f 18/18/18 23/23/23 24/24/24
f 23/23/23 18/18/18 17/17/17
f 19/19/19 17/17/17 18/18/18
f 17/17/17 19/19/19 20/20/20
f 21/21/21 20/20/20 19/19/19
f 29/29/29 28/28/28 27/27/27
f 25/25/25 27/27/27 28/28/28
f 27/27/27 25/25/25 26/26/26
f 31/31/31 26/26/26 25/25/25
f 26/26/26 31/31/31 32/32/32
f 27/27/27 33/33/33 34/34/34
f 33/33/33 27/27/27 26/26/26
f 26/26/26 36/36/36 33/33/33
f 36/36/36 26/26/26 32/32/32
f 34/34/34 35/35/35 27/27/27
f 30/30/30 27/27/27 35/35/35
f 27/27/27 30/30/30 29/29/29
f 11/11/11 12/12/12 9/9/9
f 15/15/15 9/9/9 12/12/12
f 9/9/9 15/15/15 16/16/16
f 9/9/9 10/10/10 11/11/11
f 14/14/14 11/11/11 10/10/10
f 39/39/39 13/13/13 10/10/10
f 14/14/14 10/10/10 13/13/13
f 10/10/10 38/38/38 39/39/39
f 38/38/38 10/10/10 37/37/37
f 9/9/9 37/37/37 10/10/10
f 37/37/37 9/9/9 40/40/40
f 16/16/16 40/40/40 9/9/9
f 46/46/46 65/65/65 66/66/66
f 65/65/65 46/46/46 45/45/45
f 47/47/47 45/45/45 46/46/46
f 45/45/45 47/47/47 82/82/82
f 57/57/57 66/66/66 67/67/67
f 66/66/66 57/57/57 56/56/56
f 58/58/58 56/56/56 57/57/57
f 56/56/56 58/58/58 59/59/59
f 53/53/53 64/64/64 65/65/65
f 64/64/64 53/53/53 52/52/52
f 54/54/54 52/52/52 53/53/53
f 52/52/52 54/54/54 55/55/55
f 72/72/72 74/74/74 75/75/75
f 74/74/74 72/72/72 73/73/73
f 84/84/84 73/73/73 72/72/72
f 73/73/73 84/84/84 85/85/85
f 77/77/77 83/83/83 86/86/86
f 83/83/83 77/77/77 76/76/76
f 78/78/78 76/76/76 77/77/77
f 76/76/76 78/78/78 74/74/74
f 80/80/80 87/87/87 88/88/88
f 87/87/87 80/80/80 79/79/79
f 81/81/81 79/79/79 80/80/80
f 79/79/79 81/81/81 78/78/78
f 50/50/50 48/48/48 49/49/49
f 48/48/48 50/50/50 51/51/51
f 70/70/70 51/51/51 50/50/50
f 50/50/50 71/71/71 70/70/70
usemtl LT_Floor_01
v 3192.002930 -3347.137451 3433.922363
vn -0.000001 -1.000000 -0.000001
vt -2.753596 -3.192972
v 3052.193359 -3347.137451 3433.942871
vn 0.000000 -1.000000 -0.000001
vt -1.992524 -3.193130
v 3052.219727 -3347.137207 3349.863281
vn 0.000000 -1.000000 0.000000
vt -1.992670 -2.553849
v 3052.253418 -3327.547852 3349.869385
vn 0.000000 1.000000 -0.000001
vt -1.992855 -3.553897
v 3052.296631 -3327.547852 3257.542725
vn 0.000000 1.000000 -0.000350
vt -1.993094 -2.851913
v 2912.492432 -3327.547852 3257.542725
vn -0.000354 1.000000 -0.000293
vt -1.243290 -2.851913
v 2912.449219 -3327.547852 3349.987061
vn -0.000414 1.000000 -0.000001
vt -1.243051 -3.554790
v 3192.057373 -3327.547852 3350.045654
vn 0.000416 1.000000 -0.000001
vt -2.753896 -3.555236
v 3192.100586 -3327.547852 3257.542725
vn 0.000406 1.000000 -0.000348
vt -2.754135 -2.851912
v 3052.210205 -3327.547607 3433.946289
vn 0.000000 1.000000 0.000386
vt -1.992617 -3.193154
v 3052.253418 -3327.547852 3349.869385
vn 0.000000 1.000000 -0.000001
vt -1.992855 -2.553897
v 2912.449219 -3327.547852 3349.987061
vn -0.000414 1.000000 -0.000001
vt -1.243051 -2.554790
v 2912.405762 -3327.547607 3433.946045
vn -0.000405 1.000000 0.000385
vt -1.242812 -3.193153
v 3192.014404 -3327.547607 3433.946289
vn 0.000355 1.000000 0.000324
vt -2.753658 -3.193154
v 3192.057373 -3327.547852 3350.045654
vn 0.000416 1.000000 -0.000001
vt -2.753896 -2.555236
v 3052.219727 -3347.137207 3349.863281
vn 0.000000 -1.000000 0.000000
vt -1.992670 -3.553849
v 2912.423828 -3347.137451 3350.049072
vn 0.000000 -1.000000 0.000000
vt -1.242912 -3.555263
v 2912.458740 -3347.137451 3257.536621
vn 0.000000 -1.000000 0.000000
vt -1.243105 -2.851867
v 3052.271240 -3347.137451 3257.530029
vn 0.000000 -1.000000 0.000001
vt -1.992955 -2.851816
v 3192.040771 -3347.137451 3350.026367
vn -0.000001 -1.000000 0.000000
vt -2.753804 -3.555089
v 2912.423828 -3347.137451 3350.049072
vn 0.000000 -1.000000 0.000000
vt -1.242912 -2.555263
v 3192.040771 -3347.137451 3350.026367
vn -0.000001 -1.000000 0.000000
vt -2.753804 -2.555089
v 3192.083984 -3347.137451 3257.523438
vn 0.000000 -1.000000 0.000000
vt -2.754043 -2.851766
v 2912.394531 -3347.137451 3433.965576
vn 0.000000 -1.000000 -0.000001
vt -1.242750 -3.193301
f 92/92/92 94/94/94 95/95/95
f 94/94/94 92/92/92 93/93/93
f 96/96/96 93/93/93 92/92/92
f 93/93/93 96/96/96 97/97/97
f 112/112/112 109/109/109 90/90/90
f 91/91/91 90/90/90 109/109/109
f 90/90/90 91/91/91 89/89/89
f 110/110/110 89/89/89 91/91/91
f 99/99/99 102/102/102 103/103/103
f 102/102/102 99/99/99 98/98/98
f 100/100/100 98/98/98 99/99/99
f 98/98/98 100/100/100 101/101/101
f 105/105/105 106/106/106 104/104/104
f 107/107/107 104/104/104 106/106/106
f 104/104/104 107/107/107 108/108/108
f 111/111/111 108/108/108 107/107/107
