mtllib LAKETOWN_WAREHOUSE3_PS_WH3_ROTBEAMS_993838.mtl
g RotBeams_993838
usemtl rotten_beam
v 3121.754639 -1842.646851 1154.046509
vn -0.010914 -0.046367 -0.998865
vt -3.696088 0.918028
v 3174.171875 -1843.180298 1153.988647
vn 0.987921 -0.007394 -0.154780
vt -3.697330 -0.048734
v 3173.956543 -2218.343262 1158.927368
vn 0.954102 -0.008191 -0.299369
vt -2.911868 -0.048734
v 3122.425537 -2218.322266 1158.973511
vn -0.009172 -0.007858 -0.999927
vt -2.897274 0.918028
v 3174.171875 -1843.180176 1211.528198
vn 0.845987 -0.018340 0.532888
vt -3.697330 -1.022566
v 3173.956543 -2218.343262 1207.902832
vn 0.954117 -0.003533 0.299413
vt -2.911868 -1.022566
v 3127.573975 -1843.564941 1211.470337
vn -0.011864 -0.034044 0.999350
vt -3.697330 -1.996397
v 3127.911865 -2218.343262 1207.856567
vn -0.010799 -0.022725 0.999683
vt -2.911868 -1.996397
v 3122.425537 -2218.322266 1158.973511
vn -0.009172 -0.007858 -0.999927
vt -3.897274 0.918028
v 3173.956543 -2218.343262 1158.927368
vn 0.954102 -0.008191 -0.299369
vt -3.911868 -0.048734
v 3173.956787 -2626.230469 1157.613770
vn 0.846368 0.006058 -0.532564
vt -2.881143 -0.048734
v 3122.426025 -2626.209473 1157.660034
vn -0.009149 0.011374 -0.999893
vt -2.877341 0.918028
v 3173.956543 -2218.343262 1207.902832
vn 0.954117 -0.003533 0.299413
vt -3.911868 -1.022566
v 3173.956787 -2626.230469 1207.902710
vn 0.987950 0.000000 0.154774
vt -2.881143 -1.022566
v 3127.911865 -2218.343262 1207.856567
vn -0.010799 -0.022725 0.999683
vt -3.911868 -1.996397
v 3127.912109 -2626.230469 1207.856445
vn -0.010261 0.000000 0.999947
vt -2.881143 -1.996397
v 3122.425537 -2218.322266 1158.973511
vn -0.999940 -0.000686 0.010982
vt -2.897274 0.918028
v 3127.911865 -2218.343262 1207.856567
vn -0.999940 -0.000686 0.010982
vt -2.882615 1.672629
v 3127.573975 -1843.564941 1211.470337
vn -0.999940 -0.000686 0.010982
vt -3.694846 1.672629
v 3121.754639 -1842.646851 1154.046509
vn -0.999951 -0.000158 0.009916
vt -3.696088 0.918028
v 3122.426025 -2626.209473 1157.660034
vn -0.999943 0.000000 0.010695
vt -2.877341 0.918028
v 3127.912109 -2626.230469 1207.856445
vn -0.999943 0.000000 0.010695
vt -2.873473 1.672629
v 3127.911865 -2218.343262 1207.856567
vn -0.999940 -0.000686 0.010982
vt -3.882615 1.672629
v 3122.425537 -2218.322266 1158.973511
vn -0.999940 -0.000686 0.010982
vt -3.897274 0.918028
v 3117.053955 -1842.646973 547.438354
vn -0.006819 -0.046369 -0.998901
vt -3.696088 0.918028
v 3200.921631 -1843.180664 547.380615
vn 0.987938 -0.007506 -0.154668
vt -3.697330 -0.048734
v 3200.577148 -2218.343750 552.319214
vn 0.954206 -0.008220 -0.299039
vt -2.911868 -0.048734
v 3118.127686 -2218.322754 552.365417
vn -0.005733 -0.007858 -0.999953
vt -2.897274 0.918028
v 3200.921631 -1843.180542 604.919983
vn 0.846612 -0.018407 0.531892
vt -3.697330 -1.022566
v 3200.577148 -2218.343750 601.294678
vn 0.954220 -0.003605 0.299085
vt -2.911868 -1.022566
v 3126.364990 -1843.565308 604.862183
vn -0.007415 -0.034044 0.999393
vt -3.697330 -1.996397
v 3126.905762 -2218.343750 601.248474
vn -0.006744 -0.022725 0.999719
vt -2.911868 -1.996397
v 3118.127686 -2218.322754 552.365417
vn -0.005733 -0.007858 -0.999953
vt -3.897274 0.918028
v 3200.577148 -2218.343750 552.319214
vn 0.954206 -0.008220 -0.299039
vt -3.911868 -0.048734
v 3200.577881 -2626.230957 551.005676
vn 0.846884 0.006049 -0.531743
vt -2.881143 -0.048734
v 3118.128418 -2626.209717 551.051880
vn -0.005718 0.011375 -0.999919
vt -2.877341 0.918028
v 3200.577148 -2218.343750 601.294678
vn 0.954220 -0.003605 0.299085
vt -3.911868 -1.022566
v 3200.577881 -2626.230957 601.294617
vn 0.987964 0.000001 0.154684
vt -2.881143 -1.022566
v 3126.905762 -2218.343750 601.248474
vn -0.006744 -0.022725 0.999719
vt -3.911868 -1.996397
v 3126.906250 -2626.230957 601.248413
vn -0.006409 0.000001 0.999979
vt -2.881143 -1.996397
v 3118.127686 -2218.322754 552.365417
vn -0.999845 -0.001097 0.017570
vt -2.897274 0.918028
v 3126.905762 -2218.343750 601.248474
vn -0.999845 -0.001097 0.017570
vt -2.882615 1.672629
v 3126.364990 -1843.565308 604.862183
vn -0.999845 -0.001097 0.017570
vt -3.694846 1.672629
v 3117.053955 -1842.646973 547.438354
vn -0.999874 -0.000253 0.015864
vt -3.696088 0.918028
v 3118.128418 -2626.209717 551.051880
vn -0.999854 0.000000 0.017110
vt -2.877341 0.918028
v 3126.906250 -2626.230957 601.248413
vn -0.999854 0.000000 0.017110
vt -2.873473 1.672629
v 3126.905762 -2218.343750 601.248474
vn -0.999845 -0.001097 0.017570
vt -3.882615 1.672629
v 3118.127686 -2218.322754 552.365417
vn -0.999845 -0.001097 0.017570
vt -3.897274 0.918028
v 3117.053955 -1842.646851 327.595520
vn -0.006818 -0.046369 -0.998901
vt -3.136819 0.918028
v 3200.921631 -1843.180420 327.537781
vn 0.987938 -0.007506 -0.154668
vt -3.138062 -0.048734
v 3200.577148 -2218.343506 332.476440
vn 0.954206 -0.008220 -0.299039
vt -2.352599 -0.048734
v 3118.127686 -2218.322266 332.522644
vn -0.005733 -0.007858 -0.999953
vt -2.338005 0.918028
v 3200.921631 -1843.180176 385.077209
vn 0.846612 -0.018407 0.531892
vt -3.138062 -1.022566
v 3200.577148 -2218.343506 381.451874
vn 0.954220 -0.003605 0.299085
vt -2.352599 -1.022566
v 3126.364990 -1843.564941 385.019379
vn -0.007415 -0.034044 0.999393
vt -3.138062 -1.996397
v 3126.905762 -2218.343506 381.405670
vn -0.006744 -0.022725 0.999719
vt -2.352599 -1.996397
v 3118.127686 -2218.322266 332.522644
vn -0.005733 -0.007858 -0.999953
vt -3.338005 0.918028
v 3200.577148 -2218.343506 332.476440
vn 0.954206 -0.008220 -0.299039
vt -3.352599 -0.048734
v 3200.577637 -2626.230469 331.162872
vn 0.846884 0.006049 -0.531743
vt -2.321874 -0.048734
v 3118.128418 -2626.209473 331.209076
vn -0.005718 0.011375 -0.999919
vt -2.318072 0.918028
v 3200.577148 -2218.343506 381.451874
vn 0.954220 -0.003605 0.299085
vt -3.352599 -1.022566
v 3200.577637 -2626.230469 381.451813
vn 0.987964 0.000001 0.154684
vt -2.321874 -1.022566
v 3126.905762 -2218.343506 381.405670
vn -0.006744 -0.022725 0.999719
vt -3.352599 -1.996397
v 3126.906006 -2626.230469 381.405609
vn -0.006409 0.000001 0.999979
vt -2.321874 -1.996397
v 3118.127686 -2218.322266 332.522644
vn -0.999845 -0.001097 0.017570
vt -2.338005 0.918028
v 3126.905762 -2218.343506 381.405670
vn -0.999845 -0.001097 0.017570
vt -2.323346 1.672629
v 3126.364990 -1843.564941 385.019379
vn -0.999845 -0.001097 0.017570
vt -3.135577 1.672629
v 3117.053955 -1842.646851 327.595520
vn -0.999874 -0.000253 0.015864
vt -3.136819 0.918028
v 3118.128418 -2626.209473 331.209076
vn -0.999854 0.000000 0.017110
vt -2.318072 0.918028
v 3126.906006 -2626.230469 381.405609
vn -0.999854 0.000000 0.017110
vt -2.314204 1.672629
v 3126.905762 -2218.343506 381.405670
vn -0.999845 -0.001097 0.017570
vt -3.323346 1.672629
v 3118.127686 -2218.322266 332.522644
vn -0.999845 -0.001097 0.017570
vt -3.338005 0.918028
v 3117.053955 -1842.646973 99.237610
vn -0.006825 -0.046369 -0.998901
vt -3.696088 0.918028
v 3200.921631 -1843.180542 99.179756
vn 0.987938 -0.007506 -0.154669
vt -3.697330 -0.048734
v 3200.576904 -2218.343506 104.118393
vn 0.954205 -0.008220 -0.299039
vt -2.911868 -0.048734
v 3118.127686 -2218.322510 104.164612
vn -0.005733 -0.007859 -0.999953
vt -2.897274 0.918028
v 3200.921631 -1843.180298 156.719284
vn 0.846611 -0.018408 0.531894
vt -3.697330 -1.022566
v 3200.577148 -2218.343506 153.093948
vn 0.954219 -0.003605 0.299086
vt -2.911868 -1.022566
v 3126.364990 -1843.565063 156.661453
vn -0.007415 -0.034046 0.999393
vt -3.697330 -1.996397
v 3126.905762 -2218.343506 153.047638
vn -0.006754 -0.022726 0.999719
vt -2.911868 -1.996397
v 3118.127686 -2218.322510 104.164612
vn -0.005733 -0.007859 -0.999953
vt -3.897274 0.918028
v 3200.576904 -2218.343506 104.118393
vn 0.954205 -0.008220 -0.299039
vt -3.911868 -0.048734
v 3200.577637 -2626.230713 102.804939
vn 0.846884 0.006049 -0.531743
vt -2.881143 -0.048734
v 3118.128418 -2626.209717 102.851151
vn -0.005718 0.011374 -0.999919
vt -2.877341 0.918028
v 3200.577148 -2218.343506 153.093948
vn 0.954219 -0.003605 0.299086
vt -3.911868 -1.022566
v 3200.577637 -2626.230713 153.093781
vn 0.987964 0.000000 0.154684
vt -2.881143 -1.022566
v 3126.905762 -2218.343506 153.047638
vn -0.006754 -0.022726 0.999719
vt -3.911868 -1.996397
v 3126.906006 -2626.230713 153.047577
vn -0.006417 0.000000 0.999979
vt -2.881143 -1.996397
v 3118.127686 -2218.322510 104.164612
vn -0.999845 -0.001097 0.017570
vt -2.897274 0.918028
v 3126.905762 -2218.343506 153.047638
vn -0.999845 -0.001097 0.017570
vt -2.882615 1.672629
v 3126.364990 -1843.565063 156.661453
vn -0.999845 -0.001097 0.017570
vt -3.694846 1.672629
v 3117.053955 -1842.646973 99.237610
vn -0.999874 -0.000253 0.015864
vt -3.696088 0.918028
v 3118.128418 -2626.209717 102.851151
vn -0.999854 0.000000 0.017110
vt -2.877341 0.918028
v 3126.906006 -2626.230713 153.047577
vn -0.999854 0.000000 0.017110
vt -2.873473 1.672629
v 3126.905762 -2218.343506 153.047638
vn -0.999845 -0.001097 0.017570
vt -3.882615 1.672629
v 3118.127686 -2218.322510 104.164612
vn -0.999845 -0.001097 0.017570
vt -3.897274 0.918028
v 3094.265381 -1821.680664 752.459412
vn -0.010909 -0.046368 -0.998865
vt -3.696088 0.918028
v 3146.682617 -1822.214233 752.401672
vn 0.987921 -0.007394 -0.154780
vt -3.697330 -0.048734
v 3146.467285 -2197.377197 757.340271
vn 0.954102 -0.008191 -0.299369
vt -2.911868 -0.048734
v 3094.936523 -2197.356201 757.386475
vn -0.009172 -0.007858 -0.999927
vt -2.897274 0.918028
v 3146.682617 -1822.213989 809.941040
vn 0.845988 -0.018340 0.532887
vt -3.697330 -1.022566
v 3146.467285 -2197.377197 806.315735
vn 0.954117 -0.003533 0.299413
vt -2.911868 -1.022566
v 3100.084717 -1822.598755 809.883240
vn -0.011864 -0.034043 0.999350
vt -3.697330 -1.996397
v 3100.422607 -2197.377197 806.269531
vn -0.010791 -0.022724 0.999684
vt -2.911868 -1.996397
v 3094.936523 -2197.356201 757.386475
vn -0.009172 -0.007858 -0.999927
vt -3.897274 0.918028
v 3146.467285 -2197.377197 757.340271
vn 0.954102 -0.008191 -0.299369
vt -3.911868 -0.048734
v 3146.467529 -2605.264404 756.026733
vn 0.846368 0.006058 -0.532564
vt -2.881143 -0.048734
v 3094.936768 -2605.243408 756.072937
vn -0.009149 0.011374 -0.999893
vt -2.877341 0.918028
v 3146.467285 -2197.377197 806.315735
vn 0.954117 -0.003533 0.299413
vt -3.911868 -1.022566
v 3146.467529 -2605.264404 806.315674
vn 0.987950 0.000000 0.154774
vt -2.881143 -1.022566
v 3100.422607 -2197.377197 806.269531
vn -0.010791 -0.022724 0.999684
vt -3.911868 -1.996397
v 3100.422852 -2605.264404 806.269470
vn -0.010255 0.000001 0.999947
vt -2.881143 -1.996397
v 3094.936523 -2197.356201 757.386475
vn -0.999940 -0.000686 0.010982
vt -2.897274 0.918028
v 3100.422607 -2197.377197 806.269531
vn -0.999940 -0.000686 0.010982
vt -2.882615 1.672629
v 3100.084717 -1822.598755 809.883240
vn -0.999940 -0.000686 0.010982
vt -3.694846 1.672629
v 3094.265381 -1821.680664 752.459412
vn -0.999951 -0.000158 0.009916
vt -3.696088 0.918028
v 3094.936768 -2605.243408 756.072937
vn -0.999943 0.000000 0.010695
vt -2.877341 0.918028
v 3100.422852 -2605.264404 806.269470
vn -0.999943 0.000000 0.010695
vt -2.873473 1.672629
v 3100.422607 -2197.377197 806.269531
vn -0.999940 -0.000686 0.010982
vt -3.882615 1.672629
v 3094.936523 -2197.356201 757.386475
vn -0.999940 -0.000686 0.010982
vt -3.897274 0.918028
v 3173.846191 -1821.680664 752.459351
vn -0.010909 -0.046368 -0.998865
vt -3.054819 0.918028
v 3226.263428 -1822.214233 752.401611
vn 0.987921 -0.007394 -0.154780
vt -3.056061 -0.048734
v 3226.048096 -2197.377197 757.340271
vn 0.954102 -0.008191 -0.299369
vt -2.270599 -0.048734
v 3174.517334 -2197.356201 757.386475
vn -0.009172 -0.007858 -0.999927
vt -2.256005 0.918028
v 3226.263428 -1822.213989 809.941040
vn 0.845988 -0.018340 0.532887
vt -3.056061 -1.022566
v 3226.048096 -2197.377197 806.315735
vn 0.954117 -0.003533 0.299413
vt -2.270599 -1.022566
v 3179.665527 -1822.598755 809.883240
vn -0.011864 -0.034043 0.999350
vt -3.056061 -1.996397
v 3180.003418 -2197.377197 806.269531
vn -0.010791 -0.022724 0.999684
vt -2.270599 -1.996397
v 3174.517334 -2197.356201 757.386475
vn -0.009172 -0.007858 -0.999927
vt -3.256005 0.918028
v 3226.048096 -2197.377197 757.340271
vn 0.954102 -0.008191 -0.299369
vt -3.270599 -0.048734
v 3226.048340 -2605.264404 756.026733
vn 0.846368 0.006058 -0.532564
vt -2.239874 -0.048734
v 3174.517578 -2605.243408 756.072937
vn -0.009149 0.011374 -0.999893
vt -2.236072 0.918028
v 3226.048096 -2197.377197 806.315735
vn 0.954117 -0.003533 0.299413
vt -3.270599 -1.022566
v 3226.048340 -2605.264404 806.315674
vn 0.987950 0.000000 0.154774
vt -2.239874 -1.022566
v 3180.003418 -2197.377197 806.269531
vn -0.010791 -0.022724 0.999684
vt -3.270599 -1.996397
v 3180.003662 -2605.264404 806.269470
vn -0.010255 0.000001 0.999947
vt -2.239874 -1.996397
v 3174.517334 -2197.356201 757.386475
vn -0.999940 -0.000686 0.010982
vt -2.256005 0.918028
v 3180.003418 -2197.377197 806.269531
vn -0.999940 -0.000686 0.010982
vt -2.241346 1.672629
v 3179.665527 -1822.598755 809.883240
vn -0.999940 -0.000686 0.010982
vt -3.053577 1.672629
v 3173.846191 -1821.680664 752.459351
vn -0.999951 -0.000158 0.009916
vt -3.054819 0.918028
v 3174.517578 -2605.243408 756.072937
vn -0.999943 0.000000 0.010695
vt -2.236072 0.918028
v 3180.003662 -2605.264404 806.269470
vn -0.999943 0.000000 0.010695
vt -2.232204 1.672629
v 3180.003418 -2197.377197 806.269531
vn -0.999940 -0.000686 0.010982
vt -3.241346 1.672629
v 3174.517334 -2197.356201 757.386475
vn -0.999940 -0.000686 0.010982
vt -3.256005 0.918028
f 19/19/19 17/17/17 18/18/18
f 17/17/17 19/19/19 20/20/20
f 4/4/4 1/1/1 3/3/3
f 2/2/2 3/3/3 1/1/1
f 3/3/3 2/2/2 6/6/6
f 5/5/5 6/6/6 2/2/2
f 6/6/6 5/5/5 8/8/8
f 7/7/7 8/8/8 5/5/5
f 15/15/15 16/16/16 13/13/13
f 14/14/14 13/13/13 16/16/16
f 13/13/13 14/14/14 10/10/10
f 11/11/11 10/10/10 14/14/14
f 10/10/10 11/11/11 9/9/9
f 12/12/12 9/9/9 11/11/11
f 36/36/36 33/33/33 35/35/35
f 34/34/34 35/35/35 33/33/33
f 35/35/35 34/34/34 38/38/38
f 37/37/37 38/38/38 34/34/34
f 38/38/38 37/37/37 40/40/40
f 39/39/39 40/40/40 37/37/37
f 52/52/52 49/49/49 51/51/51
f 50/50/50 51/51/51 49/49/49
f 51/51/51 50/50/50 54/54/54
f 53/53/53 54/54/54 50/50/50
f 54/54/54 53/53/53 56/56/56
f 55/55/55 56/56/56 53/53/53
f 63/63/63 64/64/64 61/61/61
f 62/62/62 61/61/61 64/64/64
f 61/61/61 62/62/62 58/58/58
f 59/59/59 58/58/58 62/62/62
f 58/58/58 59/59/59 57/57/57
f 60/60/60 57/57/57 59/59/59
f 79/79/79 80/80/80 77/77/77
f 78/78/78 77/77/77 80/80/80
f 77/77/77 78/78/78 74/74/74
f 75/75/75 74/74/74 78/78/78
f 74/74/74 75/75/75 73/73/73
f 76/76/76 73/73/73 75/75/75
f 87/87/87 88/88/88 85/85/85
f 86/86/86 85/85/85 88/88/88
f 85/85/85 86/86/86 82/82/82
f 83/83/83 82/82/82 86/86/86
f 82/82/82 83/83/83 81/81/81
f 84/84/84 81/81/81 83/83/83
f 108/108/108 105/105/105 107/107/107
f 106/106/106 107/107/107 105/105/105
f 107/107/107 106/106/106 110/110/110
f 109/109/109 110/110/110 106/106/106
f 110/110/110 109/109/109 112/112/112
f 111/111/111 112/112/112 109/109/109
f 127/127/127 128/128/128 125/125/125
f 126/126/126 125/125/125 128/128/128
f 125/125/125 126/126/126 122/122/122
f 123/123/123 122/122/122 126/126/126
f 122/122/122 123/123/123 121/121/121
f 124/124/124 121/121/121 123/123/123
f 135/135/135 136/136/136 133/133/133
f 134/134/134 133/133/133 136/136/136
f 133/133/133 134/134/134 130/130/130
f 131/131/131 130/130/130 134/134/134
f 130/130/130 131/131/131 129/129/129
f 132/132/132 129/129/129 131/131/131
f 23/23/23 21/21/21 22/22/22
f 21/21/21 23/23/23 24/24/24
f 31/31/31 32/32/32 29/29/29
f 30/30/30 29/29/29 32/32/32
f 29/29/29 30/30/30 26/26/26
f 27/27/27 26/26/26 30/30/30
f 26/26/26 27/27/27 25/25/25
f 28/28/28 25/25/25 27/27/27
f 43/43/43 41/41/41 42/42/42
f 41/41/41 43/43/43 44/44/44
f 47/47/47 45/45/45 46/46/46
f 45/45/45 47/47/47 48/48/48
f 67/67/67 65/65/65 66/66/66
f 65/65/65 67/67/67 68/68/68
f 71/71/71 69/69/69 70/70/70
f 69/69/69 71/71/71 72/72/72
f 91/91/91 89/89/89 90/90/90
f 89/89/89 91/91/91 92/92/92
f 95/95/95 93/93/93 94/94/94
f 93/93/93 95/95/95 96/96/96
f 103/103/103 104/104/104 101/101/101
f 102/102/102 101/101/101 104/104/104
f 101/101/101 102/102/102 98/98/98
f 99/99/99 98/98/98 102/102/102
f 98/98/98 99/99/99 97/97/97
f 100/100/100 97/97/97 99/99/99
f 115/115/115 113/113/113 114/114/114
f 113/113/113 115/115/115 116/116/116
f 119/119/119 117/117/117 118/118/118
f 117/117/117 119/119/119 120/120/120
f 139/139/139 137/137/137 138/138/138
f 137/137/137 139/139/139 140/140/140
f 143/143/143 141/141/141 142/142/142
f 141/141/141 143/143/143 144/144/144
