mtllib LAKETOWN_PUB_PS_PUB_STAIRS736.mtl
g Pub_Stairs736
usemtl wood_boards
v -20.015736 -2730.063232 -23.977659
vn 0.000000 0.000000 -1.000000
vt 0.272407 0.740880
v 13.752604 -2730.063232 -23.977654
vn 0.000000 0.000000 -1.000000
vt 0.272407 0.491042
v -20.015736 -2755.750732 -23.977661
vn 0.000000 0.000000 -1.000000
vt -0.007385 0.740880
v 13.752640 -2730.063232 99.355927
vn 0.000000 0.000000 1.000000
vt 0.272407 0.491042
v 80.412491 -2755.750732 99.355904
vn 0.000000 0.000000 1.000000
vt -0.007385 -0.004342
v 47.202713 -2703.418701 99.355919
vn -0.000001 -0.000001 1.000000
vt 0.635102 0.235282
v 47.202713 -2703.418701 99.355919
vn -1.000000 0.000000 0.000000
vt 0.870761 0.516284
v 47.202713 -2677.155029 99.355942
vn -1.000000 0.000000 0.000000
vt 0.870761 0.710958
v 47.202728 -2677.155029 -23.977646
vn -1.000000 0.000000 0.000000
vt 0.041157 0.710958
v 80.412483 -2755.750732 -23.977646
vn 0.000000 0.000000 -1.000000
vt -0.007385 -0.004342
v 13.752640 -2730.063232 99.355927
vn -1.000000 0.000000 0.000000
vt 0.832206 0.033159
v 13.752640 -2703.418701 99.355927
vn -1.000000 0.000000 0.000000
vt 0.832205 0.197182
v 13.752604 -2703.418701 -23.977654
vn -1.000000 0.000000 0.000000
vt 0.034438 0.197182
v -20.015755 -2755.750732 99.355919
vn -1.000000 0.000000 0.000000
vt 0.924611 0.268142
v -20.015736 -2730.063232 -23.977659
vn -1.000000 0.000000 0.000000
vt 0.037215 0.452018
v -20.015736 -2755.750732 -23.977661
vn -1.000000 0.000000 0.000000
vt 0.034331 0.268142
v 47.202728 -2703.418701 -23.977648
vn 0.000000 0.000000 -1.000000
vt 0.635102 0.235282
v 13.752604 -2703.418701 -23.977654
vn 0.000000 0.000000 -1.000000
vt 0.635102 0.491042
v 13.752604 -2730.063232 -23.977654
vn -1.000000 0.000000 0.000000
vt 0.034438 0.033159
v 47.202728 -2703.418701 -23.977648
vn -1.000000 0.000000 0.000000
vt 0.041157 0.516284
v 47.202728 -2677.155029 -23.977646
vn 0.000000 0.000000 -1.000000
vt 0.992615 0.235282
v -20.015755 -2730.063232 99.355919
vn -1.000000 0.000000 0.000000
vt 0.927495 0.452018
v 80.412483 -2677.155029 -23.977642
vn 0.000000 0.000000 -1.000000
vt 0.992615 -0.004342
v -20.015755 -2730.063232 99.355919
vn 0.000000 0.000000 1.000000
vt 0.272407 0.740880
v -20.015755 -2755.750732 99.355919
vn 0.000000 0.000000 1.000000
vt -0.007385 0.740880
v 47.202713 -2677.155029 99.355942
vn 0.000000 -0.000001 1.000000
vt 0.992615 0.235282
v 80.412491 -2677.155029 99.355934
vn 0.000000 0.000000 1.000000
vt 0.992615 -0.004342
v 13.752640 -2703.418701 99.355927
vn 0.000000 0.000000 1.000000
vt 0.635102 0.491042
f 9/9/9 7/7/7 8/8/8
f 7/7/7 9/9/9 20/20/20
f 1/1/1 2/2/2 3/3/3
f 10/10/10 3/3/3 2/2/2
f 10/10/10 21/21/21 23/23/23
f 21/21/21 10/10/10 17/17/17
f 2/2/2 17/17/17 10/10/10
f 17/17/17 2/2/2 18/18/18
f 4/4/4 25/25/25 5/5/5
f 25/25/25 4/4/4 24/24/24
f 27/27/27 26/26/26 5/5/5
f 6/6/6 5/5/5 26/26/26
f 5/5/5 6/6/6 4/4/4
f 28/28/28 4/4/4 6/6/6
f 13/13/13 11/11/11 12/12/12
f 11/11/11 13/13/13 19/19/19
f 15/15/15 14/14/14 22/22/22
f 14/14/14 15/15/15 16/16/16
usemtl Hard_wood
v 11.211976 -2701.466064 114.969917
vn 0.000000 1.000000 0.000000
vt 0.500952 -0.265497
v 47.234703 -2701.466064 114.969917
vn 0.000000 1.000000 0.000000
vt 0.278543 -0.265300
v 47.234673 -2701.466064 -31.610794
vn 0.000000 1.000000 0.000000
vt 0.275242 1.230128
v -22.215063 -2727.979492 114.969925
vn 0.000000 1.000000 0.000000
vt 0.736911 -0.280185
v 13.807665 -2727.979492 114.969925
vn 0.000000 1.000000 0.000000
vt 0.521876 -0.279988
v 13.807687 -2727.979492 -31.610773
vn 0.000000 1.000000 0.000000
vt 0.520582 1.215440
v 13.807665 -2735.130371 114.969925
vn 1.000000 0.000000 0.000000
vt 0.008460 -0.275787
v 13.807687 -2735.130371 -31.610773
vn 1.000000 0.000000 0.000000
vt 0.020925 0.995287
v 13.807687 -2727.979492 -31.610773
vn 1.000000 0.000000 0.000000
vt 0.106096 0.988456
v 44.291035 -2674.952881 114.969917
vn 0.000000 1.000000 0.000000
vt 0.981724 -0.265497
v 80.313736 -2674.952881 114.969910
vn 0.000000 1.000000 0.000000
vt 0.759315 -0.265300
v 80.313728 -2674.952881 -31.650171
vn 0.000000 1.000000 0.000000
vt 0.756014 1.230128
v 11.211976 -2701.466064 114.969917
vn -1.000000 0.000000 0.000000
vt 0.886437 -0.282116
v 11.211999 -2701.466064 -31.610800
vn -1.000000 0.000000 0.000000
vt 0.886290 1.216464
v 11.211999 -2708.616943 -31.610800
vn -1.000000 0.000000 0.000000
vt 1.001191 1.216989
v 44.291000 -2674.952881 -31.650175
vn 0.000000 1.000000 0.000000
vt 0.984729 1.233083
v 44.291000 -2682.103760 -31.650177
vn -1.000000 0.000000 0.000000
vt 0.751800 1.232103
v 44.291035 -2682.103760 114.969917
vn -1.000000 0.000000 0.000000
vt 0.750923 -0.268077
v 44.291035 -2674.952881 114.969917
vn -1.000000 0.000000 0.000000
vt 0.637046 -0.267002
v 44.291000 -2674.952881 -31.650175
vn -1.000000 0.000000 0.000000
vt 0.636899 1.231579
v 11.211976 -2708.616943 114.969917
vn -1.000000 0.000000 0.000000
vt 1.000314 -0.283192
v 47.234673 -2701.466064 -31.610794
vn 1.000000 0.000000 0.000000
vt 0.106096 0.988456
v 47.234703 -2701.466064 114.969917
vn 1.000000 0.000000 0.000000
vt 0.103090 -0.270005
v 47.234703 -2708.616943 114.969917
vn 1.000000 0.000000 0.000000
vt 0.008460 -0.275787
v 13.807665 -2727.979492 114.969925
vn 1.000000 0.000000 0.000000
vt 0.103090 -0.270005
v -22.215063 -2727.979492 114.969925
vn -1.000000 0.000000 0.000000
vt 0.399266 -0.279058
v -22.215040 -2727.979492 -31.610779
vn -1.000000 0.000000 0.000000
vt 0.399119 1.219522
v -22.215040 -2735.130371 -31.610779
vn -1.000000 0.000000 0.000000
vt 0.514020 1.220047
v 47.234673 -2708.616943 -31.610794
vn 1.000000 0.000000 0.000000
vt 0.020925 0.995287
v -22.215063 -2735.130371 114.969925
vn -1.000000 0.000000 0.000000
vt 0.513143 -0.280134
v -22.215040 -2727.979492 -31.610779
vn 0.000000 1.000000 0.000000
vt 0.739917 1.218395
v 11.211999 -2701.466064 -31.610800
vn 0.000000 1.000000 0.000000
vt 0.503957 1.233083
f 31/31/31 29/29/29 30/30/30
f 29/29/29 31/31/31 60/60/60
f 34/34/34 32/32/32 33/33/33
f 32/32/32 34/34/34 59/59/59
f 37/37/37 35/35/35 36/36/36
f 35/35/35 37/37/37 53/53/53
f 40/40/40 38/38/38 39/39/39
f 38/38/38 40/40/40 44/44/44
f 43/43/43 41/41/41 42/42/42
f 41/41/41 43/43/43 49/49/49
f 47/47/47 45/45/45 46/46/46
f 45/45/45 47/47/47 48/48/48
f 52/52/52 50/50/50 51/51/51
f 50/50/50 52/52/52 57/57/57
f 56/56/56 54/54/54 55/55/55
f 54/54/54 56/56/56 58/58/58
usemtl wood_end
v 80.313736 -2674.952881 114.969910
vn 0.000000 0.000000 1.000000
vt 0.504854 0.000500
v 44.291035 -2674.952881 114.969917
vn 0.000000 0.000000 1.000000
vt 0.763669 0.000500
v 44.291035 -2682.103760 114.969917
vn 0.000000 0.000000 1.000000
vt 0.763669 0.999500
v 80.313736 -2682.103760 114.969910
vn 0.000000 0.000000 1.000000
vt 0.504854 0.999500
v 44.291000 -2674.952881 -31.650175
vn 0.000000 0.000000 -1.000000
vt 0.763667 0.000500
v 80.313728 -2674.952881 -31.650171
vn 0.000000 0.000000 -1.000000
vt 0.504853 0.000500
v 80.313728 -2682.103760 -31.650171
vn 0.000000 0.000000 -1.000000
vt 0.504853 0.999499
v 44.291000 -2682.103760 -31.650177
vn 0.000000 0.000000 -1.000000
vt 0.763667 0.999499
v 47.234703 -2701.466064 114.969917
vn 0.000000 0.000000 1.000000
vt 0.504854 0.000500
v 11.211976 -2701.466064 114.969917
vn 0.000000 0.000000 1.000000
vt 0.763669 0.000500
v 11.211976 -2708.616943 114.969917
vn 0.000000 0.000000 1.000000
vt 0.763669 0.999500
v 47.234703 -2708.616943 114.969917
vn 0.000000 0.000000 1.000000
vt 0.504854 0.999500
v 11.211999 -2701.466064 -31.610800
vn 0.000000 0.000000 -1.000000
vt 0.763667 0.000500
v 47.234673 -2701.466064 -31.610794
vn 0.000000 0.000000 -1.000000
vt 0.504853 0.000500
v 47.234673 -2708.616943 -31.610794
vn 0.000000 0.000000 -1.000000
vt 0.504853 0.999499
v 11.211999 -2708.616943 -31.610800
vn 0.000000 0.000000 -1.000000
vt 0.763667 0.999499
v 13.807665 -2727.979492 114.969925
vn 0.000000 0.000000 1.000000
vt 0.504854 0.000500
v -22.215063 -2727.979492 114.969925
vn 0.000000 0.000000 1.000000
vt 0.763669 0.000500
v -22.215063 -2735.130371 114.969925
vn 0.000000 0.000000 1.000000
vt 0.763669 0.999500
v 13.807665 -2735.130371 114.969925
vn 0.000000 0.000000 1.000000
vt 0.504854 0.999500
v -22.215040 -2727.979492 -31.610779
vn 0.000000 0.000000 -1.000000
vt 0.763667 0.000500
v 13.807687 -2727.979492 -31.610773
vn 0.000000 0.000000 -1.000000
vt 0.504853 0.000500
v 13.807687 -2735.130371 -31.610773
vn 0.000000 0.000000 -1.000000
vt 0.504853 0.999499
v -22.215040 -2735.130371 -31.610779
vn 0.000000 0.000000 -1.000000
vt 0.763667 0.999499
f 63/63/63 61/61/61 62/62/62
f 61/61/61 63/63/63 64/64/64
f 67/67/67 65/65/65 66/66/66
f 65/65/65 67/67/67 68/68/68
f 71/71/71 69/69/69 70/70/70
f 69/69/69 71/71/71 72/72/72
f 75/75/75 73/73/73 74/74/74
f 73/73/73 75/75/75 76/76/76
f 79/79/79 77/77/77 78/78/78
f 77/77/77 79/79/79 80/80/80
f 83/83/83 81/81/81 82/82/82
f 81/81/81 83/83/83 84/84/84
