mtllib LAKETOWN_EXTERIOR_PS_LT_WINDOWS2287.mtl
g LT_Windows2287
usemtl Large_window
v 2229.091797 238.825851 -2390.642334
vn -1.000000 0.000000 0.000000
vt 0.000000 1.000000
v 2229.091797 238.825851 -2319.116943
vn -1.000000 0.000000 0.000000
vt 1.000000 1.000000
v 2229.091797 447.258270 -2319.116943
vn -1.000000 0.000000 0.000000
vt 1.000000 0.000000
v 2229.091797 447.258270 -2390.642334
vn -1.000000 0.000000 0.000000
vt 0.000000 0.000000
v 2229.091553 238.825851 -2301.102295
vn -1.000000 0.000000 0.000000
vt 0.000000 1.000000
v 2229.091553 238.825851 -2229.576904
vn -1.000000 0.000000 0.000000
vt 1.000000 1.000000
v 2229.091553 447.258270 -2229.576904
vn -1.000000 0.000000 0.000000
vt 1.000000 0.000000
v 2229.091553 447.258270 -2301.102295
vn -1.000000 0.000000 0.000000
vt 0.000000 0.000000
f 3/3/3 1/1/1 2/2/2
f 1/1/1 3/3/3 4/4/4
f 7/7/7 5/5/5 6/6/6
f 5/5/5 7/7/7 8/8/8
