mtllib LAKETOWN_EXTERIOR_PS_LT_PANELS2291.mtl
g LT_Panels2291
usemtl wood_panel
v 2230.130127 344.406586 -2404.443359
vn -1.000000 0.000000 0.000000
vt 1.500000 1.000000
v 2230.130127 344.406616 -2436.638916
vn -1.000000 0.000000 0.000000
vt 1.500000 0.500000
v 2230.130127 216.284821 -2436.638916
vn -1.000000 0.000000 0.000000
vt 0.000000 0.500000
v 2230.130127 216.284821 -2404.443359
vn -1.000000 0.000000 0.000000
vt 0.000000 1.000000
v 2230.130127 472.528381 -2468.834473
vn -1.000000 0.000000 0.000000
vt 3.000000 0.000000
v 2230.130127 344.406616 -2468.834473
vn -1.000000 0.000000 0.000000
vt 1.500000 0.000000
v 2230.130127 472.528381 -2436.638916
vn -1.000000 0.000000 0.000000
vt 3.000000 0.500000
v 2230.130127 472.528381 -2404.443359
vn -1.000000 0.000000 0.000000
vt 3.000000 1.000000
v 2230.130127 216.284821 -2468.834473
vn -1.000000 0.000000 0.000000
vt 0.000000 0.000000
v 2230.130127 344.406586 -2150.969482
vn -1.000000 0.000000 0.000000
vt 1.500000 1.000000
v 2230.130127 344.406586 -2183.165039
vn -1.000000 0.000000 0.000000
vt 1.500000 0.500000
v 2230.130127 216.284805 -2183.165039
vn -1.000000 0.000000 0.000000
vt 0.000000 0.500000
v 2230.130127 216.284790 -2150.969482
vn -1.000000 0.000000 0.000000
vt 0.000000 1.000000
v 2230.130127 472.528351 -2215.360596
vn -1.000000 0.000000 0.000000
vt 3.000000 0.000000
v 2230.130127 344.406586 -2215.360596
vn -1.000000 0.000000 0.000000
vt 1.500000 0.000000
v 2230.130127 472.528351 -2183.165039
vn -1.000000 0.000000 0.000000
vt 3.000000 0.500000
v 2230.130127 472.528351 -2150.969482
vn -1.000000 0.000000 0.000000
vt 3.000000 1.000000
v 2230.130127 216.284805 -2215.360596
vn -1.000000 0.000000 0.000000
vt 0.000000 0.000000
v 2233.302734 240.776276 -2569.133789
vn -1.000000 0.000000 0.000000
vt 0.000000 0.500000
v 2233.302490 240.776276 -2692.385254
vn -1.000000 0.000000 0.000000
vt 1.500000 0.500000
v 2233.302490 189.585434 -2692.385254
vn -1.000000 0.000000 0.000000
vt 1.500000 1.000000
v 2233.302734 189.585403 -2569.133789
vn -1.000000 0.000000 0.000000
vt 0.000000 1.000000
v 2233.302490 291.967133 -2815.636719
vn -1.000000 0.000000 0.000000
vt 3.000000 0.000000
v 2233.302490 240.776291 -2815.636719
vn -1.000000 0.000000 0.000000
vt 3.000000 0.500000
v 2233.302490 291.967133 -2692.385254
vn -1.000000 0.000000 0.000000
vt 1.500000 0.000000
v 2233.302734 291.967133 -2569.133789
vn -1.000000 0.000000 0.000000
vt 0.000000 0.000000
v 2233.302490 189.585434 -2815.636719
vn -1.000000 0.000000 0.000000
vt 3.000000 1.000000
v 2233.302490 189.585281 -1934.275513
vn -1.000000 0.000000 0.000000
vt 1.500000 1.000000
v 2233.302490 240.776123 -1934.275635
vn -1.000000 0.000000 0.000000
vt 1.500000 0.500000
v 2233.302490 240.776138 -2057.527100
vn -1.000000 0.000000 0.000000
vt 0.000000 0.500000
v 2233.302490 189.585281 -2057.527100
vn -1.000000 0.000000 0.000000
vt 0.000000 1.000000
v 2233.302490 189.585251 -1811.024170
vn -1.000000 0.000000 0.000000
vt 3.000000 1.000000
v 2233.302490 240.776108 -1811.024170
vn -1.000000 0.000000 0.000000
vt 3.000000 0.500000
v 2233.302490 291.966980 -1811.024170
vn -1.000000 0.000000 0.000000
vt 3.000000 0.000000
v 2233.302490 291.966980 -1934.275635
vn -1.000000 0.000000 0.000000
vt 1.500000 0.000000
v 2233.302490 291.966980 -2057.527100
vn -1.000000 0.000000 0.000000
vt 0.000000 0.000000
v 2236.955811 -95.220245 -2455.925537
vn -0.707107 0.000000 -0.707107
vt -2.123705 0.992115
v 2194.477783 -43.915497 -2413.447510
vn -0.707107 0.000000 -0.707107
vt -1.509068 0.496441
v 2236.955811 7.374879 -2455.925537
vn -0.707107 0.000000 -0.707107
vt -2.124523 0.000688
v 2151.999756 -95.205902 -2370.969238
vn -0.923880 0.000000 -0.382683
vt -1.061646 0.992736
v 2151.999756 -43.915501 -2310.895996
vn -1.000000 0.000000 0.000000
vt -0.495005 0.496754
v 2151.999756 7.389218 -2370.969238
vn -0.923880 0.000000 -0.382683
vt -1.062465 0.000767
v 2151.999756 -95.220253 -2250.822754
vn -0.923880 0.000000 0.382683
vt -0.094885 0.992741
v 2194.477783 -43.915508 -2208.344727
vn -0.707107 0.000000 0.707107
vt 0.539709 0.496444
v 2151.999756 7.389213 -2250.822754
vn -0.923880 0.000000 0.382683
vt -0.095703 0.000767
v 2236.956055 -95.220261 -2165.866455
vn -0.707107 0.000000 0.707107
vt 1.175122 0.992122
v 2236.956055 7.374866 -2165.866455
vn -0.707107 0.000000 0.707107
vt 1.174303 0.000689
v 2151.999756 -95.220253 -2250.822754
vn -0.923880 0.000000 0.382683
vt 0.072454 0.992741
v 2151.999756 7.389213 -2250.822754
vn -0.923880 0.000000 0.382683
vt 0.071636 0.000767
v 2151.999756 -95.205902 -2370.969238
vn -0.923880 0.000000 -0.382683
vt -0.893613 0.992736
v 2151.999756 7.389218 -2370.969238
vn -0.923880 0.000000 -0.382683
vt -0.894431 0.000767
f 28/28/28 30/30/30 31/31/31
f 30/30/30 28/28/28 29/29/29
f 32/32/32 29/29/29 28/28/28
f 29/29/29 32/32/32 33/33/33
f 36/36/36 30/30/30 35/35/35
f 29/29/29 35/35/35 30/30/30
f 35/35/35 29/29/29 34/34/34
f 33/33/33 34/34/34 29/29/29
f 2/2/2 6/6/6 9/9/9
f 6/6/6 2/2/2 5/5/5
f 7/7/7 5/5/5 2/2/2
f 9/9/9 3/3/3 2/2/2
f 2/2/2 8/8/8 7/7/7
f 8/8/8 2/2/2 1/1/1
f 3/3/3 1/1/1 2/2/2
f 1/1/1 3/3/3 4/4/4
f 11/11/11 15/15/15 18/18/18
f 15/15/15 11/11/11 14/14/14
f 16/16/16 14/14/14 11/11/11
f 18/18/18 12/12/12 11/11/11
f 11/11/11 17/17/17 16/16/16
f 17/17/17 11/11/11 10/10/10
f 12/12/12 10/10/10 11/11/11
f 10/10/10 12/12/12 13/13/13
f 23/23/23 24/24/24 20/20/20
f 27/27/27 20/20/20 24/24/24
f 20/20/20 27/27/27 21/21/21
f 20/20/20 25/25/25 23/23/23
f 20/20/20 26/26/26 25/25/25
f 26/26/26 20/20/20 19/19/19
f 21/21/21 19/19/19 20/20/20
f 19/19/19 21/21/21 22/22/22
f 38/38/38 37/37/37 50/50/50
f 37/37/37 38/38/38 39/39/39
f 51/51/51 39/39/39 38/38/38
f 50/50/50 51/51/51 38/38/38
f 41/41/41 40/40/40 48/48/48
f 40/40/40 41/41/41 42/42/42
f 49/49/49 42/42/42 41/41/41
f 48/48/48 49/49/49 41/41/41
f 44/44/44 43/43/43 46/46/46
f 43/43/43 44/44/44 45/45/45
f 47/47/47 45/45/45 44/44/44
f 46/46/46 47/47/47 44/44/44
