mtllib LAKETOWN_EXTERIOR_PS_LT_HANDRAILS74746__GX.mtl
g dRails74746__GX
usemtl wood_planks
v 3418.730225 15.763483 -3295.083740
vn -0.001192 0.999988 -0.004665
vt 1.507584 -0.002174
v 3405.021240 15.733530 -3295.083740
vn -0.895301 0.445459 -0.001737
vt 0.987923 -0.002174
v 3405.057861 16.431721 -3148.361084
vn -0.267501 0.802744 0.532960
vt 0.987923 1.000000
v 3592.627197 15.763477 -3162.116211
vn -0.001371 0.999999 0.000008
vt 1.507584 -0.002174
v 3592.627197 15.733508 -3148.407227
vn 0.000978 0.706220 0.707992
vt 0.987923 -0.002174
v 3764.360596 16.431705 -3148.443848
vn -0.003308 0.894468 0.447120
vt 0.987923 1.000000
v 3418.730225 2.579990 -3162.116455
vn 1.000000 -0.000002 0.000000
vt 0.506811 1.000000
v 3418.730225 2.979868 -3295.083740
vn 1.000000 -0.000005 -0.000001
vt 0.506812 -0.002174
v 3418.730225 15.763514 -3295.083740
vn 1.000000 -0.000002 0.000000
vt 0.987923 -0.002174
v 3418.730225 2.579990 -3162.116455
vn -0.001781 -0.999990 0.004120
vt -0.000000 1.000000
v 3405.110107 2.681919 -3148.453613
vn -0.894623 -0.446821 -0.000597
vt 0.506811 1.000000
v 3405.021240 3.007517 -3295.083740
vn -0.451402 -0.892318 -0.002060
vt 0.506812 -0.002174
v 3418.730225 2.979868 -3295.083740
vn -0.002017 -0.999994 -0.003007
vt -0.000000 -0.002174
v 3418.730225 16.371540 -3162.116455
vn 0.001705 0.999997 -0.001909
vt 1.507584 1.000000
v 3418.730225 16.371540 -3162.116455
vn 1.000000 0.000000 0.000000
vt 0.987923 1.000000
v 3418.730225 16.371540 -3162.116211
vn 0.000000 0.000000 -1.000000
vt 0.987923 -1.000000
v 3592.627197 15.763508 -3162.116211
vn 0.000000 0.000000 -1.000000
vt 0.987923 -0.002174
v 3592.627197 2.979862 -3162.116211
vn 0.000000 0.000000 -1.000000
vt 0.506812 -0.002174
v 3418.730225 2.580021 -3162.116211
vn 0.000000 0.000000 -1.000000
vt 0.506812 -1.000000
v 3764.156982 16.371540 -3162.116211
vn 0.000000 0.000000 -1.000000
vt 0.987923 1.000000
v 3764.156982 2.579990 -3162.116211
vn 0.000000 0.000000 -1.000000
vt 0.506811 1.000000
v 3592.627197 2.979862 -3162.116211
vn 0.000540 -0.999988 0.004961
vt -0.000000 -0.002174
v 3592.627197 3.007511 -3148.407227
vn -0.000367 -0.705745 0.708466
vt 0.506812 -0.002174
v 3405.057617 2.697849 -3148.360596
vn 0.001873 -0.892112 0.451810
vt 0.506812 -1.000000
v 3418.730225 2.580021 -3162.116211
vn -0.001781 -0.999990 0.004120
vt 0.000000 -1.000000
v 3405.057861 16.431736 -3148.360596
vn -0.267501 0.802744 0.532960
vt 0.987923 -1.000000
v 3418.730225 16.371540 -3162.116211
vn 0.001705 0.999997 -0.001909
vt 1.507585 -1.000000
v 3764.156982 2.579990 -3162.116211
vn -0.002112 -0.999986 0.004758
vt -0.000000 1.000000
v 3764.268066 2.681919 -3148.496094
vn -0.000511 -0.447223 0.894422
vt 0.506811 1.000000
v 3764.156982 16.371540 -3162.116211
vn -0.003545 0.999984 -0.004348
vt 1.507584 1.000000
f 9/9/9 7/7/7 8/8/8
f 7/7/7 9/9/9 15/15/15
f 25/25/25 22/22/22 24/24/24
f 23/23/23 24/24/24 22/22/22
f 24/24/24 23/23/23 26/26/26
f 5/5/5 26/26/26 23/23/23
f 26/26/26 5/5/5 27/27/27
f 4/4/4 27/27/27 5/5/5
f 30/30/30 4/4/4 6/6/6
f 5/5/5 6/6/6 4/4/4
f 6/6/6 5/5/5 29/29/29
f 23/23/23 29/29/29 5/5/5
f 29/29/29 23/23/23 28/28/28
f 22/22/22 28/28/28 23/23/23
f 14/14/14 1/1/1 3/3/3
f 2/2/2 3/3/3 1/1/1
f 3/3/3 2/2/2 11/11/11
f 12/12/12 11/11/11 2/2/2
f 11/11/11 12/12/12 10/10/10
f 13/13/13 10/10/10 12/12/12
f 19/19/19 16/16/16 18/18/18
f 17/17/17 18/18/18 16/16/16
f 18/18/18 17/17/17 21/21/21
f 20/20/20 21/21/21 17/17/17
usemtl wood_beam
v 3411.974609 5.945572 -3161.568604
vn -0.000010 0.000000 -1.000000
vt 0.000000 -0.003802
v 3426.659668 5.945572 -3161.568604
vn -0.000009 0.000000 -1.000000
vt 0.000000 -0.976202
v 3425.191162 -81.290771 -3161.568604
vn -0.000010 0.000000 -1.000000
vt 0.333350 -0.976202
v 3413.443115 -81.282516 -3161.568604
vn -0.000011 0.000000 -1.000000
vt 0.333350 -0.003802
v 3758.308594 -81.290771 -3161.568604
vn 0.894903 -0.015089 -0.446006
vt 0.333350 -0.003802
v 3759.781738 5.945572 -3161.568604
vn 0.447483 -0.007557 -0.894260
vt 0.000000 -0.003802
v 3759.758301 5.945571 -3148.991943
vn 0.999856 -0.016859 0.001687
vt 0.000000 0.968598
v 3425.191162 -81.290771 -3161.568604
vn 0.999857 -0.016858 -0.001681
vt 0.333350 -1.948602
v 3426.659668 5.945572 -3161.568604
vn 0.999857 -0.016831 -0.001868
vt 0.000000 -1.948602
v 3426.683350 5.945571 -3148.991943
vn 0.894901 -0.015089 0.446010
vt 0.000000 -0.976202
v 3425.209961 -81.290771 -3148.991943
vn 0.447417 -0.007556 0.894293
vt 0.333350 -0.976202
v 3411.951172 5.945571 -3148.991943
vn -0.447483 -0.007557 0.894260
vt 0.000000 -0.003802
v 3413.424316 -81.290771 -3148.991943
vn -0.894903 -0.015089 0.446006
vt 0.333350 -0.003802
v 3411.974609 5.945572 -3161.568604
vn -0.999856 -0.016859 -0.001687
vt 0.000000 0.968598
v 3413.443115 -81.282516 -3161.568604
vn -0.999857 -0.016833 -0.001505
vt 0.333300 0.968598
v 3601.588135 5.945571 -3148.991943
vn 0.000010 0.000000 1.000000
vt 0.000000 -0.003802
v 3586.903076 5.945571 -3148.991943
vn 0.000009 0.000000 1.000000
vt 0.000000 -0.976202
v 3588.371582 -81.290771 -3148.991943
vn 0.000010 0.000000 1.000000
vt 0.333350 -0.976202
v 3600.119629 -81.282516 -3148.991943
vn 0.000011 0.000000 1.000000
vt 0.333350 -0.003802
v 3588.371582 -81.290771 -3148.991943
vn -0.999857 -0.016858 0.001681
vt 0.333350 -1.948602
v 3586.903076 5.945571 -3148.991943
vn -0.999857 -0.016831 0.001868
vt 0.000000 -1.948602
v 3586.879639 5.945572 -3161.568604
vn -0.894901 -0.015089 -0.446010
vt 0.000000 -0.976202
v 3588.352783 -81.290771 -3161.568604
vn -0.447417 -0.007556 -0.894293
vt 0.333350 -0.976202
v 3601.611572 5.945572 -3161.568604
vn 0.447483 -0.007557 -0.894260
vt 0.000000 -0.003802
v 3600.138428 -81.290771 -3161.568604
vn 0.894903 -0.015089 -0.446006
vt 0.333350 -0.003802
v 3601.588135 5.945571 -3148.991943
vn 0.999856 -0.016859 0.001687
vt 0.000000 0.968598
v 3600.119629 -81.282516 -3148.991943
vn 0.999857 -0.016833 0.001505
vt 0.333300 0.968598
v 3759.758301 5.945571 -3148.991943
vn 0.000010 0.000000 1.000000
vt 0.000000 -0.003802
v 3745.073242 5.945571 -3148.991699
vn 0.000009 0.000000 1.000000
vt 0.000000 -0.976202
v 3746.541748 -81.290771 -3148.991943
vn 0.000010 0.000000 1.000000
vt 0.333350 -0.976202
v 3758.289795 -81.282516 -3148.991943
vn 0.000011 0.000000 1.000000
vt 0.333350 -0.003802
v 3746.541748 -81.290771 -3148.991943
vn -0.999857 -0.016858 0.001682
vt 0.333350 -1.948602
v 3745.073242 5.945571 -3148.991699
vn -0.999857 -0.016831 0.001868
vt 0.000000 -1.948602
v 3745.049805 5.945572 -3161.568604
vn -0.894901 -0.015089 -0.446010
vt 0.000000 -0.976202
v 3746.522949 -81.290771 -3161.568604
vn -0.447417 -0.007556 -0.894293
vt 0.333350 -0.976202
v 3758.289795 -81.282516 -3148.991943
vn 0.999857 -0.016833 0.001505
vt 0.333300 0.968598
f 31/31/31 33/33/33 34/34/34
f 33/33/33 31/31/31 32/32/32
f 64/64/64 62/62/62 63/63/63
f 62/62/62 64/64/64 65/65/65
f 36/36/36 65/65/65 64/64/64
f 65/65/65 36/36/36 35/35/35
f 37/37/37 35/35/35 36/36/36
f 35/35/35 37/37/37 66/66/66
f 40/40/40 38/38/38 39/39/39
f 38/38/38 40/40/40 41/41/41
f 42/42/42 41/41/41 40/40/40
f 41/41/41 42/42/42 43/43/43
f 44/44/44 43/43/43 42/42/42
f 43/43/43 44/44/44 45/45/45
f 55/55/55 56/56/56 57/57/57
f 56/56/56 55/55/55 54/54/54
f 53/53/53 54/54/54 55/55/55
f 54/54/54 53/53/53 52/52/52
f 50/50/50 52/52/52 53/53/53
f 52/52/52 50/50/50 51/51/51
f 48/48/48 46/46/46 47/47/47
f 46/46/46 48/48/48 49/49/49
f 60/60/60 58/58/58 59/59/59
f 58/58/58 60/60/60 61/61/61
