mtllib LAKETOWN_EXTERIOR_PS_LT_ENT_WINDOWS33938.mtl
g nt_Windows33938
usemtl donut_window
v -2612.815674 330.188873 -3141.337158
vn 1.000000 0.000000 0.000000
vt 1.000000 0.000000
v -2612.815430 330.188873 -3024.057861
vn 1.000000 0.000000 0.000000
vt 0.000000 0.000000
v -2612.815430 183.730682 -3024.057861
vn 1.000000 0.000000 0.000000
vt 0.000000 1.000000
v -2612.815674 183.730682 -3141.337158
vn 1.000000 0.000000 0.000000
vt 1.000000 1.000000
v -2612.815430 330.188873 -3419.290771
vn 1.000000 0.000000 0.000000
vt 1.000000 0.000000
v -2612.815430 330.188873 -3302.011475
vn 1.000000 0.000000 0.000000
vt 0.000000 0.000000
v -2612.815430 183.730698 -3302.011475
vn 1.000000 0.000000 0.000000
vt 0.000000 1.000000
v -2612.815430 183.730698 -3419.290771
vn 1.000000 0.000000 0.000000
vt 1.000000 1.000000
v -1845.471191 464.854309 -3361.498535
vn 0.000000 0.000000 1.000000
vt 1.000000 0.000000
v -1962.750488 464.854309 -3361.498535
vn 0.000000 0.000000 1.000000
vt 0.000000 0.000000
v -1962.750488 318.396118 -3361.498535
vn 0.000000 0.000000 1.000000
vt 0.000000 1.000000
v -1845.471191 318.396118 -3361.498535
vn 0.000000 0.000000 1.000000
vt 1.000000 1.000000
v -1463.955078 464.854309 -3361.498535
vn 0.000000 0.000000 1.000000
vt 1.000000 0.000000
v -1581.234375 464.854309 -3361.498535
vn 0.000000 0.000000 1.000000
vt 0.000000 0.000000
v -1581.234375 318.396118 -3361.498535
vn 0.000000 0.000000 1.000000
vt 0.000000 1.000000
v -1463.955078 318.396118 -3361.498535
vn 0.000000 0.000000 1.000000
vt 1.000000 1.000000
f 3/3/3 1/1/1 2/2/2
f 1/1/1 3/3/3 4/4/4
f 7/7/7 5/5/5 6/6/6
f 5/5/5 7/7/7 8/8/8
f 11/11/11 9/9/9 10/10/10
f 9/9/9 11/11/11 12/12/12
f 15/15/15 13/13/13 14/14/14
f 13/13/13 15/15/15 16/16/16
