mtllib LAKETOWN_WAREHOUSE1_PS_WH1_MAINFLOOR93938.mtl
g _MainFloor93938
usemtl LT_Floor_01
v -1807.409790 -4833.627441 5546.562988
vn 0.000000 1.000000 0.000000
vt -3.239896 3.476432
v -1985.625732 -4833.627441 5546.562500
vn 0.000000 1.000000 0.000000
vt -2.561236 3.476433
v -1985.629150 -4833.627441 5743.557129
vn 0.000000 1.000000 0.000000
vt -2.561223 2.875217
v -1807.409790 -4833.627441 5743.557129
vn 0.000000 1.000000 0.000000
vt -3.239895 2.875216
v -3072.953369 -4833.627441 4167.602051
vn 0.000000 1.000000 0.000000
vt 1.579384 3.684944
v -3072.955811 -4833.627441 4364.596680
vn 0.000001 1.000000 0.000000
vt 1.579395 3.083729
v -2894.755371 -4833.627441 4364.596680
vn 0.000000 1.000000 0.000000
vt 0.900794 3.083728
v -2894.755615 -4833.627441 4167.602539
vn 0.000000 1.000000 0.000000
vt 0.900794 3.684944
v -3415.916504 -4833.626953 4167.602539
vn 0.000000 1.000000 0.000000
vt 2.885413 3.684944
v -3415.921631 -4833.626953 4364.596680
vn 0.000000 1.000000 0.000000
vt 2.885434 3.083729
v -3251.156250 -4833.626953 4364.596680
vn 0.000001 1.000000 0.000000
vt 2.257996 3.083729
v -3251.151123 -4833.626953 4167.602051
vn 0.000001 1.000000 0.000000
vt 2.257975 3.684945
v -3758.882813 -4833.627441 4167.602539
vn -0.000001 1.000000 0.000000
vt 3.191454 3.684943
v -3758.882813 -4833.627441 4364.597168
vn -0.000001 1.000000 0.000000
vt 3.191454 3.083727
v -3580.687012 -4833.626953 4364.596680
vn -0.000001 1.000000 0.000000
vt 2.512872 3.083728
v -3580.681885 -4833.626953 4167.602539
vn 0.000000 1.000000 0.000000
vt 2.512851 3.684943
v -2328.559570 -4833.627441 4167.602051
vn 0.000000 1.000000 0.000000
vt -1.255322 3.684944
v -2328.566162 -4833.627441 4364.596680
vn 0.000000 1.000000 0.000000
vt -1.255296 3.083729
v -2163.800781 -4833.627441 4364.596680
vn 0.000000 1.000000 0.000000
vt -1.882734 3.083729
v -2163.794189 -4833.627441 4167.602051
vn 0.000000 1.000000 0.000000
vt -1.882760 3.684944
v -2694.040283 -4833.627441 4167.602051
vn 0.000000 1.000000 0.000000
vt 0.136456 3.684944
v -2694.043457 -4833.627441 4364.596680
vn 0.000000 1.000000 0.000000
vt 0.136469 3.083729
v -2493.331543 -4833.627441 4364.596680
vn 0.000000 1.000000 0.000000
vt -0.627857 3.083729
v -2493.324951 -4833.627441 4167.602051
vn 0.000000 1.000000 0.000000
vt -0.627883 3.684944
v -1807.409912 -4833.627441 4758.585938
vn 0.000000 1.000000 0.000000
vt -3.239897 3.881295
v -1985.612183 -4833.627441 4758.585449
vn 0.000000 1.000000 0.000000
vt -2.561289 3.881296
v -1985.615601 -4833.627441 4955.579590
vn 0.000000 1.000000 0.000000
vt -2.561276 3.280080
v -1807.409912 -4833.627441 4955.580078
vn 0.000000 1.000000 0.000000
vt -3.239896 3.280079
v -3758.882813 -4833.627441 5152.574219
vn -0.000001 1.000000 0.000000
vt 3.191455 2.678864
v -3580.708496 -4833.626953 5152.574219
vn -0.000001 1.000000 0.000000
vt 2.512955 2.678865
v -3580.703125 -4833.626953 4955.580078
vn -0.000001 1.000000 0.000000
vt 2.512934 3.280081
v -3758.882813 -4833.627441 4955.580078
vn -0.000001 1.000000 0.000000
vt 3.191455 3.280080
v -3251.178223 -4833.626953 5152.573730
vn 0.000001 1.000000 0.000000
vt 2.258079 2.678866
v -3072.966797 -4833.627441 5152.573730
vn 0.000001 1.000000 0.000000
vt 1.579437 2.678866
v -3072.963867 -4833.627441 4955.579590
vn 0.000001 1.000000 0.000000
vt 1.579427 3.280082
v -3251.172607 -4833.626953 4955.579102
vn 0.000001 1.000000 0.000000
vt 2.258058 3.280082
v -2894.755371 -4833.627441 5152.573730
vn 0.000000 1.000000 0.000000
vt 0.900795 2.678865
v -2694.057129 -4833.627441 5152.573730
vn 0.000000 1.000000 0.000000
vt 0.136521 2.678866
v -2694.053711 -4833.627441 4955.579590
vn 0.000000 1.000000 0.000000
vt 0.136508 3.280081
v -2894.755371 -4833.627441 4955.579590
vn 0.000000 1.000000 0.000000
vt 0.900795 3.280081
v -3580.708496 -4833.626953 5152.574219
vn -0.000001 1.000000 0.000000
vt 3.512955 2.678865
v -3415.943359 -4833.626953 5152.574219
vn 0.000000 1.000000 0.000000
vt 2.885517 2.678866
v -3415.937988 -4833.626953 4955.579590
vn 0.000000 1.000000 0.000000
vt 2.885496 3.280081
v -3580.703125 -4833.626953 4955.580078
vn -0.000001 1.000000 0.000000
vt 3.512934 3.280081
v -2493.358887 -4833.627441 5152.573730
vn 0.000000 1.000000 0.000000
vt -0.627752 2.678866
v -2328.593262 -4833.627441 5152.573730
vn 0.000000 1.000000 0.000000
vt -1.255191 2.678866
v -2328.586426 -4833.627441 4955.579102
vn 0.000000 1.000000 0.000000
vt -1.255217 3.280082
v -2493.352051 -4833.627441 4955.579102
vn 0.000000 1.000000 0.000000
vt -0.627778 3.280082
v -1807.409790 -4833.627441 5349.568848
vn 0.000000 1.000000 0.000000
vt -3.239896 3.077648
v -1985.622314 -4833.627441 5349.568359
vn 0.000000 1.000000 0.000000
vt -2.561250 3.077649
v -1985.625732 -4833.627441 5546.562500
vn 0.000000 1.000000 0.000000
vt -2.561236 2.476433
v -1807.409790 -4833.627441 5546.562988
vn 0.000000 1.000000 0.000000
vt -3.239896 2.476432
v -1985.618896 -4833.627441 5152.574219
vn 0.000000 1.000000 0.000000
vt -2.561263 2.678864
v -1807.409790 -4833.627441 5152.574219
vn 0.000000 1.000000 0.000000
vt -3.239896 2.678863
v -3758.882813 -4833.627441 5349.568848
vn -0.000001 1.000000 0.000000
vt 3.191455 3.077649
v -3580.713867 -4833.626953 5349.568359
vn -0.000001 1.000000 0.000000
vt 2.512976 3.077650
v -3580.708496 -4833.626953 5152.574219
vn -0.000001 1.000000 0.000000
vt 2.512955 3.678865
v -3758.882813 -4833.627441 5152.574219
vn -0.000001 1.000000 0.000000
vt 3.191455 3.678864
v -3758.882813 -4833.627441 5743.557617
vn -0.000001 1.000000 0.000000
vt 3.191456 2.875218
v -3580.724609 -4833.627441 5743.557129
vn 0.000000 1.000000 0.000000
vt 2.513017 2.875218
v -3580.719238 -4833.626953 5546.562988
vn -0.000001 1.000000 0.000000
vt 2.512997 3.476434
v -3758.882813 -4833.627441 5546.562988
vn -0.000001 1.000000 0.000000
vt 3.191456 3.476433
v -3251.183594 -4833.626953 5349.567871
vn 0.000001 1.000000 0.000000
vt 2.258100 3.077651
v -3072.969238 -4833.627441 5349.568359
vn 0.000001 1.000000 0.000000
vt 1.579447 3.077651
v -3072.966797 -4833.627441 5152.573730
vn 0.000001 1.000000 0.000000
vt 1.579437 3.678866
v -3251.178223 -4833.626953 5152.573730
vn 0.000001 1.000000 0.000000
vt 2.258079 3.678866
v -3251.194336 -4833.627441 5743.556641
vn 0.000001 1.000000 0.000000
vt 2.258141 2.875220
v -3072.974609 -4833.627441 5743.556641
vn 0.000001 1.000000 0.000000
vt 1.579468 2.875219
v -3072.972168 -4833.627441 5546.562500
vn 0.000001 1.000000 0.000000
vt 1.579458 3.476435
v -3251.188965 -4833.626953 5546.562500
vn 0.000001 1.000000 0.000000
vt 2.258121 3.476436
v -2894.755371 -4833.627441 5349.568359
vn 0.000000 1.000000 0.000000
vt 0.900795 3.077650
v -2694.060547 -4833.627441 5349.567871
vn 0.000000 1.000000 0.000000
vt 0.136535 3.077651
v -2694.057129 -4833.627441 5152.573730
vn 0.000000 1.000000 0.000000
vt 0.136521 3.678866
v -2894.755371 -4833.627441 5152.573730
vn 0.000000 1.000000 0.000000
vt 0.900795 3.678865
v -2894.755371 -4833.627441 5743.556641
vn 0.000000 1.000000 0.000000
vt 0.900796 2.875219
v -2694.067383 -4833.627441 5743.556641
vn 0.000000 1.000000 0.000000
vt 0.136561 2.875219
v -2694.063965 -4833.627441 5546.562500
vn 0.000000 1.000000 0.000000
vt 0.136548 3.476435
v -2894.755371 -4833.627441 5546.562500
vn 0.000000 1.000000 0.000000
vt 0.900795 3.476434
v -3580.713867 -4833.626953 5349.568359
vn -0.000001 1.000000 0.000000
vt 3.512976 3.077650
v -3415.948730 -4833.626953 5349.568359
vn 0.000000 1.000000 0.000000
vt 2.885538 3.077650
v -3415.943359 -4833.626953 5152.574219
vn 0.000000 1.000000 0.000000
vt 2.885517 3.678866
v -3580.708496 -4833.626953 5152.574219
vn -0.000001 1.000000 0.000000
vt 3.512955 3.678865
v -3580.724609 -4833.627441 5743.557129
vn 0.000000 1.000000 0.000000
vt 3.513017 2.875218
v -3415.959473 -4833.627441 5743.556641
vn 0.000000 1.000000 0.000000
vt 2.885579 2.875219
v -3415.954102 -4833.626953 5546.562500
vn 0.000000 1.000000 0.000000
vt 2.885559 3.476435
v -3580.719238 -4833.626953 5546.562988
vn -0.000001 1.000000 0.000000
vt 3.512997 3.476434
v -2493.365723 -4833.627441 5349.567871
vn 0.000000 1.000000 0.000000
vt -0.627726 3.077651
v -2328.600098 -4833.627441 5349.567871
vn 0.000000 1.000000 0.000000
vt -1.255165 3.077650
v -2328.593262 -4833.627441 5152.573730
vn 0.000000 1.000000 0.000000
vt -1.255191 3.678866
v -2493.358887 -4833.627441 5152.573730
vn 0.000000 1.000000 0.000000
vt -0.627752 3.678866
v -2493.379150 -4833.627441 5743.556641
vn 0.000000 1.000000 0.000000
vt -0.627674 2.875219
v -2328.613770 -4833.627441 5743.556641
vn 0.000000 1.000000 0.000000
vt -1.255113 2.875219
v -2328.606934 -4833.627441 5546.562500
vn 0.000000 1.000000 0.000000
vt -1.255139 3.476435
v -2493.372559 -4833.627441 5546.562012
vn 0.000000 1.000000 0.000000
vt -0.627700 3.476435
v -1807.409790 -4833.627441 5152.574219
vn 0.000000 1.000000 0.000000
vt -3.239896 3.678863
v -1985.618896 -4833.627441 5152.574219
vn 0.000000 1.000000 0.000000
vt -2.561263 3.678864
v -3758.882813 -4833.627441 5546.562988
vn -0.000001 1.000000 0.000000
vt 3.191456 2.476433
v -3580.719238 -4833.626953 5546.562988
vn -0.000001 1.000000 0.000000
vt 2.512997 2.476434
v -3251.188965 -4833.626953 5546.562500
vn 0.000001 1.000000 0.000000
vt 2.258121 2.476436
v -3072.972168 -4833.627441 5546.562500
vn 0.000001 1.000000 0.000000
vt 1.579458 2.476435
v -2894.755371 -4833.627441 5546.562500
vn 0.000000 1.000000 0.000000
vt 0.900795 2.476434
v -2694.063965 -4833.627441 5546.562500
vn 0.000000 1.000000 0.000000
vt 0.136548 2.476435
v -3580.719238 -4833.626953 5546.562988
vn -0.000001 1.000000 0.000000
vt 3.512997 2.476434
v -3415.954102 -4833.626953 5546.562500
vn 0.000000 1.000000 0.000000
vt 2.885559 2.476435
v -2493.372559 -4833.627441 5546.562012
vn 0.000000 1.000000 0.000000
vt -0.627700 2.476435
v -2328.606934 -4833.627441 5546.562500
vn 0.000000 1.000000 0.000000
vt -1.255139 2.476435
v -3758.882813 -4833.627441 4561.591309
vn -0.000001 1.000000 0.000000
vt 3.191455 2.482512
v -3580.692383 -4833.626953 4561.591309
vn -0.000001 1.000000 0.000000
vt 2.512892 2.482512
v -3580.697754 -4833.626953 4758.585449
vn -0.000001 1.000000 0.000000
vt 2.512913 3.881296
v -3758.882813 -4833.627441 4758.585938
vn -0.000001 1.000000 0.000000
vt 3.191455 3.881296
v -3251.161621 -4833.626953 4561.590820
vn 0.000001 1.000000 0.000000
vt 2.258016 2.482513
v -3072.958496 -4833.627441 4561.590820
vn 0.000001 1.000000 0.000000
vt 1.579405 2.482513
v -3072.961182 -4833.627441 4758.584961
vn 0.000001 1.000000 0.000000
vt 1.579416 3.881298
v -3251.166992 -4833.626953 4758.584961
vn 0.000001 1.000000 0.000000
vt 2.258037 3.881298
v -2894.755371 -4833.627441 4561.590820
vn 0.000000 1.000000 0.000000
vt 0.900794 2.482512
v -2694.046875 -4833.627441 4561.590820
vn 0.000000 1.000000 0.000000
vt 0.136482 2.482513
v -2694.050293 -4833.627441 4758.584961
vn 0.000000 1.000000 0.000000
vt 0.136495 3.881297
v -2894.755371 -4833.627441 4758.585449
vn 0.000000 1.000000 0.000000
vt 0.900795 3.881297
v -3580.692383 -4833.626953 4561.591309
vn -0.000001 1.000000 0.000000
vt 3.512892 2.482512
v -3415.927002 -4833.626953 4561.590820
vn 0.000000 1.000000 0.000000
vt 2.885454 2.482512
v -3580.687012 -4833.626953 4364.596680
vn -0.000001 1.000000 0.000000
vt 3.512872 3.083728
v -3415.932373 -4833.626953 4758.585449
vn 0.000000 1.000000 0.000000
vt 2.885475 3.881297
v -3580.697754 -4833.626953 4758.585449
vn -0.000001 1.000000 0.000000
vt 3.512913 3.881296
v -2493.338379 -4833.627441 4561.590820
vn 0.000000 1.000000 0.000000
vt -0.627831 2.482513
v -2328.572998 -4833.627441 4561.590820
vn 0.000000 1.000000 0.000000
vt -1.255269 2.482512
v -2328.579590 -4833.627441 4758.584961
vn 0.000000 1.000000 0.000000
vt -1.255243 3.881297
v -2493.345215 -4833.627441 4758.584961
vn 0.000000 1.000000 0.000000
vt -0.627805 3.881298
v -1807.409790 -4833.627441 4561.591309
vn 0.000000 1.000000 0.000000
vt -3.239897 3.482510
v -1985.608765 -4833.627441 4561.590820
vn 0.000000 1.000000 0.000000
vt -2.561302 3.482512
v -1985.612183 -4833.627441 4758.585449
vn 0.000000 1.000000 0.000000
vt -2.561289 2.881296
v -1807.409912 -4833.627441 4758.585938
vn 0.000000 1.000000 0.000000
vt -3.239897 2.881295
v -1807.409790 -4833.627441 4167.602539
vn 0.000000 1.000000 0.000000
vt -3.239897 3.684941
v -1985.601929 -4833.627441 4167.602539
vn 0.000000 1.000000 0.000000
vt -2.561329 3.684942
v -1985.605347 -4833.627441 4364.596680
vn 0.000000 1.000000 0.000000
vt -2.561316 3.083727
v -1807.409790 -4833.627441 4364.597168
vn 0.000000 1.000000 0.000000
vt -3.239897 3.083726
v -3758.882813 -4833.627441 4758.585938
vn -0.000001 1.000000 0.000000
vt 3.191455 2.881296
v -3580.697754 -4833.626953 4758.585449
vn -0.000001 1.000000 0.000000
vt 2.512913 2.881296
v -3580.692383 -4833.626953 4561.591309
vn -0.000001 1.000000 0.000000
vt 2.512892 3.482512
v -3758.882813 -4833.627441 4561.591309
vn -0.000001 1.000000 0.000000
vt 3.191455 3.482512
v -3251.166992 -4833.626953 4758.584961
vn 0.000001 1.000000 0.000000
vt 2.258037 2.881298
v -3072.961182 -4833.627441 4758.584961
vn 0.000001 1.000000 0.000000
vt 1.579416 2.881298
v -3072.958496 -4833.627441 4561.590820
vn 0.000001 1.000000 0.000000
vt 1.579405 3.482513
v -3251.161621 -4833.626953 4561.590820
vn 0.000001 1.000000 0.000000
vt 2.258016 3.482513
v -2894.755371 -4833.627441 4758.585449
vn 0.000000 1.000000 0.000000
vt 0.900795 2.881297
v -2694.050293 -4833.627441 4758.584961
vn 0.000000 1.000000 0.000000
vt 0.136495 2.881297
v -2694.046875 -4833.627441 4561.590820
vn 0.000000 1.000000 0.000000
vt 0.136482 3.482513
v -2894.755371 -4833.627441 4561.590820
vn 0.000000 1.000000 0.000000
vt 0.900794 3.482512
v -3580.697754 -4833.626953 4758.585449
vn -0.000001 1.000000 0.000000
vt 3.512913 2.881296
v -3415.932373 -4833.626953 4758.585449
vn 0.000000 1.000000 0.000000
vt 2.885475 2.881297
v -3415.927002 -4833.626953 4561.590820
vn 0.000000 1.000000 0.000000
vt 2.885454 3.482512
v -3580.692383 -4833.626953 4561.591309
vn -0.000001 1.000000 0.000000
vt 3.512892 3.482512
v -2493.345215 -4833.627441 4758.584961
vn 0.000000 1.000000 0.000000
vt -0.627805 2.881298
v -2328.579590 -4833.627441 4758.584961
vn 0.000000 1.000000 0.000000
vt -1.255243 2.881297
v -2328.572998 -4833.627441 4561.590820
vn 0.000000 1.000000 0.000000
vt -1.255269 3.482512
v -2493.338379 -4833.627441 4561.590820
vn 0.000000 1.000000 0.000000
vt -0.627831 3.482513
v -1985.608765 -4833.627441 4561.590820
vn 0.000000 1.000000 0.000000
vt -2.561302 2.482512
v -1807.409790 -4833.627441 4561.591309
vn 0.000000 1.000000 0.000000
vt -3.239897 2.482510
v -2163.841553 -4833.627441 5546.562500
vn 0.000000 1.000000 0.000000
vt -1.882577 3.476434
v -2163.848389 -4833.627441 5743.556641
vn 0.000000 1.000000 0.000000
vt -1.882551 2.875219
v -2163.814453 -4833.627441 4758.584961
vn 0.000000 1.000000 0.000000
vt -1.882682 3.881297
v -2163.821045 -4833.627441 4955.579590
vn 0.000000 1.000000 0.000000
vt -1.882656 3.280081
v -2163.827881 -4833.627441 5152.573730
vn 0.000000 1.000000 0.000000
vt -1.882630 2.678865
v -2163.834717 -4833.627441 5349.567871
vn 0.000000 1.000000 0.000000
vt -1.882603 3.077650
v -2163.841553 -4833.627441 5546.562500
vn 0.000000 1.000000 0.000000
vt -1.882577 2.476434
v -2163.827881 -4833.627441 5152.573730
vn 0.000000 1.000000 0.000000
vt -1.882630 3.678865
v -2163.807617 -4833.627441 4561.590820
vn 0.000000 1.000000 0.000000
vt -1.882708 3.482512
v -2163.814453 -4833.627441 4758.584961
vn 0.000000 1.000000 0.000000
vt -1.882682 2.881297
v -2163.807617 -4833.627441 4561.590820
vn 0.000000 1.000000 0.000000
vt -1.882708 2.482512
v -3580.681885 -4833.626953 4167.602539
vn 0.000000 1.000000 0.000000
vt 3.512851 3.684943
v -3580.681885 -4833.626953 4156.100586
vn 0.000000 1.000000 0.000000
vt 3.512852 3.720048
v -3251.151611 -4833.626953 4156.123047
vn 0.000000 1.000000 0.000000
vt 2.257976 3.719978
f 61/61/61 59/59/59 60/60/60
f 59/59/59 61/61/61 62/62/62
f 36/36/36 113/113/113 114/114/114
f 113/113/113 36/36/36 35/35/35
f 33/33/33 35/35/35 36/36/36
f 35/35/35 33/33/33 34/34/34
f 118/118/118 113/113/113 40/40/40
f 35/35/35 40/40/40 113/113/113
f 40/40/40 35/35/35 37/37/37
f 34/34/34 37/37/37 35/35/35
f 39/39/39 37/37/37 38/38/38
f 37/37/37 39/39/39 40/40/40
f 117/117/117 40/40/40 39/39/39
f 40/40/40 117/117/117 118/118/118
f 127/127/127 117/117/117 48/48/48
f 39/39/39 48/48/48 117/117/117
f 48/48/48 39/39/39 45/45/45
f 38/38/38 45/45/45 39/39/39
f 47/47/47 45/45/45 46/46/46
f 45/45/45 47/47/47 48/48/48
f 126/126/126 48/48/48 47/47/47
f 48/48/48 126/126/126 127/127/127
f 160/160/160 126/126/126 161/161/161
f 47/47/47 161/161/161 126/126/126
f 161/161/161 47/47/47 162/162/162
f 46/46/46 162/162/162 47/47/47
f 162/162/162 53/53/53 161/161/161
f 27/27/27 161/161/161 53/53/53
f 161/161/161 27/27/27 160/160/160
f 26/26/26 160/160/160 27/27/27
f 27/27/27 25/25/25 26/26/26
f 25/25/25 27/27/27 28/28/28
f 53/53/53 28/28/28 27/27/27
f 28/28/28 53/53/53 54/54/54
f 132/132/132 133/133/133 134/134/134
f 20/20/20 134/134/134 133/133/133
f 134/134/134 20/20/20 19/19/19
f 17/17/17 19/19/19 20/20/20
f 19/19/19 17/17/17 18/18/18
f 24/24/24 18/18/18 17/17/17
f 18/18/18 24/24/24 23/23/23
f 21/21/21 23/23/23 24/24/24
f 23/23/23 21/21/21 22/22/22
f 8/8/8 22/22/22 21/21/21
f 22/22/22 8/8/8 7/7/7
f 5/5/5 7/7/7 8/8/8
f 7/7/7 5/5/5 6/6/6
f 12/12/12 6/6/6 5/5/5
f 6/6/6 12/12/12 11/11/11
f 9/9/9 11/11/11 12/12/12
f 11/11/11 9/9/9 10/10/10
f 169/169/169 10/10/10 9/9/9
f 169/169/169 121/121/121 10/10/10
f 170/170/170 169/169/169 9/9/9
f 9/9/9 12/12/12 171/171/171
f 10/10/10 121/121/121 119/119/119
f 6/6/6 11/11/11 111/111/111
f 10/10/10 111/111/111 11/11/11
f 111/111/111 10/10/10 120/120/120
f 119/119/119 120/120/120 10/10/10
f 22/22/22 7/7/7 115/115/115
f 6/6/6 115/115/115 7/7/7
f 115/115/115 6/6/6 112/112/112
f 111/111/111 112/112/112 6/6/6
f 18/18/18 23/23/23 124/124/124
f 22/22/22 124/124/124 23/23/23
f 124/124/124 22/22/22 116/116/116
f 115/115/115 116/116/116 22/22/22
f 134/134/134 135/135/135 132/132/132
f 135/135/135 134/134/134 156/156/156
f 19/19/19 156/156/156 134/134/134
f 156/156/156 19/19/19 168/168/168
f 18/18/18 168/168/168 19/19/19
f 168/168/168 18/18/18 125/125/125
f 124/124/124 125/125/125 18/18/18
f 156/156/156 157/157/157 135/135/135
f 89/89/89 90/90/90 87/87/87
f 73/73/73 87/87/87 90/90/90
f 87/87/87 73/73/73 72/72/72
f 71/71/71 72/72/72 73/73/73
f 72/72/72 71/71/71 101/101/101
f 64/64/64 101/101/101 71/71/71
f 101/101/101 64/64/64 100/100/100
f 99/99/99 100/100/100 64/64/64
f 73/73/73 74/74/74 71/71/71
f 65/65/65 71/71/71 74/74/74
f 71/71/71 65/65/65 64/64/64
f 63/63/63 64/64/64 65/65/65
f 64/64/64 63/63/63 99/99/99
f 80/80/80 99/99/99 63/63/63
f 99/99/99 80/80/80 104/104/104
f 103/103/103 104/104/104 80/80/80
f 65/65/65 66/66/66 63/63/63
f 81/81/81 63/63/63 66/66/66
f 63/63/63 81/81/81 80/80/80
f 79/79/79 80/80/80 81/81/81
f 80/80/80 79/79/79 103/103/103
f 81/81/81 82/82/82 79/79/79
f 95/95/95 96/96/96 50/50/50
f 165/165/165 50/50/50 96/96/96
f 50/50/50 165/165/165 163/163/163
f 89/89/89 163/163/163 165/165/165
f 163/163/163 89/89/89 88/88/88
f 87/87/87 88/88/88 89/89/89
f 88/88/88 87/87/87 105/105/105
f 72/72/72 105/105/105 87/87/87
f 105/105/105 72/72/72 102/102/102
f 101/101/101 102/102/102 72/72/72
f 50/50/50 49/49/49 95/95/95
f 49/49/49 50/50/50 51/51/51
f 163/163/163 51/51/51 50/50/50
f 51/51/51 163/163/163 164/164/164
f 88/88/88 164/164/164 163/163/163
f 164/164/164 88/88/88 106/106/106
f 105/105/105 106/106/106 88/88/88
f 51/51/51 52/52/52 49/49/49
f 91/91/91 92/92/92 93/93/93
f 159/159/159 93/93/93 92/92/92
f 93/93/93 159/159/159 158/158/158
f 3/3/3 158/158/158 159/159/159
f 158/158/158 3/3/3 2/2/2
f 1/1/1 2/2/2 3/3/3
f 3/3/3 4/4/4 1/1/1
f 93/93/93 94/94/94 91/91/91
f 77/77/77 91/91/91 94/94/94
f 91/91/91 77/77/77 76/76/76
f 75/75/75 76/76/76 77/77/77
f 77/77/77 78/78/78 75/75/75
f 69/69/69 75/75/75 78/78/78
f 75/75/75 69/69/69 68/68/68
f 67/67/67 68/68/68 69/69/69
f 69/69/69 70/70/70 67/67/67
f 85/85/85 67/67/67 70/70/70
f 67/67/67 85/85/85 84/84/84
f 83/83/83 84/84/84 85/85/85
f 85/85/85 86/86/86 83/83/83
f 128/128/128 129/129/129 130/130/130
f 166/166/166 130/130/130 129/129/129
f 130/130/130 166/166/166 167/167/167
f 154/154/154 167/167/167 166/166/166
f 167/167/167 154/154/154 153/153/153
f 152/152/152 153/153/153 154/154/154
f 130/130/130 131/131/131 128/128/128
f 154/154/154 155/155/155 152/152/152
f 146/146/146 152/152/152 155/155/155
f 152/152/152 146/146/146 145/145/145
f 144/144/144 145/145/145 146/146/146
f 146/146/146 147/147/147 144/144/144
f 142/142/142 144/144/144 147/147/147
f 144/144/144 142/142/142 141/141/141
f 140/140/140 141/141/141 142/142/142
f 142/142/142 143/143/143 140/140/140
f 150/150/150 140/140/140 143/143/143
f 140/140/140 150/150/150 149/149/149
f 148/148/148 149/149/149 150/150/150
f 150/150/150 151/151/151 148/148/148
f 114/114/114 122/122/122 36/36/36
f 43/43/43 36/36/36 122/122/122
f 36/36/36 43/43/43 33/33/33
f 42/42/42 33/33/33 43/43/43
f 43/43/43 41/41/41 42/42/42
f 41/41/41 43/43/43 44/44/44
f 122/122/122 44/44/44 43/43/43
f 44/44/44 122/122/122 123/123/123
f 31/31/31 29/29/29 30/30/30
f 29/29/29 31/31/31 32/32/32
f 109/109/109 32/32/32 31/31/31
f 32/32/32 109/109/109 110/110/110
f 56/56/56 97/97/97 98/98/98
f 97/97/97 56/56/56 55/55/55
f 57/57/57 55/55/55 56/56/56
f 55/55/55 57/57/57 58/58/58
f 15/15/15 107/107/107 108/108/108
f 107/107/107 15/15/15 14/14/14
f 13/13/13 14/14/14 15/15/15
f 15/15/15 16/16/16 13/13/13
f 138/138/138 136/136/136 137/137/137
f 136/136/136 138/138/138 139/139/139
