mtllib LAKETOWN_EXTERIOR_PS_LT_PIER_WOOD11.mtl
g LT_Pier_wood11
usemtl Dock_boards
v 1504.178711 -110.272850 -2302.123535
vn 0.000000 1.000000 0.000000
vt 0.000000 -2.107265
v 1504.178711 -110.272858 -2135.675049
vn 0.000000 1.000000 0.000000
vt 0.593786 -2.107265
v 1771.714722 -110.272858 -2135.662354
vn 0.000000 1.000000 0.000000
vt 0.593831 -3.823118
v 1771.714722 -110.272850 -2302.123291
vn 0.000000 1.000000 0.000000
vt 0.000000 -3.823118
v 565.870056 -110.272858 -2135.687500
vn 0.000000 1.000000 0.000000
vt 0.593742 -1.959704
v 900.920959 -110.272858 -2135.687500
vn 0.000000 1.000000 0.000000
vt 0.593742 -3.675557
v 900.920959 -110.272850 -2302.123535
vn 0.000000 1.000000 0.000000
vt 0.000000 -3.675557
v 565.870056 -110.272850 -2302.123535
vn 0.000000 1.000000 0.000000
vt 0.000000 -1.959704
v -774.333435 -110.272858 -2135.687500
vn 0.000000 1.000000 0.000000
vt 0.593742 0.903711
v -439.282532 -110.272858 -2135.675049
vn 0.000000 1.000000 0.000000
vt 0.593786 -0.812143
v -439.282532 -110.272850 -2302.123535
vn 0.000000 1.000000 0.000000
vt 0.000000 -0.812143
v -774.333374 -110.272850 -2302.123535
vn 0.000000 1.000000 0.000000
vt 0.000000 0.903711
v -104.231667 -110.272858 -2135.662598
vn 0.000000 1.000000 0.000000
vt 0.593831 -1.527997
v 230.819183 -110.272858 -2135.675049
vn 0.000000 1.000000 0.000000
vt 0.593786 -3.243850
v 230.819183 -110.272850 -2302.123535
vn 0.000000 1.000000 0.000000
vt 0.000000 -3.243850
v -104.231659 -110.272850 -2302.123535
vn 0.000000 1.000000 0.000000
vt 0.000000 -1.527997
v 1235.971802 -110.272865 -1969.226440
vn 0.000000 1.000000 0.000000
vt 1.187572 -1.391411
v 1504.178711 -110.272865 -1969.213867
vn 0.000000 1.000000 0.000000
vt 1.187617 -3.107265
v 1504.178711 -110.272858 -2135.675049
vn 0.000000 1.000000 0.000000
vt 0.593786 -3.107265
v 1235.971802 -110.272858 -2135.687500
vn 0.000000 1.000000 0.000000
vt 0.593742 -1.391411
v 1235.971802 -110.272873 -1802.765381
vn 0.000000 1.000000 0.000000
vt 1.781403 -1.391411
v 1504.178711 -110.272873 -1802.765381
vn 0.000000 1.000000 0.000000
vt 1.781403 -3.107265
v 565.870056 -110.272919 -1969.226440
vn 0.000000 1.000000 0.000000
vt 1.187572 -1.959704
v 900.920959 -110.272865 -1969.226440
vn 0.000000 1.000000 0.000000
vt 1.187572 -3.675557
v 565.870056 -110.272873 -1802.765381
vn 0.000000 1.000000 0.000000
vt 1.781403 -1.959704
v 900.920959 -110.272873 -1802.765381
vn 0.000000 1.000000 0.000000
vt 1.781403 -3.675557
v -104.231674 -110.272865 -1969.201538
vn 0.000000 1.000000 0.000000
vt 1.187661 -1.527997
v 230.819183 -110.272865 -1969.213989
vn 0.000000 1.000000 0.000000
vt 1.187617 -3.243850
v -104.231674 -110.272873 -1802.765381
vn 0.000000 1.000000 0.000000
vt 1.781403 -1.527997
v 230.819168 -110.272873 -1802.765381
vn 0.000000 1.000000 0.000000
vt 1.781403 -3.243850
v -774.333435 -110.272865 -1969.226440
vn 0.000000 1.000000 0.000000
vt 1.187572 0.903711
v -439.282532 -110.272865 -1969.213989
vn 0.000000 1.000000 0.000000
vt 1.187617 -0.812143
v -774.333435 -110.272873 -1802.765503
vn 0.000000 1.000000 0.000000
vt 1.781403 0.903711
v -439.282532 -110.272873 -1802.765503
vn 0.000000 1.000000 0.000000
vt 1.781403 -0.812143
v 1235.971802 -110.272850 -2302.123535
vn 0.000000 1.000000 0.000000
vt 0.000000 -1.391411
v 1504.178711 -110.272850 -2302.123535
vn 0.000000 1.000000 0.000000
vt 0.000000 -3.107265
v 1771.714722 -110.272873 -1802.765259
vn 0.000000 1.000000 0.000000
vt 1.781403 -3.823118
v 1771.714722 -110.272865 -1969.201294
vn 0.000000 1.000000 0.000000
vt 1.187661 -3.823118
v 1504.178711 -110.272865 -1969.213867
vn 0.000000 1.000000 0.000000
vt 1.187617 -2.107265
v 1504.178711 -110.272873 -1802.765381
vn 0.000000 1.000000 0.000000
vt 1.781403 -2.107265
v 1235.971802 -110.272873 -1802.765381
vn 0.000000 1.000000 0.000000
vt 1.781403 -3.391411
v 1235.971802 -110.272865 -1969.226440
vn 0.000000 1.000000 0.000000
vt 1.187572 -3.391411
v 900.920959 -110.272865 -1969.226440
vn 0.000000 1.000000 0.000000
vt 1.187572 -1.675557
v 900.920959 -110.272873 -1802.765381
vn 0.000000 1.000000 0.000000
vt 1.781403 -1.675557
v 1235.971802 -110.272858 -2135.687500
vn 0.000000 1.000000 0.000000
vt 0.593742 -3.391411
v 1235.971802 -110.272850 -2302.123535
vn 0.000000 1.000000 0.000000
vt 0.000000 -3.391411
v 900.920959 -110.272850 -2302.123535
vn 0.000000 1.000000 0.000000
vt 0.000000 -1.675557
v 900.920959 -110.272858 -2135.687500
vn 0.000000 1.000000 0.000000
vt 0.593742 -1.675557
v 565.870056 -110.272873 -1802.765381
vn 0.000000 1.000000 0.000000
vt 1.781403 -3.959704
v 565.870056 -110.272919 -1969.226440
vn 0.000000 1.000000 0.000000
vt 1.187572 -3.959704
v 230.819183 -110.272865 -1969.213989
vn 0.000000 1.000000 0.000000
vt 1.187617 -2.243850
v 230.819168 -110.272873 -1802.765381
vn 0.000000 1.000000 0.000000
vt 1.781403 -2.243850
v 565.870056 -110.272858 -2135.687500
vn 0.000000 1.000000 0.000000
vt 0.593742 -3.959704
v 565.870056 -110.272850 -2302.123535
vn 0.000000 1.000000 0.000000
vt 0.000000 -3.959704
v 230.819183 -110.272850 -2302.123535
vn 0.000000 1.000000 0.000000
vt 0.000000 -2.243850
v 230.819183 -110.272858 -2135.675049
vn 0.000000 1.000000 0.000000
vt 0.593786 -2.243850
v -104.231674 -110.272873 -1802.765381
vn 0.000000 1.000000 0.000000
vt 1.781403 -2.527997
v -104.231674 -110.272865 -1969.201538
vn 0.000000 1.000000 0.000000
vt 1.187661 -2.527997
v -104.231667 -110.272858 -2135.662598
vn 0.000000 1.000000 0.000000
vt 0.593831 -2.527997
v -104.231659 -110.272850 -2302.123535
vn 0.000000 1.000000 0.000000
vt -0.000000 -2.527997
f 19/19/19 36/36/36 35/35/35
f 18/18/18 21/21/21 22/22/22
f 21/21/21 18/18/18 17/17/17
f 19/19/19 17/17/17 18/18/18
f 17/17/17 19/19/19 20/20/20
f 35/35/35 20/20/20 19/19/19
f 9/9/9 11/11/11 12/12/12
f 11/11/11 9/9/9 10/10/10
f 31/31/31 10/10/10 9/9/9
f 10/10/10 31/31/31 32/32/32
f 33/33/33 32/32/32 31/31/31
f 32/32/32 33/33/33 34/34/34
f 60/60/60 11/11/11 59/59/59
f 10/10/10 59/59/59 11/11/11
f 59/59/59 10/10/10 58/58/58
f 32/32/32 58/58/58 10/10/10
f 58/58/58 32/32/32 57/57/57
f 34/34/34 57/57/57 32/32/32
f 24/24/24 25/25/25 26/26/26
f 25/25/25 24/24/24 23/23/23
f 6/6/6 23/23/23 24/24/24
f 23/23/23 6/6/6 5/5/5
f 7/7/7 5/5/5 6/6/6
f 5/5/5 7/7/7 8/8/8
f 28/28/28 29/29/29 30/30/30
f 29/29/29 28/28/28 27/27/27
f 14/14/14 27/27/27 28/28/28
f 27/27/27 14/14/14 13/13/13
f 15/15/15 13/13/13 14/14/14
f 13/13/13 15/15/15 16/16/16
f 46/46/46 47/47/47 45/45/45
f 48/48/48 45/45/45 47/47/47
f 45/45/45 48/48/48 42/42/42
f 43/43/43 42/42/42 48/48/48
f 42/42/42 43/43/43 41/41/41
f 44/44/44 41/41/41 43/43/43
f 54/54/54 55/55/55 53/53/53
f 56/56/56 53/53/53 55/55/55
f 53/53/53 56/56/56 50/50/50
f 51/51/51 50/50/50 56/56/56
f 50/50/50 51/51/51 49/49/49
f 52/52/52 49/49/49 51/51/51
f 40/40/40 37/37/37 39/39/39
f 38/38/38 39/39/39 37/37/37
f 39/39/39 38/38/38 2/2/2
f 3/3/3 2/2/2 38/38/38
f 2/2/2 3/3/3 1/1/1
f 4/4/4 1/1/1 3/3/3
