mtllib LAKETOWN_EXTERIOR_PS_LT_WINDOW_LONG_LOD1_45.mtl
g ow_long_lod1_45
usemtl Large_window
v 644.661865 85.265610 -2277.256836
vn -0.000002 0.000000 1.000000
vt -0.001735 0.000000
v 637.539429 85.265610 -2277.256836
vn -0.000002 0.000000 1.000000
vt 0.066928 0.000000
v 637.539001 -62.462738 -2277.256592
vn -0.000002 0.000002 1.000000
vt 0.090920 0.999257
v 644.661865 -62.462738 -2277.256836
vn -0.000002 0.000000 1.000000
vt -0.001735 1.000000
v 637.539429 85.265610 -2277.256836
vn -1.000000 0.000002 -0.000086
vt 0.066928 0.000000
v 637.539673 85.265610 -2281.175049
vn -1.000000 0.000002 -0.000062
vt 0.099418 0.000000
v 637.539429 -62.462738 -2281.175049
vn -1.000000 0.000002 -0.000086
vt 0.099418 1.000000
v 637.539001 -62.462738 -2277.256836
vn -1.000000 0.000003 -0.000111
vt 0.065834 1.000000
v 577.072693 85.359657 -2277.256836
vn 0.000000 -0.000002 1.000000
vt 0.896977 0.001548
v 577.072693 78.250786 -2277.256836
vn 0.000000 -0.000002 1.000000
vt 0.896977 0.035340
v 637.539673 78.250793 -2277.256836
vn 0.000000 -0.000002 1.000000
vt 0.090920 0.034246
v 637.539673 85.359665 -2277.256836
vn 0.000000 -0.000002 1.000000
vt 0.090920 0.001548
v 577.072693 78.250786 -2277.256836
vn 0.000000 -1.000000 0.000001
vt 0.896977 0.035340
v 577.072693 78.250778 -2281.175049
vn 0.000000 -1.000000 0.000002
vt 0.896977 0.053664
v 637.539673 78.250793 -2281.175049
vn 0.000000 -1.000000 0.000001
vt 0.090920 0.053664
v 637.539673 78.250793 -2277.256836
vn 0.000000 -1.000000 0.000000
vt 0.090920 0.034246
v 569.964111 85.265610 -2277.256836
vn 0.000002 0.000001 1.000000
vt 1.000000 0.000000
v 569.964111 -62.462738 -2277.256592
vn 0.000002 0.000001 1.000000
vt 1.000000 1.000000
v 577.072998 -62.462738 -2277.256836
vn 0.000000 0.000002 1.000000
vt 0.932431 1.000000
v 577.072998 85.265610 -2277.256836
vn 0.000002 0.000001 1.000000
vt 0.931337 0.000000
v 577.072998 85.265610 -2277.256836
vn 1.000000 0.000001 -0.000039
vt 0.931337 0.000000
v 577.072998 -62.462738 -2277.256836
vn 1.000000 0.000000 0.000000
vt 0.932431 1.000000
v 577.072998 -62.462738 -2281.174805
vn 1.000000 0.000001 -0.000039
vt 0.898847 1.000000
v 577.072693 85.265610 -2281.175049
vn 1.000000 0.000002 -0.000078
vt 0.898847 0.000000
v 577.072998 -62.462738 -2277.256836
vn 0.000000 0.000002 1.000000
vt 0.896977 0.999257
v 637.539001 -55.353867 -2277.256592
vn -0.000002 0.000002 1.000000
vt 0.090920 0.960540
v 577.072998 -55.353867 -2277.256836
vn -0.000002 0.000002 1.000000
vt 0.896977 0.959446
v 577.072998 -55.353867 -2277.256836
vn 0.000000 1.000000 0.000001
vt 0.896977 0.959446
v 637.539001 -55.353867 -2277.256592
vn 0.000000 1.000000 0.000000
vt 0.090920 0.960540
v 637.539001 -55.353867 -2281.174805
vn 0.000000 1.000000 0.000001
vt 0.090920 0.941122
v 577.072998 -55.353859 -2281.174805
vn 0.000000 1.000000 0.000002
vt 0.896977 0.941122
v 644.649170 -62.827164 -2281.110840
vn 0.000000 -0.000001 1.000000
vt 0.000000 1.000000
v 644.649170 85.672836 -2281.110840
vn 0.000000 -0.000001 1.000000
vt 0.000000 0.000000
v 570.399170 85.672836 -2281.110840
vn 0.000000 -0.000001 1.000000
vt 1.000000 0.000000
v 570.399170 -62.827164 -2281.110840
vn 0.000000 -0.000001 1.000000
vt 1.000000 1.000000
v 1062.787598 78.250793 -2277.256836
vn 0.000000 -0.000002 1.000000
vt 0.090920 0.034246
v 1062.787476 85.359665 -2277.256592
vn 0.000000 -0.000002 1.000000
vt 0.090920 0.001548
v 1002.320557 85.359657 -2277.256592
vn 0.000000 -0.000002 1.000000
vt 0.896977 0.001548
v -146.046982 96.656143 -2224.070557
vn 0.000002 0.000001 1.000000
vt 1.000000 0.000000
v -146.046982 -51.072208 -2224.070557
vn 0.000002 0.000001 1.000000
vt 1.000000 1.000000
v -138.938095 -51.072208 -2224.070557
vn 0.000000 0.000002 1.000000
vt 0.932431 1.000000
v 1069.909668 85.265610 -2277.256592
vn -0.000002 0.000000 1.000000
vt -0.001735 0.000000
v 1062.787231 85.265610 -2277.256836
vn -0.000002 0.000000 1.000000
vt 0.066928 0.000000
v 1062.786865 -62.462738 -2277.256592
vn -0.000002 0.000002 1.000000
vt 0.090920 0.999257
v 1069.909668 -62.462738 -2277.256836
vn -0.000002 0.000000 1.000000
vt -0.001735 1.000000
v 1062.787231 85.265610 -2277.256836
vn -1.000000 0.000002 -0.000085
vt 0.066928 0.000000
v 1062.787476 85.265610 -2281.174805
vn -1.000000 0.000002 -0.000062
vt 0.099418 0.000000
v 1062.787231 -62.462738 -2281.174805
vn -1.000000 0.000002 -0.000085
vt 0.099418 1.000000
v 1062.786865 -62.462738 -2277.256836
vn -1.000000 0.000003 -0.000109
vt 0.065834 1.000000
v 1002.320557 78.250786 -2277.256592
vn 0.000000 -0.000002 1.000000
vt 0.896977 0.035340
v -138.938095 96.656143 -2224.070557
vn 0.000002 0.000001 1.000000
vt 0.931337 0.000000
v 1002.320557 78.250786 -2277.256592
vn 0.000000 -1.000000 0.000001
vt 0.896977 0.035340
v 1002.320557 78.250778 -2281.174805
vn 0.000000 -1.000000 0.000002
vt 0.896977 0.053664
v 1062.787476 78.250793 -2281.174805
vn 0.000000 -1.000000 0.000001
vt 0.090920 0.053664
v 1062.787598 78.250793 -2277.256836
vn 0.000000 -1.000000 0.000000
vt 0.090920 0.034246
v 995.211975 85.265610 -2277.256836
vn 0.000002 0.000001 1.000000
vt 1.000000 0.000000
v 995.211975 -62.462738 -2277.256592
vn 0.000002 0.000001 1.000000
vt 1.000000 1.000000
v 1002.320862 -62.462738 -2277.256592
vn 0.000000 0.000002 1.000000
vt 0.932431 1.000000
v 1002.320862 85.265610 -2277.256836
vn 0.000002 0.000001 1.000000
vt 0.931337 0.000000
v 1002.320862 85.265610 -2277.256836
vn 1.000000 0.000001 -0.000039
vt 0.931337 0.000000
v 1002.320862 -62.462738 -2277.256592
vn 1.000000 0.000000 0.000000
vt 0.932431 1.000000
v 1002.320801 -62.462738 -2281.174805
vn 1.000000 0.000001 -0.000039
vt 0.898847 1.000000
v 1002.320496 85.265610 -2281.175049
vn 1.000000 0.000002 -0.000078
vt 0.898847 0.000000
v 1002.320862 -62.462738 -2277.256592
vn 0.000000 0.000002 1.000000
vt 0.896977 0.999257
v 1062.786865 -55.353867 -2277.256592
vn -0.000002 0.000002 1.000000
vt 0.090920 0.960540
v 1002.320862 -55.353867 -2277.256592
vn -0.000002 0.000002 1.000000
vt 0.896977 0.959446
v 1002.320862 -55.353867 -2277.256592
vn 0.000000 1.000000 0.000001
vt 0.896977 0.959446
v 1062.786865 -55.353867 -2277.256592
vn 0.000000 1.000000 0.000000
vt 0.090920 0.960540
v 1062.786743 -55.353867 -2281.174805
vn 0.000000 1.000000 0.000001
vt 0.090920 0.941122
v 1002.320801 -55.353859 -2281.174805
vn 0.000000 1.000000 0.000002
vt 0.896977 0.941122
v 1069.896973 -62.827164 -2281.110840
vn 0.000000 -0.000001 1.000000
vt 0.000000 1.000000
v 1069.896973 85.672836 -2281.110596
vn 0.000000 -0.000001 1.000000
vt 0.000000 0.000000
v 995.646973 85.672836 -2281.110596
vn 0.000000 -0.000001 1.000000
vt 1.000000 0.000000
v 995.646973 -62.827164 -2281.110840
vn 0.000000 -0.000001 1.000000
vt 1.000000 1.000000
v -138.938095 -51.072208 -2227.988770
vn 1.000000 0.000001 -0.000039
vt 0.898847 1.000000
v -138.938400 96.656143 -2227.988770
vn 1.000000 0.000002 -0.000078
vt 0.898847 0.000000
v -138.938095 96.656143 -2224.070557
vn 1.000000 0.000001 -0.000039
vt 0.931337 0.000000
v -684.596802 97.063370 -2227.924561
vn 0.000000 -0.000001 1.000000
vt 1.000000 0.000000
v -684.596802 -51.436634 -2227.924561
vn 0.000000 -0.000001 1.000000
vt 1.000000 1.000000
v -610.346802 -51.436634 -2227.924561
vn 0.000000 -0.000001 1.000000
vt 0.000000 1.000000
v -71.349228 96.656143 -2224.070557
vn -0.000002 0.000000 1.000000
vt -0.001735 0.000000
v -78.471664 96.656143 -2224.070557
vn -0.000002 0.000000 1.000000
vt 0.066928 0.000000
v -78.472092 -51.072208 -2224.070557
vn -0.000002 0.000003 1.000000
vt 0.090920 0.999257
v -71.349228 -51.072208 -2224.070557
vn -0.000002 0.000000 1.000000
vt -0.001735 1.000000
v -78.471664 96.656143 -2224.070557
vn -1.000000 0.000002 -0.000085
vt 0.066928 0.000000
v -78.471420 96.656143 -2227.988770
vn -1.000000 0.000002 -0.000062
vt 0.099418 0.000000
v -78.471664 -51.072208 -2227.988770
vn -1.000000 0.000002 -0.000085
vt 0.099418 1.000000
v -78.472092 -51.072208 -2224.070557
vn -1.000000 0.000003 -0.000109
vt 0.065834 1.000000
v -138.938400 96.750191 -2224.070557
vn 0.000000 -0.000002 1.000000
vt 0.896977 0.001548
v -138.938400 89.641319 -2224.070557
vn 0.000000 -0.000002 1.000000
vt 0.896977 0.035340
v -78.471420 89.641327 -2224.070557
vn 0.000000 -0.000002 1.000000
vt 0.090920 0.034246
v -78.471420 96.750198 -2224.070557
vn 0.000000 -0.000002 1.000000
vt 0.090920 0.001548
v -138.938400 89.641319 -2224.070557
vn 0.000000 -1.000000 0.000001
vt 0.896977 0.035340
v -138.938400 89.641312 -2227.988770
vn 0.000000 -1.000000 0.000002
vt 0.896977 0.053664
v -78.471420 89.641327 -2227.988770
vn 0.000000 -1.000000 0.000001
vt 0.090920 0.053664
v -78.471420 89.641327 -2224.070557
vn 0.000000 -1.000000 0.000000
vt 0.090920 0.034246
v -610.334229 96.656143 -2224.070557
vn -0.000002 0.000000 1.000000
vt -0.001735 0.000000
v -617.456665 96.656143 -2224.070557
vn -0.000002 0.000000 1.000000
vt 0.066928 0.000000
v -617.457031 -51.072208 -2224.070313
vn -0.000002 0.000002 1.000000
vt 0.090920 0.999257
v -617.456543 -51.072208 -2227.988770
vn -1.000000 0.000002 -0.000109
vt 0.099418 1.000000
v -617.457031 -51.072208 -2224.070557
vn -1.000000 0.000002 -0.000124
vt 0.065834 1.000000
v -617.456665 96.656143 -2224.070557
vn -1.000000 0.000002 -0.000109
vt 0.066928 0.000000
v -138.938095 -51.072208 -2224.070557
vn 1.000000 0.000000 0.000000
vt 0.932431 1.000000
v -677.923340 96.750191 -2224.070557
vn 0.000000 -0.000002 1.000000
vt 0.896977 0.001548
v -677.923340 89.641319 -2224.070557
vn 0.000000 -0.000002 1.000000
vt 0.896977 0.035340
v -617.456421 89.641327 -2224.070557
vn 0.000000 -0.000002 1.000000
vt 0.090920 0.034246
v -138.938095 -51.072208 -2224.070557
vn 0.000000 0.000002 1.000000
vt 0.896977 0.999257
v -78.472092 -43.963337 -2224.070557
vn -0.000002 0.000002 1.000000
vt 0.090920 0.960540
v -138.938095 -43.963337 -2224.070557
vn -0.000002 0.000002 1.000000
vt 0.896977 0.959446
v -138.938095 -43.963337 -2224.070557
vn 0.000000 1.000000 0.000001
vt 0.896977 0.959446
v -78.472092 -43.963337 -2224.070557
vn 0.000000 1.000000 0.000000
vt 0.090920 0.960540
v -78.472092 -43.963337 -2227.988525
vn 0.000000 1.000000 0.000001
vt 0.090920 0.941122
v -138.938095 -43.963329 -2227.988770
vn 0.000000 1.000000 0.000002
vt 0.896977 0.941122
v -71.361923 -51.436634 -2227.924561
vn 0.000000 -0.000001 1.000000
vt 0.000000 1.000000
v -71.361923 97.063370 -2227.924561
vn 0.000000 -0.000001 1.000000
vt 0.000000 0.000000
v -145.611923 97.063370 -2227.924561
vn 0.000000 -0.000001 1.000000
vt 1.000000 0.000000
v -145.611923 -51.436634 -2227.924561
vn 0.000000 -0.000001 1.000000
vt 1.000000 1.000000
v -617.456421 96.750198 -2224.070557
vn 0.000000 -0.000002 1.000000
vt 0.090920 0.001548
v -685.031982 96.656143 -2224.070557
vn 0.000002 0.000001 1.000000
vt 1.000000 0.000000
v -685.031982 -51.072208 -2224.070557
vn 0.000002 0.000001 1.000000
vt 1.000000 1.000000
v -677.923096 -51.072208 -2224.070557
vn 0.000000 0.000002 1.000000
vt 0.932431 1.000000
v -610.346802 97.063370 -2227.924561
vn 0.000000 -0.000001 1.000000
vt 0.000000 0.000000
v -610.334229 -51.072208 -2224.070557
vn -0.000002 0.000000 1.000000
vt -0.001735 1.000000
v -617.456299 96.656143 -2227.988770
vn -1.000000 0.000002 -0.000093
vt 0.099418 0.000000
v -677.923096 96.656143 -2224.070557
vn 0.000002 0.000001 1.000000
vt 0.931337 0.000000
v -677.923096 96.656143 -2224.070557
vn 1.000000 0.000001 -0.000016
vt 0.931337 0.000000
v -677.923096 -51.072208 -2224.070557
vn 1.000000 0.000000 0.000031
vt 0.932431 1.000000
v -677.922974 -51.072208 -2227.988525
vn 1.000000 0.000001 -0.000016
vt 0.898847 1.000000
v -617.457031 -43.963337 -2227.988525
vn 0.000000 1.000000 0.000001
vt 0.090920 0.941122
v -677.922974 -43.963329 -2227.988770
vn 0.000000 1.000000 0.000002
vt 0.896977 0.941122
v -677.923096 -43.963337 -2224.070557
vn 0.000000 1.000000 0.000001
vt 0.896977 0.959446
v -677.923340 89.641319 -2224.070557
vn 0.000000 -1.000000 0.000001
vt 0.896977 0.035340
v -677.923340 89.641312 -2227.988770
vn 0.000000 -1.000000 0.000002
vt 0.896977 0.053664
v -617.456299 89.641327 -2227.988770
vn 0.000000 -1.000000 0.000001
vt 0.090920 0.053664
v -617.456421 89.641327 -2224.070557
vn 0.000000 -1.000000 0.000000
vt 0.090920 0.034246
v -677.923340 96.656143 -2227.988770
vn 1.000000 0.000002 -0.000063
vt 0.898847 0.000000
v -677.923096 -51.072208 -2224.070557
vn 0.000000 0.000002 1.000000
vt 0.896977 0.999257
v -617.457031 -43.963337 -2224.070313
vn -0.000002 0.000002 1.000000
vt 0.090920 0.960540
v -617.457031 -43.963337 -2224.070313
vn 0.000000 1.000000 0.000000
vt 0.090920 0.960540
v -677.923096 -43.963337 -2224.070557
vn -0.000002 0.000002 1.000000
vt 0.896977 0.959446
f 3/3/3 1/1/1 2/2/2
f 1/1/1 3/3/3 4/4/4
f 26/26/26 25/25/25 3/3/3
f 25/25/25 26/26/26 27/27/27
f 5/5/5 7/7/7 8/8/8
f 7/7/7 5/5/5 6/6/6
f 11/11/11 9/9/9 10/10/10
f 9/9/9 11/11/11 12/12/12
f 15/15/15 13/13/13 14/14/14
f 13/13/13 15/15/15 16/16/16
f 19/19/19 17/17/17 18/18/18
f 17/17/17 19/19/19 20/20/20
f 23/23/23 21/21/21 22/22/22
f 21/21/21 23/23/23 24/24/24
f 30/30/30 28/28/28 29/29/29
f 28/28/28 30/30/30 31/31/31
f 34/34/34 32/32/32 33/33/33
f 32/32/32 34/34/34 35/35/35
f 38/38/38 36/36/36 37/37/37
f 36/36/36 38/38/38 50/50/50
f 41/41/41 39/39/39 40/40/40
f 39/39/39 41/41/41 51/51/51
f 44/44/44 42/42/42 43/43/43
f 42/42/42 44/44/44 45/45/45
f 65/65/65 64/64/64 44/44/44
f 64/64/64 65/65/65 66/66/66
f 48/48/48 46/46/46 47/47/47
f 46/46/46 48/48/48 49/49/49
f 54/54/54 52/52/52 53/53/53
f 52/52/52 54/54/54 55/55/55
f 58/58/58 56/56/56 57/57/57
f 56/56/56 58/58/58 59/59/59
f 62/62/62 60/60/60 61/61/61
f 60/60/60 62/62/62 63/63/63
f 69/69/69 67/67/67 68/68/68
f 67/67/67 69/69/69 70/70/70
f 73/73/73 71/71/71 72/72/72
f 71/71/71 73/73/73 74/74/74
f 77/77/77 75/75/75 76/76/76
f 75/75/75 77/77/77 103/103/103
f 80/80/80 78/78/78 79/79/79
f 78/78/78 80/80/80 122/122/122
f 83/83/83 81/81/81 82/82/82
f 81/81/81 83/83/83 84/84/84
f 108/108/108 107/107/107 83/83/83
f 107/107/107 108/108/108 109/109/109
f 87/87/87 85/85/85 86/86/86
f 85/85/85 87/87/87 88/88/88
f 91/91/91 89/89/89 90/90/90
f 89/89/89 91/91/91 92/92/92
f 95/95/95 93/93/93 94/94/94
f 93/93/93 95/95/95 96/96/96
f 99/99/99 97/97/97 98/98/98
f 97/97/97 99/99/99 123/123/123
f 138/138/138 137/137/137 99/99/99
f 137/137/137 138/138/138 140/140/140
f 102/102/102 100/100/100 101/101/101
f 100/100/100 102/102/102 124/124/124
f 106/106/106 104/104/104 105/105/105
f 104/104/104 106/106/106 118/118/118
f 112/112/112 110/110/110 111/111/111
f 110/110/110 112/112/112 113/113/113
f 116/116/116 114/114/114 115/115/115
f 114/114/114 116/116/116 117/117/117
f 121/121/121 119/119/119 120/120/120
f 119/119/119 121/121/121 125/125/125
f 128/128/128 126/126/126 127/127/127
f 126/126/126 128/128/128 136/136/136
f 131/131/131 129/129/129 130/130/130
f 129/129/129 131/131/131 139/139/139
f 134/134/134 132/132/132 133/133/133
f 132/132/132 134/134/134 135/135/135
usemtl window_grid
v -139.173325 89.693237 -2225.704102
vn 0.000000 -0.000001 1.000000
vt 1.000000 0.000000
v -139.173325 -43.947811 -2225.704102
vn 0.000000 -0.000001 1.000000
vt 1.000000 1.000000
v -78.545944 -43.947811 -2225.704102
vn 0.000000 -0.000001 1.000000
vt 0.000000 1.000000
v 1062.713013 -55.338341 -2278.890381
vn 0.000000 -0.000001 1.000000
vt 0.000000 1.000000
v 1062.713013 78.302704 -2278.890137
vn 0.000000 -0.000001 1.000000
vt 0.000000 0.000000
v 1002.085632 78.302704 -2278.890137
vn 0.000000 -0.000001 1.000000
vt 1.000000 0.000000
v 637.465149 -55.338341 -2278.890381
vn 0.000000 -0.000001 1.000000
vt 0.000000 1.000000
v 637.465149 78.302704 -2278.890137
vn 0.000000 -0.000001 1.000000
vt 0.000000 0.000000
v 576.837769 78.302704 -2278.890137
vn 0.000000 -0.000001 1.000000
vt 1.000000 0.000000
v 1002.085632 -55.338341 -2278.890381
vn 0.000000 -0.000001 1.000000
vt 1.000000 1.000000
v 576.837769 -55.338341 -2278.890381
vn 0.000000 -0.000001 1.000000
vt 1.000000 1.000000
v -78.545944 89.693237 -2225.704102
vn 0.000000 -0.000001 1.000000
vt 0.000000 0.000000
v -617.530884 -43.947811 -2225.704102
vn 0.000000 -0.000001 1.000000
vt 0.000000 1.000000
v -617.530884 89.693237 -2225.704102
vn 0.000000 -0.000001 1.000000
vt 0.000000 0.000000
v -678.158325 89.693237 -2225.704102
vn 0.000000 -0.000001 1.000000
vt 1.000000 0.000000
v -678.158325 -43.947811 -2225.704102
vn 0.000000 -0.000001 1.000000
vt 1.000000 1.000000
f 143/143/143 141/141/141 142/142/142
f 141/141/141 143/143/143 152/152/152
f 146/146/146 144/144/144 145/145/145
f 144/144/144 146/146/146 150/150/150
f 149/149/149 147/147/147 148/148/148
f 147/147/147 149/149/149 151/151/151
f 155/155/155 153/153/153 154/154/154
f 153/153/153 155/155/155 156/156/156
