mtllib LAKETOWN_GENHOUSE1_PS_GH1_STAIR44.mtl
g GH1_stair44
usemtl Hard_wood
v -215.413757 -2834.456787 -2589.391846
vn 0.000000 1.000000 0.000000
vt 0.736911 -0.280185
v -215.413757 -2834.456787 -2625.414551
vn 0.000000 1.000000 0.000000
vt 0.521876 -0.279988
v -361.994476 -2834.456787 -2625.414551
vn 0.000000 1.000000 0.000000
vt 0.520582 1.215440
v -361.994476 -2834.456787 -2589.391846
vn 0.000000 1.000000 0.000000
vt 0.739917 1.218395
v -215.413757 -2841.607666 -2625.414551
vn 0.000000 0.000000 -1.000000
vt 0.008460 -0.275787
v -361.994476 -2841.607666 -2625.414551
vn 0.000000 0.000000 -1.000000
vt 0.020925 0.995287
v -361.994476 -2834.456787 -2625.414551
vn 0.000000 0.000000 -1.000000
vt 0.106096 0.988456
v -361.994476 -2807.943359 -2658.841309
vn 0.000000 1.000000 0.000000
vt 0.275242 1.230128
v -361.994507 -2807.943359 -2622.818604
vn 0.000000 1.000000 0.000000
vt 0.503957 1.233083
v -215.413788 -2807.943359 -2622.818604
vn 0.000000 1.000000 0.000000
vt 0.500952 -0.265497
v -215.413757 -2834.456787 -2589.391846
vn 0.000000 0.000000 1.000000
vt 0.399266 -0.279058
v -361.994476 -2834.456787 -2589.391846
vn 0.000000 0.000000 1.000000
vt 0.399119 1.219522
v -361.994476 -2841.607666 -2589.391846
vn 0.000000 0.000000 1.000000
vt 0.514020 1.220047
v -215.413757 -2841.607666 -2589.391846
vn 0.000000 0.000000 1.000000
vt 0.513143 -0.280134
v -361.994476 -2807.943359 -2658.841309
vn 0.000000 0.000000 -1.000000
vt 0.106096 0.988456
v -215.413788 -2807.943359 -2658.841309
vn 0.000000 0.000000 -1.000000
vt 0.103090 -0.270005
v -215.413788 -2815.094238 -2658.841309
vn 0.000000 0.000000 -1.000000
vt 0.008460 -0.275787
v -215.413788 -2807.943359 -2658.841309
vn 0.000000 1.000000 0.000000
vt 0.278543 -0.265300
v -215.413757 -2834.456787 -2625.414551
vn 0.000000 0.000000 -1.000000
vt 0.103090 -0.270005
v -361.994507 -2815.094238 -2622.818604
vn 0.000000 0.000000 1.000000
vt 1.001191 1.216989
v -215.413788 -2815.094238 -2622.818604
vn 0.000000 0.000000 1.000000
vt 1.000314 -0.283192
v -215.413788 -2807.943359 -2622.818604
vn 0.000000 0.000000 1.000000
vt 0.886437 -0.282116
v -361.994507 -2807.943359 -2622.818604
vn 0.000000 0.000000 1.000000
vt 0.886290 1.216464
v -361.994476 -2815.094238 -2658.841309
vn 0.000000 0.000000 -1.000000
vt 0.020925 0.995287
f 3/3/3 1/1/1 2/2/2
f 1/1/1 3/3/3 4/4/4
f 7/7/7 5/5/5 6/6/6
f 5/5/5 7/7/7 19/19/19
f 10/10/10 8/8/8 9/9/9
f 8/8/8 10/10/10 18/18/18
f 13/13/13 11/11/11 12/12/12
f 11/11/11 13/13/13 14/14/14
f 17/17/17 15/15/15 16/16/16
f 15/15/15 17/17/17 24/24/24
f 22/22/22 20/20/20 21/21/21
f 20/20/20 22/22/22 23/23/23
usemtl wood_end
v -361.994476 -2841.607666 -2625.414551
vn -1.000000 0.000000 0.000000
vt 0.504853 0.999499
v -361.994476 -2841.607666 -2589.391846
vn -1.000000 0.000000 0.000000
vt 0.763667 0.999499
v -361.994476 -2834.456787 -2589.391846
vn -1.000000 0.000000 0.000000
vt 0.763667 0.000500
v -215.413757 -2841.607666 -2589.391846
vn 1.000000 0.000000 0.000000
vt 0.763669 0.999500
v -215.413757 -2841.607666 -2625.414551
vn 1.000000 0.000000 0.000000
vt 0.504854 0.999500
v -215.413757 -2834.456787 -2625.414551
vn 1.000000 0.000000 0.000000
vt 0.504854 0.000500
v -361.994476 -2834.456787 -2625.414551
vn -1.000000 0.000000 0.000000
vt 0.504853 0.000500
v -361.994507 -2807.943359 -2622.818604
vn -1.000000 0.000000 0.000000
vt 0.763667 0.000500
v -361.994476 -2807.943359 -2658.841309
vn -1.000000 0.000000 0.000000
vt 0.504853 0.000500
v -361.994476 -2815.094238 -2658.841309
vn -1.000000 0.000000 0.000000
vt 0.504853 0.999499
v -215.413788 -2807.943359 -2658.841309
vn 1.000000 0.000000 0.000000
vt 0.504854 0.000500
v -215.413788 -2807.943359 -2622.818604
vn 1.000000 0.000000 0.000000
vt 0.763669 0.000500
v -215.413788 -2815.094238 -2622.818604
vn 1.000000 0.000000 0.000000
vt 0.763669 0.999500
v -215.413788 -2815.094238 -2658.841309
vn 1.000000 0.000000 0.000000
vt 0.504854 0.999500
v -215.413757 -2834.456787 -2589.391846
vn 1.000000 0.000000 0.000000
vt 0.763669 0.000500
v -361.994507 -2815.094238 -2622.818604
vn -1.000000 0.000000 0.000000
vt 0.763667 0.999499
f 27/27/27 25/25/25 26/26/26
f 25/25/25 27/27/27 31/31/31
f 30/30/30 28/28/28 29/29/29
f 28/28/28 30/30/30 39/39/39
f 34/34/34 32/32/32 33/33/33
f 32/32/32 34/34/34 40/40/40
f 37/37/37 35/35/35 36/36/36
f 35/35/35 37/37/37 38/38/38
usemtl Floor_01
v -362.033875 -2781.429932 -2655.897949
vn 0.000000 1.000000 0.000000
vt 1.992233 1.233083
v 10.573503 -2781.429932 -2655.897705
vn 0.000000 1.000000 0.000000
vt 1.989227 -1.117396
v 10.573513 -2781.429932 -2816.860352
vn 0.000000 1.000000 0.000000
vt 0.759315 -1.117199
v -362.033844 -2781.429932 -2816.860352
vn 0.000000 1.000000 0.000000
vt 0.756014 1.230128
v 10.573503 -2781.429932 -2655.897705
vn 0.000000 0.000000 1.000000
vt 1.846798 -1.118150
v -362.033875 -2781.429932 -2655.897949
vn 0.000000 0.000000 1.000000
vt 1.846946 1.232329
v -362.033875 -2788.580811 -2655.897949
vn 0.000000 0.000000 1.000000
vt 1.791017 1.232854
v 10.573503 -2788.580811 -2655.897705
vn 0.000000 0.000000 1.000000
vt 1.791894 -1.119226
f 43/43/43 41/41/41 42/42/42
f 41/41/41 43/43/43 44/44/44
f 47/47/47 45/45/45 46/46/46
f 45/45/45 47/47/47 48/48/48
usemtl Material_#604
v -362.033875 -2781.429932 -2655.897949
vn -1.000000 0.000000 0.000000
vt 0.990859 0.623654
v -362.033844 -2781.429932 -2816.860352
vn -1.000000 0.000000 0.000000
vt -0.235143 0.623654
v -362.033844 -2788.580811 -2816.860352
vn -1.000000 0.000000 0.000000
vt -0.235143 1.622654
v -362.033875 -2788.580811 -2655.897949
vn -1.000000 0.000000 0.000000
vt 0.990859 1.622654
f 51/51/51 49/49/49 50/50/50
f 49/49/49 51/51/51 52/52/52
usemtl wood_end
v 10.573513 -2781.429932 -2816.860352
vn 1.000000 0.000000 0.000000
vt 0.504854 0.000500
v 10.573503 -2781.429932 -2655.897705
vn 1.000000 0.000000 0.000000
vt 0.763669 0.000500
v 10.573503 -2788.580811 -2655.897705
vn 1.000000 0.000000 0.000000
vt 0.763669 0.999500
v 10.573513 -2788.580811 -2816.860352
vn 1.000000 0.000000 0.000000
vt 0.504854 0.999500
f 55/55/55 53/53/53 54/54/54
f 53/53/53 55/55/55 56/56/56
usemtl wood_boards
v -354.361237 -2868.720215 -2591.590820
vn -1.000000 0.000000 0.000000
vt 0.000500 2.250880
v -354.361237 -2836.540283 -2591.590820
vn -1.000000 0.000000 0.000000
vt 0.108378 2.250880
v -354.361237 -2836.540283 -2625.359375
vn -1.000000 0.000000 0.000000
vt 0.108378 1.996244
v -354.361237 -2809.895752 -2658.809326
vn -1.000000 0.000000 0.000000
vt 0.220275 1.744008
v -354.361237 -2809.895752 -2625.359131
vn -1.000000 0.000000 0.000000
vt 0.220275 1.996244
v -354.361237 -2783.631836 -2658.809326
vn -1.000000 0.000000 0.000000
vt 0.330574 1.744008
v -354.361237 -2782.586670 -2692.019043
vn -1.000000 0.000000 0.000000
vt 0.334963 1.493584
v -354.361237 -2868.369141 -2692.760742
vn -1.000000 0.000000 0.000000
vt 0.001974 1.492661
v -354.361237 -2782.586670 -2816.296875
vn -1.000000 0.000000 0.000000
vt 0.336286 0.747888
v -354.361237 -2868.369141 -2816.296875
vn -1.000000 0.000000 0.000000
vt 0.003005 0.747657
v -354.361328 -2836.540283 -2591.591064
vn 0.000000 0.000000 1.000000
vt 0.037215 0.452018
v -354.361328 -2868.486084 -2591.591064
vn 0.000000 0.000000 1.000000
vt 0.034331 0.268142
v -231.027756 -2868.486084 -2591.591064
vn 0.000000 0.000000 1.000000
vt 0.924611 0.268142
v -231.027756 -2836.540283 -2591.591064
vn 0.000000 0.000000 1.000000
vt 0.927495 0.452018
v -354.361328 -2809.895752 -2625.359375
vn 0.000000 0.000000 1.000000
vt 0.034438 0.197182
v -354.361328 -2836.540283 -2625.359375
vn 0.000000 0.000000 1.000000
vt 0.034438 0.033159
v -231.027740 -2836.540283 -2625.359375
vn 0.000000 0.000000 1.000000
vt 0.832206 0.033159
v -231.027740 -2809.895752 -2625.359375
vn 0.000000 0.000000 1.000000
vt 0.832205 0.197182
v -354.361298 -2783.631836 -2658.809570
vn 0.000000 0.000000 1.000000
vt 0.041157 0.710958
v -354.361298 -2809.895752 -2658.809570
vn 0.000000 0.000000 1.000000
vt 0.041157 0.516284
v -231.027740 -2809.895752 -2658.809570
vn 0.000000 0.000000 1.000000
vt 0.870761 0.516284
v -231.027710 -2783.631836 -2658.809570
vn 0.000000 0.000000 1.000000
vt 0.870761 0.710958
v -231.027756 -2868.486084 -2591.591064
vn 1.000000 -0.000001 0.000000
vt 0.000500 2.250880
v -231.027725 -2836.540527 -2625.359131
vn 1.000000 -0.000001 0.000000
vt 0.108378 1.996244
v -231.027725 -2836.540527 -2591.590820
vn 1.000000 -0.000001 0.000000
vt 0.108378 2.250880
v -231.027725 -2809.895996 -2658.809326
vn 1.000000 0.000000 0.000000
vt 0.220275 1.744008
v -231.027725 -2809.895996 -2625.359131
vn 1.000000 0.000000 0.000000
vt 0.220275 1.996244
v -231.027725 -2782.587158 -2692.019043
vn 1.000000 0.000000 0.000000
vt 0.334963 1.493584
v -231.027725 -2783.632080 -2658.809326
vn 1.000000 0.000000 0.000000
vt 0.330574 1.744008
v -231.027756 -2868.134766 -2692.760986
vn 1.000000 -0.000001 0.000000
vt 0.001974 1.492661
v -109.882538 -2783.631836 -2662.025635
vn 0.000000 0.000000 1.000000
vt 0.335624 1.120736
v -110.067993 -2826.058838 -2662.025635
vn 0.000000 0.000000 1.000000
vt 0.169057 1.120447
v 10.891773 -2826.058838 -2662.025635
vn 0.000000 0.000000 1.000000
vt 0.168468 1.493122
v 11.262651 -2783.631836 -2662.025635
vn 0.000000 0.000000 1.000000
vt 0.334963 1.493584
v -231.027710 -2783.631836 -2662.025635
vn 0.000000 0.000000 1.000000
vt 0.336286 0.747888
v -231.027725 -2826.058838 -2662.025635
vn 0.000000 0.000000 1.000000
vt 0.169645 0.747772
v -231.027725 -2868.486084 -2662.025635
vn 0.000000 0.000000 1.000000
vt 0.003005 0.747657
v -110.253418 -2868.486084 -2662.025635
vn 0.000000 0.000000 1.000000
vt 0.002490 1.120159
v 10.520894 -2868.486084 -2662.025635
vn -0.000018 0.001199 0.999999
vt 0.001974 1.492661
f 69/69/69 67/67/67 68/68/68
f 67/67/67 69/69/69 70/70/70
f 87/87/87 89/89/89 90/90/90
f 89/89/89 87/87/87 88/88/88
f 91/91/91 88/88/88 87/87/87
f 88/88/88 91/91/91 92/92/92
f 95/95/95 89/89/89 94/94/94
f 88/88/88 94/94/94 89/89/89
f 94/94/94 88/88/88 93/93/93
f 92/92/92 93/93/93 88/88/88
f 65/65/65 66/66/66 63/63/63
f 64/64/64 63/63/63 66/66/66
f 63/63/63 64/64/64 60/60/60
f 59/59/59 60/60/60 64/64/64
f 60/60/60 59/59/59 61/61/61
f 60/60/60 62/62/62 63/63/63
f 59/59/59 57/57/57 58/58/58
f 57/57/57 59/59/59 64/64/64
f 82/82/82 84/84/84 85/85/85
f 84/84/84 82/82/82 86/86/86
f 80/80/80 86/86/86 82/82/82
f 86/86/86 80/80/80 79/79/79
f 81/81/81 79/79/79 80/80/80
f 82/82/82 83/83/83 80/80/80
f 73/73/73 71/71/71 72/72/72
f 71/71/71 73/73/73 74/74/74
f 77/77/77 75/75/75 76/76/76
f 75/75/75 77/77/77 78/78/78
