mtllib LAKETOWN_WAREHOUSE1_ANIM_WH1_FALLBEAM9948__AI.mtl
g allBeam9948__AI
usemtl log_top
v -1967.860962 -4314.181152 5088.287109
vn 0.181895 0.796704 0.576348
vt 0.001453 0.999500
v -1967.860962 -4314.181152 5071.039063
vn 0.427900 0.840467 -0.332440
vt 0.998467 0.999500
v -2002.459229 -4314.451172 5071.021484
vn -0.537108 0.196112 -0.820399
vt 0.999501 0.000500
v -2002.459229 -4314.451172 5088.303711
vn -0.536552 0.195997 0.820790
vt 0.000500 0.000500
v -1825.985107 -4434.640625 5088.481934
vn 0.875296 0.404017 0.265759
vt 0.001453 0.999500
v -1826.057251 -4463.881348 5088.498535
vn -0.115745 -0.602544 0.789648
vt 0.000500 0.000500
v -1826.057251 -4463.880859 5070.657715
vn 0.731451 -0.415118 -0.540977
vt 0.999501 0.000500
v -1825.985107 -4434.640625 5070.675781
vn 0.609542 0.282908 -0.740555
vt 0.998467 0.999500
f 3/3/3 1/1/1 2/2/2
f 1/1/1 3/3/3 4/4/4
f 7/7/7 5/5/5 6/6/6
f 5/5/5 7/7/7 8/8/8
usemtl wood_planks
v -2002.459229 -4314.451172 5071.021484
vn -0.537108 0.196112 -0.820399
vt 1.507584 0.500000
v -1967.860962 -4314.181152 5071.039063
vn 0.427900 0.840467 -0.332440
vt 0.987923 0.500000
v -1825.985107 -4434.640625 5070.675781
vn 0.609542 0.282908 -0.740555
vt 0.998467 0.999500
v -1825.985107 -4434.640625 5088.481934
vn 0.875296 0.404017 0.265759
vt 0.506811 1.000000
v -1967.860962 -4314.181152 5088.287109
vn 0.181895 0.796704 0.576348
vt 0.506812 0.500000
v -2002.459229 -4314.451172 5088.303711
vn -0.536552 0.195997 0.820790
vt -0.000000 0.500000
v -1826.057251 -4463.881348 5088.498535
vn -0.115745 -0.602544 0.789648
vt -0.000000 1.000000
v -1826.057251 -4463.881348 5088.498535
vn -0.115745 -0.602544 0.789648
vt 0.506811 1.000000
v -2002.459229 -4314.451172 5088.303711
vn -0.536552 0.195997 0.820790
vt 0.506812 0.500000
v -2002.459229 -4314.451172 5071.021484
vn -0.537108 0.196112 -0.820399
vt 0.987923 0.500000
v -1826.057251 -4463.880859 5070.657715
vn 0.731451 -0.415118 -0.540977
vt 1.507584 1.000000
v -1826.057251 -4463.880859 5070.657715
vn 0.731451 -0.415118 -0.540977
vt 0.987923 1.000000
f 18/18/18 16/16/16 17/17/17
f 16/16/16 18/18/18 20/20/20
f 14/14/14 15/15/15 13/13/13
f 12/12/12 13/13/13 15/15/15
f 13/13/13 12/12/12 10/10/10
f 11/11/11 10/10/10 12/12/12
f 10/10/10 11/11/11 9/9/9
f 19/19/19 9/9/9 11/11/11
