mtllib LAKETOWN_EXTERIOR_PS_LT_WINDOW_LONG_LOD1_52.mtl
g ow_long_lod1_52
usemtl Large_window
v 2234.094482 100.079628 -2730.447754
vn -1.000000 0.000000 0.000000
vt -0.001735 0.000000
v 2234.094482 -47.648724 -2730.447754
vn -1.000000 0.000000 0.000000
vt -0.001735 1.000000
v 2234.094238 -47.648724 -2723.324951
vn -1.000000 0.000000 0.000004
vt 0.090920 0.999257
v 2234.094482 100.079628 -2723.325195
vn -1.000000 0.000000 0.000000
vt 0.066928 0.000000
v 2234.094482 100.079628 -2723.325195
vn 0.000094 0.000002 1.000000
vt 0.066928 0.000000
v 2234.094482 -47.648724 -2723.324951
vn 0.000125 0.000003 1.000000
vt 0.065834 1.000000
v 2238.012695 -47.648724 -2723.325439
vn 0.000094 0.000002 1.000000
vt 0.099418 1.000000
v 2238.012695 100.079628 -2723.325439
vn 0.000062 0.000002 1.000000
vt 0.099418 0.000000
v 2234.094482 100.173668 -2662.858643
vn -1.000000 0.000000 0.000000
vt 0.896977 0.001548
v 2234.094482 100.173683 -2723.325439
vn -1.000000 0.000000 0.000000
vt 0.090920 0.001548
v 2234.094482 93.064812 -2723.325439
vn -1.000000 0.000000 0.000000
vt 0.090920 0.034246
v 2234.094482 93.064796 -2662.858643
vn -1.000000 0.000000 0.000000
vt 0.896977 0.035340
v 2234.094482 93.064796 -2662.858643
vn -0.000001 -1.000000 0.000000
vt 0.896977 0.035340
v 2234.094482 93.064812 -2723.325439
vn 0.000000 -1.000000 0.000000
vt 0.090920 0.034246
v 2238.012695 93.064812 -2723.325439
vn -0.000001 -1.000000 0.000000
vt 0.090920 0.053664
v 2238.012695 93.064789 -2662.858643
vn -0.000002 -1.000000 0.000000
vt 0.896977 0.053664
v 2234.094482 100.079620 -2655.750000
vn -1.000000 0.000001 -0.000017
vt 1.000000 0.000000
v 2234.094482 100.079620 -2662.858887
vn -1.000000 0.000000 0.000000
vt 0.931337 0.000000
v 2234.094482 -47.648724 -2662.858887
vn -1.000000 0.000000 -0.000007
vt 0.932431 1.000000
v 2234.094238 -47.648724 -2655.750000
vn -1.000000 0.000002 -0.000034
vt 1.000000 1.000000
v 2234.094482 100.079620 -2662.858887
vn 0.000031 0.000001 -1.000000
vt 0.931337 0.000000
v 2238.012695 100.079620 -2662.858643
vn 0.000062 0.000002 -1.000000
vt 0.898847 0.000000
v 2238.012451 -47.648724 -2662.858887
vn 0.000031 0.000001 -1.000000
vt 0.898847 1.000000
v 2234.094482 -47.648724 -2662.858887
vn 0.000000 0.000000 -1.000000
vt 0.932431 1.000000
v 2234.094482 -47.648724 -2662.858887
vn -1.000000 0.000000 -0.000007
vt 0.896977 0.999257
v 2234.094482 -40.539852 -2662.858887
vn -1.000000 0.000000 0.000004
vt 0.896977 0.959446
v 2234.094238 -40.539852 -2723.324951
vn -1.000000 0.000000 0.000004
vt 0.090920 0.960540
v 2234.094482 -40.539852 -2662.858887
vn -0.000001 1.000000 0.000000
vt 0.896977 0.959446
v 2238.012451 -40.539845 -2662.858887
vn -0.000002 1.000000 0.000000
vt 0.896977 0.941122
v 2238.012451 -40.539852 -2723.324951
vn -0.000001 1.000000 0.000000
vt 0.090920 0.941122
v 2234.094238 -40.539852 -2723.324951
vn 0.000000 1.000000 0.000000
vt 0.090920 0.960540
v 2237.948486 -48.013149 -2730.435059
vn -1.000000 0.000000 0.000000
vt 0.000000 1.000000
v 2237.948486 -48.013149 -2656.185059
vn -1.000000 0.000000 0.000000
vt 1.000000 1.000000
v 2237.948486 100.486847 -2656.185059
vn -1.000000 0.000000 0.000000
vt 1.000000 0.000000
v 2237.948486 100.486855 -2730.435059
vn -1.000000 0.000000 0.000000
vt 0.000000 0.000000
v 2255.159668 -62.462807 -543.756836
vn -1.000000 0.000002 0.000000
vt 0.896977 0.999257
v 2255.159668 -62.462807 -483.290771
vn -1.000000 0.000002 -0.000002
vt 0.090920 0.999257
v 2255.159668 -55.353935 -483.290771
vn -1.000000 0.000002 -0.000002
vt 0.090920 0.960540
v 2211.534912 579.467712 -1090.290039
vn 0.430592 0.000003 -0.902547
vt 0.099418 1.000000
v 2207.998535 579.467712 -1091.977295
vn 0.430621 0.000004 -0.902533
vt 0.065834 1.000000
v 2207.998535 727.196045 -1091.976807
vn 0.430592 0.000003 -0.902547
vt 0.066928 0.000000
v 2255.159424 85.265678 -1650.915039
vn -1.000000 0.000000 0.000000
vt -0.001735 0.000000
v 2255.159424 -62.462666 -1650.915039
vn -1.000000 0.000000 0.000000
vt -0.001735 1.000000
v 2255.159180 -62.462666 -1643.792114
vn -1.000000 0.000000 0.000004
vt 0.090920 0.999257
v 2255.159424 85.265678 -1643.792603
vn -1.000000 0.000000 0.000000
vt 0.066928 0.000000
v 2255.159424 85.265678 -1643.792603
vn 0.000094 0.000002 1.000000
vt 0.066928 0.000000
v 2255.159424 -62.462666 -1643.792114
vn 0.000125 0.000003 1.000000
vt 0.065834 1.000000
v 2259.077637 -62.462666 -1643.792603
vn 0.000094 0.000002 1.000000
vt 0.099418 1.000000
v 2259.077637 85.265678 -1643.792847
vn 0.000062 0.000002 1.000000
vt 0.099418 0.000000
v 2255.159424 85.359726 -1583.325928
vn -1.000000 0.000000 0.000000
vt 0.896977 0.001548
v 2255.159424 85.359734 -1643.792847
vn -1.000000 0.000000 0.000000
vt 0.090920 0.001548
v 2255.159424 78.250862 -1643.792847
vn -1.000000 0.000000 0.000000
vt 0.090920 0.034246
v 2255.159424 78.250854 -1583.325928
vn -1.000000 0.000000 0.000000
vt 0.896977 0.035340
v 2255.159424 78.250854 -1583.325928
vn -0.000001 -1.000000 0.000000
vt 0.896977 0.035340
v 2255.159424 78.250862 -1643.792847
vn 0.000000 -1.000000 0.000000
vt 0.090920 0.034246
v 2259.077637 78.250862 -1643.792847
vn -0.000001 -1.000000 0.000000
vt 0.090920 0.053664
v 2259.077637 78.250847 -1583.325928
vn -0.000002 -1.000000 0.000000
vt 0.896977 0.053664
v 2255.159424 85.265678 -1576.217285
vn -1.000000 0.000001 -0.000017
vt 1.000000 0.000000
v 2255.159424 85.265678 -1583.326172
vn -1.000000 0.000000 0.000000
vt 0.931337 0.000000
v 2255.159424 -62.462669 -1583.326172
vn -1.000000 0.000000 -0.000007
vt 0.932431 1.000000
v 2255.159180 -62.462669 -1576.217285
vn -1.000000 0.000002 -0.000034
vt 1.000000 1.000000
v 2255.159424 85.265678 -1583.326172
vn 0.000031 0.000001 -1.000000
vt 0.931337 0.000000
v 2259.077637 85.265678 -1583.325928
vn 0.000062 0.000002 -1.000000
vt 0.898847 0.000000
v 2259.077393 -62.462669 -1583.326172
vn 0.000031 0.000001 -1.000000
vt 0.898847 1.000000
v 2255.159424 -62.462669 -1583.326172
vn 0.000000 0.000000 -1.000000
vt 0.932431 1.000000
v 2255.159424 -62.462669 -1583.326172
vn -1.000000 0.000000 -0.000007
vt 0.896977 0.999257
v 2255.159424 -55.353798 -1583.326172
vn -1.000000 0.000000 0.000004
vt 0.896977 0.959446
v 2255.159180 -55.353794 -1643.792114
vn -1.000000 0.000000 0.000004
vt 0.090920 0.960540
v 2255.159424 -55.353798 -1583.326172
vn 0.000000 1.000000 0.000000
vt 0.896977 0.959446
v 2259.077393 -55.353798 -1583.326172
vn 0.000000 1.000000 0.000000
vt 0.896977 0.941122
v 2259.077393 -55.353794 -1643.792114
vn 0.000000 1.000000 0.000000
vt 0.090920 0.941122
v 2255.159180 -55.353794 -1643.792114
vn 0.000000 1.000000 0.000000
vt 0.090920 0.960540
v 2259.013428 -62.827091 -1650.902344
vn -1.000000 0.000000 0.000000
vt 0.000000 1.000000
v 2259.013428 -62.827095 -1576.652344
vn -1.000000 0.000000 0.000000
vt 1.000000 1.000000
v 2259.013428 85.672905 -1576.652344
vn -1.000000 0.000000 0.000000
vt 1.000000 0.000000
v 2259.013428 85.672905 -1650.902344
vn -1.000000 0.000000 0.000000
vt 0.000000 0.000000
v 2207.998535 579.467712 -1091.977295
vn -0.902585 0.000002 -0.430512
vt 0.090920 0.999257
v 2204.932129 579.467712 -1085.548218
vn -0.902587 0.000000 -0.430508
vt -0.001735 1.000000
v 2204.932129 727.196045 -1085.548218
vn -0.902586 0.000000 -0.430510
vt -0.001735 0.000000
v 2234.029785 579.467712 -1146.552979
vn -0.902586 0.000001 -0.430510
vt 0.932431 1.000000
v 2234.030029 727.196045 -1146.552979
vn -0.902587 0.000001 -0.430508
vt 0.931337 0.000000
v 2237.090332 727.196045 -1152.969360
vn -0.902587 0.000001 -0.430508
vt 1.000000 0.000000
v 2255.159668 -62.462807 -476.167969
vn -1.000000 0.000000 -0.000002
vt -0.001735 1.000000
v 2255.159668 85.265541 -476.167969
vn -1.000000 0.000000 -0.000002
vt -0.001735 0.000000
v 2255.159912 85.265541 -483.290527
vn -1.000000 0.000000 -0.000002
vt 0.066928 0.000000
v 2259.077881 -62.462807 -483.290527
vn 0.000062 0.000002 -1.000000
vt 0.099418 1.000000
v 2255.159912 -62.462807 -483.290771
vn 0.000062 0.000002 -1.000000
vt 0.065834 1.000000
v 2255.159912 85.265541 -483.290527
vn 0.000062 0.000002 -1.000000
vt 0.066928 0.000000
v 2259.077881 85.265541 -483.290283
vn 0.000062 0.000002 -1.000000
vt 0.099418 0.000000
v 2255.159912 78.250725 -483.290039
vn -1.000000 -0.000002 0.000000
vt 0.090920 0.034246
v 2255.159668 85.359596 -483.290039
vn -1.000000 -0.000002 0.000000
vt 0.090920 0.001548
v 2255.159668 85.359596 -543.757080
vn -1.000000 -0.000002 0.000000
vt 0.896977 0.001548
v 2255.159912 78.250725 -543.757080
vn -1.000000 -0.000002 0.000000
vt 0.896977 0.035340
v 2259.077881 78.250725 -483.290039
vn -0.000001 -1.000000 0.000000
vt 0.090920 0.053664
v 2255.159912 78.250725 -483.290039
vn 0.000000 -1.000000 0.000000
vt 0.090920 0.034246
v 2255.159912 78.250725 -543.757080
vn -0.000001 -1.000000 0.000000
vt 0.896977 0.035340
v 2259.077881 78.250717 -543.757080
vn -0.000002 -1.000000 0.000000
vt 0.896977 0.053664
v 2255.159668 -62.462807 -543.756836
vn -1.000000 0.000002 0.000000
vt 0.932431 1.000000
v 2255.159912 85.265549 -543.756836
vn -1.000000 0.000001 0.000002
vt 0.931337 0.000000
v 2255.159912 85.265549 -550.865723
vn -1.000000 0.000001 0.000002
vt 1.000000 0.000000
v 2255.159668 -62.462807 -550.865723
vn -1.000000 0.000001 0.000002
vt 1.000000 1.000000
v 2259.077881 -62.462807 -543.756836
vn 0.000031 0.000001 1.000000
vt 0.898847 1.000000
v 2259.078125 85.265549 -543.757080
vn 0.000062 0.000002 1.000000
vt 0.898847 0.000000
v 2255.159912 85.265549 -543.756836
vn 0.000031 0.000001 1.000000
vt 0.931337 0.000000
v 2255.159668 -62.462807 -543.756836
vn 0.000000 0.000000 1.000000
vt 0.932431 1.000000
v 2255.159668 -55.353935 -543.756836
vn -1.000000 0.000002 -0.000002
vt 0.896977 0.959446
v 2237.090332 579.467712 -1152.969360
vn -0.902587 0.000001 -0.430508
vt 1.000000 1.000000
v 2259.077881 -55.353935 -483.290771
vn -0.000002 1.000000 0.000000
vt 0.090920 0.941122
v 2259.077881 -55.353920 -543.756836
vn -0.000004 1.000000 0.000000
vt 0.896977 0.941122
v 2255.159668 -55.353935 -543.756836
vn -0.000002 1.000000 0.000000
vt 0.896977 0.959446
v 2255.159668 -55.353935 -483.290771
vn 0.000000 1.000000 0.000000
vt 0.090920 0.960540
v 2259.013672 85.672775 -550.430664
vn -1.000000 -0.000001 0.000000
vt 1.000000 0.000000
v 2259.013916 -62.827232 -550.430664
vn -1.000000 -0.000001 0.000000
vt 1.000000 1.000000
v 2259.013916 -62.827232 -476.180664
vn -1.000000 -0.000001 0.000000
vt 0.000000 1.000000
v 2259.013672 85.672768 -476.180664
vn -1.000000 -0.000001 0.000000
vt 0.000000 0.000000
v 2234.029785 586.576599 -1146.552979
vn 0.000000 1.000000 0.000000
vt 0.896977 0.959446
v 2207.998535 586.576599 -1091.977295
vn 0.000000 1.000000 0.000000
vt 0.090920 0.960540
v 2211.534912 586.576599 -1090.290527
vn 0.000000 1.000000 0.000000
vt 0.090920 0.941122
v 2208.416260 579.103271 -1083.900513
vn -0.902585 -0.000001 -0.430511
vt 0.000000 1.000000
v 2208.416260 727.603271 -1083.900513
vn -0.902585 -0.000001 -0.430511
vt 0.000000 0.000000
v 2240.381592 727.603271 -1150.917480
vn -0.902585 -0.000001 -0.430511
vt 1.000000 0.000000
v 2208.416260 579.103271 -1000.842041
vn -0.902585 -0.000001 0.430511
vt 0.000000 1.000000
v 2240.381836 579.103271 -933.825073
vn -0.902585 -0.000002 0.430512
vt 1.000000 1.000000
v 2240.381592 727.603271 -933.825073
vn -0.902585 -0.000001 0.430511
vt 1.000000 0.000000
v 2207.998535 727.196045 -1091.976807
vn -0.902584 0.000000 -0.430513
vt 0.066928 0.000000
v 2208.416260 727.603271 -1000.841980
vn -0.902586 0.000000 0.430510
vt 0.000000 0.000000
v 2211.534912 727.196045 -1090.289795
vn 0.430562 0.000002 -0.902561
vt 0.099418 0.000000
v 2207.998291 720.181213 -1091.976563
vn -0.902585 -0.000005 -0.430511
vt 0.090920 0.034246
v 2207.998291 727.290100 -1091.976685
vn -0.902585 -0.000009 -0.430511
vt 0.090920 0.001548
v 2234.030029 727.290100 -1146.553223
vn -0.902585 -0.000005 -0.430511
vt 0.896977 0.001548
v 2234.030029 720.181213 -1146.553223
vn -0.902585 -0.000002 -0.430511
vt 0.896977 0.035340
v 2211.534668 720.181213 -1090.289795
vn 0.000000 -1.000000 0.000000
vt 0.090920 0.053664
v 2207.998291 720.181213 -1091.976563
vn 0.000000 -1.000000 0.000000
vt 0.090920 0.034246
v 2234.030029 720.181213 -1146.553223
vn 0.000000 -1.000000 0.000000
vt 0.896977 0.035340
v 2237.566406 720.181213 -1144.866455
vn 0.000000 -1.000000 0.000000
vt 0.896977 0.053664
v 2204.932129 727.196045 -999.194275
vn -0.902577 0.000000 0.430529
vt -0.001735 0.000000
v 2204.932129 579.467712 -999.194336
vn -0.902575 0.000000 0.430533
vt -0.001735 1.000000
v 2207.998535 579.467712 -992.765259
vn -0.902584 0.000000 0.430514
vt 0.090920 0.999257
v 2207.998535 727.196045 -992.765686
vn 0.430587 0.000002 0.902549
vt 0.066928 0.000000
v 2207.998779 579.467712 -992.765381
vn 0.430612 0.000003 0.902537
vt 0.065834 1.000000
v 2211.534912 579.467712 -994.452515
vn 0.430587 0.000002 0.902549
vt 0.099418 1.000000
v 2237.566406 579.467712 -1144.866211
vn -0.430469 0.000001 0.902605
vt 0.898847 1.000000
v 2237.566650 727.196045 -1144.866455
vn -0.430438 0.000002 0.902620
vt 0.898847 0.000000
v 2234.030029 727.196045 -1146.552979
vn -0.430469 0.000001 0.902605
vt 0.931337 0.000000
v 2234.029785 579.467712 -1146.552979
vn -0.430501 0.000000 0.902590
vt 0.932431 1.000000
v 2207.998535 586.576599 -1091.977295
vn -0.902585 0.000002 -0.430512
vt 0.090920 0.960540
v 2234.029785 586.576599 -1146.552979
vn -0.902585 0.000002 -0.430512
vt 0.896977 0.959446
v 2234.029785 579.467712 -1146.552979
vn -0.902586 0.000001 -0.430510
vt 0.896977 0.999257
v 2237.566406 586.576599 -1144.866211
vn 0.000000 1.000000 0.000000
vt 0.896977 0.941122
v 2211.534912 727.196045 -994.452698
vn 0.430562 0.000001 0.902561
vt 0.099418 0.000000
v 2240.381592 579.103271 -1150.917480
vn -0.902585 -0.000001 -0.430511
vt 1.000000 1.000000
v 2234.030029 720.181213 -938.189331
vn 0.000000 -1.000000 0.000000
vt 0.896977 0.035340
v 2207.998535 720.181213 -992.765930
vn 0.000000 -1.000000 0.000000
vt 0.090920 0.034246
v 2211.534912 720.181213 -994.452698
vn 0.000000 -1.000000 0.000000
vt 0.090920 0.053664
v 2237.566650 720.181213 -939.876221
vn 0.000000 -1.000000 0.000000
vt 0.896977 0.053664
v 2211.535156 586.576599 -994.452026
vn 0.000000 1.000000 0.000000
vt 0.090920 0.941122
v 2207.998535 586.576599 -992.765259
vn 0.000000 1.000000 0.000000
vt 0.090920 0.960540
v 2234.030029 586.576599 -938.189575
vn 0.000000 1.000000 0.000000
vt 0.896977 0.959446
v 2237.566406 586.576599 -939.876465
vn 0.000000 1.000000 0.000000
vt 0.896977 0.941122
v 2207.998535 727.196045 -992.765686
vn -0.902579 0.000000 0.430525
vt 0.066928 0.000000
v 2237.090576 727.196045 -931.773254
vn -0.902587 0.000001 0.430507
vt 1.000000 0.000000
v 2234.030029 727.196045 -938.189636
vn -0.902580 0.000000 0.430521
vt 0.931337 0.000000
v 2234.030029 579.467712 -938.189575
vn -0.902586 0.000001 0.430511
vt 0.932431 1.000000
v 2207.998535 586.576599 -992.765259
vn -0.902584 0.000000 0.430514
vt 0.090920 0.960540
v 2234.030029 579.467712 -938.189575
vn -0.902586 0.000001 0.430511
vt 0.896977 0.999257
v 2234.030029 727.290100 -938.189270
vn -0.902586 -0.000016 0.430510
vt 0.896977 0.001548
v 2207.998291 727.290100 -992.765930
vn -0.902585 -0.000031 0.430511
vt 0.090920 0.001548
v 2207.998535 720.181213 -992.765930
vn -0.902586 -0.000016 0.430510
vt 0.090920 0.034246
v 2234.030029 720.181213 -938.189331
vn -0.902587 0.000000 0.430508
vt 0.896977 0.035340
v 2237.090332 579.467712 -931.773193
vn -0.902594 0.000002 0.430493
vt 1.000000 1.000000
v 2234.030029 727.196045 -938.189636
vn -0.430487 0.000001 -0.902597
vt 0.931337 0.000000
v 2237.566650 727.196045 -939.876221
vn -0.430437 0.000002 -0.902621
vt 0.898847 0.000000
v 2237.566406 579.467712 -939.876465
vn -0.430487 0.000001 -0.902597
vt 0.898847 1.000000
v 2234.030029 586.576599 -938.189575
vn -0.902584 0.000000 0.430514
vt 0.896977 0.959446
v 2234.030029 579.467712 -938.189575
vn -0.430537 -0.000001 -0.902573
vt 0.932431 1.000000
f 3/3/3 1/1/1 2/2/2
f 1/1/1 3/3/3 4/4/4
f 27/27/27 25/25/25 26/26/26
f 25/25/25 27/27/27 3/3/3
f 11/11/11 9/9/9 10/10/10
f 9/9/9 11/11/11 12/12/12
f 15/15/15 13/13/13 14/14/14
f 13/13/13 15/15/15 16/16/16
f 19/19/19 17/17/17 18/18/18
f 17/17/17 19/19/19 20/20/20
f 23/23/23 21/21/21 22/22/22
f 21/21/21 23/23/23 24/24/24
f 30/30/30 28/28/28 29/29/29
f 28/28/28 30/30/30 31/31/31
f 34/34/34 32/32/32 33/33/33
f 32/32/32 34/34/34 35/35/35
f 36/36/36 37/37/37 38/38/38
f 38/38/38 106/106/106 36/36/36
f 84/84/84 37/37/37 83/83/83
f 37/37/37 84/84/84 85/85/85
f 41/41/41 39/39/39 40/40/40
f 39/39/39 41/41/41 127/127/127
f 44/44/44 42/42/42 43/43/43
f 42/42/42 44/44/44 45/45/45
f 68/68/68 66/66/66 67/67/67
f 66/66/66 68/68/68 44/44/44
f 48/48/48 46/46/46 47/47/47
f 46/46/46 48/48/48 49/49/49
f 52/52/52 50/50/50 51/51/51
f 50/50/50 52/52/52 53/53/53
f 56/56/56 54/54/54 55/55/55
f 54/54/54 56/56/56 57/57/57
f 60/60/60 58/58/58 59/59/59
f 58/58/58 60/60/60 61/61/61
f 64/64/64 62/62/62 63/63/63
f 62/62/62 64/64/64 65/65/65
f 71/71/71 69/69/69 70/70/70
f 69/69/69 71/71/71 72/72/72
f 75/75/75 73/73/73 74/74/74
f 73/73/73 75/75/75 76/76/76
f 79/79/79 77/77/77 78/78/78
f 77/77/77 79/79/79 125/125/125
f 148/148/148 146/146/146 147/147/147
f 146/146/146 148/148/148 77/77/77
f 82/82/82 80/80/80 81/81/81
f 80/80/80 82/82/82 107/107/107
f 88/88/88 86/86/86 87/87/87
f 86/86/86 88/88/88 89/89/89
f 92/92/92 90/90/90 91/91/91
f 90/90/90 92/92/92 93/93/93
f 96/96/96 94/94/94 95/95/95
f 94/94/94 96/96/96 97/97/97
f 100/100/100 98/98/98 99/99/99
f 98/98/98 100/100/100 101/101/101
f 104/104/104 102/102/102 103/103/103
f 102/102/102 104/104/104 105/105/105
f 112/112/112 114/114/114 115/115/115
f 114/114/114 112/112/112 113/113/113
f 118/118/118 116/116/116 117/117/117
f 116/116/116 118/118/118 149/149/149
f 121/121/121 119/119/119 120/120/120
f 119/119/119 121/121/121 151/151/151
f 124/124/124 122/122/122 123/123/123
f 122/122/122 124/124/124 126/126/126
f 130/130/130 128/128/128 129/129/129
f 128/128/128 130/130/130 131/131/131
f 134/134/134 132/132/132 133/133/133
f 132/132/132 134/134/134 135/135/135
f 138/138/138 136/136/136 137/137/137
f 136/136/136 138/138/138 160/160/160
f 165/165/165 164/164/164 138/138/138
f 164/164/164 165/165/165 174/174/174
f 141/141/141 139/139/139 140/140/140
f 139/139/139 141/141/141 150/150/150
f 144/144/144 142/142/142 143/143/143
f 142/142/142 144/144/144 145/145/145
f 154/154/154 152/152/152 153/153/153
f 152/152/152 154/154/154 155/155/155
f 158/158/158 156/156/156 157/157/157
f 156/156/156 158/158/158 159/159/159
f 163/163/163 161/161/161 162/162/162
f 161/161/161 163/163/163 170/170/170
f 168/168/168 166/166/166 167/167/167
f 166/166/166 168/168/168 169/169/169
f 173/173/173 171/171/171 172/172/172
f 171/171/171 173/173/173 175/175/175
f 7/7/7 5/5/5 6/6/6
f 5/5/5 7/7/7 8/8/8
f 110/110/110 108/108/108 109/109/109
f 108/108/108 110/110/110 111/111/111
usemtl window_grid
v 2235.605469 720.233154 -1146.062012
vn -0.902585 -0.000001 -0.430511
vt 1.000000 0.000000
v 2235.605469 586.592102 -1146.062012
vn -0.902585 -0.000001 -0.430511
vt 1.000000 1.000000
v 2209.504883 586.592102 -1091.340576
vn -0.902585 -0.000001 -0.430511
vt 0.000000 1.000000
v 2235.728027 -40.524326 -2723.251221
vn -1.000000 -0.000002 0.000000
vt 0.000000 1.000000
v 2235.728027 -40.524326 -2662.623779
vn -1.000000 -0.000002 0.000000
vt 1.000000 1.000000
v 2235.727783 93.116714 -2662.623535
vn -1.000000 -0.000002 0.000000
vt 1.000000 0.000000
v 2256.792969 -55.338276 -1643.718384
vn -1.000000 -0.000002 0.000000
vt 0.000000 1.000000
v 2256.792969 -55.338280 -1583.090942
vn -1.000000 -0.000002 0.000000
vt 1.000000 1.000000
v 2256.792725 78.302773 -1583.090942
vn -1.000000 -0.000002 0.000000
vt 1.000000 0.000000
v 2256.793213 78.302643 -543.991943
vn -1.000000 -0.000001 0.000000
vt 1.000000 0.000000
v 2256.793457 -55.338402 -543.991943
vn -1.000000 -0.000001 0.000000
vt 1.000000 1.000000
v 2256.793457 -55.338402 -483.364746
vn -1.000000 -0.000001 0.000000
vt 0.000000 1.000000
v 2256.792725 78.302773 -1643.718262
vn -1.000000 -0.000002 0.000000
vt 0.000000 0.000000
v 2209.504639 720.233154 -1091.340698
vn -0.902585 -0.000001 -0.430511
vt 0.000000 0.000000
v 2256.793213 78.302635 -483.364746
vn -1.000000 -0.000001 0.000000
vt 0.000000 0.000000
v 2235.727783 93.116722 -2723.250977
vn -1.000000 -0.000002 0.000000
vt 0.000000 0.000000
v 2209.504883 586.592102 -993.401978
vn -0.902585 0.000000 0.430512
vt 0.000000 1.000000
v 2235.605713 586.592102 -938.680542
vn -0.902585 0.000000 0.430512
vt 1.000000 1.000000
v 2235.605713 720.233154 -938.680542
vn -0.902585 0.000000 0.430512
vt 1.000000 0.000000
v 2209.504883 720.233154 -993.401794
vn -0.902584 0.000000 0.430513
vt 0.000000 0.000000
f 178/178/178 176/176/176 177/177/177
f 176/176/176 178/178/178 189/189/189
f 181/181/181 179/179/179 180/180/180
f 179/179/179 181/181/181 191/191/191
f 184/184/184 182/182/182 183/183/183
f 182/182/182 184/184/184 188/188/188
f 187/187/187 185/185/185 186/186/186
f 185/185/185 187/187/187 190/190/190
f 194/194/194 192/192/192 193/193/193
f 192/192/192 194/194/194 195/195/195
