mtllib LAKETOWN_EXTERIOR_PS_LT_WINDOWS2440.mtl
g LT_Windows2440
usemtl window
v -2437.559570 204.873718 2991.012939
vn 0.965926 -0.258819 0.000000
vt 1.000000 1.000000
v -2437.559814 204.873718 2886.110840
vn 0.965926 -0.258819 0.000000
vt 0.000000 1.000000
v -2403.653809 331.411743 2991.012939
vn 0.965926 -0.258819 0.000000
vt 1.000000 0.000000
v -2403.654053 331.411743 2886.110840
vn 0.965926 -0.258819 0.000000
vt 0.000000 0.000000
v -2437.559814 204.873718 2872.928223
vn 0.965926 -0.258819 0.000000
vt 1.000000 1.000000
v -2437.559814 204.873718 2768.025879
vn 0.965926 -0.258819 0.000000
vt 0.000000 1.000000
v -2403.654053 331.411743 2872.928223
vn 0.965926 -0.258819 0.000000
vt 1.000000 0.000000
v -2403.654053 331.411743 2768.025879
vn 0.965926 -0.258819 0.000000
vt 0.000000 0.000000
f 1/1/1 2/2/2 3/3/3
f 4/4/4 3/3/3 2/2/2
f 5/5/5 6/6/6 7/7/7
f 8/8/8 7/7/7 6/6/6
