mtllib LAKETOWN_EXTERIOR_PS_LT_INSIDE_WALL_01.mtl
g _Inside_Wall_01
usemtl cross_beams
v -913.981995 -480.781647 572.111328
vn 1.000000 0.000000 0.000000
vt 3.079882 -0.532511
v -913.981995 -480.781616 150.276154
vn 1.000000 0.000000 0.000000
vt 1.411047 -0.532511
v -913.981995 -119.509880 150.212906
vn 1.000000 0.000000 0.000000
vt 1.410797 -2.142511
v -913.981995 -119.509903 572.111328
vn 1.000000 0.000000 0.000000
vt 3.079882 -2.142511
v -556.169739 -480.781647 931.169983
vn 0.000000 0.000000 -1.000000
vt 3.127539 -0.532511
v -913.981934 -480.781647 931.170044
vn 0.800000 0.000000 -0.600000
vt 1.103710 -0.532511
v -913.981934 -119.509918 931.170044
vn 0.447214 0.000000 -0.894427
vt 1.103710 -2.142511
v -556.169678 -119.509918 931.169983
vn 0.000000 0.000000 -1.000000
vt 3.127539 -2.142511
v 450.728729 -480.781647 931.169922
vn -0.423447 0.000000 -0.905921
vt 3.822682 -0.532511
v -52.720493 -480.781647 931.169922
vn 0.000000 0.000000 -1.000000
vt 0.975111 -0.532511
v -52.720493 -119.509918 931.169983
vn 0.000000 0.000000 -1.000000
vt 0.975111 -2.142511
v 450.728729 -119.509918 931.169922
vn -0.423447 0.000000 -0.905921
vt 3.822682 -2.142511
v 808.293518 -480.781647 503.453674
vn -0.999800 0.000000 -0.020013
vt 3.975906 -0.532511
v 450.728729 -480.781647 931.169922
vn -0.423447 0.000000 -0.905921
vt 0.822682 -0.532511
v 450.728729 -119.509918 931.169922
vn -0.423447 0.000000 -0.905921
vt 0.822682 -2.142511
v 808.293518 -119.509895 503.453674
vn -0.999800 0.000000 -0.020013
vt 3.975906 -2.142511
v 545.441528 -480.781616 162.153595
vn -0.962052 0.000000 0.272866
vt 3.412487 -0.532511
v 808.293518 -480.781647 503.453674
vn -0.999800 0.000000 -0.020013
vt 0.975906 -0.532511
v 808.293518 -119.509895 503.453674
vn -0.999800 0.000000 -0.020013
vt 0.975906 -2.142511
v 545.441528 -119.509880 162.153595
vn -0.962052 0.000000 0.272866
vt 3.412487 -2.142511
v 580.437683 -480.781586 -174.665848
vn -0.905253 0.000000 -0.424873
vt 3.327839 -0.532511
v 545.441528 -480.781616 162.153595
vn -0.962052 0.000000 0.272866
vt 1.412487 -0.532511
v 545.441528 -119.509880 162.153595
vn -0.962052 0.000000 0.272866
vt 1.412487 -2.142511
v 580.437683 -119.509865 -174.665833
vn -0.905253 0.000000 -0.424873
vt 3.327839 -2.142511
v 885.427246 -480.781586 -486.617920
vn -0.394497 0.000000 -0.918897
vt 3.795444 -0.532511
v 580.437683 -480.781586 -174.665848
vn -0.905253 0.000000 -0.424873
vt 1.327839 -0.532511
v 580.437683 -119.509865 -174.665833
vn -0.905253 0.000000 -0.424873
vt 1.327839 -2.142511
v 885.427246 -119.509857 -486.617920
vn -0.394497 0.000000 -0.918897
vt 3.795444 -2.142511
v 1290.847534 -480.781586 -492.439728
vn 0.370971 0.000000 -0.928644
vt 3.088787 -0.532511
v 885.427246 -480.781586 -486.617920
vn -0.394497 0.000000 -0.918897
vt 0.795444 -0.532511
v 885.427246 -119.509857 -486.617920
vn -0.394497 0.000000 -0.918897
vt 0.795444 -2.142511
v 1290.847534 -119.509857 -492.439697
vn 0.370971 0.000000 -0.928644
vt 3.088787 -2.142511
v 1594.395996 -480.781616 -195.455338
vn 0.699336 0.000000 -0.714793
vt 3.145638 -0.532511
v 1290.847534 -480.781586 -492.439728
vn 0.370971 0.000000 -0.928644
vt 1.088787 -0.532511
v 1290.847534 -119.509857 -492.439697
vn 0.370971 0.000000 -0.928644
vt 1.088787 -2.142511
v 1594.395996 -119.509865 -195.455322
vn 0.699336 0.000000 -0.714793
vt 3.145638 -2.142511
v 1918.894043 -480.781555 -1167.821045
vn -0.999990 0.000000 0.004392
vt 3.115135 -0.532511
v 1921.645264 -480.781586 -541.369141
vn -0.907370 0.000000 -0.420332
vt 0.074272 -0.532511
v 1921.645264 -119.509850 -541.369141
vn -0.970406 0.000000 -0.241480
vt 0.074272 -2.142511
v 1918.894043 -119.509827 -1167.821045
vn -0.999990 0.000000 0.004392
vt 3.115135 -2.142511
v -913.982178 -480.781525 -1959.152954
vn 0.000000 0.000000 1.000000
vt 3.549168 -0.532511
v -205.485260 -480.781525 -1959.153198
vn 0.000000 0.000000 1.000000
vt 0.685173 -0.532511
v -205.485260 -119.509789 -1959.153076
vn 0.000000 0.000000 1.000000
vt 0.685173 -2.142511
v -913.982178 -119.509789 -1959.152954
vn 0.000000 0.000000 1.000000
vt 3.549168 -2.142511
v 1594.395996 -842.053345 -195.455353
vn -0.726433 0.000000 -0.687237
vt 1.145638 1.077489
v 1594.395996 -480.781616 -195.455338
vn -0.726433 0.000000 -0.687237
vt 1.145638 -0.532511
v 1921.645264 -480.781586 -541.369141
vn -0.907370 0.000000 -0.420332
vt 3.074272 -0.532511
v 1921.645264 -842.053345 -541.369141
vn -0.929905 0.000000 -0.367801
vt 3.074272 1.077489
v -913.981995 -842.053345 572.111328
vn 1.000000 0.000000 0.000000
vt 1.079882 1.077489
v -913.981995 -480.781647 572.111328
vn 1.000000 0.000000 0.000000
vt 1.079882 -0.532511
v -913.981934 -480.781647 931.170044
vn 0.800000 0.000000 -0.600000
vt 3.103710 -0.532511
v -913.981995 -842.053406 931.169983
vn 0.707107 0.000000 -0.707107
vt 3.103710 1.077489
v 1919.449707 -842.053284 -1563.487305
vn -0.999999 0.000000 -0.001405
vt 1.104164 1.077489
v 1919.449707 -480.781555 -1563.487305
vn -0.999999 0.000000 -0.001405
vt 1.104164 -0.532511
v 1920.005493 -480.781525 -1959.153442
vn -0.707603 0.000000 0.706610
vt 3.093189 -0.532511
v 1920.005493 -842.053284 -1959.153564
vn -0.447464 0.000000 0.894302
vt 3.093189 1.077489
v -913.981995 -842.053345 572.111328
vn 1.000000 0.000000 0.000000
vt 3.079882 1.077489
v -913.981995 -842.053345 150.276138
vn 1.000000 0.000000 0.000000
vt 1.411047 1.077489
v -913.981995 -119.509903 572.111328
vn 1.000000 0.000000 0.000000
vt 1.079882 -2.142511
v -913.981934 -119.509918 931.170044
vn 0.447214 0.000000 -0.894427
vt 3.103710 -2.142511
v -556.169739 -842.053406 931.169983
vn 0.000000 0.000000 -1.000000
vt 3.127539 1.077489
v -913.981995 -842.053406 931.169983
vn 0.707107 0.000000 -0.707107
vt 1.103710 1.077489
v 450.728729 -842.053406 931.169861
vn -0.423447 0.000000 -0.905921
vt 3.822682 1.077489
v -52.720493 -842.053406 931.169922
vn 0.000000 0.000000 -1.000000
vt 0.975111 1.077489
v 808.293518 -842.053345 503.453644
vn -0.999800 0.000000 -0.020013
vt 3.975906 1.077489
v 450.728729 -842.053406 931.169861
vn -0.423447 0.000000 -0.905921
vt 0.822682 1.077489
v 545.441528 -842.053345 162.153610
vn -0.962052 0.000000 0.272866
vt 3.412487 1.077489
v 808.293518 -842.053345 503.453644
vn -0.999800 0.000000 -0.020013
vt 0.975906 1.077489
v 580.437683 -842.053345 -174.665863
vn -0.905253 0.000000 -0.424873
vt 3.327839 1.077489
v 545.441528 -842.053345 162.153610
vn -0.962052 0.000000 0.272866
vt 1.412487 1.077489
v 885.427246 -842.053284 -486.617950
vn -0.394497 0.000000 -0.918897
vt 3.795444 1.077489
v 580.437683 -842.053345 -174.665863
vn -0.905253 0.000000 -0.424873
vt 1.327839 1.077489
v 1290.847534 -842.053284 -492.439728
vn 0.370971 0.000000 -0.928644
vt 3.088787 1.077489
v 885.427246 -842.053284 -486.617950
vn -0.394497 0.000000 -0.918897
vt 0.795444 1.077489
v 1594.395996 -842.053345 -195.455353
vn 0.699336 0.000000 -0.714793
vt 3.145638 1.077489
v 1290.847534 -842.053284 -492.439728
vn 0.370971 0.000000 -0.928644
vt 1.088787 1.077489
v 1594.395996 -119.509865 -195.455322
vn -0.726433 0.000000 -0.687237
vt 1.145638 -2.142511
v 1921.645264 -119.509850 -541.369141
vn -0.970406 0.000000 -0.241480
vt 3.074272 -2.142511
v 1918.894043 -842.053284 -1167.821167
vn -0.999990 0.000000 0.004392
vt 3.115135 1.077489
v 1921.645264 -842.053345 -541.369141
vn -0.929905 0.000000 -0.367801
vt 0.074272 1.077489
v 1918.894043 -119.509827 -1167.821045
vn -0.999990 0.000000 0.004392
vt 1.115135 -2.142511
v 1919.449707 -119.509804 -1563.487305
vn -0.999999 0.000000 -0.001405
vt 3.104164 -2.142511
v 1919.449707 -480.781555 -1563.487305
vn -0.999999 0.000000 -0.001405
vt 3.104164 -0.532511
v 1918.894043 -480.781555 -1167.821045
vn -0.999990 0.000000 0.004392
vt 1.115135 -0.532511
v -913.982178 -842.053284 -1959.152954
vn 0.000000 0.000000 1.000000
vt 3.549168 1.077489
v -205.485260 -842.053284 -1959.153198
vn 0.000000 0.000000 1.000000
vt 0.685173 1.077489
v -913.982056 -842.053284 -693.457458
vn 1.000000 0.000000 0.000000
vt 1.073128 1.077489
v -913.982056 -480.781586 -693.457458
vn 1.000000 0.000000 0.000000
vt 1.073128 -0.532511
v -913.982056 -480.781586 -271.559021
vn 1.000000 0.000000 0.000000
vt 2.742213 -0.532511
v -913.982056 -842.053284 -271.559052
vn 1.000000 0.000000 0.000000
vt 2.742213 1.077489
v -913.982178 -842.053284 -1537.254272
vn 1.000000 0.000000 0.000000
vt -2.265042 1.077489
v -913.982178 -480.781555 -1537.254272
vn 1.000000 0.000000 0.000000
vt -2.265042 -0.532511
v -913.982117 -480.781555 -1115.355957
vn 1.000000 0.000000 0.000000
vt -0.595957 -0.532511
v -913.982117 -842.053284 -1115.355957
vn 1.000000 0.000000 0.000000
vt -0.595957 1.077489
v -913.982056 -119.509842 -693.583984
vn 1.000000 0.000000 0.000000
vt 1.072627 -2.142511
v -913.982056 -119.509865 -271.685547
vn 1.000000 0.000000 0.000000
vt 2.741712 -2.142511
v -913.982178 -119.509811 -1537.317627
vn 1.000000 0.000000 0.000000
vt -2.265292 -2.142511
v -913.982117 -119.509827 -1115.482422
vn 1.000000 0.000000 0.000000
vt -0.596458 -2.142511
v 503.011688 -842.053284 -1959.153198
vn 0.000000 0.000000 1.000000
vt 0.821178 1.077489
v 503.011688 -480.781525 -1959.153198
vn 0.000000 0.000000 1.000000
vt 0.821178 -0.532511
v -205.485260 -480.781525 -1959.153198
vn 0.000000 0.000000 1.000000
vt 3.685173 -0.532511
v -205.485260 -842.053284 -1959.153198
vn 0.000000 0.000000 1.000000
vt 3.685173 1.077489
v 1920.005493 -842.053284 -1959.153564
vn -0.447464 0.000000 0.894302
vt 1.093189 1.077489
v 1920.005493 -480.781525 -1959.153442
vn -0.707603 0.000000 0.706610
vt 1.093189 -0.532511
v 1211.508667 -480.781525 -1959.153320
vn 0.000000 0.000000 1.000000
vt 3.957184 -0.532511
v 1211.508667 -842.053284 -1959.153320
vn 0.000000 0.000000 1.000000
vt 3.957184 1.077489
v 503.011688 -119.509789 -1959.153198
vn 0.000000 0.000000 1.000000
vt 0.821178 -2.142511
v -205.485260 -119.509789 -1959.153076
vn 0.000000 0.000000 1.000000
vt 3.685173 -2.142511
v 1920.005493 -119.509789 -1959.153442
vn -0.894929 0.000000 0.446208
vt 1.093189 -2.142511
v 1211.508667 -119.509789 -1959.153320
vn 0.000000 0.000000 1.000000
vt 3.957184 -2.142511
v 1211.508667 -842.053284 -1959.153320
vn 0.000000 0.000000 1.000000
vt 0.957184 1.077489
v 1211.508667 -480.781525 -1959.153320
vn 0.000000 0.000000 1.000000
vt 0.957184 -0.532511
v 503.011688 -480.781525 -1959.153198
vn 0.000000 0.000000 1.000000
vt 3.821178 -0.532511
v 503.011688 -842.053284 -1959.153198
vn 0.000000 0.000000 1.000000
vt 3.821178 1.077489
v 1211.508667 -119.509789 -1959.153320
vn 0.000000 0.000000 1.000000
vt 0.957184 -2.142511
v 503.011688 -119.509789 -1959.153198
vn 0.000000 0.000000 1.000000
vt 3.821178 -2.142511
v -556.169739 -842.053406 931.169983
vn 0.000000 0.000000 -1.000000
vt 1.127539 1.077489
v -556.169739 -480.781647 931.169983
vn 0.000000 0.000000 -1.000000
vt 1.127539 -0.532511
v -52.720493 -480.781647 931.169922
vn 0.000000 0.000000 -1.000000
vt 3.975111 -0.532511
v -52.720493 -842.053406 931.169922
vn 0.000000 0.000000 -1.000000
vt 3.975111 1.077489
v -556.169678 -119.509918 931.169983
vn 0.000000 0.000000 -1.000000
vt 1.127539 -2.142511
v -52.720493 -119.509918 931.169983
vn 0.000000 0.000000 -1.000000
vt 3.975111 -2.142511
v -913.982056 -842.053284 -271.559052
vn 1.000000 0.000000 0.000000
vt 1.742213 1.077489
v -913.982056 -480.781586 -271.559021
vn 1.000000 0.000000 0.000000
vt 1.742213 -0.532511
v -913.981995 -480.781616 150.276154
vn 1.000000 0.000000 0.000000
vt 3.411047 -0.532511
v -913.981995 -842.053345 150.276138
vn 1.000000 0.000000 0.000000
vt 3.411047 1.077489
v -913.982056 -119.509865 -271.685547
vn 1.000000 0.000000 0.000000
vt 1.741712 -2.142511
v -913.981995 -119.509880 150.212906
vn 1.000000 0.000000 0.000000
vt 3.410797 -2.142511
v -913.982178 -480.781525 -1959.152832
vn 1.000000 0.000000 0.000000
vt -3.934127 -0.532511
v -913.982178 -119.509789 -1959.152710
vn 1.000000 0.000000 0.000000
vt -3.934127 -2.142511
v -913.982178 -842.053284 -1959.152832
vn 1.000000 0.000000 0.000000
vt -3.934127 1.077489
v 1920.005493 -119.509789 -1959.153442
vn -0.894929 0.000000 0.446208
vt 3.093189 -2.142511
v 1919.449707 -119.509804 -1563.487305
vn -0.999999 0.000000 -0.001405
vt 1.104164 -2.142511
v 1918.894043 -842.053284 -1167.821167
vn -0.999990 0.000000 0.004392
vt 1.115135 1.077489
v 1919.449707 -842.053284 -1563.487305
vn -0.999999 0.000000 -0.001405
vt 3.104164 1.077489
f 47/47/47 48/48/48 45/45/45
f 45/45/45 46/46/46 47/47/47
f 77/77/77 47/47/47 46/46/46
f 47/47/47 77/77/77 78/78/78
f 87/87/87 89/89/89 90/90/90
f 89/89/89 87/87/87 88/88/88
f 94/94/94 88/88/88 87/87/87
f 88/88/88 94/94/94 93/93/93
f 91/91/91 93/93/93 94/94/94
f 93/93/93 91/91/91 92/92/92
f 131/131/131 92/92/92 91/91/91
f 92/92/92 131/131/131 129/129/129
f 97/97/97 129/129/129 130/130/130
f 129/129/129 97/97/97 92/92/92
f 98/98/98 92/92/92 97/97/97
f 92/92/92 98/98/98 93/93/93
f 95/95/95 93/93/93 98/98/98
f 93/93/93 95/95/95 88/88/88
f 96/96/96 88/88/88 95/95/95
f 88/88/88 96/96/96 89/89/89
f 10/10/10 63/63/63 64/64/64
f 63/63/63 10/10/10 9/9/9
f 11/11/11 9/9/9 10/10/10
f 9/9/9 11/11/11 12/12/12
f 14/14/14 65/65/65 66/66/66
f 65/65/65 14/14/14 13/13/13
f 15/15/15 13/13/13 14/14/14
f 13/13/13 15/15/15 16/16/16
f 18/18/18 67/67/67 68/68/68
f 67/67/67 18/18/18 17/17/17
f 19/19/19 17/17/17 18/18/18
f 17/17/17 19/19/19 20/20/20
f 22/22/22 69/69/69 70/70/70
f 69/69/69 22/22/22 21/21/21
f 23/23/23 21/21/21 22/22/22
f 21/21/21 23/23/23 24/24/24
f 26/26/26 71/71/71 72/72/72
f 71/71/71 26/26/26 25/25/25
f 27/27/27 25/25/25 26/26/26
f 25/25/25 27/27/27 28/28/28
f 30/30/30 73/73/73 74/74/74
f 73/73/73 30/30/30 29/29/29
f 31/31/31 29/29/29 30/30/30
f 29/29/29 31/31/31 32/32/32
f 34/34/34 75/75/75 76/76/76
f 75/75/75 34/34/34 33/33/33
f 35/35/35 33/33/33 34/34/34
f 33/33/33 35/35/35 36/36/36
f 38/38/38 79/79/79 80/80/80
f 79/79/79 38/38/38 37/37/37
f 39/39/39 37/37/37 38/38/38
f 37/37/37 39/39/39 40/40/40
f 42/42/42 85/85/85 86/86/86
f 85/85/85 42/42/42 41/41/41
f 43/43/43 41/41/41 42/42/42
f 41/41/41 43/43/43 44/44/44
f 5/5/5 7/7/7 8/8/8
f 7/7/7 5/5/5 6/6/6
f 61/61/61 6/6/6 5/5/5
f 6/6/6 61/61/61 62/62/62
f 107/107/107 108/108/108 100/100/100
f 101/101/101 100/100/100 108/108/108
f 100/100/100 101/101/101 99/99/99
f 102/102/102 99/99/99 101/101/101
f 109/109/109 110/110/110 104/104/104
f 105/105/105 104/104/104 110/110/110
f 104/104/104 105/105/105 103/103/103
f 106/106/106 103/103/103 105/105/105
f 115/115/115 116/116/116 112/112/112
f 113/113/113 112/112/112 116/116/116
f 112/112/112 113/113/113 111/111/111
f 114/114/114 111/111/111 113/113/113
f 121/121/121 122/122/122 118/118/118
f 119/119/119 118/118/118 122/122/122
f 118/118/118 119/119/119 117/117/117
f 120/120/120 117/117/117 119/119/119
f 127/127/127 128/128/128 124/124/124
f 125/125/125 124/124/124 128/128/128
f 124/124/124 125/125/125 123/123/123
f 126/126/126 123/123/123 125/125/125
f 56/56/56 53/53/53 55/55/55
f 54/54/54 55/55/55 53/53/53
f 55/55/55 54/54/54 132/132/132
f 133/133/133 132/132/132 54/54/54
f 83/83/83 81/81/81 82/82/82
f 81/81/81 83/83/83 84/84/84
f 134/134/134 84/84/84 83/83/83
f 83/83/83 135/135/135 134/134/134
f 49/49/49 50/50/50 51/51/51
f 59/59/59 51/51/51 50/50/50
f 51/51/51 59/59/59 60/60/60
f 51/51/51 52/52/52 49/49/49
f 2/2/2 57/57/57 58/58/58
f 57/57/57 2/2/2 1/1/1
f 3/3/3 1/1/1 2/2/2
f 1/1/1 3/3/3 4/4/4
