mtllib LAKETOWN_PUB_PS_PUB_INST_DOOR1_LOD1_02.mtl
g t_door1_LOD1_02
usemtl door_high_rez
v 736.592529 -2964.752930 500.868347
vn 0.000000 0.000000 -1.000000
vt 0.000000 0.500000
v 793.616211 -2964.752930 500.868317
vn 0.000000 0.000000 -1.000000
vt 0.500000 0.500000
v 793.616211 -3079.324951 500.868347
vn 0.000000 0.000000 -1.000000
vt 0.500000 1.000000
v 736.592529 -3079.324951 500.868347
vn 0.000000 0.000000 -1.000000
vt 0.000000 1.000000
v 746.207520 -2930.024414 495.554169
vn -0.005280 -0.308012 -0.951368
vt 0.091091 0.338974
v 739.638245 -2928.436279 500.805054
vn -0.629898 -0.041216 -0.775583
vt 0.064038 0.332458
v 735.386658 -2923.125000 500.862091
vn -0.744735 -0.255600 -0.616473
vt 0.006113 0.310665
v 739.096802 -2921.199219 495.556549
vn -0.129951 -0.275111 -0.952589
vt 0.035259 0.302763
v 746.207520 -2930.024414 495.554169
vn -0.005280 -0.308012 -0.951368
vt 0.024506 0.350649
v 735.990784 -2932.870117 500.831177
vn -0.411501 -0.179592 -0.893540
vt 0.024506 0.350649
v 743.671570 -2934.663330 500.859528
vn 0.138403 -0.777409 -0.613579
vt 0.071165 0.358007
v 751.321289 -2930.458740 500.856934
vn 0.475010 -0.735902 -0.482508
vt 0.131229 0.340756
v 755.277039 -2925.145264 497.536865
vn 0.471520 -0.021147 -0.881602
vt 0.162576 0.318954
v 756.192871 -2926.062012 500.855103
vn 0.834526 -0.426938 -0.348267
vt 0.169481 0.322715
v 757.023560 -2919.099121 500.854828
vn 0.949288 -0.113267 -0.293296
vt 0.176003 0.294146
v 757.023560 -2919.099121 500.854828
vn -0.675176 0.495110 -0.546811
vt 0.176003 0.294146
v 754.493958 -2922.547852 500.855652
vn -0.475879 0.631032 -0.612648
vt 0.156141 0.316922
v 749.502502 -2924.162598 500.857361
vn 0.147948 0.612258 -0.776693
vt 0.114105 0.324675
v 745.854248 -2919.273438 500.912933
vn 0.618047 -0.126914 -0.775829
vt 0.090945 0.301949
v 750.225464 -2910.181152 495.552887
vn 0.195954 -0.031422 -0.980110
vt 0.122640 0.257554
v 750.227295 -2915.814697 500.857300
vn 0.243387 -0.671313 -0.700073
vt 0.122640 0.280669
v 807.295837 -2910.181152 495.533691
vn 0.503657 -0.042739 -0.862846
vt 0.595997 0.257554
v 804.466980 -2913.690918 500.839050
vn 0.273241 -0.862898 -0.425143
vt 0.577563 0.271954
v 810.281433 -2910.181152 500.789429
vn 0.494231 -0.822749 -0.280750
vt 0.652771 0.257554
v 810.281433 -2910.181152 500.789429
vn 0.579089 0.745953 -0.328954
vt 0.652771 0.257554
v 804.466980 -2905.645508 500.839020
vn 0.307980 0.793398 -0.525040
vt 0.577563 0.243153
v 750.227295 -2903.521729 500.857300
vn 0.283523 0.640440 -0.713758
vt 0.122640 0.234439
v 739.096802 -2899.163086 495.556549
vn -0.264991 0.145772 -0.953168
vt 0.035259 0.212345
v 745.854248 -2901.088867 500.912933
vn 0.463545 0.839702 -0.282889
vt 0.090945 0.213158
v 746.207520 -2889.541748 495.554169
vn 0.134354 0.367879 -0.920116
vt 0.091091 0.172868
v 749.502502 -2896.199707 500.857330
vn 0.138453 -0.580892 -0.802119
vt 0.114105 0.190433
v 745.854248 -2901.088867 500.912933
vn 0.502687 -0.376511 -0.778168
vt 0.090945 0.213158
v 755.012573 -2894.813721 497.536957
vn 0.450122 0.019626 -0.892751
vt 0.160499 0.194499
v 754.493958 -2897.814453 500.855652
vn -0.465638 -0.619007 -0.632465
vt 0.156141 0.198185
v 757.023560 -2901.263184 500.854797
vn -0.672823 -0.493383 -0.551255
vt 0.176003 0.220962
v 757.023560 -2901.263184 500.854797
vn 0.930789 0.111063 -0.348277
vt 0.176003 0.220962
v 756.192871 -2894.300293 500.855072
vn 0.801410 0.448869 -0.395295
vt 0.169481 0.192393
v 751.321289 -2889.903564 500.856934
vn 0.541530 0.693687 -0.474914
vt 0.131230 0.174352
v 743.671570 -2885.698975 500.859497
vn 0.144553 0.832907 -0.534201
vt 0.071165 0.157100
v 735.990784 -2887.492188 500.831146
vn -0.410597 0.226988 -0.883112
vt 0.024506 0.164458
v 739.638245 -2891.926025 500.805054
vn -0.628979 0.050544 -0.775777
vt 0.064038 0.182650
v 735.386658 -2897.237061 500.862091
vn -0.746816 0.254223 -0.614522
vt 0.006113 0.204443
v 746.207520 -3042.373535 495.554199
vn -0.005281 -0.308012 -0.951368
vt 0.091091 0.338974
v 739.638245 -3040.785400 500.805084
vn -0.629899 -0.041217 -0.775583
vt 0.064038 0.332458
v 735.386658 -3035.474121 500.862122
vn -0.744735 -0.255600 -0.616473
vt 0.006113 0.310665
v 739.096802 -3033.548340 495.556580
vn -0.129951 -0.275111 -0.952589
vt 0.035259 0.302763
v 746.207520 -3042.373535 495.554199
vn -0.005281 -0.308012 -0.951368
vt 0.024506 0.350649
v 735.990784 -3045.218994 500.831207
vn -0.411501 -0.179593 -0.893540
vt 0.024506 0.350649
v 743.671570 -3047.012451 500.859558
vn 0.138402 -0.777410 -0.613578
vt 0.071165 0.358007
v 751.321289 -3042.807861 500.856964
vn 0.475010 -0.735902 -0.482508
vt 0.131229 0.340756
v 755.277039 -3037.494385 497.536896
vn 0.471520 -0.021146 -0.881602
vt 0.162576 0.318954
v 756.192871 -3038.410889 500.855133
vn 0.834527 -0.426938 -0.348265
vt 0.169481 0.322715
v 757.023560 -3031.448242 500.854858
vn 0.949288 -0.113268 -0.293296
vt 0.176003 0.294146
v 757.023560 -3031.448242 500.854858
vn -0.675176 0.495111 -0.546811
vt 0.176003 0.294146
v 754.493958 -3034.896973 500.855682
vn -0.475879 0.631033 -0.612647
vt 0.156141 0.316922
v 749.502502 -3036.511719 500.857391
vn 0.147947 0.612258 -0.776693
vt 0.114105 0.324675
v 745.854248 -3031.622559 500.912964
vn 0.618046 -0.126915 -0.775829
vt 0.090945 0.301949
v 750.225464 -3022.530273 495.552917
vn 0.195953 -0.031423 -0.980110
vt 0.122640 0.257554
v 750.227295 -3028.163818 500.857330
vn 0.243387 -0.671313 -0.700072
vt 0.122640 0.280669
v 807.295837 -3022.530273 495.533722
vn 0.503657 -0.042740 -0.862846
vt 0.595997 0.257554
v 804.466980 -3026.039795 500.839081
vn 0.273241 -0.862899 -0.425142
vt 0.577563 0.271954
v 810.281433 -3022.530273 500.789459
vn 0.494230 -0.822749 -0.280749
vt 0.652771 0.257554
v 810.281433 -3022.530273 500.789459
vn 0.579090 0.745952 -0.328954
vt 0.652771 0.257554
v 804.466980 -3017.994629 500.839050
vn 0.307981 0.793397 -0.525042
vt 0.577563 0.243153
v 750.227295 -3015.870605 500.857330
vn 0.283523 0.640440 -0.713759
vt 0.122640 0.234439
v 739.096802 -3011.512207 495.556580
vn -0.264991 0.145772 -0.953169
vt 0.035259 0.212345
v 745.854248 -3013.437988 500.912964
vn 0.463544 0.839704 -0.282887
vt 0.090945 0.213158
v 746.207520 -3001.890869 495.554199
vn 0.134354 0.367879 -0.920116
vt 0.091091 0.172868
v 749.502502 -3008.548584 500.857361
vn 0.138453 -0.580892 -0.802119
vt 0.114105 0.190433
v 745.854248 -3013.437988 500.912964
vn 0.502688 -0.376511 -0.778167
vt 0.090945 0.213158
v 755.012573 -3007.162842 497.536987
vn 0.450122 0.019625 -0.892751
vt 0.160499 0.194499
v 754.493958 -3010.163574 500.855682
vn -0.465637 -0.619007 -0.632465
vt 0.156141 0.198185
v 757.023560 -3013.612305 500.854828
vn -0.672821 -0.493384 -0.551256
vt 0.176003 0.220962
v 757.023560 -3013.612305 500.854828
vn 0.930789 0.111063 -0.348277
vt 0.176003 0.220962
v 756.192871 -3006.649414 500.855103
vn 0.801410 0.448869 -0.395296
vt 0.169481 0.192393
v 751.321289 -3002.252686 500.856964
vn 0.541530 0.693686 -0.474915
vt 0.131230 0.174352
v 743.671570 -2998.048096 500.859528
vn 0.144553 0.832907 -0.534201
vt 0.071165 0.157100
v 735.990784 -2999.841309 500.831177
vn -0.410597 0.226988 -0.883112
vt 0.024506 0.164458
v 739.638245 -3004.274902 500.805084
vn -0.628979 0.050544 -0.775777
vt 0.064038 0.182650
v 735.386658 -3009.586182 500.862122
vn -0.746816 0.254223 -0.614522
vt 0.006113 0.204443
v 811.402710 -2959.317139 500.847870
vn -0.551881 -0.034252 -0.833219
vt 0.678828 0.470796
v 819.002869 -2959.061279 495.803375
vn -0.361416 -0.054515 -0.930810
vt 0.739254 0.469747
v 826.774170 -2963.650391 500.846680
vn -0.499348 -0.467431 -0.729493
vt 0.799542 0.488576
v 831.010620 -2959.061279 495.589752
vn -0.011219 0.122304 -0.992429
vt 0.833552 0.469747
v 831.057800 -2993.479736 498.241547
vn -0.012598 -0.424527 -0.905328
vt 0.833552 0.610970
v 828.071350 -2992.251709 500.846588
vn -0.688776 -0.192110 -0.699057
vt 0.809729 0.605931
v 831.104980 -2995.935791 500.846344
vn 0.003102 -0.727527 -0.686072
vt 0.833552 0.621048
v 834.138611 -2992.251709 500.846100
vn 0.686135 -0.206436 -0.697569
vt 0.857376 0.605931
v 835.435791 -2963.650391 500.846008
vn 0.495094 -0.473545 -0.728448
vt 0.867563 0.488576
v 843.018372 -2959.061279 495.376099
vn 0.356855 -0.052169 -0.932702
vt 0.927850 0.469747
v 850.807312 -2959.317139 500.844818
vn 0.573479 -0.035537 -0.818449
vt 0.988276 0.470796
v 838.323975 -2953.712891 500.845764
vn 0.281770 0.398366 -0.872875
vt 0.890244 0.447801
v 838.455994 -2950.009033 500.845764
vn 0.388722 -0.578679 -0.716956
vt 0.891281 0.432604
v 831.010620 -2951.448486 495.589752
vn -0.008202 -0.355446 -0.934661
vt 0.833552 0.438510
v 840.475525 -2947.380859 498.073944
vn 0.219203 0.242983 -0.944939
vt 0.907511 0.421820
v 846.043884 -2950.983154 500.845184
vn 0.328400 -0.202157 -0.922652
vt 0.950869 0.436600
v 842.589478 -2946.089600 500.845428
vn 0.411744 0.664490 -0.623634
vt 0.923741 0.416522
v 835.005371 -2946.197998 500.846039
vn 0.385239 0.655073 -0.649977
vt 0.864182 0.416966
v 831.010620 -2943.617676 495.589722
vn -0.011723 0.493225 -0.869823
vt 0.833552 0.406379
v 831.104980 -2940.671631 500.846313
vn 0.005130 0.872285 -0.488970
vt 0.833552 0.394291
v 827.204590 -2946.197998 500.846619
vn -0.409688 0.638751 -0.651270
vt 0.802922 0.416966
v 821.640076 -2947.380859 498.409088
vn -0.210361 0.247109 -0.945878
vt 0.759594 0.421820
v 819.620483 -2946.089600 500.847229
vn -0.394407 0.635846 -0.663432
vt 0.743363 0.416522
v 816.166077 -2950.983154 500.847473
vn -0.296675 -0.183557 -0.937172
vt 0.716235 0.436600
v 823.753967 -2950.009033 500.846893
vn -0.406021 -0.557351 -0.724229
vt 0.775824 0.432604
v 823.885986 -2953.712891 500.846893
vn -0.287416 0.382056 -0.878308
vt 0.776861 0.447801
v 827.186584 -2961.326660 493.910400
vn 0.034002 -0.045813 -0.998371
vt 0.377816 0.748132
v 826.199341 -2959.929688 495.580017
vn -0.394790 0.578185 -0.714033
vt 0.377756 0.759482
v 827.590942 -2958.744385 495.577637
vn -0.519757 0.552049 -0.651992
vt 0.372268 0.759482
v 829.239624 -2959.584961 493.917755
vn 0.229612 0.120109 -0.965843
vt 0.372294 0.748132
v 828.134705 -2962.668213 495.580017
vn 0.411914 -0.587036 -0.696933
vt 0.378069 0.736782
v 830.702332 -2960.327637 495.579071
vn 0.699980 -0.171899 -0.693166
vt 0.372309 0.736782
v 816.975037 -2969.949707 495.580017
vn -0.716198 -0.007817 -0.697854
vt 0.396338 0.759482
v 818.600342 -2969.833496 493.912750
vn -0.147037 0.006980 -0.989106
vt 0.396334 0.748132
v 819.567688 -2973.080078 493.913544
vn -0.111882 -0.068148 -0.991382
vt 0.404586 0.748132
v 818.170166 -2973.915771 495.580017
vn -0.612528 -0.367364 -0.699895
vt 0.404808 0.759482
v 820.356506 -2969.707764 495.580017
vn 0.687896 -0.013190 -0.725690
vt 0.396719 0.736782
v 821.091064 -2972.168945 495.580017
vn 0.587303 0.351740 -0.728941
vt 0.404929 0.736782
v 822.230225 -2975.712402 493.911713
vn -0.055053 -0.077909 -0.995439
vt 0.410703 0.748132
v 821.300903 -2977.054932 495.580017
vn -0.406810 -0.587054 -0.699910
vt 0.410767 0.759482
v 823.220764 -2974.281494 495.580017
vn 0.391942 0.569955 -0.722173
vt 0.410245 0.736782
v 826.147949 -2977.481689 493.910980
vn -0.021992 -0.074686 -0.996965
vt 0.416499 0.748132
v 825.694153 -2979.054688 495.580017
vn -0.197972 -0.685761 -0.700385
vt 0.416474 0.759482
v 826.626099 -2975.824219 495.580017
vn 0.191901 0.668149 -0.718854
vt 0.416719 0.736782
v 830.932190 -2978.130127 493.910797
vn -0.000223 -0.072443 -0.997373
vt 0.428033 0.748132
v 830.932190 -2979.768799 495.580017
vn -0.000177 -0.713696 -0.700456
vt 0.428033 0.759482
v 830.932190 -2976.409668 495.580017
vn -0.000115 0.696273 -0.717777
vt 0.428619 0.736782
v 835.716431 -2977.481689 493.910980
vn 0.021412 -0.074658 -0.996979
vt 0.438008 0.748132
v 836.170227 -2979.054688 495.580017
vn 0.197689 -0.686399 -0.699839
vt 0.438032 0.759482
v 835.238281 -2975.824219 495.580017
vn -0.192210 0.668333 -0.718600
vt 0.437982 0.736782
v 839.634155 -2975.712402 493.911713
vn 0.053999 -0.077867 -0.995500
vt 0.453752 0.748132
v 840.563538 -2977.054932 495.580017
vn 0.406989 -0.588619 -0.698490
vt 0.453688 0.759482
v 838.643616 -2974.281494 495.580017
vn -0.392353 0.570275 -0.721696
vt 0.453819 0.736782
v 842.296692 -2973.080078 493.913544
vn 0.112913 -0.065950 -0.991414
vt 0.469233 0.748132
v 843.694214 -2973.915771 495.580017
vn 0.613962 -0.366071 -0.699316
vt 0.469011 0.759482
v 840.773376 -2972.168945 495.580017
vn -0.587111 0.352463 -0.728746
vt 0.469474 0.736782
v 843.264038 -2969.833496 493.912750
vn 0.147235 0.006284 -0.989082
vt 0.477491 0.748132
v 844.889343 -2969.949707 495.580017
vn 0.715742 -0.008354 -0.698315
vt 0.477150 0.759482
v 841.507874 -2969.707764 495.580017
vn -0.687811 -0.013354 -0.725767
vt 0.477859 0.736782
v 827.893921 -2957.031250 498.785095
vn -0.633198 0.721540 -0.280071
vt 0.363468 0.759482
v 829.494446 -2955.660400 498.363831
vn -0.064881 0.909329 -0.410987
vt 0.358248 0.748132
v 829.429810 -2956.954102 495.511536
vn 0.039323 0.758846 -0.650082
vt 0.362792 0.748132
v 827.775940 -2957.734863 496.881744
vn -0.607326 0.727887 -0.318332
vt 0.366339 0.759482
v 831.145020 -2957.015381 498.472473
vn 0.618247 0.706946 -0.343508
vt 0.360908 0.736782
v 831.100464 -2957.900879 496.649902
vn 0.691565 0.512470 -0.509031
vt 0.364250 0.736782
v 832.641479 -2956.953125 495.511292
vn -0.036143 0.757988 -0.651266
vt 0.514047 0.748132
v 832.586975 -2955.657959 498.362946
vn 0.054706 0.909525 -0.412034
vt 0.518421 0.748132
v 834.193604 -2957.027100 498.760193
vn 0.632089 0.720363 -0.285555
vt 0.518028 0.759482
v 834.298645 -2957.746094 496.863312
vn 0.613205 0.717289 -0.330871
vt 0.515139 0.759482
v 830.938293 -2957.013672 498.496552
vn -0.619456 0.708043 -0.339041
vt 0.518029 0.736782
v 830.970154 -2957.886230 496.667847
vn -0.689570 0.522594 -0.501387
vt 0.514866 0.736782
v 834.447693 -2958.770264 495.577637
vn 0.526911 0.539964 -0.656357
vt 0.508529 0.759482
v 832.785889 -2959.583008 493.917786
vn -0.228992 0.117283 -0.966337
vt 0.507894 0.748132
v 831.312256 -2960.302734 495.579071
vn -0.699579 -0.157094 -0.697073
vt 0.507334 0.736782
v 818.204895 -2965.730225 495.580017
vn -0.613696 0.367670 -0.698710
vt 0.390190 0.759482
v 819.598938 -2966.595459 493.910583
vn -0.103129 0.058428 -0.992950
vt 0.390199 0.748132
v 821.056274 -2967.500244 495.580017
vn 0.595605 -0.362698 -0.716732
vt 0.390014 0.736782
v 843.659485 -2965.730225 495.580017
vn 0.613720 0.367629 -0.698711
vt 0.484983 0.759482
v 842.265442 -2966.595459 493.910583
vn 0.103171 0.058382 -0.992949
vt 0.485425 0.748132
v 840.808105 -2967.500244 495.580017
vn -0.595562 -0.362774 -0.716729
vt 0.485888 0.736782
v 821.326233 -2962.599609 495.580017
vn -0.425683 0.572076 -0.701087
vt 0.382598 0.759482
v 822.245178 -2963.966064 493.910156
vn -0.047416 0.055166 -0.997351
vt 0.382695 0.748132
v 823.195374 -2965.378906 495.580017
vn 0.419673 -0.563060 -0.711926
vt 0.382796 0.736782
v 840.541931 -2962.602539 495.580017
vn 0.427961 0.570312 -0.701137
vt 0.494788 0.759482
v 839.618774 -2963.966797 493.910095
vn 0.046338 0.053318 -0.997502
vt 0.494888 0.748132
v 838.665222 -2965.375977 495.580017
vn -0.422141 -0.561609 -0.711612
vt 0.494991 0.736782
v 835.780029 -2959.942871 495.580017
vn 0.400302 0.573187 -0.714993
vt 0.500595 0.759482
v 834.772888 -2961.327148 493.910461
vn -0.042588 -0.045694 -0.998047
vt 0.500696 0.748132
v 833.806702 -2962.655029 495.580017
vn -0.421712 -0.574809 -0.701251
vt 0.500793 0.736782
v 736.592529 -2850.180908 500.868317
vn 0.000000 0.000000 -1.000000
vt 0.000000 0.000000
v 793.616211 -2850.180908 500.868317
vn 0.000000 0.000000 -1.000000
vt 0.500000 0.000000
v 850.639832 -2964.752930 500.868317
vn 0.000000 0.000000 -1.000000
vt 1.000000 0.500000
v 850.639832 -3079.324951 500.868347
vn 0.000000 0.000000 -1.000000
vt 1.000000 1.000000
v 850.639832 -2850.180908 500.868286
vn 0.000000 0.000000 -1.000000
vt 1.000000 0.000000
f 44/44/44 47/47/47 48/48/48
f 53/53/53 52/52/52 51/51/51
f 50/50/50 51/51/51 52/52/52
f 51/51/51 50/50/50 43/43/43
f 49/49/49 43/43/43 50/50/50
f 43/43/43 49/49/49 48/48/48
f 45/45/45 43/43/43 44/44/44
f 43/43/43 45/45/45 46/46/46
f 80/80/80 46/46/46 45/45/45
f 46/46/46 80/80/80 66/66/66
f 79/79/79 66/66/66 80/80/80
f 46/46/46 66/66/66 58/58/58
f 78/78/78 68/68/68 79/79/79
f 66/66/66 79/79/79 68/68/68
f 77/77/77 68/68/68 78/78/78
f 54/54/54 51/51/51 55/55/55
f 43/43/43 55/55/55 51/51/51
f 55/55/55 43/43/43 56/56/56
f 46/46/46 56/56/56 43/43/43
f 56/56/56 46/46/46 57/57/57
f 58/58/58 57/57/57 46/46/46
f 57/57/57 58/58/58 59/59/59
f 60/60/60 59/59/59 58/58/58
f 59/59/59 60/60/60 61/61/61
f 62/62/62 61/61/61 60/60/60
f 63/63/63 60/60/60 64/64/64
f 58/58/58 64/64/64 60/60/60
f 64/64/64 58/58/58 65/65/65
f 66/66/66 65/65/65 58/58/58
f 65/65/65 66/66/66 67/67/67
f 74/74/74 71/71/71 75/75/75
f 68/68/68 75/75/75 71/71/71
f 75/75/75 68/68/68 76/76/76
f 77/77/77 76/76/76 68/68/68
f 73/73/73 72/72/72 71/71/71
f 69/69/69 71/71/71 72/72/72
f 71/71/71 69/69/69 68/68/68
f 70/70/70 68/68/68 69/69/69
f 68/68/68 70/70/70 66/66/66
f 145/145/145 112/112/112 110/110/110
f 111/111/111 110/110/110 112/112/112
f 110/110/110 111/111/111 107/107/107
f 163/163/163 107/107/107 111/111/111
f 107/107/107 163/163/163 162/162/162
f 157/157/157 162/162/162 163/163/163
f 162/162/162 157/157/157 156/156/156
f 117/117/117 156/156/156 157/157/157
f 156/156/156 117/117/117 114/114/114
f 118/118/118 114/114/114 117/117/117
f 114/114/114 118/118/118 115/115/115
f 121/121/121 115/115/115 118/118/118
f 115/115/115 121/121/121 119/119/119
f 124/124/124 119/119/119 121/121/121
f 119/119/119 124/124/124 122/122/122
f 127/127/127 122/122/122 124/124/124
f 122/122/122 127/127/127 125/125/125
f 130/130/130 125/125/125 127/127/127
f 114/114/114 155/155/155 156/156/156
f 161/161/161 156/156/156 155/155/155
f 156/156/156 161/161/161 162/162/162
f 108/108/108 162/162/162 161/161/161
f 162/162/162 108/108/108 107/107/107
f 109/109/109 107/107/107 108/108/108
f 107/107/107 109/109/109 110/110/110
f 142/142/142 110/110/110 109/109/109
f 110/110/110 142/142/142 145/145/145
f 144/144/144 145/145/145 142/142/142
f 142/142/142 141/141/141 144/144/144
f 142/142/142 140/140/140 141/141/141
f 140/140/140 142/142/142 143/143/143
f 109/109/109 143/143/143 142/142/142
f 158/158/158 138/138/138 137/137/137
f 135/135/135 137/137/137 138/138/138
f 137/137/137 135/135/135 134/134/134
f 132/132/132 134/134/134 135/135/135
f 134/134/134 132/132/132 131/131/131
f 129/129/129 131/131/131 132/132/132
f 131/131/131 129/129/129 128/128/128
f 126/126/126 128/128/128 129/129/129
f 128/128/128 126/126/126 125/125/125
f 123/123/123 125/125/125 126/126/126
f 125/125/125 123/123/123 122/122/122
f 120/120/120 122/122/122 123/123/123
f 122/122/122 120/120/120 119/119/119
f 116/116/116 119/119/119 120/120/120
f 119/119/119 116/116/116 115/115/115
f 113/113/113 115/115/115 116/116/116
f 115/115/115 113/113/113 114/114/114
f 155/155/155 114/114/114 113/113/113
f 125/125/125 130/130/130 128/128/128
f 133/133/133 128/128/128 130/130/130
f 128/128/128 133/133/133 131/131/131
f 136/136/136 131/131/131 133/133/133
f 131/131/131 136/136/136 134/134/134
f 139/139/139 134/134/134 136/136/136
f 134/134/134 139/139/139 137/137/137
f 159/159/159 137/137/137 139/139/139
f 137/137/137 159/159/159 158/158/158
f 164/164/164 158/158/158 159/159/159
f 139/139/139 160/160/160 159/159/159
f 165/165/165 159/159/159 160/160/160
f 159/159/159 165/165/165 164/164/164
f 167/167/167 164/164/164 165/165/165
f 160/160/160 166/166/166 165/165/165
f 168/168/168 165/165/165 166/166/166
f 165/165/165 168/168/168 167/167/167
f 153/153/153 167/167/167 168/168/168
f 167/167/167 153/153/153 152/152/152
f 146/146/146 152/152/152 153/153/153
f 152/152/152 146/146/146 149/149/149
f 148/148/148 149/149/149 146/146/146
f 146/146/146 147/147/147 148/148/148
f 166/166/166 169/169/169 168/168/168
f 154/154/154 168/168/168 169/169/169
f 168/168/168 154/154/154 153/153/153
f 151/151/151 153/153/153 154/154/154
f 153/153/153 151/151/151 146/146/146
f 150/150/150 146/146/146 151/151/151
f 146/146/146 150/150/150 147/147/147
f 102/102/102 104/104/104 103/103/103
f 104/104/104 102/102/102 105/105/105
f 94/94/94 105/105/105 102/102/102
f 105/105/105 94/94/94 106/106/106
f 92/92/92 106/106/106 94/94/94
f 106/106/106 92/92/92 84/84/84
f 90/90/90 84/84/84 92/92/92
f 84/84/84 90/90/90 89/89/89
f 91/91/91 89/89/89 90/90/90
f 91/91/91 90/90/90 92/92/92
f 92/92/92 94/94/94 93/93/93
f 99/99/99 94/94/94 101/101/101
f 102/102/102 101/101/101 94/94/94
f 101/101/101 102/102/102 103/103/103
f 101/101/101 100/100/100 99/99/99
f 98/98/98 99/99/99 100/100/100
f 99/99/99 98/98/98 94/94/94
f 95/95/95 94/94/94 98/98/98
f 94/94/94 95/95/95 93/93/93
f 96/96/96 93/93/93 95/95/95
f 96/96/96 95/95/95 97/97/97
f 98/98/98 97/97/97 95/95/95
f 88/88/88 84/84/84 89/89/89
f 84/84/84 88/88/88 85/85/85
f 87/87/87 85/85/85 88/88/88
f 81/81/81 106/106/106 82/82/82
f 84/84/84 82/82/82 106/106/106
f 82/82/82 84/84/84 83/83/83
f 85/85/85 83/83/83 84/84/84
f 83/83/83 85/85/85 86/86/86
f 87/87/87 86/86/86 85/85/85
f 81/81/81 82/82/82 83/83/83
f 2/2/2 171/171/171 174/174/174
f 171/171/171 2/2/2 170/170/170
f 1/1/1 170/170/170 2/2/2
f 4/4/4 1/1/1 3/3/3
f 2/2/2 3/3/3 1/1/1
f 3/3/3 2/2/2 172/172/172
f 174/174/174 172/172/172 2/2/2
f 172/172/172 173/173/173 3/3/3
f 5/5/5 11/11/11 10/10/10
f 11/11/11 5/5/5 12/12/12
f 13/13/13 12/12/12 5/5/5
f 12/12/12 13/13/13 14/14/14
f 15/15/15 14/14/14 13/13/13
f 6/6/6 9/9/9 10/10/10
f 7/7/7 5/5/5 6/6/6
f 5/5/5 7/7/7 8/8/8
f 42/42/42 8/8/8 7/7/7
f 8/8/8 42/42/42 28/28/28
f 41/41/41 28/28/28 42/42/42
f 8/8/8 28/28/28 20/20/20
f 40/40/40 30/30/30 41/41/41
f 28/28/28 41/41/41 30/30/30
f 39/39/39 30/30/30 40/40/40
f 16/16/16 13/13/13 17/17/17
f 5/5/5 17/17/17 13/13/13
f 17/17/17 5/5/5 18/18/18
f 8/8/8 18/18/18 5/5/5
f 18/18/18 8/8/8 19/19/19
f 20/20/20 19/19/19 8/8/8
f 19/19/19 20/20/20 21/21/21
f 22/22/22 21/21/21 20/20/20
f 21/21/21 22/22/22 23/23/23
f 24/24/24 23/23/23 22/22/22
f 25/25/25 22/22/22 26/26/26
f 20/20/20 26/26/26 22/22/22
f 26/26/26 20/20/20 27/27/27
f 28/28/28 27/27/27 20/20/20
f 27/27/27 28/28/28 29/29/29
f 36/36/36 33/33/33 37/37/37
f 30/30/30 37/37/37 33/33/33
f 37/37/37 30/30/30 38/38/38
f 39/39/39 38/38/38 30/30/30
f 35/35/35 34/34/34 33/33/33
f 31/31/31 33/33/33 34/34/34
f 33/33/33 31/31/31 30/30/30
f 32/32/32 30/30/30 31/31/31
f 30/30/30 32/32/32 28/28/28
