mtllib LAKETOWN_WAREHOUSE3_PS_WH3_HALLWAT848477__GX.mtl
g llwat848477__GX
usemtl wood_planks
v 2723.518799 -2786.236328 1282.175781
vn -0.000914 -0.999999 0.001230
vt -0.000000 0.000000
v 2723.518799 -2786.196533 1314.425415
vn -0.000404 -0.446993 0.894537
vt 0.506811 0.000000
v 2594.220459 -2786.078369 1314.426147
vn -0.000815 -0.893987 0.448093
vt 0.506811 -0.500000
v 2484.379395 -3143.370361 1831.878662
vn 0.000000 0.000001 -1.000000
vt 0.298603 1.000000
v 2443.384277 -3143.370361 1831.878662
vn 0.000000 0.000001 -1.000000
vt -0.000000 1.000000
v 2443.620850 -2912.094482 1831.879028
vn -0.000001 -0.000001 -1.000000
vt -0.000000 0.000000
v 2443.857178 -2626.975830 1831.878784
vn -0.000001 -0.000001 -1.000000
vt -0.000000 -1.000000
v 2477.964111 -2626.975830 1831.878784
vn -0.000001 -0.000001 -1.000000
vt 0.298603 -1.000000
v 2478.058350 -2912.094482 1831.878906
vn -0.000001 -0.000001 -1.000000
vt 0.298603 0.000000
v 2594.220459 -2751.854736 1314.426147
vn -0.000159 0.447166 0.894451
vt 0.987923 -0.500000
v 2723.518799 -2751.807861 1314.425415
vn -0.000324 0.894328 0.447411
vt 0.987923 0.000000
v 2594.220459 -2751.846191 1282.176514
vn -0.000006 0.000000 -1.000000
vt 0.298603 -0.500000
v 2594.220459 -2786.117920 1282.176514
vn -0.000006 0.000000 -1.000000
vt -0.000000 -0.500000
v 2464.923340 -2785.999756 1282.177002
vn -0.000004 0.000000 -1.000000
vt -0.000000 -1.000000
v 2464.923340 -2751.893066 1282.177002
vn -0.000004 0.000000 -1.000000
vt 0.298603 -1.000000
v 2594.220459 -2751.846191 1282.176514
vn -0.000365 1.000000 0.000275
vt 1.507584 -0.500000
v 2723.518799 -2751.798828 1282.175781
vn -0.000367 1.000000 0.000287
vt 1.507584 0.000000
v 2723.518799 -2751.798828 1282.175781
vn -0.000006 0.000000 -1.000000
vt 0.298603 0.000000
v 2723.518799 -2786.236328 1282.175781
vn -0.000006 0.000000 -1.000000
vt -0.000000 0.000000
v 2464.922607 -2785.960205 1314.426636
vn -0.000405 -0.446993 0.894537
vt 0.506812 -1.000000
v 2464.923340 -2785.999756 1282.177002
vn -0.000914 -0.999999 0.001230
vt -0.000000 -1.000000
v 2594.220459 -2786.117920 1282.176514
vn -0.000914 -0.999999 0.001230
vt -0.000000 -0.500000
v 2464.922607 -2751.902100 1314.426636
vn -0.000324 0.894329 0.447410
vt 0.987923 -1.000000
v 2464.923340 -2751.893066 1282.177002
vn -0.000362 1.000000 0.000283
vt 1.507584 -1.000000
v 2714.695801 -2912.094482 1278.146484
vn -0.000001 -0.000001 -1.000000
vt -0.000000 0.000000
v 2749.133301 -2912.094482 1278.146484
vn -0.000001 -0.000001 -1.000000
vt 0.298603 0.000000
v 2749.227295 -3143.370117 1278.146240
vn 0.000000 0.000001 -1.000000
vt 0.298603 1.000000
v 2706.736084 -3143.370117 1278.146240
vn 0.000000 0.000001 -1.000000
vt -0.000000 1.000000
v 2714.932129 -2626.975830 1278.146240
vn -0.000001 -0.000001 -1.000000
vt -0.000000 -1.000000
v 2749.039063 -2626.975830 1278.146240
vn -0.000001 -0.000001 -1.000000
vt 0.298603 -1.000000
v 2714.695801 -2912.094482 1278.146484
vn -0.999730 0.023210 0.000983
vt -0.000000 0.000000
v 2706.736084 -3143.370117 1278.146240
vn -0.999408 0.034396 0.000983
vt -0.000000 1.000000
v 2706.775635 -3143.370361 1318.458252
vn -0.893546 0.030752 0.447917
vt 0.506811 1.000000
v 2714.735352 -2912.094482 1318.458496
vn -0.706663 0.008494 0.707499
vt 0.506811 0.000000
v 2749.218262 -3143.370361 1318.458252
vn 0.447173 0.000181 0.894447
vt 0.987923 1.000000
v 2749.124023 -2912.094482 1318.458496
vn 0.707026 0.000270 0.707187
vt 0.987923 0.000000
v 2749.227295 -3143.370117 1278.146240
vn 1.000000 0.000407 0.000228
vt 1.507584 1.000000
v 2749.133301 -2912.094482 1278.146484
vn 1.000000 0.000356 0.000228
vt 1.507584 0.000000
v 2714.932129 -2626.975830 1278.146240
vn -0.999999 0.000829 0.000984
vt -0.000000 -1.000000
v 2714.971924 -2626.975830 1318.458252
vn -0.447037 0.000371 0.894515
vt 0.506812 -1.000000
v 2749.029785 -2626.975830 1318.458252
vn 0.894345 0.000296 0.447377
vt 0.987923 -1.000000
v 2749.039063 -2626.975830 1278.146240
vn 1.000000 0.000330 0.000228
vt 1.507584 -1.000000
v 2443.621582 -2912.094482 1278.145752
vn -0.000001 -0.000001 -1.000000
vt -0.000000 0.000000
v 2478.058838 -2912.094482 1278.145752
vn -0.000001 -0.000001 -1.000000
vt 0.298603 0.000000
v 2485.622559 -3143.370117 1278.145508
vn 0.000000 0.000001 -1.000000
vt 0.298603 1.000000
v 2712.866455 -3106.058594 1317.908325
vn 0.000550 0.999981 -0.006078
vt -0.000000 -1.000000
v 2712.865723 -3104.324951 1603.164063
vn 0.000550 1.000000 0.000231
vt -0.000000 -0.500000
v 2753.120361 -3104.347168 1603.164185
vn 0.000550 1.000000 0.000231
vt 0.506811 -0.500000
v 2753.121094 -3106.080811 1317.907104
vn 0.000550 0.999981 -0.006078
vt 0.506812 -1.000000
v 2712.864990 -3105.926758 1848.040649
vn -1.000000 0.000000 -0.000004
vt -0.000000 0.000000
v 2712.865723 -3104.324951 1603.164063
vn -1.000000 0.000000 -0.000004
vt -0.000000 -0.500000
v 2712.865723 -3123.471191 1603.164063
vn -1.000000 0.000000 -0.000004
vt 0.298603 -0.500000
v 2712.864990 -3125.165527 1848.040649
vn -1.000000 0.000000 -0.000004
vt 0.298603 0.000000
v 2712.866455 -3106.058594 1317.908325
vn -1.000000 0.000000 -0.000002
vt -0.000000 -1.000000
v 2712.866455 -3125.112793 1317.908325
vn -1.000000 0.000000 -0.000002
vt 0.298603 -1.000000
v 2712.864990 -3105.926758 1848.040649
vn 0.000550 0.999978 0.006541
vt -0.000000 0.000000
v 2753.119385 -3105.948730 1848.040771
vn 0.000550 0.999978 0.006541
vt 0.506811 0.000000
v 2481.561279 -3101.879639 1317.908691
vn -0.000613 1.000000 -0.000231
vt -0.000000 -1.000000
v 2445.441650 -3101.901855 1317.907593
vn -0.000613 1.000000 -0.000231
vt 0.506812 -1.000000
v 2445.442139 -3101.835938 1603.164551
vn -0.000613 1.000000 -0.000251
vt 0.506811 -0.500000
v 2481.561523 -3101.813721 1603.164551
vn -0.000613 1.000000 -0.000251
vt -0.000000 -0.500000
v 2481.562256 -3101.747803 1848.041138
vn 1.000000 0.000000 -0.000003
vt -0.000000 0.000000
v 2481.562256 -3123.339111 1848.041138
vn 1.000000 0.000000 -0.000003
vt 0.298603 0.000000
v 2481.561523 -3123.312744 1603.164551
vn 1.000000 0.000000 -0.000003
vt 0.298603 -0.500000
v 2481.561523 -3101.813721 1603.164551
vn 1.000000 0.000000 -0.000003
vt -0.000000 -0.500000
v 2481.561279 -3101.879639 1317.908691
vn 1.000000 0.000000 -0.000001
vt -0.000000 -1.000000
v 2481.561279 -3123.286621 1317.908691
vn 1.000000 0.000000 -0.000001
vt 0.298603 -1.000000
v 2481.562256 -3101.747803 1848.041138
vn -0.000613 1.000000 -0.000270
vt -0.000000 0.000000
v 2445.442627 -3101.769775 1848.041138
vn -0.000614 1.000000 -0.000270
vt 0.506811 0.000000
v 2701.857910 -2781.161621 1311.639771
vn 0.001229 -0.999747 -0.022445
vt -0.000000 -1.000000
v 2734.107422 -2781.122070 1311.638672
vn 0.001229 -0.999747 -0.022445
vt 0.506812 -1.000000
v 2734.106934 -2787.526367 1596.895630
vn 0.001229 -0.999998 0.001367
vt 0.506811 -0.500000
v 2701.857422 -2787.565918 1596.895630
vn 0.001228 -0.999998 0.001367
vt -0.000000 -0.500000
v 2701.856689 -2781.398193 1841.772339
vn -1.000000 0.000000 -0.000003
vt -0.000000 0.000000
v 2701.856689 -2746.960693 1841.772339
vn -1.000000 0.000000 -0.000003
vt 0.298603 0.000000
v 2701.857422 -2753.294189 1596.895630
vn -1.000000 0.000000 -0.000003
vt 0.298603 -0.500000
v 2701.857422 -2787.565918 1596.895630
vn -1.000000 0.000000 -0.000003
vt -0.000000 -0.500000
v 2701.857910 -2781.161621 1311.639771
vn -1.000000 0.000000 -0.000002
vt -0.000000 -1.000000
v 2701.857910 -2747.054932 1311.639771
vn -1.000000 0.000000 -0.000002
vt 0.298603 -1.000000
v 2701.856689 -2781.398193 1841.772339
vn 0.001228 -0.999682 0.025179
vt -0.000000 0.000000
v 2734.106201 -2781.358643 1841.772339
vn 0.001229 -0.999682 0.025179
vt 0.506811 0.000000
v 2483.310791 -2783.864990 1310.541992
vn -0.001229 -0.999658 -0.026124
vt -0.000000 -1.000000
v 2483.311279 -2791.319336 1595.797974
vn -0.001230 -0.999998 0.001671
vt -0.000000 -0.500000
v 2451.061523 -2791.279785 1595.797974
vn -0.001230 -0.999998 0.001671
vt 0.506811 -0.500000
v 2451.061279 -2783.825195 1310.540894
vn -0.001229 -0.999658 -0.026124
vt 0.506812 -1.000000
v 2483.312012 -2784.101318 1840.674561
vn 1.000000 0.000000 -0.000003
vt -0.000000 0.000000
v 2483.311279 -2791.319336 1595.797974
vn 1.000000 0.000000 -0.000003
vt -0.000000 -0.500000
v 2483.311279 -2757.047607 1595.797974
vn 1.000000 0.000000 -0.000003
vt 0.298603 -0.500000
v 2483.312012 -2749.663818 1840.674561
vn 1.000000 0.000000 -0.000003
vt 0.298603 0.000000
v 2483.310791 -2783.864990 1310.541992
vn 1.000000 0.000000 -0.000002
vt -0.000000 -1.000000
v 2483.310791 -2749.758301 1310.541992
vn 1.000000 0.000000 -0.000002
vt 0.298603 -1.000000
v 2483.312012 -2784.101318 1840.674561
vn -0.001229 -0.999565 0.029463
vt -0.000000 0.000000
v 2451.062256 -2784.061768 1840.674561
vn -0.001229 -0.999565 0.029463
vt 0.506811 0.000000
v 2478.058350 -2912.094482 1831.878906
vn 0.999956 0.009328 0.000228
vt 1.507584 0.000000
v 2477.964111 -2626.975830 1831.878784
vn 1.000000 0.000330 0.000228
vt 1.507584 -1.000000
v 2477.954834 -2626.975830 1872.190796
vn 0.894346 0.000296 0.447377
vt 0.987923 -1.000000
v 2478.049072 -2912.094482 1872.191040
vn 0.706879 0.012956 0.707216
vt 0.987923 0.000000
v 2443.896973 -2626.975830 1872.190796
vn -0.447037 0.000371 0.894515
vt 0.506812 -1.000000
v 2443.660400 -2912.094482 1872.191040
vn -0.706759 0.000631 0.707455
vt 0.506811 0.000000
v 2443.857178 -2626.975830 1831.878784
vn -0.999999 0.000829 0.000983
vt -0.000000 -1.000000
v 2443.620850 -2912.094482 1831.879028
vn -0.999999 0.000958 0.000984
vt -0.000000 0.000000
v 2484.379395 -3143.370361 1831.878662
vn 0.999627 0.027321 0.000228
vt 1.507584 1.000000
v 2484.370117 -3143.370361 1872.190796
vn 0.447006 0.012216 0.894448
vt 0.987923 1.000000
v 2443.424072 -3143.370361 1872.190796
vn -0.894075 0.000914 0.447917
vt 0.506811 1.000000
v 2443.384277 -3143.370361 1831.878662
vn -0.999999 0.001023 0.000984
vt -0.000000 1.000000
v 2749.132568 -2912.094482 1831.879639
vn 1.000000 0.000356 0.000228
vt 1.507584 0.000000
v 2749.038330 -2626.975830 1831.879395
vn 1.000000 0.000330 0.000228
vt 1.507584 -1.000000
v 2749.029053 -2626.975830 1872.191528
vn 0.894346 0.000296 0.447377
vt 0.987923 -1.000000
v 2723.518311 -2786.236328 1835.909668
vn 0.000000 0.000000 -1.000000
vt -0.000000 0.000000
v 2594.219727 -2786.117920 1835.909668
vn 0.000000 0.000000 -1.000000
vt -0.000000 -0.500000
v 2594.219727 -2751.846436 1835.909668
vn 0.000000 0.000000 -1.000000
vt 0.298603 -0.500000
v 2723.518311 -2751.798828 1835.909668
vn 0.000000 0.000000 -1.000000
vt 0.298603 0.000000
v 2443.385010 -3143.370117 1278.145508
vn 0.000000 0.000001 -1.000000
vt -0.000000 1.000000
v 2749.123291 -2912.094482 1872.191772
vn 0.707026 0.000270 0.707187
vt 0.987923 0.000000
v 2714.971191 -2626.976074 1872.191528
vn -0.447037 0.000371 0.894515
vt 0.506812 -1.000000
v 2714.734619 -2912.094482 1872.191772
vn -0.706663 0.008539 0.707499
vt 0.506811 0.000000
v 2714.931396 -2626.975830 1831.879395
vn -0.999999 0.000829 0.000984
vt -0.000000 -1.000000
v 2714.695068 -2912.094482 1831.879639
vn -0.999727 0.023336 0.000983
vt -0.000000 0.000000
v 2749.226807 -3143.370361 1831.879395
vn 1.000000 0.000407 0.000228
vt 1.507584 1.000000
v 2749.217529 -3143.370361 1872.191528
vn 0.447173 0.000181 0.894448
vt 0.987923 1.000000
v 2706.731445 -3143.370361 1872.191528
vn -0.893540 0.030921 0.447917
vt 0.506811 1.000000
v 2706.691650 -3143.370361 1831.879395
vn -0.999401 0.034584 0.000983
vt -0.000000 1.000000
v 2749.132568 -2912.094482 1831.879639
vn 0.000000 -0.000001 -1.000000
vt 0.298603 0.000000
v 2714.695068 -2912.094482 1831.879639
vn 0.000000 -0.000001 -1.000000
vt -0.000000 0.000000
v 2714.931396 -2626.975830 1831.879395
vn 0.000000 -0.000001 -1.000000
vt -0.000000 -1.000000
v 2749.038330 -2626.975830 1831.879395
vn 0.000000 -0.000001 -1.000000
vt 0.298603 -1.000000
v 2749.226807 -3143.370361 1831.879395
vn 0.000000 0.000001 -1.000000
vt 0.298603 1.000000
v 2706.691650 -3143.370361 1831.879395
vn 0.000000 0.000001 -1.000000
vt -0.000000 1.000000
v 2464.921875 -2751.902100 1868.159302
vn -0.000325 0.894330 0.447408
vt 0.987923 -1.000000
v 2594.218994 -2751.854736 1868.159302
vn -0.000162 0.447167 0.894451
vt 0.987923 -0.500000
v 2594.219727 -2751.846436 1835.909668
vn -0.000364 1.000000 0.000274
vt 1.507584 -0.500000
v 2464.921875 -2751.893066 1835.909668
vn -0.000361 1.000000 0.000283
vt 1.507584 -1.000000
v 2464.921875 -2785.960205 1868.159302
vn -0.000408 -0.446993 0.894537
vt 0.506812 -1.000000
v 2594.218994 -2786.078369 1868.159302
vn -0.000817 -0.893987 0.448093
vt 0.506811 -0.500000
v 2464.921875 -2785.999756 1835.909668
vn -0.000914 -0.999999 0.001230
vt -0.000000 -1.000000
v 2594.219727 -2786.117920 1835.909668
vn -0.000914 -0.999999 0.001230
vt -0.000000 -0.500000
v 2723.517578 -2751.808105 1868.159058
vn -0.000325 0.894328 0.447411
vt 0.987923 0.000000
v 2723.518311 -2751.798828 1835.909668
vn -0.000368 1.000000 0.000291
vt 1.507584 0.000000
v 2478.049805 -2912.094482 1318.457764
vn 0.706815 0.015486 0.707228
vt 0.987923 0.000000
v 2477.955566 -2626.975830 1318.457642
vn 0.894346 0.000296 0.447377
vt 0.987923 -1.000000
v 2443.897461 -2626.975830 1318.457642
vn -0.447037 0.000371 0.894515
vt 0.506812 -1.000000
v 2443.661133 -2912.094482 1318.457886
vn -0.706759 0.000631 0.707454
vt 0.506811 0.000000
v 2464.921875 -2785.999756 1835.909668
vn 0.000000 0.000000 -1.000000
vt -0.000000 -1.000000
v 2464.921875 -2751.893066 1835.909668
vn 0.000000 0.000000 -1.000000
vt 0.298603 -1.000000
v 2723.517578 -2786.196533 1868.159058
vn -0.000407 -0.446993 0.894537
vt 0.506811 0.000000
v 2723.518311 -2786.236328 1835.909668
vn -0.000914 -0.999999 0.001230
vt -0.000000 0.000000
v 2478.058838 -2912.094482 1278.145752
vn 0.999938 0.011117 0.000228
vt 1.507584 0.000000
v 2477.964844 -2626.975830 1278.145508
vn 1.000000 0.000330 0.000228
vt 1.507584 -1.000000
v 2443.857910 -2626.975830 1278.145508
vn -0.999999 0.000829 0.000983
vt -0.000000 -1.000000
v 2485.613281 -3143.370117 1318.457642
vn 0.446934 0.014616 0.894448
vt 0.987923 1.000000
v 2443.424561 -3143.370117 1318.457642
vn -0.894074 0.000914 0.447918
vt 0.506811 1.000000
v 2443.621582 -2912.094482 1278.145752
vn -0.999999 0.000958 0.000984
vt -0.000000 0.000000
v 2485.622559 -3143.370117 1278.145508
vn 0.999466 0.032686 0.000228
vt 1.507584 1.000000
v 2443.385010 -3143.370117 1278.145508
vn -0.999999 0.001023 0.000985
vt -0.000000 1.000000
v 2443.857910 -2626.975830 1278.145508
vn -0.000001 -0.000001 -1.000000
vt -0.000000 -1.000000
v 2477.964844 -2626.975830 1278.145508
vn -0.000001 -0.000001 -1.000000
vt 0.298603 -1.000000
f 12/12/12 18/18/18 19/19/19
f 12/12/12 14/14/14 15/15/15
f 14/14/14 12/12/12 13/13/13
f 19/19/19 13/13/13 12/12/12
f 33/33/33 31/31/31 32/32/32
f 31/31/31 33/33/33 34/34/34
f 35/35/35 34/34/34 33/33/33
f 34/34/34 35/35/35 36/36/36
f 37/37/37 36/36/36 35/35/35
f 36/36/36 37/37/37 38/38/38
f 34/34/34 39/39/39 31/31/31
f 39/39/39 34/34/34 40/40/40
f 36/36/36 40/40/40 34/34/34
f 40/40/40 36/36/36 41/41/41
f 38/38/38 41/41/41 36/36/36
f 41/41/41 38/38/38 42/42/42
f 140/140/140 147/147/147 148/148/148
f 147/147/147 140/140/140 139/139/139
f 141/141/141 139/139/139 140/140/140
f 139/139/139 141/141/141 142/142/142
f 149/149/149 142/142/142 141/141/141
f 142/142/142 149/149/149 152/152/152
f 139/139/139 153/153/153 147/147/147
f 153/153/153 139/139/139 150/150/150
f 142/142/142 150/150/150 139/139/139
f 150/150/150 142/142/142 151/151/151
f 152/152/152 151/151/151 142/142/142
f 151/151/151 152/152/152 154/154/154
f 99/99/99 100/100/100 101/101/101
f 100/100/100 99/99/99 98/98/98
f 97/97/97 98/98/98 99/99/99
f 98/98/98 97/97/97 96/96/96
f 94/94/94 96/96/96 97/97/97
f 96/96/96 94/94/94 95/95/95
f 97/97/97 102/102/102 94/94/94
f 102/102/102 97/97/97 103/103/103
f 99/99/99 103/103/103 97/97/97
f 103/103/103 99/99/99 104/104/104
f 101/101/101 104/104/104 99/99/99
f 104/104/104 101/101/101 105/105/105
f 121/121/121 118/118/118 122/122/122
f 118/118/118 121/121/121 116/116/116
f 120/120/120 116/116/116 121/121/121
f 116/116/116 120/120/120 114/114/114
f 119/119/119 114/114/114 120/120/120
f 114/114/114 119/119/119 106/106/106
f 108/108/108 106/106/106 107/107/107
f 106/106/106 108/108/108 114/114/114
f 115/115/115 114/114/114 108/108/108
f 114/114/114 115/115/115 116/116/116
f 117/117/117 116/116/116 115/115/115
f 116/116/116 117/117/117 118/118/118
f 132/132/132 129/129/129 131/131/131
f 130/130/130 131/131/131 129/129/129
f 131/131/131 130/130/130 137/137/137
f 145/145/145 137/137/137 130/130/130
f 137/137/137 138/138/138 131/131/131
f 146/146/146 145/145/145 134/134/134
f 130/130/130 134/134/134 145/145/145
f 134/134/134 130/130/130 133/133/133
f 129/129/129 133/133/133 130/130/130
f 134/134/134 136/136/136 146/146/146
f 136/136/136 134/134/134 135/135/135
f 133/133/133 135/135/135 134/134/134
f 26/26/26 29/29/29 30/30/30
f 29/29/29 26/26/26 25/25/25
f 27/27/27 25/25/25 26/26/26
f 25/25/25 27/27/27 28/28/28
f 22/22/22 1/1/1 3/3/3
f 2/2/2 3/3/3 1/1/1
f 3/3/3 2/2/2 10/10/10
f 11/11/11 10/10/10 2/2/2
f 10/10/10 11/11/11 16/16/16
f 17/17/17 16/16/16 11/11/11
f 23/23/23 16/16/16 24/24/24
f 16/16/16 23/23/23 10/10/10
f 20/20/20 10/10/10 23/23/23
f 10/10/10 20/20/20 3/3/3
f 21/21/21 3/3/3 20/20/20
f 3/3/3 21/21/21 22/22/22
f 9/9/9 7/7/7 8/8/8
f 7/7/7 9/9/9 6/6/6
f 4/4/4 6/6/6 9/9/9
f 6/6/6 4/4/4 5/5/5
f 44/44/44 155/155/155 156/156/156
f 155/155/155 44/44/44 43/43/43
f 45/45/45 43/43/43 44/44/44
f 43/43/43 45/45/45 113/113/113
f 124/124/124 127/127/127 128/128/128
f 127/127/127 124/124/124 123/123/123
f 125/125/125 123/123/123 124/124/124
f 123/123/123 125/125/125 126/126/126
f 46/46/46 47/47/47 48/48/48
f 56/56/56 48/48/48 47/47/47
f 48/48/48 56/56/56 57/57/57
f 48/48/48 49/49/49 46/46/46
f 60/60/60 58/58/58 59/59/59
f 58/58/58 60/60/60 61/61/61
f 68/68/68 61/61/61 60/60/60
f 60/60/60 69/69/69 68/68/68
f 64/64/64 62/62/62 63/63/63
f 62/62/62 64/64/64 65/65/65
f 66/66/66 65/65/65 64/64/64
f 64/64/64 67/67/67 66/66/66
f 78/78/78 76/76/76 79/79/79
f 76/76/76 78/78/78 77/77/77
f 76/76/76 74/74/74 75/75/75
f 74/74/74 76/76/76 77/77/77
f 80/80/80 73/73/73 72/72/72
f 70/70/70 72/72/72 73/73/73
f 72/72/72 70/70/70 71/71/71
f 72/72/72 81/81/81 80/80/80
f 109/109/109 110/110/110 111/111/111
f 143/143/143 111/111/111 110/110/110
f 111/111/111 143/143/143 144/144/144
f 111/111/111 112/112/112 109/109/109
f 50/50/50 51/51/51 52/52/52
f 54/54/54 52/52/52 51/51/51
f 52/52/52 54/54/54 55/55/55
f 52/52/52 53/53/53 50/50/50
f 82/82/82 83/83/83 84/84/84
f 92/92/92 84/84/84 83/83/83
f 84/84/84 92/92/92 93/93/93
f 84/84/84 85/85/85 82/82/82
f 86/86/86 87/87/87 88/88/88
f 90/90/90 88/88/88 87/87/87
f 88/88/88 90/90/90 91/91/91
f 88/88/88 89/89/89 86/86/86
usemtl wallWood
v 2724.963379 -2954.754150 1670.087891
vn -0.999994 0.000000 0.003400
vt 0.501918 0.163653
v 2725.570313 -2955.280273 1848.575073
vn -0.999994 0.000000 0.003400
vt 0.499951 -0.508991
v 2725.570313 -2767.281738 1848.575073
vn -0.999994 0.000000 0.003400
vt 1.203027 -0.508991
v 2458.800537 -3140.854736 1491.600586
vn 1.000000 0.000000 0.001001
vt -0.194059 0.836297
v 2458.979248 -3139.661377 1313.099976
vn 1.000000 0.000000 0.001001
vt -0.189597 1.508991
v 2458.979248 -2953.638916 1313.099976
vn 1.000000 0.000000 0.001001
vt 0.506089 1.508991
v 2458.800537 -2954.175537 1491.587158
vn 1.000000 0.000000 0.001001
vt 0.504083 0.836347
v 2591.578613 -2767.518066 1491.587158
vn -0.000164 -1.000000 0.000698
vt 0.501601 0.831352
v 2591.792725 -2767.393311 1670.087891
vn -0.000131 -1.000000 0.000699
vt 0.500800 0.168648
v 2458.621826 -2767.375977 1670.074463
vn -0.000130 -1.000000 0.000674
vt 0.998832 0.168698
v 2458.800537 -2767.496338 1491.573853
vn -0.000164 -1.000000 0.000698
vt 0.998164 0.831402
v 2592.006592 -2767.268799 1848.575073
vn -0.000098 -1.000000 0.000698
vt 0.500000 -0.494006
v 2458.443115 -2767.255615 1848.575073
vn -0.000130 -1.000000 0.000674
vt 0.999501 -0.494006
v 2591.364502 -2767.642822 1313.099976
vn -0.000164 -1.000000 0.000698
vt 0.502401 1.494006
v 2723.749756 -2767.668945 1313.099976
vn -0.000164 -1.000000 0.000723
vt 0.007307 1.494006
v 2724.356689 -2767.539795 1491.600586
vn -0.000164 -1.000000 0.000723
vt 0.005038 0.831302
v 2458.621826 -2954.711914 1670.087891
vn 1.000000 0.000000 0.001001
vt 0.502076 0.163653
v 2458.621826 -3142.048096 1670.101196
vn 1.000000 0.000000 0.001001
vt -0.198522 0.163603
v 2724.356689 -2954.228271 1491.587158
vn -0.999994 0.000000 0.003400
vt 0.503885 0.836347
v 2724.963379 -2767.410889 1670.101196
vn -0.999994 0.000000 0.003400
vt 1.202544 0.163602
v 2724.356689 -2767.539795 1491.600586
vn -0.999994 0.000000 0.003400
vt 1.202062 0.836297
v 2723.749756 -2953.702393 1313.099976
vn -0.999994 0.000000 0.003400
vt 0.505852 1.508991
v 2458.443115 -3143.241211 1848.575073
vn 1.000000 0.000000 0.001001
vt -0.202985 -0.508991
v 2458.979248 -2767.616699 1313.099976
vn 1.000000 0.000000 0.001001
vt 1.201775 1.508991
v 2458.800537 -2767.496338 1491.573853
vn 1.000000 0.000000 0.001001
vt 1.202225 0.836398
v 2723.749756 -3139.736084 1313.099976
vn -0.999994 0.000000 0.003400
vt -0.189876 1.508991
v 2724.356445 -3140.916748 1491.573853
vn -0.999994 0.000000 0.003400
vt -0.194292 0.836398
v 2458.621826 -2767.375977 1670.074463
vn 1.000000 0.000000 0.001001
vt 1.202675 0.163704
v 2458.443115 -2767.255615 1848.575073
vn 1.000000 0.000000 0.001001
vt 1.203125 -0.508991
v 2458.443115 -2955.248535 1848.575073
vn 1.000000 0.000000 0.001001
vt 0.500070 -0.508991
v 2724.963379 -2767.410889 1670.101196
vn -0.000131 -1.000000 0.000699
vt 0.002769 0.168598
v 2725.570313 -2767.281738 1848.575073
vn -0.000098 -1.000000 0.000698
vt 0.000500 -0.494006
v 2724.963379 -3142.097656 1670.074463
vn -0.999994 0.000000 0.003400
vt -0.198708 0.163703
v 2725.570313 -3143.278564 1848.575073
vn -0.999994 0.000000 0.003400
vt -0.203124 -0.508991
v 2458.979248 -2767.616699 1313.099976
vn -0.000197 -1.000000 0.000673
vt 0.997495 1.494006
v 2723.749756 -2767.668945 1313.099976
vn -0.999994 0.000000 0.003400
vt 1.201579 1.508991
f 164/164/164 170/170/170 171/171/171
f 168/168/168 169/169/169 165/165/165
f 166/166/166 165/165/165 169/169/169
f 165/165/165 166/166/166 164/164/164
f 167/167/167 164/164/164 166/166/166
f 164/164/164 167/167/167 170/170/170
f 191/191/191 170/170/170 167/167/167
f 171/171/171 172/172/172 164/164/164
f 187/187/187 164/164/164 172/172/172
f 164/164/164 187/187/187 165/165/165
f 188/188/188 165/165/165 187/187/187
f 165/165/165 188/188/188 168/168/168
f 161/161/161 162/162/162 160/160/160
f 163/163/163 160/160/160 162/162/162
f 160/160/160 163/163/163 174/174/174
f 173/173/173 174/174/174 163/163/163
f 174/174/174 173/173/173 179/179/179
f 186/186/186 179/179/179 173/173/173
f 163/163/163 162/162/162 180/180/180
f 180/180/180 181/181/181 163/163/163
f 184/184/184 163/163/163 181/181/181
f 163/163/163 184/184/184 173/173/173
f 185/185/185 173/173/173 184/184/184
f 173/173/173 185/185/185 186/186/186
f 192/192/192 178/178/178 177/177/177
f 175/175/175 177/177/177 178/178/178
f 177/177/177 175/175/175 176/176/176
f 157/157/157 176/176/176 175/175/175
f 176/176/176 157/157/157 159/159/159
f 158/158/158 159/159/159 157/157/157
f 175/175/175 178/178/178 182/182/182
f 182/182/182 183/183/183 175/175/175
f 189/189/189 175/175/175 183/183/183
f 175/175/175 189/189/189 157/157/157
f 190/190/190 157/157/157 189/189/189
f 157/157/157 190/190/190 158/158/158
