mtllib LAKETOWN_EXTERIOR_PS_LT_WINDOWS2313.mtl
g LT_Windows2313
usemtl window
v -1619.585083 439.921997 1473.367310
vn -1.000000 0.000000 0.000000
vt 0.000000 1.000000
v -1619.585083 570.923828 1473.367310
vn -1.000000 0.000000 0.000000
vt 0.000000 0.000000
v -1619.585083 570.923828 1369.272095
vn -1.000000 0.000000 0.000000
vt 1.000000 0.000000
v -1619.585083 439.921997 1369.272095
vn -1.000000 0.000000 0.000000
vt 1.000000 1.000000
v -1619.585083 439.921997 1592.794067
vn -1.000000 0.000000 0.000000
vt 0.000000 1.000000
v -1619.585083 570.923828 1592.794067
vn -1.000000 0.000000 0.000000
vt 0.000000 0.000000
v -1619.585083 570.923828 1485.714966
vn -1.000000 0.000000 0.000000
vt 1.000000 0.000000
v -1619.585083 439.921997 1485.714966
vn -1.000000 0.000000 0.000000
vt 1.000000 1.000000
f 3/3/3 1/1/1 2/2/2
f 1/1/1 3/3/3 4/4/4
f 7/7/7 5/5/5 6/6/6
f 5/5/5 7/7/7 8/8/8
