mtllib LAKETOWN_EXTERIOR_PS_LT_WINDOWS55.mtl
g LT_Windows55
usemtl Material_#613
v -1254.709961 454.217712 548.202576
vn 1.000000 0.000000 0.000000
vt 0.000000 0.000000
v -1254.709961 454.217712 613.292358
vn 1.000000 0.000000 0.000000
vt 0.997585 0.000000
v -1254.709961 330.202911 613.292358
vn 1.000000 0.000000 0.000000
vt 0.997585 1.000000
v -1254.709961 330.202881 548.202576
vn 1.000000 0.000000 0.000000
vt 0.000000 1.000000
v -1254.709961 330.202942 548.202576
vn 0.000000 -1.000000 0.000000
vt 0.000000 1.000000
v -1254.709961 330.202942 613.292358
vn 0.000000 -1.000000 0.000000
vt -0.004179 1.231386
v -1262.267456 330.202942 613.292358
vn 0.000000 -1.000000 0.000000
vt 0.312139 1.226668
v -1262.267334 330.202942 548.202515
vn 0.000000 -1.000000 0.000000
vt 0.317928 0.997391
v -1254.709961 454.217743 548.202576
vn 0.000004 0.000000 -1.000000
vt 0.000000 0.000000
v -1254.709961 330.202942 548.202576
vn 0.000004 0.000000 -1.000000
vt 0.000000 1.000000
v -1262.267334 330.202942 548.202515
vn 0.000004 0.000000 -1.000000
vt 0.317928 0.997391
v -1262.267334 454.217743 548.202515
vn 0.000004 0.000000 -1.000000
vt 0.307653 -0.004334
v -1254.709961 454.217773 613.292358
vn 0.000000 1.000000 0.000001
vt 0.012651 0.347712
v -1254.709961 454.217743 548.202576
vn 0.000000 1.000000 0.000000
vt 0.010268 0.682815
v -1262.267334 454.217743 548.202515
vn 0.000000 1.000000 0.000000
vt 0.430868 0.678481
v -1262.267456 454.217773 613.292358
vn 0.000000 1.000000 0.000001
vt 0.409173 0.346713
v -1254.710083 454.217743 -224.379333
vn 1.000000 0.000000 0.000000
vt 0.000000 0.000000
v -1254.710083 454.217743 -159.289551
vn 1.000000 0.000000 0.000000
vt 0.997585 0.000000
v -1254.710083 330.202942 -159.289551
vn 1.000000 0.000000 0.000000
vt 0.997585 1.000000
v -1254.710083 330.202911 -224.379333
vn 1.000000 0.000000 0.000000
vt 0.000000 1.000000
v -1254.710083 330.202972 -224.379333
vn 0.000000 -1.000000 0.000000
vt 0.000000 1.000000
v -1254.710083 330.202972 -159.289551
vn 0.000000 -1.000000 0.000000
vt -0.004179 1.231386
v -1262.267578 330.202972 -159.289551
vn 0.000000 -1.000000 0.000000
vt 0.312139 1.226668
v -1262.267456 330.202972 -224.379395
vn 0.000000 -1.000000 0.000000
vt 0.317928 0.997391
v -1254.710083 454.217773 -224.379333
vn 0.000008 0.000000 -1.000000
vt 0.000000 0.000000
v -1254.710083 330.202972 -224.379333
vn 0.000008 0.000000 -1.000000
vt 0.000000 1.000000
v -1262.267456 330.202972 -224.379395
vn 0.000008 0.000000 -1.000000
vt 0.317928 0.997391
v -1262.267456 454.217773 -224.379395
vn 0.000008 0.000000 -1.000000
vt 0.307653 -0.004334
v -1254.710083 454.217804 -159.289551
vn 0.000000 1.000000 0.000001
vt 0.012651 0.347712
v -1254.710083 454.217773 -224.379333
vn 0.000000 1.000000 0.000000
vt 0.010268 0.682815
v -1262.267456 454.217773 -224.379395
vn 0.000000 1.000000 0.000000
vt 0.430868 0.678481
v -1262.267578 454.217804 -159.289551
vn 0.000000 1.000000 0.000001
vt 0.409173 0.346713
v -1254.710083 454.217743 -94.199768
vn 1.000000 0.000000 0.000000
vt 0.000000 0.000000
v -1254.710083 330.202911 -94.199776
vn 1.000000 0.000000 0.000000
vt 0.000000 1.000000
v -1254.710083 330.202972 -94.199776
vn 0.000000 -1.000000 0.000000
vt 0.000000 1.000000
v -1262.267456 330.202972 -94.199715
vn 0.000000 -1.000000 0.000000
vt 0.317928 0.997391
v -1262.267456 330.202972 -94.199715
vn 0.000008 0.000000 1.000000
vt 0.317928 0.997391
v -1254.710083 330.202972 -94.199776
vn 0.000008 0.000000 1.000000
vt 0.000000 1.000000
v -1254.710083 454.217773 -94.199768
vn 0.000008 0.000000 1.000000
vt 0.000000 0.000000
v -1262.267456 454.217773 -94.199707
vn 0.000008 0.000000 1.000000
vt 0.307653 -0.004334
v -1262.267456 454.217773 -94.199707
vn 0.000000 1.000000 0.000001
vt 0.430868 0.678481
v -1254.710083 454.217773 -94.199768
vn 0.000000 1.000000 0.000001
vt 0.010268 0.682815
v -1254.709961 454.217712 678.382141
vn 1.000000 0.000000 0.000000
vt 0.000000 0.000000
v -1254.709961 330.202881 678.382141
vn 1.000000 0.000000 0.000000
vt 0.000000 1.000000
v -1254.709961 330.202942 678.382141
vn 0.000000 -1.000000 0.000000
vt 0.000000 1.000000
v -1262.267334 330.202942 678.382202
vn 0.000000 -1.000000 0.000000
vt 0.317928 0.997391
v -1262.267334 330.202942 678.382202
vn 0.000008 0.000000 1.000000
vt 0.317928 0.997391
v -1254.709961 330.202942 678.382141
vn 0.000008 0.000000 1.000000
vt 0.000000 1.000000
v -1254.709961 454.217743 678.382141
vn 0.000008 0.000000 1.000000
vt 0.000000 0.000000
v -1262.267334 454.217743 678.382202
vn 0.000008 0.000000 1.000000
vt 0.307653 -0.004334
v -1262.267334 454.217743 678.382202
vn 0.000000 1.000000 0.000001
vt 0.430868 0.678481
v -1254.709961 454.217743 678.382141
vn 0.000000 1.000000 0.000001
vt 0.010268 0.682815
v -1250.210205 100.410034 599.606384
vn 0.965926 0.000000 -0.258819
vt 0.000000 0.000000
v -1250.210205 -48.013000 599.606384
vn 0.965926 0.000000 -0.258819
vt 0.000000 1.000000
v -1259.828491 -48.012997 563.710815
vn 0.965926 0.000000 -0.258819
vt 0.997585 1.000000
v -1259.828491 100.410004 563.710815
vn 0.965926 0.000000 -0.258819
vt 0.997585 0.000000
v -1250.210205 100.410034 599.606384
vn 0.258824 0.000000 0.965925
vt 0.000000 0.000000
v -1257.510132 100.410034 601.562439
vn 0.258824 0.000000 0.965925
vt 0.307653 -0.004334
v -1257.510132 -48.012970 601.562439
vn 0.258824 0.000000 0.965925
vt 0.317928 0.997391
v -1250.210205 -48.013000 599.606384
vn 0.258823 0.000000 0.965925
vt 0.000000 1.000000
v -1250.210327 100.410034 603.518494
vn 0.965926 0.000000 0.258819
vt 0.000000 0.000000
v -1259.828491 100.410004 639.414001
vn 0.965926 0.000000 0.258819
vt 0.997585 0.000000
v -1259.828491 -48.013000 639.414001
vn 0.965926 0.000000 0.258819
vt 0.997585 1.000000
v -1250.210327 -48.013000 603.518494
vn 0.965926 0.000000 0.258819
vt 0.000000 1.000000
v -1250.210327 100.410034 603.518494
vn 0.258825 0.000000 -0.965924
vt 0.000000 0.000000
v -1250.210327 -48.013000 603.518494
vn 0.258825 0.000000 -0.965924
vt 0.000000 1.000000
v -1257.510132 -48.012970 601.562439
vn 0.258825 0.000000 -0.965924
vt 0.317928 0.997391
v -1257.510132 100.410034 601.562439
vn 0.258826 0.000000 -0.965924
vt 0.307653 -0.004334
v -1250.210327 100.410065 -159.393082
vn 0.965926 0.000000 -0.258819
vt 0.000000 0.000000
v -1250.210327 -48.012966 -159.393036
vn 0.965926 0.000000 -0.258819
vt 0.000000 1.000000
v -1259.828491 -48.012966 -195.288589
vn 0.965926 0.000000 -0.258819
vt 0.997585 1.000000
v -1259.828491 100.410042 -195.288589
vn 0.965926 0.000000 -0.258819
vt 0.997585 0.000000
v -1250.210327 100.410065 -159.393082
vn 0.258826 0.000000 0.965924
vt 0.000000 0.000000
v -1257.510254 100.410065 -157.437027
vn 0.258826 0.000000 0.965924
vt 0.307653 -0.004334
v -1257.510254 -48.012936 -157.437027
vn 0.258826 0.000000 0.965924
vt 0.317928 0.997391
v -1250.210327 -48.012966 -159.393036
vn 0.258819 0.000000 0.965926
vt 0.000000 1.000000
v -1250.210327 100.410065 -155.480972
vn 0.965926 0.000000 0.258819
vt 0.000000 0.000000
v -1259.828613 100.410034 -119.585403
vn 0.965926 0.000000 0.258819
vt 0.997585 0.000000
v -1259.828613 -48.012970 -119.585411
vn 0.965926 0.000000 0.258819
vt 0.997585 1.000000
v -1250.210327 -48.012966 -155.480988
vn 0.965926 0.000000 0.258819
vt 0.000000 1.000000
v -1250.210327 100.410065 -155.480972
vn 0.258828 0.000000 -0.965923
vt 0.000000 0.000000
v -1250.210327 -48.012966 -155.480988
vn 0.258828 0.000000 -0.965923
vt 0.000000 1.000000
v -1257.510254 -48.012936 -157.437027
vn 0.258828 0.000000 -0.965923
vt 0.317928 0.997391
v -1257.510254 100.410065 -157.437027
vn 0.258828 0.000000 -0.965923
vt 0.307653 -0.004334
f 27/27/27 25/25/25 26/26/26
f 25/25/25 27/27/27 28/28/28
f 1/1/1 3/3/3 4/4/4
f 3/3/3 1/1/1 2/2/2
f 43/43/43 3/3/3 2/2/2
f 3/3/3 43/43/43 44/44/44
f 5/5/5 6/6/6 7/7/7
f 45/45/45 7/7/7 6/6/6
f 7/7/7 45/45/45 46/46/46
f 7/7/7 8/8/8 5/5/5
f 15/15/15 16/16/16 13/13/13
f 51/51/51 13/13/13 16/16/16
f 13/13/13 51/51/51 52/52/52
f 13/13/13 14/14/14 15/15/15
f 17/17/17 18/18/18 19/19/19
f 33/33/33 19/19/19 18/18/18
f 19/19/19 33/33/33 34/34/34
f 19/19/19 20/20/20 17/17/17
f 21/21/21 23/23/23 24/24/24
f 23/23/23 21/21/21 22/22/22
f 35/35/35 23/23/23 22/22/22
f 23/23/23 35/35/35 36/36/36
f 31/31/31 29/29/29 30/30/30
f 29/29/29 31/31/31 32/32/32
f 29/29/29 41/41/41 42/42/42
f 41/41/41 29/29/29 32/32/32
f 39/39/39 37/37/37 38/38/38
f 37/37/37 39/39/39 40/40/40
f 49/49/49 47/47/47 48/48/48
f 47/47/47 49/49/49 50/50/50
f 55/55/55 53/53/53 54/54/54
f 53/53/53 55/55/55 56/56/56
f 59/59/59 57/57/57 58/58/58
f 57/57/57 59/59/59 60/60/60
f 63/63/63 61/61/61 62/62/62
f 61/61/61 63/63/63 64/64/64
f 67/67/67 65/65/65 66/66/66
f 65/65/65 67/67/67 68/68/68
f 71/71/71 69/69/69 70/70/70
f 69/69/69 71/71/71 72/72/72
f 75/75/75 73/73/73 74/74/74
f 73/73/73 75/75/75 76/76/76
f 79/79/79 77/77/77 78/78/78
f 77/77/77 79/79/79 80/80/80
f 83/83/83 81/81/81 82/82/82
f 81/81/81 83/83/83 84/84/84
f 11/11/11 9/9/9 10/10/10
f 9/9/9 11/11/11 12/12/12
