mtllib LAKETOWN_WAREHOUSE2_PS_WH2_DOORFRAME6546__GX.mtl
g orFrame6546__GX
usemtl Material_#0
v -3993.336914 -3481.352783 1058.137573
vn -0.707391 -0.000008 -0.706822
vt -0.005441 0.952300
v -3993.336914 -3300.281006 1058.137695
vn -0.707415 0.000261 -0.706799
vt -0.005441 0.476929
v -3960.822021 -3300.293945 1058.109375
vn 0.446445 0.009680 -0.894759
vt 0.501819 0.477000
v -3962.019043 -3176.250488 1080.116943
vn 0.446461 0.012184 0.894720
vt 0.975719 0.001628
v -3993.336670 -3176.250488 1080.081421
vn -0.707507 0.006238 0.706679
vt 1.500000 0.001628
v -3993.336914 -3300.293945 1081.176147
vn -0.707429 0.008821 0.706729
vt 1.500000 0.477000
v -3963.322510 -3068.175293 923.166504
vn -0.001000 0.006794 0.999976
vt 0.975719 0.239314
v -3995.238525 -3068.175293 923.134644
vn -0.832221 0.003782 0.554431
vt 1.500000 0.239314
v -3995.238770 -3148.436523 923.681946
vn -0.447883 0.006075 0.894072
vt 1.500000 0.477000
v -3962.723877 -3148.436523 923.710327
vn -0.000872 0.006769 0.999977
vt 0.975719 0.477000
v -3995.238525 -3068.175293 923.134644
vn -0.832221 0.003782 0.554431
vt 0.975719 0.239314
v -3995.238525 -3068.168701 900.689087
vn -0.600512 0.000435 -0.799616
vt 0.501818 0.239314
v -3995.238770 -3148.423340 900.643433
vn -0.894505 0.000256 -0.447058
vt 0.501819 0.477000
v -3995.238770 -3148.436523 923.681946
vn -0.447883 0.006075 0.894072
vt 0.975719 0.477000
v -3995.238525 -3068.168701 900.689087
vn -0.600512 0.000435 -0.799616
vt -0.005441 0.239279
v -3963.322510 -3068.175293 900.657166
vn -0.000999 0.000517 -0.999999
vt 0.501818 0.239314
v -3962.723877 -3148.436523 900.615112
vn -0.000935 0.000543 -0.999999
vt 0.501819 0.477000
v -3995.238770 -3148.423340 900.643433
vn -0.894505 0.000256 -0.447058
vt -0.005441 0.476929
v -3995.238525 -2987.914063 922.587280
vn -0.707483 0.004802 0.706714
vt 0.975719 0.001628
v -3995.238525 -2987.914063 900.734680
vn -0.707507 0.000403 -0.706706
vt 0.501818 0.001628
v -3993.336670 -3176.250488 1058.228882
vn -0.707461 0.000497 -0.706752
vt -0.005441 0.001629
v -3963.920898 -2987.914063 922.622681
vn -0.001131 0.006767 0.999977
vt 0.975719 0.001628
v -3995.238525 -2987.914063 922.587280
vn -0.707483 0.004802 0.706714
vt 1.500000 0.001628
v -3993.336670 -3176.250488 770.541199
vn -0.707456 0.000497 0.706757
vt 1.500000 0.987507
v -3993.336670 -3300.281006 770.632507
vn -0.707411 0.000261 0.706802
vt 1.500000 0.490890
v -3960.822021 -3300.293945 770.660828
vn 0.446445 0.009681 0.894759
vt 1.000000 0.490816
v -3962.019043 -3176.250488 770.576599
vn 0.894282 0.008934 0.447414
vt 1.000000 0.987507
v -3960.822021 -3300.293945 747.565613
vn 0.894049 0.024315 -0.447309
vt 0.505268 0.490816
v -3962.019043 -3176.250488 748.653259
vn 0.446460 0.012183 -0.894721
vt 0.505268 0.987507
v -3993.336914 -3300.293945 747.594116
vn -0.707432 0.008821 -0.706726
vt 0.016782 0.490816
v -3993.336914 -3176.250488 748.688660
vn -0.707512 0.006236 -0.706674
vt 0.016782 0.987507
v -3993.336914 -3481.352783 770.632507
vn -0.707390 -0.000009 0.706824
vt 1.500000 -0.005801
v -3954.979980 -3481.365967 770.660828
vn 0.893896 0.028840 0.447346
vt 1.000000 -0.005876
v -3954.979980 -3481.365967 744.635315
vn 0.446310 0.028885 -0.894412
vt 0.505268 -0.005876
v -3993.336914 -3481.365967 744.663635
vn -0.707368 0.011438 -0.706753
vt 0.016782 -0.005876
v -3954.979980 -3481.365967 1058.109253
vn 0.893896 0.028840 -0.447346
vt 0.501819 0.952371
v -3962.019043 -3176.250488 1058.193481
vn 0.894282 0.008933 -0.447415
vt 0.501818 0.001628
v -3960.822021 -3300.293945 1081.204590
vn 0.894049 0.024314 0.447309
vt 0.975719 0.477000
v -3993.336670 -3176.250488 770.541199
vn -0.707456 0.000497 0.706757
vt 1.000000 0.987507
v -3993.336914 -3176.250488 748.688660
vn -0.707512 0.006236 -0.706674
vt 0.505268 0.987507
v -3993.336914 -3300.293945 747.594116
vn -0.707432 0.008821 -0.706726
vt 0.505268 0.490816
v -3993.336914 -3481.352783 770.632507
vn -0.707390 -0.000009 0.706824
vt 1.000000 -0.005876
v -3993.336670 -3300.281006 770.632507
vn -0.707411 0.000261 0.706802
vt 1.000000 0.490816
v -3993.336914 -3481.365967 744.663635
vn -0.707368 0.011438 -0.706753
vt 0.505268 -0.005876
v -3954.979980 -3481.365967 1084.134766
vn 0.446310 0.028884 0.894412
vt 0.975719 0.952371
v -3993.336914 -3481.365967 1084.106323
vn -0.707369 0.011437 0.706752
vt 1.500000 0.952371
v -3993.336914 -3300.293945 1081.176147
vn -0.707429 0.008821 0.706729
vt 0.975719 0.477000
v -3993.336670 -3176.250488 1080.081421
vn -0.707507 0.006238 0.706679
vt 0.975719 0.001628
v -3993.336670 -3176.250488 1058.228882
vn -0.707461 0.000497 -0.706752
vt 0.501818 0.001628
v -3993.336914 -3300.281006 1058.137695
vn -0.707415 0.000261 -0.706799
vt 0.501819 0.477000
v -3993.336914 -3481.352783 1058.137573
vn -0.707391 -0.000008 -0.706822
vt 0.501819 0.952371
v -3993.336914 -3481.365967 1084.106323
vn -0.707369 0.011437 0.706752
vt 0.975719 0.952371
v -3995.238525 -2987.914063 900.734680
vn -0.707507 0.000403 -0.706706
vt -0.005441 0.001629
v -3963.920898 -2987.914063 900.699219
vn -0.001066 0.000543 -0.999999
vt 0.501818 0.001628
f 9/9/9 10/10/10 7/7/7
f 22/22/22 23/23/23 7/7/7
f 8/8/8 7/7/7 23/23/23
f 7/7/7 8/8/8 9/9/9
f 5/5/5 6/6/6 4/4/4
f 38/38/38 4/4/4 6/6/6
f 4/4/4 38/38/38 37/37/37
f 3/3/3 37/37/37 38/38/38
f 37/37/37 3/3/3 21/21/21
f 2/2/2 21/21/21 3/3/3
f 45/45/45 6/6/6 46/46/46
f 6/6/6 45/45/45 38/38/38
f 36/36/36 38/38/38 45/45/45
f 38/38/38 36/36/36 3/3/3
f 1/1/1 3/3/3 36/36/36
f 3/3/3 1/1/1 2/2/2
f 29/29/29 30/30/30 31/31/31
f 30/30/30 29/29/29 28/28/28
f 27/27/27 28/28/28 29/29/29
f 28/28/28 27/27/27 26/26/26
f 24/24/24 26/26/26 27/27/27
f 26/26/26 24/24/24 25/25/25
f 35/35/35 30/30/30 34/34/34
f 28/28/28 34/34/34 30/30/30
f 34/34/34 28/28/28 33/33/33
f 26/26/26 33/33/33 28/28/28
f 33/33/33 26/26/26 32/32/32
f 25/25/25 32/32/32 26/26/26
f 53/53/53 54/54/54 15/15/15
f 16/16/16 15/15/15 54/54/54
f 15/15/15 16/16/16 17/17/17
f 17/17/17 18/18/18 15/15/15
f 41/41/41 39/39/39 40/40/40
f 39/39/39 41/41/41 43/43/43
f 42/42/42 43/43/43 41/41/41
f 41/41/41 44/44/44 42/42/42
f 49/49/49 47/47/47 48/48/48
f 47/47/47 49/49/49 50/50/50
f 51/51/51 47/47/47 50/50/50
f 47/47/47 51/51/51 52/52/52
f 12/12/12 19/19/19 20/20/20
f 19/19/19 12/12/12 11/11/11
f 13/13/13 11/11/11 12/12/12
f 11/11/11 13/13/13 14/14/14
usemtl log_end20
v -3958.546631 -3147.164307 746.051514
vn -0.000357 -0.000487 -1.000000
vt 1.000000 0.000000
v -3958.547119 -3176.793213 746.051514
vn -0.000714 0.000000 -1.000000
vt 1.000000 1.000000
v -3998.900635 -3176.756592 746.080322
vn -0.000357 -0.000487 -1.000000
vt 0.000000 1.000000
v -3958.546631 -3147.182861 1085.135620
vn 0.000000 0.000000 1.000000
vt 1.000000 0.000000
v -3998.900391 -3147.229004 1085.135620
vn 0.000000 0.000000 1.000000
vt 0.000000 0.000000
v -3998.900391 -3176.729980 1085.135620
vn 0.000000 0.000000 1.000000
vt 0.000000 1.000000
v -3998.900635 -3147.200928 746.051514
vn 0.000001 -0.000975 -1.000000
vt 0.000000 0.000000
v -3958.546631 -3176.775391 1085.135620
vn 0.000000 0.000000 1.000000
vt 1.000000 1.000000
f 57/57/57 55/55/55 56/56/56
f 55/55/55 57/57/57 61/61/61
f 60/60/60 58/58/58 59/59/59
f 58/58/58 60/60/60 62/62/62
usemtl large_beams
v -3998.900146 -3176.729980 1085.135620
vn -1.000000 0.000003 0.000001
vt 0.229470 -0.221898
v -3998.900146 -3147.229004 1085.135620
vn -1.000000 0.000000 0.000001
vt 0.229470 -1.465422
v -3998.900635 -3147.200928 746.051453
vn -1.000000 0.000003 0.000001
vt 1.470487 -1.465422
v -3998.900635 -3176.756836 746.080261
vn -1.000000 0.000006 0.000002
vt 1.470487 -0.221898
v -3998.900635 -3147.200928 746.051453
vn -0.001025 0.999999 0.000069
vt 1.470487 -2.474184
v -3998.900391 -3147.229004 1085.135620
vn -0.001143 0.999999 0.000083
vt 0.229470 -2.474184
v -3958.546631 -3147.182861 1085.135620
vn -0.001025 0.999999 0.000069
vt 0.229470 -1.471342
v -3958.546875 -3147.164307 746.051453
vn -0.000907 1.000000 0.000054
vt 1.470487 -1.471342
v -3958.546875 -3147.164307 746.051453
vn 1.000000 -0.000003 -0.000001
vt 1.421029 -1.465422
v -3958.546631 -3147.182861 1085.135620
vn 1.000000 0.000000 0.000000
vt 0.230621 -1.465422
v -3958.546631 -3176.775391 1085.135620
vn 1.000000 -0.000003 -0.000001
vt 0.230621 -0.221898
v -3958.546875 -3176.793457 746.051453
vn 1.000000 -0.000006 -0.000001
vt 1.421029 -0.221898
v -3958.546875 -3176.793457 746.051453
vn -0.001016 -1.000000 0.000067
vt 1.470487 -0.221898
v -3958.546631 -3176.775391 1085.135620
vn -0.001124 -0.999999 0.000054
vt 0.229470 -0.221898
v -3998.900391 -3176.729980 1085.135620
vn -0.001016 -1.000000 0.000067
vt 0.229470 1.021626
v -3998.900635 -3176.756836 746.080261
vn -0.000907 -1.000000 0.000080
vt 1.470403 1.021626
f 65/65/65 63/63/63 64/64/64
f 63/63/63 65/65/65 66/66/66
f 69/69/69 67/67/67 68/68/68
f 67/67/67 69/69/69 70/70/70
f 73/73/73 71/71/71 72/72/72
f 71/71/71 73/73/73 74/74/74
f 77/77/77 75/75/75 76/76/76
f 75/75/75 77/77/77 78/78/78
