mtllib LAKETOWN_WAREHOUSE2_PS_WH2_PLAT_3635__GX01.mtl
g Plat_3635__GX01
usemtl wood_planks
v -9758.537109 -2927.320068 -6693.378906
vn 0.408311 -0.816249 0.408680
vt 0.506811 -3.000000
v -9958.537109 -2927.320068 -6693.378418
vn -0.408496 -0.816248 0.408497
vt 0.506812 -2.000000
v -9946.075195 -2927.320068 -6708.230469
vn 0.000000 -1.000000 0.000000
vt -0.000000 -2.000000
v -9958.538086 -2927.320068 -6858.260254
vn -0.707107 -0.707106 0.000000
vt 0.506811 -1.254651
v -9945.410156 -2927.320068 -6858.230469
vn 0.000000 -1.000000 0.000000
vt -0.000000 -1.254651
v -9958.538086 -2905.778076 -6858.279297
vn -0.448273 0.893897 -0.000002
vt 0.987923 -1.254701
v -9958.537109 -2905.778076 -6693.417969
vn -0.577170 0.577780 0.577100
vt 0.987923 -2.000000
v -9946.076172 -2905.759033 -6708.269531
vn -0.000741 1.000000 0.000639
vt 1.507584 -2.000000
v -9758.537109 -2905.778076 -6693.417969
vn 0.534674 0.801552 0.267651
vt 0.987923 -3.000000
v -9770.999023 -2905.758789 -6708.269531
vn 0.000491 1.000000 0.000430
vt 1.507584 -3.000000
v -9770.999023 -2927.320068 -6708.230469
vn 0.000000 -1.000000 0.000000
vt -0.000000 -3.000000
v -9758.537109 -2905.777832 -6858.279297
vn 0.448269 0.893899 -0.000003
vt 0.987923 -1.292606
v -9771.665039 -2905.759033 -6858.269531
vn 0.000719 1.000000 -0.000003
vt 1.507584 -1.292606
v -9770.999023 -2905.759033 -6708.269531
vn 0.000491 1.000000 0.000430
vt 1.507584 -2.000000
v -9758.537109 -2905.778076 -6693.417969
vn 0.534674 0.801552 0.267651
vt 0.987923 -2.000000
v -9758.537109 -2927.320068 -6858.260254
vn 0.707107 -0.707106 0.000000
vt 0.506811 -1.292556
v -9758.537109 -2927.320068 -6693.378418
vn 0.408311 -0.816249 0.408680
vt 0.506812 -2.000000
v -9770.999023 -2927.320068 -6708.230469
vn 0.000000 -1.000000 0.000000
vt -0.000000 -2.000000
v -9771.665039 -2927.320068 -6858.230469
vn 0.000000 -1.000000 0.000000
vt -0.000000 -1.292556
v -9945.410156 -2905.759033 -6858.269531
vn -0.000724 1.000000 -0.000002
vt 1.507584 -1.254701
f 4/4/4 5/5/5 3/3/3
f 6/6/6 8/8/8 20/20/20
f 8/8/8 6/6/6 7/7/7
f 4/4/4 7/7/7 6/6/6
f 7/7/7 4/4/4 2/2/2
f 3/3/3 2/2/2 4/4/4
f 2/2/2 3/3/3 1/1/1
f 11/11/11 1/1/1 3/3/3
f 2/2/2 1/1/1 7/7/7
f 9/9/9 7/7/7 1/1/1
f 7/7/7 9/9/9 8/8/8
f 10/10/10 8/8/8 9/9/9
f 13/13/13 14/14/14 12/12/12
f 15/15/15 12/12/12 14/14/14
f 12/12/12 15/15/15 16/16/16
f 17/17/17 16/16/16 15/15/15
f 16/16/16 17/17/17 18/18/18
f 18/18/18 19/19/19 16/16/16
usemtl Material_#0
v -9960.643555 -2809.713379 -6855.003906
vn 1.000000 0.000000 0.000000
vt 0.987923 0.499756
v -9960.643555 -2809.713379 -6874.675781
vn 1.000000 0.000000 0.000000
vt 0.506811 0.499756
v -9960.643555 -2716.817871 -6874.867188
vn 1.000000 0.000000 0.000000
vt 0.506811 1.006334
v -9960.643555 -2716.817871 -6855.006348
vn 0.000306 0.000028 1.000000
vt 0.987923 1.006334
v -9977.982422 -2716.817871 -6855.000977
vn 0.000306 0.000028 1.000000
vt 1.507584 1.006334
v -9977.982422 -2809.713379 -6854.998535
vn 0.000306 0.000028 1.000000
vt 1.507584 0.499756
v -9960.643555 -2809.713379 -6855.003906
vn 0.000306 0.000028 1.000000
vt 0.987923 0.499756
v -9960.643555 -2716.817871 -6855.006348
vn 1.000000 0.000000 0.000000
vt 0.987923 1.006334
v -9977.982422 -2716.817871 -6874.890137
vn 0.001323 -0.002063 -0.999997
vt -0.000000 1.006334
v -9960.643555 -2716.817871 -6874.867188
vn 0.001323 -0.002062 -0.999997
vt 0.506811 1.006334
v -9960.643555 -2809.713379 -6874.675781
vn 0.001323 -0.002063 -0.999997
vt 0.506811 0.499756
v -9977.982422 -2809.713379 -6874.698730
vn 0.001322 -0.002063 -0.999997
vt -0.000000 0.499755
v -9960.643555 -2902.608643 -6874.484375
vn 0.001323 -0.002063 -0.999997
vt 0.506812 -0.006823
v -9977.982422 -2902.608643 -6874.507324
vn 0.001323 -0.002063 -0.999997
vt -0.000000 -0.006823
v -9977.982422 -2902.608643 -6874.507324
vn -1.000000 0.000000 0.000000
vt 0.506812 -0.006823
v -9977.982422 -2902.608887 -6854.995605
vn -1.000000 0.000000 0.000000
vt 0.987923 -0.006823
v -9977.982422 -2809.713379 -6854.998535
vn -1.000000 0.000000 0.000000
vt 0.987923 0.499756
v -9977.982422 -2716.817871 -6874.890137
vn -1.000000 0.000000 0.000000
vt 0.506811 1.006334
v -9977.982422 -2809.713379 -6874.698730
vn -1.000000 0.000000 0.000000
vt 0.506811 0.499756
v -9977.982422 -2716.817871 -6855.000977
vn -1.000000 0.000000 0.000000
vt 0.987923 1.006334
v -9739.398438 -2902.608887 -6854.996094
vn 1.000000 0.000000 -0.000001
vt 0.991135 1.006334
v -9739.398438 -2902.608887 -6874.479004
vn 1.000000 0.000000 -0.000002
vt 0.510024 1.006334
v -9739.398438 -2809.566406 -6874.670410
vn 1.000000 0.000000 0.000000
vt 0.510024 0.499756
v -9739.398438 -2809.566406 -6854.998535
vn 1.000000 0.000000 -0.000001
vt 0.991135 0.499756
v -9739.398438 -2716.523682 -6855.000977
vn 1.000000 -0.000001 0.000002
vt 0.991135 -0.006823
v -9739.398438 -2716.523682 -6874.862305
vn 1.000000 -0.000001 0.000004
vt 0.510024 -0.006823
v -9960.643555 -2902.608887 -6855.000977
vn 1.000000 0.000000 0.000000
vt 0.987923 -0.006823
v -9960.643555 -2902.608643 -6874.484375
vn 1.000000 0.000000 0.000000
vt 0.506812 -0.006823
v -9977.982422 -2902.608887 -6854.995605
vn 0.000306 0.000028 1.000000
vt 1.507584 -0.006823
v -9960.643555 -2902.608887 -6855.000977
vn 0.000306 0.000028 1.000000
vt 0.987923 -0.006823
v -9756.737305 -2809.566406 -6874.693359
vn -1.000000 0.000000 0.000000
vt 0.510024 0.499756
v -9756.737305 -2809.566406 -6854.993164
vn -1.000000 0.000000 0.000000
vt 0.991135 0.499756
v -9756.737305 -2716.523682 -6854.995605
vn -1.000000 0.000000 0.000000
vt 0.991135 -0.006823
v -9756.737305 -2716.523682 -6874.885254
vn -1.000000 0.000000 0.000001
vt 0.510024 -0.006823
v -9739.398438 -2809.566162 -6874.670410
vn 0.001323 -0.002059 -0.999997
vt 0.991135 0.499756
v -9756.737305 -2809.566406 -6874.693359
vn 0.001323 -0.002059 -0.999997
vt 1.497947 0.499756
v -9756.737305 -2716.523682 -6874.885254
vn 0.001323 -0.002059 -0.999997
vt 1.497947 -0.006823
v -9739.398438 -2716.523682 -6874.862305
vn 0.001323 -0.002059 -0.999997
vt 0.991135 -0.006823
v -9756.737305 -2809.566406 -6854.993164
vn 0.000306 0.000028 1.000000
vt -0.009638 0.499756
v -9739.398438 -2809.566406 -6854.998535
vn 0.000306 0.000028 1.000000
vt 0.510024 0.499756
v -9739.398438 -2716.523682 -6855.000977
vn 0.000306 0.000028 1.000000
vt 0.510024 -0.006823
v -9756.737305 -2716.523682 -6854.995605
vn 0.000306 0.000028 1.000000
vt -0.009638 -0.006823
v -9756.737305 -2902.608887 -6874.501953
vn -1.000000 0.000000 0.000001
vt 0.510024 1.006334
v -9756.737305 -2902.608887 -6854.990723
vn -1.000000 0.000000 0.000000
vt 0.991135 1.006334
v -9739.398438 -2902.608887 -6874.479004
vn 0.001322 -0.002059 -0.999997
vt 0.991135 1.006334
v -9756.737305 -2902.608887 -6874.501953
vn 0.001323 -0.002059 -0.999997
vt 1.497947 1.006335
v -9756.737305 -2902.608887 -6854.990723
vn 0.000306 0.000028 1.000000
vt -0.009638 1.006334
v -9739.398438 -2902.608887 -6854.996094
vn 0.000306 0.000028 1.000000
vt 0.510024 1.006334
f 31/31/31 33/33/33 34/34/34
f 31/31/31 29/29/29 30/30/30
f 29/29/29 31/31/31 32/32/32
f 34/34/34 32/32/32 31/31/31
f 26/26/26 24/24/24 25/25/25
f 24/24/24 26/26/26 27/27/27
f 50/50/50 27/27/27 26/26/26
f 26/26/26 49/49/49 50/50/50
f 21/21/21 23/23/23 28/28/28
f 23/23/23 21/21/21 22/22/22
f 48/48/48 22/22/22 21/21/21
f 21/21/21 47/47/47 48/48/48
f 37/37/37 35/35/35 36/36/36
f 35/35/35 37/37/37 39/39/39
f 38/38/38 39/39/39 37/37/37
f 37/37/37 40/40/40 38/38/38
f 43/43/43 41/41/41 42/42/42
f 41/41/41 43/43/43 44/44/44
f 45/45/45 44/44/44 43/43/43
f 43/43/43 46/46/46 45/45/45
f 51/51/51 53/53/53 54/54/54
f 53/53/53 51/51/51 52/52/52
f 64/64/64 52/52/52 51/51/51
f 51/51/51 63/63/63 64/64/64
f 65/65/65 66/66/66 55/55/55
f 56/56/56 55/55/55 66/66/66
f 55/55/55 56/56/56 57/57/57
f 57/57/57 58/58/58 55/55/55
f 67/67/67 68/68/68 59/59/59
f 60/60/60 59/59/59 68/68/68
f 59/59/59 60/60/60 61/61/61
f 61/61/61 62/62/62 59/59/59
usemtl floor_wood
v -9858.537109 -2905.758789 -6858.269531
vn 0.000000 1.000000 0.000001
vt -3.822618 3.281715
v -9945.410156 -2905.758789 -6858.269531
vn -0.000724 1.000000 -0.000002
vt -3.822618 3.571291
v -9945.742188 -2905.758789 -6783.269531
vn 0.000000 1.000000 0.000001
vt -3.408435 3.572399
v -9858.537109 -2905.758789 -6783.269531
vn 0.000000 1.000000 0.000001
vt -3.408435 3.281715
v -9770.999023 -2905.758789 -6708.269531
vn 0.000491 1.000000 0.000430
vt -2.994252 2.989922
v -9771.332031 -2905.758789 -6783.269531
vn 0.000000 1.000000 0.000001
vt -3.408435 2.991032
v -9858.537109 -2905.758789 -6708.269531
vn 0.000000 1.000000 0.000001
vt -2.994252 3.281715
v -9946.075195 -2905.758789 -6708.269531
vn 0.000000 1.000000 0.000001
vt -2.994252 3.573509
v -9771.665039 -2905.758789 -6858.269531
vn 0.000719 1.000000 -0.000003
vt -3.822618 2.992140
f 72/72/72 74/74/74 77/77/77
f 74/74/74 72/72/72 73/73/73
f 75/75/75 73/73/73 72/72/72
f 77/77/77 69/69/69 72/72/72
f 72/72/72 76/76/76 75/75/75
f 76/76/76 72/72/72 71/71/71
f 69/69/69 71/71/71 72/72/72
f 71/71/71 69/69/69 70/70/70
usemtl log_top
v -9984.992188 -2698.884521 -6849.692383
vn -0.666598 0.333435 0.666685
vt 0.999501 0.000500
v -9984.992188 -2698.900635 -6878.434082
vn -0.407615 0.816567 -0.408740
vt 0.987923 1.000000
v -9984.992188 -2716.802734 -6878.434082
vn -0.666374 -0.333381 -0.666935
vt 0.001453 0.999500
v -9732.156250 -2699.091553 -6849.692383
vn 0.816684 0.408175 0.407948
vt 0.999501 0.000500
v -9732.156250 -2716.523682 -6849.692383
vn 0.334098 -0.666647 0.666304
vt 0.000500 0.000500
v -9732.156250 -2716.508789 -6878.434082
vn 0.666806 -0.333209 -0.666590
vt 0.001453 0.999500
v -9692.183594 -2901.376953 -6873.858887
vn 0.666808 0.333469 -0.666457
vt 0.001453 0.999500
v -9692.183594 -2901.376953 -6858.390625
vn 0.408529 0.816416 0.408129
vt 0.998467 0.999500
v -9692.183594 -2942.662354 -6858.374512
vn 0.577803 -0.577012 0.577236
vt 0.999501 0.000500
v -9692.183594 -2942.662354 -6873.873535
vn 0.577622 -0.577111 -0.577318
vt 0.000500 0.000500
v -10024.614258 -2942.662354 -6858.048340
vn -0.816416 -0.408249 0.408408
vt 0.999501 0.000500
v -10024.614258 -2901.376953 -6858.064453
vn -0.407528 0.408646 0.816658
vt 0.998467 0.999500
v -10024.614258 -2901.376953 -6874.033691
vn -0.666516 0.666812 -0.333345
vt 0.001453 0.999500
v -9746.371094 -2935.322754 -6706.356934
vn 0.577875 -0.576927 0.577248
vt 0.999501 0.000500
v -9746.371094 -2935.322754 -6718.279297
vn 0.577673 -0.577041 -0.577337
vt 0.000500 0.000500
v -9746.371094 -2913.126465 -6718.268066
vn 0.666806 0.333552 -0.666418
vt 0.001453 0.999500
v -9977.513672 -2913.126465 -6718.402344
vn -0.666482 0.666849 -0.333338
vt 0.001453 0.999500
v -9977.513672 -2935.322754 -6718.413574
vn -0.333065 -0.666562 -0.666905
vt 0.000500 0.000500
v -9977.513672 -2935.322754 -6706.105957
vn -0.816425 -0.408206 0.408434
vt 0.999501 0.000500
v -10024.614258 -2942.662354 -6874.048340
vn -0.333075 -0.666611 -0.666851
vt 0.000500 0.000500
v -9984.992188 -2716.817871 -6849.692383
vn -0.407526 -0.816954 0.408054
vt 0.000500 0.000500
v -9732.156250 -2699.107666 -6878.434082
vn 0.408729 0.816122 -0.408516
vt 0.998467 0.999500
v -9746.371094 -2913.126465 -6706.369141
vn 0.408542 0.816424 0.408099
vt 0.998467 0.999500
v -9977.513672 -2913.126465 -6706.118164
vn -0.407434 0.408774 0.816640
vt 0.998467 0.999500
f 80/80/80 78/78/78 79/79/79
f 78/78/78 80/80/80 98/98/98
f 83/83/83 81/81/81 82/82/82
f 81/81/81 83/83/83 99/99/99
f 86/86/86 84/84/84 85/85/85
f 84/84/84 86/86/86 87/87/87
f 90/90/90 88/88/88 89/89/89
f 88/88/88 90/90/90 97/97/97
f 93/93/93 91/91/91 92/92/92
f 91/91/91 93/93/93 100/100/100
f 96/96/96 94/94/94 95/95/95
f 94/94/94 96/96/96 101/101/101
usemtl wood_planks
v -10024.614258 -2942.662354 -6874.048340
vn -0.333075 -0.666611 -0.666851
vt 0.506811 1.000000
v -9692.183594 -2942.662354 -6873.873535
vn 0.577622 -0.577111 -0.577318
vt 0.506812 0.500000
v -9692.183594 -2942.662354 -6858.374512
vn 0.577803 -0.577012 0.577236
vt 0.987923 0.500000
v -10024.614258 -2942.662354 -6858.048340
vn -0.816416 -0.408249 0.408408
vt 0.987923 1.000000
v -9692.183594 -2901.376953 -6858.390625
vn 0.408529 0.816416 0.408129
vt 0.987923 0.500000
v -9692.183594 -2901.376953 -6873.858887
vn 0.666808 0.333469 -0.666457
vt 0.506812 0.500000
v -10024.614258 -2901.376953 -6874.033691
vn -0.666516 0.666812 -0.333345
vt 0.506811 1.000000
v -9692.183594 -2942.662354 -6873.873535
vn 0.577622 -0.577111 -0.577318
vt -0.000000 0.500000
v -10024.614258 -2942.662354 -6874.048340
vn -0.333075 -0.666611 -0.666851
vt -0.000000 1.000000
v -10024.614258 -2901.376953 -6858.064453
vn -0.407528 0.408646 0.816658
vt 0.998467 0.999500
v -10024.614258 -2942.662354 -6858.048340
vn -0.816416 -0.408249 0.408408
vt 1.507584 1.000000
v -9692.183594 -2942.662354 -6858.374512
vn 0.577803 -0.577012 0.577236
vt 1.507584 0.500000
v -9977.513672 -2913.126465 -6718.402344
vn -0.666482 0.666849 -0.333338
vt 0.506811 1.000000
v -9977.513672 -2913.126465 -6706.118164
vn -0.407434 0.408774 0.816640
vt 0.998467 0.999500
v -9746.371094 -2913.126465 -6706.369141
vn 0.408542 0.816424 0.408099
vt 0.987923 0.500000
v -9746.371094 -2913.126465 -6718.268066
vn 0.666806 0.333552 -0.666418
vt 0.506812 0.500000
v -9977.513672 -2935.322754 -6718.413574
vn -0.333065 -0.666562 -0.666905
vt -0.000000 1.000000
v -9746.371094 -2935.322754 -6706.356934
vn 0.577875 -0.576927 0.577248
vt 0.987923 0.500000
v -9977.513672 -2935.322754 -6706.105957
vn -0.816425 -0.408206 0.408434
vt 0.987923 1.000000
v -9977.513672 -2935.322754 -6718.413574
vn -0.333065 -0.666562 -0.666905
vt 0.506811 1.000000
v -9858.690430 -2716.655762 -6878.434082
vn 0.001040 -0.894242 -0.447583
vt 0.506811 0.750000
v -9858.690430 -2716.670654 -6849.692383
vn 0.000646 -0.554832 0.831962
vt -0.000000 0.750000
v -9984.992188 -2716.817871 -6849.692383
vn -0.407526 -0.816954 0.408054
vt -0.000000 1.000000
v -9732.156250 -2716.523682 -6849.692383
vn 0.334098 -0.666647 0.666304
vt 0.506812 0.500000
v -9732.156250 -2699.091553 -6849.692383
vn 0.816684 0.408175 0.407948
vt 0.987923 0.500000
v -9858.690430 -2698.988037 -6849.692383
vn 0.000655 0.800214 0.599714
vt 0.987923 0.750000
v -9858.690430 -2716.670654 -6849.692383
vn 0.000646 -0.554832 0.831962
vt 0.506811 0.750000
v -9984.992188 -2698.884521 -6849.692383
vn -0.666598 0.333435 0.666685
vt 0.987923 1.000000
v -9732.156250 -2716.508789 -6878.434082
vn 0.666806 -0.333209 -0.666590
vt 0.506812 0.500000
v -9732.156250 -2716.523682 -6849.692383
vn 0.334098 -0.666647 0.666304
vt -0.000000 0.500000
v -9858.690430 -2699.004150 -6878.434082
vn 0.000366 0.447114 -0.894477
vt 0.987923 0.750000
v -9732.156250 -2699.107666 -6878.434082
vn 0.408729 0.816122 -0.408516
vt 0.987923 0.500000
v -9858.690430 -2698.988037 -6849.692383
vn 0.000655 0.800214 0.599714
vt 1.507584 0.750000
v -9732.156250 -2699.091553 -6849.692383
vn 0.816684 0.408175 0.407948
vt 1.507584 0.500000
v -9746.371094 -2935.322754 -6718.279297
vn 0.577673 -0.577041 -0.577337
vt -0.000000 0.500000
v -9984.992188 -2716.802734 -6878.434082
vn -0.666374 -0.333381 -0.666935
vt 0.506811 1.000000
v -9977.513672 -2935.322754 -6706.105957
vn -0.816425 -0.408206 0.408434
vt 1.507584 1.000000
v -9746.371094 -2935.322754 -6706.356934
vn 0.577875 -0.576927 0.577248
vt 1.507584 0.500000
v -9984.992188 -2698.900635 -6878.434082
vn -0.407615 0.816567 -0.408740
vt 0.987923 1.000000
v -9984.992188 -2698.884521 -6849.692383
vn -0.666598 0.333435 0.666685
vt 1.507584 1.000000
v -9984.992188 -2716.817871 -6849.692383
vn -0.407526 -0.816954 0.408054
vt 0.506811 1.000000
v -9746.371094 -2935.322754 -6718.279297
vn 0.577673 -0.577041 -0.577337
vt 0.506812 0.500000
f 102/102/102 104/104/104 105/105/105
f 104/104/104 102/102/102 103/103/103
f 133/133/133 134/134/134 135/135/135
f 134/134/134 133/133/133 132/132/132
f 130/130/130 132/132/132 133/133/133
f 132/132/132 130/130/130 122/122/122
f 131/131/131 122/122/122 130/130/130
f 122/122/122 131/131/131 123/123/123
f 123/123/123 124/124/124 122/122/122
f 137/137/137 122/122/122 124/124/124
f 122/122/122 137/137/137 132/132/132
f 140/140/140 132/132/132 137/137/137
f 132/132/132 140/140/140 134/134/134
f 141/141/141 134/134/134 140/140/140
f 112/112/112 113/113/113 111/111/111
f 106/106/106 111/111/111 113/113/113
f 111/111/111 106/106/106 108/108/108
f 107/107/107 108/108/108 106/106/106
f 108/108/108 107/107/107 110/110/110
f 109/109/109 110/110/110 107/107/107
f 138/138/138 139/139/139 115/115/115
f 116/116/116 115/115/115 139/139/139
f 115/115/115 116/116/116 114/114/114
f 117/117/117 114/114/114 116/116/116
f 114/114/114 117/117/117 118/118/118
f 136/136/136 118/118/118 117/117/117
f 127/127/127 125/125/125 126/126/126
f 125/125/125 127/127/127 128/128/128
f 129/129/129 128/128/128 127/127/127
f 128/128/128 129/129/129 142/142/142
f 121/121/121 119/119/119 120/120/120
f 119/119/119 121/121/121 143/143/143
usemtl Chain
v -9968.272461 -2918.399414 -6712.961914
vn -1.000000 0.000000 0.000000
vt 0.000000 4.000000
v -9968.272461 -2913.414307 -6707.977051
vn -1.000000 0.000000 0.000000
vt 1.000000 4.000000
v -9968.272461 -2763.861328 -6857.529785
vn -1.000000 0.000000 0.000000
vt 1.000000 -1000.000000
v -9968.272461 -2768.846436 -6862.515137
vn -1.000000 0.000000 0.000000
vt 0.000000 -1000.000000
v -9971.797852 -2915.906982 -6710.469238
vn 0.000000 0.707107 0.707107
vt 0.000000 4.000000
v -9964.747070 -2915.906982 -6710.469238
vn 0.000000 0.707107 0.707107
vt 1.000000 4.000000
v -9964.747070 -2766.353760 -6860.022461
vn 0.000000 0.707107 0.707107
vt 1.000000 -1000.000000
v -9971.797852 -2766.353760 -6860.022461
vn 0.000000 0.707107 0.707107
vt 0.000000 -1000.000000
v -9750.723633 -2918.399414 -6712.961914
vn -1.000000 0.000000 0.000000
vt 0.000000 4.000000
v -9750.723633 -2913.414307 -6707.977051
vn -1.000000 0.000000 0.000000
vt 1.000000 4.000000
v -9750.723633 -2763.861084 -6857.530273
vn -1.000000 0.000000 0.000000
vt 1.000000 -1000.000000
v -9750.723633 -2768.846191 -6862.515137
vn -1.000000 0.000000 0.000000
vt 0.000000 -1000.000000
v -9754.249023 -2915.906738 -6710.469727
vn 0.000000 0.707107 0.707107
vt 0.000000 4.000000
v -9747.198242 -2915.906738 -6710.469727
vn 0.000000 0.707107 0.707107
vt 1.000000 4.000000
v -9747.199219 -2766.353760 -6860.022461
vn 0.000000 0.707107 0.707107
vt 1.000000 -1000.000000
v -9754.249023 -2766.353760 -6860.022461
vn 0.000000 0.707107 0.707107
vt 0.000000 -1000.000000
f 146/146/146 144/144/144 145/145/145
f 144/144/144 146/146/146 147/147/147
f 150/150/150 148/148/148 149/149/149
f 148/148/148 150/150/150 151/151/151
f 154/154/154 152/152/152 153/153/153
f 152/152/152 154/154/154 155/155/155
f 158/158/158 156/156/156 157/157/157
f 156/156/156 158/158/158 159/159/159
