mtllib LAKETOWN_WAREHOUSE2_PS_WH2_WALLS37364.mtl
g WH2_Walls37364
usemtl Wood_Halls
v -9977.982422 -2902.608643 -7011.774902
vn 1.000000 0.000000 0.000000
vt -1.594233 1.370701
v -9977.982422 -2809.713379 -7011.966797
vn 1.000000 0.000000 0.000000
vt -1.224171 1.370701
v -9977.982422 -2809.713379 -6873.281250
vn 1.000000 0.000000 0.000000
vt -1.224171 2.496402
v -9977.982422 -2902.608643 -6873.089844
vn 1.000000 0.000000 0.000000
vt -1.594233 2.496402
v -9977.982422 -2699.479248 -7011.774902
vn 1.000000 0.000001 0.000000
vt -0.785037 1.370701
v -9977.982422 -2699.479248 -6873.089844
vn 1.000000 0.000001 0.000000
vt -0.785037 2.496402
v -9739.398438 -2699.184814 -7012.152832
vn -1.000000 0.000000 0.000000
vt 0.165398 1.359190
v -9739.398438 -2809.566406 -7011.938477
vn -1.000000 0.000000 0.000000
vt 0.605119 1.359190
v -9739.398438 -2809.566406 -6873.253418
vn -1.000000 0.000000 0.000000
vt 0.605119 2.473381
v -9739.398438 -2699.184814 -6873.467773
vn -1.000000 0.000000 0.000000
vt 0.165398 2.473381
v -9739.398438 -2902.608887 -7011.746582
vn -1.000000 0.000000 0.000000
vt 0.975767 1.359190
v -9739.398438 -2902.608887 -6873.061523
vn -1.000000 0.000000 0.000000
vt 0.975767 2.473381
v -9977.982422 -2809.713623 -7249.781250
vn 1.000000 0.000000 0.000000
vt -1.224171 -0.510000
v -9977.982422 -2809.713379 -7150.651855
vn 1.000000 0.000000 0.000000
vt -1.224171 0.245000
v -9977.982422 -2902.608643 -7150.459961
vn 1.000000 0.000000 0.000000
vt -1.594233 0.245000
v -9977.982422 -2902.608887 -7249.589355
vn 1.000000 0.000000 0.000000
vt -1.594233 -0.510000
v -9977.982422 -2699.479492 -7249.589355
vn 1.000000 0.000001 0.000000
vt -0.785037 -0.510000
v -9977.982422 -2699.479248 -7150.459961
vn 1.000000 0.000001 0.000000
vt -0.785037 0.245000
v -9739.398438 -2809.566650 -7249.752930
vn -1.000000 0.000000 0.000000
vt 0.605119 -0.510000
v -9739.398438 -2809.566406 -7150.623535
vn -1.000000 0.000000 0.000000
vt 0.605119 0.245000
v -9739.398438 -2699.184814 -7150.837891
vn -1.000000 0.000000 0.000000
vt 0.165398 0.245000
v -9739.398438 -2699.185059 -7249.967285
vn -1.000000 0.000000 0.000000
vt 0.165398 -0.510000
v -9739.398438 -2902.609131 -7249.561035
vn -1.000000 0.000000 0.000000
vt 0.975767 -0.510000
v -9739.398438 -2902.608887 -7150.432129
vn -1.000000 0.000000 0.000000
vt 0.975767 0.245000
f 15/15/15 16/16/16 13/13/13
f 14/14/14 13/13/13 17/17/17
f 13/13/13 14/14/14 15/15/15
f 2/2/2 15/15/15 14/14/14
f 15/15/15 2/2/2 1/1/1
f 3/3/3 1/1/1 2/2/2
f 1/1/1 3/3/3 4/4/4
f 17/17/17 18/18/18 14/14/14
f 5/5/5 14/14/14 18/18/18
f 14/14/14 5/5/5 2/2/2
f 6/6/6 2/2/2 5/5/5
f 2/2/2 6/6/6 3/3/3
f 20/20/20 19/19/19 23/23/23
f 19/19/19 20/20/20 21/21/21
f 8/8/8 21/21/21 20/20/20
f 21/21/21 8/8/8 7/7/7
f 9/9/9 7/7/7 8/8/8
f 7/7/7 9/9/9 10/10/10
f 21/21/21 22/22/22 19/19/19
f 23/23/23 24/24/24 20/20/20
f 11/11/11 20/20/20 24/24/24
f 20/20/20 11/11/11 8/8/8
f 12/12/12 8/8/8 11/11/11
f 8/8/8 12/12/12 9/9/9
