mtllib LAKETOWN_EXTERIOR_PS_LT_PLANE3131.mtl
g LT_Plane3131
usemtl barn_door
v -1397.725830 -78.980240 4600.073730
vn -1.000000 0.000000 0.000012
vt 0.899259 0.000000
v -1397.725952 -78.980240 4591.992188
vn -1.000000 0.000000 0.000012
vt 1.000000 0.000000
v -1397.725952 -168.598495 4591.992188
vn -1.000000 0.000000 0.000012
vt 1.000000 0.333300
v -1397.725830 -168.611938 4600.073730
vn -1.000000 0.000000 0.000012
vt 0.899259 0.333350
v -1334.595825 -78.980225 4591.992188
vn 0.000000 0.000000 -1.000000
vt 0.500000 0.000000
v -1271.465698 -78.980225 4591.992188
vn 0.000000 0.000000 -1.000000
vt 0.000000 0.000000
v -1271.465698 -168.611923 4591.992188
vn 0.000000 0.000000 -1.000000
vt 0.000000 0.333350
v -1334.595825 -168.605209 4591.992188
vn 0.000000 0.000000 -1.000000
vt 0.500000 0.333325
v -1271.465820 -168.598495 4600.073730
vn 0.000001 0.000000 1.000000
vt 0.000000 0.333300
v -1271.465820 -78.980225 4600.073730
vn 0.000001 0.000000 1.000000
vt 0.000000 0.000000
v -1334.595825 -78.980225 4600.073730
vn 0.000001 0.000000 1.000000
vt 0.500000 0.000000
v -1334.595825 -168.605225 4600.073730
vn 0.000001 0.000000 1.000000
vt 0.500000 0.333325
v -1397.725830 -258.243652 4600.073730
vn -1.000000 0.000000 0.000012
vt 0.899259 0.666700
v -1397.725952 -258.230194 4591.992188
vn -1.000000 0.000000 0.000012
vt 1.000000 0.666650
v -1397.725830 -347.861908 4600.073730
vn -1.000000 0.000000 0.000012
vt 0.899259 1.000000
v -1397.725952 -347.861908 4591.992188
vn -1.000000 0.000000 0.000012
vt 1.000000 1.000000
v -1397.725952 -258.230194 4591.992188
vn 0.000000 0.000000 -1.000000
vt 1.000000 0.666650
v -1397.725952 -168.598495 4591.992188
vn 0.000000 0.000000 -1.000000
vt 1.000000 0.333300
v -1334.595825 -258.236908 4591.992188
vn 0.000000 0.000000 -1.000000
vt 0.500000 0.666675
v -1397.725952 -347.861908 4591.992188
vn 0.000000 0.000000 -1.000000
vt 1.000000 1.000000
v -1334.595825 -347.861908 4591.992188
vn 0.000000 0.000000 -1.000000
vt 0.500000 1.000000
v -1271.465820 -258.230194 4600.073730
vn 0.000001 0.000000 1.000000
vt 0.000000 0.666650
v -1334.595825 -258.236908 4600.073730
vn 0.000001 0.000000 1.000000
vt 0.500000 0.666675
v -1271.465820 -347.861908 4600.073730
vn 0.000001 0.000000 1.000000
vt 0.000000 1.000000
v -1334.595825 -347.861908 4600.073730
vn 0.000001 0.000000 1.000000
vt 0.500000 1.000000
v -1397.725952 -78.980240 4591.992188
vn 0.000000 0.000000 -1.000000
vt 1.000000 0.000000
v -1271.465698 -347.861877 4591.992188
vn 0.000000 0.000000 -1.000000
vt 0.000000 1.000000
v -1271.465698 -258.243622 4591.992188
vn 0.000000 0.000000 -1.000000
vt 0.000000 0.666700
v -1397.725830 -168.611938 4600.073730
vn 0.000001 0.000000 1.000000
vt 1.000000 0.333350
v -1397.725830 -78.980240 4600.073730
vn 0.000001 0.000000 1.000000
vt 1.000000 0.000000
v -1397.725830 -347.861908 4600.073730
vn 0.000001 0.000000 1.000000
vt 1.000000 1.000000
v -1397.725830 -258.243652 4600.073730
vn 0.000001 0.000000 1.000000
vt 1.000000 0.666700
f 1/1/1 2/2/2 3/3/3
f 16/16/16 15/15/15 14/14/14
f 13/13/13 14/14/14 15/15/15
f 14/14/14 13/13/13 3/3/3
f 4/4/4 3/3/3 13/13/13
f 3/3/3 4/4/4 1/1/1
f 10/10/10 11/11/11 9/9/9
f 12/12/12 9/9/9 11/11/11
f 9/9/9 12/12/12 22/22/22
f 23/23/23 22/22/22 12/12/12
f 22/22/22 23/23/23 24/24/24
f 25/25/25 24/24/24 23/23/23
f 23/23/23 31/31/31 25/25/25
f 31/31/31 23/23/23 32/32/32
f 12/12/12 32/32/32 23/23/23
f 32/32/32 12/12/12 29/29/29
f 11/11/11 29/29/29 12/12/12
f 29/29/29 11/11/11 30/30/30
f 7/7/7 5/5/5 6/6/6
f 5/5/5 7/7/7 8/8/8
f 28/28/28 8/8/8 7/7/7
f 8/8/8 28/28/28 19/19/19
f 27/27/27 19/19/19 28/28/28
f 19/19/19 27/27/27 21/21/21
f 26/26/26 5/5/5 8/8/8
f 8/8/8 18/18/18 26/26/26
f 18/18/18 8/8/8 17/17/17
f 19/19/19 17/17/17 8/8/8
f 17/17/17 19/19/19 20/20/20
f 21/21/21 20/20/20 19/19/19
