mtllib WATER_PZL_CURSOR.mtl
g Box01
usemtl Lvl_dwarven_plc_cursor01
v 124.999992 -0.135988 -125.000008
vn 0.000000 0.000000 -1.000000
vt 1.000000 1.000000
v -125.000008 -0.135988 -124.999992
vn 0.000000 0.000000 -1.000000
vt 1.000000 0.000000
v -125.000008 15.035976 -124.999985
vn 0.000000 0.000000 -1.000000
vt 0.000000 0.000000
v 124.999992 15.035976 -125.000008
vn 0.000000 0.000000 -1.000000
vt 0.000000 1.000000
v -125.000008 -0.135988 -124.999992
vn -1.000000 0.000000 0.000000
vt 1.000000 1.000000
v -124.999992 -0.135998 125.000008
vn -1.000000 0.000000 0.000000
vt 1.000000 0.000000
v -124.999992 15.035965 125.000015
vn -1.000000 0.000000 0.000000
vt 0.000000 0.000000
v -125.000008 15.035976 -124.999985
vn -1.000000 0.000000 0.000000
vt 0.000000 1.000000
v -124.999992 -0.135998 125.000008
vn 0.000000 0.000000 1.000000
vt 1.000000 1.000000
v 125.000008 -0.135998 124.999992
vn 0.000000 0.000000 1.000000
vt 1.000000 0.000000
v 125.000008 15.035965 124.999992
vn 0.000000 0.000000 1.000000
vt 0.000000 0.000000
v -124.999992 15.035965 125.000015
vn 0.000000 0.000000 1.000000
vt 0.000000 1.000000
v 125.000008 -0.135998 124.999992
vn 1.000000 0.000000 0.000000
vt 1.000000 1.000000
v 124.999992 -0.135988 -125.000008
vn 1.000000 0.000000 0.000000
vt 1.000000 0.000000
v 124.999992 15.035976 -125.000008
vn 1.000000 0.000000 0.000000
vt 0.000000 0.000000
v 125.000008 15.035965 124.999992
vn 1.000000 0.000000 0.000000
vt 0.000000 1.000000
v 124.999992 15.035976 -125.000008
vn -0.216265 0.952081 0.216265
vt 1.000000 1.000000
v -125.000008 15.035976 -124.999985
vn 0.216265 0.952081 0.216265
vt 1.000000 0.000000
v -104.227760 5.599153 -104.227745
vn 0.216265 0.952081 0.216265
vt 0.000000 0.000000
v 104.227745 5.599153 -104.227760
vn -0.216265 0.952081 0.216265
vt 0.000000 1.000000
v -125.000008 15.035976 -124.999985
vn 0.216265 0.952081 0.216265
vt 1.000000 1.000000
v -124.999992 15.035965 125.000015
vn 0.216265 0.952081 -0.216265
vt 1.000000 0.000000
v -104.227745 5.599143 104.227760
vn 0.216265 0.952081 -0.216265
vt 0.000000 0.000000
v -104.227760 5.599153 -104.227745
vn 0.216265 0.952081 0.216265
vt 0.000000 1.000000
v -124.999992 15.035965 125.000015
vn 0.216265 0.952081 -0.216265
vt 1.000000 1.000000
v 125.000008 15.035965 124.999992
vn -0.216265 0.952081 -0.216265
vt 1.000000 0.000000
v 104.227760 5.599143 104.227745
vn -0.216265 0.952081 -0.216265
vt 0.000000 0.000000
v -104.227745 5.599143 104.227760
vn 0.216265 0.952081 -0.216265
vt 0.000000 1.000000
v 125.000008 15.035965 124.999992
vn -0.216265 0.952081 -0.216265
vt 1.000000 1.000000
v 124.999992 15.035976 -125.000008
vn -0.216265 0.952081 0.216265
vt 1.000000 0.000000
v 104.227745 5.599153 -104.227760
vn -0.216265 0.952081 0.216265
vt 0.000000 0.000000
v 104.227760 5.599143 104.227745
vn -0.216265 0.952081 -0.216265
vt 0.000000 1.000000
f 3/3/3 1/1/1 2/2/2
f 1/1/1 3/3/3 4/4/4
f 7/7/7 5/5/5 6/6/6
f 5/5/5 7/7/7 8/8/8
f 11/11/11 9/9/9 10/10/10
f 9/9/9 11/11/11 12/12/12
f 15/15/15 13/13/13 14/14/14
f 13/13/13 15/15/15 16/16/16
f 19/19/19 17/17/17 18/18/18
f 17/17/17 19/19/19 20/20/20
f 23/23/23 21/21/21 22/22/22
f 21/21/21 23/23/23 24/24/24
f 27/27/27 25/25/25 26/26/26
f 25/25/25 27/27/27 28/28/28
f 31/31/31 29/29/29 30/30/30
f 29/29/29 31/31/31 32/32/32
