mtllib EELHOLE.mtl
g eel_hole
usemtl 10_-_Default
v -0.283569 3.863015 0.433655
vn 0.000000 1.000000 0.000000
vt 0.499921 0.505403
v -0.283562 4.822331 24.981356
vn -0.007937 0.809487 -0.587084
vt 0.499921 0.385445
v 9.700886 4.822331 22.859087
vn -0.283487 0.819349 -0.498299
vt 0.451397 0.395816
v 17.960985 4.822332 16.861105
vn -0.503738 0.798092 -0.330601
vt 0.411254 0.425127
v 23.062681 4.822333 8.019303
vn -0.624804 0.763728 -0.162294
vt 0.386460 0.468334
v 24.129654 4.822333 -2.132286
vn -0.623038 0.780843 0.045918
vt 0.381274 0.517942
v 20.975353 4.822334 -11.840199
vn -0.491876 0.783399 0.379926
vt 0.396604 0.565382
v 14.145199 4.822335 -19.425856
vn -0.368738 0.754741 0.542586
vt 0.429798 0.602451
v 4.820177 4.822335 -23.577616
vn -0.119187 0.777813 0.617091
vt 0.475117 0.622740
v -5.387330 4.822335 -23.577610
vn 0.147455 0.799742 0.581954
vt 0.524725 0.622740
v -14.712350 4.822335 -19.425842
vn 0.352709 0.816073 0.457844
vt 0.570045 0.602451
v -21.542503 4.822334 -11.840188
vn 0.544877 0.816879 0.189256
vt 0.603239 0.565382
v -24.696793 4.822334 -2.132269
vn 0.626321 0.777784 0.052663
vt 0.618569 0.517942
v -23.629810 4.822333 8.019318
vn 0.566107 0.803219 -0.185368
vt 0.613383 0.468334
v -18.526052 4.822332 16.859274
vn 0.420065 0.831762 -0.362928
vt 0.588579 0.425136
v -10.268007 4.822332 22.859100
vn 0.182854 0.891197 -0.415130
vt 0.548445 0.395816
v -1.851362 28.300655 44.622604
vn -0.009368 0.979321 -0.202094
vt 0.507541 0.289464
v -2.024951 25.684423 50.937927
vn -0.026046 0.962741 0.269167
vt 0.508385 0.258602
v 18.722239 25.671736 40.472343
vn 0.156717 0.983741 0.087708
vt 0.407554 0.309745
v 16.572842 25.453207 35.266109
vn -0.139575 0.875730 -0.462186
vt 0.418000 0.335186
v 31.381844 23.597084 27.905853
vn 0.081432 0.994840 0.060513
vt 0.346029 0.371154
v 27.300266 23.378559 24.023581
vn -0.383271 0.879606 -0.281774
vt 0.365865 0.390126
v 40.549850 25.510309 14.596672
vn 0.085358 0.994923 0.053317
vt 0.301473 0.436192
v 31.973568 25.453209 11.787361
vn -0.513990 0.848197 -0.127969
vt 0.343153 0.449921
v 39.472572 25.671738 -2.826280
vn 0.226786 0.971850 0.063835
vt 0.306708 0.521334
v 33.856956 25.453209 -2.390894
vn -0.522248 0.852465 0.023661
vt 0.334000 0.519206
v 43.319115 27.597706 -20.697643
vn 0.247694 0.967328 -0.054076
vt 0.288014 0.608666
v 34.864170 28.287621 -15.971204
vn -0.408311 0.879610 0.244067
vt 0.329105 0.585569
v 23.968458 28.506149 -31.460703
vn 0.136049 0.974276 -0.179657
vt 0.382058 0.661262
v 20.534431 28.287622 -26.996151
vn -0.397394 0.799807 0.449873
vt 0.398747 0.639445
v 9.621957 27.817760 -42.523785
vn -0.070807 0.989407 -0.126725
vt 0.451781 0.715325
v 7.632103 25.453213 -33.168678
vn -0.226402 0.794200 0.563905
vt 0.461452 0.669609
v -8.254613 27.142994 -41.610500
vn -0.036636 0.989408 -0.140465
vt 0.538660 0.710862
v -7.234619 26.924465 -36.071152
vn 0.021511 0.847534 0.530304
vt 0.533703 0.683792
v -24.590752 25.671741 -34.973648
vn -0.139704 0.989885 -0.024710
vt 0.618053 0.678429
v -21.405886 25.453213 -30.328075
vn 0.205348 0.856569 0.473414
vt 0.602575 0.655727
v -39.138081 24.290104 -20.827103
vn -0.103747 0.991443 -0.079233
vt 0.688753 0.609299
v -34.310768 24.071577 -17.863146
vn 0.411854 0.888087 0.204151
vt 0.665292 0.594815
v -40.116714 25.671738 -5.003053
vn -0.115338 0.991396 -0.061894
vt 0.693509 0.531971
v -34.533287 25.453211 -4.261372
vn 0.524196 0.851528 -0.010930
vt 0.666374 0.528347
v -41.378891 27.545647 12.475089
vn -0.249339 0.967997 -0.028509
vt 0.699643 0.446560
v -35.976509 27.327122 10.881663
vn 0.552914 0.829063 -0.083312
vt 0.673388 0.454347
v -37.733940 27.357914 29.452982
vn -0.061232 0.984411 0.164883
vt 0.681929 0.363594
v -30.456354 25.453211 23.724398
vn 0.493504 0.834916 -0.243658
vt 0.646560 0.391588
v -22.935160 25.671736 40.987373
vn -0.092574 0.973475 0.209227
vt 0.610007 0.307228
v -20.504406 25.453207 35.906414
vn 0.213873 0.889663 -0.403433
vt 0.598194 0.332057
v -2.226632 22.926723 57.983410
vn -0.072531 0.823401 0.562806
vt 0.509365 0.224173
v 25.050985 22.926722 55.368065
vn 0.261296 0.853430 0.450979
vt 0.376797 0.236953
v 41.683937 20.422792 37.561497
vn 0.362322 0.887563 0.284525
vt 0.295961 0.323969
v 54.066254 22.926727 19.390863
vn 0.391109 0.915021 0.098847
vt 0.235784 0.412764
v 53.579521 20.422796 -3.922673
vn 0.494434 0.868432 -0.036878
vt 0.238149 0.526691
v 50.414375 22.926729 -27.696087
vn 0.469370 0.855146 -0.220039
vt 0.253531 0.642866
v 32.595459 20.422798 -42.683208
vn 0.346113 0.818442 -0.458648
vt 0.340131 0.716104
v 12.979141 22.926731 -56.488674
vn 0.084267 0.870018 -0.485765
vt 0.435465 0.783567
v -10.252389 20.422798 -53.024948
vn -0.096160 0.821350 -0.562261
vt 0.548369 0.766641
v -33.466240 22.926731 -47.935745
vn -0.290825 0.893777 -0.341443
vt 0.661188 0.741771
v -46.608459 20.422798 -28.100683
vn -0.421931 0.866393 -0.267090
vt 0.725058 0.644843
v -58.189133 22.926725 -7.697730
vn -0.412079 0.910826 -0.024211
vt 0.781340 0.545139
v -52.411018 20.422794 15.594373
vn -0.542919 0.832351 0.111493
vt 0.753259 0.431317
v -44.829865 22.926723 37.600445
vn -0.388566 0.856564 0.339581
vt 0.716415 0.323779
v -23.822515 20.422792 49.142208
vn -0.262452 0.804423 0.532938
vt 0.614320 0.267378
v -0.504057 6.720609 78.601234
vn -0.056764 0.848730 0.525772
vt 0.500993 0.123419
v 29.180811 5.492845 66.622200
vn 0.252039 0.811169 0.527714
vt 0.356726 0.181958
v 53.670513 5.492836 49.012905
vn 0.418907 0.811691 0.407031
vt 0.237707 0.268009
v 74.155861 6.720584 24.361769
vn 0.491675 0.848866 0.194119
vt 0.138149 0.388473
v 70.807396 5.492814 -7.042786
vn 0.533454 0.842579 -0.074070
vt 0.154422 0.541938
v 67.535019 6.720559 -39.179455
vn 0.478574 0.850082 -0.219833
vt 0.170326 0.698982
v 41.722069 5.492794 -57.391968
vn 0.303188 0.840265 -0.449480
vt 0.295776 0.787981
v 15.844052 6.720545 -76.810791
vn 0.160398 0.848238 -0.504743
vt 0.421542 0.882876
v -15.145313 5.492790 -69.469612
vn -0.132326 0.838474 -0.528632
vt 0.572149 0.847002
v -46.738689 6.720551 -63.533188
vn -0.265802 0.846909 -0.460536
vt 0.725691 0.817992
v -62.175667 5.492803 -35.301361
vn -0.481349 0.838446 -0.255559
vt 0.800714 0.680031
v -78.700218 6.720574 -8.115882
vn -0.519544 0.847020 -0.112385
vt 0.881023 0.547183
v -68.263710 5.492827 22.516375
vn -0.509673 0.840205 0.185173
vt 0.830302 0.397491
v -58.884083 6.720599 52.668575
vn -0.428554 0.848517 0.310420
vt 0.784718 0.250145
v -29.365042 5.492845 65.738327
vn -0.202758 0.842528 0.499035
vt 0.641256 0.186277
v -0.299722 -6.079411 101.968071
vn -0.002586 0.591770 0.806103
vt 0.500000 0.059619
v 41.007603 -6.079415 93.187943
vn 0.358404 0.608602 0.707919
vt 0.299248 0.098168
v 75.172516 -6.079426 68.365669
vn 0.596281 0.624799 0.504058
vt 0.133208 0.207153
v 96.287582 -6.079442 31.793270
vn 0.767891 0.590618 0.248019
vt 0.030590 0.367727
v 100.701828 -6.079460 -10.205547
vn 0.781681 0.611189 -0.124189
vt 0.009136 0.552127
v 87.651985 -6.079477 -50.368805
vn 0.700199 0.590434 -0.401384
vt 0.072558 0.728468
v 59.394485 -6.079490 -81.751930
vn 0.430647 0.610337 -0.664855
vt 0.209888 0.866258
v 20.815321 -6.079494 -98.928474
vn 0.172028 0.588460 -0.790013
vt 0.397382 0.941673
v -21.414837 -6.079494 -98.928467
vn -0.206390 0.609517 -0.765436
vt 0.602618 0.941673
v -59.993996 -6.079488 -81.751900
vn -0.471434 0.587422 -0.657788
vt 0.790112 0.866258
v -88.251488 -6.079474 -50.368771
vn -0.707024 0.609296 -0.358992
vt 0.927442 0.728468
v -101.301300 -6.079456 -10.205503
vn -0.803814 0.588060 -0.089826
vt 0.990864 0.552127
v -96.887047 -6.079440 31.793314
vn -0.739660 0.609830 0.284622
vt 0.969411 0.367727
v -75.771950 -6.079425 68.365692
vn -0.602823 0.589942 0.537190
vt 0.866792 0.207153
v -41.607037 -6.079414 93.187950
vn -0.283640 0.610740 0.739287
vt 0.700752 0.098169
v -0.299721 -18.002699 103.755028
vn -0.024550 -0.479358 0.877276
vt 0.500000 0.000499
v 41.734425 -18.002703 94.820404
vn 0.334322 -0.343559 0.877608
vt 0.295716 0.044161
v 76.500481 -18.002707 69.561371
vn 0.609359 -0.478578 0.632174
vt 0.126754 0.167595
v 97.987068 -18.002722 32.345467
vn 0.813806 -0.478579 0.329671
vt 0.022330 0.349459
v 102.479004 -18.002748 -10.392329
vn 0.877538 -0.478578 -0.029835
vt 0.000499 0.558307
v 89.199524 -18.002766 -51.262276
vn 0.789535 -0.478579 -0.384183
vt 0.065037 0.758027
v 60.444839 -18.002769 -83.197601
vn 0.565015 -0.478579 -0.672101
vt 0.204784 0.914086
v 21.186846 -18.002775 -100.676376
vn 0.242799 -0.478579 -0.843808
vt 0.395576 0.999501
v -21.786367 -18.002777 -100.676361
vn -0.121400 -0.478579 -0.869612
vt 0.604424 0.999501
v -61.044342 -18.002768 -83.197563
vn -0.464607 -0.478579 -0.745052
vt 0.795216 0.914086
v -89.799034 -18.002764 -51.262241
vn -0.727480 -0.478579 -0.491666
vt 0.934963 0.758027
v -103.078461 -18.002747 -10.392287
vn -0.864564 -0.478579 -0.153267
vt 0.999501 0.558307
v -98.586540 -18.002720 32.345509
vn -0.852158 -0.478578 0.211634
vt 0.977670 0.349459
v -77.099915 -18.002703 69.561401
vn -0.692406 -0.478578 0.539941
vt 0.873246 0.167595
v -42.333843 -18.002703 94.820412
vn -0.367683 -0.569468 0.735197
vt 0.704284 0.044161
v -0.299736 -54.816734 0.410181
vn 0.000000 -1.000000 0.000000
vt 0.500000 0.505518
v 25.445484 -36.614361 58.234871
vn 0.152125 -0.927423 0.341678
vt 0.374879 0.222944
v -0.299727 -36.614361 63.707184
vn -0.017949 -0.931097 0.364329
vt 0.500000 0.196203
v 46.739109 -36.614368 42.764118
vn 0.282759 -0.931097 0.230445
vt 0.271393 0.298546
v 59.899288 -36.614380 19.970011
vn 0.352044 -0.931097 0.095514
vt 0.207435 0.409934
v 62.650524 -36.614388 -6.206176
vn 0.360457 -0.931097 -0.055933
vt 0.194064 0.537850
v 54.517067 -36.614399 -31.238338
vn 0.306543 -0.931098 -0.197708
vt 0.233593 0.660176
v 36.905300 -36.614399 -50.798176
vn 0.199626 -0.931098 -0.305298
vt 0.319185 0.755759
v 12.860435 -36.614410 -61.503624
vn 0.058192 -0.931098 -0.360099
vt 0.436042 0.808074
v -13.459936 -36.614407 -61.503620
vn -0.093305 -0.931098 -0.352635
vt 0.563958 0.808074
v -37.504784 -36.614403 -50.798161
vn -0.228668 -0.931098 -0.284198
vt 0.680815 0.755759
v -55.116558 -36.614399 -31.238316
vn -0.324492 -0.931098 -0.166620
vt 0.766407 0.660176
v -63.249992 -36.614384 -6.206149
vn -0.364209 -0.931097 -0.020232
vt 0.805936 0.537850
v -60.498753 -36.614372 19.970032
vn -0.340951 -0.931097 0.129655
vt 0.792565 0.409934
v -47.338562 -36.614361 42.764141
vn -0.258739 -0.931097 0.257122
vt 0.728607 0.298546
v -26.044930 -36.614361 58.234875
vn -0.142308 -0.936796 0.319628
vt 0.625121 0.222944
f 97/97/97 81/81/81 96/96/96
f 81/81/81 97/97/97 82/82/82
f 98/98/98 82/82/82 97/97/97
f 82/82/82 98/98/98 83/83/83
f 99/99/99 83/83/83 98/98/98
f 83/83/83 99/99/99 84/84/84
f 100/100/100 84/84/84 99/99/99
f 84/84/84 100/100/100 85/85/85
f 101/101/101 85/85/85 100/100/100
f 85/85/85 101/101/101 86/86/86
f 102/102/102 86/86/86 101/101/101
f 86/86/86 102/102/102 87/87/87
f 103/103/103 87/87/87 102/102/102
f 87/87/87 103/103/103 88/88/88
f 104/104/104 88/88/88 103/103/103
f 88/88/88 104/104/104 89/89/89
f 105/105/105 89/89/89 104/104/104
f 89/89/89 105/105/105 90/90/90
f 82/82/82 66/66/66 81/81/81
f 66/66/66 82/82/82 67/67/67
f 83/83/83 67/67/67 82/82/82
f 67/67/67 83/83/83 68/68/68
f 84/84/84 68/68/68 83/83/83
f 68/68/68 84/84/84 69/69/69
f 85/85/85 69/69/69 84/84/84
f 69/69/69 85/85/85 70/70/70
f 86/86/86 70/70/70 85/85/85
f 70/70/70 86/86/86 71/71/71
f 87/87/87 71/71/71 86/86/86
f 71/71/71 87/87/87 72/72/72
f 88/88/88 72/72/72 87/87/87
f 72/72/72 88/88/88 73/73/73
f 89/89/89 73/73/73 88/88/88
f 73/73/73 89/89/89 74/74/74
f 90/90/90 74/74/74 89/89/89
f 74/74/74 90/90/90 75/75/75
f 67/67/67 51/51/51 66/66/66
f 51/51/51 67/67/67 52/52/52
f 68/68/68 52/52/52 67/67/67
f 52/52/52 68/68/68 53/53/53
f 69/69/69 53/53/53 68/68/68
f 53/53/53 69/69/69 54/54/54
f 70/70/70 54/54/54 69/69/69
f 54/54/54 70/70/70 55/55/55
f 71/71/71 55/55/55 70/70/70
f 55/55/55 71/71/71 56/56/56
f 72/72/72 56/56/56 71/71/71
f 56/56/56 72/72/72 57/57/57
f 73/73/73 57/57/57 72/72/72
f 57/57/57 73/73/73 58/58/58
f 74/74/74 58/58/58 73/73/73
f 58/58/58 74/74/74 59/59/59
f 75/75/75 59/59/59 74/74/74
f 59/59/59 75/75/75 60/60/60
f 52/52/52 25/25/25 51/51/51
f 25/25/25 52/52/52 27/27/27
f 53/53/53 27/27/27 52/52/52
f 27/27/27 53/53/53 29/29/29
f 54/54/54 29/29/29 53/53/53
f 29/29/29 54/54/54 31/31/31
f 55/55/55 31/31/31 54/54/54
f 31/31/31 55/55/55 33/33/33
f 56/56/56 33/33/33 55/55/55
f 33/33/33 56/56/56 35/35/35
f 57/57/57 35/35/35 56/56/56
f 35/35/35 57/57/57 37/37/37
f 58/58/58 37/37/37 57/57/57
f 37/37/37 58/58/58 39/39/39
f 59/59/59 39/39/39 58/58/58
f 39/39/39 59/59/59 41/41/41
f 60/60/60 41/41/41 59/59/59
f 41/41/41 60/60/60 43/43/43
f 27/27/27 26/26/26 25/25/25
f 26/26/26 27/27/27 28/28/28
f 29/29/29 28/28/28 27/27/27
f 28/28/28 29/29/29 30/30/30
f 31/31/31 30/30/30 29/29/29
f 30/30/30 31/31/31 32/32/32
f 33/33/33 32/32/32 31/31/31
f 32/32/32 33/33/33 34/34/34
f 35/35/35 34/34/34 33/33/33
f 34/34/34 35/35/35 36/36/36
f 37/37/37 36/36/36 35/35/35
f 36/36/36 37/37/37 38/38/38
f 39/39/39 38/38/38 37/37/37
f 38/38/38 39/39/39 40/40/40
f 41/41/41 40/40/40 39/39/39
f 40/40/40 41/41/41 42/42/42
f 43/43/43 42/42/42 41/41/41
f 42/42/42 43/43/43 44/44/44
f 7/7/7 28/28/28 30/30/30
f 28/28/28 6/6/6 26/26/26
f 6/6/6 28/28/28 7/7/7
f 1/1/1 3/3/3 4/4/4
f 3/3/3 1/1/1 2/2/2
f 16/16/16 2/2/2 1/1/1
f 2/2/2 16/16/16 46/46/46
f 15/15/15 46/46/46 16/16/16
f 46/46/46 15/15/15 44/44/44
f 14/14/14 44/44/44 15/15/15
f 44/44/44 14/14/14 42/42/42
f 13/13/13 42/42/42 14/14/14
f 42/42/42 13/13/13 40/40/40
f 12/12/12 40/40/40 13/13/13
f 40/40/40 12/12/12 38/38/38
f 11/11/11 38/38/38 12/12/12
f 38/38/38 11/11/11 36/36/36
f 10/10/10 36/36/36 11/11/11
f 36/36/36 10/10/10 34/34/34
f 9/9/9 34/34/34 10/10/10
f 34/34/34 9/9/9 32/32/32
f 1/1/1 15/15/15 16/16/16
f 15/15/15 1/1/1 14/14/14
f 11/11/11 12/12/12 1/1/1
f 13/13/13 1/1/1 12/12/12
f 1/1/1 13/13/13 14/14/14
f 8/8/8 9/9/9 1/1/1
f 10/10/10 1/1/1 9/9/9
f 1/1/1 10/10/10 11/11/11
f 32/32/32 9/9/9 8/8/8
f 1/1/1 4/4/4 5/5/5
f 46/46/46 17/17/17 2/2/2
f 20/20/20 2/2/2 17/17/17
f 2/2/2 20/20/20 3/3/3
f 22/22/22 3/3/3 20/20/20
f 3/3/3 22/22/22 4/4/4
f 24/24/24 4/4/4 22/22/22
f 4/4/4 24/24/24 5/5/5
f 45/45/45 44/44/44 43/43/43
f 44/44/44 45/45/45 46/46/46
f 18/18/18 46/46/46 45/45/45
f 46/46/46 18/18/18 17/17/17
f 19/19/19 17/17/17 18/18/18
f 17/17/17 19/19/19 20/20/20
f 21/21/21 20/20/20 19/19/19
f 20/20/20 21/21/21 22/22/22
f 23/23/23 22/22/22 21/21/21
f 22/22/22 23/23/23 24/24/24
f 61/61/61 43/43/43 60/60/60
f 43/43/43 61/61/61 45/45/45
f 47/47/47 45/45/45 61/61/61
f 45/45/45 47/47/47 18/18/18
f 48/48/48 18/18/18 47/47/47
f 18/18/18 48/48/48 19/19/19
f 49/49/49 19/19/19 48/48/48
f 19/19/19 49/49/49 21/21/21
f 50/50/50 21/21/21 49/49/49
f 21/21/21 50/50/50 23/23/23
f 76/76/76 60/60/60 75/75/75
f 60/60/60 76/76/76 61/61/61
f 62/62/62 61/61/61 76/76/76
f 61/61/61 62/62/62 47/47/47
f 63/63/63 47/47/47 62/62/62
f 47/47/47 63/63/63 48/48/48
f 64/64/64 48/48/48 63/63/63
f 48/48/48 64/64/64 49/49/49
f 65/65/65 49/49/49 64/64/64
f 49/49/49 65/65/65 50/50/50
f 91/91/91 75/75/75 90/90/90
f 75/75/75 91/91/91 76/76/76
f 77/77/77 76/76/76 91/91/91
f 76/76/76 77/77/77 62/62/62
f 78/78/78 62/62/62 77/77/77
f 62/62/62 78/78/78 63/63/63
f 79/79/79 63/63/63 78/78/78
f 63/63/63 79/79/79 64/64/64
f 80/80/80 64/64/64 79/79/79
f 64/64/64 80/80/80 65/65/65
f 106/106/106 90/90/90 105/105/105
f 90/90/90 106/106/106 91/91/91
f 92/92/92 91/91/91 106/106/106
f 91/91/91 92/92/92 77/77/77
f 93/93/93 77/77/77 92/92/92
f 77/77/77 93/93/93 78/78/78
f 94/94/94 78/78/78 93/93/93
f 78/78/78 94/94/94 79/79/79
f 95/95/95 79/79/79 94/94/94
f 79/79/79 95/95/95 80/80/80
f 94/94/94 110/110/110 95/95/95
f 110/110/110 94/94/94 108/108/108
f 93/93/93 108/108/108 94/94/94
f 108/108/108 93/93/93 92/92/92
f 110/110/110 111/111/111 95/95/95
f 111/111/111 110/110/110 107/107/107
f 108/108/108 107/107/107 110/110/110
f 107/107/107 108/108/108 109/109/109
f 92/92/92 109/109/109 108/108/108
f 109/109/109 92/92/92 106/106/106
f 112/112/112 107/107/107 113/113/113
f 107/107/107 112/112/112 111/111/111
f 114/114/114 98/98/98 113/113/113
f 97/97/97 113/113/113 98/98/98
f 113/113/113 97/97/97 112/112/112
f 96/96/96 112/112/112 97/97/97
f 112/112/112 96/96/96 111/111/111
f 116/116/116 115/115/115 107/107/107
f 114/114/114 107/107/107 115/115/115
f 107/107/107 114/114/114 113/113/113
f 107/107/107 117/117/117 116/116/116
f 107/107/107 118/118/118 117/117/117
f 118/118/118 107/107/107 119/119/119
f 120/120/120 119/119/119 107/107/107
f 121/121/121 107/107/107 122/122/122
f 107/107/107 121/121/121 120/120/120
f 107/107/107 109/109/109 122/122/122
f 106/106/106 122/122/122 109/109/109
f 122/122/122 106/106/106 121/121/121
f 105/105/105 121/121/121 106/106/106
f 121/121/121 105/105/105 120/120/120
f 104/104/104 120/120/120 105/105/105
f 120/120/120 104/104/104 119/119/119
f 103/103/103 119/119/119 104/104/104
f 119/119/119 103/103/103 118/118/118
f 102/102/102 118/118/118 103/103/103
f 118/118/118 102/102/102 117/117/117
f 101/101/101 117/117/117 102/102/102
f 117/117/117 101/101/101 116/116/116
f 100/100/100 116/116/116 101/101/101
f 116/116/116 100/100/100 115/115/115
f 99/99/99 115/115/115 100/100/100
f 115/115/115 99/99/99 114/114/114
f 98/98/98 114/114/114 99/99/99
f 8/8/8 30/30/30 32/32/32
f 30/30/30 8/8/8 7/7/7
f 1/1/1 7/7/7 8/8/8
f 7/7/7 1/1/1 6/6/6
f 5/5/5 6/6/6 1/1/1
f 6/6/6 5/5/5 26/26/26
f 24/24/24 26/26/26 5/5/5
f 26/26/26 24/24/24 25/25/25
f 23/23/23 25/25/25 24/24/24
f 25/25/25 23/23/23 51/51/51
f 50/50/50 51/51/51 23/23/23
f 51/51/51 50/50/50 66/66/66
f 65/65/65 66/66/66 50/50/50
f 66/66/66 65/65/65 81/81/81
f 80/80/80 81/81/81 65/65/65
f 81/81/81 80/80/80 96/96/96
f 95/95/95 96/96/96 80/80/80
f 96/96/96 95/95/95 111/111/111
