mtllib INST_SWORDLIGHT_SWITCHA.mtl
g tchBoxA_Lod1_01
usemtl switchbox
v 19.909256 2.898397 32.099098
vn -0.317884 -0.631767 0.706979
vt 0.886877 0.102533
v 19.909254 -2.658751 32.099098
vn -0.230559 0.229368 0.945639
vt 0.886877 0.139188
v 34.183296 13.654051 32.099102
vn 0.436436 0.218217 0.872872
vt 0.995477 0.003024
v 34.183273 -13.414313 32.099098
vn 0.333333 -0.666667 0.666667
vt 0.995477 0.238697
v -34.573315 -13.414289 32.099113
vn -0.534522 -0.267261 0.801784
vt 0.470801 0.242321
v -20.299280 -2.658737 32.099117
vn 0.256343 0.510036 0.821067
vt 0.580963 0.139188
v -34.573296 13.654074 32.099117
vn -0.267261 0.534523 0.801784
vt 0.472364 0.003023
v -20.299278 2.898411 32.099117
vn 0.292703 -0.290861 0.910892
vt 0.580963 0.102533
v 34.183266 -13.414315 -0.812845
vn 0.816496 -0.408249 -0.408248
vt 0.470801 0.532966
v 34.183289 13.654049 -0.812843
vn 0.333333 0.666667 -0.666667
vt -0.001952 0.532966
v 34.183296 13.654051 32.099102
vn 0.436436 0.218217 0.872872
vt -0.001952 0.242321
v 34.183273 -13.414313 32.099098
vn 0.333333 -0.666667 0.666667
vt 0.470801 0.242321
v -34.573322 -13.414292 -0.812836
vn -0.333334 -0.666666 -0.666667
vt 0.470801 0.532966
v 34.183266 -13.414315 -0.812845
vn 0.816496 -0.408249 -0.408248
vt 0.993729 0.532178
v -34.573296 13.654072 -0.812829
vn -0.816496 0.408249 -0.408248
vt -0.001952 0.532966
v -34.573296 13.654074 32.099117
vn -0.267261 0.534523 0.801784
vt -0.001952 0.242321
v 34.183289 13.654049 -0.812843
vn 0.333333 0.666667 -0.666667
vt 0.999894 0.531731
v -34.573296 13.654072 -0.812829
vn -0.816496 0.408249 -0.408248
vt 0.473286 0.531731
v -34.573296 13.654074 32.099117
vn -0.267261 0.534523 0.801784
vt 0.468627 0.238690
v 34.183296 13.654051 32.099102
vn 0.436436 0.218217 0.872872
vt 0.993729 0.238690
v 34.183266 -13.414315 -0.812845
vn 0.816496 -0.408249 -0.408248
vt 0.999894 0.770192
v -34.573322 -13.414292 -0.812836
vn -0.333334 -0.666666 -0.666667
vt 0.473286 0.770192
v 19.909254 -2.658751 32.099098
vn -0.230559 0.229368 0.945639
vt 0.457749 0.545915
v 19.909256 2.898397 32.099098
vn -0.317884 -0.631767 0.706979
vt 0.339310 0.544074
v 19.909248 -0.018403 6.222136
vn -0.691519 0.688727 0.217845
vt 0.404830 0.770518
v 19.909248 -0.018403 6.222136
vn -0.691519 0.688727 0.217845
vt 0.339310 0.772359
v -20.299286 -0.018389 6.222143
vn 0.691519 -0.686388 0.225107
vt 0.026834 0.772359
v -20.299280 -2.658737 32.099117
vn 0.256343 0.510036 0.821067
vt 0.026834 0.544074
v 19.909254 -2.658751 32.099098
vn -0.230559 0.229368 0.945639
vt 0.339310 0.544074
v -20.299278 2.898411 32.099117
vn 0.292703 -0.290861 0.910892
vt 0.349390 0.545915
v -20.299280 -2.658737 32.099117
vn 0.256343 0.510036 0.821067
vt 0.457749 0.545915
v -20.299286 -0.018389 6.222143
vn 0.691519 -0.686388 0.225107
vt 0.404830 0.770518
v -20.299278 2.898411 32.099117
vn 0.292703 -0.290861 0.910892
vt 0.026834 0.544074
f 23/23/23 24/24/24 25/25/25
f 27/27/27 24/24/24 33/33/33
f 24/24/24 27/27/27 26/26/26
f 28/28/28 26/26/26 27/27/27
f 26/26/26 28/28/28 29/29/29
f 15/15/15 13/13/13 5/5/5
f 4/4/4 5/5/5 13/13/13
f 5/5/5 4/4/4 2/2/2
f 3/3/3 2/2/2 4/4/4
f 2/2/2 3/3/3 1/1/1
f 8/8/8 1/1/1 3/3/3
f 13/13/13 14/14/14 4/4/4
f 5/5/5 16/16/16 15/15/15
f 6/6/6 5/5/5 2/2/2
f 5/5/5 6/6/6 7/7/7
f 8/8/8 7/7/7 6/6/6
f 7/7/7 8/8/8 3/3/3
f 21/21/21 22/22/22 17/17/17
f 18/18/18 17/17/17 22/22/22
f 17/17/17 18/18/18 19/19/19
f 19/19/19 20/20/20 17/17/17
f 11/11/11 9/9/9 10/10/10
f 9/9/9 11/11/11 12/12/12
f 30/30/30 31/31/31 32/32/32
g SwitchA_Lod1_01
usemtl switchbox
v 2.567783 2.316055 7.426619
vn 0.500000 0.866025 0.000000
vt 0.000482 0.866157
v -2.416190 2.316062 75.416893
vn -0.433013 0.750000 0.500000
vt 0.770112 0.924476
v 2.567801 2.316060 75.416893
vn 0.866025 0.000000 0.500000
vt 0.770112 0.866157
v -2.416207 2.316056 7.426620
vn -1.000000 0.000000 0.000000
vt 0.000482 0.924477
v 0.075801 -2.000201 75.416893
vn -0.433013 -0.750000 0.500000
vt 0.770112 0.994108
v 0.075786 -2.000207 7.426627
vn 0.500000 -0.866026 0.000000
vt 0.000482 0.994108
v 0.075786 -2.000207 7.426627
vn 0.500000 -0.866026 0.000000
vt 0.000482 0.796525
v 0.075801 -2.000201 75.416893
vn -0.433013 -0.750000 0.500000
vt 0.770111 0.796525
v -2.416190 2.316062 75.416893
vn -0.433013 0.750000 0.500000
vt 0.999483 0.895317
f 41/41/41 36/36/36 42/42/42
f 39/39/39 38/38/38 37/37/37
f 35/35/35 37/37/37 38/38/38
f 37/37/37 35/35/35 34/34/34
f 36/36/36 34/34/34 35/35/35
f 34/34/34 36/36/36 40/40/40
f 41/41/41 40/40/40 36/36/36
