mtllib INST_SWORDLIGHT_FLASK8.mtl
g Inst_flask8_
usemtl flask_01
v 10.163925 -0.133855 0.000000
vn 0.977818 -0.091973 -0.188181
vt 0.908524 1.000317
v 5.081967 -0.133852 -8.802220
vn 0.325940 -0.091973 -0.940906
vt 0.086357 1.003493
v 6.145792 22.486498 -10.644821
vn 0.496534 0.317297 -0.807946
vt 0.011271 0.289062
v 12.291582 22.486498 0.000003
vn 0.947969 0.317297 0.026039
vt 1.006292 0.283264
v -10.163924 -0.133855 -0.000009
vn -0.977818 -0.091973 0.188181
vt 0.904960 0.997011
v -5.081965 -0.133861 8.802210
vn -0.325940 -0.091973 0.940906
vt 0.079012 0.999510
v -6.145791 22.486494 10.644822
vn -0.496534 0.317297 0.807946
vt -0.002952 0.283674
v -6.145790 22.486498 -10.644820
vn -0.451435 0.317297 -0.833984
vt 0.008228 0.291030
v 6.145792 22.486498 -10.644821
vn 0.496534 0.317297 -0.807946
vt 1.004202 0.283264
v 5.081967 -0.133852 -8.802220
vn 0.325940 -0.091973 -0.940906
vt 0.901089 1.000972
v 12.291582 22.486498 0.000003
vn 0.947969 0.317297 0.026039
vt 0.003021 0.283264
v 6.145788 22.486494 10.644823
vn 0.451435 0.317297 0.833984
vt 1.010880 0.283264
v 5.081956 -0.133859 8.802217
vn 0.651879 -0.091973 0.752725
vt 0.905021 0.998117
v 10.163925 -0.133855 0.000000
vn 0.977818 -0.091973 -0.188181
vt 0.075132 0.995275
v 6.145788 22.486494 10.644823
vn 0.451435 0.317297 0.833984
vt -0.005862 0.280449
v -6.145791 22.486494 10.644822
vn -0.496534 0.317297 0.807946
vt 0.995240 0.283091
v -5.081965 -0.133861 8.802210
vn -0.325940 -0.091973 0.940906
vt 0.901137 0.998117
v -5.081958 -0.133852 -8.802225
vn -0.651879 -0.091973 -0.752725
vt 0.082950 0.998538
v 5.081956 -0.133859 8.802217
vn 0.651879 -0.091973 0.752725
vt 0.074722 0.995809
v -12.291581 22.486498 0.000000
vn -0.947969 0.317297 -0.026038
vt 0.990926 0.281375
v -12.291581 22.486498 0.000000
vn -0.947969 0.317297 -0.026038
vt -0.000472 0.289146
v -6.145790 22.486498 -10.644820
vn -0.451435 0.317297 -0.833984
vt 0.999632 0.283264
v -5.081958 -0.133852 -8.802225
vn -0.651879 -0.091973 -0.752725
vt 0.905207 1.002579
v -10.163924 -0.133855 -0.000009
vn -0.977818 -0.091973 0.188181
vt 0.069101 0.997710
f 3/3/3 1/1/1 2/2/2
f 1/1/1 3/3/3 4/4/4
f 7/7/7 5/5/5 6/6/6
f 5/5/5 7/7/7 20/20/20
f 10/10/10 8/8/8 9/9/9
f 8/8/8 10/10/10 18/18/18
f 13/13/13 11/11/11 12/12/12
f 11/11/11 13/13/13 14/14/14
f 17/17/17 15/15/15 16/16/16
f 15/15/15 17/17/17 19/19/19
f 23/23/23 21/21/21 22/22/22
f 21/21/21 23/23/23 24/24/24
usemtl pot2
v 2.898315 29.653341 -5.020024
vn 0.455028 0.522572 -0.721018
vt 0.811594 0.306763
v 5.796628 29.653341 0.000003
vn 0.851935 0.522572 0.033557
vt 0.169082 0.306763
v 12.291582 22.486498 0.000003
vn 0.947969 0.317297 0.026039
vt 0.086957 0.458937
v -2.898314 29.653341 -5.020026
vn -0.396906 0.522572 -0.754575
vt 0.811594 0.306763
v 2.898315 29.653341 -5.020024
vn 0.455028 0.522572 -0.721018
vt 0.169082 0.306763
v 6.145792 22.486498 -10.644821
vn 0.496534 0.317297 -0.807946
vt 0.086957 0.458937
v -6.145790 22.486498 -10.644820
vn -0.451435 0.317297 -0.833984
vt 0.932367 0.458937
v 6.145792 22.486498 -10.644821
vn 0.496534 0.317297 -0.807946
vt 0.932367 0.458937
v -5.796628 29.653341 0.000001
vn -0.851935 0.522572 -0.033557
vt 0.811594 0.306763
v -2.898314 29.653341 -5.020026
vn -0.396906 0.522572 -0.754575
vt 0.169082 0.306763
v -6.145790 22.486498 -10.644820
vn -0.451435 0.317297 -0.833984
vt 0.086957 0.458937
v -12.291581 22.486498 0.000000
vn -0.947969 0.317297 -0.026038
vt 0.932367 0.458937
v -2.898314 29.653341 5.020029
vn -0.455029 0.522572 0.721018
vt 0.811594 0.306763
v -5.796628 29.653341 0.000001
vn -0.851935 0.522572 -0.033557
vt 0.169082 0.306763
v -12.291581 22.486498 0.000000
vn -0.947969 0.317297 -0.026038
vt 0.086957 0.458937
v -6.145791 22.486494 10.644822
vn -0.496534 0.317297 0.807946
vt 0.086957 0.458937
v 6.145788 22.486494 10.644823
vn 0.451435 0.317297 0.833984
vt 0.932367 0.458937
v 2.898312 29.653341 5.020030
vn 0.470049 0.437849 0.766383
vt 0.811594 0.306763
v 6.145788 22.486494 10.644823
vn 0.451435 0.317297 0.833984
vt 0.086957 0.458937
v 12.291582 22.486498 0.000003
vn 0.947969 0.317297 0.026039
vt 0.932367 0.458937
v 5.796628 29.653341 0.000003
vn 0.851935 0.522572 0.033557
vt 0.811594 0.306763
v -6.145791 22.486494 10.644822
vn -0.496534 0.317297 0.807946
vt 0.932367 0.458937
v 2.898312 29.653341 5.020030
vn 0.470049 0.437849 0.766383
vt 0.169082 0.306763
v -2.898314 29.653341 5.020029
vn -0.455029 0.522572 0.721018
vt 0.169082 0.306763
f 27/27/27 25/25/25 26/26/26
f 25/25/25 27/27/27 32/32/32
f 30/30/30 28/28/28 29/29/29
f 28/28/28 30/30/30 31/31/31
f 35/35/35 33/33/33 34/34/34
f 33/33/33 35/35/35 36/36/36
f 39/39/39 37/37/37 38/38/38
f 37/37/37 39/39/39 46/46/46
f 42/42/42 40/40/40 41/41/41
f 40/40/40 42/42/42 48/48/48
f 45/45/45 43/43/43 44/44/44
f 43/43/43 45/45/45 47/47/47
usemtl cork_01
v -5.796628 29.653341 0.000001
vn -0.851935 0.522572 -0.033557
vt 1.590139 1.201424
v -2.898314 29.653341 5.020029
vn -0.455029 0.522572 0.721018
vt 1.893472 1.201425
v -2.394395 35.588383 4.147218
vn -0.464321 0.666289 0.583494
vt 1.893472 0.394016
v -2.898314 29.653341 -5.020026
vn -0.396906 0.522572 -0.754575
vt 1.286806 1.201424
v -4.788791 35.588383 0.000005
vn -0.737481 0.666289 -0.110366
vt 1.590139 0.394015
v -2.394396 35.588387 -4.147210
vn -0.273160 0.666289 -0.693860
vt 1.286806 0.394015
v 2.394396 35.588387 -4.147210
vn 0.464321 0.666289 -0.583493
vt 0.983472 0.394015
v 2.898315 29.653341 -5.020024
vn 0.455028 0.522572 -0.721018
vt 0.983472 1.201424
v 4.788791 35.588383 0.000005
vn 0.737481 0.666289 0.110368
vt 0.680139 0.394015
v 0.000000 36.968842 0.000005
vn 0.000000 1.000000 0.000001
vt 0.548067 -0.013679
v 2.394395 35.588379 4.147219
vn 0.273160 0.666288 0.693861
vt 0.376806 0.394015
v 2.898312 29.653341 5.020030
vn 0.470049 0.437849 0.766383
vt 2.196805 1.201424
v 2.394395 35.588379 4.147219
vn 0.273160 0.666288 0.693861
vt 2.196805 0.394015
v 5.796628 29.653341 0.000003
vn 0.851935 0.522572 0.033557
vt 0.680139 1.201424
v 2.898312 29.653341 5.020030
vn 0.470049 0.437849 0.766383
vt 0.376806 1.201424
v 0.000000 36.968842 0.000005
vn 0.000000 1.000000 0.000001
vt 0.814560 0.007239
v 0.000000 36.968842 0.000005
vn 0.000000 1.000000 0.000001
vt 2.056368 0.002789
v 0.000000 36.968842 0.000005
vn 0.000000 1.000000 0.000001
vt 1.737957 -0.017240
v 0.000000 36.968842 0.000005
vn 0.000000 1.000000 0.000001
vt 1.429028 -0.022135
v 0.000000 36.968842 0.000005
vn 0.000000 1.000000 0.000001
vt 1.125138 -0.011632
f 57/57/57 58/58/58 59/59/59
f 57/57/57 55/55/55 64/64/64
f 55/55/55 54/54/54 68/68/68
f 54/54/54 53/53/53 67/67/67
f 60/60/60 61/61/61 50/50/50
f 51/51/51 50/50/50 61/61/61
f 50/50/50 51/51/51 49/49/49
f 53/53/53 49/49/49 51/51/51
f 49/49/49 53/53/53 52/52/52
f 54/54/54 52/52/52 53/53/53
f 52/52/52 54/54/54 56/56/56
f 55/55/55 56/56/56 54/54/54
f 56/56/56 55/55/55 62/62/62
f 57/57/57 62/62/62 55/55/55
f 62/62/62 57/57/57 63/63/63
f 59/59/59 63/63/63 57/57/57
f 65/65/65 51/51/51 61/61/61
f 66/66/66 53/53/53 51/51/51
