mtllib INST_SWORDLIGHT_BARSTOOL.mtl
g Object01
usemtl chair_seat
v 23.014303 3.645112 -49.902687
vn 0.000000 0.000000 -1.000000
vt 0.504086 0.898381
v 20.761505 -10.578514 -49.902687
vn 0.000000 0.000000 -1.000000
vt 0.260649 0.832593
v 10.578517 -20.761505 -49.902687
vn 0.000000 0.000000 -1.000000
vt 0.109863 0.636086
v -3.645108 -23.014307 -49.902687
vn 0.000000 0.000000 -1.000000
vt 0.109324 0.383917
v -16.476423 -16.476427 -49.902687
vn 0.000000 0.000000 -1.000000
vt 0.259236 0.172407
v -23.014309 -3.645111 -49.902687
vn 0.000000 0.000000 -1.000000
vt 0.502339 0.082345
v -20.761505 10.578514 -49.902687
vn 0.000000 0.000000 -1.000000
vt 0.745776 0.148133
v -10.578518 20.761505 -49.902687
vn 0.000000 0.000000 -1.000000
vt 0.896562 0.344641
v 3.645108 23.014305 -49.902687
vn 0.000000 0.000000 -1.000000
vt 0.897101 0.596809
v 16.476421 16.476423 -49.902687
vn 0.000000 0.000000 -1.000000
vt 0.747189 0.808319
v -20.761505 10.578514 -49.902687
vn -0.909380 0.345779 0.231224
vt 0.793900 0.080234
v -23.014309 -3.645111 -49.902687
vn -0.938948 -0.254779 0.231224
vt 0.502166 0.001395
v -21.508698 -3.406646 -43.525990
vn -0.619240 -0.030487 0.784609
vt 0.502339 0.082345
v -16.476423 -16.476427 -49.902687
vn -0.609869 -0.758021 0.231224
vt 0.210831 0.109324
v -3.645108 -23.014307 -49.902687
vn -0.047841 -0.971724 0.231224
vt 0.031176 0.362798
v -3.406642 -21.508696 -43.525990
vn -0.162360 -0.598354 0.784609
vt 0.109324 0.383917
v 3.406642 21.508696 -43.525990
vn 0.162360 0.598354 0.784609
vt 0.897101 0.596809
v -19.403275 9.886461 -43.525990
vn -0.518896 0.339315 0.784610
vt 0.745776 0.148133
v 21.508694 3.406646 -43.525990
vn 0.619240 0.030487 0.784609
vt 0.504086 0.898381
v -15.398527 -15.398529 -43.525990
vn -0.483056 -0.388645 0.784610
vt 0.259236 0.172407
v 9.886464 -19.403275 -43.525990
vn 0.220351 -0.579511 0.784610
vt 0.109863 0.636086
v 19.403275 -9.886460 -43.525990
vn 0.518896 -0.339315 0.784610
vt 0.260649 0.832593
v -9.886466 19.403275 -43.525990
vn -0.220351 0.579511 0.784610
vt 0.896562 0.344641
v 15.398525 15.398525 -43.525990
vn 0.483056 0.388645 0.784609
vt 0.747189 0.808319
v 23.014303 3.645112 -49.902687
vn 0.938948 0.254780 0.231224
vt 0.504259 0.979332
v 16.476421 16.476423 -49.902687
vn 0.609869 0.758021 0.231224
vt 0.795594 0.871402
v 20.761505 -10.578514 -49.902687
vn 0.909380 -0.345779 0.231224
vt 0.212524 0.900492
v 10.578517 -20.761505 -49.902687
vn 0.532461 -0.814261 0.231224
vt 0.031823 0.664997
v -10.578518 20.761505 -49.902687
vn -0.532461 0.814261 0.231224
vt 0.974602 0.315729
v 3.645108 23.014305 -49.902687
vn 0.047841 0.971724 0.231224
vt 0.975249 0.617928
f 3/3/3 1/1/1 2/2/2
f 1/1/1 3/3/3 5/5/5
f 4/4/4 5/5/5 3/3/3
f 1/1/1 5/5/5 7/7/7
f 6/6/6 7/7/7 5/5/5
f 9/9/9 7/7/7 8/8/8
f 7/7/7 9/9/9 1/1/1
f 10/10/10 1/1/1 9/9/9
f 28/28/28 21/21/21 15/15/15
f 21/21/21 28/28/28 22/22/22
f 27/27/27 22/22/22 28/28/28
f 22/22/22 27/27/27 19/19/19
f 25/25/25 19/19/19 27/27/27
f 19/19/19 25/25/25 24/24/24
f 26/26/26 24/24/24 25/25/25
f 24/24/24 26/26/26 17/17/17
f 30/30/30 17/17/17 26/26/26
f 17/17/17 30/30/30 23/23/23
f 29/29/29 23/23/23 30/30/30
f 23/23/23 29/29/29 18/18/18
f 11/11/11 18/18/18 29/29/29
f 18/18/18 11/11/11 13/13/13
f 12/12/12 13/13/13 11/11/11
f 13/13/13 12/12/12 20/20/20
f 14/14/14 20/20/20 12/12/12
f 20/20/20 14/14/14 16/16/16
f 21/21/21 22/22/22 19/19/19
f 24/24/24 17/17/17 19/19/19
f 18/18/18 13/13/13 20/20/20
f 18/18/18 17/17/17 23/23/23
f 17/17/17 18/18/18 19/19/19
f 20/20/20 19/19/19 18/18/18
f 19/19/19 20/20/20 21/21/21
f 16/16/16 21/21/21 20/20/20
f 21/21/21 16/16/16 15/15/15
f 14/14/14 15/15/15 16/16/16
usemtl Bed_Wood
v -16.799807 -12.702386 -94.466179
vn -1.000000 0.000001 0.000000
vt 0.000500 0.982801
v -16.799807 -12.702387 -89.986923
vn -1.000000 0.000001 0.000000
vt 0.478674 0.981428
v -16.799791 12.785306 -89.986862
vn -1.000000 0.000001 0.000000
vt 0.478674 0.012620
v -16.799791 12.785307 -94.466164
vn -1.000000 0.000001 0.000000
vt 0.000500 0.010047
v -16.799807 -12.702387 -89.986923
vn -0.000002 -0.000002 1.000000
vt 0.499275 1.000000
v -12.088258 -12.702386 -89.986908
vn -0.000002 -0.000002 1.000000
vt 1.000000 1.000000
v -12.088241 12.785301 -89.986847
vn -0.000002 -0.000002 1.000000
vt 1.000000 0.000000
v -16.799791 12.785306 -89.986862
vn -0.000002 -0.000002 1.000000
vt 0.499275 0.000000
v -12.088255 -12.702387 -94.466164
vn 1.000000 0.000000 0.000002
vt 0.000500 0.982801
v -12.088237 12.785304 -94.466148
vn 1.000000 -0.000001 0.000003
vt 0.000500 0.010047
v -12.088249 12.785301 -89.986870
vn 1.000000 0.000000 0.000002
vt 0.478674 0.012620
v -12.088258 -12.702386 -89.986908
vn 1.000000 0.000000 0.000001
vt 0.478674 0.981428
v -10.392323 5.027492 -46.916431
vn -0.707498 -0.706617 -0.011814
vt 0.000500 0.982801
v -14.950687 9.585855 -46.128315
vn -0.708065 -0.706051 -0.011649
vt 0.478674 0.981428
v -20.296339 16.155495 -119.387863
vn -0.707498 -0.706617 -0.011814
vt 0.478674 0.012620
v -16.595203 12.454360 -119.309845
vn -0.706930 -0.707182 -0.011978
vt 0.000500 0.010047
v -14.950687 9.585855 -46.128315
vn -0.702478 0.702475 0.114254
vt 0.499275 1.000000
v -9.789406 14.747155 -46.128315
vn -0.702478 0.702475 0.114254
vt 1.000000 1.000000
v -16.346785 20.105070 -119.387856
vn -0.702478 0.702475 0.114254
vt 1.000000 0.000000
v 16.168917 12.785300 -89.986870
vn 1.000000 0.000000 0.000002
vt 0.478674 0.012620
v 16.168911 -12.702387 -89.986908
vn 1.000000 0.000000 0.000001
vt 0.478674 0.981428
v 16.168915 -12.702386 -94.466164
vn 1.000000 0.000000 0.000002
vt 0.000500 0.982801
v -20.296339 16.155495 -119.387863
vn -0.702478 0.702474 0.114254
vt 0.499275 0.000000
v -16.595203 12.454360 -119.309845
vn 0.700924 -0.700921 -0.131965
vt 1.000000 0.000000
v -12.645649 16.403933 -119.309845
vn 0.700924 -0.700921 -0.131965
vt 0.499275 0.000000
v -5.231042 10.188791 -46.916428
vn 0.700924 -0.700921 -0.131965
vt 0.499275 1.000000
v -5.231039 10.188794 -46.916428
vn 0.706626 0.707492 -0.011577
vt 0.000500 0.982801
v -12.645644 16.403934 -119.309837
vn 0.707180 0.706936 -0.011738
vt 0.000500 0.010047
v -16.346773 20.105042 -119.387863
vn 0.706626 0.707492 -0.011577
vt 0.478674 0.012620
v -9.789406 14.747155 -46.128315
vn 0.706073 0.708047 -0.011416
vt 0.478674 0.981428
v -12.376139 14.999795 -75.075676
vn 0.000001 1.000000 0.000000
vt 0.000500 0.982801
v -12.376139 14.999795 -70.596420
vn 0.000001 1.000000 0.000000
vt 0.478674 0.981428
v 13.111554 14.999775 -70.596359
vn 0.000001 1.000000 0.000000
vt 0.478674 0.012620
v 13.111554 14.999774 -75.075661
vn 0.000001 1.000000 0.000000
vt 0.000500 0.010047
v -12.376139 14.999795 -70.596420
vn -0.000002 0.000003 1.000000
vt 0.499275 1.000000
v -12.376140 10.288244 -70.596413
vn -0.000002 0.000002 1.000000
vt 1.000000 1.000000
v 13.111548 10.288224 -70.596344
vn -0.000002 0.000003 1.000000
vt 1.000000 0.000000
v 13.111554 14.999775 -70.596359
vn -0.000002 0.000003 1.000000
vt 0.499275 0.000000
v -12.376140 10.288241 -75.075661
vn -0.000001 -1.000000 0.000002
vt 0.000500 0.982801
v 13.111550 10.288220 -75.075653
vn -0.000001 -1.000000 0.000003
vt 0.000500 0.010047
v 13.111548 10.288233 -70.596375
vn -0.000001 -1.000000 0.000002
vt 0.478674 0.012620
v -12.376140 10.288244 -70.596413
vn 0.000000 -1.000000 0.000001
vt 0.478674 0.981428
v 16.168930 12.785305 -94.466148
vn 1.000000 -0.000001 0.000003
vt 0.000500 0.010047
v 16.168926 12.785300 -89.986847
vn -0.000002 -0.000002 1.000000
vt 1.000000 0.000000
v 11.457376 12.785307 -89.986862
vn -0.000002 -0.000002 1.000000
vt 0.499275 0.000000
v 11.457359 -12.702386 -89.986923
vn -0.000002 -0.000002 1.000000
vt 0.499275 1.000000
v 16.168911 -12.702387 -89.986908
vn -0.000002 -0.000002 1.000000
vt 1.000000 1.000000
v 11.457376 12.785307 -89.986862
vn -1.000000 0.000001 0.000000
vt 0.478674 0.012620
v 11.457377 12.785306 -94.466164
vn -1.000000 0.000001 0.000000
vt 0.000500 0.010047
v 11.457359 -12.702387 -94.466179
vn -1.000000 0.000001 0.000000
vt 0.000500 0.982801
v 11.457359 -12.702386 -89.986923
vn -1.000000 0.000001 0.000000
vt 0.478674 0.981428
v -10.392323 5.027492 -46.916431
vn 0.700924 -0.700921 -0.131965
vt 1.000000 1.000000
v -5.027493 -10.392323 -46.916431
vn 0.706617 -0.707498 -0.011814
vt 0.000500 0.982801
v -9.585857 -14.950686 -46.128315
vn 0.706051 -0.708065 -0.011649
vt 0.478674 0.981428
v -16.155497 -20.296337 -119.387871
vn 0.706617 -0.707498 -0.011814
vt 0.478674 0.012620
v 16.346785 -20.105036 -119.387863
vn -0.706626 -0.707493 -0.011577
vt 0.478674 0.012620
v 9.789412 -14.747149 -46.128315
vn -0.706072 -0.708048 -0.011416
vt 0.478674 0.981428
v 5.231042 -10.188793 -46.916428
vn -0.706626 -0.707493 -0.011577
vt 0.000500 0.982801
v 12.645653 -16.403927 -119.309845
vn -0.707179 -0.706937 -0.011738
vt 0.000500 0.010047
v 16.595209 -12.454350 -119.309845
vn -0.700925 0.700921 -0.131965
vt 1.000000 0.000000
v 12.645658 -16.403925 -119.309845
vn -0.700925 0.700921 -0.131965
vt 0.499275 0.000000
v 5.231046 -10.188790 -46.916428
vn -0.700925 0.700921 -0.131965
vt 0.499275 1.000000
v 10.392324 -5.027486 -46.916431
vn -0.700924 0.700921 -0.131965
vt 1.000000 1.000000
v 16.346794 -20.105062 -119.387863
vn 0.702478 -0.702474 0.114254
vt 1.000000 0.000000
v 20.296349 -16.155483 -119.387871
vn 0.702479 -0.702474 0.114254
vt 0.499275 0.000000
v 14.950692 -9.585846 -46.128315
vn 0.702478 -0.702474 0.114254
vt 0.499275 1.000000
v 9.789412 -14.747149 -46.128315
vn 0.702478 -0.702475 0.114254
vt 1.000000 1.000000
v 20.296349 -16.155483 -119.387871
vn 0.707497 0.706617 -0.011814
vt 0.478674 0.012620
v 16.595209 -12.454350 -119.309845
vn 0.706929 0.707183 -0.011978
vt 0.000500 0.010047
v 10.392324 -5.027486 -46.916431
vn 0.707497 0.706617 -0.011814
vt 0.000500 0.982801
v 14.950692 -9.585846 -46.128315
vn 0.708065 0.706052 -0.011649
vt 0.478674 0.981428
v 13.111547 -15.196510 -70.596375
vn -0.000001 -1.000000 0.000002
vt 0.478674 0.012620
v -12.376141 -15.196499 -70.596413
vn 0.000000 -1.000000 0.000001
vt 0.478674 0.981428
v -12.376141 -15.196502 -75.075661
vn -0.000001 -1.000000 0.000002
vt 0.000500 0.982801
v 13.111549 -15.196523 -75.075653
vn -0.000001 -1.000000 0.000003
vt 0.000500 0.010047
v 13.111547 -15.196519 -70.596344
vn -0.000002 0.000003 1.000000
vt 1.000000 0.000000
v 13.111554 -10.484968 -70.596359
vn -0.000002 0.000003 1.000000
vt 0.499275 0.000000
v -12.376139 -10.484948 -70.596420
vn -0.000002 0.000003 1.000000
vt 0.499275 1.000000
v -12.376141 -15.196499 -70.596413
vn -0.000002 0.000002 1.000000
vt 1.000000 1.000000
v 13.111554 -10.484968 -70.596359
vn 0.000001 1.000000 0.000000
vt 0.478674 0.012620
v 13.111554 -10.484969 -75.075661
vn 0.000001 1.000000 0.000000
vt 0.000500 0.010047
v -12.376139 -10.484948 -75.075676
vn 0.000001 1.000000 0.000000
vt 0.000500 0.982801
v -12.376139 -10.484948 -70.596420
vn 0.000001 1.000000 0.000000
vt 0.478674 0.981428
v -20.105042 -16.346771 -119.387863
vn -0.707492 0.706626 -0.011577
vt 0.478674 0.012620
v -14.747156 -9.789406 -46.128315
vn -0.708047 0.706073 -0.011416
vt 0.478674 0.981428
v -10.188797 -5.231038 -46.916428
vn -0.707492 0.706626 -0.011577
vt 0.000500 0.982801
v -16.403934 -12.645642 -119.309845
vn -0.706936 0.707180 -0.011738
vt 0.000500 0.010047
v -12.454361 -16.595201 -119.309845
vn 0.700921 0.700924 -0.131965
vt 1.000000 0.000000
v -16.403933 -12.645647 -119.309845
vn 0.700921 0.700924 -0.131965
vt 0.499275 0.000000
v -10.188794 -5.231041 -46.916428
vn 0.700921 0.700924 -0.131965
vt 0.499275 1.000000
v -5.027493 -10.392323 -46.916431
vn 0.700921 0.700924 -0.131965
vt 1.000000 1.000000
v -20.105070 -16.346783 -119.387863
vn -0.702475 -0.702478 0.114254
vt 1.000000 0.000000
v -16.155497 -20.296337 -119.387871
vn -0.702474 -0.702478 0.114254
vt 0.499275 0.000000
v -9.585857 -14.950686 -46.128315
vn -0.702475 -0.702478 0.114254
vt 0.499275 1.000000
v -14.747156 -9.789406 -46.128315
vn -0.702475 -0.702478 0.114254
vt 1.000000 1.000000
v -12.454361 -16.595201 -119.309845
vn 0.707182 -0.706930 -0.011978
vt 0.000500 0.010047
v 5.027487 10.392324 -46.916431
vn -0.706617 0.707497 -0.011814
vt 0.000500 0.982801
v 9.585849 14.950688 -46.128315
vn -0.706051 0.708065 -0.011649
vt 0.478674 0.981428
v 16.155487 20.296341 -119.387863
vn -0.706617 0.707497 -0.011814
vt 0.478674 0.012620
v 12.454352 16.595205 -119.309845
vn -0.707183 0.706930 -0.011978
vt 0.000500 0.010047
v 9.585849 14.950688 -46.128315
vn 0.702474 0.702478 0.114254
vt 0.499275 1.000000
v 14.747151 9.789410 -46.128315
vn 0.702475 0.702478 0.114254
vt 1.000000 1.000000
v 20.105062 16.346790 -119.387856
vn 0.702474 0.702478 0.114254
vt 1.000000 0.000000
v 16.155487 20.296341 -119.387863
vn 0.702474 0.702478 0.114254
vt 0.499275 0.000000
v 10.188789 5.231043 -46.916428
vn -0.700921 -0.700924 -0.131965
vt 0.499275 1.000000
v 5.027487 10.392324 -46.916431
vn -0.700921 -0.700924 -0.131965
vt 1.000000 1.000000
v 12.454352 16.595205 -119.309845
vn -0.700921 -0.700924 -0.131965
vt 1.000000 0.000000
v 16.403927 12.645653 -119.309845
vn -0.700921 -0.700925 -0.131965
vt 0.499275 0.000000
v 10.188792 5.231040 -46.916428
vn 0.707492 -0.706626 -0.011577
vt 0.000500 0.982801
v 16.403929 12.645648 -119.309837
vn 0.706937 -0.707179 -0.011738
vt 0.000500 0.010047
v 20.105036 16.346779 -119.387863
vn 0.707492 -0.706626 -0.011577
vt 0.478674 0.012620
v 14.747151 9.789410 -46.128315
vn 0.708048 -0.706072 -0.011416
vt 0.478674 0.981428
f 33/33/33 31/31/31 32/32/32
f 31/31/31 33/33/33 34/34/34
f 37/37/37 35/35/35 36/36/36
f 35/35/35 37/37/37 38/38/38
f 41/41/41 39/39/39 40/40/40
f 39/39/39 41/41/41 42/42/42
f 45/45/45 43/43/43 44/44/44
f 43/43/43 45/45/45 46/46/46
f 49/49/49 47/47/47 48/48/48
f 47/47/47 49/49/49 53/53/53
f 52/52/52 50/50/50 51/51/51
f 50/50/50 52/52/52 73/73/73
f 56/56/56 54/54/54 55/55/55
f 54/54/54 56/56/56 82/82/82
f 59/59/59 57/57/57 58/58/58
f 57/57/57 59/59/59 60/60/60
f 63/63/63 61/61/61 62/62/62
f 61/61/61 63/63/63 64/64/64
f 67/67/67 65/65/65 66/66/66
f 65/65/65 67/67/67 68/68/68
f 71/71/71 69/69/69 70/70/70
f 69/69/69 71/71/71 72/72/72
f 76/76/76 74/74/74 75/75/75
f 74/74/74 76/76/76 77/77/77
f 80/80/80 78/78/78 79/79/79
f 78/78/78 80/80/80 81/81/81
f 85/85/85 83/83/83 84/84/84
f 83/83/83 85/85/85 126/126/126
f 88/88/88 86/86/86 87/87/87
f 86/86/86 88/88/88 89/89/89
f 92/92/92 90/90/90 91/91/91
f 90/90/90 92/92/92 93/93/93
f 96/96/96 94/94/94 95/95/95
f 94/94/94 96/96/96 97/97/97
f 100/100/100 98/98/98 99/99/99
f 98/98/98 100/100/100 101/101/101
f 104/104/104 102/102/102 103/103/103
f 102/102/102 104/104/104 105/105/105
f 108/108/108 106/106/106 107/107/107
f 106/106/106 108/108/108 109/109/109
f 112/112/112 110/110/110 111/111/111
f 110/110/110 112/112/112 113/113/113
f 116/116/116 114/114/114 115/115/115
f 114/114/114 116/116/116 117/117/117
f 120/120/120 118/118/118 119/119/119
f 118/118/118 120/120/120 121/121/121
f 124/124/124 122/122/122 123/123/123
f 122/122/122 124/124/124 125/125/125
f 129/129/129 127/127/127 128/128/128
f 127/127/127 129/129/129 130/130/130
f 133/133/133 131/131/131 132/132/132
f 131/131/131 133/133/133 134/134/134
f 137/137/137 135/135/135 136/136/136
f 135/135/135 137/137/137 138/138/138
f 141/141/141 139/139/139 140/140/140
f 139/139/139 141/141/141 142/142/142
