mtllib INST_SWORDLIGHT_PRESSPLATE.mtl
g ssPlate_Lod1_01
usemtl Pressplate
v 49.999996 -4.590432 -50.000004
vn 0.666667 0.666667 -0.333333
vt 0.000000 1.000000
v -50.000004 -4.590432 -49.999996
vn -0.408248 0.408248 -0.816497
vt 1.000000 1.000000
v -49.999996 -4.590436 50.000004
vn -0.666667 0.666667 0.333333
vt 1.000000 0.000000
v 50.000004 -4.590436 49.999996
vn 0.408248 0.408248 0.816497
vt 0.000000 0.000000
f 3/3/3 1/1/1 2/2/2
f 1/1/1 3/3/3 4/4/4
usemtl PressplateRim
v 49.999996 -9.590432 -50.000004
vn 0.447214 0.000000 -0.894427
vt 0.000000 0.048309
v -50.000004 -9.590432 -49.999996
vn -0.894427 0.000000 -0.447214
vt 1.000000 0.048309
v -50.000004 -4.590432 -49.999996
vn -0.408248 0.408248 -0.816497
vt 1.000000 0.000000
v 49.999996 -4.590432 -50.000004
vn 0.666667 0.666667 -0.333333
vt 0.000000 0.000000
v -50.000004 -9.590432 -49.999996
vn -0.894427 0.000000 -0.447214
vt 0.000000 0.048309
v -49.999996 -9.590436 50.000004
vn -0.447214 0.000000 0.894427
vt 1.000000 0.048309
v -49.999996 -4.590436 50.000004
vn -0.666667 0.666667 0.333333
vt 1.000000 0.000000
v -50.000004 -4.590432 -49.999996
vn -0.408248 0.408248 -0.816497
vt 0.000000 0.000000
v -49.999996 -9.590436 50.000004
vn -0.447214 0.000000 0.894427
vt 0.000000 0.048309
v 50.000004 -9.590436 49.999996
vn 0.894427 0.000000 0.447214
vt 1.000000 0.048309
v 50.000004 -4.590436 49.999996
vn 0.408248 0.408248 0.816497
vt 1.000000 0.000000
v -49.999996 -4.590436 50.000004
vn -0.666667 0.666667 0.333333
vt 0.000000 0.000000
v 50.000004 -9.590436 49.999996
vn 0.894427 0.000000 0.447214
vt 0.000000 0.048309
v 49.999996 -9.590432 -50.000004
vn 0.447214 0.000000 -0.894427
vt 1.000000 0.048309
v 49.999996 -4.590432 -50.000004
vn 0.666667 0.666667 -0.333333
vt 1.000000 0.000000
v 50.000004 -4.590436 49.999996
vn 0.408248 0.408248 0.816497
vt 0.000000 0.000000
f 7/7/7 5/5/5 6/6/6
f 5/5/5 7/7/7 8/8/8
f 11/11/11 9/9/9 10/10/10
f 9/9/9 11/11/11 12/12/12
f 15/15/15 13/13/13 14/14/14
f 13/13/13 15/15/15 16/16/16
f 19/19/19 17/17/17 18/18/18
f 17/17/17 19/19/19 20/20/20
g ateCase_Lod1_01
usemtl PressplateRim
v -49.486282 5.154815 49.495495
vn 0.333333 0.666667 -0.666667
vt 0.950000 0.050000
v -49.486290 5.154820 -49.477074
vn 0.436436 0.872872 0.218218
vt 0.950000 0.950000
v -54.929771 5.154815 54.938988
vn -0.436436 0.872872 0.218218
vt 0.999501 0.000500
v -54.929779 5.154820 -54.920567
vn -0.333333 0.666667 -0.666667
vt 0.999500 0.999501
v 54.929775 5.154820 -54.920574
vn 0.534522 0.801784 -0.267261
vt 0.000499 0.999500
v 49.486282 5.154820 -49.477081
vn -0.267261 0.801784 0.534523
vt 0.050000 0.950000
v 54.929783 5.154815 54.938980
vn 0.267261 0.801784 0.534522
vt 0.000500 0.000499
v 49.486290 5.154815 49.495487
vn -0.534522 0.801784 -0.267261
vt 0.050000 0.050000
v -49.486282 -35.000004 49.495495
vn 0.894427 0.000000 -0.447214
vt 1.000000 0.120774
v -49.486290 -34.999996 -49.477074
vn 0.447214 0.000000 0.894427
vt 0.000000 0.120774
v -49.486290 5.154820 -49.477074
vn 0.436436 0.872872 0.218218
vt 0.000000 0.000001
v -49.486282 5.154815 49.495495
vn 0.333333 0.666667 -0.666667
vt 1.000000 0.000001
v -54.929779 -34.999996 -54.920567
vn -0.894427 0.000000 -0.447214
vt 1.000000 0.120774
v -54.929771 -35.000004 54.938988
vn -0.447214 0.000000 0.894427
vt 0.000000 0.120774
v -54.929771 5.154815 54.938988
vn -0.436436 0.872872 0.218218
vt 0.000000 0.000001
v -54.929779 5.154820 -54.920567
vn -0.333333 0.666667 -0.666667
vt 1.000000 0.000001
v 54.929775 -34.999996 -54.920578
vn 0.447214 0.000000 -0.894427
vt 1.000000 0.120774
v -54.929779 -34.999996 -54.920567
vn -0.894427 0.000000 -0.447214
vt 0.000000 0.120774
v -54.929779 5.154820 -54.920567
vn -0.333333 0.666667 -0.666667
vt 0.000000 0.000001
v 54.929775 5.154820 -54.920574
vn 0.534522 0.801784 -0.267261
vt 1.000000 0.000001
v -49.486290 -34.999996 -49.477074
vn 0.447214 0.000000 0.894427
vt 1.000000 0.120774
v 49.486282 -34.999996 -49.477085
vn -0.894427 0.000000 0.447214
vt 0.000000 0.120774
v 49.486282 5.154820 -49.477081
vn -0.267261 0.801784 0.534523
vt 0.000000 0.000001
v -49.486290 5.154820 -49.477074
vn 0.436436 0.872872 0.218218
vt 1.000000 0.000001
v 54.929783 -35.000004 54.938976
vn 0.894427 0.000000 0.447214
vt 1.000000 0.120774
v 54.929775 -34.999996 -54.920578
vn 0.447214 0.000000 -0.894427
vt 0.000000 0.120774
v 54.929775 5.154820 -54.920574
vn 0.534522 0.801784 -0.267261
vt 0.000000 0.000001
v 54.929783 5.154815 54.938980
vn 0.267261 0.801784 0.534522
vt 1.000000 0.000001
v 49.486282 -34.999996 -49.477085
vn -0.894427 0.000000 0.447214
vt 1.000000 0.120774
v 49.486290 -35.000004 49.495483
vn -0.447214 0.000000 -0.894427
vt 0.000000 0.120774
v 49.486290 5.154815 49.495487
vn -0.534522 0.801784 -0.267261
vt 0.000000 0.000001
v 49.486282 5.154820 -49.477081
vn -0.267261 0.801784 0.534523
vt 1.000000 0.000001
v -54.929771 -35.000004 54.938988
vn -0.447214 0.000000 0.894427
vt 1.000000 0.120774
v 54.929783 -35.000004 54.938976
vn 0.894427 0.000000 0.447214
vt 0.000000 0.120774
v 49.486290 -35.000004 49.495483
vn -0.447214 0.000000 -0.894427
vt 1.000000 0.120774
v -49.486282 -35.000004 49.495495
vn 0.894427 0.000000 -0.447214
vt 0.000000 0.120774
v -49.486282 5.154815 49.495495
vn 0.333333 0.666667 -0.666667
vt 0.000000 0.000001
v 49.486290 5.154815 49.495487
vn -0.534522 0.801784 -0.267261
vt 1.000000 0.000001
f 31/31/31 29/29/29 30/30/30
f 29/29/29 31/31/31 32/32/32
f 24/24/24 22/22/22 25/25/25
f 26/26/26 25/25/25 22/22/22
f 25/25/25 26/26/26 27/27/27
f 28/28/28 27/27/27 26/26/26
f 27/27/27 28/28/28 23/23/23
f 21/21/21 23/23/23 28/28/28
f 21/21/21 22/22/22 23/23/23
f 24/24/24 23/23/23 22/22/22
f 27/27/27 23/23/23 53/53/53
f 53/53/53 54/54/54 27/27/27
f 35/35/35 33/33/33 34/34/34
f 33/33/33 35/35/35 36/36/36
f 39/39/39 37/37/37 38/38/38
f 37/37/37 39/39/39 40/40/40
f 43/43/43 41/41/41 42/42/42
f 41/41/41 43/43/43 44/44/44
f 47/47/47 45/45/45 46/46/46
f 45/45/45 47/47/47 48/48/48
f 51/51/51 49/49/49 50/50/50
f 49/49/49 51/51/51 52/52/52
f 57/57/57 55/55/55 56/56/56
f 55/55/55 57/57/57 58/58/58
