mtllib INST_SWORDLIGHT_FIREPLATB.mtl
g rePlatB_Lod1_01
usemtl BoardB
v -33.445068 -0.047914 50.748913
vn 0.333334 0.666666 0.666667
vt 0.228076 0.500000
v -33.445000 -0.047901 -57.266174
vn 0.816497 0.408248 -0.408248
vt 0.228076 0.000499
v -60.378971 -0.047865 -57.266193
vn -0.333332 0.666668 -0.666667
vt -0.004228 0.000499
v -60.379036 -0.047878 50.748894
vn -0.816496 0.408249 0.408248
vt -0.004227 0.500000
v -33.445076 -9.837037 50.748913
vn 0.666872 -0.666536 0.333184
vt 0.478076 0.500000
v -60.379044 -9.864352 50.748894
vn -0.407938 -0.408351 0.816600
vt 0.728076 0.500000
v -60.378979 -9.836988 -57.266209
vn -0.666461 -0.666797 -0.333484
vt 0.728076 0.000499
v -33.445011 -9.837025 -57.266182
vn 0.408249 -0.408248 -0.816497
vt 0.478077 0.000499
v -60.379036 -0.047878 50.748894
vn -0.816496 0.408249 0.408248
vt 0.995773 0.500000
v -60.378971 -0.047865 -57.266193
vn -0.333332 0.666668 -0.666667
vt 0.995772 0.000499
v -60.378971 -0.047865 -57.266193
vn -0.333332 0.666668 -0.666667
vt 0.999501 0.999500
v -33.445000 -0.047901 -57.266174
vn 0.816497 0.408248 -0.408248
vt 0.000507 0.999500
v -33.445011 -9.837025 -57.266182
vn 0.408249 -0.408248 -0.816497
vt 0.000507 0.000501
v -60.378979 -9.836988 -57.266209
vn -0.666461 -0.666797 -0.333484
vt 0.999501 0.000501
v 26.494913 -10.101879 9.946031
vn 0.666666 0.333332 0.666668
vt 0.228076 0.500000
v -253.163483 -10.101583 9.945867
vn -0.408248 0.816497 0.408248
vt 0.228076 0.000499
v -253.163528 -27.601574 9.945870
vn -0.666668 -0.333332 0.666667
vt -0.004228 0.000499
v 26.494886 -27.601887 9.946033
vn 0.408247 -0.816497 0.408249
vt -0.004227 0.500000
v 26.494959 -10.101878 -10.281208
vn 0.333335 0.666666 -0.666666
vt 0.478076 0.500000
v 26.494934 -27.601885 -10.281205
vn 0.816497 -0.408250 -0.408247
vt 0.728076 0.500000
v -253.163513 -27.601574 -10.281368
vn -0.333334 -0.666666 -0.666667
vt 0.728076 0.000499
v -253.163483 -10.101583 -10.281370
vn -0.816496 0.408250 -0.408249
vt 0.478077 0.000499
v 26.494886 -27.601887 9.946033
vn 0.408247 -0.816497 0.408249
vt 0.995773 0.500000
v -253.163528 -27.601574 9.945870
vn -0.666668 -0.333332 0.666667
vt 0.995772 0.000499
v -253.163528 -27.601574 9.945870
vn -0.666668 -0.333332 0.666667
vt 0.999501 0.999500
v -253.163483 -10.101583 9.945867
vn -0.408248 0.816497 0.408248
vt 0.000507 0.999500
v -253.163483 -10.101583 -10.281370
vn -0.816496 0.408250 -0.408249
vt 0.000507 0.000501
v -253.163513 -27.601574 -10.281368
vn -0.333334 -0.666666 -0.666667
vt 0.999501 0.000501
v 26.494934 -27.601885 -10.281205
vn 0.816497 -0.408250 -0.408247
vt 0.999501 0.999500
v 26.494959 -10.101878 -10.281208
vn 0.333335 0.666666 -0.666666
vt 0.000507 0.999500
v 26.494913 -10.101879 9.946031
vn 0.666666 0.333332 0.666668
vt 0.000507 0.000501
v 26.494886 -27.601887 9.946033
vn 0.408247 -0.816497 0.408249
vt 0.999501 0.000501
v -33.445068 -0.047914 50.748913
vn 0.333334 0.666666 0.666667
vt 0.999501 0.999500
v -60.379036 -0.047878 50.748894
vn -0.816496 0.408249 0.408248
vt 0.000507 0.999500
v -60.379044 -9.864352 50.748894
vn -0.407938 -0.408351 0.816600
vt 0.000507 0.000501
v -33.445076 -9.837037 50.748913
vn 0.666872 -0.666536 0.333184
vt 0.999501 0.000501
v -30.763010 -9.843110 50.748913
vn -0.333334 -0.666666 0.666667
vt 0.228076 0.500000
v -30.762943 -9.843143 -57.266174
vn -0.816497 -0.408248 -0.408249
vt 0.228076 0.000499
v -3.505241 -9.843180 -57.266155
vn 0.333333 -0.666668 -0.666666
vt -0.004228 0.000499
v -3.505307 -9.843139 50.748932
vn 0.816496 -0.408249 0.408249
vt -0.004227 0.500000
v -30.763006 -0.053987 50.748917
vn -0.666871 0.666537 0.333183
vt 0.478076 0.500000
v -3.505301 -0.026664 50.748928
vn 0.407941 0.408351 0.816599
vt 0.728076 0.500000
v -3.505228 -0.054056 -57.266167
vn 0.666463 0.666795 -0.333483
vt 0.728076 0.000499
v -30.762934 -0.054020 -57.266178
vn -0.408247 0.408248 -0.816497
vt 0.478077 0.000499
v -3.505307 -9.843139 50.748932
vn 0.816496 -0.408249 0.408249
vt 0.995773 0.500000
v -3.505241 -9.843180 -57.266155
vn 0.333333 -0.666668 -0.666666
vt 0.995772 0.000499
v -3.505241 -9.843180 -57.266155
vn 0.333333 -0.666668 -0.666666
vt 0.999501 0.999500
v -30.762943 -9.843143 -57.266174
vn -0.816497 -0.408248 -0.408249
vt 0.000507 0.999500
v -30.762934 -0.054020 -57.266178
vn -0.408247 0.408248 -0.816497
vt 0.000507 0.000501
v -3.505228 -0.054056 -57.266167
vn 0.666463 0.666795 -0.333483
vt 0.999501 0.000501
v -30.763010 -9.843110 50.748913
vn -0.333334 -0.666666 0.666667
vt 0.999501 0.999500
v -3.505307 -9.843139 50.748932
vn 0.816496 -0.408249 0.408249
vt 0.000507 0.999500
v -3.505301 -0.026664 50.748928
vn 0.407941 0.408351 0.816599
vt 0.000507 0.000501
v -30.763006 -0.053987 50.748917
vn -0.666871 0.666537 0.333183
vt 0.999501 0.000501
v -1.606157 -0.047961 -57.266254
vn -0.333332 0.666667 -0.666667
vt 0.228076 0.500000
v -1.606212 -0.047927 50.748833
vn -0.816496 0.408250 0.408248
vt 0.228076 0.000499
v 26.455658 -0.047963 50.748840
vn 0.333334 0.666667 0.666666
vt -0.004228 0.000499
v 26.455713 -0.047996 -57.266254
vn 0.816497 0.408247 -0.408248
vt -0.004227 0.500000
v -1.606167 -9.837084 -57.266254
vn -0.666867 -0.666540 -0.333186
vt 0.478076 0.500000
v 26.455696 -9.864471 -57.266247
vn 0.407951 -0.408350 -0.816594
vt 0.728076 0.500000
v 26.455643 -9.837088 50.748856
vn 0.666466 -0.666793 0.333481
vt 0.728076 0.000499
v -1.606229 -9.837050 50.748840
vn -0.408249 -0.408247 0.816497
vt 0.478077 0.000499
v 26.455713 -0.047996 -57.266254
vn 0.816497 0.408247 -0.408248
vt 0.995773 0.500000
v 26.455658 -0.047963 50.748840
vn 0.333334 0.666667 0.666666
vt 0.995772 0.000499
v 26.455658 -0.047963 50.748840
vn 0.333334 0.666667 0.666666
vt 0.999501 0.999500
v -1.606212 -0.047927 50.748833
vn -0.816496 0.408250 0.408248
vt 0.000507 0.999500
v -1.606229 -9.837050 50.748840
vn -0.408249 -0.408247 0.816497
vt 0.000507 0.000501
v 26.455643 -9.837088 50.748856
vn 0.666466 -0.666793 0.333481
vt 0.999501 0.000501
v -1.606157 -0.047961 -57.266254
vn -0.333332 0.666667 -0.666667
vt 0.999501 0.999500
v 26.455713 -0.047996 -57.266254
vn 0.816497 0.408247 -0.408248
vt 0.000507 0.999500
v 26.455696 -9.864471 -57.266247
vn 0.407951 -0.408350 -0.816594
vt 0.000507 0.000501
v -1.606167 -9.837084 -57.266254
vn -0.666867 -0.666540 -0.333186
vt 0.999501 0.000501
v 56.897133 -9.843267 -57.378990
vn 0.333333 -0.666667 -0.666666
vt 0.228076 0.500000
v 56.897041 -9.843280 50.636097
vn 0.816495 -0.408250 0.408249
vt 0.228076 0.000499
v 28.835167 -9.843244 50.636086
vn -0.333334 -0.666667 0.666666
vt -0.004228 0.000499
v 28.835255 -9.843231 -57.379009
vn -0.816497 -0.408247 -0.408249
vt -0.004227 0.500000
v 56.897148 -0.054144 -57.378990
vn 0.666867 0.666540 -0.333186
vt 0.478076 0.500000
v 28.835276 -0.026756 -57.379017
vn -0.407950 0.408349 -0.816595
vt 0.728076 0.500000
v 28.835184 -0.054120 50.636101
vn -0.666467 0.666793 0.333480
vt 0.728076 0.000499
v 56.897068 -0.054156 50.636105
vn 0.408249 0.408246 0.816497
vt 0.478077 0.000499
v 28.835255 -9.843231 -57.379009
vn -0.816497 -0.408247 -0.408249
vt 0.995773 0.500000
v 28.835167 -9.843244 50.636086
vn -0.333334 -0.666667 0.666666
vt 0.995772 0.000499
v 28.835167 -9.843244 50.636086
vn -0.333334 -0.666667 0.666666
vt 0.999501 0.999500
v 56.897041 -9.843280 50.636097
vn 0.816495 -0.408250 0.408249
vt 0.000507 0.999500
v 56.897068 -0.054156 50.636105
vn 0.408249 0.408246 0.816497
vt 0.000507 0.000501
v 28.835184 -0.054120 50.636101
vn -0.666467 0.666793 0.333480
vt 0.999501 0.000501
v 56.897133 -9.843267 -57.378990
vn 0.333333 -0.666667 -0.666666
vt 0.999501 0.999500
v 28.835255 -9.843231 -57.379009
vn -0.816497 -0.408247 -0.408249
vt 0.000507 0.999500
v 28.835276 -0.026756 -57.379017
vn -0.407950 0.408349 -0.816595
vt 0.000507 0.000501
v 56.897148 -0.054144 -57.378990
vn 0.666867 0.666540 -0.333186
vt 0.999501 0.000501
f 13/13/13 11/11/11 12/12/12
f 11/11/11 13/13/13 14/14/14
f 1/1/1 3/3/3 4/4/4
f 3/3/3 1/1/1 2/2/2
f 5/5/5 2/2/2 1/1/1
f 2/2/2 5/5/5 8/8/8
f 7/7/7 8/8/8 5/5/5
f 5/5/5 6/6/6 7/7/7
f 9/9/9 7/7/7 6/6/6
f 7/7/7 9/9/9 10/10/10
f 21/21/21 22/22/22 19/19/19
f 16/16/16 19/19/19 22/22/22
f 19/19/19 16/16/16 15/15/15
f 17/17/17 15/15/15 16/16/16
f 15/15/15 17/17/17 18/18/18
f 19/19/19 20/20/20 21/21/21
f 23/23/23 21/21/21 20/20/20
f 21/21/21 23/23/23 24/24/24
f 37/37/37 39/39/39 40/40/40
f 39/39/39 37/37/37 38/38/38
f 41/41/41 38/38/38 37/37/37
f 38/38/38 41/41/41 44/44/44
f 43/43/43 44/44/44 41/41/41
f 41/41/41 42/42/42 43/43/43
f 45/45/45 43/43/43 42/42/42
f 43/43/43 45/45/45 46/46/46
f 55/55/55 57/57/57 58/58/58
f 57/57/57 55/55/55 56/56/56
f 59/59/59 56/56/56 55/55/55
f 56/56/56 59/59/59 62/62/62
f 61/61/61 62/62/62 59/59/59
f 59/59/59 60/60/60 61/61/61
f 63/63/63 61/61/61 60/60/60
f 61/61/61 63/63/63 64/64/64
f 73/73/73 75/75/75 76/76/76
f 75/75/75 73/73/73 74/74/74
f 77/77/77 74/74/74 73/73/73
f 74/74/74 77/77/77 80/80/80
f 79/79/79 80/80/80 77/77/77
f 77/77/77 78/78/78 79/79/79
f 81/81/81 79/79/79 78/78/78
f 79/79/79 81/81/81 82/82/82
f 27/27/27 25/25/25 26/26/26
f 25/25/25 27/27/27 28/28/28
f 31/31/31 29/29/29 30/30/30
f 29/29/29 31/31/31 32/32/32
f 35/35/35 33/33/33 34/34/34
f 33/33/33 35/35/35 36/36/36
f 49/49/49 47/47/47 48/48/48
f 47/47/47 49/49/49 50/50/50
f 53/53/53 51/51/51 52/52/52
f 51/51/51 53/53/53 54/54/54
f 67/67/67 65/65/65 66/66/66
f 65/65/65 67/67/67 68/68/68
f 71/71/71 69/69/69 70/70/70
f 69/69/69 71/71/71 72/72/72
f 85/85/85 83/83/83 84/84/84
f 83/83/83 85/85/85 86/86/86
f 89/89/89 87/87/87 88/88/88
f 87/87/87 89/89/89 90/90/90
