mtllib INST_SWORDLIGHT_ELEVATRAY.mtl
g evATray_Lod1_01
usemtl TrayA
v -450.885010 8.486579 234.624344
vn 0.062713 0.552932 0.830863
vt 0.999900 0.201227
v -421.907532 -4.471251 64.086464
vn 0.169181 0.981948 0.084590
vt 0.926981 0.880805
v -450.885040 8.486588 35.108959
vn -0.830863 0.552932 0.062713
vt 0.999900 0.995619
v -421.907501 -4.471259 205.646805
vn 0.106072 0.971465 -0.212143
vt 0.926981 0.316041
v -432.745270 -11.241402 216.484589
vn -0.338156 -0.925777 0.169078
vt 0.454325 0.272598
v -450.885040 8.486588 35.108959
vn -0.830863 0.552932 0.062713
vt 0.499247 0.995619
v -432.745300 -11.241393 53.248711
vn -0.213447 -0.878751 -0.426893
vt 0.454325 0.924248
v -450.885010 8.486579 234.624344
vn 0.062713 0.552932 0.830863
vt 0.499247 0.201227
v -280.392273 -4.471253 64.086464
vn -0.106072 0.971465 0.212143
vt 0.571513 0.880805
v -251.414764 8.486588 35.108940
vn -0.062713 0.552932 -0.830863
vt 0.499247 0.995619
v -251.414764 8.486588 35.108940
vn -0.062713 0.552932 -0.830863
vt 0.000053 0.995619
v -269.554504 -11.241393 53.248699
vn 0.338156 -0.925777 -0.169078
vt 0.046122 0.924248
v -280.392273 -4.471261 205.646805
vn -0.169181 0.981948 -0.084590
vt 0.571513 0.316041
v -251.414734 8.486578 234.624329
vn 0.830863 0.552932 -0.062713
vt 0.499247 0.201227
v -251.414734 8.486578 234.624329
vn 0.830863 0.552932 -0.062713
vt 0.000053 0.201227
v -269.554474 -11.241402 216.484589
vn 0.213447 -0.878751 0.426893
vt 0.046122 0.272598
f 1/1/1 2/2/2 3/3/3
f 9/9/9 3/3/3 2/2/2
f 3/3/3 9/9/9 10/10/10
f 13/13/13 10/10/10 9/9/9
f 10/10/10 13/13/13 14/14/14
f 4/4/4 14/14/14 13/13/13
f 4/4/4 1/1/1 14/14/14
f 1/1/1 4/4/4 2/2/2
f 13/13/13 2/2/2 4/4/4
f 2/2/2 13/13/13 9/9/9
f 5/5/5 6/6/6 7/7/7
f 11/11/11 7/7/7 6/6/6
f 7/7/7 11/11/11 12/12/12
f 15/15/15 12/12/12 11/11/11
f 12/12/12 15/15/15 16/16/16
f 8/8/8 16/16/16 15/15/15
f 12/12/12 16/16/16 5/5/5
f 8/8/8 5/5/5 16/16/16
f 5/5/5 8/8/8 6/6/6
f 7/7/7 12/12/12 5/5/5
