mtllib SWORDLIGHT20_PS-AREA01_CORNERWEB05.mtl
g a01_Cornerweb05
usemtl CornerwebWeb
v 4363.968262 1230.736816 5898.689941
vn -0.751939 -0.651284 -0.102067
vt 0.253905 0.243228
v 4317.373535 1260.249512 5927.677734
vn -0.497002 -0.781830 -0.376472
vt 0.179873 0.161413
v 4320.978516 1268.294189 5842.240234
vn -0.639130 -0.769097 -0.001521
vt 0.344332 0.160491
v 4198.913574 1292.691650 5990.916992
vn -0.528352 -0.794881 -0.298344
vt 0.007746 0.002400
v 4208.850098 1305.037109 5902.859863
vn -0.357402 -0.902106 -0.241803
vt 0.180868 0.004718
v 4249.819336 1276.212402 5944.671387
vn -0.419818 -0.811250 -0.406972
vt 0.103546 0.085073
v 4208.761230 1340.309814 5717.283203
vn -0.448689 -0.893645 -0.008782
vt 0.533541 0.005501
v 4265.360352 1312.794434 5775.942383
vn -0.532756 -0.845717 -0.030555
vt 0.456331 0.073018
v 4213.349121 1327.964355 5813.342285
vn -0.343508 -0.923223 -0.172228
vt 0.363116 0.008109
v 4268.028809 1295.604614 5866.614746
vn -0.385318 -0.898486 -0.210365
vt 0.277625 0.080564
v 4386.466797 1181.421997 5947.279785
vn -0.711264 -0.552812 -0.434170
vt 0.179413 0.316666
v 4410.060059 1044.261841 6036.569824
vn -0.631493 -0.501413 -0.591440
vt 0.001747 0.484227
v 4343.128906 1130.566284 6029.122559
vn -0.555956 -0.550176 -0.623072
vt 0.006556 0.326455
v 4397.345703 1108.075195 5996.045410
vn -0.652505 -0.509668 -0.560781
vt 0.078184 0.408451
v 4269.672852 1226.878174 5997.638672
vn -0.521827 -0.670580 -0.527275
vt 0.008224 0.157986
v 4330.288086 1205.237793 5972.086426
vn -0.488873 -0.609882 -0.623736
vt 0.097466 0.242063
v 4561.229492 1216.641968 5649.113281
vn -0.032035 -0.711289 -0.702170
vt 0.762052 0.750574
v 4646.664551 1249.908936 5606.912598
vn -0.066087 -0.714740 -0.696261
vt 0.842377 0.826182
v 4606.657715 1163.751709 5696.455566
vn -0.083792 -0.673972 -0.733989
vt 0.693356 0.824863
v 4854.569824 1317.529053 5513.311035
vn -0.051010 -0.744884 -0.665241
vt 0.999501 0.994670
v 4811.100586 1242.105469 5598.709961
vn -0.088412 -0.689223 -0.719135
vt 0.852803 0.990182
v 4761.736328 1288.495483 5552.938965
vn -0.066856 -0.736215 -0.673437
vt 0.918485 0.902895
v 4706.011719 1024.519409 5784.043457
vn -0.242889 -0.609717 -0.754487
vt 0.532649 0.988331
v 4662.416992 1088.661255 5746.551270
vn -0.182922 -0.619905 -0.763058
vt 0.599712 0.916282
v 4750.048340 1123.355347 5701.020996
vn -0.167028 -0.595041 -0.786147
vt 0.682487 0.988378
v 4705.604492 1199.195923 5652.040527
vn -0.108749 -0.662878 -0.740788
vt 0.765006 0.905069
v 4531.765625 1253.075073 5610.568359
vn -0.000922 -0.721593 -0.692317
vt 0.829686 0.673912
v 4473.308594 1316.354736 5522.786133
vn 0.039301 -0.875569 -0.481492
vt 0.991559 0.497904
v 4596.515137 1316.659180 5529.206543
vn -0.009534 -0.846272 -0.532666
vt 0.991469 0.664256
v 4504.605957 1291.173096 5571.181152
vn 0.024559 -0.795329 -0.605680
vt 0.922291 0.576806
v 4741.153809 1317.224609 5520.937988
vn -0.049828 -0.784997 -0.617493
vt 0.988775 0.829999
v 4631.111328 1288.670288 5568.844727
vn -0.048252 -0.764871 -0.642374
vt 0.913324 0.743634
v 4341.505859 1236.190674 5698.044434
vn -0.646020 -0.759252 -0.078709
vt 0.557114 0.291422
v 4335.820313 1241.428833 5770.243652
vn -0.711001 -0.701633 0.046780
vt 0.447814 0.223477
v 4264.409180 1307.154541 5687.997559
vn -0.590998 -0.806592 0.011476
vt 0.583791 0.102848
v 4261.552246 1312.309692 5604.952148
vn -0.546421 -0.835706 -0.054944
vt 0.709956 0.141468
v 4433.416992 1158.332275 5736.866699
vn -0.428383 -0.811648 -0.397134
vt 0.505972 0.511595
v 4412.435547 1164.022705 5781.577637
vn -0.698663 -0.707120 -0.108866
vt 0.424565 0.427143
v 4351.868652 1238.035522 5640.062500
vn -0.391369 -0.853199 -0.344792
vt 0.658328 0.352046
v 4392.506348 1186.287476 5839.710449
vn -0.777669 -0.628618 0.008439
vt 0.337430 0.330837
v 4198.193359 1344.672119 5618.288574
vn -0.475716 -0.879419 -0.017779
vt 0.685513 0.005329
v 4261.836426 1316.718384 5530.550781
vn -0.285285 -0.922742 -0.259153
vt 0.834869 0.170408
v 4188.669434 1352.773682 5524.830566
vn -0.446333 -0.894265 -0.032812
vt 0.842303 0.005598
v 4182.414063 1357.135986 5439.125488
vn -0.238513 -0.947764 -0.211790
vt 0.991578 0.005330
v 4419.626465 1294.658936 5556.851074
vn 0.022992 -0.822182 -0.568761
vt 0.893316 0.438880
v 4466.936523 1240.213135 5619.642578
vn 0.020735 -0.736524 -0.676094
vt 0.770650 0.567092
v 4404.873047 1236.675781 5624.899902
vn -0.104997 -0.797763 -0.593759
vt 0.714074 0.456110
v 4336.797852 1308.254883 5538.041016
vn -0.057050 -0.862467 -0.502888
vt 0.860896 0.307417
v 4373.778320 1326.927612 5494.487305
vn -0.013265 -0.895478 -0.444909
vt 0.989723 0.332687
v 4511.977539 1189.424927 5676.104980
vn -0.016026 -0.717521 -0.696352
vt 0.676582 0.670192
v 4469.872559 1166.350098 5704.191895
vn -0.131328 -0.771110 -0.623010
vt 0.587968 0.588232
v 4272.897461 1346.563110 5460.180664
vn -0.038027 -0.914365 -0.403101
vt 0.990650 0.170619
v 4427.226074 1127.824951 5902.670898
vn -0.818176 -0.539926 -0.197658
vt 0.236123 0.427633
v 4465.045410 1088.371948 5863.000977
vn -0.750191 -0.621494 -0.225738
vt 0.290273 0.557814
v 4506.949219 988.850525 5950.078613
vn -0.717106 -0.576390 -0.391834
vt 0.133714 0.701986
v 4452.087891 1045.446777 5970.191406
vn -0.752038 -0.516265 -0.409767
vt 0.104598 0.543928
v 4500.505859 1064.756592 5830.608398
vn -0.521608 -0.724801 -0.450098
vt 0.344878 0.670348
v 4614.703125 814.186096 6014.687500
vn -0.589274 -0.601944 -0.538906
vt 0.006136 0.988149
v 4547.414551 885.632690 6020.755859
vn -0.684524 -0.566442 -0.458878
vt 0.005720 0.819625
v 4560.584961 939.902954 5932.630371
vn -0.550900 -0.640619 -0.534899
vt 0.158047 0.847807
v 4476.197266 967.911682 6024.148438
vn -0.703209 -0.519808 -0.485075
vt 0.004230 0.637682
v 4530.773926 1088.726563 5784.008301
vn -0.253863 -0.737171 -0.626205
vt 0.455774 0.720623
v 4565.270020 1125.046143 5737.441406
vn -0.130240 -0.693380 -0.708704
vt 0.582787 0.770663
v 4626.325684 1035.307617 5804.647949
vn -0.259173 -0.655533 -0.709300
vt 0.462861 0.892345
v 4588.671387 986.810730 5869.047363
vn -0.342037 -0.667611 -0.661291
vt 0.302287 0.867484
v 4674.897461 954.261536 5855.659180
vn -0.322519 -0.630990 -0.705573
vt 0.372657 0.986383
v 4639.489746 882.461853 5937.655273
vn -0.389996 -0.625512 -0.675750
vt 0.177319 0.985656
f 20/20/20 22/22/22 31/31/31
f 29/29/29 31/31/31 32/32/32
f 22/22/22 32/32/32 31/31/31
f 32/32/32 22/22/22 18/18/18
f 26/26/26 18/18/18 22/22/22
f 18/18/18 26/26/26 19/19/19
f 24/24/24 19/19/19 26/26/26
f 19/19/19 24/24/24 63/63/63
f 64/64/64 63/63/63 24/24/24
f 63/63/63 64/64/64 62/62/62
f 65/65/65 62/62/62 64/64/64
f 62/62/62 65/65/65 57/57/57
f 60/60/60 57/57/57 65/65/65
f 57/57/57 60/60/60 54/54/54
f 55/55/55 54/54/54 60/60/60
f 54/54/54 55/55/55 53/53/53
f 56/56/56 53/53/53 55/55/55
f 53/53/53 56/56/56 11/11/11
f 14/14/14 11/11/11 56/56/56
f 28/28/28 29/29/29 30/30/30
f 32/32/32 30/30/30 29/29/29
f 30/30/30 32/32/32 27/27/27
f 18/18/18 27/27/27 32/32/32
f 27/27/27 18/18/18 17/17/17
f 19/19/19 17/17/17 18/18/18
f 17/17/17 19/19/19 50/50/50
f 63/63/63 50/50/50 19/19/19
f 50/50/50 63/63/63 51/51/51
f 62/62/62 51/51/51 63/63/63
f 51/51/51 62/62/62 37/37/37
f 57/57/57 37/37/37 62/62/62
f 37/37/37 57/57/57 38/38/38
f 54/54/54 38/38/38 57/57/57
f 38/38/38 54/54/54 40/40/40
f 53/53/53 40/40/40 54/54/54
f 40/40/40 53/53/53 1/1/1
f 11/11/11 1/1/1 53/53/53
f 7/7/7 41/41/41 35/35/35
f 36/36/36 35/35/35 41/41/41
f 35/35/35 36/36/36 33/33/33
f 39/39/39 33/33/33 36/36/36
f 33/33/33 39/39/39 37/37/37
f 47/47/47 37/37/37 39/39/39
f 37/37/37 47/47/47 51/51/51
f 46/46/46 51/51/51 47/47/47
f 51/51/51 46/46/46 50/50/50
f 27/27/27 50/50/50 46/46/46
f 50/50/50 27/27/27 17/17/17
f 37/37/37 38/38/38 33/33/33
f 34/34/34 33/33/33 38/38/38
f 33/33/33 34/34/34 35/35/35
f 8/8/8 35/35/35 34/34/34
f 35/35/35 8/8/8 7/7/7
f 9/9/9 7/7/7 8/8/8
f 46/46/46 30/30/30 27/27/27
f 30/30/30 46/46/46 45/45/45
f 47/47/47 45/45/45 46/46/46
f 45/45/45 47/47/47 48/48/48
f 39/39/39 48/48/48 47/47/47
f 48/48/48 39/39/39 42/42/42
f 36/36/36 42/42/42 39/39/39
f 42/42/42 36/36/36 43/43/43
f 41/41/41 43/43/43 36/36/36
f 45/45/45 28/28/28 30/30/30
f 28/28/28 45/45/45 49/49/49
f 48/48/48 49/49/49 45/45/45
f 49/49/49 48/48/48 52/52/52
f 42/42/42 52/52/52 48/48/48
f 52/52/52 42/42/42 44/44/44
f 43/43/43 44/44/44 42/42/42
f 5/5/5 9/9/9 10/10/10
f 8/8/8 10/10/10 9/9/9
f 10/10/10 8/8/8 3/3/3
f 34/34/34 3/3/3 8/8/8
f 3/3/3 34/34/34 40/40/40
f 38/38/38 40/40/40 34/34/34
f 40/40/40 1/1/1 3/3/3
f 2/2/2 3/3/3 1/1/1
f 3/3/3 2/2/2 10/10/10
f 6/6/6 10/10/10 2/2/2
f 10/10/10 6/6/6 5/5/5
f 4/4/4 5/5/5 6/6/6
f 1/1/1 11/11/11 2/2/2
f 16/16/16 2/2/2 11/11/11
f 2/2/2 16/16/16 6/6/6
f 15/15/15 6/6/6 16/16/16
f 6/6/6 15/15/15 4/4/4
f 11/11/11 14/14/14 16/16/16
f 13/13/13 16/16/16 14/14/14
f 16/16/16 13/13/13 15/15/15
f 14/14/14 12/12/12 13/13/13
f 12/12/12 14/14/14 61/61/61
f 56/56/56 61/61/61 14/14/14
f 61/61/61 56/56/56 59/59/59
f 55/55/55 59/59/59 56/56/56
f 59/59/59 55/55/55 58/58/58
f 60/60/60 58/58/58 55/55/55
f 58/58/58 60/60/60 67/67/67
f 65/65/65 67/67/67 60/60/60
f 67/67/67 65/65/65 66/66/66
f 64/64/64 66/66/66 65/65/65
f 66/66/66 64/64/64 23/23/23
f 24/24/24 23/23/23 64/64/64
f 23/23/23 24/24/24 25/25/25
f 26/26/26 25/25/25 24/24/24
f 25/25/25 26/26/26 21/21/21
f 22/22/22 21/21/21 26/26/26
f 21/21/21 22/22/22 20/20/20
