mtllib SWORDLIGHT20_PS-AREA03_44.mtl
g PS-Area03_44
usemtl Roof
v -1100.000610 576.813782 -7600.000000
vn -0.135732 -0.688223 -0.712689
vt -0.000000 1.000000
v -1502.410767 623.153137 -7562.657715
vn -0.069474 -0.720255 -0.690222
vt 0.496250 1.000000
v -1578.587280 652.809143 -7760.040527
vn 0.015256 -0.997732 0.065553
vt 0.496250 0.503750
v -1162.615601 620.790344 -7815.501953
vn -0.050943 -0.987020 0.152305
vt 0.000000 0.503750
v -2023.222778 610.953430 -7690.044434
vn 0.075862 -0.996279 0.040900
vt 0.996667 0.499583
v -1950.596069 576.813782 -7572.223633
vn -0.077154 -0.745752 -0.661741
vt 1.000000 1.000000
v -2100.000732 567.664856 -7800.000000
vn 0.245814 -0.661081 0.708905
vt 1.000000 -0.000000
v -1694.224487 595.199524 -7937.990234
vn 0.172635 -0.664595 0.726987
vt 0.496250 -0.000000
v -1300.000610 567.664856 -8000.000000
vn -0.253994 -0.661345 0.705769
vt 0.000000 -0.000000
v -1950.596069 576.813782 -7572.223633
vn -0.077154 -0.745752 -0.661741
vt 0.996667 0.003333
v -2255.589111 584.014954 -7439.745117
vn -0.360306 -0.829100 -0.427520
vt 0.500417 0.003333
v -2352.167480 617.633606 -7582.836914
vn -0.039265 -0.984244 0.172403
vt 0.500417 0.499583
v -2660.814697 683.905090 -7474.927734
vn -0.247936 -0.893091 0.375389
vt -0.003333 0.499583
v -2520.959229 682.943176 -7276.527832
vn -0.628225 -0.769977 -0.111665
vt -0.003333 0.003333
v -2862.062500 567.664856 -7619.813477
vn -0.126083 -0.554643 0.822481
vt -0.003333 1.003333
v -2481.517822 553.936340 -7695.238281
vn 0.179438 -0.619532 0.764187
vt 0.500417 1.003333
v -2100.000732 567.664856 -7800.000000
vn 0.245814 -0.661081 0.708905
vt 0.996667 1.003333
f 13/13/13 11/11/11 14/14/14
f 11/11/11 13/13/13 12/12/12
f 15/15/15 12/12/12 13/13/13
f 12/12/12 15/15/15 16/16/16
f 12/12/12 10/10/10 11/11/11
f 10/10/10 12/12/12 5/5/5
f 16/16/16 5/5/5 12/12/12
f 5/5/5 16/16/16 17/17/17
f 4/4/4 1/1/1 3/3/3
f 2/2/2 3/3/3 1/1/1
f 3/3/3 2/2/2 5/5/5
f 6/6/6 5/5/5 2/2/2
f 9/9/9 4/4/4 8/8/8
f 3/3/3 8/8/8 4/4/4
f 8/8/8 3/3/3 7/7/7
f 5/5/5 7/7/7 3/3/3
