mtllib SWORDLIGHT20_PS-AREA01_21.mtl
g PS-Area01_21
usemtl FloorB2edge
v 6444.434570 356.686310 4346.545410
vn -0.253854 0.965433 0.059133
vt 0.748125 0.251123
v 6432.850098 364.806213 4181.632324
vn -0.247576 0.968149 0.037334
vt 1.000000 0.251123
v 6262.085449 339.919739 4163.036133
vn -0.101272 0.994858 0.001067
vt 1.000000 0.502245
v 5337.427246 261.515930 3795.771484
vn 0.068600 0.993057 0.095562
vt 0.999984 0.502183
v 5480.339355 263.824524 3756.510254
vn -0.032609 0.994955 0.094873
vt 0.748546 0.501259
v 5464.530762 300.193176 3571.669189
vn 0.028294 0.952236 0.304049
vt 0.748542 0.251059
v 5620.145020 276.111633 3737.906982
vn -0.089078 0.993019 0.077316
vt 0.497825 0.501273
v 5609.938965 306.149231 3560.087402
vn -0.056361 0.954883 0.291586
vt 0.497817 0.251079
v 5388.360840 288.484406 4194.276367
vn -0.284914 0.925698 -0.248813
vt 0.999984 0.996969
v 5518.339355 309.197327 4116.979004
vn -0.298347 0.870796 -0.390774
vt 0.748555 0.996971
v 5498.244629 265.782532 3949.596191
vn -0.128675 0.986021 -0.105853
vt 0.748551 0.749584
v 5359.806152 258.659729 3993.798340
vn 0.003268 0.997771 -0.066651
vt 0.999984 0.749576
v 5636.477539 326.993713 4086.552246
vn -0.158003 0.885324 -0.437307
vt 0.497126 0.996972
v 5630.192871 282.417786 3924.043457
vn -0.123226 0.981953 -0.143468
vt 0.497834 0.749591
v 6562.746094 411.921417 4196.748535
vn -0.603780 0.795455 0.051974
vt 1.000000 0.000000
v 6568.319336 403.425568 4361.115723
vn -0.611918 0.789371 0.049490
vt 0.748125 0.000000
v 6281.815918 335.926056 4328.699707
vn -0.073344 0.996172 0.047556
vt 0.748125 0.501307
v 5319.007324 301.569641 3605.524902
vn 0.132265 0.943795 0.302914
vt 0.999984 0.251040
v 6298.691895 326.842804 4493.512207
vn -0.064704 0.996713 0.048743
vt 0.497188 0.501307
v 6453.214355 347.202423 4517.472656
vn -0.268875 0.962201 0.043302
vt 0.497188 0.251123
v 6570.875977 397.074982 4536.812500
vn -0.563728 0.825791 0.016755
vt 0.496250 0.000000
v 5991.042969 369.268341 4453.704590
vn 0.382443 0.923763 -0.019980
vt 0.496250 0.996990
v 6133.905762 332.128937 4471.862793
vn 0.138558 0.989830 0.032222
vt 0.497188 0.749617
v 6108.565430 334.120880 4312.875977
vn 0.082200 0.995882 -0.038228
vt 0.748125 0.749617
v 5959.634277 363.828400 4308.877441
vn 0.400944 0.892286 -0.207531
vt 0.748125 0.996990
v 6080.400879 328.851135 4147.099121
vn 0.000962 0.998964 -0.045503
vt 1.000000 0.749617
v 5890.143066 340.014709 4144.399902
vn 0.180176 0.940011 -0.289681
vt 1.000000 0.996990
v 5452.884277 364.470306 3433.820557
vn 0.086360 0.752904 0.652440
vt 0.748538 -0.000078
v 5306.285156 368.028656 3463.483398
vn 0.222908 0.747261 0.626030
vt 0.999984 -0.000104
v 5601.427246 365.075531 3427.754883
vn -0.031517 0.753188 0.657050
vt 0.497091 -0.000052
v 5754.669434 319.460266 3564.547363
vn -0.110401 0.953021 0.282070
vt 0.248525 0.251099
v 5758.364258 290.371399 3742.338379
vn -0.105448 0.992103 0.067918
vt 0.248538 0.501286
v 5906.707520 304.827942 3763.484863
vn -0.091145 0.993358 0.070227
vt -0.000033 0.502238
v 5890.143066 340.014709 4144.399902
vn 0.180176 0.940011 -0.289681
vt 0.000001 0.996975
v 5902.504395 307.107971 3949.043457
vn -0.060034 0.993979 -0.091667
vt -0.000016 0.749606
v 5759.647461 295.644104 3928.517090
vn -0.065191 0.989390 -0.129833
vt 0.248551 0.749599
v 5906.353027 333.431458 3586.086914
vn -0.118615 0.954780 0.272628
vt -0.000050 0.251119
v 5750.182129 376.269867 3432.484863
vn -0.114036 0.752421 0.648736
vt 0.248512 -0.000026
v 5903.862793 388.234222 3454.391602
vn -0.174316 0.749908 0.638163
vt -0.000068 0.000000
v 5751.948730 337.894348 4090.174316
vn 0.040865 0.898264 -0.437552
vt 0.248564 0.996974
f 39/39/39 38/38/38 31/31/31
f 30/30/30 31/31/31 38/38/38
f 30/30/30 8/8/8 31/31/31
f 6/6/6 30/30/30 28/28/28
f 30/30/30 6/6/6 8/8/8
f 7/7/7 8/8/8 6/6/6
f 8/8/8 7/7/7 31/31/31
f 32/32/32 31/31/31 7/7/7
f 31/31/31 37/37/37 39/39/39
f 37/37/37 31/31/31 33/33/33
f 32/32/32 33/33/33 31/31/31
f 33/33/33 32/32/32 36/36/36
f 7/7/7 36/36/36 32/32/32
f 36/36/36 7/7/7 14/14/14
f 29/29/29 6/6/6 28/28/28
f 6/6/6 29/29/29 18/18/18
f 34/34/34 35/35/35 36/36/36
f 33/33/33 36/36/36 35/35/35
f 36/36/36 40/40/40 34/34/34
f 40/40/40 36/36/36 13/13/13
f 14/14/14 13/13/13 36/36/36
f 13/13/13 14/14/14 11/11/11
f 7/7/7 11/11/11 14/14/14
f 11/11/11 7/7/7 5/5/5
f 6/6/6 5/5/5 7/7/7
f 5/5/5 6/6/6 4/4/4
f 18/18/18 4/4/4 6/6/6
f 4/4/4 11/11/11 5/5/5
f 11/11/11 4/4/4 12/12/12
f 11/11/11 10/10/10 13/13/13
f 10/10/10 11/11/11 9/9/9
f 12/12/12 9/9/9 11/11/11
f 24/24/24 23/23/23 19/19/19
f 23/23/23 24/24/24 22/22/22
f 25/25/25 22/22/22 24/24/24
f 24/24/24 27/27/27 25/25/25
f 27/27/27 24/24/24 26/26/26
f 3/3/3 26/26/26 24/24/24
f 17/17/17 24/24/24 19/19/19
f 24/24/24 17/17/17 3/3/3
f 1/1/1 3/3/3 17/17/17
f 3/3/3 1/1/1 2/2/2
f 15/15/15 2/2/2 1/1/1
f 1/1/1 20/20/20 21/21/21
f 20/20/20 1/1/1 19/19/19
f 17/17/17 19/19/19 1/1/1
f 1/1/1 16/16/16 15/15/15
f 16/16/16 1/1/1 21/21/21
usemtl B3edgecorner
v 5224.227051 290.409210 4362.178223
vn -0.033871 0.998660 -0.039115
vt 0.748125 0.251875
v 5225.976074 283.932159 4222.108398
vn 0.056751 0.996976 -0.053091
vt 0.748125 0.000000
v 5071.530762 310.020050 4269.668945
vn 0.199054 0.979988 -0.000571
vt 0.496250 0.000000
v 5072.585449 304.703644 4407.726074
vn 0.149668 0.988047 0.036905
vt 0.497187 0.251875
v 5388.360840 288.484406 4194.276367
vn -0.284914 0.925698 -0.248813
vt 1.000000 0.000000
v 4922.132324 332.745880 4454.953125
vn 0.247219 0.961375 0.120997
vt 0.248125 0.251875
v 4919.530762 348.150177 4319.730957
vn 0.320789 0.945749 0.051517
vt 0.248125 0.000000
v 4766.736816 408.123077 4376.591309
vn 0.581540 0.732204 0.354527
vt 0.000000 0.000000
v 4772.298828 362.771271 4506.502441
vn 0.249189 0.941843 0.225470
vt 0.000000 0.251875
v 5352.456543 312.821320 4340.158203
vn -0.370537 0.915883 -0.154467
vt 1.000000 0.251875
f 46/46/46 48/48/48 49/49/49
f 48/48/48 46/46/46 47/47/47
f 43/43/43 46/46/46 44/44/44
f 46/46/46 43/43/43 47/47/47
f 43/43/43 41/41/41 42/42/42
f 41/41/41 43/43/43 44/44/44
f 41/41/41 45/45/45 42/42/42
f 45/45/45 41/41/41 50/50/50
usemtl B2edgecorner
v 4904.502441 362.071838 3842.334473
vn 0.472713 0.867184 0.156637
vt 0.248542 0.251458
v 4904.952637 395.960510 3722.701416
vn 0.636612 0.638672 0.432231
vt -0.003333 0.251458
v 4835.683105 429.204651 3810.229980
vn 0.789864 0.515788 0.331781
vt -0.003333 0.003333
v 4809.612793 416.169006 3914.869629
vn 0.778640 0.608742 0.152162
vt 0.248542 0.003333
v 5034.148926 329.381653 3749.805176
vn 0.311003 0.928471 0.203022
vt 0.248542 0.500521
v 5028.216309 376.063538 3619.965576
vn 0.479753 0.703322 0.524572
vt -0.003333 0.499583
v 4904.994629 352.087708 4002.027344
vn 0.430123 0.902516 0.021446
vt 0.499479 0.251458
v 5043.735840 308.248840 3923.835449
vn 0.263460 0.963530 0.046894
vt 0.499479 0.500521
v 4802.770996 416.331360 4062.943848
vn 0.764137 0.644759 0.019503
vt 0.500417 0.003333
v 5173.932129 310.256653 3667.886230
vn 0.222899 0.940228 0.257463
vt 0.248542 0.751458
v 5189.886230 277.191223 3853.314941
vn 0.188610 0.979071 0.076456
vt 0.499479 0.751458
v 5337.427246 261.515930 3795.771484
vn 0.068600 0.993057 0.095562
vt 0.500417 1.003333
v 5319.007324 301.569641 3605.524902
vn 0.132265 0.943795 0.302914
vt 0.248542 1.003333
v 5163.361816 369.323059 3529.545654
vn 0.350414 0.730928 0.585623
vt -0.003333 0.751458
v 5306.285156 368.028656 3463.483398
vn 0.222908 0.747261 0.626030
vt -0.003333 1.003333
v 5210.881836 273.971252 4045.271484
vn 0.122543 0.991666 -0.039764
vt 0.748542 0.751458
v 5225.976074 283.932159 4222.108398
vn 0.056751 0.996976 -0.053091
vt 0.996667 0.751459
v 5388.360840 288.484406 4194.276367
vn -0.284914 0.925698 -0.248813
vt 0.996667 1.003333
v 5359.806152 258.659729 3993.798340
vn 0.003268 0.997771 -0.066651
vt 0.748542 1.003333
v 5059.055176 306.498352 4102.747559
vn 0.240328 0.970375 -0.024801
vt 0.748542 0.500521
v 5071.530762 310.020050 4269.668945
vn 0.199054 0.979988 -0.000571
vt 0.996667 0.499584
v 4911.911621 351.022278 4164.957520
vn 0.386853 0.922072 0.011300
vt 0.748542 0.251459
v 4801.926758 416.836945 4212.661621
vn 0.766223 0.634664 0.100521
vt 0.748542 0.003333
v 4919.530762 348.150177 4319.730957
vn 0.320789 0.945749 0.051517
vt 0.996667 0.251459
v 4766.736816 408.123077 4376.591309
vn 0.581540 0.732204 0.354527
vt 0.996667 0.003333
v 5890.143066 340.014709 4144.399902
vn 0.180176 0.940011 -0.289681
vt -0.000000 1.000000
v 6080.400879 328.851135 4147.099121
vn 0.000962 0.998964 -0.045503
vt -0.000000 0.751875
v 6074.659180 318.455872 3971.648438
vn -0.057968 0.997447 -0.041694
vt 0.248125 0.751875
v 5902.504395 307.107971 3949.043457
vn -0.060034 0.993979 -0.091667
vt 0.248125 1.000000
v 6262.085449 339.919739 4163.036133
vn -0.101272 0.994858 0.001067
vt -0.000000 0.503750
v 6255.939941 335.640442 3997.868652
vn -0.129632 0.991515 -0.009629
vt 0.248125 0.502813
v 6252.429199 335.449036 3836.055176
vn -0.143848 0.987901 0.057959
vt 0.497187 0.502812
v 6076.884277 317.704651 3795.028320
vn -0.101878 0.992490 0.067705
vt 0.497187 0.751875
v 5906.707520 304.827942 3763.484863
vn -0.091145 0.993358 0.070227
vt 0.496250 1.000000
v 6540.796387 414.909729 3925.044922
vn -0.640383 0.758333 0.121822
vt 0.496250 0.000000
v 6416.878418 364.507141 3885.651367
vn -0.292931 0.954326 0.058762
vt 0.497187 0.251875
v 6426.172363 364.613831 4029.239746
vn -0.265507 0.963997 0.014699
vt 0.248125 0.251875
v 6555.201660 414.320618 4054.318848
vn -0.613008 0.787883 0.058836
vt 0.248125 0.000000
v 6432.850098 364.806213 4181.632324
vn -0.247576 0.968149 0.037334
vt -0.000000 0.251875
v 6562.746094 411.921417 4196.748535
vn -0.603780 0.795455 0.051974
vt -0.000000 0.000000
v 6470.797363 437.433411 3712.820068
vn -0.658059 0.538630 0.526151
vt 1.000000 -0.000000
v 6380.935547 407.657043 3643.347656
vn -0.500008 0.644308 0.578670
vt 1.000000 0.251875
v 6397.446777 372.884094 3747.150146
vn -0.346693 0.906954 0.239245
vt 0.748125 0.251875
v 6514.641113 417.976624 3800.145996
vn -0.667102 0.674944 0.315318
vt 0.748125 0.000000
v 6229.687500 394.469788 3564.350830
vn -0.328537 0.715080 0.617029
vt 1.000000 0.503750
v 6240.604980 351.706116 3680.452637
vn -0.182298 0.954395 0.236426
vt 0.748125 0.502812
v 6072.619629 341.367493 3625.743652
vn -0.126706 0.958533 0.255266
vt 0.748125 0.751875
v 5906.353027 333.431458 3586.086914
vn -0.118615 0.954780 0.272628
vt 0.748125 1.000000
v 6067.180176 391.148254 3499.856445
vn -0.226593 0.742686 0.630137
vt 1.000000 0.751875
v 5903.862793 388.234222 3454.391602
vn -0.174316 0.749908 0.638163
vt 1.000000 1.000000
f 56/56/56 52/52/52 51/51/51
f 53/53/53 51/51/51 52/52/52
f 51/51/51 53/53/53 54/54/54
f 56/56/56 60/60/60 64/64/64
f 60/60/60 56/56/56 55/55/55
f 65/65/65 64/64/64 60/60/60
f 60/60/60 63/63/63 65/65/65
f 63/63/63 60/60/60 62/62/62
f 56/56/56 51/51/51 55/55/55
f 58/58/58 55/55/55 51/51/51
f 55/55/55 58/58/58 60/60/60
f 61/61/61 60/60/60 58/58/58
f 60/60/60 61/61/61 62/62/62
f 66/66/66 62/62/62 61/61/61
f 62/62/62 66/66/66 69/69/69
f 68/68/68 69/69/69 66/66/66
f 58/58/58 66/66/66 61/61/61
f 66/66/66 58/58/58 70/70/70
f 54/54/54 59/59/59 51/51/51
f 57/57/57 51/51/51 59/59/59
f 51/51/51 57/57/57 58/58/58
f 72/72/72 58/58/58 57/57/57
f 58/58/58 72/72/72 70/70/70
f 71/71/71 70/70/70 72/72/72
f 70/70/70 71/71/71 66/66/66
f 67/67/67 66/66/66 71/71/71
f 66/66/66 67/67/67 68/68/68
f 59/59/59 72/72/72 57/57/57
f 72/72/72 59/59/59 73/73/73
f 73/73/73 75/75/75 72/72/72
f 74/74/74 72/72/72 75/75/75
f 72/72/72 74/74/74 71/71/71
f 93/93/93 94/94/94 91/91/91
f 94/94/94 93/93/93 85/85/85
f 86/86/86 85/85/85 93/93/93
f 85/85/85 86/86/86 87/87/87
f 82/82/82 87/87/87 86/86/86
f 87/87/87 82/82/82 81/81/81
f 78/78/78 81/81/81 82/82/82
f 81/81/81 78/78/78 80/80/80
f 77/77/77 80/80/80 78/78/78
f 87/87/87 80/80/80 89/89/89
f 80/80/80 87/87/87 81/81/81
f 93/93/93 82/82/82 86/86/86
f 82/82/82 93/93/93 96/96/96
f 87/87/87 89/89/89 90/90/90
f 90/90/90 88/88/88 87/87/87
f 85/85/85 87/87/87 88/88/88
f 78/78/78 76/76/76 77/77/77
f 76/76/76 78/78/78 79/79/79
f 78/78/78 84/84/84 79/79/79
f 84/84/84 78/78/78 83/83/83
f 82/82/82 83/83/83 78/78/78
f 83/83/83 82/82/82 97/97/97
f 96/96/96 97/97/97 82/82/82
f 97/97/97 96/96/96 95/95/95
f 93/93/93 95/95/95 96/96/96
f 95/95/95 93/93/93 92/92/92
f 91/91/91 92/92/92 93/93/93
f 97/97/97 84/84/84 83/83/83
f 84/84/84 97/97/97 98/98/98
f 100/100/100 98/98/98 97/97/97
f 97/97/97 99/99/99 100/100/100
f 99/99/99 97/97/97 95/95/95
