mtllib SWORDLIGHT20_PS-AREA03_15.mtl
g PS-Area03_15
usemtl RockwallA
v 2379.330322 577.473999 -2588.734131
vn -0.233662 0.968735 -0.083399
vt 0.497187 0.251875
v 2571.215820 620.601440 -2565.706299
vn -0.933890 -0.226911 -0.276335
vt 0.500417 0.000000
v 2402.335693 572.490845 -2790.153564
vn -0.236503 0.971617 -0.005215
vt 0.248125 0.251875
v 2224.372559 533.882446 -2611.761963
vn -0.273255 0.960007 -0.060974
vt 0.497188 0.502813
v 2240.318604 530.713501 -2821.887451
vn -0.253295 0.967184 0.019903
vt 0.248125 0.502813
v 2557.489258 607.934937 -2951.133057
vn -0.194462 0.038097 0.980170
vt -0.003333 0.000000
v 2348.324707 597.215698 -2596.641846
vn 0.107457 -0.992744 0.053971
vt 0.499479 0.251875
v 2281.981445 596.547180 -2392.650879
vn 0.253576 -0.966439 0.041176
vt 0.748542 0.251875
v 2289.524170 636.983215 -2180.278564
vn 0.425117 0.145845 -0.893311
vt 0.996667 0.000000
v 2133.593018 564.301819 -2412.309326
vn 0.221644 -0.971938 -0.078801
vt 0.748542 0.502813
v 2162.360840 573.365356 -2627.577637
vn 0.147639 -0.988174 0.041406
vt 0.499479 0.502813
v 1912.304688 460.719360 -3070.968994
vn -0.957451 -0.240085 0.160147
vt -0.003333 1.000000
v 1948.954468 421.177612 -2873.326904
vn -0.702965 0.699360 0.129367
vt 0.248125 1.000000
v 2078.301758 488.936157 -2853.621338
vn -0.349021 0.935169 0.060364
vt 0.248125 0.751875
v 2063.915283 498.362183 -2967.039551
vn -0.412210 0.026772 0.910696
vt -0.003333 0.751875
v 1946.947144 421.665375 -2648.979736
vn -0.735299 0.677701 -0.007582
vt 0.496250 1.000000
v 2069.414063 490.290375 -2634.789795
vn -0.378503 0.924955 -0.034542
vt 0.497187 0.751875
v 2229.583984 535.942017 -2929.618408
vn -0.350120 0.024367 0.936388
vt -0.003333 0.503750
v 2131.506836 546.841125 -2299.435791
vn -0.069482 -0.033643 -0.997016
vt 0.996667 0.503750
v 2174.934082 537.979553 -2401.765869
vn -0.315722 0.936469 -0.152790
vt 0.748125 0.502813
v 2047.216187 492.573334 -2416.152344
vn -0.393919 0.907333 -0.146883
vt 0.748125 0.751875
v 2017.286621 503.817963 -2310.835938
vn -0.226286 0.001967 -0.974059
vt 0.996667 0.751875
v 1946.389038 422.967377 -2424.850830
vn -0.762779 0.614399 -0.201700
vt 0.748125 1.000000
v 1879.829834 472.179047 -2229.447510
vn -0.815532 -0.317600 -0.483775
vt 0.996667 1.000000
v 2302.652100 583.385803 -2387.379150
vn -0.293831 0.937744 -0.185203
vt 0.748125 0.251875
v 2245.726807 589.864319 -2288.035645
vn 0.602330 0.152310 -0.783582
vt 0.996667 0.251875
v 2395.252197 573.521851 -2892.197266
vn 0.055991 0.081358 0.995111
vt -0.003333 0.251875
v 1976.396729 549.515259 -2658.512939
vn 0.018009 -0.999779 0.010887
vt 0.499479 0.751875
v 2016.290161 528.419556 -2869.436768
vn 0.022178 -0.977030 0.211943
vt 0.248542 0.751875
v 2198.977539 557.035767 -2832.430908
vn 0.118236 -0.977889 0.172494
vt 0.248542 0.502813
v 1834.218750 543.915649 -2470.713867
vn -0.277122 -0.950494 -0.140586
vt 0.748542 1.000000
v 1985.204468 532.056702 -2431.967773
vn 0.113220 -0.981223 -0.156151
vt 0.748542 0.751875
v 1803.373657 564.709106 -2694.752197
vn -0.317586 -0.948226 -0.002404
vt 0.500417 1.000000
v 1846.325806 540.415405 -2900.558350
vn -0.339981 -0.925995 0.164154
vt 0.248542 1.000000
v 2381.665039 585.651978 -2795.425293
vn 0.148989 -0.981732 0.118343
vt 0.248542 0.251875
f 32/32/32 31/31/31 33/33/33
f 32/32/32 24/24/24 31/31/31
f 24/24/24 32/32/32 22/22/22
f 7/7/7 8/8/8 11/11/11
f 10/10/10 11/11/11 8/8/8
f 11/11/11 10/10/10 32/32/32
f 19/19/19 32/32/32 10/10/10
f 32/32/32 19/19/19 22/22/22
f 21/21/21 22/22/22 19/19/19
f 22/22/22 21/21/21 24/24/24
f 23/23/23 24/24/24 21/21/21
f 8/8/8 19/19/19 10/10/10
f 19/19/19 8/8/8 26/26/26
f 21/21/21 16/16/16 23/23/23
f 16/16/16 21/21/21 17/17/17
f 13/13/13 16/16/16 14/14/14
f 17/17/17 14/14/14 16/16/16
f 14/14/14 17/17/17 4/4/4
f 21/21/21 4/4/4 17/17/17
f 4/4/4 21/21/21 20/20/20
f 19/19/19 20/20/20 21/21/21
f 20/20/20 19/19/19 25/25/25
f 26/26/26 25/25/25 19/19/19
f 25/25/25 26/26/26 9/9/9
f 8/8/8 9/9/9 26/26/26
f 9/9/9 8/8/8 2/2/2
f 7/7/7 2/2/2 8/8/8
f 2/2/2 7/7/7 35/35/35
f 11/11/11 35/35/35 7/7/7
f 35/35/35 11/11/11 30/30/30
f 29/29/29 30/30/30 11/11/11
f 30/30/30 29/29/29 18/18/18
f 15/15/15 18/18/18 29/29/29
f 25/25/25 4/4/4 20/20/20
f 4/4/4 25/25/25 1/1/1
f 14/14/14 18/18/18 15/15/15
f 18/18/18 14/14/14 5/5/5
f 4/4/4 5/5/5 14/14/14
f 5/5/5 4/4/4 3/3/3
f 1/1/1 3/3/3 4/4/4
f 3/3/3 1/1/1 2/2/2
f 25/25/25 2/2/2 1/1/1
f 2/2/2 25/25/25 9/9/9
f 3/3/3 18/18/18 5/5/5
f 18/18/18 3/3/3 27/27/27
f 6/6/6 3/3/3 2/2/2
f 3/3/3 6/6/6 27/27/27
f 35/35/35 27/27/27 6/6/6
f 27/27/27 35/35/35 18/18/18
f 30/30/30 18/18/18 35/35/35
f 6/6/6 2/2/2 35/35/35
f 13/13/13 14/14/14 12/12/12
f 15/15/15 12/12/12 14/14/14
f 12/12/12 15/15/15 29/29/29
f 11/11/11 28/28/28 29/29/29
f 11/11/11 32/32/32 28/28/28
f 33/33/33 28/28/28 32/32/32
f 28/28/28 33/33/33 29/29/29
f 34/34/34 29/29/29 33/33/33
f 29/29/29 34/34/34 12/12/12
usemtl WallB
v 1899.343506 304.961517 -2422.172852
vn -0.981645 0.179219 -0.065220
vt 0.748542 0.251458
v 1946.389038 422.967377 -2424.850830
vn -0.762779 0.614399 -0.201700
vt 0.748542 0.003333
v 1946.947144 421.665375 -2648.979736
vn -0.735299 0.677701 -0.007582
vt 0.500417 0.003333
v 1889.462158 302.973236 -2645.493408
vn -0.948948 0.314178 0.028110
vt 0.499479 0.251458
v 1869.769653 314.523041 -2209.167725
vn -0.962115 -0.082869 -0.259744
vt 0.996667 0.251458
v 1879.829834 472.179047 -2229.447510
vn -0.815532 -0.317600 -0.483775
vt 0.996667 0.003333
v 1884.946411 301.456177 -2868.976318
vn -0.950923 0.307398 0.035392
vt 0.248542 0.251458
v 1948.954468 421.177612 -2873.326904
vn -0.702965 0.699360 0.129367
vt 0.248542 0.003333
v 1912.304688 460.719360 -3070.968994
vn -0.957451 -0.240085 0.160147
vt -0.003333 0.003333
v 1891.003662 307.856079 -3069.634033
vn -0.977112 0.203877 -0.060720
vt -0.003333 0.251458
f 42/42/42 44/44/44 45/45/45
f 44/44/44 42/42/42 43/43/43
f 38/38/38 42/42/42 39/39/39
f 42/42/42 38/38/38 43/43/43
f 38/38/38 36/36/36 37/37/37
f 36/36/36 38/38/38 39/39/39
f 41/41/41 36/36/36 40/40/40
f 36/36/36 41/41/41 37/37/37
