mtllib SWORDLIGHT20_PS-AREA05-RANGE01_01.mtl
g ea05-Range01_01
usemtl Lvl_Riddles_Range1R
v 10866.714844 -2409.449951 -2655.037109
vn -0.606002 0.154479 0.780319
vt 0.376110 0.005445
v 10389.163086 -2368.703369 -2988.045898
vn -0.491330 0.121477 0.862461
vt 0.190778 0.005445
v 10259.739258 -3068.606201 -2922.357422
vn -0.529581 0.223247 0.818355
vt 0.190778 0.500000
v 9869.274414 -2317.457275 -3245.479004
vn -0.301413 0.105367 0.947654
vt 0.005445 0.005445
v 9746.796875 -2997.362305 -3190.649414
vn -0.431902 0.176161 0.884550
vt 0.005445 0.500000
v 9583.885742 -3665.723633 -3106.285889
vn -0.352247 0.223425 0.908847
vt 0.005445 0.994554
v 11737.672852 -3998.137695 -983.936157
vn -0.869828 0.306452 0.386634
vt 0.994555 0.994555
v 11927.046875 -3240.593018 -1076.135376
vn -0.888290 0.217289 0.404632
vt 0.994555 0.500000
v 11709.231445 -3237.449463 -1478.460327
vn -0.801968 0.254677 0.540359
vt 0.849280 0.500000
v 12061.418945 -2468.663818 -1141.836548
vn -0.896994 0.167583 0.409045
vt 0.994555 0.005446
v 11846.016602 -2466.279297 -1544.835815
vn -0.850700 0.163515 0.499572
vt 0.849280 0.005445
v 11587.076172 -2456.454834 -1921.330933
vn -0.787232 0.151986 0.597634
vt 0.704006 0.005445
v 10838.938477 -3914.677734 -2233.957031
vn -0.682284 0.308118 0.662987
vt 0.500000 0.994555
v 11084.644531 -3196.624756 -2305.908447
vn -0.656730 0.243171 0.713844
vt 0.520029 0.500000
v 11249.055664 -2437.398926 -2310.337402
vn -0.686999 0.161341 0.708521
vt 0.540058 0.005445
f 3/3/3 1/1/1 2/2/2
f 1/1/1 3/3/3 15/15/15
f 14/14/14 15/15/15 3/3/3
f 15/15/15 14/14/14 12/12/12
f 9/9/9 12/12/12 14/14/14
f 12/12/12 9/9/9 11/11/11
f 8/8/8 11/11/11 9/9/9
f 11/11/11 8/8/8 10/10/10
f 5/5/5 2/2/2 4/4/4
f 2/2/2 5/5/5 3/3/3
f 6/6/6 3/3/3 5/5/5
f 3/3/3 6/6/6 14/14/14
f 13/13/13 14/14/14 6/6/6
f 14/14/14 13/13/13 9/9/9
f 7/7/7 9/9/9 13/13/13
f 9/9/9 7/7/7 8/8/8
