mtllib SWORDLIGHT20_PS-AREA03_111.mtl
g PS-Area03_111
usemtl WallAUnder
v -6115.754883 -5430.870117 2.800094
vn 0.103953 -0.011999 -0.994510
vt 0.974691 0.685167
v -6009.507324 -5431.635254 -48.679897
vn -0.544935 -0.021256 -0.838209
vt 0.960385 0.685380
v -5972.729492 -5976.107910 -10.663413
vn -0.464615 0.041691 -0.884531
vt 0.955432 0.836930
v -6113.635254 -5946.684082 -1.159127
vn 0.168617 0.016799 -0.985539
vt 0.974406 0.828740
v -5775.432617 -6004.040527 -181.764343
vn -0.653704 0.016807 -0.756564
vt 0.928866 0.844705
v -5846.866211 -5430.870117 -261.820282
vn -0.687906 -0.031419 -0.725119
vt 0.938485 0.685167
v -5846.866211 -6462.341797 -261.820282
vn -0.415053 0.766689 -0.489815
vt 0.938485 0.972269
v -6009.502441 -6463.067871 -48.743721
vn -0.342537 0.677552 -0.650839
vt 0.960384 0.972472
v -6115.754883 -6462.341797 2.800080
vn 0.207918 -0.008399 -0.978110
vt 0.974691 0.972269
v -5846.866211 -5430.870117 -261.820282
vn -0.687906 -0.031419 -0.725119
vt 0.938485 0.685167
v -5616.200195 -5431.093262 -391.857025
vn -0.739733 -0.003848 -0.672890
vt 0.907425 0.685229
v -5581.026367 -5975.539551 -351.593048
vn -0.796055 -0.026828 -0.604629
vt 0.902688 0.836772
v -5775.432617 -6004.040527 -181.764343
vn -0.653704 0.016807 -0.756564
vt 0.928866 0.844705
v -5504.704102 -5946.611328 -592.932800
vn -0.938466 0.003039 0.345357
vt 0.892411 0.828720
v -5503.629395 -5430.870117 -593.412598
vn -0.939170 -0.036955 0.341460
vt 0.892267 0.685167
v -5503.629395 -6462.341797 -593.412598
vn -0.995203 0.047653 0.085447
vt 0.892267 0.972269
v -5616.212402 -6462.546387 -391.864868
vn -0.497467 0.717766 -0.487175
vt 0.907426 0.972326
v -5846.866211 -6462.341797 -261.820282
vn -0.415053 0.766689 -0.489815
vt 0.938485 0.972269
v -6246.866699 -5430.870117 -197.978455
vn 0.986043 0.020791 0.165190
vt 0.992346 0.685167
v -6223.505371 -5425.511719 -58.554939
vn 0.808222 0.005793 -0.588849
vt 0.989200 0.683676
v -6214.904297 -5941.733887 -59.423279
vn 0.827280 0.003814 -0.561777
vt 0.988044 0.827362
v -6233.085449 -5947.360840 -195.924866
vn 0.997413 -0.017567 0.069703
vt 0.990494 0.828928
v -6115.754883 -5430.870117 2.800094
vn 0.103953 -0.011999 -0.994510
vt 0.974691 0.685167
v -6115.754883 -6462.341797 2.800080
vn 0.207918 -0.008399 -0.978110
vt 0.974691 0.972269
v -6222.204102 -6457.124023 -58.386066
vn 0.903628 -0.017811 -0.427948
vt 0.989025 0.970817
v -6246.866699 -6462.341797 -197.978455
vn 0.981903 0.011330 0.189043
vt 0.992346 0.972269
v -6101.261719 -5430.870117 -397.199921
vn 0.995148 -0.045610 0.087182
vt 0.972740 0.685167
v -6174.397461 -5425.511719 -299.413116
vn 0.846297 -0.009858 0.532619
vt 0.982588 0.683676
v -6219.998535 -5970.274414 -306.253204
vn 0.954961 -0.032533 0.294943
vt 0.988730 0.835306
v -6206.873535 -6003.291992 -413.020874
vn 0.996021 0.012093 0.088299
vt 0.986961 0.844496
v -6233.085449 -5947.360840 -195.924866
vn 0.997413 -0.017567 0.069703
vt 0.990494 0.828928
v -6246.866699 -5430.870117 -197.978455
vn 0.986043 0.020791 0.165190
vt 0.992346 0.685167
v -6246.866699 -6462.341797 -197.978455
vn 0.981903 0.011330 0.189043
vt 0.992346 0.972269
v -6173.768555 -6457.596191 -299.325867
vn 0.627113 0.721259 0.294135
vt 0.982503 0.970949
v -6101.261719 -6462.341797 -397.199921
vn 0.617993 0.783214 0.068261
vt 0.972740 0.972269
v -6153.525391 -5430.870117 -810.002869
vn 0.458703 -0.052484 0.887039
vt 0.979777 0.685167
v -6163.253906 -5429.872559 -629.817200
vn 0.998648 -0.020775 -0.047656
vt 0.981087 0.684889
v -6218.870605 -5974.474609 -642.147461
vn 0.997293 0.038218 0.062811
vt 0.988646 0.836500
v -6158.719727 -5947.010254 -818.772217
vn 0.511837 0.002367 0.859079
vt 0.980617 0.828880
v -6206.873535 -6003.291992 -413.020874
vn 0.996021 0.012093 0.088299
vt 0.986961 0.844496
v -6101.261719 -5430.870117 -397.199921
vn 0.995148 -0.045610 0.087182
vt 0.972740 0.685167
v -6101.261719 -6462.341797 -397.199921
vn 0.617993 0.783214 0.068261
vt 0.972740 0.972269
v -6163.682617 -6461.987305 -629.887512
vn 0.712239 0.700513 0.044683
vt 0.981145 0.972171
v -6153.525391 -6462.341797 -810.002869
vn 0.209968 0.068241 0.975324
vt 0.979777 0.972269
v -5861.179688 -5430.870117 -609.109375
vn -0.265061 -0.047029 0.963084
vt 0.940412 0.685167
v -6013.011230 -5429.087891 -739.469604
vn -0.475619 -0.043106 0.878595
vt 0.960856 0.684671
v -6006.000000 -5973.889160 -796.738586
vn -0.391906 -0.022812 0.919722
vt 0.959982 0.836337
v -5842.097656 -6002.977051 -713.963928
vn -0.302570 0.014785 0.953013
vt 0.937842 0.844409
v -6158.719727 -5947.010254 -818.772217
vn 0.511837 0.002367 0.859079
vt 0.980617 0.828880
v -6153.525391 -5430.870117 -810.002869
vn 0.458703 -0.052484 0.887039
vt 0.979777 0.685167
v -6153.525391 -6462.341797 -810.002869
vn 0.209968 0.068241 0.975324
vt 0.979777 0.972269
v -6012.875977 -6461.915039 -740.383667
vn -0.333441 0.727432 0.599716
vt 0.960838 0.972151
v -5861.179688 -6462.341797 -609.109375
vn -0.174684 0.698884 0.693575
vt 0.940412 0.972269
v -5503.629395 -5430.870117 -593.412598
vn -0.939170 -0.036955 0.341460
vt 0.892267 0.685167
v -5655.320313 -5429.135254 -633.328125
vn -0.151678 -0.059817 0.986618
vt 0.912692 0.684684
v -5646.215332 -5973.769043 -685.987976
vn -0.267051 0.040363 0.962837
vt 0.911466 0.836279
v -5504.704102 -5946.611328 -592.932800
vn -0.938466 0.003039 0.345357
vt 0.892411 0.828720
v -5842.097656 -6002.977051 -713.963928
vn -0.302570 0.014785 0.953013
vt 0.937842 0.844409
v -5861.179688 -5430.870117 -609.109375
vn -0.265061 -0.047029 0.963084
vt 0.940412 0.685167
v -5861.179688 -6462.341797 -609.109375
vn -0.174684 0.698884 0.693575
vt 0.940412 0.972269
v -5655.117676 -6462.027344 -634.273132
vn -0.243873 0.069110 0.967342
vt 0.912665 0.972182
v -5503.629395 -6462.341797 -593.412598
vn -0.995203 0.047653 0.085447
vt 0.892267 0.972269
f 5/5/5 2/2/2 6/6/6
f 2/2/2 5/5/5 3/3/3
f 7/7/7 3/3/3 5/5/5
f 3/3/3 7/7/7 8/8/8
f 3/3/3 1/1/1 2/2/2
f 1/1/1 3/3/3 4/4/4
f 8/8/8 4/4/4 3/3/3
f 4/4/4 8/8/8 9/9/9
f 22/22/22 19/19/19 21/21/21
f 20/20/20 21/21/21 19/19/19
f 21/21/21 20/20/20 4/4/4
f 23/23/23 4/4/4 20/20/20
f 26/26/26 22/22/22 25/25/25
f 21/21/21 25/25/25 22/22/22
f 25/25/25 21/21/21 24/24/24
f 4/4/4 24/24/24 21/21/21
f 15/15/15 14/14/14 11/11/11
f 12/12/12 11/11/11 14/14/14
f 11/11/11 12/12/12 10/10/10
f 13/13/13 10/10/10 12/12/12
f 18/18/18 13/13/13 17/17/17
f 12/12/12 17/17/17 13/13/13
f 17/17/17 12/12/12 16/16/16
f 14/14/14 16/16/16 12/12/12
f 32/32/32 31/31/31 28/28/28
f 29/29/29 28/28/28 31/31/31
f 28/28/28 29/29/29 27/27/27
f 30/30/30 27/27/27 29/29/29
f 35/35/35 30/30/30 34/34/34
f 29/29/29 34/34/34 30/30/30
f 34/34/34 29/29/29 33/33/33
f 31/31/31 33/33/33 29/29/29
f 41/41/41 40/40/40 37/37/37
f 38/38/38 37/37/37 40/40/40
f 37/37/37 38/38/38 36/36/36
f 39/39/39 36/36/36 38/38/38
f 44/44/44 39/39/39 43/43/43
f 38/38/38 43/43/43 39/39/39
f 43/43/43 38/38/38 42/42/42
f 40/40/40 42/42/42 38/38/38
f 50/50/50 49/49/49 46/46/46
f 47/47/47 46/46/46 49/49/49
f 46/46/46 47/47/47 45/45/45
f 48/48/48 45/45/45 47/47/47
f 53/53/53 48/48/48 52/52/52
f 47/47/47 52/52/52 48/48/48
f 52/52/52 47/47/47 51/51/51
f 49/49/49 51/51/51 47/47/47
f 59/59/59 58/58/58 55/55/55
f 56/56/56 55/55/55 58/58/58
f 55/55/55 56/56/56 54/54/54
f 57/57/57 54/54/54 56/56/56
f 62/62/62 57/57/57 61/61/61
f 56/56/56 61/61/61 57/57/57
f 61/61/61 56/56/56 60/60/60
f 58/58/58 60/60/60 56/56/56
