mtllib SWORDLIGHT20_JAILCEILBRACKET13.mtl
g ilCeilBracket13
usemtl BoardB
v -4459.854980 -1194.689575 4321.530762
vn 0.141903 0.894427 -0.424103
vt 0.228076 0.999501
v -5254.347168 -1194.689453 4055.697510
vn 0.223490 0.707140 -0.670824
vt 0.228076 0.500000
v -5263.863770 -1194.689453 4084.139893
vn -0.225242 0.707083 0.670298
vt -0.004227 0.500000
v -4469.371582 -1194.689575 4349.973145
vn -0.283806 0.447214 0.848206
vt -0.004226 0.999501
v -6092.553711 -1195.827026 3776.446045
vn 0.282142 0.447336 -0.848697
vt 0.228076 0.000499
v -6101.345703 -1195.835327 3802.722900
vn -0.143590 0.894354 0.423690
vt -0.004228 0.000499
v -4459.854980 -1224.682007 4321.530762
vn 0.224367 -0.707109 -0.670564
vt 0.478075 0.999501
v -4469.371582 -1224.682007 4349.973145
vn -0.224368 -0.707107 0.670566
vt 0.728076 0.999501
v -5263.863770 -1224.681885 4084.139893
vn -0.224947 -0.707105 0.670374
vt 0.728076 0.500000
v -5254.347168 -1224.682007 4055.697754
vn 0.223215 -0.707097 -0.670961
vt 0.478076 0.500000
v -6101.346680 -1223.538574 3802.716797
vn -0.226095 -0.707122 0.669970
vt 0.728076 0.000499
v -6092.549316 -1223.541260 3776.441650
vn 0.222648 -0.707070 -0.671178
vt 0.478077 0.000499
v -4469.371582 -1194.689575 4349.973145
vn -0.283806 0.447214 0.848206
vt 0.995774 0.999501
v -5263.863770 -1194.689453 4084.139893
vn -0.225242 0.707083 0.670298
vt 0.995773 0.500000
v -6101.345703 -1195.835327 3802.722900
vn -0.143590 0.894354 0.423690
vt 0.995772 0.000499
v -4769.196777 -901.851624 4218.846680
vn -0.280461 0.775448 -0.565705
vt 0.228076 0.500000
v -5255.045410 -1193.178467 4060.345215
vn 0.070532 0.383252 -0.920947
vt 0.228076 0.000499
v -5261.624512 -1193.198364 4080.043457
vn -0.564398 0.775530 0.282857
vt -0.004228 0.000499
v -4778.229980 -901.831360 4245.807129
vn -0.498454 0.385199 0.776637
vt -0.004227 0.500000
v -4750.941406 -926.331970 4224.991699
vn 0.551734 -0.618393 -0.559624
vt 0.478076 0.500000
v -4759.949707 -926.326660 4251.898438
vn 0.103373 -0.617617 0.779656
vt 0.728076 0.500000
v -5230.527832 -1208.722778 4090.586914
vn 0.103256 -0.617558 0.779718
vt 0.728076 0.000499
v -5223.917480 -1208.708862 4070.797363
vn 0.551742 -0.618849 -0.559113
vt 0.478077 0.000499
v -4778.229980 -901.831360 4245.807129
vn -0.498454 0.385199 0.776637
vt 0.995773 0.500000
v -5261.624512 -1193.198364 4080.043457
vn -0.564398 0.775530 0.282857
vt 0.995772 0.000499
v -4970.778320 -1196.941406 4150.906250
vn 0.980615 -0.137454 -0.139644
vt 0.228076 0.500000
v -4948.050293 -1043.526855 4160.094238
vn 0.702837 -0.061411 -0.708695
vt 0.228076 0.000499
v -4956.487793 -1043.520508 4185.164063
vn 0.692929 -0.136251 0.708015
vt -0.004228 0.000499
v -4980.432617 -1196.895630 4178.952148
vn 0.129903 -0.060938 0.989652
vt -0.004227 0.500000
v -5002.055176 -1195.425293 4140.437012
vn -0.436807 0.126132 -0.890669
vt 0.478076 0.500000
v -5011.354004 -1195.413940 4168.347168
vn -0.885932 0.126052 0.446357
vt 0.728076 0.500000
v -4989.459961 -1062.632690 4174.304199
vn -0.885437 0.126532 0.447204
vt 0.728076 0.000499
v -4980.962891 -1062.632935 4148.945801
vn -0.437037 0.126477 -0.890507
vt 0.478077 0.000499
v -4980.432617 -1196.895630 4178.952148
vn 0.129903 -0.060938 0.989652
vt 0.995773 0.500000
v -4956.487793 -1043.520508 4185.164063
vn 0.692929 -0.136251 0.708015
vt 0.995772 0.000499
v -5744.255371 -901.851501 3922.582764
vn 0.280458 0.775446 0.565709
vt 0.228076 0.500000
v -5258.407227 -1193.178589 4081.084961
vn -0.070540 0.383242 0.920951
vt 0.228076 0.000499
v -5251.827637 -1193.198364 4061.386230
vn 0.564398 0.775532 -0.282852
vt -0.004228 0.000499
v -5735.222168 -901.831177 3895.622803
vn 0.498455 0.385199 -0.776637
vt -0.004227 0.500000
v -5762.510254 -926.331848 3916.438232
vn -0.551736 -0.618397 0.559618
vt 0.478076 0.500000
v -5753.502441 -926.326477 3889.531250
vn -0.103372 -0.617616 -0.779657
vt 0.728076 0.500000
v -5282.923828 -1208.722656 4050.842773
vn -0.103256 -0.617558 -0.779718
vt 0.728076 0.000499
v -5289.534668 -1208.708862 4070.632324
vn -0.551744 -0.618857 0.559102
vt 0.478077 0.000499
v -5735.222168 -901.831177 3895.622803
vn 0.498455 0.385199 -0.776637
vt 0.995773 0.500000
v -5251.827637 -1193.198364 4061.386230
vn 0.564398 0.775532 -0.282852
vt 0.995772 0.000499
v -5566.686523 -1195.472046 3982.748291
vn -0.990265 0.005381 0.139092
vt 0.228076 0.500000
v -5566.025391 -1043.390869 3981.857422
vn -0.709464 0.007818 0.704698
vt 0.228076 0.000499
v -5557.153320 -1043.384033 3955.487061
vn -0.706596 0.005045 -0.707599
vt -0.004228 0.000499
v -5557.269043 -1195.454590 3954.458252
vn -0.141493 0.006560 -0.989918
vt -0.004227 0.500000
v -5538.353516 -1195.359741 3992.410889
vn 0.443925 -0.000547 0.896064
vt 0.478076 0.500000
v -5528.628418 -1195.351807 3964.044189
vn 0.896588 -0.001237 -0.442864
vt 0.728076 0.500000
v -5527.937012 -1061.452881 3965.070068
vn 0.895279 -0.001762 -0.445503
vt 0.728076 0.000499
v -5536.807617 -1061.475098 3991.756592
vn 0.447560 -0.000797 0.894254
vt 0.478077 0.000499
v -5557.269043 -1195.454590 3954.458252
vn -0.141493 0.006560 -0.989918
vt 0.995773 0.500000
v -5557.153320 -1043.384033 3955.487061
vn -0.706596 0.005045 -0.707599
vt 0.995772 0.000499
v -5661.040039 -1196.002319 3950.699951
vn -0.967021 -0.206475 0.149129
vt 0.228076 0.500000
v -5716.036133 -953.158630 3930.562012
vn -0.694734 -0.098043 0.712553
vt 0.228076 0.000499
v -5707.853027 -953.152222 3906.185059
vn -0.682962 -0.206688 -0.700602
vt -0.004228 0.000499
v -5651.923340 -1196.018799 3923.251709
vn -0.127584 -0.098491 -0.986925
vt -0.004227 0.500000
v -5630.610352 -1196.387451 3960.825439
vn 0.429541 0.168203 0.887244
vt 0.478076 0.500000
v -5621.467773 -1196.385498 3933.440186
vn 0.876024 0.167782 -0.452140
vt 0.728076 0.500000
v -5671.519531 -975.814697 3918.315186
vn 0.876492 0.167783 -0.451233
vt 0.728076 0.000499
v -5679.681152 -975.803467 3942.719238
vn 0.430209 0.168502 0.886864
vt 0.478077 0.000499
v -5651.923340 -1196.018799 3923.251709
vn -0.127584 -0.098491 -0.986925
vt 0.995773 0.500000
v -5707.853027 -953.152222 3906.185059
vn -0.682962 -0.206688 -0.700602
vt 0.995772 0.000499
v -4848.923828 -1195.964111 4191.900391
vn 0.969292 -0.195805 -0.148771
vt 0.228076 0.500000
v -4796.303223 -950.506409 4211.325684
vn 0.695907 -0.092559 -0.712142
vt 0.228076 0.000499
v -4804.434570 -950.500122 4235.545410
vn 0.685463 -0.196133 0.701194
vt -0.004228 0.000499
v -4857.992676 -1195.986450 4219.321777
vn 0.128901 -0.092941 0.987293
vt -0.004227 0.500000
v -4883.279785 -1196.046265 4180.458496
vn -0.430195 0.163289 -0.887845
vt 0.478076 0.500000
v -4892.421875 -1196.043701 4207.838867
vn -0.876920 0.162975 0.452163
vt 0.728076 0.500000
v -4844.066895 -975.911377 4222.274414
vn -0.877842 0.163066 0.450336
vt 0.728076 0.000499
v -4835.920410 -975.908997 4198.074219
vn -0.430561 0.163654 -0.887601
vt 0.478077 0.000499
v -4857.992676 -1195.986450 4219.321777
vn 0.128901 -0.092941 0.987293
vt 0.995773 0.500000
v -4804.434570 -950.500122 4235.545410
vn 0.685463 -0.196133 0.701194
vt 0.995772 0.000499
v -5278.505859 -1194.623535 4079.230469
vn -0.990140 -0.004641 0.140002
vt 0.228076 0.500000
v -5280.793457 -728.048279 4078.462158
vn -0.708033 -0.002311 0.706176
vt 0.228076 0.000499
v -5271.283691 -728.048523 4050.042725
vn -0.706155 -0.004623 -0.708042
vt -0.004228 0.000499
v -5268.971680 -1194.623291 4050.794678
vn -0.140209 -0.002313 -0.990119
vt -0.004227 0.500000
v -5243.161621 -1194.589111 4091.063965
vn 0.446152 0.000311 0.894957
vt 0.478076 0.500000
v -5233.647949 -1194.589111 4062.623291
vn 0.894971 0.000308 -0.446124
vt 0.728076 0.500000
v -5233.842285 -728.022217 4062.555908
vn 0.894896 0.000323 -0.446275
vt 0.728076 0.000499
v -5243.354492 -728.021973 4090.999756
vn 0.446153 0.000308 0.894957
vt 0.478077 0.000499
v -5268.971680 -1194.623291 4050.794678
vn -0.140209 -0.002313 -0.990119
vt 0.995773 0.500000
v -5271.283691 -728.048523 4050.042725
vn -0.706155 -0.004623 -0.708042
vt 0.995772 0.000499
f 20/20/20 21/21/21 22/22/22
f 24/24/24 22/22/22 21/21/21
f 22/22/22 24/24/24 25/25/25
f 22/22/22 23/23/23 20/20/20
f 17/17/17 20/20/20 23/23/23
f 20/20/20 17/17/17 16/16/16
f 18/18/18 16/16/16 17/17/17
f 16/16/16 18/18/18 19/19/19
f 1/1/1 3/3/3 4/4/4
f 3/3/3 1/1/1 2/2/2
f 7/7/7 2/2/2 1/1/1
f 2/2/2 7/7/7 10/10/10
f 9/9/9 10/10/10 7/7/7
f 10/10/10 9/9/9 11/11/11
f 14/14/14 11/11/11 9/9/9
f 11/11/11 14/14/14 15/15/15
f 7/7/7 8/8/8 9/9/9
f 13/13/13 9/9/9 8/8/8
f 9/9/9 13/13/13 14/14/14
f 11/11/11 12/12/12 10/10/10
f 5/5/5 10/10/10 12/12/12
f 10/10/10 5/5/5 2/2/2
f 6/6/6 2/2/2 5/5/5
f 2/2/2 6/6/6 3/3/3
f 32/32/32 33/33/33 30/30/30
f 27/27/27 30/30/30 33/33/33
f 30/30/30 27/27/27 26/26/26
f 28/28/28 26/26/26 27/27/27
f 26/26/26 28/28/28 29/29/29
f 30/30/30 31/31/31 32/32/32
f 34/34/34 32/32/32 31/31/31
f 32/32/32 34/34/34 35/35/35
f 42/42/42 43/43/43 40/40/40
f 37/37/37 40/40/40 43/43/43
f 40/40/40 37/37/37 36/36/36
f 38/38/38 36/36/36 37/37/37
f 36/36/36 38/38/38 39/39/39
f 40/40/40 41/41/41 42/42/42
f 44/44/44 42/42/42 41/41/41
f 42/42/42 44/44/44 45/45/45
f 52/52/52 53/53/53 50/50/50
f 47/47/47 50/50/50 53/53/53
f 50/50/50 47/47/47 46/46/46
f 48/48/48 46/46/46 47/47/47
f 46/46/46 48/48/48 49/49/49
f 50/50/50 51/51/51 52/52/52
f 54/54/54 52/52/52 51/51/51
f 52/52/52 54/54/54 55/55/55
f 62/62/62 63/63/63 60/60/60
f 57/57/57 60/60/60 63/63/63
f 60/60/60 57/57/57 56/56/56
f 58/58/58 56/56/56 57/57/57
f 56/56/56 58/58/58 59/59/59
f 60/60/60 61/61/61 62/62/62
f 64/64/64 62/62/62 61/61/61
f 62/62/62 64/64/64 65/65/65
f 82/82/82 83/83/83 80/80/80
f 77/77/77 80/80/80 83/83/83
f 80/80/80 77/77/77 76/76/76
f 78/78/78 76/76/76 77/77/77
f 76/76/76 78/78/78 79/79/79
f 80/80/80 81/81/81 82/82/82
f 84/84/84 82/82/82 81/81/81
f 82/82/82 84/84/84 85/85/85
f 72/72/72 73/73/73 70/70/70
f 67/67/67 70/70/70 73/73/73
f 70/70/70 67/67/67 66/66/66
f 68/68/68 66/66/66 67/67/67
f 66/66/66 68/68/68 69/69/69
f 70/70/70 71/71/71 72/72/72
f 74/74/74 72/72/72 71/71/71
f 72/72/72 74/74/74 75/75/75
