mtllib SWORDLIGHT20_JAILPLATSUPPORT70.mtl
g ilPlatsupport70
usemtl BoardC
v -9170.573242 -1516.163818 3636.260742
vn 0.995287 0.000000 0.096976
vt 0.250000 0.873425
v -9184.908203 -1516.163818 3598.917725
vn 0.096976 0.000000 -0.995287
vt 0.500000 0.873425
v -9184.908203 -1109.394409 3598.917725
vn 0.674753 0.000000 -0.738044
vt 0.500000 0.000499
v -9170.573242 -1109.394409 3636.260742
vn 0.738044 0.000000 0.674753
vt 0.250000 0.000499
v -9222.250977 -1516.163818 3613.252441
vn -0.995287 0.000000 -0.096976
vt 0.750000 0.873425
v -9222.250977 -1109.394409 3613.252441
vn -0.738044 0.000000 -0.674753
vt 0.750000 0.000499
v -9207.916016 -1516.163818 3650.595459
vn -0.096976 0.000000 0.995287
vt 1.000000 0.873425
v -9207.916016 -1109.394409 3650.595459
vn -0.674753 0.000000 0.738044
vt 1.000000 0.000499
v -9207.916016 -1516.163818 3650.595459
vn -0.096976 0.000000 0.995287
vt -0.000000 0.873425
v -9207.916016 -1109.394409 3650.595459
vn -0.674753 0.000000 0.738044
vt -0.000000 0.000499
v -9115.411133 -1107.888550 3578.872070
vn 0.417211 -0.636952 -0.648249
vt 0.250000 0.873425
v -9106.517578 -1107.859253 3600.806396
vn 0.637719 -0.301159 0.708955
vt 0.500000 0.873425
v -9176.717773 -1184.296265 3630.730469
vn 0.758241 -0.628503 0.173366
vt 0.500000 0.000499
v -9185.611328 -1184.325317 3608.796387
vn -0.055698 -0.325259 -0.943983
vt 0.250000 0.000499
v -9138.346680 -1107.895630 3613.666260
vn -0.413094 0.643623 0.644285
vt 0.750000 0.873425
v -9176.941406 -1149.839233 3630.821045
vn 0.050350 0.332032 0.941923
vt 0.750000 0.000499
v -9147.240234 -1107.924927 3591.732178
vn -0.640078 0.308053 -0.703849
vt 1.000000 0.873425
v -9185.834961 -1149.868408 3608.886963
vn -0.758887 0.628392 -0.170920
vt 1.000000 0.000499
v -9147.240234 -1107.924927 3591.732178
vn -0.640078 0.308053 -0.703849
vt -0.000000 0.873425
v -9185.834961 -1149.868408 3608.886963
vn -0.758887 0.628392 -0.170920
vt -0.000000 0.000499
v -9156.233398 -1107.888672 3713.540527
vn 0.621569 -0.636953 0.456007
vt 0.250000 0.873425
v -9178.668945 -1107.859497 3721.078369
vn -0.746565 -0.301160 0.593248
vt 0.500000 0.873425
v -9204.251953 -1184.296265 3649.182129
vn -0.219332 -0.628503 0.746242
vt 0.500000 0.000499
v -9181.815430 -1184.325439 3641.644531
vn 0.945623 -0.325259 0.002035
vt 0.250000 0.000499
v -9189.562500 -1107.895874 3688.523193
vn -0.617864 0.643623 -0.451656
vt 0.750000 0.873425
v -9204.328125 -1149.839355 3648.953125
vn -0.943240 0.332032 -0.007247
vt 0.750000 0.000499
v -9167.125977 -1107.925049 3680.985352
vn 0.741612 0.308054 -0.595915
vt 1.000000 0.873425
v -9181.892578 -1149.868530 3641.415283
vn 0.216930 0.628393 -0.747037
vt 1.000000 0.000499
v -9167.125977 -1107.925049 3680.985352
vn 0.741612 0.308054 -0.595915
vt -0.000000 0.873425
v -9181.892578 -1149.868530 3641.415283
vn 0.216930 0.628393 -0.747037
vt -0.000000 0.000499
f 7/7/7 8/8/8 5/5/5
f 6/6/6 5/5/5 8/8/8
f 5/5/5 6/6/6 2/2/2
f 3/3/3 2/2/2 6/6/6
f 2/2/2 3/3/3 1/1/1
f 4/4/4 1/1/1 3/3/3
f 1/1/1 4/4/4 9/9/9
f 10/10/10 9/9/9 4/4/4
f 17/17/17 18/18/18 15/15/15
f 16/16/16 15/15/15 18/18/18
f 15/15/15 16/16/16 12/12/12
f 13/13/13 12/12/12 16/16/16
f 12/12/12 13/13/13 11/11/11
f 14/14/14 11/11/11 13/13/13
f 11/11/11 14/14/14 19/19/19
f 20/20/20 19/19/19 14/14/14
f 27/27/27 28/28/28 25/25/25
f 26/26/26 25/25/25 28/28/28
f 25/25/25 26/26/26 22/22/22
f 23/23/23 22/22/22 26/26/26
f 22/22/22 23/23/23 21/21/21
f 24/24/24 21/21/21 23/23/23
f 21/21/21 24/24/24 29/29/29
f 30/30/30 29/29/29 24/24/24
