mtllib SWORDLIGHT20_JAILPLATSUPPORT75.mtl
g ilPlatsupport75
usemtl BoardC
v -8482.036133 -1509.341675 3369.902588
vn 0.995287 0.000000 0.096976
vt 0.250000 0.873425
v -8496.371094 -1509.341675 3332.559570
vn 0.096976 0.000000 -0.995287
vt 0.500000 0.873425
v -8496.371094 -1109.394409 3332.559570
vn 0.674753 0.000000 -0.738044
vt 0.500000 0.000499
v -8482.036133 -1109.394409 3369.902588
vn 0.738044 0.000000 0.674753
vt 0.250000 0.000499
v -8533.713867 -1509.341675 3346.894287
vn -0.995287 0.000000 -0.096976
vt 0.750000 0.873425
v -8533.713867 -1109.394409 3346.894287
vn -0.738044 0.000000 -0.674753
vt 0.750000 0.000499
v -8519.378906 -1509.341675 3384.237305
vn -0.096976 0.000000 0.995287
vt 1.000000 0.873425
v -8519.378906 -1109.394409 3384.237305
vn -0.674753 0.000000 0.738044
vt 1.000000 0.000499
v -8519.378906 -1509.341675 3384.237305
vn -0.096976 0.000000 0.995287
vt -0.000000 0.873425
v -8519.378906 -1109.394409 3384.237305
vn -0.674753 0.000000 0.738044
vt -0.000000 0.000499
v -8465.411133 -1107.888672 3445.788330
vn 0.625525 -0.636953 0.450566
vt 0.250000 0.873425
v -8487.780273 -1107.859497 3453.521729
vn -0.741359 -0.301160 0.599741
vt 0.500000 0.873425
v -8513.989258 -1184.296265 3381.851563
vn -0.212811 -0.628503 0.748128
vt 0.500000 0.000499
v -8491.620117 -1184.325439 3374.118408
vn 0.945605 -0.325259 -0.006217
vt 0.250000 0.000499
v -8498.957031 -1107.895874 3421.062988
vn -0.621782 0.643623 -0.446246
vt 0.750000 0.873425
v -8514.068359 -1149.839355 3381.623047
vn -0.943268 0.332032 0.000984
vt 0.750000 0.000499
v -8476.586914 -1107.925049 3413.329590
vn 0.736383 0.308054 -0.602364
vt 1.000000 0.873425
v -8491.699219 -1149.868530 3373.889893
vn 0.210403 0.628393 -0.748901
vt 1.000000 0.000499
v -8476.586914 -1107.925049 3413.329590
vn 0.736383 0.308054 -0.602364
vt -0.000000 0.873425
v -8491.699219 -1149.868530 3373.889893
vn 0.210403 0.628393 -0.748901
vt -0.000000 0.000499
v -8594.382813 -1107.888550 3395.899414
vn -0.466786 -0.636952 0.613516
vt 0.250000 0.873425
v -8601.527344 -1107.859375 3373.334961
vn -0.580129 -0.301160 -0.756805
vt 0.500000 0.873425
v -8529.196289 -1184.296265 3349.010986
vn -0.742301 -0.628503 -0.232322
vt 0.500000 0.000499
v -8522.050781 -1184.325317 3371.575195
vn -0.018538 -0.325259 0.945443
vt 0.250000 0.000499
v -8568.787109 -1107.895752 3363.011963
vn 0.462370 0.643623 -0.609888
vt 0.750000 0.873425
v -8528.965820 -1149.839233 3348.938232
vn 0.023708 0.332032 -0.942970
vt 0.750000 0.000499
v -8561.642578 -1107.924927 3385.576416
vn 0.582881 0.308054 0.751899
vt 1.000000 0.873425
v -8521.820313 -1149.868408 3371.502686
vn 0.743137 0.628393 0.229935
vt 1.000000 0.000499
v -8561.642578 -1107.924927 3385.576416
vn 0.582881 0.308054 0.751899
vt -0.000000 0.873425
v -8521.820313 -1149.868408 3371.502686
vn 0.743137 0.628393 0.229935
vt -0.000000 0.000499
f 7/7/7 8/8/8 5/5/5
f 6/6/6 5/5/5 8/8/8
f 5/5/5 6/6/6 2/2/2
f 3/3/3 2/2/2 6/6/6
f 2/2/2 3/3/3 1/1/1
f 4/4/4 1/1/1 3/3/3
f 1/1/1 4/4/4 9/9/9
f 10/10/10 9/9/9 4/4/4
f 17/17/17 18/18/18 15/15/15
f 16/16/16 15/15/15 18/18/18
f 15/15/15 16/16/16 12/12/12
f 13/13/13 12/12/12 16/16/16
f 12/12/12 13/13/13 11/11/11
f 14/14/14 11/11/11 13/13/13
f 11/11/11 14/14/14 19/19/19
f 20/20/20 19/19/19 14/14/14
f 27/27/27 28/28/28 25/25/25
f 26/26/26 25/25/25 28/28/28
f 25/25/25 26/26/26 22/22/22
f 23/23/23 22/22/22 26/26/26
f 22/22/22 23/23/23 21/21/21
f 24/24/24 21/21/21 23/23/23
f 21/21/21 24/24/24 29/29/29
f 30/30/30 29/29/29 24/24/24
