mtllib SWORDLIGHT20_PS-AREA03_115.mtl
g PS-Area03_115
usemtl Colum4aUnder
v -3693.972900 -5425.082031 -2034.441650
vn -0.389960 -0.029416 0.920362
vt 0.648590 0.683556
v -4106.779297 -5415.961914 -2153.779785
vn -0.014653 0.010892 0.999833
vt 0.704176 0.681018
v -4064.170654 -5926.716797 -2087.330811
vn -0.118654 0.082879 0.989471
vt 0.699272 0.823190
v -3693.972900 -5940.817871 -2034.441650
vn -0.306569 -0.004845 0.951836
vt 0.648590 0.827107
v -4493.301270 -5941.030762 -2088.593750
vn 0.537168 0.041750 0.842441
vt 0.756235 0.827169
v -4488.968262 -5425.082031 -2082.598389
vn 0.601635 -0.048520 0.797296
vt 0.755639 0.683556
v -4488.968262 -6456.553711 -2082.598633
vn 0.504703 0.049541 0.861870
vt 0.755639 0.970658
v -4017.227783 -6437.259766 -2014.885986
vn -0.002301 0.652471 0.757810
vt 0.693773 0.965302
v -3693.972900 -6456.553711 -2034.441772
vn -0.195377 0.585954 0.786438
vt 0.648590 0.970658
v -3069.413574 -5425.082031 -1594.985962
vn -0.227038 -0.098857 0.968856
vt 0.564491 0.683556
v -3393.236572 -5416.949707 -1784.807495
vn -0.550892 -0.128656 0.824600
vt 0.608095 0.681293
v -3428.410156 -5945.775391 -1896.739014
vn -0.482273 -0.073096 0.872966
vt 0.612054 0.828494
v -3057.112061 -5978.106934 -1684.840454
vn -0.229427 -0.018219 0.973155
vt 0.562835 0.837486
v -3693.972900 -5940.817871 -2034.441650
vn -0.306569 -0.004845 0.951836
vt 0.648590 0.827107
v -3693.972900 -5425.082031 -2034.441650
vn -0.389960 -0.029416 0.920362
vt 0.648590 0.683556
v -3693.972900 -6456.553711 -2034.441772
vn -0.195377 0.585954 0.786438
vt 0.648590 0.970658
v -3475.885498 -6437.312012 -1918.815796
vn -0.438016 0.599072 0.670265
vt 0.617669 0.965316
v -3069.413574 -6456.553711 -1594.985962
vn -0.121505 0.652273 0.748182
vt 0.564491 0.970658
v -2477.800537 -5425.082031 -1817.330688
vn 0.722631 0.003176 0.691227
vt 0.484829 0.683556
v -2755.723145 -5425.210938 -1632.440552
vn 0.361390 -0.025146 0.932076
vt 0.522252 0.683592
v -2789.408691 -5987.735840 -1712.729248
vn 0.359865 0.010088 0.932950
vt 0.526788 0.840167
v -2557.467529 -5997.237793 -1888.174438
vn 0.721651 0.018357 0.692014
vt 0.495556 0.842811
v -3057.112061 -5978.106934 -1684.840454
vn -0.229427 -0.018219 0.973155
vt 0.562835 0.837486
v -3069.413574 -5425.082031 -1594.985962
vn -0.227038 -0.098857 0.968856
vt 0.564491 0.683556
v -3069.413574 -6456.553711 -1594.985962
vn -0.121505 0.652273 0.748182
vt 0.564491 0.970658
v -2755.729492 -6456.552246 -1632.319702
vn 0.278131 0.677078 0.681329
vt 0.522253 0.970658
v -2477.800537 -6456.553711 -1817.330811
vn 0.457383 0.794335 0.399792
vt 0.484829 0.970658
v -2254.292725 -5425.082031 -2396.350586
vn 0.990663 -0.048680 -0.127345
vt 0.454733 0.683556
v -2318.176025 -5421.698242 -2079.662842
vn 0.921762 -0.009243 0.387645
vt 0.463335 0.682614
v -2403.536133 -5984.687012 -2110.877930
vn 0.922171 0.022111 0.386151
vt 0.474829 0.839318
v -2343.914063 -5977.433105 -2388.027588
vn 0.983900 0.013193 -0.178230
vt 0.466800 0.837299
v -2557.467529 -5997.237793 -1888.174438
vn 0.721651 0.018357 0.692014
vt 0.495556 0.842811
v -2477.800537 -5425.082031 -1817.330688
vn 0.722631 0.003176 0.691227
vt 0.484829 0.683556
v -2477.800537 -6456.553711 -1817.330811
vn 0.457383 0.794335 0.399792
vt 0.484829 0.970658
v -2319.608154 -6454.641113 -2079.572510
vn 0.708405 0.670113 0.221611
vt 0.463528 0.970126
v -2254.292725 -6456.553711 -2396.350586
vn 0.728802 0.671054 -0.136142
vt 0.454733 0.970658
f 13/13/13 17/17/17 18/18/18
f 17/17/17 13/13/13 12/12/12
f 10/10/10 12/12/12 13/13/13
f 12/12/12 10/10/10 11/11/11
f 12/12/12 16/16/16 17/17/17
f 16/16/16 12/12/12 14/14/14
f 11/11/11 14/14/14 12/12/12
f 14/14/14 11/11/11 15/15/15
f 4/4/4 8/8/8 9/9/9
f 8/8/8 4/4/4 3/3/3
f 1/1/1 3/3/3 4/4/4
f 3/3/3 1/1/1 2/2/2
f 3/3/3 7/7/7 8/8/8
f 7/7/7 3/3/3 5/5/5
f 2/2/2 5/5/5 3/3/3
f 5/5/5 2/2/2 6/6/6
f 24/24/24 23/23/23 20/20/20
f 21/21/21 20/20/20 23/23/23
f 20/20/20 21/21/21 19/19/19
f 22/22/22 19/19/19 21/21/21
f 27/27/27 22/22/22 26/26/26
f 21/21/21 26/26/26 22/22/22
f 26/26/26 21/21/21 25/25/25
f 23/23/23 25/25/25 21/21/21
f 33/33/33 32/32/32 29/29/29
f 30/30/30 29/29/29 32/32/32
f 29/29/29 30/30/30 28/28/28
f 31/31/31 28/28/28 30/30/30
f 36/36/36 31/31/31 35/35/35
f 30/30/30 35/35/35 31/31/31
f 35/35/35 30/30/30 34/34/34
f 32/32/32 34/34/34 30/30/30
