mtllib SWORDLIGHT20_PS-AREA03_202.mtl
g PS-Area03_202
usemtl WallCUnder
v -2325.583008 -3499.222412 445.101105
vn -0.777529 0.078276 -0.623956
vt 0.464332 0.147508
v -2297.471680 -3924.186768 425.704193
vn -0.729861 -0.009345 -0.683532
vt 0.460547 0.265793
v -2505.031738 -3940.692139 551.930481
vn 0.054014 0.117420 -0.991612
vt 0.488496 0.270387
v -2500.000000 -3498.757324 600.000061
vn -0.657984 0.132455 -0.741291
vt 0.487818 0.147378
v -2190.755371 -3514.163818 181.249664
vn -0.852643 0.365941 -0.372943
vt 0.447358 0.147724
v -2212.647949 -3729.281006 162.199448
vn -0.991643 -0.001211 -0.129009
vt 0.446432 0.212763
v -2252.087891 -3722.684570 309.586456
vn -0.926282 -0.005588 -0.376790
vt 0.454436 0.209707
v -2255.515381 -3523.271729 320.824005
vn -0.887494 0.047975 -0.458315
vt 0.455845 0.147616
v -2185.772461 -3967.329102 167.540421
vn -0.985072 -0.060652 -0.161101
vt 0.445506 0.277802
f 1/1/1 8/8/8 7/7/7
f 5/5/5 7/7/7 8/8/8
f 7/7/7 5/5/5 6/6/6
f 1/1/1 3/3/3 4/4/4
f 3/3/3 1/1/1 2/2/2
f 7/7/7 2/2/2 1/1/1
f 2/2/2 7/7/7 9/9/9
f 6/6/6 9/9/9 7/7/7
