mtllib SWORDLIGHT20_BRIDGEHOUSING03.mtl
g BridgeHousing03
usemtl BoltPlate
v 187.853317 -3005.051025 -3268.606201
vn 0.879450 0.447213 0.162996
vt 0.001660 1.000000
v 171.658463 -3005.051025 -3181.226563
vn 0.439725 0.894427 0.081498
vt 2.006518 1.000000
v 171.658447 -3039.855469 -3181.226563
vn 0.879450 -0.447214 0.162996
vt 2.006518 0.000000
v 187.853317 -3039.855469 -3268.606201
vn 0.439725 -0.894427 0.081498
vt 0.001660 0.000000
v 171.658463 -3005.051025 -3181.226563
vn -0.182233 0.000001 0.983255
vt 0.999500 0.000502
v 165.872299 -3010.518066 -3182.299072
vn -0.182235 0.000002 0.983255
vt 0.912297 0.104286
v 165.872299 -3034.420654 -3182.298828
vn -0.182233 -0.000001 0.983255
vt 0.912297 0.906305
v 171.658447 -3039.855469 -3181.226563
vn -0.182234 -0.000004 0.983255
vt 0.999500 0.999501
v 165.872299 -3010.518066 -3182.299072
vn -0.879450 -0.447213 -0.162996
vt 0.243290 1.000000
v 182.067184 -3010.518066 -3269.678711
vn -0.439725 -0.894427 -0.081498
vt 0.757929 1.000000
v 182.067184 -3034.420654 -3269.678711
vn -0.879450 0.447214 -0.162996
vt 0.757929 0.000000
v 165.872299 -3034.420654 -3182.298828
vn -0.439725 0.894427 -0.081498
vt 0.243290 0.000000
v 182.067184 -3010.518066 -3269.678711
vn 0.182235 0.000000 -0.983255
vt 0.912297 0.104286
v 187.853317 -3005.051025 -3268.606201
vn 0.182235 0.000000 -0.983255
vt 0.999500 0.000502
v 187.853317 -3039.855469 -3268.606201
vn 0.182235 0.000000 -0.983255
vt 0.999500 0.999500
v 182.067184 -3034.420654 -3269.678711
vn 0.182235 0.000000 -0.983255
vt 0.912297 0.906305
v 187.853317 -3039.855469 -3268.606201
vn 0.439725 -0.894427 0.081498
vt 0.000000 0.749971
v 171.658447 -3039.855469 -3181.226563
vn 0.879450 -0.447214 0.162996
vt 1.000000 0.749971
v 5.263712 -3039.855469 -3212.065918
vn -0.439725 -0.894427 -0.081498
vt 1.000000 0.267305
v 21.458582 -3039.855469 -3299.445801
vn -0.879450 -0.447213 -0.162996
vt 0.000000 0.267305
v 10.566871 -3034.420654 -3211.083008
vn -0.182238 -0.000003 0.983254
vt 0.096937 0.906303
v 5.263712 -3039.855469 -3212.065918
vn -0.182239 -0.000002 0.983254
vt 0.000500 0.999499
v 165.872299 -3034.420654 -3182.298828
vn -0.439725 0.894427 -0.081498
vt 0.000000 0.749971
v 182.067184 -3034.420654 -3269.678711
vn -0.879450 0.447214 -0.162996
vt 1.000000 0.749971
v 26.761747 -3034.420654 -3298.462891
vn 0.439725 0.894427 0.081498
vt 1.000000 0.257585
v 10.566871 -3034.420654 -3211.083008
vn 0.879450 0.447213 0.162996
vt 0.000000 0.257585
v 21.458582 -3039.855469 -3299.445801
vn 0.182235 0.000000 -0.983255
vt 0.000500 0.999499
v 26.761747 -3034.420654 -3298.462891
vn 0.182235 0.000000 -0.983255
vt 0.096937 0.906303
v 21.458582 -3039.855469 -3299.445801
vn -0.879450 -0.447213 -0.162996
vt 0.001660 1.000000
v 5.263712 -3039.855469 -3212.065918
vn -0.439725 -0.894427 -0.081498
vt 2.006518 1.000000
v 5.263729 -3005.051025 -3212.065918
vn -0.879450 0.447214 -0.162996
vt 2.006518 0.000000
v 21.458601 -3005.051025 -3299.445801
vn -0.439725 0.894427 -0.081498
vt 0.001660 0.000000
v 10.566891 -3010.518066 -3211.083252
vn -0.182239 0.000001 0.983254
vt 0.096937 0.104285
v 5.263729 -3005.051025 -3212.065918
vn -0.182236 0.000002 0.983255
vt 0.000500 0.000499
v 10.566871 -3034.420654 -3211.083008
vn 0.879450 0.447213 0.162996
vt 0.243290 1.000000
v 26.761747 -3034.420654 -3298.462891
vn 0.439725 0.894427 0.081498
vt 0.757929 1.000000
v 26.761757 -3010.518066 -3298.462891
vn 0.879450 -0.447214 0.162996
vt 0.757929 0.000000
v 10.566891 -3010.518066 -3211.083252
vn 0.439725 -0.894427 0.081498
vt 0.243290 0.000000
v 21.458601 -3005.051025 -3299.445801
vn 0.182235 0.000000 -0.983255
vt 0.000500 0.000499
v 26.761757 -3010.518066 -3298.462891
vn 0.182235 0.000000 -0.983255
vt 0.096937 0.104285
v 21.458601 -3005.051025 -3299.445801
vn -0.439725 0.894427 -0.081498
vt 0.000000 0.749971
v 5.263729 -3005.051025 -3212.065918
vn -0.879450 0.447214 -0.162996
vt 1.000000 0.749971
v 171.658463 -3005.051025 -3181.226563
vn 0.439725 0.894427 0.081498
vt 1.000000 0.267305
v 187.853317 -3005.051025 -3268.606201
vn 0.879450 0.447213 0.162996
vt 0.000000 0.267305
v 10.566891 -3010.518066 -3211.083252
vn 0.439725 -0.894427 0.081498
vt 0.000000 0.749971
v 26.761757 -3010.518066 -3298.462891
vn 0.879450 -0.447214 0.162996
vt 1.000000 0.749971
v 182.067184 -3010.518066 -3269.678711
vn -0.439725 -0.894427 -0.081498
vt 1.000000 0.257585
v 165.872299 -3010.518066 -3182.299072
vn -0.879450 -0.447213 -0.162996
vt 0.000000 0.257585
f 1/1/1 3/3/3 4/4/4
f 3/3/3 1/1/1 2/2/2
f 5/5/5 7/7/7 8/8/8
f 7/7/7 5/5/5 6/6/6
f 34/34/34 6/6/6 5/5/5
f 6/6/6 34/34/34 33/33/33
f 22/22/22 33/33/33 34/34/34
f 33/33/33 22/22/22 21/21/21
f 21/21/21 8/8/8 7/7/7
f 8/8/8 21/21/21 22/22/22
f 13/13/13 15/15/15 16/16/16
f 15/15/15 13/13/13 14/14/14
f 40/40/40 14/14/14 13/13/13
f 14/14/14 40/40/40 39/39/39
f 28/28/28 39/39/39 40/40/40
f 39/39/39 28/28/28 27/27/27
f 27/27/27 16/16/16 15/15/15
f 16/16/16 27/27/27 28/28/28
f 11/11/11 9/9/9 10/10/10
f 9/9/9 11/11/11 12/12/12
f 19/19/19 17/17/17 18/18/18
f 17/17/17 19/19/19 20/20/20
f 25/25/25 23/23/23 24/24/24
f 23/23/23 25/25/25 26/26/26
f 31/31/31 29/29/29 30/30/30
f 29/29/29 31/31/31 32/32/32
f 37/37/37 35/35/35 36/36/36
f 35/35/35 37/37/37 38/38/38
f 43/43/43 41/41/41 42/42/42
f 41/41/41 43/43/43 44/44/44
f 47/47/47 45/45/45 46/46/46
f 45/45/45 47/47/47 48/48/48
