mtllib SWORDLIGHT20_JAILCOT06.mtl
g JailCot06
usemtl BoardA
v -8409.790039 -1950.091064 4853.022949
vn -0.072281 -0.666668 0.741842
vt 0.609531 0.999500
v -8499.084961 -1950.091064 4620.401367
vn -0.908569 -0.408247 -0.088527
vt 0.609531 0.000499
v -8407.314453 -1950.091064 4585.173828
vn 0.072281 -0.666665 -0.741845
vt 1.000689 0.000500
v -8318.019531 -1950.091064 4817.795410
vn 0.908568 -0.408249 0.088526
vt 1.000689 0.999501
v -8409.790039 -1930.951904 4853.022949
vn -0.502930 0.666668 0.550105
vt 0.500689 0.999500
v -8318.019531 -1930.951904 4817.795410
vn 0.673739 0.408248 0.615962
vt 0.109531 0.999501
v -8407.314453 -1930.951782 4585.174316
vn 0.502930 0.666669 -0.550104
vt 0.109531 0.000500
v -8499.084961 -1930.951782 4620.401367
vn -0.673737 0.408255 -0.615960
vt 0.500689 0.000499
v -8409.790039 -1950.091064 4853.022949
vn -0.072281 -0.666668 0.741842
vt 0.000499 0.999500
v -8318.019531 -1930.951904 4817.795410
vn 0.673739 0.408248 0.615962
vt 0.999500 0.000500
v -8409.790039 -1930.951904 4853.022949
vn -0.502930 0.666668 0.550105
vt 0.000499 0.000500
v -8318.019531 -1950.091064 4817.795410
vn 0.908568 -0.408249 0.088526
vt 0.000689 0.999501
v -8407.314453 -1950.091064 4585.173828
vn 0.072281 -0.666665 -0.741845
vt 0.000689 0.000500
v -8407.314453 -1950.091064 4585.173828
vn 0.072281 -0.666665 -0.741845
vt 0.999501 0.999500
v -8499.084961 -1950.091064 4620.401367
vn -0.908569 -0.408247 -0.088527
vt 0.000500 0.999500
v -8499.084961 -1930.951782 4620.401367
vn -0.673737 0.408255 -0.615960
vt 0.000500 0.000500
v -8407.314453 -1930.951782 4585.174316
vn 0.502930 0.666669 -0.550104
vt 0.999501 0.000500
f 10/10/10 9/9/9 4/4/4
f 9/9/9 10/10/10 11/11/11
f 1/1/1 3/3/3 4/4/4
f 3/3/3 1/1/1 2/2/2
f 5/5/5 2/2/2 1/1/1
f 2/2/2 5/5/5 8/8/8
f 7/7/7 8/8/8 5/5/5
f 5/5/5 6/6/6 7/7/7
f 12/12/12 7/7/7 6/6/6
f 7/7/7 12/12/12 13/13/13
f 16/16/16 14/14/14 15/15/15
f 14/14/14 16/16/16 17/17/17
usemtl chain
v -8491.337891 -1861.010742 4636.871582
vn 0.618213 0.299244 0.726819
vt 3.996503 0.028470
v -8428.460938 -1935.325195 4613.985840
vn 0.777559 0.598489 0.192907
vt -2.996503 0.028468
v -8494.756836 -1861.010742 4627.478027
vn 0.471647 0.598489 -0.647580
vt 3.996503 0.737095
v -8431.879883 -1935.325195 4604.592285
vn 0.006390 0.299245 -0.954155
vt -2.996503 0.737093
v -8432.974609 -1936.374512 4604.991211
vn -0.735637 -0.473147 -0.484738
vt -2.996503 0.737093
v -8429.555664 -1936.374512 4614.384766
vn -0.251948 -0.473147 0.844188
vt -2.996503 0.028468
v -8495.852539 -1862.060059 4627.876465
vn -0.735637 -0.473147 -0.484738
vt 3.996503 0.737095
v -8492.433594 -1862.060059 4637.270020
vn -0.251948 -0.473147 0.844188
vt 3.996503 0.028470
v -8494.756836 -1861.010742 4627.478027
vn 0.471647 0.598489 -0.647580
vt 3.996504 0.967707
v -8431.879883 -1935.325195 4604.592285
vn 0.006390 0.299245 -0.954155
vt -3.000355 0.967708
v -8495.852539 -1862.060059 4627.876465
vn -0.735637 -0.473147 -0.484738
vt 3.996504 0.785893
v -8432.974609 -1936.374512 4604.991211
vn -0.735637 -0.473147 -0.484738
vt -3.000355 0.785894
v -8428.460938 -1935.325195 4613.985840
vn 0.777559 0.598489 0.192907
vt -3.000355 0.967707
v -8491.337891 -1861.010742 4636.871582
vn 0.618213 0.299244 0.726819
vt 3.996504 0.967707
v -8429.555664 -1936.374512 4614.384766
vn -0.251948 -0.473147 0.844188
vt -3.000355 0.785893
v -8492.433594 -1862.060059 4637.270020
vn -0.251948 -0.473147 0.844188
vt 3.996504 0.785892
v -8501.258789 -1859.630493 4635.998047
vn -0.471648 -0.598489 0.647579
vt 3.996503 0.028470
v -8438.380859 -1933.944946 4613.112305
vn -0.006389 -0.299244 0.954155
vt -2.996503 0.028468
v -8494.278320 -1852.941528 4633.457031
vn 0.618214 0.299245 0.726818
vt 3.996503 0.737095
v -8431.400391 -1927.255981 4610.571289
vn 0.777559 0.598488 0.192907
vt -2.996503 0.737093
v -8431.936523 -1927.255981 4609.097656
vn 0.251948 0.473147 -0.844188
vt -2.996503 0.737093
v -8438.917969 -1933.944946 4611.638672
vn -0.735637 -0.473146 -0.484738
vt -2.996503 0.028468
v -8494.814453 -1852.941528 4631.983398
vn 0.251948 0.473147 -0.844189
vt 3.996503 0.737095
v -8501.794922 -1859.630493 4634.524414
vn -0.735637 -0.473146 -0.484738
vt 3.996503 0.028470
v -8494.278320 -1852.941528 4633.457031
vn 0.618214 0.299245 0.726818
vt 3.996504 0.967707
v -8431.400391 -1927.255981 4610.571289
vn 0.777559 0.598488 0.192907
vt -3.000355 0.967708
v -8494.814453 -1852.941528 4631.983398
vn 0.251948 0.473147 -0.844189
vt 3.996504 0.785893
v -8431.936523 -1927.255981 4609.097656
vn 0.251948 0.473147 -0.844188
vt -3.000355 0.785894
v -8438.380859 -1933.944946 4613.112305
vn -0.006389 -0.299244 0.954155
vt -3.000355 0.967707
v -8501.258789 -1859.630493 4635.998047
vn -0.471648 -0.598489 0.647579
vt 3.996504 0.967707
v -8438.917969 -1933.944946 4611.638672
vn -0.735637 -0.473146 -0.484738
vt -3.000355 0.785893
v -8501.794922 -1859.630493 4634.524414
vn -0.735637 -0.473146 -0.484738
vt 3.996504 0.785892
v -8414.731445 -1861.010742 4847.347168
vn 0.618213 0.299244 0.726819
vt 3.996503 0.028470
v -8351.853516 -1935.325195 4824.461914
vn 0.777559 0.598489 0.192907
vt -2.996503 0.028468
v -8418.150391 -1861.010742 4837.953613
vn 0.471647 0.598489 -0.647580
vt 3.996503 0.737095
v -8355.272461 -1935.325195 4815.068359
vn 0.006390 0.299245 -0.954155
vt -2.996503 0.737093
v -8356.368164 -1936.374512 4815.466797
vn -0.735637 -0.473147 -0.484738
vt -2.996503 0.737093
v -8352.949219 -1936.374512 4824.860352
vn -0.251948 -0.473147 0.844188
vt -2.996503 0.028468
v -8419.245117 -1862.060059 4838.352539
vn -0.735637 -0.473147 -0.484738
vt 3.996503 0.737095
v -8415.826172 -1862.060059 4847.746094
vn -0.251948 -0.473147 0.844188
vt 3.996503 0.028470
v -8418.150391 -1861.010742 4837.953613
vn 0.471647 0.598489 -0.647580
vt 3.996504 0.967707
v -8355.272461 -1935.325195 4815.068359
vn 0.006390 0.299245 -0.954155
vt -3.000355 0.967708
v -8419.245117 -1862.060059 4838.352539
vn -0.735637 -0.473147 -0.484738
vt 3.996504 0.785893
v -8356.368164 -1936.374512 4815.466797
vn -0.735637 -0.473147 -0.484738
vt -3.000355 0.785894
v -8351.853516 -1935.325195 4824.461914
vn 0.777559 0.598489 0.192907
vt -3.000355 0.967707
v -8414.731445 -1861.010742 4847.347168
vn 0.618213 0.299244 0.726819
vt 3.996504 0.967707
v -8352.949219 -1936.374512 4824.860352
vn -0.251948 -0.473147 0.844188
vt -3.000355 0.785893
v -8415.826172 -1862.060059 4847.746094
vn -0.251948 -0.473147 0.844188
vt 3.996504 0.785892
v -8424.652344 -1859.630493 4846.473633
vn -0.471648 -0.598489 0.647579
vt 3.996503 0.028470
v -8361.774414 -1933.944946 4823.587891
vn -0.006389 -0.299244 0.954155
vt -2.996503 0.028468
v -8417.670898 -1852.941528 4843.932617
vn 0.618214 0.299245 0.726818
vt 3.996503 0.737095
v -8354.793945 -1927.255981 4821.047363
vn 0.777559 0.598488 0.192907
vt -2.996503 0.737093
v -8355.330078 -1927.255981 4819.573730
vn 0.251948 0.473147 -0.844188
vt -2.996503 0.737093
v -8362.310547 -1933.944946 4822.114258
vn -0.735637 -0.473146 -0.484738
vt -2.996503 0.028468
v -8418.208008 -1852.941528 4842.459473
vn 0.251948 0.473147 -0.844189
vt 3.996503 0.737095
v -8425.188477 -1859.630493 4845.000000
vn -0.735637 -0.473146 -0.484738
vt 3.996503 0.028470
v -8417.670898 -1852.941528 4843.932617
vn 0.618214 0.299245 0.726818
vt 3.996504 0.967707
v -8354.793945 -1927.255981 4821.047363
vn 0.777559 0.598488 0.192907
vt -3.000355 0.967708
v -8418.208008 -1852.941528 4842.459473
vn 0.251948 0.473147 -0.844189
vt 3.996504 0.785893
v -8355.330078 -1927.255981 4819.573730
vn 0.251948 0.473147 -0.844188
vt -3.000355 0.785894
v -8361.774414 -1933.944946 4823.587891
vn -0.006389 -0.299244 0.954155
vt -3.000355 0.967707
v -8424.652344 -1859.630493 4846.473633
vn -0.471648 -0.598489 0.647579
vt 3.996504 0.967707
v -8362.310547 -1933.944946 4822.114258
vn -0.735637 -0.473146 -0.484738
vt -3.000355 0.785893
v -8425.188477 -1859.630493 4845.000000
vn -0.735637 -0.473146 -0.484738
vt 3.996504 0.785892
f 18/18/18 19/19/19 20/20/20
f 21/21/21 20/20/20 19/19/19
f 22/22/22 23/23/23 24/24/24
f 25/25/25 24/24/24 23/23/23
f 26/26/26 27/27/27 28/28/28
f 29/29/29 28/28/28 27/27/27
f 30/30/30 31/31/31 32/32/32
f 33/33/33 32/32/32 31/31/31
f 34/34/34 35/35/35 36/36/36
f 37/37/37 36/36/36 35/35/35
f 38/38/38 39/39/39 40/40/40
f 41/41/41 40/40/40 39/39/39
f 42/42/42 43/43/43 44/44/44
f 45/45/45 44/44/44 43/43/43
f 46/46/46 47/47/47 48/48/48
f 49/49/49 48/48/48 47/47/47
f 50/50/50 51/51/51 52/52/52
f 53/53/53 52/52/52 51/51/51
f 54/54/54 55/55/55 56/56/56
f 57/57/57 56/56/56 55/55/55
f 58/58/58 59/59/59 60/60/60
f 61/61/61 60/60/60 59/59/59
f 62/62/62 63/63/63 64/64/64
f 65/65/65 64/64/64 63/63/63
f 66/66/66 67/67/67 68/68/68
f 69/69/69 68/68/68 67/67/67
f 70/70/70 71/71/71 72/72/72
f 73/73/73 72/72/72 71/71/71
f 74/74/74 75/75/75 76/76/76
f 77/77/77 76/76/76 75/75/75
f 78/78/78 79/79/79 80/80/80
f 81/81/81 80/80/80 79/79/79
