mtllib SWORDLIGHT20_PS-AREA03_203.mtl
g PS-Area03_203
usemtl Column4b
v -5259.826660 -2945.814941 -2709.287109
vn -0.206038 0.563533 0.799987
vt -0.001804 0.999994
v -5266.985840 -2764.269775 -2763.390869
vn -0.243909 0.216717 0.945274
vt -0.001804 0.751869
v -5395.649414 -2762.958984 -2786.574219
vn -0.125425 0.216786 0.968128
vt 0.250587 0.751869
v -5389.532715 -2942.951416 -2733.363525
vn -0.106339 0.575045 0.811182
vt 0.250587 0.999994
v -5264.166992 -2528.093994 -2803.287109
vn -0.237179 0.015431 0.971343
vt -0.001804 0.503744
v -5514.519531 -2529.634277 -2825.796631
vn -0.082084 0.013296 0.996537
vt 0.502978 0.503744
v -5523.577148 -2763.165039 -2798.510986
vn -0.090195 0.198983 0.975844
vt 0.501783 0.751869
v -5519.108887 -2941.524658 -2746.325439
vn -0.075869 0.582094 0.809574
vt 0.502978 0.999994
v -5545.181152 -2053.693604 -2814.247559
vn -0.065145 0.426131 0.902313
vt 0.502978 -0.000006
v -5521.756836 -2259.171387 -2801.783203
vn -0.089478 -0.020241 0.995783
vt 0.501783 0.251869
v -5394.435547 -2258.607422 -2788.755615
vn -0.141962 -0.026417 0.989520
vt 0.250587 0.251869
v -5415.150879 -2054.274170 -2801.708496
vn -0.225403 0.388096 0.893630
vt 0.250587 -0.000006
v -5266.320313 -2257.906006 -2765.777100
vn -0.232807 -0.068526 0.970106
vt -0.001804 0.251869
v -5279.211426 -1993.692871 -2768.577637
vn -0.484233 0.176017 0.857051
vt -0.001804 -0.000006
v -5765.565430 -2106.467773 -2850.281250
vn -0.434797 0.160869 0.886043
vt 0.998196 -0.000006
v -5768.626465 -2260.993896 -2842.526367
vn -0.442042 0.029212 0.896519
vt 0.998196 0.251869
v -5650.408203 -2261.608643 -2811.802734
vn -0.155308 -0.000018 0.987866
vt 0.750587 0.251869
v -5677.269531 -2054.469727 -2823.166260
vn -0.240492 0.312938 0.918822
vt 0.750587 -0.000006
v -5767.764648 -2540.098389 -2840.637451
vn -0.445385 0.003152 0.895334
vt 0.998196 0.503744
v -5651.621582 -2765.959961 -2809.621338
vn -0.159362 0.188405 0.969076
vt 0.750587 0.751869
v -5648.376953 -2942.770508 -2759.262451
vn -0.171471 0.566541 0.805996
vt 0.750587 0.999994
v -5768.475586 -2766.192627 -2842.515137
vn -0.453979 0.139954 0.879952
vt 0.998196 0.751869
v -5793.297363 -2967.087158 -2788.800537
vn -0.357509 0.692265 0.626862
vt 0.998196 0.999994
v -5765.565430 -2106.467773 -2850.281250
vn -0.434797 0.160869 0.886043
vt -0.008124 0.003333
v -5840.220703 -2047.484009 -2904.828125
vn -0.549633 0.294002 0.781963
vt 0.240001 0.003333
v -5864.649414 -2252.402100 -2917.665527
vn -0.699825 -0.002294 0.714310
vt 0.240001 0.251458
v -5768.626465 -2260.993896 -2842.526367
vn -0.442042 0.029212 0.896519
vt -0.008124 0.251458
v -5959.225586 -2007.773438 -3036.340332
vn -0.611276 0.561100 0.558130
vt 0.488126 0.003333
v -5945.183594 -2244.952881 -3019.015137
vn -0.810244 -0.030045 0.585322
vt 0.489064 0.251458
v -5933.924316 -2511.544922 -3028.463379
vn -0.805895 -0.002829 0.592052
vt 0.488127 0.499583
v -5767.764648 -2540.098389 -2840.637451
vn -0.445385 0.003152 0.895334
vt -0.008123 0.499583
v -6068.589355 -2521.553467 -3244.033691
vn -0.970620 -0.003843 0.240586
vt 0.991876 0.499583
v -6016.935059 -2247.765869 -3128.369629
vn -0.866147 -0.045839 0.497683
vt 0.740001 0.251458
v -6066.943848 -2253.300049 -3245.236816
vn -0.964767 -0.031631 0.261198
vt 0.991876 0.251458
v -6032.613281 -1978.982544 -3120.490967
vn -0.846514 -0.064866 0.528401
vt 0.740001 0.003333
v -6085.423340 -1986.173584 -3241.440186
vn -0.957312 -0.076647 0.278711
vt 0.991876 0.003333
v -6096.964355 -2940.081543 -3237.159912
vn -0.861304 0.447000 0.241551
vt 0.991877 1.003333
v -6046.353516 -2938.264893 -3118.447998
vn -0.798483 0.441068 0.409737
vt 0.740002 1.003333
v -6015.116211 -2754.075928 -3130.507324
vn -0.871203 0.117352 0.476690
vt 0.740002 0.751458
v -6065.076660 -2757.477783 -3246.015137
vn -0.965615 0.081342 0.246925
vt 0.991877 0.751458
v -5975.274414 -2935.722900 -3005.363281
vn -0.732517 0.470239 0.492234
vt 0.488127 1.003333
v -5942.456055 -2751.884766 -3022.221680
vn -0.803366 0.119560 0.583359
vt 0.489064 0.751458
v -5862.831055 -2758.712158 -2919.803223
vn -0.719906 0.148652 0.677966
vt 0.240002 0.751458
v -5768.475586 -2766.192627 -2842.515137
vn -0.453979 0.139954 0.879952
vt -0.008123 0.751458
v -5898.039063 -2940.506836 -2897.255859
vn -0.632918 0.495623 0.594788
vt 0.240002 1.003333
v -5793.297363 -2967.087158 -2788.800537
vn -0.357509 0.692265 0.626862
vt -0.008123 1.003333
v -6085.423340 -1986.173584 -3241.440186
vn -0.957312 -0.076647 0.278711
vt -0.008124 0.003333
v -6109.078613 -1985.979248 -3366.431152
vn -0.988904 -0.100081 0.109786
vt 0.240001 0.003333
v -6082.251465 -2254.014404 -3369.124268
vn -0.995467 -0.093296 -0.018502
vt 0.240001 0.251458
v -6066.943848 -2253.300049 -3245.236816
vn -0.964767 -0.031631 0.261198
vt -0.008124 0.251458
v -6113.617676 -1984.035767 -3493.251709
vn -0.991071 -0.129953 -0.029835
vt 0.488126 0.003333
v -6077.082031 -2255.462402 -3496.086670
vn -0.989631 -0.130408 -0.060209
vt 0.489064 0.251458
v -6042.259766 -2522.545898 -3499.601074
vn -0.995188 -0.003649 -0.097915
vt 0.488127 0.499583
v -6068.589355 -2521.553467 -3244.033691
vn -0.970620 -0.003843 0.240586
vt -0.008123 0.499583
v -6002.220215 -2558.283203 -3749.733887
vn -0.927809 0.005108 -0.373021
vt 0.991876 0.499583
v -6065.659180 -2263.196777 -3622.178711
vn -0.978404 -0.138536 -0.153403
vt 0.740001 0.251458
v -6030.825684 -2270.995850 -3751.373779
vn -0.921754 -0.121240 -0.368334
vt 0.991876 0.251458
v -6109.078613 -1985.979248 -3619.689941
vn -0.979043 -0.152128 -0.135393
vt 0.740001 0.003333
v -6075.997559 -1989.100220 -3752.180420
vn -0.919734 -0.146195 -0.364302
vt 0.991876 0.003333
v -6093.363770 -2968.429688 -3768.667969
vn -0.621247 0.721513 -0.305728
vt 0.991877 1.003333
v -6112.423828 -2934.511475 -3614.266357
vn -0.834725 0.537002 -0.121914
vt 0.740002 1.003333
v -6060.008301 -2763.464355 -3623.155273
vn -0.963962 0.220562 -0.148764
vt 0.740002 0.751458
v -6029.830566 -2776.943115 -3747.337891
vn -0.896119 0.221835 -0.384395
vt 0.991877 0.751458
v -6111.919434 -2927.795166 -3489.240723
vn -0.862806 0.505463 -0.008578
vt 0.488127 1.003333
v -6068.605469 -2753.330322 -3497.551270
vn -0.981991 0.175163 -0.070797
vt 0.489064 0.751458
v -6076.600586 -2754.281982 -3370.100586
vn -0.989471 0.144007 0.014452
vt 0.240002 0.751458
v -6065.076660 -2757.477783 -3246.015137
vn -0.965615 0.081342 0.246925
vt -0.008123 0.751458
v -6112.791504 -2933.121826 -3362.147949
vn -0.884122 0.461207 0.074937
vt 0.240002 1.003333
v -6096.964355 -2940.081543 -3237.159912
vn -0.861304 0.447000 0.241551
vt -0.008123 1.003333
v -6075.997559 -1989.100220 -3752.180420
vn -0.919734 -0.146195 -0.364302
vt -0.008124 0.003333
v -5994.911621 -1990.689087 -3897.156738
vn -0.829698 -0.134483 -0.541771
vt 0.240001 0.003333
v -5955.422363 -2272.636963 -3887.645508
vn -0.834488 -0.122301 -0.537282
vt 0.240001 0.251458
v -6030.825684 -2270.995850 -3751.373779
vn -0.921754 -0.121240 -0.368334
vt -0.008124 0.251459
v -5892.366699 -1991.100586 -4032.454102
vn -0.767187 -0.118684 -0.630348
vt 0.488126 0.003333
v -5861.861816 -2268.707275 -4015.813721
vn -0.776611 -0.115739 -0.619257
vt 0.489064 0.251458
v -5829.647461 -2550.886230 -4006.535156
vn -0.795122 -0.013038 -0.606309
vt 0.488127 0.499583
v -6002.220215 -2558.283203 -3749.733887
vn -0.927809 0.005108 -0.373021
vt -0.008123 0.499584
v -5670.753418 -2506.910889 -4204.442383
vn -0.931912 -0.017306 -0.362271
vt 0.991876 0.499583
v -5772.556152 -2259.793701 -4120.698242
vn -0.760847 -0.102710 -0.640752
vt 0.740001 0.251458
v -5709.773438 -2275.854736 -4202.169922
vn -0.926416 -0.108966 -0.360388
vt 0.991876 0.251458
v -5794.911621 -1990.689087 -4135.907715
vn -0.729086 -0.098844 -0.677247
vt 0.740001 0.003333
v -5725.523438 -1998.296143 -4210.586914
vn -0.941791 0.243217 -0.232108
vt 0.991876 0.003333
v -5735.597656 -2901.961914 -4191.279785
vn -0.847935 0.237844 -0.473747
vt 0.991877 1.003333
v -5792.162598 -2956.494385 -4122.639160
vn -0.780968 0.328080 -0.531463
vt 0.740002 1.003333
v -5774.225098 -2773.182373 -4103.578125
vn -0.792817 0.121344 -0.597258
vt 0.740002 0.751458
v -5707.400879 -2766.752197 -4197.830078
vn -0.868026 0.133904 -0.478123
vt 0.991877 0.751458
v -5889.431641 -2966.959717 -4012.313965
vn -0.655627 0.477976 -0.584544
vt 0.488127 1.003333
v -5864.366211 -2786.256592 -3990.133545
vn -0.783679 0.127698 -0.607899
vt 0.489064 0.751458
v -5957.092285 -2786.025391 -3870.525391
vn -0.794606 0.186904 -0.577640
vt 0.240002 0.751458
v -6029.830566 -2776.943115 -3747.337891
vn -0.896119 0.221835 -0.384395
vt -0.008123 0.751459
v -5988.687500 -2961.557617 -3902.274414
vn -0.643045 0.543730 -0.539306
vt 0.240002 1.003333
v -6093.363770 -2968.429688 -3768.667969
vn -0.621247 0.721513 -0.305728
vt -0.008123 1.003333
f 8/8/8 4/4/4 3/3/3
f 1/1/1 3/3/3 4/4/4
f 3/3/3 1/1/1 2/2/2
f 2/2/2 5/5/5 3/3/3
f 11/11/11 13/13/13 14/14/14
f 13/13/13 11/11/11 5/5/5
f 6/6/6 5/5/5 11/11/11
f 5/5/5 6/6/6 3/3/3
f 7/7/7 3/3/3 6/6/6
f 3/3/3 7/7/7 8/8/8
f 20/20/20 8/8/8 7/7/7
f 8/8/8 20/20/20 21/21/21
f 23/23/23 21/21/21 20/20/20
f 7/7/7 6/6/6 20/20/20
f 10/10/10 6/6/6 11/11/11
f 20/20/20 22/22/22 23/23/23
f 22/22/22 20/20/20 19/19/19
f 6/6/6 19/19/19 20/20/20
f 19/19/19 6/6/6 17/17/17
f 10/10/10 17/17/17 6/6/6
f 17/17/17 10/10/10 9/9/9
f 11/11/11 9/9/9 10/10/10
f 9/9/9 11/11/11 12/12/12
f 14/14/14 12/12/12 11/11/11
f 9/9/9 18/18/18 17/17/17
f 17/17/17 16/16/16 19/19/19
f 16/16/16 17/17/17 15/15/15
f 18/18/18 15/15/15 17/17/17
f 33/33/33 35/35/35 36/36/36
f 35/35/35 33/33/33 28/28/28
f 29/29/29 28/28/28 33/33/33
f 28/28/28 29/29/29 26/26/26
f 30/30/30 26/26/26 29/29/29
f 26/26/26 30/30/30 31/31/31
f 43/43/43 31/31/31 30/30/30
f 31/31/31 43/43/43 44/44/44
f 46/46/46 44/44/44 43/43/43
f 30/30/30 29/29/29 33/33/33
f 30/30/30 42/42/42 43/43/43
f 26/26/26 25/25/25 28/28/28
f 26/26/26 24/24/24 25/25/25
f 24/24/24 26/26/26 27/27/27
f 31/31/31 27/27/27 26/26/26
f 43/43/43 45/45/45 46/46/46
f 45/45/45 43/43/43 41/41/41
f 42/42/42 41/41/41 43/43/43
f 41/41/41 42/42/42 39/39/39
f 30/30/30 39/39/39 42/42/42
f 39/39/39 30/30/30 32/32/32
f 33/33/33 32/32/32 30/30/30
f 32/32/32 33/33/33 34/34/34
f 36/36/36 34/34/34 33/33/33
f 39/39/39 38/38/38 41/41/41
f 39/39/39 37/37/37 38/38/38
f 37/37/37 39/39/39 40/40/40
f 32/32/32 40/40/40 39/39/39
f 79/79/79 81/81/81 82/82/82
f 81/81/81 79/79/79 74/74/74
f 75/75/75 74/74/74 79/79/79
f 74/74/74 75/75/75 72/72/72
f 76/76/76 72/72/72 75/75/75
f 72/72/72 76/76/76 77/77/77
f 89/89/89 77/77/77 76/76/76
f 77/77/77 89/89/89 90/90/90
f 92/92/92 90/90/90 89/89/89
f 76/76/76 75/75/75 79/79/79
f 76/76/76 88/88/88 89/89/89
f 72/72/72 71/71/71 74/74/74
f 72/72/72 70/70/70 71/71/71
f 70/70/70 72/72/72 73/73/73
f 77/77/77 73/73/73 72/72/72
f 89/89/89 91/91/91 92/92/92
f 91/91/91 89/89/89 87/87/87
f 88/88/88 87/87/87 89/89/89
f 87/87/87 88/88/88 85/85/85
f 76/76/76 85/85/85 88/88/88
f 85/85/85 76/76/76 78/78/78
f 79/79/79 78/78/78 76/76/76
f 78/78/78 79/79/79 80/80/80
f 82/82/82 80/80/80 79/79/79
f 85/85/85 84/84/84 87/87/87
f 85/85/85 83/83/83 84/84/84
f 83/83/83 85/85/85 86/86/86
f 78/78/78 86/86/86 85/85/85
f 56/56/56 51/51/51 58/58/58
f 51/51/51 56/56/56 52/52/52
f 53/53/53 52/52/52 56/56/56
f 52/52/52 53/53/53 49/49/49
f 54/54/54 49/49/49 53/53/53
f 49/49/49 54/54/54 50/50/50
f 47/47/47 48/48/48 49/49/49
f 51/51/51 49/49/49 48/48/48
f 49/49/49 51/51/51 52/52/52
f 49/49/49 50/50/50 47/47/47
f 56/56/56 57/57/57 55/55/55
f 57/57/57 56/56/56 59/59/59
f 58/58/58 59/59/59 56/56/56
f 55/55/55 53/53/53 56/56/56
f 53/53/53 55/55/55 62/62/62
f 63/63/63 62/62/62 55/55/55
f 62/62/62 63/63/63 60/60/60
f 60/60/60 61/61/61 62/62/62
f 67/67/67 54/54/54 66/66/66
f 53/53/53 66/66/66 54/54/54
f 66/66/66 53/53/53 65/65/65
f 62/62/62 65/65/65 53/53/53
f 65/65/65 62/62/62 64/64/64
f 61/61/61 64/64/64 62/62/62
f 66/66/66 65/65/65 64/64/64
f 64/64/64 68/68/68 66/66/66
f 69/69/69 66/66/66 68/68/68
f 66/66/66 69/69/69 67/67/67
