mtllib SWORDLIGHT20_PS-AREA03_56.mtl
g PS-Area03_56
usemtl 4-edge
v -893.431641 -1046.605469 -7116.270508
vn -0.266370 0.842775 0.467736
vt 0.248125 0.251875
v -806.500244 -1113.814697 -7009.936523
vn 0.071534 0.546041 0.834699
vt 0.248125 0.000000
v -691.465332 -1038.392334 -7028.580566
vn -0.279152 0.248669 0.927490
vt 0.000000 0.000000
v -825.402100 -978.434570 -7135.661621
vn -0.556092 0.452741 0.696985
vt 0.000000 0.251875
v -975.515991 -1059.030273 -7090.028320
vn 0.124170 0.980487 0.152407
vt 0.497187 0.251875
v -894.570007 -1127.886719 -6961.985840
vn 0.478790 0.652192 0.587712
vt 0.496250 0.000000
v -1007.813843 -1051.608154 -7256.304688
vn -0.433634 0.871744 0.228088
vt 0.248125 0.502813
v -1087.932739 -1064.308594 -7240.398438
vn -0.008439 0.988482 -0.151106
vt 0.497188 0.502813
v -944.990112 -979.019958 -7268.399414
vn -0.726228 0.464139 0.507117
vt 0.000000 0.503750
v -1049.581543 -1036.782227 -7047.012695
vn 0.518331 0.842225 -0.148289
vt 0.748125 0.251875
v -1174.377319 -1038.446045 -7212.988770
vn 0.333691 0.817043 -0.470203
vt 0.748125 0.502813
v -1244.258545 -960.598450 -7182.160645
vn 0.559017 0.485587 -0.672090
vt 1.000000 0.503750
v -1106.660767 -964.361267 -7002.273926
vn 0.764886 0.509837 -0.393720
vt 1.000000 0.251875
v -1205.653931 -1099.824951 -7361.159668
vn -0.161763 0.883712 -0.439188
vt 0.497187 0.751875
v -1322.708374 -1076.832031 -7320.780762
vn 0.064744 0.696011 -0.715106
vt 0.748125 0.751875
v -964.186584 -1111.052979 -6893.944336
vn 0.800534 0.556768 0.221708
vt 0.748125 0.000000
v -995.915100 -1033.868286 -6785.584473
vn 0.933847 0.250995 -0.254817
vt 1.000000 0.000000
v -1451.588257 -1178.300293 -7377.086914
vn -0.202273 0.380605 -0.902345
vt 0.748125 1.000000
v -1635.005981 -1086.749634 -7323.266113
vn -0.085259 0.172366 -0.981336
vt 1.000000 1.000000
v -1418.671509 -992.530212 -7283.163086
vn 0.220150 0.377070 -0.899640
vt 1.000000 0.751875
v -1301.718994 -1195.828369 -7436.638184
vn -0.351326 0.480271 -0.803685
vt 0.496250 1.000000
v -1109.268921 -1080.364380 -7395.309082
vn -0.545959 0.835530 -0.061788
vt 0.248125 0.751875
v -1037.783081 -996.501770 -7421.395020
vn -0.834535 0.477685 0.274533
vt 0.000000 0.751875
v -1181.877563 -1169.773438 -7494.606445
vn -0.684733 0.503684 -0.526729
vt 0.248125 1.000000
v -1101.779297 -1073.052124 -7580.783691
vn -0.963977 0.264904 -0.023953
vt 0.000000 1.000000
f 13/13/13 17/17/17 10/10/10
f 16/16/16 10/10/10 17/17/17
f 10/10/10 16/16/16 6/6/6
f 12/12/12 10/10/10 11/11/11
f 10/10/10 12/12/12 13/13/13
f 1/1/1 2/2/2 3/3/3
f 2/2/2 1/1/1 6/6/6
f 5/5/5 6/6/6 1/1/1
f 6/6/6 5/5/5 10/10/10
f 8/8/8 10/10/10 5/5/5
f 10/10/10 8/8/8 11/11/11
f 15/15/15 11/11/11 8/8/8
f 11/11/11 15/15/15 12/12/12
f 20/20/20 12/12/12 15/15/15
f 8/8/8 1/1/1 7/7/7
f 1/1/1 8/8/8 5/5/5
f 19/19/19 15/15/15 18/18/18
f 15/15/15 19/19/19 20/20/20
f 15/15/15 21/21/21 18/18/18
f 21/21/21 15/15/15 14/14/14
f 8/8/8 14/14/14 15/15/15
f 14/14/14 8/8/8 22/22/22
f 7/7/7 22/22/22 8/8/8
f 22/22/22 7/7/7 9/9/9
f 1/1/1 9/9/9 7/7/7
f 9/9/9 1/1/1 4/4/4
f 3/3/3 4/4/4 1/1/1
f 21/21/21 22/22/22 24/24/24
f 22/22/22 21/21/21 14/14/14
f 9/9/9 23/23/23 22/22/22
f 25/25/25 22/22/22 23/23/23
f 22/22/22 25/25/25 24/24/24
usemtl RockwallA
v -1451.782104 -828.064636 -7257.295410
vn 0.330751 0.113622 -0.936853
vt 0.248542 0.751875
v -1418.671509 -992.530212 -7283.163086
vn 0.220150 0.377070 -0.899640
vt 0.248542 1.000000
v -1635.005981 -1086.749634 -7323.266113
vn -0.085259 0.172366 -0.981336
vt -0.003333 1.000000
v -1649.086548 -837.387634 -7292.530762
vn 0.055614 0.062906 -0.996469
vt -0.003333 0.751875
v -1244.258545 -960.598450 -7182.160645
vn 0.559017 0.485587 -0.672090
vt 0.500417 1.000000
v -1454.728149 -624.409363 -7253.872070
vn 0.362066 -0.053095 -0.930639
vt 0.248542 0.502813
v -1282.099609 -642.175964 -7147.227051
vn 0.676318 -0.016110 -0.736434
vt 0.499479 0.502813
v -1274.688599 -817.344788 -7155.990234
vn 0.654261 0.167279 -0.737536
vt 0.499479 0.751875
v -1646.251831 -605.577942 -7292.310547
vn 0.042971 -0.062717 -0.997106
vt -0.003333 0.503750
v -1137.786499 -826.267639 -6970.863770
vn 0.840899 0.170480 -0.513639
vt 0.748542 0.751875
v -1148.087402 -656.021790 -6959.701660
vn 0.848471 0.004225 -0.529225
vt 0.748542 0.502813
v -1038.573242 -659.008118 -6756.919434
vn 0.862272 0.000449 -0.506446
vt 0.996667 0.503750
v -1027.714111 -836.175476 -6767.539063
vn 0.857474 0.132492 -0.497177
vt 0.996667 0.751875
v -1106.660767 -964.361267 -7002.273926
vn 0.764886 0.509837 -0.393720
vt 0.748542 1.000000
v -995.915100 -1033.868286 -6785.584473
vn 0.933847 0.250995 -0.254817
vt 0.996667 1.000000
f 30/30/30 27/27/27 26/26/26
f 28/28/28 26/26/26 27/27/27
f 26/26/26 28/28/28 29/29/29
f 29/29/29 34/34/34 26/26/26
f 31/31/31 26/26/26 34/34/34
f 26/26/26 31/31/31 32/32/32
f 35/35/35 36/36/36 37/37/37
f 36/36/36 35/35/35 32/32/32
f 33/33/33 32/32/32 35/35/35
f 32/32/32 33/33/33 26/26/26
f 30/30/30 26/26/26 33/33/33
f 40/40/40 39/39/39 35/35/35
f 30/30/30 35/35/35 39/39/39
f 35/35/35 30/30/30 33/33/33
f 37/37/37 38/38/38 35/35/35
f 40/40/40 35/35/35 38/38/38
usemtl Column3
v -1301.718994 -1195.828369 -7436.638184
vn -0.351326 0.480271 -0.803685
vt 0.500417 0.003333
v -1181.877563 -1169.773438 -7494.606445
vn -0.684733 0.503684 -0.526729
vt 0.248542 0.003333
v -1209.720337 -1356.734497 -7515.518555
vn -0.566138 0.039661 -0.823356
vt 0.248542 0.251458
v -1349.168579 -1382.568237 -7451.156738
vn -0.386149 0.059325 -0.920527
vt 0.499480 0.251458
v -1101.779297 -1073.052124 -7580.783691
vn -0.963977 0.264904 -0.023953
vt -0.003333 0.003333
v -1124.458374 -1323.343628 -7596.998047
vn -0.899407 -0.081197 -0.429505
vt -0.003333 0.251458
v -1188.561890 -1919.265015 -7614.734375
vn -0.708617 0.488366 -0.509275
vt -0.003333 1.003333
v -1287.026733 -1970.135498 -7562.532715
vn -0.435436 0.582671 -0.686214
vt 0.248542 1.003333
v -1251.284546 -1805.102051 -7518.564453
vn -0.441400 0.288833 -0.849554
vt 0.248542 0.751458
v -1135.199097 -1788.107178 -7596.082031
vn -0.798191 0.344588 -0.494115
vt -0.003333 0.751458
v -1477.072144 -1980.920654 -7506.869141
vn -0.215937 0.603844 -0.767296
vt 0.500417 1.003333
v -1426.696899 -1820.637573 -7460.015137
vn -0.279728 0.290581 -0.915049
vt 0.499479 0.751458
v -1360.404053 -1630.695557 -7432.907227
vn -0.337508 0.085905 -0.937395
vt 0.500417 0.499583
v -1069.956299 -1554.247803 -7561.570313
vn -0.889864 0.026706 -0.455444
vt -0.003333 0.499583
v -1746.102173 -1578.990112 -7322.548828
vn -0.302994 0.106618 -0.947010
vt 0.996667 0.499583
v -1620.320923 -1811.287598 -7408.809082
vn -0.232330 0.297046 -0.926168
vt 0.748542 0.751458
v -1803.882935 -1790.850830 -7354.663086
vn -0.305452 0.300574 -0.903523
vt 0.996667 0.751458
v -1680.504517 -1972.945801 -7459.382813
vn -0.167807 0.605788 -0.777729
vt 0.748542 1.003333
v -1868.168579 -1956.508545 -7403.594727
vn -0.264893 0.592462 -0.760803
vt 0.996667 1.003333
v -880.953918 -1903.324829 -6626.114746
vn 0.938078 0.342823 -0.049821
vt 0.996667 1.000000
v -860.219421 -1960.315552 -6700.978516
vn 0.870430 0.475855 0.126154
vt 0.748542 1.000000
v -899.372131 -1782.327393 -6754.828125
vn 0.928749 0.256735 0.267419
vt 0.748542 0.751875
v -813.302795 -1970.531860 -6809.192383
vn 0.720779 0.562668 0.404824
vt 0.500417 1.000000
v -851.271057 -1793.234497 -6854.660156
vn 0.818305 0.270154 0.507340
vt 0.499479 0.751875
v -918.503723 -1767.293579 -6647.196289
vn 0.969477 0.243745 -0.026491
vt 0.996667 0.751875
v -886.657654 -1572.672974 -6900.025391
vn 0.786963 0.101645 0.608570
vt 0.500417 0.503750
v -976.470032 -1522.249878 -6695.597168
vn 0.996418 0.076780 0.035437
vt 0.996667 0.503750
v -717.759521 -1527.143555 -7036.671875
vn 0.219334 0.035708 0.974996
vt -0.003333 0.503750
v -784.694397 -1783.550781 -6940.096680
vn 0.622877 0.246016 0.742630
vt 0.248542 0.751875
v -700.713501 -1771.549072 -6991.269043
vn 0.238787 0.240582 0.940798
vt -0.003333 0.751875
v -749.498840 -1961.564941 -6905.065430
vn 0.477736 0.528022 0.702112
vt 0.248542 1.000000
v -690.711365 -1907.312744 -6951.856445
vn 0.221652 0.397555 0.890405
vt -0.003333 1.000000
v -691.465332 -1038.392334 -7028.580566
vn -0.279152 0.248669 0.927490
vt -0.003333 0.000000
v -806.500244 -1113.814697 -7009.936523
vn 0.071534 0.546041 0.834699
vt 0.248542 0.000000
v -787.397278 -1301.693970 -6972.034668
vn 0.429004 0.090268 0.898781
vt 0.248542 0.251875
v -688.744751 -1283.856812 -7005.309082
vn 0.126263 -0.023671 0.991714
vt -0.003333 0.251875
v -894.570007 -1127.886719 -6961.985840
vn 0.478790 0.652192 0.587712
vt 0.500417 0.000000
v -871.261536 -1314.774902 -6908.203613
vn 0.702277 0.131062 0.699735
vt 0.499479 0.251875
v -934.058533 -1300.470581 -6824.876953
vn 0.902395 0.144507 0.405957
vt 0.748542 0.251875
v -958.487488 -1278.757324 -6722.873047
vn 0.999234 0.034607 -0.018280
vt 0.996667 0.251875
v -964.186584 -1111.052979 -6893.944336
vn 0.800534 0.556768 0.221708
vt 0.748542 0.000000
v -995.915100 -1033.868286 -6785.584473
vn 0.933847 0.250995 -0.254817
vt 0.996667 0.000000
v -2258.524658 -1772.563477 -6979.679688
vn -0.938930 0.094303 -0.330935
vt 0.996667 0.751458
v -2275.345947 -1554.923340 -6988.914063
vn -0.950855 -0.111783 -0.288756
vt 0.996667 0.499583
v -2181.418457 -1767.109253 -7103.884766
vn -0.756819 0.170581 -0.630973
vt 0.748542 0.751458
v -2033.710571 -1538.824219 -7212.483398
vn -0.527710 -0.007187 -0.849394
vt 0.500417 0.499583
v -1746.102173 -1578.990112 -7322.548828
vn -0.302994 0.106618 -0.947010
vt -0.003333 0.499583
v -1803.882935 -1790.850830 -7354.663086
vn -0.305452 0.300574 -0.903523
vt -0.003333 0.751458
v -1949.107544 -1773.125854 -7287.293457
vn -0.459611 0.266034 -0.847339
vt 0.248542 0.751458
v -2070.213379 -1763.437256 -7204.450684
vn -0.606502 0.178746 -0.774729
vt 0.499479 0.751458
v -2010.910278 -1941.906982 -7323.027344
vn -0.433093 0.577288 -0.692220
vt 0.248542 1.003333
v -2126.524414 -1933.646606 -7224.322754
vn -0.540552 0.563331 -0.624870
vt 0.500417 1.003333
v -1868.168579 -1956.508545 -7403.594727
vn -0.264893 0.592462 -0.760803
vt -0.003333 1.003333
v -1875.585327 -1310.160767 -7283.213379
vn -0.233930 -0.014345 -0.972148
vt 0.248542 0.251458
v -1861.183716 -1064.315918 -7290.120605
vn -0.127978 0.015743 -0.991652
vt 0.248542 0.003333
v -1635.005981 -1086.749634 -7323.266113
vn -0.085259 0.172366 -0.981336
vt -0.003333 0.003333
v -1699.203003 -1337.971924 -7331.433105
vn -0.272869 0.059098 -0.960234
vt -0.003333 0.251458
v -2065.433838 -1029.302612 -7266.457031
vn -0.354000 0.020679 -0.935017
vt 0.500417 0.003333
v -2275.345947 -1554.923340 -6988.914063
vn -0.950855 -0.111783 -0.288756
vt -0.003333 0.499583
v -2258.524658 -1772.563477 -6979.679688
vn -0.938930 0.094303 -0.330935
vt -0.003333 0.751458
v -2277.333740 -1768.221558 -6825.918945
vn -0.984671 0.174416 -0.001508
vt 0.248542 0.751458
v -2259.413086 -1762.529419 -6659.412598
vn -0.971645 0.183983 0.148513
vt 0.499479 0.751458
v -2245.419678 -1544.656494 -6661.961914
vn -0.974671 -0.045133 0.219040
vt 0.500417 0.499583
v -2325.560059 -1932.030151 -6825.910156
vn -0.764660 0.643303 -0.038163
vt 0.248542 1.003333
v -2310.526855 -1925.671631 -6654.008789
vn -0.837290 0.534784 0.113810
vt 0.500417 1.003333
v -2306.804688 -1939.187134 -6984.099609
vn -0.737377 0.619789 -0.268582
vt -0.003333 1.003333
v -976.470032 -1522.249878 -6695.597168
vn 0.996418 0.076780 0.035437
vt -0.003333 0.503750
v -958.487488 -1278.757324 -6722.873047
vn 0.999234 0.034607 -0.018280
vt -0.003333 0.251875
v -927.247375 -1269.611816 -6603.008789
vn 0.929406 -0.055188 -0.364910
vt 0.248542 0.251875
v -995.915100 -1033.868286 -6785.584473
vn 0.933847 0.250995 -0.254817
vt -0.003333 0.000000
v -921.930725 -1029.973633 -6617.598633
vn 0.874055 0.002702 -0.485820
vt 0.248542 0.000000
v -2065.433838 -1029.302612 -7266.457031
vn -0.354000 0.020679 -0.935017
vt 0.500417 1.003333
v -2415.059570 -1026.988770 -7002.823730
vn -0.913429 -0.029779 -0.405906
vt 0.996667 1.003333
v -2331.557129 -563.452454 -7011.891113
vn -0.882042 0.113072 -0.457402
vt 0.996667 0.499583
v -2023.110718 -570.583191 -7217.950195
vn -0.397376 0.007516 -0.917625
vt 0.500417 0.499583
v -2325.384766 -599.876648 -6661.945801
vn -0.971630 0.114660 0.206854
vt 0.500419 0.499582
v -2331.557129 -563.452454 -7011.891113
vn -0.882042 0.113072 -0.457402
vt -0.003331 0.499582
v -2415.059570 -1026.988770 -7002.823730
vn -0.913429 -0.029779 -0.405906
vt -0.003331 1.003332
v -2389.167969 -1037.591309 -6671.625488
vn -0.962690 -0.071044 0.261114
vt 0.500419 1.003332
v -2415.059570 -1026.988770 -7002.823730
vn -0.913429 -0.029779 -0.405906
vt 0.996667 0.003333
v -2389.167969 -1037.591309 -6671.625488
vn -0.962690 -0.071044 0.261114
vt 0.500417 0.003333
v -2415.059570 -1026.988770 -7002.823730
vn -0.913429 -0.029779 -0.405906
vt -0.003333 0.003333
v -1038.573242 -659.008118 -6756.919434
vn 0.862272 0.000449 -0.506446
vt -0.000000 0.499583
v -939.438416 -644.196289 -6604.500488
vn 0.834338 -0.004215 -0.551238
vt 0.248125 0.500521
v -931.109314 -828.410522 -6611.638672
vn 0.840871 0.076376 -0.535820
vt 0.248125 0.751458
v -1027.714111 -836.175476 -6767.539063
vn 0.857474 0.132492 -0.497177
vt -0.000000 0.751458
v -995.915100 -1033.868286 -6785.584473
vn 0.933847 0.250995 -0.254817
vt -0.000000 1.003333
v -921.930725 -1029.973633 -6617.598633
vn 0.874055 0.002702 -0.485820
vt 0.248125 1.003333
v -1699.203003 -1337.971924 -7331.433105
vn -0.272869 0.059098 -0.960234
vt 0.996667 0.251458
v -1518.030151 -1369.210938 -7388.604980
vn -0.301497 0.076964 -0.950356
vt 0.748542 0.251458
v -1451.588257 -1178.300293 -7377.086914
vn -0.202273 0.380605 -0.902345
vt 0.748542 0.003333
v -1635.005981 -1086.749634 -7323.266113
vn -0.085259 0.172366 -0.981336
vt 0.996667 0.003333
v -2232.807861 -1936.232910 -7114.125000
vn -0.599726 0.671088 -0.435855
vt 0.748542 1.003333
v -2306.804688 -1939.187134 -6984.099609
vn -0.737377 0.619789 -0.268582
vt 0.996667 1.003333
v -1635.005981 -1086.749634 -7323.266113
vn -0.085259 0.172366 -0.981336
vt -0.003333 1.003333
v -1861.183716 -1064.315918 -7290.120605
vn -0.127978 0.015743 -0.991652
vt 0.248542 1.003333
v -1846.621704 -824.274353 -7279.447266
vn -0.131672 0.056419 -0.989687
vt 0.248542 0.751458
v -1649.086548 -837.387634 -7292.530762
vn 0.055614 0.062906 -0.996469
vt -0.003333 0.751458
v -1836.950317 -588.537415 -7275.212891
vn -0.196271 -0.042288 -0.979637
vt 0.248542 0.500521
v -1646.251831 -605.577942 -7292.310547
vn 0.042971 -0.062717 -0.997106
vt -0.003333 0.499583
f 112/112/112 113/113/113 114/114/114
f 112/112/112 115/115/115 137/137/137
f 115/115/115 112/112/112 114/114/114
f 137/137/137 136/136/136 112/112/112
f 136/136/136 137/137/137 135/135/135
f 138/138/138 135/135/135 137/137/137
f 137/137/137 140/140/140 138/138/138
f 140/140/140 137/137/137 139/139/139
f 115/115/115 139/139/139 137/137/137
f 49/49/49 50/50/50 47/47/47
f 50/50/50 49/49/49 54/54/54
f 53/53/53 54/54/54 49/49/49
f 54/54/54 53/53/53 43/43/43
f 44/44/44 43/43/43 53/53/53
f 43/43/43 44/44/44 41/41/41
f 130/130/130 41/41/41 44/44/44
f 41/41/41 130/130/130 131/131/131
f 132/132/132 131/131/131 130/130/130
f 44/44/44 53/53/53 130/130/130
f 52/52/52 53/53/53 49/49/49
f 46/46/46 54/54/54 43/43/43
f 41/41/41 42/42/42 43/43/43
f 45/45/45 43/43/43 42/42/42
f 43/43/43 45/45/45 46/46/46
f 130/130/130 129/129/129 132/132/132
f 129/129/129 130/130/130 55/55/55
f 53/53/53 55/55/55 130/130/130
f 55/55/55 53/53/53 56/56/56
f 52/52/52 56/56/56 53/53/53
f 56/56/56 52/52/52 51/51/51
f 49/49/49 51/51/51 52/52/52
f 51/51/51 49/49/49 48/48/48
f 47/47/47 48/48/48 49/49/49
f 51/51/51 58/58/58 56/56/56
f 56/56/56 57/57/57 55/55/55
f 57/57/57 56/56/56 59/59/59
f 58/58/58 59/59/59 56/56/56
f 79/79/79 81/81/81 82/82/82
f 81/81/81 79/79/79 77/77/77
f 78/78/78 77/77/77 79/79/79
f 77/77/77 78/78/78 75/75/75
f 66/66/66 75/75/75 78/78/78
f 75/75/75 66/66/66 68/68/68
f 69/69/69 68/68/68 66/66/66
f 68/68/68 69/69/69 70/70/70
f 72/72/72 70/70/70 69/69/69
f 66/66/66 78/78/78 79/79/79
f 69/69/69 71/71/71 72/72/72
f 75/75/75 74/74/74 77/77/77
f 75/75/75 73/73/73 74/74/74
f 73/73/73 75/75/75 76/76/76
f 68/68/68 76/76/76 75/75/75
f 79/79/79 67/67/67 66/66/66
f 67/67/67 79/79/79 80/80/80
f 82/82/82 80/80/80 79/79/79
f 69/69/69 63/63/63 71/71/71
f 63/63/63 69/69/69 64/64/64
f 66/66/66 64/64/64 69/69/69
f 64/64/64 66/66/66 62/62/62
f 67/67/67 62/62/62 66/66/66
f 62/62/62 67/67/67 65/65/65
f 60/60/60 61/61/61 62/62/62
f 63/63/63 62/62/62 61/61/61
f 62/62/62 63/63/63 64/64/64
f 62/62/62 65/65/65 60/60/60
f 94/94/94 95/95/95 96/96/96
f 95/95/95 94/94/94 98/98/98
f 86/86/86 98/98/98 94/94/94
f 98/98/98 86/86/86 120/120/120
f 84/84/84 120/120/120 86/86/86
f 83/83/83 84/84/84 85/85/85
f 86/86/86 85/85/85 84/84/84
f 85/85/85 86/86/86 90/90/90
f 134/134/134 83/83/83 85/85/85
f 96/96/96 97/97/97 94/94/94
f 87/87/87 94/94/94 97/97/97
f 94/94/94 87/87/87 86/86/86
f 89/89/89 86/86/86 87/87/87
f 86/86/86 89/89/89 90/90/90
f 92/92/92 90/90/90 89/89/89
f 90/90/90 92/92/92 85/85/85
f 133/133/133 85/85/85 92/92/92
f 85/85/85 133/133/133 134/134/134
f 89/89/89 91/91/91 92/92/92
f 87/87/87 88/88/88 89/89/89
f 93/93/93 89/89/89 88/88/88
f 89/89/89 93/93/93 91/91/91
f 101/101/101 100/100/100 106/106/106
f 100/100/100 101/101/101 99/99/99
f 103/103/103 99/99/99 101/101/101
f 99/99/99 103/103/103 121/121/121
f 106/106/106 104/104/104 101/101/101
f 121/121/121 122/122/122 99/99/99
f 104/104/104 105/105/105 101/101/101
f 102/102/102 101/101/101 105/105/105
f 101/101/101 102/102/102 103/103/103
f 107/107/107 108/108/108 109/109/109
f 110/110/110 109/109/109 108/108/108
f 109/109/109 110/110/110 111/111/111
f 125/125/125 123/123/123 124/124/124
f 123/123/123 125/125/125 126/126/126
f 127/127/127 126/126/126 125/125/125
f 125/125/125 128/128/128 127/127/127
f 118/118/118 116/116/116 117/117/117
f 116/116/116 118/118/118 119/119/119
