mtllib SWORDLIGHT20_PS-AREA03_82.mtl
g PS-Area03_82
usemtl Column4a
v -4456.013672 -1952.009521 -4659.221191
vn 0.498349 0.702555 -0.508001
vt 0.996668 0.999994
v -4509.555664 -1786.214233 -4621.471191
vn 0.678527 0.323303 -0.659603
vt 0.996668 0.751869
v -4376.655273 -1782.940674 -4529.425293
vn 0.412255 0.269419 -0.870321
vt 0.748543 0.751869
v -4326.601563 -1949.601196 -4570.399902
vn 0.364736 0.568143 -0.737686
vt 0.748543 0.999994
v -4553.586426 -1557.347168 -4570.014160
vn 0.690730 0.025540 -0.722662
vt 0.996668 0.503744
v -4248.120605 -1563.635498 -4452.803223
vn 0.356259 -0.008862 -0.934345
vt 0.500418 0.503744
v -4373.498047 -1301.256714 -4534.260254
vn 0.368105 -0.077749 -0.926528
vt 0.748543 0.251869
v -4514.887695 -1307.246094 -4620.686035
vn 0.675496 -0.055689 -0.735258
vt 0.996668 0.251869
v -4632.595703 -1949.054077 -5437.199219
vn 0.728655 0.651144 0.212305
vt 0.996668 0.999994
v -4698.245117 -1783.839966 -5412.019043
vn 0.924833 0.295632 0.239344
vt 0.996668 0.751869
v -4709.397949 -1804.059326 -5207.944336
vn 0.940651 0.338455 -0.024962
vt 0.748543 0.751869
v -4638.203613 -1968.508667 -5237.713379
vn 0.705032 0.709150 0.006047
vt 0.748543 0.999994
v -4759.253418 -1555.306152 -5426.313965
vn 0.949905 0.015728 0.312143
vt 0.996668 0.503744
v -4741.864258 -1612.715820 -4971.567383
vn 0.968415 0.084752 -0.234498
vt 0.500418 0.503744
v -4673.929199 -1817.390137 -4992.539551
vn 0.899244 0.380144 -0.216452
vt 0.499480 0.751869
v -4601.792480 -1980.962158 -5027.223633
vn 0.670486 0.726705 -0.149492
vt 0.500418 0.999994
v -4733.883301 -1328.720825 -5199.969727
vn 0.998862 0.032467 0.034943
vt 0.748543 0.251869
v -4710.657715 -1344.094849 -4980.577637
vn 0.968665 0.082687 -0.234201
vt 0.499480 0.251869
v -4701.886719 -1306.345093 -5408.548340
vn 0.950052 -0.071448 0.303805
vt 0.996668 0.251869
v -4553.586426 -1557.347168 -4570.014160
vn 0.690730 0.025540 -0.722662
vt -0.003332 0.503744
v -4632.466309 -1329.230957 -4778.470703
vn 0.871440 0.050748 -0.487870
vt 0.248543 0.251869
v -4514.887695 -1307.246094 -4620.686035
vn 0.675496 -0.055689 -0.735258
vt -0.003332 0.251869
v -4607.980957 -1804.569580 -4786.445313
vn 0.846896 0.346129 -0.403686
vt 0.248543 0.751869
v -4544.403320 -1968.962769 -4822.944336
vn 0.620436 0.721372 -0.307704
vt 0.248543 0.999994
v -4509.555664 -1786.214233 -4621.471191
vn 0.678527 0.323303 -0.659603
vt -0.003332 0.751869
v -4456.013672 -1952.009521 -4659.221191
vn 0.498349 0.702555 -0.508001
vt -0.003332 0.999994
v -4701.886719 -1306.345093 -5408.548340
vn 0.950052 -0.071448 0.303805
vt -0.003332 0.251869
v -4759.253418 -1555.306152 -5426.313965
vn 0.949905 0.015728 0.312143
vt -0.003332 0.503744
v -4614.409668 -1300.204102 -5578.213379
vn 0.836593 -0.104770 0.537713
vt 0.248543 0.251869
v -4698.245117 -1783.839966 -5412.019043
vn 0.924833 0.295632 0.239344
vt -0.003332 0.751869
v -4624.328613 -1775.994751 -5584.123535
vn 0.858879 0.210289 0.467017
vt 0.248543 0.751869
v -4632.595703 -1949.054077 -5437.199219
vn 0.728655 0.651144 0.212305
vt -0.003332 0.999994
v -4563.926270 -1940.050293 -5608.465332
vn 0.778640 0.471726 0.413756
vt 0.248543 0.999994
f 27/27/27 28/28/28 29/29/29
f 28/28/28 30/30/30 31/31/31
f 32/32/32 31/31/31 30/30/30
f 31/31/31 32/32/32 33/33/33
f 26/26/26 24/24/24 23/23/23
f 16/16/16 23/23/23 24/24/24
f 23/23/23 16/16/16 15/15/15
f 11/11/11 15/15/15 16/16/16
f 15/15/15 11/11/11 14/14/14
f 13/13/13 14/14/14 11/11/11
f 14/14/14 13/13/13 17/17/17
f 19/19/19 17/17/17 13/13/13
f 15/15/15 14/14/14 23/23/23
f 18/18/18 14/14/14 17/17/17
f 10/10/10 13/13/13 11/11/11
f 11/11/11 9/9/9 10/10/10
f 9/9/9 11/11/11 12/12/12
f 16/16/16 12/12/12 11/11/11
f 18/18/18 21/21/21 14/14/14
f 20/20/20 14/14/14 21/21/21
f 14/14/14 20/20/20 23/23/23
f 25/25/25 23/23/23 20/20/20
f 23/23/23 25/25/25 26/26/26
f 22/22/22 20/20/20 21/21/21
f 1/1/1 3/3/3 4/4/4
f 3/3/3 1/1/1 2/2/2
f 3/3/3 5/5/5 6/6/6
f 5/5/5 3/3/3 2/2/2
f 6/6/6 5/5/5 7/7/7
f 8/8/8 7/7/7 5/5/5
