mtllib SWORDLIGHT20_PS-AREA03_155.mtl
g PS-Area03_155
usemtl Colum4aUnder
v -2911.010986 -3494.442627 -3501.091797
vn 0.996038 0.072889 -0.050935
vt 0.543162 0.146177
v -2853.056641 -3945.932129 -3502.699951
vn 0.994855 0.084012 -0.056616
vt 0.535358 0.271846
v -2839.797363 -3951.533691 -3829.778809
vn 0.987197 0.123259 0.101240
vt 0.533573 0.273405
v -2917.908936 -3485.327393 -3819.196533
vn 0.990099 0.064645 0.124598
vt 0.544091 0.143640
v -2403.578613 -3543.078613 -2581.854248
vn 0.642640 0.686377 -0.340442
vt 0.471890 0.143601
v -2335.511963 -3720.699951 -2625.986816
vn 0.865930 0.341721 -0.365230
vt 0.465669 0.209154
v -2394.193115 -3720.139648 -2741.799805
vn 0.775945 0.388659 -0.496844
vt 0.473571 0.208998
v -2471.441650 -3545.141357 -2691.549072
vn 0.545620 0.728533 -0.414172
vt 0.480408 0.145663
v -2273.419922 -3952.894775 -2647.383301
vn 0.919392 0.066384 -0.387700
vt 0.457308 0.273784
v -2413.413574 -3942.475830 -2900.744385
vn 0.678774 0.108314 -0.726316
vt 0.476159 0.270884
v -2471.957520 -3723.590332 -2845.850342
vn 0.650625 0.413771 -0.636773
vt 0.482542 0.209304
v -2554.166748 -3551.643799 -2794.855225
vn 0.473775 0.726707 -0.497428
vt 0.488926 0.147724
v -2317.805420 -3594.667236 -2377.126709
vn 0.903650 0.428091 -0.012426
vt 0.460470 0.147724
v -2276.270752 -3725.106934 -2378.772217
vn 0.962726 0.270477 0.000529
vt 0.455216 0.211775
v -2292.725098 -3724.577393 -2505.774170
vn 0.926794 0.297725 -0.228940
vt 0.459908 0.210234
v -2346.781006 -3547.711426 -2469.604492
vn 0.802942 0.569070 -0.177322
vt 0.466180 0.145663
v -2218.871338 -3960.227051 -2372.851807
vn 0.997779 0.045166 0.048952
vt 0.449963 0.275825
v -2756.664795 -3564.971436 -2979.489502
vn 0.505529 0.712416 -0.486728
vt 0.520149 0.152543
v -2674.594971 -3734.470215 -3012.141113
vn 0.658186 0.306240 -0.687756
vt 0.511328 0.212987
v -2760.047119 -3721.626221 -3105.510986
vn 0.798261 0.333511 -0.501548
vt 0.522834 0.209412
v -2838.573486 -3559.336914 -3078.190918
vn 0.654122 0.722850 -0.222739
vt 0.530227 0.150134
v -2626.233154 -3967.195068 -3024.330078
vn 0.694833 0.082734 -0.714396
vt 0.504816 0.277764
v -2784.053955 -3901.997314 -3219.122559
vn 0.918862 0.090798 -0.383989
vt 0.526067 0.259617
v -2823.344482 -3708.553955 -3217.166504
vn 0.895766 0.269679 -0.353379
vt 0.533186 0.203671
v -2896.510010 -3501.554932 -3192.990967
vn 0.884938 0.436823 0.161464
vt 0.540305 0.147724
v -2554.166748 -3551.643799 -2794.855225
vn 0.473775 0.726707 -0.497428
vt 0.488926 0.147724
v -2471.957520 -3723.590332 -2845.850342
vn 0.650625 0.413771 -0.636773
vt 0.482542 0.209304
v -2571.994873 -3731.746094 -2930.775879
vn 0.569071 0.363745 -0.737460
vt 0.497512 0.212229
v -2655.552002 -3560.330566 -2887.939941
vn 0.446248 0.713026 -0.540793
vt 0.504537 0.150134
v -2413.413574 -3942.475830 -2900.744385
vn 0.678774 0.108314 -0.726316
vt 0.476159 0.270884
v -2896.510010 -3501.554932 -3192.990967
vn 0.884938 0.436823 0.161464
vt 0.540305 0.147724
v -2823.344482 -3708.553955 -3217.166504
vn 0.895766 0.269679 -0.353379
vt 0.533186 0.203671
v -2859.479736 -3710.593018 -3353.389404
vn 0.965973 0.196366 -0.168333
vt 0.536223 0.206341
v -2891.946289 -3501.299316 -3347.376953
vn 0.992267 0.116098 -0.043895
vt 0.541734 0.146951
v -2784.053955 -3901.997314 -3219.122559
vn 0.918862 0.090798 -0.383989
vt 0.526067 0.259617
f 3/3/3 4/4/4 1/1/1
f 1/1/1 2/2/2 3/3/3
f 2/2/2 1/1/1 33/33/33
f 34/34/34 33/33/33 1/1/1
f 33/33/33 34/34/34 31/31/31
f 33/33/33 35/35/35 2/2/2
f 35/35/35 33/33/33 32/32/32
f 31/31/31 32/32/32 33/33/33
f 12/12/12 8/8/8 7/7/7
f 5/5/5 7/7/7 8/8/8
f 7/7/7 5/5/5 6/6/6
f 15/15/15 6/6/6 5/5/5
f 6/6/6 15/15/15 9/9/9
f 17/17/17 9/9/9 15/15/15
f 6/6/6 9/9/9 7/7/7
f 14/14/14 17/17/17 15/15/15
f 9/9/9 10/10/10 7/7/7
f 11/11/11 7/7/7 10/10/10
f 7/7/7 11/11/11 12/12/12
f 15/15/15 13/13/13 14/14/14
f 13/13/13 15/15/15 16/16/16
f 5/5/5 16/16/16 15/15/15
f 27/27/27 30/30/30 28/28/28
f 22/22/22 28/28/28 30/30/30
f 28/28/28 22/22/22 19/19/19
f 20/20/20 19/19/19 22/22/22
f 19/19/19 20/20/20 18/18/18
f 21/21/21 18/18/18 20/20/20
f 28/28/28 19/19/19 18/18/18
f 22/22/22 23/23/23 20/20/20
f 20/20/20 25/25/25 21/21/21
f 25/25/25 20/20/20 24/24/24
f 23/23/23 24/24/24 20/20/20
f 28/28/28 26/26/26 27/27/27
f 26/26/26 28/28/28 29/29/29
f 18/18/18 29/29/29 28/28/28
