mtllib SWORDLIGHT20_JAILPLATSUPPORT67.mtl
g ilPlatsupport67
usemtl BoardC
v -8782.302734 -1527.659424 4739.189941
vn 0.995287 0.000000 0.096976
vt 0.250000 0.873425
v -8796.637695 -1527.659302 4701.846680
vn 0.096976 0.000000 -0.995287
vt 0.500000 0.873425
v -8796.637695 -1109.394531 4701.846680
vn 0.674753 0.000000 -0.738044
vt 0.500000 0.000499
v -8782.302734 -1109.394531 4739.189941
vn 0.738044 0.000000 0.674753
vt 0.250000 0.000499
v -8833.980469 -1527.659302 4716.181152
vn -0.995287 0.000000 -0.096976
vt 0.750000 0.873425
v -8833.980469 -1109.394531 4716.181152
vn -0.738044 0.000000 -0.674753
vt 0.750000 0.000499
v -8819.645508 -1527.659424 4753.524414
vn -0.096976 0.000000 0.995287
vt 1.000000 0.873425
v -8819.645508 -1109.394531 4753.524414
vn -0.674753 0.000000 0.738044
vt 1.000000 0.000499
v -8819.645508 -1527.659424 4753.524414
vn -0.096976 0.000000 0.995287
vt -0.000000 0.873425
v -8819.645508 -1109.394531 4753.524414
vn -0.674753 0.000000 0.738044
vt -0.000000 0.000499
v -8723.904297 -1107.888672 4683.803711
vn 0.439581 -0.636952 -0.633293
vt 0.250000 0.873425
v -8715.781250 -1107.859375 4706.035156
vn 0.612588 -0.301159 0.730780
vt 0.500000 0.873425
v -8786.983398 -1184.296387 4733.491211
vn 0.751728 -0.628503 0.199723
vt 0.500000 0.000499
v -8795.105469 -1184.325439 4711.259766
vn -0.022719 -0.325259 -0.945352
vt 0.250000 0.000499
v -8748.040039 -1107.895752 4717.776367
vn -0.435327 0.643623 0.629476
vt 0.750000 0.873425
v -8787.209961 -1149.839355 4733.573730
vn 0.017446 0.332032 0.943107
vt 0.750000 0.000499
v -8756.163086 -1107.925049 4695.544922
vn -0.615124 0.308053 -0.725758
vt 1.000000 0.873425
v -8795.333008 -1149.868530 4711.342285
vn -0.752460 0.628392 -0.197301
vt 1.000000 0.000499
v -8756.163086 -1107.925049 4695.544922
vn -0.615124 0.308053 -0.725758
vt -0.000000 0.873425
v -8795.333008 -1149.868530 4711.342285
vn -0.752460 0.628392 -0.197301
vt -0.000000 0.000499
v -8856.379883 -1107.888672 4645.210449
vn -0.655431 -0.636953 -0.405834
vt 0.250000 0.873425
v -8834.604492 -1107.859497 4635.935547
vn 0.697718 -0.301159 -0.649994
vt 0.500000 0.873425
v -8803.458984 -1184.296265 4705.602539
vn 0.160106 -0.628503 -0.761150
vt 0.500000 0.000499
v -8825.235352 -1184.325439 4714.877441
vn -0.942867 -0.325259 0.072164
vt 0.250000 0.000499
v -8821.190430 -1107.895752 4667.535645
vn 0.651396 0.643623 0.401786
vt 0.750000 0.873425
v -8803.365234 -1149.839355 4705.825195
vn 0.940901 0.332032 -0.066781
vt 0.750000 0.000499
v -8842.965820 -1107.925049 4676.810547
vn -0.692571 0.308054 0.652264
vt 1.000000 0.873425
v -8825.140625 -1149.868530 4715.100098
vn -0.157650 0.628392 0.761754
vt 1.000000 0.000499
v -8842.965820 -1107.925049 4676.810547
vn -0.692571 0.308054 0.652264
vt -0.000000 0.873425
v -8825.140625 -1149.868530 4715.100098
vn -0.157650 0.628392 0.761754
vt -0.000000 0.000499
f 7/7/7 8/8/8 5/5/5
f 6/6/6 5/5/5 8/8/8
f 5/5/5 6/6/6 2/2/2
f 3/3/3 2/2/2 6/6/6
f 2/2/2 3/3/3 1/1/1
f 4/4/4 1/1/1 3/3/3
f 1/1/1 4/4/4 9/9/9
f 10/10/10 9/9/9 4/4/4
f 17/17/17 18/18/18 15/15/15
f 16/16/16 15/15/15 18/18/18
f 15/15/15 16/16/16 12/12/12
f 13/13/13 12/12/12 16/16/16
f 12/12/12 13/13/13 11/11/11
f 14/14/14 11/11/11 13/13/13
f 11/11/11 14/14/14 19/19/19
f 20/20/20 19/19/19 14/14/14
f 27/27/27 28/28/28 25/25/25
f 26/26/26 25/25/25 28/28/28
f 25/25/25 26/26/26 22/22/22
f 23/23/23 22/22/22 26/26/26
f 22/22/22 23/23/23 21/21/21
f 24/24/24 21/21/21 23/23/23
f 21/21/21 24/24/24 29/29/29
f 30/30/30 29/29/29 24/24/24
