mtllib SWORDLIGHT20_PS-AREA03_163.mtl
g PS-Area03_163
usemtl WallB
v 1107.394531 -1536.085083 -5798.294922
vn -0.703835 0.030960 0.709689
vt -0.003333 0.499583
v 1357.988403 -1511.642334 -5470.026367
vn -0.822219 0.024661 0.568637
vt 0.500417 0.499583
v 1385.245361 -1065.552124 -5516.390625
vn -0.821327 0.044869 0.568691
vt 0.500417 0.003333
v 1100.123779 -1046.990234 -5847.616211
vn -0.644389 0.005987 0.764674
vt -0.003333 0.003333
v 1080.466309 -2020.025024 -5832.036133
vn -0.746685 -0.053911 0.662990
vt -0.003333 1.003333
v 1342.010010 -1994.834839 -5564.619141
vn -0.758847 -0.015857 0.651076
vt 0.500417 1.003333
v 1532.210083 -1459.940430 -5165.530273
vn -0.899178 -0.024330 0.436907
vt 0.996667 0.499583
v 1569.844971 -1961.869019 -5288.146484
vn -0.844811 -0.041766 0.533432
vt 0.996667 1.003333
v 1816.573364 -2017.493042 -4569.764160
vn -0.919230 0.027656 0.392748
vt 0.996667 1.000000
v 1737.593140 -1487.629761 -4579.687500
vn -0.893668 0.043913 0.446574
vt 0.996667 0.503750
v 1643.663208 -1460.592163 -4844.520996
vn -0.942562 0.015825 0.333657
vt 0.500417 0.503750
v 1710.779053 -1963.370850 -4891.845215
vn -0.949217 -0.024321 0.313682
vt 0.500417 1.000000
v 1532.210083 -1459.940430 -5165.530273
vn -0.899178 -0.024330 0.436907
vt -0.003333 0.503750
v 1569.844971 -1961.869019 -5288.146484
vn -0.844811 -0.041766 0.533432
vt -0.003333 1.000000
v 2092.124268 -1931.533813 -4116.137207
vn -0.932929 0.002855 0.360050
vt 0.996667 1.000000
v 2024.603882 -1464.290283 -4089.481689
vn -0.962031 -0.042093 0.269675
vt 0.996667 0.503750
v 1878.921753 -1488.795166 -4340.952637
vn -0.867467 0.009738 0.497399
vt 0.500417 0.503750
v 1938.484497 -1989.783203 -4391.813477
vn -0.848781 0.019014 0.528403
vt 0.500417 1.000000
v 1737.593140 -1487.629761 -4579.687500
vn -0.893668 0.043913 0.446574
vt -0.003333 0.503750
v 1816.573364 -2017.493042 -4569.764160
vn -0.919230 0.027656 0.392748
vt -0.003333 1.000000
v 2052.347900 -1914.593140 -3590.029297
vn -0.952298 0.067116 -0.297698
vt 0.996667 1.000001
v 1997.518677 -1418.357788 -3549.091064
vn -0.928051 -0.093072 -0.360637
vt 0.996667 0.503751
v 2059.608154 -1484.689575 -3811.983887
vn -0.997404 -0.056451 -0.044716
vt 0.500417 0.503751
v 2107.189453 -1962.087769 -3878.260742
vn -0.998722 0.045490 -0.022014
vt 0.500417 1.000001
v 2047.872925 -1031.088379 -3860.289795
vn -0.992843 0.013913 -0.118614
vt 0.500417 0.000001
v 1945.385498 -944.263794 -3616.593750
vn -0.909313 -0.071390 -0.409944
vt 0.996667 0.000001
v 2024.603882 -1464.290283 -4089.481689
vn -0.962031 -0.042093 0.269675
vt -0.003333 0.503751
v 2092.124268 -1931.533813 -4116.137207
vn -0.932929 0.002855 0.360050
vt -0.003333 1.000001
v 1945.385498 -944.263794 -3616.593750
vn -0.909313 -0.071390 -0.409944
vt -0.003333 0.000001
v 1997.518677 -1418.357788 -3549.091064
vn -0.928051 -0.093072 -0.360637
vt -0.003333 0.503751
v 1842.632324 -1477.047119 -3236.983398
vn -0.859960 -0.073752 -0.505004
vt 0.500417 0.503751
v 1792.816162 -1038.301025 -3266.104248
vn -0.918930 -0.058082 -0.390121
vt 0.500417 0.000001
v 1866.493652 -1924.437378 -3240.225342
vn -0.833847 0.096917 -0.543420
vt 0.500417 1.000001
v 2052.347900 -1914.593140 -3590.029297
vn -0.952298 0.067116 -0.297698
vt -0.003333 1.000001
v 1900.368530 -1264.109131 -4361.455078
vn -0.865864 0.193457 0.461361
vt 0.499480 0.251875
v 1963.438599 -1255.204224 -4247.125488
vn -0.897717 0.155843 0.412090
vt 0.748542 0.251875
v 1983.712158 -2200.139893 -3579.183350
vn -0.924603 0.061813 -0.375884
vt -0.003333 0.493545
v 1839.772583 -2182.431396 -3320.012695
vn -0.817234 0.128296 -0.561844
vt 0.500417 0.493545
v 1866.493652 -1924.437378 -3240.225342
vn -0.833847 0.096917 -0.543420
vt 0.500417 0.000918
v 2052.347900 -1914.593140 -3590.029297
vn -0.952298 0.067116 -0.297698
vt -0.003333 0.000918
v 2052.347900 -1914.593140 -3590.029297
vn -0.952298 0.067116 -0.297698
vt 0.996667 0.000918
v 2107.189453 -1962.087769 -3878.260742
vn -0.998722 0.045490 -0.022014
vt 0.500417 0.000918
v 2045.895996 -2226.285400 -3860.944336
vn -0.991743 -0.008720 -0.127946
vt 0.500417 0.493545
v 1983.712158 -2200.139893 -3579.183350
vn -0.924603 0.061813 -0.375884
vt 0.996667 0.493545
v 2041.448120 -2224.755371 -4128.242188
vn -0.968583 -0.012282 0.248388
vt -0.003333 0.493545
v 2092.124268 -1931.533813 -4116.137207
vn -0.932929 0.002855 0.360050
vt -0.003333 0.000918
v 2092.124268 -1931.533813 -4116.137207
vn -0.932929 0.002855 0.360050
vt 0.996667 0.000918
v 1938.484497 -1989.783203 -4391.813477
vn -0.848781 0.019014 0.528403
vt 0.500417 0.000918
v 1892.683228 -2263.179443 -4376.975586
vn -0.840276 -0.036073 0.540958
vt 0.500417 0.493545
v 2041.448120 -2224.755371 -4128.242188
vn -0.968583 -0.012282 0.248388
vt 0.996667 0.493545
v 1744.191406 -2286.592529 -4585.779297
vn -0.897262 -0.092013 0.431803
vt -0.003333 0.493545
v 1816.573364 -2017.493042 -4569.764160
vn -0.919230 0.027656 0.392748
vt -0.003333 0.000918
v 1816.573364 -2017.493042 -4569.764160
vn -0.919230 0.027656 0.392748
vt 0.996667 0.000918
v 1710.779053 -1963.370850 -4891.845215
vn -0.949217 -0.024321 0.313682
vt 0.500417 0.000918
v 1659.884155 -2251.255615 -4919.495605
vn -0.963364 -0.063848 0.260488
vt 0.500417 0.493545
v 1744.191406 -2286.592529 -4585.779297
vn -0.897262 -0.092013 0.431803
vt 0.996667 0.493545
v 1560.148315 -2254.626221 -5283.116699
vn -0.887366 -0.029971 0.460091
vt -0.003333 0.493545
v 1569.844971 -1961.869019 -5288.146484
vn -0.844811 -0.041766 0.533432
vt -0.003333 0.000918
v 1569.844971 -1961.869019 -5288.146484
vn -0.844811 -0.041766 0.533432
vt 0.996667 0.000918
v 1342.010010 -1994.834839 -5564.619141
vn -0.758847 -0.015857 0.651076
vt 0.500417 0.000918
v 1359.578125 -2326.102295 -5498.169434
vn -0.709333 -0.036782 0.703913
vt 0.500417 0.493545
v 1560.148315 -2254.626221 -5283.116699
vn -0.887366 -0.029971 0.460091
vt 0.996667 0.493545
v 1163.716797 -2426.965088 -5679.198730
vn -0.821566 -0.127636 0.555643
vt -0.003333 0.493545
v 1080.466309 -2020.025024 -5832.036133
vn -0.746685 -0.053911 0.662990
vt -0.003333 0.000918
v 1558.958740 -1027.712402 -5233.844238
vn -0.607989 0.228061 0.760485
vt 0.996667 0.003333
v 1468.137085 -1046.730713 -5365.926758
vn -0.852937 0.052892 0.519327
vt 0.748542 0.003333
v 1456.693604 -1268.626587 -5348.428711
vn -0.867972 0.106115 0.485143
vt 0.748542 0.251458
v 1535.209961 -1253.990601 -5199.712891
vn -0.902323 0.123501 0.412989
vt 0.996667 0.251458
v 1713.917358 -1259.394409 -4745.659180
vn -0.899115 0.228311 0.373451
vt 0.748542 0.251875
v 1658.350708 -1253.050659 -4888.498535
vn -0.911522 0.209011 0.354178
vt 0.499480 0.251875
v 1771.417847 -1265.348145 -4611.578125
vn -0.876658 0.248536 0.411947
vt 0.996668 0.251875
v 1600.605347 -1250.024048 -5043.126465
vn -0.908560 0.179654 0.377152
vt 0.248542 0.251875
v 1535.209961 -1253.990601 -5199.712891
vn -0.902323 0.123501 0.412989
vt -0.003332 0.251875
v 1405.090698 -2418.278320 -5468.662598
vn -0.615212 -0.283128 0.735767
vt 0.499479 0.743608
v 1497.108154 -2374.641113 -5369.235840
vn -0.689338 -0.301650 0.658650
vt 0.748542 0.743608
v 2013.415894 -1248.158936 -4126.620605
vn -0.952751 0.084910 0.291643
vt 0.996668 0.251875
v 1834.964966 -1267.205200 -4483.224609
vn -0.865695 0.221251 0.449021
vt 0.248542 0.251875
v 1771.417847 -1265.348145 -4611.578125
vn -0.876658 0.248536 0.411947
vt -0.003332 0.251875
v 2034.378174 -1018.406006 -4178.786133
vn -0.967021 0.229236 -0.111003
vt -0.003333 0.000001
v 2013.415894 -1248.158936 -4126.620605
vn -0.952751 0.084910 0.291643
vt -0.003333 0.251876
v 2039.541138 -1250.641846 -3986.326416
vn -0.993292 0.027829 0.112231
vt 0.248542 0.251876
v 2045.341431 -1025.494507 -4015.441406
vn -0.996811 0.066446 0.044200
vt 0.248542 0.000001
v 1934.950562 -2303.361572 -3477.986572
vn -0.852225 -0.206219 -0.480818
vt 0.248542 0.743608
v 2056.570068 -2307.142334 -3852.630859
vn -0.920702 -0.372713 -0.115732
vt 0.499479 0.743608
v 2067.013916 -2310.967041 -3987.179932
vn -0.918087 -0.395400 0.027842
vt 0.248542 0.743608
v 2050.700928 -2317.330566 -4117.845703
vn -0.898081 -0.344687 0.273204
vt -0.003333 0.743608
v 1579.519287 -2346.293701 -5247.195801
vn -0.823125 -0.325149 0.465558
vt 0.996667 0.743608
v 1257.225952 -2544.962646 -5624.585938
vn -0.532172 -0.275981 0.800392
vt -0.003333 0.743608
v 1319.052490 -2473.907715 -5556.462891
vn -0.574208 -0.270414 0.772762
vt 0.248542 0.743608
v 1680.664063 -2340.037598 -4920.077637
vn -0.873548 -0.442863 0.201958
vt 0.499479 0.743608
v 1723.196777 -2351.478760 -4750.539063
vn -0.858995 -0.466031 0.212000
vt 0.748542 0.743608
v 1774.558594 -2360.213867 -4596.063477
vn -0.794540 -0.500126 0.344354
vt 0.996667 0.743608
v 1579.519287 -2346.293701 -5247.195801
vn -0.823125 -0.325149 0.465558
vt -0.003333 0.743608
v 1636.738037 -2336.534180 -5091.552734
vn -0.862211 -0.431818 0.264813
vt 0.248542 0.743608
v 1922.978882 -2343.402344 -4356.204102
vn -0.761860 -0.351128 0.544315
vt 0.499479 0.743608
v 1997.122070 -2329.394287 -4239.874023
vn -0.803537 -0.356258 0.476873
vt 0.748542 0.743608
v 2050.700928 -2317.330566 -4117.845703
vn -0.898081 -0.344687 0.273204
vt 0.996667 0.743608
v 1774.558594 -2360.213867 -4596.063477
vn -0.794540 -0.500126 0.344354
vt -0.003333 0.743608
v 1844.971802 -2355.598633 -4469.776367
vn -0.759751 -0.400599 0.512151
vt 0.248542 0.743608
v 1874.676514 -2316.808594 -3379.318115
vn -0.801927 -0.148576 -0.578652
vt 0.499479 0.743608
v 1988.737305 -2300.483154 -3592.089111
vn -0.904393 -0.230788 -0.358902
vt -0.003333 0.743608
v 1814.074219 -2346.301758 -3298.758545
vn -0.758464 -0.052886 -0.649565
vt 0.748542 0.743608
v 2029.877441 -2302.695557 -3718.952393
vn -0.917441 -0.321050 -0.235009
vt 0.748542 0.743608
v 1988.737305 -2300.483154 -3592.089111
vn -0.904393 -0.230788 -0.358902
vt 0.996667 0.743608
f 6/6/6 8/8/8 7/7/7
f 67/67/67 68/68/68 65/65/65
f 68/68/68 67/67/67 7/7/7
f 2/2/2 7/7/7 67/67/67
f 7/7/7 2/2/2 6/6/6
f 5/5/5 6/6/6 2/2/2
f 2/2/2 1/1/1 5/5/5
f 1/1/1 2/2/2 3/3/3
f 67/67/67 3/3/3 2/2/2
f 3/3/3 67/67/67 66/66/66
f 65/65/65 66/66/66 67/67/67
f 3/3/3 4/4/4 1/1/1
f 23/23/23 24/24/24 21/21/21
f 24/24/24 23/23/23 27/27/27
f 81/81/81 27/27/27 23/23/23
f 27/27/27 81/81/81 80/80/80
f 79/79/79 80/80/80 81/81/81
f 27/27/27 28/28/28 24/24/24
f 21/21/21 22/22/22 23/23/23
f 25/25/25 23/23/23 22/22/22
f 23/23/23 25/25/25 81/81/81
f 82/82/82 81/81/81 25/25/25
f 81/81/81 82/82/82 79/79/79
f 22/22/22 26/26/26 25/25/25
f 18/18/18 19/19/19 20/20/20
f 19/19/19 18/18/18 17/17/17
f 15/15/15 17/17/17 18/18/18
f 17/17/17 15/15/15 16/16/16
f 17/17/17 16/16/16 36/36/36
f 76/76/76 36/36/36 16/16/16
f 36/36/36 35/35/35 17/17/17
f 77/77/77 17/17/17 35/35/35
f 17/17/17 77/77/77 19/19/19
f 78/78/78 19/19/19 77/77/77
f 50/50/50 96/96/96 97/97/97
f 96/96/96 50/50/50 49/49/49
f 47/47/47 49/49/49 50/50/50
f 49/49/49 47/47/47 48/48/48
f 49/49/49 95/95/95 96/96/96
f 49/49/49 99/99/99 95/95/95
f 99/99/99 49/49/49 51/51/51
f 48/48/48 51/51/51 49/49/49
f 51/51/51 48/48/48 52/52/52
f 51/51/51 98/98/98 99/99/99
f 58/58/58 57/57/57 54/54/54
f 55/55/55 54/54/54 57/57/57
f 54/54/54 55/55/55 53/53/53
f 56/56/56 53/53/53 55/55/55
f 92/92/92 56/56/56 91/91/91
f 55/55/55 91/91/91 56/56/56
f 55/55/55 90/90/90 91/91/91
f 90/90/90 55/55/55 94/94/94
f 57/57/57 94/94/94 55/55/55
f 94/94/94 57/57/57 93/93/93
f 64/64/64 63/63/63 60/60/60
f 61/61/61 60/60/60 63/63/63
f 60/60/60 61/61/61 59/59/59
f 62/62/62 59/59/59 61/61/61
f 87/87/87 62/62/62 75/75/75
f 61/61/61 75/75/75 62/62/62
f 61/61/61 74/74/74 75/75/75
f 74/74/74 61/61/61 89/89/89
f 63/63/63 89/89/89 61/61/61
f 89/89/89 63/63/63 88/88/88
f 85/85/85 45/45/45 86/86/86
f 45/45/45 85/85/85 43/43/43
f 84/84/84 43/43/43 85/85/85
f 43/43/43 84/84/84 103/103/103
f 103/103/103 44/44/44 43/43/43
f 44/44/44 103/103/103 104/104/104
f 44/44/44 41/41/41 43/43/43
f 42/42/42 43/43/43 41/41/41
f 43/43/43 42/42/42 45/45/45
f 46/46/46 45/45/45 42/42/42
f 9/9/9 10/10/10 11/11/11
f 69/69/69 11/11/11 10/10/10
f 11/11/11 69/69/69 70/70/70
f 11/11/11 12/12/12 9/9/9
f 10/10/10 71/71/71 69/69/69
f 14/14/14 12/12/12 13/13/13
f 11/11/11 13/13/13 12/12/12
f 13/13/13 11/11/11 72/72/72
f 70/70/70 72/72/72 11/11/11
f 73/73/73 13/13/13 72/72/72
f 34/34/34 33/33/33 30/30/30
f 31/31/31 30/30/30 33/33/33
f 30/30/30 31/31/31 29/29/29
f 32/32/32 29/29/29 31/31/31
f 38/38/38 83/83/83 100/100/100
f 83/83/83 38/38/38 37/37/37
f 39/39/39 37/37/37 38/38/38
f 37/37/37 39/39/39 40/40/40
f 37/37/37 101/101/101 83/83/83
f 38/38/38 100/100/100 102/102/102
usemtl CornerB
v 1165.630249 -2789.443115 -5792.449219
vn -0.596296 0.108998 0.795330
vt 0.082672 0.751957
v 1102.547729 -2762.610840 -5853.909180
vn -0.628166 0.242729 0.739250
vt 0.001398 0.754883
v 1065.718628 -2991.648438 -5785.911621
vn -0.392302 0.685544 0.613294
vt 0.001114 1.004331
v 1255.356934 -2781.333008 -5725.280762
vn -0.384371 -0.366264 0.847414
vt 0.245220 0.746106
v 1187.347656 -2689.051025 -5780.494629
vn -0.819497 -0.033215 0.572120
vt 0.125389 0.627926
v 1217.771606 -2881.175293 -5769.203125
vn -0.235726 -0.124726 0.963782
vt 0.123167 0.875219
v 1207.487915 -2623.458740 -5703.601563
vn -0.871637 -0.281426 0.401308
vt 0.255299 0.507971
v 1163.716797 -2426.965088 -5679.198730
vn -0.821566 -0.127636 0.555643
vt 0.269041 0.273076
v 1186.869385 -2598.431641 -5752.182129
vn -0.927546 -0.209527 0.309447
vt 0.171981 0.508206
v 1155.369019 -2534.767334 -5859.302734
vn -0.804673 0.006515 0.593682
vt 0.001682 0.505435
v 1237.843384 -2634.876221 -5664.981445
vn -0.578218 -0.316364 0.752049
vt 0.334954 0.504497
v 1310.036987 -2706.193359 -5667.437500
vn -0.137821 -0.516393 0.845188
vt 0.367911 0.620208
v 1257.225952 -2544.962646 -5624.585938
vn -0.532172 -0.275981 0.800392
vt 0.379821 0.383693
v 1344.160889 -2617.145264 -5610.754883
vn -0.210265 -0.516992 0.829764
vt 0.490601 0.494309
v 1080.466309 -2020.025024 -5832.036133
vn -0.746685 -0.053911 0.662990
vt -0.003333 0.000918
f 109/109/109 114/114/114 105/105/105
f 106/106/106 105/105/105 114/114/114
f 105/105/105 106/106/106 107/107/107
f 107/107/107 110/110/110 105/105/105
f 108/108/108 105/105/105 110/110/110
f 105/105/105 108/108/108 109/109/109
f 113/113/113 109/109/109 108/108/108
f 109/109/109 113/113/113 114/114/114
f 112/112/112 114/114/114 113/113/113
f 114/114/114 112/112/112 119/119/119
f 118/118/118 117/117/117 115/115/115
f 112/112/112 115/115/115 117/117/117
f 115/115/115 112/112/112 111/111/111
f 113/113/113 111/111/111 112/112/112
f 111/111/111 113/113/113 108/108/108
f 111/111/111 108/108/108 115/115/115
f 116/116/116 115/115/115 108/108/108
f 115/115/115 116/116/116 118/118/118
