mtllib SWORDLIGHT20_PS-AREA03_118.mtl
g PS-Area03_118
usemtl WallAUnder
v -2109.845215 -5436.476563 -7759.942383
vn 0.112321 -0.001931 0.993670
vt 0.435282 0.686728
v -2434.675049 -5468.320313 -7709.430176
vn 0.283323 -0.046530 0.957895
vt 0.479021 0.695591
v -2425.519775 -6002.754395 -7757.880859
vn 0.155947 0.052881 0.986349
vt 0.477789 0.844347
v -2096.717041 -5952.979492 -7764.921875
vn 0.077214 0.044315 0.996029
vt 0.433514 0.830492
v -2858.924805 -6024.229980 -7659.658203
vn -0.101909 0.017572 0.994639
vt 0.536148 0.850324
v -2858.568359 -5448.493652 -7550.699219
vn -0.176033 -0.088395 0.980407
vt 0.536100 0.690073
v -2858.568359 -6479.965332 -7550.699219
vn -0.022598 0.724145 0.689277
vt 0.536100 0.977175
v -2429.136230 -6476.420898 -7692.392090
vn -0.037173 0.925950 0.375812
vt 0.478276 0.976188
v -2109.845215 -6467.948730 -7759.942383
vn 0.206874 0.004186 0.978359
vt 0.435282 0.973830
v -2858.568359 -5448.493652 -7550.699219
vn -0.176033 -0.088395 0.980407
vt 0.536100 0.690073
v -3211.509277 -5478.552246 -7793.017090
vn -0.415305 -0.028290 0.909242
vt 0.583625 0.698439
v -3205.766846 -6020.197266 -7815.270508
vn -0.356877 -0.019916 0.933939
vt 0.582852 0.849202
v -2858.924805 -6024.229980 -7659.658203
vn -0.101909 0.017572 0.994639
vt 0.536148 0.850324
v -3561.871826 -6065.295898 -7878.078613
vn -0.032927 -0.010805 0.999399
vt 0.630802 0.861755
v -3570.077881 -5544.351563 -7913.414063
vn -0.105225 0.026313 0.994100
vt 0.631907 0.716754
v -3570.077881 -6575.823730 -7913.414063
vn -0.132444 -0.012463 0.991112
vt 0.631907 1.003856
v -3207.874268 -6496.632813 -7763.900879
vn -0.442128 0.133228 0.887002
vt 0.583135 0.981814
v -2858.568359 -6479.965332 -7550.699219
vn -0.022598 0.724145 0.689277
vt 0.536100 0.977175
v -3570.077881 -5544.351563 -7913.414063
vn -0.105225 0.026313 0.994100
vt 0.631907 0.716754
v -4118.420410 -5442.022949 -7829.957031
vn 0.323648 0.036810 0.945461
vt 0.705743 0.688271
v -4112.145996 -5963.365723 -7800.625000
vn 0.306057 0.026001 0.951658
vt 0.704898 0.833383
v -3561.871826 -6065.295898 -7878.078613
vn -0.032927 -0.010805 0.999399
vt 0.630802 0.861755
v -4481.828613 -5940.822266 -7614.745117
vn 0.469788 0.018562 0.882584
vt 0.754677 0.827109
v -4482.898926 -5425.081543 -7615.124023
vn 0.507305 0.027933 0.861314
vt 0.754822 0.683556
v -4482.898926 -6456.553223 -7615.124023
vn 0.455529 -0.007620 0.890188
vt 0.754822 0.970658
v -4115.147949 -6479.496094 -7807.005859
vn 0.262444 -0.032889 0.964387
vt 0.705303 0.977044
v -3570.077881 -6575.823730 -7913.414063
vn -0.132444 -0.012463 0.991112
vt 0.631907 1.003856
f 9/9/9 4/4/4 8/8/8
f 3/3/3 8/8/8 4/4/4
f 8/8/8 3/3/3 7/7/7
f 5/5/5 7/7/7 3/3/3
f 6/6/6 5/5/5 2/2/2
f 3/3/3 2/2/2 5/5/5
f 2/2/2 3/3/3 1/1/1
f 4/4/4 1/1/1 3/3/3
f 15/15/15 14/14/14 11/11/11
f 12/12/12 11/11/11 14/14/14
f 11/11/11 12/12/12 10/10/10
f 13/13/13 10/10/10 12/12/12
f 18/18/18 13/13/13 17/17/17
f 12/12/12 17/17/17 13/13/13
f 17/17/17 12/12/12 16/16/16
f 14/14/14 16/16/16 12/12/12
f 24/24/24 23/23/23 20/20/20
f 21/21/21 20/20/20 23/23/23
f 20/20/20 21/21/21 19/19/19
f 22/22/22 19/19/19 21/21/21
f 27/27/27 22/22/22 26/26/26
f 21/21/21 26/26/26 22/22/22
f 26/26/26 21/21/21 25/25/25
f 23/23/23 25/25/25 21/21/21
