mtllib SWORDLIGHT20_PS-AREA01_CORNERWEB22.mtl
g a01_Cornerweb22
usemtl CornerwebWeb
v 3568.223389 424.613403 5508.959961
vn 0.392111 0.868635 -0.302858
vt 0.253905 0.243228
v 3605.644775 415.790314 5541.137695
vn 0.407384 0.862951 -0.298923
vt 0.143070 0.123296
v 3591.096680 398.610718 5379.575195
vn 0.412563 0.906116 -0.093513
vt 0.401157 0.115803
v 3648.456787 412.867676 5569.333008
vn 0.292555 0.889082 -0.352058
vt 0.007746 0.002400
v 3630.502930 375.549469 5410.503906
vn 0.449153 0.882710 -0.138148
vt 0.272161 0.006721
v 3619.394775 377.652283 5234.658691
vn 0.444607 0.895340 -0.026296
vt 0.533541 0.005501
v 3567.115479 457.319061 5579.705566
vn 0.490262 0.735005 -0.468413
vt 0.128920 0.362413
v 3569.333984 496.344360 5633.772461
vn 0.524747 0.679875 -0.512260
vt 0.001747 0.484227
v 3607.566895 448.742096 5602.589355
vn 0.408961 0.778556 -0.476027
vt 0.007721 0.242084
v 3383.564697 437.571747 5471.172363
vn -0.153571 0.931619 -0.329396
vt 0.762052 0.750574
v 3300.494385 430.821533 5514.909180
vn -0.248331 0.910321 -0.331132
vt 0.880388 0.863528
v 3371.729492 469.975372 5544.482422
vn -0.243409 0.853751 -0.460284
vt 0.646432 0.870713
v 3210.794189 426.072418 5563.863281
vn -0.226621 0.917729 -0.326215
vt 0.999501 0.994670
v 3282.741943 459.530396 5590.382813
vn -0.307904 0.847071 -0.433205
vt 0.767841 0.989002
v 3354.336670 506.388336 5614.481445
vn -0.327796 0.773538 -0.542391
vt 0.532649 0.988331
v 3403.361816 414.109192 5363.658691
vn -0.176005 0.960606 -0.215077
vt 0.875887 0.625499
v 3417.601318 394.656006 5252.833496
vn -0.219231 0.960724 -0.170137
vt 0.991559 0.497904
v 3313.191650 407.390930 5417.764648
vn -0.200104 0.951328 -0.234378
vt 0.989446 0.747233
v 3483.864990 441.623901 5455.897949
vn 0.070074 0.958809 -0.275274
vt 0.505972 0.511595
v 3521.940674 435.246399 5494.511230
vn 0.355376 0.891477 -0.281027
vt 0.381130 0.379187
v 3552.289795 409.698151 5304.785156
vn 0.342740 0.938150 -0.049024
vt 0.575096 0.189603
v 3520.727295 416.752014 5239.234863
vn 0.058059 0.995950 -0.068650
vt 0.746327 0.261573
v 3589.049316 392.720306 5114.079102
vn 0.364513 0.931198 -0.000008
vt 0.764077 0.005469
v 3559.953613 407.788269 5007.837402
vn 0.058862 0.997854 -0.028676
vt 0.991578 0.005330
v 3464.742676 413.224213 5295.308594
vn -0.186454 0.970530 -0.152663
vt 0.809352 0.442503
v 3490.569580 398.546265 5124.074707
vn -0.234925 0.966340 -0.104864
vt 0.990014 0.251657
v 3436.539795 439.617432 5468.201172
vn -0.129050 0.931966 -0.338800
vt 0.632057 0.628978
v 3516.596924 484.934021 5570.478516
vn 0.395096 0.741175 -0.542733
vt 0.191081 0.557970
v 3467.099854 495.469360 5552.486328
vn 0.119627 0.805060 -0.581006
vt 0.250888 0.760228
v 3454.940918 563.178223 5621.777344
vn 0.150732 0.713688 -0.684053
vt 0.006136 0.988149
v 3517.807129 542.422729 5631.755859
vn 0.465452 0.661811 -0.587674
vt 0.005104 0.727712
v 3419.791260 486.556122 5550.928223
vn -0.214957 0.806777 -0.550367
vt 0.450830 0.813168
v 3402.909180 543.165405 5622.750000
vn -0.266815 0.706002 -0.656027
vt 0.275688 0.985742
f 6/6/6 3/3/3 5/5/5
f 2/2/2 5/5/5 3/3/3
f 5/5/5 2/2/2 4/4/4
f 1/1/1 2/2/2 3/3/3
f 21/21/21 6/6/6 23/23/23
f 6/6/6 21/21/21 3/3/3
f 20/20/20 3/3/3 21/21/21
f 3/3/3 20/20/20 1/1/1
f 21/21/21 19/19/19 20/20/20
f 19/19/19 21/21/21 22/22/22
f 23/23/23 22/22/22 21/21/21
f 22/22/22 23/23/23 24/24/24
f 27/27/27 19/19/19 25/25/25
f 22/22/22 25/25/25 19/19/19
f 25/25/25 22/22/22 26/26/26
f 24/24/24 26/26/26 22/22/22
f 26/26/26 17/17/17 25/25/25
f 16/16/16 25/25/25 17/17/17
f 25/25/25 16/16/16 27/27/27
f 10/10/10 27/27/27 16/16/16
f 2/2/2 9/9/9 4/4/4
f 9/9/9 2/2/2 7/7/7
f 1/1/1 7/7/7 2/2/2
f 7/7/7 1/1/1 28/28/28
f 20/20/20 28/28/28 1/1/1
f 28/28/28 20/20/20 29/29/29
f 19/19/19 29/29/29 20/20/20
f 29/29/29 19/19/19 32/32/32
f 27/27/27 32/32/32 19/19/19
f 32/32/32 27/27/27 12/12/12
f 10/10/10 12/12/12 27/27/27
f 12/12/12 10/10/10 11/11/11
f 16/16/16 11/11/11 10/10/10
f 11/11/11 16/16/16 18/18/18
f 17/17/17 18/18/18 16/16/16
f 7/7/7 8/8/8 9/9/9
f 8/8/8 7/7/7 31/31/31
f 28/28/28 31/31/31 7/7/7
f 31/31/31 28/28/28 30/30/30
f 29/29/29 30/30/30 28/28/28
f 30/30/30 29/29/29 33/33/33
f 32/32/32 33/33/33 29/29/29
f 33/33/33 32/32/32 15/15/15
f 12/12/12 15/15/15 32/32/32
f 15/15/15 12/12/12 14/14/14
f 11/11/11 14/14/14 12/12/12
f 14/14/14 11/11/11 13/13/13
f 18/18/18 13/13/13 11/11/11
