mtllib SWORDLIGHT20_MAINCAVERNCLOUDS02.mtl
g nCavernClouds02
usemtl CloudsD
v -2108.445557 -4052.645508 937.469971
vn 0.000000 1.000000 0.000000
vt 0.500000 0.000000
v -2108.445801 -4052.645508 -525.874268
vn 0.000000 1.000000 0.000000
vt 0.500000 0.166667
v -3723.348877 -4052.645508 937.470093
vn 0.000000 1.000000 0.000000
vt 0.750000 0.000000
v -3723.349121 -4052.645508 -525.874146
vn 0.000000 1.000000 0.000000
vt 0.750000 0.166667
f 1/1/1 2/2/2 3/3/3
f 4/4/4 3/3/3 2/2/2
usemtl CloudsC
v -2108.445557 -4007.174805 937.469971
vn 0.000000 1.000000 0.000000
vt 0.500000 0.000000
v -2108.445801 -4007.174805 -525.874268
vn 0.000000 1.000000 0.000000
vt 0.500000 0.166667
v -3723.348877 -4007.174805 937.470093
vn 0.000000 1.000000 0.000000
vt 0.750000 0.000000
v -3723.349121 -4007.174805 -525.874146
vn 0.000000 1.000000 0.000000
vt 0.750000 0.166667
f 5/5/5 6/6/6 7/7/7
f 8/8/8 7/7/7 6/6/6
usemtl CloudsB
v -2108.445557 -3951.417236 937.469971
vn 0.000000 1.000000 0.000000
vt 0.500000 0.000000
v -2108.445801 -3951.417236 -525.874268
vn 0.000000 1.000000 0.000000
vt 0.500000 0.166667
v -3723.348877 -3951.417236 937.470093
vn 0.000000 1.000000 0.000000
vt 0.750000 0.000000
v -3723.349121 -3951.417236 -525.874146
vn 0.000000 1.000000 0.000000
vt 0.750000 0.166667
f 9/9/9 10/10/10 11/11/11
f 12/12/12 11/11/11 10/10/10
usemtl CloudsA
v -2108.445557 -3902.081299 937.469971
vn 0.000000 1.000000 0.000000
vt 0.500000 0.000000
v -2108.445801 -3902.081299 -525.874268
vn 0.000000 1.000000 0.000000
vt 0.500000 0.166667
v -3723.348877 -3902.081299 937.470093
vn 0.000000 1.000000 0.000000
vt 0.750000 0.000000
v -3723.349121 -3902.081299 -525.874146
vn 0.000000 1.000000 0.000000
vt 0.750000 0.166667
f 13/13/13 14/14/14 15/15/15
f 16/16/16 15/15/15 14/14/14
