mtllib SWORDLIGHT20_JAILBRACE06.mtl
g JailBrace06
usemtl BoardC
v -4656.067871 -1738.775391 5029.932129
vn 0.272625 -0.332839 -0.902715
vt 0.752720 0.998696
v -4691.353027 -1738.775391 5048.772461
vn -0.552080 -0.816951 -0.166733
vt 0.997363 0.998696
v -4691.353027 -1698.775391 5048.772461
vn -0.902380 0.333829 -0.272524
vt 0.997363 0.875765
v -4656.067871 -1698.775391 5029.932129
vn 0.167103 0.816043 -0.553308
vt 0.752720 0.875765
v -4427.724121 -1738.776245 5454.172363
vn 0.393794 -0.894427 -0.211958
vt 0.250000 0.873425
v -4463.009277 -1738.776245 5473.012695
vn -0.787590 -0.447214 0.423913
vt 0.500000 0.873425
v -4691.353027 -1738.775391 5048.772461
vn -0.552080 -0.816951 -0.166733
vt 0.500000 0.000499
v -4656.067871 -1738.775391 5029.932129
vn 0.272625 -0.332839 -0.902715
vt 0.250000 0.000499
v -4463.009277 -1698.776245 5473.012695
vn -0.393794 0.894427 0.211958
vt 0.750000 0.873425
v -4691.353027 -1698.775391 5048.772461
vn -0.902380 0.333829 -0.272524
vt 0.750000 0.000499
v -4427.724121 -1698.776245 5454.172363
vn 0.787590 0.447214 -0.423913
vt 1.000000 0.873425
v -4656.067871 -1698.775391 5029.932129
vn 0.167103 0.816043 -0.553308
vt 1.000000 0.000499
v -4427.724121 -1698.776245 5454.172363
vn 0.787590 0.447214 -0.423913
vt -0.000000 0.873425
v -4656.067871 -1698.775391 5029.932129
vn 0.167103 0.816043 -0.553308
vt -0.000000 0.000499
f 3/3/3 1/1/1 2/2/2
f 1/1/1 3/3/3 4/4/4
f 11/11/11 12/12/12 9/9/9
f 10/10/10 9/9/9 12/12/12
f 9/9/9 10/10/10 6/6/6
f 7/7/7 6/6/6 10/10/10
f 6/6/6 7/7/7 5/5/5
f 8/8/8 5/5/5 7/7/7
f 5/5/5 8/8/8 13/13/13
f 14/14/14 13/13/13 8/8/8
