mtllib SWORDLIGHT20_PS-AREA03_172.mtl
g PS-Area03_172
usemtl WallC
v -2431.588867 -3209.099609 608.570068
vn -0.705001 0.092715 -0.703120
vt 1.000000 0.503750
v -2272.355713 -3233.130859 437.229492
vn -0.830546 0.056244 -0.554104
vt 0.496250 0.503750
v -2325.583008 -3499.222412 445.101105
vn -0.777529 0.078276 -0.623956
vt 0.496250 1.000000
v -2500.000000 -3498.757324 600.000061
vn -0.657984 0.132455 -0.741291
vt 1.000000 1.000000
v -2448.054932 -2911.620117 616.461487
vn -0.747762 -0.103767 -0.655808
vt 1.000000 0.000000
v -2281.262939 -2957.116211 431.258728
vn -0.822145 -0.103804 -0.559734
vt 0.496250 0.000000
v -2182.002441 -3252.366943 232.103378
vn -0.596724 0.055096 -0.800553
vt 0.000000 0.503750
v -2203.873291 -2992.708008 268.686829
vn -0.554935 -0.017131 -0.831717
vt 0.000000 0.000000
v -2201.299072 -2000.860962 225.536469
vn -0.548817 0.010228 -0.835880
vt -0.003333 1.003333
v -2352.900146 -1990.483276 406.920532
vn -0.739101 -0.009299 -0.673530
vt 0.500416 1.003333
v -2376.992920 -1486.464600 436.622009
vn -0.696616 -0.005875 -0.717421
vt 0.500417 0.499583
v -2189.263184 -1521.589233 280.372314
vn -0.539480 0.058364 -0.839973
vt -0.003333 0.499583
v -2203.873291 -2992.708008 268.686829
vn -0.554935 -0.017131 -0.831717
vt 0.000000 1.000000
v -2281.262939 -2957.116211 431.258728
vn -0.822145 -0.103804 -0.559734
vt 0.496250 1.000000
v -2350.470947 -2473.643311 409.989655
vn -0.696892 -0.033590 -0.716389
vt 0.496250 0.503750
v -2180.459717 -2498.877197 265.902771
vn -0.508494 -0.045654 -0.859854
vt 0.000000 0.503750
v -2562.932129 -2453.404541 571.239746
vn -0.047108 -0.079462 -0.995724
vt 1.000000 0.503750
v -2448.054932 -2911.620117 616.461487
vn -0.747762 -0.103767 -0.655808
vt 1.000000 1.000000
v -2352.900146 -1990.483276 406.920532
vn -0.739101 -0.009299 -0.673530
vt 0.496250 0.000000
v -2201.299072 -2000.860962 225.536469
vn -0.548817 0.010228 -0.835880
vt 0.000000 0.000000
v -2190.755371 -3514.163818 181.249664
vn -0.852643 0.365941 -0.372943
vt 0.000000 1.000000
v -2255.515381 -3523.271729 320.824005
vn -0.887494 0.047975 -0.458315
vt 0.248125 1.000000
v -2244.866211 -3371.180176 328.608490
vn -0.858481 0.121314 -0.498290
vt 0.248125 0.751875
v -2175.045410 -3372.552490 238.517487
vn -0.614164 0.145110 -0.775723
vt 0.000000 0.751875
v -2560.332764 -1484.794800 617.793335
vn -0.492265 -0.008933 -0.870400
vt 0.996667 0.499584
v -2447.556396 -1740.435669 515.333984
vn -0.651121 0.018470 -0.758749
vt 0.748542 0.751458
v -2563.429199 -1741.232666 598.302185
vn -0.455133 0.074411 -0.887309
vt 0.996667 0.751459
v -2435.508057 -1990.075439 504.822998
vn -0.638318 0.021416 -0.769475
vt 0.748541 1.003333
v -2548.468018 -2000.617554 568.444275
vn -0.159609 0.270959 -0.949266
vt 0.996666 1.003333
v -2977.178223 -1924.262573 665.133545
vn -0.153885 0.576708 -0.802326
vt 0.496250 1.003333
v -2962.215820 -1739.522827 710.114441
vn -0.217925 0.179476 -0.959321
vt 0.497187 0.751458
v -2745.827637 -1739.700317 660.081360
vn -0.248758 0.140129 -0.958375
vt 0.248125 0.751458
v -2755.078369 -1929.289673 622.508911
vn -0.101018 0.513564 -0.852084
vt 0.248125 1.003333
v -2941.857178 -1494.490112 733.471497
vn -0.229023 0.042935 -0.972474
vt 0.496250 0.499583
v -2560.332764 -1484.794800 617.793335
vn -0.492265 -0.008933 -0.870400
vt -0.000000 0.499583
v -2563.429199 -1741.232666 598.302185
vn -0.455133 0.074411 -0.887309
vt -0.000000 0.751458
v -2548.468018 -2000.617554 568.444275
vn -0.159609 0.270959 -0.949266
vt -0.000000 1.003333
v -3451.633301 -1997.980347 770.864319
vn -0.519999 0.668684 -0.531473
vt 1.000000 1.003333
v -3392.687500 -1748.113159 800.629333
vn -0.183850 0.111962 -0.976557
vt 1.000000 0.751458
v -3180.056885 -1744.384644 757.844543
vn -0.214498 0.169589 -0.961889
vt 0.748125 0.751458
v -3197.189697 -1927.759277 711.524109
vn -0.254031 0.595434 -0.762185
vt 0.748125 1.003333
v -3350.223389 -1503.532349 808.846191
vn -0.131553 -0.012325 -0.991233
vt 1.000000 0.499583
v -2548.468018 -2000.617554 568.444275
vn -0.159609 0.270959 -0.949266
vt 1.000000 0.000000
v -2435.508057 -1990.075439 504.822998
vn -0.638318 0.021416 -0.769475
vt 0.748125 0.000000
v -2441.575684 -2229.382813 497.037476
vn -0.588736 0.025364 -0.807927
vt 0.748125 0.251875
v -2531.882324 -2231.299805 544.658447
vn -0.061566 -0.006568 -0.998081
vt 1.000000 0.251875
f 11/11/11 12/12/12 9/9/9
f 9/9/9 10/10/10 11/11/11
f 26/26/26 11/11/11 10/10/10
f 11/11/11 26/26/26 25/25/25
f 27/27/27 25/25/25 26/26/26
f 26/26/26 29/29/29 27/27/27
f 29/29/29 26/26/26 28/28/28
f 10/10/10 28/28/28 26/26/26
f 45/45/45 44/44/44 19/19/19
f 44/44/44 45/45/45 43/43/43
f 46/46/46 43/43/43 45/45/45
f 20/20/20 16/16/16 19/19/19
f 15/15/15 19/19/19 16/16/16
f 19/19/19 15/15/15 45/45/45
f 17/17/17 45/45/45 15/15/15
f 45/45/45 17/17/17 46/46/46
f 16/16/16 13/13/13 15/15/15
f 14/14/14 15/15/15 13/13/13
f 15/15/15 14/14/14 17/17/17
f 18/18/18 17/17/17 14/14/14
f 8/8/8 7/7/7 6/6/6
f 2/2/2 6/6/6 7/7/7
f 6/6/6 2/2/2 5/5/5
f 1/1/1 5/5/5 2/2/2
f 4/4/4 1/1/1 3/3/3
f 2/2/2 3/3/3 1/1/1
f 3/3/3 2/2/2 23/23/23
f 7/7/7 23/23/23 2/2/2
f 23/23/23 7/7/7 24/24/24
f 23/23/23 22/22/22 3/3/3
f 22/22/22 23/23/23 21/21/21
f 24/24/24 21/21/21 23/23/23
f 32/32/32 34/34/34 35/35/35
f 34/34/34 32/32/32 31/31/31
f 30/30/30 31/31/31 32/32/32
f 31/31/31 30/30/30 40/40/40
f 41/41/41 40/40/40 30/30/30
f 40/40/40 41/41/41 38/38/38
f 34/34/34 31/31/31 40/40/40
f 32/32/32 33/33/33 30/30/30
f 32/32/32 37/37/37 33/33/33
f 37/37/37 32/32/32 36/36/36
f 35/35/35 36/36/36 32/32/32
f 38/38/38 39/39/39 40/40/40
f 42/42/42 40/40/40 39/39/39
f 40/40/40 42/42/42 34/34/34
