mtllib SWORDLIGHT20_JAILCEILBRACKET15.mtl
g ilCeilBracket15
usemtl BoardB
v -4951.111328 -1194.689453 2564.330078
vn -0.290442 0.894427 -0.340064
vt 0.228076 0.999501
v -5502.044922 -1194.689453 3034.871826
vn -0.459900 0.707140 -0.537070
vt 0.228076 0.500000
v -5482.566406 -1194.689453 3057.678223
vn 0.458552 0.707083 0.538297
vt -0.004227 0.500000
v -4931.632813 -1194.689453 2587.136475
vn 0.580884 0.447214 0.680128
vt -0.004226 0.999501
v -6175.639648 -1195.827026 3611.683594
vn -0.582156 0.447336 -0.678959
vt 0.228076 0.000499
v -6157.644043 -1195.835327 3632.753418
vn 0.289223 0.894354 0.341293
vt -0.004228 0.000499
v -4951.111328 -1224.681885 2564.330078
vn -0.459228 -0.707109 -0.537686
vt 0.478075 0.999501
v -4931.632813 -1224.681885 2587.136475
vn 0.459229 -0.707107 0.537688
vt 0.728076 0.999501
v -5482.566406 -1224.681763 3057.678223
vn 0.458768 -0.707105 0.538084
vt 0.728076 0.500000
v -5502.044922 -1224.682007 3034.872070
vn -0.460158 -0.707097 -0.536906
vt 0.478076 0.500000
v -6157.649902 -1223.538452 3632.750977
vn 0.457834 -0.707122 0.538856
vt 0.728076 0.000499
v -6175.641113 -1223.541260 3611.677734
vn -0.460634 -0.707070 -0.536533
vt 0.478077 0.000499
v -4931.632813 -1194.689453 2587.136475
vn 0.580884 0.447214 0.680128
vt 0.995774 0.999501
v -5482.566406 -1194.689453 3057.678223
vn 0.458552 0.707083 0.538297
vt 0.995773 0.500000
v -6157.644043 -1195.835327 3632.753418
vn 0.289223 0.894354 0.341293
vt 0.995772 0.000499
v -5112.327637 -901.851501 2703.044922
vn -0.629352 0.775448 -0.050957
vt 0.228076 0.500000
v -5498.420410 -1193.178345 3037.864258
vn -0.753079 0.383252 -0.534781
vt 0.228076 0.000499
v -5484.924316 -1193.198364 3053.648926
vn -0.048231 0.775530 0.629466
vt -0.004228 0.000499
v -5093.870605 -901.831238 2724.673096
vn 0.408985 0.385198 0.827257
vt -0.004227 0.500000
v -5097.658691 -926.331909 2690.561768
vn -0.195527 -0.618393 -0.761156
vt 0.478076 0.500000
v -5079.234375 -926.326538 2712.141357
vn 0.721537 -0.617617 0.312945
vt 0.728076 0.500000
v -5459.871094 -1208.722656 3032.424316
vn 0.721530 -0.617558 0.313076
vt 0.728076 0.000499
v -5473.429199 -1208.708862 3016.565430
vn -0.195085 -0.618849 -0.760899
vt 0.478077 0.000499
v -5093.870605 -901.831238 2724.673096
vn 0.408985 0.385198 0.827257
vt 0.995773 0.500000
v -5484.924316 -1193.198364 3053.648926
vn -0.048231 0.775530 0.629466
vt 0.995772 0.000499
v -5274.386230 -1196.941284 2840.842041
vn 0.385356 -0.137454 -0.912473
vt 0.228076 0.500000
v -5254.805176 -1043.526733 2826.092285
vn -0.245482 -0.061411 -0.967454
vt 0.228076 0.000499
v -5237.661621 -1043.520386 2846.236816
vn 0.963772 -0.136251 -0.229301
vt -0.004228 0.000499
v -5255.318848 -1196.895508 2863.561768
vn 0.915203 -0.060938 0.398360
vt -0.004227 0.500000
v -5299.469238 -1195.425293 2862.259521
vn -0.988424 0.126132 -0.084312
vt 0.478076 0.500000
v -5280.334473 -1195.413818 2884.604736
vn -0.073686 0.126052 0.989283
vt 0.728076 0.500000
v -5263.952148 -1062.632568 2868.906250
vn -0.072705 0.126532 0.989295
vt 0.728076 0.000499
v -5281.312500 -1062.632813 2848.562256
vn -0.988404 0.126477 -0.084031
vt 0.478077 0.000499
v -5255.318848 -1196.895508 2863.561768
vn 0.915203 -0.060938 0.398360
vt 0.995773 0.500000
v -5237.661621 -1043.520386 2846.236816
vn 0.963772 -0.136251 -0.229301
vt 0.995772 0.000499
v -5868.467773 -901.851440 3386.245850
vn 0.629354 0.775446 0.050962
vt 0.228076 0.500000
v -5482.374512 -1193.178589 3051.427490
vn 0.753078 0.383242 0.534789
vt 0.228076 0.000499
v -5495.870605 -1193.198364 3035.642090
vn 0.048235 0.775532 -0.629463
vt -0.004228 0.000499
v -5886.924805 -901.831116 3364.617676
vn -0.408985 0.385199 -0.827256
vt -0.004227 0.500000
v -5883.136719 -926.331787 3398.729004
vn 0.195522 -0.618397 0.761154
vt 0.478076 0.500000
v -5901.561035 -926.326416 3377.149414
vn -0.721537 -0.617616 -0.312945
vt 0.728076 0.500000
v -5520.924316 -1208.722656 3056.866699
vn -0.721530 -0.617558 -0.313077
vt 0.728076 0.000499
v -5507.366211 -1208.708740 3072.725586
vn 0.195075 -0.618857 0.760895
vt 0.478077 0.000499
v -5886.924805 -901.831116 3364.617676
vn -0.408985 0.385199 -0.827256
vt 0.995773 0.500000
v -5495.870605 -1193.198364 3035.642090
vn 0.048235 0.775532 -0.629463
vt 0.995772 0.000499
v -5725.440918 -1195.472046 3265.027344
vn -0.390799 0.005381 0.920460
vt 0.228076 0.500000
v -5725.864258 -1043.390869 3264.001953
vn 0.238644 0.007818 0.971076
vt 0.228076 0.000499
v -5743.898926 -1043.383911 3242.815430
vn -0.970455 0.005045 0.241231
vt -0.004228 0.000499
v -5744.840332 -1195.454468 3242.384766
vn -0.921399 0.006560 -0.388562
vt -0.004227 0.500000
v -5702.565918 -1195.359741 3245.717773
vn 0.996715 -0.000547 0.080989
vt 0.478076 0.500000
v -5721.872559 -1195.351807 3222.771973
vn 0.082168 -0.001237 -0.996618
vt 0.728076 0.500000
v -5720.637207 -1061.452881 3222.707764
vn 0.079232 -0.001762 -0.996855
vt 0.728076 0.000499
v -5702.331055 -1061.474976 3244.055908
vn 0.997035 -0.000797 0.076941
vt 0.478077 0.000499
v -5744.840332 -1195.454468 3242.384766
vn -0.921399 0.006560 -0.388562
vt 0.995773 0.500000
v -5743.898926 -1043.383911 3242.815430
vn -0.970455 0.005045 0.241231
vt 0.995772 0.000499
v -5801.507324 -1196.002197 3329.397949
vn -0.370223 -0.206475 0.905706
vt 0.228076 0.500000
v -5847.094238 -953.158508 3366.166992
vn 0.252963 -0.098043 0.962495
vt 0.228076 0.000499
v -5863.774902 -953.152161 3346.597656
vn -0.952285 -0.206688 0.224576
vt -0.004228 0.000499
v -5820.339844 -1196.018799 3307.446777
vn -0.911671 -0.098491 -0.398943
vt -0.004227 0.500000
v -5777.155762 -1196.387329 3308.529541
vn 0.981747 0.168203 0.088776
vt 0.478076 0.500000
v -5795.920898 -1196.385376 3286.588623
vn 0.063626 0.167782 -0.983769
vt 0.728076 0.500000
v -5834.664063 -975.814636 3321.701416
vn 0.064644 0.167783 -0.983702
vt 0.728076 0.000499
v -5817.949707 -975.803406 3341.266357
vn 0.981765 0.168502 0.088007
vt 0.478077 0.000499
v -5820.339844 -1196.018799 3307.446777
vn -0.911671 -0.098491 -0.398943
vt 0.995773 0.500000
v -5863.774902 -953.152161 3346.597656
vn -0.952285 -0.206688 0.224576
vt 0.995772 0.000499
v -5176.487793 -1195.964111 2757.505859
vn 0.371701 -0.195805 -0.907468
vt 0.228076 0.500000
v -5132.735352 -950.506287 2722.406006
vn -0.252006 -0.092559 -0.963289
vt 0.228076 0.000499
v -5116.162598 -950.500000 2741.850098
vn 0.954080 -0.196133 -0.226415
vt -0.004228 0.000499
v -5157.653809 -1195.986328 2779.402588
vn 0.912664 -0.092941 0.398004
vt -0.004227 0.500000
v -5203.989746 -1196.046143 2781.061523
vn -0.982599 0.163289 -0.088525
vt 0.478076 0.500000
v -5185.229004 -1196.043701 2802.999756
vn -0.064068 0.162974 0.984548
vt 0.728076 0.500000
v -5147.950684 -975.911255 2768.986328
vn -0.066109 0.163066 0.984398
vt 0.728076 0.000499
v -5164.498535 -975.908875 2749.539551
vn -0.982577 0.163654 -0.088086
vt 0.478077 0.000499
v -5157.653809 -1195.986328 2779.402588
vn 0.912664 -0.092941 0.398004
vt 0.995773 0.500000
v -5116.162598 -950.500000 2741.850098
vn 0.954080 -0.196133 -0.226415
vt 0.995772 0.000499
v -5494.315918 -1194.623413 3067.700439
vn -0.389954 -0.004641 0.920823
vt 0.228076 0.500000
v -5496.152832 -728.048218 3069.265625
vn 0.240647 -0.002311 0.970610
vt 0.228076 0.000499
v -5515.614746 -728.048401 3046.476807
vn -0.970607 -0.004623 0.240624
vt -0.004228 0.000499
v -5513.779785 -1194.623291 3044.882324
vn -0.920911 -0.002313 -0.389767
vt -0.004227 0.500000
v -5465.968750 -1194.589111 3043.499023
vn 0.996913 0.000311 0.078510
vt 0.478076 0.500000
v -5485.447266 -1194.588989 3020.696289
vn 0.078541 0.000308 -0.996911
vt 0.728076 0.500000
v -5485.605469 -728.022095 3020.827881
vn 0.078373 0.000323 -0.996924
vt 0.728076 0.000499
v -5466.123047 -728.021912 3043.631348
vn 0.996913 0.000308 0.078509
vt 0.478077 0.000499
v -5513.779785 -1194.623291 3044.882324
vn -0.920911 -0.002313 -0.389767
vt 0.995773 0.500000
v -5515.614746 -728.048401 3046.476807
vn -0.970607 -0.004623 0.240624
vt 0.995772 0.000499
f 20/20/20 21/21/21 22/22/22
f 24/24/24 22/22/22 21/21/21
f 22/22/22 24/24/24 25/25/25
f 22/22/22 23/23/23 20/20/20
f 17/17/17 20/20/20 23/23/23
f 20/20/20 17/17/17 16/16/16
f 18/18/18 16/16/16 17/17/17
f 16/16/16 18/18/18 19/19/19
f 1/1/1 3/3/3 4/4/4
f 3/3/3 1/1/1 2/2/2
f 7/7/7 2/2/2 1/1/1
f 2/2/2 7/7/7 10/10/10
f 9/9/9 10/10/10 7/7/7
f 10/10/10 9/9/9 11/11/11
f 14/14/14 11/11/11 9/9/9
f 11/11/11 14/14/14 15/15/15
f 7/7/7 8/8/8 9/9/9
f 13/13/13 9/9/9 8/8/8
f 9/9/9 13/13/13 14/14/14
f 11/11/11 12/12/12 10/10/10
f 5/5/5 10/10/10 12/12/12
f 10/10/10 5/5/5 2/2/2
f 6/6/6 2/2/2 5/5/5
f 2/2/2 6/6/6 3/3/3
f 32/32/32 33/33/33 30/30/30
f 27/27/27 30/30/30 33/33/33
f 30/30/30 27/27/27 26/26/26
f 28/28/28 26/26/26 27/27/27
f 26/26/26 28/28/28 29/29/29
f 30/30/30 31/31/31 32/32/32
f 34/34/34 32/32/32 31/31/31
f 32/32/32 34/34/34 35/35/35
f 42/42/42 43/43/43 40/40/40
f 37/37/37 40/40/40 43/43/43
f 40/40/40 37/37/37 36/36/36
f 38/38/38 36/36/36 37/37/37
f 36/36/36 38/38/38 39/39/39
f 40/40/40 41/41/41 42/42/42
f 44/44/44 42/42/42 41/41/41
f 42/42/42 44/44/44 45/45/45
f 52/52/52 53/53/53 50/50/50
f 47/47/47 50/50/50 53/53/53
f 50/50/50 47/47/47 46/46/46
f 48/48/48 46/46/46 47/47/47
f 46/46/46 48/48/48 49/49/49
f 50/50/50 51/51/51 52/52/52
f 54/54/54 52/52/52 51/51/51
f 52/52/52 54/54/54 55/55/55
f 62/62/62 63/63/63 60/60/60
f 57/57/57 60/60/60 63/63/63
f 60/60/60 57/57/57 56/56/56
f 58/58/58 56/56/56 57/57/57
f 56/56/56 58/58/58 59/59/59
f 60/60/60 61/61/61 62/62/62
f 64/64/64 62/62/62 61/61/61
f 62/62/62 64/64/64 65/65/65
f 82/82/82 83/83/83 80/80/80
f 77/77/77 80/80/80 83/83/83
f 80/80/80 77/77/77 76/76/76
f 78/78/78 76/76/76 77/77/77
f 76/76/76 78/78/78 79/79/79
f 80/80/80 81/81/81 82/82/82
f 84/84/84 82/82/82 81/81/81
f 82/82/82 84/84/84 85/85/85
f 72/72/72 73/73/73 70/70/70
f 67/67/67 70/70/70 73/73/73
f 70/70/70 67/67/67 66/66/66
f 68/68/68 66/66/66 67/67/67
f 66/66/66 68/68/68 69/69/69
f 70/70/70 71/71/71 72/72/72
f 74/74/74 72/72/72 71/71/71
f 72/72/72 74/74/74 75/75/75
