mtllib SWORDLIGHT20_PS-AREA04_12.mtl
g PS-Area04_12
usemtl RockwallA
v -6321.584961 -1636.492310 3992.718262
vn -0.029161 -0.111522 0.993334
vt -0.000001 0.003333
v -6542.164551 -1636.492310 3909.969727
vn -0.600592 -0.046199 0.798220
vt 0.499999 0.003333
v -6501.418457 -1832.055298 3863.284180
vn -0.570339 -0.089486 0.816521
vt 0.499999 0.503333
v -6320.222168 -1842.299194 3952.744141
vn -0.057276 -0.022300 0.998109
vt -0.000001 0.503333
v -6633.486816 -1848.022217 3713.244141
vn -0.958849 -0.079431 0.272580
vt 0.999999 0.503333
v -6675.114746 -1636.492310 3722.319580
vn -0.982344 -0.024186 0.185515
vt 0.999999 0.003333
v -6143.170410 -1636.492310 3936.054688
vn 0.540092 -0.037181 0.840784
vt 0.500000 0.000000
v -6168.002441 -1826.472046 3893.104004
vn 0.510925 -0.052779 0.858003
vt 0.500000 0.500000
v -6051.749512 -1835.091431 3779.240723
vn 0.913828 -0.075056 0.399104
vt -0.000000 0.500000
v -6019.454590 -1636.492310 3793.104980
vn 0.913084 0.028916 0.406745
vt -0.000000 0.000000
v -6321.584961 -1636.492310 3992.718262
vn -0.029161 -0.111522 0.993334
vt 1.000000 0.000000
v -6320.222168 -1842.299194 3952.744141
vn -0.057276 -0.022300 0.998109
vt 1.000000 0.500000
v -6675.114746 -1636.492310 3722.319580
vn -0.982344 -0.024186 0.185515
vt -0.000001 0.003333
v -6637.866699 -1636.492310 3554.880859
vn -0.859091 -0.035680 -0.510578
vt 0.499999 0.003333
v -6585.327637 -1833.981689 3574.715820
vn -0.873959 -0.055561 -0.482814
vt 0.499999 0.503333
v -6633.486816 -1848.022217 3713.244141
vn -0.958849 -0.079431 0.272580
vt -0.000001 0.503333
v -6477.945801 -1842.103149 3465.150391
vn -0.469621 -0.007113 -0.882840
vt 0.999999 0.503333
v -6496.264160 -1636.492310 3436.578125
vn -0.416966 -0.033399 -0.908308
vt 0.999999 0.003333
v -6496.264160 -1636.492310 3436.578125
vn -0.416966 -0.033399 -0.908308
vt -0.000001 0.003333
v -6280.383301 -1636.492310 3402.735840
vn 0.115996 -0.015960 -0.993122
vt 0.499999 0.003333
v -6288.492188 -1829.222290 3443.709961
vn 0.039062 0.011231 -0.999174
vt 0.499999 0.503333
v -6477.945801 -1842.103149 3465.150391
vn -0.469621 -0.007113 -0.882840
vt -0.000001 0.503333
v -6109.120117 -1842.578003 3493.774902
vn 0.611072 0.035469 -0.790780
vt 0.999999 0.503333
v -6081.652344 -1636.492310 3488.927246
vn 0.680141 0.006016 -0.733056
vt 0.999999 0.003333
v -6081.652344 -1636.492310 3488.927246
vn 0.680141 0.006016 -0.733056
vt -0.000001 0.003333
v -6000.395996 -1636.492310 3630.756836
vn 0.975387 -0.037451 -0.217298
vt 0.499999 0.003333
v -6048.477051 -1826.597412 3630.664307
vn 0.970351 -0.031100 -0.239691
vt 0.499999 0.503333
v -6109.120117 -1842.578003 3493.774902
vn 0.611072 0.035469 -0.790780
vt -0.000001 0.503333
v -6051.749512 -1835.091431 3779.240723
vn 0.913828 -0.075056 0.399104
vt 0.999999 0.503333
v -6019.454590 -1636.492310 3793.104980
vn 0.913084 0.028916 0.406745
vt 0.999999 0.003333
v -6321.584961 -1200.644531 3992.718262
vn 0.101597 -0.482656 0.869897
vt -0.000001 0.003333
v -6518.861816 -1244.171631 3887.875977
vn -0.549392 -0.422031 0.721151
vt 0.499999 0.003333
v -6512.610840 -1426.614136 3879.801758
vn -0.628250 0.048250 0.776514
vt 0.499999 0.503333
v -6324.600098 -1407.851807 3960.411133
vn -0.036581 0.057308 0.997686
vt -0.000001 0.503333
v -6636.295410 -1401.849487 3716.384521
vn -0.975135 0.016384 0.221006
vt 0.999999 0.503333
v -6675.114746 -1200.644531 3722.319580
vn -0.779519 -0.600751 0.177339
vt 0.999999 0.003333
v -6675.114746 -1636.492310 3722.319580
vn -0.982344 -0.024186 0.185515
vt 1.000000 1.003333
v -6542.164551 -1636.492310 3909.969727
vn -0.600592 -0.046199 0.798220
vt 0.500000 1.003333
v -6321.584961 -1636.492310 3992.718262
vn -0.029161 -0.111522 0.993334
vt -0.000000 1.003333
v -6019.454590 -1636.492310 3793.104980
vn 0.913084 0.028916 0.406745
vt -0.000000 1.000000
v -6043.108887 -1412.066040 3782.775391
vn 0.909809 -0.028144 0.414071
vt -0.000000 0.500000
v -6160.630859 -1421.325073 3905.656738
vn 0.553963 0.019887 0.832304
vt 0.500000 0.500000
v -6143.170410 -1636.492310 3936.054688
vn 0.540092 -0.037181 0.840784
vt 0.500000 1.000000
v -6151.420898 -1223.376831 3917.895996
vn 0.575332 -0.366443 0.731240
vt 0.500000 0.000000
v -6019.454590 -1200.644531 3793.104980
vn 0.842429 -0.412378 0.346783
vt -0.000000 0.000000
v -6321.584961 -1200.644531 3992.718262
vn 0.101597 -0.482656 0.869897
vt 1.000000 0.000000
v -6324.600098 -1407.851807 3960.411133
vn -0.036581 0.057308 0.997686
vt 1.000000 0.500000
v -6321.584961 -1636.492310 3992.718262
vn -0.029161 -0.111522 0.993334
vt 1.000000 1.000000
v -6675.114746 -1200.644531 3722.319580
vn -0.779519 -0.600751 0.177339
vt -0.000001 0.003333
v -6611.532227 -1230.471313 3553.444336
vn -0.754001 -0.419957 -0.505092
vt 0.499999 0.003333
v -6598.733887 -1420.852173 3564.288574
vn -0.851026 0.012862 -0.524966
vt 0.499999 0.503333
v -6636.295410 -1401.849487 3716.384521
vn -0.975135 0.016384 0.221006
vt -0.000001 0.503333
v -6483.154785 -1410.028076 3452.525391
vn -0.434858 -0.017306 -0.900333
vt 0.999999 0.503333
v -6496.264160 -1200.644531 3416.098145
vn -0.339114 -0.426232 -0.838646
vt 0.999999 0.003333
v -6496.264160 -1636.492310 3436.578125
vn -0.416966 -0.033399 -0.908308
vt 1.000000 1.003333
v -6637.866699 -1636.492310 3554.880859
vn -0.859091 -0.035680 -0.510578
vt 0.500000 1.003333
v -6675.114746 -1636.492310 3722.319580
vn -0.982344 -0.024186 0.185515
vt -0.000000 1.003333
v -6496.264160 -1200.644531 3416.098145
vn -0.339114 -0.426232 -0.838646
vt -0.000001 0.003333
v -6284.719727 -1230.475098 3421.843994
vn 0.198375 -0.402734 -0.893562
vt 0.499999 0.003333
v -6285.964355 -1424.444946 3437.119141
vn 0.182501 0.024418 -0.982902
vt 0.499999 0.503333
v -6483.154785 -1410.028076 3452.525391
vn -0.434858 -0.017306 -0.900333
vt -0.000001 0.503333
v -6101.586426 -1409.031250 3519.166016
vn 0.663981 0.023719 -0.747373
vt 0.999999 0.503333
v -6081.652344 -1200.644531 3502.463867
vn 0.578046 -0.482338 -0.658188
vt 0.999999 0.003333
v -6081.652344 -1636.492310 3488.927246
vn 0.680141 0.006016 -0.733056
vt 1.000000 1.003333
v -6280.383301 -1636.492310 3402.735840
vn 0.115996 -0.015960 -0.993122
vt 0.500000 1.003333
v -6496.264160 -1636.492310 3436.578125
vn -0.416966 -0.033399 -0.908308
vt -0.000000 1.003333
v -6081.652344 -1200.644531 3502.463867
vn 0.578046 -0.482338 -0.658188
vt -0.000001 0.003333
v -6015.316895 -1228.173828 3640.520508
vn 0.899758 -0.415392 -0.133736
vt 0.499999 0.003333
v -6029.650879 -1424.313354 3642.209473
vn 0.979530 0.021052 -0.200195
vt 0.499999 0.503333
v -6101.586426 -1409.031250 3519.166016
vn 0.663981 0.023719 -0.747373
vt -0.000001 0.503333
v -6043.108887 -1412.066040 3782.775391
vn 0.909809 -0.028144 0.414071
vt 0.999999 0.503333
v -6019.454590 -1200.644531 3793.104980
vn 0.842429 -0.412378 0.346783
vt 0.999999 0.003333
v -6019.454590 -1636.492310 3793.104980
vn 0.913084 0.028916 0.406745
vt 1.000000 1.003333
v -6000.395996 -1636.492310 3630.756836
vn 0.975387 -0.037451 -0.217298
vt 0.500000 1.003333
v -6081.652344 -1636.492310 3488.927246
vn 0.680141 0.006016 -0.733056
vt -0.000000 1.003333
v -6683.991699 -1993.054321 3734.987793
vn -0.433733 0.896415 0.091197
vt 1.000000 1.003333
v -6595.369141 -1972.819214 3828.896973
vn -0.473735 0.782586 0.403900
vt 0.750000 1.003333
v -6578.421387 -1913.708862 3791.124023
vn -0.704633 0.334127 0.625980
vt 0.749999 0.753333
v -6627.172363 -1919.354492 3717.826172
vn -0.921822 0.305420 0.238670
vt 0.999999 0.753333
v -6507.705078 -1967.414185 3896.005859
vn -0.360674 0.781825 0.508590
vt 0.500000 1.003333
v -6498.806152 -1908.078979 3859.663574
vn -0.592354 0.229962 0.772162
vt 0.499999 0.753333
v -6411.722168 -1912.278076 3918.598633
vn -0.412582 0.316783 0.854064
vt 0.249999 0.753333
v -6324.114746 -1916.596313 3949.924805
vn -0.086918 0.278930 0.956370
vt -0.000001 0.753333
v -6416.347656 -1973.465942 3957.919922
vn -0.227977 0.781928 0.580185
vt 0.250000 1.003333
v -6311.363281 -1987.860229 3999.493164
vn 0.011562 0.841063 0.540813
vt -0.000000 1.003333
v -6019.802246 -1978.995605 3789.826172
vn 0.639029 0.720002 0.270627
vt -0.000000 1.000000
v -6052.649902 -1913.660767 3779.812012
vn 0.889216 0.235792 0.392041
vt -0.000000 0.750000
v -6100.276855 -1909.521362 3842.360352
vn 0.686829 0.267662 0.675739
vt 0.250000 0.750000
v -6070.922363 -1973.109253 3854.774414
vn 0.525812 0.704216 0.477077
vt 0.250000 1.000000
v -6168.277832 -1905.838623 3893.773438
vn 0.534899 0.198640 0.821234
vt 0.500000 0.750000
v -6143.692383 -1967.146240 3908.296387
vn 0.410799 0.691337 0.594389
vt 0.500000 1.000000
v -6242.928223 -1911.323364 3935.639160
vn 0.347144 0.280191 0.894977
vt 0.750000 0.750000
v -6221.086914 -1971.895264 3955.622559
vn 0.285009 0.683930 0.671572
vt 0.750000 1.000000
v -6324.114746 -1916.596313 3949.924805
vn -0.086918 0.278930 0.956370
vt 1.000000 0.750000
v -6311.363281 -1987.860229 3999.493164
vn 0.011562 0.841063 0.540813
vt 1.000000 1.000000
v -6490.611816 -1989.377563 3413.584473
vn -0.256931 0.804360 -0.535716
vt 1.000000 1.003333
v -6556.912598 -1975.025024 3481.607422
vn -0.488670 0.720809 -0.491566
vt 0.750000 1.003333
v -6538.068848 -1913.722900 3507.727539
vn -0.689122 0.306815 -0.656487
vt 0.749999 0.753333
v -6474.954590 -1916.956177 3458.412354
vn -0.413925 0.316296 -0.853594
vt 0.999999 0.753333
v -6603.780762 -1969.709229 3552.530273
vn -0.586908 0.717950 -0.374282
vt 0.500000 1.003333
v -6584.449707 -1910.307373 3573.812988
vn -0.834885 0.213543 -0.507313
vt 0.499999 0.753333
v -6621.666504 -1915.202637 3644.617676
vn -0.911071 0.293282 -0.289716
vt 0.249999 0.753333
v -6627.172363 -1919.354492 3717.826172
vn -0.921822 0.305420 0.238670
vt -0.000001 0.753333
v -6645.936035 -1974.083618 3626.143555
vn -0.591232 0.787265 -0.175094
vt 0.250000 1.003333
v -6683.991699 -1993.054321 3734.987793
vn -0.433733 0.896415 0.091197
vt -0.000000 1.003333
v -6079.506348 -1988.847534 3441.624023
vn 0.370637 0.822711 -0.431016
vt 1.000000 1.003333
v -6183.264160 -1972.451050 3413.663574
vn 0.191254 0.746289 -0.637554
vt 0.750000 1.003333
v -6191.679199 -1911.633179 3449.378662
vn 0.243746 0.374385 -0.894664
vt 0.749999 0.753333
v -6112.865723 -1916.528198 3482.032715
vn 0.586004 0.354106 -0.728840
vt 0.999999 0.753333
v -6283.913086 -1967.019287 3404.721680
vn 0.036344 0.736767 -0.675169
vt 0.500000 1.003333
v -6288.790527 -1906.654419 3437.744141
vn 0.056497 0.285880 -0.956599
vt 0.499999 0.753333
v -6387.538574 -1911.514404 3437.919922
vn -0.115329 0.348952 -0.930017
vt 0.249999 0.753333
v -6474.954590 -1916.956177 3458.412354
vn -0.413925 0.316296 -0.853594
vt -0.000001 0.753333
v -6385.488770 -1973.059448 3402.682129
vn -0.106086 0.727281 -0.678092
vt 0.250000 1.003333
v -6490.611816 -1989.377563 3413.584473
vn -0.256931 0.804360 -0.535716
vt -0.000000 1.003333
v -6019.802246 -1978.995605 3789.826172
vn 0.639029 0.720002 0.270627
vt 1.000000 1.003333
v -6007.357910 -1974.016235 3708.221191
vn 0.702126 0.710141 0.052141
vt 0.750000 1.003333
v -6039.118652 -1909.545654 3704.541260
vn 0.958350 0.282799 0.039871
vt 0.749999 0.753333
v -6052.649902 -1913.660767 3779.812012
vn 0.889216 0.235792 0.392041
vt 0.999999 0.753333
v -6018.044434 -1968.958862 3618.760254
vn 0.691497 0.712937 -0.116414
vt 0.500000 1.003333
v -6048.350098 -1905.892578 3623.818848
vn 0.955354 0.233051 -0.181618
vt 0.499999 0.753333
v -6069.010742 -1911.417358 3544.914551
vn 0.855999 0.336289 -0.392651
vt 0.249999 0.753333
v -6112.865723 -1916.528198 3482.032715
vn 0.586004 0.354106 -0.728840
vt -0.000001 0.753333
v -6036.318848 -1974.611084 3530.244873
vn 0.621865 0.726661 -0.291973
vt 0.250000 1.003333
v -6079.506348 -1988.847534 3441.624023
vn 0.370637 0.822711 -0.431016
vt -0.000000 1.003333
f 26/26/26 30/30/30 29/29/29
f 118/118/118 119/119/119 116/116/116
f 119/119/119 118/118/118 29/29/29
f 27/27/27 29/29/29 118/118/118
f 29/29/29 27/27/27 26/26/26
f 25/25/25 26/26/26 27/27/27
f 121/121/121 27/27/27 118/118/118
f 27/27/27 28/28/28 25/25/25
f 28/28/28 27/27/27 122/122/122
f 121/121/121 122/122/122 27/27/27
f 122/122/122 121/121/121 120/120/120
f 118/118/118 120/120/120 121/121/121
f 120/120/120 118/118/118 117/117/117
f 116/116/116 117/117/117 118/118/118
f 120/120/120 124/124/124 122/122/122
f 122/122/122 123/123/123 28/28/28
f 123/123/123 122/122/122 125/125/125
f 124/124/124 125/125/125 122/122/122
f 24/24/24 23/23/23 20/20/20
f 21/21/21 20/20/20 23/23/23
f 20/20/20 21/21/21 19/19/19
f 22/22/22 19/19/19 21/21/21
f 21/21/21 23/23/23 108/108/108
f 109/109/109 108/108/108 23/23/23
f 108/108/108 109/109/109 106/106/106
f 106/106/106 107/107/107 108/108/108
f 113/113/113 22/22/22 112/112/112
f 21/21/21 112/112/112 22/22/22
f 112/112/112 21/21/21 111/111/111
f 108/108/108 111/111/111 21/21/21
f 111/111/111 108/108/108 110/110/110
f 107/107/107 110/110/110 108/108/108
f 112/112/112 111/111/111 110/110/110
f 110/110/110 114/114/114 112/112/112
f 115/115/115 112/112/112 114/114/114
f 112/112/112 115/115/115 113/113/113
f 82/82/82 84/84/84 85/85/85
f 84/84/84 82/82/82 80/80/80
f 81/81/81 80/80/80 82/82/82
f 80/80/80 81/81/81 78/78/78
f 3/3/3 78/78/78 81/81/81
f 78/78/78 3/3/3 5/5/5
f 2/2/2 5/5/5 3/3/3
f 5/5/5 2/2/2 6/6/6
f 3/3/3 81/81/81 82/82/82
f 78/78/78 77/77/77 80/80/80
f 78/78/78 76/76/76 77/77/77
f 76/76/76 78/78/78 79/79/79
f 5/5/5 79/79/79 78/78/78
f 3/3/3 1/1/1 2/2/2
f 1/1/1 3/3/3 4/4/4
f 82/82/82 4/4/4 3/3/3
f 4/4/4 82/82/82 83/83/83
f 85/85/85 83/83/83 82/82/82
f 11/11/11 12/12/12 8/8/8
f 92/92/92 8/8/8 12/12/12
f 8/8/8 92/92/92 90/90/90
f 91/91/91 90/90/90 92/92/92
f 90/90/90 91/91/91 88/88/88
f 89/89/89 88/88/88 91/91/91
f 88/88/88 89/89/89 86/86/86
f 8/8/8 7/7/7 11/11/11
f 10/10/10 7/7/7 9/9/9
f 8/8/8 9/9/9 7/7/7
f 9/9/9 8/8/8 88/88/88
f 90/90/90 88/88/88 8/8/8
f 86/86/86 87/87/87 88/88/88
f 9/9/9 88/88/88 87/87/87
f 12/12/12 94/94/94 92/92/92
f 94/94/94 95/95/95 92/92/92
f 93/93/93 92/92/92 95/95/95
f 92/92/92 93/93/93 91/91/91
f 15/15/15 13/13/13 14/14/14
f 13/13/13 15/15/15 16/16/16
f 102/102/102 16/16/16 15/15/15
f 16/16/16 102/102/102 103/103/103
f 105/105/105 103/103/103 102/102/102
f 102/102/102 104/104/104 105/105/105
f 14/14/14 17/17/17 15/15/15
f 17/17/17 14/14/14 18/18/18
f 102/102/102 100/100/100 104/104/104
f 100/100/100 102/102/102 101/101/101
f 15/15/15 101/101/101 102/102/102
f 101/101/101 15/15/15 98/98/98
f 17/17/17 98/98/98 15/15/15
f 98/98/98 17/17/17 99/99/99
f 96/96/96 97/97/97 98/98/98
f 100/100/100 98/98/98 97/97/97
f 98/98/98 100/100/100 101/101/101
f 98/98/98 99/99/99 96/96/96
f 48/48/48 43/43/43 47/47/47
f 42/42/42 47/47/47 43/43/43
f 47/47/47 42/42/42 46/46/46
f 44/44/44 46/46/46 42/42/42
f 45/45/45 44/44/44 41/41/41
f 42/42/42 41/41/41 44/44/44
f 41/41/41 42/42/42 40/40/40
f 43/43/43 40/40/40 42/42/42
f 54/54/54 53/53/53 50/50/50
f 51/51/51 50/50/50 53/53/53
f 50/50/50 51/51/51 49/49/49
f 52/52/52 49/49/49 51/51/51
f 57/57/57 52/52/52 56/56/56
f 51/51/51 56/56/56 52/52/52
f 56/56/56 51/51/51 55/55/55
f 53/53/53 55/55/55 51/51/51
f 63/63/63 62/62/62 59/59/59
f 60/60/60 59/59/59 62/62/62
f 59/59/59 60/60/60 58/58/58
f 61/61/61 58/58/58 60/60/60
f 66/66/66 61/61/61 65/65/65
f 60/60/60 65/65/65 61/61/61
f 65/65/65 60/60/60 64/64/64
f 62/62/62 64/64/64 60/60/60
f 72/72/72 71/71/71 68/68/68
f 69/69/69 68/68/68 71/71/71
f 68/68/68 69/69/69 67/67/67
f 70/70/70 67/67/67 69/69/69
f 75/75/75 70/70/70 74/74/74
f 69/69/69 74/74/74 70/70/70
f 74/74/74 69/69/69 73/73/73
f 71/71/71 73/73/73 69/69/69
f 36/36/36 35/35/35 32/32/32
f 33/33/33 32/32/32 35/35/35
f 32/32/32 33/33/33 31/31/31
f 34/34/34 31/31/31 33/33/33
f 39/39/39 34/34/34 38/38/38
f 33/33/33 38/38/38 34/34/34
f 38/38/38 33/33/33 37/37/37
f 35/35/35 37/37/37 33/33/33
