mtllib SWORDLIGHT20_JAILBRACE87.mtl
g JailBrace87
usemtl BoardC
v -9043.359375 -1108.266724 4150.371094
vn -0.572328 -0.659533 -0.487295
vt 0.752720 0.998696
v -9043.359375 -1068.266724 4150.371094
vn -0.911992 0.401748 -0.082884
vt 0.752720 0.875765
v -9006.705078 -1068.266724 4134.356934
vn 0.045171 0.673987 -0.737361
vt 0.997363 0.875765
v -9006.705078 -1108.266724 4134.357422
vn 0.609733 -0.415029 -0.675260
vt 0.997363 0.998696
v -8829.537109 -1108.265869 4713.407715
vn -0.411017 -0.325545 0.851519
vt 0.752720 0.998696
v -8791.227539 -1108.265869 4701.201172
vn 0.510224 -0.824056 0.246178
vt 0.997363 0.998696
v -8791.227539 -1068.265869 4701.201172
vn 0.846417 0.341760 0.408386
vt 0.997363 0.875765
v -8829.537109 -1068.265869 4713.407715
vn -0.255409 0.809184 0.529138
vt 0.752720 0.875765
v -9043.359375 -1108.266724 4150.371094
vn -0.572328 -0.659533 -0.487295
vt 0.250000 0.873425
v -9006.705078 -1108.266724 4134.357422
vn 0.609733 -0.415029 -0.675260
vt 0.500000 0.873425
v -8791.227539 -1108.265869 4701.201172
vn 0.510224 -0.824056 0.246178
vt 0.500000 0.000499
v -8829.537109 -1108.265869 4713.407715
vn -0.411017 -0.325545 0.851519
vt 0.250000 0.000499
v -9006.705078 -1068.266724 4134.356934
vn 0.045171 0.673987 -0.737361
vt 0.750000 0.873425
v -8791.227539 -1068.265869 4701.201172
vn 0.846417 0.341760 0.408386
vt 0.750000 0.000499
v -9043.359375 -1068.266724 4150.371094
vn -0.911992 0.401748 -0.082884
vt 1.000000 0.873425
v -8829.537109 -1068.265869 4713.407715
vn -0.255409 0.809184 0.529138
vt 1.000000 0.000499
v -9043.359375 -1068.266724 4150.371094
vn -0.911992 0.401748 -0.082884
vt -0.000000 0.873425
v -8829.537109 -1068.265869 4713.407715
vn -0.255409 0.809184 0.529138
vt -0.000000 0.000499
f 3/3/3 1/1/1 2/2/2
f 1/1/1 3/3/3 4/4/4
f 15/15/15 16/16/16 13/13/13
f 14/14/14 13/13/13 16/16/16
f 13/13/13 14/14/14 10/10/10
f 11/11/11 10/10/10 14/14/14
f 10/10/10 11/11/11 9/9/9
f 12/12/12 9/9/9 11/11/11
f 9/9/9 12/12/12 17/17/17
f 18/18/18 17/17/17 12/12/12
f 7/7/7 5/5/5 6/6/6
f 5/5/5 7/7/7 8/8/8
