mtllib SWORDLIGHT20_JAILPLATSUPPORT22.mtl
g ilPlatsupport22
usemtl BoardC
v -5735.475098 -1685.577637 2368.151855
vn 0.666667 0.666667 -0.333333
vt 0.752720 0.998696
v -5775.475098 -1685.577637 2368.151855
vn -0.408248 0.408248 -0.816497
vt 0.997363 0.998696
v -5775.475098 -1685.577637 2408.151855
vn -0.666667 0.666667 0.333333
vt 0.997363 0.875765
v -5735.475098 -1685.577637 2408.151855
vn 0.408248 0.408248 0.816497
vt 0.752720 0.875765
v -5735.475098 -2010.577637 2368.151855
vn 0.447214 0.000000 -0.894427
vt 0.250000 0.873425
v -5775.475098 -2010.577637 2368.151855
vn -0.894427 0.000000 -0.447214
vt 0.500000 0.873425
v -5775.475098 -1685.577637 2368.151855
vn -0.408248 0.408248 -0.816497
vt 0.500000 0.000499
v -5735.475098 -1685.577637 2368.151855
vn 0.666667 0.666667 -0.333333
vt 0.250000 0.000499
v -5775.475098 -2010.577637 2408.151855
vn -0.447214 0.000000 0.894427
vt 0.750000 0.873425
v -5775.475098 -1685.577637 2408.151855
vn -0.666667 0.666667 0.333333
vt 0.750000 0.000499
v -5735.475098 -2010.577637 2408.151855
vn 0.894427 0.000000 0.447214
vt 1.000000 0.873425
v -5735.475098 -1685.577637 2408.151855
vn 0.408248 0.408248 0.816497
vt 1.000000 0.000499
v -5735.475098 -2010.577637 2408.151855
vn 0.894427 0.000000 0.447214
vt -0.000000 0.873425
v -5735.475098 -1685.577637 2408.151855
vn 0.408248 0.408248 0.816497
vt -0.000000 0.000499
f 3/3/3 1/1/1 2/2/2
f 1/1/1 3/3/3 4/4/4
f 11/11/11 12/12/12 9/9/9
f 10/10/10 9/9/9 12/12/12
f 9/9/9 10/10/10 6/6/6
f 7/7/7 6/6/6 10/10/10
f 6/6/6 7/7/7 5/5/5
f 8/8/8 5/5/5 7/7/7
f 5/5/5 8/8/8 13/13/13
f 14/14/14 13/13/13 8/8/8
