mtllib SWORDLIGHT20_JAILPLATSUPPORT59.mtl
g ilPlatsupport59
usemtl BoardC
v -8693.184570 -2005.243408 4081.785645
vn 0.995287 0.000000 0.096976
vt 0.250000 0.873425
v -8707.519531 -2005.243408 4044.442627
vn 0.096976 0.000000 -0.995287
vt 0.500000 0.873425
v -8707.519531 -1602.206299 4044.442627
vn 0.674753 0.000000 -0.738044
vt 0.500000 0.000499
v -8693.184570 -1602.206299 4081.785645
vn 0.738044 0.000000 0.674753
vt 0.250000 0.000499
v -8744.862305 -2005.243408 4058.777344
vn -0.995287 0.000000 -0.096976
vt 0.750000 0.873425
v -8744.862305 -1602.206299 4058.777344
vn -0.738044 0.000000 -0.674753
vt 0.750000 0.000499
v -8730.527344 -2005.243408 4096.120605
vn -0.096976 0.000000 0.995287
vt 1.000000 0.873425
v -8730.527344 -1602.206299 4096.120605
vn -0.674753 0.000000 0.738044
vt 1.000000 0.000499
v -8730.527344 -2005.243408 4096.120605
vn -0.096976 0.000000 0.995287
vt -0.000000 0.873425
v -8730.527344 -1602.206299 4096.120605
vn -0.674753 0.000000 0.738044
vt -0.000000 0.000499
v -8671.161133 -1600.700806 4155.138672
vn 0.655431 -0.636953 0.405834
vt 0.250000 0.873425
v -8692.937500 -1600.671631 4164.413574
vn -0.697718 -0.301160 0.649994
vt 0.500000 0.873425
v -8724.082031 -1677.108398 4094.746338
vn -0.160106 -0.628503 0.761150
vt 0.500000 0.000499
v -8702.306641 -1677.137573 4085.471436
vn 0.942867 -0.325259 -0.072164
vt 0.250000 0.000499
v -8706.350586 -1600.708008 4132.813477
vn -0.651396 0.643623 -0.401786
vt 0.750000 0.873425
v -8724.176758 -1642.651489 4094.523926
vn -0.940901 0.332032 0.066781
vt 0.750000 0.000499
v -8684.575195 -1600.737183 4123.538574
vn 0.692571 0.308054 -0.652264
vt 1.000000 0.873425
v -8702.400391 -1642.680664 4085.249023
vn 0.157650 0.628393 -0.761754
vt 1.000000 0.000499
v -8684.575195 -1600.737183 4123.538574
vn 0.692571 0.308054 -0.652264
vt -0.000000 0.873425
v -8702.400391 -1642.680664 4085.249023
vn 0.157650 0.628393 -0.761754
vt -0.000000 0.000499
v -8769.390625 -1600.700684 3987.639404
vn -0.655431 -0.636953 -0.405834
vt 0.250000 0.873425
v -8747.615234 -1600.671509 3978.364502
vn 0.697718 -0.301159 -0.649994
vt 0.500000 0.873425
v -8716.470703 -1677.108276 4048.031738
vn 0.160106 -0.628503 -0.761150
vt 0.500000 0.000499
v -8738.246094 -1677.137451 4057.306641
vn -0.942867 -0.325259 0.072164
vt 0.250000 0.000499
v -8734.202148 -1600.707764 4009.964600
vn 0.651396 0.643623 0.401786
vt 0.750000 0.873425
v -8716.375977 -1642.651367 4048.254150
vn 0.940901 0.332032 -0.066781
vt 0.750000 0.000499
v -8755.977539 -1600.737061 4019.239502
vn -0.692571 0.308054 0.652264
vt 1.000000 0.873425
v -8738.151367 -1642.680542 4057.529053
vn -0.157650 0.628392 0.761754
vt 1.000000 0.000499
v -8755.977539 -1600.737061 4019.239502
vn -0.692571 0.308054 0.652264
vt -0.000000 0.873425
v -8738.151367 -1642.680542 4057.529053
vn -0.157650 0.628392 0.761754
vt -0.000000 0.000499
v -8636.997070 -1600.700439 4020.733398
vn 0.417211 -0.636952 -0.648249
vt 0.250000 0.873425
v -8628.103516 -1600.671143 4042.667725
vn 0.637719 -0.301159 0.708955
vt 0.500000 0.873425
v -8698.303711 -1677.108154 4072.591797
vn 0.758241 -0.628503 0.173366
vt 0.500000 0.000499
v -8707.197266 -1677.137207 4050.657715
vn -0.055698 -0.325259 -0.943983
vt 0.250000 0.000499
v -8659.933594 -1600.707520 4055.527588
vn -0.413094 0.643623 0.644285
vt 0.750000 0.873425
v -8698.528320 -1642.651123 4072.682373
vn 0.050350 0.332032 0.941923
vt 0.750000 0.000499
v -8668.827148 -1600.736816 4033.593262
vn -0.640078 0.308053 -0.703849
vt 1.000000 0.873425
v -8707.421875 -1642.680298 4050.748291
vn -0.758887 0.628392 -0.170920
vt 1.000000 0.000499
v -8668.827148 -1600.736816 4033.593262
vn -0.640078 0.308053 -0.703849
vt -0.000000 0.873425
v -8707.421875 -1642.680298 4050.748291
vn -0.758887 0.628392 -0.170920
vt -0.000000 0.000499
f 7/7/7 8/8/8 5/5/5
f 6/6/6 5/5/5 8/8/8
f 5/5/5 6/6/6 2/2/2
f 3/3/3 2/2/2 6/6/6
f 2/2/2 3/3/3 1/1/1
f 4/4/4 1/1/1 3/3/3
f 1/1/1 4/4/4 9/9/9
f 10/10/10 9/9/9 4/4/4
f 17/17/17 18/18/18 15/15/15
f 16/16/16 15/15/15 18/18/18
f 15/15/15 16/16/16 12/12/12
f 13/13/13 12/12/12 16/16/16
f 12/12/12 13/13/13 11/11/11
f 14/14/14 11/11/11 13/13/13
f 11/11/11 14/14/14 19/19/19
f 20/20/20 19/19/19 14/14/14
f 27/27/27 28/28/28 25/25/25
f 26/26/26 25/25/25 28/28/28
f 25/25/25 26/26/26 22/22/22
f 23/23/23 22/22/22 26/26/26
f 22/22/22 23/23/23 21/21/21
f 24/24/24 21/21/21 23/23/23
f 21/21/21 24/24/24 29/29/29
f 30/30/30 29/29/29 24/24/24
f 37/37/37 38/38/38 35/35/35
f 36/36/36 35/35/35 38/38/38
f 35/35/35 36/36/36 32/32/32
f 33/33/33 32/32/32 36/36/36
f 32/32/32 33/33/33 31/31/31
f 34/34/34 31/31/31 33/33/33
f 31/31/31 34/34/34 39/39/39
f 40/40/40 39/39/39 34/34/34
