mtllib SWORDLIGHT20_PS-AREA03_151.mtl
g PS-Area03_151
usemtl FloorA2edge
v -953.016357 -1935.030884 -5603.084473
vn 0.523488 0.700564 0.484943
vt -0.003333 0.003333
v -898.876648 -1988.965210 -5486.345703
vn 0.134742 0.982919 0.125356
vt -0.003333 0.251458
v -801.103760 -1985.124146 -5608.395996
vn 0.216741 0.959541 0.179735
vt 0.248542 0.251458
v -867.204590 -1929.295654 -5724.696777
vn 0.525159 0.780203 0.339840
vt 0.248542 0.003333
v -953.016357 -1935.030884 -5603.084473
vn 0.523488 0.700564 0.484943
vt 0.996667 0.003333
v -1064.930908 -1927.113403 -5518.120117
vn 0.396406 0.708998 0.583253
vt 0.748542 0.003333
v -1034.987671 -1978.033203 -5397.472168
vn 0.148402 0.977823 0.147781
vt 0.748542 0.251458
v -898.876648 -1988.965210 -5486.345703
vn 0.134742 0.982919 0.125356
vt 0.996667 0.251459
v -1192.595459 -1919.894775 -5459.133301
vn 0.251463 0.725218 0.640956
vt 0.500417 0.003333
v -1192.410889 -1969.328613 -5332.462891
vn 0.056682 0.983689 0.170712
vt 0.499479 0.251458
v -1186.498657 -1965.329346 -5184.625000
vn -0.013323 0.999640 -0.023297
vt 0.499479 0.500521
v -993.147156 -1974.607422 -5258.651855
vn 0.049269 0.998336 -0.029976
vt 0.748542 0.500521
v -829.136902 -1987.773071 -5353.439453
vn 0.034194 0.999361 -0.010416
vt 0.996667 0.499584
v -1577.671753 -1988.537720 -5124.418457
vn -0.000023 0.999967 -0.008131
vt -0.003333 0.499583
v -1383.932983 -1977.336182 -5126.771973
vn -0.063116 0.997695 -0.024928
vt 0.248542 0.500521
v -1354.120483 -1979.852417 -5282.005859
vn -0.029373 0.984749 0.171483
vt 0.248542 0.251458
v -1516.756836 -1990.100586 -5277.692383
vn -0.040943 0.983859 0.174198
vt -0.003333 0.251458
v -1325.657104 -1927.727051 -5415.458008
vn 0.078423 0.745295 0.662106
vt 0.248542 0.003333
v -1463.993652 -1935.490601 -5410.282227
vn -0.109125 0.755507 0.645988
vt -0.003333 0.003333
v -1749.029907 -2006.580078 -4844.854492
vn -0.116615 0.792085 0.599167
vt -0.003333 1.003333
v -1435.685669 -2018.107910 -4841.571289
vn 0.083232 0.772896 0.629051
vt 0.248542 1.003333
v -1411.824829 -1975.739136 -4971.195313
vn -0.019992 0.991778 0.126400
vt 0.248542 0.751458
v -1636.387817 -1987.329834 -4970.016602
vn -0.013583 0.998143 0.059382
vt -0.003333 0.751458
v -1176.744995 -2007.559204 -4913.936523
vn 0.205579 0.748347 0.630646
vt 0.500417 1.003333
v -1179.064819 -1963.158691 -5037.391602
vn 0.049379 0.985384 0.163034
vt 0.499479 0.751458
v -950.183655 -1973.919922 -5121.383789
vn 0.128140 0.980448 0.149338
vt 0.748542 0.751458
v -758.814148 -1989.758545 -5223.361328
vn 0.155320 0.978466 0.135938
vt 0.996667 0.751459
v -921.218445 -2018.974487 -5007.543945
vn 0.313824 0.725432 0.612588
vt 0.748542 1.003333
v -708.684998 -2035.448608 -5117.700195
vn 0.434256 0.710930 0.553173
vt 0.996667 1.003333
v -1463.993652 -1935.490601 -5410.282227
vn -0.109125 0.755507 0.645988
vt 0.996667 0.003333
v -1607.482422 -1928.065796 -5466.794434
vn -0.274728 0.748676 0.603332
vt 0.748542 0.003333
v -1676.960693 -1980.569458 -5351.111328
vn -0.041070 0.983193 0.177892
vt 0.748542 0.251458
v -1516.756836 -1990.100586 -5277.692383
vn -0.040943 0.983859 0.174198
vt 0.996667 0.251459
v -1750.381592 -1921.128784 -5560.443359
vn -0.394635 0.724550 0.565059
vt 0.500417 0.003333
v -1831.805664 -1970.622559 -5469.911133
vn -0.108325 0.984971 0.134525
vt 0.499479 0.251458
v -1931.378906 -1964.917480 -5364.134766
vn 0.026077 0.999370 -0.024075
vt 0.499479 0.500521
v -1759.936401 -1976.843262 -5216.887695
vn 0.059593 0.998169 0.010365
vt 0.748542 0.500521
v -1577.671753 -1988.537720 -5124.418457
vn -0.000023 0.999967 -0.008131
vt 0.996667 0.499584
v -2225.116455 -1990.239258 -5690.440430
vn -0.011279 0.999173 -0.039076
vt -0.003333 0.499583
v -2092.650879 -1975.424927 -5526.110352
vn -0.013699 0.997756 -0.065541
vt 0.248542 0.500521
v -1978.364990 -1979.623901 -5601.739258
vn -0.166420 0.981359 0.096117
vt 0.248542 0.251458
v -2101.092773 -1991.811523 -5739.961914
vn -0.189068 0.976846 0.100126
vt -0.003333 0.251458
v -1886.948242 -1930.356079 -5666.674805
vn -0.506011 0.695272 0.510440
vt 0.248542 0.003333
v -2002.901123 -1940.834351 -5783.285645
vn -0.587231 0.669212 0.455320
vt -0.003333 0.003333
v -2468.462646 -1991.250732 -5585.829102
vn -0.574615 0.765732 0.288914
vt -0.003333 1.003333
v -2316.061768 -1970.596558 -5369.402344
vn -0.520618 0.782114 0.342424
vt 0.248542 1.003333
v -2204.872559 -1972.653809 -5448.301270
vn -0.022356 0.997886 -0.061020
vt 0.248542 0.751458
v -2347.259766 -1990.329346 -5638.691406
vn -0.020545 0.999062 -0.038125
vt -0.003333 0.751458
v -2125.152344 -1955.894897 -5147.871094
vn -0.444349 0.797081 0.408919
vt 0.500417 1.003333
v -2028.803223 -1960.167480 -5256.473633
vn 0.023586 0.999510 -0.020566
vt 0.499479 0.751458
v -1840.677612 -1973.599365 -5081.077148
vn 0.063767 0.997303 0.036340
vt 0.748542 0.751458
v -1636.387817 -1987.329834 -4970.016602
vn -0.013583 0.998143 0.059382
vt 0.996667 0.751459
v -1920.301636 -1970.596558 -4944.472656
vn -0.286596 0.800823 0.525876
vt 0.748542 1.003333
v -1749.029907 -2006.580078 -4844.854492
vn -0.116615 0.792085 0.599167
vt 0.996667 1.003333
v -2002.901123 -1940.834351 -5783.285645
vn -0.587231 0.669212 0.455320
vt 0.996667 0.003333
v -2083.959717 -1937.650391 -5908.071289
vn -0.657854 0.646903 0.385673
vt 0.748542 0.003333
v -2184.442871 -1991.423706 -5877.945313
vn -0.204520 0.970954 0.124179
vt 0.748542 0.251458
v -2101.092773 -1991.811523 -5739.961914
vn -0.189068 0.976846 0.100126
vt 0.996667 0.251459
v -2144.424561 -1931.962769 -6039.115234
vn -0.622503 0.736552 0.264540
vt 0.500417 0.003333
v -2245.059814 -1988.325562 -6017.326172
vn -0.234044 0.967818 0.092478
vt 0.499479 0.251458
v -2368.593018 -1988.635986 -5995.406250
vn -0.004759 0.999986 -0.002146
vt 0.499479 0.500521
v -2310.140625 -1991.233887 -5844.749512
vn -0.002346 0.999975 0.006729
vt 0.748542 0.500521
v -2225.116455 -1990.239258 -5690.440430
vn -0.011279 0.999173 -0.039076
vt 0.996667 0.499584
v -2434.338867 -1992.465210 -5809.775879
vn -0.035971 0.999342 -0.004634
vt 0.748542 0.751458
v -2347.259766 -1990.329346 -5638.691406
vn -0.020545 0.999062 -0.038125
vt 0.996667 0.751459
v -2491.106445 -1989.888062 -5972.407227
vn -0.101204 0.994397 0.030525
vt 0.499479 0.751458
v -2587.892822 -2012.864990 -5906.229980
vn -0.521435 0.848475 0.090528
vt 0.500417 1.003333
v -2557.787598 -1994.407104 -5773.913086
vn -0.035255 0.997105 -0.067366
vt 0.748542 1.003333
v -2468.462646 -1991.250732 -5585.829102
vn -0.574615 0.765732 0.288914
vt 0.996667 1.003333
f 3/3/3 1/1/1 2/2/2
f 1/1/1 3/3/3 4/4/4
f 16/16/16 17/17/17 14/14/14
f 17/17/17 16/16/16 19/19/19
f 18/18/18 19/19/19 16/16/16
f 22/22/22 14/14/14 23/23/23
f 14/14/14 22/22/22 15/15/15
f 22/22/22 21/21/21 24/24/24
f 21/21/21 22/22/22 20/20/20
f 23/23/23 20/20/20 22/22/22
f 15/15/15 16/16/16 14/14/14
f 16/16/16 15/15/15 11/11/11
f 22/22/22 11/11/11 15/15/15
f 11/11/11 22/22/22 25/25/25
f 24/24/24 25/25/25 22/22/22
f 25/25/25 24/24/24 26/26/26
f 28/28/28 26/26/26 24/24/24
f 26/26/26 28/28/28 29/29/29
f 26/26/26 11/11/11 25/25/25
f 11/11/11 26/26/26 12/12/12
f 16/16/16 9/9/9 18/18/18
f 9/9/9 16/16/16 10/10/10
f 11/11/11 10/10/10 16/16/16
f 10/10/10 11/11/11 7/7/7
f 12/12/12 7/7/7 11/11/11
f 7/7/7 12/12/12 13/13/13
f 26/26/26 13/13/13 12/12/12
f 13/13/13 26/26/26 27/27/27
f 29/29/29 27/27/27 26/26/26
f 7/7/7 9/9/9 10/10/10
f 9/9/9 7/7/7 6/6/6
f 5/5/5 6/6/6 7/7/7
f 13/13/13 8/8/8 7/7/7
f 5/5/5 7/7/7 8/8/8
f 46/46/46 49/49/49 47/47/47
f 50/50/50 47/47/47 49/49/49
f 47/47/47 50/50/50 36/36/36
f 51/51/51 36/36/36 50/50/50
f 36/36/36 51/51/51 37/37/37
f 38/38/38 37/37/37 51/51/51
f 37/37/37 38/38/38 32/32/32
f 33/33/33 32/32/32 38/38/38
f 32/32/32 33/33/33 30/30/30
f 32/32/32 36/36/36 37/37/37
f 36/36/36 32/32/32 35/35/35
f 51/51/51 53/53/53 54/54/54
f 53/53/53 51/51/51 49/49/49
f 50/50/50 49/49/49 51/51/51
f 51/51/51 52/52/52 38/38/38
f 52/52/52 51/51/51 54/54/54
f 47/47/47 45/45/45 46/46/46
f 45/45/45 47/47/47 48/48/48
f 30/30/30 31/31/31 32/32/32
f 34/34/34 32/32/32 31/31/31
f 32/32/32 34/34/34 35/35/35
f 41/41/41 35/35/35 34/34/34
f 35/35/35 41/41/41 36/36/36
f 40/40/40 36/36/36 41/41/41
f 36/36/36 40/40/40 47/47/47
f 39/39/39 47/47/47 40/40/40
f 47/47/47 39/39/39 48/48/48
f 41/41/41 39/39/39 40/40/40
f 39/39/39 41/41/41 42/42/42
f 44/44/44 42/42/42 41/41/41
f 41/41/41 43/43/43 44/44/44
f 43/43/43 41/41/41 34/34/34
f 57/57/57 60/60/60 61/61/61
f 60/60/60 57/57/57 59/59/59
f 56/56/56 59/59/59 57/57/57
f 57/57/57 55/55/55 56/56/56
f 55/55/55 57/57/57 58/58/58
f 57/57/57 63/63/63 58/58/58
f 63/63/63 57/57/57 62/62/62
f 61/61/61 62/62/62 57/57/57
f 62/62/62 61/61/61 64/64/64
f 66/66/66 64/64/64 61/61/61
f 64/64/64 66/66/66 67/67/67
f 64/64/64 63/63/63 62/62/62
f 63/63/63 64/64/64 65/65/65
f 64/64/64 69/69/69 65/65/65
f 69/69/69 64/64/64 68/68/68
f 67/67/67 68/68/68 64/64/64
