mtllib SWORDLIGHT20_MAINCAVTRACKSWITCH02.mtl
g avTrackSwitch02
usemtl left
v -4996.457520 -922.001404 -5078.672363
vn 0.283078 0.408248 -0.867871
vt 0.002198 1.000947
v -5003.427246 -922.001404 -5077.630859
vn -0.708614 0.666667 -0.231132
vt 0.109916 1.000947
v -4974.583496 -922.001465 -4932.307617
vn 0.708614 0.666667 0.231132
vt 0.002199 0.001946
v -4981.553223 -922.001465 -4931.266113
vn -0.283078 0.408248 0.867871
vt 0.109916 0.001946
v -4981.553223 -944.149658 -4931.266113
vn -0.747185 -0.408248 0.524450
vt 0.502198 0.001946
v -5003.427246 -944.149658 -5077.630859
vn -0.428212 -0.666667 -0.610074
vt 0.490089 0.999499
v -4974.583496 -944.149658 -4932.307617
vn 0.428212 -0.666667 0.610074
vt 0.609916 0.001946
v -4996.457520 -944.149658 -5078.672363
vn 0.747185 -0.408248 -0.524450
vt 0.609916 1.000947
v -4974.583496 -922.001465 -4932.307617
vn 0.708614 0.666667 0.231132
vt 0.111361 0.000501
v -4981.553223 -922.001465 -4931.266113
vn -0.283078 0.408248 0.867871
vt 0.490088 0.000501
v -4974.583496 -944.149658 -4932.307617
vn 0.428212 -0.666667 0.610074
vt 0.111361 0.999501
v -4981.553223 -944.149658 -4931.266113
vn -0.747185 -0.408248 0.524450
vt 0.490088 0.999501
v -4996.457520 -922.001404 -5078.672363
vn 0.283078 0.408248 -0.867871
vt 1.002198 1.000947
v -4974.583496 -922.001465 -4932.307617
vn 0.708614 0.666667 0.231132
vt 1.002199 0.001946
v -5003.427246 -922.001404 -5077.630859
vn -0.708614 0.666667 -0.231132
vt 0.490089 0.000499
v -4996.457520 -922.001404 -5078.672363
vn 0.283078 0.408248 -0.867871
vt 0.111361 0.000499
v -4996.457520 -944.149658 -5078.672363
vn 0.747185 -0.408248 -0.524450
vt 0.111361 0.999499
f 9/9/9 10/10/10 11/11/11
f 12/12/12 11/11/11 10/10/10
f 2/2/2 4/4/4 3/3/3
f 4/4/4 2/2/2 5/5/5
f 6/6/6 5/5/5 2/2/2
f 5/5/5 6/6/6 7/7/7
f 8/8/8 7/7/7 6/6/6
f 7/7/7 8/8/8 14/14/14
f 13/13/13 14/14/14 8/8/8
f 1/1/1 2/2/2 3/3/3
f 15/15/15 16/16/16 6/6/6
f 17/17/17 6/6/6 16/16/16
usemtl BoardB
v -4993.722168 -1048.008179 -5009.864258
vn 0.818500 0.000000 -0.574506
vt 0.228076 0.500000
v -4993.722168 -918.312927 -5009.864258
vn 0.283079 0.408248 -0.867871
vt 0.228076 0.000499
v -4991.135742 -918.312927 -4992.556152
vn 0.708614 0.666666 0.231132
vt -0.004228 0.000499
v -4991.135742 -1048.008179 -4992.556152
vn 0.989016 0.000000 -0.147809
vt -0.004227 0.500000
v -5003.403809 -1048.008179 -5008.416992
vn -0.863683 -0.028960 -0.503203
vt 0.478076 0.500000
v -4990.493652 -1048.008179 -4992.652344
vn -0.929973 -0.069730 -0.360954
vt 0.728076 0.500000
v -5000.816895 -918.312927 -4991.109375
vn -0.823183 0.435255 0.364586
vt 0.728076 0.000499
v -5003.403809 -918.312927 -5008.416992
vn -0.464106 0.816497 -0.343421
vt 0.478077 0.000499
v -4991.135742 -1048.008179 -4992.556152
vn 0.989016 0.000000 -0.147809
vt 0.995773 0.500000
v -4991.135742 -918.312927 -4992.556152
vn 0.708614 0.666666 0.231132
vt 0.995772 0.000499
v -4991.135742 -918.312927 -4992.556152
vn 0.708614 0.666666 0.231132
vt 0.999501 0.999500
v -4993.722168 -918.312927 -5009.864258
vn 0.283079 0.408248 -0.867871
vt 0.000507 0.999500
v -5003.403809 -918.312927 -5008.416992
vn -0.464106 0.816497 -0.343421
vt 0.000507 0.000501
v -5000.816895 -918.312927 -4991.109375
vn -0.823183 0.435255 0.364586
vt 0.999501 0.000501
v -4983.916016 -1048.010376 -5014.869141
vn 0.560804 0.333333 -0.757884
vt 0.228076 0.500000
v -4951.278809 -1048.010376 -4796.488281
vn 0.464107 0.816496 0.343421
vt 0.228076 0.000499
v -4951.278809 -1065.510376 -4796.488281
vn 0.757884 -0.333333 0.560804
vt -0.004228 0.000499
v -4983.916016 -1065.510376 -5014.869141
vn 0.343421 -0.816496 -0.464107
vt -0.004227 0.500000
v -5003.921387 -1048.010376 -5011.879395
vn -0.708614 0.666667 -0.231132
vt 0.478076 0.500000
v -5003.921387 -1065.510376 -5011.879395
vn -0.524450 -0.408248 -0.747185
vt 0.728076 0.500000
v -4971.283691 -1065.510376 -4793.498535
vn -0.610074 -0.666667 0.428212
vt 0.728076 0.000499
v -4971.283691 -1048.010376 -4793.498535
vn -0.283078 0.408248 0.867871
vt 0.478077 0.000499
v -4983.916016 -1065.510376 -5014.869141
vn 0.343421 -0.816496 -0.464107
vt 0.995773 0.500000
v -4951.278809 -1065.510376 -4796.488281
vn 0.757884 -0.333333 0.560804
vt 0.995772 0.000499
v -4951.278809 -1065.510376 -4796.488281
vn 0.757884 -0.333333 0.560804
vt 0.999501 0.999500
v -4951.278809 -1048.010376 -4796.488281
vn 0.464107 0.816496 0.343421
vt 0.000507 0.999500
v -4971.283691 -1048.010376 -4793.498535
vn -0.283078 0.408248 0.867871
vt 0.000507 0.000501
v -4971.283691 -1065.510376 -4793.498535
vn -0.610074 -0.666667 0.428212
vt 0.999501 0.000501
v -5003.921387 -1065.510376 -5011.879395
vn -0.524450 -0.408248 -0.747185
vt 0.999501 0.999500
v -5003.921387 -1048.010376 -5011.879395
vn -0.708614 0.666667 -0.231132
vt 0.000507 0.999500
v -4983.916016 -1048.010376 -5014.869141
vn 0.560804 0.333333 -0.757884
vt 0.000507 0.000501
v -4983.916016 -1065.510376 -5014.869141
vn 0.343421 -0.816496 -0.464107
vt 0.999501 0.000501
f 30/30/30 28/28/28 29/29/29
f 28/28/28 30/30/30 31/31/31
f 18/18/18 20/20/20 21/21/21
f 20/20/20 18/18/18 19/19/19
f 22/22/22 19/19/19 18/18/18
f 19/19/19 22/22/22 25/25/25
f 24/24/24 25/25/25 22/22/22
f 22/22/22 23/23/23 24/24/24
f 26/26/26 24/24/24 23/23/23
f 24/24/24 26/26/26 27/27/27
f 38/38/38 39/39/39 36/36/36
f 33/33/33 36/36/36 39/39/39
f 36/36/36 33/33/33 32/32/32
f 34/34/34 32/32/32 33/33/33
f 32/32/32 34/34/34 35/35/35
f 36/36/36 37/37/37 38/38/38
f 40/40/40 38/38/38 37/37/37
f 38/38/38 40/40/40 41/41/41
f 44/44/44 42/42/42 43/43/43
f 42/42/42 44/44/44 45/45/45
f 48/48/48 46/46/46 47/47/47
f 46/46/46 48/48/48 49/49/49
usemtl switchbox
v -4983.868164 -1014.830078 -5022.651855
vn 0.671814 0.706979 0.221011
vt 0.886877 0.102533
v -4978.372070 -1014.830078 -5023.473633
vn -0.192770 0.945639 0.261929
vt 0.886877 0.139188
v -4996.615723 -1014.830078 -5035.179688
vn -0.280330 0.872872 -0.399387
vt 0.995477 0.003024
v -4969.844727 -1014.830078 -5039.180664
vn 0.610074 0.666667 -0.428211
vt 0.995477 0.238697
v -4959.681641 -1014.830078 -4971.179199
vn 0.343333 0.801784 0.489148
vt 0.470801 0.242321
v -4972.428711 -1014.830078 -4983.706543
vn -0.542324 0.821067 -0.178138
vt 0.580963 0.139188
v -4986.452637 -1014.830078 -4967.178223
vn -0.489148 0.801784 0.343333
vt 0.472364 0.003023
v -4977.924805 -1014.830078 -4982.885254
vn 0.244402 0.910893 -0.332479
vt 0.580963 0.102533
v -4969.844727 -1047.742065 -5039.180664
vn 0.283078 -0.408248 -0.867871
vt 0.470801 0.532966
v -4996.615723 -1047.742065 -5035.179688
vn -0.708614 -0.666667 -0.231133
vt -0.001952 0.532966
v -4996.615723 -1014.830078 -5035.179688
vn -0.280330 0.872872 -0.399387
vt -0.001952 0.242321
v -4969.844727 -1014.830078 -5039.180664
vn 0.610074 0.666667 -0.428211
vt 0.470801 0.242321
v -4959.681641 -1047.742065 -4971.179199
vn 0.708614 -0.666667 0.231132
vt 0.470801 0.532966
v -4969.844727 -1047.742065 -5039.180664
vn 0.283078 -0.408248 -0.867871
vt 0.993729 0.532178
v -4986.452637 -1047.742065 -4967.178223
vn -0.283078 -0.408248 0.867871
vt -0.001952 0.532966
v -4986.452637 -1014.830078 -4967.178223
vn -0.489148 0.801784 0.343333
vt -0.001952 0.242321
v -4996.615723 -1047.742065 -5035.179688
vn -0.708614 -0.666667 -0.231133
vt 0.999894 0.531731
v -4986.452637 -1047.742065 -4967.178223
vn -0.283078 -0.408248 0.867871
vt 0.473286 0.531731
v -4986.452637 -1014.830078 -4967.178223
vn -0.489148 0.801784 0.343333
vt 0.468627 0.238690
v -4996.615723 -1014.830078 -5035.179688
vn -0.280330 0.872872 -0.399387
vt 0.993729 0.238690
v -4969.844727 -1047.742065 -5039.180664
vn 0.283078 -0.408248 -0.867871
vt 0.999894 0.770192
v -4959.681641 -1047.742065 -4971.179199
vn 0.708614 -0.666667 0.231132
vt 0.473286 0.770192
v -4978.372070 -1014.830078 -5023.473633
vn -0.192770 0.945639 0.261929
vt 0.457749 0.545915
v -4983.868164 -1014.830078 -5022.651855
vn 0.671814 0.706979 0.221011
vt 0.339310 0.544074
v -4980.983398 -1040.707031 -5023.083008
vn -0.578949 0.217845 0.785724
vt 0.404830 0.770518
v -4980.983398 -1040.707031 -5023.083008
vn -0.578949 0.217845 0.785724
vt 0.339310 0.772359
v -4975.040039 -1040.707031 -4983.316406
vn 0.576635 0.225107 -0.785378
vt 0.026834 0.772359
v -4972.428711 -1014.830078 -4983.706543
vn -0.542324 0.821067 -0.178138
vt 0.026834 0.544074
v -4978.372070 -1014.830078 -5023.473633
vn -0.192770 0.945639 0.261929
vt 0.339310 0.544074
v -4977.924805 -1014.830078 -4982.885254
vn 0.244402 0.910893 -0.332479
vt 0.349390 0.545915
v -4972.428711 -1014.830078 -4983.706543
vn -0.542324 0.821067 -0.178138
vt 0.457749 0.545915
v -4975.040039 -1040.707031 -4983.316406
vn 0.576635 0.225107 -0.785378
vt 0.404830 0.770518
v -4977.924805 -1014.830078 -4982.885254
vn 0.244402 0.910893 -0.332479
vt 0.026834 0.544074
f 72/72/72 73/73/73 74/74/74
f 76/76/76 73/73/73 82/82/82
f 73/73/73 76/76/76 75/75/75
f 77/77/77 75/75/75 76/76/76
f 75/75/75 77/77/77 78/78/78
f 64/64/64 62/62/62 54/54/54
f 53/53/53 54/54/54 62/62/62
f 54/54/54 53/53/53 51/51/51
f 52/52/52 51/51/51 53/53/53
f 51/51/51 52/52/52 50/50/50
f 57/57/57 50/50/50 52/52/52
f 62/62/62 63/63/63 53/53/53
f 54/54/54 65/65/65 64/64/64
f 55/55/55 54/54/54 51/51/51
f 54/54/54 55/55/55 56/56/56
f 57/57/57 56/56/56 55/55/55
f 56/56/56 57/57/57 52/52/52
f 70/70/70 71/71/71 66/66/66
f 67/67/67 66/66/66 71/71/71
f 66/66/66 67/67/67 68/68/68
f 68/68/68 69/69/69 66/66/66
f 60/60/60 58/58/58 59/59/59
f 58/58/58 60/60/60 61/61/61
f 79/79/79 80/80/80 81/81/81
