mtllib SWORDLIGHT20_PS-AREA03_85.mtl
g PS-Area03_85
usemtl Under
v -5861.179688 -6462.341797 -609.109375
vn -0.174684 0.698884 0.693575
vt 0.000000 1.000000
v -6012.875977 -6461.915039 -740.383667
vn -0.333441 0.727432 0.599716
vt 0.496250 1.000000
v -5989.088379 -6491.458008 -514.228027
vn 0.077223 0.993351 0.085387
vt 0.496250 0.503750
v -6153.525391 -6462.341797 -810.002869
vn -0.002004 0.999996 -0.002081
vt 1.000000 1.000000
v -6163.682617 -6461.987305 -629.887512
vn 0.712239 0.700513 0.044683
vt 1.000000 0.503750
v -6101.261719 -6462.341797 -397.199921
vn 0.617993 0.783214 0.068261
vt 1.000000 0.000000
v -5989.088379 -6491.458008 -514.228027
vn 0.077223 0.993351 0.085387
vt 0.496250 1.000000
v -5843.376465 -6503.088867 -438.848053
vn -0.073608 0.997180 0.014608
vt 0.496250 0.503750
v -6101.261719 -6462.341797 -397.199921
vn 0.617993 0.783214 0.068261
vt 1.000000 1.000000
v -5978.166016 -6499.165039 -322.175812
vn 0.037148 0.997215 -0.064670
vt 1.000000 0.503750
v -5846.866211 -6462.341797 -261.820282
vn -0.415053 0.766689 -0.489815
vt 1.000000 0.000000
v -5846.866211 -6462.341797 -261.820282
vn -0.415053 0.766689 -0.489815
vt 0.000000 1.000000
v -5616.212402 -6462.546387 -391.864868
vn -0.497467 0.717766 -0.487175
vt 0.496250 1.000000
v -5503.629395 -6462.341797 -593.412598
vn 0.001566 0.999997 0.001890
vt 1.000000 1.000000
v -5655.117676 -6462.027344 -634.273132
vn -0.051730 0.994724 0.088587
vt 1.000000 0.503750
v -5861.179688 -6462.341797 -609.109375
vn -0.174684 0.698884 0.693575
vt 1.000000 0.000000
v -6101.261719 -6462.341797 -397.199921
vn 0.617993 0.783214 0.068261
vt 0.000000 1.000000
v -6173.768555 -6457.596191 -299.325867
vn 0.627113 0.721259 0.294135
vt 0.496250 1.000000
v -6114.132813 -6476.134766 -150.766083
vn 0.112545 0.993373 -0.023321
vt 0.496250 0.503750
v -5978.166016 -6499.165039 -322.175812
vn 0.037148 0.997215 -0.064670
vt 0.000000 0.503750
v -6222.204102 -6457.124023 -58.386066
vn 0.071156 0.997193 -0.023296
vt 1.000000 0.503750
v -6246.866699 -6462.341797 -197.978455
vn -0.093345 0.995418 -0.020716
vt 1.000000 1.000000
v -6115.754883 -6462.341797 2.800080
vn 0.031272 0.995533 -0.089086
vt 1.000000 0.000000
v -6009.502441 -6463.067871 -48.743721
vn -0.342537 0.677552 -0.650839
vt 0.496250 0.000000
v -5846.866211 -6462.341797 -261.820282
vn -0.415053 0.766689 -0.489815
vt 0.000000 0.000000
f 11/11/11 8/8/8 10/10/10
f 9/9/9 10/10/10 7/7/7
f 8/8/8 7/7/7 10/10/10
f 7/7/7 8/8/8 1/1/1
f 8/8/8 15/15/15 16/16/16
f 15/15/15 8/8/8 13/13/13
f 12/12/12 13/13/13 8/8/8
f 14/14/14 15/15/15 13/13/13
f 1/1/1 2/2/2 3/3/3
f 5/5/5 3/3/3 2/2/2
f 3/3/3 5/5/5 6/6/6
f 4/4/4 5/5/5 2/2/2
f 20/20/20 24/24/24 25/25/25
f 24/24/24 20/20/20 19/19/19
f 17/17/17 19/19/19 20/20/20
f 19/19/19 17/17/17 18/18/18
f 19/19/19 23/23/23 24/24/24
f 23/23/23 19/19/19 21/21/21
f 18/18/18 21/21/21 19/19/19
f 21/21/21 18/18/18 22/22/22
