mtllib SWORDLIGHT20_PS-AREA03_64.mtl
g PS-Area03_64
usemtl WallBUnder
v -1.173266 -3505.649658 -5089.055176
vn -0.867122 0.000267 -0.498095
vt 0.151343 0.149297
v 226.140533 -3505.649658 -5191.993164
vn -0.075974 0.018016 -0.996947
vt 0.120734 0.149297
v 196.023987 -4004.851807 -5179.154297
vn -0.165592 -0.001651 -0.986193
vt 0.124789 0.288246
v -46.935108 -4017.805908 -5098.368652
vn -0.915652 0.062851 -0.397028
vt 0.157504 0.291852
v 429.613647 -3954.675537 -5153.316895
vn -0.571579 0.111724 -0.812905
vt 0.093336 0.274280
v 499.999573 -3505.649658 -5097.470215
vn 0.298877 0.006208 -0.954271
vt 0.083858 0.149297
v 135.245361 -3505.649658 -4515.324707
vn -0.989578 0.018734 -0.142774
vt 0.132973 0.149297
v 60.515728 -3505.649658 -4739.016602
vn -0.969441 0.000700 0.245324
vt 0.143036 0.149297
v 1.767436 -3977.717529 -4763.533203
vn -0.964658 0.060711 0.256416
vt 0.150947 0.280693
v 118.290833 -3924.378906 -4521.381836
vn -0.990007 0.017594 -0.139917
vt 0.135256 0.265847
v -46.935108 -4017.805908 -5098.368652
vn -0.915652 0.062851 -0.397028
vt 0.157504 0.291852
v -1.173266 -3505.649658 -5089.055176
vn -0.867122 0.000267 -0.498095
vt 0.151343 0.149297
f 4/4/4 1/1/1 3/3/3
f 2/2/2 3/3/3 1/1/1
f 3/3/3 2/2/2 5/5/5
f 6/6/6 5/5/5 2/2/2
f 12/12/12 11/11/11 8/8/8
f 9/9/9 8/8/8 11/11/11
f 8/8/8 9/9/9 7/7/7
f 10/10/10 7/7/7 9/9/9
usemtl WallB
v 499.999573 -3505.649658 -5097.470215
vn 0.298877 0.006208 -0.954271
vt 0.000000 1.000000
v 226.140533 -3505.649658 -5191.993164
vn -0.075974 0.018016 -0.996947
vt 0.496250 1.000000
v 233.061523 -3252.845947 -5183.173828
vn 0.005599 0.045885 -0.998931
vt 0.496250 0.503750
v 496.078339 -3249.455078 -5117.451172
vn 0.148401 -0.066265 -0.986705
vt 0.000000 0.503750
v -1.173266 -3252.824707 -5089.055176
vn -0.845084 -0.007520 -0.534580
vt 1.000000 0.503750
v -1.173266 -3505.649658 -5089.055176
vn -0.867122 0.000267 -0.498095
vt 1.000000 1.000000
v -1.173266 -2999.999756 -5089.055176
vn -0.803273 0.010242 -0.595523
vt 1.000000 0.000000
v 243.903656 -3003.412109 -5154.372559
vn 0.042957 0.062683 -0.997109
vt 0.496250 0.000000
v -1.173266 -3505.649658 -5089.055176
vn -0.867122 0.000267 -0.498095
vt 0.000000 1.000000
v 60.515728 -3505.649658 -4739.016602
vn -0.969441 0.000700 0.245324
vt 0.496250 1.000000
v 21.338541 -3252.408936 -4769.537109
vn -0.969670 -0.055009 0.238147
vt 0.496250 0.503750
v -1.173266 -3252.824707 -5089.055176
vn -0.845084 -0.007520 -0.534580
vt 0.000000 0.503750
v 118.458618 -3250.498291 -4512.697266
vn -0.993006 -0.063402 -0.099601
vt 1.000000 0.503750
v 135.245361 -3505.649658 -4515.324707
vn -0.989578 0.018734 -0.142774
vt 1.000000 1.000000
v -1.052025 -3001.494629 -4802.685059
vn -0.962689 -0.002305 0.270599
vt 0.496250 0.000000
v -1.173266 -2999.999756 -5089.055176
vn -0.803273 0.010242 -0.595523
vt 0.000000 0.000000
v 368.260773 -3126.428223 -5138.117188
vn 0.089319 0.039942 -0.995202
vt 0.248125 0.251875
v 466.319427 -3124.549316 -5143.078613
vn -0.561703 -0.045704 -0.826075
vt 0.000000 0.251875
v 372.207947 -2974.073242 -5124.883789
vn 0.079436 0.077917 -0.993790
vt 0.248125 0.000000
v 500.967926 -2989.282715 -5132.573730
vn -0.216052 0.412458 -0.884986
vt 0.000000 0.000000
v 130.856018 -2980.044189 -4511.313477
vn -0.914111 0.299556 0.273254
vt 1.000000 0.000000
v 68.725334 -2972.399414 -4660.976074
vn -0.911323 0.037257 0.410002
vt 0.748125 0.000000
v 68.497612 -3126.100342 -4650.061035
vn -0.939068 0.018080 0.343256
vt 0.748125 0.251875
v 99.028442 -3125.228760 -4527.210938
vn -0.999498 0.031127 -0.005829
vt 1.000000 0.251875
f 26/26/26 25/25/25 22/22/22
f 23/23/23 22/22/22 25/25/25
f 22/22/22 23/23/23 21/21/21
f 24/24/24 21/21/21 23/23/23
f 28/28/28 24/24/24 27/27/27
f 23/23/23 27/27/27 24/24/24
f 27/27/27 23/23/23 35/35/35
f 25/25/25 35/35/35 23/23/23
f 35/35/35 25/25/25 36/36/36
f 35/35/35 34/34/34 27/27/27
f 34/34/34 35/35/35 33/33/33
f 36/36/36 33/33/33 35/35/35
f 32/32/32 30/30/30 29/29/29
f 16/16/16 29/29/29 30/30/30
f 29/29/29 16/16/16 15/15/15
f 13/13/13 15/15/15 16/16/16
f 15/15/15 13/13/13 14/14/14
f 29/29/29 31/31/31 32/32/32
f 15/15/15 20/20/20 29/29/29
f 31/31/31 29/29/29 20/20/20
f 15/15/15 19/19/19 20/20/20
f 19/19/19 15/15/15 17/17/17
f 14/14/14 17/17/17 15/15/15
f 17/17/17 14/14/14 18/18/18
