mtllib SWORDLIGHT20_BRIDGEHOUSING04.mtl
g BridgeHousing04
usemtl BoltPlate
v -146.019852 -3005.051270 -2413.419434
vn -0.879450 0.447214 -0.162996
vt 0.001660 1.000000
v -129.824997 -3005.051270 -2500.799316
vn -0.439725 0.894427 -0.081498
vt 2.006518 1.000000
v -129.824982 -3039.855713 -2500.799316
vn -0.879450 -0.447214 -0.162996
vt 2.006518 0.000000
v -146.019852 -3039.855713 -2413.419678
vn -0.439725 -0.894427 -0.081498
vt 0.001660 0.000000
v -129.824997 -3005.051270 -2500.799316
vn 0.182233 0.000002 -0.983255
vt 0.999500 0.000502
v -124.038841 -3010.518311 -2499.726807
vn 0.182235 0.000002 -0.983255
vt 0.912297 0.104286
v -124.038834 -3034.420898 -2499.726807
vn 0.182233 -0.000001 -0.983255
vt 0.912297 0.906305
v -129.824982 -3039.855713 -2500.799316
vn 0.182234 -0.000004 -0.983255
vt 0.999500 0.999501
v -124.038841 -3010.518311 -2499.726807
vn 0.879450 -0.447214 0.162996
vt 0.243290 1.000000
v -140.233704 -3010.518311 -2412.347168
vn 0.439725 -0.894427 0.081498
vt 0.757929 1.000000
v -140.233704 -3034.420898 -2412.347168
vn 0.879450 0.447214 0.162996
vt 0.757929 0.000000
v -124.038834 -3034.420898 -2499.726807
vn 0.439725 0.894427 0.081498
vt 0.243290 0.000000
v -140.233704 -3010.518311 -2412.347168
vn -0.182235 -0.000001 0.983255
vt 0.912297 0.104286
v -146.019852 -3005.051270 -2413.419434
vn -0.182235 0.000000 0.983255
vt 0.999500 0.000502
v -146.019852 -3039.855713 -2413.419678
vn -0.182235 0.000000 0.983255
vt 0.999500 0.999500
v -140.233704 -3034.420898 -2412.347168
vn -0.182235 0.000000 0.983255
vt 0.912297 0.906305
v -146.019852 -3039.855713 -2413.419678
vn -0.439725 -0.894427 -0.081498
vt 0.000000 0.749971
v -129.824982 -3039.855713 -2500.799316
vn -0.879450 -0.447214 -0.162996
vt 1.000000 0.749971
v 36.569736 -3039.855713 -2469.959961
vn 0.439725 -0.894427 0.081498
vt 1.000000 0.267305
v 20.374872 -3039.855713 -2382.580078
vn 0.879450 -0.447213 0.162996
vt 0.000000 0.267305
v 31.266577 -3034.420898 -2470.942871
vn 0.182238 -0.000003 -0.983254
vt 0.096937 0.906303
v 36.569736 -3039.855713 -2469.959961
vn 0.182238 -0.000001 -0.983254
vt 0.000500 0.999499
v -124.038834 -3034.420898 -2499.726807
vn 0.439725 0.894427 0.081498
vt 0.000000 0.749971
v -140.233704 -3034.420898 -2412.347168
vn 0.879450 0.447214 0.162996
vt 1.000000 0.749971
v 15.071709 -3034.420898 -2383.562988
vn -0.439725 0.894427 -0.081498
vt 1.000000 0.257585
v 31.266577 -3034.420898 -2470.942871
vn -0.879450 0.447213 -0.162996
vt 0.000000 0.257585
v 20.374872 -3039.855713 -2382.580078
vn -0.182235 0.000000 0.983255
vt 0.000500 0.999499
v 15.071709 -3034.420898 -2383.562988
vn -0.182235 0.000000 0.983255
vt 0.096937 0.906303
v 20.374872 -3039.855713 -2382.580078
vn 0.879450 -0.447213 0.162996
vt 0.001660 1.000000
v 36.569736 -3039.855713 -2469.959961
vn 0.439725 -0.894427 0.081498
vt 2.006518 1.000000
v 36.569717 -3005.051270 -2469.959961
vn 0.879450 0.447214 0.162996
vt 2.006518 0.000000
v 20.374855 -3005.051270 -2382.580078
vn 0.439725 0.894427 0.081498
vt 0.001660 0.000000
v 31.266556 -3010.518311 -2470.942627
vn 0.182238 0.000001 -0.983254
vt 0.096937 0.104285
v 36.569717 -3005.051270 -2469.959961
vn 0.182236 0.000002 -0.983255
vt 0.000500 0.000499
v 31.266577 -3034.420898 -2470.942871
vn -0.879450 0.447213 -0.162996
vt 0.243290 1.000000
v 15.071709 -3034.420898 -2383.562988
vn -0.439725 0.894427 -0.081498
vt 0.757929 1.000000
v 15.071698 -3010.518311 -2383.562988
vn -0.879450 -0.447214 -0.162996
vt 0.757929 0.000000
v 31.266556 -3010.518311 -2470.942627
vn -0.439725 -0.894427 -0.081498
vt 0.243290 0.000000
v 20.374855 -3005.051270 -2382.580078
vn -0.182235 0.000000 0.983255
vt 0.000500 0.000499
v 15.071698 -3010.518311 -2383.562988
vn -0.182235 0.000000 0.983255
vt 0.096937 0.104285
v 20.374855 -3005.051270 -2382.580078
vn 0.439725 0.894427 0.081498
vt 0.000000 0.749971
v 36.569717 -3005.051270 -2469.959961
vn 0.879450 0.447214 0.162996
vt 1.000000 0.749971
v -129.824997 -3005.051270 -2500.799316
vn -0.439725 0.894427 -0.081498
vt 1.000000 0.267305
v -146.019852 -3005.051270 -2413.419434
vn -0.879450 0.447214 -0.162996
vt 0.000000 0.267305
v 31.266556 -3010.518311 -2470.942627
vn -0.439725 -0.894427 -0.081498
vt 0.000000 0.749971
v 15.071698 -3010.518311 -2383.562988
vn -0.879450 -0.447214 -0.162996
vt 1.000000 0.749971
v -140.233704 -3010.518311 -2412.347168
vn 0.439725 -0.894427 0.081498
vt 1.000000 0.257585
v -124.038841 -3010.518311 -2499.726807
vn 0.879450 -0.447214 0.162996
vt 0.000000 0.257585
f 1/1/1 3/3/3 4/4/4
f 3/3/3 1/1/1 2/2/2
f 5/5/5 7/7/7 8/8/8
f 7/7/7 5/5/5 6/6/6
f 34/34/34 6/6/6 5/5/5
f 6/6/6 34/34/34 33/33/33
f 22/22/22 33/33/33 34/34/34
f 33/33/33 22/22/22 21/21/21
f 21/21/21 8/8/8 7/7/7
f 8/8/8 21/21/21 22/22/22
f 13/13/13 15/15/15 16/16/16
f 15/15/15 13/13/13 14/14/14
f 40/40/40 14/14/14 13/13/13
f 14/14/14 40/40/40 39/39/39
f 28/28/28 39/39/39 40/40/40
f 39/39/39 28/28/28 27/27/27
f 27/27/27 16/16/16 15/15/15
f 16/16/16 27/27/27 28/28/28
f 11/11/11 9/9/9 10/10/10
f 9/9/9 11/11/11 12/12/12
f 19/19/19 17/17/17 18/18/18
f 17/17/17 19/19/19 20/20/20
f 25/25/25 23/23/23 24/24/24
f 23/23/23 25/25/25 26/26/26
f 31/31/31 29/29/29 30/30/30
f 29/29/29 31/31/31 32/32/32
f 37/37/37 35/35/35 36/36/36
f 35/35/35 37/37/37 38/38/38
f 43/43/43 41/41/41 42/42/42
f 41/41/41 43/43/43 44/44/44
f 47/47/47 45/45/45 46/46/46
f 45/45/45 47/47/47 48/48/48
