mtllib SWORDLIGHT20_PS-AREA03_71.mtl
g PS-Area03_71
usemtl Column4a
v -3291.404297 -2701.352295 -4965.593262
vn 0.309437 -0.096772 -0.945983
vt 0.000000 1.000000
v -3671.299316 -2701.661621 -4962.019531
vn 0.088379 -0.087327 -0.992252
vt 0.496250 1.000000
v -3622.134766 -2314.433350 -5031.067383
vn 0.038820 0.014587 -0.999140
vt 0.496250 0.503750
v -3259.553223 -2302.962646 -5034.515625
vn 0.327452 0.152307 -0.932512
vt 0.000000 0.503750
v -3958.099609 -2308.396729 -5063.405273
vn 0.715660 -0.087430 -0.692955
vt 1.000000 0.503750
v -4010.761230 -2701.352295 -5014.281250
vn 0.717625 -0.073538 -0.692537
vt 1.000000 1.000000
v -3996.796387 -3499.999756 -5008.078613
vn 0.696774 0.010764 -0.717210
vt 0.996667 1.000000
v -4003.779297 -3100.676025 -5011.179688
vn 0.712750 0.005010 -0.701400
vt 0.996667 0.503751
v -3664.317383 -3100.985352 -4958.917969
vn 0.071613 -0.006494 -0.997411
vt 0.500417 0.503751
v -3657.334473 -3500.309082 -4955.816895
vn 0.074303 0.040583 -0.996410
vt 0.500417 1.000001
v -3671.299316 -2701.661621 -4962.019531
vn 0.088379 -0.087327 -0.992252
vt 0.500417 0.000001
v -4010.761230 -2701.352295 -5014.281250
vn 0.717625 -0.073538 -0.692537
vt 0.996667 0.000001
v -3291.404297 -2701.352295 -4965.593262
vn 0.309437 -0.096772 -0.945983
vt -0.003333 0.000001
v -3284.422119 -3100.676270 -4962.492188
vn 0.294897 -0.002265 -0.955526
vt -0.003333 0.503751
v -3277.439453 -3499.999756 -4959.390625
vn 0.259303 0.011809 -0.965724
vt -0.003333 1.000001
v -3995.911621 -2037.906372 -5036.685059
vn 0.409017 0.801584 -0.436083
vt 1.000000 0.000000
v -3861.508789 -2038.273193 -4975.427734
vn 0.091487 0.826197 -0.555903
vt 0.748125 0.000000
v -3812.120117 -2154.940186 -5022.705566
vn 0.202527 0.262749 -0.943369
vt 0.748125 0.251875
v -3944.867676 -2154.789551 -5080.789063
vn 0.705838 0.194752 -0.681076
vt 1.000000 0.251875
v -3626.014160 -2022.178833 -4968.443848
vn -0.021342 0.727184 -0.686111
vt 0.496250 0.000000
v -3637.345703 -2157.504883 -5009.788086
vn 0.052833 0.214193 -0.975361
vt 0.497187 0.251875
v -3457.644043 -2153.581543 -5003.311035
vn 0.068111 0.229549 -0.970911
vt 0.248125 0.251875
v -3287.707520 -2143.555420 -4972.007813
vn 0.313999 0.311453 -0.896884
vt 0.000000 0.251875
v -3474.443848 -1998.465210 -4973.831055
vn -0.031802 0.729381 -0.683368
vt 0.248125 0.000000
v -3305.787598 -1985.292236 -4939.353516
vn 0.167805 0.786855 -0.593886
vt 0.000000 0.000000
f 12/12/12 11/11/11 8/8/8
f 9/9/9 8/8/8 11/11/11
f 8/8/8 9/9/9 7/7/7
f 10/10/10 7/7/7 9/9/9
f 15/15/15 10/10/10 14/14/14
f 9/9/9 14/14/14 10/10/10
f 14/14/14 9/9/9 13/13/13
f 11/11/11 13/13/13 9/9/9
f 22/22/22 24/24/24 25/25/25
f 24/24/24 22/22/22 20/20/20
f 21/21/21 20/20/20 22/22/22
f 20/20/20 21/21/21 18/18/18
f 3/3/3 18/18/18 21/21/21
f 18/18/18 3/3/3 5/5/5
f 2/2/2 5/5/5 3/3/3
f 5/5/5 2/2/2 6/6/6
f 3/3/3 21/21/21 22/22/22
f 18/18/18 17/17/17 20/20/20
f 18/18/18 16/16/16 17/17/17
f 16/16/16 18/18/18 19/19/19
f 5/5/5 19/19/19 18/18/18
f 3/3/3 1/1/1 2/2/2
f 1/1/1 3/3/3 4/4/4
f 22/22/22 4/4/4 3/3/3
f 4/4/4 22/22/22 23/23/23
f 25/25/25 23/23/23 22/22/22
