mtllib SWORDLIGHT20_PS-AREA04_27.mtl
g PS-Area04_27
usemtl FloorA1edge
v -5951.632324 -2012.950928 4604.734863
vn -0.017377 0.999814 -0.008412
vt -0.003333 1.003333
v -6056.574707 -2014.408447 4595.035645
vn -0.008589 0.999786 -0.018813
vt 0.246667 1.003333
v -6076.947266 -2011.180786 4748.568359
vn -0.002055 0.999748 -0.022364
vt 0.250000 0.750000
v -5962.904785 -2010.573364 4752.648926
vn -0.013067 0.999686 -0.021362
vt 0.000000 0.750000
v -6159.015137 -2015.546021 4561.608887
vn -0.003210 0.999495 -0.031625
vt 0.496667 1.003333
v -6189.610840 -2011.231567 4721.343262
vn 0.005841 0.999708 -0.023451
vt 0.500000 0.750000
v -6231.140625 -2007.327515 4895.705566
vn 0.003763 0.999763 -0.021439
vt 0.500000 0.500000
v -6106.449707 -2007.297119 4916.515137
vn -0.000943 0.999728 -0.023300
vt 0.250000 0.500000
v -5981.944824 -2006.676880 4914.337402
vn -0.014865 0.999554 -0.025888
vt 0.000000 0.500000
v -6478.914551 -2007.213379 4850.540527
vn 0.004420 0.999801 -0.019428
vt 1.000000 0.500000
v -6355.831543 -2007.264038 4874.895996
vn 0.004145 0.999787 -0.020208
vt 0.750000 0.500000
v -6302.274902 -2011.141479 4694.117676
vn 0.005842 0.999696 -0.023973
vt 0.750000 0.750000
v -6417.650879 -2011.060547 4664.650879
vn 0.006329 0.999704 -0.023497
vt 1.000000 0.750000
v -6261.500977 -2016.194214 4528.335449
vn 0.009962 0.999113 -0.040921
vt 0.746667 1.003333
v -6369.621094 -2016.206299 4493.814941
vn 0.016748 0.999200 -0.036306
vt 0.996667 1.003333
v -6601.439941 -1999.515991 5222.319824
vn 0.003470 0.999799 -0.019749
vt 1.000000 0.000000
v -6462.945801 -1999.515991 5236.452637
vn 0.001626 0.999779 -0.020939
vt 0.750000 0.000000
v -6409.388672 -2003.389404 5055.674316
vn 0.002847 0.999783 -0.020654
vt 0.750000 0.250000
v -6540.177246 -2003.364990 5036.430176
vn 0.003721 0.999803 -0.019474
vt 1.000000 0.250000
v -6314.199707 -1999.515991 5244.431152
vn 0.001774 0.999758 -0.021926
vt 0.500000 0.000000
v -6272.670410 -2003.422119 5070.067871
vn 0.002366 0.999759 -0.021831
vt 0.500000 0.250000
v -6135.952637 -2003.407959 5084.461914
vn -0.000900 0.999748 -0.022416
vt 0.250000 0.250000
v -6000.985352 -2002.767822 5076.025879
vn -0.014854 0.999638 -0.022422
vt 0.000000 0.250000
v -6165.454590 -1999.515991 5252.408691
vn 0.001231 0.999736 -0.022951
vt 0.250000 0.000000
v -6016.709473 -1999.515991 5260.386719
vn -0.011499 0.999869 -0.011398
vt 0.000000 0.000000
v -6538.450195 -2011.139038 4630.701660
vn 0.007078 0.999765 -0.020501
vt 0.250000 0.750000
v -6488.966309 -2015.435425 4456.649414
vn 0.014837 0.999532 -0.026752
vt 0.250000 0.995749
v -6613.840332 -2014.609131 4418.034180
vn 0.011698 0.999777 -0.017608
vt 0.500000 0.995749
v -6659.105469 -2003.404053 5007.486816
vn 0.004832 0.999805 -0.019136
vt 0.250000 0.250000
v -6772.103516 -2003.453979 4973.694336
vn 0.005462 0.999802 -0.019117
vt 0.500000 0.250000
v -6827.175293 -1999.515991 5163.285645
vn 0.005612 0.999802 -0.019081
vt 0.500000 0.000000
v -7032.721191 -1999.515991 5086.802734
vn 0.011122 0.999771 -0.018273
vt 1.000000 0.000000
v -6934.916504 -1999.515991 5130.691406
vn 0.007052 0.999798 -0.018836
vt 0.750000 0.000000
v -6885.101563 -2003.461792 4939.901855
vn 0.006782 0.999800 -0.018800
vt 0.750000 0.250000
v -6984.895508 -2003.124268 4917.594238
vn 0.010413 0.999783 -0.018022
vt 1.000000 0.250000
v -6369.621094 -2016.206299 4493.814941
vn 0.016748 0.999200 -0.036306
vt 0.000000 0.995749
v -6348.057129 -2023.949829 4353.087891
vn 0.025921 0.999075 -0.034315
vt 0.000000 0.747013
v -6461.168945 -2020.630859 4311.277344
vn 0.034666 0.999339 -0.010918
vt 0.250000 0.747013
v -6579.622070 -2017.050171 4267.782715
vn 0.014303 0.999873 0.007106
vt 0.500000 0.747013
v -6444.504883 -2020.002441 4181.620605
vn 0.032663 0.997765 0.058299
vt 0.250000 0.498277
v -6552.918945 -2013.755981 4131.549805
vn -0.005505 0.998451 0.055362
vt 0.500000 0.498277
v -6339.808594 -2026.419800 4229.026855
vn 0.015826 0.999178 0.037325
vt 0.000000 0.498277
v -6697.409668 -2016.619751 4223.271484
vn -0.003847 0.999990 -0.002379
vt 0.750000 0.747013
v -6660.003418 -2013.978027 4079.447266
vn -0.036384 0.998580 0.038915
vt 0.750000 0.498277
v -6779.661621 -2018.346924 4033.458496
vn -0.039238 0.999227 0.002534
vt 1.000000 0.498277
v -6804.739258 -2016.970215 4188.639648
vn 0.008439 0.999897 -0.011592
vt 1.000000 0.747013
v -6738.548340 -2014.454834 4379.164551
vn 0.006733 0.999876 -0.014247
vt 0.750000 0.995749
v -6873.298340 -2013.875122 4346.350586
vn 0.013780 0.999810 -0.013783
vt 1.000000 0.995749
v -6624.276367 -2002.810059 3936.497070
vn -0.149124 0.981596 0.119294
vt 0.750000 0.249541
v -6595.369141 -1972.819214 3828.896973
vn -0.473735 0.782586 0.403900
vt 0.750000 0.000805
v -6683.991699 -1993.054321 3734.987793
vn -0.433733 0.896415 0.091197
vt 1.000000 0.000805
v -6715.026855 -2010.386475 3889.030762
vn -0.104659 0.993209 0.050828
vt 1.000000 0.249541
v -6527.344727 -1999.925293 3997.129883
vn -0.093029 0.977939 0.187033
vt 0.500000 0.249541
v -6507.705078 -1967.414185 3896.005859
vn -0.360674 0.781825 0.508590
vt 0.500000 0.000805
v -6428.419922 -2006.827393 4054.714355
vn -0.027151 0.980072 0.196778
vt 0.250000 0.249541
v -6331.725098 -2015.744751 4108.189941
vn -0.026069 0.986254 0.163168
vt 0.000000 0.249541
v -6416.347656 -1973.465942 3957.919922
vn -0.227977 0.781928 0.580185
vt 0.250000 0.000805
v -6417.650879 -2011.060547 4664.650879
vn 0.006329 0.999704 -0.023497
vt 0.000000 0.750000
v -6661.960449 -2011.234131 4594.512207
vn 0.005108 0.999819 -0.018315
vt 0.500000 0.750000
v -6717.032227 -2007.367920 4784.103027
vn 0.005287 0.999807 -0.018928
vt 0.500000 0.500000
v -6598.777832 -2007.281860 4819.094238
vn 0.004661 0.999808 -0.019032
vt 0.250000 0.500000
v -6478.914551 -2007.213379 4850.540527
vn 0.004420 0.999801 -0.019428
vt 0.000000 0.500000
v -6958.693359 -2006.809692 4724.578613
vn 0.011788 0.999783 -0.017157
vt 1.000000 0.500000
v -6835.286621 -2007.369995 4749.111816
vn 0.006852 0.999806 -0.018494
vt 0.750000 0.500000
v -6785.471191 -2011.203003 4558.322266
vn 0.006818 0.999825 -0.017412
vt 0.750000 0.750000
v -6893.148926 -2010.792236 4534.216797
vn 0.010661 0.999811 -0.016247
vt 1.000000 0.750000
v -6311.363281 -1987.860229 3999.493164
vn 0.011562 0.841063 0.540813
vt 0.000000 0.000805
v -6540.177246 -2003.364990 5036.430176
vn 0.003721 0.999803 -0.019474
vt 0.000000 0.250000
v -6601.439941 -1999.515991 5222.319824
vn 0.003470 0.999799 -0.019749
vt 0.000000 0.000000
v -6719.433105 -1999.515991 5195.879883
vn 0.005003 0.999806 -0.019032
vt 0.250000 0.000000
f 69/69/69 29/29/29 70/70/70
f 29/29/29 69/69/69 68/68/68
f 29/29/29 68/68/68 62/62/62
f 26/26/26 58/58/58 36/36/36
f 58/58/58 26/26/26 62/62/62
f 61/61/61 62/62/62 26/26/26
f 62/62/62 61/61/61 29/29/29
f 60/60/60 29/29/29 61/61/61
f 60/60/60 61/61/61 26/26/26
f 36/36/36 27/27/27 26/26/26
f 38/38/38 36/36/36 37/37/37
f 36/36/36 38/38/38 27/27/27
f 28/28/28 27/27/27 38/38/38
f 27/27/27 28/28/28 26/26/26
f 59/59/59 26/26/26 28/28/28
f 26/26/26 59/59/59 60/60/60
f 65/65/65 60/60/60 59/59/59
f 60/60/60 65/65/65 64/64/64
f 65/65/65 59/59/59 28/28/28
f 38/38/38 39/39/39 28/28/28
f 38/38/38 37/37/37 42/42/42
f 48/48/48 65/65/65 47/47/47
f 28/28/28 47/47/47 65/65/65
f 47/47/47 28/28/28 43/43/43
f 39/39/39 43/43/43 28/28/28
f 43/43/43 39/39/39 41/41/41
f 38/38/38 41/41/41 39/39/39
f 41/41/41 38/38/38 40/40/40
f 42/42/42 40/40/40 38/38/38
f 40/40/40 42/42/42 55/55/55
f 56/56/56 55/55/55 42/42/42
f 55/55/55 56/56/56 67/67/67
f 41/41/41 40/40/40 55/55/55
f 48/48/48 47/47/47 43/43/43
f 41/41/41 44/44/44 43/43/43
f 67/67/67 57/57/57 55/55/55
f 57/57/57 54/54/54 55/55/55
f 53/53/53 55/55/55 54/54/54
f 55/55/55 53/53/53 41/41/41
f 49/49/49 41/41/41 53/53/53
f 41/41/41 49/49/49 44/44/44
f 45/45/45 44/44/44 49/49/49
f 44/44/44 45/45/45 43/43/43
f 46/46/46 43/43/43 45/45/45
f 43/43/43 46/46/46 48/48/48
f 54/54/54 49/49/49 53/53/53
f 49/49/49 54/54/54 50/50/50
f 49/49/49 52/52/52 45/45/45
f 52/52/52 49/49/49 51/51/51
f 50/50/50 51/51/51 49/49/49
f 29/29/29 31/31/31 70/70/70
f 31/31/31 29/29/29 30/30/30
f 60/60/60 30/30/30 29/29/29
f 30/30/30 60/60/60 34/34/34
f 64/64/64 34/34/34 60/60/60
f 34/34/34 64/64/64 63/63/63
f 65/65/65 63/63/63 64/64/64
f 63/63/63 65/65/65 66/66/66
f 48/48/48 66/66/66 65/65/65
f 32/32/32 33/33/33 34/34/34
f 31/31/31 34/34/34 33/33/33
f 34/34/34 31/31/31 30/30/30
f 63/63/63 35/35/35 34/34/34
f 32/32/32 34/34/34 35/35/35
f 23/23/23 9/9/9 22/22/22
f 8/8/8 22/22/22 9/9/9
f 22/22/22 8/8/8 7/7/7
f 3/3/3 7/7/7 8/8/8
f 7/7/7 3/3/3 6/6/6
f 5/5/5 6/6/6 3/3/3
f 6/6/6 5/5/5 12/12/12
f 14/14/14 12/12/12 5/5/5
f 12/12/12 14/14/14 15/15/15
f 12/12/12 7/7/7 6/6/6
f 7/7/7 12/12/12 11/11/11
f 3/3/3 4/4/4 1/1/1
f 4/4/4 3/3/3 9/9/9
f 8/8/8 9/9/9 3/3/3
f 3/3/3 2/2/2 5/5/5
f 2/2/2 3/3/3 1/1/1
f 22/22/22 25/25/25 23/23/23
f 25/25/25 22/22/22 24/24/24
f 15/15/15 13/13/13 12/12/12
f 10/10/10 12/12/12 13/13/13
f 12/12/12 10/10/10 11/11/11
f 18/18/18 11/11/11 10/10/10
f 11/11/11 18/18/18 7/7/7
f 21/21/21 7/7/7 18/18/18
f 7/7/7 21/21/21 22/22/22
f 20/20/20 22/22/22 21/21/21
f 22/22/22 20/20/20 24/24/24
f 16/16/16 17/17/17 18/18/18
f 20/20/20 18/18/18 17/17/17
f 18/18/18 20/20/20 21/21/21
f 10/10/10 19/19/19 18/18/18
f 16/16/16 18/18/18 19/19/19
usemtl FloorA
v -5869.520020 -2000.923096 5021.930664
vn -0.027906 0.999330 -0.023677
vt 0.250000 0.750000
v -5855.571289 -1997.959961 5160.064941
vn -0.019694 0.999767 -0.008835
vt 0.250000 1.000000
v -5722.474121 -1995.445923 5079.892090
vn -0.022868 0.999710 -0.007564
vt 0.500000 1.000000
v -5739.152344 -1998.497681 4945.187012
vn -0.032585 0.999171 -0.024394
vt 0.500000 0.750000
v -6016.709473 -1999.515991 5260.386719
vn -0.011499 0.999869 -0.011398
vt 0.000000 1.000000
v -5846.102051 -2008.993408 4710.439941
vn -0.025766 0.999406 -0.022907
vt 0.250000 0.250000
v -5841.644531 -2011.343018 4566.829102
vn -0.016207 0.999861 -0.004020
vt 0.250000 0.000000
v -5951.632324 -2012.950928 4604.734863
vn -0.017377 0.999814 -0.008412
vt 0.000000 0.000000
v -5962.904785 -2010.573364 4752.648926
vn -0.013067 0.999686 -0.021362
vt 0.000000 0.250000
v -5727.702148 -2006.992920 4645.146973
vn -0.029709 0.999261 -0.024381
vt 0.500000 0.250000
v -5729.077148 -2009.744873 4505.134766
vn -0.017053 0.999818 -0.008528
vt 0.500000 0.000000
v -5857.811035 -2004.971313 4866.185059
vn -0.029216 0.999179 -0.028084
vt 0.250000 0.500000
v -5733.427246 -2002.766724 4795.166992
vn -0.034131 0.998977 -0.029649
vt 0.500000 0.500000
v -5981.944824 -2006.676880 4914.337402
vn -0.014865 0.999554 -0.025888
vt 0.000000 0.500000
v -5608.865723 -2005.123657 4579.975586
vn -0.025945 0.999313 -0.026479
vt 0.750000 0.250000
v -5608.171875 -2000.649658 4724.391113
vn -0.030446 0.999055 -0.031010
vt 0.750000 0.500000
v -5481.166504 -1999.438843 4654.927734
vn -0.026941 0.999130 -0.031844
vt 1.000000 0.500000
v -5486.856934 -2004.127319 4515.069824
vn -0.023331 0.999321 -0.028517
vt 1.000000 0.250000
v -5616.399414 -2008.316650 4443.471680
vn -0.016079 0.999786 -0.012993
vt 0.750000 0.000000
v -5499.174316 -2007.666504 4381.762695
vn -0.009831 0.999814 -0.016597
vt 1.000000 0.000000
v -5607.478027 -1996.116211 4868.806152
vn -0.028974 0.999248 -0.025765
vt 0.750000 0.750000
v -5587.853027 -1992.942627 5000.143066
vn -0.020005 0.999765 -0.008352
vt 0.750000 1.000000
v -5453.635254 -1991.370850 4923.265137
vn -0.014187 0.999840 -0.010860
vt 1.000000 1.000000
v -5475.476074 -1994.673096 4794.784668
vn -0.026236 0.999283 -0.027304
vt 1.000000 0.750000
v -6000.985352 -2002.767822 5076.025879
vn -0.014854 0.999638 -0.022422
vt 0.000000 0.750000
v -6311.363281 -1987.860229 3999.493164
vn 0.011562 0.841063 0.540813
vt 0.996667 0.003333
v -6331.725098 -2015.744751 4108.189941
vn -0.026069 0.986254 0.163168
vt 0.996667 0.253333
v -6241.484375 -2018.905518 4156.495605
vn -0.026260 0.994512 0.101272
vt 0.746667 0.253333
v -6219.404785 -2007.480835 4057.276855
vn 0.039871 0.990116 0.134467
vt 0.746667 0.003333
v -6339.808594 -2026.419800 4229.026855
vn 0.015826 0.999178 0.037325
vt 0.996667 0.503333
v -6243.877441 -2026.710083 4273.137695
vn -0.030177 0.999350 0.019708
vt 0.746667 0.503333
v -6152.503906 -2022.589600 4316.210449
vn -0.060624 0.997964 0.019827
vt 0.496667 0.503333
v -6154.733398 -2017.213867 4203.130859
vn -0.071168 0.996075 0.052626
vt 0.496667 0.253333
v -6135.606445 -2010.212158 4104.575195
vn -0.031061 0.997974 0.055526
vt 0.496667 0.003333
v -6159.015137 -2015.546021 4561.608887
vn -0.003210 0.999495 -0.031625
vt 0.496667 1.003333
v -6150.289063 -2020.682861 4431.133789
vn -0.026350 0.999250 -0.028367
vt 0.496667 0.753333
v -6246.291992 -2023.595093 4392.546387
vn -0.000871 0.999357 -0.035840
vt 0.746667 0.753333
v -6261.500977 -2016.194214 4528.335449
vn 0.009962 0.999113 -0.040921
vt 0.746667 1.003333
v -6348.057129 -2023.949829 4353.087891
vn 0.025921 0.999075 -0.034315
vt 0.996667 0.753333
v -6369.621094 -2016.206299 4493.814941
vn 0.016748 0.999200 -0.036306
vt 0.996667 1.003333
v -5951.632324 -2012.950928 4604.734863
vn -0.017377 0.999814 -0.008412
vt -0.003333 1.003333
v -5955.898926 -2012.303223 4484.371582
vn -0.028162 0.999458 0.017041
vt -0.003333 0.753333
v -6054.462402 -2016.329224 4470.331543
vn -0.039892 0.999196 -0.004029
vt 0.246667 0.753333
v -6056.574707 -2014.408447 4595.035645
vn -0.008589 0.999786 -0.018813
vt 0.246667 1.003333
v -5967.935547 -2009.682617 4377.897461
vn -0.035229 0.998949 0.029338
vt -0.003333 0.503333
v -6061.482910 -2015.774170 4360.503418
vn -0.078842 0.996527 0.026786
vt 0.246667 0.503333
v -6068.511230 -2011.573730 4251.597168
vn -0.074406 0.996456 0.039235
vt 0.246667 0.253333
v -6052.110352 -2007.370483 4154.198730
vn -0.038583 0.999202 0.010334
vt 0.246667 0.003333
v -5979.973145 -2006.141602 4271.655762
vn -0.034929 0.999074 0.025104
vt -0.003333 0.253333
v -5985.218262 -2005.253296 4189.283203
vn -0.029977 0.999520 0.007817
vt -0.003333 0.003333
v -5636.637695 -2012.300293 3909.328613
vn -0.023321 0.998920 -0.040179
vt 0.000000 1.000000
v -5738.712891 -2009.473511 4003.458496
vn -0.008776 0.998812 -0.047929
vt 0.250000 1.000000
v -5693.716309 -2007.791016 4097.254395
vn 0.010587 0.999913 -0.007852
vt 0.250000 0.750000
v -5589.143555 -2009.275146 4034.249023
vn 0.004934 0.999890 -0.013992
vt 0.000000 0.750000
v -5829.505859 -2006.317871 4072.363770
vn 0.005049 0.999393 -0.034472
vt 0.500000 1.000000
v -5789.997070 -2006.310059 4165.161621
vn 0.016201 0.999864 0.002965
vt 0.500000 0.750000
v -5767.323242 -2007.967529 4275.149902
vn 0.011710 0.999851 0.012679
vt 0.500000 0.500000
v -5665.664551 -2008.422485 4210.022949
vn 0.007741 0.999964 0.003466
vt 0.250000 0.500000
v -5556.944824 -2009.160767 4147.903320
vn 0.006997 0.999976 0.000223
vt 0.000000 0.500000
v -5967.935547 -2009.682617 4377.897461
vn -0.035229 0.998949 0.029338
vt 1.000000 0.500000
v -5868.981934 -2007.734009 4340.277832
vn 0.003366 0.999702 0.024167
vt 0.750000 0.500000
v -5886.275879 -2005.073608 4233.069824
vn 0.006174 0.999882 0.014088
vt 0.750000 0.750000
v -5979.973145 -2006.141602 4271.655762
vn -0.034929 0.999074 0.025104
vt 1.000000 0.750000
v -5920.564941 -2004.171387 4140.921875
vn -0.003598 0.999950 -0.009317
vt 0.750000 1.000000
v -5985.218262 -2005.253296 4189.283203
vn -0.029977 0.999520 0.007817
vt 1.000000 1.000000
v -5951.632324 -2012.950928 4604.734863
vn -0.017377 0.999814 -0.008412
vt 1.000000 0.000000
v -5841.644531 -2011.343018 4566.829102
vn -0.016207 0.999861 -0.004020
vt 0.750000 0.000000
v -5851.687500 -2010.373535 4447.486328
vn -0.005618 0.999882 0.014298
vt 0.750000 0.250000
v -5955.898926 -2012.303223 4484.371582
vn -0.028162 0.999458 0.017041
vt 1.000000 0.250000
v -5744.650879 -2009.591187 4385.138672
vn -0.001632 0.999965 0.008157
vt 0.500000 0.250000
v -5637.612305 -2009.006958 4322.791504
vn -0.001872 0.999998 0.000498
vt 0.250000 0.250000
v -5524.746094 -2008.984497 4261.558105
vn 0.000298 0.999979 -0.006407
vt 0.000000 0.250000
v -5616.399414 -2008.316650 4443.471680
vn -0.016079 0.999786 -0.012993
vt 0.250000 0.000000
v -5499.174316 -2007.666504 4381.762695
vn -0.009831 0.999814 -0.016597
vt 0.000000 0.000000
f 98/98/98 97/97/97 100/100/100
f 97/97/97 98/98/98 96/96/96
f 99/99/99 96/96/96 98/98/98
f 107/107/107 109/109/109 110/110/110
f 109/109/109 107/107/107 100/100/100
f 101/101/101 100/100/100 107/107/107
f 107/107/107 108/108/108 105/105/105
f 108/108/108 107/107/107 110/110/110
f 101/101/101 98/98/98 100/100/100
f 98/98/98 101/101/101 102/102/102
f 107/107/107 102/102/102 101/101/101
f 102/102/102 107/107/107 106/106/106
f 105/105/105 106/106/106 107/107/107
f 106/106/106 105/105/105 113/113/113
f 114/114/114 113/113/113 105/105/105
f 113/113/113 114/114/114 111/111/111
f 113/113/113 102/102/102 106/106/106
f 102/102/102 113/113/113 116/116/116
f 98/98/98 104/104/104 99/99/99
f 104/104/104 98/98/98 103/103/103
f 102/102/102 103/103/103 98/98/98
f 103/103/103 102/102/102 117/117/117
f 116/116/116 117/117/117 102/102/102
f 117/117/117 116/116/116 115/115/115
f 113/113/113 115/115/115 116/116/116
f 115/115/115 113/113/113 112/112/112
f 111/111/111 112/112/112 113/113/113
f 120/120/120 118/118/118 117/117/117
f 104/104/104 117/117/117 118/118/118
f 117/117/117 104/104/104 103/103/103
f 115/115/115 119/119/119 117/117/117
f 120/120/120 117/117/117 119/119/119
f 71/71/71 95/95/95 75/75/75
f 95/95/95 71/71/71 84/84/84
f 82/82/82 84/84/84 71/71/71
f 84/84/84 82/82/82 76/76/76
f 83/83/83 76/76/76 82/82/82
f 76/76/76 83/83/83 80/80/80
f 85/85/85 80/80/80 83/83/83
f 80/80/80 85/85/85 81/81/81
f 89/89/89 81/81/81 85/85/85
f 81/81/81 76/76/76 80/80/80
f 76/76/76 81/81/81 77/77/77
f 76/76/76 79/79/79 84/84/84
f 79/79/79 76/76/76 78/78/78
f 77/77/77 78/78/78 76/76/76
f 90/90/90 85/85/85 88/88/88
f 85/85/85 90/90/90 89/89/89
f 75/75/75 72/72/72 71/71/71
f 73/73/73 71/71/71 72/72/72
f 91/91/91 92/92/92 93/93/93
f 92/92/92 91/91/91 73/73/73
f 74/74/74 73/73/73 91/91/91
f 73/73/73 74/74/74 71/71/71
f 83/83/83 71/71/71 74/74/74
f 71/71/71 83/83/83 82/82/82
f 85/85/85 87/87/87 88/88/88
f 87/87/87 85/85/85 86/86/86
f 83/83/83 86/86/86 85/85/85
f 86/86/86 83/83/83 91/91/91
f 74/74/74 91/91/91 83/83/83
f 93/93/93 94/94/94 91/91/91
f 87/87/87 91/91/91 94/94/94
f 91/91/91 87/87/87 86/86/86
f 137/137/137 81/81/81 138/138/138
f 140/140/140 138/138/138 81/81/81
f 138/138/138 140/140/140 127/127/127
f 141/141/141 127/127/127 140/140/140
f 127/127/127 141/141/141 128/128/128
f 129/129/129 128/128/128 141/141/141
f 128/128/128 129/129/129 123/123/123
f 124/124/124 123/123/123 129/129/129
f 123/123/123 124/124/124 121/121/121
f 123/123/123 127/127/127 128/128/128
f 127/127/127 123/123/123 126/126/126
f 141/141/141 143/143/143 144/144/144
f 143/143/143 141/141/141 81/81/81
f 140/140/140 81/81/81 141/141/141
f 144/144/144 142/142/142 141/141/141
f 129/129/129 141/141/141 142/142/142
f 138/138/138 136/136/136 137/137/137
f 136/136/136 138/138/138 139/139/139
f 121/121/121 122/122/122 123/123/123
f 125/125/125 123/123/123 122/122/122
f 123/123/123 125/125/125 126/126/126
f 132/132/132 126/126/126 125/125/125
f 126/126/126 132/132/132 127/127/127
f 131/131/131 127/127/127 132/132/132
f 127/127/127 131/131/131 138/138/138
f 130/130/130 138/138/138 131/131/131
f 138/138/138 130/130/130 139/139/139
f 132/132/132 130/130/130 131/131/131
f 130/130/130 132/132/132 133/133/133
f 132/132/132 135/135/135 133/133/133
f 135/135/135 132/132/132 134/134/134
f 125/125/125 134/134/134 132/132/132
