mtllib SWORDLIGHT20_PS-AREA03_75.mtl
g PS-Area03_75
usemtl Column4a
v -5885.562012 -1991.303101 -6167.908691
vn -0.678479 -0.096684 -0.728230
vt 1.000000 0.000000
v -5505.287598 -2005.285522 -6299.468750
vn -0.293094 -0.065200 -0.953858
vt 0.496250 0.000000
v -5434.317383 -2545.797363 -6235.145508
vn -0.348056 -0.022403 -0.937206
vt 0.496250 0.503750
v -5807.973633 -2558.213135 -6091.472656
vn -0.712571 0.011341 -0.701508
vt 1.000000 0.503750
v -5143.894043 -3001.488525 -6418.963379
vn -0.758967 0.074638 -0.646837
vt 0.000000 1.000000
v -5286.872559 -3004.851318 -6329.326660
vn -0.393491 0.063624 -0.917124
vt 0.248125 1.000000
v -5268.813477 -2767.386230 -6320.601074
vn -0.430263 0.106039 -0.896454
vt 0.248125 0.751875
v -5127.189453 -2760.809082 -6411.704102
vn -0.754018 0.156305 -0.637986
vt 0.000000 0.751875
v -5426.022949 -2978.781250 -6292.429199
vn -0.126360 0.789825 -0.600174
vt 0.496250 1.000000
v -5456.818359 -2775.328613 -6250.674316
vn -0.328478 0.118935 -0.936994
vt 0.497187 0.751875
v -5067.191895 -2514.044434 -6388.604004
vn -0.781354 -0.004252 -0.624074
vt 0.000000 0.503750
v -5650.398926 -2778.428223 -6188.295410
vn -0.364641 0.189936 -0.911571
vt 0.748125 0.751875
v -5813.050293 -2775.758789 -6095.481934
vn -0.680176 0.214268 -0.701035
vt 1.000000 0.751875
v -5671.116699 -2949.561523 -6232.081055
vn -0.254564 0.560198 -0.788273
vt 0.748125 1.000000
v -5883.952637 -2969.297852 -6141.280762
vn -0.482288 0.719387 -0.499881
vt 1.000000 1.000000
v -5276.699219 -2266.281738 -6330.804199
vn -0.388080 -0.112783 -0.914699
vt 0.248125 0.251875
v -5129.222168 -2260.210205 -6413.747559
vn -0.728219 -0.121296 -0.674526
vt 0.000000 0.251875
v -5292.636230 -2010.816528 -6347.317871
vn -0.339800 -0.060920 -0.938523
vt 0.248125 0.000000
v -5099.377441 -2001.335571 -6446.601074
vn -0.579654 0.259894 -0.772306
vt 0.000000 0.000000
f 7/7/7 5/5/5 6/6/6
f 5/5/5 7/7/7 8/8/8
f 11/11/11 8/8/8 7/7/7
f 7/7/7 6/6/6 9/9/9
f 12/12/12 14/14/14 15/15/15
f 14/14/14 12/12/12 9/9/9
f 10/10/10 9/9/9 12/12/12
f 9/9/9 10/10/10 7/7/7
f 3/3/3 7/7/7 10/10/10
f 7/7/7 3/3/3 11/11/11
f 16/16/16 11/11/11 3/3/3
f 11/11/11 16/16/16 17/17/17
f 19/19/19 17/17/17 16/16/16
f 3/3/3 10/10/10 12/12/12
f 3/3/3 2/2/2 16/16/16
f 18/18/18 16/16/16 2/2/2
f 16/16/16 18/18/18 19/19/19
f 3/3/3 1/1/1 2/2/2
f 1/1/1 3/3/3 4/4/4
f 12/12/12 4/4/4 3/3/3
f 4/4/4 12/12/12 13/13/13
f 15/15/15 13/13/13 12/12/12
