mtllib SWORDLIGHT20_PS-AREA03_46.mtl
g PS-Area03_46
usemtl Roof
v -6572.651367 959.679382 -4752.957520
vn 0.442534 -0.865819 0.233500
vt 0.000000 0.000000
v -6787.795898 799.703796 -4947.537598
vn 0.604940 -0.763938 0.224604
vt 0.002416 0.493448
v -6545.417969 784.170105 -5085.599609
vn 0.270259 -0.795244 0.542721
vt 0.498666 0.493448
v -6945.262207 579.656921 -5114.721680
vn 0.814569 -0.480416 0.325081
vt 0.002416 0.997198
v -6737.596191 582.194824 -5269.389160
vn 0.463529 -0.459229 0.757793
vt 0.498666 0.997198
v -6500.000488 570.510010 -5399.999512
vn 0.562010 -0.716419 0.413387
vt 1.002416 0.997198
v -5975.678711 575.195557 -6242.072266
vn -0.486615 -0.525819 -0.697654
vt 0.988543 1.000000
v -6164.329590 471.597412 -5819.617188
vn -0.724031 -0.658493 -0.205346
vt 0.492293 1.000000
v -6345.162109 544.570313 -5748.938477
vn -0.133811 -0.987608 -0.082004
vt 0.492293 0.503750
v -6287.400391 625.974609 -6088.061523
vn -0.120108 -0.903102 -0.412288
vt 0.988543 0.503750
v -6359.418457 601.303711 -5406.221191
vn -0.010251 -0.916010 0.401025
vt -0.011457 0.503750
v -6217.994141 575.195557 -5374.334961
vn -0.624104 -0.609338 0.489083
vt -0.011457 1.000000
v -6500.000488 570.510010 -5399.999512
vn 0.562010 -0.716419 0.413387
vt -0.011457 0.000000
v -6502.674805 531.396484 -5662.950684
vn 0.642588 -0.755033 -0.130411
vt 0.492293 0.000000
v -6553.325684 561.362549 -5941.541016
vn 0.649524 -0.692775 -0.313339
vt 0.988543 0.000000
v -6217.994141 575.195557 -5374.334961
vn -0.624104 -0.609338 0.489083
vt 0.988543 1.000000
v -6243.501953 796.325623 -5152.406738
vn -0.216312 -0.785445 0.579901
vt 0.500417 1.000000
v -6396.042969 815.253601 -5132.274902
vn 0.141856 -0.800214 0.582696
vt 0.500417 0.503750
v -6359.418457 601.303711 -5406.221191
vn -0.010251 -0.916010 0.401025
vt 0.996667 0.503750
v -6424.641602 994.834656 -4840.014648
vn 0.206976 -0.921921 0.327448
vt 0.000000 0.503750
v -6271.144043 986.867615 -4912.094238
vn -0.176485 -0.925083 0.336267
vt 0.000000 1.000000
v -6545.417969 784.170105 -5085.599609
vn 0.270259 -0.795244 0.542721
vt 0.500417 0.000000
v -6500.000488 570.510010 -5399.999512
vn 0.562010 -0.716419 0.413387
vt 0.996667 0.000000
v -6572.651367 959.679382 -4752.957520
vn 0.442534 -0.865819 0.233500
vt 0.996667 0.003333
v -6500.276855 992.629089 -4519.850098
vn 0.462667 -0.879606 -0.110605
vt 0.496250 0.000000
v -6706.189453 836.681335 -4613.888184
vn 0.773264 -0.583253 -0.248756
vt 0.500417 0.499583
v -6787.795898 799.703796 -4947.537598
vn 0.604940 -0.763938 0.224604
vt 0.996667 0.499584
v -6558.099609 822.220398 -4268.263672
vn 0.848567 -0.525018 -0.065499
vt -0.003333 0.499583
v -6412.482422 989.958191 -4281.978516
vn 0.541938 -0.840006 0.026312
vt -0.003333 0.003333
v -6637.272949 579.656921 -4264.839355
vn 0.955756 -0.283687 -0.077792
vt -0.003333 1.003333
v -6850.041992 613.285095 -4699.373047
vn 0.894315 -0.316431 -0.316342
vt 0.500417 1.003333
v -6945.262207 579.656921 -5114.721680
vn 0.814569 -0.480416 0.325081
vt 0.996667 1.003333
v -6412.482422 989.958191 -4281.978516
vn 0.541938 -0.840006 0.026312
vt 1.000000 0.000000
v -6468.759277 970.944763 -4017.588135
vn 0.703001 -0.705832 0.087122
vt 0.500417 0.003333
v -6627.534180 803.073425 -3971.624756
vn 0.812448 -0.568200 0.130680
vt 0.500417 0.499583
v -6558.099609 822.220398 -4268.263672
vn 0.848567 -0.525018 -0.065499
vt 0.996667 0.499584
v -6680.739746 769.875610 -3678.929688
vn 0.733130 -0.664329 -0.145560
vt -0.003333 0.499583
v -6514.056152 935.455933 -3755.466797
vn 0.692162 -0.697904 -0.183961
vt -0.003333 0.003333
v -6815.632324 579.656860 -3612.769531
vn 0.911244 -0.385909 -0.143908
vt -0.003333 1.003333
v -6737.190918 585.470154 -3935.995117
vn 0.920564 -0.312315 0.234564
vt 0.500417 1.003333
v -6637.272949 579.656921 -4264.839355
vn 0.955756 -0.283687 -0.077792
vt 0.996667 1.003333
v -6514.056152 935.455933 -3755.466797
vn 0.692162 -0.697904 -0.183961
vt 0.996667 0.003333
v -6370.966797 933.201294 -3426.905518
vn 0.671312 -0.681400 -0.291605
vt 0.500417 0.003333
v -6533.705566 766.589478 -3372.968018
vn 0.683833 -0.656882 -0.317615
vt 0.500417 0.499583
v -6680.739746 769.875610 -3678.929688
vn 0.733130 -0.664329 -0.145560
vt 0.996667 0.499584
v -6394.523926 768.552124 -3064.687256
vn 0.745407 -0.635537 -0.201151
vt -0.003333 0.499583
v -6231.921387 935.050903 -3097.309570
vn 0.671021 -0.718491 -0.183034
vt -0.003333 0.003333
v -6527.577148 579.656860 -3039.419678
vn 0.853313 -0.447731 -0.267196
vt -0.003333 1.003333
v -6665.774902 576.460571 -3327.895752
vn 0.825749 -0.411505 -0.385749
vt 0.500417 1.003333
v -6815.632324 579.656860 -3612.769531
vn 0.911244 -0.385909 -0.143908
vt 0.996667 1.003333
v -6231.921387 935.050903 -3097.309570
vn 0.671021 -0.718491 -0.183034
vt 0.996667 0.003333
v -6201.199219 938.922974 -2871.635010
vn 0.574976 -0.817090 -0.042040
vt 0.500417 0.003333
v -6383.970703 760.840698 -2847.871582
vn 0.800617 -0.599165 -0.003683
vt 0.500416 0.499583
v -6394.523926 768.552124 -3064.687256
vn 0.745407 -0.635537 -0.201151
vt 0.996666 0.499583
v -6398.735352 771.555786 -2630.023438
vn 0.787366 -0.579671 0.209848
vt -0.003334 0.499583
v -6185.075684 962.266235 -2645.167236
vn 0.501846 -0.849180 0.164453
vt -0.003333 0.003333
v -6527.577148 510.882172 -2599.999512
vn 0.921729 -0.329178 0.205080
vt -0.003334 1.003333
v -6509.558594 536.578979 -2820.345459
vn 0.909241 -0.413348 -0.049236
vt 0.500416 1.003333
v -6527.577148 579.656860 -3039.419678
vn 0.853313 -0.447731 -0.267196
vt 0.996666 1.003333
v -6188.994141 993.662781 -4723.686523
vn -0.369964 -0.904644 0.211534
vt 0.496250 1.000000
v -6347.812988 1023.286316 -4627.734375
vn 0.052089 -0.998003 0.035724
vt 0.496250 0.503750
v -6264.875977 1026.339966 -4410.308105
vn 0.088271 -0.982726 0.162660
vt 0.996667 0.503750
v -6110.046387 985.282166 -4529.750977
vn -0.257466 -0.927949 0.269485
vt 1.000000 1.000000
v -5742.042969 971.629028 -2697.338135
vn -0.371401 -0.925884 0.069287
vt 0.000000 0.003333
v -5801.882324 1115.013306 -2969.036621
vn -0.406848 -0.856283 -0.318205
vt 0.496250 0.003333
v -5632.244629 891.435425 -3019.220215
vn -0.847230 -0.530799 -0.021324
vt 0.488127 0.499583
v -5545.264160 798.028687 -2681.640869
vn -0.721610 -0.619245 0.309540
vt -0.008123 0.499583
v -5675.014648 1003.621704 -3374.139160
vn -0.861984 -0.501803 0.071952
vt 0.991876 0.499583
v -5848.949707 1261.948853 -3243.458252
vn -0.279091 -0.949404 -0.144013
vt 1.000000 0.003334
v -5540.184082 664.433228 -3508.464111
vn -0.682906 -0.696374 -0.220686
vt 0.991877 1.003333
v -5501.295898 603.249390 -3071.092285
vn -0.924571 -0.366167 0.105311
vt 0.488127 1.003333
v -5386.761719 576.073120 -2665.676270
vn -0.713679 -0.491546 0.499043
vt -0.008123 1.003333
v -5971.802246 588.858643 -5263.702637
vn -0.468789 -0.504122 0.725326
vt 0.492293 1.000000
v -6064.274414 818.385193 -5004.859863
vn -0.391206 -0.804209 0.447444
vt 0.492293 0.503750
v -6243.501953 796.325623 -5152.406738
vn -0.216312 -0.785445 0.579901
vt 0.988543 0.503750
v -5906.839844 819.193542 -4840.292969
vn -0.535241 -0.789399 0.300610
vt -0.011457 0.503750
v -5765.994141 575.195496 -5124.559082
vn -0.834625 -0.389271 0.389703
vt -0.011457 1.000000
v -6110.046387 985.282166 -4529.750977
vn -0.257466 -0.927949 0.269485
vt -0.011457 0.000000
v -6188.994141 993.662781 -4723.686523
vn -0.369964 -0.904644 0.211534
vt 0.492293 0.000000
v -6271.144043 986.867615 -4912.094238
vn -0.176485 -0.925083 0.336267
vt 0.988543 0.000000
v -5765.994141 575.195496 -5124.559082
vn -0.834625 -0.389271 0.389703
vt 0.988543 1.000000
v -5792.536133 511.730652 -4650.954590
vn -0.950058 -0.311079 -0.024899
vt 0.492293 1.000000
v -5917.974121 857.955017 -4442.347168
vn -0.868334 -0.492207 0.061056
vt 0.492293 0.503750
v -5906.839844 819.193542 -4840.292969
vn -0.535241 -0.789399 0.300610
vt 0.988543 0.503750
v -5923.248535 908.399353 -4050.035889
vn -0.853712 -0.462350 0.239601
vt -0.011457 0.503750
v -5804.449219 472.484558 -4188.867676
vn -0.705003 -0.490698 0.512041
vt -0.011457 1.000000
v -6079.283691 1258.366089 -3855.825439
vn -0.273524 -0.925642 0.261479
vt -0.003333 -0.000000
v -6093.211426 1122.251099 -4192.912598
vn -0.208403 -0.924965 0.317819
vt 0.500417 0.000000
v -6110.046387 985.282166 -4529.750977
vn -0.257466 -0.927949 0.269485
vt 0.996667 0.000000
v -5804.449219 472.484558 -4188.867676
vn -0.705003 -0.490698 0.512041
vt 0.988543 1.000000
v -5650.683594 689.053406 -3891.089844
vn -0.490345 -0.752854 0.439059
vt 0.492293 1.000000
v -5785.415527 1030.784058 -3733.355225
vn -0.726345 -0.565761 0.390304
vt 0.492293 0.503750
v -5923.248535 908.399353 -4050.035889
vn -0.853712 -0.462350 0.239601
vt 0.988543 0.503750
v -5675.014648 1003.621704 -3374.139160
vn -0.861984 -0.501803 0.071952
vt -0.011457 0.503750
v -5540.184082 664.433228 -3508.464111
vn -0.682906 -0.696374 -0.220686
vt -0.011457 1.000000
v -5848.949707 1261.948853 -3243.458252
vn -0.279091 -0.949404 -0.144013
vt -0.003333 -0.000000
v -5958.316895 1289.109985 -3549.752686
vn -0.173110 -0.976057 0.131701
vt 0.500417 0.000000
v -6079.283691 1258.366089 -3855.825439
vn -0.273524 -0.925642 0.261479
vt 0.996667 0.000000
v -6412.482422 989.958191 -4281.978516
vn 0.541938 -0.840006 0.026312
vt 0.996667 1.000000
v -6291.244629 1100.194702 -4113.821289
vn 0.430933 -0.871630 0.233578
vt 0.500417 0.503750
v -6468.759277 970.944763 -4017.588135
vn 0.703001 -0.705832 0.087122
vt 0.500417 1.000000
v -6313.578125 1165.384644 -3818.345703
vn 0.566888 -0.823794 -0.000906
vt -0.003333 0.503750
v -6514.056152 935.455933 -3755.466797
vn 0.692162 -0.697904 -0.183961
vt -0.003333 1.000000
v -6514.056152 935.455933 -3755.466797
vn 0.692162 -0.697904 -0.183961
vt 0.996667 1.000000
v -6313.578125 1165.384644 -3818.345703
vn 0.566888 -0.823794 -0.000906
vt 0.996667 0.503750
v -6178.320313 1169.450073 -3485.074707
vn 0.566499 -0.783924 -0.254049
vt 0.500417 0.503750
v -6370.966797 933.201294 -3426.905518
vn 0.671312 -0.681400 -0.291605
vt 0.500417 1.000000
v -6050.884766 1146.615356 -3151.175537
vn 0.490417 -0.804603 -0.334821
vt -0.003333 0.503750
v -6231.921387 935.050903 -3097.309570
vn 0.671021 -0.718491 -0.183034
vt -0.003333 1.000000
v -5964.604004 1013.404907 -2671.933105
vn 0.143680 -0.989579 -0.009410
vt 0.000000 0.499583
v -6007.287598 1074.254517 -2911.072021
vn 0.300585 -0.906281 -0.297159
vt 0.496250 0.499583
v -6201.199219 938.922974 -2871.635010
vn 0.574976 -0.817090 -0.042040
vt 0.496250 1.003333
v -6185.075684 962.266235 -2645.167236
vn 0.501846 -0.849180 0.164453
vt 0.000000 1.003333
v -6231.921387 935.050903 -3097.309570
vn 0.671021 -0.718491 -0.183034
vt 1.000000 1.003333
v -6050.884766 1146.615356 -3151.175537
vn 0.490417 -0.804603 -0.334821
vt 1.000000 0.499584
f 91/91/91 95/95/95 94/94/94
f 92/92/92 94/94/94 96/96/96
f 94/94/94 92/92/92 91/91/91
f 90/90/90 91/91/91 92/92/92
f 109/109/109 107/107/107 108/108/108
f 106/106/106 108/108/108 107/107/107
f 108/108/108 106/106/106 96/96/96
f 97/97/97 96/96/96 106/106/106
f 96/96/96 97/97/97 92/92/92
f 93/93/93 92/92/92 97/97/97
f 92/92/92 93/93/93 90/90/90
f 97/97/97 98/98/98 93/93/93
f 98/98/98 97/97/97 105/105/105
f 106/106/106 105/105/105 97/97/97
f 105/105/105 106/106/106 104/104/104
f 107/107/107 104/104/104 106/106/106
f 99/99/99 62/62/62 100/100/100
f 88/88/88 100/100/100 62/62/62
f 100/100/100 88/88/88 87/87/87
f 83/83/83 87/87/87 88/88/88
f 87/87/87 83/83/83 85/85/85
f 82/82/82 85/85/85 83/83/83
f 85/85/85 82/82/82 86/86/86
f 62/62/62 89/89/89 88/88/88
f 87/87/87 102/102/102 100/100/100
f 83/83/83 81/81/81 82/82/82
f 81/81/81 83/83/83 84/84/84
f 88/88/88 84/84/84 83/83/83
f 84/84/84 88/88/88 89/89/89
f 99/99/99 100/100/100 101/101/101
f 102/102/102 101/101/101 100/100/100
f 101/101/101 102/102/102 103/103/103
f 61/61/61 62/62/62 33/33/33
f 19/19/19 16/16/16 18/18/18
f 17/17/17 18/18/18 16/16/16
f 18/18/18 17/17/17 20/20/20
f 21/21/21 20/20/20 17/17/17
f 20/20/20 21/21/21 61/61/61
f 60/60/60 61/61/61 21/21/21
f 61/61/61 60/60/60 62/62/62
f 63/63/63 62/62/62 60/60/60
f 25/25/25 61/61/61 33/33/33
f 61/61/61 25/25/25 20/20/20
f 1/1/1 20/20/20 25/25/25
f 20/20/20 1/1/1 18/18/18
f 22/22/22 18/18/18 1/1/1
f 18/18/18 22/22/22 19/19/19
f 23/23/23 19/19/19 22/22/22
f 29/29/29 28/28/28 25/25/25
f 26/26/26 25/25/25 28/28/28
f 25/25/25 26/26/26 24/24/24
f 27/27/27 24/24/24 26/26/26
f 32/32/32 27/27/27 31/31/31
f 26/26/26 31/31/31 27/27/27
f 31/31/31 26/26/26 30/30/30
f 28/28/28 30/30/30 26/26/26
f 1/1/1 2/2/2 3/3/3
f 5/5/5 3/3/3 2/2/2
f 3/3/3 5/5/5 6/6/6
f 4/4/4 5/5/5 2/2/2
f 115/115/115 69/69/69 65/65/65
f 68/68/68 65/65/65 69/69/69
f 65/65/65 68/68/68 66/66/66
f 70/70/70 66/66/66 68/68/68
f 66/66/66 70/70/70 71/71/71
f 67/67/67 71/71/71 72/72/72
f 71/71/71 67/67/67 66/66/66
f 64/64/64 66/66/66 67/67/67
f 66/66/66 64/64/64 65/65/65
f 111/111/111 65/65/65 64/64/64
f 65/65/65 111/111/111 115/115/115
f 114/114/114 115/115/115 111/111/111
f 64/64/64 110/110/110 111/111/111
f 112/112/112 111/111/111 110/110/110
f 111/111/111 112/112/112 114/114/114
f 110/110/110 113/113/113 112/112/112
f 10/10/10 14/14/14 15/15/15
f 14/14/14 10/10/10 9/9/9
f 7/7/7 9/9/9 10/10/10
f 9/9/9 7/7/7 8/8/8
f 9/9/9 13/13/13 14/14/14
f 13/13/13 9/9/9 11/11/11
f 8/8/8 11/11/11 9/9/9
f 11/11/11 8/8/8 12/12/12
f 38/38/38 37/37/37 34/34/34
f 35/35/35 34/34/34 37/37/37
f 34/34/34 35/35/35 33/33/33
f 36/36/36 33/33/33 35/35/35
f 41/41/41 36/36/36 40/40/40
f 35/35/35 40/40/40 36/36/36
f 40/40/40 35/35/35 39/39/39
f 37/37/37 39/39/39 35/35/35
f 47/47/47 46/46/46 43/43/43
f 44/44/44 43/43/43 46/46/46
f 43/43/43 44/44/44 42/42/42
f 45/45/45 42/42/42 44/44/44
f 50/50/50 45/45/45 49/49/49
f 44/44/44 49/49/49 45/45/45
f 49/49/49 44/44/44 48/48/48
f 46/46/46 48/48/48 44/44/44
f 56/56/56 55/55/55 52/52/52
f 53/53/53 52/52/52 55/55/55
f 52/52/52 53/53/53 51/51/51
f 54/54/54 51/51/51 53/53/53
f 59/59/59 54/54/54 58/58/58
f 53/53/53 58/58/58 54/54/54
f 58/58/58 53/53/53 57/57/57
f 55/55/55 57/57/57 53/53/53
f 77/77/77 76/76/76 73/73/73
f 74/74/74 73/73/73 76/76/76
f 73/73/73 74/74/74 16/16/16
f 75/75/75 16/16/16 74/74/74
f 80/80/80 75/75/75 79/79/79
f 74/74/74 79/79/79 75/75/75
f 79/79/79 74/74/74 78/78/78
f 76/76/76 78/78/78 74/74/74
