mtllib SWORDLIGHT20_JAILCEILBRACKET18.mtl
g ilCeilBracket18
usemtl BoardB
v -7429.537109 -1194.689453 2346.175293
vn -0.352409 0.894427 0.275332
vt 0.228076 0.999501
v -6983.474609 -1194.689453 2917.109131
vn -0.556484 0.707140 0.436209
vt 0.228076 0.500000
v -6959.840332 -1194.689453 2898.644043
vn 0.557922 0.707083 -0.434462
vt -0.004227 0.500000
v -7405.902832 -1194.689453 2327.710205
vn 0.704818 0.447214 -0.550664
vt -0.004226 0.999501
v -6542.686035 -1195.827026 3479.431396
vn -0.703449 0.447336 0.552314
vt 0.228076 0.000499
v -6520.851074 -1195.835327 3462.372070
vn 0.353840 0.894353 -0.273733
vt -0.004228 0.000499
v -7429.537109 -1224.681885 2346.175293
vn -0.557206 -0.707109 0.435337
vt 0.478075 0.999501
v -7405.902832 -1224.681885 2327.710205
vn 0.557208 -0.707107 -0.435338
vt 0.728076 0.999501
v -6959.840332 -1224.681763 2898.644043
vn 0.557673 -0.707105 -0.434745
vt 0.728076 0.500000
v -6983.474609 -1224.682007 2917.108887
vn -0.556286 -0.707097 0.436531
vt 0.478076 0.500000
v -6520.854004 -1223.538452 3462.377686
vn 0.558584 -0.707122 -0.433547
vt 0.728076 0.000499
v -6542.691895 -1223.541260 3479.432617
vn -0.555844 -0.707070 0.437138
vt 0.478077 0.000499
v -7405.902832 -1194.689453 2327.710205
vn 0.704818 0.447214 -0.550664
vt 0.995774 0.999501
v -6959.840332 -1194.689453 2898.644043
vn 0.557922 0.707083 -0.434462
vt 0.995773 0.500000
v -6520.851074 -1195.835327 3462.372070
vn 0.353840 0.894353 -0.273733
vt 0.995772 0.000499
v -7297.986328 -901.851501 2513.288818
vn -0.078361 0.775448 0.626530
vt 0.228076 0.500000
v -6980.327148 -1193.178345 2913.618652
vn -0.567121 0.383252 0.729035
vt 0.228076 0.000499
v -6963.968750 -1193.198364 2900.824219
vn 0.626763 0.775530 0.075642
vt -0.004228 0.000499
v -7275.573730 -901.831238 2495.792725
vn 0.844309 0.385199 -0.372511
vt -0.004227 0.500000
v -7309.817871 -926.331909 2498.089111
vn -0.768961 -0.618393 0.162140
vt 0.478076 0.500000
v -7287.455078 -926.326538 2480.623535
vn 0.344120 -0.617617 -0.707199
vt 0.728076 0.500000
v -6984.080566 -1208.722656 2874.868652
vn 0.344251 -0.617558 -0.707187
vt 0.728076 0.000499
v -7000.515625 -1208.708862 2887.722168
vn -0.768685 -0.618849 0.161709
vt 0.478077 0.000499
v -7275.573730 -901.831238 2495.792725
vn 0.844309 0.385199 -0.372511
vt 0.995773 0.500000
v -6963.968750 -1193.198364 2900.824219
vn 0.626763 0.775530 0.075642
vt 0.995772 0.000499
v -7167.389648 -1196.941284 2681.203369
vn -0.894796 -0.137454 -0.424791
vt 0.228076 0.500000
v -7181.270996 -1043.526733 2660.997803
vn -0.977241 -0.061411 0.203049
vt 0.228076 0.000499
v -7160.397949 -1043.520386 2644.749268
vn -0.187044 -0.136250 -0.972857
vt -0.004228 0.000499
v -7143.859375 -1196.895508 2663.145264
vn 0.437902 -0.060938 -0.896955
vt -0.004227 0.500000
v -7147.086426 -1195.425293 2707.196777
vn -0.127346 0.126132 0.983806
vt 0.478076 0.500000
v -7123.928223 -1195.413818 2689.055176
vn 0.985128 0.126052 0.116768
vt 0.728076 0.500000
v -7138.896973 -1062.632568 2672.003662
vn 0.985182 0.126532 0.115789
vt 0.728076 0.000499
v -7159.979004 -1062.632813 2688.459961
vn -0.127065 0.126477 0.983798
vt 0.478077 0.000499
v -7143.859375 -1196.895508 2663.145264
vn 0.437902 -0.060938 -0.896955
vt 0.995773 0.500000
v -7160.397949 -1043.520386 2644.749268
vn -0.187044 -0.136250 -0.972857
vt 0.995772 0.000499
v -6648.418457 -901.851440 3298.509766
vn 0.078366 0.775446 -0.626532
vt 0.228076 0.500000
v -6966.076660 -1193.178589 2898.179688
vn 0.567129 0.383242 -0.729034
vt 0.228076 0.000499
v -6982.436035 -1193.198364 2910.974609
vn -0.626760 0.775532 -0.075646
vt -0.004228 0.000499
v -6670.831055 -901.831116 3316.006104
vn -0.844309 0.385199 0.372511
vt -0.004227 0.500000
v -6636.586914 -926.331787 3313.709717
vn 0.768959 -0.618397 -0.162135
vt 0.478076 0.500000
v -6658.949707 -926.326416 3331.175049
vn -0.344121 -0.617616 0.707200
vt 0.728076 0.500000
v -6962.324219 -1208.722534 2936.929932
vn -0.344251 -0.617558 0.707187
vt 0.728076 0.000499
v -6945.889160 -1208.708740 2924.076416
vn 0.768680 -0.618857 -0.161700
vt 0.478077 0.000499
v -6670.831055 -901.831116 3316.006104
vn -0.844309 0.385199 0.372511
vt 0.995773 0.500000
v -6982.436035 -1193.198364 2910.974609
vn -0.626760 0.775532 -0.075646
vt 0.995772 0.000499
v -6763.282715 -1195.472046 3150.332031
vn 0.902538 0.005381 0.430577
vt 0.228076 0.500000
v -6764.325684 -1043.390869 3150.709961
vn 0.980561 0.007818 -0.196059
vt 0.228076 0.000499
v -6786.278320 -1043.383911 3167.803223
vn 0.198670 0.005045 0.980053
vt -0.004228 0.000499
v -6786.750000 -1195.454468 3168.724854
vn -0.428383 0.006560 0.903574
vt -0.004227 0.500000
v -6781.576172 -1195.359741 3126.636475
vn 0.124388 -0.000547 -0.992234
vt 0.478076 0.500000
v -6805.342285 -1195.351807 3144.923584
vn -0.992085 -0.001237 -0.125562
vt 0.728076 0.500000
v -6805.352539 -1061.452881 3143.686523
vn -0.992450 -0.001762 -0.122639
vt 0.728076 0.000499
v -6783.226074 -1061.474976 3126.329102
vn 0.120358 -0.000797 -0.992730
vt 0.478077 0.000499
v -6786.750000 -1195.454468 3168.724854
vn -0.428383 0.006560 0.903574
vt 0.995773 0.500000
v -6786.278320 -1043.383911 3167.803223
vn 0.198670 0.005045 0.980053
vt 0.995772 0.000499
v -6702.291504 -1196.002197 3229.133789
vn 0.888695 -0.206475 0.409378
vt 0.228076 0.500000
v -6667.545898 -953.158508 3276.281006
vn 0.972614 -0.098043 -0.210738
vt 0.228076 0.000499
v -6687.824219 -953.152161 3292.092041
vn 0.182824 -0.206688 0.961174
vt -0.004228 0.000499
v -6725.042969 -1196.018799 3246.990723
vn -0.438330 -0.098491 0.893401
vt -0.004227 0.500000
v -6722.077637 -1196.387329 3203.895020
vn 0.131515 0.168203 -0.976940
vt 0.478076 0.500000
v -6744.816406 -1196.385376 3221.685303
vn -0.980057 0.167782 -0.106477
vt 0.728076 0.500000
v -6711.426758 -975.814636 3261.923340
vn -0.979946 0.167783 -0.107491
vt 0.728076 0.000499
v -6691.151367 -975.803406 3246.077881
vn 0.130747 0.168502 -0.976991
vt 0.478077 0.000499
v -6725.042969 -1196.018799 3246.990723
vn -0.438330 -0.098491 0.893401
vt 0.995773 0.500000
v -6687.824219 -953.152161 3292.092041
vn 0.182824 -0.206688 0.961174
vt 0.995772 0.000499
v -6950.340332 -1194.623413 2910.819336
vn 0.902936 -0.004641 0.429749
vt 0.228076 0.500000
v -6948.856445 -728.048218 2912.722656
vn 0.980183 -0.002311 -0.198081
vt 0.228076 0.000499
v -6972.472656 -728.048401 2931.172363
vn 0.198058 -0.004623 0.980179
vt -0.004228 0.000499
v -6973.985840 -1194.623291 2929.269287
vn -0.429566 -0.002313 0.903033
vt -0.004227 0.500000
v -6973.282227 -1194.588989 2881.443604
vn 0.121920 0.000311 -0.992540
vt 0.478076 0.500000
v -6996.912598 -1194.588989 2899.908936
vn -0.992536 0.000308 -0.121951
vt 0.728076 0.500000
v -6996.788086 -728.022095 2900.072510
vn -0.992557 0.000323 -0.121784
vt 0.728076 0.000499
v -6973.156738 -728.021912 2881.603760
vn 0.121919 0.000308 -0.992540
vt 0.478077 0.000499
v -6973.985840 -1194.623291 2929.269287
vn -0.429566 -0.002313 0.903033
vt 0.995773 0.500000
v -6972.472656 -728.048401 2931.172363
vn 0.198058 -0.004623 0.980179
vt 0.995772 0.000499
f 44/44/44 45/45/45 42/42/42
f 42/42/42 41/41/41 44/44/44
f 41/41/41 42/42/42 40/40/40
f 43/43/43 40/40/40 42/42/42
f 40/40/40 43/43/43 37/37/37
f 40/40/40 37/37/37 36/36/36
f 38/38/38 36/36/36 37/37/37
f 36/36/36 38/38/38 39/39/39
f 1/1/1 3/3/3 4/4/4
f 3/3/3 1/1/1 2/2/2
f 7/7/7 2/2/2 1/1/1
f 2/2/2 7/7/7 10/10/10
f 9/9/9 10/10/10 7/7/7
f 10/10/10 9/9/9 11/11/11
f 14/14/14 11/11/11 9/9/9
f 11/11/11 14/14/14 15/15/15
f 9/9/9 13/13/13 14/14/14
f 13/13/13 9/9/9 8/8/8
f 7/7/7 8/8/8 9/9/9
f 2/2/2 6/6/6 3/3/3
f 6/6/6 2/2/2 5/5/5
f 10/10/10 5/5/5 2/2/2
f 5/5/5 10/10/10 12/12/12
f 11/11/11 12/12/12 10/10/10
f 22/22/22 23/23/23 20/20/20
f 17/17/17 20/20/20 23/23/23
f 20/20/20 17/17/17 16/16/16
f 18/18/18 16/16/16 17/17/17
f 16/16/16 18/18/18 19/19/19
f 20/20/20 21/21/21 22/22/22
f 24/24/24 22/22/22 21/21/21
f 22/22/22 24/24/24 25/25/25
f 32/32/32 33/33/33 30/30/30
f 27/27/27 30/30/30 33/33/33
f 30/30/30 27/27/27 26/26/26
f 28/28/28 26/26/26 27/27/27
f 26/26/26 28/28/28 29/29/29
f 30/30/30 31/31/31 32/32/32
f 34/34/34 32/32/32 31/31/31
f 32/32/32 34/34/34 35/35/35
f 52/52/52 53/53/53 50/50/50
f 47/47/47 50/50/50 53/53/53
f 50/50/50 47/47/47 46/46/46
f 48/48/48 46/46/46 47/47/47
f 46/46/46 48/48/48 49/49/49
f 50/50/50 51/51/51 52/52/52
f 54/54/54 52/52/52 51/51/51
f 52/52/52 54/54/54 55/55/55
f 62/62/62 63/63/63 60/60/60
f 57/57/57 60/60/60 63/63/63
f 60/60/60 57/57/57 56/56/56
f 58/58/58 56/56/56 57/57/57
f 56/56/56 58/58/58 59/59/59
f 60/60/60 61/61/61 62/62/62
f 64/64/64 62/62/62 61/61/61
f 62/62/62 64/64/64 65/65/65
f 72/72/72 73/73/73 70/70/70
f 67/67/67 70/70/70 73/73/73
f 70/70/70 67/67/67 66/66/66
f 68/68/68 66/66/66 67/67/67
f 66/66/66 68/68/68 69/69/69
f 70/70/70 71/71/71 72/72/72
f 74/74/74 72/72/72 71/71/71
f 72/72/72 74/74/74 75/75/75
