mtllib SWORDLIGHT20_PS-AREA05-RANGE01_05.mtl
g ea05-Range01_05
usemtl Lvl_Riddles_Range1N
v 10774.840820 819.709717 3928.968506
vn -0.766077 -0.113810 -0.632593
vt 0.994555 0.005445
v 11512.494141 1219.025024 2968.270752
vn -0.854813 -0.152126 -0.496137
vt 0.500000 0.005445
v 11722.071289 355.893188 2865.308105
vn -0.840308 -0.111321 -0.530556
vt 0.500000 0.500000
v 10954.323242 99.745583 3844.852783
vn -0.774742 -0.085036 -0.626533
vt 0.994555 0.500000
v 12223.364258 570.931396 1731.937256
vn -0.934324 -0.157285 -0.319843
vt 0.005445 0.500000
v 11973.569336 1552.062012 1847.382446
vn -0.933174 -0.220221 -0.284056
vt 0.005445 0.005445
v 12380.272461 -431.706421 1649.019653
vn -0.942953 -0.082281 -0.322599
vt 0.005445 0.994555
v 11854.809570 -525.232544 2790.010254
vn -0.848482 -0.055694 -0.526285
vt 0.500000 0.994555
v 11073.016602 -634.697937 3783.538330
vn -0.781971 -0.045934 -0.621621
vt 0.994555 0.994555
f 6/6/6 5/5/5 2/2/2
f 3/3/3 2/2/2 5/5/5
f 2/2/2 3/3/3 1/1/1
f 4/4/4 1/1/1 3/3/3
f 9/9/9 4/4/4 8/8/8
f 3/3/3 8/8/8 4/4/4
f 8/8/8 3/3/3 7/7/7
f 5/5/5 7/7/7 3/3/3
