mtllib SWORDLIGHT20_JAILPLATSUPPORT76.mtl
g ilPlatsupport76
usemtl BoardC
v -7803.948730 -2001.550415 1043.036499
vn 0.977911 0.000000 0.209022
vt 0.250000 0.873425
v -7813.963867 -2001.550293 1004.310608
vn 0.209022 0.000000 -0.977911
vt 0.500000 0.873425
v -7813.963867 -1672.952759 1004.310608
vn 0.753964 0.000000 -0.656915
vt 0.500000 0.000499
v -7803.948730 -1672.952759 1043.036499
vn 0.656915 0.000000 0.753964
vt 0.250000 0.000499
v -7852.689941 -2001.550293 1014.325806
vn -0.977911 0.000000 -0.209022
vt 0.750000 0.873425
v -7852.689941 -1672.952759 1014.325806
vn -0.656915 0.000000 -0.753964
vt 0.750000 0.000499
v -7842.674805 -2001.550415 1053.051758
vn -0.209022 0.000000 0.977911
vt 1.000000 0.873425
v -7842.674805 -1672.952759 1053.051758
vn -0.753964 0.000000 0.656915
vt 1.000000 0.000499
v -7842.674805 -2001.550415 1053.051758
vn -0.209022 0.000000 0.977911
vt -0.000000 0.873425
v -7842.674805 -1672.952759 1053.051758
vn -0.753964 0.000000 0.656915
vt -0.000000 0.000499
v -7742.645508 -1671.446899 992.261230
vn 0.487913 -0.636952 -0.596852
vt 0.250000 0.873425
v -7736.291992 -1671.417603 1015.061279
vn 0.553363 -0.301159 0.776590
vt 0.500000 0.873425
v -7809.428711 -1747.854614 1036.846191
vn 0.733741 -0.628503 0.258087
vt 0.500000 0.000499
v -7815.781738 -1747.883667 1014.046204
vn 0.051522 -0.325259 -0.944220
vt 0.250000 0.000499
v -7769.372559 -1671.453979 1024.235352
vn -0.483374 0.643623 0.593380
vt 0.750000 0.873425
v -7809.661133 -1713.397583 1036.910767
vn -0.056603 0.332032 0.941568
vt 0.750000 0.000499
v -7775.726074 -1671.483276 1001.435303
vn -0.556286 0.308053 -0.771783
vt 1.000000 0.873425
v -7816.014648 -1713.426758 1014.110779
vn -0.734660 0.628392 -0.255730
vt 1.000000 0.000499
v -7775.726074 -1671.483276 1001.435303
vn -0.556286 0.308053 -0.771783
vt -0.000000 0.873425
v -7816.014648 -1713.426758 1014.110779
vn -0.734660 0.628392 -0.255730
vt -0.000000 0.000499
v -7798.449707 -1671.447021 1117.959473
vn 0.565952 -0.636953 0.523440
vt 0.250000 0.873425
v -7821.594727 -1671.417847 1122.909058
vn -0.808924 -0.301160 0.504921
vt 0.500000 0.873425
v -7838.874023 -1747.854614 1048.578979
vn -0.302399 -0.628503 0.716616
vt 0.500000 0.000499
v -7815.729004 -1747.883789 1043.629517
vn 0.939314 -0.325259 0.109069
vt 0.250000 0.000499
v -7828.732422 -1671.454224 1089.330078
vn -0.562764 0.643623 -0.518696
vt 0.750000 0.873425
v -7838.924316 -1713.397705 1048.342651
vn -0.936356 0.332032 -0.113979
vt 0.750000 0.000499
v -7805.586914 -1671.483398 1084.380493
vn 0.804304 0.308054 -0.508132
vt 1.000000 0.873425
v -7815.779297 -1713.426880 1043.393188
vn 0.300103 0.628393 -0.717677
vt 1.000000 0.000499
v -7805.586914 -1671.483398 1084.380493
vn 0.804304 0.308054 -0.508132
vt -0.000000 0.873425
v -7815.779297 -1713.426880 1043.393188
vn 0.300103 0.628393 -0.717677
vt -0.000000 0.000499
f 7/7/7 8/8/8 5/5/5
f 6/6/6 5/5/5 8/8/8
f 5/5/5 6/6/6 2/2/2
f 3/3/3 2/2/2 6/6/6
f 2/2/2 3/3/3 1/1/1
f 4/4/4 1/1/1 3/3/3
f 1/1/1 4/4/4 9/9/9
f 10/10/10 9/9/9 4/4/4
f 17/17/17 18/18/18 15/15/15
f 16/16/16 15/15/15 18/18/18
f 15/15/15 16/16/16 12/12/12
f 13/13/13 12/12/12 16/16/16
f 12/12/12 13/13/13 11/11/11
f 14/14/14 11/11/11 13/13/13
f 11/11/11 14/14/14 19/19/19
f 20/20/20 19/19/19 14/14/14
f 27/27/27 28/28/28 25/25/25
f 26/26/26 25/25/25 28/28/28
f 25/25/25 26/26/26 22/22/22
f 23/23/23 22/22/22 26/26/26
f 22/22/22 23/23/23 21/21/21
f 24/24/24 21/21/21 23/23/23
f 21/21/21 24/24/24 29/29/29
f 30/30/30 29/29/29 24/24/24
