mtllib SWORDLIGHT20_MAINCAVERNCLOUDS10.mtl
g nCavernClouds10
usemtl CloudsD
v -3723.349121 -4052.645264 -1989.218506
vn 0.000000 1.000000 0.000000
vt 0.750000 0.333333
v -3723.349365 -4052.645264 -3452.562744
vn 0.000000 1.000000 0.000000
vt 0.750000 0.500000
v -5338.252441 -4052.645264 -1989.218384
vn 0.000000 1.000000 0.000000
vt 1.000000 0.333333
v -5338.252930 -4052.645264 -3452.562744
vn 0.000000 1.000000 0.000000
vt 1.000000 0.500000
f 1/1/1 2/2/2 3/3/3
f 4/4/4 3/3/3 2/2/2
usemtl CloudsC
v -3723.349121 -4007.174561 -1989.218506
vn 0.000000 1.000000 0.000000
vt 0.750000 0.333333
v -3723.349365 -4007.174561 -3452.562744
vn 0.000000 1.000000 0.000000
vt 0.750000 0.500000
v -5338.252441 -4007.174561 -1989.218384
vn 0.000000 1.000000 0.000000
vt 1.000000 0.333333
v -5338.252930 -4007.174561 -3452.562744
vn 0.000000 1.000000 0.000000
vt 1.000000 0.500000
f 5/5/5 6/6/6 7/7/7
f 8/8/8 7/7/7 6/6/6
usemtl CloudsB
v -3723.349121 -3951.416992 -1989.218506
vn 0.000000 1.000000 0.000000
vt 0.750000 0.333333
v -3723.349365 -3951.416992 -3452.562744
vn 0.000000 1.000000 0.000000
vt 0.750000 0.500000
v -5338.252441 -3951.416992 -1989.218384
vn 0.000000 1.000000 0.000000
vt 1.000000 0.333333
v -5338.252930 -3951.416992 -3452.562744
vn 0.000000 1.000000 0.000000
vt 1.000000 0.500000
f 9/9/9 10/10/10 11/11/11
f 12/12/12 11/11/11 10/10/10
usemtl CloudsA
v -3723.349121 -3902.081055 -1989.218506
vn 0.000000 1.000000 0.000000
vt 0.750000 0.333333
v -3723.349365 -3902.081055 -3452.562744
vn 0.000000 1.000000 0.000000
vt 0.750000 0.500000
v -5338.252441 -3902.081055 -1989.218384
vn 0.000000 1.000000 0.000000
vt 1.000000 0.333333
v -5338.252930 -3902.081055 -3452.562744
vn 0.000000 1.000000 0.000000
vt 1.000000 0.500000
f 13/13/13 14/14/14 15/15/15
f 16/16/16 15/15/15 14/14/14
