mtllib SWORDLIGHT20_MAINCAVERNCLOUDS15.mtl
g nCavernClouds15
usemtl CloudsD
v -493.542847 -4052.645264 -4915.907715
vn 0.000000 1.000000 0.000000
vt 0.250000 0.666667
v -493.542969 -4052.645020 -6379.251953
vn 0.000000 1.000000 0.000000
vt 0.250000 0.833333
v -2108.446289 -4052.645264 -4915.907227
vn 0.000000 1.000000 0.000000
vt 0.500000 0.666667
v -2108.446289 -4052.645020 -6379.251953
vn 0.000000 1.000000 0.000000
vt 0.500000 0.833333
f 1/1/1 2/2/2 3/3/3
f 4/4/4 3/3/3 2/2/2
usemtl CloudsC
v -493.542847 -4007.174561 -4915.907715
vn 0.000000 1.000000 0.000000
vt 0.250000 0.666667
v -493.542969 -4007.174316 -6379.251953
vn 0.000000 1.000000 0.000000
vt 0.250000 0.833333
v -2108.446289 -4007.174561 -4915.907227
vn 0.000000 1.000000 0.000000
vt 0.500000 0.666667
v -2108.446289 -4007.174316 -6379.251465
vn 0.000000 1.000000 0.000000
vt 0.500000 0.833333
f 5/5/5 6/6/6 7/7/7
f 8/8/8 7/7/7 6/6/6
usemtl CloudsB
v -493.542847 -3951.416992 -4915.907715
vn 0.000000 1.000000 0.000000
vt 0.250000 0.666667
v -493.542969 -3951.416748 -6379.251953
vn 0.000000 1.000000 0.000000
vt 0.250000 0.833333
v -2108.446289 -3951.416992 -4915.907227
vn 0.000000 1.000000 0.000000
vt 0.500000 0.666667
v -2108.446289 -3951.416748 -6379.251465
vn 0.000000 1.000000 0.000000
vt 0.500000 0.833333
f 9/9/9 10/10/10 11/11/11
f 12/12/12 11/11/11 10/10/10
usemtl CloudsA
v -493.542847 -3902.081055 -4915.907715
vn 0.000000 1.000000 0.000000
vt 0.250000 0.666667
v -493.542969 -3902.080811 -6379.251953
vn 0.000000 1.000000 0.000000
vt 0.250000 0.833333
v -2108.446289 -3902.081055 -4915.907227
vn 0.000000 1.000000 0.000000
vt 0.500000 0.666667
v -2108.446289 -3902.080811 -6379.251465
vn 0.000000 1.000000 0.000000
vt 0.500000 0.833333
f 13/13/13 14/14/14 15/15/15
f 16/16/16 15/15/15 14/14/14
