mtllib SWORDLIGHT20_PS-AREA01_34.mtl
g PS-Area01_34
usemtl RockwallB
v 6515.672363 828.193176 3702.132324
vn -0.797313 0.017188 0.603322
vt -0.000000 0.003333
v 6232.754395 782.263977 3521.838379
vn -0.440355 0.077137 0.894504
vt 0.496250 0.003333
v 6239.081055 568.698059 3506.615479
vn -0.430246 0.025720 0.902345
vt 0.496250 0.499583
v 6536.636230 607.247864 3686.423584
vn -0.779591 0.089442 0.619870
vt -0.000000 0.499583
v 6515.672363 828.193176 3702.132324
vn -0.797313 0.017188 0.603322
vt 0.000000 1.000000
v 6536.636230 1049.138550 3686.423584
vn -0.803111 -0.035379 0.594778
vt -0.000000 0.503750
v 6273.912598 1039.950562 3486.277100
vn -0.474020 -0.016822 0.880353
vt 0.496250 0.503750
v 6232.754395 782.263977 3521.838379
vn -0.440355 0.077137 0.894504
vt 0.496250 1.000000
v 6222.733887 1259.229858 3533.037598
vn -0.266324 -0.708952 0.653038
vt 0.496250 0.000000
v 6515.672363 1256.386597 3702.132324
vn -0.670964 -0.495952 0.551215
vt -0.000000 0.000000
v 4773.938477 576.392639 3787.041016
vn 0.908687 0.056374 0.413654
vt 0.996667 0.503750
v 5015.062988 545.534729 3564.243896
vn 0.607663 0.008324 0.794152
vt 0.500416 0.503750
v 5030.632324 754.365784 3587.349609
vn 0.628308 0.014118 0.777836
vt 0.500416 0.000000
v 4793.448242 764.061096 3797.077148
vn 0.922214 0.023511 0.385964
vt 0.996667 0.000000
v 4793.448242 764.061096 3797.077148
vn 0.922214 0.023511 0.385964
vt 0.996667 1.000000
v 5030.632324 754.365784 3587.349609
vn 0.628308 0.014118 0.777836
vt 0.500416 1.000000
v 4989.257813 1022.095764 3562.186279
vn 0.634516 0.000060 0.772910
vt 0.500416 0.503750
v 4771.804688 1015.585022 3784.321777
vn 0.931941 -0.035301 0.360888
vt 0.996667 0.503750
v 5034.766602 1253.109253 3587.770020
vn 0.444999 -0.636154 0.630305
vt 0.500416 0.000000
v 4793.448242 1256.386597 3797.077148
vn 0.794492 -0.405264 0.452266
vt 0.996667 0.000000
v 5894.224121 551.827698 3386.848145
vn -0.205900 0.004578 0.978562
vt 1.000000 0.499583
v 6066.515137 660.256165 3453.825439
vn -0.317927 -0.029005 0.947671
vt 0.748125 0.251458
v 5901.397949 647.692932 3406.044922
vn -0.208757 -0.032254 0.977436
vt 1.000000 0.251458
v 6073.445313 769.521057 3452.759766
vn -0.356114 0.107849 0.928198
vt 0.748125 0.003333
v 5855.598633 741.696106 3384.744873
vn -0.430224 0.517659 0.739551
vt 1.000000 0.003333
v 5903.862793 388.234222 3454.391602
vn -0.174316 0.749908 0.638163
vt 1.000000 1.003333
v 6067.180176 391.148254 3499.856445
vn -0.226593 0.742686 0.630137
vt 0.748125 1.003333
v 6065.881348 468.750336 3453.428955
vn -0.315279 0.344349 0.884321
vt 0.748125 0.751458
v 5901.656738 464.551605 3405.942139
vn -0.213052 0.361597 0.907665
vt 1.000000 0.751458
v 6229.687500 394.469788 3564.350830
vn -0.328537 0.715080 0.617029
vt 0.496250 1.003333
v 6228.896484 473.798157 3521.038330
vn -0.425109 0.310156 0.850344
vt 0.497187 0.751458
v 6380.402832 486.738098 3603.855957
vn -0.547885 0.311997 0.776196
vt 0.248125 0.751458
v 6499.099121 498.511047 3701.540039
vn -0.714827 0.382630 0.585334
vt -0.000000 0.751458
v 6380.935547 407.657043 3643.347656
vn -0.500008 0.644308 0.578670
vt 0.248125 1.003333
v 6470.797363 437.433411 3712.820068
vn -0.658059 0.538630 0.526151
vt -0.000000 1.003333
v 5903.862793 388.234222 3454.391602
vn -0.174316 0.749908 0.638163
vt 0.000000 1.000000
v 5901.656738 464.551605 3405.942139
vn -0.213052 0.361597 0.907665
vt -0.000000 0.751875
v 5746.520020 454.158051 3383.492188
vn -0.104848 0.368196 0.923817
vt 0.248125 0.751875
v 5750.182129 376.269867 3432.484863
vn -0.114036 0.752421 0.648736
vt 0.248125 1.000000
v 5894.224121 551.827698 3386.848145
vn -0.205900 0.004578 0.978562
vt -0.000000 0.503750
v 5592.317383 533.343323 3365.220459
vn -0.009133 0.007585 0.999930
vt 0.496250 0.503750
v 5596.460449 445.432465 3378.081543
vn -0.014441 0.341646 0.939718
vt 0.497188 0.751875
v 5601.427246 365.075531 3427.754883
vn -0.031517 0.753188 0.657050
vt 0.496250 1.000000
v 5594.650879 738.365540 3386.469971
vn -0.002258 -0.083103 0.996538
vt 0.496250 0.000000
v 5593.958496 637.435608 3378.104004
vn -0.004652 -0.102688 0.994703
vt 0.497187 0.251875
v 5744.852051 640.453674 3383.507080
vn -0.053221 -0.065974 0.996401
vt 0.248125 0.251875
v 5746.434082 738.321594 3390.979980
vn 0.014809 -0.076365 0.996970
vt 0.248125 0.000000
v 5901.397949 647.692932 3406.044922
vn -0.208757 -0.032254 0.977436
vt -0.000000 0.251875
v 5855.598633 741.696106 3384.744873
vn -0.430224 0.517659 0.739551
vt -0.000000 0.000000
v 5336.102051 742.745667 3394.146973
vn 0.652740 0.492292 0.575829
vt 1.000000 0.000000
v 5301.183105 640.125549 3411.072754
vn 0.325022 -0.127261 0.937105
vt 1.000000 0.251875
v 5445.798340 637.536194 3381.728027
vn 0.082128 -0.100222 0.991570
vt 0.748125 0.251875
v 5446.434082 738.321594 3390.979980
vn 0.027609 -0.091552 0.995417
vt 0.748125 0.000000
v 5298.007324 540.158264 3379.731445
vn 0.315149 0.001687 0.949041
vt 1.000000 0.503750
v 5447.466309 446.238129 3381.712891
vn 0.098359 0.396670 0.912677
vt 0.748125 0.751875
v 5452.884277 364.470306 3433.820557
vn 0.086360 0.752904 0.652440
vt 0.748125 1.000000
v 5300.997559 450.100433 3410.074707
vn 0.291147 0.428465 0.855366
vt 1.000000 0.751875
v 5306.285156 368.028656 3463.483398
vn 0.222908 0.747261 0.626030
vt 1.000000 1.000000
v 5893.029297 1249.106812 3392.442871
vn -0.324328 -0.871266 0.368383
vt 1.000000 0.000000
v 5973.698242 1139.537964 3337.446289
vn -0.745765 -0.440793 0.499536
vt 1.000000 0.251875
v 6092.005371 1146.108765 3438.175049
vn -0.450571 -0.377750 0.808882
vt 0.748125 0.251875
v 6074.788574 1238.579956 3497.736816
vn -0.215259 -0.756660 0.617357
vt 0.748125 0.000000
v 5990.034180 1020.433899 3322.964600
vn -0.835864 0.003801 0.548924
vt 1.000000 0.503750
v 6107.951172 1028.064087 3423.303223
vn -0.507485 -0.021737 0.861386
vt 0.748125 0.502813
v 6094.510742 897.329163 3435.375244
vn -0.479666 0.233934 0.845693
vt 0.748125 0.751875
v 6073.445313 769.521057 3452.759766
vn -0.356114 0.107849 0.928198
vt 0.748125 1.000000
v 5971.743164 887.313293 3338.456787
vn -0.749303 0.426385 0.506697
vt 1.000000 0.751875
v 5855.598633 741.696106 3384.744873
vn -0.430224 0.517659 0.739551
vt 1.000000 1.000000
v 4835.683105 429.204651 3810.229980
vn 0.789864 0.515788 0.331781
vt 0.996667 1.000000
v 4904.952637 395.960510 3722.701416
vn 0.636612 0.638672 0.432231
vt 0.748541 1.000000
v 4900.861816 468.739563 3679.951172
vn 0.710284 0.321527 0.626192
vt 0.748541 0.751875
v 4810.586914 486.161926 3800.219238
vn 0.837055 0.412130 0.359843
vt 0.996667 0.751875
v 5028.216309 376.063538 3619.965576
vn 0.479753 0.703322 0.524572
vt 0.500416 1.000000
v 5023.859863 454.462708 3573.623047
vn 0.601130 0.293764 0.743199
vt 0.499479 0.751875
v 5298.007324 540.158264 3379.731445
vn 0.315149 0.001687 0.949041
vt -0.003333 0.503750
v 5158.517090 450.545746 3478.854492
vn 0.480119 0.361351 0.799319
vt 0.248542 0.751875
v 5300.997559 450.100433 3410.074707
vn 0.291147 0.428465 0.855366
vt -0.003333 0.751875
v 5163.361816 369.323059 3529.545654
vn 0.350414 0.730928 0.585623
vt 0.248542 1.000000
v 5306.285156 368.028656 3463.483398
vn 0.222908 0.747261 0.626030
vt -0.003333 1.000000
v 5336.102051 742.745667 3394.146973
vn 0.652740 0.492292 0.575829
vt -0.003333 0.000000
v 5157.555176 755.753479 3487.016602
vn 0.543429 0.061025 0.837234
vt 0.248542 0.000000
v 5160.925781 644.573303 3482.831055
vn 0.513422 -0.094932 0.852869
vt 0.248542 0.251875
v 5301.183105 640.125549 3411.072754
vn 0.325022 -0.127261 0.937105
vt -0.003333 0.251875
v 5223.120605 1023.414612 3382.551514
vn 0.762235 -0.001438 0.647299
vt 0.000500 0.500000
v 5125.594238 1019.166809 3470.017578
vn 0.615316 -0.008373 0.788236
vt 0.248542 0.502813
v 5138.662598 885.840637 3477.885742
vn 0.595023 0.169565 0.785618
vt 0.248542 0.751875
v 5239.161621 890.657532 3390.254883
vn 0.698775 0.285784 0.655775
vt 0.000499 0.749750
v 5157.555176 755.753479 3487.016602
vn 0.543429 0.061025 0.837234
vt 0.248542 1.000000
v 5336.102051 742.745667 3394.146973
vn 0.652740 0.492292 0.575829
vt 0.000499 0.999501
v 5295.865723 1248.963745 3428.645752
vn 0.431933 -0.804065 0.408551
vt 0.000500 0.000500
v 5159.911621 1240.019897 3530.266357
vn 0.360075 -0.686799 0.631391
vt 0.248542 0.000000
v 5139.696777 1140.064331 3477.990723
vn 0.572388 -0.303156 0.761885
vt 0.248542 0.251875
v 5237.641602 1141.523315 3390.734375
vn 0.729403 -0.347989 0.588960
vt 0.000500 0.250250
v 5276.107910 1140.975464 3322.939941
vn 0.892967 -0.333091 0.302756
vt 0.084229 0.230824
v 5320.268066 1222.508667 3335.131836
vn 0.648133 -0.708133 0.280127
vt 0.084184 0.001415
v 5264.745605 1032.836792 3317.176758
vn 0.933099 0.017064 0.359214
vt 0.084218 0.460233
v 5283.222168 909.888733 3321.125977
vn 0.922632 0.226927 0.311856
vt 0.084093 0.689642
v 5308.720215 807.656555 3321.527344
vn 0.973422 0.226994 -0.030375
vt 0.083912 0.919051
f 13/13/13 14/14/14 11/11/11
f 80/80/80 81/81/81 82/82/82
f 13/13/13 82/82/82 81/81/81
f 82/82/82 13/13/13 12/12/12
f 11/11/11 12/12/12 13/13/13
f 12/12/12 11/11/11 71/71/71
f 72/72/72 71/71/71 11/11/11
f 71/71/71 72/72/72 69/69/69
f 74/74/74 12/12/12 71/71/71
f 69/69/69 70/70/70 71/71/71
f 73/73/73 71/71/71 70/70/70
f 71/71/71 73/73/73 74/74/74
f 76/76/76 74/74/74 73/73/73
f 74/74/74 76/76/76 12/12/12
f 75/75/75 12/12/12 76/76/76
f 12/12/12 75/75/75 82/82/82
f 83/83/83 82/82/82 75/75/75
f 82/82/82 83/83/83 80/80/80
f 77/77/77 75/75/75 76/76/76
f 76/76/76 79/79/79 77/77/77
f 79/79/79 76/76/76 78/78/78
f 73/73/73 78/78/78 76/76/76
f 55/55/55 57/57/57 58/58/58
f 57/57/57 55/55/55 54/54/54
f 41/41/41 54/54/54 55/55/55
f 54/54/54 41/41/41 52/52/52
f 45/45/45 52/52/52 41/41/41
f 52/52/52 45/45/45 44/44/44
f 46/46/46 44/44/44 45/45/45
f 44/44/44 46/46/46 47/47/47
f 49/49/49 47/47/47 46/46/46
f 45/45/45 41/41/41 46/46/46
f 42/42/42 41/41/41 55/55/55
f 51/51/51 54/54/54 52/52/52
f 44/44/44 53/53/53 52/52/52
f 50/50/50 52/52/52 53/53/53
f 52/52/52 50/50/50 51/51/51
f 46/46/46 48/48/48 49/49/49
f 48/48/48 46/46/46 40/40/40
f 41/41/41 40/40/40 46/46/46
f 40/40/40 41/41/41 38/38/38
f 42/42/42 38/38/38 41/41/41
f 38/38/38 42/42/42 43/43/43
f 55/55/55 43/43/43 42/42/42
f 43/43/43 55/55/55 56/56/56
f 58/58/58 56/56/56 55/55/55
f 37/37/37 40/40/40 38/38/38
f 38/38/38 36/36/36 37/37/37
f 36/36/36 38/38/38 39/39/39
f 43/43/43 39/39/39 38/38/38
f 15/15/15 16/16/16 17/17/17
f 86/86/86 17/17/17 16/16/16
f 17/17/17 86/86/86 85/85/85
f 84/84/84 85/85/85 86/86/86
f 85/85/85 84/84/84 92/92/92
f 93/93/93 92/92/92 84/84/84
f 92/92/92 93/93/93 90/90/90
f 94/94/94 90/90/90 93/93/93
f 90/90/90 94/94/94 95/95/95
f 94/94/94 93/93/93 84/84/84
f 17/17/17 85/85/85 92/92/92
f 86/86/86 87/87/87 84/84/84
f 90/90/90 91/91/91 92/92/92
f 19/19/19 92/92/92 91/91/91
f 92/92/92 19/19/19 17/17/17
f 18/18/18 17/17/17 19/19/19
f 17/17/17 18/18/18 15/15/15
f 19/19/19 20/20/20 18/18/18
f 84/84/84 96/96/96 94/94/94
f 96/96/96 84/84/84 97/97/97
f 87/87/87 97/97/97 84/84/84
f 97/97/97 87/87/87 89/89/89
f 86/86/86 89/89/89 87/87/87
f 89/89/89 86/86/86 88/88/88
f 16/16/16 88/88/88 86/86/86
f 89/89/89 98/98/98 97/97/97
f 32/32/32 34/34/34 35/35/35
f 34/34/34 32/32/32 30/30/30
f 31/31/31 30/30/30 32/32/32
f 30/30/30 31/31/31 28/28/28
f 3/3/3 28/28/28 31/31/31
f 28/28/28 3/3/3 21/21/21
f 22/22/22 21/21/21 3/3/3
f 21/21/21 22/22/22 23/23/23
f 25/25/25 23/23/23 22/22/22
f 3/3/3 31/31/31 32/32/32
f 28/28/28 27/27/27 30/30/30
f 3/3/3 2/2/2 22/22/22
f 24/24/24 22/22/22 2/2/2
f 22/22/22 24/24/24 25/25/25
f 28/28/28 26/26/26 27/27/27
f 26/26/26 28/28/28 29/29/29
f 21/21/21 29/29/29 28/28/28
f 3/3/3 1/1/1 2/2/2
f 1/1/1 3/3/3 4/4/4
f 32/32/32 4/4/4 3/3/3
f 4/4/4 32/32/32 33/33/33
f 35/35/35 33/33/33 32/32/32
f 59/59/59 60/60/60 61/61/61
f 63/63/63 61/61/61 60/60/60
f 61/61/61 63/63/63 64/64/64
f 65/65/65 64/64/64 63/63/63
f 64/64/64 65/65/65 7/7/7
f 8/8/8 7/7/7 65/65/65
f 7/7/7 8/8/8 5/5/5
f 61/61/61 9/9/9 62/62/62
f 9/9/9 61/61/61 7/7/7
f 64/64/64 7/7/7 61/61/61
f 61/61/61 62/62/62 59/59/59
f 63/63/63 67/67/67 65/65/65
f 6/6/6 7/7/7 5/5/5
f 7/7/7 6/6/6 9/9/9
f 10/10/10 9/9/9 6/6/6
f 65/65/65 66/66/66 8/8/8
f 66/66/66 65/65/65 68/68/68
f 67/67/67 68/68/68 65/65/65
