mtllib SWORDLIGHT20_JAILCOT05.mtl
g JailCot05
usemtl BoardA
v -7986.255371 -1950.091064 4840.756348
vn 0.741842 -0.666668 0.072281
vt 0.609531 0.999500
v -8218.876953 -1950.091064 4930.051758
vn -0.088526 -0.408247 0.908569
vt 0.609531 0.000499
v -8254.104492 -1950.091064 4838.281250
vn -0.741845 -0.666665 -0.072281
vt 1.000689 0.000500
v -8021.482910 -1950.091064 4748.985840
vn 0.088526 -0.408249 -0.908568
vt 1.000689 0.999501
v -7986.255371 -1930.951904 4840.756836
vn 0.550105 0.666668 0.502930
vt 0.500689 0.999500
v -8021.482910 -1930.951904 4748.985840
vn 0.615962 0.408248 -0.673739
vt 0.109531 0.999501
v -8254.104492 -1930.951782 4838.280762
vn -0.550104 0.666669 -0.502930
vt 0.109531 0.000500
v -8218.876953 -1930.951904 4930.051758
vn -0.615960 0.408255 0.673737
vt 0.500689 0.000499
v -7986.255371 -1950.091064 4840.756348
vn 0.741842 -0.666668 0.072281
vt 0.000499 0.999500
v -8021.482910 -1930.951904 4748.985840
vn 0.615962 0.408248 -0.673739
vt 0.999500 0.000500
v -7986.255371 -1930.951904 4840.756836
vn 0.550105 0.666668 0.502930
vt 0.000499 0.000500
v -8021.482910 -1950.091064 4748.985840
vn 0.088526 -0.408249 -0.908568
vt 0.000689 0.999501
v -8254.104492 -1950.091064 4838.281250
vn -0.741845 -0.666665 -0.072281
vt 0.000689 0.000500
v -8254.104492 -1950.091064 4838.281250
vn -0.741845 -0.666665 -0.072281
vt 0.999501 0.999500
v -8218.876953 -1950.091064 4930.051758
vn -0.088526 -0.408247 0.908569
vt 0.000500 0.999500
v -8218.876953 -1930.951904 4930.051758
vn -0.615960 0.408255 0.673737
vt 0.000500 0.000500
v -8254.104492 -1930.951782 4838.280762
vn -0.550104 0.666669 -0.502930
vt 0.999501 0.000500
f 10/10/10 9/9/9 4/4/4
f 9/9/9 10/10/10 11/11/11
f 1/1/1 3/3/3 4/4/4
f 3/3/3 1/1/1 2/2/2
f 5/5/5 2/2/2 1/1/1
f 2/2/2 5/5/5 8/8/8
f 7/7/7 8/8/8 5/5/5
f 5/5/5 6/6/6 7/7/7
f 12/12/12 7/7/7 6/6/6
f 7/7/7 12/12/12 13/13/13
f 16/16/16 14/14/14 15/15/15
f 14/14/14 16/16/16 17/17/17
usemtl chain
v -8202.406250 -1861.010742 4922.304688
vn 0.726818 0.299244 -0.618214
vt 3.996503 0.028470
v -8225.291992 -1935.325195 4859.426758
vn 0.192907 0.598489 -0.777559
vt -2.996503 0.028468
v -8211.799805 -1861.010742 4925.723633
vn -0.647580 0.598489 -0.471647
vt 3.996503 0.737095
v -8234.685547 -1935.325195 4862.845703
vn -0.954155 0.299245 -0.006390
vt -2.996503 0.737093
v -8234.287109 -1936.374512 4863.940918
vn -0.484738 -0.473147 0.735637
vt -2.996503 0.737093
v -8224.893555 -1936.374512 4860.521973
vn 0.844189 -0.473147 0.251948
vt -2.996503 0.028468
v -8211.401367 -1862.060059 4926.818848
vn -0.484738 -0.473147 0.735637
vt 3.996503 0.737095
v -8202.007813 -1862.060059 4923.399902
vn 0.844188 -0.473147 0.251948
vt 3.996503 0.028470
v -8211.799805 -1861.010742 4925.723633
vn -0.647580 0.598489 -0.471647
vt 3.996504 0.967707
v -8234.685547 -1935.325195 4862.845703
vn -0.954155 0.299245 -0.006390
vt -3.000355 0.967708
v -8211.401367 -1862.060059 4926.818848
vn -0.484738 -0.473147 0.735637
vt 3.996504 0.785893
v -8234.287109 -1936.374512 4863.940918
vn -0.484738 -0.473147 0.735637
vt -3.000355 0.785894
v -8225.291992 -1935.325195 4859.426758
vn 0.192907 0.598489 -0.777559
vt -3.000355 0.967707
v -8202.406250 -1861.010742 4922.304688
vn 0.726818 0.299244 -0.618214
vt 3.996504 0.967707
v -8224.893555 -1936.374512 4860.521973
vn 0.844189 -0.473147 0.251948
vt -3.000355 0.785893
v -8202.007813 -1862.060059 4923.399902
vn 0.844188 -0.473147 0.251948
vt 3.996504 0.785892
v -8203.280273 -1859.630493 4932.225586
vn 0.647579 -0.598489 0.471648
vt 3.996503 0.028470
v -8226.166016 -1933.944946 4869.347656
vn 0.954155 -0.299244 0.006389
vt -2.996503 0.028468
v -8205.821289 -1852.941528 4925.244629
vn 0.726818 0.299245 -0.618214
vt 3.996503 0.737095
v -8228.707031 -1927.255981 4862.366699
vn 0.192907 0.598488 -0.777559
vt -2.996503 0.737093
v -8230.180664 -1927.255981 4862.903320
vn -0.844188 0.473147 -0.251948
vt -2.996503 0.737093
v -8227.639648 -1933.944946 4869.883789
vn -0.484738 -0.473146 0.735637
vt -2.996503 0.028468
v -8207.294922 -1852.941528 4925.780762
vn -0.844189 0.473147 -0.251947
vt 3.996503 0.737095
v -8204.753906 -1859.630493 4932.761719
vn -0.484738 -0.473146 0.735637
vt 3.996503 0.028470
v -8205.821289 -1852.941528 4925.244629
vn 0.726818 0.299245 -0.618214
vt 3.996504 0.967707
v -8228.707031 -1927.255981 4862.366699
vn 0.192907 0.598488 -0.777559
vt -3.000355 0.967708
v -8207.294922 -1852.941528 4925.780762
vn -0.844189 0.473147 -0.251947
vt 3.996504 0.785893
v -8230.180664 -1927.255981 4862.903320
vn -0.844188 0.473147 -0.251948
vt -3.000355 0.785894
v -8226.166016 -1933.944946 4869.347656
vn 0.954155 -0.299244 0.006389
vt -3.000355 0.967707
v -8203.280273 -1859.630493 4932.225586
vn 0.647579 -0.598489 0.471648
vt 3.996504 0.967707
v -8227.639648 -1933.944946 4869.883789
vn -0.484738 -0.473146 0.735637
vt -3.000355 0.785893
v -8204.753906 -1859.630493 4932.761719
vn -0.484738 -0.473146 0.735637
vt 3.996504 0.785892
v -7991.931152 -1861.010742 4845.697754
vn 0.726818 0.299244 -0.618214
vt 3.996503 0.028470
v -8014.816406 -1935.325195 4782.819824
vn 0.192907 0.598489 -0.777559
vt -2.996503 0.028468
v -8001.324707 -1861.010742 4849.116699
vn -0.647580 0.598489 -0.471647
vt 3.996503 0.737095
v -8024.209961 -1935.325195 4786.238770
vn -0.954155 0.299245 -0.006390
vt -2.996503 0.737093
v -8023.811523 -1936.374512 4787.333984
vn -0.484738 -0.473147 0.735637
vt -2.996503 0.737093
v -8014.417969 -1936.374512 4783.915039
vn 0.844189 -0.473147 0.251948
vt -2.996503 0.028468
v -8000.925781 -1862.060059 4850.211914
vn -0.484738 -0.473147 0.735637
vt 3.996503 0.737095
v -7991.532227 -1862.060059 4846.792969
vn 0.844188 -0.473147 0.251948
vt 3.996503 0.028470
v -8001.324707 -1861.010742 4849.116699
vn -0.647580 0.598489 -0.471647
vt 3.996504 0.967707
v -8024.209961 -1935.325195 4786.238770
vn -0.954155 0.299245 -0.006390
vt -3.000355 0.967708
v -8000.925781 -1862.060059 4850.211914
vn -0.484738 -0.473147 0.735637
vt 3.996504 0.785893
v -8023.811523 -1936.374512 4787.333984
vn -0.484738 -0.473147 0.735637
vt -3.000355 0.785894
v -8014.816406 -1935.325195 4782.819824
vn 0.192907 0.598489 -0.777559
vt -3.000355 0.967707
v -7991.931152 -1861.010742 4845.697754
vn 0.726818 0.299244 -0.618214
vt 3.996504 0.967707
v -8014.417969 -1936.374512 4783.915039
vn 0.844189 -0.473147 0.251948
vt -3.000355 0.785893
v -7991.532227 -1862.060059 4846.792969
vn 0.844188 -0.473147 0.251948
vt 3.996504 0.785892
v -7992.804688 -1859.630493 4855.618652
vn 0.647579 -0.598489 0.471648
vt 3.996503 0.028470
v -8015.690430 -1933.944946 4792.740723
vn 0.954155 -0.299244 0.006389
vt -2.996503 0.028468
v -7995.345215 -1852.941528 4848.637695
vn 0.726818 0.299245 -0.618214
vt 3.996503 0.737095
v -8018.230957 -1927.255981 4785.759766
vn 0.192907 0.598488 -0.777559
vt -2.996503 0.737093
v -8019.704590 -1927.255981 4786.296387
vn -0.844188 0.473147 -0.251948
vt -2.996503 0.737093
v -8017.164063 -1933.944946 4793.276855
vn -0.484738 -0.473146 0.735637
vt -2.996503 0.028468
v -7996.818848 -1852.941528 4849.173828
vn -0.844189 0.473147 -0.251947
vt 3.996503 0.737095
v -7994.278320 -1859.630493 4856.154785
vn -0.484738 -0.473146 0.735637
vt 3.996503 0.028470
v -7995.345215 -1852.941528 4848.637695
vn 0.726818 0.299245 -0.618214
vt 3.996504 0.967707
v -8018.230957 -1927.255981 4785.759766
vn 0.192907 0.598488 -0.777559
vt -3.000355 0.967708
v -7996.818848 -1852.941528 4849.173828
vn -0.844189 0.473147 -0.251947
vt 3.996504 0.785893
v -8019.704590 -1927.255981 4786.296387
vn -0.844188 0.473147 -0.251948
vt -3.000355 0.785894
v -8015.690430 -1933.944946 4792.740723
vn 0.954155 -0.299244 0.006389
vt -3.000355 0.967707
v -7992.804688 -1859.630493 4855.618652
vn 0.647579 -0.598489 0.471648
vt 3.996504 0.967707
v -8017.164063 -1933.944946 4793.276855
vn -0.484738 -0.473146 0.735637
vt -3.000355 0.785893
v -7994.278320 -1859.630493 4856.154785
vn -0.484738 -0.473146 0.735637
vt 3.996504 0.785892
f 18/18/18 19/19/19 20/20/20
f 21/21/21 20/20/20 19/19/19
f 22/22/22 23/23/23 24/24/24
f 25/25/25 24/24/24 23/23/23
f 26/26/26 27/27/27 28/28/28
f 29/29/29 28/28/28 27/27/27
f 30/30/30 31/31/31 32/32/32
f 33/33/33 32/32/32 31/31/31
f 34/34/34 35/35/35 36/36/36
f 37/37/37 36/36/36 35/35/35
f 38/38/38 39/39/39 40/40/40
f 41/41/41 40/40/40 39/39/39
f 42/42/42 43/43/43 44/44/44
f 45/45/45 44/44/44 43/43/43
f 46/46/46 47/47/47 48/48/48
f 49/49/49 48/48/48 47/47/47
f 50/50/50 51/51/51 52/52/52
f 53/53/53 52/52/52 51/51/51
f 54/54/54 55/55/55 56/56/56
f 57/57/57 56/56/56 55/55/55
f 58/58/58 59/59/59 60/60/60
f 61/61/61 60/60/60 59/59/59
f 62/62/62 63/63/63 64/64/64
f 65/65/65 64/64/64 63/63/63
f 66/66/66 67/67/67 68/68/68
f 69/69/69 68/68/68 67/67/67
f 70/70/70 71/71/71 72/72/72
f 73/73/73 72/72/72 71/71/71
f 74/74/74 75/75/75 76/76/76
f 77/77/77 76/76/76 75/75/75
f 78/78/78 79/79/79 80/80/80
f 81/81/81 80/80/80 79/79/79
