mtllib SWORDLIGHT20_JAILCEILBRACKET01.mtl
g ilCeilBracket01
usemtl BoardB
v -5538.921387 -1194.689697 5138.342285
vn 0.393019 0.894427 -0.213392
vt 0.228076 0.999501
v -5884.635254 -1194.689453 4501.617188
vn 0.620847 0.707140 -0.338380
vt 0.228076 0.500000
v -5910.993164 -1194.689575 4515.928711
vn -0.621977 0.707083 0.336420
vt -0.004227 0.500000
v -5565.279297 -1194.689697 5152.653809
vn -0.786038 0.447214 0.426784
vt -0.004226 0.999501
v -6226.568848 -1195.827026 3874.256104
vn 0.784959 0.447336 -0.428637
vt 0.228076 0.000499
v -6250.919434 -1195.835327 3887.477783
vn -0.394166 0.894353 0.211578
vt -0.004228 0.000499
v -5538.921387 -1224.682007 5138.342285
vn 0.621415 -0.707109 -0.337401
vt 0.478075 0.999501
v -5565.279297 -1224.682007 5152.653809
vn -0.621418 -0.707107 0.337402
vt 0.728076 0.999501
v -5910.993164 -1224.681885 4515.928711
vn -0.621778 -0.707105 0.336740
vt 0.728076 0.500000
v -5884.635254 -1224.682007 4501.617676
vn 0.620705 -0.707097 -0.338731
vt 0.478076 0.500000
v -6250.916016 -1223.538574 3887.472656
vn -0.622479 -0.707122 0.335409
vt 0.728076 0.000499
v -6226.562500 -1223.541260 3874.255859
vn 0.620370 -0.707070 -0.339402
vt 0.478077 0.000499
v -5565.279297 -1194.689697 5152.653809
vn -0.786038 0.447214 0.426784
vt 0.995774 0.999501
v -5910.993164 -1194.689575 4515.928711
vn -0.621977 0.707083 0.336420
vt 0.995773 0.500000
v -6250.919434 -1195.835327 3887.477783
vn -0.394166 0.894353 0.211578
vt 0.995772 0.000499
v -5641.086426 -901.851685 4951.809082
vn 0.180693 0.775448 -0.605004
vt 0.228076 0.500000
v -5888.315430 -1193.178467 4504.540527
vn 0.679668 0.383252 -0.625435
vt 0.228076 0.000499
v -5906.561523 -1193.198486 4514.459473
vn -0.605682 0.775530 -0.178050
vt -0.004228 0.000499
v -5666.079102 -901.831360 4965.366211
vn -0.894212 0.385199 0.228052
vt -0.004227 0.500000
v -5631.925781 -926.332031 4968.752930
vn 0.785176 -0.618393 -0.033001
vt 0.478076 0.500000
v -5656.864258 -926.326660 4982.288086
vn -0.456122 -0.617617 0.640704
vt 0.728076 0.500000
v -5891.009277 -1208.722778 4543.378418
vn -0.456249 -0.617558 0.640670
vt 0.728076 0.000499
v -5872.678223 -1208.708984 4533.414063
vn 0.784832 -0.618849 -0.032622
vt 0.478077 0.000499
v -5666.079102 -901.831360 4965.366211
vn -0.894212 0.385199 0.228052
vt 0.995773 0.500000
v -5906.561523 -1193.198486 4514.459473
vn -0.605682 0.775530 -0.178050
vt 0.995772 0.000499
v -5742.178223 -1196.941406 4764.642578
vn 0.812413 -0.137454 0.566649
vt 0.228076 0.500000
v -5731.821777 -1043.526855 4786.862305
vn 0.997351 -0.061411 -0.038973
vt 0.228076 0.000499
v -5755.090332 -1043.520508 4799.442871
vn 0.023911 -0.136251 0.990386
vt -0.004228 0.000499
v -5768.365723 -1196.895630 4778.569336
vn -0.579936 -0.060938 0.812379
vt -0.004227 0.500000
v -5757.912598 -1195.425293 4735.654785
vn 0.287974 0.126132 -0.949295
vt 0.478076 0.500000
v -5783.747559 -1195.413940 4749.725098
vn -0.952345 0.126052 -0.277760
vt 0.728076 0.500000
v -5771.798340 -1062.632690 4769.013672
vn -0.952560 0.126533 -0.276802
vt 0.728076 0.000499
v -5748.289551 -1062.632935 4756.262207
vn 0.287695 0.126477 -0.949334
vt 0.478077 0.000499
v -5768.365723 -1196.895630 4778.569336
vn -0.579936 -0.060938 0.812379
vt 0.995773 0.500000
v -5755.090332 -1043.520508 4799.442871
vn 0.023911 -0.136251 0.990386
vt 0.995772 0.000499
v -6152.146973 -901.851501 4070.147217
vn -0.180698 0.775446 0.605006
vt 0.228076 0.500000
v -5904.918457 -1193.178711 4517.416016
vn -0.679676 0.383242 0.625432
vt 0.228076 0.000499
v -5886.671875 -1193.198486 4507.496582
vn 0.605679 0.775532 0.178054
vt -0.004228 0.000499
v -6127.154297 -901.831177 4056.590088
vn 0.894212 0.385199 -0.228051
vt -0.004227 0.500000
v -6161.307617 -926.331848 4053.203125
vn -0.785173 -0.618397 0.032996
vt 0.478076 0.500000
v -6136.369141 -926.326477 4039.668213
vn 0.456123 -0.617616 -0.640705
vt 0.728076 0.500000
v -5902.224121 -1208.722656 4478.577637
vn 0.456250 -0.617558 -0.640670
vt 0.728076 0.000499
v -5920.555176 -1208.708862 4488.541992
vn -0.784826 -0.618857 0.032613
vt 0.478077 0.000499
v -6127.154297 -901.831177 4056.590088
vn 0.894212 0.385199 -0.228051
vt 0.995773 0.500000
v -5886.671875 -1193.198486 4507.496582
vn 0.605679 0.775532 0.178054
vt 0.995772 0.000499
v -6063.314453 -1195.472046 4235.250977
vn -0.819094 0.005381 -0.573633
vt 0.228076 0.500000
v -6062.223145 -1043.390869 4235.050293
vn -0.999472 0.007818 0.031531
vt 0.228076 0.000499
v -6037.750488 -1043.384033 4221.814941
vn -0.034190 0.005045 -0.999403
vt -0.004228 0.000499
v -6037.133301 -1195.454590 4220.983398
vn 0.571640 0.006560 -0.820478
vt -0.004227 0.500000
v -6049.182617 -1195.359741 4261.640625
vn -0.286448 -0.000547 0.958096
vt 0.478076 0.500000
v -6022.724609 -1195.351807 4247.526855
vn 0.957756 -0.001237 0.287581
vt 0.728076 0.500000
v -6022.918457 -1061.452881 4248.749023
vn 0.958598 -0.001762 0.284759
vt 0.728076 0.000499
v -6047.605957 -1061.475098 4262.216309
vn -0.282555 -0.000797 0.959251
vt 0.478077 0.000499
v -6037.133301 -1195.454590 4220.983398
vn 0.571640 0.006560 -0.820478
vt 0.995773 0.500000
v -6037.750488 -1043.384033 4221.814941
vn -0.034190 0.005045 -0.999403
vt 0.995772 0.000499
v -5918.353027 -1194.623535 4502.352051
vn -0.819624 -0.004641 -0.572883
vt 0.228076 0.500000
v -5919.502441 -728.048279 4500.229980
vn -0.999433 -0.002311 0.033587
vt 0.228076 0.000499
v -5893.165039 -728.048523 4485.931152
vn -0.033565 -0.004623 -0.999426
vt -0.004228 0.000499
v -5891.986816 -1194.623413 4488.057617
vn 0.572718 -0.002313 -0.819749
vt -0.004227 0.500000
v -5900.574219 -1194.589111 4535.111328
vn -0.284064 0.000311 0.958805
vt 0.478076 0.500000
v -5874.220215 -1194.589111 4520.799316
vn 0.958796 0.000308 0.284094
vt 0.728076 0.500000
v -5874.315918 -728.022217 4520.617676
vn 0.958844 0.000323 0.283933
vt 0.728076 0.000499
v -5900.671875 -728.021973 4534.933105
vn -0.284063 0.000308 0.958806
vt 0.478077 0.000499
v -5891.986816 -1194.623413 4488.057617
vn 0.572718 -0.002313 -0.819749
vt 0.995773 0.500000
v -5893.165039 -728.048523 4485.931152
vn -0.033565 -0.004623 -0.999426
vt 0.995772 0.000499
f 20/20/20 21/21/21 22/22/22
f 24/24/24 22/22/22 21/21/21
f 22/22/22 24/24/24 25/25/25
f 22/22/22 23/23/23 20/20/20
f 17/17/17 20/20/20 23/23/23
f 20/20/20 17/17/17 16/16/16
f 18/18/18 16/16/16 17/17/17
f 16/16/16 18/18/18 19/19/19
f 11/11/11 14/14/14 15/15/15
f 14/14/14 11/11/11 9/9/9
f 10/10/10 9/9/9 11/11/11
f 9/9/9 10/10/10 7/7/7
f 2/2/2 7/7/7 10/10/10
f 7/7/7 2/2/2 1/1/1
f 3/3/3 1/1/1 2/2/2
f 1/1/1 3/3/3 4/4/4
f 7/7/7 8/8/8 9/9/9
f 13/13/13 9/9/9 8/8/8
f 9/9/9 13/13/13 14/14/14
f 2/2/2 6/6/6 3/3/3
f 6/6/6 2/2/2 5/5/5
f 10/10/10 5/5/5 2/2/2
f 5/5/5 10/10/10 12/12/12
f 11/11/11 12/12/12 10/10/10
f 32/32/32 33/33/33 30/30/30
f 27/27/27 30/30/30 33/33/33
f 30/30/30 27/27/27 26/26/26
f 28/28/28 26/26/26 27/27/27
f 26/26/26 28/28/28 29/29/29
f 30/30/30 31/31/31 32/32/32
f 34/34/34 32/32/32 31/31/31
f 32/32/32 34/34/34 35/35/35
f 42/42/42 43/43/43 40/40/40
f 37/37/37 40/40/40 43/43/43
f 40/40/40 37/37/37 36/36/36
f 38/38/38 36/36/36 37/37/37
f 36/36/36 38/38/38 39/39/39
f 40/40/40 41/41/41 42/42/42
f 44/44/44 42/42/42 41/41/41
f 42/42/42 44/44/44 45/45/45
f 46/46/46 48/48/48 49/49/49
f 48/48/48 46/46/46 47/47/47
f 50/50/50 47/47/47 46/46/46
f 47/47/47 50/50/50 53/53/53
f 52/52/52 53/53/53 50/50/50
f 50/50/50 51/51/51 52/52/52
f 54/54/54 52/52/52 51/51/51
f 52/52/52 54/54/54 55/55/55
f 62/62/62 63/63/63 60/60/60
f 57/57/57 60/60/60 63/63/63
f 60/60/60 57/57/57 56/56/56
f 58/58/58 56/56/56 57/57/57
f 56/56/56 58/58/58 59/59/59
f 60/60/60 61/61/61 62/62/62
f 64/64/64 62/62/62 61/61/61
f 62/62/62 64/64/64 65/65/65
