mtllib SWORDLIGHT20_PS-AREA01_CORNERWEB06.mtl
g a01_Cornerweb06
usemtl CornerwebWeb
v 4001.230713 1270.930786 4676.191895
vn 0.782401 -0.613938 0.104540
vt 0.253905 0.243228
v 4044.101318 1308.903442 4638.877930
vn 0.715820 -0.645470 0.266403
vt 0.179873 0.161413
v 4046.274414 1316.030884 4707.551270
vn 0.723001 -0.690613 -0.017992
vt 0.344332 0.160491
v 4143.495605 1392.502319 4564.270020
vn 0.742239 -0.655994 0.136944
vt 0.007746 0.002400
v 4141.882813 1395.744141 4635.394531
vn 0.648607 -0.754923 0.096960
vt 0.180868 0.004718
v 4103.108398 1357.267090 4614.384766
vn 0.712413 -0.661035 0.235587
vt 0.103546 0.085073
v 4156.348145 1405.006470 4771.361328
vn 0.543003 -0.835075 -0.088307
vt 0.533541 0.005501
v 4099.377930 1371.835815 4736.534180
vn 0.652230 -0.756944 -0.040394
vt 0.456331 0.073018
v 4142.945313 1401.764648 4694.366699
vn 0.581588 -0.813058 0.026313
vt 0.363116 0.008109
v 4092.205322 1361.035522 4671.762207
vn 0.661714 -0.743726 0.094906
vt 0.277625 0.080564
v 3968.527588 1206.926880 4636.808594
vn 0.789418 -0.477455 0.385819
vt 0.179413 0.316666
v 3924.380859 1033.264526 4558.990234
vn 0.780001 -0.428937 0.455645
vt 0.001747 0.484227
v 3992.380859 1147.688721 4554.582031
vn 0.760845 -0.443266 0.473952
vt 0.006556 0.326455
v 3945.157471 1109.197876 4594.905762
vn 0.779010 -0.424133 0.461794
vt 0.078184 0.408451
v 4071.897705 1297.999878 4569.863770
vn 0.774600 -0.545286 0.320403
vt 0.008224 0.157986
v 4018.688721 1243.762085 4603.323242
vn 0.729860 -0.500320 0.465816
vt 0.097466 0.242063
v 3810.081299 1228.076294 4873.429688
vn 0.209120 -0.704288 0.678415
vt 0.762052 0.750574
v 3774.057861 1244.053833 4908.778809
vn 0.343922 -0.737787 0.580852
vt 0.842377 0.826182
v 3772.261719 1185.053833 4846.450684
vn 0.310858 -0.609227 0.729527
vt 0.693356 0.824863
v 3702.599365 1263.036743 4979.185059
vn 0.250359 -0.766814 0.591030
vt 0.999501 0.994670
v 3694.237793 1214.472290 4920.411133
vn 0.326458 -0.701248 0.633779
vt 0.852803 0.990182
v 3746.080566 1251.175293 4945.376953
vn 0.346457 -0.769739 0.536162
vt 0.918485 0.902895
v 3699.597900 1073.684692 4811.458008
vn 0.370588 -0.494703 0.786088
vt 0.532649 0.988331
v 3734.400391 1127.646240 4829.175781
vn 0.399250 -0.504470 0.765578
vt 0.599712 0.916282
v 3691.467773 1145.011230 4868.012695
vn 0.442914 -0.538310 0.716972
vt 0.682487 0.988378
v 3733.409180 1200.871582 4884.711426
vn 0.412490 -0.639437 0.648823
vt 0.765006 0.905069
v 3841.961914 1263.621704 4905.955078
vn 0.169771 -0.734005 0.657582
vt 0.829686 0.673912
v 3905.415771 1325.498779 4980.608887
vn 0.132869 -0.895503 0.424760
vt 0.991559 0.497904
v 3828.225586 1309.304932 4974.774414
vn 0.278495 -0.845687 0.455251
vt 0.991469 0.664256
v 3870.518066 1300.892334 4938.822266
vn 0.166826 -0.803009 0.572141
vt 0.922291 0.576806
v 3768.569824 1279.230591 4972.721191
vn 0.352987 -0.791153 0.499476
vt 0.988775 0.829999
v 3803.772461 1277.222290 4937.735352
vn 0.334438 -0.783603 0.523562
vt 0.913324 0.743634
v 4021.615234 1276.237427 4815.014648
vn 0.715692 -0.698404 -0.004094
vt 0.557114 0.291422
v 4034.179443 1295.379272 4766.520020
vn 0.737897 -0.669073 -0.088595
vt 0.447814 0.223477
v 4102.367188 1364.031250 4811.992188
vn 0.645423 -0.759635 -0.079895
vt 0.583791 0.102848
v 4097.598633 1356.260986 4874.973145
vn 0.631264 -0.774895 -0.032285
vt 0.709956 0.141468
v 3926.901855 1185.240234 4787.007813
vn 0.552772 -0.738619 0.385856
vt 0.505972 0.511595
v 3949.267578 1202.357910 4754.738281
vn 0.759659 -0.646790 0.067686
vt 0.424565 0.427143
v 4010.298584 1267.408081 4860.776855
vn 0.523606 -0.791169 0.316052
vt 0.658328 0.352046
v 3975.769043 1237.853027 4721.998535
vn 0.788173 -0.615438 0.004460
vt 0.337430 0.330837
v 4168.903809 1402.818604 4857.808105
vn 0.540899 -0.837720 -0.075197
vt 0.685513 0.005329
v 4097.062500 1352.594116 4937.838379
vn 0.419824 -0.882028 0.213950
vt 0.834869 0.170408
v 4171.014648 1398.755493 4932.507324
vn 0.528831 -0.846640 -0.059485
vt 0.842303 0.005598
v 4177.727539 1396.567627 5006.691895
vn 0.366587 -0.917165 0.156276
vt 0.991578 0.005330
v 3950.913574 1311.365601 4939.388184
vn 0.176303 -0.824881 0.537112
vt 0.893316 0.438880
v 3902.773193 1256.229370 4890.439453
vn 0.131991 -0.721223 0.680012
vt 0.770650 0.567092
v 3961.109131 1261.993164 4880.305176
vn 0.265027 -0.756155 0.598323
vt 0.714074 0.456110
v 4027.000000 1337.638306 4942.469238
vn 0.264538 -0.840833 0.472249
vt 0.860896 0.307417
v 4000.096436 1343.924072 4990.681641
vn 0.244121 -0.907870 0.340848
vt 0.989723 0.332687
v 3855.116943 1205.665771 4844.731445
vn 0.149883 -0.675091 0.722348
vt 0.676582 0.670192
v 3894.181885 1190.360962 4819.081055
vn 0.271804 -0.700609 0.659749
vt 0.587968 0.588232
v 4092.685791 1378.142334 5002.453613
vn 0.232483 -0.909730 0.344009
vt 0.990650 0.170619
v 3933.009766 1162.701904 4675.717285
vn 0.838402 -0.477438 0.262934
vt 0.236123 0.427633
v 3894.693848 1114.781738 4702.598145
vn 0.802176 -0.506374 0.316386
vt 0.290273 0.557814
v 3855.867432 992.857605 4659.258301
vn 0.787582 -0.433196 0.438243
vt 0.133714 0.701986
v 3899.770020 1051.124390 4628.792969
vn 0.828185 -0.415937 0.375640
vt 0.104598 0.543928
v 3860.972656 1083.614990 4729.929199
vn 0.676466 -0.546301 0.493911
vt 0.344878 0.670348
v 3757.919189 809.579773 4637.745605
vn 0.684246 -0.465454 0.561391
vt 0.006136 0.988149
v 3814.744873 879.041748 4615.140625
vn 0.800789 -0.443770 0.402249
vt 0.005720 0.819625
v 3809.863525 942.453308 4685.207520
vn 0.660582 -0.451854 0.599549
vt 0.158047 0.847807
v 3869.470703 959.035217 4587.573242
vn 0.814878 -0.430691 0.387916
vt 0.004230 0.637682
v 3836.459717 1108.945190 4771.643555
vn 0.414941 -0.550898 0.724110
vt 0.455774 0.720623
v 3807.656738 1146.416748 4808.381836
vn 0.283645 -0.548533 0.786548
vt 0.582787 0.770663
v 3761.990967 1065.376343 4781.081055
vn 0.333987 -0.460992 0.822155
vt 0.462861 0.892345
v 3790.492920 998.813232 4737.450195
vn 0.439469 -0.446830 0.779237
vt 0.302287 0.867484
v 3720.391602 989.922852 4754.084473
vn 0.284539 -0.448454 0.847306
vt 0.372657 0.986383
v 3743.912109 891.414490 4699.537109
vn 0.436201 -0.456550 0.775429
vt 0.177319 0.985656
f 20/20/20 22/22/22 31/31/31
f 29/29/29 31/31/31 32/32/32
f 22/22/22 32/32/32 31/31/31
f 32/32/32 22/22/22 18/18/18
f 26/26/26 18/18/18 22/22/22
f 18/18/18 26/26/26 19/19/19
f 24/24/24 19/19/19 26/26/26
f 19/19/19 24/24/24 63/63/63
f 64/64/64 63/63/63 24/24/24
f 63/63/63 64/64/64 62/62/62
f 65/65/65 62/62/62 64/64/64
f 62/62/62 65/65/65 57/57/57
f 60/60/60 57/57/57 65/65/65
f 57/57/57 60/60/60 54/54/54
f 55/55/55 54/54/54 60/60/60
f 54/54/54 55/55/55 53/53/53
f 56/56/56 53/53/53 55/55/55
f 53/53/53 56/56/56 11/11/11
f 14/14/14 11/11/11 56/56/56
f 28/28/28 29/29/29 30/30/30
f 32/32/32 30/30/30 29/29/29
f 30/30/30 32/32/32 27/27/27
f 18/18/18 27/27/27 32/32/32
f 27/27/27 18/18/18 17/17/17
f 19/19/19 17/17/17 18/18/18
f 17/17/17 19/19/19 50/50/50
f 63/63/63 50/50/50 19/19/19
f 50/50/50 63/63/63 51/51/51
f 62/62/62 51/51/51 63/63/63
f 51/51/51 62/62/62 37/37/37
f 57/57/57 37/37/37 62/62/62
f 37/37/37 57/57/57 38/38/38
f 54/54/54 38/38/38 57/57/57
f 38/38/38 54/54/54 40/40/40
f 53/53/53 40/40/40 54/54/54
f 40/40/40 53/53/53 1/1/1
f 11/11/11 1/1/1 53/53/53
f 7/7/7 41/41/41 35/35/35
f 36/36/36 35/35/35 41/41/41
f 35/35/35 36/36/36 33/33/33
f 39/39/39 33/33/33 36/36/36
f 33/33/33 39/39/39 37/37/37
f 47/47/47 37/37/37 39/39/39
f 37/37/37 47/47/47 51/51/51
f 46/46/46 51/51/51 47/47/47
f 51/51/51 46/46/46 50/50/50
f 27/27/27 50/50/50 46/46/46
f 50/50/50 27/27/27 17/17/17
f 37/37/37 38/38/38 33/33/33
f 34/34/34 33/33/33 38/38/38
f 33/33/33 34/34/34 35/35/35
f 8/8/8 35/35/35 34/34/34
f 35/35/35 8/8/8 7/7/7
f 9/9/9 7/7/7 8/8/8
f 46/46/46 30/30/30 27/27/27
f 30/30/30 46/46/46 45/45/45
f 47/47/47 45/45/45 46/46/46
f 45/45/45 47/47/47 48/48/48
f 39/39/39 48/48/48 47/47/47
f 48/48/48 39/39/39 42/42/42
f 36/36/36 42/42/42 39/39/39
f 42/42/42 36/36/36 43/43/43
f 41/41/41 43/43/43 36/36/36
f 45/45/45 28/28/28 30/30/30
f 28/28/28 45/45/45 49/49/49
f 48/48/48 49/49/49 45/45/45
f 49/49/49 48/48/48 52/52/52
f 42/42/42 52/52/52 48/48/48
f 52/52/52 42/42/42 44/44/44
f 43/43/43 44/44/44 42/42/42
f 5/5/5 9/9/9 10/10/10
f 8/8/8 10/10/10 9/9/9
f 10/10/10 8/8/8 3/3/3
f 34/34/34 3/3/3 8/8/8
f 3/3/3 34/34/34 40/40/40
f 38/38/38 40/40/40 34/34/34
f 40/40/40 1/1/1 3/3/3
f 2/2/2 3/3/3 1/1/1
f 3/3/3 2/2/2 10/10/10
f 6/6/6 10/10/10 2/2/2
f 10/10/10 6/6/6 5/5/5
f 4/4/4 5/5/5 6/6/6
f 1/1/1 11/11/11 2/2/2
f 16/16/16 2/2/2 11/11/11
f 2/2/2 16/16/16 6/6/6
f 15/15/15 6/6/6 16/16/16
f 6/6/6 15/15/15 4/4/4
f 11/11/11 14/14/14 16/16/16
f 13/13/13 16/16/16 14/14/14
f 16/16/16 13/13/13 15/15/15
f 14/14/14 12/12/12 13/13/13
f 12/12/12 14/14/14 61/61/61
f 56/56/56 61/61/61 14/14/14
f 61/61/61 56/56/56 59/59/59
f 55/55/55 59/59/59 56/56/56
f 59/59/59 55/55/55 58/58/58
f 60/60/60 58/58/58 55/55/55
f 58/58/58 60/60/60 67/67/67
f 65/65/65 67/67/67 60/60/60
f 67/67/67 65/65/65 66/66/66
f 64/64/64 66/66/66 65/65/65
f 66/66/66 64/64/64 23/23/23
f 24/24/24 23/23/23 64/64/64
f 23/23/23 24/24/24 25/25/25
f 26/26/26 25/25/25 24/24/24
f 25/25/25 26/26/26 21/21/21
f 22/22/22 21/21/21 26/26/26
f 21/21/21 22/22/22 20/20/20
