mtllib SWORDLIGHT20_PS-AREA03_153.mtl
g PS-Area03_153
usemtl WallDUnder
v -4027.064941 -3499.999756 -7050.807617
vn 0.765757 -0.085141 -0.637469
vt 0.693442 0.147724
v -4059.026367 -3902.222656 -7048.207520
vn 0.742786 -0.004598 -0.669513
vt 0.697746 0.259680
v -4348.457031 -3980.847900 -7266.808594
vn 0.791573 -0.043554 -0.609520
vt 0.736719 0.281564
v -4322.313965 -3501.974121 -7315.254395
vn 0.803372 -0.110685 -0.585100
vt 0.733198 0.148274
v -4479.907715 -4002.692139 -7560.343750
vn 0.965590 -0.069632 0.250575
vt 0.754419 0.287645
v -4474.553223 -3499.999756 -7594.662109
vn 0.877970 -0.015023 -0.478480
vt 0.753698 0.147724
f 3/3/3 1/1/1 2/2/2
f 1/1/1 3/3/3 4/4/4
f 5/5/5 4/4/4 3/3/3
f 4/4/4 5/5/5 6/6/6
usemtl Colum4aUnder
v -4112.978516 -3960.262939 -5376.836426
vn 0.998622 -0.044151 -0.028361
vt 0.705011 0.275835
v -4050.041016 -3478.962402 -5374.857422
vn 0.998563 -0.053346 0.005117
vt 0.696536 0.141868
v -3996.796387 -3499.999756 -5008.078613
vn 0.696774 0.010764 -0.717210
vt 0.689366 0.147724
v -4024.480957 -3917.036133 -5800.681641
vn 0.934580 -0.031567 0.354349
vt 0.693094 0.263803
v -3881.175293 -3497.688965 -6071.236328
vn 0.927285 -0.035521 0.372666
vt 0.673797 0.147081
v -3859.057617 -3949.373779 -6072.563965
vn 0.916258 -0.002065 0.400584
vt 0.670819 0.272804
v -3740.827148 -3914.756104 -6366.944824
vn 0.998026 -0.025594 0.057356
vt 0.654899 0.263168
v -4017.870117 -3969.431152 -5056.519531
vn 0.711996 0.014152 -0.702041
vt 0.692204 0.278387
v -3988.458008 -3427.483398 -5818.837891
vn 0.949696 -0.065877 0.306168
vt 0.688244 0.127540
v -4059.026367 -3902.222656 -7048.207520
vn 0.742786 -0.004598 -0.669513
vt 0.697746 0.259680
v -4027.064941 -3499.999756 -7050.807617
vn 0.765757 -0.085141 -0.637469
vt 0.693442 0.147724
v -3850.914063 -3499.553467 -6720.532227
vn 0.933208 -0.022686 -0.358619
vt 0.669723 0.147600
v -3767.611328 -3499.999756 -6365.571289
vn 0.999491 0.008968 0.030629
vt 0.658506 0.147724
v -3740.827148 -3914.756104 -6366.944824
vn 0.998026 -0.025594 0.057356
vt 0.654899 0.263168
v -3862.343750 -3931.285400 -6733.703125
vn 0.923555 0.002811 -0.383456
vt 0.671262 0.267769
v -3988.458008 -3427.483398 -5818.837891
vn 0.949696 -0.065877 0.306168
vt 0.688244 0.127540
v -3767.611328 -3499.999756 -6365.571289
vn 0.999491 0.008968 0.030629
vt 0.658506 0.147724
v -4024.480957 -3917.036133 -5800.681641
vn 0.934580 -0.031567 0.354349
vt 0.693094 0.263803
f 7/7/7 9/9/9 14/14/14
f 9/9/9 7/7/7 8/8/8
f 10/10/10 8/8/8 7/7/7
f 8/8/8 10/10/10 22/22/22
f 12/12/12 15/15/15 24/24/24
f 15/15/15 12/12/12 11/11/11
f 13/13/13 11/11/11 12/12/12
f 11/11/11 13/13/13 23/23/23
f 18/18/18 16/16/16 17/17/17
f 16/16/16 18/18/18 21/21/21
f 19/19/19 21/21/21 18/18/18
f 21/21/21 19/19/19 20/20/20
