mtllib SWORDLIGHT20_JAILBRACE104.mtl
g JailBrace104
usemtl BoardC
v -8520.019531 -1108.265747 3386.970703
vn 0.857296 -0.330001 0.395149
vt 0.752720 0.998696
v -8533.437500 -1108.265869 3349.288330
vn 0.239819 -0.819621 -0.520297
vt 0.997363 0.998696
v -8533.437500 -1068.265747 3349.288330
vn 0.394148 0.336768 -0.855123
vt 0.997363 0.875765
v -8520.019531 -1068.265747 3386.970703
vn 0.528277 0.813408 0.243497
vt 0.752720 0.875765
v -9221.862305 -1108.266724 3655.088867
vn 0.159597 -0.894427 0.417767
vt 0.250000 0.873425
v -9235.280273 -1108.266724 3617.406494
vn -0.319190 -0.447214 -0.835534
vt 0.500000 0.873425
v -8533.437500 -1108.265869 3349.288330
vn 0.239819 -0.819621 -0.520297
vt 0.500000 0.000499
v -8520.019531 -1108.265747 3386.970703
vn 0.857296 -0.330001 0.395149
vt 0.250000 0.000499
v -9235.280273 -1068.266724 3617.406250
vn -0.159597 0.894427 -0.417767
vt 0.750000 0.873425
v -8533.437500 -1068.265747 3349.288330
vn 0.394148 0.336768 -0.855123
vt 0.750000 0.000499
v -9221.862305 -1068.266724 3655.088623
vn 0.319190 0.447214 0.835534
vt 1.000000 0.873425
v -8520.019531 -1068.265747 3386.970703
vn 0.528277 0.813408 0.243497
vt 1.000000 0.000499
v -9221.862305 -1068.266724 3655.088623
vn 0.319190 0.447214 0.835534
vt -0.000000 0.873425
v -8520.019531 -1068.265747 3386.970703
vn 0.528277 0.813408 0.243497
vt -0.000000 0.000499
f 3/3/3 1/1/1 2/2/2
f 1/1/1 3/3/3 4/4/4
f 11/11/11 12/12/12 9/9/9
f 10/10/10 9/9/9 12/12/12
f 9/9/9 10/10/10 6/6/6
f 7/7/7 6/6/6 10/10/10
f 6/6/6 7/7/7 5/5/5
f 8/8/8 5/5/5 7/7/7
f 5/5/5 8/8/8 13/13/13
f 14/14/14 13/13/13 8/8/8
