mtllib SWORDLIGHT20_JAILBRACE11.mtl
g JailBrace11
usemtl BoardC
v -5599.979004 -1738.776001 5550.566406
vn 0.598682 -0.761816 0.247418
vt 0.752720 0.998696
v -5599.979004 -1698.775879 5550.566406
vn 0.859929 0.444421 -0.251023
vt 0.752720 0.875765
v -5635.239258 -1698.775879 5573.195801
vn 0.178215 0.577148 0.796956
vt 0.997363 0.875765
v -5635.239258 -1738.775879 5573.195801
vn -0.320716 -0.381772 0.866828
vt 0.997363 0.998696
v -5928.698730 -1672.028198 5275.865234
vn 0.048335 -0.279135 -0.959035
vt 0.752720 0.998696
v -5965.002930 -1672.028320 5297.618164
vn -0.551111 -0.820495 -0.151867
vt 0.997363 0.998696
v -5965.002930 -1632.028198 5297.618164
vn -0.914143 0.405031 -0.017130
vt 0.997363 0.875765
v -5928.698730 -1632.028198 5275.865234
vn 0.123540 0.819005 -0.560329
vt 0.752720 0.875765
v -5599.979004 -1738.776001 5550.566406
vn 0.598682 -0.761816 0.247418
vt 0.250000 0.873425
v -5635.239258 -1738.775879 5573.195801
vn -0.320716 -0.381772 0.866828
vt 0.500000 0.873425
v -5965.002930 -1672.028320 5297.618164
vn -0.551111 -0.820495 -0.151867
vt 0.500000 0.000499
v -5928.698730 -1672.028198 5275.865234
vn 0.048335 -0.279135 -0.959035
vt 0.250000 0.000499
v -5635.239258 -1698.775879 5573.195801
vn 0.178215 0.577148 0.796956
vt 0.750000 0.873425
v -5965.002930 -1632.028198 5297.618164
vn -0.914143 0.405031 -0.017130
vt 0.750000 0.000499
v -5599.979004 -1698.775879 5550.566406
vn 0.859929 0.444421 -0.251023
vt 1.000000 0.873425
v -5928.698730 -1632.028198 5275.865234
vn 0.123540 0.819005 -0.560329
vt 1.000000 0.000499
v -5599.979004 -1698.775879 5550.566406
vn 0.859929 0.444421 -0.251023
vt -0.000000 0.873425
v -5928.698730 -1632.028198 5275.865234
vn 0.123540 0.819005 -0.560329
vt -0.000000 0.000499
f 3/3/3 1/1/1 2/2/2
f 1/1/1 3/3/3 4/4/4
f 15/15/15 16/16/16 13/13/13
f 14/14/14 13/13/13 16/16/16
f 13/13/13 14/14/14 10/10/10
f 11/11/11 10/10/10 14/14/14
f 10/10/10 11/11/11 9/9/9
f 12/12/12 9/9/9 11/11/11
f 9/9/9 12/12/12 17/17/17
f 18/18/18 17/17/17 12/12/12
f 7/7/7 5/5/5 6/6/6
f 5/5/5 7/7/7 8/8/8
