mtllib SWORDLIGHT20_JAILCEILBRACKET22.mtl
g ilCeilBracket22
usemtl BoardB
v -6686.313965 -1144.161255 5083.066406
vn 0.432969 0.894427 0.111974
vt 0.228076 0.999501
v -6537.741211 -1144.161011 4508.578613
vn 0.684834 0.707140 0.175942
vt 0.228076 0.500000
v -6566.778320 -1144.161133 4501.069336
vn -0.684323 0.707083 -0.178145
vt -0.004227 0.500000
v -6715.351074 -1144.161255 5075.557129
vn -0.865937 0.447214 -0.223947
vt -0.004226 0.999501
v -6359.956055 -1145.298584 3816.557373
vn 0.866413 0.447336 0.221856
vt 0.228076 0.000499
v -6386.782227 -1145.306885 3809.619873
vn -0.432571 0.894353 -0.114082
vt -0.004228 0.000499
v -6686.313965 -1174.153564 5083.066406
vn 0.684582 -0.707109 0.177045
vt 0.478075 0.999501
v -6715.351074 -1174.153564 5075.557129
vn -0.684584 -0.707107 -0.177046
vt 0.728076 0.999501
v -6566.778320 -1174.153442 4501.069336
vn -0.684396 -0.707105 -0.177776
vt 0.728076 0.500000
v -6537.741211 -1174.153564 4508.578613
vn 0.684969 -0.707097 0.175588
vt 0.478076 0.500000
v -6386.776367 -1173.010132 3809.618652
vn -0.684000 -0.707122 -0.179227
vt 0.728076 0.000499
v -6359.951660 -1173.012817 3816.561523
vn 0.685181 -0.707070 0.174868
vt 0.478077 0.000499
v -6715.351074 -1144.161255 5075.557129
vn -0.865937 0.447214 -0.223947
vt 0.995774 0.999501
v -6566.778320 -1144.161133 4501.069336
vn -0.684323 0.707083 -0.178145
vt 0.995773 0.500000
v -6386.782227 -1145.306885 3809.619873
vn -0.432571 0.894353 -0.114082
vt 0.995772 0.000499
v -6666.650879 -851.323242 5003.927734
vn 0.544763 0.775448 -0.319240
vt 0.228076 0.500000
v -6542.426270 -1142.650024 4508.206543
vn 0.923624 0.383252 0.006119
vt 0.228076 0.000499
v -6562.535645 -1142.670044 4503.017090
vn -0.321538 0.775530 -0.543292
vt -0.004228 0.000499
v -6694.175293 -851.302917 4996.797852
vn -0.809516 0.385199 -0.443065
vt -0.004227 0.500000
v -6671.506836 -875.803589 5022.567383
vn 0.596748 -0.618393 0.511353
vt 0.478076 0.500000
v -6698.977051 -875.798218 5015.458008
vn -0.770546 -0.617617 0.157507
vt 0.728076 0.500000
v -6570.884277 -1158.194336 4534.773438
vn -0.770616 -0.617558 0.157395
vt 0.728076 0.000499
v -6550.681641 -1158.180542 4539.987793
vn 0.596238 -0.618849 0.511396
vt 0.478077 0.000499
v -6694.175293 -851.302917 4996.797852
vn -0.809516 0.385199 -0.443065
vt 0.995773 0.500000
v -6562.535645 -1142.670044 4503.017090
vn -0.321538 0.775530 -0.543292
vt 0.995772 0.000499
v -6612.937500 -1146.412964 4798.098145
vn 0.207708 -0.137454 0.968485
vt 0.228076 0.500000
v -6620.517090 -992.998352 4821.411621
vn 0.755996 -0.061411 0.651689
vt 0.228076 0.000499
v -6646.114746 -992.992126 4814.743652
vn -0.657954 -0.136251 0.740629
vt -0.004228 0.000499
v -6641.588379 -1146.367188 4790.423828
vn -0.978180 -0.060938 0.198621
vt -0.004227 0.500000
v -6604.675293 -1144.896973 4766.166992
vn 0.858029 0.126132 -0.497873
vt 0.478076 0.500000
v -6633.166016 -1144.885498 4758.838379
vn -0.507069 0.126053 -0.852638
vt 0.728076 0.500000
v -6637.581543 -1012.104248 4781.094238
vn -0.507879 0.126533 -0.852085
vt 0.728076 0.000499
v -6611.691895 -1012.104492 4787.801758
vn 0.857851 0.126477 -0.498091
vt 0.478077 0.000499
v -6641.588379 -1146.367188 4790.423828
vn -0.978180 -0.060938 0.198621
vt 0.995773 0.500000
v -6646.114746 -992.992126 4814.743652
vn -0.657954 -0.136251 0.740629
vt 0.995772 0.000499
v -6439.125000 -851.323059 4010.578613
vn -0.544767 0.775446 0.319237
vt 0.228076 0.500000
v -6563.350098 -1142.650269 4506.299316
vn -0.923628 0.383242 -0.006126
vt 0.228076 0.000499
v -6543.240234 -1142.670044 4511.489258
vn 0.321533 0.775532 0.543292
vt -0.004228 0.000499
v -6411.600586 -851.302734 4017.708740
vn 0.809515 0.385199 0.443065
vt -0.004227 0.500000
v -6434.269043 -875.803406 3991.938965
vn -0.596742 -0.618397 -0.511355
vt 0.478076 0.500000
v -6406.798828 -875.798035 3999.048340
vn 0.770546 -0.617616 -0.157507
vt 0.728076 0.500000
v -6534.891602 -1158.194214 4479.732910
vn 0.770616 -0.617558 -0.157395
vt 0.728076 0.000499
v -6555.094238 -1158.180420 4474.518555
vn -0.596228 -0.618857 -0.511399
vt 0.478077 0.000499
v -6411.600586 -851.302734 4017.708740
vn 0.809515 0.385199 0.443065
vt 0.995773 0.500000
v -6543.240234 -1142.670044 4511.489258
vn 0.321533 0.775532 0.543292
vt 0.995772 0.000499
v -6486.757324 -1144.943604 4191.911621
vn -0.207831 0.005381 -0.978150
vt 0.228076 0.500000
v -6485.822754 -992.862488 4192.508789
vn -0.752471 0.007818 -0.658579
vt 0.228076 0.000499
v -6458.897461 -992.855591 4199.519531
vn 0.656586 0.005045 -0.754234
vt -0.004228 0.000499
v -6457.879395 -1144.926147 4199.332520
vn 0.977636 0.006560 -0.210202
vt -0.004227 0.500000
v -6494.419922 -1144.831299 4220.849609
vn -0.862915 -0.000547 0.505349
vt 0.478076 0.500000
v -6465.444336 -1144.823364 4228.572266
vn 0.504328 -0.001237 0.863511
vt 0.728076 0.500000
v -6466.419434 -1010.924500 4229.333496
vn 0.506869 -0.001762 0.862021
vt 0.728076 0.000499
v -6493.659668 -1010.946594 4222.345703
vn -0.860855 -0.000797 0.508849
vt 0.478077 0.000499
v -6457.879395 -1144.926147 4199.332520
vn 0.977636 0.006560 -0.210202
vt 0.995773 0.500000
v -6458.897461 -992.855591 4199.519531
vn 0.656586 0.005045 -0.754234
vt 0.995772 0.000499
v -6562.902344 -1144.095093 4486.120117
vn -0.208730 -0.004641 -0.977962
vt 0.228076 0.500000
v -6562.295410 -677.519836 4483.784668
vn -0.753846 -0.002311 -0.657048
vt 0.228076 0.000499
v -6533.281738 -677.520081 4491.289063
vn 0.657059 -0.004623 -0.753825
vt -0.004228 0.000499
v -6533.870605 -1144.094971 4493.647949
vn 0.977927 -0.002313 -0.208934
vt -0.004227 0.500000
v -6572.241211 -1144.060669 4522.204102
vn -0.861655 0.000311 0.507494
vt 0.478076 0.500000
v -6543.206543 -1144.060669 4529.710449
vn 0.507468 0.000308 0.861671
vt 0.728076 0.500000
v -6543.152344 -677.493774 4529.512207
vn 0.507612 0.000323 0.861586
vt 0.728076 0.000499
v -6572.190918 -677.493530 4522.007324
vn -0.861655 0.000308 0.507495
vt 0.478077 0.000499
v -6533.870605 -1144.094971 4493.647949
vn 0.977927 -0.002313 -0.208934
vt 0.995773 0.500000
v -6533.281738 -677.520081 4491.289063
vn 0.657059 -0.004623 -0.753825
vt 0.995772 0.000499
f 20/20/20 21/21/21 22/22/22
f 24/24/24 22/22/22 21/21/21
f 22/22/22 24/24/24 25/25/25
f 22/22/22 23/23/23 20/20/20
f 17/17/17 20/20/20 23/23/23
f 20/20/20 17/17/17 16/16/16
f 18/18/18 16/16/16 17/17/17
f 16/16/16 18/18/18 19/19/19
f 11/11/11 14/14/14 15/15/15
f 14/14/14 11/11/11 9/9/9
f 10/10/10 9/9/9 11/11/11
f 9/9/9 10/10/10 7/7/7
f 2/2/2 7/7/7 10/10/10
f 7/7/7 2/2/2 1/1/1
f 3/3/3 1/1/1 2/2/2
f 1/1/1 3/3/3 4/4/4
f 7/7/7 8/8/8 9/9/9
f 13/13/13 9/9/9 8/8/8
f 9/9/9 13/13/13 14/14/14
f 2/2/2 6/6/6 3/3/3
f 6/6/6 2/2/2 5/5/5
f 10/10/10 5/5/5 2/2/2
f 5/5/5 10/10/10 12/12/12
f 11/11/11 12/12/12 10/10/10
f 32/32/32 33/33/33 30/30/30
f 27/27/27 30/30/30 33/33/33
f 30/30/30 27/27/27 26/26/26
f 28/28/28 26/26/26 27/27/27
f 26/26/26 28/28/28 29/29/29
f 30/30/30 31/31/31 32/32/32
f 34/34/34 32/32/32 31/31/31
f 32/32/32 34/34/34 35/35/35
f 42/42/42 43/43/43 40/40/40
f 37/37/37 40/40/40 43/43/43
f 40/40/40 37/37/37 36/36/36
f 38/38/38 36/36/36 37/37/37
f 36/36/36 38/38/38 39/39/39
f 40/40/40 41/41/41 42/42/42
f 44/44/44 42/42/42 41/41/41
f 42/42/42 44/44/44 45/45/45
f 46/46/46 48/48/48 49/49/49
f 48/48/48 46/46/46 47/47/47
f 50/50/50 47/47/47 46/46/46
f 47/47/47 50/50/50 53/53/53
f 52/52/52 53/53/53 50/50/50
f 50/50/50 51/51/51 52/52/52
f 54/54/54 52/52/52 51/51/51
f 52/52/52 54/54/54 55/55/55
f 62/62/62 63/63/63 60/60/60
f 57/57/57 60/60/60 63/63/63
f 60/60/60 57/57/57 56/56/56
f 58/58/58 56/56/56 57/57/57
f 56/56/56 58/58/58 59/59/59
f 60/60/60 61/61/61 62/62/62
f 64/64/64 62/62/62 61/61/61
f 62/62/62 64/64/64 65/65/65
