mtllib SWORDLIGHT20_PS-AREA04_22.mtl
g PS-Area04_22
usemtl RockwallA
v -7679.188965 -1630.275391 2750.758545
vn 0.783728 0.055206 0.618646
vt 1.000000 0.000000
v -7805.096191 -1630.177002 2960.138184
vn 0.837660 0.077547 0.540659
vt 0.500000 0.000000
v -7784.802246 -1811.364868 2987.644043
vn 0.724172 0.310170 0.615930
vt 0.500000 0.500000
v -7638.812988 -1808.229004 2805.562988
vn 0.633601 0.510953 0.580927
vt 1.000000 0.500000
v -7931.003418 -1814.797241 3169.517578
vn 0.602988 0.046816 0.796376
vt 0.000000 0.500000
v -7931.003418 -1630.078491 3169.517822
vn 0.887679 -0.172910 0.426765
vt 0.000000 0.000000
v -7388.697754 -1630.485596 2433.231201
vn 0.618434 0.122523 0.776227
vt 1.000000 0.000000
v -7533.943848 -1630.380493 2591.994873
vn 0.733830 0.097366 0.672320
vt 0.500000 0.000000
v -7489.632813 -1808.635376 2645.128906
vn 0.615345 0.542409 0.571963
vt 0.500000 0.500000
v -7340.170410 -1808.635620 2484.970947
vn 0.595379 0.497302 0.631042
vt 1.000000 0.500000
v -7638.812988 -1808.229004 2805.562988
vn 0.633601 0.510953 0.580927
vt 0.000000 0.500000
v -7679.188965 -1630.275391 2750.758545
vn 0.783728 0.055206 0.618646
vt 0.000000 0.000000
v -7340.170410 -1808.635620 2484.970947
vn 0.595379 0.497302 0.631042
vt 0.000000 0.500000
v -7192.215820 -1817.356567 2346.952148
vn 0.660151 0.303653 0.687019
vt 0.500000 0.500000
v -7188.019043 -1632.203735 2331.515381
vn 0.533929 0.043770 0.844395
vt 0.500000 0.000000
v -7388.697754 -1630.485596 2433.231201
vn 0.618434 0.122523 0.776227
vt 0.000000 0.000000
v -7679.188965 -1630.275391 2750.758545
vn 0.783728 0.055206 0.618646
vt 0.996667 1.000000
v -7673.766113 -1411.024536 2803.042969
vn 0.706879 -0.250899 0.661341
vt 0.996667 0.500000
v -7821.812012 -1406.067993 2978.802246
vn 0.804052 -0.083709 0.588637
vt 0.496667 0.500000
v -7805.096191 -1630.177002 2960.138184
vn 0.837660 0.077547 0.540659
vt 0.496667 1.000000
v -7808.761230 -1187.831299 3013.277344
vn 0.667322 -0.343064 0.661051
vt 0.496667 0.000000
v -7643.453613 -1197.554565 2879.573975
vn 0.623656 -0.411093 0.664873
vt 0.996667 0.000000
v -7931.003418 -1197.368896 3169.517822
vn 0.951024 -0.246655 0.186319
vt -0.003333 0.000000
v -7948.325684 -1410.741943 3165.830566
vn 0.991064 0.024406 0.131137
vt -0.003333 0.500000
v -7931.003418 -1630.078491 3169.517822
vn 0.887679 -0.172910 0.426765
vt -0.003333 1.000000
v -6993.910156 -1198.452759 2223.356445
vn 0.374965 -0.295614 0.878643
vt -0.000000 0.003333
v -6991.654785 -1412.594116 2214.259277
vn 0.363373 0.041851 0.930703
vt 0.000000 0.503333
v -6745.396484 -1369.082642 2163.598633
vn 0.146968 0.028765 0.988723
vt 0.500000 0.503333
v -6737.742188 -1187.793701 2164.200928
vn 0.109419 -0.302571 0.946825
vt 0.500000 0.003333
v -6476.567383 -1412.857056 2146.759277
vn 0.045172 0.010022 0.998929
vt 1.000000 0.503333
v -6470.864258 -1197.368652 2149.816406
vn 0.001547 -0.300988 0.953627
vt 1.000000 0.003333
v -6993.910156 -1198.452759 2223.356445
vn 0.374965 -0.295614 0.878643
vt -0.003333 1.003333
v -6737.742188 -1187.793701 2164.200928
vn 0.109419 -0.302571 0.946825
vt 0.496667 1.003333
v -6689.659668 -975.226440 2308.937744
vn 0.111533 -0.713356 0.691869
vt 0.496667 0.503333
v -6909.195801 -982.048279 2354.361816
vn 0.315675 -0.724063 0.613255
vt -0.003333 0.503333
v -6464.325195 -983.944763 2288.027344
vn -0.013756 -0.695002 0.718876
vt 0.996667 0.503333
v -6470.864258 -1197.368652 2149.816406
vn 0.001547 -0.300988 0.953627
vt 0.996667 1.003333
v -6993.910156 -1198.452759 2223.356445
vn 0.374965 -0.295614 0.878643
vt 0.996667 0.003333
v -7174.712402 -1190.595825 2369.804199
vn 0.597685 -0.402967 0.693102
vt 0.496667 0.003333
v -7187.174316 -1408.465332 2339.235352
vn 0.546900 -0.081507 0.833221
vt 0.496667 0.503333
v -6991.654785 -1412.594116 2214.259277
vn 0.363373 0.041851 0.930703
vt 0.996667 0.503333
v -7376.181641 -1410.474731 2474.784668
vn 0.672450 -0.225222 0.705044
vt -0.003333 0.503333
v -7335.916504 -1197.774658 2543.841553
vn 0.657086 -0.440234 0.611908
vt -0.003333 0.003333
v -7388.697754 -1630.485596 2433.231201
vn 0.618434 0.122523 0.776227
vt -0.003333 1.003333
v -7188.019043 -1632.203735 2331.515381
vn 0.533929 0.043770 0.844395
vt 0.496667 1.003333
v -7335.916504 -1197.774658 2543.841553
vn 0.657086 -0.440234 0.611908
vt 0.996667 0.003333
v -7490.318848 -1197.273193 2711.091064
vn 0.665330 -0.416833 0.619344
vt 0.496667 0.003333
v -7525.291016 -1410.553955 2638.605713
vn 0.715349 -0.253047 0.651340
vt 0.496667 0.503333
v -7376.181641 -1410.474731 2474.784668
vn 0.672450 -0.225222 0.705044
vt 0.996667 0.503333
v -7673.766113 -1411.024536 2803.042969
vn 0.706879 -0.250899 0.661341
vt -0.003333 0.503333
v -7643.453613 -1197.554565 2879.573975
vn 0.623656 -0.411093 0.664873
vt -0.003333 0.003333
v -7679.188965 -1630.275391 2750.758545
vn 0.783728 0.055206 0.618646
vt -0.003333 1.003333
v -7533.943848 -1630.380493 2591.994873
vn 0.733830 0.097366 0.672320
vt 0.496667 1.003333
v -7388.697754 -1630.485596 2433.231201
vn 0.618434 0.122523 0.776227
vt 0.996667 1.003333
v -7335.916504 -1197.774658 2543.841553
vn 0.657086 -0.440234 0.611908
vt -0.003333 1.003333
v -7174.712402 -1190.595825 2369.804199
vn 0.597685 -0.402967 0.693102
vt 0.496667 1.003333
v -7079.937500 -977.684875 2485.749512
vn 0.463041 -0.710343 0.530099
vt 0.496667 0.503333
v -7239.980469 -985.318848 2632.464600
vn 0.513745 -0.674989 0.529581
vt -0.003333 0.503333
v -6909.195801 -982.048279 2354.361816
vn 0.315675 -0.724063 0.613255
vt 0.996667 0.503333
v -6993.910156 -1198.452759 2223.356445
vn 0.374965 -0.295614 0.878643
vt 0.996667 1.003333
v -7643.453613 -1197.554565 2879.573975
vn 0.623656 -0.411093 0.664873
vt -0.003333 1.003333
v -7490.318848 -1197.273193 2711.091064
vn 0.665330 -0.416833 0.619344
vt 0.496667 1.003333
v -7394.395996 -986.341003 2781.902344
vn 0.537562 -0.642555 0.546032
vt 0.496667 0.503333
v -7547.868652 -988.792542 2932.326172
vn 0.518507 -0.612151 0.597011
vt -0.003333 0.503333
v -7239.980469 -985.318848 2632.464600
vn 0.513745 -0.674989 0.529581
vt 0.996667 0.503333
v -7335.916504 -1197.774658 2543.841553
vn 0.657086 -0.440234 0.611908
vt 0.996667 1.003333
v -7931.003418 -1197.368896 3169.517822
vn 0.951024 -0.246655 0.186319
vt -0.003333 1.003333
v -7808.761230 -1187.831299 3013.277344
vn 0.667322 -0.343064 0.661051
vt 0.496667 1.003333
v -7703.715332 -980.035522 3067.609619
vn 0.566730 -0.615002 0.548261
vt 0.496667 0.503333
v -7830.649902 -995.567505 3217.830566
vn 0.750615 -0.631151 0.195516
vt -0.003333 0.503333
v -7547.868652 -988.792542 2932.326172
vn 0.518507 -0.612151 0.597011
vt 0.996667 0.503333
v -7643.453613 -1197.554565 2879.573975
vn 0.623656 -0.411093 0.664873
vt 0.996667 1.003333
v -7931.003418 -1999.515991 3169.517578
vn 0.259509 0.813614 0.520276
vt 0.000000 1.000000
v -7814.933105 -1970.012085 3109.315430
vn 0.312854 0.669513 0.673702
vt 0.250000 1.000000
v -7846.944824 -1901.188721 3091.119629
vn 0.614245 0.285927 0.735492
vt 0.250000 0.750000
v -7931.003418 -1907.156616 3169.517578
vn 0.546500 0.000000 0.837459
vt 0.000000 0.750000
v -7725.202637 -1962.676758 3040.568848
vn 0.393548 0.742992 0.541371
vt 0.500000 1.000000
v -7762.926270 -1895.276489 3012.682617
vn 0.585712 0.468058 0.661712
vt 0.500000 0.750000
v -7678.987793 -1889.475464 2934.167969
vn 0.534808 0.591771 0.603148
vt 0.750000 0.750000
v -7597.177246 -1885.217285 2855.054688
vn 0.508530 0.676968 0.532082
vt 1.000000 0.750000
v -7635.563965 -1955.465820 2971.731445
vn 0.366199 0.767431 0.526258
vt 0.750000 1.000000
v -7549.460449 -1950.230103 2900.152588
vn 0.403775 0.788763 0.463485
vt 1.000000 1.000000
v -7549.460449 -1950.230103 2900.152588
vn 0.403775 0.788763 0.463485
vt 0.000000 1.000000
v -7470.337402 -1948.820190 2823.180664
vn 0.424675 0.799428 0.424932
vt 0.250000 1.000000
v -7519.547363 -1883.933228 2774.822266
vn 0.516710 0.695651 0.499080
vt 0.250000 0.750000
v -7597.177246 -1885.217285 2855.054688
vn 0.508530 0.676968 0.532082
vt 0.000000 0.750000
v -7394.641602 -1949.234497 2743.572754
vn 0.434903 0.801612 0.410216
vt 0.500000 1.000000
v -7443.954590 -1884.060181 2694.081543
vn 0.522772 0.697812 0.489661
vt 0.500000 0.750000
v -7368.255371 -1884.034912 2613.444824
vn 0.521942 0.702952 0.483151
vt 0.750000 0.750000
v -7294.035645 -1885.038086 2533.387451
vn 0.540247 0.694530 0.475144
vt 1.000000 0.750000
v -7318.821777 -1949.471069 2664.085693
vn 0.438259 0.803226 0.403432
vt 0.750000 1.000000
v -7245.281250 -1950.480957 2583.822510
vn 0.451372 0.803966 0.387172
vt 1.000000 1.000000
v -7245.281250 -1950.480957 2583.822510
vn 0.451372 0.803966 0.387172
vt 0.000000 1.000000
v -7176.420410 -1953.214966 2501.885254
vn 0.484873 0.801269 0.350523
vt 0.250000 1.000000
v -7222.880371 -1888.250366 2454.386230
vn 0.578215 0.663281 0.475106
vt 0.250000 0.750000
v -7294.035645 -1885.038086 2533.387451
vn 0.540247 0.694530 0.475144
vt 0.000000 0.750000
v -7111.061035 -1959.325928 2418.443604
vn 0.506761 0.797131 0.328292
vt 0.500000 1.000000
v -7154.414551 -1894.655273 2375.182617
vn 0.639513 0.605110 0.474200
vt 0.500000 0.750000
v -7062.666992 -1828.372681 2203.706055
vn 0.963679 0.042239 0.263703
vt 1.000000 0.500000
v -7109.947266 -1822.034912 2280.134521
vn 0.747818 0.150928 0.646521
vt 0.750000 0.500000
v -7088.261719 -1905.235962 2294.518066
vn 0.734287 0.502849 0.456032
vt 0.750000 0.750000
v -7047.261230 -1913.576050 2210.197754
vn 0.889289 0.432671 0.148189
vt 1.000000 0.750000
v -7048.023438 -1970.466309 2333.666992
vn 0.571386 0.778589 0.259455
vt 0.750000 1.000000
v -6984.460449 -1990.759155 2230.977051
vn 0.518928 0.851577 0.074362
vt 1.000000 1.000000
v -6997.281738 -1625.455811 2211.389648
vn 0.591672 -0.326522 0.737094
vt 1.000000 0.000000
v -7094.702637 -1628.431641 2277.035645
vn 0.532372 -0.046654 0.845224
vt 0.750000 0.000000
v -7106.690918 -1729.254028 2276.178467
vn 0.675320 -0.084471 0.732672
vt 0.750000 0.250000
v -7049.717773 -1733.569336 2206.240723
vn 0.890184 -0.282958 0.357082
vt 1.000000 0.250000
v -6754.711914 -1551.139893 2153.505127
vn 0.111377 -0.649496 0.752163
vt 0.500000 1.003333
v -6743.936523 -1476.368530 2172.917969
vn 0.135398 -0.090961 0.986607
vt 0.500000 0.753333
v -6870.140625 -1491.572632 2194.091309
vn 0.244210 -0.099209 0.964634
vt 0.250000 0.753333
v -6878.299805 -1569.638062 2174.654297
vn 0.354984 -0.635664 0.685505
vt 0.250000 1.003333
v -6986.473633 -1514.108887 2227.199707
vn 0.356542 -0.015152 0.934157
vt 0.000000 0.753333
v -6997.281738 -1625.455811 2211.389648
vn 0.591672 -0.326522 0.737094
vt 0.000000 1.003333
v -6482.246582 -1624.934692 2133.095703
vn -0.234045 -0.377731 0.895847
vt 1.000000 1.003333
v -6481.330566 -1514.105713 2150.252686
vn 0.045872 -0.060989 0.997084
vt 1.000000 0.753333
v -6610.607422 -1491.367432 2158.831055
vn 0.054623 -0.112033 0.992202
vt 0.750000 0.753333
v -6623.439453 -1569.398438 2138.012207
vn -0.095007 -0.597084 0.796533
vt 0.750000 1.003333
v -7090.189453 -1521.106445 2277.091797
vn 0.498371 -0.018497 0.866767
vt 0.746667 0.753333
v -6986.473633 -1514.108887 2227.199707
vn 0.356542 -0.015152 0.934157
vt 0.996667 0.753333
v -7094.702637 -1628.431641 2277.035645
vn 0.532372 -0.046654 0.845224
vt 0.746667 1.003333
v -6997.281738 -1625.455811 2211.389648
vn 0.591672 -0.326522 0.737094
vt 0.996667 1.003333
f 8/8/8 12/12/12 11/11/11
f 85/85/85 86/86/86 83/83/83
f 86/86/86 85/85/85 11/11/11
f 9/9/9 11/11/11 85/85/85
f 11/11/11 9/9/9 8/8/8
f 7/7/7 8/8/8 9/9/9
f 9/9/9 10/10/10 7/7/7
f 83/83/83 84/84/84 85/85/85
f 90/90/90 10/10/10 89/89/89
f 9/9/9 89/89/89 10/10/10
f 89/89/89 9/9/9 88/88/88
f 85/85/85 88/88/88 9/9/9
f 88/88/88 85/85/85 87/87/87
f 84/84/84 87/87/87 85/85/85
f 89/89/89 88/88/88 87/87/87
f 89/89/89 92/92/92 90/90/90
f 92/92/92 89/89/89 91/91/91
f 87/87/87 91/91/91 89/89/89
f 13/13/13 15/15/15 16/16/16
f 15/15/15 13/13/13 14/14/14
f 95/95/95 14/14/14 13/13/13
f 14/14/14 95/95/95 98/98/98
f 97/97/97 98/98/98 95/95/95
f 98/98/98 97/97/97 101/101/101
f 103/103/103 101/101/101 97/97/97
f 101/101/101 103/103/103 104/104/104
f 14/14/14 98/98/98 101/101/101
f 95/95/95 94/94/94 97/97/97
f 104/104/104 102/102/102 101/101/101
f 95/95/95 93/93/93 94/94/94
f 93/93/93 95/95/95 96/96/96
f 13/13/13 96/96/96 95/95/95
f 106/106/106 15/15/15 107/107/107
f 14/14/14 107/107/107 15/15/15
f 107/107/107 14/14/14 100/100/100
f 101/101/101 100/100/100 14/14/14
f 100/100/100 101/101/101 99/99/99
f 102/102/102 99/99/99 101/101/101
f 107/107/107 100/100/100 99/99/99
f 107/107/107 105/105/105 106/106/106
f 105/105/105 107/107/107 108/108/108
f 99/99/99 108/108/108 107/107/107
f 111/111/111 113/113/113 114/114/114
f 113/113/113 111/111/111 27/27/27
f 28/28/28 27/27/27 111/111/111
f 27/27/27 28/28/28 26/26/26
f 29/29/29 26/26/26 28/28/28
f 114/114/114 112/112/112 111/111/111
f 30/30/30 29/29/29 28/28/28
f 29/29/29 30/30/30 31/31/31
f 116/116/116 30/30/30 117/117/117
f 28/28/28 117/117/117 30/30/30
f 117/117/117 28/28/28 110/110/110
f 111/111/111 110/110/110 28/28/28
f 110/110/110 111/111/111 109/109/109
f 112/112/112 109/109/109 111/111/111
f 117/117/117 110/110/110 109/109/109
f 109/109/109 118/118/118 117/117/117
f 115/115/115 117/117/117 118/118/118
f 117/117/117 115/115/115 116/116/116
f 79/79/79 81/81/81 82/82/82
f 81/81/81 79/79/79 77/77/77
f 78/78/78 77/77/77 79/79/79
f 77/77/77 78/78/78 75/75/75
f 3/3/3 75/75/75 78/78/78
f 75/75/75 3/3/3 5/5/5
f 2/2/2 5/5/5 3/3/3
f 5/5/5 2/2/2 6/6/6
f 3/3/3 78/78/78 79/79/79
f 75/75/75 74/74/74 77/77/77
f 75/75/75 73/73/73 74/74/74
f 73/73/73 75/75/75 76/76/76
f 5/5/5 76/76/76 75/75/75
f 3/3/3 1/1/1 2/2/2
f 1/1/1 3/3/3 4/4/4
f 79/79/79 4/4/4 3/3/3
f 4/4/4 79/79/79 80/80/80
f 82/82/82 80/80/80 79/79/79
f 119/119/119 121/121/121 122/122/122
f 121/121/121 119/119/119 45/45/45
f 40/40/40 45/45/45 119/119/119
f 45/45/45 40/40/40 44/44/44
f 42/42/42 44/44/44 40/40/40
f 39/39/39 42/42/42 40/40/40
f 42/42/42 39/39/39 43/43/43
f 40/40/40 38/38/38 39/39/39
f 38/38/38 40/40/40 41/41/41
f 119/119/119 41/41/41 40/40/40
f 41/41/41 119/119/119 120/120/120
f 122/122/122 120/120/120 119/119/119
f 51/51/51 50/50/50 47/47/47
f 48/48/48 47/47/47 50/50/50
f 47/47/47 48/48/48 46/46/46
f 49/49/49 46/46/46 48/48/48
f 54/54/54 49/49/49 53/53/53
f 48/48/48 53/53/53 49/49/49
f 53/53/53 48/48/48 52/52/52
f 50/50/50 52/52/52 48/48/48
f 37/37/37 36/36/36 33/33/33
f 34/34/34 33/33/33 36/36/36
f 33/33/33 34/34/34 32/32/32
f 35/35/35 32/32/32 34/34/34
f 60/60/60 59/59/59 56/56/56
f 57/57/57 56/56/56 59/59/59
f 56/56/56 57/57/57 55/55/55
f 58/58/58 55/55/55 57/57/57
f 66/66/66 65/65/65 62/62/62
f 63/63/63 62/62/62 65/65/65
f 62/62/62 63/63/63 61/61/61
f 64/64/64 61/61/61 63/63/63
f 72/72/72 71/71/71 68/68/68
f 69/69/69 68/68/68 71/71/71
f 68/68/68 69/69/69 67/67/67
f 70/70/70 67/67/67 69/69/69
f 22/22/22 21/21/21 18/18/18
f 19/19/19 18/18/18 21/21/21
f 18/18/18 19/19/19 17/17/17
f 20/20/20 17/17/17 19/19/19
f 25/25/25 20/20/20 24/24/24
f 19/19/19 24/24/24 20/20/20
f 24/24/24 19/19/19 23/23/23
f 21/21/21 23/23/23 19/19/19
