mtllib SWORDLIGHT20_PS-AREA03_134.mtl
g PS-Area03_134
usemtl 3-edge
v -968.127625 -3471.427002 492.094666
vn -0.305366 0.620087 -0.722664
vt -0.000341 0.002732
v -912.147888 -3506.760742 416.041656
vn -0.596134 0.701544 -0.390463
vt 0.001276 0.244251
v -1016.539246 -3538.974854 412.414124
vn -0.109368 0.932187 -0.345059
vt 0.169161 0.163342
v -1075.307739 -3497.724609 487.675659
vn 0.096138 0.662459 -0.742903
vt 0.252296 0.002128
v -920.385559 -3541.648193 218.040939
vn -0.645470 0.763333 -0.026289
vt 0.002892 0.485771
v -1076.330078 -3557.494141 313.074036
vn -0.027110 0.987790 -0.153412
vt 0.251286 0.246625
v -1262.513916 -3526.261475 369.215881
vn 0.298580 0.761725 -0.574999
vt 0.504933 0.001525
v -968.986572 -3483.924316 -168.477249
vn -0.651337 0.654674 0.383617
vt 0.003991 0.995911
v -1091.469727 -3548.062500 -121.359367
vn -0.212274 0.948970 0.233229
vt 0.240323 0.758101
v -1008.739258 -3558.381836 3.960435
vn -0.282022 0.944871 0.166381
vt 0.161179 0.667325
v -911.907166 -3510.145508 11.187235
vn -0.753006 0.628293 0.195523
vt 0.003441 0.740841
v -1259.585815 -3579.117676 0.094978
vn 0.030317 0.997942 0.056509
vt 0.476655 0.520292
v -1068.530029 -3576.900879 105.848015
vn -0.119070 0.992884 0.002151
vt 0.242221 0.502312
v -1664.475830 -3486.359619 127.742203
vn 0.308576 0.872668 -0.378459
vt 0.996531 0.001061
v -1476.790527 -3498.981201 266.748260
vn 0.416313 0.703556 -0.575928
vt 0.750732 0.001293
v -1419.714600 -3550.796875 185.440811
vn 0.219206 0.957121 -0.189389
vt 0.659373 0.174292
v -1481.188721 -3546.625244 44.588039
vn 0.219208 0.975395 -0.023502
vt 0.736593 0.260676
v -1279.505371 -3569.315918 198.519913
vn 0.093092 0.984675 -0.147473
vt 0.492280 0.257993
v -1139.163208 -3574.076904 207.550232
vn -0.015973 0.992396 -0.122047
vt 0.328160 0.335862
v -1664.475830 -3486.359619 127.742203
vn 0.308576 0.872668 -0.378459
vt 0.996667 0.003333
v -1712.195313 -3496.089600 -110.831352
vn 0.156199 0.987343 -0.027494
vt 0.748542 0.003333
v -1858.708496 -3476.890137 -94.369171
vn 0.090011 0.994672 -0.050264
vt 0.748542 0.251458
v -1838.975098 -3453.398193 94.866821
vn 0.137377 0.883432 -0.447969
vt 0.996667 0.251458
v -1739.775391 -3487.873291 -350.192261
vn 0.141845 0.989889 0.000060
vt 0.500417 0.003333
v -1879.811523 -3471.552979 -330.815826
vn 0.073851 0.997262 -0.003741
vt 0.499479 0.251458
v -2006.102539 -3467.399902 -304.789642
vn -0.021134 0.999761 0.005591
vt 0.499479 0.500521
v -1985.614258 -3472.048828 -80.463882
vn -0.028600 0.998202 -0.052679
vt 0.748542 0.500521
v -1967.619141 -3448.477051 97.207626
vn -0.050245 0.888514 -0.456091
vt 0.996667 0.499583
v -2051.623535 -3529.367188 -700.912598
vn -0.249963 0.748357 -0.614395
vt -0.003333 0.499583
v -2027.815186 -3470.291992 -527.434631
vn -0.072711 0.984470 -0.159787
vt 0.248542 0.500521
v -1896.767090 -3475.718994 -562.452942
vn 0.036231 0.985243 -0.167280
vt 0.248542 0.251458
v -1912.468262 -3533.798584 -741.290466
vn -0.087926 0.761680 -0.641960
vt -0.003333 0.251458
v -1757.858398 -3490.860840 -582.748962
vn 0.104378 0.980582 -0.166022
vt 0.248542 0.003333
v -1769.997803 -3547.287354 -760.698975
vn 0.055220 0.751688 -0.657203
vt -0.003333 0.003333
v -2243.291016 -3591.995850 -567.161804
vn -0.847285 0.478546 -0.230437
vt -0.003333 1.003333
v -2239.354004 -3549.095459 -435.779755
vn -0.840889 0.541118 -0.009813
vt 0.248542 1.003333
v -2148.064453 -3479.642822 -475.599640
vn -0.411538 0.905648 -0.102166
vt 0.248542 0.751458
v -2178.424805 -3539.111084 -642.641602
vn -0.590223 0.658648 -0.466711
vt -0.003333 0.751458
v -2206.583252 -3547.409180 -227.395844
vn -0.844508 0.522265 0.118518
vt 0.500417 1.003333
v -2121.644531 -3477.438965 -260.237976
vn -0.365955 0.929683 0.042020
vt 0.499479 0.751458
v -2101.820313 -3480.814209 -46.324318
vn -0.362460 0.931170 -0.039311
vt 0.748542 0.751458
v -2086.549316 -3455.358643 120.191124
vn -0.387874 0.822832 -0.415332
vt 0.996667 0.751458
v -2185.094971 -3550.172607 -19.697145
vn -0.871930 0.489572 -0.007593
vt 0.748542 1.003333
v -2190.755371 -3514.163818 181.249664
vn -0.852643 0.365941 -0.372943
vt 0.996667 1.003333
f 31/31/31 32/32/32 29/29/29
f 32/32/32 31/31/31 34/34/34
f 33/33/33 34/34/34 31/31/31
f 37/37/37 29/29/29 38/38/38
f 29/29/29 37/37/37 30/30/30
f 37/37/37 36/36/36 39/39/39
f 36/36/36 37/37/37 35/35/35
f 38/38/38 35/35/35 37/37/37
f 30/30/30 31/31/31 29/29/29
f 31/31/31 30/30/30 26/26/26
f 37/37/37 26/26/26 30/30/30
f 26/26/26 37/37/37 40/40/40
f 39/39/39 40/40/40 37/37/37
f 40/40/40 39/39/39 41/41/41
f 43/43/43 41/41/41 39/39/39
f 41/41/41 43/43/43 44/44/44
f 41/41/41 26/26/26 40/40/40
f 26/26/26 41/41/41 27/27/27
f 31/31/31 24/24/24 33/33/33
f 24/24/24 31/31/31 25/25/25
f 26/26/26 25/25/25 31/31/31
f 25/25/25 26/26/26 22/22/22
f 27/27/27 22/22/22 26/26/26
f 22/22/22 27/27/27 28/28/28
f 41/41/41 28/28/28 27/27/27
f 28/28/28 41/41/41 42/42/42
f 44/44/44 42/42/42 41/41/41
f 22/22/22 24/24/24 25/25/25
f 24/24/24 22/22/22 21/21/21
f 20/20/20 21/21/21 22/22/22
f 22/22/22 23/23/23 20/20/20
f 23/23/23 22/22/22 28/28/28
f 16/16/16 12/12/12 17/17/17
f 12/12/12 16/16/16 18/18/18
f 7/7/7 18/18/18 16/16/16
f 18/18/18 7/7/7 19/19/19
f 6/6/6 19/19/19 7/7/7
f 19/19/19 6/6/6 5/5/5
f 3/3/3 5/5/5 6/6/6
f 5/5/5 3/3/3 2/2/2
f 1/1/1 2/2/2 3/3/3
f 6/6/6 7/7/7 3/3/3
f 4/4/4 3/3/3 7/7/7
f 3/3/3 4/4/4 1/1/1
f 16/16/16 15/15/15 7/7/7
f 14/14/14 16/16/16 17/17/17
f 16/16/16 14/14/14 15/15/15
f 10/10/10 11/11/11 8/8/8
f 11/11/11 10/10/10 5/5/5
f 13/13/13 5/5/5 10/10/10
f 5/5/5 13/13/13 19/19/19
f 12/12/12 19/19/19 13/13/13
f 19/19/19 12/12/12 18/18/18
f 8/8/8 9/9/9 10/10/10
f 12/12/12 10/10/10 9/9/9
f 10/10/10 12/12/12 13/13/13
usemtl 1edgecorner3
v -1769.997803 -3547.287354 -760.698975
vn 0.055220 0.751688 -0.657203
vt 0.991836 0.003333
v -1757.858398 -3490.860840 -582.748962
vn 0.104378 0.980582 -0.166022
vt 0.991836 0.249043
v -1614.027344 -3510.654297 -590.416931
vn 0.110596 0.979930 -0.165846
vt 0.746730 0.249043
v -1633.252197 -3564.715088 -756.061584
vn 0.114369 0.735169 -0.668167
vt 0.746730 0.003333
v -1739.775391 -3487.873291 -350.192261
vn 0.141845 0.989889 0.000060
vt 0.991836 0.494752
v -1582.998779 -3514.334717 -374.794647
vn 0.134683 0.990676 0.020536
vt 0.746730 0.495690
v -1425.154297 -3529.412354 -407.887634
vn 0.007729 0.997706 0.067257
vt 0.500687 0.495690
v -1474.672852 -3521.255127 -598.999512
vn -0.028383 0.988430 -0.148999
vt 0.500687 0.249043
v -1505.808838 -3575.874023 -746.893982
vn 0.026648 0.711326 -0.702357
vt 0.501624 0.003333
v -1259.585815 -3579.117676 0.094978
vn 0.030317 0.997942 0.056509
vt 0.501624 0.993672
v -1355.550537 -3550.870850 -211.652771
vn 0.030887 0.993677 0.107945
vt 0.500687 0.744212
v -1537.167969 -3530.398193 -152.641724
vn 0.172167 0.984800 0.022964
vt 0.746730 0.744212
v -1481.188721 -3546.625244 44.588039
vn 0.219208 0.975395 -0.023502
vt 0.746730 0.993672
v -1712.195313 -3496.089600 -110.831352
vn 0.156199 0.987343 -0.027494
vt 0.991836 0.744212
v -1664.475830 -3486.359619 127.742203
vn 0.308576 0.872668 -0.378459
vt 0.991836 0.993672
v -968.986572 -3483.924316 -168.477249
vn -0.651337 0.654674 0.383617
vt 0.003913 0.993672
v -1070.268433 -3464.124023 -333.221741
vn -0.591634 0.669416 0.449279
vt 0.003913 0.744212
v -1189.267578 -3528.562256 -279.716980
vn -0.215321 0.948872 0.230824
vt 0.252769 0.744212
v -1091.469727 -3548.062500 -121.359367
vn -0.212274 0.948970 0.233229
vt 0.252769 0.993672
v -1179.547485 -3454.667725 -489.365295
vn -0.645786 0.645014 0.408555
vt 0.003913 0.494752
v -1281.914795 -3511.581055 -452.735840
vn -0.253026 0.952202 0.171141
vt 0.252769 0.495690
v -1349.193604 -3508.818604 -622.039368
vn -0.304228 0.949001 -0.082717
vt 0.252769 0.249043
v -1391.245361 -3570.556885 -752.711670
vn -0.327941 0.664914 -0.671077
vt 0.252769 0.003333
v -1260.618774 -3459.477783 -643.226868
vn -0.765622 0.623897 0.156767
vt 0.003913 0.249043
v -1297.030151 -3518.261963 -790.475159
vn -0.834518 0.335584 -0.436993
vt 0.003913 0.003333
f 47/47/47 46/46/46 49/49/49
f 46/46/46 47/47/47 45/45/45
f 48/48/48 45/45/45 47/47/47
f 56/56/56 58/58/58 59/59/59
f 58/58/58 56/56/56 49/49/49
f 50/50/50 49/49/49 56/56/56
f 56/56/56 57/57/57 54/54/54
f 57/57/57 56/56/56 59/59/59
f 50/50/50 47/47/47 49/49/49
f 47/47/47 50/50/50 51/51/51
f 56/56/56 51/51/51 50/50/50
f 51/51/51 56/56/56 55/55/55
f 54/54/54 55/55/55 56/56/56
f 55/55/55 54/54/54 62/62/62
f 63/63/63 62/62/62 54/54/54
f 62/62/62 63/63/63 60/60/60
f 62/62/62 51/51/51 55/55/55
f 51/51/51 62/62/62 65/65/65
f 47/47/47 53/53/53 48/48/48
f 53/53/53 47/47/47 52/52/52
f 51/51/51 52/52/52 47/47/47
f 52/52/52 51/51/51 66/66/66
f 65/65/65 66/66/66 51/51/51
f 66/66/66 65/65/65 64/64/64
f 62/62/62 64/64/64 65/65/65
f 64/64/64 62/62/62 61/61/61
f 60/60/60 61/61/61 62/62/62
f 66/66/66 53/53/53 52/52/52
f 53/53/53 66/66/66 67/67/67
f 66/66/66 69/69/69 67/67/67
f 69/69/69 66/66/66 68/68/68
f 64/64/64 68/68/68 66/66/66
