mtllib SWORDLIGHT20_PS-AREA03_138.mtl
g PS-Area03_138
usemtl 3-edge
v -5279.211426 -1993.692871 -2768.577637
vn -0.484233 0.176017 0.857051
vt 0.000000 1.003333
v -5362.824219 -1925.665283 -2890.059570
vn -0.679010 0.557979 0.477079
vt 0.000000 0.751458
v -5467.113770 -1981.787598 -2892.140381
vn -0.237659 0.880646 0.409854
vt 0.248125 0.751458
v -5524.004395 -1979.951904 -3029.104492
vn -0.218164 0.974504 0.052415
vt 0.248125 0.500521
v -5666.031250 -1978.205444 -3023.480957
vn 0.010263 0.999717 -0.021461
vt 0.497188 0.500521
v -5601.704102 -1980.416382 -2897.750977
vn -0.003006 0.932204 0.361921
vt 0.497187 0.751458
v -5412.246582 -1924.404907 -3036.274414
vn -0.739740 0.652748 0.163417
vt 0.000000 0.499583
v -5415.150879 -2054.274170 -2801.708496
vn -0.225403 0.388096 0.893630
vt 0.248125 1.003333
v -5545.181152 -2053.693604 -2814.247559
vn -0.065145 0.426131 0.902313
vt 0.496250 1.003333
v -5739.322754 -1979.568604 -2900.084961
vn -0.212120 0.816685 0.536684
vt 0.748125 0.751458
v -5812.176758 -1975.990234 -3015.403320
vn -0.106523 0.993188 0.047224
vt 0.748125 0.500521
v -5959.225586 -2007.773438 -3036.340332
vn -0.611276 0.561100 0.558130
vt 1.000000 0.499583
v -5840.220703 -2047.484009 -2904.828125
vn -0.549633 0.294002 0.781963
vt 1.000000 0.751458
v -5677.269531 -2054.469727 -2823.166260
vn -0.240492 0.312938 0.918822
vt 0.748125 1.003333
v -5765.565430 -2106.467773 -2850.281250
vn -0.434797 0.160869 0.886043
vt 1.000000 1.003333
v -5871.438477 -1982.819336 -3141.966309
vn -0.010420 0.999889 -0.010674
vt 0.748125 0.251458
v -5902.544434 -1991.023315 -3252.984863
vn 0.019870 0.998983 -0.040465
vt 0.748125 0.003333
v -6085.423340 -1986.173584 -3241.440186
vn 0.022122 0.999542 -0.020651
vt 1.000000 0.003333
v -6032.613281 -1978.982544 -3120.490967
vn 0.037880 0.993560 0.106785
vt 1.000000 0.251458
v -5712.867188 -1985.925781 -3162.626221
vn 0.006976 0.997920 -0.064086
vt 0.497187 0.251458
v -5730.088379 -1995.782227 -3304.263184
vn 0.015793 0.999730 -0.017039
vt 0.496250 0.003333
v -5559.504395 -1987.571655 -3181.654297
vn -0.215454 0.976089 -0.028808
vt 0.248125 0.251458
v -5437.812500 -1932.010742 -3198.997559
vn -0.726494 0.685443 0.048734
vt 0.000000 0.251458
v -5568.459473 -1996.428101 -3313.858887
vn -0.221342 0.972607 -0.071022
vt 0.248125 0.003333
v -5450.277344 -1942.022339 -3339.679199
vn -0.738747 0.673758 0.017419
vt 0.000000 0.003333
f 3/3/3 2/2/2 7/7/7
f 2/2/2 3/3/3 1/1/1
f 8/8/8 1/1/1 3/3/3
f 7/7/7 22/22/22 4/4/4
f 22/22/22 7/7/7 23/23/23
f 23/23/23 25/25/25 22/22/22
f 24/24/24 22/22/22 25/25/25
f 22/22/22 24/24/24 21/21/21
f 4/4/4 3/3/3 7/7/7
f 3/3/3 4/4/4 5/5/5
f 22/22/22 5/5/5 4/4/4
f 5/5/5 22/22/22 20/20/20
f 21/21/21 20/20/20 22/22/22
f 20/20/20 21/21/21 16/16/16
f 17/17/17 16/16/16 21/21/21
f 16/16/16 17/17/17 18/18/18
f 5/5/5 16/16/16 11/11/11
f 16/16/16 5/5/5 20/20/20
f 3/3/3 9/9/9 8/8/8
f 9/9/9 3/3/3 6/6/6
f 5/5/5 6/6/6 3/3/3
f 6/6/6 5/5/5 10/10/10
f 11/11/11 10/10/10 5/5/5
f 10/10/10 11/11/11 12/12/12
f 16/16/16 12/12/12 11/11/11
f 12/12/12 16/16/16 19/19/19
f 18/18/18 19/19/19 16/16/16
f 15/15/15 14/14/14 10/10/10
f 9/9/9 10/10/10 14/14/14
f 10/10/10 9/9/9 6/6/6
f 12/12/12 13/13/13 10/10/10
f 15/15/15 10/10/10 13/13/13
usemtl FloorA2edge
v -5892.366699 -1991.100586 -4032.454102
vn -0.010898 0.999899 -0.009161
vt 1.998842 0.501165
v -5786.128418 -1990.475952 -4095.124512
vn -0.226225 0.965021 -0.132501
vt 1.930530 0.736083
v -5757.104004 -1990.386963 -4141.312012
vn -0.320899 0.943953 -0.077304
vt 1.949320 0.821177
v -5794.911621 -1990.689087 -4135.907715
vn -0.017220 0.997758 -0.064673
vt 1.999763 0.741178
v -5703.909668 -1960.492188 -4131.799316
vn -0.585264 0.706995 0.397019
vt 1.848435 0.981176
v -5702.308105 -1936.437256 -4177.485840
vn -0.873568 0.479475 0.083567
vt 1.924559 0.981183
v -6075.997559 -1989.100220 -3752.180420
vn -0.000970 0.999909 -0.013443
vt 1.996769 -0.000237
v -5980.163574 -1989.600464 -3817.635498
vn 0.002740 0.999976 -0.006417
vt 1.963029 0.219930
v -5955.605469 -1990.250366 -3903.294434
vn -0.004470 0.999952 -0.008716
vt 1.974967 0.313675
v -5994.911621 -1990.689087 -3897.156738
vn -0.013649 0.999780 -0.015943
vt 1.997805 0.250464
v -5862.447754 -1990.797607 -3920.437012
vn 0.038083 0.999053 0.021022
vt 1.929290 0.440097
v -5884.630371 -1990.339478 -3976.482178
vn -0.003144 0.999991 -0.002990
vt 1.957155 0.473938
v -5725.523438 -1998.296143 -4210.586914
vn -0.941791 0.243217 -0.232108
vt 2.000684 0.981190
v -5890.932129 -1991.569580 -3321.668945
vn 0.027220 0.999340 0.024036
vt 1.047057 0.328283
v -5786.042480 -1992.428955 -3362.726563
vn 0.024317 0.998851 0.041301
vt 1.076656 0.492577
v -5796.406250 -1988.821777 -3434.164307
vn 0.017290 0.999851 -0.000371
vt 1.152083 0.474943
v -5816.101074 -1990.222534 -4038.688721
vn -0.071424 0.997339 0.014591
vt 1.925522 0.640813
v -5777.270020 -1990.607422 -4039.397461
vn 0.067407 0.976388 0.205236
vt 1.882992 0.716125
v -5734.499512 -1993.051758 -4051.210693
vn -0.056208 0.974163 0.218741
vt 1.828722 0.802414
v -5748.784668 -1995.963867 -3982.693359
vn -0.031137 0.998522 0.044546
vt 1.818865 0.713033
v -5675.359863 -1953.565552 -4107.317871
vn -0.526143 0.575830 0.625775
vt 1.778437 0.983572
v -5629.443359 -1976.749512 -4059.854492
vn -0.165333 0.759801 0.628782
vt 1.708440 0.985969
v -5680.442871 -1993.304077 -3403.650391
vn -0.010128 0.996754 0.079867
vt 1.111917 0.656778
v -5644.438477 -1991.683960 -3451.055420
vn -0.083297 0.994207 -0.067927
vt 1.167045 0.733100
v -5610.624512 -1996.628662 -3396.920898
vn 0.014213 0.977476 0.210569
vt 1.088917 0.744864
v -5505.029785 -1967.403931 -3466.451660
vn -0.588977 0.770698 0.243167
vt 1.188103 0.985088
v -5730.088379 -1995.782227 -3304.263184
vn 0.015793 0.999730 -0.017039
vt 0.995566 0.510304
v -5603.790527 -1993.357910 -3498.503662
vn -0.162329 0.986122 -0.034823
vt 1.216077 0.815589
v -5510.527832 -1958.144531 -3522.169922
vn -0.757299 0.652142 0.034751
vt 1.248074 0.985913
v -5660.116699 -1994.675171 -3534.715332
vn -0.052019 0.998631 -0.005468
vt 1.230064 0.730840
v -5517.228027 -1977.045166 -3585.874512
vn -0.341398 0.845654 -0.410264
vt 1.308046 0.986738
v -5545.716309 -1998.302612 -3389.786377
vn -0.247526 0.967408 0.053414
vt 1.060084 0.827287
v -5568.459473 -1996.428101 -3313.858887
vn -0.221342 0.972607 -0.071022
vt 0.996074 0.748386
v -5460.399414 -1947.979248 -3419.770508
vn -0.733107 0.645146 0.215269
vt 1.092342 0.985779
v -5450.277344 -1942.022339 -3339.679199
vn -0.738747 0.673758 0.017419
vt 0.996581 0.986469
v -5902.544434 -1991.023315 -3252.984863
vn 0.019870 0.998983 -0.040465
vt 0.994545 0.254954
v -6085.423340 -1986.173584 -3241.440186
vn 0.022122 0.999542 -0.020651
vt 0.993523 -0.000396
v -5947.743652 -1988.564941 -3358.046631
vn 0.021483 0.999583 0.019299
vt 1.072803 0.237273
f 34/34/34 33/33/33 36/36/36
f 33/33/33 34/34/34 32/32/32
f 35/35/35 32/32/32 34/34/34
f 47/47/47 46/46/46 44/44/44
f 30/30/30 44/44/44 46/46/46
f 44/44/44 30/30/30 43/43/43
f 42/42/42 43/43/43 30/30/30
f 43/43/43 42/42/42 36/36/36
f 37/37/37 36/36/36 42/42/42
f 36/36/36 37/37/37 34/34/34
f 26/26/26 34/34/34 37/37/37
f 34/34/34 26/26/26 35/35/35
f 43/43/43 36/36/36 44/44/44
f 45/45/45 44/44/44 36/36/36
f 44/44/44 45/45/45 47/47/47
f 30/30/30 27/27/27 42/42/42
f 37/37/37 42/42/42 26/26/26
f 27/27/27 26/26/26 42/42/42
f 26/26/26 27/27/27 28/28/28
f 30/30/30 28/28/28 27/27/27
f 28/28/28 30/30/30 31/31/31
f 31/31/31 38/38/38 28/28/28
f 29/29/29 28/28/28 38/38/38
f 28/28/28 29/29/29 26/26/26
f 57/57/57 58/58/58 60/60/60
f 58/58/58 57/57/57 52/52/52
f 50/50/50 52/52/52 57/57/57
f 52/52/52 50/50/50 48/48/48
f 51/51/51 48/48/48 50/50/50
f 48/48/48 51/51/51 49/49/49
f 53/53/53 49/49/49 51/51/51
f 49/49/49 53/53/53 41/41/41
f 55/55/55 41/41/41 53/53/53
f 60/60/60 59/59/59 57/57/57
f 51/51/51 57/57/57 59/59/59
f 57/57/57 51/51/51 50/50/50
f 51/51/51 54/54/54 53/53/53
f 56/56/56 53/53/53 54/54/54
f 53/53/53 56/56/56 55/55/55
f 49/49/49 41/41/41 48/48/48
f 40/40/40 48/48/48 41/41/41
f 48/48/48 40/40/40 52/52/52
f 39/39/39 52/52/52 40/40/40
f 52/52/52 39/39/39 61/61/61
f 62/62/62 61/61/61 39/39/39
f 40/40/40 41/41/41 39/39/39
f 63/63/63 39/39/39 41/41/41
f 39/39/39 63/63/63 62/62/62
usemtl FloorA1edge
v -5517.228027 -1977.045166 -3585.874512
vn -0.341398 0.845654 -0.410264
vt 1.308046 0.986738
v -5553.428223 -2007.987183 -3694.238281
vn -0.013196 0.987125 -0.159403
vt 1.409751 0.988089
v -5693.836426 -2000.338623 -3630.210693
vn 0.001506 0.997720 -0.067467
vt 1.377718 0.727393
v -5660.116699 -1994.675171 -3534.715332
vn -0.052019 0.998631 -0.005468
vt 1.230064 0.730840
v -5578.050781 -2014.451294 -3816.959473
vn 0.043457 0.998922 -0.016318
vt 1.511456 0.989441
v -5716.243164 -2004.530151 -3754.739502
vn 0.063916 0.997830 -0.015832
vt 1.525145 0.723443
v -5852.981934 -1994.471802 -3667.556396
vn 0.046689 0.998849 -0.010978
vt 1.529889 0.467092
v -5837.737305 -1991.870239 -3542.330566
vn 0.025211 0.999222 -0.030322
vt 1.340649 0.473412
v -5796.406250 -1988.821777 -3434.164307
vn 0.017290 0.999851 -0.000371
vt 1.152083 0.474943
v -5862.447754 -1990.797607 -3920.437012
vn 0.038083 0.999053 0.021022
vt 1.929290 0.440097
v -5865.187012 -1993.508545 -3791.843750
vn 0.058574 0.998204 0.012540
vt 1.719829 0.460307
v -5738.629395 -2001.430908 -3878.051758
vn 0.060132 0.996884 0.051049
vt 1.672118 0.718489
v -5748.784668 -1995.963867 -3982.693359
vn -0.031137 0.998522 0.044546
vt 1.818865 0.713033
v -5604.636230 -2009.359863 -3938.313477
vn 0.077505 0.987796 0.135100
vt 1.609948 0.987705
v -5629.443359 -1976.749512 -4059.854492
vn -0.165333 0.759801 0.628782
vt 1.708440 0.985969
v -6075.997559 -1989.100220 -3752.180420
vn -0.000970 0.999909 -0.013443
vt 1.996769 -0.000237
v -6109.078613 -1985.979248 -3619.689941
vn 0.011377 0.999772 -0.018078
vt 1.742951 -0.000891
v -5988.055176 -1988.912354 -3705.740723
vn 0.024224 0.999698 -0.004253
vt 1.738620 0.224191
v -5980.163574 -1989.600464 -3817.635498
vn 0.002740 0.999976 -0.006417
vt 1.963029 0.219930
v -6113.617676 -1984.035767 -3493.251709
vn 0.023713 0.999714 -0.003019
vt 1.489134 -0.001545
v -5984.583984 -1988.285645 -3580.397949
vn 0.035805 0.999340 -0.006191
vt 1.515137 0.228490
v -5975.054199 -1987.820190 -3454.394775
vn 0.019514 0.999794 -0.005612
vt 1.293507 0.232863
v -5947.743652 -1988.564941 -3358.046631
vn 0.021483 0.999583 0.019299
vt 1.072803 0.237273
v -6109.078613 -1985.979248 -3366.431152
vn 0.018182 0.999812 0.006779
vt 1.241329 -0.000970
v -6085.423340 -1986.173584 -3241.440186
vn 0.022122 0.999542 -0.020651
vt 0.993523 -0.000396
f 66/66/66 65/65/65 68/68/68
f 65/65/65 66/66/66 64/64/64
f 67/67/67 64/64/64 66/66/66
f 75/75/75 77/77/77 78/78/78
f 77/77/77 75/75/75 68/68/68
f 69/69/69 68/68/68 75/75/75
f 75/75/75 76/76/76 73/73/73
f 76/76/76 75/75/75 78/78/78
f 69/69/69 66/66/66 68/68/68
f 66/66/66 69/69/69 70/70/70
f 75/75/75 70/70/70 69/69/69
f 70/70/70 75/75/75 74/74/74
f 73/73/73 74/74/74 75/75/75
f 74/74/74 73/73/73 81/81/81
f 82/82/82 81/81/81 73/73/73
f 81/81/81 82/82/82 79/79/79
f 81/81/81 70/70/70 74/74/74
f 70/70/70 81/81/81 84/84/84
f 66/66/66 72/72/72 67/67/67
f 72/72/72 66/66/66 71/71/71
f 70/70/70 71/71/71 66/66/66
f 71/71/71 70/70/70 85/85/85
f 84/84/84 85/85/85 70/70/70
f 85/85/85 84/84/84 83/83/83
f 81/81/81 83/83/83 84/84/84
f 83/83/83 81/81/81 80/80/80
f 79/79/79 80/80/80 81/81/81
f 85/85/85 72/72/72 71/71/71
f 72/72/72 85/85/85 86/86/86
f 85/85/85 88/88/88 86/86/86
f 88/88/88 85/85/85 87/87/87
f 83/83/83 87/87/87 85/85/85
