mtllib ARROW_WRAITH.mtl
g Sphere01
usemtl 9_-_Default
v -1.390394 -0.429665 -97.758354
vn -0.891387 -0.448436 -0.065838
vt 0.999500 0.998869
v 0.891261 -1.148230 -63.238049
vn 0.866026 -0.499943 -0.007502
vt 0.000500 0.999500
v -0.891289 -1.148230 -63.238049
vn -0.883326 -0.468749 0.003128
vt 0.000500 0.999500
v 1.390384 -0.429665 -97.758354
vn 0.997068 0.064757 -0.040756
vt 0.999500 0.998869
v -0.000014 0.395504 -63.238056
vn -0.048738 0.998737 0.012226
vt 0.000500 0.870062
v -0.000004 0.971830 -97.758362
vn -0.413082 0.910441 0.021480
vt 0.999500 0.869107
v -0.891289 -1.148230 -63.238049
vn -0.883326 -0.468749 0.003128
vt 0.999489 0.824404
v 0.945819 -1.179737 -38.395168
vn 0.865960 -0.499979 -0.011598
vt 0.000506 0.824484
v -0.945867 -1.179737 -38.395168
vn -0.865975 -0.499953 -0.011599
vt 0.000506 0.824484
v 0.891261 -1.148230 -63.238049
vn 0.866026 -0.499943 -0.007502
vt 0.999489 0.824404
v -0.000024 0.458510 -38.395168
vn 0.000015 0.999933 -0.011598
vt 0.000506 0.691181
v -0.000014 0.395504 -63.238056
vn -0.048738 0.998737 0.012226
vt 0.999489 0.691404
v -0.945867 -1.179737 -38.395168
vn -0.865975 -0.499953 -0.011599
vt 0.999488 0.643341
v 1.390355 -1.436394 -13.552289
vn 0.865987 -0.499960 -0.010330
vt 0.000505 0.643763
v -1.390423 -1.436394 -13.552288
vn -0.865971 -0.499987 -0.010331
vt 0.000505 0.643763
v 0.945819 -1.179737 -38.395168
vn 0.865960 -0.499979 -0.011598
vt 0.999489 0.643341
v -0.000034 0.971830 -13.552288
vn -0.000016 0.999947 -0.010331
vt 0.000506 0.521077
v -0.000024 0.458510 -38.395168
vn 0.000015 0.999933 -0.011598
vt 0.999489 0.522266
v -1.390423 -1.436394 -13.552288
vn -0.865971 -0.499987 -0.010331
vt 0.999488 0.483025
v 1.390345 -1.436395 11.290591
vn 0.500000 -0.866025 0.000000
vt 0.000505 0.483024
v -1.390433 -1.436395 11.290592
vn -1.000000 0.000000 0.000000
vt 0.000505 0.483024
v 1.390355 -1.436394 -13.552289
vn 0.865987 -0.499960 -0.010330
vt 0.999487 0.483025
v -0.000044 0.971831 11.290592
vn 0.500000 0.866025 0.000000
vt 0.000505 0.337952
v -0.000034 0.971830 -13.552288
vn -0.000016 0.999947 -0.010331
vt 0.999488 0.337952
v -0.005020 -0.648687 11.290596
vn 0.000000 0.000000 1.000000
vt 0.000505 0.434667
v -1.390433 -1.436395 11.290592
vn -0.000002 -0.000001 1.000000
vt 0.000505 0.483024
v 1.390345 -1.436395 11.290591
vn 0.000002 -0.000001 1.000000
vt 0.000505 0.483024
v -0.000044 0.971831 11.290592
vn 0.000000 0.000002 1.000000
vt 0.000505 0.337952
v 0.020349 -0.448905 -112.923828
vn 0.995944 0.000495 -0.089973
vt 0.988658 0.274148
v -0.000010 4.826124 -91.333549
vn 0.932791 0.350320 -0.084712
vt 0.988191 0.000537
v 1.390384 -0.429665 -97.758354
vn 0.997068 0.064757 -0.040756
vt 0.681503 0.000500
v 0.020349 -0.448905 -112.923828
vn -0.995701 0.000497 -0.092624
vt 0.988658 0.274148
v -1.390394 -0.429665 -97.758354
vn -0.891387 -0.448436 -0.065838
vt 0.681503 0.000499
v -0.000010 4.826124 -91.333549
vn -0.931587 0.352927 -0.087107
vt 0.988191 0.000537
v -0.000008 -5.685457 -91.333549
vn 0.933216 -0.349393 -0.083863
vt 0.681526 0.274026
v -0.000008 -5.685457 -91.333549
vn -0.932019 -0.351997 -0.086253
vt 0.681526 0.274026
v -0.000010 4.826124 -91.333549
vn 0.000000 -0.774009 0.633175
vt 0.988191 0.000537
v -1.390394 -0.429665 -97.758354
vn 0.000000 0.000000 1.000000
vt 0.681503 0.000499
v 1.390384 -0.429665 -97.758354
vn 0.000000 0.000000 1.000000
vt 0.681503 0.000500
v -0.000008 -5.685457 -91.333549
vn 0.000000 0.774008 0.633175
vt 0.681526 0.274026
v -0.003297 0.812237 -7.363530
vn 1.000000 0.000035 -0.000001
vt 0.003019 0.000605
v -0.003453 6.193049 16.267748
vn 1.000000 0.000035 -0.000001
vt 0.653061 0.273798
v -0.003298 0.812232 11.290600
vn 1.000000 0.000029 0.000000
vt 0.652705 0.000605
v -0.003452 4.851156 -2.386364
vn 1.000000 0.000042 -0.000003
vt 0.003049 0.273791
v -0.423502 0.077599 -7.363530
vn -0.000702 1.000000 -0.000030
vt 0.003019 0.000605
v -5.804327 0.074540 16.267757
vn -0.000702 1.000000 -0.000030
vt 0.653061 0.273798
v -0.423508 0.077607 11.290600
vn -0.000570 1.000000 0.000000
vt 0.652706 0.000605
v -4.462425 0.074531 -2.386364
vn -0.000834 1.000000 -0.000060
vt 0.003049 0.273791
v -0.009978 -0.663727 -7.363530
vn -1.000000 0.000548 0.000130
vt 0.003019 0.000605
v -0.009847 -6.044541 16.267757
vn -1.000000 0.000548 0.000130
vt 0.653061 0.273798
v -0.005020 -0.648687 11.290596
vn -0.999999 0.001139 0.000265
vt 0.652706 0.000606
v -0.009828 -4.702648 -2.386364
vn -1.000000 -0.000042 -0.000004
vt 0.003049 0.273791
v 0.462605 0.070911 -7.363530
vn -0.000631 -1.000000 0.000026
vt 0.003019 0.000605
v 5.843405 0.068142 16.267750
vn -0.000631 -1.000000 0.000026
vt 0.653061 0.273798
v 0.462591 0.070903 11.290596
vn -0.000513 -1.000000 0.000000
vt 0.652706 0.000605
v 4.501523 0.068150 -2.386364
vn -0.000750 -1.000000 0.000053
vt 0.003049 0.273790
v 0.020349 -0.448901 -103.883080
vn -0.000494 0.995944 -0.089973
vt 0.988692 0.274174
v -5.254678 -0.469259 -82.292809
vn -0.350319 0.932792 -0.084712
vt 0.988225 0.000552
v 0.001111 0.921133 -88.717606
vn -0.000494 0.995944 -0.089973
vt 0.681514 0.000514
v 0.020349 -0.448901 -103.883080
vn -0.000497 -0.995701 -0.092624
vt 0.988692 0.274174
v 0.001112 -1.859642 -88.717613
vn -0.000497 -0.995701 -0.092624
vt 0.681514 0.000514
v -5.254678 -0.469259 -82.292809
vn -0.352927 -0.931587 -0.087107
vt 0.988225 0.000552
v 5.256901 -0.469258 -82.292809
vn 0.349393 0.933216 -0.083863
vt 0.681537 0.274052
v 5.256901 -0.469258 -82.292809
vn 0.351997 -0.932019 -0.086253
vt 0.681537 0.274052
v -5.254678 -0.469259 -82.292809
vn 0.774008 -0.000002 0.633176
vt 0.988225 0.000552
v 0.001112 -1.859642 -88.717613
vn 0.000000 -0.000003 1.000000
vt 0.681514 0.000514
v 0.001111 0.921133 -88.717606
vn 0.000000 -0.000003 1.000000
vt 0.681514 0.000514
v 5.256901 -0.469258 -82.292809
vn -0.774008 -0.000002 0.633175
vt 0.681537 0.274052
f 1/1/1 3/3/3 6/6/6
f 5/5/5 6/6/6 3/3/3
f 6/6/6 5/5/5 4/4/4
f 2/2/2 4/4/4 5/5/5
f 4/4/4 2/2/2 1/1/1
f 3/3/3 1/1/1 2/2/2
f 7/7/7 9/9/9 12/12/12
f 11/11/11 12/12/12 9/9/9
f 12/12/12 11/11/11 10/10/10
f 8/8/8 10/10/10 11/11/11
f 10/10/10 8/8/8 7/7/7
f 9/9/9 7/7/7 8/8/8
f 13/13/13 15/15/15 18/18/18
f 17/17/17 18/18/18 15/15/15
f 18/18/18 17/17/17 16/16/16
f 14/14/14 16/16/16 17/17/17
f 16/16/16 14/14/14 13/13/13
f 15/15/15 13/13/13 14/14/14
f 19/19/19 21/21/21 24/24/24
f 23/23/23 24/24/24 21/21/21
f 24/24/24 23/23/23 22/22/22
f 20/20/20 22/22/22 23/23/23
f 22/22/22 20/20/20 19/19/19
f 21/21/21 19/19/19 20/20/20
f 28/28/28 26/26/26 25/25/25
f 27/27/27 25/25/25 26/26/26
f 25/25/25 27/27/27 28/28/28
f 35/35/35 29/29/29 31/31/31
f 30/30/30 31/31/31 29/29/29
f 36/36/36 33/33/33 32/32/32
f 34/34/34 32/32/32 33/33/33
f 40/40/40 39/39/39 38/38/38
f 37/37/37 38/38/38 39/39/39
f 44/44/44 42/42/42 41/41/41
f 43/43/43 41/41/41 42/42/42
f 48/48/48 46/46/46 45/45/45
f 47/47/47 45/45/45 46/46/46
f 52/52/52 50/50/50 49/49/49
f 51/51/51 49/49/49 50/50/50
f 56/56/56 54/54/54 53/53/53
f 55/55/55 53/53/53 54/54/54
f 63/63/63 57/57/57 59/59/59
f 58/58/58 59/59/59 57/57/57
f 64/64/64 61/61/61 60/60/60
f 62/62/62 60/60/60 61/61/61
f 68/68/68 67/67/67 66/66/66
f 65/65/65 66/66/66 67/67/67
