mtllib INST_COURAGEPOINT_20.mtl
g CouragePoint_20º
usemtl 2_-_Default
v 0.281033 61.553280 -0.942062
vn -0.378827 0.883593 -0.275233
vt 0.002416 0.014992
v 14.066222 48.008320 -10.957611
vn 0.216579 0.713295 -0.666561
vt 0.000500 0.330301
v -4.984455 48.008320 -17.147545
vn 0.216579 0.713295 -0.666561
vt 0.999500 0.330301
v 14.066222 48.008320 -10.957611
vn 0.896989 0.134319 -0.421152
vt 0.000500 0.330301
v 7.140043 15.488753 -5.925427
vn 0.707288 -0.485464 -0.513875
vt 0.000500 0.655206
v -2.338863 15.488753 -9.005311
vn -0.270160 -0.485464 -0.831467
vt 0.999500 0.655206
v -4.984455 48.008320 -17.147545
vn -0.478132 0.134319 -0.867956
vt 0.999500 0.330301
v 7.140043 15.488753 -5.925427
vn 0.707288 -0.485464 -0.513875
vt 0.000500 0.655206
v 0.281035 6.171566 -0.942062
vn -0.478129 -0.806672 -0.347381
vt 0.007246 0.989839
v -2.338863 15.488753 -9.005311
vn -0.270160 -0.485464 -0.831467
vt 0.999500 0.655206
v 0.281033 61.553280 -0.942062
vn 0.503424 0.782806 0.365759
vt 0.002416 0.014992
v 14.066227 48.008320 9.073459
vn 0.700864 0.713295 0.000000
vt 0.000500 0.330301
v 14.066222 48.008320 -10.957611
vn 0.896989 0.134319 -0.421152
vt 0.999500 0.330301
v 14.066227 48.008320 9.073459
vn 0.677725 0.134319 0.722944
vt 0.000500 0.330301
v 7.140044 15.488752 4.041285
vn 0.707288 -0.485464 0.513875
vt 0.000500 0.655206
v 7.140043 15.488753 -5.925427
vn 0.707288 -0.485464 -0.513875
vt 0.999500 0.655206
v 14.066222 48.008320 -10.957611
vn 0.896989 0.134319 -0.421152
vt 0.999500 0.330301
v 7.140044 15.488752 4.041285
vn 0.707288 -0.485464 0.513875
vt 0.000500 0.655206
v 0.281035 6.171566 -0.942062
vn 0.598367 -0.673022 0.434740
vt 0.007246 0.989839
v 7.140043 15.488753 -5.925427
vn 0.707288 -0.485464 -0.513875
vt 0.999500 0.655206
v 0.281033 61.553280 -0.942062
vn 0.503424 0.782806 0.365759
vt 0.002416 0.014992
v -4.984452 48.008320 15.263404
vn 0.216579 0.713295 0.666562
vt 0.000500 0.330301
v 14.066227 48.008320 9.073459
vn 0.677725 0.134319 0.722944
vt 0.999500 0.330301
v -4.984452 48.008320 15.263404
vn -0.478132 0.134319 0.867956
vt 0.000500 0.330301
v -2.338862 15.488752 7.121169
vn -0.270160 -0.485464 0.831468
vt 0.000500 0.655206
v 7.140044 15.488752 4.041285
vn 0.707288 -0.485464 0.513875
vt 0.999500 0.655206
v 14.066227 48.008320 9.073459
vn 0.677725 0.134319 0.722944
vt 0.999500 0.330301
v -2.338862 15.488752 7.121169
vn -0.270160 -0.485464 0.831468
vt 0.000500 0.655206
v 0.281035 6.171566 -0.942062
vn 0.598367 -0.673022 0.434740
vt 0.007246 0.989839
v 7.140044 15.488752 4.041285
vn 0.707288 -0.485464 0.513875
vt 0.999500 0.655206
v 0.281033 61.553280 -0.942062
vn -0.378827 0.883593 -0.275233
vt 0.002416 0.014992
v -16.758423 48.008320 -0.942070
vn -0.567011 0.713295 0.411958
vt 0.000500 0.330301
v -4.984452 48.008320 15.263404
vn -0.478132 0.134319 0.867956
vt 0.999500 0.330301
v -16.758423 48.008320 -0.942070
vn -0.973227 0.134319 -0.186517
vt 0.000500 0.330301
v -8.197149 15.488753 -0.942070
vn -0.874257 -0.485464 0.000000
vt 0.000500 0.655206
v -2.338862 15.488752 7.121169
vn -0.270160 -0.485464 0.831468
vt 0.999500 0.655206
v -4.984452 48.008320 15.263404
vn -0.478132 0.134319 0.867956
vt 0.999500 0.330301
v -8.197149 15.488753 -0.942070
vn -0.874257 -0.485464 0.000000
vt 0.000500 0.655206
v 0.281035 6.171566 -0.942062
vn -0.478129 -0.806672 -0.347381
vt 0.007246 0.989839
v -2.338862 15.488752 7.121169
vn -0.270160 -0.485464 0.831468
vt 0.999500 0.655206
v 0.281033 61.553280 -0.942062
vn -0.378827 0.883593 -0.275233
vt 0.002416 0.014992
v -4.984455 48.008320 -17.147545
vn -0.478132 0.134319 -0.867956
vt 0.000500 0.330301
v -16.758423 48.008320 -0.942070
vn -0.973227 0.134319 -0.186517
vt 0.999500 0.330301
v -4.984455 48.008320 -17.147545
vn -0.478132 0.134319 -0.867956
vt 0.000500 0.330301
v -2.338863 15.488753 -9.005311
vn -0.270160 -0.485464 -0.831467
vt 0.000500 0.655206
v -8.197149 15.488753 -0.942070
vn -0.874257 -0.485464 0.000000
vt 0.999500 0.655206
v -16.758423 48.008320 -0.942070
vn -0.973227 0.134319 -0.186517
vt 0.999500 0.330301
v -2.338863 15.488753 -9.005311
vn -0.270160 -0.485464 -0.831467
vt 0.000500 0.655206
v 0.281035 6.171566 -0.942062
vn -0.478129 -0.806672 -0.347381
vt 0.007246 0.989839
v -8.197149 15.488753 -0.942070
vn -0.874257 -0.485464 0.000000
vt 0.999500 0.655206
v 17.630058 48.601593 -13.546873
vn -0.213200 -0.723875 0.656163
vt 0.862827 0.028070
v 0.281033 65.137093 -0.942061
vn 0.369869 -0.889373 0.268723
vt 0.862875 0.020199
v -6.345708 48.601593 -21.337069
vn -0.213200 -0.723875 0.656163
vt 0.887765 0.028070
v 9.660291 15.238076 -7.756498
vn -0.703664 0.493450 0.511237
vt 0.862827 0.036181
v 17.630058 48.601593 -13.546873
vn -0.898222 -0.118593 0.423242
vt 0.862827 0.028070
v -3.301356 15.238025 -11.968078
vn 0.268766 0.493452 0.827206
vt 0.887765 0.036181
v -6.345708 48.601593 -21.337069
vn 0.477895 -0.118592 0.870375
vt 0.887765 0.028070
v 0.281035 2.268543 -0.942062
vn 0.483661 0.801614 0.351407
vt 0.862995 0.044535
v 9.660291 15.238076 -7.756498
vn -0.703664 0.493450 0.511237
vt 0.862827 0.036181
v -3.301356 15.238025 -11.968078
vn 0.268766 0.493452 0.827206
vt 0.887765 0.036181
v 17.630066 48.601593 11.662744
vn -0.689931 -0.723875 0.000000
vt 0.862827 0.028070
v 0.281033 65.137093 -0.942061
vn -0.494013 -0.791915 -0.358917
vt 0.862875 0.020199
v 17.630058 48.601593 -13.546873
vn -0.898222 -0.118593 0.423242
vt 0.887765 0.028070
v 9.660295 15.238075 5.872351
vn -0.703662 0.493451 -0.511240
vt 0.862827 0.036181
v 17.630066 48.601593 11.662744
vn -0.680098 -0.118594 -0.723465
vt 0.862827 0.028070
v 9.660291 15.238076 -7.756498
vn -0.703664 0.493450 0.511237
vt 0.887765 0.036181
v 17.630058 48.601593 -13.546873
vn -0.898222 -0.118593 0.423242
vt 0.887765 0.028070
v 0.281035 2.268543 -0.942062
vn -0.603165 0.666446 -0.438226
vt 0.862995 0.044535
v 9.660295 15.238075 5.872351
vn -0.703662 0.493451 -0.511240
vt 0.862827 0.036181
v 9.660291 15.238076 -7.756498
vn -0.703664 0.493450 0.511237
vt 0.887765 0.036181
v -6.345415 48.601677 19.453012
vn -0.213206 -0.723877 -0.656159
vt 0.862827 0.028070
v 0.281033 65.137093 -0.942061
vn -0.494013 -0.791915 -0.358917
vt 0.862875 0.020199
v 17.630066 48.601593 11.662744
vn -0.680098 -0.118594 -0.723465
vt 0.887765 0.028070
v -3.301509 15.238075 10.083898
vn 0.268777 0.493453 -0.827202
vt 0.862827 0.036181
v -6.345415 48.601677 19.453012
vn 0.477891 -0.118593 -0.870377
vt 0.862827 0.028070
v 9.660295 15.238075 5.872351
vn -0.703662 0.493451 -0.511240
vt 0.887765 0.036181
v 17.630066 48.601593 11.662744
vn -0.680098 -0.118594 -0.723465
vt 0.887765 0.028070
v 0.281035 2.268543 -0.942062
vn -0.603165 0.666446 -0.438226
vt 0.862995 0.044535
v -3.301509 15.238075 10.083898
vn 0.268777 0.493453 -0.827202
vt 0.862827 0.036181
v 9.660295 15.238075 5.872351
vn -0.703662 0.493451 -0.511240
vt 0.887765 0.036181
v -21.163519 48.601681 -0.941766
vn 0.558159 -0.723876 -0.405538
vt 0.862827 0.028070
v 0.281033 65.137093 -0.942061
vn 0.369869 -0.889373 0.268723
vt 0.862875 0.020199
v -6.345415 48.601677 19.453012
vn 0.477891 -0.118593 -0.870377
vt 0.887765 0.028070
v -11.312333 15.238025 -0.942231
vn 0.869772 0.493454 0.000008
vt 0.862827 0.036181
v -21.163519 48.601681 -0.941766
vn 0.975453 -0.118592 0.185548
vt 0.862827 0.028070
v -3.301509 15.238075 10.083898
vn 0.268777 0.493453 -0.827202
vt 0.887765 0.036181
v -6.345415 48.601677 19.453012
vn 0.477891 -0.118593 -0.870377
vt 0.887765 0.028070
v 0.281035 2.268543 -0.942062
vn 0.483661 0.801614 0.351407
vt 0.862995 0.044535
v -11.312333 15.238025 -0.942231
vn 0.869772 0.493454 0.000008
vt 0.862827 0.036181
v -3.301509 15.238075 10.083898
vn 0.268777 0.493453 -0.827202
vt 0.887765 0.036181
v -6.345708 48.601593 -21.337069
vn 0.477895 -0.118592 0.870375
vt 0.862827 0.028070
v 0.281033 65.137093 -0.942061
vn 0.369869 -0.889373 0.268723
vt 0.862875 0.020199
v -21.163519 48.601681 -0.941766
vn 0.975453 -0.118592 0.185548
vt 0.887765 0.028070
v -3.301356 15.238025 -11.968078
vn 0.268766 0.493452 0.827206
vt 0.862827 0.036181
v -6.345708 48.601593 -21.337069
vn 0.477895 -0.118592 0.870375
vt 0.862827 0.028070
v -11.312333 15.238025 -0.942231
vn 0.869772 0.493454 0.000008
vt 0.887765 0.036181
v -21.163519 48.601681 -0.941766
vn 0.975453 -0.118592 0.185548
vt 0.887765 0.028070
v 0.281035 2.268543 -0.942062
vn 0.483661 0.801614 0.351407
vt 0.862995 0.044535
v -3.301356 15.238025 -11.968078
vn 0.268766 0.493452 0.827206
vt 0.862827 0.036181
v -11.312333 15.238025 -0.942231
vn 0.869772 0.493454 0.000008
vt 0.887765 0.036181
f 3/3/3 1/1/1 2/2/2
f 7/7/7 4/4/4 6/6/6
f 5/5/5 6/6/6 4/4/4
f 10/10/10 8/8/8 9/9/9
f 13/13/13 11/11/11 12/12/12
f 17/17/17 14/14/14 16/16/16
f 15/15/15 16/16/16 14/14/14
f 20/20/20 18/18/18 19/19/19
f 23/23/23 21/21/21 22/22/22
f 27/27/27 24/24/24 26/26/26
f 25/25/25 26/26/26 24/24/24
f 30/30/30 28/28/28 29/29/29
f 33/33/33 31/31/31 32/32/32
f 37/37/37 34/34/34 36/36/36
f 35/35/35 36/36/36 34/34/34
f 40/40/40 38/38/38 39/39/39
f 43/43/43 41/41/41 42/42/42
f 47/47/47 44/44/44 46/46/46
f 45/45/45 46/46/46 44/44/44
f 50/50/50 48/48/48 49/49/49
f 53/53/53 51/51/51 52/52/52
f 57/57/57 56/56/56 55/55/55
f 54/54/54 55/55/55 56/56/56
f 60/60/60 58/58/58 59/59/59
f 63/63/63 61/61/61 62/62/62
f 67/67/67 66/66/66 65/65/65
f 64/64/64 65/65/65 66/66/66
f 70/70/70 68/68/68 69/69/69
f 73/73/73 71/71/71 72/72/72
f 77/77/77 76/76/76 75/75/75
f 74/74/74 75/75/75 76/76/76
f 80/80/80 78/78/78 79/79/79
f 83/83/83 81/81/81 82/82/82
f 87/87/87 86/86/86 85/85/85
f 84/84/84 85/85/85 86/86/86
f 90/90/90 88/88/88 89/89/89
f 93/93/93 91/91/91 92/92/92
f 97/97/97 96/96/96 95/95/95
f 94/94/94 95/95/95 96/96/96
f 100/100/100 98/98/98 99/99/99
