mtllib THROWINGSTONE.mtl
g Sphere01
usemtl throwstone
v 0.035394 5.361007 -4.791449
vn 0.000000 0.413403 -0.910548
vt 0.935296 0.196439
v 0.035395 7.012897 -3.597444
vn 0.039212 0.767089 -0.640342
vt 0.851821 0.082265
v 0.662903 6.869509 -3.637311
vn 0.322856 0.703318 -0.633330
vt 0.854608 0.092176
v 1.167855 6.468564 -3.761131
vn 0.546663 0.572699 -0.610882
vt 0.863265 0.119888
v 1.486157 5.886874 -3.974437
vn 0.667822 0.439555 -0.600671
vt 0.878177 0.160093
v 1.616471 5.214515 -4.265110
vn 0.723316 0.269098 -0.635925
vt 0.898498 0.206565
v 1.573567 4.521571 -4.590415
vn 0.721354 0.155574 -0.674867
vt 0.921241 0.254459
v 1.351494 3.868343 -4.897887
vn 0.608872 0.129774 -0.782582
vt 0.942737 0.299608
v 0.936456 3.328718 -5.178954
vn 0.321762 0.137983 -0.936712
vt 0.962386 0.336906
v 0.357668 3.024758 -5.349212
vn 0.080976 0.132206 -0.987909
vt 0.974289 0.357915
v -0.286877 3.024757 -5.349212
vn -0.165447 0.126340 -0.978093
vt 0.974289 0.357915
v -0.865666 3.328718 -5.178954
vn -0.475907 0.113370 -0.872158
vt 0.962386 0.336906
v -1.280708 3.868345 -4.897887
vn -0.554400 0.091963 -0.827154
vt 0.942737 0.299608
v -1.502778 4.521571 -4.590415
vn -0.661585 0.242182 -0.709685
vt 0.921241 0.254459
v -1.545679 5.214517 -4.265109
vn -0.693017 0.340765 -0.635300
vt 0.898498 0.206564
v -1.415365 5.886873 -3.974436
vn -0.635380 0.460725 -0.619697
vt 0.878177 0.160093
v -1.097064 6.468567 -3.761132
vn -0.475206 0.610106 -0.633995
vt 0.863265 0.119888
v -0.592112 6.869508 -3.637311
vn -0.229637 0.730872 -0.642723
vt 0.854608 0.092176
v 1.167855 7.875354 -1.708431
vn 0.478596 0.838374 -0.260912
vt 0.719758 0.022654
v 0.035395 8.167914 -1.638994
vn 0.017005 0.971926 -0.234672
vt 0.714903 0.002433
v 1.915965 7.037077 -1.917902
vn 0.772658 0.563925 -0.291526
vt 0.734402 0.080594
v 2.314800 5.800002 -2.305847
vn 0.867393 0.372703 -0.329730
vt 0.761524 0.166097
v 2.482102 4.395798 -2.922613
vn 0.862760 0.175823 -0.474059
vt 0.804643 0.263152
v 1.983958 2.908124 -3.731805
vn 0.841358 0.029855 -0.539654
vt 0.861214 0.365976
v 1.600058 1.409998 -4.294855
vn 0.867929 0.006232 -0.496650
vt 0.926483 0.471214
v 1.193562 0.958443 -5.148133
vn 0.618218 -0.032821 -0.785321
vt 0.975442 0.549772
v 0.476910 0.407028 -5.492265
vn 0.204838 -0.081824 -0.975370
vt 0.999500 0.587884
v -0.406121 0.407027 -5.492266
vn -0.195621 -0.059836 -0.978853
vt 0.999501 0.587884
v -1.122773 0.958441 -5.148132
vn -0.676673 0.034147 -0.735492
vt 0.975442 0.549772
v -1.529269 1.409998 -4.294854
vn -0.776878 -0.033651 -0.628751
vt 0.926483 0.471214
v -2.355136 2.908126 -3.731803
vn -0.855075 0.041532 -0.516839
vt 0.861214 0.365976
v -2.411313 4.395798 -2.922614
vn -0.887446 0.145496 -0.437344
vt 0.804643 0.263152
v -2.244009 5.800001 -2.305846
vn -0.838424 0.411849 -0.356966
vt 0.761524 0.166097
v -1.845176 7.037077 -1.917902
vn -0.784467 0.568228 -0.248452
vt 0.734402 0.080594
v -1.097065 7.875354 -1.708431
vn -0.447894 0.861762 -0.238236
vt 0.719758 0.022654
v 1.486158 7.582063 1.586629
vn 0.581409 0.792492 0.184175
vt 0.545110 0.026649
v 0.035395 7.960399 1.766920
vn 0.010370 0.961874 0.273296
vt 0.532506 0.000499
v 2.314800 6.680875 0.341102
vn 0.839123 0.542378 0.041208
vt 0.576472 0.105213
v 3.065161 4.934581 -0.259337
vn 0.956278 0.268454 -0.116039
vt 0.618450 0.225913
v 3.678773 2.909508 -1.153997
vn 0.980561 0.152224 -0.123809
vt 0.680996 0.365881
v 2.979112 0.667563 -2.694308
vn 0.828603 -0.036399 -0.558653
vt 0.788682 0.520838
v 1.927467 -1.351734 -3.990640
vn 0.900134 -0.055709 -0.432036
vt 0.879310 0.660407
v 1.723106 -2.508754 -4.504535
vn 0.706788 -0.259883 -0.657960
vt 0.915237 0.740377
v 0.721440 -2.955846 -4.688910
vn 0.206901 -0.447788 -0.869872
vt 0.928127 0.771279
v -0.650653 -2.955845 -4.688910
vn -0.172763 -0.452189 -0.875030
vt 0.928127 0.771279
v -1.652318 -2.508754 -4.504534
vn -0.746067 -0.196410 -0.636244
vt 0.915237 0.740377
v -1.856679 -1.351733 -3.990640
vn -0.870269 -0.066004 -0.488135
vt 0.879310 0.660407
v -2.908325 0.667563 -2.694307
vn -0.904310 0.047065 -0.424274
vt 0.788682 0.520838
v -2.998498 2.909508 -1.153996
vn -0.955565 -0.069407 -0.286492
vt 0.680996 0.365881
v -4.032784 4.934584 -0.259336
vn -0.930113 0.269488 -0.249533
vt 0.618449 0.225913
v -2.244009 6.680872 0.341102
vn -0.764459 0.644583 0.010751
vt 0.576472 0.105214
v -1.415368 7.582063 1.586629
vn -0.564677 0.798918 0.207048
vt 0.545110 0.026649
v 1.616471 6.572492 3.292403
vn 0.614864 0.675448 0.407078
vt 0.371588 0.105966
v 0.035395 7.016580 3.564203
vn 0.006641 0.850705 0.525601
vt 0.352586 0.075271
v 2.482102 5.336857 2.557924
vn 0.841484 0.462299 0.279614
vt 0.421491 0.198108
v 4.043848 3.341971 1.657353
vn 0.985850 0.144745 -0.084553
vt 0.484451 0.335990
v 2.989276 1.102908 0.498014
vn 0.999601 0.013162 0.024995
vt 0.565502 0.490748
v 3.790563 -1.357795 -1.270117
vn 0.958960 -0.206184 -0.194638
vt 0.689114 0.660826
v 2.079727 -3.290686 -2.440218
vn 0.907644 -0.309528 -0.283504
vt 0.770918 0.794422
v 1.850630 -4.369094 -2.851836
vn 0.802660 -0.516567 -0.298152
vt 0.799695 0.868959
v 0.794737 -4.841687 -2.917866
vn 0.196819 -0.812759 -0.548348
vt 0.804311 0.901623
v -0.723948 -4.841687 -2.917866
vn -0.231277 -0.815294 -0.530855
vt 0.804311 0.901623
v -1.779840 -4.369094 -2.851836
vn -0.747177 -0.554012 -0.367148
vt 0.799695 0.868959
v -2.008938 -3.290686 -2.440216
vn -0.910027 -0.328776 -0.252501
vt 0.770918 0.794422
v -3.734644 -1.357795 -1.270117
vn -0.967912 -0.094362 -0.232900
vt 0.689114 0.660826
v -3.332611 1.102908 0.498014
vn -0.998837 0.034596 0.033595
vt 0.565502 0.490748
v -4.005099 3.341971 1.657354
vn -0.974789 -0.214199 0.062499
vt 0.484451 0.335990
v -3.428160 5.336858 2.557925
vn -0.796399 0.539486 0.273320
vt 0.421491 0.198108
v -1.545682 6.572490 3.292401
vn -0.517655 0.746316 0.418385
vt 0.371588 0.105966
v 1.573568 4.775565 5.859725
vn 0.578123 0.492146 0.650820
vt 0.219001 0.246074
v 0.035395 5.219873 6.117455
vn -0.019669 0.593984 0.804236
vt 0.200983 0.215365
v 2.737788 3.376311 4.725376
vn 0.824879 0.349736 0.444138
vt 0.269962 0.333616
v 3.953671 1.620463 3.694570
vn 0.972668 0.046465 0.227502
vt 0.342026 0.454976
v 3.283677 -0.358453 2.551776
vn 0.995958 -0.089640 -0.005641
vt 0.421921 0.591754
v 3.633979 -2.518059 1.174090
vn 0.974252 -0.225125 -0.012339
vt 0.518237 0.741020
v 2.027239 -4.328172 0.037140
vn 0.847037 -0.498109 -0.185516
vt 0.597722 0.866131
v 1.538115 -5.129138 -0.468261
vn 0.772231 -0.614216 -0.162475
vt 0.633177 0.950481
v 0.658071 -5.742332 -0.548543
vn 0.269208 -0.926329 -0.263516
vt 0.638789 0.992864
v -0.587284 -5.742332 -0.548543
vn -0.287639 -0.912798 -0.289938
vt 0.638790 0.992864
v -1.467326 -5.129138 -0.468261
vn -0.731603 -0.653731 -0.193374
vt 0.633177 0.950481
v -1.956450 -4.328172 0.037139
vn -0.864500 -0.486660 -0.125706
vt 0.597722 0.866131
v -3.626096 -2.518060 1.174090
vn -0.969297 -0.245460 -0.014576
vt 0.518237 0.741020
v -3.212890 -0.358453 2.551777
vn -0.967110 0.177232 0.182449
vt 0.421921 0.591754
v -2.052467 1.620462 3.694571
vn -0.979310 -0.095135 0.178609
vt 0.342026 0.454976
v -3.371981 3.376311 4.725378
vn -0.894599 -0.022880 0.446283
vt 0.269961 0.333616
v -1.502778 4.775565 5.859726
vn -0.475615 0.496827 0.725916
vt 0.219001 0.246074
v 1.351496 2.103131 6.855946
vn 0.460302 0.321573 0.827474
vt 0.107894 0.405861
v 0.035396 2.430190 7.031852
vn -0.009220 0.387569 0.921795
vt 0.095597 0.383256
v 2.147690 1.223087 6.335468
vn 0.741568 0.217302 0.634710
vt 0.144282 0.466688
v 3.159719 0.184612 5.725943
vn 0.867141 -0.002062 0.498059
vt 0.200011 0.554218
v 2.795244 -1.405565 4.800415
vn 0.954359 -0.184725 0.234683
vt 0.264715 0.664127
v 3.239639 -3.139495 3.781291
vn 0.936187 -0.244955 0.252094
vt 0.335964 0.783972
v 2.398477 -4.584467 2.817846
vn 0.834394 -0.548834 0.050676
vt 0.403319 0.883845
v 1.814205 -5.764514 2.281984
vn 0.703218 -0.710314 0.030643
vt 0.448683 0.958227
v 0.738098 -6.361661 2.019918
vn 0.268632 -0.963051 0.019226
vt 0.467005 0.999501
v -0.667309 -6.361661 2.019918
vn -0.222788 -0.974738 0.015849
vt 0.467005 0.999501
v -1.743414 -5.764514 2.281984
vn -0.700382 -0.713696 0.010126
vt 0.448683 0.958227
v -2.327688 -4.584466 2.817847
vn -0.867796 -0.495690 0.034939
vt 0.403319 0.883845
v -3.426258 -3.139495 3.781292
vn -0.925648 -0.319681 0.202433
vt 0.335964 0.783972
v -2.724452 -1.405565 4.800416
vn -0.957728 0.059511 0.281454
vt 0.264715 0.664127
v -2.518905 0.184613 5.725942
vn -0.943067 0.163253 0.289780
vt 0.200011 0.554218
v -2.076899 1.223087 6.335469
vn -0.868300 0.123693 0.480370
vt 0.144282 0.466688
v -1.280707 2.103130 6.855947
vn -0.450096 0.318798 0.834135
vt 0.107894 0.405862
v 0.936457 0.320363 7.897923
vn 0.355549 0.368885 0.858783
vt 0.048164 0.544836
v 0.035396 0.508850 7.998164
vn -0.008456 0.415044 0.909762
vt 0.041157 0.531808
v 1.598923 -0.230957 7.602313
vn 0.694566 0.203786 0.689963
vt 0.068831 0.582941
v 1.966252 -1.117030 7.148703
vn 0.813643 0.017836 0.581091
vt 0.100543 0.644185
v 2.112148 -2.288492 6.607923
vn 0.896784 -0.184903 0.401982
vt 0.138350 0.725153
v 2.064067 -3.529643 6.018373
vn 0.888308 -0.251425 0.384310
vt 0.179566 0.810938
v 1.814205 -4.566020 5.417204
vn 0.796023 -0.529788 0.292698
vt 0.221595 0.882570
v 1.307039 -5.284712 4.917531
vn 0.611742 -0.746512 0.261707
vt 0.256528 0.932244
v 0.503278 -5.654578 4.639564
vn 0.238513 -0.935711 0.259916
vt 0.275961 0.957808
v -0.432484 -5.654578 4.639565
vn -0.109612 -0.958772 0.262185
vt 0.275961 0.957808
v -1.236249 -5.284712 4.917529
vn -0.469782 -0.840043 0.271353
vt 0.256528 0.932244
v -1.743413 -4.566020 5.417202
vn -0.784017 -0.556831 0.274331
vt 0.221595 0.882570
v -1.993276 -3.529643 6.018373
vn -0.843506 -0.399014 0.359562
vt 0.179566 0.810938
v -2.041356 -2.288491 6.607923
vn -0.895705 -0.125602 0.426541
vt 0.138350 0.725153
v -1.895459 -1.117032 7.148703
vn -0.889825 -0.032967 0.455110
vt 0.100543 0.644185
v -1.528130 -0.230958 7.602311
vn -0.770591 0.148956 0.619679
vt 0.068831 0.582942
v -0.865666 0.320364 7.897922
vn -0.439051 0.336423 0.833099
vt 0.048165 0.544836
v 0.035395 -3.287297 8.465899
vn 0.000000 -0.424426 0.905463
vt 0.008457 0.794188
v 0.663807 -1.076626 8.513104
vn 0.324131 0.183995 0.927947
vt 0.005156 0.641392
v 0.035396 -0.936973 8.579715
vn -0.036880 0.207856 0.977464
vt 0.000499 0.631739
v 1.117479 -1.482810 8.319365
vn 0.615975 -0.005094 0.787750
vt 0.018701 0.669466
v 1.362070 -2.111897 8.019305
vn 0.737313 -0.148326 0.659067
vt 0.039678 0.712947
v 1.468307 -2.911004 7.638150
vn 0.766121 -0.259713 0.587884
vt 0.066326 0.768179
v 1.435934 -3.767067 7.229830
vn 0.741686 -0.396627 0.540915
vt 0.094872 0.827348
v 1.233515 -4.478019 6.890722
vn 0.623443 -0.598536 0.503065
vt 0.118579 0.876487
v 0.862331 -4.939105 6.670796
vn 0.378163 -0.796636 0.471555
vt 0.133955 0.908357
v 0.333001 -5.160310 6.565286
vn 0.099275 -0.886483 0.451988
vt 0.141331 0.923646
v -0.262207 -5.160310 6.565287
vn -0.167652 -0.874502 0.455126
vt 0.141331 0.923646
v -0.791540 -4.939105 6.670796
vn -0.450699 -0.751515 0.481763
vt 0.133955 0.908357
v -1.162724 -4.478019 6.890722
vn -0.662108 -0.543647 0.515811
vt 0.118579 0.876487
v -1.365142 -3.767067 7.229829
vn -0.751178 -0.359964 0.553315
vt 0.094872 0.827348
v -1.397515 -2.911004 7.638151
vn -0.763762 -0.235196 0.601124
vt 0.066325 0.768179
v -1.291278 -2.111898 8.019305
vn -0.722007 -0.118733 0.681622
vt 0.039678 0.712947
v -1.046686 -1.482812 8.319364
vn -0.561685 0.038880 0.826437
vt 0.018701 0.669466
v -0.593016 -1.076626 8.513104
vn -0.295377 0.117770 0.948094
vt 0.005156 0.641392
f 1/1/1 6/6/6 7/7/7
f 24/24/24 7/7/7 6/6/6
f 9/9/9 1/1/1 8/8/8
f 7/7/7 8/8/8 1/1/1
f 8/8/8 7/7/7 25/25/25
f 24/24/24 25/25/25 7/7/7
f 25/25/25 24/24/24 42/42/42
f 1/1/1 15/15/15 16/16/16
f 33/33/33 16/16/16 15/15/15
f 18/18/18 1/1/1 17/17/17
f 16/16/16 17/17/17 1/1/1
f 17/17/17 16/16/16 34/34/34
f 33/33/33 34/34/34 16/16/16
f 34/34/34 33/33/33 51/51/51
f 9/9/9 8/8/8 26/26/26
f 25/25/25 26/26/26 8/8/8
f 26/26/26 25/25/25 43/43/43
f 42/42/42 43/43/43 25/25/25
f 43/43/43 42/42/42 60/60/60
f 11/11/11 10/10/10 28/28/28
f 27/27/27 28/28/28 10/10/10
f 28/28/28 27/27/27 45/45/45
f 44/44/44 45/45/45 27/27/27
f 45/45/45 44/44/44 62/62/62
f 61/61/61 62/62/62 44/44/44
f 62/62/62 61/61/61 79/79/79
f 78/78/78 79/79/79 61/61/61
f 79/79/79 78/78/78 96/96/96
f 95/95/95 96/96/96 78/78/78
f 96/96/96 95/95/95 113/113/113
f 112/112/112 113/113/113 95/95/95
f 113/113/113 112/112/112 130/130/130
f 129/129/129 130/130/130 112/112/112
f 130/130/130 129/129/129 121/121/121
f 11/11/11 28/28/28 29/29/29
f 46/46/46 29/29/29 28/28/28
f 29/29/29 46/46/46 47/47/47
f 64/64/64 47/47/47 46/46/46
f 47/47/47 64/64/64 65/65/65
f 82/82/82 65/65/65 64/64/64
f 65/65/65 82/82/82 83/83/83
f 100/100/100 83/83/83 82/82/82
f 83/83/83 100/100/100 101/101/101
f 118/118/118 101/101/101 100/100/100
f 101/101/101 118/118/118 119/119/119
f 136/136/136 119/119/119 118/118/118
f 119/119/119 136/136/136 137/137/137
f 121/121/121 137/137/137 136/136/136
f 18/18/18 17/17/17 35/35/35
f 34/34/34 35/35/35 17/17/17
f 35/35/35 34/34/34 52/52/52
f 51/51/51 52/52/52 34/34/34
f 52/52/52 51/51/51 69/69/69
f 19/19/19 36/36/36 38/38/38
f 55/55/55 38/38/38 36/36/36
f 38/38/38 55/55/55 56/56/56
f 73/73/73 56/56/56 55/55/55
f 56/56/56 73/73/73 74/74/74
f 91/91/91 74/74/74 73/73/73
f 74/74/74 91/91/91 92/92/92
f 109/109/109 92/92/92 91/91/91
f 92/92/92 109/109/109 110/110/110
f 127/127/127 110/110/110 109/109/109
f 110/110/110 127/127/127 128/128/128
f 77/77/77 60/60/60 59/59/59
f 42/42/42 59/59/59 60/60/60
f 59/59/59 42/42/42 41/41/41
f 24/24/24 41/41/41 42/42/42
f 41/41/41 24/24/24 23/23/23
f 6/6/6 23/23/23 24/24/24
f 23/23/23 6/6/6 5/5/5
f 1/1/1 5/5/5 6/6/6
f 62/62/62 79/79/79 80/80/80
f 97/97/97 80/80/80 79/79/79
f 80/80/80 97/97/97 98/98/98
f 115/115/115 98/98/98 97/97/97
f 98/98/98 115/115/115 116/116/116
f 133/133/133 116/116/116 115/115/115
f 116/116/116 133/133/133 134/134/134
f 121/121/121 134/134/134 133/133/133
f 86/86/86 69/69/69 68/68/68
f 51/51/51 68/68/68 69/69/69
f 68/68/68 51/51/51 50/50/50
f 33/33/33 50/50/50 51/51/51
f 50/50/50 33/33/33 32/32/32
f 15/15/15 32/32/32 33/33/33
f 32/32/32 15/15/15 14/14/14
f 1/1/1 14/14/14 15/15/15
f 70/70/70 87/87/87 89/89/89
f 106/106/106 89/89/89 87/87/87
f 89/89/89 106/106/106 107/107/107
f 124/124/124 107/107/107 106/106/106
f 107/107/107 124/124/124 125/125/125
f 121/121/121 125/125/125 124/124/124
f 94/94/94 77/77/77 76/76/76
f 59/59/59 76/76/76 77/77/77
f 76/76/76 59/59/59 58/58/58
f 41/41/41 58/58/58 59/59/59
f 58/58/58 41/41/41 40/40/40
f 23/23/23 40/40/40 41/41/41
f 40/40/40 23/23/23 22/22/22
f 5/5/5 22/22/22 23/23/23
f 22/22/22 5/5/5 4/4/4
f 1/1/1 4/4/4 5/5/5
f 4/4/4 1/1/1 3/3/3
f 2/2/2 3/3/3 1/1/1
f 3/3/3 2/2/2 19/19/19
f 20/20/20 19/19/19 2/2/2
f 19/19/19 20/20/20 36/36/36
f 37/37/37 36/36/36 20/20/20
f 36/36/36 37/37/37 53/53/53
f 54/54/54 53/53/53 37/37/37
f 53/53/53 54/54/54 70/70/70
f 71/71/71 70/70/70 54/54/54
f 70/70/70 71/71/71 87/87/87
f 88/88/88 87/87/87 71/71/71
f 87/87/87 88/88/88 104/104/104
f 105/105/105 104/104/104 88/88/88
f 104/104/104 105/105/105 122/122/122
f 123/123/123 122/122/122 105/105/105
f 122/122/122 123/123/123 121/121/121
f 138/138/138 121/121/121 123/123/123
f 121/121/121 138/138/138 137/137/137
f 120/120/120 137/137/137 138/138/138
f 137/137/137 120/120/120 119/119/119
f 102/102/102 119/119/119 120/120/120
f 119/119/119 102/102/102 101/101/101
f 84/84/84 101/101/101 102/102/102
f 101/101/101 84/84/84 83/83/83
f 66/66/66 83/83/83 84/84/84
f 83/83/83 66/66/66 65/65/65
f 48/48/48 65/65/65 66/66/66
f 65/65/65 48/48/48 47/47/47
f 30/30/30 47/47/47 48/48/48
f 47/47/47 30/30/30 29/29/29
f 12/12/12 29/29/29 30/30/30
f 29/29/29 12/12/12 11/11/11
f 1/1/1 11/11/11 12/12/12
f 11/11/11 1/1/1 10/10/10
f 9/9/9 10/10/10 1/1/1
f 10/10/10 9/9/9 27/27/27
f 26/26/26 27/27/27 9/9/9
f 27/27/27 26/26/26 44/44/44
f 43/43/43 44/44/44 26/26/26
f 44/44/44 43/43/43 61/61/61
f 60/60/60 61/61/61 43/43/43
f 61/61/61 60/60/60 78/78/78
f 77/77/77 78/78/78 60/60/60
f 78/78/78 77/77/77 95/95/95
f 94/94/94 95/95/95 77/77/77
f 95/95/95 94/94/94 112/112/112
f 111/111/111 112/112/112 94/94/94
f 112/112/112 111/111/111 129/129/129
f 128/128/128 129/129/129 111/111/111
f 129/129/129 128/128/128 121/121/121
f 127/127/127 121/121/121 128/128/128
f 121/121/121 127/127/127 126/126/126
f 109/109/109 126/126/126 127/127/127
f 126/126/126 109/109/109 108/108/108
f 91/91/91 108/108/108 109/109/109
f 108/108/108 91/91/91 90/90/90
f 73/73/73 90/90/90 91/91/91
f 90/90/90 73/73/73 72/72/72
f 55/55/55 72/72/72 73/73/73
f 72/72/72 55/55/55 53/53/53
f 36/36/36 53/53/53 55/55/55
f 103/103/103 86/86/86 85/85/85
f 68/68/68 85/85/85 86/86/86
f 85/85/85 68/68/68 67/67/67
f 50/50/50 67/67/67 68/68/68
f 67/67/67 50/50/50 49/49/49
f 32/32/32 49/49/49 50/50/50
f 49/49/49 32/32/32 31/31/31
f 14/14/14 31/31/31 32/32/32
f 31/31/31 14/14/14 13/13/13
f 1/1/1 13/13/13 14/14/14
f 87/87/87 104/104/104 106/106/106
f 122/122/122 106/106/106 104/104/104
f 106/106/106 122/122/122 124/124/124
f 121/121/121 124/124/124 122/122/122
f 111/111/111 94/94/94 93/93/93
f 76/76/76 93/93/93 94/94/94
f 93/93/93 76/76/76 75/75/75
f 58/58/58 75/75/75 76/76/76
f 75/75/75 58/58/58 57/57/57
f 40/40/40 57/57/57 58/58/58
f 57/57/57 40/40/40 39/39/39
f 22/22/22 39/39/39 40/40/40
f 39/39/39 22/22/22 21/21/21
f 4/4/4 21/21/21 22/22/22
f 21/21/21 4/4/4 3/3/3
f 120/120/120 103/103/103 102/102/102
f 85/85/85 102/102/102 103/103/103
f 102/102/102 85/85/85 84/84/84
f 67/67/67 84/84/84 85/85/85
f 84/84/84 67/67/67 66/66/66
f 49/49/49 66/66/66 67/67/67
f 66/66/66 49/49/49 48/48/48
f 31/31/31 48/48/48 49/49/49
f 48/48/48 31/31/31 30/30/30
f 13/13/13 30/30/30 31/31/31
f 30/30/30 13/13/13 12/12/12
f 1/1/1 12/12/12 13/13/13
f 121/121/121 126/126/126 125/125/125
f 108/108/108 125/125/125 126/126/126
f 125/125/125 108/108/108 107/107/107
f 90/90/90 107/107/107 108/108/108
f 107/107/107 90/90/90 89/89/89
f 72/72/72 89/89/89 90/90/90
f 89/89/89 72/72/72 70/70/70
f 53/53/53 70/70/70 72/72/72
f 130/130/130 121/121/121 131/131/131
f 132/132/132 131/131/131 121/121/121
f 131/131/131 132/132/132 114/114/114
f 115/115/115 114/114/114 132/132/132
f 114/114/114 115/115/115 97/97/97
f 121/121/121 133/133/133 132/132/132
f 115/115/115 132/132/132 133/133/133
f 121/121/121 135/135/135 134/134/134
f 117/117/117 134/134/134 135/135/135
f 134/134/134 117/117/117 116/116/116
f 99/99/99 116/116/116 117/117/117
f 116/116/116 99/99/99 98/98/98
f 81/81/81 98/98/98 99/99/99
f 98/98/98 81/81/81 80/80/80
f 63/63/63 80/80/80 81/81/81
f 80/80/80 63/63/63 62/62/62
f 45/45/45 62/62/62 63/63/63
f 121/121/121 136/136/136 135/135/135
f 118/118/118 135/135/135 136/136/136
f 135/135/135 118/118/118 117/117/117
f 100/100/100 117/117/117 118/118/118
f 117/117/117 100/100/100 99/99/99
f 82/82/82 99/99/99 100/100/100
f 99/99/99 82/82/82 81/81/81
f 64/64/64 81/81/81 82/82/82
f 81/81/81 64/64/64 63/63/63
f 46/46/46 63/63/63 64/64/64
f 63/63/63 46/46/46 45/45/45
f 28/28/28 45/45/45 46/46/46
f 128/128/128 111/111/111 110/110/110
f 93/93/93 110/110/110 111/111/111
f 110/110/110 93/93/93 92/92/92
f 75/75/75 92/92/92 93/93/93
f 92/92/92 75/75/75 74/74/74
f 57/57/57 74/74/74 75/75/75
f 74/74/74 57/57/57 56/56/56
f 39/39/39 56/56/56 57/57/57
f 56/56/56 39/39/39 38/38/38
f 21/21/21 38/38/38 39/39/39
f 38/38/38 21/21/21 19/19/19
f 3/3/3 19/19/19 21/21/21
f 130/130/130 131/131/131 113/113/113
f 114/114/114 113/113/113 131/131/131
f 113/113/113 114/114/114 96/96/96
f 97/97/97 96/96/96 114/114/114
f 96/96/96 97/97/97 79/79/79
f 138/138/138 123/123/123 120/120/120
f 105/105/105 120/120/120 123/123/123
f 120/120/120 105/105/105 103/103/103
f 88/88/88 103/103/103 105/105/105
f 103/103/103 88/88/88 86/86/86
f 71/71/71 86/86/86 88/88/88
f 86/86/86 71/71/71 69/69/69
f 54/54/54 69/69/69 71/71/71
f 69/69/69 54/54/54 52/52/52
f 37/37/37 52/52/52 54/54/54
f 52/52/52 37/37/37 35/35/35
f 20/20/20 35/35/35 37/37/37
f 35/35/35 20/20/20 18/18/18
f 2/2/2 18/18/18 20/20/20
f 18/18/18 2/2/2 1/1/1
