mtllib TROLL_THROWING_ROCK.mtl
g GeoSphere03
usemtl 2_-_Default
v 14.165631 -1.692632 -6.842365
vn 0.901181 -0.127509 -0.414263
vt 0.939830 0.192084
v 8.928970 -1.838274 -12.827750
vn 0.610577 -0.300646 -0.732672
vt 0.923959 0.089513
v 11.574244 7.624180 -7.249090
vn 0.789704 0.494976 -0.362446
vt 0.924242 0.180879
v 2.630748 -1.436932 -16.145611
vn 0.187320 -0.384046 -0.904113
vt 0.871348 0.065631
v 5.368308 8.392155 -13.688085
vn 0.401368 0.567317 -0.719066
vt 0.885134 0.092714
v 5.657764 11.459276 -5.710521
vn 0.249378 0.963049 -0.101726
vt 0.866494 0.189259
v -4.445051 -1.437346 -15.809016
vn -0.268415 -0.392109 -0.879889
vt 0.785318 0.070505
v -4.190539 7.561420 -16.104397
vn -0.298729 0.353404 -0.886491
vt 0.776261 0.050325
v -4.092658 11.080235 -11.443415
vn -0.138272 0.945466 -0.294914
vt 0.790527 0.104294
v -2.882842 11.974239 -2.363491
vn -0.097322 0.991265 -0.089001
vt 0.775502 0.216178
v -0.524194 11.993489 -1.109570
vn 0.025692 0.998934 -0.038341
vt 0.794217 0.235135
v 15.830500 -0.749485 3.016522
vn 0.997175 0.052287 0.053922
vt 0.932709 0.311723
v 11.960621 8.453313 4.514492
vn 0.648702 0.718565 0.250700
vt 0.893247 0.324030
v 12.557508 -0.065773 10.159004
vn 0.729073 0.151755 0.667401
vt 0.887973 0.417094
v -1.046175 12.017596 1.213312
vn 0.015163 0.996710 0.079616
vt 0.782279 0.262484
v 1.845564 11.349340 5.460364
vn 0.025585 0.963599 0.266124
vt 0.796490 0.318764
v 5.010101 8.031524 11.199075
vn 0.233700 0.633536 0.737575
vt 0.806574 0.394187
v 5.781156 -0.058998 14.534116
vn 0.304922 0.170457 0.936999
vt 0.801458 0.449780
v 12.950708 -7.143992 -2.333631
vn 0.633531 -0.721877 -0.278446
vt 0.910088 0.246117
v 14.088316 -7.068427 6.325763
vn 0.771981 -0.559900 0.300927
vt 0.894948 0.352973
v 7.560295 -10.111687 4.366088
vn 0.299418 -0.947215 0.114596
vt 0.836080 0.319525
v 6.991491 -10.149468 0.036394
vn 0.259154 -0.946375 -0.192907
vt 0.843650 0.266098
v 6.280093 -7.001870 13.952240
vn 0.292182 -0.547188 0.784357
vt 0.800617 0.421048
v 3.656187 -10.078405 8.179331
vn 0.060036 -0.942424 0.328986
vt 0.787449 0.359580
v 3.110543 -10.175056 -2.896229
vn 0.112883 -0.938872 -0.325233
vt 0.815476 0.224355
v 5.188812 -7.195172 -8.198870
vn 0.241319 -0.829301 -0.504009
vt 0.853740 0.162631
v -2.070651 -10.181566 -3.641878
vn -0.131704 -0.955863 -0.262641
vt 0.768355 0.207076
v -5.173574 -7.208190 -9.690166
vn -0.146198 -0.829679 -0.538756
vt 0.741893 0.159363
v -14.148812 -0.342274 5.745395
vn -0.884079 -0.022069 0.466816
vt 0.634849 0.304320
v -13.719858 7.542880 2.276076
vn -0.814918 0.494123 0.302904
vt 0.654565 0.256273
v -15.683603 -1.697330 -1.830374
vn -0.985340 -0.164779 -0.044195
vt 0.647731 0.153474
v -9.469654 10.814387 -0.349283
vn -0.348776 0.936238 0.042587
vt 0.705715 0.230417
v -13.325244 7.148335 -6.376274
vn -0.785572 0.512246 -0.347103
vt 0.708963 0.152011
v -11.504927 -1.936380 -11.404445
vn -0.715952 -0.302634 -0.629147
vt 0.711728 0.093588
v -4.492161 11.936083 -0.622267
vn -0.124730 0.989455 0.073627
vt 0.754902 0.234756
v -8.536035 0.534693 11.662826
vn -0.608701 0.088626 0.788435
vt 0.655124 0.401682
v -1.578153 0.206799 14.893427
vn -0.167354 0.146272 0.974986
vt 0.714351 0.449604
v -6.400100 9.232938 8.641899
vn -0.328323 0.717331 0.614525
vt 0.706581 0.344751
v -11.264950 -7.063363 6.906631
vn -0.702181 -0.570285 0.426283
vt 0.657549 0.317324
v -3.666427 -7.011896 12.802728
vn -0.289423 -0.658437 0.694762
vt 0.706378 0.403332
v -5.116334 -10.109154 4.656523
vn -0.284652 -0.940770 0.184187
vt 0.714445 0.302904
v -1.317070 -10.083422 7.604571
vn -0.119634 -0.945353 0.303307
vt 0.741795 0.344705
v -12.565930 -7.138662 -1.721896
vn -0.556612 -0.814003 -0.166077
vt 0.665170 0.212990
v -5.766822 -10.146801 0.342261
vn -0.251212 -0.965438 -0.069443
vt 0.721191 0.249534
v 1.032287 -11.067421 2.406416
vn 0.001362 -0.999943 0.010577
vt 0.778977 0.285596
f 6/6/6 15/15/15 16/16/16
f 18/18/18 23/23/23 14/14/14
f 20/20/20 14/14/14 23/23/23
f 14/14/14 20/20/20 12/12/12
f 19/19/19 12/12/12 20/20/20
f 12/12/12 19/19/19 1/1/1
f 23/23/23 21/21/21 20/20/20
f 23/23/23 24/24/24 21/21/21
f 45/45/45 21/21/21 24/24/24
f 33/33/33 34/34/34 31/31/31
f 10/10/10 32/32/32 35/35/35
f 7/7/7 34/34/34 8/8/8
f 33/33/33 8/8/8 34/34/34
f 8/8/8 33/33/33 9/9/9
f 42/42/42 40/40/40 41/41/41
f 27/27/27 43/43/43 28/28/28
f 35/35/35 11/11/11 10/10/10
f 9/9/9 10/10/10 11/11/11
f 10/10/10 9/9/9 32/32/32
f 33/33/33 32/32/32 9/9/9
f 32/32/32 33/33/33 30/30/30
f 31/31/31 30/30/30 33/33/33
f 30/30/30 31/31/31 29/29/29
f 35/35/35 15/15/15 11/11/11
f 6/6/6 11/11/11 15/15/15
f 11/11/11 6/6/6 9/9/9
f 5/5/5 9/9/9 6/6/6
f 9/9/9 5/5/5 8/8/8
f 4/4/4 8/8/8 5/5/5
f 8/8/8 4/4/4 7/7/7
f 28/28/28 7/7/7 4/4/4
f 7/7/7 28/28/28 34/34/34
f 43/43/43 34/34/34 28/28/28
f 34/34/34 43/43/43 31/31/31
f 39/39/39 31/31/31 43/43/43
f 31/31/31 39/39/39 29/29/29
f 36/36/36 29/29/29 39/39/39
f 29/29/29 36/36/36 30/30/30
f 38/38/38 30/30/30 36/36/36
f 30/30/30 38/38/38 32/32/32
f 16/16/16 32/32/32 38/38/38
f 32/32/32 16/16/16 35/35/35
f 15/15/15 35/35/35 16/16/16
f 45/45/45 22/22/22 21/21/21
f 19/19/19 21/21/21 22/22/22
f 21/21/21 19/19/19 20/20/20
f 41/41/41 45/45/45 42/42/42
f 24/24/24 42/42/42 45/45/45
f 42/42/42 24/24/24 40/40/40
f 23/23/23 40/40/40 24/24/24
f 40/40/40 23/23/23 37/37/37
f 18/18/18 37/37/37 23/23/23
f 37/37/37 18/18/18 17/17/17
f 14/14/14 17/17/17 18/18/18
f 17/17/17 14/14/14 13/13/13
f 12/12/12 13/13/13 14/14/14
f 13/13/13 12/12/12 3/3/3
f 1/1/1 3/3/3 12/12/12
f 3/3/3 1/1/1 2/2/2
f 19/19/19 2/2/2 1/1/1
f 2/2/2 19/19/19 26/26/26
f 22/22/22 26/26/26 19/19/19
f 26/26/26 22/22/22 25/25/25
f 45/45/45 25/25/25 22/22/22
f 25/25/25 45/45/45 27/27/27
f 44/44/44 27/27/27 45/45/45
f 27/27/27 44/44/44 43/43/43
f 41/41/41 43/43/43 44/44/44
f 43/43/43 41/41/41 39/39/39
f 40/40/40 39/39/39 41/41/41
f 39/39/39 40/40/40 36/36/36
f 37/37/37 36/36/36 40/40/40
f 36/36/36 37/37/37 38/38/38
f 17/17/17 38/38/38 37/37/37
f 38/38/38 17/17/17 16/16/16
f 13/13/13 16/16/16 17/17/17
f 16/16/16 13/13/13 6/6/6
f 3/3/3 6/6/6 13/13/13
f 6/6/6 3/3/3 5/5/5
f 2/2/2 5/5/5 3/3/3
f 5/5/5 2/2/2 4/4/4
f 26/26/26 4/4/4 2/2/2
f 4/4/4 26/26/26 28/28/28
f 25/25/25 28/28/28 26/26/26
f 28/28/28 25/25/25 27/27/27
f 44/44/44 45/45/45 41/41/41
