mtllib EKH_THRONE_PS_TH_LINE07.mtl
g TH_Line07
usemtl Edgegrab
v -299.314484 996.513306 8044.984863
vn 0.747848 -0.065455 -0.660636
vt -0.117962 1.000000
v -370.727386 996.285400 7945.464844
vn 0.635397 -0.112555 -0.763938
vt 0.169871 1.000000
v -360.658997 1053.088135 7937.484375
vn 0.665692 0.430207 -0.609734
vt 0.169871 0.341281
v -293.288483 1053.088135 8046.971191
vn 0.518154 0.788840 -0.330527
vt -0.117962 0.341281
v -686.658447 1065.025635 8118.826172
vn -0.960364 -0.196014 0.198189
vt 1.529576 1.000000
v -706.590942 1119.892578 8121.189453
vn -0.824354 0.555670 0.108032
vt 1.529576 0.341281
v -708.624207 1089.265991 7983.210449
vn -0.884567 0.337810 -0.321598
vt 1.052447 0.341281
v -687.837952 1027.026489 7992.291504
vn -0.867500 -0.195212 -0.457532
vt 1.052447 1.000000
v -653.671448 1080.615845 8196.982422
vn -0.878103 -0.170635 0.447010
vt 1.750911 1.000000
v -668.727539 1135.171753 8205.104492
vn -0.716563 0.672082 0.186662
vt 1.750911 0.341281
v -631.853394 1089.439697 8240.108398
vn -0.804419 -0.206795 0.556907
vt 1.915180 1.000000
v -591.829956 1089.623657 8285.722656
vn -0.540779 -0.210482 0.814405
vt 2.118167 1.000000
v -600.878845 1146.018921 8302.658203
vn -0.490424 0.225841 0.841713
vt 2.118167 0.341281
v -647.622742 1146.018921 8256.390625
vn -0.596088 0.718950 0.357478
vt 1.915180 0.341281
v -496.569519 1087.978516 8317.773438
vn -0.330745 -0.136824 0.933749
vt 2.407316 1.000000
v -501.610870 1146.018921 8321.399414
vn -0.166403 0.669076 0.724325
vt 2.407316 0.341281
v -691.656433 1090.915771 7989.859375
vn -0.017767 0.976431 -0.215097
vt 1.052447 0.000000
v -604.495056 1069.971558 7911.506348
vn 0.083593 0.985291 -0.149041
vt 0.777259 0.000000
v -613.885681 1068.321777 7897.830566
vn -0.367049 0.538466 -0.758505
vt 0.777259 0.341281
v -690.298584 1121.542358 8118.160156
vn -0.139500 0.977835 -0.156134
vt 1.529576 0.000000
v -633.544250 1147.668701 8246.645508
vn -0.147831 0.986509 -0.070325
vt 1.915180 0.000000
v -653.542175 1136.821411 8198.716797
vn -0.162041 0.977823 -0.132680
vt 1.750911 0.000000
v -593.511292 1147.668701 8292.087891
vn -0.100407 0.963717 0.247320
vt 2.118167 0.000000
v -500.994263 1147.668701 8319.763672
vn -0.341042 0.307339 0.888388
vt 2.407316 0.000000
v -470.484680 993.940430 7891.421875
vn 0.180730 -0.143953 -0.972941
vt 0.498492 1.000000
v -466.592590 1053.088135 7875.759277
vn 0.173545 0.578193 -0.797230
vt 0.498500 0.341281
v -370.758514 1054.737915 7946.925293
vn 0.523664 0.646311 -0.555030
vt 0.169871 0.000000
v -299.720734 1054.737915 8045.991211
vn 0.516034 0.588825 -0.622089
vt -0.117962 0.000000
v -468.954010 1054.737915 7889.477539
vn 0.079007 0.991264 -0.105607
vt 0.498500 0.000000
v -607.112976 1010.316895 7915.515625
vn -0.400991 -0.164916 -0.901115
vt 0.777251 1.000000
f 4/4/4 27/27/27 28/28/28
f 27/27/27 4/4/4 3/3/3
f 1/1/1 3/3/3 4/4/4
f 3/3/3 1/1/1 2/2/2
f 26/26/26 3/3/3 2/2/2
f 3/3/3 26/26/26 27/27/27
f 29/29/29 27/27/27 26/26/26
f 18/18/18 26/26/26 19/19/19
f 26/26/26 18/18/18 29/29/29
f 17/17/17 18/18/18 19/19/19
f 19/19/19 7/7/7 17/17/17
f 6/6/6 17/17/17 7/7/7
f 17/17/17 6/6/6 20/20/20
f 10/10/10 20/20/20 6/6/6
f 20/20/20 10/10/10 22/22/22
f 21/21/21 22/22/22 10/10/10
f 10/10/10 14/14/14 21/21/21
f 23/23/23 21/21/21 14/14/14
f 2/2/2 25/25/25 26/26/26
f 30/30/30 26/26/26 25/25/25
f 26/26/26 30/30/30 19/19/19
f 8/8/8 19/19/19 30/30/30
f 19/19/19 8/8/8 7/7/7
f 5/5/5 7/7/7 8/8/8
f 7/7/7 5/5/5 6/6/6
f 9/9/9 6/6/6 5/5/5
f 6/6/6 9/9/9 10/10/10
f 11/11/11 10/10/10 9/9/9
f 10/10/10 11/11/11 14/14/14
f 13/13/13 14/14/14 11/11/11
f 14/14/14 13/13/13 23/23/23
f 16/16/16 23/23/23 13/13/13
f 23/23/23 16/16/16 24/24/24
f 11/11/11 12/12/12 13/13/13
f 15/15/15 13/13/13 12/12/12
f 13/13/13 15/15/15 16/16/16
