mtllib EKH_JAIL_ANIM_JA_DUMB_GATE1__AI.mtl
g _Dumb_Gate1__AI
usemtl Metal_bar
v -8318.409180 148.123154 9399.347656
vn -0.995494 -0.094825 0.000773
vt 0.000000 -0.512906
v -8315.409180 148.123154 9396.347656
vn -0.000776 0.016291 -0.999867
vt 0.250000 -0.512906
v -8309.792969 109.245789 9396.347656
vn -0.315898 -0.045637 -0.947695
vt 0.250000 0.002378
v -8312.792969 109.245789 9399.347656
vn -0.939897 -0.135785 0.313299
vt 0.000000 0.002378
v -8312.409180 148.123154 9399.347656
vn 0.995494 0.094825 -0.000773
vt 0.500000 -0.512906
v -8306.792969 109.245789 9399.347656
vn 0.939897 0.135785 -0.313299
vt 0.500000 0.002378
v -8315.409180 148.123154 9402.347656
vn 0.000776 -0.016291 0.999867
vt 0.750000 -0.512906
v -8309.792969 109.245789 9402.347656
vn 0.315898 0.045637 0.947695
vt 0.750000 0.002378
v -8318.409180 148.123154 9399.347656
vn -0.995494 -0.094825 0.000773
vt 1.000000 -0.512906
v -8312.792969 109.245789 9399.347656
vn -0.939897 -0.135785 0.313299
vt 1.000000 0.002378
v -8318.258789 225.877869 9399.347656
vn -0.995492 0.094842 -0.000711
vt 0.000000 -1.543473
v -8315.258789 225.877869 9396.347656
vn 0.000714 0.015001 -0.999887
vt 0.250000 -1.543473
v -8317.208008 187.000519 9396.347656
vn 0.000016 0.016069 -0.999871
vt 0.250000 -1.028189
v -8320.208008 187.000519 9399.347656
vn -0.999998 0.001942 -0.000016
vt 0.000000 -1.028189
v -8315.258789 225.877869 9402.347656
vn -0.000714 -0.015001 0.999887
vt 0.750000 -1.543473
v -8318.258789 225.877869 9399.347656
vn -0.995492 0.094842 -0.000711
vt 1.000000 -1.543473
v -8320.208008 187.000519 9399.347656
vn -0.999998 0.001942 -0.000016
vt 1.000000 -1.028189
v -8317.208008 187.000519 9402.347656
vn -0.000016 -0.016069 0.999871
vt 0.750000 -1.028189
v -8312.258789 225.877869 9399.347656
vn 0.995492 -0.094842 0.000711
vt 0.500000 -1.543473
v -8314.208008 187.000519 9399.347656
vn 0.999998 -0.001942 0.000016
vt 0.500000 -1.028189
v -8312.792969 264.755249 9399.347656
vn -0.940358 0.132195 -0.313452
vt 0.000000 -2.058756
v -8309.792969 264.755249 9396.347656
vn 0.315916 -0.044411 -0.947747
vt 0.250000 -2.058756
v -8306.792969 264.755249 9399.347656
vn 0.940358 -0.132195 0.313452
vt 0.500000 -2.058756
v -8309.792969 264.755249 9402.347656
vn -0.315916 0.044411 0.947747
vt 0.750000 -2.058756
v -8312.792969 264.755249 9399.347656
vn -0.940358 0.132195 -0.313452
vt 1.000000 -2.058756
v -8347.870117 148.123154 9392.083008
vn -0.995494 -0.094825 0.000773
vt 0.000000 2.286558
v -8344.870117 148.123154 9389.083008
vn -0.000776 0.016291 -0.999867
vt 0.250000 2.286558
v -8339.253906 109.245789 9389.083008
vn -0.315898 -0.045637 -0.947695
vt 0.250000 2.898457
v -8342.253906 109.245789 9392.083008
vn -0.939897 -0.135785 0.313299
vt 0.000000 2.898457
v -8341.870117 148.123154 9392.083008
vn 0.995494 0.094825 -0.000773
vt 0.500000 2.286558
v -8336.253906 109.245789 9392.083008
vn 0.939897 0.135785 -0.313299
vt 0.500000 2.898457
v -8344.870117 148.123154 9395.083008
vn 0.000776 -0.016291 0.999867
vt 0.750000 2.286558
v -8339.253906 109.245789 9395.083008
vn 0.315898 0.045637 0.947695
vt 0.750000 2.898457
v -8347.870117 148.123154 9392.083008
vn -0.995494 -0.094825 0.000773
vt 1.000000 2.286558
v -8342.253906 109.245789 9392.083008
vn -0.939897 -0.135785 0.313299
vt 1.000000 2.898457
v -8347.719727 225.877869 9392.083008
vn -0.995492 0.094842 -0.000711
vt 0.000000 1.062760
v -8344.719727 225.877869 9389.083008
vn 0.000714 0.015001 -0.999887
vt 0.250000 1.062760
v -8346.668945 187.000519 9389.083008
vn 0.000016 0.016069 -0.999871
vt 0.250000 1.674659
v -8349.668945 187.000519 9392.083008
vn -0.999998 0.001942 -0.000016
vt 0.000000 1.674659
v -8344.719727 225.877869 9395.083008
vn -0.000714 -0.015001 0.999887
vt 0.750000 1.062760
v -8347.719727 225.877869 9392.083008
vn -0.995492 0.094842 -0.000711
vt 1.000000 1.062760
v -8349.668945 187.000519 9392.083008
vn -0.999998 0.001942 -0.000016
vt 1.000000 1.674659
v -8346.668945 187.000519 9395.083008
vn -0.000016 -0.016069 0.999871
vt 0.750000 1.674659
v -8341.719727 225.877869 9392.083008
vn 0.995492 -0.094842 0.000711
vt 0.500000 1.062760
v -8343.668945 187.000519 9392.083008
vn 0.999998 -0.001942 0.000016
vt 0.500000 1.674659
v -8342.253906 264.755249 9392.083008
vn -0.940358 0.132195 -0.313452
vt 0.000000 0.450861
v -8339.253906 264.755249 9389.083008
vn 0.315916 -0.044411 -0.947747
vt 0.250000 0.450861
v -8336.253906 264.755249 9392.083008
vn 0.940358 -0.132195 0.313452
vt 0.500000 0.450861
v -8339.253906 264.755249 9395.083008
vn -0.315916 0.044411 0.947747
vt 0.750000 0.450861
v -8342.253906 264.755249 9392.083008
vn -0.940358 0.132195 -0.313452
vt 1.000000 0.450861
v -8288.974609 148.123154 9406.815430
vn -0.995494 -0.094825 0.000773
vt 0.000000 1.158441
v -8285.974609 148.123154 9403.815430
vn -0.000776 0.016291 -0.999867
vt 0.250000 1.158441
v -8280.358398 109.245789 9403.815430
vn -0.315898 -0.045637 -0.947695
vt 0.250000 1.661648
v -8283.358398 109.245789 9406.815430
vn -0.939897 -0.135785 0.313299
vt 0.000000 1.661648
v -8282.974609 148.123154 9406.815430
vn 0.995494 0.094825 -0.000773
vt 0.500000 1.158441
v -8277.358398 109.245789 9406.815430
vn 0.939897 0.135785 -0.313299
vt 0.500000 1.661648
v -8285.974609 148.123154 9409.815430
vn 0.000776 -0.016291 0.999867
vt 0.750000 1.158441
v -8280.358398 109.245789 9409.815430
vn 0.315898 0.045637 0.947695
vt 0.750000 1.661648
v -8288.974609 148.123154 9406.815430
vn -0.995494 -0.094825 0.000773
vt 1.000000 1.158441
v -8283.358398 109.245789 9406.815430
vn -0.939897 -0.135785 0.313299
vt 1.000000 1.661648
v -8288.824219 225.877869 9406.815430
vn -0.995492 0.094842 -0.000711
vt 0.000000 0.152028
v -8285.824219 225.877869 9403.815430
vn 0.000714 0.015001 -0.999887
vt 0.250000 0.152028
v -8287.773438 187.000519 9403.815430
vn 0.000016 0.016069 -0.999871
vt 0.250000 0.655235
v -8290.773438 187.000519 9406.815430
vn -0.999998 0.001942 -0.000016
vt 0.000000 0.655235
v -8285.824219 225.877869 9409.815430
vn -0.000714 -0.015001 0.999887
vt 0.750000 0.152028
v -8288.824219 225.877869 9406.815430
vn -0.995492 0.094842 -0.000711
vt 1.000000 0.152028
v -8290.773438 187.000519 9406.815430
vn -0.999998 0.001942 -0.000016
vt 1.000000 0.655235
v -8287.773438 187.000519 9409.815430
vn -0.000016 -0.016069 0.999871
vt 0.750000 0.655235
v -8282.824219 225.877869 9406.815430
vn 0.995492 -0.094842 0.000711
vt 0.500000 0.152028
v -8284.773438 187.000519 9406.815430
vn 0.999998 -0.001942 0.000016
vt 0.500000 0.655235
v -8283.358398 264.755249 9406.815430
vn -0.940358 0.132195 -0.313452
vt 0.000000 -0.351178
v -8280.358398 264.755249 9403.815430
vn 0.315916 -0.044411 -0.947747
vt 0.250000 -0.351178
v -8277.358398 264.755249 9406.815430
vn 0.940358 -0.132195 0.313452
vt 0.500000 -0.351178
v -8280.358398 264.755249 9409.815430
vn -0.315916 0.044411 0.947747
vt 0.750000 -0.351178
v -8283.358398 264.755249 9406.815430
vn -0.940358 0.132195 -0.313452
vt 1.000000 -0.351178
v -8339.253906 264.755249 9395.083008
vn 0.000000 1.000000 0.000000
vt 0.500001 0.291608
v -8336.253906 264.755249 9392.083008
vn 0.000000 1.000000 0.000000
vt 0.286539 0.500000
v -8339.253906 264.755249 9389.083008
vn 0.000000 1.000000 0.000000
vt 0.500000 0.708393
v -8342.253906 264.755249 9392.083008
vn 0.000000 1.000000 0.000000
vt 0.713462 0.500001
v -8309.792969 264.755249 9402.347656
vn 0.000000 1.000000 0.000000
vt 0.499999 0.291004
v -8306.792969 264.755249 9399.347656
vn 0.000000 1.000000 0.000000
vt 0.291003 0.500000
v -8309.792969 264.755249 9396.347656
vn 0.000000 1.000000 0.000000
vt 0.499999 0.708996
v -8312.792969 264.755249 9399.347656
vn 0.000000 1.000000 0.000000
vt 0.708995 0.500000
v -8280.358398 264.755249 9409.815430
vn 0.000000 1.000000 0.000000
vt 0.500000 0.289240
v -8277.358398 264.755249 9406.815430
vn 0.000000 1.000000 0.000000
vt 0.291875 0.500000
v -8280.358398 264.755249 9403.815430
vn 0.000000 1.000000 0.000000
vt 0.500000 0.710760
v -8283.358398 264.755249 9406.815430
vn 0.000000 1.000000 0.000000
vt 0.708126 0.500000
f 78/78/78 76/76/76 77/77/77
f 76/76/76 78/78/78 79/79/79
f 41/41/41 49/49/49 50/50/50
f 49/49/49 41/41/41 40/40/40
f 42/42/42 40/40/40 41/41/41
f 40/40/40 42/42/42 43/43/43
f 34/34/34 43/43/43 42/42/42
f 43/43/43 34/34/34 32/32/32
f 35/35/35 32/32/32 34/34/34
f 32/32/32 35/35/35 33/33/33
f 40/40/40 48/48/48 49/49/49
f 48/48/48 40/40/40 44/44/44
f 43/43/43 44/44/44 40/40/40
f 44/44/44 43/43/43 45/45/45
f 32/32/32 45/45/45 43/43/43
f 45/45/45 32/32/32 30/30/30
f 33/33/33 30/30/30 32/32/32
f 30/30/30 33/33/33 31/31/31
f 44/44/44 47/47/47 48/48/48
f 47/47/47 44/44/44 37/37/37
f 45/45/45 37/37/37 44/44/44
f 37/37/37 45/45/45 38/38/38
f 30/30/30 38/38/38 45/45/45
f 38/38/38 30/30/30 27/27/27
f 31/31/31 27/27/27 30/30/30
f 27/27/27 31/31/31 28/28/28
f 37/37/37 46/46/46 47/47/47
f 46/46/46 37/37/37 36/36/36
f 38/38/38 36/36/36 37/37/37
f 36/36/36 38/38/38 39/39/39
f 27/27/27 39/39/39 38/38/38
f 39/39/39 27/27/27 26/26/26
f 28/28/28 26/26/26 27/27/27
f 26/26/26 28/28/28 29/29/29
f 1/1/1 3/3/3 4/4/4
f 3/3/3 1/1/1 2/2/2
f 14/14/14 2/2/2 1/1/1
f 2/2/2 14/14/14 13/13/13
f 11/11/11 13/13/13 14/14/14
f 13/13/13 11/11/11 12/12/12
f 21/21/21 12/12/12 11/11/11
f 12/12/12 21/21/21 22/22/22
f 19/19/19 22/22/22 23/23/23
f 22/22/22 19/19/19 12/12/12
f 20/20/20 12/12/12 19/19/19
f 12/12/12 20/20/20 13/13/13
f 5/5/5 13/13/13 20/20/20
f 13/13/13 5/5/5 2/2/2
f 6/6/6 2/2/2 5/5/5
f 2/2/2 6/6/6 3/3/3
f 15/15/15 23/23/23 24/24/24
f 23/23/23 15/15/15 19/19/19
f 18/18/18 19/19/19 15/15/15
f 19/19/19 18/18/18 20/20/20
f 7/7/7 20/20/20 18/18/18
f 20/20/20 7/7/7 5/5/5
f 8/8/8 5/5/5 7/7/7
f 5/5/5 8/8/8 6/6/6
f 16/16/16 24/24/24 25/25/25
f 24/24/24 16/16/16 15/15/15
f 17/17/17 15/15/15 16/16/16
f 15/15/15 17/17/17 18/18/18
f 9/9/9 18/18/18 17/17/17
f 18/18/18 9/9/9 7/7/7
f 10/10/10 7/7/7 9/9/9
f 7/7/7 10/10/10 8/8/8
f 65/65/65 66/66/66 67/67/67
f 66/66/66 65/65/65 74/74/74
f 73/73/73 74/74/74 65/65/65
f 74/74/74 75/75/75 66/66/66
f 68/68/68 67/67/67 59/59/59
f 67/67/67 68/68/68 65/65/65
f 69/69/69 65/65/65 68/68/68
f 65/65/65 69/69/69 73/73/73
f 72/72/72 73/73/73 69/69/69
f 71/71/71 72/72/72 62/62/62
f 69/69/69 62/62/62 72/72/72
f 62/62/62 69/69/69 70/70/70
f 68/68/68 70/70/70 69/69/69
f 70/70/70 68/68/68 57/57/57
f 59/59/59 57/57/57 68/68/68
f 57/57/57 59/59/59 60/60/60
f 62/62/62 61/61/61 71/71/71
f 61/61/61 62/62/62 63/63/63
f 70/70/70 63/63/63 62/62/62
f 63/63/63 70/70/70 55/55/55
f 57/57/57 55/55/55 70/70/70
f 55/55/55 57/57/57 58/58/58
f 60/60/60 58/58/58 57/57/57
f 63/63/63 64/64/64 61/61/61
f 64/64/64 63/63/63 52/52/52
f 55/55/55 52/52/52 63/63/63
f 52/52/52 55/55/55 56/56/56
f 58/58/58 56/56/56 55/55/55
f 52/52/52 51/51/51 64/64/64
f 51/51/51 52/52/52 53/53/53
f 56/56/56 53/53/53 52/52/52
f 53/53/53 54/54/54 51/51/51
f 82/82/82 80/80/80 81/81/81
f 80/80/80 82/82/82 83/83/83
f 86/86/86 84/84/84 85/85/85
f 84/84/84 86/86/86 87/87/87
