mtllib EKH_THRONE_PS_TH_PUZZLE_ROOF.mtl
g TH_Puzzle_roof
usemtl Cave_Blender_Vines_Ground
v -910.219421 1487.990601 10749.416016
vn 0.178563 -0.741597 -0.646645
vt 1.123422 0.220164
v -923.047668 1415.015625 10800.539063
vn 0.198528 -0.502874 -0.841252
vt 1.183951 0.054028
v -1041.861328 1409.412476 10804.412109
vn -0.064442 -0.391756 -0.917809
vt 1.348628 0.059874
v -1063.322388 1468.273315 10783.943359
vn -0.179868 -0.623258 -0.761050
vt 1.351348 0.168764
v -79.882126 1529.252563 11014.294922
vn -0.283371 -0.738411 -0.611924
vt -0.112710 -0.174164
v 96.820984 1555.954712 10835.652344
vn -0.588314 -0.762654 -0.268786
vt -0.375770 0.091784
v 171.979919 1467.203735 10871.370117
vn -0.673565 -0.651920 -0.348298
vt -0.511426 0.029103
v -18.972120 1444.136841 11068.310547
vn -0.359130 -0.642911 -0.676529
vt -0.217647 -0.302111
v 96.820984 1555.954712 10835.652344
vn -0.588314 -0.762654 -0.268786
vt -0.375770 0.091784
v 95.289337 1566.402588 10655.812500
vn -0.694792 -0.704767 0.143413
vt -0.373490 0.359512
v 180.494659 1475.233154 10664.803711
vn -0.755710 -0.643939 0.119355
vt -0.524102 0.412674
v 171.979919 1467.203735 10871.370117
vn -0.673565 -0.651920 -0.348298
vt -0.511426 0.029103
v 19.658333 1564.405640 10458.233398
vn -0.447430 -0.746277 0.492825
vt -0.260897 0.653650
v 94.349464 1471.398682 10438.062500
vn -0.617120 -0.618860 0.485978
vt -0.395857 0.750225
v -631.037598 1520.158447 10964.454102
vn 0.443241 -0.661241 -0.605226
vt 0.707801 -0.099965
v -629.013672 1432.221313 11026.647461
vn 0.513170 -0.488379 -0.705792
vt 0.747568 -0.244839
v -794.606445 1420.618408 10857.326172
vn 0.538027 -0.448207 -0.713889
vt 0.986165 0.005647
v -783.563171 1516.720825 10804.219727
vn 0.498666 -0.724943 -0.475174
vt 0.934868 0.138578
v -241.106369 1526.119629 11045.864258
vn -0.049097 -0.743782 -0.666617
vt 0.127306 -0.221161
v -201.360779 1441.422119 11110.730469
vn -0.084036 -0.635304 -0.767676
vt 0.101410 -0.365262
v -419.399780 1438.411011 11113.037109
vn 0.167223 -0.607205 -0.776749
vt 0.402240 -0.368695
v -439.041016 1523.596191 11045.355469
vn 0.188618 -0.689048 -0.699740
vt 0.421974 -0.220404
v -418.163544 1558.414917 10318.294922
vn -0.037148 -0.732500 0.679753
vt 0.390893 0.861979
v -638.154602 1520.130371 10291.870117
vn -0.049945 -0.728994 0.682696
vt 0.718396 0.901318
v -604.488708 1426.706055 10224.493164
vn -0.165896 -0.405311 0.899000
vt 0.689560 1.039459
v -371.452515 1472.486084 10261.368164
vn -0.101164 -0.410788 0.906101
vt 0.366285 1.010576
v -771.251892 1465.019531 10199.339844
vn -0.304076 -0.696473 0.649972
vt 0.916539 1.039069
v -746.624451 1372.946777 10154.181641
vn -0.384593 -0.400059 0.831890
vt 0.853863 1.170146
v -879.686768 1402.360962 10064.252930
vn -0.650090 -0.349529 0.674695
vt 1.077967 1.240173
v -854.612305 1340.209839 10075.077148
vn -0.594695 -0.258360 0.761307
vt 0.988613 1.287910
v -629.013672 1432.221313 11026.647461
vn 0.513170 -0.488379 -0.705792
vt 0.747568 -0.244839
v -631.037598 1520.158447 10964.454102
vn 0.443241 -0.661241 -0.605226
vt 0.707801 -0.099965
v -165.375488 1562.408691 10359.115234
vn -0.182204 -0.732745 0.655657
vt 0.014565 0.801209
v -418.163544 1558.414917 10318.294922
vn -0.037148 -0.732500 0.679753
vt 0.390893 0.861979
v -371.452515 1472.486084 10261.368164
vn -0.101164 -0.410788 0.906101
vt 0.366285 1.010576
v -106.880638 1476.946411 10306.930664
vn -0.258700 -0.550032 0.794065
vt -0.044139 0.945112
v -943.012024 1383.056396 10009.851563
vn -0.615173 -0.158446 0.772306
vt 1.106025 1.392106
v -1097.970093 1534.783936 10740.679688
vn -0.352864 -0.665158 -0.658066
vt 1.458100 0.262282
v -1163.400635 1434.216064 10811.683594
vn -0.090513 -0.437153 -0.894821
vt 1.519349 0.124297
v -956.706543 1541.177368 10587.025391
vn -0.190970 -0.937446 -0.291076
vt 1.192628 0.461918
v -1007.420715 1585.257690 10554.357422
vn -0.590944 -0.729836 -0.343692
vt 1.333159 0.523226
v -895.729614 1544.941772 10415.314453
vn -0.307663 -0.951307 -0.018907
vt 1.101851 0.717545
v -956.706543 1541.177368 10587.025391
vn -0.190970 -0.937446 -0.291076
vt 1.192628 0.461918
v -1007.420715 1585.257690 10554.357422
vn -0.590944 -0.729836 -0.343692
vt 1.333159 0.523226
v -942.917908 1585.596191 10379.404297
vn -0.705523 -0.690114 -0.161184
vt 1.253450 0.771004
v -854.568420 1510.337524 10221.318359
vn -0.577842 -0.760370 0.296540
vt 1.040573 1.006350
v -894.340088 1559.058594 10191.136719
vn -0.851225 -0.506546 0.137214
vt 1.187706 1.054568
v -913.915039 1467.533203 10054.252930
vn -0.739862 -0.305588 0.599350
vt 1.173855 1.255062
v -956.706543 1541.177368 10587.025391
vn -0.190970 -0.937446 -0.291076
vt 1.192628 0.461918
v -858.050720 1541.486450 10628.856445
vn 0.319766 -0.934965 -0.153593
vt 1.045758 0.399643
v -910.219421 1487.990601 10749.416016
vn 0.178563 -0.741597 -0.646645
vt 1.123422 0.220164
v -1063.322388 1468.273315 10783.943359
vn -0.179868 -0.623258 -0.761050
vt 1.351348 0.168764
v -638.154602 1520.130371 10291.870117
vn -0.049945 -0.728994 0.682696
vt 0.718396 0.901318
v -418.163544 1558.414917 10318.294922
vn -0.037148 -0.732500 0.679753
vt 0.390893 0.861979
v -471.381989 1660.252441 10479.834961
vn 0.088304 -0.937640 0.336206
vt 0.470120 0.621493
v -674.506714 1593.811279 10419.958008
vn 0.217654 -0.909559 0.354020
vt 0.772514 0.710633
v -165.375488 1562.408691 10359.115234
vn -0.182204 -0.732745 0.655657
vt 0.014565 0.801209
v -233.791763 1664.107178 10530.675781
vn -0.109698 -0.944726 0.308963
vt 0.116417 0.545806
v 19.658333 1564.405640 10458.233398
vn -0.447430 -0.746277 0.492825
vt -0.260897 0.653650
v -45.532742 1666.235840 10605.141602
vn -0.356155 -0.925127 0.131509
vt -0.163846 0.434947
v 95.289337 1566.402588 10655.812500
vn -0.694792 -0.704767 0.143413
vt -0.373490 0.359512
v 51.482346 1610.442749 10734.669922
vn -0.480025 -0.867641 -0.129515
vt -0.308274 0.242117
v 96.820984 1555.954712 10835.652344
vn -0.588314 -0.762654 -0.268786
vt -0.375770 0.091784
v -524.600464 1686.551880 10641.375000
vn 0.203861 -0.978366 -0.035216
vt 0.549347 0.381007
v -710.858887 1607.101807 10548.044922
vn 0.362453 -0.924191 0.120410
vt 0.826632 0.519948
v -577.819031 1641.124146 10802.914063
vn 0.331903 -0.877843 -0.345300
vt 0.628574 0.140521
v -631.037598 1520.158447 10964.454102
vn 0.443241 -0.661241 -0.605226
vt 0.707801 -0.099965
v -783.563171 1516.720825 10804.219727
vn 0.498666 -0.724943 -0.475174
vt 0.934868 0.138578
v -747.210999 1592.106445 10676.132813
vn 0.438722 -0.884284 -0.159888
vt 0.880750 0.329263
v -302.208099 1690.267700 10702.235352
vn -0.062515 -0.994322 -0.086117
vt 0.218269 0.290403
v -370.624481 1644.700928 10873.794922
vn 0.056197 -0.904076 -0.423660
vt 0.320121 0.034999
v -439.041016 1523.596191 11045.355469
vn 0.188618 -0.689048 -0.699740
vt 0.421974 -0.220404
v -110.723892 1656.664307 10752.048828
vn -0.178627 -0.964740 -0.193313
vt -0.066796 0.216245
v -241.106369 1526.119629 11045.864258
vn -0.049097 -0.743782 -0.666617
vt 0.127306 -0.221161
v -175.915131 1608.289185 10898.956055
vn -0.110707 -0.900317 -0.420919
vt 0.030255 -0.002458
v -79.882126 1529.252563 11014.294922
vn -0.283371 -0.738411 -0.611924
vt -0.112710 -0.174164
v -15.150160 1598.058716 10868.500977
vn -0.285220 -0.878463 -0.383344
vt -0.209077 0.042881
v 18.166092 1604.250732 10801.584961
vn -0.350313 -0.900473 -0.257740
vt -0.258675 0.142499
v -895.729614 1544.941772 10415.314453
vn -0.307663 -0.951307 -0.018907
vt 1.101851 0.717545
v -854.568420 1510.337524 10221.318359
vn -0.577842 -0.760370 0.296540
vt 1.040573 1.006350
v -770.629517 1526.918823 10317.915039
vn 0.027152 -0.954009 0.298545
vt 0.915613 0.862544
v -809.386169 1550.866211 10478.957031
vn 0.216204 -0.970906 0.102945
vt 0.973310 0.622799
v -879.686768 1402.360962 10064.252930
vn -0.650090 -0.349529 0.674695
vt 1.077967 1.240173
v -771.251892 1465.019531 10199.339844
vn -0.304076 -0.696473 0.649972
vt 0.916539 1.039069
f 5/5/5 6/6/6 7/7/7
f 7/7/7 8/8/8 5/5/5
f 20/20/20 5/5/5 8/8/8
f 5/5/5 20/20/20 19/19/19
f 21/21/21 19/19/19 20/20/20
f 19/19/19 21/21/21 22/22/22
f 31/31/31 22/22/22 21/21/21
f 22/22/22 31/31/31 32/32/32
f 52/52/52 49/49/49 51/51/51
f 50/50/50 51/51/51 49/49/49
f 51/51/51 50/50/50 68/68/68
f 69/69/69 68/68/68 50/50/50
f 68/68/68 69/69/69 66/66/66
f 64/64/64 66/66/66 69/69/69
f 66/66/66 64/64/64 71/71/71
f 70/70/70 71/71/71 64/64/64
f 71/71/71 70/70/70 75/75/75
f 73/73/73 75/75/75 70/70/70
f 75/75/75 73/73/73 77/77/77
f 78/78/78 77/77/77 73/73/73
f 77/77/77 78/78/78 63/63/63
f 62/62/62 63/63/63 78/78/78
f 63/63/63 62/62/62 61/61/61
f 60/60/60 61/61/61 62/62/62
f 61/61/61 60/60/60 59/59/59
f 58/58/58 59/59/59 60/60/60
f 62/62/62 78/78/78 73/73/73
f 73/73/73 60/60/60 62/62/62
f 60/60/60 73/73/73 58/58/58
f 70/70/70 58/58/58 73/73/73
f 58/58/58 70/70/70 55/55/55
f 64/64/64 55/55/55 70/70/70
f 55/55/55 64/64/64 65/65/65
f 69/69/69 65/65/65 64/64/64
f 65/65/65 69/69/69 50/50/50
f 58/58/58 55/55/55 54/54/54
f 58/58/58 57/57/57 59/59/59
f 57/57/57 58/58/58 54/54/54
f 55/55/55 53/53/53 54/54/54
f 53/53/53 55/55/55 56/56/56
f 65/65/65 56/56/56 55/55/55
f 56/56/56 65/65/65 82/82/82
f 50/50/50 82/82/82 65/65/65
f 82/82/82 50/50/50 49/49/49
f 56/56/56 84/84/84 53/53/53
f 84/84/84 56/56/56 81/81/81
f 82/82/82 81/81/81 56/56/56
f 81/81/81 82/82/82 79/79/79
f 49/49/49 79/79/79 82/82/82
f 83/83/83 84/84/84 80/80/80
f 81/81/81 80/80/80 84/84/84
f 80/80/80 81/81/81 79/79/79
f 34/34/34 35/35/35 33/33/33
f 36/36/36 33/33/33 35/35/35
f 33/33/33 36/36/36 13/13/13
f 14/14/14 13/13/13 36/36/36
f 13/13/13 14/14/14 10/10/10
f 11/11/11 10/10/10 14/14/14
f 10/10/10 11/11/11 9/9/9
f 12/12/12 9/9/9 11/11/11
f 26/26/26 23/23/23 25/25/25
f 24/24/24 25/25/25 23/23/23
f 25/25/25 24/24/24 28/28/28
f 27/27/27 28/28/28 24/24/24
f 28/28/28 27/27/27 30/30/30
f 29/29/29 30/30/30 27/27/27
f 30/30/30 29/29/29 37/37/37
f 48/48/48 37/37/37 29/29/29
f 48/48/48 29/29/29 46/46/46
f 43/43/43 44/44/44 42/42/42
f 45/45/45 42/42/42 44/44/44
f 42/42/42 45/45/45 46/46/46
f 47/47/47 46/46/46 45/45/45
f 46/46/46 47/47/47 48/48/48
f 71/71/71 72/72/72 67/67/67
f 72/72/72 71/71/71 74/74/74
f 75/75/75 74/74/74 71/71/71
f 74/74/74 75/75/75 76/76/76
f 77/77/77 76/76/76 75/75/75
f 76/76/76 77/77/77 63/63/63
f 67/67/67 66/66/66 71/71/71
f 66/66/66 67/67/67 68/68/68
f 17/17/17 2/2/2 1/1/1
f 3/3/3 1/1/1 2/2/2
f 1/1/1 3/3/3 4/4/4
f 39/39/39 4/4/4 3/3/3
f 4/4/4 39/39/39 38/38/38
f 38/38/38 40/40/40 4/4/4
f 40/40/40 38/38/38 41/41/41
f 17/17/17 15/15/15 16/16/16
f 15/15/15 17/17/17 18/18/18
f 1/1/1 18/18/18 17/17/17
