mtllib EKH_ENTRANCE_PS_EN_TREE_LINE9398376.mtl
g ree_Line9398376
usemtl EKH_Tree_Wall
v -2974.455811 3077.985352 -5411.689453
vn 0.723130 -0.050465 0.688866
vt 0.676091 0.005435
v -3147.144531 1533.741333 -5313.987305
vn 0.704301 -0.024550 0.709477
vt 0.676091 0.782609
v -2819.682373 1217.810425 -5788.151855
vn 0.767564 -0.065183 0.637649
vt -0.020694 0.782609
v -2489.046387 2674.693359 -5975.216797
vn 0.727295 -0.077497 0.681936
vt -0.020694 0.005435
v -3574.254639 3252.720215 -4928.019531
vn 0.553851 -0.006898 0.832587
vt 1.366477 0.005435
v -3575.403809 1677.195068 -4927.369141
vn 0.445355 -0.009107 0.895308
vt 1.366477 0.782609
v -4298.086914 3091.031494 -4662.814941
vn 0.280535 -0.021966 0.959592
vt 2.055460 0.005435
v -4127.611816 1543.405273 -4759.265137
vn 0.207821 -0.054990 0.976620
vt 2.055460 0.782609
v -5052.638672 2711.633057 -4524.805664
vn 0.162435 -0.068929 0.984309
vt 2.763513 0.005435
v -4718.639648 1245.173340 -4713.773438
vn 0.125721 -0.098571 0.987157
vt 2.763513 0.782609
f 1/1/1 3/3/3 4/4/4
f 3/3/3 1/1/1 2/2/2
f 5/5/5 2/2/2 1/1/1
f 2/2/2 5/5/5 6/6/6
f 7/7/7 6/6/6 5/5/5
f 6/6/6 7/7/7 8/8/8
f 9/9/9 8/8/8 7/7/7
f 8/8/8 9/9/9 10/10/10
usemtl Treewall_one
v -2815.467773 2990.571777 -5130.677734
vn 0.723130 -0.050465 0.688866
vt 0.642347 0.005435
v -2988.156250 1446.327759 -5032.975098
vn 0.704301 -0.024550 0.709477
vt 0.642347 0.782609
v -2660.694092 1130.396973 -5507.140137
vn 0.767564 -0.065183 0.637649
vt -0.036198 0.782609
v -2330.058105 2587.279785 -5694.205078
vn 0.727295 -0.077497 0.681936
vt -0.036198 0.005435
v -3415.266357 3165.306641 -4647.007324
vn 0.553851 -0.006898 0.832587
vt 1.314660 0.005435
v -3416.415771 1589.781494 -4646.357422
vn 0.445355 -0.009107 0.895308
vt 1.314660 0.782609
v -4139.098633 3003.617920 -4381.803223
vn 0.280535 -0.021966 0.959592
vt 1.985607 0.005435
v -3968.623779 1455.991699 -4478.253418
vn 0.207821 -0.054990 0.976620
vt 1.985607 0.782609
v -4893.650391 2624.219727 -4243.793945
vn 0.162435 -0.068929 0.984309
vt 2.675124 0.005435
v -4559.651367 1157.759888 -4432.761719
vn 0.125721 -0.098571 0.987157
vt 2.675124 0.782609
f 11/11/11 13/13/13 14/14/14
f 13/13/13 11/11/11 12/12/12
f 15/15/15 12/12/12 11/11/11
f 12/12/12 15/15/15 16/16/16
f 17/17/17 16/16/16 15/15/15
f 16/16/16 17/17/17 18/18/18
f 19/19/19 18/18/18 17/17/17
f 18/18/18 19/19/19 20/20/20
