mtllib EKH_THRONE_PS_TH_STEP_TRIM_02983.mtl
g Step_Trim_02983
usemtl steps
v -2869.580078 362.560852 8158.790527
vn -0.000003 0.032765 0.999463
vt -1.497126 1.000000
v -2551.367432 362.560852 8158.790527
vn -0.000003 0.032765 0.999463
vt -0.949795 1.000000
v -2551.319824 381.599640 8155.932129
vn -0.000003 0.257965 0.966154
vt -0.949713 0.728835
v -2869.580322 381.599640 8155.932129
vn -0.000002 0.696132 0.717914
vt -1.497126 0.728835
v -1914.846558 362.560852 8158.790527
vn -0.000001 0.032765 0.999463
vt 0.145031 1.000000
v -1703.523071 362.560852 8158.790527
vn 0.000000 0.032765 0.999463
vt 0.517987 1.000000
v -1703.523071 381.599640 8155.932129
vn 0.000000 0.448087 0.893990
vt 0.517987 0.728835
v -1914.846558 381.599640 8155.932129
vn 0.000000 0.696132 0.717914
vt 0.145031 0.728835
v -1492.199585 362.560852 8158.790039
vn -0.000001 0.032765 0.999463
vt 0.863872 1.000000
v -1492.199585 381.599640 8155.932129
vn -0.000001 0.448087 0.893990
vt 0.863872 0.728835
v -1231.319824 362.560852 8158.790039
vn -0.000002 0.032765 0.999463
vt 1.365044 1.000000
v -1231.280762 381.599640 8155.931641
vn -0.000002 0.257965 0.966154
vt 1.365119 0.728835
v -2551.319824 381.599640 8028.014648
vn 0.000000 1.000000 0.000000
vt -0.949713 0.000000
v -2869.580078 381.599640 8028.015137
vn 0.000000 1.000000 0.000000
vt -1.497126 0.000000
v -1703.523071 381.599640 8028.014648
vn 0.000000 1.000000 0.000000
vt 0.517987 0.000000
v -1914.846558 381.599640 8028.014648
vn 0.000000 1.000000 0.000000
vt 0.145031 0.000000
v -1492.199585 381.599640 8028.014648
vn 0.000000 1.000000 0.000000
vt 0.863872 0.000000
v -1231.280762 381.599640 8028.014648
vn 0.000000 1.000000 0.000000
vt 1.365119 0.000000
v -2869.580078 360.922180 8031.385254
vn 0.049121 -0.997352 0.053636
vt -1.497126 0.728835
v -2551.367432 361.195251 8030.261719
vn 0.065175 -0.996852 0.045157
vt -0.949795 0.728835
v -2551.319580 362.560852 8158.790527
vn 0.032771 -0.998111 0.051973
vt -0.949713 0.000000
v -2869.580078 362.560852 8158.790527
vn 0.000000 -0.998270 0.058800
vt -1.497126 0.000000
v -1703.523071 361.741516 8028.014648
vn 0.000000 -0.999589 0.028680
vt 0.517987 0.728835
v -1703.523071 362.560852 8158.790527
vn 0.000000 -0.999589 0.028680
vt 0.517987 0.000000
v -1914.846558 362.560852 8158.790527
vn 0.024182 -0.999222 0.031142
vt 0.145031 0.000000
v -1914.846558 361.741516 8028.014648
vn 0.048326 -0.998421 0.028647
vt 0.145031 0.728835
v -1492.199585 361.741516 8028.014648
vn 0.000000 -0.999589 0.028680
vt 0.863872 0.728835
v -1492.199585 362.560852 8158.790039
vn 0.000000 -0.999589 0.028680
vt 0.863872 0.000000
v -1231.319946 361.741516 8028.014648
vn 0.000000 -0.999589 0.028680
vt 1.365044 0.728835
v -1231.280762 362.560852 8158.790039
vn 0.000000 -0.999589 0.028680
vt 1.365119 0.000000
v -970.401062 362.560852 8158.790039
vn -0.000002 0.032765 0.999463
vt 1.866290 1.000000
v -970.361938 381.599640 8155.931641
vn -0.000002 0.448087 0.893990
vt 1.866365 0.728835
v -709.482300 362.560852 8158.790039
vn -0.000002 0.032765 0.999463
vt 2.367537 1.000000
v -709.482300 381.599640 8155.931641
vn -0.000002 0.696132 0.717914
vt 2.367537 0.728835
v -970.361938 381.599640 8028.014648
vn 0.000000 1.000000 -0.000002
vt 1.866365 0.000000
v -709.482361 381.599640 8028.014648
vn 0.000000 1.000000 -0.000003
vt 2.367537 0.000000
v -970.401184 361.741516 8028.014648
vn 0.000000 -0.999589 0.028680
vt 1.866290 0.728835
v -970.362061 362.560852 8158.790039
vn 0.000000 -0.999589 0.028680
vt 1.866365 0.000000
v -709.482422 361.741516 8028.014648
vn 0.000000 -0.999589 0.028680
vt 2.367537 0.728835
v -709.482422 362.560852 8158.790039
vn 0.000000 -0.999589 0.028680
vt 2.367537 0.000000
v -2233.106934 362.560852 8158.790527
vn -0.000003 0.032765 0.999463
vt -0.402382 1.000000
v -2233.059326 381.599640 8155.932129
vn -0.000002 0.448087 0.893990
vt -0.402300 0.728835
v -2233.059326 381.599640 8028.014648
vn 0.000000 1.000000 0.000000
vt -0.402300 0.000000
v -2233.106934 361.468384 8029.138184
vn 0.064641 -0.997288 0.035193
vt -0.402382 0.728835
v -2233.059326 362.560852 8158.790527
vn 0.032503 -0.998594 0.041885
vt -0.402300 0.000000
f 34/34/34 36/36/36 35/35/35
f 33/33/33 34/34/34 32/32/32
f 35/35/35 32/32/32 34/34/34
f 32/32/32 35/35/35 18/18/18
f 32/32/32 31/31/31 33/33/33
f 31/31/31 32/32/32 12/12/12
f 18/18/18 12/12/12 32/32/32
f 12/12/12 18/18/18 10/10/10
f 17/17/17 10/10/10 18/18/18
f 10/10/10 17/17/17 7/7/7
f 15/15/15 7/7/7 17/17/17
f 7/7/7 15/15/15 8/8/8
f 16/16/16 8/8/8 15/15/15
f 8/8/8 16/16/16 43/43/43
f 12/12/12 11/11/11 31/31/31
f 11/11/11 12/12/12 9/9/9
f 10/10/10 9/9/9 12/12/12
f 9/9/9 10/10/10 6/6/6
f 7/7/7 6/6/6 10/10/10
f 6/6/6 7/7/7 5/5/5
f 8/8/8 5/5/5 7/7/7
f 5/5/5 8/8/8 42/42/42
f 43/43/43 42/42/42 8/8/8
f 42/42/42 43/43/43 13/13/13
f 42/42/42 41/41/41 5/5/5
f 41/41/41 42/42/42 3/3/3
f 13/13/13 3/3/3 42/42/42
f 3/3/3 13/13/13 4/4/4
f 14/14/14 4/4/4 13/13/13
f 3/3/3 2/2/2 41/41/41
f 2/2/2 3/3/3 1/1/1
f 4/4/4 1/1/1 3/3/3
f 25/25/25 26/26/26 23/23/23
f 26/26/26 25/25/25 44/44/44
f 45/45/45 44/44/44 25/25/25
f 44/44/44 45/45/45 20/20/20
f 21/21/21 20/20/20 45/45/45
f 20/20/20 21/21/21 19/19/19
f 22/22/22 19/19/19 21/21/21
f 30/30/30 28/28/28 27/27/27
f 24/24/24 27/27/27 28/28/28
f 27/27/27 24/24/24 23/23/23
f 25/25/25 23/23/23 24/24/24
f 27/27/27 29/29/29 30/30/30
f 37/37/37 30/30/30 29/29/29
f 30/30/30 37/37/37 38/38/38
f 39/39/39 38/38/38 37/37/37
f 38/38/38 39/39/39 40/40/40
