mtllib EKH_ENTRANCE_PS_EN_BRANCH383786__GX.mtl
g ranch383786__GX
usemtl River_Logs
v -4724.650391 765.154114 1512.725342
vn 0.711181 -0.630995 0.309947
vt 0.875000 -0.774618
v -4714.467773 774.237610 1405.045288
vn 0.750652 -0.656970 -0.070090
vt 0.875000 -1.198865
v -4705.900879 797.287659 1411.879395
vn 0.986925 0.013485 0.160614
vt 0.750000 -1.198865
v -4693.682129 839.351196 1262.597290
vn 0.100227 -0.974795 -0.199322
vt 1.000000 -1.894356
v -4669.125488 843.008606 1212.151855
vn 0.021897 -0.996179 0.084551
vt 1.000000 -2.237473
v -4657.955566 847.713135 1211.533936
vn 0.720596 -0.665854 0.193341
vt 0.875000 -2.237473
v -4778.952148 765.154114 1507.974487
vn -0.748313 -0.647590 0.143718
vt 0.125000 -0.774618
v -4777.706543 825.612305 1567.702393
vn -0.703823 -0.504069 0.500548
vt 0.125000 -0.447527
v -4788.020508 849.874512 1555.165771
vn -0.995172 0.079651 0.057337
vt 0.250000 -0.447527
v -4788.965332 792.782227 1499.553223
vn -0.987063 0.002887 -0.160309
vt 0.250000 -0.774618
v -4658.745605 830.731262 1093.504639
vn -0.131547 -0.991134 0.018693
vt 0.000000 -2.845408
v -4666.490723 834.133789 1182.035767
vn 0.013891 -0.987116 0.159405
vt 0.000000 -2.480538
v -4674.410645 837.183716 1176.839478
vn -0.746233 -0.665525 -0.014566
vt 0.125000 -2.480538
v -4675.659668 843.489258 1165.858276
vn -0.977201 0.019299 -0.211438
vt 0.250000 -2.480538
v -4659.746582 833.710205 1085.560303
vn -0.967055 0.151832 -0.204331
vt 0.250000 -2.845408
v -4660.217773 831.763794 1091.074585
vn -0.847428 -0.518565 -0.113824
vt 0.125000 -2.845408
v -4670.744629 848.276001 1155.416260
vn -0.695230 0.642108 -0.323037
vt 0.375000 -2.480538
v -4658.282715 834.871521 1080.132813
vn -0.704475 0.673856 -0.222784
vt 0.375000 -2.845408
v -4663.820801 849.807068 1151.518799
vn -0.031290 0.947030 -0.319618
vt 0.500000 -2.480538
v -4657.381348 835.119019 1077.910400
vn 0.192071 0.961924 -0.194450
vt 0.500000 -2.845408
v -4657.679199 848.276001 1156.559448
vn 0.780827 0.601809 -0.167736
vt 0.625000 -2.480538
v -4656.878906 834.871521 1080.255615
vn 0.903249 0.423123 -0.071475
vt 0.625000 -2.845408
v -4654.651855 843.489258 1167.696167
vn 0.999660 -0.025992 -0.001937
vt 0.750000 -2.480538
v -4656.379883 833.710205 1085.854858
vn 0.990973 -0.134045 0.002133
vt 0.750000 -2.845408
v -4657.789063 837.183716 1178.293701
vn 0.739413 -0.657540 0.144605
vt 0.875000 -2.480538
v -4656.873535 831.763794 1091.367188
vn 0.693686 -0.717748 0.060313
vt 0.875000 -2.845408
v -4774.502441 873.159485 1544.714233
vn -0.649040 0.614874 -0.447971
vt 0.375000 -0.447527
v -4776.818848 819.601563 1493.070679
vn -0.687421 0.623143 -0.373023
vt 0.375000 -0.774618
v -4666.490723 834.133789 1182.035767
vn 0.013891 -0.987116 0.159405
vt 1.000000 -2.480538
v -4658.745605 830.731262 1093.504639
vn -0.131547 -0.991134 0.018693
vt 1.000000 -2.845408
v -4669.125488 843.008606 1212.151855
vn 0.021897 -0.996179 0.084551
vt 0.000000 -2.237473
v -4680.018555 847.713135 1209.603638
vn -0.691844 -0.706703 -0.148061
vt 0.125000 -2.237473
v -4683.830566 858.629333 1205.419067
vn -0.941264 -0.023435 -0.336857
vt 0.250000 -2.237473
v -4678.750488 868.917358 1202.012573
vn -0.664973 0.645868 -0.375055
vt 0.375000 -2.237473
v -4668.179688 872.993774 1201.342285
vn 0.009503 0.965671 -0.259595
vt 0.500000 -2.237473
v -4657.885742 868.917358 1203.838135
vn 0.719194 0.692905 -0.051401
vt 0.625000 -2.237473
v -4653.474609 858.629333 1208.074951
vn 0.990879 0.019206 0.133382
vt 0.750000 -2.237473
v -4708.724121 845.425354 1258.832397
vn -0.581788 -0.691061 -0.428902
vt 0.125000 -1.894356
v -4693.682129 839.351196 1262.597290
vn 0.100227 -0.974795 -0.199322
vt 0.000000 -1.894356
v -4718.102539 860.786011 1262.303833
vn -0.896419 -0.036844 -0.441673
vt 0.250000 -1.894356
v -4715.660645 877.119995 1271.287354
vn -0.713519 0.659815 -0.235658
vt 0.375000 -1.894356
v -4703.248535 841.708374 1635.834839
vn 0.645542 -0.646042 -0.407315
vt 0.875000 0.000000
v -4714.154297 813.619568 1658.862793
vn 0.645667 -0.359925 -0.673475
vt 0.875000 0.413000
v -4747.514648 804.685608 1652.366211
vn 0.024281 -0.429541 -0.902721
vt 1.000000 0.413000
v -4735.618652 828.708313 1632.792969
vn -0.030217 -0.748339 -0.662628
vt 1.000000 0.000000
v -4689.385742 873.537781 1643.178345
vn 0.989739 -0.130635 0.057885
vt 0.750000 0.000000
v -4699.423340 835.818604 1674.546875
vn 0.997873 0.046814 -0.045363
vt 0.750000 0.413000
v -4702.610840 905.983521 1650.521851
vn 0.721967 0.493523 0.484973
vt 0.625000 0.000000
v -4712.887695 858.870911 1690.231079
vn 0.629460 0.417470 0.655362
vt 0.625000 0.413000
v -4735.618652 919.599854 1653.563721
vn 0.039615 0.783008 0.620749
vt 0.500000 0.000000
v -4747.514648 868.658020 1696.727539
vn -0.011207 0.550405 0.834823
vt 0.500000 0.413000
v -4768.625977 905.983521 1650.521851
vn -0.657832 0.632856 0.408350
vt 0.375000 0.000000
v -4782.141602 858.870911 1690.230957
vn -0.673589 0.469897 0.570504
vt 0.375000 0.413000
v -4781.851074 873.537781 1643.178345
vn -0.984685 0.127940 -0.118435
vt 0.250000 0.000000
v -4795.605957 835.818604 1674.546875
vn -0.978301 0.120880 -0.168270
vt 0.250000 0.413000
v -4767.988770 841.708374 1635.834839
vn -0.679430 -0.448638 -0.580602
vt 0.125000 0.000000
v -4780.875000 813.619568 1658.862793
vn -0.558379 -0.243813 -0.792949
vt 0.125000 0.413000
v -4735.618652 828.708313 1632.792969
vn -0.030217 -0.748339 -0.662628
vt 0.000000 0.000000
v -4747.514648 804.685608 1652.366211
vn 0.024281 -0.429541 -0.902721
vt 0.000000 0.413000
v -4704.579590 845.366638 1606.605835
vn 0.700050 -0.713269 -0.034317
vt 0.875000 -0.211827
v -4735.618652 832.196960 1608.553345
vn -0.004111 -0.988934 0.148299
vt 1.000000 -0.211827
v -4692.037109 876.841003 1601.903931
vn 0.975528 -0.051076 -0.213862
vt 0.750000 -0.211827
v -4705.025879 907.857239 1597.202026
vn 0.708812 0.631520 -0.314275
vt 0.625000 -0.211827
v -4735.618652 920.568848 1595.254517
vn 0.010528 0.957508 -0.288213
vt 0.500000 -0.211827
v -4766.211426 907.857239 1597.202026
vn -0.702122 0.701556 -0.121836
vt 0.375000 -0.211827
v -4779.200195 876.841003 1601.903931
vn -0.994715 0.044180 0.092687
vt 0.250000 -0.211827
v -4766.657227 845.366638 1606.605835
vn -0.723967 -0.657245 0.209524
vt 0.125000 -0.211827
v -4735.618652 832.196960 1608.553345
vn -0.004111 -0.988934 0.148299
vt 0.000000 -0.211827
v -4719.032715 825.612305 1572.835693
vn 0.680890 -0.660722 0.315969
vt 0.875000 -0.447527
v -4748.788086 815.283936 1575.051514
vn -0.041175 -0.797523 0.601882
vt 1.000000 -0.447527
v -4706.698730 849.874512 1562.280518
vn 0.975363 -0.095835 -0.198704
vt 0.750000 -0.447527
v -4718.196289 873.159485 1549.640381
vn 0.672946 0.469586 -0.571518
vt 0.625000 -0.447527
v -4745.931152 882.510620 1542.394775
vn 0.043318 0.743473 -0.667362
vt 0.500000 -0.447527
v -4748.788086 815.283936 1575.051514
vn -0.041175 -0.797523 0.601882
vt 0.000000 -0.447527
v -4752.072754 753.477112 1513.451538
vn -0.015198 -0.936303 0.350863
vt 1.000000 -0.774618
v -4713.327148 792.782227 1506.170776
vn 0.997789 0.000599 0.066456
vt 0.750000 -0.774618
v -4724.163574 819.601563 1497.677490
vn 0.734483 0.638707 -0.229321
vt 0.625000 -0.774618
v -4750.219727 830.469788 1492.272461
vn 0.018961 0.913984 -0.405307
vt 0.500000 -0.774618
v -4752.072754 753.477112 1513.451538
vn -0.015198 -0.936303 0.350863
vt 0.000000 -0.774618
v -4762.338379 820.874207 1401.295532
vn -0.739347 0.671174 -0.053771
vt 0.375000 -1.198865
v -4740.174805 855.012207 1330.772583
vn -0.787132 0.616594 -0.015366
vt 0.375000 -1.604812
v -4742.610352 837.708069 1318.849243
vn -0.925964 -0.046874 -0.374692
vt 0.250000 -1.604812
v -4730.717773 821.557068 1313.606934
vn -0.526632 -0.665584 -0.528826
vt 0.125000 -1.604812
v -4759.557617 774.237610 1392.963623
vn -0.618574 -0.681963 -0.390246
vt 0.125000 -1.198865
v -4770.393555 797.287659 1394.598633
vn -0.956020 -0.011388 -0.293079
vt 0.250000 -1.198865
v -4736.542969 764.848389 1397.250488
vn 0.092564 -0.951462 -0.293518
vt 1.000000 -1.198865
v -4716.225586 820.874207 1413.651611
vn 0.659242 0.697602 0.280628
vt 0.625000 -1.198865
v -4739.751953 830.799866 1409.227539
vn -0.071203 0.978706 0.192523
vt 0.500000 -1.198865
v -4736.542969 764.848389 1397.250488
vn 0.092564 -0.951462 -0.293518
vt 0.000000 -1.198865
v -4697.349121 821.557068 1329.167236
vn 0.798989 -0.592232 -0.104296
vt 0.875000 -1.604812
v -4712.322266 815.210693 1317.716797
vn 0.186477 -0.892277 -0.411180
vt 1.000000 -1.604812
v -4693.720703 837.708069 1341.646851
vn 0.972387 0.041842 0.229591
vt 0.750000 -1.604812
v -4704.419922 855.012207 1347.445313
vn 0.595847 0.679893 0.427448
vt 0.625000 -1.604812
v -4724.008789 862.511841 1342.779297
vn -0.153443 0.930451 0.332740
vt 0.500000 -1.604812
v -4702.180664 884.167480 1280.822632
vn -0.047233 0.996148 0.073882
vt 0.500000 -1.894356
v -4712.322266 815.210693 1317.716797
vn 0.186477 -0.892277 -0.411180
vt 0.000000 -1.604812
v -4681.128906 845.425354 1271.700073
vn 0.757922 -0.645725 0.092695
vt 0.875000 -1.894356
v -4677.759766 860.786011 1281.116089
vn 0.963194 0.042522 0.265422
vt 0.750000 -1.894356
v -4686.210938 877.119995 1285.019897
vn 0.658194 0.703205 0.268855
vt 0.625000 -1.894356
f 13/13/13 11/11/11 12/12/12
f 11/11/11 13/13/13 16/16/16
f 15/15/15 16/16/16 14/14/14
f 13/13/13 14/14/14 16/16/16
f 14/14/14 13/13/13 33/33/33
f 32/32/32 33/33/33 13/13/13
f 33/33/33 32/32/32 40/40/40
f 38/38/38 40/40/40 32/32/32
f 40/40/40 38/38/38 82/82/82
f 83/83/83 82/82/82 38/38/38
f 82/82/82 83/83/83 85/85/85
f 84/84/84 85/85/85 83/83/83
f 85/85/85 84/84/84 10/10/10
f 7/7/7 10/10/10 84/84/84
f 10/10/10 7/7/7 9/9/9
f 8/8/8 9/9/9 7/7/7
f 9/9/9 8/8/8 66/66/66
f 67/67/67 66/66/66 8/8/8
f 66/66/66 67/67/67 54/54/54
f 56/56/56 54/54/54 67/67/67
f 18/18/18 15/15/15 17/17/17
f 14/14/14 17/17/17 15/15/15
f 17/17/17 14/14/14 34/34/34
f 33/33/33 34/34/34 14/14/14
f 34/34/34 33/33/33 41/41/41
f 40/40/40 41/41/41 33/33/33
f 41/41/41 40/40/40 81/81/81
f 82/82/82 81/81/81 40/40/40
f 81/81/81 82/82/82 80/80/80
f 85/85/85 80/80/80 82/82/82
f 80/80/80 85/85/85 28/28/28
f 10/10/10 28/28/28 85/85/85
f 28/28/28 10/10/10 27/27/27
f 9/9/9 27/27/27 10/10/10
f 27/27/27 9/9/9 65/65/65
f 66/66/66 65/65/65 9/9/9
f 65/65/65 66/66/66 52/52/52
f 54/54/54 52/52/52 66/66/66
f 54/54/54 53/53/53 52/52/52
f 53/53/53 54/54/54 55/55/55
f 52/52/52 51/51/51 50/50/50
f 51/51/51 52/52/52 53/53/53
f 50/50/50 49/49/49 48/48/48
f 49/49/49 50/50/50 51/51/51
f 48/48/48 47/47/47 46/46/46
f 47/47/47 48/48/48 49/49/49
f 46/46/46 43/43/43 42/42/42
f 43/43/43 46/46/46 47/47/47
f 56/56/56 55/55/55 54/54/54
f 55/55/55 56/56/56 57/57/57
f 42/42/42 44/44/44 45/45/45
f 44/44/44 42/42/42 43/43/43
f 20/20/20 18/18/18 19/19/19
f 17/17/17 19/19/19 18/18/18
f 19/19/19 17/17/17 35/35/35
f 34/34/34 35/35/35 17/17/17
f 35/35/35 34/34/34 95/95/95
f 41/41/41 95/95/95 34/34/34
f 95/95/95 41/41/41 94/94/94
f 81/81/81 94/94/94 41/41/41
f 94/94/94 81/81/81 88/88/88
f 80/80/80 88/88/88 81/81/81
f 88/88/88 80/80/80 78/78/78
f 28/28/28 78/78/78 80/80/80
f 78/78/78 28/28/28 73/73/73
f 27/27/27 73/73/73 28/28/28
f 73/73/73 27/27/27 64/64/64
f 65/65/65 64/64/64 27/27/27
f 64/64/64 65/65/65 50/50/50
f 52/52/52 50/50/50 65/65/65
f 22/22/22 20/20/20 21/21/21
f 19/19/19 21/21/21 20/20/20
f 21/21/21 19/19/19 36/36/36
f 35/35/35 36/36/36 19/19/19
f 36/36/36 35/35/35 99/99/99
f 95/95/95 99/99/99 35/35/35
f 99/99/99 95/95/95 93/93/93
f 94/94/94 93/93/93 95/95/95
f 93/93/93 94/94/94 87/87/87
f 88/88/88 87/87/87 94/94/94
f 87/87/87 88/88/88 77/77/77
f 78/78/78 77/77/77 88/88/88
f 77/77/77 78/78/78 72/72/72
f 73/73/73 72/72/72 78/78/78
f 72/72/72 73/73/73 63/63/63
f 64/64/64 63/63/63 73/73/73
f 63/63/63 64/64/64 48/48/48
f 50/50/50 48/48/48 64/64/64
f 24/24/24 22/22/22 23/23/23
f 21/21/21 23/23/23 22/22/22
f 23/23/23 21/21/21 37/37/37
f 36/36/36 37/37/37 21/21/21
f 37/37/37 36/36/36 98/98/98
f 99/99/99 98/98/98 36/36/36
f 98/98/98 99/99/99 92/92/92
f 93/93/93 92/92/92 99/99/99
f 92/92/92 93/93/93 3/3/3
f 87/87/87 3/3/3 93/93/93
f 3/3/3 87/87/87 76/76/76
f 77/77/77 76/76/76 87/87/87
f 76/76/76 77/77/77 71/71/71
f 72/72/72 71/71/71 77/77/77
f 71/71/71 72/72/72 62/62/62
f 63/63/63 62/62/62 72/72/72
f 62/62/62 63/63/63 46/46/46
f 48/48/48 46/46/46 63/63/63
f 26/26/26 24/24/24 25/25/25
f 23/23/23 25/25/25 24/24/24
f 25/25/25 23/23/23 6/6/6
f 37/37/37 6/6/6 23/23/23
f 6/6/6 37/37/37 97/97/97
f 98/98/98 97/97/97 37/37/37
f 97/97/97 98/98/98 90/90/90
f 92/92/92 90/90/90 98/98/98
f 90/90/90 92/92/92 2/2/2
f 3/3/3 2/2/2 92/92/92
f 2/2/2 3/3/3 1/1/1
f 76/76/76 1/1/1 3/3/3
f 1/1/1 76/76/76 69/69/69
f 71/71/71 69/69/69 76/76/76
f 69/69/69 71/71/71 60/60/60
f 62/62/62 60/60/60 71/71/71
f 60/60/60 62/62/62 42/42/42
f 46/46/46 42/42/42 62/62/62
f 30/30/30 26/26/26 29/29/29
f 25/25/25 29/29/29 26/26/26
f 29/29/29 25/25/25 5/5/5
f 6/6/6 5/5/5 25/25/25
f 5/5/5 6/6/6 4/4/4
f 97/97/97 4/4/4 6/6/6
f 4/4/4 97/97/97 91/91/91
f 90/90/90 91/91/91 97/97/97
f 91/91/91 90/90/90 86/86/86
f 2/2/2 86/86/86 90/90/90
f 86/86/86 2/2/2 75/75/75
f 1/1/1 75/75/75 2/2/2
f 75/75/75 1/1/1 70/70/70
f 69/69/69 70/70/70 1/1/1
f 70/70/70 69/69/69 61/61/61
f 60/60/60 61/61/61 69/69/69
f 61/61/61 60/60/60 45/45/45
f 42/42/42 45/45/45 60/60/60
f 59/59/59 57/57/57 58/58/58
f 56/56/56 58/58/58 57/57/57
f 58/58/58 56/56/56 68/68/68
f 67/67/67 68/68/68 56/56/56
f 68/68/68 67/67/67 74/74/74
f 8/8/8 74/74/74 67/67/67
f 74/74/74 8/8/8 79/79/79
f 7/7/7 79/79/79 8/8/8
f 79/79/79 7/7/7 89/89/89
f 84/84/84 89/89/89 7/7/7
f 89/89/89 84/84/84 96/96/96
f 83/83/83 96/96/96 84/84/84
f 96/96/96 83/83/83 39/39/39
f 38/38/38 39/39/39 83/83/83
f 39/39/39 38/38/38 31/31/31
f 32/32/32 31/31/31 38/38/38
f 31/31/31 32/32/32 12/12/12
f 13/13/13 12/12/12 32/32/32
usemtl Rock_Grass_Blend
v -4875.875000 765.981873 1684.557861
vn -0.197970 0.314068 -0.928531
vt 3.445067 -3.186955
v -4875.875000 709.814758 1684.795898
vn -0.216108 -0.016741 -0.976226
vt 3.460927 -3.099801
v -4989.626465 745.472290 1710.735840
vn -0.218944 0.061139 -0.973820
vt 3.615949 -3.172376
v -4668.278320 809.674194 1717.644043
vn -0.158897 0.186878 -0.969447
vt 3.148500 -3.234221
v -4757.601563 808.769165 1727.276367
vn -0.016732 0.366576 -0.930238
vt 3.276105 -3.247982
v -4758.618652 853.512817 1716.713135
vn -0.026437 -0.221104 -0.974892
vt 3.276296 -3.338449
v -4668.816406 858.478699 1708.234131
vn -0.145851 -0.183247 -0.972187
vt 3.142464 -3.322641
v -4875.875000 765.981873 1684.557861
vn -0.197970 0.314068 -0.928531
vt 3.445067 -3.186955
v -4989.626465 788.100952 1714.846313
vn -0.090424 0.252419 -0.963384
vt 3.607569 -3.230224
v -4868.587891 802.877136 1719.197266
vn -0.012580 0.329310 -0.944138
vt 3.434657 -3.236440
v -4670.539551 772.780518 1664.536133
vn 0.109374 0.432210 -0.895116
vt 3.151731 -3.158353
v -4762.123535 759.049683 1654.269287
vn -0.071993 0.332220 -0.940450
vt 3.282565 -3.143686
v -4757.601563 808.769165 1727.276367
vn -0.016732 0.366576 -0.930238
vt 3.276105 -3.247982
v -4668.278320 809.674194 1717.644043
vn -0.158897 0.186878 -0.969447
vt 3.148500 -3.234221
v -4578.955566 791.441772 1690.846680
vn 0.090030 0.118148 -0.988906
vt 3.020896 -3.195939
v -4989.626465 832.333801 1711.326050
vn 0.018077 -0.121099 -0.992476
vt 3.605355 -3.293194
v -4870.016113 850.720154 1709.210938
vn 0.029749 -0.200965 -0.979147
vt 3.402175 -3.336970
v -4868.587891 802.877136 1719.197266
vn -0.012580 0.329310 -0.944138
vt 3.434657 -3.236440
v -4989.626465 788.100952 1714.846313
vn -0.090424 0.252419 -0.963384
vt 3.607569 -3.230224
v -4578.955566 842.653320 1686.770996
vn -0.086338 -0.104090 -0.990813
vt 3.014243 -3.283828
v -4578.955566 791.441772 1690.846680
vn 0.090030 0.118148 -0.988906
vt 3.020896 -3.195939
v -4670.539551 722.818542 1669.195801
vn 0.189900 -0.093277 -0.977362
vt 3.134372 -3.072257
v -4762.123535 711.391174 1659.662109
vn -0.045449 -0.101821 -0.993764
vt 3.289013 -3.051737
v -4762.123535 759.049683 1654.269287
vn -0.071993 0.332220 -0.940450
vt 3.282565 -3.143686
v -4670.539551 772.780518 1664.536133
vn 0.109374 0.432210 -0.895116
vt 3.151731 -3.158353
v -4578.955566 746.780884 1694.069092
vn 0.238555 -0.068449 -0.968714
vt 2.999213 -3.113472
v -4528.877441 789.660706 1701.734375
vn 0.209336 -0.074374 -0.975011
vt 2.949356 -3.211493
f 109/109/109 107/107/107 108/108/108
f 107/107/107 109/109/109 111/111/111
f 112/112/112 111/111/111 109/109/109
f 111/111/111 112/112/112 110/110/110
f 113/113/113 110/110/110 112/112/112
f 110/110/110 113/113/113 114/114/114
f 103/103/103 106/106/106 119/119/119
f 106/106/106 103/103/103 105/105/105
f 104/104/104 105/105/105 103/103/103
f 105/105/105 104/104/104 116/116/116
f 117/117/117 116/116/116 104/104/104
f 116/116/116 117/117/117 115/115/115
f 118/118/118 115/115/115 117/117/117
f 119/119/119 120/120/120 103/103/103
f 123/123/123 122/122/122 101/101/101
f 122/122/122 123/123/123 121/121/121
f 124/124/124 121/121/121 123/123/123
f 121/121/121 124/124/124 125/125/125
f 120/120/120 125/125/125 124/124/124
f 125/125/125 120/120/120 126/126/126
f 119/119/119 126/126/126 120/120/120
f 100/100/100 102/102/102 118/118/118
f 102/102/102 100/100/100 101/101/101
f 123/123/123 101/101/101 100/100/100
usemtl Treebark_And_Grass
v -4714.154297 813.619568 1658.862793
vn 0.645667 -0.359925 -0.673475
vt 3.210712 2.298385
v -4707.191895 770.015625 1668.175781
vn 0.613806 -0.076996 -0.785693
vt 3.204089 2.211107
v -4747.514648 763.019592 1659.382080
vn 0.081967 -0.167256 -0.982500
vt 3.261693 2.198716
v -4699.423340 835.818604 1674.546875
vn 0.997873 0.046814 -0.045363
vt 3.190063 2.333401
v -4689.294434 788.079834 1689.405762
vn 0.975722 0.209182 0.064879
vt 3.178522 2.242662
v -4787.837891 767.590393 1668.175781
vn -0.429204 -0.116936 -0.895606
vt 3.319298 2.207718
v -4780.875000 813.619568 1658.862793
vn -0.558379 -0.243813 -0.792949
vt 3.304247 2.298385
v -4747.514648 804.685608 1652.366211
vn 0.024281 -0.429541 -0.902721
vt 3.257480 2.284239
v -4747.514648 763.019592 1659.382080
vn 0.081967 -0.167256 -0.982500
vt 3.261693 2.198716
v -4805.734863 782.895081 1689.405762
vn -0.935324 0.090530 -0.342014
vt 3.344865 2.235418
v -4795.605957 835.818604 1674.546875
vn -0.978301 0.120880 -0.168270
vt 3.324898 2.333401
v -4787.443359 800.073547 1715.341431
vn -0.725915 0.331910 0.602399
vt 3.318735 2.267136
v -4782.141602 858.870911 1690.230957
vn -0.673589 0.469897 0.570504
vt 3.306023 2.369587
v -4746.704590 809.759460 1724.279053
vn -0.097409 0.418956 0.902766
vt 3.260537 2.283328
v -4747.514648 868.658020 1696.727539
vn -0.011207 0.550405 0.834823
vt 3.257480 2.384903
v -4708.186035 804.021423 1714.474976
vn 0.496537 0.386774 0.777082
vt 3.205510 2.272394
v -4712.887695 858.870911 1690.231079
vn 0.629460 0.417470 0.655362
vt 3.208938 2.369587
v -4747.514648 804.685608 1652.366211
vn 0.024281 -0.429541 -0.902721
vt 3.257480 2.284239
f 132/132/132 134/134/134 135/135/135
f 134/134/134 132/132/132 133/133/133
f 136/136/136 133/133/133 132/132/132
f 133/133/133 136/136/136 137/137/137
f 138/138/138 137/137/137 136/136/136
f 137/137/137 138/138/138 139/139/139
f 140/140/140 139/139/139 138/138/138
f 139/139/139 140/140/140 141/141/141
f 142/142/142 141/141/141 140/140/140
f 141/141/141 142/142/142 143/143/143
f 131/131/131 143/143/143 142/142/142
f 143/143/143 131/131/131 130/130/130
f 128/128/128 130/130/130 131/131/131
f 130/130/130 128/128/128 127/127/127
f 129/129/129 127/127/127 128/128/128
f 127/127/127 129/129/129 144/144/144
