mtllib EKH_GROTTO_PS_GR_SPIDER_ROOM_FLOOR_02.mtl
g r_Room_floor_02
usemtl Web_Wall_Ground_Mix
v 8052.827637 2252.248291 10600.884766
vn -0.809735 0.562704 0.166413
vt -0.379127 1.273943
v 7993.768066 2228.083252 10669.022461
vn -0.619761 0.649837 -0.440009
vt 0.008005 1.212060
v 8041.305664 2237.565186 10745.500000
vn -0.279610 0.958530 0.055128
vt 0.063409 0.824487
v 8095.200195 2277.533447 10700.278320
vn -0.812626 0.489002 0.317043
vt -0.242477 0.824484
v 7911.138672 2228.083252 10738.355469
vn -0.433402 0.739076 -0.515684
vt 0.476980 1.212062
v 7968.183105 2229.746582 10806.857422
vn -0.035856 0.998531 -0.040622
vt 0.478431 0.824486
v 8034.981934 2239.138428 10887.090820
vn -0.059367 0.995881 -0.068535
vt 0.480177 0.370574
v 8096.430176 2246.957031 10835.529297
vn -0.279581 0.954362 0.105009
vt 0.131419 0.370573
v 8141.719238 2277.533203 10797.527344
vn -0.573688 0.743018 0.344683
vt -0.125628 0.370573
v 7911.138672 2228.083252 10738.355469
vn -0.433402 0.739076 -0.515684
vt 0.476980 1.212062
v 7825.653320 2228.083252 10810.085938
vn -0.336909 0.649708 -0.681448
vt 0.962166 1.212065
v 7892.532227 2237.565186 10870.335938
vn 0.093936 0.962116 -0.255947
vt 0.907800 0.824487
v 7968.183105 2229.746582 10806.857422
vn -0.035856 0.998531 -0.040622
vt 0.478431 0.824486
v 7743.498047 2252.248291 10860.443359
vn 0.290151 0.573275 -0.766269
vt 1.376532 1.273945
v 7834.846680 2277.533447 10918.740234
vn 0.441354 0.506527 -0.740700
vt 1.235208 0.824484
v 7922.935059 2277.533447 10981.109375
vn 0.425550 0.758797 -0.493086
vt 1.116123 0.370572
v 7971.410156 2246.957031 10940.433594
vn 0.141557 0.958630 -0.246963
vt 0.840991 0.370573
v 8034.981934 2239.138428 10887.090820
vn -0.059367 0.995881 -0.068535
vt 0.480177 0.370574
v 8164.565430 2254.808350 10916.730469
vn -0.240333 0.969368 0.050652
vt 0.131419 -0.090297
v 8209.855469 2277.533447 10878.728516
vn -0.685667 0.615714 0.388275
vt -0.125628 -0.090299
v 8103.117676 2249.309082 10968.291016
vn -0.117055 0.983393 -0.138692
vt 0.480177 -0.090296
v 8216.052734 2277.533447 10978.090820
vn -0.594074 0.705100 -0.387183
vt 0.131419 -0.438560
v 8190.309082 2260.995117 10947.410156
vn -0.284359 0.952501 -0.109000
vt 0.131419 -0.264427
v 8128.861328 2260.995117 10998.971680
vn -0.213611 0.947000 -0.239919
vt 0.480177 -0.264428
v 8154.605469 2277.533203 11029.652344
vn -0.458664 0.700600 -0.546614
vt 0.480179 -0.438561
v 8236.251953 2295.208252 10934.033203
vn -0.872958 0.486643 0.033511
vt -0.058986 -0.348270
v 8212.954102 2270.373779 10928.409180
vn -0.529714 0.846933 0.045904
vt 0.002895 -0.264427
v 8039.545898 2254.808350 11021.634766
vn 0.119833 0.968281 -0.219252
vt 0.840991 -0.090296
v 8103.117676 2249.309082 10968.291016
vn -0.117055 0.983393 -0.138692
vt 0.480177 -0.090296
v 7991.070801 2277.533447 11062.310547
vn 0.487224 0.632206 -0.602435
vt 1.116123 -0.090298
v 8041.777344 2295.208252 11097.216797
vn 0.159481 0.499870 -0.851291
vt 1.044793 -0.348270
v 8041.051758 2270.215088 11072.652344
vn 0.116497 0.856711 -0.502469
vt 0.978557 -0.264427
v 8128.861328 2260.995117 10998.971680
vn -0.213611 0.947000 -0.239919
vt 0.480177 -0.264428
v 8065.289551 2260.995117 11052.314453
vn -0.079703 0.955245 -0.284877
vt 0.840991 -0.264427
v 8091.033203 2277.533447 11082.995117
vn -0.288750 0.706280 -0.646369
vt 0.840992 -0.438560
v 8154.605469 2277.533203 11029.652344
vn -0.458664 0.700600 -0.546614
vt 0.480179 -0.438561
v 7825.653320 2228.083252 10810.085938
vn -0.336909 0.649708 -0.681448
vt 0.962166 1.212065
v 7829.841309 2187.995850 10797.135742
vn -0.499010 0.229108 -0.835762
vt 0.963751 1.371875
v 7754.888184 2200.078369 10834.063477
vn 0.007972 0.434882 -0.900452
vt 1.352706 1.463029
v 7743.498047 2252.248291 10860.443359
vn 0.290151 0.573275 -0.766269
vt 1.376532 1.273945
v 7911.138672 2228.083252 10738.355469
vn -0.433402 0.739076 -0.515684
vt 0.476980 1.212062
v 7907.381348 2187.995850 10734.391602
vn -0.636135 0.146734 -0.757497
vt 0.476016 1.367909
v 7703.626465 2251.528320 10827.047852
vn 0.587458 0.355799 -0.726842
vt 1.523370 1.447558
v 8052.827637 2252.248291 10600.884766
vn -0.809735 0.562704 0.166413
vt -0.379127 1.273943
v 8026.405762 2251.528320 10556.204102
vn -0.823730 0.253098 0.507356
vt -0.529885 1.461262
v 8025.380371 2200.078369 10607.093750
vn -0.898717 0.438233 -0.016094
vt -0.303021 1.449760
v 7993.768066 2228.083252 10669.022461
vn -0.619761 0.649837 -0.440009
vt 0.008005 1.212060
v 7980.084961 2187.995850 10671.067383
vn -0.742471 0.232232 -0.628335
vt 0.033828 1.407246
v 7980.084961 2187.995850 10671.067383
vn -0.742471 0.232232 -0.628335
vt 0.033828 1.407246
v 7993.768066 2228.083252 10669.022461
vn -0.619761 0.649837 -0.440009
vt 0.008005 1.212060
v 8052.827637 2252.248291 10600.884766
vn -0.809735 0.562704 0.166413
vt -0.379127 1.273943
v 8059.364258 2298.978271 10595.482422
vn -0.879849 0.220907 0.420792
vt -0.580073 1.242079
v 8026.405762 2251.528320 10556.204102
vn -0.823730 0.253098 0.507356
vt -0.529885 1.461262
v 8236.251953 2295.208252 10934.033203
vn -0.872958 0.486643 0.033511
vt -0.058986 -0.348270
v 8216.052734 2277.533447 10978.090820
vn -0.594074 0.705100 -0.387183
vt 0.131419 -0.438560
v 8224.634766 2311.620850 10988.318359
vn -0.758172 0.376134 -0.532634
vt 0.073500 -0.682077
v 8248.797852 2320.458252 10937.061523
vn -0.910592 0.412817 0.020116
vt -0.186023 -0.561181
v 8163.186523 2311.620850 11039.878906
vn -0.598522 0.364673 -0.713291
vt 0.478061 -0.682078
v 8154.605469 2277.533203 11029.652344
vn -0.458664 0.700600 -0.546614
vt 0.480179 -0.438561
v 8095.200195 2277.533447 10700.278320
vn -0.812626 0.489002 0.317043
vt -0.242477 0.824484
v 8104.182617 2311.620850 10692.741211
vn -0.872638 0.305661 0.380887
vt -0.422675 0.793193
v 8149.268066 2311.620850 10791.194336
vn -0.798009 0.282003 0.532593
vt -0.315050 0.333905
v 8141.719238 2277.533203 10797.527344
vn -0.573688 0.743018 0.344683
vt -0.125628 0.370573
v 8209.855469 2277.533447 10878.728516
vn -0.685667 0.615714 0.388275
vt -0.125628 -0.090299
v 8217.403320 2311.620850 10872.395508
vn -0.827949 0.293098 0.478115
vt -0.299795 -0.160286
v 8091.033203 2277.533447 11082.995117
vn -0.288750 0.706280 -0.646369
vt 0.840992 -0.438560
v 8099.614746 2311.620850 11093.221680
vn -0.372563 0.374208 -0.849215
vt 0.896604 -0.682077
v 8041.777344 2295.208252 11097.216797
vn 0.159481 0.499870 -0.851291
vt 1.044793 -0.348270
v 8042.167969 2320.458252 11110.444336
vn 0.155344 0.426022 -0.891277
vt 1.174385 -0.561182
v 7743.498047 2252.248291 10860.443359
vn 0.290151 0.573275 -0.766269
vt 1.376532 1.273945
v 7703.626465 2251.528320 10827.047852
vn 0.587458 0.355799 -0.726842
vt 1.523370 1.447558
v 7736.585449 2298.978271 10866.326172
vn 0.609132 0.199047 -0.767684
vt 1.560292 1.260432
v 7825.232422 2311.620850 10926.808594
vn 0.517098 0.324276 -0.792120
vt 1.418961 0.784792
v 7834.846680 2277.533447 10918.740234
vn 0.441354 0.506527 -0.740700
vt 1.235208 0.824484
v 7914.855957 2311.620850 10987.889648
vn 0.641804 0.299265 -0.706065
vt 1.309628 0.333905
v 7922.935059 2277.533447 10981.109375
vn 0.425550 0.758797 -0.493086
vt 1.116123 0.370572
v 7914.855957 2311.620850 10987.889648
vn 0.641804 0.299265 -0.706065
vt 1.309628 0.333905
v 7982.991699 2311.620850 11069.090820
vn 0.620669 0.312252 -0.719214
vt 1.299458 -0.190796
v 7991.070801 2277.533447 11062.310547
vn 0.487224 0.632206 -0.602435
vt 1.116123 -0.090298
v 7922.935059 2277.533447 10981.109375
vn 0.425550 0.758797 -0.493086
vt 1.116123 0.370572
f 41/41/41 47/47/47 48/48/48
f 48/48/48 42/42/42 41/41/41
f 38/38/38 41/41/41 42/42/42
f 41/41/41 38/38/38 37/37/37
f 39/39/39 37/37/37 38/38/38
f 37/37/37 39/39/39 40/40/40
f 43/43/43 40/40/40 39/39/39
f 22/22/22 24/24/24 25/25/25
f 24/24/24 22/22/22 23/23/23
f 27/27/27 23/23/23 22/22/22
f 23/23/23 27/27/27 19/19/19
f 20/20/20 19/19/19 27/27/27
f 19/19/19 20/20/20 9/9/9
f 24/24/24 19/19/19 21/21/21
f 19/19/19 24/24/24 23/23/23
f 27/27/27 26/26/26 20/20/20
f 26/26/26 27/27/27 22/22/22
f 19/19/19 7/7/7 21/21/21
f 7/7/7 19/19/19 8/8/8
f 9/9/9 8/8/8 19/19/19
f 8/8/8 9/9/9 3/3/3
f 4/4/4 3/3/3 9/9/9
f 3/3/3 4/4/4 1/1/1
f 3/3/3 7/7/7 8/8/8
f 7/7/7 3/3/3 6/6/6
f 1/1/1 2/2/2 3/3/3
f 5/5/5 3/3/3 2/2/2
f 3/3/3 5/5/5 6/6/6
f 10/10/10 11/11/11 12/12/12
f 14/14/14 12/12/12 11/11/11
f 12/12/12 14/14/14 15/15/15
f 12/12/12 15/15/15 16/16/16
f 12/12/12 13/13/13 10/10/10
f 12/12/12 18/18/18 13/13/13
f 18/18/18 12/12/12 17/17/17
f 16/16/16 17/17/17 12/12/12
f 17/17/17 16/16/16 28/28/28
f 30/30/30 28/28/28 16/16/16
f 28/28/28 30/30/30 32/32/32
f 31/31/31 32/32/32 30/30/30
f 32/32/32 31/31/31 35/35/35
f 35/35/35 34/34/34 32/32/32
f 28/28/28 32/32/32 34/34/34
f 28/28/28 18/18/18 17/17/17
f 18/18/18 28/28/28 29/29/29
f 34/34/34 29/29/29 28/28/28
f 29/29/29 34/34/34 33/33/33
f 35/35/35 33/33/33 34/34/34
f 33/33/33 35/35/35 36/36/36
f 78/78/78 69/69/69 68/68/68
f 67/67/67 68/68/68 69/69/69
f 68/68/68 67/67/67 66/66/66
f 58/58/58 66/66/66 67/67/67
f 66/66/66 58/58/58 59/59/59
f 55/55/55 59/59/59 58/58/58
f 79/79/79 78/78/78 68/68/68
f 78/78/78 79/79/79 77/77/77
f 80/80/80 77/77/77 79/79/79
f 56/56/56 55/55/55 58/58/58
f 55/55/55 56/56/56 54/54/54
f 57/57/57 54/54/54 56/56/56
f 54/54/54 57/57/57 65/65/65
f 65/65/65 64/64/64 54/54/54
f 64/64/64 65/65/65 62/62/62
f 62/62/62 63/63/63 64/64/64
f 63/63/63 62/62/62 60/60/60
f 61/61/61 60/60/60 62/62/62
f 60/60/60 61/61/61 52/52/52
f 52/52/52 51/51/51 60/60/60
f 51/51/51 52/52/52 53/53/53
f 72/72/72 70/70/70 71/71/71
f 70/70/70 72/72/72 74/74/74
f 73/73/73 74/74/74 72/72/72
f 74/74/74 73/73/73 75/75/75
f 75/75/75 76/76/76 74/74/74
f 46/46/46 44/44/44 45/45/45
f 44/44/44 46/46/46 50/50/50
f 49/49/49 50/50/50 46/46/46
