mtllib EKH_ENTRANCE_PS_EN_GRASSBLENDER00983.mtl
g assBlender00983
usemtl Rock_Grass_Blend
v -4773.013672 -93.811584 1079.867432
vn 0.290000 0.724246 0.625594
vt 3.298122 -2.323112
v -4787.157227 3.019897 1062.150024
vn 0.438502 0.227113 0.869560
vt 3.389456 -2.202222
v -4950.630859 -100.000061 1106.086182
vn 0.288721 0.379939 0.878798
vt 3.551861 -2.360567
v -4651.901367 -76.137329 974.312744
vn 0.390706 0.892707 0.224550
vt 3.125105 -2.172319
v -4631.980957 -80.449394 800.114380
vn 0.427177 0.901502 -0.069387
vt 3.096647 -1.923465
v -4649.170898 7.295238 800.572144
vn 0.959638 0.277097 -0.048083
vt 3.263462 -1.924119
v -4669.010742 9.111790 957.766785
vn 0.752420 0.365228 0.548155
vt 3.267354 -2.110895
v -4691.729004 -82.809372 670.379822
vn 0.438633 0.886695 -0.146197
vt 3.182001 -1.738129
v -4696.849121 2.554947 682.125244
vn 0.907338 0.153871 -0.391231
vt 3.313790 -1.770468
v -4817.258301 14.342156 493.205811
vn 0.797776 0.081292 -0.597449
vt 3.510032 -1.593050
v -4822.839355 -91.404762 476.350189
vn 0.826762 0.045735 -0.560690
vt 3.369302 -1.460944
f 11/11/11 10/10/10 8/8/8
f 9/9/9 8/8/8 10/10/10
f 8/8/8 9/9/9 6/6/6
f 6/6/6 5/5/5 8/8/8
f 5/5/5 6/6/6 4/4/4
f 7/7/7 4/4/4 6/6/6
f 4/4/4 7/7/7 1/1/1
f 2/2/2 1/1/1 7/7/7
f 1/1/1 2/2/2 3/3/3
