mtllib EKH_JAIL_PS_JA_BRIDGE_CENTER29928.mtl
g dge_Center29928
usemtl Cave_Blender_Ground
v -8683.019531 511.865967 8504.940430
vn 0.331742 0.570176 -0.751563
vt 2.720673 -3.773399
v -8739.006836 511.289825 8506.465820
vn -0.372062 0.658084 -0.654595
vt 3.000607 -3.781029
v -8730.619141 572.683533 8512.484375
vn -0.302025 0.051026 -0.951933
vt 2.892509 -3.974167
v -8730.619141 572.683533 8512.484375
vn -0.302025 0.051026 -0.951933
vt 3.892509 -3.974167
v -8686.508789 571.743103 8511.492188
vn 0.410330 -0.040888 -0.911020
vt 3.804501 -3.972183
v -8683.019531 511.865967 8504.940430
vn 0.331742 0.570176 -0.751563
vt 3.720673 -3.773399
v -8658.121094 577.823547 8544.784180
vn 0.913532 0.037342 -0.405049
vt 3.747860 -3.038612
v -8647.002930 516.534424 8547.564453
vn 0.707861 0.680170 -0.190530
vt 3.540588 -2.986526
v -8683.019531 511.865967 8504.940430
vn 0.331742 0.570176 -0.751563
vt 3.720673 -2.773399
v -8686.508789 571.743103 8511.492188
vn 0.410330 -0.040888 -0.911020
vt 3.804501 -2.972183
v -8739.006836 511.289825 8506.465820
vn -0.372062 0.658084 -0.654595
vt 3.000607 -2.781029
v -8772.803711 515.239868 8550.992188
vn -0.691128 0.707801 -0.146149
vt 3.169594 -3.003654
v -8757.235352 579.936584 8547.012695
vn -0.928143 0.081548 -0.363182
vt 2.945618 -3.043060
v -8730.619141 572.683533 8512.484375
vn -0.302025 0.051026 -0.951933
vt 2.892509 -2.974167
v -8758.962891 520.741638 8604.990234
vn -0.421733 0.832173 0.360041
vt 3.100388 -3.273651
v -8746.316406 588.040588 8589.077148
vn -0.805216 0.241153 0.541731
vt 2.923828 -3.126984
v -8707.903320 523.652161 8627.798828
vn -0.008191 0.853335 0.521299
vt 2.845089 -3.387695
v -8706.083008 590.893066 8607.002930
vn 0.080923 0.292559 0.952817
vt 2.843555 -3.162750
v -8706.083008 590.893066 8607.002930
vn 0.080923 0.292559 0.952817
vt 3.843555 -3.162750
v -8707.903320 523.652161 8627.798828
vn -0.008191 0.853335 0.521299
vt 3.845089 -3.387695
v -8658.077148 521.779785 8602.242188
vn 0.464721 0.805470 0.367766
vt 3.595959 -3.259911
v -8666.832031 586.346069 8587.290039
vn 0.878708 0.186017 0.439626
vt 3.765244 -3.123421
v -8659.929688 490.478821 8439.459961
vn 0.151106 0.502850 -0.851064
vt 2.605221 -3.445999
v -8634.696289 454.523926 8457.915039
vn 0.052455 -0.282360 -0.957873
vt 2.396084 -3.277519
v -8765.310547 443.181976 8455.303711
vn -0.292544 -0.557127 -0.777193
vt 3.262505 -3.291122
v -8774.710938 489.204590 8437.271484
vn -0.531315 0.281999 -0.798862
vt 3.179131 -3.435059
v -8830.914063 450.148682 8541.771484
vn -0.842025 -0.465290 -0.272944
vt 3.700165 -3.818283
v -8849.460938 497.940826 8535.750000
vn -0.814997 0.534727 -0.223264
vt 3.552879 -3.927452
v -8849.460938 497.940826 8535.750000
vn -0.814997 0.534727 -0.223264
vt 3.552879 -2.927452
v -8830.914063 450.148682 8541.771484
vn -0.842025 -0.465290 -0.272944
vt 3.700165 -2.818283
v -8836.094727 472.413147 8602.679688
vn -0.767654 -0.467968 -0.437850
vt 3.670574 -3.223846
v -8842.816406 506.036407 8613.843750
vn -0.426161 0.671680 -0.605998
vt 3.519657 -3.317917
v -8840.791016 515.179749 8652.940430
vn -0.817806 0.041756 0.573977
vt 3.509529 -3.513405
v -8786.676758 473.197540 8666.082031
vn -0.018721 -0.409405 0.912161
vt 3.395199 -3.754211
v -8802.161133 511.227814 8669.875000
vn -0.246613 0.748023 0.616153
vt 3.316380 -3.598076
v -8704.874023 464.081726 8691.057617
vn -0.004022 -0.357248 0.934001
vt 3.887402 -3.004494
v -8648.547852 462.318939 8676.784180
vn 0.422823 -0.360109 0.831590
vt 3.451756 -2.952965
v -8642.862305 514.475647 8687.888672
vn 0.425211 0.462328 0.778106
vt 3.519886 -2.688141
v -8705.921875 516.546143 8705.624023
vn -0.123758 0.611261 0.781693
vt 3.835186 -2.776817
v -8608.140625 460.556183 8641.458984
vn 0.738042 -0.422726 0.525924
vt 3.062588 -3.671349
v -8589.353516 456.042145 8586.531250
vn 0.890767 -0.428409 0.151655
vt 2.920647 -3.277229
v -8575.426758 506.604553 8586.814453
vn 0.901772 0.427745 0.061985
vt 3.182709 -3.182770
v -8595.720703 512.405090 8649.100586
vn 0.684042 0.596913 0.419263
vt 3.284180 -3.494202
v -8580.271484 500.803986 8533.732422
vn 0.782297 0.572516 -0.245432
vt 3.206932 -3.917358
v -8593.629883 455.076874 8510.788086
vn 0.917861 -0.292208 0.268598
vt 3.043404 -3.689522
v -8591.430664 495.542725 8500.948242
vn 0.506755 0.825787 0.247538
vt 3.262726 -3.753441
v -8757.743164 497.272522 8470.155273
vn -0.101229 0.964667 -0.243251
vt 3.094288 -3.599480
v -8670.678711 498.214996 8470.441406
vn 0.056136 0.958818 -0.278417
vt 2.658966 -3.600906
v -8659.929688 490.478821 8439.459961
vn 0.151106 0.502850 -0.851064
vt 2.605221 -3.445999
v -8758.962891 520.741638 8604.990234
vn -0.421733 0.832173 0.360041
vt 3.100388 -3.273651
v -8754.111328 516.382446 8649.422852
vn -0.072163 0.993087 0.092578
vt 3.076130 -3.495811
v -8707.903320 523.652161 8627.798828
vn -0.008191 0.853335 0.521299
vt 2.845093 -3.387695
v -8642.862305 514.475647 8687.888672
vn 0.425211 0.462328 0.778106
vt 3.519886 -3.688141
v -8648.547852 462.318939 8676.784180
vn 0.422823 -0.360109 0.831590
vt 3.451756 -3.952965
v -8593.629883 455.076874 8510.788086
vn 0.917861 -0.292208 0.268598
vt 3.043404 -2.689522
v -8580.271484 500.803986 8533.732422
vn 0.782297 0.572516 -0.245432
vt 3.206932 -2.917358
v -8625.354492 514.432495 8626.831055
vn 0.111924 0.993709 -0.003905
vt 3.432350 -3.382858
v -8705.921875 516.546143 8705.624023
vn -0.123758 0.611261 0.781693
vt 3.835186 -3.776817
v -8706.863281 517.495300 8668.637695
vn 0.031401 0.995934 0.084439
vt 3.839893 -3.591888
v -8813.030273 503.734161 8542.994141
vn -0.186102 0.974322 -0.126740
vt 3.370728 -2.963669
v -8813.030273 503.734161 8542.994141
vn -0.186102 0.974322 -0.126740
vt 3.370728 -3.963669
v -8683.019531 511.865967 8504.940430
vn 0.331742 0.570176 -0.751563
vt 3.720669 -3.773399
v -8641.219727 502.033447 8505.304688
vn 0.144134 0.965540 -0.216699
vt 3.511673 -3.775223
v -8670.678711 498.214996 8470.441406
vn 0.056136 0.958818 -0.278417
vt 3.658966 -3.600906
v -8786.676758 473.197540 8666.082031
vn -0.018721 -0.409405 0.912161
vt 3.395199 -2.754211
v -8704.874023 464.081726 8691.057617
vn -0.004022 -0.357248 0.934001
vt 2.887402 -3.004494
v -8705.921875 516.546143 8705.624023
vn -0.123758 0.611261 0.781693
vt 2.835186 -2.776817
v -8705.921875 516.546143 8705.624023
vn -0.123758 0.611261 0.781693
vt 2.835186 -3.776817
v -8611.760742 505.851868 8540.167969
vn 0.173926 0.974666 -0.140628
vt 3.364380 -2.949539
v -8707.903320 523.652161 8627.798828
vn -0.008191 0.853335 0.521299
vt 3.845093 -3.387695
v -8801.359375 515.269592 8630.208008
vn -0.095462 0.995218 -0.020682
vt 3.312370 -3.399734
v -8772.803711 515.239868 8550.992188
vn -0.691128 0.707801 -0.146149
vt 3.169594 -3.003662
v -8739.006836 511.289825 8506.465820
vn -0.372062 0.658084 -0.654595
vt 3.000607 -2.781029
v -8757.743164 497.272522 8470.155273
vn -0.101229 0.964667 -0.243251
vt 3.094288 -2.599480
v -8739.006836 511.289825 8506.465820
vn -0.372062 0.658084 -0.654595
vt 3.000607 -3.781029
v -8683.019531 511.865967 8504.940430
vn 0.331742 0.570176 -0.751563
vt 2.720669 -3.773399
v -8611.760742 505.851868 8540.167969
vn 0.173926 0.974666 -0.140628
vt 3.364380 -3.949539
v -8829.058594 479.190491 8635.447266
vn -0.770028 -0.463909 0.438000
vt 3.658291 -3.490585
v -8818.405273 479.361908 8648.901367
vn -0.595544 -0.447437 0.667179
vt 3.599636 -3.630600
v -8607.487305 461.645325 8488.808594
vn 0.763270 -0.244148 -0.598173
vt 3.181259 -3.479416
v -8604.818359 495.641418 8477.941406
vn 0.503988 0.731865 -0.458661
vt 3.329662 -3.638405
v -8634.696289 454.523926 8457.915039
vn 0.052455 -0.282360 -0.957873
vt 3.396084 -3.277519
v -8659.929688 490.478821 8439.459961
vn 0.151106 0.502850 -0.851064
vt 3.605221 -3.445999
v -8624.295898 492.225861 8458.603516
vn -0.049341 0.718995 -0.693261
vt 3.427055 -3.541718
v -8647.002930 516.534424 8547.564453
vn 0.707861 0.680170 -0.190530
vt 3.540588 -3.986526
v -8706.863281 517.495300 8668.637695
vn 0.031401 0.995934 0.084439
vt 2.839893 -3.591888
v -8626.364258 459.814484 8467.375000
vn 0.755215 -0.222031 -0.616728
vt 3.302013 -3.351151
f 65/65/65 66/66/66 67/67/67
f 40/40/40 41/41/41 42/42/42
f 55/55/55 42/42/42 41/41/41
f 42/42/42 55/55/55 56/56/56
f 42/42/42 43/43/43 40/40/40
f 54/54/54 40/40/40 53/53/53
f 43/43/43 53/53/53 40/40/40
f 53/53/53 43/43/43 57/57/57
f 42/42/42 57/57/57 43/43/43
f 57/57/57 42/42/42 69/69/69
f 56/56/56 69/69/69 42/42/42
f 21/21/21 69/69/69 8/8/8
f 69/69/69 21/21/21 57/57/57
f 59/59/59 57/57/57 21/21/21
f 57/57/57 59/59/59 53/53/53
f 58/58/58 53/53/53 59/59/59
f 21/21/21 70/70/70 59/59/59
f 21/21/21 19/19/19 20/20/20
f 19/19/19 21/21/21 22/22/22
f 8/8/8 22/22/22 21/21/21
f 22/22/22 8/8/8 7/7/7
f 9/9/9 7/7/7 8/8/8
f 7/7/7 9/9/9 10/10/10
f 30/30/30 31/31/31 29/29/29
f 32/32/32 29/29/29 31/31/31
f 29/29/29 32/32/32 60/60/60
f 71/71/71 60/60/60 32/32/32
f 60/60/60 71/71/71 50/50/50
f 51/51/51 50/50/50 71/71/71
f 50/50/50 51/51/51 52/52/52
f 86/86/86 52/52/52 51/51/51
f 33/33/33 32/32/32 31/31/31
f 32/32/32 33/33/33 71/71/71
f 35/35/35 71/71/71 33/33/33
f 71/71/71 35/35/35 51/51/51
f 68/68/68 51/51/51 35/35/35
f 51/51/51 68/68/68 86/86/86
f 31/31/31 78/78/78 33/33/33
f 78/78/78 79/79/79 33/33/33
f 34/34/34 33/33/33 79/79/79
f 33/33/33 34/34/34 35/35/35
f 68/68/68 35/35/35 34/34/34
f 73/73/73 74/74/74 72/72/72
f 60/60/60 72/72/72 74/74/74
f 72/72/72 60/60/60 50/50/50
f 46/46/46 44/44/44 45/45/45
f 44/44/44 46/46/46 77/77/77
f 63/63/63 77/77/77 46/46/46
f 77/77/77 63/63/63 85/85/85
f 62/62/62 85/85/85 63/63/63
f 62/62/62 63/63/63 64/64/64
f 81/81/81 46/46/46 45/45/45
f 46/46/46 81/81/81 63/63/63
f 84/84/84 63/63/63 81/81/81
f 63/63/63 84/84/84 64/64/64
f 83/83/83 64/64/64 84/84/84
f 84/84/84 82/82/82 83/83/83
f 82/82/82 84/84/84 87/87/87
f 81/81/81 87/87/87 84/84/84
f 87/87/87 81/81/81 80/80/80
f 45/45/45 80/80/80 81/81/81
f 17/17/17 18/18/18 15/15/15
f 16/16/16 15/15/15 18/18/18
f 15/15/15 16/16/16 12/12/12
f 13/13/13 12/12/12 16/16/16
f 12/12/12 13/13/13 11/11/11
f 14/14/14 11/11/11 13/13/13
f 61/61/61 47/47/47 28/28/28
f 26/26/26 28/28/28 47/47/47
f 28/28/28 26/26/26 27/27/27
f 25/25/25 27/27/27 26/26/26
f 25/25/25 23/23/23 24/24/24
f 23/23/23 25/25/25 26/26/26
f 48/48/48 75/75/75 76/76/76
f 75/75/75 48/48/48 47/47/47
f 49/49/49 47/47/47 48/48/48
f 47/47/47 49/49/49 26/26/26
f 38/38/38 36/36/36 37/37/37
f 36/36/36 38/38/38 39/39/39
f 1/1/1 2/2/2 3/3/3
f 4/4/4 5/5/5 6/6/6
