mtllib EKH_ENTRANCE_PS_EN_TREE_LINE393765.mtl
g Tree_Line393765
usemtl EKH_Tree_Wall
v -423.081116 2562.003418 -4613.018066
vn 0.290167 -0.050465 0.955644
vt 0.652525 0.005435
v -661.161499 709.016174 -4613.018066
vn 0.263629 -0.024550 0.964312
vt 0.652525 0.782609
v -38.998692 329.920624 -4914.730957
vn 0.354060 -0.065183 0.932948
vt -0.007779 0.782609
v 416.838715 2078.080566 -4914.730957
vn 0.297204 -0.077497 0.951664
vt -0.007779 0.005435
v -1335.279785 2771.673096 -4462.294434
vn 0.072062 -0.006898 0.997376
vt 1.306765 0.005435
v -1336.864258 881.150879 -4462.294434
vn -0.053253 -0.009107 0.998540
vt 1.306765 0.782609
v -2247.928955 2577.657959 -4613.017578
vn -0.228361 -0.021966 0.973329
vt 1.959676 0.005435
v -2012.900757 720.612244 -4613.017578
vn -0.300033 -0.054990 0.952343
vt 1.959676 0.782609
v -3117.504395 2122.405762 -4914.730957
vn -0.343321 -0.068929 0.936685
vt 2.630658 0.005435
v -2657.030518 362.754303 -4914.730957
vn -0.376677 -0.098571 0.921085
vt 2.630658 0.782609
f 1/1/1 3/3/3 4/4/4
f 3/3/3 1/1/1 2/2/2
f 5/5/5 2/2/2 1/1/1
f 2/2/2 5/5/5 6/6/6
f 7/7/7 6/6/6 5/5/5
f 6/6/6 7/7/7 8/8/8
f 9/9/9 8/8/8 7/7/7
f 8/8/8 9/9/9 10/10/10
usemtl Treewall_one
v -423.081085 2457.113037 -4225.593750
vn 0.290167 -0.050465 0.955644
vt 0.681756 0.005435
v -661.161438 604.125793 -4225.593750
vn 0.263629 -0.024550 0.964312
vt 0.681756 0.782609
v -38.998657 225.030243 -4527.307129
vn 0.354060 -0.065183 0.932948
vt 0.009158 0.782609
v 416.838745 1973.190063 -4527.307129
vn 0.297204 -0.077497 0.951664
vt 0.009158 0.005435
v -1335.279785 2666.782715 -4074.870361
vn 0.072062 -0.006898 0.997376
vt 1.348178 0.005435
v -1336.864136 776.260498 -4074.870361
vn -0.053253 -0.009107 0.998540
vt 1.348178 0.782609
v -2247.928955 2472.767578 -4225.593750
vn -0.228361 -0.021966 0.973329
vt 2.013244 0.005435
v -2012.900635 615.721863 -4225.593750
vn -0.300033 -0.054990 0.952343
vt 2.013244 0.782609
v -3117.504395 2017.515503 -4527.307129
vn -0.343321 -0.068929 0.936685
vt 2.696719 0.005435
v -2657.030518 257.863922 -4527.307129
vn -0.376677 -0.098571 0.921085
vt 2.696719 0.782609
f 11/11/11 13/13/13 14/14/14
f 13/13/13 11/11/11 12/12/12
f 15/15/15 12/12/12 11/11/11
f 12/12/12 15/15/15 16/16/16
f 17/17/17 16/16/16 15/15/15
f 16/16/16 17/17/17 18/18/18
f 19/19/19 18/18/18 17/17/17
f 18/18/18 19/19/19 20/20/20
