mtllib EKH_THRONE_PS_TH_STEP_0292.mtl
g TH_Step_0292
usemtl steps
v -728.117554 381.599670 7474.520996
vn -0.989308 0.000000 -0.145842
vt 0.240528 1.000000
v -728.117554 404.070160 7474.520996
vn -0.528866 0.846608 -0.059634
vt 0.240528 0.684928
v -698.038696 404.070160 7309.699707
vn -0.525335 0.845477 -0.095870
vt -0.236368 0.684928
v -698.038696 381.599670 7309.699707
vn -0.983753 0.000000 -0.179529
vt -0.236368 1.000000
v -740.693298 381.599670 7635.343262
vn -0.999390 0.000000 -0.034930
vt 0.717854 1.000000
v -740.693298 404.070160 7635.343262
vn -0.530759 0.847511 0.004352
vt 0.717854 0.684928
v -731.741699 381.599670 7809.532227
vn -0.996288 0.000000 0.086088
vt 1.197706 1.000000
v -731.741699 404.070160 7809.532227
vn -0.541929 0.837417 0.071039
vt 1.197706 0.684928
v -712.695679 381.599640 7930.680176
vn -0.932543 0.021852 -0.360397
vt 1.575254 1.000000
v -712.493408 404.070160 7931.426758
vn -0.570467 0.816365 0.090082
vt 1.579263 0.684928
v -653.576782 408.433319 7475.822266
vn -0.719483 0.686362 -0.106076
vt 0.240528 0.000000
v -623.497925 408.433319 7311.000977
vn -0.715914 0.685856 -0.130650
vt -0.236368 0.000000
v -666.152527 408.433319 7636.644531
vn -0.726428 0.686774 -0.025389
vt 0.717854 0.000000
v -657.200928 408.433289 7810.833496
vn -0.809537 0.581257 0.082400
vt 1.197706 0.000000
v -646.573059 408.433289 7878.435547
vn -0.616270 0.731094 -0.292766
vt 1.408382 0.000000
v -653.576782 408.433319 7475.822266
vn -0.719483 0.686362 -0.106076
vt 0.968577 1.000000
v -653.576660 436.183319 7475.822266
vn -0.722611 0.686444 -0.081416
vt 0.968577 0.684928
v -623.497803 436.183319 7311.000977
vn -0.715914 0.685856 -0.130650
vt 1.438329 0.684928
v -623.497925 408.433319 7311.000977
vn -0.715914 0.685856 -0.130650
vt 1.438329 1.000000
v -666.152527 408.433319 7636.644531
vn -0.726428 0.686774 -0.025389
vt 0.533880 1.000000
v -666.152405 436.183319 7636.644531
vn -0.726850 0.686770 0.005993
vt 0.533880 0.684928
v -657.200928 408.433289 7810.833496
vn -0.809537 0.581257 0.082400
vt 0.070537 1.000000
v -657.200806 436.183319 7810.833496
vn -0.723544 0.686406 0.073013
vt 0.070537 0.684928
v -646.573059 408.433289 7878.435547
vn -0.616270 0.731094 -0.292766
vt -0.125452 1.000000
v -646.837036 436.183319 7879.516602
vn -0.721821 0.683088 0.111198
vt -0.120582 0.684928
v -579.036133 440.546478 7477.123047
vn -0.062581 0.997997 -0.009242
vt 0.968577 0.000000
v -548.957275 440.546478 7312.301758
vn -0.062540 0.997977 -0.011413
vt 1.438329 0.000000
v -591.611877 440.546478 7637.945801
vn -0.062709 0.998029 -0.002191
vt 0.533880 0.000000
v -582.660278 440.546448 7812.134766
vn -0.062766 0.998008 0.006445
vt 0.070537 0.000000
v -575.048157 440.546448 7860.553711
vn -0.062549 0.997993 0.009833
vt -0.069838 0.000000
f 22/22/22 24/24/24 25/25/25
f 16/16/16 18/18/18 19/19/19
f 18/18/18 16/16/16 17/17/17
f 20/20/20 17/17/17 16/16/16
f 17/17/17 20/20/20 21/21/21
f 22/22/22 21/21/21 20/20/20
f 21/21/21 22/22/22 23/23/23
f 25/25/25 23/23/23 22/22/22
f 23/23/23 25/25/25 29/29/29
f 30/30/30 29/29/29 25/25/25
f 27/27/27 18/18/18 26/26/26
f 17/17/17 26/26/26 18/18/18
f 26/26/26 17/17/17 28/28/28
f 21/21/21 28/28/28 17/17/17
f 28/28/28 21/21/21 29/29/29
f 23/23/23 29/29/29 21/21/21
f 1/1/1 3/3/3 4/4/4
f 3/3/3 1/1/1 2/2/2
f 5/5/5 2/2/2 1/1/1
f 2/2/2 5/5/5 6/6/6
f 7/7/7 6/6/6 5/5/5
f 6/6/6 7/7/7 8/8/8
f 9/9/9 8/8/8 7/7/7
f 8/8/8 9/9/9 10/10/10
f 12/12/12 3/3/3 11/11/11
f 2/2/2 11/11/11 3/3/3
f 11/11/11 2/2/2 13/13/13
f 6/6/6 13/13/13 2/2/2
f 13/13/13 6/6/6 14/14/14
f 8/8/8 14/14/14 6/6/6
f 14/14/14 8/8/8 15/15/15
f 10/10/10 15/15/15 8/8/8
