mtllib EKH_GROTTO_PS_GR_OBJECT61.mtl
g GR_Object61
usemtl EKH_Cave_Floor
v 7331.150879 1552.387329 4385.614258
vn -0.381450 -0.911420 0.154305
vt -2.959327 1.549317
v 7309.682129 1567.225952 4593.658203
vn -0.384519 -0.918517 -0.092044
vt -2.897987 0.954906
v 7223.936035 1605.538940 4508.348145
vn -0.214295 -0.973777 0.076389
vt -2.652998 1.198649
v 7232.469727 1554.889648 4320.725586
vn -0.116423 -0.956011 0.269236
vt -2.677380 1.734714
v 7288.213379 1528.984741 4801.702148
vn -0.500807 -0.835162 -0.227370
vt -2.836647 0.360495
v 7272.671875 1510.352539 4918.103027
vn -0.261419 -0.921241 -0.288054
vt -2.792243 0.027920
v 7168.841797 1545.807617 4882.156250
vn -0.130134 -0.871378 -0.473039
vt -2.495585 0.130625
v 7186.040527 1582.034180 4760.260254
vn -0.198633 -0.956298 -0.214567
vt -2.544725 0.478901
v 7062.737793 1552.512939 4880.460938
vn -0.092651 -0.870786 -0.482854
vt -2.192431 0.135470
v 7070.130371 1595.444824 4748.198242
vn -0.068351 -0.980733 -0.183007
vt -2.213553 0.513363
v 7085.904785 1465.119751 4280.936035
vn 0.430521 -0.885191 -0.176319
vt -2.258623 1.848398
v 6940.437988 1435.766846 4259.347656
vn -0.168676 -0.923522 -0.344464
vt -1.843004 1.910079
v 6964.854980 1512.318115 4127.506348
vn -0.047380 -0.997221 0.057486
vt -1.912767 2.286768
v 7091.066406 1512.318115 4143.728027
vn 0.052607 -0.975532 0.213473
vt -2.273371 2.240420
v 6928.409180 1552.512939 4924.979004
vn 0.052627 -0.895167 -0.442613
vt -1.808635 0.008275
v 6941.234863 1595.444824 4785.118164
vn 0.086555 -0.970888 -0.223350
vt -1.845280 0.407878
v 6821.707520 1479.925171 4362.244141
vn -0.497182 -0.858491 0.125707
vt -1.503774 1.616089
v 6775.501953 1530.536865 4240.230957
vn -0.226085 -0.974020 -0.013039
vt -1.371758 1.964698
v 6727.383789 1523.540161 4842.112305
vn 0.401475 -0.836093 -0.373853
vt -1.234277 0.245037
v 6747.648438 1580.993042 4712.233398
vn 0.200502 -0.948818 -0.244015
vt -1.292176 0.616120
v 6654.798340 1575.943481 4635.951172
vn 0.177531 -0.917783 -0.355187
vt -1.026890 0.834069
v 6740.434082 1594.833496 4612.845215
vn -0.004181 -0.984726 -0.174062
vt -1.271565 0.900087
v 6627.734863 1509.360718 4738.963867
vn 0.374849 -0.792707 -0.480733
vt -0.949566 0.539747
v 6348.321777 1628.612427 4264.481445
vn -0.062906 -0.802665 0.593103
vt -0.151243 1.895412
v 6360.565430 1520.091187 4116.374512
vn -0.051182 -0.859253 0.508985
vt -0.186225 2.318574
v 6412.258301 1498.537476 4120.433594
vn -0.403907 -0.856795 0.320563
vt -0.333920 2.306978
v 6476.374023 1499.733643 4225.968750
vn -0.387756 -0.715840 0.580705
vt -0.517107 2.005447
v 6184.526855 1509.393555 4793.804199
vn -0.472616 -0.876628 -0.090322
vt 0.316743 0.383061
v 6186.455078 1525.050781 4702.513184
vn -0.559526 -0.787238 -0.259205
vt 0.311233 0.643892
v 6268.437500 1467.195190 4716.101563
vn -0.514538 -0.831702 -0.208622
vt 0.076998 0.605069
v 6353.704102 1427.273682 4800.977539
vn -0.146443 -0.942530 0.300319
vt -0.166621 0.362566
v 6316.017090 1503.460449 4113.880859
vn 0.338637 -0.825267 0.451950
vt -0.058944 2.325699
v 6222.020508 1562.528564 4245.126465
vn 0.306013 -0.671432 0.674934
vt 0.209617 1.950712
v 6024.624512 1623.798096 4783.410156
vn -0.413792 -0.903663 -0.110316
vt 0.773607 0.412759
v 5915.875977 1609.562134 4552.812012
vn 0.050714 -0.934553 0.352192
vt 1.084316 1.071611
v 6047.729492 1631.891602 4515.477051
vn 0.050336 -0.998393 0.026019
vt 0.707592 1.178282
v 5872.362793 1675.273560 4805.692383
vn -0.148031 -0.980915 -0.126062
vt 1.208641 0.349095
v 5916.395996 1516.192139 4142.054688
vn 0.134993 -0.973028 0.187064
vt 1.082831 2.245203
v 6016.080078 1515.462280 4172.435059
vn -0.222816 -0.930742 0.289952
vt 0.798019 2.158401
v 6070.834473 1531.826416 4247.543945
vn -0.065224 -0.829082 0.555310
vt 0.641577 1.943805
v 5916.074219 1557.850342 4288.137207
vn 0.456831 -0.876431 0.152229
vt 1.083749 1.827824
v 5740.568359 1663.021851 4632.349609
vn -0.076084 -0.929110 0.361892
vt 1.585195 0.844361
v 5745.075684 1686.830933 4793.038086
vn -0.063912 -0.991011 -0.117525
vt 1.572317 0.385250
v 5771.858887 1396.534302 4200.517090
vn 0.378177 -0.864772 -0.330381
vt 1.495793 2.078167
v 5772.317383 1478.703613 4097.602051
vn 0.123828 -0.963230 -0.238442
vt 1.494483 2.372211
v 5473.432129 1636.752930 4794.117676
vn 0.480126 -0.875572 0.053404
vt 2.348443 0.382166
v 5455.736816 1601.807251 4672.811035
vn 0.579962 -0.799204 0.157851
vt 2.399000 0.728756
v 5596.504883 1677.368530 4644.295898
vn 0.183269 -0.932035 0.312608
vt 1.996806 0.810229
v 5626.516113 1684.250244 4827.664551
vn 0.074749 -0.969053 -0.235264
vt 1.911059 0.286317
v 5601.604980 1472.862183 4107.104004
vn -0.038780 -0.971407 -0.234231
vt 1.982232 2.345062
v 5545.822754 1413.548706 4208.105469
vn -0.261182 -0.911363 -0.318122
vt 2.141610 2.056487
v 7109.647461 1617.823853 4530.591309
vn 0.049701 -0.994512 0.092061
vt -2.326459 1.135098
v 6638.837402 1637.786377 4391.584473
vn -0.277059 -0.913324 0.298459
vt -0.981288 1.532260
v 6731.163086 1580.715942 4382.551270
vn -0.486773 -0.830368 0.271185
vt -1.245076 1.558070
v 6733.220215 1608.673828 4513.457031
vn -0.272249 -0.957356 0.096698
vt -1.250953 1.184053
v 6647.695801 1609.178589 4536.874023
vn -0.155319 -0.933153 -0.324194
vt -1.006598 1.117147
v 6370.467285 1685.953979 4484.754883
vn 0.100187 -0.908595 -0.405485
vt -0.214517 1.266059
v 6384.155273 1620.408936 4579.601563
vn -0.042897 -0.476103 -0.878343
vt -0.253624 0.995069
v 6318.354004 1583.418335 4602.143555
vn -0.099972 -0.507491 -0.855838
vt -0.065621 0.930662
v 6188.683594 1674.696655 4456.332031
vn 0.278248 -0.925847 -0.255706
vt 0.304866 1.347267
v 6190.312012 1618.723022 4519.904297
vn 0.121625 -0.866853 -0.483500
vt 0.300213 1.165632
v 6071.985840 1614.844604 4395.252930
vn 0.311449 -0.941359 0.129780
vt 0.638288 1.521779
v 5903.035156 1540.497314 4399.734863
vn 0.464545 -0.845258 0.264078
vt 1.121004 1.508973
v 4893.546387 1418.270142 4540.421875
vn 0.051734 -0.908763 -0.414094
vt 3.005258 1.107012
v 4893.192871 1418.940552 4366.093262
vn 0.100687 -0.908496 0.405583
vt 3.006269 1.605094
v 4982.483887 1418.940674 4380.513184
vn -0.019599 -0.880097 0.474389
vt 2.751151 1.563893
v 4983.368652 1418.270142 4528.747559
vn -0.024213 -0.871285 -0.490180
vt 2.748623 1.140367
v 4983.368652 1418.270142 4528.747559
vn -0.024213 -0.871285 -0.490180
vt 3.748623 1.140367
v 4982.483887 1418.940674 4380.513184
vn -0.019599 -0.880097 0.474389
vt 3.751151 1.563893
v 5112.718750 1420.031128 4371.810547
vn 0.183191 -0.898818 0.398206
vt 3.379051 1.588758
v 5113.603516 1413.993896 4537.452637
vn 0.181381 -0.859345 -0.478150
vt 3.376523 1.115495
v 4796.952148 1389.304932 4532.056152
vn 0.457986 -0.872562 -0.169954
vt 3.281242 1.130914
v 4794.168457 1389.975464 4376.828125
vn 0.498193 -0.852756 0.156878
vt 3.289195 1.574423
v 6484.585938 1696.593140 4479.351074
vn -0.072904 -0.975711 -0.206574
vt -0.540570 1.281498
v 6480.992188 1622.518066 4574.478516
vn 0.210265 -0.552534 -0.806533
vt -0.530302 1.009706
v 6522.208008 1616.878540 4615.163574
vn 0.288502 -0.582421 -0.759969
vt -0.648061 0.893462
v 6558.884766 1560.501953 4647.416992
vn 0.391017 -0.705800 -0.590722
vt -0.752852 0.801309
v 6188.383301 1567.908081 4611.208984
vn -0.311645 -0.852109 -0.420461
vt 0.305723 0.904762
v 6261.059082 1539.498047 4635.379395
vn -0.275107 -0.694559 -0.664758
vt 0.098079 0.835704
v 6545.333008 1478.250732 4723.770020
vn 0.556768 -0.770610 -0.310113
vt -0.714132 0.583159
v 6540.101563 1510.316650 4245.760742
vn -0.079315 -0.704173 0.705584
vt -0.699186 1.948899
v 6649.463867 1512.407227 4231.607422
vn 0.123930 -0.867607 0.481560
vt -1.011649 1.989337
v 6499.089355 1675.402710 4384.224121
vn -0.183896 -0.870908 0.455743
vt -0.582008 1.553289
v 6187.055176 1661.003906 4392.760254
vn 0.243245 -0.880986 0.405827
vt 0.309518 1.528902
v 6356.779785 1681.832520 4389.908203
vn 0.055807 -0.975650 0.212115
vt -0.175409 1.537049
v 6460.938477 1457.715820 4874.817383
vn 0.026346 -0.976059 0.215903
vt -0.473005 0.151595
v 6489.002930 1425.174561 4781.963867
vn 0.251359 -0.948546 0.192561
vt -0.553189 0.416891
v 6618.262695 1445.930420 4832.144043
vn 0.272146 -0.951393 -0.144183
vt -0.922503 0.273518
v 6322.260742 1454.666504 4904.173828
vn -0.122512 -0.990748 0.058392
vt -0.076783 0.067720
v 6181.634277 1483.429565 4930.753906
vn -0.323157 -0.919318 -0.224554
vt 0.325007 -0.008224
v 5800.184082 1419.961670 4375.683594
vn 0.713732 -0.685042 0.145957
vt 1.414865 1.577692
v 5729.028809 1351.569214 4299.103027
vn 0.200004 -0.948582 -0.245339
vt 1.618165 1.796493
v 5203.832031 1436.903442 4531.618652
vn 0.428728 -0.824191 -0.370003
vt 3.118727 1.132164
v 5172.136230 1451.450928 4381.046875
vn 0.488226 -0.855180 0.174078
vt 3.209287 1.562369
v 5297.668945 1496.294189 4388.837402
vn 0.294352 -0.953890 0.058748
vt 2.850623 1.540111
v 5327.366211 1508.722778 4550.748535
vn 0.513727 -0.848622 -0.126195
vt 2.765772 1.077506
v 5818.902344 1539.699585 4465.972656
vn 0.479008 -0.641479 0.599213
vt 1.361384 1.319723
v 5555.994629 1377.208374 4311.914063
vn -0.389210 -0.919845 -0.048999
vt 2.112548 1.759890
v 5751.583984 1570.486206 4514.973633
vn 0.120922 -0.606444 0.785877
vt 1.553722 1.179721
v 5582.151367 1566.654907 4503.589844
vn -0.075524 -0.601619 0.795205
vt 2.037816 1.212246
v 5270.304688 1479.060669 4230.398926
vn 0.308032 -0.945912 0.101820
vt 2.928805 1.992791
v 5438.041504 1566.861572 4551.504395
vn 0.304446 -0.905806 0.294665
vt 2.449558 1.075346
v 5402.626465 1505.752686 4412.459473
vn -0.225517 -0.932308 0.282742
vt 2.550744 1.472618
v 7159.187012 1549.485962 4300.830566
vn 0.391386 -0.893027 0.222082
vt -2.468002 1.791556
v 7137.236816 1595.793945 4417.027344
vn 0.380137 -0.869035 0.316661
vt -2.405286 1.459566
v 6936.542969 1622.121582 4568.498047
vn 0.054732 -0.989437 0.134238
vt -1.831876 1.026792
v 7054.493164 1617.823853 4560.378906
vn -0.001534 -0.995713 0.092484
vt -2.168876 1.049989
v 6823.092773 1597.384399 4504.399902
vn -0.127428 -0.943317 0.306457
vt -1.507732 1.209930
v 6816.827637 1507.389404 4091.866699
vn -0.069825 -0.951991 0.298057
vt -1.489832 2.388596
v 6728.676270 1526.094727 4175.186523
vn 0.270906 -0.943087 0.192863
vt -1.237971 2.150540
v 6737.142578 1502.138184 4047.718506
vn 0.118349 -0.964523 0.235987
vt -1.262160 2.514734
v 6013.071777 1600.469482 4954.599121
vn -0.332062 -0.766007 -0.550425
vt 0.806615 -0.076352
v 5864.970215 1600.000122 4977.868164
vn -0.024377 -0.774546 -0.632048
vt 1.229762 -0.142836
v 5740.458984 1600.000122 4967.147461
vn -0.080935 -0.764420 -0.639618
vt 1.585508 -0.112205
v 5621.370605 1600.000122 5005.642578
vn -0.146745 -0.764948 -0.627153
vt 1.925760 -0.222191
v 7385.380371 1527.271606 4628.609863
vn -0.473037 -0.859712 -0.192695
vt -3.114268 0.855043
v 7403.075195 1527.271606 4487.376465
vn -0.519535 -0.850916 0.077616
vt -3.164825 1.258568
v 5247.678711 1420.657227 4744.085938
vn 0.798906 -0.590872 0.112336
vt 2.993451 0.525114
v 5217.425781 1406.440430 4641.188965
vn 0.666480 -0.712988 -0.217835
vt 3.079888 0.819105
v 5338.215332 1497.427856 4653.669434
vn 0.625895 -0.779575 0.022756
vt 2.734776 0.783447
v 5320.347656 1508.521484 4760.570801
vn 0.609209 -0.764754 0.209800
vt 2.785825 0.478014
v 4991.383789 1520.221191 5135.445801
vn 0.174122 -0.864420 0.471656
vt 3.725723 -0.593057
v 4969.283203 1478.433350 5067.683594
vn 0.000423 -0.739900 0.672717
vt 3.788867 -0.399450
v 5075.711426 1491.849121 5078.715820
vn 0.304565 -0.572648 0.761127
vt 3.484787 -0.430971
v 5100.383301 1570.718750 5135.125977
vn 0.301961 -0.843716 0.443806
vt 3.414296 -0.592144
v 5201.007324 1459.428467 4956.620605
vn 0.688801 -0.521349 0.503734
vt 3.126798 -0.082127
v 5241.212402 1548.768433 5008.217285
vn 0.452429 -0.764221 0.459645
vt 3.011927 -0.229547
v 5045.522949 1524.850464 5382.982910
vn 0.495946 -0.736876 -0.459403
vt 3.571039 -1.300305
v 5091.048340 1600.038818 5334.402344
vn 0.379862 -0.869118 -0.316763
vt 3.440968 -1.161504
v 5185.731934 1580.074829 5431.773926
vn 0.080927 -0.841917 -0.533504
vt 3.170443 -1.439709
v 5157.167480 1619.338501 5246.985352
vn 0.045089 -0.998922 0.011064
vt 3.252056 -0.911741
v 5284.181641 1581.786865 5383.922852
vn -0.342073 -0.869731 -0.355745
vt 2.889158 -1.302992
v 5300.159180 1594.174805 5119.128906
vn 0.029533 -0.992126 0.121713
vt 2.843508 -0.546437
v 5422.936035 1605.665894 4975.469727
vn 0.199694 -0.964491 -0.172856
vt 2.492716 -0.135982
v 5464.783203 1552.697388 5092.475098
vn -0.323126 -0.863192 -0.387929
vt 2.373153 -0.470284
v 5347.092285 1583.498901 5254.495605
vn -0.464895 -0.855240 -0.228993
vt 2.709413 -0.933200
v 5022.495605 1577.782959 5259.150879
vn 0.428644 -0.903432 -0.008607
vt 3.636833 -0.946500
v 4885.995605 1497.852173 5103.906738
vn 0.187644 -0.873954 0.448323
vt 3.026833 -0.502945
v 4969.283203 1478.433350 5067.683594
vn 0.000423 -0.739900 0.672717
vt 2.788867 -0.399450
v 4991.383789 1520.221191 5135.445801
vn 0.174122 -0.864420 0.471656
vt 2.725723 -0.593057
v 4899.417969 1518.029419 5162.487793
vn 0.408227 -0.910294 0.068668
vt 2.988483 -0.670320
v 4899.417969 1518.029419 5162.487793
vn 0.408227 -0.910294 0.068668
vt 3.988483 -0.670320
v 4926.262207 1509.098999 5279.650391
vn 0.582611 -0.739781 -0.336583
vt 3.911785 -1.005069
v 5408.063965 1458.406372 4230.737793
vn -0.169551 -0.985521 -0.000253
vt 2.535208 1.991822
v 5507.583984 1493.052979 4436.082031
vn -0.342824 -0.767494 0.541688
vt 2.250865 1.405125
v 5285.576172 1470.540771 4129.248047
vn 0.090834 -0.995854 -0.004976
vt 2.885172 2.281794
v 5444.834473 1488.555176 4110.414551
vn -0.053254 -0.994013 -0.095408
vt 2.430149 2.335604
v 7345.915039 1517.801880 4269.807129
vn -0.478055 -0.827062 0.295688
vt -3.001510 1.880195
v 7250.460449 1519.052979 4200.156250
vn -0.207820 -0.904892 0.371458
vt -2.728783 2.079197
v 7375.959473 1518.735840 4365.889160
vn -0.638866 -0.740747 0.207711
vt -3.087351 1.605675
f 140/140/140 138/138/138 139/139/139
f 138/138/138 140/140/140 141/141/141
f 131/131/131 132/132/132 130/130/130
f 132/132/132 131/131/131 136/136/136
f 133/133/133 136/136/136 131/131/131
f 136/136/136 133/133/133 135/135/135
f 134/134/134 135/135/135 133/133/133
f 135/135/135 134/134/134 115/115/115
f 49/49/49 115/115/115 134/134/134
f 115/115/115 49/49/49 114/114/114
f 43/43/43 114/114/114 49/49/49
f 114/114/114 43/43/43 37/37/37
f 42/42/42 37/37/37 43/43/43
f 37/37/37 42/42/42 35/35/35
f 99/99/99 35/35/35 42/42/42
f 35/35/35 99/99/99 97/97/97
f 37/37/37 113/113/113 114/114/114
f 34/34/34 37/37/37 35/35/35
f 129/129/129 131/131/131 130/130/130
f 48/48/48 99/99/99 42/42/42
f 99/99/99 48/48/48 100/100/100
f 145/145/145 100/100/100 102/102/102
f 48/48/48 102/102/102 100/100/100
f 42/42/42 43/43/43 48/48/48
f 49/49/49 48/48/48 43/43/43
f 48/48/48 49/49/49 46/46/46
f 134/134/134 46/46/46 49/49/49
f 46/46/46 134/134/134 121/121/121
f 133/133/133 121/121/121 134/134/134
f 121/121/121 133/133/133 127/127/127
f 125/125/125 127/127/127 133/133/133
f 127/127/127 125/125/125 124/124/124
f 122/122/122 124/124/124 125/125/125
f 124/124/124 122/122/122 123/123/123
f 118/118/118 121/121/121 126/126/126
f 127/127/127 126/126/126 121/121/121
f 126/126/126 127/127/127 124/124/124
f 48/48/48 46/46/46 47/47/47
f 121/121/121 47/47/47 46/46/46
f 47/47/47 121/121/121 120/120/120
f 118/118/118 120/120/120 121/121/121
f 120/120/120 118/118/118 119/119/119
f 48/48/48 47/47/47 102/102/102
f 120/120/120 102/102/102 47/47/47
f 102/102/102 120/120/120 96/96/96
f 119/119/119 96/96/96 120/120/120
f 96/96/96 119/119/119 93/93/93
f 98/98/98 145/145/145 103/103/103
f 102/102/102 103/103/103 145/145/145
f 103/103/103 102/102/102 95/95/95
f 96/96/96 95/95/95 102/102/102
f 95/95/95 96/96/96 93/93/93
f 94/94/94 93/93/93 71/71/71
f 93/93/93 94/94/94 95/95/95
f 101/101/101 95/95/95 94/94/94
f 95/95/95 101/101/101 103/103/103
f 144/144/144 103/103/103 101/101/101
f 103/103/103 144/144/144 51/51/51
f 147/147/147 51/51/51 144/144/144
f 51/51/51 147/147/147 50/50/50
f 146/146/146 144/144/144 101/101/101
f 144/144/144 146/146/146 147/147/147
f 44/44/44 51/51/51 50/50/50
f 70/70/70 68/68/68 69/69/69
f 68/68/68 70/70/70 71/71/71
f 94/94/94 71/71/71 70/70/70
f 41/41/41 40/40/40 62/62/62
f 40/40/40 41/41/41 38/38/38
f 44/44/44 38/38/38 41/41/41
f 38/38/38 44/44/44 45/45/45
f 50/50/50 45/45/45 44/44/44
f 38/38/38 39/39/39 40/40/40
f 78/78/78 79/79/79 30/30/30
f 79/79/79 78/78/78 61/61/61
f 36/36/36 61/61/61 78/78/78
f 61/61/61 36/36/36 62/62/62
f 63/63/63 62/62/62 36/36/36
f 62/62/62 63/63/63 41/41/41
f 91/91/91 41/41/41 63/63/63
f 41/41/41 91/91/91 44/44/44
f 92/92/92 44/44/44 91/91/91
f 44/44/44 92/92/92 51/51/51
f 98/98/98 51/51/51 92/92/92
f 51/51/51 98/98/98 103/103/103
f 84/84/84 40/40/40 33/33/33
f 40/40/40 84/84/84 62/62/62
f 60/60/60 62/62/62 84/84/84
f 62/62/62 60/60/60 61/61/61
f 59/59/59 61/61/61 60/60/60
f 61/61/61 59/59/59 79/79/79
f 63/63/63 97/97/97 91/91/91
f 97/97/97 63/63/63 35/35/35
f 36/36/36 35/35/35 63/63/63
f 35/35/35 36/36/36 34/34/34
f 78/78/78 34/34/34 36/36/36
f 34/34/34 78/78/78 29/29/29
f 30/30/30 29/29/29 78/78/78
f 29/29/29 30/30/30 28/28/28
f 31/31/31 28/28/28 30/30/30
f 34/34/34 29/29/29 28/28/28
f 58/58/58 59/59/59 57/57/57
f 60/60/60 57/57/57 59/59/59
f 57/57/57 60/60/60 85/85/85
f 84/84/84 85/85/85 60/60/60
f 85/85/85 84/84/84 24/24/24
f 33/33/33 24/24/24 84/84/84
f 24/24/24 33/33/33 32/32/32
f 27/27/27 81/81/81 24/24/24
f 83/83/83 24/24/24 81/81/81
f 24/24/24 83/83/83 85/85/85
f 74/74/74 85/85/85 83/83/83
f 85/85/85 74/74/74 57/57/57
f 75/75/75 57/57/57 74/74/74
f 57/57/57 75/75/75 58/58/58
f 74/74/74 83/83/83 53/53/53
f 81/81/81 53/53/53 83/83/83
f 32/32/32 25/25/25 24/24/24
f 26/26/26 24/24/24 25/25/25
f 24/24/24 26/26/26 27/27/27
f 56/56/56 53/53/53 55/55/55
f 53/53/53 56/56/56 74/74/74
f 76/76/76 74/74/74 56/56/56
f 74/74/74 76/76/76 75/75/75
f 77/77/77 76/76/76 56/56/56
f 81/81/81 82/82/82 53/53/53
f 54/54/54 53/53/53 82/82/82
f 18/18/18 82/82/82 110/110/110
f 82/82/82 18/18/18 54/54/54
f 13/13/13 18/18/18 109/109/109
f 110/110/110 109/109/109 18/18/18
f 109/109/109 110/110/110 111/111/111
f 16/16/16 15/15/15 19/19/19
f 15/15/15 16/16/16 9/9/9
f 10/10/10 9/9/9 16/16/16
f 9/9/9 10/10/10 8/8/8
f 52/52/52 8/8/8 10/10/10
f 8/8/8 52/52/52 3/3/3
f 105/105/105 3/3/3 52/52/52
f 3/3/3 105/105/105 4/4/4
f 104/104/104 4/4/4 105/105/105
f 4/4/4 104/104/104 14/14/14
f 11/11/11 14/14/14 104/104/104
f 14/14/14 11/11/11 13/13/13
f 12/12/12 13/13/13 11/11/11
f 13/13/13 12/12/12 18/18/18
f 17/17/17 18/18/18 12/12/12
f 18/18/18 17/17/17 54/54/54
f 55/55/55 54/54/54 17/17/17
f 54/54/54 55/55/55 53/53/53
f 105/105/105 11/11/11 104/104/104
f 149/149/149 4/4/4 14/14/14
f 8/8/8 7/7/7 9/9/9
f 6/6/6 7/7/7 5/5/5
f 8/8/8 5/5/5 7/7/7
f 5/5/5 8/8/8 2/2/2
f 3/3/3 2/2/2 8/8/8
f 2/2/2 3/3/3 1/1/1
f 4/4/4 1/1/1 3/3/3
f 1/1/1 4/4/4 148/148/148
f 149/149/149 148/148/148 4/4/4
f 2/2/2 116/116/116 5/5/5
f 116/116/116 2/2/2 117/117/117
f 1/1/1 117/117/117 2/2/2
f 117/117/117 1/1/1 150/150/150
f 148/148/148 150/150/150 1/1/1
f 17/17/17 108/108/108 55/55/55
f 22/22/22 55/55/55 108/108/108
f 55/55/55 22/22/22 56/56/56
f 21/21/21 56/56/56 22/22/22
f 56/56/56 21/21/21 77/77/77
f 23/23/23 77/77/77 21/21/21
f 77/77/77 23/23/23 80/80/80
f 88/88/88 80/80/80 23/23/23
f 80/80/80 88/88/88 87/87/87
f 86/86/86 87/87/87 88/88/88
f 87/87/87 86/86/86 31/31/31
f 89/89/89 31/31/31 86/86/86
f 31/31/31 89/89/89 28/28/28
f 90/90/90 28/28/28 89/89/89
f 28/28/28 90/90/90 34/34/34
f 112/112/112 34/34/34 90/90/90
f 34/34/34 112/112/112 37/37/37
f 113/113/113 37/37/37 112/112/112
f 19/19/19 88/88/88 23/23/23
f 20/20/20 23/23/23 21/21/21
f 23/23/23 20/20/20 19/19/19
f 16/16/16 19/19/19 20/20/20
f 21/21/21 22/22/22 20/20/20
f 108/108/108 20/20/20 22/22/22
f 20/20/20 108/108/108 16/16/16
f 106/106/106 16/16/16 108/108/108
f 16/16/16 106/106/106 10/10/10
f 107/107/107 10/10/10 106/106/106
f 10/10/10 107/107/107 52/52/52
f 137/137/137 122/122/122 125/125/125
f 122/122/122 137/137/137 142/142/142
f 143/143/143 142/142/142 137/137/137
f 143/143/143 137/137/137 128/128/128
f 130/130/130 128/128/128 129/129/129
f 137/137/137 129/129/129 128/128/128
f 129/129/129 137/137/137 131/131/131
f 125/125/125 131/131/131 137/137/137
f 131/131/131 125/125/125 133/133/133
f 65/65/65 72/72/72 73/73/73
f 72/72/72 65/65/65 64/64/64
f 66/66/66 64/64/64 65/65/65
f 64/64/64 66/66/66 67/67/67
