mtllib EKH_ENTRANCE_PS_EN_TREEWALL3939847.mtl
g Treewall3939847
usemtl EKH_Tree_Wall
v -984.788635 1721.203003 -2476.059082
vn -0.229448 0.000000 -0.973321
vt 0.168347 0.000000
v -807.182556 1721.203003 -2492.017578
vn -0.089493 0.000000 -0.995987
vt -0.003547 0.000000
v -807.182556 460.415192 -2492.017822
vn -0.089493 0.000000 -0.995987
vt -0.003547 1.000000
v -984.788635 460.415192 -2476.059326
vn -0.367548 0.000000 -0.930004
vt 0.168347 1.000000
v -1095.096924 1721.203003 -2413.154053
vn -0.696028 0.000000 -0.718015
vt 0.321681 0.000000
v -1095.096924 460.415192 -2413.154297
vn -0.862106 0.000000 -0.506728
vt 0.321681 1.000000
v -1114.763794 1721.203003 -2344.709961
vn -0.999919 0.000000 0.012724
vt 0.485687 0.000000
v -1114.763794 460.415192 -2344.710205
vn -0.944431 0.000000 0.328710
vt 0.485687 1.000000
v -1057.816406 1721.203003 -2266.187744
vn -0.676536 0.000000 0.736409
vt 0.624199 0.000000
v -1057.816406 460.415192 -2266.187988
vn -0.509078 0.000000 0.860720
vt 0.624199 1.000000
v -809.328796 1721.203003 -2180.009521
vn -0.278017 0.000000 0.960576
vt 0.827775 0.000000
v -809.328796 460.415192 -2180.009766
vn -0.227477 0.000000 0.973783
vt 0.827775 1.000000
v -520.330872 1721.203003 -2128.201172
vn -0.326345 0.000000 0.945251
vt 1.097919 0.000000
v -520.330933 460.415161 -2128.201416
vn -0.471840 0.000000 0.881684
vt 1.097919 1.000000
v -248.692184 1720.100708 -1923.228516
vn -0.759722 0.000000 0.650248
vt 1.508831 0.000000
v -248.692184 459.312866 -1923.228516
vn -0.886820 0.000000 0.462114
vt 1.508831 1.000000
v -189.673141 1720.100708 -1704.817505
vn -0.996188 0.000000 0.087237
vt 1.835754 0.000000
v -189.673172 459.312866 -1704.817505
vn -0.995486 0.000000 -0.094905
vt 1.835754 1.000000
v -277.765991 1708.204956 -1388.504639
vn -0.991803 0.000000 -0.127775
vt 2.212359 0.000000
v -277.766052 447.417053 -1388.504639
vn -0.999830 0.000000 0.018430
vt 2.212359 1.000000
v -247.685287 1652.949463 -1204.357544
vn -0.905531 0.000000 0.424281
vt 2.447337 0.000000
v -247.685349 392.161560 -1204.357544
vn -0.739211 0.000000 0.673474
vt 2.447337 1.000000
v -87.408295 1597.819214 -1104.840454
vn -0.383027 0.000000 0.923737
vt 2.657148 0.000000
v -87.408295 337.031311 -1104.840454
vn -0.224064 0.000000 0.974574
vt 2.657148 1.000000
v 126.004974 1565.113037 -1091.291260
vn -0.158676 0.000000 0.987331
vt 2.929320 0.000000
v 126.004974 304.325134 -1091.291260
vn -0.253401 0.000000 0.967361
vt 2.929320 1.000000
v 350.021362 1548.673096 -1008.974792
vn -0.447377 0.000000 0.894346
vt 3.249392 0.000000
v 350.021362 287.885132 -1008.974854
vn -0.545464 0.000000 0.838134
vt 3.249392 1.000000
v 537.944580 1573.863281 -854.307129
vn -0.775281 0.000000 0.631617
vt 3.592518 0.000000
v 537.944580 313.075317 -854.307190
vn -0.888518 0.000000 0.458842
vt 3.592518 1.000000
v 614.612671 1606.900269 -585.828918
vn -0.865457 0.000000 0.500983
vt 3.945231 0.000000
v 614.612671 346.112396 -585.828979
vn -0.705161 0.000000 0.709047
vt 3.945231 1.000000
v 778.620850 1613.761475 -488.389832
vn -0.372514 0.000000 0.928027
vt 3.175736 0.000000
v 614.612671 1606.900269 -585.828918
vn -0.865457 0.000000 0.500983
vt 2.945231 0.000000
v 614.612671 346.112396 -585.828979
vn -0.705161 0.000000 0.709047
vt 2.945231 1.000000
v 778.620850 352.973541 -488.389893
vn -0.221658 0.000000 0.975124
vt 3.175736 1.000000
v 998.953186 1613.761475 -473.128845
vn 0.015677 0.000000 0.999877
vt 3.442426 0.000000
v 998.953186 352.973541 -473.128906
vn 0.100954 0.000000 0.994891
vt 3.442426 1.000000
v 1326.532471 1613.761475 -534.756470
vn 0.043331 0.000000 0.999061
vt 3.844919 0.000000
v 1326.532471 352.973541 -534.756531
vn -0.102098 0.000000 0.994774
vt 3.844919 1.000000
v 1613.008911 1613.761475 -463.164978
vn -0.314782 0.000000 0.949164
vt 3.201479 0.000000
v 1326.532471 1613.761475 -534.756470
vn 0.043331 0.000000 0.999061
vt 2.844919 0.000000
v 1326.532471 352.973541 -534.756531
vn -0.102098 0.000000 0.994774
vt 2.844919 1.000000
v 1613.008911 352.973541 -463.165039
vn -0.385729 0.000000 0.922612
vt 3.201479 1.000000
v 1852.279419 1613.761353 -341.220856
vn -0.584078 0.000000 0.811698
vt 3.525759 0.000000
v 1852.279419 352.973541 -341.220917
vn -0.703166 0.000000 0.711025
vt 3.525759 1.000000
v 2104.499023 1613.761353 -1.435902
vn -0.889419 0.000000 0.457093
vt 3.906157 0.000000
v 2104.499023 352.973511 -1.435957
vn -0.953461 0.000000 0.301516
vt 3.906157 1.000000
v 2175.406006 1613.761353 492.934448
vn -0.999439 0.000000 -0.033498
vt 3.329761 0.000000
v 2104.499023 1613.761353 -1.435902
vn -0.889419 0.000000 0.457093
vt 2.906157 0.000000
v 2104.499023 352.973511 -1.435957
vn -0.953461 0.000000 0.301516
vt 2.906157 1.000000
v 2175.406006 352.973511 492.934387
vn -0.976927 0.000000 -0.213573
vt 3.329761 1.000000
v 1997.658813 1613.761353 923.889893
vn -0.924455 0.000000 -0.381291
vt 3.814473 0.000000
v 1997.658813 352.973480 923.889832
vn -0.924455 0.000000 -0.381291
vt 3.814473 1.000000
f 50/50/50 51/51/51 49/49/49
f 52/52/52 49/49/49 51/51/51
f 49/49/49 52/52/52 53/53/53
f 54/54/54 53/53/53 52/52/52
f 2/2/2 3/3/3 1/1/1
f 4/4/4 1/1/1 3/3/3
f 1/1/1 4/4/4 5/5/5
f 6/6/6 5/5/5 4/4/4
f 5/5/5 6/6/6 7/7/7
f 8/8/8 7/7/7 6/6/6
f 7/7/7 8/8/8 9/9/9
f 10/10/10 9/9/9 8/8/8
f 9/9/9 10/10/10 11/11/11
f 12/12/12 11/11/11 10/10/10
f 11/11/11 12/12/12 13/13/13
f 14/14/14 13/13/13 12/12/12
f 13/13/13 14/14/14 15/15/15
f 16/16/16 15/15/15 14/14/14
f 15/15/15 16/16/16 17/17/17
f 18/18/18 17/17/17 16/16/16
f 17/17/17 18/18/18 19/19/19
f 20/20/20 19/19/19 18/18/18
f 19/19/19 20/20/20 21/21/21
f 22/22/22 21/21/21 20/20/20
f 21/21/21 22/22/22 23/23/23
f 24/24/24 23/23/23 22/22/22
f 23/23/23 24/24/24 25/25/25
f 26/26/26 25/25/25 24/24/24
f 25/25/25 26/26/26 27/27/27
f 28/28/28 27/27/27 26/26/26
f 27/27/27 28/28/28 29/29/29
f 30/30/30 29/29/29 28/28/28
f 29/29/29 30/30/30 31/31/31
f 32/32/32 31/31/31 30/30/30
f 34/34/34 35/35/35 33/33/33
f 36/36/36 33/33/33 35/35/35
f 33/33/33 36/36/36 37/37/37
f 38/38/38 37/37/37 36/36/36
f 37/37/37 38/38/38 39/39/39
f 40/40/40 39/39/39 38/38/38
f 42/42/42 43/43/43 41/41/41
f 44/44/44 41/41/41 43/43/43
f 41/41/41 44/44/44 45/45/45
f 46/46/46 45/45/45 44/44/44
f 45/45/45 46/46/46 47/47/47
f 48/48/48 47/47/47 46/46/46
