mtllib EKH_JAIL_PS_JA_PILLAR9383777.mtl
g A_Pillar9383777
usemtl Cave_Wall
v -8098.051758 774.371948 8533.906250
vn -0.777971 -0.180056 0.601947
vt 0.142857 0.054121
v -8133.942871 905.467712 8506.942383
vn -0.807837 0.020623 0.589045
vt 0.142857 -0.328972
v -8140.604004 880.411865 8456.243164
vn -0.923768 -0.311794 -0.222346
vt 0.000000 -0.328972
v -8104.038574 759.408325 8492.178711
vn -0.906891 -0.361936 -0.215756
vt 0.000000 0.054121
v -8059.012207 782.578064 8554.706055
vn -0.055513 0.044148 0.997481
vt 0.285714 0.054121
v -8085.095703 917.535767 8532.058594
vn -0.129585 0.266076 0.955202
vt 0.285714 -0.328972
v -8016.317871 777.847229 8538.915039
vn 0.725705 0.141703 0.673255
vt 0.428571 0.054121
v -8030.844727 907.528564 8512.678711
vn 0.712626 0.202565 0.671663
vt 0.428571 -0.328972
v -8002.118164 763.741882 8498.423828
vn 0.986522 0.062847 -0.151079
vt 0.571429 0.054121
v -8012.042480 882.981750 8463.395508
vn 0.992014 -0.060877 -0.110465
vt 0.571429 -0.328972
v -8027.105957 750.883667 8463.723633
vn 0.493556 -0.148251 -0.856985
vt 0.714286 0.054121
v -8042.847168 862.379578 8421.320313
vn 0.500049 -0.358550 -0.788285
vt 0.714286 -0.328972
v -8072.464844 748.955017 8460.944336
vn -0.360768 -0.348330 -0.865166
vt 0.857143 0.054121
v -8100.062500 861.235840 8418.137695
vn -0.358663 -0.475252 -0.803428
vt 0.857143 -0.328972
v -8104.038574 759.408325 8492.178711
vn -0.906891 -0.361936 -0.215756
vt 1.000000 0.054121
v -8140.604004 880.411865 8456.243164
vn -0.923768 -0.311794 -0.222346
vt 1.000000 -0.328972
v -8063.392578 665.986389 8532.767578
vn -0.818896 -0.112101 0.562888
vt 0.142857 0.362047
v -8066.999023 662.647461 8500.285156
vn -0.949416 -0.124166 -0.288430
vt 0.000000 0.362047
v -8036.596680 666.463623 8549.017578
vn -0.064783 0.012001 0.997827
vt 0.285714 0.362047
v -8006.789551 663.719788 8536.798828
vn 0.728154 0.128725 0.673217
vt 0.428571 0.362047
v -7996.416016 659.821045 8505.312500
vn 0.977110 0.167406 -0.131268
vt 0.571429 0.362047
v -8013.288086 657.703247 8478.268555
vn 0.499263 0.121499 -0.857889
vt 0.714286 0.362047
v -8044.700684 658.961121 8476.031250
vn -0.372456 -0.006415 -0.928028
vt 0.857143 0.362047
v -8066.999023 662.647461 8500.285156
vn -0.949416 -0.124166 -0.288430
vt 1.000000 0.362047
v -8072.152344 553.405273 8535.768555
vn -0.839829 0.137783 0.525074
vt 0.142857 0.647184
v -8079.114258 550.405029 8485.962891
vn -0.952751 0.069694 -0.295650
vt 0.000000 0.647184
v -8030.450195 559.739380 8561.243164
vn -0.112502 0.248205 0.962153
vt 0.285714 0.647184
v -7985.409180 564.637634 8543.204102
vn 0.697007 0.312339 0.645466
vt 0.428571 0.647184
v -7970.947266 564.411560 8495.234375
vn 0.949486 0.273065 -0.154636
vt 0.571429 0.647184
v -7997.953613 559.231384 8453.457031
vn 0.493695 0.169847 -0.852888
vt 0.714286 0.647184
v -8046.092285 552.997925 8449.331055
vn -0.370825 0.082018 -0.925074
vt 0.857143 0.647184
v -8079.114258 550.405029 8485.962891
vn -0.952751 0.069694 -0.295650
vt 1.000000 0.647184
v -8071.010742 499.427582 8553.191406
vn -0.827219 0.224548 0.515060
vt 0.142857 0.820832
v -8079.166992 489.330811 8494.544922
vn -0.935151 0.154431 -0.318816
vt 0.000000 0.820832
v -8019.783691 507.077179 8583.695313
vn -0.108474 0.317657 0.941980
vt 0.285714 0.820832
v -7964.061035 506.519257 8563.087891
vn 0.726578 0.330240 0.602516
vt 0.428571 0.820832
v -7945.803223 498.173981 8506.886719
vn 0.931779 0.322203 -0.167253
vt 0.571429 0.820832
v -7978.758301 488.325500 8457.411133
vn 0.485382 0.235748 -0.841919
vt 0.714286 0.820832
v -8038.110840 484.389893 8451.918945
vn -0.337381 0.160062 -0.927661
vt 0.857143 0.820832
v -8079.166992 489.330811 8494.544922
vn -0.935151 0.154431 -0.318816
vt 1.000000 0.820832
f 33/33/33 26/26/26 34/34/34
f 26/26/26 33/33/33 25/25/25
f 35/35/35 25/25/25 33/33/33
f 25/25/25 35/35/35 27/27/27
f 36/36/36 27/27/27 35/35/35
f 27/27/27 36/36/36 28/28/28
f 37/37/37 28/28/28 36/36/36
f 28/28/28 37/37/37 29/29/29
f 38/38/38 29/29/29 37/37/37
f 29/29/29 38/38/38 30/30/30
f 39/39/39 30/30/30 38/38/38
f 30/30/30 39/39/39 31/31/31
f 40/40/40 31/31/31 39/39/39
f 31/31/31 40/40/40 32/32/32
f 23/23/23 32/32/32 24/24/24
f 32/32/32 23/23/23 31/31/31
f 22/22/22 31/31/31 23/23/23
f 31/31/31 22/22/22 30/30/30
f 21/21/21 30/30/30 22/22/22
f 30/30/30 21/21/21 29/29/29
f 20/20/20 29/29/29 21/21/21
f 29/29/29 20/20/20 28/28/28
f 19/19/19 28/28/28 20/20/20
f 28/28/28 19/19/19 27/27/27
f 17/17/17 27/27/27 19/19/19
f 27/27/27 17/17/17 25/25/25
f 18/18/18 25/25/25 17/17/17
f 25/25/25 18/18/18 26/26/26
f 13/13/13 24/24/24 15/15/15
f 24/24/24 13/13/13 23/23/23
f 11/11/11 23/23/23 13/13/13
f 23/23/23 11/11/11 22/22/22
f 9/9/9 22/22/22 11/11/11
f 22/22/22 9/9/9 21/21/21
f 7/7/7 21/21/21 9/9/9
f 21/21/21 7/7/7 20/20/20
f 5/5/5 20/20/20 7/7/7
f 20/20/20 5/5/5 19/19/19
f 1/1/1 19/19/19 5/5/5
f 19/19/19 1/1/1 17/17/17
f 4/4/4 17/17/17 1/1/1
f 17/17/17 4/4/4 18/18/18
f 14/14/14 15/15/15 16/16/16
f 15/15/15 14/14/14 13/13/13
f 12/12/12 13/13/13 14/14/14
f 13/13/13 12/12/12 11/11/11
f 10/10/10 11/11/11 12/12/12
f 11/11/11 10/10/10 9/9/9
f 8/8/8 9/9/9 10/10/10
f 9/9/9 8/8/8 7/7/7
f 6/6/6 7/7/7 8/8/8
f 7/7/7 6/6/6 5/5/5
f 2/2/2 5/5/5 6/6/6
f 5/5/5 2/2/2 1/1/1
f 3/3/3 1/1/1 2/2/2
f 1/1/1 3/3/3 4/4/4
