mtllib EKH_GROTTO_PS_GR_LINE23.mtl
g GR_Line23
usemtl Edgegrab
v 4539.988770 1213.239990 6915.794434
vn 0.962951 -0.169607 -0.209666
vt 0.000000 0.968217
v 4507.501465 1209.981934 6791.721680
vn 0.890072 -0.274706 -0.363742
vt 0.282872 0.968217
v 4518.955566 1252.373657 6787.536621
vn 0.861758 0.429566 -0.269899
vt 0.282872 0.305396
v 4542.388672 1255.631714 6914.306152
vn 0.458405 0.882092 -0.108529
vt 0.000000 0.305396
v 4468.342285 1209.981934 6711.899414
vn 0.819352 -0.271691 -0.504824
vt 0.480922 0.968217
v 4478.481445 1252.373657 6705.540527
vn 0.680489 0.601022 -0.419174
vt 0.480922 0.305396
v 4292.360352 1218.102417 6558.445313
vn 0.510850 -0.156297 -0.845342
vt 1.000000 0.968217
v 4292.260254 1259.394897 6556.538086
vn 0.410575 0.682375 -0.604808
vt 1.000000 0.305396
v 4421.869629 1252.373657 6630.372559
vn 0.568684 0.439467 -0.695318
vt 0.678972 0.305396
v 4413.045898 1209.981934 6638.905273
vn 0.694218 -0.276254 -0.664640
vt 0.678972 0.968217
v 4507.501465 1252.481934 6791.721680
vn 0.010257 0.999810 -0.016600
vt 0.282872 0.000000
v 4539.988770 1255.739990 6915.794434
vn 0.024787 0.999157 -0.032727
vt 0.000000 0.000000
v 4413.045898 1252.481934 6638.905273
vn 0.511679 0.629613 -0.584613
vt 0.678972 0.000000
v 4468.342285 1252.481934 6711.899414
vn 0.007703 0.999959 -0.004745
vt 0.480922 0.000000
v 4292.315918 1260.602417 6557.921387
vn 0.397399 0.228261 -0.888803
vt 1.000000 0.000000
f 8/8/8 15/15/15 13/13/13
f 14/14/14 6/6/6 13/13/13
f 9/9/9 13/13/13 6/6/6
f 13/13/13 9/9/9 8/8/8
f 9/9/9 7/7/7 8/8/8
f 7/7/7 9/9/9 10/10/10
f 6/6/6 10/10/10 9/9/9
f 10/10/10 6/6/6 5/5/5
f 2/2/2 5/5/5 6/6/6
f 6/6/6 3/3/3 2/2/2
f 3/3/3 6/6/6 11/11/11
f 14/14/14 11/11/11 6/6/6
f 4/4/4 11/11/11 12/12/12
f 11/11/11 4/4/4 3/3/3
f 1/1/1 3/3/3 4/4/4
f 3/3/3 1/1/1 2/2/2
