mtllib EKH_CAVERNS_PS_CA_ROCK_002.mtl
g CA_rock_002
usemtl Cave_Floor
v -3445.263428 -2073.932129 9236.550781
vn 0.000000 1.000000 0.000000
vt -2.640068 -3.425821
v -3351.104980 -2073.932129 9218.324219
vn 0.000000 1.000000 0.000000
vt -2.759384 -3.249226
v -3384.949707 -2073.932129 9133.488281
vn -0.077097 0.989977 -0.118329
vt -2.572896 -3.169102
v -3469.048828 -2073.932129 9158.635742
vn -0.083119 0.978634 -0.188058
vt -2.480262 -3.340765
v -3190.135742 -2095.558350 9305.747070
vn 0.483645 0.521333 0.703065
vt -3.149695 -3.133659
v -3121.856689 -2095.558350 9234.574219
vn 0.720473 0.521774 0.456804
vt -3.145148 -2.914531
v -3174.520996 -2073.932129 9203.884766
vn 0.119472 0.989350 0.083143
vt -3.014170 -2.949061
v -3225.813965 -2073.932129 9257.352539
vn 0.140364 0.966415 0.215267
vt -3.017586 -3.113677
v -3121.856689 -2095.558350 9234.574219
vn 0.720473 0.521774 0.456804
vt -3.145148 -3.914531
v -3090.878906 -2095.558350 9131.005859
vn 0.836960 0.533715 0.121022
vt -3.031083 -3.703113
v -3150.414307 -2073.932129 9123.289063
vn 0.170979 0.985144 0.016029
vt -2.925406 -3.784537
v -3174.520996 -2073.932129 9203.884766
vn 0.119472 0.989350 0.083143
vt -3.014170 -3.949061
v -3093.955078 -2095.558350 9037.326172
vn 0.805748 0.545450 -0.230769
vt -2.879045 -3.560742
v -3173.393799 -2073.932129 9044.133789
vn 0.282095 0.958474 0.041826
vt -2.764917 -3.696266
v -3161.649414 -2080.749268 9013.838867
vn 0.504851 0.860346 -0.070221
vt -2.735767 -3.630208
v -3352.910400 -2095.558350 9021.214844
vn -0.552331 0.662297 -0.506254
vt -2.446820 -2.942336
v -3415.515869 -2095.558350 9080.786133
vn -0.414195 0.603803 -0.681076
vt -2.442052 -3.134318
v -3276.362061 -2073.932129 9044.009766
vn -0.181528 0.983384 0.002089
vt -2.602923 -2.857871
v -3496.907715 -2095.558350 9105.124023
vn -0.396642 0.565550 -0.723069
vt -2.352401 -3.300456
v -3571.807373 -2095.558350 9164.395508
vn -0.715822 0.535926 -0.447642
vt -2.327844 -3.511286
v -3516.444336 -2073.932129 9196.141602
vn -0.155704 0.980588 -0.119176
vt -2.464723 -3.474175
v -3582.696777 -2095.558350 9241.695313
vn -0.852539 0.512030 0.104891
vt -2.432197 -3.649862
v -3521.388428 -2073.932129 9231.234375
vn -0.199982 0.979718 0.012616
vt -2.512097 -3.537087
v -3533.370850 -2095.558350 9336.918945
vn -0.594419 0.513935 0.618496
vt -2.659334 -3.721982
v -3491.409180 -2073.932129 9289.109375
vn -0.147694 0.980481 0.129781
vt -2.650146 -3.580920
v -3428.753662 -2095.558350 9374.852539
vn -0.138523 0.506939 0.850779
vt -2.883332 -3.617199
v -3421.478027 -2073.932129 9314.464844
vn -0.033327 0.985407 0.166919
vt -2.799875 -3.510877
v -3300.262451 -2095.558350 9360.914063
vn 0.213765 0.517322 0.828663
vt -3.063334 -3.393393
v -3317.260254 -2073.932129 9303.159180
vn 0.038523 0.985146 0.167341
vt -2.945872 -3.329350
v -3204.485596 -2209.662109 9296.819336
vn 0.635144 0.021047 0.772107
vt -3.371516 -3.191533
v -3136.821289 -2209.662109 9225.357422
vn 0.897857 0.021175 0.439778
vt -3.372792 -2.803704
v -3136.821289 -2209.662109 9225.357422
vn 0.897857 0.021175 0.439778
vt -3.372792 -3.803704
v -3105.927979 -2209.662109 9132.718750
vn 0.997174 0.020898 0.072164
vt -3.228623 -3.515273
v -3305.941162 -2209.662109 9345.267578
vn 0.327470 0.020588 0.944637
vt -3.201608 -3.539435
v -3112.308594 -2209.662109 9044.040039
vn 0.904545 0.023681 -0.425719
vt -2.978975 -3.326471
v -3156.755615 -2095.558350 8952.072266
vn 0.844206 0.080441 -0.529949
vt -2.646401 -3.525461
v -3161.613770 -2209.662109 8972.864258
vn 0.610792 0.024883 -0.791400
vt -2.655122 -3.264643
v -3224.913818 -2141.569336 8938.320313
vn 0.002230 -0.539290 -0.842117
vt -2.517692 -3.610952
v -3184.070801 -2132.838135 8950.583984
vn 0.414822 -0.472804 -0.777418
vt -2.601140 -3.566044
v -3193.048828 -2209.662109 8961.515625
vn 0.322256 0.024561 -0.946334
vt -2.555228 -3.311542
v -3224.483887 -2209.662109 8950.166992
vn -0.013954 0.008949 -0.999863
vt -2.455334 -3.358440
v -3303.187988 -2095.558350 8956.259766
vn -0.778752 0.152691 -0.608465
vt -2.422883 -3.762136
v -3267.741943 -2129.909180 8950.666992
vn -0.407272 -0.472369 -0.781663
vt -2.469794 -3.697650
v -3260.531250 -2209.662109 8959.927734
vn -0.270544 0.011925 -0.962634
vt -2.349513 -3.509951
v -3296.578613 -2209.662109 8969.689453
vn -0.592867 0.011839 -0.805213
vt -2.288139 -3.616908
v -3352.910400 -2095.558350 9021.214844
vn -0.552331 0.662297 -0.506254
vt -2.446820 -3.942336
v -3355.548096 -2209.662109 9021.007813
vn -0.660528 -0.005294 -0.750783
vt -2.242656 -3.887769
v -3355.548096 -2209.662109 9021.007813
vn -0.660528 -0.005294 -0.750783
vt -2.242656 -2.887769
v -3419.843994 -2209.662109 9073.834961
vn -0.473671 -0.002890 -0.880697
vt -2.252646 -3.135649
v -3492.036621 -2209.662109 9113.452148
vn -0.603358 0.060660 -0.795160
vt -2.176587 -3.396710
v -3550.688965 -2209.662109 9171.224609
vn -0.934490 0.104446 -0.340322
vt -2.172538 -3.660126
v -3559.679443 -2209.662109 9243.912109
vn -0.953760 0.030012 0.299068
vt -2.372512 -3.895230
v -3513.526367 -2209.662109 9319.633789
vn -0.542809 0.030789 0.839292
vt -2.657073 -3.964268
v -3420.123535 -2209.662109 9355.471680
vn -0.054060 0.088008 0.994652
vt -2.958834 -3.829863
v -3241.607178 -2073.932129 9132.406250
vn 0.000000 1.000000 0.000000
vt -2.796437 -2.942160
v -3225.195557 -2073.932129 9047.819336
vn -0.000251 0.993380 0.114872
vt -2.689310 -3.783456
v -3241.607178 -2073.932129 9132.406250
vn 0.000000 1.000000 0.000000
vt -2.796437 -3.942160
v -3276.362061 -2073.932129 9044.009766
vn -0.181528 0.983384 0.002089
vt -2.602923 -3.857871
v -3290.159668 -2079.566650 9011.320313
vn -0.468660 0.882735 -0.033723
vt -2.529876 -3.828184
f 46/46/46 58/58/58 59/59/59
f 46/46/46 45/45/45 47/47/47
f 45/45/45 46/46/46 42/42/42
f 59/59/59 42/42/42 46/46/46
f 44/44/44 42/42/42 43/43/43
f 42/42/42 44/44/44 45/45/45
f 44/44/44 38/38/38 41/41/41
f 38/38/38 44/44/44 43/43/43
f 40/40/40 38/38/38 39/39/39
f 38/38/38 40/40/40 41/41/41
f 40/40/40 36/36/36 37/37/37
f 36/36/36 40/40/40 39/39/39
f 13/13/13 15/15/15 14/14/14
f 15/15/15 13/13/13 36/36/36
f 35/35/35 36/36/36 13/13/13
f 36/36/36 35/35/35 37/37/37
f 13/13/13 33/33/33 35/35/35
f 33/33/33 13/13/13 10/10/10
f 14/14/14 10/10/10 13/13/13
f 10/10/10 14/14/14 11/11/11
f 56/56/56 11/11/11 14/14/14
f 11/11/11 56/56/56 57/57/57
f 58/58/58 57/57/57 56/56/56
f 57/57/57 12/12/12 11/11/11
f 9/9/9 11/11/11 12/12/12
f 11/11/11 9/9/9 10/10/10
f 32/32/32 10/10/10 9/9/9
f 10/10/10 32/32/32 33/33/33
f 18/18/18 16/16/16 3/3/3
f 17/17/17 3/3/3 16/16/16
f 3/3/3 17/17/17 4/4/4
f 19/19/19 4/4/4 17/17/17
f 4/4/4 19/19/19 21/21/21
f 20/20/20 21/21/21 19/19/19
f 21/21/21 20/20/20 23/23/23
f 22/22/22 23/23/23 20/20/20
f 23/23/23 22/22/22 25/25/25
f 24/24/24 25/25/25 22/22/22
f 25/25/25 24/24/24 27/27/27
f 26/26/26 27/27/27 24/24/24
f 27/27/27 26/26/26 29/29/29
f 28/28/28 29/29/29 26/26/26
f 29/29/29 28/28/28 8/8/8
f 5/5/5 8/8/8 28/28/28
f 8/8/8 5/5/5 7/7/7
f 6/6/6 7/7/7 5/5/5
f 23/23/23 25/25/25 1/1/1
f 27/27/27 1/1/1 25/25/25
f 1/1/1 27/27/27 2/2/2
f 29/29/29 2/2/2 27/27/27
f 2/2/2 29/29/29 7/7/7
f 8/8/8 7/7/7 29/29/29
f 1/1/1 21/21/21 23/23/23
f 21/21/21 1/1/1 4/4/4
f 3/3/3 4/4/4 1/1/1
f 2/2/2 3/3/3 1/1/1
f 3/3/3 2/2/2 55/55/55
f 7/7/7 55/55/55 2/2/2
f 55/55/55 18/18/18 3/3/3
f 16/16/16 48/48/48 17/17/17
f 49/49/49 17/17/17 48/48/48
f 17/17/17 49/49/49 19/19/19
f 50/50/50 19/19/19 49/49/49
f 19/19/19 50/50/50 20/20/20
f 51/51/51 20/20/20 50/50/50
f 20/20/20 51/51/51 22/22/22
f 52/52/52 22/22/22 51/51/51
f 22/22/22 52/52/52 24/24/24
f 53/53/53 24/24/24 52/52/52
f 24/24/24 53/53/53 26/26/26
f 54/54/54 26/26/26 53/53/53
f 26/26/26 54/54/54 28/28/28
f 34/34/34 28/28/28 54/54/54
f 28/28/28 34/34/34 5/5/5
f 30/30/30 5/5/5 34/34/34
f 5/5/5 30/30/30 6/6/6
f 31/31/31 6/6/6 30/30/30
