mtllib EKH_GROTTO_PS_GR_OBJECT98.mtl
g GR_Object98
usemtl Cave_Blender_Vines_Ground
v 2325.204346 1788.142456 6512.743652
vn -0.980601 -0.081587 -0.178227
vt -0.065850 -0.452192
v 2336.227539 1919.152710 6507.062988
vn -0.996334 0.077279 -0.036690
vt -0.092272 -0.213732
v 2368.066650 1915.760864 6465.141113
vn -0.594303 0.069424 -0.801239
vt -0.210241 -0.218876
v 2368.588379 1784.548096 6452.501465
vn -0.475379 0.042224 -0.878767
vt -0.204692 -0.454610
v 2345.331787 1793.327881 6584.117188
vn -0.749756 -0.045406 0.660154
vt 0.068263 -0.453198
v 2349.193115 1921.392456 6558.119141
vn -0.643530 0.167204 0.746935
vt 0.071640 -0.213651
v 2413.813965 1796.199219 6612.876465
vn 0.047867 0.123644 0.991171
vt -0.738378 -0.454613
v 2397.199707 1920.793213 6579.863281
vn 0.186623 0.271656 0.944126
vt -0.763828 -0.221224
v 2349.193115 1921.392456 6558.119141
vn -0.643530 0.167204 0.746935
vt -0.928782 -0.212525
v 2345.331787 1793.327881 6584.117188
vn -0.749756 -0.045406 0.660154
vt -0.930902 -0.456919
v 2479.082764 1794.594604 6577.364746
vn 0.777655 0.294940 0.555214
vt -0.579095 -0.473619
v 2444.097656 1917.806519 6555.921387
vn 0.850255 0.309771 0.425568
vt -0.622753 -0.212068
v 2491.989258 1789.722168 6504.323730
vn 0.902009 0.338546 -0.267894
vt -0.436307 -0.477795
v 2454.571533 1914.681152 6504.322754
vn 0.877951 0.255253 -0.405028
vt -0.423375 -0.222469
v 2442.814941 1785.251099 6448.754395
vn 0.368691 0.231381 -0.900294
vt -0.318211 -0.468218
v 2420.734619 1913.770752 6463.921875
vn 0.247733 0.148847 -0.957326
vt -0.315869 -0.225499
v 2350.355225 1681.331543 6497.018066
vn -0.982650 -0.042801 -0.180466
vt -0.055030 -0.767568
v 2398.113525 1677.274658 6431.105469
vn -0.468062 0.142844 -0.872074
vt -0.194723 -0.799608
v 2372.186035 1686.017212 6574.649902
vn -0.739583 -0.110318 0.663963
vt 0.071215 -0.749012
v 2447.166992 1687.802856 6605.542480
vn 0.051106 -0.001381 0.998692
vt -0.719775 -0.751651
v 2372.186035 1686.017212 6574.649902
vn -0.739583 -0.110318 0.663963
vt -0.929291 -0.750355
v 2518.835938 1685.343994 6566.433594
vn 0.792451 0.207607 0.573516
vt -0.584370 -0.730143
v 2533.224609 1680.492310 6486.772461
vn 0.901441 0.337338 -0.271306
vt -0.425242 -0.725478
v 2479.498047 1676.901123 6426.545898
vn 0.353975 0.302686 -0.884920
vt -0.329931 -0.780930
v 2341.712402 1559.146484 6477.090820
vn -0.933981 0.191702 -0.301547
vt -0.070784 -1.084346
v 2402.885498 1549.685425 6399.492188
vn -0.302319 0.072589 -0.950439
vt -0.232630 -1.069048
v 2364.682129 1576.021851 6571.724121
vn -0.767502 0.208129 0.606320
vt 0.071635 -1.083769
v 2454.497803 1587.603516 6612.130859
vn 0.018701 0.144397 0.989343
vt -0.730603 -1.087023
v 2364.682129 1576.021851 6571.724121
vn -0.767502 0.208129 0.606320
vt -0.927648 -1.086182
v 2543.526611 1585.170654 6567.883789
vn 0.788158 0.082908 0.609863
vt -0.593550 -1.066771
v 2564.727783 1570.555176 6472.302734
vn 0.982458 0.105174 -0.153998
vt -0.454520 -1.054922
v 2502.136719 1554.762695 6397.361328
vn 0.548291 0.034212 -0.835588
vt -0.344519 -1.056918
v 2322.589844 1500.564331 6487.635254
vn -0.908013 0.225372 -0.353157
vt -0.077821 -1.190184
v 2388.664551 1492.548462 6407.520020
vn -0.423698 -0.020164 -0.905579
vt -0.218412 -1.183249
v 2374.443848 1435.411621 6415.547363
vn -0.547907 0.030719 -0.835975
vt -0.204193 -1.297451
v 2303.467529 1441.982178 6498.179199
vn -0.949349 0.290117 -0.120704
vt -0.084858 -1.296022
v 2343.990967 1511.573608 6587.529297
vn -0.783565 0.372136 0.497535
vt 0.071167 -1.190824
v 2323.299805 1447.125488 6603.334961
vn -0.746314 0.374542 0.550212
vt 0.070700 -1.297879
v 2343.990967 1511.573608 6587.529297
vn -0.783565 0.372136 0.497535
vt -0.927707 -1.191175
v 2323.299805 1447.125488 6603.334961
vn -0.746314 0.374542 0.550212
vt -0.927767 -1.296166
v 2419.006104 1446.968506 6651.831055
vn -0.158825 0.304505 0.939176
vt -0.752299 -1.296528
v 2436.751953 1517.286011 6631.980957
vn -0.000577 0.275834 0.961205
vt -0.741451 -1.191775
v 2518.518066 1441.629517 6607.148438
vn 0.656080 0.082038 0.750219
vt -0.613011 -1.293172
v 2531.022217 1513.400146 6587.516113
vn 0.773054 0.039219 0.633127
vt -0.603281 -1.179971
v 2546.900879 1435.128784 6502.934082
vn 0.989017 -0.145875 -0.023778
vt -0.432042 -1.292965
v 2555.814209 1502.841919 6487.618652
vn 0.948907 -0.182955 -0.257106
vt -0.443281 -1.173944
v 2482.781738 1432.361694 6417.663574
vn 0.437642 -0.211532 -0.873913
vt -0.317526 -1.294199
v 2492.459229 1493.562134 6407.512695
vn 0.342276 -0.200830 -0.917886
vt -0.331022 -1.175558
v 2454.497803 1587.603516 6612.130859
vn 0.018701 0.144397 0.989343
vt -0.770133 -1.067259
f 29/29/29 42/42/42 49/49/49
f 42/42/42 29/29/29 39/39/39
f 25/25/25 26/26/26 34/34/34
f 48/48/48 34/34/34 26/26/26
f 34/34/34 48/48/48 47/47/47
f 46/46/46 47/47/47 48/48/48
f 47/47/47 46/46/46 45/45/45
f 44/44/44 45/45/45 46/46/46
f 45/45/45 44/44/44 43/43/43
f 42/42/42 43/43/43 44/44/44
f 43/43/43 42/42/42 41/41/41
f 39/39/39 41/41/41 42/42/42
f 41/41/41 39/39/39 40/40/40
f 26/26/26 32/32/32 48/48/48
f 46/46/46 48/48/48 32/32/32
f 32/32/32 31/31/31 46/46/46
f 30/30/30 46/46/46 31/31/31
f 46/46/46 30/30/30 44/44/44
f 28/28/28 44/44/44 30/30/30
f 44/44/44 28/28/28 42/42/42
f 25/25/25 37/37/37 27/27/27
f 37/37/37 25/25/25 33/33/33
f 34/34/34 33/33/33 25/25/25
f 33/33/33 34/34/34 35/35/35
f 47/47/47 35/35/35 34/34/34
f 38/38/38 37/37/37 36/36/36
f 33/33/33 36/36/36 37/37/37
f 36/36/36 33/33/33 35/35/35
f 28/28/28 21/21/21 29/29/29
f 21/21/21 28/28/28 20/20/20
f 30/30/30 20/20/20 28/28/28
f 20/20/20 30/30/30 22/22/22
f 31/31/31 22/22/22 30/30/30
f 22/22/22 31/31/31 23/23/23
f 32/32/32 23/23/23 31/31/31
f 23/23/23 32/32/32 24/24/24
f 26/26/26 24/24/24 32/32/32
f 24/24/24 26/26/26 18/18/18
f 25/25/25 18/18/18 26/26/26
f 18/18/18 25/25/25 17/17/17
f 27/27/27 17/17/17 25/25/25
f 17/17/17 27/27/27 19/19/19
f 1/1/1 19/19/19 5/5/5
f 19/19/19 1/1/1 17/17/17
f 4/4/4 17/17/17 1/1/1
f 17/17/17 4/4/4 18/18/18
f 15/15/15 18/18/18 4/4/4
f 18/18/18 15/15/15 24/24/24
f 13/13/13 24/24/24 15/15/15
f 24/24/24 13/13/13 23/23/23
f 11/11/11 23/23/23 13/13/13
f 23/23/23 11/11/11 22/22/22
f 7/7/7 22/22/22 11/11/11
f 22/22/22 7/7/7 20/20/20
f 10/10/10 20/20/20 7/7/7
f 20/20/20 10/10/10 21/21/21
f 2/2/2 5/5/5 6/6/6
f 5/5/5 2/2/2 1/1/1
f 3/3/3 1/1/1 2/2/2
f 1/1/1 3/3/3 4/4/4
f 16/16/16 4/4/4 3/3/3
f 4/4/4 16/16/16 15/15/15
f 14/14/14 15/15/15 16/16/16
f 15/15/15 14/14/14 13/13/13
f 12/12/12 13/13/13 14/14/14
f 13/13/13 12/12/12 11/11/11
f 8/8/8 11/11/11 12/12/12
f 11/11/11 8/8/8 7/7/7
f 9/9/9 7/7/7 8/8/8
f 7/7/7 9/9/9 10/10/10
