mtllib EKH_CAVERNS_PS_CA_PLAT54547438.mtl
g CA_Plat54547438
usemtl Main_Wall_No_Vines
v -3195.531250 -2081.212646 8631.082031
vn 0.687078 -0.635058 0.353023
vt 0.625000 0.035382
v -3185.898438 -2129.570313 8551.383789
vn 0.633998 -0.522225 0.570376
vt 0.625000 0.486818
v -3169.737793 -2092.763916 8542.094727
vn 0.939500 -0.029284 0.341296
vt 0.500000 0.486818
v -3183.360352 -2052.451904 8626.260742
vn 0.995316 0.019455 0.094702
vt 0.500000 0.035382
v -3224.913818 -2093.125732 8633.080078
vn -0.002988 -0.889108 0.457687
vt 0.750000 0.035382
v -3224.913818 -2144.815918 8555.231445
vn -0.052819 -0.686018 0.725665
vt 0.750000 0.486818
v -3254.296631 -2081.212646 8631.082031
vn -0.687614 -0.627578 0.365147
vt 0.875000 0.035382
v -3263.929199 -2129.570313 8551.383789
vn -0.722837 -0.439537 0.533211
vt 0.875000 0.486818
v -3266.467285 -2052.451904 8626.260742
vn -0.992920 0.024726 0.116183
vt 1.000000 0.035382
v -3280.089844 -2092.763916 8542.094727
vn -0.950229 0.018486 0.311003
vt 1.000000 0.486818
v -3199.883545 -2050.681885 8716.161133
vn 0.711685 -0.699634 0.063378
vt 0.625000 -0.422077
v -3189.515625 -2025.615967 8713.896484
vn 0.999907 0.000094 -0.013607
vt 0.500000 -0.422077
v -3224.913818 -2061.064453 8717.099609
vn -0.000570 -0.993748 0.111642
vt 0.750000 -0.422077
v -3249.944092 -2050.681885 8716.161133
vn -0.711703 -0.694979 0.102383
vt 0.875000 -0.422077
v -3260.312012 -2025.615967 8713.896484
vn -0.999075 0.005418 0.042648
vt 1.000000 -0.422077
v -3197.153320 -2063.513184 8814.677734
vn 0.690609 -0.678369 -0.250749
vt 0.625000 -0.929860
v -3185.654541 -2035.984741 8814.800781
vn 0.995579 0.004485 -0.093823
vt 0.500000 -0.929860
v -3224.913818 -2074.916016 8814.625977
vn 0.005301 -0.953352 -0.301815
vt 0.750000 -0.929860
v -3252.674316 -2063.513184 8814.677734
vn -0.689663 -0.687476 -0.227469
vt 0.875000 -0.929860
v -3264.173096 -2035.984741 8814.800781
vn -0.998527 0.002288 -0.054204
vt 1.000000 -0.929860
v -3188.732666 -2112.227539 8917.500000
vn 0.704005 -0.562709 -0.433285
vt 0.625000 -1.457678
v -3173.745850 -2077.090088 8919.548828
vn 0.947491 -0.084430 -0.308437
vt 0.500000 -1.457678
v -3224.913818 -2126.781982 8916.651367
vn 0.051832 -0.859260 -0.508906
vt 0.750000 -1.457678
v -3261.094971 -2112.227539 8917.500000
vn -0.581981 -0.658189 -0.477584
vt 0.875000 -1.457678
v -3276.081787 -2077.090088 8919.548828
vn -0.925115 -0.054884 -0.375699
vt 1.000000 -1.457678
v -3301.399902 -2133.168213 8494.436523
vn -0.835192 -0.180132 0.519622
vt 0.961739 0.743409
v -3274.359619 -2180.252686 8511.314453
vn -0.587965 -0.411825 0.696201
vt 0.857609 0.743409
v -3150.711914 -2136.215820 8494.786133
vn 0.821654 -0.217039 0.527046
vt 0.520531 0.743409
v -3173.409668 -2182.054932 8508.453125
vn 0.567862 -0.420304 0.707727
vt 0.640700 0.743409
v -3225.192139 -2198.696289 8522.019531
vn -0.070333 -0.530911 0.844504
vt 0.750000 0.743409
f 8/8/8 10/10/10 26/26/26
f 6/6/6 8/8/8 27/27/27
f 26/26/26 27/27/27 8/8/8
f 8/8/8 9/9/9 10/10/10
f 9/9/9 8/8/8 7/7/7
f 6/6/6 7/7/7 8/8/8
f 7/7/7 6/6/6 5/5/5
f 2/2/2 5/5/5 6/6/6
f 5/5/5 2/2/2 1/1/1
f 3/3/3 1/1/1 2/2/2
f 1/1/1 3/3/3 4/4/4
f 27/27/27 30/30/30 6/6/6
f 29/29/29 6/6/6 30/30/30
f 6/6/6 29/29/29 2/2/2
f 28/28/28 2/2/2 29/29/29
f 2/2/2 28/28/28 3/3/3
f 7/7/7 15/15/15 9/9/9
f 15/15/15 7/7/7 14/14/14
f 5/5/5 14/14/14 7/7/7
f 14/14/14 5/5/5 13/13/13
f 1/1/1 13/13/13 5/5/5
f 13/13/13 1/1/1 11/11/11
f 4/4/4 11/11/11 1/1/1
f 11/11/11 4/4/4 12/12/12
f 14/14/14 20/20/20 15/15/15
f 20/20/20 14/14/14 19/19/19
f 13/13/13 19/19/19 14/14/14
f 19/19/19 13/13/13 18/18/18
f 11/11/11 18/18/18 13/13/13
f 18/18/18 11/11/11 16/16/16
f 12/12/12 16/16/16 11/11/11
f 16/16/16 12/12/12 17/17/17
f 21/21/21 17/17/17 22/22/22
f 17/17/17 21/21/21 16/16/16
f 23/23/23 16/16/16 21/21/21
f 16/16/16 23/23/23 18/18/18
f 24/24/24 18/18/18 23/23/23
f 18/18/18 24/24/24 19/19/19
f 25/25/25 19/19/19 24/24/24
f 19/19/19 25/25/25 20/20/20
