mtllib EKH_GROTTO_PS_GR_VINES74635__GX.mtl
g _Vines74635__GX
usemtl Twist_vine
v 3776.737549 945.962158 6027.625000
vn -0.205690 0.000000 0.978617
vt 0.000000 1.000000
v 3776.737549 1221.881348 6027.625000
vn -0.205690 0.000000 0.978617
vt 1.000000 1.000000
v 3709.232666 1221.881348 6013.436523
vn -0.205690 0.000000 0.978617
vt 1.000000 0.000000
v 3709.232666 945.962158 6013.436523
vn -0.205690 0.000000 0.978617
vt 0.000000 0.000000
v 3848.883545 945.962158 5967.873047
vn 0.545657 0.000000 0.838009
vt 0.000000 1.000000
v 3848.883545 1221.881348 5967.873047
vn 0.545657 0.000000 0.838009
vt 1.000000 1.000000
v 3791.077881 1221.881348 6005.512695
vn 0.545657 0.000000 0.838009
vt 1.000000 0.000000
v 3791.077881 945.962158 6005.512695
vn 0.545657 0.000000 0.838009
vt 0.000000 0.000000
v 3874.920410 1192.876221 5912.598633
vn 0.087156 0.000000 0.996195
vt 0.000000 1.000000
v 3874.920410 916.957031 5912.598633
vn 0.087156 0.000000 0.996195
vt 1.000000 1.000000
v 3943.637695 916.957031 5906.586914
vn 0.087156 0.000000 0.996195
vt 1.000000 0.000000
v 3943.637695 1192.876221 5906.586914
vn 0.087156 0.000000 0.996195
vt 0.000000 0.000000
v 3931.124756 1272.517944 5950.285645
vn 0.258819 0.000000 0.965926
vt 0.000000 1.000000
v 3931.124756 996.598755 5950.285645
vn 0.258819 0.000000 0.965926
vt 1.000000 1.000000
v 3997.754150 996.598755 5932.432129
vn 0.258819 0.000000 0.965926
vt 1.000000 0.000000
v 3997.754150 1272.517944 5932.432129
vn 0.258819 0.000000 0.965926
vt 0.000000 0.000000
v 3955.512695 1272.517944 5908.044434
vn -0.965926 0.000000 0.258819
vt 0.000000 1.000000
v 3955.512695 996.598755 5908.044434
vn -0.965926 0.000000 0.258819
vt 1.000000 1.000000
v 3973.366211 996.598755 5974.673340
vn -0.965926 0.000000 0.258819
vt 1.000000 0.000000
v 3973.366211 1272.517944 5974.673340
vn -0.965926 0.000000 0.258819
vt 0.000000 0.000000
v 4051.004883 983.072876 5894.219238
vn -0.087156 0.000000 0.996195
vt 0.000000 1.000000
v 4051.004883 1258.992065 5894.219238
vn -0.087156 0.000000 0.996195
vt 1.000000 1.000000
v 3982.287598 1258.992065 5888.207520
vn -0.087156 0.000000 0.996195
vt 1.000000 0.000000
v 3982.287598 983.072876 5888.207520
vn -0.087156 0.000000 0.996195
vt 0.000000 0.000000
v 4077.542969 780.669312 5890.175293
vn 0.996880 0.000000 -0.078934
vt 0.000000 1.000000
v 4077.542969 1051.616943 5890.175293
vn 0.996880 0.000000 -0.078934
vt 1.000000 1.000000
v 4082.889648 1051.616943 5957.700684
vn 0.996880 0.000000 -0.078934
vt 1.000000 0.000000
v 4082.889648 780.669312 5957.700684
vn 0.996880 0.000000 -0.078934
vt 0.000000 0.000000
v 4113.956055 780.669312 5920.986328
vn 0.087156 0.000000 0.996195
vt 0.000000 1.000000
v 4113.956055 1051.616943 5920.986328
vn 0.087156 0.000000 0.996195
vt 1.000000 1.000000
v 4046.476807 1051.616943 5926.889648
vn 0.087156 0.000000 0.996195
vt 1.000000 0.000000
v 4046.476807 780.669312 5926.889648
vn 0.087156 0.000000 0.996195
vt 0.000000 0.000000
v 4105.744141 1026.028076 5920.986328
vn 0.087156 0.000000 0.996195
vt 0.000000 1.000000
v 4105.744141 1296.975708 5920.986328
vn 0.087156 0.000000 0.996195
vt 1.000000 1.000000
v 4038.264893 1296.975830 5926.889648
vn 0.087156 0.000000 0.996195
vt 1.000000 0.000000
v 4038.264893 1026.028198 5926.889648
vn 0.087156 0.000000 0.996195
vt 0.000000 0.000000
v 4284.334961 1010.472046 5878.973145
vn -0.173648 0.000000 0.984808
vt 0.000000 1.000000
v 4284.334961 1286.391235 5878.973145
vn -0.173648 0.000000 0.984808
vt 1.000000 1.000000
v 4216.403320 1286.391235 5866.994629
vn -0.173648 0.000000 0.984808
vt 1.000000 0.000000
v 4216.403320 1010.472046 5866.994629
vn -0.173648 0.000000 0.984808
vt 0.000000 0.000000
v 4083.436768 1316.193848 5859.939453
vn 0.258819 0.000000 0.965926
vt 0.000000 1.000000
v 4083.436768 1040.274658 5859.939453
vn 0.258819 0.000000 0.965926
vt 1.000000 1.000000
v 4150.065918 1040.274658 5842.085938
vn 0.258819 0.000000 0.965926
vt 1.000000 0.000000
v 4150.065918 1316.193848 5842.085938
vn 0.258819 0.000000 0.965926
vt 0.000000 0.000000
v 4168.817871 1316.966187 5879.778320
vn -1.000000 0.000000 0.000000
vt 0.000000 1.000000
v 4168.817871 986.387634 5879.778320
vn -1.000000 0.000000 0.000000
vt 1.000000 1.000000
v 4168.817871 986.387634 5962.422852
vn -1.000000 0.000000 0.000000
vt 1.000000 0.000000
v 4168.817871 1316.966187 5962.422852
vn -1.000000 0.000000 0.000000
vt 0.000000 0.000000
v 4127.495605 1316.966187 5921.100586
vn 0.000000 0.000000 1.000000
vt 0.000000 1.000000
v 4127.495605 986.387634 5921.100586
vn 0.000000 0.000000 1.000000
vt 1.000000 1.000000
v 4210.140137 986.387634 5921.100586
vn 0.000000 0.000000 1.000000
vt 1.000000 0.000000
v 4210.140137 1316.966187 5921.100586
vn 0.000000 0.000000 1.000000
vt 0.000000 0.000000
f 3/3/3 1/1/1 2/2/2
f 1/1/1 3/3/3 4/4/4
f 7/7/7 5/5/5 6/6/6
f 5/5/5 7/7/7 8/8/8
f 11/11/11 9/9/9 10/10/10
f 9/9/9 11/11/11 12/12/12
f 15/15/15 13/13/13 14/14/14
f 13/13/13 15/15/15 16/16/16
f 19/19/19 17/17/17 18/18/18
f 17/17/17 19/19/19 20/20/20
f 23/23/23 21/21/21 22/22/22
f 21/21/21 23/23/23 24/24/24
f 27/27/27 25/25/25 26/26/26
f 25/25/25 27/27/27 28/28/28
f 31/31/31 29/29/29 30/30/30
f 29/29/29 31/31/31 32/32/32
f 35/35/35 33/33/33 34/34/34
f 33/33/33 35/35/35 36/36/36
f 39/39/39 37/37/37 38/38/38
f 37/37/37 39/39/39 40/40/40
f 43/43/43 41/41/41 42/42/42
f 41/41/41 43/43/43 44/44/44
f 47/47/47 45/45/45 46/46/46
f 45/45/45 47/47/47 48/48/48
f 51/51/51 49/49/49 50/50/50
f 49/49/49 51/51/51 52/52/52
