mtllib EKH_THRONE_PS_TH_STEPS_01.mtl
g TH_steps_01
usemtl steps
v 67.945930 568.999146 7146.178223
vn -0.999184 0.000000 0.040387
vt 0.240528 1.000000
v 67.945930 596.749146 7146.178223
vn -0.724965 0.686500 0.056065
vt 0.240528 0.684928
v 67.352875 596.749146 6983.617188
vn -0.727925 0.685651 0.002818
vt -0.236368 0.684928
v 67.352875 568.999146 6983.617188
vn -0.999993 0.000000 0.003648
vt -0.236368 1.000000
v 86.287613 568.998718 7306.445313
vn -0.991370 0.000000 0.131096
vt 0.717854 1.000000
v 86.287613 596.749146 7306.445313
vn -0.719232 0.685948 0.110365
vt 0.717854 0.684928
v 117.878006 568.998718 7494.383789
vn -0.931955 0.055772 -0.358259
vt 1.197706 1.000000
v 117.878006 595.640137 7494.383789
vn -0.678641 0.688721 0.255168
vt 1.197706 0.684928
v 182.061798 568.999146 7623.930176
vn -0.896052 0.000000 0.443949
vt 1.683050 1.000000
v 182.061798 596.749146 7623.930176
vn -0.654253 0.686041 0.318277
vt 1.683050 0.684928
v 141.365448 601.112305 7133.232422
vn -0.726635 0.686228 0.033048
vt 0.240528 0.000000
v 139.442276 601.112305 6965.700195
vn -0.728046 0.685477 0.008358
vt -0.236368 0.000000
v 159.707123 601.112305 7293.499512
vn -0.717925 0.686774 0.113687
vt 0.717854 0.000000
v 201.731079 601.112305 7462.780273
vn -0.699635 0.685912 0.200089
vt 1.197706 0.000000
v 255.481308 601.112305 7610.984375
vn -0.684526 0.685551 0.247878
vt 1.683050 0.000000
v 141.365448 601.112305 7133.232422
vn -0.726635 0.686228 0.033048
vt 0.968577 1.000000
v 141.365570 628.862305 7133.232422
vn -0.724869 0.686444 0.057961
vt 0.968577 0.684928
v 139.442398 628.862305 6965.700195
vn -0.727689 0.685856 0.008353
vt 1.438329 0.684928
v 139.442276 601.112305 6965.700195
vn -0.728046 0.685477 0.008358
vt 1.438329 1.000000
v 159.707123 601.112305 7293.499512
vn -0.717925 0.686774 0.113687
vt 0.533880 1.000000
v 159.707245 628.862305 7293.499512
vn -0.712352 0.686770 0.144572
vt 0.533880 0.684928
v 201.731079 601.112305 7462.780273
vn -0.699635 0.685912 0.200089
vt 0.070537 1.000000
v 201.731201 628.862305 7462.780273
vn -0.691916 0.686350 0.223999
vt 0.070537 0.684928
v 255.481308 601.112305 7610.984375
vn -0.684526 0.685551 0.247878
vt -0.380971 1.000000
v 255.481430 628.862305 7610.984375
vn -0.684167 0.685818 0.248132
vt -0.380971 0.684928
v 214.784836 633.225464 7120.286621
vn -0.726507 0.686358 0.033157
vt 0.968577 0.000000
v 212.861664 633.225464 6952.754395
vn -0.727692 0.685853 0.008353
vt 1.438329 0.000000
v 233.126511 633.225464 7280.553711
vn -0.717928 0.686771 0.113687
vt 0.533880 0.000000
v 275.150482 633.225464 7449.834473
vn -0.699229 0.686438 0.199703
vt 0.070537 0.000000
v 328.900696 633.225464 7598.038574
vn -0.684170 0.685815 0.248133
vt -0.380971 0.000000
v 214.784836 633.225464 7120.286621
vn -0.726507 0.686358 0.033157
vt 0.290019 1.000000
v 214.784714 660.975464 7120.286621
vn -0.724872 0.686441 0.057961
vt 0.290019 0.684928
v 212.861542 660.975464 6952.754395
vn -0.727692 0.685853 0.008353
vt -0.137257 0.684928
v 212.861664 633.225464 6952.754395
vn -0.727692 0.685853 0.008353
vt -0.137257 1.000000
v 233.126511 633.225464 7280.553711
vn -0.717928 0.686771 0.113687
vt 0.725083 1.000000
v 233.126389 660.975464 7280.553711
vn -0.712355 0.686767 0.144573
vt 0.725083 0.684928
v 275.150482 633.225464 7449.834473
vn -0.699229 0.686438 0.199703
vt 1.178760 1.000000
v 275.150360 660.975464 7449.834473
vn -0.691919 0.686347 0.224000
vt 1.178760 0.684928
v 328.900696 633.225464 7598.038574
vn -0.684170 0.685815 0.248133
vt 1.597342 1.000000
v 328.900574 660.975464 7598.038574
vn -0.684170 0.685815 0.248133
vt 1.597342 0.684928
v 288.203979 665.338623 7107.340820
vn -0.726507 0.686358 0.033157
vt 0.290019 0.000000
v 286.280823 665.338623 6939.808594
vn -0.727692 0.685853 0.008353
vt -0.137257 0.000000
v 306.545654 665.338623 7267.607910
vn -0.717928 0.686771 0.113687
vt 0.725083 0.000000
v 348.569641 665.338623 7436.888672
vn -0.699229 0.686438 0.199703
vt 1.178760 0.000000
v 402.319855 665.338623 7585.092773
vn -0.684170 0.685815 0.248133
vt 1.597342 0.000000
v 288.203979 665.338623 7107.340820
vn -0.726507 0.686358 0.033157
vt 0.477416 1.000000
v 288.203857 693.088623 7107.340820
vn -0.627172 0.777314 0.049381
vt 0.477416 0.684928
v 286.280701 693.088623 6939.808594
vn -0.727715 0.685830 0.008324
vt -0.015135 0.684928
v 286.280823 665.338623 6939.808594
vn -0.727692 0.685853 0.008353
vt -0.015135 1.000000
v 306.545654 665.338623 7267.607910
vn -0.717928 0.686771 0.113687
vt 0.998287 1.000000
v 306.545532 693.088623 7267.607910
vn -0.712355 0.686767 0.144573
vt 0.998287 0.684928
v 348.569641 665.338623 7436.888672
vn -0.699229 0.686438 0.199703
vt 1.538492 1.000000
v 348.569519 693.088623 7436.888672
vn -0.598411 0.777282 0.194263
vt 1.538492 0.684928
v 402.319855 665.338623 7585.092773
vn -0.684170 0.685815 0.248133
vt 2.023365 1.000000
v 402.319733 693.088623 7585.092773
vn -0.684170 0.685815 0.248133
vt 2.023365 0.684928
v 360.661652 697.451782 7022.907227
vn -0.073189 0.997318 0.000852
vt 0.260850 -0.018283
v 359.700073 697.451782 6926.862793
vn -0.073153 0.997320 0.000732
vt -0.015135 0.000000
v 379.964935 697.451782 7254.662109
vn -0.071263 0.997394 0.011285
vt 0.998287 0.000000
v 361.623260 697.451782 7094.395020
vn -0.072461 0.997361 0.004601
vt 0.477416 0.000000
v 421.988892 697.451782 7423.942871
vn -0.034846 0.999341 0.010148
vt 1.538492 0.000000
v 436.310883 697.451782 7461.724609
vn -0.212419 0.830993 -0.514129
vt 1.660417 0.000000
v 475.739105 697.451782 7572.146973
vn -0.068391 0.997355 0.024613
vt 2.023365 0.000000
f 53/53/53 55/55/55 62/62/62
f 62/62/62 61/61/61 53/53/53
f 60/60/60 53/53/53 61/61/61
f 53/53/53 60/60/60 51/51/51
f 58/58/58 51/51/51 60/60/60
f 51/51/51 58/58/58 47/47/47
f 59/59/59 47/47/47 58/58/58
f 47/47/47 59/59/59 56/56/56
f 56/56/56 48/48/48 47/47/47
f 48/48/48 56/56/56 57/57/57
f 53/53/53 54/54/54 55/55/55
f 54/54/54 53/53/53 52/52/52
f 51/51/51 52/52/52 53/53/53
f 52/52/52 51/51/51 50/50/50
f 47/47/47 50/50/50 51/51/51
f 50/50/50 47/47/47 46/46/46
f 48/48/48 46/46/46 47/47/47
f 46/46/46 48/48/48 49/49/49
f 1/1/1 3/3/3 4/4/4
f 3/3/3 1/1/1 2/2/2
f 5/5/5 2/2/2 1/1/1
f 2/2/2 5/5/5 6/6/6
f 7/7/7 6/6/6 5/5/5
f 6/6/6 7/7/7 8/8/8
f 9/9/9 8/8/8 7/7/7
f 8/8/8 9/9/9 10/10/10
f 12/12/12 3/3/3 11/11/11
f 2/2/2 11/11/11 3/3/3
f 11/11/11 2/2/2 13/13/13
f 6/6/6 13/13/13 2/2/2
f 13/13/13 6/6/6 14/14/14
f 8/8/8 14/14/14 6/6/6
f 14/14/14 8/8/8 15/15/15
f 10/10/10 15/15/15 8/8/8
f 31/31/31 33/33/33 34/34/34
f 33/33/33 31/31/31 32/32/32
f 35/35/35 32/32/32 31/31/31
f 32/32/32 35/35/35 36/36/36
f 37/37/37 36/36/36 35/35/35
f 36/36/36 37/37/37 38/38/38
f 39/39/39 38/38/38 37/37/37
f 38/38/38 39/39/39 40/40/40
f 42/42/42 33/33/33 41/41/41
f 32/32/32 41/41/41 33/33/33
f 41/41/41 32/32/32 43/43/43
f 36/36/36 43/43/43 32/32/32
f 43/43/43 36/36/36 44/44/44
f 38/38/38 44/44/44 36/36/36
f 44/44/44 38/38/38 45/45/45
f 40/40/40 45/45/45 38/38/38
f 23/23/23 24/24/24 25/25/25
f 24/24/24 23/23/23 22/22/22
f 21/21/21 22/22/22 23/23/23
f 22/22/22 21/21/21 20/20/20
f 17/17/17 20/20/20 21/21/21
f 20/20/20 17/17/17 16/16/16
f 18/18/18 16/16/16 17/17/17
f 16/16/16 18/18/18 19/19/19
f 27/27/27 18/18/18 26/26/26
f 17/17/17 26/26/26 18/18/18
f 26/26/26 17/17/17 28/28/28
f 21/21/21 28/28/28 17/17/17
f 28/28/28 21/21/21 29/29/29
f 23/23/23 29/29/29 21/21/21
f 29/29/29 23/23/23 30/30/30
f 25/25/25 30/30/30 23/23/23
