mtllib EKH_GROTTO_PS_GR_SPI_DOOR_3__GX.mtl
g _Spi_Door_3__GX
usemtl Material_#44582
v 4519.317871 1673.675171 7232.281738
vn 0.984805 0.000000 -0.173661
vt 0.000500 0.000499
v 4525.032715 1673.675171 7264.687988
vn 0.984805 0.000000 -0.173661
vt 0.999500 0.000499
v 4525.032715 1647.401123 7264.687988
vn 0.984805 0.000000 -0.173661
vt 0.999500 0.999501
v 4519.317871 1647.401123 7232.281738
vn 0.984805 0.000000 -0.173661
vt 0.000500 0.999501
v 4310.342773 1673.675293 7269.129883
vn -0.984808 0.000000 0.173648
vt 0.000500 0.000499
v 4310.342773 1647.401123 7269.129883
vn -0.984808 0.000000 0.173648
vt 0.000500 0.999501
v 4316.056641 1647.401123 7301.535645
vn -0.984808 0.000000 0.173648
vt 0.999500 0.999501
v 4316.056641 1673.675293 7301.535645
vn -0.984808 0.000000 0.173648
vt 0.999500 0.000499
f 3/3/3 1/1/1 2/2/2
f 1/1/1 3/3/3 4/4/4
f 7/7/7 5/5/5 6/6/6
f 5/5/5 7/7/7 8/8/8
usemtl Vine_Beam
v 4525.032227 1647.401123 7264.687988
vn 0.000000 -1.000000 0.000000
vt 1.000000 1.660171
v 4420.544434 1647.401123 7283.111816
vn 0.000000 -1.000000 0.000000
vt 1.000000 0.833746
v 4414.830078 1647.401123 7250.705566
vn 0.000000 -1.000000 0.000000
vt 0.000000 0.833746
v 4519.317871 1647.401123 7232.281738
vn 0.000000 -1.000000 0.000000
vt 0.000000 1.660171
v 4525.032227 1673.675171 7264.687988
vn 0.173648 0.000000 0.984808
vt 1.000000 1.000000
v 4420.544434 1673.675171 7283.111816
vn 0.173648 0.000000 0.984808
vt 1.000000 0.173575
v 4420.544434 1647.401123 7283.111816
vn 0.173648 0.000000 0.984808
vt 0.000000 0.173575
v 4525.032227 1647.401123 7264.687988
vn 0.173648 0.000000 0.984808
vt 0.000000 1.000000
v 4519.317871 1673.675171 7232.281738
vn 0.000000 1.000000 0.000000
vt 1.121158 1.605788
v 4414.830078 1673.675171 7250.705566
vn 0.000000 1.000000 0.000000
vt 1.121158 0.779363
v 4420.544434 1673.675171 7283.111816
vn 0.000000 1.000000 0.000000
vt 0.121158 0.779363
v 4525.032227 1673.675171 7264.687988
vn 0.000000 1.000000 0.000000
vt 0.121158 1.605788
v 4519.317871 1647.401123 7232.281738
vn -0.173648 0.000000 -0.984808
vt 1.000000 1.000000
v 4414.830078 1647.401123 7250.705566
vn -0.173648 0.000000 -0.984808
vt 1.000000 0.173575
v 4414.830078 1673.675171 7250.705566
vn -0.173648 0.000000 -0.984808
vt 0.000000 0.173575
v 4519.317871 1673.675171 7232.281738
vn -0.173648 0.000000 -0.984808
vt 0.000000 1.000000
v 4316.056641 1647.401123 7301.536133
vn 0.000000 -1.000000 0.000000
vt 1.000000 0.007321
v 4310.342285 1647.401123 7269.129395
vn 0.000000 -1.000000 0.000000
vt 0.000000 0.007321
v 4316.056641 1673.675171 7301.536133
vn 0.173648 0.000000 0.984808
vt 1.000000 -0.652850
v 4316.056641 1647.401123 7301.536133
vn 0.173648 0.000000 0.984808
vt 0.000000 -0.652850
v 4310.342285 1647.401123 7269.129395
vn -0.173648 0.000000 -0.984808
vt 1.000000 -0.652850
v 4310.342285 1673.675171 7269.129395
vn -0.173648 0.000000 -0.984808
vt 0.000000 -0.652850
v 4310.342285 1673.675171 7269.129395
vn 0.000000 1.000000 0.000000
vt 1.121158 -0.047063
v 4316.056641 1673.675171 7301.536133
vn 0.000000 1.000000 0.000000
vt 0.121158 -0.047063
f 15/15/15 16/16/16 13/13/13
f 13/13/13 14/14/14 15/15/15
f 27/27/27 15/15/15 14/14/14
f 15/15/15 27/27/27 28/28/28
f 9/9/9 11/11/11 12/12/12
f 11/11/11 9/9/9 10/10/10
f 11/11/11 25/25/25 26/26/26
f 25/25/25 11/11/11 10/10/10
f 17/17/17 19/19/19 20/20/20
f 19/19/19 17/17/17 18/18/18
f 19/19/19 31/31/31 32/32/32
f 31/31/31 19/19/19 18/18/18
f 21/21/21 22/22/22 23/23/23
f 29/29/29 23/23/23 22/22/22
f 23/23/23 29/29/29 30/30/30
f 23/23/23 24/24/24 21/21/21
usemtl Cliff_Wall
v 4484.115234 1666.449707 7225.468750
vn -0.801010 -0.048092 -0.596716
vt 0.080611 0.000000
v 4497.917480 1666.449707 7210.847656
vn -0.293614 -0.052617 -0.954475
vt 0.000000 0.000000
v 4499.792480 1535.864136 7215.354492
vn -0.469838 0.012955 -0.882657
vt 0.000000 0.284000
v 4487.433105 1535.864136 7228.446777
vn -0.814069 0.003694 -0.580756
vt 0.080611 0.284000
v 4474.561523 1666.449707 7247.693848
vn -0.964526 -0.016221 -0.263489
vt 0.173511 0.000000
v 4474.565918 1535.864136 7247.697266
vn -0.987309 0.009848 -0.158504
vt 0.173511 0.284000
v 4479.795410 1666.449707 7272.676270
vn -0.920982 -0.000147 0.389606
vt 0.265262 0.000000
v 4479.827148 1535.864136 7272.695313
vn -0.847301 -0.009139 0.531035
vt 0.265262 0.284000
v 4498.570801 1666.449707 7291.117188
vn -0.484357 -0.036637 0.874103
vt 0.341952 0.000000
v 4499.686035 1535.864136 7286.168945
vn -0.401293 -0.007172 0.915922
vt 0.341952 0.284000
v 4520.375488 1666.449707 7294.200684
vn 0.013757 -0.049196 0.998694
vt 0.454490 0.000000
v 4519.902832 1535.864136 7289.994141
vn 0.093658 0.005851 0.995587
vt 0.454490 0.284000
v 4539.723633 1666.449707 7286.594238
vn 0.589336 -0.045784 0.806590
vt 0.537840 0.000000
v 4537.228516 1535.864136 7283.183105
vn 0.736610 0.013912 0.676175
vt 0.537840 0.284000
v 4546.928711 1666.449707 7269.919434
vn 0.941862 -0.039213 0.333705
vt 0.610666 0.000000
v 4543.680664 1535.864136 7268.251465
vn 0.965897 -0.006465 0.258847
vt 0.610666 0.284000
v 4551.504883 1666.449707 7247.960938
vn 0.998689 -0.049307 0.013744
vt 0.698307 0.000000
v 4546.527344 1535.864136 7248.646484
vn 0.997862 -0.000193 -0.065358
vt 0.698307 0.284000
v 4544.044434 1666.449707 7224.885742
vn 0.887229 -0.048008 -0.458824
vt 0.792361 0.000000
v 4541.097656 1535.864136 7227.924805
vn 0.845501 0.003960 -0.533959
vt 0.792361 0.284000
v 4525.765625 1666.449707 7209.475098
vn 0.439841 -0.050158 -0.896674
vt 0.888215 0.000000
v 4524.729492 1535.864136 7214.125488
vn 0.319884 0.004380 -0.947447
vt 0.888215 0.284000
v 4497.917480 1666.449707 7210.847656
vn -0.293614 -0.052617 -0.954475
vt 1.000000 0.000000
v 4499.792480 1535.864136 7215.354492
vn -0.469838 0.012955 -0.882657
vt 1.000000 0.284000
v 4484.061523 1422.898193 7225.448242
vn -0.809332 0.042633 -0.585802
vt 0.080611 0.832562
v 4497.943359 1422.898193 7210.743164
vn -0.417645 0.062080 -0.906487
vt 0.000000 0.832562
v 4474.590332 1422.898193 7247.675781
vn -0.999982 0.000001 0.005978
vt 0.173511 0.832562
v 4479.777344 1422.898193 7272.663574
vn -0.788417 0.018911 0.614851
vt 0.265262 0.832562
v 4497.823730 1422.898193 7290.280273
vn -0.370236 0.056434 0.927222
vt 0.341952 0.832562
v 4520.531250 1422.898071 7294.577148
vn 0.188167 0.057807 0.980434
vt 0.454490 0.832562
v 4539.990723 1422.898193 7286.926758
vn 0.694110 0.057711 0.717552
vt 0.537840 0.832562
v 4547.237793 1422.898193 7270.155762
vn 0.960973 0.049349 0.272205
vt 0.610666 0.832562
v 4550.435059 1422.898193 7248.136230
vn 0.991166 0.049341 -0.123110
vt 0.698307 0.832562
v 4544.336426 1422.898193 7224.862305
vn 0.783501 0.055574 -0.618900
vt 0.792361 0.832562
v 4525.952148 1422.898193 7209.362793
vn 0.193616 0.061426 -0.979153
vt 0.888215 0.832562
v 4497.943359 1422.898193 7210.743164
vn -0.417645 0.062080 -0.906487
vt 1.000000 0.832562
v 4352.228027 1660.626831 7312.003418
vn 0.800792 -0.053466 0.596552
vt 0.080611 0.000000
v 4338.425781 1660.626831 7326.624023
vn 0.293519 -0.058493 0.954162
vt 0.000000 0.000000
v 4336.550781 1543.198120 7322.117188
vn 0.469851 0.008279 0.882707
vt 0.000000 0.284000
v 4348.910156 1543.198120 7309.024902
vn 0.814071 0.000188 0.580765
vt 0.080611 0.284000
v 4361.782227 1660.626831 7289.778320
vn 0.964498 -0.018035 0.263473
vt 0.173511 0.000000
v 4361.777344 1543.198120 7289.774414
vn 0.987313 0.009236 0.158515
vt 0.173511 0.284000
v 4356.547852 1660.626831 7264.795898
vn 0.920982 -0.000164 -0.389605
vt 0.265262 0.000000
v 4356.516113 1543.198120 7264.776367
vn 0.847301 -0.010167 -0.531016
vt 0.265262 0.284000
v 4337.772949 1660.626831 7246.354492
vn 0.484302 -0.040732 -0.873952
vt 0.341952 0.000000
v 4336.657227 1543.198120 7251.302734
vn 0.401290 -0.011186 -0.915883
vt 0.341952 0.284000
v 4315.967773 1660.626831 7243.270996
vn -0.013757 -0.054692 -0.998408
vt 0.454490 0.000000
v 4316.440430 1543.198120 7247.477539
vn -0.093645 0.001524 -0.995604
vt 0.454490 0.284000
v 4296.619629 1660.626831 7250.877441
vn -0.589194 -0.050901 -0.806387
vt 0.537840 0.000000
v 4299.114746 1543.198120 7254.288574
vn -0.736640 0.009775 -0.676215
vt 0.537840 0.284000
v 4289.414551 1660.626831 7267.552246
vn -0.941690 -0.043599 -0.333644
vt 0.610666 0.000000
v 4292.663086 1543.198120 7269.220215
vn -0.965862 -0.010597 -0.258842
vt 0.610666 0.284000
v 4284.838379 1660.626831 7289.510742
vn -0.998402 -0.054816 -0.013748
vt 0.698307 0.000000
v 4289.815918 1543.198120 7288.825195
vn -0.997853 -0.004457 0.065347
vt 0.698307 0.284000
v 4292.298828 1660.626831 7312.585938
vn -0.886988 -0.053372 0.458699
vt 0.792361 0.000000
v 4295.245605 1543.198120 7309.546875
vn -0.845516 -0.000233 0.533950
vt 0.792361 0.284000
v 4310.578125 1660.626831 7327.996582
vn -0.439715 -0.055761 0.896405
vt 0.888215 0.000000
v 4311.613770 1543.198120 7323.346680
vn -0.319909 -0.000384 0.947448
vt 0.888215 0.284000
v 4338.425781 1660.626831 7326.624023
vn 0.293519 -0.058493 0.954162
vt 1.000000 0.000000
v 4336.550781 1543.198120 7322.117188
vn 0.469851 0.008279 0.882707
vt 1.000000 0.284000
v 4352.281738 1422.898071 7312.023438
vn 0.809414 0.040040 0.585872
vt 0.080611 0.832562
v 4338.399902 1422.898071 7326.728516
vn 0.417737 0.058309 0.906695
vt 0.000000 0.832562
v 4361.752930 1422.898193 7289.795898
vn 0.999982 0.000000 -0.005978
vt 0.173511 0.832562
v 4356.565918 1422.898193 7264.808105
vn 0.788430 0.017760 -0.614868
vt 0.265262 0.832562
v 4338.519531 1422.898193 7247.191406
vn 0.370305 0.053003 -0.927397
vt 0.341952 0.832562
v 4315.812500 1422.898193 7242.894531
vn -0.188204 0.054293 -0.980628
vt 0.454490 0.832562
v 4296.352539 1422.898193 7250.544922
vn -0.694242 0.054204 -0.717697
vt 0.537840 0.832562
v 4289.105957 1422.898193 7267.315918
vn -0.961111 0.046347 -0.272245
vt 0.610666 0.832562
v 4285.908203 1422.898193 7289.335449
vn -0.991308 0.046340 0.123128
vt 0.698307 0.832562
v 4292.006836 1422.898071 7312.609375
vn -0.783642 0.052196 0.619016
vt 0.792361 0.832562
v 4310.391113 1422.898071 7328.109375
vn -0.193657 0.057694 0.979371
vt 0.888215 0.832562
v 4338.399902 1422.898071 7326.728516
vn 0.417737 0.058309 0.906695
vt 1.000000 0.832562
f 35/35/35 58/58/58 57/57/57
f 57/57/57 36/36/36 35/35/35
f 36/36/36 57/57/57 38/38/38
f 59/59/59 38/38/38 57/57/57
f 38/38/38 59/59/59 40/40/40
f 60/60/60 40/40/40 59/59/59
f 40/40/40 60/60/60 42/42/42
f 61/61/61 42/42/42 60/60/60
f 42/42/42 61/61/61 44/44/44
f 62/62/62 44/44/44 61/61/61
f 44/44/44 62/62/62 46/46/46
f 63/63/63 46/46/46 62/62/62
f 46/46/46 63/63/63 64/64/64
f 34/34/34 35/35/35 33/33/33
f 36/36/36 33/33/33 35/35/35
f 33/33/33 36/36/36 37/37/37
f 38/38/38 37/37/37 36/36/36
f 37/37/37 38/38/38 39/39/39
f 40/40/40 39/39/39 38/38/38
f 39/39/39 40/40/40 41/41/41
f 42/42/42 41/41/41 40/40/40
f 41/41/41 42/42/42 43/43/43
f 44/44/44 43/43/43 42/42/42
f 43/43/43 44/44/44 45/45/45
f 46/46/46 45/45/45 44/44/44
f 45/45/45 46/46/46 47/47/47
f 48/48/48 47/47/47 46/46/46
f 47/47/47 48/48/48 49/49/49
f 50/50/50 49/49/49 48/48/48
f 49/49/49 50/50/50 51/51/51
f 52/52/52 51/51/51 50/50/50
f 68/68/68 56/56/56 67/67/67
f 54/54/54 67/67/67 56/56/56
f 67/67/67 54/54/54 66/66/66
f 52/52/52 66/66/66 54/54/54
f 66/66/66 52/52/52 65/65/65
f 50/50/50 65/65/65 52/52/52
f 65/65/65 50/50/50 64/64/64
f 48/48/48 64/64/64 50/50/50
f 64/64/64 48/48/48 46/46/46
f 51/51/51 52/52/52 53/53/53
f 54/54/54 53/53/53 52/52/52
f 53/53/53 54/54/54 55/55/55
f 56/56/56 55/55/55 54/54/54
f 82/82/82 99/99/99 100/100/100
f 99/99/99 82/82/82 98/98/98
f 80/80/80 98/98/98 82/82/82
f 98/98/98 80/80/80 97/97/97
f 78/78/78 97/97/97 80/80/80
f 97/97/97 78/78/78 96/96/96
f 76/76/76 96/96/96 78/78/78
f 96/96/96 76/76/76 95/95/95
f 74/74/74 95/95/95 76/76/76
f 95/95/95 74/74/74 93/93/93
f 72/72/72 93/93/93 74/74/74
f 93/93/93 72/72/72 71/71/71
f 69/69/69 71/71/71 72/72/72
f 71/71/71 69/69/69 70/70/70
f 71/71/71 94/94/94 93/93/93
f 69/69/69 72/72/72 73/73/73
f 74/74/74 73/73/73 72/72/72
f 73/73/73 74/74/74 75/75/75
f 76/76/76 75/75/75 74/74/74
f 75/75/75 76/76/76 77/77/77
f 78/78/78 77/77/77 76/76/76
f 77/77/77 78/78/78 79/79/79
f 80/80/80 79/79/79 78/78/78
f 79/79/79 80/80/80 81/81/81
f 82/82/82 81/81/81 80/80/80
f 81/81/81 82/82/82 83/83/83
f 84/84/84 83/83/83 82/82/82
f 83/83/83 84/84/84 85/85/85
f 86/86/86 85/85/85 84/84/84
f 85/85/85 86/86/86 87/87/87
f 88/88/88 87/87/87 86/86/86
f 87/87/87 88/88/88 89/89/89
f 90/90/90 89/89/89 88/88/88
f 90/90/90 91/91/91 89/89/89
f 91/91/91 90/90/90 92/92/92
f 104/104/104 92/92/92 103/103/103
f 90/90/90 103/103/103 92/92/92
f 103/103/103 90/90/90 102/102/102
f 88/88/88 102/102/102 90/90/90
f 102/102/102 88/88/88 101/101/101
f 86/86/86 101/101/101 88/88/88
f 101/101/101 86/86/86 100/100/100
f 84/84/84 100/100/100 86/86/86
f 100/100/100 84/84/84 82/82/82
usemtl Lib_Door
v 4416.886230 1423.836914 7261.625000
vn -0.173648 0.000000 -0.984808
vt 0.500000 1.000000
v 4416.886230 1479.805176 7261.625000
vn -0.173648 0.000000 -0.984808
vt 0.500000 0.750000
v 4475.500977 1479.805176 7251.289551
vn -0.173648 0.000000 -0.984808
vt 0.000000 0.750000
v 4475.500977 1423.836914 7251.289551
vn -0.173648 0.000000 -0.984808
vt 0.000000 1.000000
v 4476.978027 1479.805176 7259.665039
vn 0.173648 0.000000 0.984808
vt 0.000000 0.750000
v 4418.362793 1479.805176 7270.000488
vn 0.173648 0.000000 0.984808
vt 0.500000 0.750000
v 4418.362793 1423.836914 7270.000488
vn 0.173648 0.000000 0.984808
vt 0.500000 1.000000
v 4476.978027 1423.836914 7259.665039
vn 0.173648 0.000000 0.984808
vt 0.000000 1.000000
v 4416.885742 1647.710327 7261.625000
vn 0.000002 1.000000 0.000014
vt 0.500000 0.959864
v 4418.362305 1647.710205 7270.000488
vn 0.000002 1.000000 0.000014
vt 0.500002 1.000000
v 4476.977539 1647.710205 7259.665039
vn 0.000002 1.000000 0.000014
vt 0.000504 1.000000
v 4475.500977 1647.710327 7251.289551
vn 0.000002 1.000000 0.000014
vt 0.000500 0.959863
v 4358.270996 1591.741943 7271.959961
vn -0.173648 0.000000 -0.984808
vt 1.000000 0.250000
v 4416.886230 1591.741943 7261.624512
vn -0.173648 0.000000 -0.984808
vt 0.500000 0.250000
v 4416.886230 1535.773560 7261.625000
vn -0.173648 0.000000 -0.984808
vt 0.500000 0.500000
v 4358.270996 1535.773560 7271.959961
vn -0.173648 0.000000 -0.984808
vt 1.000000 0.500000
v 4476.978027 1591.741943 7259.665039
vn 0.173648 0.000000 0.984808
vt 0.000000 0.250000
v 4418.362793 1591.741943 7270.000488
vn 0.173648 0.000000 0.984808
vt 0.500000 0.250000
v 4418.362793 1535.773560 7270.000488
vn 0.173648 0.000000 0.984808
vt 0.500000 0.500000
v 4476.978027 1535.773560 7259.665039
vn 0.173648 0.000000 0.984808
vt 0.000000 0.500000
v 4358.270996 1423.836914 7271.960449
vn -0.173648 0.000000 -0.984808
vt 1.000000 1.000000
v 4358.270996 1479.805176 7271.960449
vn -0.173648 0.000000 -0.984808
vt 1.000000 0.750000
v 4475.500977 1647.710327 7251.289063
vn -0.173648 0.000000 -0.984808
vt 0.000000 0.000000
v 4475.500977 1591.741943 7251.289551
vn -0.173648 0.000000 -0.984808
vt 0.000000 0.250000
v 4416.885742 1647.710327 7261.624512
vn -0.173648 0.000000 -0.984808
vt 0.500000 0.000000
v 4359.747559 1647.710327 7280.335938
vn 0.173648 0.000000 0.984808
vt 1.000000 0.000000
v 4359.747559 1591.741943 7280.335938
vn 0.173648 0.000000 0.984808
vt 1.000000 0.250000
v 4418.362793 1647.710327 7270.000488
vn 0.173648 0.000000 0.984808
vt 0.500000 0.000000
v 4359.747559 1535.773560 7280.335938
vn 0.173648 0.000000 0.984808
vt 1.000000 0.500000
v 4359.747559 1479.805176 7280.335938
vn 0.173648 0.000000 0.984808
vt 1.000000 0.750000
v 4358.270508 1647.710327 7271.960449
vn 0.000002 1.000000 0.000014
vt 0.999500 0.959866
v 4359.747559 1647.710205 7280.335938
vn 0.000002 1.000000 0.000014
vt 0.999501 1.000000
v 4475.500977 1535.773560 7251.289551
vn -0.173648 0.000000 -0.984808
vt 0.000000 0.500000
v 4359.747559 1423.836914 7280.335938
vn 0.173648 0.000000 0.984808
vt 1.000000 1.000000
v 4358.270996 1647.710327 7271.959961
vn -0.173648 0.000000 -0.984808
vt 1.000000 0.000000
v 4476.978027 1647.710327 7259.665039
vn 0.173648 0.000000 0.984808
vt 0.000000 0.000000
f 107/107/107 108/108/108 105/105/105
f 127/127/127 128/128/128 118/118/118
f 137/137/137 118/118/118 128/128/128
f 118/118/118 137/137/137 119/119/119
f 107/107/107 119/119/119 137/137/137
f 119/119/119 107/107/107 106/106/106
f 105/105/105 106/106/106 107/107/107
f 106/106/106 105/105/105 125/125/125
f 118/118/118 129/129/129 127/127/127
f 125/125/125 126/126/126 106/106/106
f 120/120/120 106/106/106 126/126/126
f 106/106/106 120/120/120 119/119/119
f 117/117/117 119/119/119 120/120/120
f 119/119/119 117/117/117 118/118/118
f 139/139/139 118/118/118 117/117/117
f 118/118/118 139/139/139 129/129/129
f 140/140/140 132/132/132 122/122/122
f 130/130/130 122/122/122 132/132/132
f 122/122/122 130/130/130 131/131/131
f 122/122/122 121/121/121 140/140/140
f 124/124/124 121/121/121 123/123/123
f 122/122/122 123/123/123 121/121/121
f 123/123/123 122/122/122 133/133/133
f 131/131/131 133/133/133 122/122/122
f 110/110/110 133/133/133 134/134/134
f 133/133/133 110/110/110 123/123/123
f 124/124/124 123/123/123 110/110/110
f 110/110/110 109/109/109 124/124/124
f 112/112/112 109/109/109 111/111/111
f 110/110/110 111/111/111 109/109/109
f 111/111/111 110/110/110 138/138/138
f 134/134/134 138/138/138 110/110/110
f 113/113/113 115/115/115 116/116/116
f 115/115/115 113/113/113 114/114/114
f 135/135/135 114/114/114 113/113/113
f 114/114/114 135/135/135 136/136/136
