mtllib EKH_GROTTO_PS_GR_GROTTO_CAVE_TRIM_01.mtl
g to_Cave_Trim_01
usemtl Cave_Blender_Vines_Ground
v 800.587769 697.451782 7081.614258
vn -0.173678 0.847137 0.502190
vt 0.302633 -3.656784
v 808.363831 772.144897 7070.400391
vn -0.422860 0.001020 0.906195
vt 0.011125 -3.201401
v 601.910156 772.789063 7028.004395
vn -0.100328 -0.116466 0.988114
vt 1.284775 -2.916405
v 591.992798 697.451782 7045.338379
vn -0.060233 0.762470 0.644214
vt 1.345608 -3.475410
v 967.884277 697.451660 7202.555664
vn -0.527284 0.655658 0.540448
vt -0.533849 -3.261497
v 971.887634 769.462830 7188.407715
vn -0.769259 0.006926 0.638900
vt -0.806494 -2.791443
v 808.363831 772.144897 7070.400391
vn -0.422860 0.001020 0.906195
vt 0.011125 -2.201401
v 800.587769 697.451782 7081.614258
vn -0.173678 0.847137 0.502190
vt 0.302633 -2.656784
v 1060.182373 697.451782 7371.959961
vn -0.491104 0.829934 0.264626
vt -0.995339 -3.108513
v 1070.464966 767.029236 7370.482422
vn -0.876992 -0.040288 0.478813
vt -1.312795 -2.835083
v 971.887634 769.462830 7188.407715
vn -0.769259 0.006926 0.638900
vt -0.806494 -1.791443
v 967.884277 697.451660 7202.555664
vn -0.527284 0.655658 0.540448
vt -0.533849 -2.261497
v 1133.672729 697.451721 7511.090820
vn -0.541717 0.766155 0.345758
vt -1.362791 -3.804169
v 1149.564453 763.972351 7511.996094
vn -0.820687 0.021721 0.570965
vt -1.708292 -3.542656
v 1218.597290 697.451721 7610.852539
vn -0.441859 0.762874 0.472001
vt -1.787414 -3.302979
v 1224.359741 759.764282 7604.124023
vn -0.642667 -0.096929 0.759990
vt -2.003411 -2.973434
v 1149.564453 763.972351 7511.996094
vn -0.820687 0.021721 0.570965
vt -1.708292 -2.542656
v 1133.672729 697.451721 7511.090820
vn -0.541717 0.766155 0.345758
vt -1.362791 -2.804169
v 1330.551025 697.451782 7672.970215
vn -0.225176 0.827093 0.514988
vt -2.347182 -3.613571
v 1332.620850 758.847656 7667.066406
vn -0.363588 -0.164763 0.916874
vt -2.418243 -3.169708
v 1446.152832 697.451782 7696.816406
vn -0.094380 0.503260 0.858966
vt -2.925191 -3.732796
v 1440.268799 761.177063 7691.939941
vn -0.110090 -0.199232 0.973749
vt -2.895771 -3.354790
v 1567.346924 697.451782 7697.282715
vn 0.088774 0.744624 0.661554
vt -3.531162 -3.735130
v 1563.993652 762.255737 7692.140625
vn 0.104525 -0.195462 0.975125
vt -3.514395 -3.355797
v 1567.346924 697.451782 7697.282715
vn 0.088774 0.744624 0.661554
vt -2.531162 -3.735130
v 1685.612915 697.451782 7675.013184
vn 0.256163 0.765497 0.590250
vt -3.122491 -3.623779
v 1679.766602 762.711853 7666.446289
vn 0.343348 -0.059749 0.937306
vt -2.929948 -3.242935
v 1679.766602 762.711853 7666.446289
vn 0.343348 -0.059749 0.937306
vt -3.929948 -3.242935
v 1782.659424 697.451782 7620.237305
vn 0.389063 0.846478 0.363462
vt -3.607724 -3.349907
v 1773.771118 763.702332 7611.458008
vn 0.671294 -0.120031 0.731407
vt -3.274106 -3.009949
v 1846.750610 697.451782 7528.573730
vn 0.584845 0.783197 0.211088
vt -3.928180 -2.891586
v 1829.718994 763.642639 7527.831543
vn 0.899916 -0.008139 0.435988
vt -3.553845 -2.591820
v 1846.750610 697.451782 7528.573730
vn 0.584845 0.783197 0.211088
vt -2.928180 -3.891586
v 1867.820435 697.451782 7420.268066
vn 0.645259 0.753848 0.123914
vt -3.033530 -3.350060
v 1856.388306 763.072510 7419.202148
vn 0.977152 -0.029810 0.210441
vt -2.631184 -3.145981
v 1856.388306 763.072510 7419.202148
vn 0.977152 -0.029810 0.210441
vt -3.631184 -3.145981
v 1829.718994 763.642639 7527.831543
vn 0.899916 -0.008139 0.435988
vt -3.553845 -3.591820
v 1846.750610 697.451782 7528.573730
vn 0.584845 0.783197 0.211088
vt -3.928180 -3.891586
v 1887.789429 697.451782 7296.663574
vn 0.568267 0.747110 0.344818
vt -3.133374 -2.732033
v 1884.308838 763.529541 7292.345703
vn 0.909652 -0.078939 0.407801
vt -2.770788 -2.511703
v 1887.789429 697.451782 7296.663574
vn 0.568267 0.747110 0.344818
vt -3.133374 -3.732033
v 1987.263184 697.451782 7187.156250
vn 0.336080 0.753523 0.565025
vt -3.630744 -3.184502
v 1983.381226 766.676331 7181.726563
vn 0.483773 -0.151560 0.861970
vt -3.455222 -2.862473
v 1884.308838 763.529541 7292.345703
vn 0.909652 -0.078939 0.407801
vt -2.770788 -3.511703
v 2135.401367 697.451782 7150.913574
vn 0.111328 0.758040 0.642636
vt -3.371435 -3.003288
v 2133.726318 765.557800 7139.381348
vn 0.075284 -0.086227 0.993427
vt -3.206947 -2.650749
v 1983.381226 766.676331 7181.726563
vn 0.483773 -0.151560 0.861970
vt -2.455222 -2.862473
v 1987.263184 697.451782 7187.156250
vn 0.336080 0.753523 0.565025
vt -2.630744 -3.184502
v 2255.559570 697.451782 7151.204102
vn 0.049143 0.749617 0.660044
vt -3.972226 -3.004738
v 2257.979980 761.775757 7145.214844
vn 0.164233 0.023898 0.986132
vt -3.724141 -2.653893
v 2367.801270 697.451782 7120.225586
vn 0.227952 0.748506 0.622717
vt -3.533435 -3.849846
v 2370.225342 762.539124 7109.637207
vn 0.391989 -0.003418 0.919963
vt -3.285368 -3.476006
v 2257.979980 761.775757 7145.214844
vn 0.164233 0.023898 0.986132
vt -2.724141 -3.653893
v 2257.979980 761.775757 7145.214844
vn 0.164233 0.023898 0.986132
vt -2.724141 -2.653893
v 2255.559570 697.451782 7151.204102
vn 0.049143 0.749617 0.660044
vt -2.972226 -3.004738
v 2367.801270 697.451782 7120.225586
vn 0.227952 0.748506 0.622717
vt -3.533435 -2.849846
v 2477.887207 697.451782 7063.199219
vn 0.342414 0.838740 0.423400
vt -3.083864 -3.564713
v 2474.139404 765.209106 7052.878418
vn 0.730596 -0.041766 0.681531
vt -2.752901 -3.192207
v 2370.225342 762.539124 7109.637207
vn 0.391989 -0.003418 0.919963
vt -2.285368 -3.476006
v 2367.801270 697.451782 7120.225586
vn 0.227952 0.748506 0.622717
vt -2.533435 -3.849846
v 2534.332275 697.451782 6959.508301
vn 0.692405 0.670551 0.266337
vt -3.366089 -3.046257
v 2524.780762 770.599182 6947.748535
vn 0.927268 -0.075195 0.366770
vt -2.929851 -2.840469
v 2534.332275 697.451782 6959.508301
vn 0.692405 0.670551 0.266337
vt -3.366089 -3.046257
v 2565.368408 697.451782 6828.374023
vn 0.604489 0.740889 0.292706
vt -3.521271 -2.390587
v 2559.528076 772.122803 6826.507813
vn 0.925545 -0.047312 0.375671
vt -3.156084 -2.113518
v 2524.780762 770.599182 6947.748535
vn 0.927268 -0.075195 0.366770
vt -2.929851 -2.840469
v 2565.368408 697.451782 6828.374023
vn 0.604489 0.740889 0.292706
vt -3.521271 -3.390587
v 2622.607910 697.451843 6738.221191
vn 0.442821 0.753107 0.486559
vt -3.807467 -2.939827
v 2617.814941 772.701050 6732.108887
vn 0.689937 -0.051771 0.722016
vt -3.447519 -2.641525
v 2559.528076 772.122803 6826.507813
vn 0.925545 -0.047312 0.375671
vt -3.156084 -3.113518
v 375.215179 776.205627 7024.708496
vn -0.038781 -0.191060 0.980812
vt 2.468783 -2.807495
v 360.661469 697.451782 7022.907227
vn -0.043246 0.893987 0.446000
vt 2.502264 -3.363251
v 2702.006592 697.451721 6697.735840
vn 0.395001 0.724329 0.565085
vt -3.204461 -3.737396
v 2703.303711 783.685425 6683.493164
vn 0.662124 -0.038028 0.748429
vt -2.874963 -3.398445
v 2617.814941 772.701050 6732.108887
vn 0.689937 -0.051771 0.722016
vt -2.447519 -3.641525
v 2622.607910 697.451843 6738.221191
vn 0.442821 0.753107 0.486559
vt -2.807467 -3.939827
v 2731.899170 697.451721 6666.616211
vn 0.000000 1.000000 0.000000
vt -3.353924 -3.581802
v 2702.006592 697.451721 6697.735840
vn 0.395001 0.724329 0.565085
vt -3.204461 -3.737396
v 2782.850586 697.451721 6736.797852
vn 0.000000 1.000000 -0.000000
vt -3.608681 -3.932709
v 2859.650146 697.451721 6725.352051
vn 0.000000 1.000000 0.000000
vt -3.992680 -3.875481
v 600.238403 697.451782 7136.846191
vn 0.000000 1.000000 0.000000
vt 1.304380 -2.932945
v 772.089844 697.451782 7154.381836
vn 0.000000 1.000000 0.000000
vt 0.445123 -3.020630
v 800.587769 697.451782 7081.614258
vn -0.173678 0.847137 0.502190
vt 0.302633 -2.656784
v 800.587769 697.451782 7081.614258
vn -0.173678 0.847137 0.502190
vt 0.302633 -3.656784
v 591.992798 697.451782 7045.338379
vn -0.060233 0.762470 0.644214
vt 1.345608 -3.475410
v 600.238403 697.451782 7136.846191
vn 0.000000 1.000000 0.000000
vt 1.304380 -3.932945
v 360.661469 697.451782 7022.907227
vn -0.043246 0.893987 0.446000
vt 2.502264 -3.363251
v 462.291260 697.451782 7104.414063
vn 0.000000 1.000000 0.000000
vt 1.994116 -3.770782
v 2702.006592 697.451721 6697.735840
vn 0.395001 0.724329 0.565085
vt -3.204461 -2.737396
v 2622.607910 697.451843 6738.221191
vn 0.442821 0.753107 0.486559
vt -2.807467 -2.939827
v 2698.717529 697.451843 6778.767090
vn 0.000000 1.000000 0.000000
vt -3.188016 -3.142555
v 2782.850586 697.451721 6736.797852
vn 0.000000 1.000000 -0.000000
vt -3.608681 -2.932709
v 1060.182373 697.451782 7371.959961
vn -0.491104 0.829934 0.264626
vt -0.995339 -3.108513
v 967.884277 697.451660 7202.555664
vn -0.527284 0.655658 0.540448
vt -0.533849 -2.261497
v 914.157471 697.451782 7259.819336
vn 0.000000 1.000000 0.000000
vt -0.265215 -2.547813
v 994.963501 697.451721 7399.921875
vn 0.000000 1.000000 0.000000
vt -0.669245 -3.248329
v 1049.727661 697.451721 7534.256348
vn 0.000000 1.000000 0.000000
vt -0.943066 -3.919998
v 1133.672729 697.451721 7511.090820
vn -0.541717 0.766155 0.345758
vt -1.362791 -3.804169
v 1218.597290 697.451721 7610.852539
vn -0.441859 0.762874 0.472001
vt -1.787414 -3.302979
v 1133.672729 697.451721 7511.090820
vn -0.541717 0.766155 0.345758
vt -1.362791 -2.804169
v 1126.438599 697.451721 7622.208496
vn 0.000000 1.000000 0.000000
vt -1.326620 -3.359756
v 1203.015259 697.451660 7684.708496
vn -0.000000 1.000000 0.000000
vt -1.709503 -3.672256
v 1435.072144 697.451660 7752.726563
vn 0.000000 1.000000 0.000001
vt -2.869787 -3.012352
v 1446.152832 697.451782 7696.816406
vn -0.094380 0.503260 0.858966
vt -2.925191 -2.732796
v 1330.551025 697.451782 7672.970215
vn -0.225176 0.827093 0.514988
vt -2.347182 -2.613571
v 1323.118286 697.451660 7731.806152
vn 0.000000 1.000000 0.000001
vt -2.310018 -2.907745
v 1567.346924 697.451782 7697.282715
vn 0.088774 0.744624 0.661554
vt -3.531162 -2.735130
v 1581.982666 697.451782 7753.614746
vn 0.000000 1.000000 0.000000
vt -3.604340 -3.016792
v 1685.612915 697.451782 7675.013184
vn 0.256163 0.765497 0.590250
vt -3.122491 -2.623779
v 1567.346924 697.451782 7697.282715
vn 0.088774 0.744624 0.661554
vt -2.531162 -2.735130
v 1581.982666 697.451782 7753.614746
vn 0.000000 1.000000 0.000000
vt -2.604340 -3.016792
v 1715.913696 697.451782 7735.744629
vn 0.000000 1.000000 0.000000
vt -3.273995 -2.927444
v 1782.659424 697.451782 7620.237305
vn 0.389063 0.846478 0.363462
vt -3.607724 -3.349907
v 1685.612915 697.451782 7675.013184
vn 0.256163 0.765497 0.590250
vt -3.122491 -3.623779
v 1715.913696 697.451782 7735.744629
vn 0.000000 1.000000 0.000000
vt -3.273995 -3.927444
v 1834.561646 697.451660 7671.012695
vn 0.000000 1.000000 0.000000
vt -3.867235 -3.603783
v 1891.679077 697.451660 7568.789551
vn 0.000000 1.000000 0.000000
vt -3.152822 -3.092667
v 1846.750610 697.451782 7528.573730
vn 0.584845 0.783197 0.211088
vt -2.928180 -2.891586
v 1782.659424 697.451782 7620.237305
vn 0.389063 0.846478 0.363462
vt -2.607724 -3.349907
v 1834.561646 697.451660 7671.012695
vn 0.000000 1.000000 0.000000
vt -2.867235 -3.603783
v 1944.689453 697.451721 7461.797852
vn 0.000000 1.000000 0.000000
vt -3.417874 -3.557709
v 1867.820435 697.451782 7420.268066
vn 0.645259 0.753848 0.123914
vt -3.033530 -3.350060
v 1846.750610 697.451782 7528.573730
vn 0.584845 0.783197 0.211088
vt -2.928180 -3.891586
v 1944.689453 697.451721 7461.797852
vn 0.000000 1.000000 0.000000
vt -3.417874 -2.557709
v 1975.239380 697.451721 7354.732422
vn 0.000000 1.000000 0.000000
vt -3.570624 -3.022377
v 1887.789429 697.451782 7296.663574
vn 0.568267 0.747110 0.344818
vt -3.133374 -2.732033
v 2049.010986 697.451721 7254.269531
vn 0.000000 1.000000 0.000000
vt -3.939483 -3.520065
v 1987.263184 697.451782 7187.156250
vn 0.336080 0.753523 0.565025
vt -3.630744 -3.184502
v 1887.789429 697.451782 7296.663574
vn 0.568267 0.747110 0.344818
vt -3.133374 -3.732033
v 2049.010986 697.451721 7254.269531
vn 0.000000 1.000000 0.000000
vt -3.939483 -2.520065
v 2135.401367 697.451782 7150.913574
vn 0.111328 0.758040 0.642636
vt -3.371435 -3.003288
v 1987.263184 697.451782 7187.156250
vn 0.336080 0.753523 0.565025
vt -2.630744 -3.184502
v 2049.010986 697.451721 7254.269531
vn 0.000000 1.000000 0.000000
vt -2.939483 -3.520065
v 2167.927002 697.451721 7215.969727
vn 0.000000 1.000000 0.000000
vt -3.534062 -3.328568
v 2255.559570 697.451782 7151.204102
vn 0.049143 0.749617 0.660044
vt -3.972226 -3.004738
v 2167.927002 697.451721 7215.969727
vn 0.000000 1.000000 0.000000
vt -2.534062 -3.328568
v 2295.198242 697.451721 7216.431152
vn 0.000000 1.000000 0.000000
vt -3.170419 -3.330872
v 2255.559570 697.451782 7151.204102
vn 0.049143 0.749617 0.660044
vt -2.972226 -3.004738
v 2367.801270 697.451782 7120.225586
vn 0.227952 0.748506 0.622717
vt -3.533435 -2.849846
v 2406.656250 697.451721 7170.150391
vn 0.000000 1.000000 0.000000
vt -3.727710 -3.099472
v 2477.887207 697.451782 7063.199219
vn 0.342414 0.838740 0.423400
vt -3.083864 -2.564713
v 2367.801270 697.451782 7120.225586
vn 0.227952 0.748506 0.622717
vt -2.533435 -2.849846
v 2406.656250 697.451721 7170.150391
vn 0.000000 1.000000 0.000000
vt -2.727710 -3.099472
v 2519.695068 697.451782 7105.746094
vn 0.000000 1.000000 0.000000
vt -3.292903 -2.777451
v 2602.067871 697.451782 6986.885742
vn 0.000000 1.000000 0.000000
vt -3.704767 -3.183144
v 2534.332275 697.451782 6959.508301
vn 0.692405 0.670551 0.266337
vt -3.366089 -3.046257
v 2477.887207 697.451782 7063.199219
vn 0.342414 0.838740 0.423400
vt -3.083864 -3.564713
v 2519.695068 697.451782 7105.746094
vn 0.000000 1.000000 0.000000
vt -3.292903 -3.777451
v 2637.362061 697.451782 6868.550293
vn 0.000000 1.000000 0.000000
vt -3.881239 -2.591469
v 2565.368408 697.451782 6828.374023
vn 0.604489 0.740889 0.292706
vt -3.521271 -2.390587
v 2565.368408 697.451782 6828.374023
vn 0.604489 0.740889 0.292706
vt -2.521271 -3.390587
v 2637.362061 697.451782 6868.550293
vn 0.000000 1.000000 0.000000
vt -2.881239 -3.591469
v 1049.727661 697.451721 7534.256348
vn 0.000000 1.000000 0.000000
vt -0.943066 -2.919998
v 361.623383 697.451843 7094.395020
vn 0.000000 1.000000 0.000000
vt 2.497455 -3.720688
v 914.157471 697.451782 7259.819336
vn 0.000000 1.000000 0.000000
vt -0.265215 -3.547813
v 967.884277 697.451660 7202.555664
vn -0.527284 0.655658 0.540448
vt -0.533849 -3.261497
v 1330.551025 697.451782 7672.970215
vn -0.225176 0.827093 0.514988
vt -2.347182 -3.613571
v 1323.118286 697.451660 7731.806152
vn 0.000000 1.000000 0.000001
vt -2.310018 -3.907745
v 2731.899170 697.451721 6666.616211
vn 0.000000 1.000000 0.000000
vt -2.353924 -3.581802
v 2859.650146 697.451721 6725.352051
vn 0.000000 1.000000 0.000000
vt -2.992680 -3.875481
v 2872.934082 697.451721 6697.284668
vn 0.000000 1.000000 0.000000
vt -3.059099 -3.735146
v 2769.267822 697.451721 6647.387695
vn 0.000000 1.000000 0.000000
vt -2.540768 -3.485657
f 36/36/36 37/37/37 38/38/38
f 15/15/15 17/17/17 18/18/18
f 17/17/17 15/15/15 16/16/16
f 19/19/19 16/16/16 15/15/15
f 16/16/16 19/19/19 20/20/20
f 21/21/21 20/20/20 19/19/19
f 20/20/20 21/21/21 22/22/22
f 24/24/24 22/22/22 21/21/21
f 21/21/21 23/23/23 24/24/24
f 28/28/28 24/24/24 23/23/23
f 10/10/10 13/13/13 14/14/14
f 13/13/13 10/10/10 9/9/9
f 11/11/11 9/9/9 10/10/10
f 9/9/9 11/11/11 12/12/12
f 4/4/4 71/71/71 72/72/72
f 71/71/71 4/4/4 3/3/3
f 1/1/1 3/3/3 4/4/4
f 3/3/3 1/1/1 2/2/2
f 130/130/130 126/126/126 125/125/125
f 122/122/122 125/125/125 126/126/126
f 125/125/125 122/122/122 121/121/121
f 123/123/123 121/121/121 122/122/122
f 39/39/39 40/40/40 34/34/34
f 35/35/35 34/34/34 40/40/40
f 34/34/34 35/35/35 33/33/33
f 89/89/89 91/91/91 92/92/92
f 91/91/91 89/89/89 90/90/90
f 151/151/151 91/91/91 90/90/90
f 91/91/91 151/151/151 152/152/152
f 95/95/95 93/93/93 94/94/94
f 93/93/93 95/95/95 96/96/96
f 93/93/93 97/97/97 98/98/98
f 97/97/97 93/93/93 96/96/96
f 101/101/101 100/100/100 153/153/153
f 100/100/100 101/101/101 99/99/99
f 102/102/102 99/99/99 101/101/101
f 99/99/99 102/102/102 157/157/157
f 158/158/158 157/157/157 102/102/102
f 108/108/108 107/107/107 103/103/103
f 104/104/104 103/103/103 107/107/107
f 103/103/103 104/104/104 105/105/105
f 105/105/105 106/106/106 103/103/103
f 83/83/83 155/155/155 156/156/156
f 155/155/155 83/83/83 82/82/82
f 81/81/81 82/82/82 83/83/83
f 31/31/31 32/32/32 29/29/29
f 30/30/30 29/29/29 32/32/32
f 29/29/29 30/30/30 26/26/26
f 27/27/27 26/26/26 30/30/30
f 26/26/26 27/27/27 25/25/25
f 43/43/43 41/41/41 42/42/42
f 41/41/41 43/43/43 44/44/44
f 46/46/46 49/49/49 50/50/50
f 49/49/49 46/46/46 45/45/45
f 47/47/47 45/45/45 46/46/46
f 45/45/45 47/47/47 48/48/48
f 75/75/75 73/73/73 74/74/74
f 73/73/73 75/75/75 76/76/76
f 79/79/79 77/77/77 78/78/78
f 77/77/77 79/79/79 80/80/80
f 88/88/88 87/87/87 154/154/154
f 87/87/87 88/88/88 85/85/85
f 86/86/86 85/85/85 88/88/88
f 85/85/85 86/86/86 84/84/84
f 111/111/111 109/109/109 110/110/110
f 109/109/109 111/111/111 112/112/112
f 115/115/115 113/113/113 114/114/114
f 113/113/113 115/115/115 116/116/116
f 124/124/124 118/118/118 117/117/117
f 119/119/119 117/117/117 118/118/118
f 117/117/117 119/119/119 120/120/120
f 143/143/143 141/141/141 142/142/142
f 141/141/141 143/143/143 144/144/144
f 146/146/146 149/149/149 150/150/150
f 149/149/149 146/146/146 145/145/145
f 147/147/147 145/145/145 146/146/146
f 145/145/145 147/147/147 148/148/148
f 161/161/161 159/159/159 160/160/160
f 159/159/159 161/161/161 162/162/162
f 7/7/7 5/5/5 6/6/6
f 5/5/5 7/7/7 8/8/8
f 51/51/51 52/52/52 53/53/53
f 54/54/54 55/55/55 56/56/56
f 58/58/58 61/61/61 62/62/62
f 61/61/61 58/58/58 57/57/57
f 59/59/59 57/57/57 58/58/58
f 57/57/57 59/59/59 60/60/60
f 65/65/65 63/63/63 64/64/64
f 63/63/63 65/65/65 66/66/66
f 69/69/69 67/67/67 68/68/68
f 67/67/67 69/69/69 70/70/70
f 127/127/127 128/128/128 129/129/129
f 132/132/132 133/133/133 131/131/131
f 134/134/134 131/131/131 133/133/133
f 131/131/131 134/134/134 135/135/135
f 140/140/140 139/139/139 137/137/137
f 138/138/138 137/137/137 139/139/139
f 137/137/137 138/138/138 136/136/136
