mtllib EKH_JAIL_PS_JA_GR_CYLINDER22.mtl
g A_GR_Cylinder22
usemtl Cave_Wall
v -8654.172852 219.571838 8007.241699
vn 0.709584 0.158575 -0.686545
vt 0.768422 0.684469
v -8668.457031 371.136261 8013.459473
vn 0.463766 0.073995 -0.882862
vt 0.768389 0.376755
v -8646.534180 373.156921 8057.358887
vn 0.972807 0.212426 -0.092314
vt 0.862066 0.376636
v -8621.692383 220.892426 8071.555176
vn 0.954117 0.277328 0.112916
vt 0.856769 0.675179
v -8660.780273 367.921173 8092.895020
vn 0.558547 0.306707 0.770685
vt 1.000000 0.376640
v -8643.902344 217.446289 8125.496582
vn 0.608568 0.367205 0.703425
vt 1.000000 0.674376
v -8700.019531 211.721252 8141.184570
vn -0.097216 0.389735 0.915782
vt 0.122500 0.683706
v -8643.902344 217.446289 8125.496582
vn 0.608568 0.367205 0.703425
vt 0.000000 0.672858
v -8660.780273 367.921173 8092.895020
vn 0.558547 0.306707 0.770685
vt 0.000000 0.376594
v -8697.420898 359.223999 8102.836914
vn -0.155506 0.241720 0.957804
vt 0.134880 0.376541
v -8736.944336 347.617767 8088.367188
vn -0.781428 0.253158 0.570334
vt 0.235314 0.376686
v -8759.564453 204.500702 8113.572266
vn -0.767940 0.357696 0.531340
vt 0.236037 0.672455
v -8767.072266 205.739853 8042.277832
vn -0.943968 0.265693 -0.195785
vt 0.424969 0.685718
v -8742.564453 349.481232 8040.044434
vn -0.933781 0.024106 -0.357031
vt 0.432470 0.376790
v -8711.829102 214.438202 7996.871094
vn -0.272543 0.128591 -0.953512
vt 0.618311 0.684499
v -8706.252930 363.287170 8006.140137
vn -0.346209 -0.039461 -0.937327
vt 0.617249 0.376817
v -8660.756836 489.058746 8051.172852
vn 0.988196 0.152917 -0.009196
vt 0.861503 0.144672
v -8680.799805 487.003021 8008.509277
vn 0.623995 0.029879 -0.780857
vt 0.760693 0.145203
v -8696.849609 617.735107 7997.173828
vn 0.738550 0.133611 -0.660827
vt 0.752998 -0.093679
v -8671.297852 620.456116 8054.805176
vn 0.980201 0.178296 0.086119
vt 0.860941 -0.094623
v -8689.123047 603.613892 8097.521973
vn 0.667516 -0.025889 0.744145
vt 1.000000 -0.121371
v -8674.464844 480.299347 8084.243652
vn 0.649468 0.092202 0.754778
vt 1.000000 0.131299
v -8674.464844 480.299347 8084.243652
vn 0.649468 0.092202 0.754778
vt 0.000000 0.129623
v -8689.123047 603.613892 8097.521973
vn 0.667516 -0.025889 0.744145
vt 0.000000 -0.124679
v -8732.024414 579.773743 8108.520996
vn -0.040722 -0.310652 0.949651
vt 0.125330 -0.129011
v -8708.289063 467.203156 8093.193359
vn -0.081420 -0.057767 0.995004
vt 0.130105 0.127430
v -8781.591797 560.340576 8081.325684
vn -0.718435 -0.538814 0.439921
vt 0.228586 -0.118860
v -8745.864258 454.423309 8075.947754
vn -0.790230 -0.162329 0.590919
vt 0.231950 0.132578
v -8750.854492 458.194489 8029.300781
vn -0.849701 -0.351431 -0.393070
vt 0.439205 0.136490
v -8788.042969 568.204651 8018.797363
vn -0.657635 -0.467570 -0.590673
vt 0.445941 -0.111140
v -8715.369141 475.522705 8001.314941
vn -0.165707 -0.190141 -0.967671
vt 0.615084 0.141558
v -8740.408203 597.188782 7987.165527
vn -0.003034 -0.147118 -0.989114
vt 0.612919 -0.101030
v -8689.181641 744.808411 8063.079590
vn 0.945009 0.327029 -0.003129
vt 0.840784 -0.316943
v -8725.833984 748.104797 7991.355957
vn 0.573024 0.268831 -0.774192
vt 0.742476 -0.322087
v -8710.238281 720.609314 8118.698242
vn 0.667463 0.009583 0.744581
vt 1.000000 -0.316862
v -8767.414063 692.747620 8134.259277
vn -0.012260 -0.397027 0.917725
vt 0.134686 -0.324435
v -8710.238281 720.609314 8118.698242
vn 0.667463 0.009583 0.744581
vt 0.000000 -0.315736
v -8834.079102 673.849670 8099.903320
vn -0.601499 -0.661770 0.447504
vt 0.252249 -0.315279
v -8845.183594 689.112061 8021.202637
vn -0.702678 -0.553573 -0.446991
vt 0.459083 -0.325680
v -8785.350586 726.336304 7979.843750
vn -0.151418 -0.110746 -0.982246
vt 0.613768 -0.328710
v -8735.865234 913.179382 8088.823242
vn 0.829024 0.557370 0.045367
vt 0.862802 -0.555403
v -8778.556641 914.938110 8000.884766
vn 0.469945 0.532137 -0.704260
vt 0.747100 -0.557821
v -8760.130859 873.065857 8154.813965
vn 0.637725 0.091655 0.764792
vt 1.000000 -0.556409
v -8826.641602 824.037231 8169.808105
vn 0.024343 -0.489549 0.871636
vt 0.163709 -0.561835
v -8760.130859 873.065857 8154.813965
vn 0.637725 0.091655 0.764792
vt 0.000000 -0.560130
v -8903.269531 790.661621 8124.227051
vn -0.494226 -0.784577 0.374405
vt 0.288630 -0.576830
v -8916.129883 813.628967 8029.510742
vn -0.644422 -0.600284 -0.473687
vt 0.448306 -0.581006
v -8847.652344 875.040100 7982.788574
vn -0.178488 0.037084 -0.983243
vt 0.611816 -0.571429
v -8804.214844 1025.657471 8120.819824
vn 0.849694 0.513821 0.118358
vt 0.871819 -0.844391
v -8850.649414 1025.763550 8026.736816
vn 0.536082 0.436700 -0.722433
vt 0.755408 -0.843446
v -8828.480469 976.428955 8192.791016
vn 0.582543 0.196799 0.788615
vt 1.000000 -0.852223
v -8899.212891 914.273804 8207.426758
vn 0.034776 -0.421481 0.906170
vt 0.171397 -0.854862
v -8828.480469 976.428955 8192.791016
vn 0.582543 0.196799 0.788615
vt 0.000000 -0.853566
v -8978.759766 872.477905 8154.876953
vn -0.418294 -0.867372 0.269621
vt 0.284235 -0.833354
v -8993.411133 899.600098 8054.147949
vn -0.438052 -0.723017 -0.534188
vt 0.457527 -0.828689
v -8924.935547 974.589478 8004.849121
vn -0.058669 -0.125103 -0.990408
vt 0.602049 -0.824768
f 7/7/7 8/8/8 9/9/9
f 9/9/9 10/10/10 7/7/7
f 10/10/10 9/9/9 26/26/26
f 23/23/23 26/26/26 9/9/9
f 26/26/26 23/23/23 25/25/25
f 24/24/24 25/25/25 23/23/23
f 25/25/25 24/24/24 36/36/36
f 37/37/37 36/36/36 24/24/24
f 36/36/36 37/37/37 44/44/44
f 45/45/45 44/44/44 37/37/37
f 44/44/44 45/45/45 52/52/52
f 53/53/53 52/52/52 45/45/45
f 12/12/12 7/7/7 11/11/11
f 10/10/10 11/11/11 7/7/7
f 11/11/11 10/10/10 28/28/28
f 26/26/26 28/28/28 10/10/10
f 28/28/28 26/26/26 27/27/27
f 25/25/25 27/27/27 26/26/26
f 27/27/27 25/25/25 38/38/38
f 36/36/36 38/38/38 25/25/25
f 38/38/38 36/36/36 46/46/46
f 44/44/44 46/46/46 36/36/36
f 46/46/46 44/44/44 54/54/54
f 52/52/52 54/54/54 44/44/44
f 11/11/11 13/13/13 12/12/12
f 13/13/13 11/11/11 14/14/14
f 28/28/28 14/14/14 11/11/11
f 14/14/14 28/28/28 29/29/29
f 27/27/27 29/29/29 28/28/28
f 29/29/29 16/16/16 14/14/14
f 15/15/15 14/14/14 16/16/16
f 14/14/14 15/15/15 13/13/13
f 1/1/1 15/15/15 2/2/2
f 16/16/16 2/2/2 15/15/15
f 2/2/2 16/16/16 31/31/31
f 29/29/29 31/31/31 16/16/16
f 31/31/31 29/29/29 30/30/30
f 27/27/27 30/30/30 29/29/29
f 30/30/30 27/27/27 39/39/39
f 38/38/38 39/39/39 27/27/27
f 39/39/39 38/38/38 47/47/47
f 46/46/46 47/47/47 38/38/38
f 47/47/47 46/46/46 55/55/55
f 54/54/54 55/55/55 46/46/46
f 4/4/4 1/1/1 3/3/3
f 2/2/2 3/3/3 1/1/1
f 3/3/3 2/2/2 18/18/18
f 31/31/31 18/18/18 2/2/2
f 18/18/18 31/31/31 32/32/32
f 30/30/30 32/32/32 31/31/31
f 32/32/32 30/30/30 40/40/40
f 39/39/39 40/40/40 30/30/30
f 40/40/40 39/39/39 48/48/48
f 47/47/47 48/48/48 39/39/39
f 48/48/48 47/47/47 56/56/56
f 55/55/55 56/56/56 47/47/47
f 18/18/18 17/17/17 3/3/3
f 17/17/17 18/18/18 19/19/19
f 32/32/32 19/19/19 18/18/18
f 19/19/19 32/32/32 34/34/34
f 40/40/40 34/34/34 32/32/32
f 34/34/34 40/40/40 42/42/42
f 48/48/48 42/42/42 40/40/40
f 42/42/42 48/48/48 50/50/50
f 56/56/56 50/50/50 48/48/48
f 19/19/19 20/20/20 17/17/17
f 20/20/20 19/19/19 33/33/33
f 34/34/34 33/33/33 19/19/19
f 33/33/33 34/34/34 41/41/41
f 42/42/42 41/41/41 34/34/34
f 41/41/41 42/42/42 49/49/49
f 50/50/50 49/49/49 42/42/42
f 6/6/6 4/4/4 5/5/5
f 3/3/3 5/5/5 4/4/4
f 5/5/5 3/3/3 22/22/22
f 17/17/17 22/22/22 3/3/3
f 22/22/22 17/17/17 21/21/21
f 20/20/20 21/21/21 17/17/17
f 21/21/21 20/20/20 35/35/35
f 33/33/33 35/35/35 20/20/20
f 35/35/35 33/33/33 43/43/43
f 41/41/41 43/43/43 33/33/33
f 43/43/43 41/41/41 51/51/51
f 49/49/49 51/51/51 41/41/41
