mtllib EKH_CAVERNS_PS_CA_OBJECT19.mtl
g CA_Object19
usemtl Stream_Floor_Blend
v -3090.219238 -2297.661865 8450.808594
vn 0.584408 0.272238 0.764430
vt -1.716962 -2.319923
v -3089.703125 -2209.911865 8420.267578
vn 0.674930 0.057136 0.735666
vt -1.522060 -2.264666
v -3160.920654 -2234.539307 8465.523438
vn 0.545158 -0.033967 0.837645
vt -1.506642 -2.379956
v -3153.089600 -2297.661865 8485.142578
vn 0.194995 0.813405 0.548042
vt -1.676606 -2.457392
v -3028.929932 -2297.661865 8360.207031
vn 0.858836 0.133001 0.494683
vt -1.675509 -2.105118
v -3029.812500 -2209.911865 8341.998047
vn 0.886360 0.011002 0.462866
vt -1.522014 -2.133609
v -2992.879395 -2297.661865 8251.697266
vn 0.897208 -0.033030 0.440371
vt -1.573036 -1.900678
v -2979.989014 -2209.911865 8244.641602
vn 0.843744 0.005152 0.536721
vt -1.429213 -1.982139
v -2923.358154 -2297.661865 8144.417969
vn 0.743102 -0.132066 0.656017
vt -1.519638 -1.650645
v -2905.934082 -2209.911865 8146.987305
vn 0.661984 0.006856 0.749486
vt -1.352943 -1.673797
v -2788.247559 -2297.661865 8047.331543
vn 0.484388 -0.149207 0.862036
vt -1.573412 -1.322268
v -2792.088379 -2209.911865 8064.446777
vn 0.410987 0.006528 0.911618
vt -1.402286 -1.293925
v -2675.145508 -2297.661865 8014.495605
vn 0.232998 -0.106290 0.966651
vt -1.686926 -1.115881
v -2674.057861 -2209.911865 8020.795898
vn 0.217940 0.007136 0.975936
vt -1.519618 -1.031497
v -2502.307129 -2297.661865 8001.871582
vn 0.201024 0.768221 0.607804
vt -1.913503 -0.853597
v -2538.151123 -2209.911865 7988.789551
vn 0.494934 0.048974 0.867549
vt -1.668731 -0.837337
v -2411.788330 -2297.661865 7929.195313
vn 0.421409 0.829772 0.365914
vt -1.938737 -0.622805
v -2453.264648 -2209.911865 7924.361816
vn 0.865005 0.110681 0.489404
vt -1.722240 -0.711488
v -2378.542725 -2297.661865 7822.961426
vn 0.520774 0.853568 0.014736
vt -1.835515 -0.425551
v -2423.130859 -2209.911865 7833.302734
vn 0.949616 0.161630 -0.268523
vt -1.670889 -0.609341
v -2434.897949 -2297.661865 7736.061523
vn 0.420348 0.835423 -0.354085
vt -1.632922 -0.382354
v -2462.797852 -2209.911865 7757.013672
vn 0.884847 -0.130402 -0.447259
vt -1.573156 -0.578474
v -2523.735840 -2297.661865 7684.312500
vn 0.308058 0.807275 -0.503396
vt -1.434102 -0.434806
v -2514.657471 -2230.195068 7713.167969
vn 0.488746 0.289445 -0.823012
vt -1.492492 -0.585229
v -2587.583496 -2297.661865 7649.652832
vn 0.218466 0.809273 -0.545298
vt -1.294792 -0.476084
v -2572.229248 -2209.911865 7690.069824
vn 0.272137 -0.128119 -0.953691
vt -1.424499 -0.614285
v -2717.103027 -2297.661865 7633.235352
vn -0.033395 0.813098 -0.581168
vt -1.088405 -0.636034
v -2715.864502 -2209.911865 7664.671875
vn -0.225963 0.109191 -0.967997
vt -1.295558 -0.722960
v -2612.230469 -2209.911865 7672.539551
vn 0.238505 0.145694 -0.960150
vt -1.376009 -0.633224
v -2803.725098 -2297.661865 7668.038086
vn -0.307727 0.806267 -0.505211
vt -1.015121 -0.807754
v -2802.251709 -2209.911865 7698.990234
vn -0.637070 0.068356 -0.767769
vt -1.251672 -0.815677
v -2881.545654 -2297.661865 7761.747559
vn -0.802433 0.174308 -0.570717
vt -1.037592 -1.050335
v -2875.456543 -2209.911865 7775.825684
vn -0.836770 0.036113 -0.546363
vt -1.251536 -1.048358
v -2926.886963 -2297.661865 7868.558594
vn -0.810630 -0.014318 -0.585383
vt -1.124523 -1.265511
v -2932.516113 -2209.911865 7863.648438
vn -0.719796 0.032193 -0.693439
vt -1.267985 -1.271291
v -2998.031982 -2297.661865 7925.109375
vn -0.576887 -0.025778 -0.816417
vt -1.103884 -1.446100
v -3002.627930 -2209.911865 7928.531738
vn -0.565604 0.048435 -0.823253
vt -1.274119 -1.448674
v -3098.363037 -2297.661865 7970.714844
vn -0.632814 0.162889 -0.756976
vt -1.026490 -1.652485
v -3089.430908 -2209.911865 7992.204590
vn -0.754261 0.061057 -0.653730
vt -1.212873 -1.680988
v -3182.277100 -2297.661865 8113.002930
vn -0.763578 0.032995 -0.644872
vt -1.109044 -1.972384
v -3171.537842 -2209.911865 8095.322266
vn -0.696512 0.041386 -0.716351
vt -1.239833 -2.024638
v -3255.245850 -2297.661865 8171.378418
vn -0.593184 -0.034953 -0.804308
vt -1.088406 -2.158132
v -3250.391602 -2209.911865 8166.664063
vn -0.588732 0.034148 -0.807606
vt -1.231402 -2.193216
v -3369.154541 -2297.661865 8233.021484
vn -0.622428 0.160591 -0.766025
vt -1.014490 -2.406400
v -3341.052002 -2209.911865 8236.838867
vn -0.751570 0.067340 -0.656208
vt -1.209275 -2.351190
v -3454.234375 -2297.661865 8340.274414
vn -0.496318 0.852628 -0.163382
vt -1.045848 -2.678400
v -3398.855957 -2209.911865 8328.220703
vn -0.986961 0.149395 0.059912
vt -1.224416 -2.518634
v -3411.497314 -2297.661865 8442.020508
vn -0.369325 0.868636 0.330259
vt -1.250179 -2.761852
v -3369.597900 -2209.911865 8413.533203
vn -0.691665 0.205315 0.692420
vt -1.301550 -2.530092
v -3226.755859 -2297.661865 8505.364258
vn 0.006862 0.826623 0.562714
vt -1.601025 -2.590169
v -3225.470215 -2252.576416 8488.807617
vn 0.139795 -0.110361 0.984011
vt -1.480910 -2.452811
v -3284.790039 -2230.934814 8471.247070
vn -0.433117 0.206483 0.877368
vt -1.403196 -2.515119
v -3302.675537 -2297.661865 8499.737305
vn -0.247434 0.435803 0.865362
vt -1.485699 -2.689577
f 29/29/29 26/26/26 25/25/25
f 24/24/24 25/25/25 26/26/26
f 25/25/25 24/24/24 23/23/23
f 22/22/22 23/23/23 24/24/24
f 23/23/23 22/22/22 21/21/21
f 20/20/20 21/21/21 22/22/22
f 21/21/21 20/20/20 19/19/19
f 18/18/18 19/19/19 20/20/20
f 19/19/19 18/18/18 17/17/17
f 16/16/16 17/17/17 18/18/18
f 17/17/17 16/16/16 15/15/15
f 14/14/14 15/15/15 16/16/16
f 15/15/15 14/14/14 13/13/13
f 12/12/12 13/13/13 14/14/14
f 13/13/13 12/12/12 11/11/11
f 10/10/10 11/11/11 12/12/12
f 11/11/11 10/10/10 9/9/9
f 8/8/8 9/9/9 10/10/10
f 9/9/9 8/8/8 7/7/7
f 6/6/6 7/7/7 8/8/8
f 7/7/7 6/6/6 5/5/5
f 2/2/2 5/5/5 6/6/6
f 5/5/5 2/2/2 1/1/1
f 3/3/3 1/1/1 2/2/2
f 1/1/1 3/3/3 4/4/4
f 51/51/51 4/4/4 3/3/3
f 4/4/4 51/51/51 50/50/50
f 52/52/52 50/50/50 51/51/51
f 50/50/50 52/52/52 53/53/53
f 48/48/48 53/53/53 52/52/52
f 52/52/52 49/49/49 48/48/48
f 47/47/47 48/48/48 49/49/49
f 48/48/48 47/47/47 46/46/46
f 45/45/45 46/46/46 47/47/47
f 46/46/46 45/45/45 44/44/44
f 43/43/43 44/44/44 45/45/45
f 44/44/44 43/43/43 42/42/42
f 41/41/41 42/42/42 43/43/43
f 42/42/42 41/41/41 40/40/40
f 39/39/39 40/40/40 41/41/41
f 40/40/40 39/39/39 38/38/38
f 37/37/37 38/38/38 39/39/39
f 38/38/38 37/37/37 36/36/36
f 35/35/35 36/36/36 37/37/37
f 36/36/36 35/35/35 34/34/34
f 33/33/33 34/34/34 35/35/35
f 34/34/34 33/33/33 32/32/32
f 31/31/31 32/32/32 33/33/33
f 32/32/32 31/31/31 30/30/30
f 28/28/28 30/30/30 31/31/31
f 30/30/30 28/28/28 27/27/27
f 29/29/29 27/27/27 28/28/28
f 27/27/27 29/29/29 25/25/25
