mtllib EKH_BARRELROOM_PS_JA1_LOFT05.mtl
g JA1_Loft05
usemtl smallBark
v -8929.382813 -732.508057 3016.592529
vn -0.946622 -0.220080 -0.235524
vt 0.218750 1.790930
v -8923.895508 -730.276672 3013.096680
vn 0.201148 0.125852 -0.971443
vt 0.000000 1.790930
v -8920.721680 -740.659180 3011.074707
vn -0.125971 0.152384 -0.980260
vt 0.000000 1.907608
v -8926.174805 -743.002563 3014.548828
vn -0.949498 -0.304767 0.074641
vt 0.218750 1.907608
v -8924.631836 -732.508118 3024.050049
vn -0.179740 -0.268780 0.946283
vt 0.500000 1.790930
v -8921.423828 -743.002563 3022.006348
vn 0.125971 -0.152384 0.980260
vt 0.500000 1.907608
v -8919.144531 -730.276672 3020.554199
vn 0.972718 0.078364 0.218353
vt 0.718750 1.790930
v -8915.970703 -740.659180 3018.532227
vn 0.949498 0.304767 -0.074641
vt 0.718750 1.907608
v -8923.895508 -730.276672 3013.096680
vn 0.201148 0.125852 -0.971443
vt 1.000000 1.790930
v -8920.721680 -740.659180 3011.074707
vn -0.125971 0.152384 -0.980260
vt 1.000000 1.907608
v -8933.102539 -718.787292 3017.389648
vn -0.972835 -0.046127 -0.226856
vt 0.218750 1.653022
v -8925.111328 -719.027405 3012.298828
vn 0.213294 -0.049532 -0.975732
vt 0.000000 1.653022
v -8926.926758 -718.787292 3027.084473
vn -0.203767 -0.106977 0.973157
vt 0.500000 1.653022
v -8918.935547 -719.027405 3021.993408
vn 0.967032 -0.137223 0.214520
vt 0.718750 1.653022
v -8925.111328 -719.027405 3012.298828
vn 0.213294 -0.049532 -0.975732
vt 1.000000 1.653022
v -8931.072266 -700.880432 3016.305908
vn -0.872205 0.384952 -0.301778
vt 0.218750 1.476127
v -8922.441406 -705.471130 3010.807373
vn 0.167866 -0.246890 -0.954393
vt 0.000000 1.476127
v -8925.085938 -700.880432 3025.702393
vn -0.151410 0.246960 0.957124
vt 0.500000 1.476127
v -8916.455078 -705.471130 3020.203857
vn 0.892290 -0.352137 0.282521
vt 0.718750 1.476127
v -8922.441406 -705.471130 3010.807373
vn 0.167866 -0.246890 -0.954393
vt 1.000000 1.476127
v -8921.298828 -689.708984 3010.498535
vn -0.656458 0.624988 -0.422437
vt 0.218750 1.332725
v -8915.644531 -696.339600 3006.896973
vn 0.034164 -0.503579 -0.863273
vt 0.000000 1.332725
v -8915.692383 -689.708984 3019.298584
vn 0.045483 0.574954 0.816920
vt 0.500000 1.332725
v -8910.039063 -696.339600 3015.696777
vn 0.737110 -0.559402 0.379129
vt 0.718750 1.332725
v -8915.644531 -696.339600 3006.896973
vn 0.034164 -0.503579 -0.863273
vt 1.000000 1.332725
v -8904.364258 -681.915039 3000.653809
vn -0.438947 0.702058 -0.560750
vt 0.218750 1.145113
v -8903.054688 -688.792542 2999.819580
vn -0.187910 -0.658691 -0.728571
vt 0.000000 1.145113
v -8899.613281 -681.915039 3008.111328
vn 0.242166 0.681228 0.690858
vt 0.500000 1.145113
v -8898.303711 -688.792542 3007.277100
vn 0.495429 -0.682134 0.537814
vt 0.718750 1.145113
v -8903.054688 -688.792542 2999.819580
vn -0.187910 -0.658691 -0.728571
vt 1.000000 1.145113
v -8875.666992 -681.919006 2982.372070
vn -0.489221 0.692480 -0.530221
vt 0.218750 0.790739
v -8874.870117 -688.796448 2981.864258
vn -0.327683 -0.701261 -0.633132
vt 0.000000 0.790739
v -8870.916016 -681.919006 2989.829590
vn 0.327683 0.701261 0.633132
vt 0.500000 0.790739
v -8870.119141 -688.796448 2989.321533
vn 0.489221 -0.692480 0.530222
vt 0.718750 0.790739
v -8874.870117 -688.796448 2981.864258
vn -0.327683 -0.701261 -0.633132
vt 1.000000 0.790739
v -8856.977539 -675.708313 2970.465332
vn -0.785564 0.502319 -0.361337
vt 0.218750 0.530548
v -8853.345703 -681.643677 2968.151367
vn -0.118023 -0.611704 -0.782233
vt 0.000000 0.530548
v -8852.226563 -675.708313 2977.922852
vn 0.110294 0.601092 0.791533
vt 0.500000 0.530548
v -8848.594727 -681.643677 2975.608887
vn 0.764999 -0.527096 0.370064
vt 0.718750 0.530548
v -8853.345703 -681.643677 2968.151367
vn -0.118023 -0.611704 -0.782233
vt 1.000000 0.530548
v -8849.092773 -661.703064 2965.442139
vn -0.960583 0.136395 -0.242233
vt 0.218750 0.329387
v -8841.708008 -663.807617 2960.737549
vn 0.134333 -0.319535 -0.938004
vt 0.000000 0.329387
v -8844.341797 -661.703064 2972.899414
vn -0.152341 0.268190 0.951245
vt 0.500000 0.329387
v -8836.957031 -663.807617 2968.194824
vn 0.947929 -0.199161 0.248527
vt 0.718750 0.329387
v -8841.708008 -663.807617 2960.737549
vn 0.134333 -0.319535 -0.938004
vt 1.000000 0.329387
v -8849.021484 -648.452148 2965.396484
vn -0.927019 -0.271640 -0.258548
vt 0.218750 0.170325
v -8840.125000 -646.786743 2959.729248
vn 0.200631 0.037393 -0.978953
vt 0.000000 0.170325
v -8844.270508 -648.452148 2972.854004
vn -0.178321 -0.154266 0.971804
vt 0.500000 0.170325
v -8835.374023 -646.786743 2967.186523
vn 0.943668 0.207249 0.257951
vt 0.718750 0.170325
v -8840.125000 -646.786743 2959.729248
vn 0.200631 0.037393 -0.978953
vt 1.000000 0.170325
v -8853.837891 -640.071045 2967.416992
vn -0.675724 -0.607854 -0.417027
vt 0.218750 0.040551
v -8847.419922 -633.270630 2963.328125
vn 0.007970 0.483081 -0.875539
vt 0.000000 0.040551
v -8848.136719 -640.071045 2976.365967
vn -0.015289 -0.496183 0.868083
vt 0.500000 0.040551
v -8841.718750 -633.270630 2972.277100
vn 0.679935 0.581751 0.446378
vt 0.718750 0.040551
v -8847.419922 -633.270630 2963.328125
vn 0.007970 0.483081 -0.875539
vt 1.000000 0.040551
v -8864.861328 -635.620850 2974.649170
vn -0.356718 -0.688642 -0.631288
vt 0.218750 -0.134267
v -8864.440430 -628.854065 2974.380859
vn -0.405715 0.689028 -0.600529
vt 0.000000 -0.134267
v -8859.350586 -635.620850 2983.299805
vn 0.288998 -0.689500 0.664131
vt 0.500000 -0.134267
v -8858.929688 -628.854065 2983.031738
vn 0.254528 0.677334 0.690242
vt 0.718750 -0.134267
v -8864.440430 -628.854065 2974.380859
vn -0.405715 0.689028 -0.600529
vt 1.000000 -0.134267
v -8874.029297 -638.926514 2981.328125
vn -0.012799 -0.506334 -0.862242
vt 0.218750 -0.281088
v -8876.372070 -635.169495 2982.821289
vn -0.717836 0.573307 -0.395007
vt 0.000000 -0.281088
v -8869.278320 -638.926514 2988.785645
vn 0.659542 -0.611562 0.437032
vt 0.500000 -0.281088
v -8871.622070 -635.169495 2990.278809
vn -0.033402 0.503110 0.863577
vt 0.718750 -0.281088
v -8876.372070 -635.169495 2982.821289
vn -0.717836 0.573307 -0.395007
vt 1.000000 -0.281088
v -8879.420898 -649.449402 2985.196289
vn 0.182174 -0.112855 -0.976768
vt 0.218750 -0.462658
v -8885.113281 -648.371948 2988.822510
vn -0.927465 0.236809 -0.289362
vt 0.000000 -0.462658
v -8875.062500 -649.449402 2992.038086
vn 0.930527 -0.263002 0.254852
vt 0.500000 -0.462658
v -8880.754883 -648.371948 2995.664307
vn -0.178148 0.041939 0.983110
vt 0.718750 -0.462658
v -8885.113281 -648.371948 2988.822510
vn -0.927465 0.236809 -0.289362
vt 1.000000 -0.462658
v -8878.410156 -659.828247 2985.200928
vn 0.057496 0.392426 -0.917985
vt 0.218750 -0.600191
v -8882.411133 -663.441711 2987.750000
vn -0.876226 -0.349755 -0.331510
vt 0.000000 -0.600191
v -8874.638672 -659.828247 2991.119385
vn 0.944480 0.211539 0.251413
vt 0.500000 -0.600191
v -8878.640625 -663.441711 2993.668701
vn 0.027679 -0.523179 0.851773
vt 0.718750 -0.600191
v -8882.411133 -663.441711 2987.750000
vn -0.876226 -0.349755 -0.331510
vt 1.000000 -0.600191
v -8871.087891 -665.156677 2981.700928
vn -0.267701 0.488942 -0.830224
vt 0.218750 -0.723913
v -8871.298828 -669.508667 2981.835693
vn -0.318387 -0.805375 -0.500001
vt 0.000000 -0.723913
v -8868.373047 -665.156677 2985.962402
vn 0.609042 0.745631 0.270376
vt 0.500000 -0.723913
v -8868.583984 -669.508667 2986.097168
vn 0.577394 -0.520744 0.628842
vt 0.718750 -0.723913
v -8871.298828 -669.508667 2981.835693
vn -0.318387 -0.805375 -0.500001
vt 1.000000 -0.723913
v -8861.783203 -663.408691 2978.769043
vn 0.837121 0.121715 -0.533305
vt 0.218750 -0.832392
v -8861.783203 -663.408691 2978.769043
vn 0.837121 0.121715 -0.533305
vt 0.500000 -0.832392
v -8861.783203 -663.408691 2978.769043
vn 0.837121 0.121715 -0.533305
vt 0.718750 -0.832392
v -8861.783203 -663.408691 2978.769043
vn 0.837121 0.121715 -0.533305
vt 1.000000 -0.832392
v -8891.922852 -694.458496 2994.830811
vn 0.124760 -0.317488 -0.940019
vt 0.218750 1.423679
v -8894.593750 -691.597351 2996.532715
vn -0.777299 0.520956 -0.352720
vt 0.000000 1.423679
v -8885.052734 -684.346313 2990.454102
vn -0.684100 0.376519 -0.624693
vt 0.000000 1.794142
v -8883.177734 -687.813477 2989.260010
vn 0.166762 -0.753037 -0.636495
vt 0.218750 1.794142
v -8889.077148 -694.458496 2999.296387
vn 0.823833 -0.449539 0.345273
vt 0.500000 1.423679
v -8880.333008 -687.813477 2993.725586
vn 0.684100 -0.376518 0.624692
vt 0.500000 1.794142
v -8891.749023 -691.597351 3000.998291
vn -0.088982 0.398243 0.912954
vt 0.718750 1.423679
v -8882.207031 -684.346313 2994.919434
vn -0.166761 0.753037 0.636495
vt 0.718750 1.794142
v -8894.593750 -691.597351 2996.532715
vn -0.777299 0.520956 -0.352720
vt 1.000000 1.423679
v -8885.052734 -684.346313 2990.454102
vn -0.684100 0.376519 -0.624693
vt 1.000000 1.794142
v -8895.039063 -706.107422 2995.843262
vn 0.189233 0.156361 -0.969403
vt 0.218750 0.999861
v -8900.193359 -706.237732 2999.126953
vn -0.961404 0.101618 -0.255686
vt 0.000000 0.999861
v -8891.312500 -706.107422 3001.693115
vn 0.970119 -0.011995 0.242334
vt 0.500000 0.999861
v -8896.466797 -706.237732 3004.976807
vn -0.165996 -0.082290 0.982687
vt 0.718750 0.999861
v -8900.193359 -706.237732 2999.126953
vn -0.961404 0.101618 -0.255686
vt 1.000000 0.999861
v -8889.230469 -721.943909 2992.080078
vn -0.024579 0.531413 -0.846756
vt 0.218750 0.408932
v -8892.499023 -726.232849 2994.162109
vn -0.833317 -0.437688 -0.337657
vt 0.000000 0.408932
v -8885.447266 -721.943909 2998.019287
vn 0.860340 0.404583 0.310045
vt 0.500000 0.408932
v -8888.714844 -726.232849 3000.101318
vn 0.056592 -0.556729 0.828764
vt 0.718750 0.408932
v -8892.499023 -726.232849 2994.162109
vn -0.833317 -0.437688 -0.337657
vt 1.000000 0.408932
v -8870.431641 -732.119019 2981.139893
vn -0.254617 0.682743 -0.684859
vt 0.218750 -0.317637
v -8871.284180 -736.169800 2981.682861
vn -0.541066 -0.677597 -0.498106
vt 0.000000 -0.317637
v -8867.586914 -732.119019 2985.605469
vn 0.575204 0.664229 0.477432
vt 0.500000 -0.317637
v -8868.439453 -736.169800 2986.148438
vn 0.286579 -0.697342 0.656953
vt 0.718750 -0.317637
v -8871.284180 -736.169800 2981.682861
vn -0.541066 -0.677597 -0.498106
vt 1.000000 -0.317637
v -8851.194336 -733.934753 2968.883789
vn -0.450647 0.445803 -0.773419
vt 0.218750 -0.985858
v -8851.469727 -738.039978 2969.059326
vn -0.300146 -0.891607 -0.339042
vt 0.000000 -0.985858
v -8848.348633 -733.934753 2973.349365
vn 0.300146 0.891607 0.339042
vt 0.500000 -0.985858
v -8848.625000 -738.039978 2973.524902
vn 0.450647 -0.445803 0.773419
vt 0.718750 -0.985858
v -8851.469727 -738.039978 2969.059326
vn -0.300146 -0.891607 -0.339042
vt 1.000000 -0.985858
f 77/77/77 76/76/76 81/81/81
f 76/76/76 78/78/78 82/82/82
f 78/78/78 79/79/79 83/83/83
f 77/77/77 72/72/72 76/76/76
f 71/71/71 76/76/76 72/72/72
f 76/76/76 71/71/71 78/78/78
f 73/73/73 78/78/78 71/71/71
f 78/78/78 73/73/73 79/79/79
f 74/74/74 79/79/79 73/73/73
f 79/79/79 74/74/74 80/80/80
f 75/75/75 80/80/80 74/74/74
f 79/79/79 80/80/80 84/84/84
f 72/72/72 67/67/67 71/71/71
f 66/66/66 71/71/71 67/67/67
f 71/71/71 66/66/66 73/73/73
f 68/68/68 73/73/73 66/66/66
f 73/73/73 68/68/68 74/74/74
f 69/69/69 74/74/74 68/68/68
f 74/74/74 69/69/69 75/75/75
f 70/70/70 75/75/75 69/69/69
f 67/67/67 62/62/62 66/66/66
f 61/61/61 66/66/66 62/62/62
f 66/66/66 61/61/61 68/68/68
f 63/63/63 68/68/68 61/61/61
f 68/68/68 63/63/63 69/69/69
f 64/64/64 69/69/69 63/63/63
f 69/69/69 64/64/64 70/70/70
f 65/65/65 70/70/70 64/64/64
f 62/62/62 57/57/57 61/61/61
f 56/56/56 61/61/61 57/57/57
f 61/61/61 56/56/56 63/63/63
f 58/58/58 63/63/63 56/56/56
f 63/63/63 58/58/58 64/64/64
f 59/59/59 64/64/64 58/58/58
f 64/64/64 59/59/59 65/65/65
f 60/60/60 65/65/65 59/59/59
f 57/57/57 52/52/52 56/56/56
f 51/51/51 56/56/56 52/52/52
f 56/56/56 51/51/51 58/58/58
f 53/53/53 58/58/58 51/51/51
f 58/58/58 53/53/53 59/59/59
f 54/54/54 59/59/59 53/53/53
f 59/59/59 54/54/54 60/60/60
f 55/55/55 60/60/60 54/54/54
f 52/52/52 47/47/47 51/51/51
f 46/46/46 51/51/51 47/47/47
f 51/51/51 46/46/46 53/53/53
f 48/48/48 53/53/53 46/46/46
f 53/53/53 48/48/48 54/54/54
f 49/49/49 54/54/54 48/48/48
f 54/54/54 49/49/49 55/55/55
f 50/50/50 55/55/55 49/49/49
f 47/47/47 42/42/42 46/46/46
f 41/41/41 46/46/46 42/42/42
f 46/46/46 41/41/41 48/48/48
f 43/43/43 48/48/48 41/41/41
f 48/48/48 43/43/43 49/49/49
f 44/44/44 49/49/49 43/43/43
f 49/49/49 44/44/44 50/50/50
f 45/45/45 50/50/50 44/44/44
f 42/42/42 37/37/37 41/41/41
f 36/36/36 41/41/41 37/37/37
f 41/41/41 36/36/36 43/43/43
f 38/38/38 43/43/43 36/36/36
f 43/43/43 38/38/38 44/44/44
f 39/39/39 44/44/44 38/38/38
f 44/44/44 39/39/39 45/45/45
f 40/40/40 45/45/45 39/39/39
f 37/37/37 32/32/32 36/36/36
f 31/31/31 36/36/36 32/32/32
f 36/36/36 31/31/31 38/38/38
f 33/33/33 38/38/38 31/31/31
f 38/38/38 33/33/33 39/39/39
f 34/34/34 39/39/39 33/33/33
f 39/39/39 34/34/34 40/40/40
f 35/35/35 40/40/40 34/34/34
f 32/32/32 27/27/27 31/31/31
f 26/26/26 31/31/31 27/27/27
f 31/31/31 26/26/26 33/33/33
f 28/28/28 33/33/33 26/26/26
f 33/33/33 28/28/28 34/34/34
f 29/29/29 34/34/34 28/28/28
f 34/34/34 29/29/29 35/35/35
f 30/30/30 35/35/35 29/29/29
f 27/27/27 22/22/22 26/26/26
f 21/21/21 26/26/26 22/22/22
f 26/26/26 21/21/21 28/28/28
f 23/23/23 28/28/28 21/21/21
f 28/28/28 23/23/23 29/29/29
f 24/24/24 29/29/29 23/23/23
f 29/29/29 24/24/24 30/30/30
f 25/25/25 30/30/30 24/24/24
f 22/22/22 17/17/17 21/21/21
f 16/16/16 21/21/21 17/17/17
f 21/21/21 16/16/16 23/23/23
f 18/18/18 23/23/23 16/16/16
f 23/23/23 18/18/18 24/24/24
f 19/19/19 24/24/24 18/18/18
f 24/24/24 19/19/19 25/25/25
f 20/20/20 25/25/25 19/19/19
f 17/17/17 12/12/12 16/16/16
f 11/11/11 16/16/16 12/12/12
f 16/16/16 11/11/11 18/18/18
f 13/13/13 18/18/18 11/11/11
f 18/18/18 13/13/13 19/19/19
f 14/14/14 19/19/19 13/13/13
f 19/19/19 14/14/14 20/20/20
f 15/15/15 20/20/20 14/14/14
f 12/12/12 2/2/2 11/11/11
f 1/1/1 11/11/11 2/2/2
f 11/11/11 1/1/1 13/13/13
f 5/5/5 13/13/13 1/1/1
f 13/13/13 5/5/5 14/14/14
f 7/7/7 14/14/14 5/5/5
f 14/14/14 7/7/7 15/15/15
f 9/9/9 15/15/15 7/7/7
f 2/2/2 3/3/3 1/1/1
f 4/4/4 1/1/1 3/3/3
f 1/1/1 4/4/4 5/5/5
f 6/6/6 5/5/5 4/4/4
f 5/5/5 6/6/6 7/7/7
f 8/8/8 7/7/7 6/6/6
f 7/7/7 8/8/8 9/9/9
f 10/10/10 9/9/9 8/8/8
f 106/106/106 101/101/101 105/105/105
f 100/100/100 105/105/105 101/101/101
f 105/105/105 100/100/100 107/107/107
f 102/102/102 107/107/107 100/100/100
f 107/107/107 102/102/102 108/108/108
f 103/103/103 108/108/108 102/102/102
f 108/108/108 103/103/103 109/109/109
f 104/104/104 109/109/109 103/103/103
f 101/101/101 96/96/96 100/100/100
f 95/95/95 100/100/100 96/96/96
f 100/100/100 95/95/95 102/102/102
f 97/97/97 102/102/102 95/95/95
f 102/102/102 97/97/97 103/103/103
f 98/98/98 103/103/103 97/97/97
f 103/103/103 98/98/98 104/104/104
f 99/99/99 104/104/104 98/98/98
f 96/96/96 86/86/86 95/95/95
f 85/85/85 95/95/95 86/86/86
f 95/95/95 85/85/85 97/97/97
f 89/89/89 97/97/97 85/85/85
f 97/97/97 89/89/89 98/98/98
f 91/91/91 98/98/98 89/89/89
f 98/98/98 91/91/91 99/99/99
f 93/93/93 99/99/99 91/91/91
f 86/86/86 87/87/87 85/85/85
f 88/88/88 85/85/85 87/87/87
f 85/85/85 88/88/88 89/89/89
f 90/90/90 89/89/89 88/88/88
f 89/89/89 90/90/90 91/91/91
f 92/92/92 91/91/91 90/90/90
f 91/91/91 92/92/92 93/93/93
f 94/94/94 93/93/93 92/92/92
f 111/111/111 106/106/106 110/110/110
f 105/105/105 110/110/110 106/106/106
f 110/110/110 105/105/105 112/112/112
f 107/107/107 112/112/112 105/105/105
f 112/112/112 107/107/107 113/113/113
f 108/108/108 113/113/113 107/107/107
f 113/113/113 108/108/108 114/114/114
f 109/109/109 114/114/114 108/108/108
