mtllib EKH_GROTTO_PS_GR_SPIDER_ROOM_ROOF7.mtl
g ider_Room_Roof7
usemtl Web_Wall_Ground_Mix
v 6142.101563 2039.977295 8716.558594
vn 0.797766 -0.186800 0.573302
vt 1.125872 0.181588
v 6166.599609 2041.906372 8684.216797
vn 0.787308 -0.517102 0.335786
vt 0.987313 0.270978
v 6174.497070 2074.106445 8689.344727
vn 0.718594 -0.349191 0.601405
vt 0.966986 0.127378
v 6258.111816 2075.947266 8590.625000
vn 0.379421 -0.704211 0.600106
vt 0.420959 0.326944
v 6271.365234 2097.857178 8605.431641
vn 0.419873 -0.558663 0.715263
vt 0.409840 0.169566
v 6369.322754 2041.883789 8543.521484
vn -0.165380 -0.601376 0.781662
vt -0.081087 0.173025
v 6375.608398 2071.773193 8558.393555
vn 0.011388 -0.475971 0.879387
vt -0.068813 0.034899
v 6093.373047 1990.839722 8543.878906
vn 0.787053 -0.388750 -0.478980
vt 0.880779 0.980640
v 6102.217285 2021.474243 8536.457031
vn 0.460915 -0.769355 -0.442324
vt 0.788801 0.943041
v 6141.425293 2014.445923 8597.858398
vn 0.744277 -0.610580 -0.270636
vt 0.829811 0.628961
v 6128.877930 1985.959961 8609.156250
vn 0.862965 -0.348002 -0.366315
vt 0.944957 0.663998
v 6155.753906 2004.637329 8690.200195
vn 0.972439 -0.210168 0.100950
vt 1.098650 0.335674
v 6400.884277 2039.928345 8553.150391
vn -0.291531 -0.377528 0.878910
vt -0.221965 0.048571
v 6381.043945 2004.127808 8531.092773
vn -0.410602 -0.297366 0.861962
vt -0.217529 0.202552
v 6283.779297 2014.445923 8483.029297
vn -0.414621 -0.645486 0.641433
vt 0.034768 0.613572
v 6296.358398 1988.085815 8470.924805
vn -0.527440 -0.396125 0.751593
vt -0.103626 0.639621
v 6224.018555 2021.474243 8434.255859
vn -0.486805 -0.774418 0.404100
vt 0.097498 0.943035
v 6231.401367 1996.117554 8428.060547
vn -0.557010 -0.399865 0.727906
vt -0.027962 0.963925
v 6224.018555 2021.474243 8434.255859
vn -0.486805 -0.774418 0.404100
vt 0.097498 0.943035
v 6283.779297 2014.445923 8483.029297
vn -0.414621 -0.645486 0.641433
vt 0.034768 0.613572
v 6211.611328 2051.288330 8540.485352
vn 0.071015 -0.992203 0.102423
vt 0.435707 0.623898
v 6193.337402 2042.476685 8458.734375
vn -0.314856 -0.925465 0.210664
vt 0.268098 0.947251
v 6163.118164 2048.036865 8485.355469
vn -0.050235 -0.998645 0.013592
vt 0.443147 0.943039
v 6132.189941 2042.588379 8511.279297
vn 0.181503 -0.951668 -0.247758
vt 0.618607 0.943133
v 6369.322754 2041.883789 8543.521484
vn -0.165380 -0.601376 0.781662
vt -0.081087 0.173025
v 6258.111816 2075.947266 8590.625000
vn 0.379421 -0.704211 0.600106
vt 0.420959 0.326944
v 6166.599609 2041.906372 8684.216797
vn 0.787308 -0.517102 0.335786
vt 0.987313 0.270978
v 6141.425293 2014.445923 8597.858398
vn 0.744277 -0.610580 -0.270636
vt 0.829811 0.628961
v 6102.217285 2021.474243 8536.457031
vn 0.460915 -0.769355 -0.442324
vt 0.788801 0.943041
f 8/8/8 9/9/9 10/10/10
f 2/2/2 12/12/12 10/10/10
f 11/11/11 10/10/10 12/12/12
f 10/10/10 11/11/11 8/8/8
f 2/2/2 1/1/1 12/12/12
f 1/1/1 2/2/2 3/3/3
f 4/4/4 3/3/3 2/2/2
f 3/3/3 4/4/4 5/5/5
f 7/7/7 5/5/5 4/4/4
f 4/4/4 6/6/6 7/7/7
f 6/6/6 13/13/13 7/7/7
f 13/13/13 6/6/6 14/14/14
f 15/15/15 14/14/14 6/6/6
f 14/14/14 15/15/15 16/16/16
f 18/18/18 16/16/16 15/15/15
f 15/15/15 17/17/17 18/18/18
f 23/23/23 22/22/22 21/21/21
f 19/19/19 21/21/21 22/22/22
f 21/21/21 19/19/19 20/20/20
f 23/23/23 21/21/21 24/24/24
f 21/21/21 25/25/25 26/26/26
f 25/25/25 21/21/21 20/20/20
f 21/21/21 26/26/26 27/27/27
f 21/21/21 29/29/29 24/24/24
f 29/29/29 21/21/21 28/28/28
f 27/27/27 28/28/28 21/21/21
