mtllib EKH_BARRELROOM_PS_JA1_OBJECT115.mtl
g JA1_Object115
usemtl leaf
v -9808.739258 -687.178406 2343.139160
vn -0.500920 0.145440 0.853186
vt 0.500000 0.708125
v -9813.114258 -698.945557 2340.780762
vn -0.544282 0.039642 0.837965
vt 0.500000 0.999501
v -9802.373047 -691.168457 2346.424072
vn -0.379299 0.134323 0.915472
vt 0.094067 0.708125
v -9814.491211 -684.091248 2338.262695
vn -0.571095 0.246588 0.782972
vt 0.905933 0.708125
v -9799.162109 -671.383789 2340.802979
vn -0.144747 0.675401 0.723106
vt 0.500000 0.291875
v -9803.879883 -677.448425 2343.244385
vn -0.351447 0.419100 0.837162
vt 0.500000 0.500000
v -9792.795898 -675.373901 2344.087891
vn -0.088371 0.573395 0.814499
vt 0.094067 0.291875
v -9804.914063 -668.296631 2335.926514
vn -0.279645 0.680249 0.677540
vt 0.905933 0.291875
v -9794.606445 -667.352417 2337.071777
vn -0.051931 0.759426 0.648518
vt 0.500000 0.000499
v -9795.889648 -682.588562 2346.880371
vn -0.225818 0.339762 0.912999
vt 0.000500 0.500000
v -9810.799805 -673.880005 2336.837646
vn -0.470080 0.480798 0.740175
vt 0.999501 0.500000
f 4/4/4 2/2/2 1/1/1
f 3/3/3 1/1/1 2/2/2
f 1/1/1 3/3/3 6/6/6
f 10/10/10 6/6/6 3/3/3
f 6/6/6 10/10/10 7/7/7
f 4/4/4 1/1/1 6/6/6
f 5/5/5 6/6/6 7/7/7
f 6/6/6 11/11/11 4/4/4
f 11/11/11 6/6/6 8/8/8
f 5/5/5 8/8/8 6/6/6
f 8/8/8 5/5/5 9/9/9
f 7/7/7 9/9/9 5/5/5
