mtllib EKH_ENTRANCE_PS_EN_EDGEGRAB48474039.mtl
g dgegrab48474039
usemtl Edgegrab
v 318.904419 1282.102783 5389.167480
vn 0.287325 0.535002 -0.794492
vt 2.231877 0.341281
v 319.109467 1289.858154 5406.601074
vn 0.103081 0.714511 -0.691989
vt 2.231877 0.000000
v 409.323364 1289.858154 5409.513184
vn -0.060407 0.392643 -0.917705
vt 2.003700 0.000000
v 405.166840 1285.783325 5390.886719
vn -0.050584 0.721708 -0.690347
vt 2.003700 0.341281
v 708.412231 1289.858154 5236.192871
vn -0.691549 0.372681 -0.618764
vt 1.058784 0.000000
v 693.506470 1288.268188 5223.179199
vn -0.693884 0.425490 -0.580933
vt 1.058784 0.341281
v 627.463379 1288.268188 5289.840820
vn -0.534249 0.612132 -0.582986
vt 1.336865 0.341281
v 642.019104 1289.858154 5307.010254
vn -0.622068 0.396779 -0.674980
vt 1.336865 0.000000
v 794.660278 1244.433228 4935.478027
vn -0.980202 -0.163030 0.112363
vt 0.264846 1.000000
v 794.108643 1244.433228 4977.085938
vn -0.990361 -0.136383 -0.024180
vt 0.407110 1.000000
v 784.633057 1286.678589 4934.337891
vn -0.869840 0.456152 0.187895
vt 0.264855 0.341281
v 633.832275 1244.433228 5294.625977
vn -0.674923 -0.033601 -0.737123
vt 1.336856 1.000000
v 565.661194 1244.433228 5353.424805
vn -0.569581 -0.123447 -0.812612
vt 1.594579 1.000000
v 557.357727 1288.268188 5343.131348
vn -0.458477 0.581100 -0.672400
vt 1.594585 0.341281
v 799.818237 1289.858154 4935.689941
vn -0.557110 0.827584 0.068798
vt 0.264855 0.000000
v 781.500183 1288.268188 5015.555176
vn -0.728605 0.683545 -0.043602
vt 0.495877 0.341281
v 797.456055 1289.858154 5016.101074
vn -0.098922 0.995072 -0.006854
vt 0.495877 0.000000
v 793.557007 1244.433228 5018.693848
vn -0.986247 -0.135957 -0.093981
vt 0.495869 1.000000
v 784.296692 1244.433228 5094.574219
vn -0.935938 -0.103929 -0.336481
vt 0.663370 1.000000
v 773.290283 1288.268188 5089.714844
vn -0.908963 0.365317 -0.200823
vt 0.663379 0.341281
v 499.747253 1289.858154 5400.147461
vn -0.335140 0.373441 -0.864999
vt 1.797041 0.000000
v 571.068115 1289.858154 5359.957520
vn -0.522496 0.377057 -0.764739
vt 1.594585 0.000000
v 491.630615 1288.268188 5380.524414
vn -0.225530 0.377262 -0.898226
vt 1.797041 0.341281
v 406.996490 1244.433228 5399.533691
vn -0.016610 -0.084490 -0.996286
vt 2.003697 1.000000
v 496.183075 1244.433228 5393.153320
vn -0.332195 -0.148781 -0.931402
vt 1.797037 1.000000
v 319.130341 1244.433228 5394.109375
vn 0.091030 -0.075531 -0.992980
vt 2.231877 1.000000
v 788.896118 1289.858154 5094.416504
vn -0.889623 0.354491 -0.287935
vt 0.663379 0.000000
v 741.929321 1288.268188 5161.305664
vn -0.601155 0.721193 -0.344229
vt 0.842771 0.341281
v 757.185120 1289.858154 5170.163086
vn -0.803053 0.383910 -0.455762
vt 0.842771 0.000000
v 747.572998 1244.433228 5165.027344
vn -0.841298 -0.015677 -0.540344
vt 0.842762 1.000000
v 699.345093 1244.433228 5229.466797
vn -0.747022 -0.033364 -0.663962
vt 1.058776 1.000000
f 1/1/1 2/2/2 3/3/3
f 4/4/4 3/3/3 21/21/21
f 3/3/3 4/4/4 1/1/1
f 24/24/24 1/1/1 4/4/4
f 1/1/1 24/24/24 26/26/26
f 24/24/24 4/4/4 23/23/23
f 21/21/21 23/23/23 4/4/4
f 23/23/23 21/21/21 14/14/14
f 22/22/22 14/14/14 21/21/21
f 14/14/14 22/22/22 8/8/8
f 23/23/23 25/25/25 24/24/24
f 25/25/25 23/23/23 14/14/14
f 8/8/8 7/7/7 14/14/14
f 7/7/7 8/8/8 5/5/5
f 28/28/28 29/29/29 27/27/27
f 29/29/29 28/28/28 5/5/5
f 6/6/6 5/5/5 28/28/28
f 5/5/5 6/6/6 7/7/7
f 27/27/27 20/20/20 28/28/28
f 20/20/20 27/27/27 16/16/16
f 17/17/17 16/16/16 27/27/27
f 16/16/16 17/17/17 15/15/15
f 15/15/15 11/11/11 16/16/16
f 10/10/10 11/11/11 9/9/9
f 11/11/11 10/10/10 16/16/16
f 18/18/18 16/16/16 10/10/10
f 16/16/16 18/18/18 20/20/20
f 19/19/19 20/20/20 18/18/18
f 20/20/20 19/19/19 28/28/28
f 30/30/30 28/28/28 19/19/19
f 28/28/28 30/30/30 6/6/6
f 31/31/31 6/6/6 30/30/30
f 6/6/6 31/31/31 7/7/7
f 12/12/12 7/7/7 31/31/31
f 7/7/7 12/12/12 14/14/14
f 13/13/13 14/14/14 12/12/12
f 14/14/14 13/13/13 25/25/25
