mtllib EKH_CAVERNS_PS_CA_PLATFORM11114.mtl
g A_Platform11114
usemtl Cave_Blender
v -8165.153320 -1872.161011 9123.949219
vn -0.206410 0.508810 0.835767
vt 2.953460 -3.665479
v -8288.765625 -1872.161011 9056.970703
vn 0.853012 0.351192 0.386049
vt 3.252945 -3.754471
v -8288.766602 -1933.845703 9056.970703
vn 0.534977 -0.050221 0.843373
vt 3.193083 -3.878489
v -8167.082031 -1933.845825 9112.693359
vn -0.050389 -0.156234 0.986434
vt 2.871744 -3.761792
v -8050.914063 -1872.161011 9098.763672
vn 0.278589 0.652487 0.704733
vt 3.813525 -3.446394
v -8165.153320 -1872.161011 9123.949219
vn -0.206410 0.508810 0.835767
vt 3.953460 -3.665479
v -8167.082031 -1933.845825 9112.693359
vn -0.050389 -0.156234 0.986434
vt 3.871744 -3.761792
v -8052.842773 -1933.845825 9087.507813
vn 0.434280 -0.174792 0.883657
vt 3.688527 -3.508563
v -7934.663086 -1872.161011 9001.196289
vn 0.544486 0.654345 0.524755
vt 3.784167 -3.110410
v -7942.999023 -1933.845825 8995.971680
vn 0.745807 -0.165369 0.645310
vt 3.617680 -3.095382
v -7854.130859 -1872.161011 8870.090820
vn 0.817932 0.473825 0.326309
vt 3.863636 -2.777854
v -7862.466797 -1933.845703 8864.866211
vn 0.954025 -0.141977 0.263969
vt 3.715474 -2.706048
v -7849.271973 -1872.161011 8722.730469
vn 0.755297 0.655362 -0.005198
vt 3.087555 -3.538664
v -7854.130859 -1872.161011 8870.090820
vn 0.817932 0.473825 0.326309
vt 2.863636 -3.777854
v -7862.466797 -1933.845703 8864.866211
vn 0.954025 -0.141977 0.263969
vt 2.715474 -3.706048
v -7858.327637 -1933.845703 8723.650391
vn 0.991882 -0.124351 -0.026601
vt 2.972296 -3.389308
v -7858.586914 -1872.161011 8610.796875
vn 0.745371 0.655974 -0.118833
vt 3.278079 -3.377414
v -7849.271973 -1872.161011 8722.730469
vn 0.755297 0.655362 -0.005198
vt 3.087555 -3.538664
v -7858.327637 -1933.845703 8723.650391
vn 0.991882 -0.124351 -0.026601
vt 2.972296 -3.389308
v -7867.642578 -1933.845703 8611.716797
vn 0.975949 -0.115406 -0.184946
vt 3.158718 -3.240364
v -7888.727539 -1872.161011 8516.249023
vn 0.696209 0.669134 -0.259907
vt 3.511022 -3.302787
v -7897.051758 -1933.845703 8510.577148
vn 0.941732 -0.067108 -0.329600
vt 3.418593 -3.173861
v -7933.112793 -1872.161011 8431.514648
vn 0.765322 0.630147 -0.131135
vt 3.676900 -3.212806
v -7921.202637 -1933.845703 8429.163086
vn 0.999310 0.032576 0.017829
vt 3.555890 -3.080305
v -7905.471680 -1872.161011 8333.236328
vn 0.490155 0.843286 0.220491
vt 3.787896 -3.014942
v -7898.566406 -1933.845703 8342.571289
vn 0.866754 0.049266 0.496297
vt 3.637201 -2.946779
v -7843.573242 -1874.137329 8274.523438
vn 0.273136 0.278428 0.920801
vt 3.782889 -2.825419
v -7898.566406 -1933.845703 8342.571289
vn 0.866754 0.049266 0.496297
vt 3.637201 -3.946779
v -7843.573730 -1933.723022 8274.524414
vn 0.557157 -0.015584 0.830261
vt 3.659083 -3.811635
v -7843.573242 -1874.137329 8274.523438
vn 0.273136 0.278428 0.920801
vt 3.782889 -3.825419
v -8232.667969 -1822.162109 8940.297852
vn 0.995997 -0.047837 0.075511
vt 3.470186 -3.565610
v -8278.868164 -1822.161987 9069.963867
vn 0.977779 -0.065463 0.199157
vt 3.378465 -3.804401
v -8241.418945 -1872.161255 8937.454102
vn 0.621991 0.783021 0.002247
vt 3.366349 -3.492269
v -8411.694336 -1872.161133 8525.145508
vn 0.754018 0.563015 0.338336
vt 3.281791 -3.111951
v -8381.199219 -1872.161133 8495.586914
vn 0.789655 0.564642 0.240049
vt 3.280320 -3.017586
v -8380.190430 -1822.161987 8499.666016
vn 0.912330 0.028956 0.408430
vt 3.360431 -3.041183
v -8408.596680 -1822.161987 8531.315430
vn 0.986748 0.020731 0.160931
vt 3.349695 -3.159920
v -8029.742676 -1822.161987 8226.954102
vn -0.352992 0.002890 0.935622
vt 3.175416 -2.916999
v -8106.841309 -1822.161987 8183.103516
vn 0.068541 -0.053970 0.996187
vt 3.426281 -3.013618
v -8107.606445 -1871.049438 8179.267090
vn 0.049544 0.484066 0.873628
vt 3.347459 -3.090628
v -8021.525879 -1873.519775 8232.727539
vn -0.154372 0.908529 0.388258
vt 3.128192 -3.039370
v -8134.183594 -1871.049438 8200.126953
vn 0.387325 0.544364 0.744074
vt 3.356442 -3.165169
v -8134.925293 -1822.161987 8202.458008
vn 0.468944 -0.029420 0.882738
vt 3.445904 -3.117689
v -8176.966797 -1822.161987 8218.533203
vn 0.367392 -0.013028 0.929975
vt 3.479113 -3.224196
v -8174.719238 -1871.049438 8217.709961
vn 0.126663 0.947498 0.293605
vt 3.392510 -3.256492
v -8377.989258 -1872.161011 8453.647461
vn 0.441180 0.896699 0.035929
vt 3.341177 -2.946640
v -8379.070313 -1822.161987 8455.637695
vn 0.948089 0.073434 -0.309411
vt 3.397227 -2.960839
v -8257.155273 -1822.162109 8820.495117
vn 0.908096 0.027619 -0.417849
vt 3.625559 -3.444004
v -8260.448242 -1872.161255 8815.630859
vn 0.583762 0.718581 -0.377973
vt 3.587677 -3.330745
v -7843.573242 -1874.137329 8274.523438
vn 0.273136 0.278428 0.920801
vt 2.782889 -2.825419
v -7843.573242 -1874.137329 8274.523438
vn 0.273136 0.278428 0.920801
vt 2.782889 -3.825419
v -7854.035156 -1822.161987 8266.347656
vn 0.055354 0.124887 0.990626
vt 2.867531 -3.762586
v -8029.742676 -1822.161987 8226.954102
vn -0.352992 0.002890 0.935622
vt 3.175416 -3.916999
v -7755.439941 -1863.082886 8249.790039
vn 0.420563 0.098052 0.901949
vt 3.683267 -3.648067
v -7854.035156 -1822.161987 8266.347656
vn 0.055354 0.124887 0.990626
vt 3.867531 -3.762586
v -8342.142578 -1822.162109 8733.521484
vn 0.825196 0.034746 -0.563777
vt 2.895870 -3.427156
v -8344.541992 -1872.161133 8731.504883
vn 0.628489 0.708858 -0.320190
vt 2.852008 -3.330693
v -8344.541992 -1872.161133 8731.504883
vn 0.628489 0.708858 -0.320190
vt 3.852008 -3.330693
v -8342.142578 -1822.162109 8733.521484
vn 0.825196 0.034746 -0.563777
vt 3.895870 -3.427156
v -8288.765625 -1872.161011 9056.970703
vn 0.853012 0.351192 0.386049
vt 3.252945 -3.754471
v -8278.868164 -1822.161987 9069.963867
vn 0.977779 -0.065463 0.199157
vt 3.378465 -3.804401
v -8286.768555 -1878.725220 9144.862305
vn 0.999861 -0.016584 -0.001510
vt 3.343057 -3.962565
v -8288.766602 -1933.845703 9056.970703
vn 0.534977 -0.050221 0.843373
vt 3.193083 -3.878489
v -8260.448242 -1872.161255 8815.630859
vn 0.583762 0.718581 -0.377973
vt 3.587677 -3.330745
v -8153.848145 -1872.161255 8817.235352
vn 0.000000 1.000000 0.000000
vt 3.417650 -3.165760
v -8213.603516 -1872.161133 8699.878906
vn 0.000000 1.000000 0.000001
vt 3.695956 -3.075249
v -8344.541992 -1872.161133 8731.504883
vn 0.628489 0.708858 -0.320190
vt 3.852008 -3.330693
v -7905.471680 -1872.161011 8333.236328
vn 0.490155 0.843286 0.220491
vt 2.787896 -3.014942
v -7843.573242 -1874.137329 8274.523438
vn 0.273136 0.278428 0.920801
vt 2.782889 -2.825419
v -8021.525879 -1873.519775 8232.727539
vn -0.154372 0.908529 0.388258
vt 3.128192 -3.039370
v -8014.429688 -1871.605225 8299.708984
vn 0.006932 0.999922 -0.010356
vt 3.011789 -3.133471
v -8040.756836 -1871.786133 8404.552734
vn 0.002022 0.999997 0.001661
vt 2.888412 -3.339586
v -8040.756836 -1871.786133 8404.552734
vn 0.002022 0.999997 0.001661
vt 3.888412 -3.339586
v -7933.112793 -1872.161011 8431.514648
vn 0.765322 0.630147 -0.131135
vt 3.676900 -3.212806
v -7905.471680 -1872.161011 8333.236328
vn 0.490155 0.843286 0.220491
vt 3.787896 -3.014942
v -8288.765625 -1872.161011 9056.970703
vn 0.853012 0.351192 0.386049
vt 3.252945 -3.754471
v -8165.153320 -1872.161011 9123.949219
vn -0.206410 0.508810 0.835767
vt 2.953460 -3.665479
v -8154.824219 -1872.161011 9076.363281
vn 0.000000 1.000000 -0.000001
vt 3.012003 -3.574473
v -8241.418945 -1872.161255 8937.454102
vn 0.621991 0.783021 0.002247
vt 3.366349 -3.492269
v -8157.692383 -1872.161255 8954.812500
vn 0.000000 1.000000 -0.000001
vt 3.207508 -3.387983
v -7858.586914 -1872.161011 8610.796875
vn 0.745371 0.655974 -0.118833
vt 3.278079 -3.377414
v -8054.107910 -1872.161011 8520.154297
vn 0.000042 0.999999 0.001540
vt 3.727741 -3.542214
v -8004.790039 -1872.161133 8703.954102
vn 0.000000 1.000000 0.000000
vt 3.361432 -3.753533
v -7849.271973 -1872.161011 8722.730469
vn 0.755297 0.655362 -0.005198
vt 3.087555 -3.538664
v -7888.727539 -1872.161011 8516.249023
vn 0.696209 0.669134 -0.259907
vt 3.511022 -3.302787
v -8122.554199 -1871.327271 8257.216797
vn 0.007738 0.999970 -0.000872
vt 3.248461 -3.236602
v -8178.792969 -1871.598755 8346.091797
vn 0.000287 0.999994 0.003486
vt 3.197178 -3.464627
v -8225.469727 -1871.879883 8431.650391
vn -0.000129 0.999996 0.002810
vt 3.136081 -3.672415
v -8054.107910 -1872.161011 8520.154297
vn 0.000042 0.999999 0.001540
vt 2.727741 -3.542214
v -8050.914063 -1872.161011 9098.763672
vn 0.278589 0.652487 0.704733
vt 3.813525 -3.446394
v -7934.663086 -1872.161011 9001.196289
vn 0.544486 0.654345 0.524755
vt 3.784167 -3.110410
v -8040.385254 -1872.161133 8982.841797
vn 0.000000 1.000000 -0.000001
vt 3.979135 -3.247696
v -8040.385254 -1872.161133 8982.841797
vn 0.000000 1.000000 -0.000001
vt 2.979135 -3.247696
v -8050.914063 -1872.161011 9098.763672
vn 0.278589 0.652487 0.704733
vt 2.813525 -3.446394
v -7934.663086 -1872.161011 9001.196289
vn 0.544486 0.654345 0.524755
vt 2.784167 -3.110410
v -7854.130859 -1872.161011 8870.090820
vn 0.817932 0.473825 0.326309
vt 2.863636 -2.777854
v -7985.871094 -1872.161133 8858.510742
vn -0.000001 1.000000 0.000000
vt 3.088841 -2.966668
v -7985.871094 -1872.161133 8858.510742
vn -0.000001 1.000000 0.000000
vt 3.088841 -3.966668
v -7854.130859 -1872.161011 8870.090820
vn 0.817932 0.473825 0.326309
vt 2.863636 -3.777854
v -8054.107910 -1872.161011 8520.154297
vn 0.000042 0.999999 0.001540
vt 2.727741 -2.542214
v -8266.338867 -1872.161011 8546.473633
vn -0.000459 0.999999 0.001189
vt 3.019873 -2.917061
v -8213.603516 -1872.161133 8699.878906
vn 0.000000 1.000000 0.000001
vt 2.695956 -3.075249
v -8004.790039 -1872.161133 8703.954102
vn 0.000000 1.000000 0.000000
vt 3.361432 -2.753533
v -8054.107910 -1872.161011 8520.154297
vn 0.000042 0.999999 0.001540
vt 3.727741 -2.542214
v -8107.606445 -1871.049438 8179.267090
vn 0.049544 0.484066 0.873628
vt 3.347459 -3.090628
v -8174.719238 -1871.049438 8217.709961
vn 0.126663 0.947498 0.293605
vt 3.392510 -3.256492
v -8241.316406 -1871.411377 8295.009766
vn 0.024304 0.999450 0.022568
vt 3.375692 -3.482605
v -8293.705078 -1871.682983 8355.817383
vn 0.039682 0.998793 0.028942
vt 3.362463 -3.660475
v -8411.694336 -1872.161133 8525.145508
vn 0.754018 0.563015 0.338336
vt 3.281791 -3.111951
v -8344.541992 -1872.161133 8731.504883
vn 0.628489 0.708858 -0.320190
vt 2.852008 -3.330693
v -8134.183594 -1871.049438 8200.126953
vn 0.387325 0.544364 0.744074
vt 3.356442 -3.165169
v -8345.486328 -1871.865356 8415.920898
vn 0.047972 0.997769 0.046433
vt 3.349386 -3.836285
v -8266.338867 -1872.161011 8546.473633
vn -0.000459 0.999999 0.001189
vt 3.019873 -3.917061
v -8381.199219 -1872.161133 8495.586914
vn 0.789655 0.564642 0.240049
vt 3.280320 -3.017586
v -8377.989258 -1872.161011 8453.647461
vn 0.441180 0.896699 0.035929
vt 3.341177 -2.946640
v -8377.989258 -1872.161011 8453.647461
vn 0.441180 0.896699 0.035929
vt 3.341177 -3.946640
f 51/51/51 52/52/52 53/53/53
f 69/69/69 70/70/70 68/68/68
f 71/71/71 68/68/68 70/70/70
f 68/68/68 71/71/71 72/72/72
f 87/87/87 72/72/72 71/71/71
f 72/72/72 87/87/87 89/89/89
f 88/88/88 89/89/89 87/87/87
f 89/89/89 88/88/88 113/113/113
f 112/112/112 113/113/113 88/88/88
f 113/113/113 112/112/112 116/116/116
f 88/88/88 108/108/108 112/112/112
f 108/108/108 88/88/88 87/87/87
f 86/86/86 70/70/70 105/105/105
f 70/70/70 86/86/86 71/71/71
f 87/87/87 71/71/71 86/86/86
f 105/105/105 111/111/111 86/86/86
f 106/106/106 86/86/86 111/111/111
f 86/86/86 106/106/106 87/87/87
f 107/107/107 87/87/87 106/106/106
f 87/87/87 107/107/107 108/108/108
f 25/25/25 26/26/26 27/27/27
f 26/26/26 25/25/25 24/24/24
f 23/23/23 24/24/24 25/25/25
f 24/24/24 23/23/23 22/22/22
f 21/21/21 22/22/22 23/23/23
f 22/22/22 21/21/21 20/20/20
f 17/17/17 20/20/20 21/21/21
f 20/20/20 17/17/17 19/19/19
f 18/18/18 19/19/19 17/17/17
f 78/78/78 76/76/76 77/77/77
f 76/76/76 78/78/78 79/79/79
f 80/80/80 79/79/79 78/78/78
f 79/79/79 80/80/80 65/65/65
f 93/93/93 65/65/65 80/80/80
f 65/65/65 93/93/93 97/97/97
f 95/95/95 97/97/97 93/93/93
f 97/97/97 95/95/95 96/96/96
f 78/78/78 93/93/93 80/80/80
f 93/93/93 78/78/78 94/94/94
f 77/77/77 94/94/94 78/78/78
f 64/64/64 66/66/66 67/67/67
f 66/66/66 64/64/64 65/65/65
f 79/79/79 65/65/65 64/64/64
f 103/103/103 65/65/65 97/97/97
f 65/65/65 103/103/103 66/66/66
f 104/104/104 66/66/66 103/103/103
f 73/73/73 74/74/74 75/75/75
f 74/74/74 73/73/73 85/85/85
f 82/82/82 85/85/85 73/73/73
f 85/85/85 82/82/82 81/81/81
f 83/83/83 81/81/81 82/82/82
f 81/81/81 83/83/83 84/84/84
f 98/98/98 84/84/84 83/83/83
f 84/84/84 98/98/98 99/99/99
f 6/6/6 7/7/7 5/5/5
f 8/8/8 5/5/5 7/7/7
f 5/5/5 8/8/8 9/9/9
f 10/10/10 9/9/9 8/8/8
f 9/9/9 10/10/10 11/11/11
f 12/12/12 11/11/11 10/10/10
f 56/56/56 57/57/57 37/37/37
f 34/34/34 37/37/37 57/57/57
f 37/37/37 34/34/34 36/36/36
f 35/35/35 36/36/36 34/34/34
f 36/36/36 35/35/35 47/47/47
f 46/46/46 47/47/47 35/35/35
f 32/32/32 2/2/2 31/31/31
f 33/33/33 31/31/31 2/2/2
f 31/31/31 33/33/33 48/48/48
f 49/49/49 48/48/48 33/33/33
f 48/48/48 49/49/49 59/59/59
f 58/58/58 59/59/59 49/49/49
f 3/3/3 1/1/1 2/2/2
f 1/1/1 3/3/3 4/4/4
f 38/38/38 39/39/39 40/40/40
f 43/43/43 40/40/40 39/39/39
f 40/40/40 43/43/43 42/42/42
f 44/44/44 42/42/42 43/43/43
f 42/42/42 44/44/44 45/45/45
f 40/40/40 41/41/41 38/38/38
f 50/50/50 38/38/38 41/41/41
f 101/101/101 109/109/109 110/110/110
f 109/109/109 101/101/101 114/114/114
f 115/115/115 114/114/114 101/101/101
f 100/100/100 101/101/101 102/102/102
f 110/110/110 102/102/102 101/101/101
f 28/28/28 29/29/29 30/30/30
f 54/54/54 30/30/30 29/29/29
f 30/30/30 54/54/54 55/55/55
f 15/15/15 13/13/13 14/14/14
f 13/13/13 15/15/15 16/16/16
f 62/62/62 60/60/60 61/61/61
f 60/60/60 62/62/62 63/63/63
f 90/90/90 91/91/91 92/92/92
