mtllib EKH_CAVERNS_PS_CA_PLAT54547.mtl
g CA_Plat54547
usemtl Cave_Blender
v -3322.820313 -2122.162109 8451.907227
vn -0.731307 0.358743 0.580081
vt -1.572021 -3.013830
v -3322.709961 -2173.572266 8446.777344
vn -0.766346 -0.125264 0.630098
vt -1.539777 -3.039382
v -3301.399902 -2133.168213 8494.436523
vn -0.835192 -0.180132 0.519622
vt -1.648151 -3.080784
v -3301.455078 -2107.463135 8497.000977
vn -0.898136 0.343180 0.274917
vt -1.676451 -3.051116
v -3302.533203 -2106.456055 8394.750977
vn -0.215362 0.974278 -0.066348
vt -1.541587 -2.878783
v -3283.231201 -2081.206787 8463.778320
vn -0.513362 0.845883 -0.144715
vt -1.680383 -2.956919
v -3221.436523 -2076.185303 8443.578125
vn 0.035720 0.945156 -0.324659
vt -1.745742 -2.828075
v -3217.958984 -2106.725830 8357.764648
vn 0.021847 0.985400 -0.168845
vt -1.616364 -2.687769
v -3171.792236 -2081.206787 8467.354492
vn 0.473098 0.860527 -0.188871
vt -1.861111 -2.787428
v -3157.685791 -2106.456055 8401.902344
vn 0.214496 0.973131 -0.083705
vt -1.780430 -2.662415
v -3145.414795 -2107.463135 8496.188477
vn 0.891266 0.340012 0.300060
vt -1.965846 -2.778843
v -3121.091553 -2122.162109 8450.282227
vn 0.684367 0.491168 0.538884
vt -1.931931 -2.668488
v -3254.296631 -2023.691162 8621.439453
vn -0.649741 0.741344 -0.168067
vt -1.973589 -3.159192
v -3263.929199 -2055.957520 8532.806641
vn -0.622619 0.773670 -0.117391
vt -1.819180 -3.035055
v -3280.089844 -2092.763916 8542.094727
vn -0.950229 0.018486 0.311003
vt -1.780241 -3.103186
v -3266.467285 -2052.451904 8626.260742
vn -0.992920 0.024726 0.116183
vt -1.933900 -3.214034
v -3224.913818 -2016.567505 8619.861328
vn -0.006123 0.961992 -0.273009
vt -2.017280 -3.110541
v -3224.913818 -2045.645020 8529.390625
vn 0.044168 0.949449 -0.310800
vt -1.875119 -2.968381
v -3195.531250 -2023.691162 8621.439453
vn 0.656470 0.732105 -0.181851
vt -2.065930 -3.066851
v -3185.898438 -2055.957520 8532.806641
vn 0.728078 0.680143 -0.085485
vt -1.941793 -2.912441
v -3183.360352 -2052.451904 8626.260742
vn 0.995316 0.019455 0.094702
vt -2.115655 -3.016929
v -3169.737793 -2092.763916 8542.094727
vn 0.939500 -0.029284 0.341296
vt -2.020157 -2.873502
v -3249.944092 -2000.550049 8711.631836
vn -0.652964 0.756487 -0.036963
vt -2.122152 -3.294077
v -3260.312012 -2025.615967 8713.896484
vn -0.999075 0.005418 0.042648
vt -2.081279 -3.342068
v -3224.913818 -1994.532959 8711.075195
vn -0.000240 0.996416 -0.084587
vt -2.160610 -3.253871
v -3199.883545 -2000.550049 8711.631836
vn 0.653379 0.752629 -0.081524
vt -2.200815 -3.215414
v -3189.515625 -2025.615967 8713.896484
vn 0.999907 0.000094 -0.013607
vt -2.243690 -3.164307
v -3252.674316 -2008.456299 8814.924805
vn -0.654777 0.745563 0.124109
vt -2.280171 -3.460676
v -3264.173096 -2035.984741 8814.800781
vn -0.998527 0.002288 -0.054204
vt -2.233768 -3.506691
v -3224.913818 -2001.621338 8815.375977
vn 0.004197 0.984780 0.173756
vt -2.324501 -3.417763
v -3197.153320 -2008.456299 8814.924805
vn 0.649364 0.754479 0.095331
vt -2.367414 -3.373433
v -3185.654541 -2035.984741 8814.800781
vn 0.995579 0.004485 -0.093823
vt -2.413429 -3.329587
v -3261.094971 -2041.952637 8921.596680
vn -0.643060 0.747924 0.164570
vt -2.434559 -3.641528
v -3276.081787 -2077.090088 8919.548828
vn -0.925115 -0.054884 -0.375699
vt -2.357773 -3.700937
v -3224.913818 -2032.331421 8922.876953
vn -0.048514 0.947660 0.315575
vt -2.493424 -3.586686
v -3188.732666 -2041.952637 8921.596680
vn 0.541855 0.814033 0.209150
vt -2.548266 -3.527821
v -3173.745850 -2077.090088 8919.548828
vn 0.947491 -0.084430 -0.308437
vt -2.601411 -3.468237
v -3276.641357 -2063.721191 8962.914063
vn -0.746043 0.665596 -0.020048
vt -2.453177 -3.741818
v -3269.742432 -2060.904053 8979.259766
vn -0.358836 0.913414 0.192124
vt -2.511579 -3.745723
v -3226.068604 -2056.093506 8981.804688
vn -0.000519 0.950536 0.310615
vt -2.584204 -3.681095
v -3182.077148 -2060.904053 8979.321289
vn 0.396912 0.899828 0.181026
vt -2.649429 -3.608068
v -3176.205078 -2064.312744 8964.173828
vn 0.801875 0.597448 -0.007309
vt -2.667669 -3.542223
v -3150.711914 -2136.215820 8494.786133
vn 0.821654 -0.217039 0.527046
vt -2.028608 -2.751774
v -3290.159668 -2079.566650 9011.320313
vn -0.468660 0.882735 -0.033723
vt -2.529874 -3.828184
v -3276.362061 -2073.932129 9044.009766
vn -0.181528 0.983384 0.002089
vt -2.602923 -3.857871
v -3225.195557 -2073.932373 9047.819336
vn -0.000251 0.993380 0.114872
vt -2.689309 -3.783456
v -3173.393799 -2073.932129 9044.133789
vn 0.282095 0.958474 0.041826
vt -2.764917 -3.696267
v -3161.649414 -2080.749756 9013.838867
vn 0.504851 0.860346 -0.070221
vt -2.768582 -3.597393
v -3303.187988 -2095.558350 8956.259766
vn -0.778752 0.152691 -0.608465
vt -2.401007 -3.773075
v -3156.755615 -2095.558350 8952.072266
vn 0.844206 0.080441 -0.529949
vt -2.697445 -3.483531
v -3131.686035 -2179.667480 8447.476563
vn 0.738423 -0.169246 0.652754
vt -1.984166 -2.647539
f 49/49/49 44/44/44 38/38/38
f 5/5/5 1/1/1 6/6/6
f 4/4/4 6/6/6 1/1/1
f 6/6/6 4/4/4 14/14/14
f 15/15/15 14/14/14 4/4/4
f 14/14/14 15/15/15 13/13/13
f 16/16/16 13/13/13 15/15/15
f 13/13/13 16/16/16 23/23/23
f 24/24/24 23/23/23 16/16/16
f 23/23/23 24/24/24 28/28/28
f 29/29/29 28/28/28 24/24/24
f 28/28/28 29/29/29 33/33/33
f 34/34/34 33/33/33 29/29/29
f 33/33/33 34/34/34 38/38/38
f 49/49/49 38/38/38 34/34/34
f 3/3/3 1/1/1 2/2/2
f 1/1/1 3/3/3 4/4/4
f 15/15/15 4/4/4 3/3/3
f 8/8/8 5/5/5 7/7/7
f 6/6/6 7/7/7 5/5/5
f 7/7/7 6/6/6 18/18/18
f 14/14/14 18/18/18 6/6/6
f 18/18/18 14/14/14 17/17/17
f 13/13/13 17/17/17 14/14/14
f 17/17/17 13/13/13 25/25/25
f 23/23/23 25/25/25 13/13/13
f 25/25/25 23/23/23 30/30/30
f 28/28/28 30/30/30 23/23/23
f 30/30/30 28/28/28 35/35/35
f 33/33/33 35/35/35 28/28/28
f 10/10/10 8/8/8 7/7/7
f 9/9/9 7/7/7 18/18/18
f 7/7/7 9/9/9 10/10/10
f 12/12/12 10/10/10 9/9/9
f 12/12/12 43/43/43 51/51/51
f 43/43/43 12/12/12 11/11/11
f 9/9/9 11/11/11 12/12/12
f 11/11/11 9/9/9 20/20/20
f 18/18/18 20/20/20 9/9/9
f 20/20/20 18/18/18 19/19/19
f 17/17/17 19/19/19 18/18/18
f 19/19/19 17/17/17 26/26/26
f 25/25/25 26/26/26 17/17/17
f 26/26/26 25/25/25 31/31/31
f 30/30/30 31/31/31 25/25/25
f 31/31/31 30/30/30 36/36/36
f 35/35/35 36/36/36 30/30/30
f 36/36/36 35/35/35 40/40/40
f 33/33/33 40/40/40 35/35/35
f 40/40/40 33/33/33 39/39/39
f 38/38/38 39/39/39 33/33/33
f 39/39/39 38/38/38 44/44/44
f 44/44/44 45/45/45 39/39/39
f 46/46/46 39/39/39 45/45/45
f 39/39/39 46/46/46 40/40/40
f 41/41/41 40/40/40 46/46/46
f 40/40/40 41/41/41 36/36/36
f 46/46/46 47/47/47 41/41/41
f 43/43/43 11/11/11 22/22/22
f 20/20/20 22/22/22 11/11/11
f 22/22/22 20/20/20 21/21/21
f 19/19/19 21/21/21 20/20/20
f 21/21/21 19/19/19 27/27/27
f 26/26/26 27/27/27 19/19/19
f 27/27/27 26/26/26 32/32/32
f 31/31/31 32/32/32 26/26/26
f 32/32/32 31/31/31 37/37/37
f 36/36/36 37/37/37 31/31/31
f 37/37/37 36/36/36 42/42/42
f 41/41/41 42/42/42 36/36/36
f 42/42/42 41/41/41 48/48/48
f 47/47/47 48/48/48 41/41/41
f 42/42/42 50/50/50 37/37/37
f 50/50/50 42/42/42 48/48/48
