mtllib EKH_THRONE_PS_TH_RIVER_TRIM344.mtl
g H_River_Trim344
usemtl Cave_Wall_Blender
v -717.337952 277.037964 8154.984375
vn -0.827045 0.221823 0.516518
vt 3.133998 0.962825
v -717.337952 382.297729 8154.983887
vn -0.955221 -0.029313 0.294437
vt 3.127660 0.802705
v -761.840637 362.805634 8121.914063
vn -0.156747 0.000001 0.987639
vt 3.005229 0.802705
v -761.840637 318.305603 8121.914063
vn -0.007079 0.189341 0.981886
vt 3.005229 0.884055
v -739.589417 275.421783 8138.449219
vn -0.414093 0.264477 0.870964
vt 3.069613 0.964115
v -1424.067871 362.805634 8126.254883
vn 0.058063 0.000000 0.998313
vt 3.086340 0.802705
v -1424.067871 273.805634 8126.254883
vn 0.081128 0.295476 0.951899
vt 3.086340 0.965405
v -1255.276611 273.805634 8124.708008
vn -0.084815 0.294156 0.951987
vt 3.319387 0.965405
v -1255.276611 362.805634 8124.708008
vn -0.125409 0.000000 0.992105
vt 3.319387 0.802705
v -1555.599731 362.805634 8146.952148
vn 0.112412 0.000000 0.993662
vt 2.900054 0.802705
v -1555.599731 273.805634 8146.952148
vn 0.084831 0.294419 0.951904
vt 2.900054 0.965405
v -1704.648682 362.805634 8150.786133
vn 0.010388 0.000000 0.999946
vt 3.725971 0.802705
v -1704.648682 273.805634 8150.786133
vn 0.001898 0.295768 0.955258
vt 3.725971 0.965405
v -1555.599731 273.805634 8146.952148
vn 0.084831 0.294419 0.951904
vt 3.900054 0.965405
v -1555.599731 362.805634 8146.952148
vn 0.112412 0.000000 0.993662
vt 3.900054 0.802705
v -1832.806396 362.805634 8148.187500
vn -0.054292 0.000000 0.998525
vt 3.576308 0.802705
v -1832.806396 273.805634 8148.187500
vn -0.069693 0.295482 0.952803
vt 3.576308 0.965405
v -1965.553467 362.805634 8131.851074
vn -0.124344 0.000000 0.992239
vt 3.389323 0.802705
v -1965.553467 273.805634 8131.851074
vn -0.119998 0.294040 0.948230
vt 3.389323 0.965405
v -2167.993408 362.805634 8105.569336
vn -0.057980 0.000000 0.998318
vt 3.121837 0.802705
v -2167.993408 273.805634 8105.569336
vn -0.057496 0.375447 0.925059
vt 3.121837 0.965405
v -2324.011475 362.805634 8118.789063
vn 0.049958 -0.107547 0.992944
vt 2.913957 0.802705
v -2324.011475 273.805634 8104.276855
vn 0.062191 0.243568 0.967888
vt 2.913957 0.965405
v -2484.281494 362.805634 8130.685059
vn 0.100813 -0.053709 0.993455
vt 2.695491 0.802705
v -2484.281494 273.805634 8130.685059
vn 0.107767 0.293899 0.949742
vt 2.695491 0.965405
v -2633.023438 362.805634 8140.467773
vn 0.106009 0.000000 0.994365
vt 2.480350 0.802705
v -2633.023438 273.805634 8140.467773
vn 0.104558 0.274259 0.955955
vt 2.480350 0.965405
v -2723.161865 381.599609 8153.790527
vn 0.741608 0.013819 0.670691
vt 2.332689 0.793142
v -2723.161377 292.500122 8153.790527
vn 0.516832 0.195477 0.833471
vt 2.336256 0.965405
v -849.935120 362.805603 8151.526855
vn 0.116048 0.000000 0.993244
vt 2.870434 0.802705
v -849.935120 318.305603 8151.526855
vn 0.167073 0.179913 0.969391
vt 2.870434 0.884055
v -849.935120 362.805603 8151.526855
vn 0.116048 0.000000 0.993244
vt 3.870434 0.802705
v -948.165100 362.805603 8152.792480
vn 0.006990 0.000000 0.999976
vt 3.729283 0.802705
v -948.165100 318.305603 8152.792480
vn 0.008372 0.182532 0.983164
vt 3.729283 0.884055
v -849.935120 318.305603 8151.526855
vn 0.167073 0.179913 0.969391
vt 3.870434 0.884055
v -1047.591309 362.805603 8153.194336
vn -0.051129 0.000000 0.998692
vt 3.610452 0.802705
v -1047.591309 318.305603 8153.194336
vn -0.040246 0.243858 0.968975
vt 3.610452 0.884055
v -1151.477051 362.805634 8144.998047
vn -0.154338 0.000000 0.988018
vt 3.473699 0.802705
v -1151.477051 318.305603 8144.998047
vn -0.195380 0.180926 0.963895
vt 3.473699 0.884055
v -1203.376709 273.805603 8134.853027
vn -0.279949 0.292993 0.914212
vt 3.396543 0.965405
f 26/26/26 28/28/28 29/29/29
f 29/29/29 27/27/27 26/26/26
f 25/25/25 26/26/26 27/27/27
f 26/26/26 25/25/25 24/24/24
f 23/23/23 24/24/24 25/25/25
f 24/24/24 23/23/23 22/22/22
f 21/21/21 22/22/22 23/23/23
f 22/22/22 21/21/21 20/20/20
f 19/19/19 20/20/20 21/21/21
f 20/20/20 19/19/19 18/18/18
f 17/17/17 18/18/18 19/19/19
f 18/18/18 17/17/17 16/16/16
f 13/13/13 16/16/16 17/17/17
f 16/16/16 13/13/13 12/12/12
f 14/14/14 12/12/12 13/13/13
f 12/12/12 14/14/14 15/15/15
f 35/35/35 32/32/32 34/34/34
f 33/33/33 34/34/34 32/32/32
f 34/34/34 33/33/33 37/37/37
f 36/36/36 37/37/37 33/33/33
f 37/37/37 36/36/36 39/39/39
f 38/38/38 39/39/39 36/36/36
f 39/39/39 38/38/38 40/40/40
f 9/9/9 40/40/40 38/38/38
f 40/40/40 9/9/9 8/8/8
f 6/6/6 8/8/8 9/9/9
f 8/8/8 6/6/6 7/7/7
f 10/10/10 7/7/7 6/6/6
f 7/7/7 10/10/10 11/11/11
f 30/30/30 31/31/31 3/3/3
f 4/4/4 3/3/3 31/31/31
f 3/3/3 4/4/4 1/1/1
f 5/5/5 1/1/1 4/4/4
f 1/1/1 2/2/2 3/3/3
