mtllib EKH_JAIL_PS_JA_CYLINDER08.mtl
g JA_Cylinder08
usemtl Cave_Wall
v -8112.153809 -387.893921 10969.493164
vn -0.740423 -0.004557 0.672126
vt -0.179065 0.518633
v -8126.287109 -488.106934 10966.514648
vn -0.787332 0.214033 0.578185
vt -0.185384 0.842600
v -8078.828613 -488.106934 10995.353516
vn -0.096878 0.097027 0.990556
vt -0.083363 0.834602
v -8068.594727 -387.893921 10995.961914
vn 0.058851 0.043053 0.997338
vt -0.079445 0.500172
v -8026.691406 -488.106934 10976.230469
vn 0.714256 0.072778 0.696090
vt 0.071452 0.833772
v -8020.741699 -387.893921 10978.410156
vn 0.775786 0.109789 0.621371
vt 0.071224 0.498563
v -8004.628418 -387.893921 10930.052734
vn 0.993055 0.057861 -0.102444
vt -0.793307 0.517322
v -8020.741699 -387.893921 10978.410156
vn 0.775786 0.109789 0.621371
vt -0.928526 0.495573
v -8026.691406 -488.106934 10976.230469
vn 0.714256 0.072778 0.696090
vt -0.928217 0.832418
v -8009.135742 -488.106934 10923.543945
vn 0.978398 0.194768 -0.069296
vt -0.792460 0.843265
v -8032.389160 -387.893921 10887.305664
vn 0.521509 0.003196 -0.853240
vt -0.641339 0.494674
v -8039.381836 -488.106934 10876.969727
vn 0.499220 0.256991 -0.827488
vt -0.639661 0.831941
v -8083.119141 -387.893921 10882.356445
vn -0.387827 0.015907 -0.921595
vt -0.473313 0.521097
v -8094.653320 -488.106934 10871.578125
vn -0.319469 0.377141 -0.869312
vt -0.467564 0.845064
v -8133.329590 -488.106934 10911.429688
vn -0.912334 0.325105 -0.248905
vt -0.307336 0.843832
v -8118.617676 -387.893921 10918.933594
vn -0.986690 -0.035025 -0.158796
vt -0.309141 0.518633
v -8083.823730 -314.987274 10989.395508
vn -0.097426 0.097538 0.990452
vt -0.066734 0.214917
v -8127.510742 -315.543060 10962.544922
vn -0.832159 -0.020058 0.554174
vt -0.179146 0.215036
v -8036.469727 -314.051758 10972.452148
vn 0.702893 0.207695 0.680297
vt 0.071722 0.214921
v -8021.107422 -313.440887 10924.473633
vn 0.965783 0.245718 -0.082983
vt -0.763596 0.214822
v -8036.469727 -314.051758 10972.452148
vn 0.702893 0.207695 0.680297
vt -0.928364 0.214875
v -8039.423828 -316.847839 10882.584961
vn 0.546508 0.168120 -0.820405
vt -0.643075 0.214967
v -8089.947754 -317.675446 10877.086914
vn -0.301669 0.043263 -0.952431
vt -0.455311 0.215072
v -8134.633789 -315.300507 10912.120117
vn -0.936043 -0.021788 -0.351209
vt -0.311692 0.215098
v -8085.597168 -242.192780 10978.609375
vn -0.074930 0.022260 0.996940
vt -0.068083 0.008588
v -8119.110840 -242.574188 10959.945313
vn -0.825488 0.075956 0.559286
vt -0.197615 0.009532
v -8049.403809 -243.220795 10963.678711
vn 0.729344 0.043387 0.682770
vt 0.071408 -0.018160
v -8037.785156 -244.884048 10926.396484
vn 0.983433 0.108798 -0.144990
vt -0.775056 -0.025800
v -8049.403809 -243.220795 10963.678711
vn 0.729344 0.043387 0.682770
vt -0.928334 -0.021468
v -8059.490234 -245.930069 10894.837891
vn 0.507926 0.179721 -0.842444
vt -0.651149 -0.015649
v -8098.174805 -245.571228 10892.766602
vn -0.360111 0.158977 -0.919264
vt -0.439145 -0.007929
v -8124.708496 -244.077698 10921.742188
vn -0.937360 0.132434 -0.322206
vt -0.316887 0.002181
v -8081.087891 -181.360397 10982.590820
vn -0.100454 -0.133143 0.985993
vt -0.092272 -0.213732
v -8112.467285 -179.095612 10963.198242
vn -0.837974 -0.071009 0.541070
vt -0.210241 -0.218876
v -8046.346680 -182.855850 10970.118164
vn 0.693974 -0.227662 0.683059
vt 0.071640 -0.213651
v -8034.404297 -182.455765 10935.172852
vn 0.955431 -0.271808 -0.115201
vt -0.763828 -0.221224
v -8046.346680 -182.855850 10970.118164
vn 0.693974 -0.227662 0.683059
vt -0.928782 -0.212525
v -8054.253418 -180.461472 10904.069336
vn 0.501896 -0.240546 -0.830806
vt -0.622753 -0.212068
v -8090.947754 -178.374695 10900.228516
vn -0.348964 -0.165858 -0.922342
vt -0.423375 -0.222469
v -8116.855469 -177.766815 10926.543945
vn -0.946041 -0.092235 -0.310644
vt -0.315869 -0.225499
v -8077.115723 -117.013123 10997.964844
vn -0.086490 -0.174680 0.980819
vt -0.065850 -0.452192
v -8127.913574 -114.979271 10968.329102
vn -0.790668 -0.297700 0.534995
vt -0.204692 -0.454610
v -8022.363281 -119.947350 10976.674805
vn 0.704756 -0.218719 0.674893
vt 0.068263 -0.453198
v -8004.884766 -121.572113 10920.489258
vn 0.912117 -0.391669 -0.120985
vt -0.738378 -0.454613
v -8022.363281 -119.947350 10976.674805
vn 0.704756 -0.218719 0.674893
vt -0.930902 -0.456919
v -8037.842773 -120.664116 10871.718750
vn 0.424831 -0.539266 -0.727125
vt -0.579095 -0.473619
v -8096.418945 -117.907051 10867.086914
vn -0.312090 -0.566837 -0.762428
vt -0.436307 -0.477795
v -8136.504395 -115.377068 10910.083008
vn -0.845555 -0.471526 -0.250400
vt -0.318211 -0.468218
v -8091.239258 -48.634815 11007.961914
vn -0.031575 -0.054658 0.998006
vt -0.055030 -0.767568
v -8165.744629 -46.339230 10964.204102
vn -0.791810 -0.270623 0.547540
vt -0.194723 -0.799608
v -8011.431152 -51.286175 10976.995117
vn 0.750683 0.011342 0.660566
vt 0.071215 -0.749012
v -7986.416992 -52.296562 10894.624023
vn 0.984083 -0.113800 -0.136491
vt -0.719775 -0.751651
v -8011.431152 -51.286175 10976.995117
vn 0.750683 0.011342 0.660566
vt -0.929291 -0.750355
v -8035.033203 -50.905289 10822.874023
vn 0.443820 -0.256688 -0.858566
vt -0.584370 -0.730143
v -8120.670898 -48.159924 10815.775391
vn -0.348418 -0.438372 -0.828514
vt -0.425242 -0.725478
v -8178.842773 -46.127857 10878.672852
vn -0.916367 -0.341584 -0.208787
vt -0.329931 -0.780930
f 13/13/13 14/14/14 15/15/15
f 16/16/16 15/15/15 2/2/2
f 15/15/15 16/16/16 13/13/13
f 24/24/24 13/13/13 16/16/16
f 13/13/13 24/24/24 23/23/23
f 32/32/32 23/23/23 24/24/24
f 23/23/23 32/32/32 31/31/31
f 40/40/40 31/31/31 32/32/32
f 31/31/31 40/40/40 39/39/39
f 48/48/48 39/39/39 40/40/40
f 39/39/39 48/48/48 47/47/47
f 56/56/56 47/47/47 48/48/48
f 47/47/47 56/56/56 55/55/55
f 1/1/1 2/2/2 3/3/3
f 2/2/2 1/1/1 16/16/16
f 18/18/18 16/16/16 1/1/1
f 16/16/16 18/18/18 24/24/24
f 26/26/26 24/24/24 18/18/18
f 24/24/24 26/26/26 32/32/32
f 34/34/34 32/32/32 26/26/26
f 32/32/32 34/34/34 40/40/40
f 42/42/42 40/40/40 34/34/34
f 40/40/40 42/42/42 48/48/48
f 50/50/50 48/48/48 42/42/42
f 48/48/48 50/50/50 56/56/56
f 4/4/4 3/3/3 5/5/5
f 3/3/3 4/4/4 1/1/1
f 17/17/17 1/1/1 4/4/4
f 1/1/1 17/17/17 18/18/18
f 25/25/25 18/18/18 17/17/17
f 18/18/18 25/25/25 26/26/26
f 33/33/33 26/26/26 25/25/25
f 26/26/26 33/33/33 34/34/34
f 41/41/41 34/34/34 33/33/33
f 34/34/34 41/41/41 42/42/42
f 49/49/49 42/42/42 41/41/41
f 42/42/42 49/49/49 50/50/50
f 5/5/5 6/6/6 4/4/4
f 19/19/19 4/4/4 6/6/6
f 4/4/4 19/19/19 17/17/17
f 27/27/27 17/17/17 19/19/19
f 17/17/17 27/27/27 25/25/25
f 35/35/35 25/25/25 27/27/27
f 25/25/25 35/35/35 33/33/33
f 43/43/43 33/33/33 35/35/35
f 33/33/33 43/43/43 41/41/41
f 51/51/51 41/41/41 43/43/43
f 41/41/41 51/51/51 49/49/49
f 13/13/13 12/12/12 14/14/14
f 12/12/12 13/13/13 11/11/11
f 23/23/23 11/11/11 13/13/13
f 11/11/11 23/23/23 22/22/22
f 31/31/31 22/22/22 23/23/23
f 22/22/22 31/31/31 30/30/30
f 39/39/39 30/30/30 31/31/31
f 30/30/30 39/39/39 38/38/38
f 47/47/47 38/38/38 39/39/39
f 38/38/38 47/47/47 46/46/46
f 55/55/55 46/46/46 47/47/47
f 46/46/46 55/55/55 54/54/54
f 11/11/11 10/10/10 12/12/12
f 10/10/10 11/11/11 7/7/7
f 22/22/22 7/7/7 11/11/11
f 7/7/7 22/22/22 20/20/20
f 30/30/30 20/20/20 22/22/22
f 20/20/20 30/30/30 28/28/28
f 38/38/38 28/28/28 30/30/30
f 28/28/28 38/38/38 36/36/36
f 46/46/46 36/36/36 38/38/38
f 36/36/36 46/46/46 44/44/44
f 54/54/54 44/44/44 46/46/46
f 44/44/44 54/54/54 52/52/52
f 7/7/7 9/9/9 10/10/10
f 9/9/9 7/7/7 8/8/8
f 20/20/20 8/8/8 7/7/7
f 8/8/8 20/20/20 21/21/21
f 28/28/28 21/21/21 20/20/20
f 21/21/21 28/28/28 29/29/29
f 36/36/36 29/29/29 28/28/28
f 29/29/29 36/36/36 37/37/37
f 44/44/44 37/37/37 36/36/36
f 37/37/37 44/44/44 45/45/45
f 52/52/52 45/45/45 44/44/44
f 45/45/45 52/52/52 53/53/53
