mtllib EKH_GROTTO_PS_GR_OBJECT07.mtl
g GR_Object07
usemtl Royal_Slab
v 3985.506348 700.687988 4997.944824
vn 0.000001 1.000000 -0.000002
vt 1.055614 -0.369307
v 3986.927734 700.688232 5060.099609
vn 0.000001 1.000000 -0.000003
vt 1.049439 -0.537714
v 4110.679688 700.688171 5079.429199
vn 0.000001 1.000000 -0.000004
vt 0.511814 -0.590087
v 4169.015625 700.687744 5016.298828
vn 0.000001 1.000000 -0.000002
vt 0.258378 -0.419036
v 3762.230469 700.688232 4851.115234
vn 0.000001 1.000000 -0.000001
vt 2.025611 0.028526
v 3964.873291 700.688049 4863.368164
vn 0.000001 1.000000 0.000000
vt 1.142484 -0.005138
v 3962.864014 700.687805 4624.800293
vn 0.000000 1.000000 0.000001
vt 1.135289 0.631947
v 3801.997070 700.688232 4979.590820
vn 0.000001 1.000000 0.000000
vt 1.852850 -0.319577
v 4167.516113 700.687866 4875.621582
vn 0.000000 1.000000 0.000000
vt 0.259356 -0.038801
v 4159.801758 700.687805 4629.848145
vn -0.151925 0.922731 0.354239
vt 0.261022 0.608497
v 3985.054199 700.688232 4496.922363
vn 0.000000 1.000000 0.000001
vt 1.057577 0.988203
v 3801.957764 700.688232 4516.319336
vn 0.000000 1.000000 0.000003
vt 1.853020 0.935647
v 3765.926270 700.687805 4619.752441
vn 0.000000 1.000000 0.000001
vt 2.009555 0.655397
v 3863.176025 700.688232 5040.770508
vn 0.000001 1.000000 -0.000002
vt 1.587064 -0.485341
v 4168.150879 700.688232 4477.524902
vn 0.000000 1.000000 0.000001
vt 0.262135 1.040759
v 4048.053955 700.688232 4427.187988
vn 0.000000 1.000000 0.000000
vt 0.783882 1.177146
v 3956.649658 700.688232 4440.669434
vn 0.000000 1.000000 0.000000
vt 1.180978 1.140619
v 3865.245361 700.688232 4454.150391
vn 0.000000 1.000000 0.000000
vt 1.578074 1.104092
f 10/10/10 15/15/15 11/11/11
f 16/16/16 11/11/11 15/15/15
f 11/11/11 16/16/16 17/17/17
f 11/11/11 17/17/17 18/18/18
f 3/3/3 4/4/4 1/1/1
f 9/9/9 1/1/1 4/4/4
f 1/1/1 9/9/9 6/6/6
f 10/10/10 6/6/6 9/9/9
f 6/6/6 10/10/10 7/7/7
f 11/11/11 7/7/7 10/10/10
f 7/7/7 11/11/11 12/12/12
f 18/18/18 12/12/12 11/11/11
f 1/1/1 2/2/2 3/3/3
f 12/12/12 13/13/13 7/7/7
f 5/5/5 7/7/7 13/13/13
f 7/7/7 5/5/5 6/6/6
f 8/8/8 6/6/6 5/5/5
f 6/6/6 8/8/8 1/1/1
f 14/14/14 1/1/1 8/8/8
f 1/1/1 14/14/14 2/2/2
usemtl Slab_Trim
v 3762.230469 700.688232 4851.115234
vn -0.996041 0.000000 0.088898
vt 3.813141 0.000000
v 3765.926270 700.687805 4619.752441
vn -0.973848 0.000000 -0.227200
vt 3.127824 0.000000
v 3765.926270 596.999817 4619.752441
vn -0.992570 0.000000 -0.121677
vt 3.127824 1.000000
v 3801.997070 599.959229 4979.590820
vn -0.810909 0.000000 0.585173
vt 3.255491 1.000000
v 3863.176025 599.959229 5040.770020
vn -0.354048 0.000000 0.935227
vt 3.540067 1.000000
v 3863.176025 700.688232 5040.770508
vn -0.546724 0.000000 0.837313
vt 3.540067 0.000000
v 3801.997070 700.688232 4979.590820
vn -0.895842 0.000000 0.444373
vt 3.255491 0.000000
v 3762.230713 599.959229 4851.114746
vn -0.981012 0.000000 0.193947
vt 2.813141 1.000000
v 3762.230713 599.959229 4851.114746
vn -0.981012 0.000000 0.193947
vt 3.813141 1.000000
v 3801.957764 700.688232 4516.319336
vn -0.944342 0.000000 -0.328966
vt 2.691290 0.000000
v 3801.957764 599.959229 4516.319336
vn -0.944342 0.000000 -0.328966
vt 2.691290 1.000000
v 3762.230469 700.688232 4851.115234
vn -0.996041 0.000000 0.088898
vt 2.813141 0.000000
v 3986.927734 700.688232 5060.099609
vn -0.154324 0.000000 0.988020
vt 3.770927 0.000000
v 4110.679688 599.959229 5079.429199
vn -0.154325 0.000000 0.988020
vt 3.001787 1.000000
v 4110.679688 700.688171 5079.429199
vn -0.154326 0.000000 0.988020
vt 3.001787 0.000000
v 3986.927734 700.688232 5060.099609
vn -0.154324 0.000000 0.988020
vt 2.770927 0.000000
v 3863.176025 599.959229 5040.770020
vn -0.354048 0.000000 0.935227
vt 2.540067 1.000000
f 34/34/34 32/32/32 33/33/33
f 32/32/32 34/34/34 35/35/35
f 24/24/24 23/23/23 31/31/31
f 23/23/23 24/24/24 22/22/22
f 25/25/25 22/22/22 24/24/24
f 22/22/22 25/25/25 26/26/26
f 30/30/30 26/26/26 25/25/25
f 28/28/28 29/29/29 20/20/20
f 21/21/21 20/20/20 29/29/29
f 20/20/20 21/21/21 19/19/19
f 27/27/27 19/19/19 21/21/21
