mtllib EKH_BARRELROOM_PS_JA1_OBJECT111.mtl
g JA1_Object111
usemtl leaf
v -9567.762695 -610.256470 2348.556396
vn -0.049237 -0.393857 0.917852
vt 0.500000 0.708125
v -9565.728516 -622.258911 2344.320313
vn -0.028364 -0.506455 0.861800
vt 0.500000 0.999501
v -9560.821289 -608.819946 2348.485107
vn 0.064838 -0.311732 0.947955
vt 0.094067 0.708125
v -9574.515625 -611.754761 2346.982178
vn -0.180274 -0.362017 0.914574
vt 0.905933 0.708125
v -9570.366211 -590.794983 2349.090820
vn -0.149904 0.380578 0.912518
vt 0.500000 0.291875
v -9569.402344 -599.208130 2350.331543
vn -0.104331 -0.036288 0.993880
vt 0.500000 0.500000
v -9563.423828 -589.358459 2349.019531
vn -0.015792 0.329228 0.944118
vt 0.094067 0.291875
v -9577.119141 -592.293274 2347.516602
vn -0.269159 0.277063 0.922382
vt 0.905933 0.291875
v -9570.958008 -583.918152 2346.291748
vn -0.160791 0.531983 0.831348
vt 0.500000 0.000499
v -9560.812500 -597.456238 2349.823730
vn 0.059660 -0.005178 0.998205
vt 0.000500 0.500000
v -9577.663086 -601.067505 2347.974365
vn -0.264138 -0.074551 0.961599
vt 0.999501 0.500000
f 4/4/4 2/2/2 1/1/1
f 3/3/3 1/1/1 2/2/2
f 1/1/1 3/3/3 6/6/6
f 10/10/10 6/6/6 3/3/3
f 6/6/6 10/10/10 7/7/7
f 4/4/4 1/1/1 6/6/6
f 5/5/5 6/6/6 7/7/7
f 6/6/6 11/11/11 4/4/4
f 11/11/11 6/6/6 8/8/8
f 5/5/5 8/8/8 6/6/6
f 8/8/8 5/5/5 9/9/9
f 7/7/7 9/9/9 5/5/5
