mtllib EKH_CAVERNS_PS_CA_PLATFORM_9731.mtl
g A_Platform_9731
usemtl Cave_Blender
v -3729.452393 -1694.253174 9868.192383
vn -0.152374 0.829194 -0.537792
vt -3.201197 -3.866248
v -3697.213623 -1694.253296 9925.361328
vn -0.593442 0.673959 -0.440006
vt -3.326527 -3.904086
v -3636.546875 -1694.253418 9840.164063
vn -0.524426 0.399346 -0.751997
vt -3.287981 -3.674882
v -3817.316895 -1694.253296 9891.489258
vn -0.082792 0.797367 -0.597789
vt -3.095654 -3.046304
v -3933.763428 -1694.253174 9877.992188
vn 0.107146 0.664470 -0.739594
vt -2.883482 -3.207838
v -3916.310547 -1694.253296 9962.191406
vn 0.000000 1.000000 0.000001
vt -3.040122 -3.306236
v -3835.126465 -1694.253418 9971.953125
vn 0.000000 1.000000 0.000000
vt -3.183030 -3.194006
v -3978.686279 -1694.253296 9934.141602
vn 0.000000 1.000000 0.000001
vt -2.898033 -3.360175
v -3729.452393 -1694.253174 9868.192383
vn -0.152374 0.829194 -0.537792
vt -3.201197 -2.866248
v -3762.052246 -1694.253418 9939.305664
vn 0.000000 1.000000 0.000001
vt -3.246554 -3.027881
v -3697.213623 -1694.253296 9925.361328
vn -0.593442 0.673959 -0.440006
vt -3.326527 -2.904086
v -3916.349854 -1694.253296 10047.771484
vn 0.271819 0.778120 -0.566253
vt -3.174537 -3.440774
v -3833.560547 -1694.253296 10052.042969
vn -0.122053 0.647009 -0.752650
vt -3.311340 -3.317396
v -4062.404541 -1694.253296 9866.789063
vn 0.446781 0.740329 -0.502295
vt -2.660648 -3.385891
v -3991.642090 -1694.253296 9989.009766
vn 0.477218 0.796941 -0.370334
vt -2.963892 -3.466750
v -3755.285645 -1694.253296 10000.957031
vn -0.411611 0.763834 -0.497125
vt -3.354064 -3.114125
v -3636.546875 -1694.253418 9840.164063
vn -0.524426 0.399346 -0.751997
vt -3.287981 -3.674882
v -3642.184814 -1724.527588 9829.920898
vn -0.460024 0.228580 -0.857980
vt -3.228163 -3.641084
v -3729.057373 -1724.527588 9868.615234
vn -0.312527 0.095188 -0.945127
vt -3.137516 -3.816811
v -3729.452393 -1694.253174 9868.192383
vn -0.152374 0.829194 -0.537792
vt -3.201197 -3.866248
v -3729.057373 -1724.527588 9868.615234
vn -0.312527 0.095188 -0.945127
vt -3.137516 -2.816811
v -3817.588135 -1724.527588 9892.822266
vn -0.034003 0.066796 -0.997187
vt -3.038103 -2.997282
v -3817.316895 -1694.253296 9891.489258
vn -0.082792 0.797367 -0.597789
vt -3.095654 -3.046304
v -3729.452393 -1694.253174 9868.192383
vn -0.152374 0.829194 -0.537792
vt -3.201197 -2.866248
v -3931.265625 -1724.527588 9879.587891
vn 0.250714 0.094339 -0.963454
vt -2.840340 -3.150134
v -3933.763428 -1694.253174 9877.992188
vn 0.107146 0.664470 -0.739594
vt -2.883482 -3.207838
v -4053.409424 -1724.527466 9848.556641
vn 0.415573 0.355077 -0.837388
vt -2.627871 -3.308244
v -4062.404541 -1694.253296 9866.789063
vn 0.446781 0.740329 -0.502295
vt -2.660648 -3.385891
v -3541.309326 -1694.253296 9761.553711
vn -0.518392 0.131370 -0.844992
vt -3.314109 -3.401707
v -4150.249023 -1694.253174 9768.148438
vn 0.601174 0.313626 -0.735002
vt -2.367615 -3.368926
v -3916.657471 -1662.343384 10052.602539
vn 0.319142 0.078224 -0.944473
vt -3.230785 -3.527473
v -3829.409668 -1662.343384 10055.514648
vn -0.271136 0.081853 -0.959054
vt -3.400282 -3.365469
v -3833.560547 -1694.253296 10052.042969
vn -0.122053 0.647009 -0.752650
vt -3.311340 -3.317396
v -3916.349854 -1694.253296 10047.771484
vn 0.271819 0.778120 -0.566253
vt -3.174537 -3.440774
v -3751.516602 -1662.343384 10004.245117
vn -0.700486 0.085486 -0.708528
vt -3.445569 -3.138270
v -3693.826904 -1662.343384 9928.463867
vn -0.798688 0.101248 -0.593166
vt -3.412294 -2.898791
v -3697.213623 -1694.253296 9925.361328
vn -0.593442 0.673959 -0.440006
vt -3.326527 -2.904086
v -3755.285645 -1694.253296 10000.957031
vn -0.411611 0.763834 -0.497125
vt -3.354064 -3.114125
v -3633.776123 -1662.343384 9845.665039
vn -0.754022 0.084566 -0.651382
vt -3.384451 -3.672665
v -3697.213623 -1694.253296 9925.361328
vn -0.593442 0.673959 -0.440006
vt -3.326527 -3.904086
v -3693.826904 -1662.343384 9928.463867
vn -0.798688 0.101248 -0.593166
vt -3.412294 -3.898791
v -3991.642090 -1694.253296 9989.009766
vn 0.477218 0.796941 -0.370334
vt -2.963892 -3.466750
v -3996.408203 -1662.343384 9995.200195
vn 0.730672 0.117805 -0.672489
vt -2.958360 -3.570094
v -4067.528320 -1662.343262 9878.317383
vn 0.774803 0.207214 -0.597279
vt -2.659091 -3.480124
f 1/1/1 2/2/2 3/3/3
f 27/27/27 30/30/30 28/28/28
f 44/44/44 28/28/28 30/30/30
f 28/28/28 44/44/44 42/42/42
f 43/43/43 42/42/42 44/44/44
f 42/42/42 43/43/43 34/34/34
f 31/31/31 34/34/34 43/43/43
f 34/34/34 31/31/31 33/33/33
f 32/32/32 33/33/33 31/31/31
f 33/33/33 32/32/32 38/38/38
f 35/35/35 38/38/38 32/32/32
f 38/38/38 35/35/35 37/37/37
f 36/36/36 37/37/37 35/35/35
f 27/27/27 28/28/28 26/26/26
f 24/24/24 21/21/21 23/23/23
f 22/22/22 23/23/23 21/21/21
f 23/23/23 22/22/22 26/26/26
f 25/25/25 26/26/26 22/22/22
f 26/26/26 25/25/25 27/27/27
f 7/7/7 13/13/13 16/16/16
f 13/13/13 7/7/7 12/12/12
f 6/6/6 12/12/12 7/7/7
f 12/12/12 6/6/6 15/15/15
f 8/8/8 15/15/15 6/6/6
f 15/15/15 8/8/8 14/14/14
f 5/5/5 14/14/14 8/8/8
f 6/6/6 5/5/5 8/8/8
f 5/5/5 6/6/6 4/4/4
f 7/7/7 4/4/4 6/6/6
f 4/4/4 7/7/7 10/10/10
f 16/16/16 10/10/10 7/7/7
f 10/10/10 16/16/16 11/11/11
f 9/9/9 10/10/10 11/11/11
f 10/10/10 9/9/9 4/4/4
f 17/17/17 19/19/19 20/20/20
f 19/19/19 17/17/17 18/18/18
f 39/39/39 40/40/40 41/41/41
f 40/40/40 39/39/39 17/17/17
f 29/29/29 17/17/17 39/39/39
f 17/17/17 29/29/29 18/18/18
