mtllib EKH_GROTTO_PS_GR_SPIDER_ROOM_ROOF3.mtl
g ider_Room_Roof3
usemtl Web_Wall_Ground_Mix
v 6413.002930 2065.062744 9751.251953
vn 0.753323 -0.253270 -0.606925
vt -0.263473 -0.629256
v 6378.634277 2063.708008 9709.158203
vn 0.350683 -0.547488 -0.759788
vt -0.199547 -0.391458
v 6389.961914 2113.222656 9698.443359
vn 0.725468 -0.268556 -0.633699
vt -0.374602 -0.392347
v 6304.554688 2111.218506 9623.117188
vn 0.450455 -0.684246 -0.573496
vt -0.193524 0.085395
v 6321.266602 2155.517090 9607.949219
vn 0.722685 -0.366080 -0.586270
vt -0.388199 0.079510
v 6230.929688 2114.396484 9533.956055
vn 0.422876 -0.868214 -0.259576
vt -0.197332 0.571058
v 6253.093750 2156.422607 9516.376953
vn 0.749217 -0.470594 -0.466063
vt -0.406362 0.567777
v 6158.252441 2093.205078 9445.924805
vn 0.545139 -0.836698 0.052529
vt -0.201140 1.050524
v 6184.660645 2123.656738 9430.376953
vn 0.791825 -0.566763 -0.227580
vt -0.423084 1.024468
v 6158.252441 2093.205078 9445.924805
vn 0.545139 -0.836698 0.052529
vt -0.201140 1.050524
v 6119.777832 2044.272583 9357.916016
vn 0.588868 -0.686209 0.427025
vt -0.314349 1.437578
v 6151.114746 2078.946289 9345.848633
vn 0.814629 -0.526741 0.242741
vt -0.518802 1.406153
v 6184.660645 2123.656738 9430.376953
vn 0.791825 -0.566763 -0.227580
vt -0.423084 1.024468
v 6140.903320 2041.570557 9326.052734
vn 0.716061 -0.401849 0.570766
vt -0.553633 1.612225
v 5943.178711 2007.530884 9775.793945
vn 0.586666 -0.666795 -0.459573
vt 1.373027 0.569813
v 6025.608887 2007.530884 9859.345703
vn 0.426105 -0.680921 -0.595634
vt 1.333592 0.078426
v 6007.374023 1970.276855 9875.704102
vn 0.529678 -0.269725 -0.804170
vt 1.517201 0.041539
v 5925.809082 1972.032227 9790.283203
vn 0.749962 -0.323083 -0.577212
vt 1.539282 0.579657
v 6094.807617 1996.492676 9904.179688
vn 0.090238 -0.577638 -0.811290
vt 1.232528 -0.252660
v 6095.656738 1961.582397 9917.166992
vn 0.084832 -0.165585 -0.982540
vt 1.312522 -0.392413
v 6094.807617 1996.492676 9904.179688
vn 0.090238 -0.577638 -0.811290
vt 1.232528 -0.252660
v 6162.156738 2014.264526 9873.894531
vn -0.255473 -0.692385 -0.674786
vt 0.935652 -0.337047
v 6185.848633 1970.454468 9892.131836
vn -0.381882 -0.242928 -0.891713
vt 0.942293 -0.564934
v 6095.656738 1961.582397 9917.166992
vn 0.084832 -0.165585 -0.982540
vt 1.312522 -0.392413
v 6244.448242 2023.194580 9815.540039
vn -0.413553 -0.702954 -0.578644
vt 0.515583 -0.371465
v 6268.310059 1976.532959 9830.508789
vn -0.613356 -0.299197 -0.730942
vt 0.484197 -0.608430
v 6312.711426 2026.737793 9746.292969
vn -0.369124 -0.604371 -0.706033
vt 0.111156 -0.332959
v 6330.398438 1984.863159 9764.830078
vn -0.536435 -0.317052 -0.782123
vt 0.128248 -0.603001
v 6382.576172 2007.311035 9732.977539
vn 0.230325 -0.267962 -0.935493
vt -0.105143 -0.612686
v 6103.821777 2008.476685 9340.549805
vn 0.620577 -0.339394 0.706892
vt -0.324270 1.651344
v 6032.150391 2026.737793 9416.479492
vn 0.470604 -0.670582 0.573456
vt 0.123363 1.485728
v 6017.948730 1992.838745 9399.566406
vn 0.538561 -0.335900 0.772738
vt 0.118610 1.659814
v 6017.948730 1992.838745 9399.566406
vn 0.538561 -0.335900 0.772738
vt 0.118610 1.659814
v 6032.150391 2026.737793 9416.479492
vn 0.470604 -0.670582 0.573456
vt 0.123363 1.485728
v 5951.852051 2023.194580 9468.857422
vn 0.480389 -0.712510 0.511426
vt 0.521004 1.533995
v 5939.277344 1990.640137 9452.775391
vn 0.619939 -0.351872 0.701328
vt 0.513279 1.701012
v 5887.154785 2014.264526 9538.294922
vn 0.664289 -0.641512 0.383644
vt 0.914532 1.485248
v 5873.110352 1973.450806 9518.636719
vn 0.842420 -0.271814 0.465238
vt 0.901906 1.667740
v 5852.644043 1996.492676 9598.429688
vn 0.848621 -0.527942 0.033453
vt 1.186469 1.384933
v 5842.994629 1961.739868 9597.556641
vn 0.984192 -0.166601 0.060080
vt 1.325033 1.523820
v 5852.644043 1996.492676 9598.429688
vn 0.848621 -0.527942 0.033453
vt 1.186469 1.384933
v 5881.980469 2007.530884 9675.798828
vn 0.699346 -0.651343 -0.294393
vt 1.300353 1.056785
v 5865.096191 1971.333862 9689.989258
vn 0.901993 -0.267824 -0.338642
vt 1.478603 1.071062
v 5842.994629 1961.739868 9597.556641
vn 0.984192 -0.166601 0.060080
vt 1.325033 1.523820
v 6230.929688 2114.396484 9533.956055
vn 0.422876 -0.868214 -0.259576
vt -0.197332 0.571058
v 6304.554688 2111.218506 9623.117188
vn 0.450455 -0.684246 -0.573496
vt -0.193524 0.085395
v 6250.864258 2090.176025 9676.907227
vn -0.173509 -0.930690 -0.322042
vt 0.122758 0.057277
v 6171.272461 2114.759766 9582.090820
vn -0.075452 -0.995124 0.063526
vt 0.122857 0.577246
v 6230.929688 2114.396484 9533.956055
vn 0.422876 -0.868214 -0.259576
vt -0.197332 0.571058
v 6171.272461 2114.759766 9582.090820
vn -0.075452 -0.995124 0.063526
vt 0.122857 0.577246
v 6091.757813 2090.175781 9487.423828
vn 0.214505 -0.921258 0.324456
vt 0.123113 1.096527
v 6158.252441 2093.205078 9445.924805
vn 0.545139 -0.836698 0.052529
vt -0.201140 1.050524
v 6378.634277 2063.708008 9709.158203
vn 0.350683 -0.547488 -0.759788
vt -0.199547 -0.391458
v 6312.711426 2026.737793 9746.292969
vn -0.369124 -0.604371 -0.706033
vt 0.111156 -0.332959
v 6119.777832 2044.272583 9357.916016
vn 0.588868 -0.686209 0.427025
vt -0.314349 1.437578
v 6032.150391 2026.737793 9416.479492
vn 0.470604 -0.670582 0.573456
vt 0.123363 1.485728
v 5951.852051 2023.194580 9468.857422
vn 0.480389 -0.712510 0.511426
vt 0.521004 1.533995
v 6013.735352 2096.835205 9545.503906
vn 0.356303 -0.891602 0.279455
vt 0.528785 1.120300
v 5951.852051 2023.194580 9468.857422
vn 0.480389 -0.712510 0.511426
vt 0.521004 1.533995
v 6013.735352 2096.835205 9545.503906
vn 0.356303 -0.891602 0.279455
vt 0.528785 1.120300
v 5937.964355 2067.217285 9617.068359
vn 0.539127 -0.841987 -0.019985
vt 0.963464 1.094606
v 5887.154785 2014.264526 9538.294922
vn 0.664289 -0.641512 0.383644
vt 0.914532 1.485248
v 6096.595215 2133.817871 9644.981445
vn 0.080362 -0.994596 -0.065738
vt 0.530743 0.576508
v 6096.595215 2133.817871 9644.981445
vn 0.080362 -0.994596 -0.065738
vt 0.530743 0.576508
v 6178.660645 2096.835205 9743.628906
vn -0.220917 -0.890207 -0.398406
vt 0.533013 0.037535
v 6096.595215 2133.817871 9644.981445
vn 0.080362 -0.994596 -0.065738
vt 0.530743 0.576508
v 6178.660645 2096.835205 9743.628906
vn -0.220917 -0.890207 -0.398406
vt 0.533013 0.037535
v 6093.894531 2067.217285 9809.858398
vn 0.106361 -0.855064 -0.507497
vt 0.982154 0.053294
v 6010.819824 2085.708740 9717.782227
vn 0.414398 -0.845986 -0.335534
vt 1.000759 0.573850
v 6096.595215 2133.817871 9644.981445
vn 0.080362 -0.994596 -0.065738
vt 0.530743 0.576508
v 6010.819824 2085.708740 9717.782227
vn 0.414398 -0.845986 -0.335534
vt 1.000759 0.573850
v 6244.448242 2023.194580 9815.540039
vn -0.413553 -0.702954 -0.578644
vt 0.515583 -0.371465
v 6244.448242 2023.194580 9815.540039
vn -0.413553 -0.702954 -0.578644
vt 0.515583 -0.371465
v 6162.156738 2014.264526 9873.894531
vn -0.255473 -0.692385 -0.674786
vt 0.935652 -0.337047
v 5852.644043 1996.492676 9598.429688
vn 0.848621 -0.527942 0.033453
vt 1.186469 1.384933
v 5881.980469 2007.530884 9675.798828
vn 0.699346 -0.651343 -0.294393
vt 1.300353 1.056785
v 5943.178711 2007.530884 9775.793945
vn 0.586666 -0.666795 -0.459573
vt 1.373027 0.569813
v 5943.178711 2007.530884 9775.793945
vn 0.586666 -0.666795 -0.459573
vt 1.373027 0.569813
v 6025.608887 2007.530884 9859.345703
vn 0.426105 -0.680921 -0.595634
vt 1.333592 0.078426
v 6094.807617 1996.492676 9904.179688
vn 0.090238 -0.577638 -0.811290
vt 1.232528 -0.252660
f 6/6/6 8/8/8 9/9/9
f 9/9/9 7/7/7 6/6/6
f 5/5/5 6/6/6 7/7/7
f 6/6/6 5/5/5 4/4/4
f 3/3/3 4/4/4 5/5/5
f 4/4/4 3/3/3 2/2/2
f 1/1/1 2/2/2 3/3/3
f 2/2/2 1/1/1 29/29/29
f 27/27/27 2/2/2 29/29/29
f 21/21/21 22/22/22 23/23/23
f 25/25/25 23/23/23 22/22/22
f 23/23/23 25/25/25 26/26/26
f 27/27/27 26/26/26 25/25/25
f 26/26/26 27/27/27 28/28/28
f 29/29/29 28/28/28 27/27/27
f 23/23/23 24/24/24 21/21/21
f 35/35/35 33/33/33 34/34/34
f 33/33/33 35/35/35 36/36/36
f 37/37/37 36/36/36 35/35/35
f 36/36/36 37/37/37 38/38/38
f 39/39/39 38/38/38 37/37/37
f 38/38/38 39/39/39 40/40/40
f 47/47/47 46/46/46 53/53/53
f 46/46/46 47/47/47 45/45/45
f 48/48/48 45/45/45 47/47/47
f 47/47/47 64/64/64 48/48/48
f 64/64/64 47/47/47 65/65/65
f 47/47/47 72/72/72 65/65/65
f 72/72/72 47/47/47 54/54/54
f 53/53/53 54/54/54 47/47/47
f 68/68/68 67/67/67 73/73/73
f 67/67/67 68/68/68 66/66/66
f 69/69/69 66/66/66 68/68/68
f 68/68/68 78/78/78 69/69/69
f 78/78/78 68/68/68 79/79/79
f 68/68/68 80/80/80 79/79/79
f 80/80/80 68/68/68 74/74/74
f 73/73/73 74/74/74 68/68/68
f 61/61/61 62/62/62 59/59/59
f 62/62/62 61/61/61 75/75/75
f 76/76/76 75/75/75 61/61/61
f 59/59/59 60/60/60 61/61/61
f 70/70/70 61/61/61 60/60/60
f 61/61/61 77/77/77 76/76/76
f 77/77/77 61/61/61 71/71/71
f 70/70/70 71/71/71 61/61/61
f 57/57/57 56/56/56 51/51/51
f 55/55/55 51/51/51 56/56/56
f 51/51/51 55/55/55 52/52/52
f 51/51/51 58/58/58 57/57/57
f 51/51/51 52/52/52 49/49/49
f 51/51/51 63/63/63 58/58/58
f 63/63/63 51/51/51 50/50/50
f 49/49/49 50/50/50 51/51/51
f 17/17/17 15/15/15 16/16/16
f 15/15/15 17/17/17 18/18/18
f 15/15/15 43/43/43 42/42/42
f 43/43/43 15/15/15 18/18/18
f 43/43/43 41/41/41 42/42/42
f 41/41/41 43/43/43 44/44/44
f 19/19/19 17/17/17 16/16/16
f 17/17/17 19/19/19 20/20/20
f 11/11/11 14/14/14 12/12/12
f 14/14/14 11/11/11 30/30/30
f 31/31/31 30/30/30 11/11/11
f 30/30/30 31/31/31 32/32/32
f 12/12/12 10/10/10 11/11/11
f 10/10/10 12/12/12 13/13/13
