mtllib EKH_CAVERNS_PS_CA_PLAT_4894873__GX.mtl
g Lat_4894873__GX
usemtl Cave_Blender
v -3095.088379 -1928.323730 4868.410156
vn 0.188457 0.815449 0.547291
vt 3.673556 2.988297
v -3090.731201 -1845.429810 4841.155273
vn 0.437045 0.260123 0.861004
vt 3.814300 3.049831
v -3211.338135 -1845.429810 4849.588867
vn -0.212913 0.344641 0.914271
vt 3.943123 2.890550
v -3225.528809 -1928.323730 4877.531738
vn -0.424890 0.475298 0.770429
vt 3.864190 2.768997
v -3009.302490 -1928.323730 4769.724609
vn 0.481325 0.843930 0.236874
vt 3.693825 3.278166
v -3011.412842 -1845.429810 4749.909668
vn 0.944673 0.098817 0.312775
vt 3.833041 3.244710
v -3018.423828 -1928.323608 4639.284180
vn 0.548546 0.815471 -0.184675
vt 3.913126 3.468801
v -3019.846436 -1845.429810 4629.302734
vn 0.872957 -0.043520 -0.485853
vt 3.968602 3.341907
v -3117.109131 -1928.323608 4553.498047
vn 0.066844 0.559228 -0.826315
vt 3.202994 3.448532
v -3111.091797 -1845.429810 4549.983887
vn 0.276856 -0.060749 -0.958989
vt 3.183248 3.317235
v -3019.846436 -1845.429810 4629.302734
vn 0.872957 -0.043520 -0.485853
vt 2.968602 3.341907
v -3018.423828 -1928.323608 4639.284180
vn 0.548546 0.815471 -0.184675
vt 2.913126 3.468801
v -3182.329590 -1928.323608 4558.058594
vn -0.141010 0.176597 -0.974130
vt 3.348457 3.328136
v -2900.303467 -1928.323608 4384.271484
vn 0.061025 0.625778 -0.777610
vt 3.128231 3.055122
v -2902.331055 -1999.039551 4387.295410
vn 0.085114 -0.126477 -0.988311
vt 3.298140 3.227656
v -3039.482178 -1999.039551 4422.016113
vn -0.539736 -0.002745 -0.841830
vt 3.474348 2.808147
v -3037.058838 -1928.323608 4427.167969
vn -0.283002 0.853967 -0.436634
vt 3.275716 2.772827
v -2784.321777 -1928.323608 4440.172852
vn 0.396969 0.854623 -0.334715
vt 2.858143 3.149530
v -2785.207520 -1999.039551 4438.880371
vn 0.751439 -0.026573 -0.659267
vt 2.867089 3.384270
v -3143.045410 -1928.323730 4930.458496
vn -0.131647 0.776674 0.615993
vt 3.651413 2.815440
v -3156.949219 -1999.039551 4944.542969
vn -0.252864 0.077805 0.964368
vt 3.618270 2.636691
v -3048.468750 -1999.039551 4942.999023
vn 0.110426 -0.051903 0.992528
vt 3.344119 2.808090
v -3039.828369 -1928.323730 4939.673340
vn 0.110622 0.580769 0.806517
vt 3.474744 2.963150
v -2754.602539 -1928.323608 4543.763672
vn 0.848136 0.504468 -0.161793
vt 3.648667 3.033452
v -2747.525391 -1999.039551 4539.163086
vn 0.977876 0.108115 -0.179081
vt 3.534453 3.230311
v -2785.207520 -1999.039551 4438.880371
vn 0.751439 -0.026573 -0.659267
vt 3.867089 3.384270
v -2784.321777 -1928.323608 4440.172852
vn 0.396969 0.854623 -0.334715
vt 3.858143 3.149530
v -2938.221191 -1999.039551 4915.898438
vn 0.401487 -0.097167 0.910696
vt 3.179120 3.071591
v -2933.308838 -1928.323730 4911.880859
vn 0.316951 0.725078 0.611395
vt 3.351036 3.174201
v -2832.917725 -1928.323730 4842.272949
vn 0.452486 0.741615 0.495241
vt 3.302665 3.441329
v -2831.059082 -1999.039551 4846.893066
vn 0.616563 -0.098001 0.781182
vt 3.088902 3.412766
v -2765.490967 -1999.039551 4782.849609
vn 0.869141 -0.039237 0.493006
vt 3.109735 3.722679
v -2774.734375 -1928.323730 4777.136230
vn 0.562735 0.765684 0.311539
vt 3.313591 3.635108
v -3238.554199 -1999.039551 4893.426270
vn -0.560399 0.253071 0.788612
vt 3.851775 2.612875
v -3067.458252 -1928.323730 4904.041992
vn 0.000000 1.000000 0.000000
vt 3.574150 2.975724
v -2924.966553 -1928.323730 4835.915039
vn 0.000000 1.000000 0.000000
vt 3.457296 3.306679
v -2746.467285 -1928.323608 4679.666504
vn 0.555778 0.826776 0.086907
vt 3.422333 3.832684
v -2833.073242 -1928.323608 4626.290527
vn 0.000000 1.000000 0.000000
vt 3.642293 3.780468
v -2855.956055 -1928.323730 4731.189941
vn 0.000000 1.000000 0.000000
vt 3.513416 3.579678
v -2810.190430 -1928.323608 4521.391113
vn 0.000000 1.000000 0.000000
vt 3.771169 2.981259
v -2937.189941 -1928.323608 4685.236816
vn 0.000000 1.000000 0.000000
vt 3.713271 3.524240
v -2966.066895 -1928.323730 4799.148438
vn 0.000000 1.000000 0.000000
vt 3.579653 3.299869
v -2810.190430 -1928.323608 4521.391113
vn 0.000000 1.000000 0.000000
vt 3.771169 3.981259
v -2882.089111 -1928.323608 4485.321777
vn 0.000000 1.000000 0.000000
vt 3.940825 3.924959
v -2909.639648 -1928.323608 4585.279297
vn 0.000000 1.000000 0.000000
vt 3.827048 3.724599
v -2882.089111 -1928.323608 4485.321777
vn 0.000000 1.000000 0.000000
vt 2.940825 3.924959
v -2956.053467 -1928.323608 4450.567383
vn 0.000000 1.000000 0.000000
vt 3.111660 3.863346
v -2987.238525 -1928.323608 4544.925781
vn 0.000000 1.000000 0.000000
vt 3.012393 3.666074
v -2909.639648 -1928.323608 4585.279297
vn 0.000000 1.000000 0.000000
vt 2.827048 3.724599
v -3037.058838 -1928.323608 4427.167969
vn -0.283002 0.853967 -0.436634
vt 3.275716 3.772827
v -3084.510986 -1928.323608 4480.757813
vn -0.618559 0.643924 -0.450274
vt 3.266072 3.614055
v -2956.053467 -1928.323608 4450.567383
vn 0.000000 1.000000 0.000000
vt 3.111660 2.863346
v -2882.089111 -1928.323608 4485.321777
vn 0.000000 1.000000 0.000000
vt 3.940825 2.924959
v -3117.109131 -1928.323608 4553.498047
vn 0.066844 0.559228 -0.826315
vt 3.202994 3.448532
v -2746.467285 -1928.323608 4679.666504
vn 0.555778 0.826776 0.086907
vt 3.422333 2.832684
v -2739.771729 -1999.039551 4678.842285
vn 0.993294 0.064624 0.095866
vt 3.239917 3.980252
v -2739.771729 -1999.039551 4678.842285
vn 0.993294 0.064624 0.095866
vt 3.239917 2.980252
v -3238.554199 -1999.039551 4893.426270
vn -0.560399 0.253071 0.788612
vt 2.851775 2.612875
v -3225.528809 -1928.323730 4877.531738
vn -0.424890 0.475298 0.770429
vt 2.864190 2.768997
v -3274.871582 -1928.323730 4834.638672
vn -0.622167 0.317250 0.715724
vt 3.009125 2.758862
v -3211.338135 -1845.429810 4849.588867
vn -0.212913 0.344641 0.914271
vt 2.943123 2.890550
v -3125.650879 -1999.039551 4518.009277
vn -0.626098 0.190649 -0.756078
vt 3.406172 3.481432
v -3039.482178 -1999.039551 4422.016113
vn -0.539736 -0.002745 -0.841830
vt 3.474348 3.808147
v -3125.650879 -1999.039551 4518.009277
vn -0.626098 0.190649 -0.756078
vt 3.406172 3.481432
v -2882.089111 -1928.323608 4485.321777
vn 0.000000 1.000000 0.000000
vt 2.940825 2.924959
f 11/11/11 12/12/12 9/9/9
f 64/64/64 13/13/13 9/9/9
f 10/10/10 9/9/9 13/13/13
f 9/9/9 10/10/10 11/11/11
f 48/48/48 49/49/49 46/46/46
f 49/49/49 48/48/48 12/12/12
f 54/54/54 12/12/12 48/48/48
f 48/48/48 51/51/51 54/54/54
f 62/62/62 54/54/54 51/51/51
f 51/51/51 63/63/63 62/62/62
f 63/63/63 51/51/51 50/50/50
f 48/48/48 50/50/50 51/51/51
f 50/50/50 48/48/48 47/47/47
f 46/46/46 47/47/47 48/48/48
f 21/21/21 4/4/4 34/34/34
f 4/4/4 21/21/21 20/20/20
f 22/22/22 20/20/20 21/21/21
f 20/20/20 22/22/22 23/23/23
f 28/28/28 23/23/23 22/22/22
f 23/23/23 28/28/28 29/29/29
f 31/31/31 29/29/29 28/28/28
f 29/29/29 31/31/31 30/30/30
f 32/32/32 30/30/30 31/31/31
f 30/30/30 32/32/32 33/33/33
f 37/37/37 33/33/33 32/32/32
f 33/33/33 37/37/37 39/39/39
f 38/38/38 39/39/39 37/37/37
f 39/39/39 38/38/38 41/41/41
f 45/45/45 41/41/41 38/38/38
f 41/41/41 45/45/45 7/7/7
f 32/32/32 56/56/56 37/37/37
f 44/44/44 45/45/45 43/43/43
f 38/38/38 43/43/43 45/45/45
f 43/43/43 38/38/38 37/37/37
f 36/36/36 29/29/29 30/30/30
f 29/29/29 36/36/36 35/35/35
f 1/1/1 2/2/2 3/3/3
f 2/2/2 1/1/1 5/5/5
f 35/35/35 5/5/5 1/1/1
f 5/5/5 35/35/35 42/42/42
f 36/36/36 42/42/42 35/35/35
f 42/42/42 36/36/36 39/39/39
f 30/30/30 39/39/39 36/36/36
f 39/39/39 30/30/30 33/33/33
f 8/8/8 6/6/6 7/7/7
f 5/5/5 7/7/7 6/6/6
f 7/7/7 5/5/5 41/41/41
f 42/42/42 41/41/41 5/5/5
f 41/41/41 42/42/42 39/39/39
f 5/5/5 6/6/6 2/2/2
f 3/3/3 4/4/4 1/1/1
f 20/20/20 1/1/1 4/4/4
f 1/1/1 20/20/20 35/35/35
f 23/23/23 35/35/35 20/20/20
f 35/35/35 23/23/23 29/29/29
f 24/24/24 55/55/55 57/57/57
f 55/55/55 24/24/24 40/40/40
f 27/27/27 40/40/40 24/24/24
f 40/40/40 27/27/27 53/53/53
f 57/57/57 25/25/25 24/24/24
f 26/26/26 24/24/24 25/25/25
f 24/24/24 26/26/26 27/27/27
f 14/14/14 17/17/17 52/52/52
f 17/17/17 14/14/14 16/16/16
f 15/15/15 16/16/16 14/14/14
f 19/19/19 15/15/15 14/14/14
f 52/52/52 65/65/65 14/14/14
f 18/18/18 14/14/14 65/65/65
f 14/14/14 18/18/18 19/19/19
f 58/58/58 59/59/59 60/60/60
f 61/61/61 60/60/60 59/59/59
usemtl Main_Wall_No_Vines
v -3247.550049 -1928.323608 4562.619629
vn -0.386308 0.181858 -0.904264
vt 1.500000 0.600000
v -3333.335938 -1928.323608 4661.304688
vn -0.915990 0.315633 -0.247667
vt 1.750000 0.600000
v -3288.698975 -1762.535889 4638.021973
vn -0.942392 0.106390 -0.317142
vt 1.750000 0.200000
v -3215.847900 -1762.535889 4554.216309
vn -0.445739 0.024413 -0.894830
vt 1.500000 0.200000
v -3324.214600 -1928.323730 4791.745605
vn -0.760045 0.323225 0.563788
vt 2.000000 0.600000
v -3280.952881 -1762.536011 4748.794922
vn -0.880287 0.177975 0.439795
vt 2.000000 0.200000
v -3274.871582 -1928.323730 4834.638672
vn -0.622167 0.317250 0.715724
vt 0.125000 0.600000
v -3211.338135 -1845.429810 4849.588867
vn -0.212913 0.344641 0.914271
vt 0.250000 0.400000
v -3197.147217 -1762.536011 4821.645996
vn -0.303946 0.238249 0.922418
vt 0.250000 0.200000
v -3324.214600 -1928.323730 4791.745605
vn -0.760045 0.323225 0.563788
vt 0.000000 0.600000
v -3280.952881 -1762.536011 4748.794922
vn -0.880287 0.177975 0.439795
vt 0.000000 0.200000
v -3281.745361 -1557.723022 4640.348633
vn -0.944827 -0.075375 -0.318779
vt 1.750000 -0.200000
v -3212.576172 -1557.723022 4560.778320
vn -0.445473 -0.017871 -0.895117
vt 1.500000 -0.200000
v -3274.390869 -1557.723022 4745.522949
vn -0.891217 -0.102161 0.441922
vt 2.000000 -0.200000
v -3194.820557 -1557.723022 4814.692383
vn -0.316240 -0.083620 0.944987
vt 0.250000 -0.200000
v -3274.390869 -1557.723022 4745.522949
vn -0.891217 -0.102161 0.441922
vt 0.000000 -0.200000
v -3086.374268 -1762.536011 4813.899902
vn 0.561730 0.135342 0.816175
vt 0.500000 0.200000
v -3089.645996 -1557.723022 4807.337891
vn 0.446748 -0.029599 0.894170
vt 0.500000 -0.200000
v -3013.523193 -1762.536011 4730.094238
vn 0.981738 0.051888 0.183025
vt 0.750000 0.200000
v -3020.476807 -1557.723022 4727.767578
vn 0.947908 0.028650 0.317253
vt 0.750000 -0.200000
v -3021.269043 -1762.535889 4619.321289
vn 0.825621 -0.009096 -0.564152
vt 1.000000 0.200000
v -3027.831299 -1557.723022 4622.592773
vn 0.893647 0.056316 -0.445223
vt 1.000000 -0.200000
v -3105.074707 -1762.535889 4546.470215
vn 0.237685 -0.003755 -0.971335
vt 1.250000 0.200000
v -3107.401367 -1557.723022 4553.423828
vn 0.316855 0.037037 -0.947751
vt 1.250000 -0.200000
v -3333.927246 -1302.361572 4659.013184
vn -0.917184 -0.246753 -0.312867
vt 1.750000 -0.600000
v -3254.013428 -1302.361572 4567.083008
vn -0.434253 -0.194374 -0.879570
vt 1.500000 -0.600000
v -3325.430420 -1302.361572 4780.525879
vn -0.863559 -0.247059 0.439576
vt 2.000000 -0.600000
v -3233.499756 -1302.361572 4860.439453
vn -0.299348 -0.187487 0.935543
vt 0.250000 -0.600000
v -3325.430420 -1302.361572 4780.525879
vn -0.863559 -0.247059 0.439576
vt 0.000000 -0.600000
v -3111.987549 -1302.361572 4851.942383
vn 0.487334 -0.101285 0.867322
vt 0.500000 -0.600000
v -3032.073730 -1302.361572 4760.012207
vn 0.958412 -0.066805 0.277460
vt 0.750000 -0.600000
v -3040.570557 -1302.361572 4638.500000
vn 0.898728 -0.048878 -0.435774
vt 1.000000 -0.600000
v -3132.501221 -1302.361572 4558.585938
vn 0.331481 -0.108440 -0.937209
vt 1.250000 -0.600000
v -3279.121338 -2069.755371 4515.456543
vn -0.427944 0.249423 -0.868707
vt 1.500000 0.800000
v -3386.414795 -2069.755371 4638.883789
vn -0.936125 0.161781 -0.312246
vt 1.750000 0.800000
v -3375.006592 -2069.755371 4802.027832
vn -0.879744 0.167783 0.444860
vt 2.000000 0.800000
v -3182.329590 -1928.323608 4558.058594
vn -0.141010 0.176597 -0.974130
vt 1.375000 0.600000
v -3125.650879 -1999.039551 4518.009277
vn -0.626098 0.190649 -0.756078
vt 1.250000 0.700000
v -3115.977295 -2069.755371 4504.048340
vn -0.407580 0.118425 -0.905458
vt 1.250000 0.800000
v -3238.554199 -1999.039551 4893.426270
vn -0.560399 0.253071 0.788612
vt 0.250000 0.700000
v -3251.579590 -2069.755371 4909.320801
vn -0.523998 0.156638 0.837192
vt 0.250000 0.800000
v -3375.006592 -2069.755371 4802.027832
vn -0.879744 0.167783 0.444860
vt 0.000000 0.800000
v -2849.065186 -2069.755371 4836.250488
vn 0.595948 -0.135226 0.791556
vt 0.814611 0.800000
v -2831.059082 -1999.039551 4846.893066
vn 0.616563 -0.098001 0.781182
vt 0.814611 0.700000
v -2938.221191 -1999.039551 4915.898438
vn 0.401487 -0.097167 0.910696
vt 0.672826 0.700000
v -2943.881104 -2069.755371 4903.247559
vn 0.385845 -0.109637 0.916026
vt 0.672826 0.800000
v -2739.771729 -1999.039551 4678.842285
vn 0.993294 0.064624 0.095866
vt 1.218945 0.700000
v -2765.490967 -1999.039551 4782.849609
vn 0.869141 -0.039237 0.493006
vt 1.016778 0.700000
v -2776.112549 -2069.755371 4773.301270
vn 0.819022 -0.120634 0.560937
vt 1.016778 0.800000
v -2733.076172 -2069.755371 4678.018555
vn 0.990072 0.032119 0.136841
vt 1.218945 0.800000
v -2747.525391 -1999.039551 4539.163086
vn 0.977876 0.108115 -0.179081
vt 1.435423 0.700000
v -2740.448242 -2069.755371 4534.562500
vn 0.959496 -0.029206 -0.280206
vt 1.435423 0.800000
v -3115.977295 -2069.755371 4504.048340
vn -0.407580 0.118425 -0.905458
vt 2.250000 0.800000
v -3125.650879 -1999.039551 4518.009277
vn -0.626098 0.190649 -0.756078
vt 2.250000 0.700000
v -3039.482178 -1999.039551 4422.016113
vn -0.539736 -0.002745 -0.841830
vt 1.953814 0.700000
v -3023.256592 -2069.755371 4428.503906
vn -0.415443 -0.103967 -0.903658
vt 1.950683 0.800000
v -2798.753906 -2069.755371 4449.424316
vn 0.591073 -0.126779 -0.796592
vt 1.622160 0.800000
v -2785.207520 -1999.039551 4438.880371
vn 0.751439 -0.026573 -0.659267
vt 1.622160 0.700000
v -3158.569336 -2069.755371 4940.730957
vn -0.186276 -0.001810 0.982496
vt 0.390520 0.800000
v -3156.949219 -1999.039551 4944.542969
vn -0.252864 0.077805 0.964368
vt 0.390520 0.700000
v -2902.331055 -1999.039551 4387.295410
vn 0.085114 -0.126477 -0.988311
vt 1.777588 0.700000
v -2906.356201 -2069.755371 4403.526367
vn 0.032219 -0.130803 -0.990885
vt 1.777588 0.800000
v -3044.825439 -2069.755371 4928.428711
vn 0.143030 -0.074593 0.986903
vt 0.531040 0.800000
v -3048.468750 -1999.039551 4942.999023
vn 0.110426 -0.051903 0.992528
vt 0.531040 0.700000
v -3111.091797 -1845.429810 4549.983887
vn 0.276856 -0.060749 -0.958989
vt 1.250000 0.400000
v -3090.731201 -1845.429810 4841.155273
vn 0.437045 0.260123 0.861004
vt 0.500000 0.400000
v -3011.412842 -1845.429810 4749.909668
vn 0.944673 0.098817 0.312775
vt 0.750000 0.400000
v -3019.846436 -1845.429810 4629.302734
vn 0.872957 -0.043520 -0.485853
vt 1.000000 0.400000
v -3278.512451 -2183.458740 4501.137695
vn -0.390353 0.265029 -0.881694
vt 1.500000 0.937668
v -3388.836914 -2183.458740 4628.051270
vn -0.904987 0.297393 -0.304230
vt 1.750000 0.937668
v -3377.106445 -2183.458740 4795.804199
vn -0.877800 0.205645 0.432640
vt 2.000000 0.937668
v -3250.192383 -2183.458740 4906.128418
vn -0.392342 0.151885 0.907193
vt 0.250000 0.937668
v -3377.106445 -2183.458740 4795.804199
vn -0.877800 0.205645 0.432640
vt 0.000000 0.937668
v -3048.106934 -2183.458740 4933.169922
vn 0.199264 0.154145 0.967746
vt 0.531040 0.937668
v -3110.759521 -2183.458740 4489.407227
vn -0.316436 0.180393 -0.931304
vt 1.250000 0.937668
v -2740.277832 -2183.458740 4677.328125
vn 0.940594 0.120601 0.317393
vt 1.218945 0.937668
v -2855.000244 -2183.458740 4844.151367
vn 0.669826 0.124733 0.731967
vt 0.814611 0.937668
v -2748.236328 -2183.458740 4527.975098
vn 0.905597 0.168653 -0.389165
vt 1.435423 0.937668
v -2804.109619 -2183.458740 4451.916504
vn 0.563409 0.118671 -0.817611
vt 1.622160 0.937668
v -3110.759521 -2183.458740 4489.407227
vn -0.316436 0.180393 -0.931304
vt 2.250000 0.937668
v -3022.505371 -2183.458740 4435.337891
vn -0.344650 0.071045 -0.936039
vt 1.950683 0.937668
v -2907.999512 -2183.458740 4411.056641
vn 0.087615 0.072817 -0.993489
vt 1.777588 0.937668
f 107/107/107 138/138/138 137/137/137
f 111/111/111 128/128/128 139/139/139
f 124/124/124 139/139/139 128/128/128
f 139/139/139 124/124/124 137/137/137
f 106/106/106 137/137/137 124/124/124
f 137/137/137 106/106/106 107/107/107
f 142/142/142 111/111/111 139/139/139
f 114/114/114 108/108/108 142/142/142
f 111/111/111 142/142/142 108/108/108
f 106/106/106 75/75/75 107/107/107
f 75/75/75 106/106/106 105/105/105
f 124/124/124 105/105/105 106/106/106
f 105/105/105 124/124/124 125/125/125
f 128/128/128 125/125/125 124/124/124
f 125/125/125 128/128/128 129/129/129
f 111/111/111 129/129/129 128/128/128
f 129/129/129 111/111/111 110/110/110
f 108/108/108 110/110/110 111/111/111
f 110/110/110 108/108/108 109/109/109
f 114/114/114 109/109/109 108/108/108
f 109/109/109 114/114/114 113/113/113
f 112/112/112 113/113/113 114/114/114
f 142/142/142 141/141/141 114/114/114
f 115/115/115 114/114/114 141/141/141
f 114/114/114 115/115/115 112/112/112
f 115/115/115 116/116/116 112/112/112
f 116/116/116 115/115/115 117/117/117
f 141/141/141 117/117/117 115/115/115
f 117/117/117 141/141/141 143/143/143
f 122/122/122 143/143/143 144/144/144
f 143/143/143 122/122/122 117/117/117
f 123/123/123 117/117/117 122/122/122
f 117/117/117 123/123/123 116/116/116
f 126/126/126 123/123/123 122/122/122
f 75/75/75 74/74/74 76/76/76
f 74/74/74 75/75/75 72/72/72
f 105/105/105 72/72/72 75/75/75
f 120/120/120 118/118/118 119/119/119
f 118/118/118 120/120/120 121/121/121
f 126/126/126 121/121/121 120/120/120
f 121/121/121 126/126/126 127/127/127
f 122/122/122 127/127/127 126/126/126
f 127/127/127 122/122/122 147/147/147
f 144/144/144 147/147/147 122/122/122
f 121/121/121 145/145/145 118/118/118
f 145/145/145 121/121/121 146/146/146
f 127/127/127 146/146/146 121/121/121
f 146/146/146 127/127/127 147/147/147
f 69/69/69 88/88/88 130/130/130
f 86/86/86 130/130/130 88/88/88
f 130/130/130 86/86/86 133/133/133
f 84/84/84 133/133/133 86/86/86
f 133/133/133 84/84/84 132/132/132
f 82/82/82 132/132/132 84/84/84
f 132/132/132 82/82/82 131/131/131
f 74/74/74 131/131/131 82/82/82
f 131/131/131 74/74/74 73/73/73
f 72/72/72 73/73/73 74/74/74
f 71/71/71 79/79/79 68/68/68
f 77/77/77 68/68/68 79/79/79
f 68/68/68 77/77/77 69/69/69
f 78/78/78 69/69/69 77/77/77
f 69/69/69 78/78/78 88/88/88
f 89/89/89 88/88/88 78/78/78
f 88/88/88 89/89/89 86/86/86
f 87/87/87 86/86/86 89/89/89
f 86/86/86 87/87/87 84/84/84
f 85/85/85 84/84/84 87/87/87
f 84/84/84 85/85/85 82/82/82
f 83/83/83 82/82/82 85/85/85
f 82/82/82 83/83/83 74/74/74
f 80/80/80 74/74/74 83/83/83
f 74/74/74 80/80/80 76/76/76
f 81/81/81 76/76/76 80/80/80
f 94/94/94 81/81/81 93/93/93
f 80/80/80 93/93/93 81/81/81
f 93/93/93 80/80/80 95/95/95
f 83/83/83 95/95/95 80/80/80
f 95/95/95 83/83/83 96/96/96
f 85/85/85 96/96/96 83/83/83
f 96/96/96 85/85/85 97/97/97
f 87/87/87 97/97/97 85/85/85
f 97/97/97 87/87/87 98/98/98
f 89/89/89 98/98/98 87/87/87
f 98/98/98 89/89/89 91/91/91
f 78/78/78 91/91/91 89/89/89
f 91/91/91 78/78/78 90/90/90
f 77/77/77 90/90/90 78/78/78
f 90/90/90 77/77/77 92/92/92
f 79/79/79 92/92/92 77/77/77
f 67/67/67 101/101/101 70/70/70
f 101/101/101 67/67/67 100/100/100
f 99/99/99 100/100/100 67/67/67
f 100/100/100 99/99/99 134/134/134
f 140/140/140 134/134/134 99/99/99
f 67/67/67 70/70/70 71/71/71
f 134/134/134 135/135/135 100/100/100
f 136/136/136 100/100/100 135/135/135
f 100/100/100 136/136/136 101/101/101
f 71/71/71 68/68/68 67/67/67
f 66/66/66 67/67/67 68/68/68
f 67/67/67 66/66/66 99/99/99
f 104/104/104 99/99/99 66/66/66
f 99/99/99 104/104/104 140/140/140
f 68/68/68 69/69/69 66/66/66
f 103/103/103 104/104/104 102/102/102
f 66/66/66 102/102/102 104/104/104
f 102/102/102 66/66/66 130/130/130
f 69/69/69 130/130/130 66/66/66
usemtl Wall_Stream_Blend
v -3310.692627 -2297.161865 4468.293945
vn -0.314338 0.827534 -0.465167
vt 3.226961 3.000407
v -3439.493652 -2297.161865 4616.462402
vn -0.512915 0.840813 -0.173063
vt 3.199571 2.608713
v -3388.836914 -2183.458740 4628.051270
vn -0.904987 0.297393 -0.304230
vt 2.937778 2.772382
v -3278.512451 -2183.458740 4501.137695
vn -0.390353 0.265029 -0.881694
vt 2.954445 3.010735
v -3425.798584 -2297.161865 4812.309570
vn -0.610837 0.763927 0.208072
vt 3.903234 2.351111
v -3377.106445 -2183.458740 4795.804199
vn -0.877800 0.205645 0.432640
vt 3.757452 2.615626
v -3388.836914 -2183.458740 4628.051270
vn -0.904987 0.297393 -0.304230
vt 3.937778 2.772382
v -3425.798584 -2297.161865 4812.309570
vn -0.610837 0.763927 0.208072
vt 2.903234 2.351111
v -3277.629639 -2297.161865 4941.110352
vn -0.186906 0.930122 0.316133
vt 3.511539 2.378501
v -3250.192383 -2183.458740 4906.128418
vn -0.392342 0.151885 0.907193
vt 3.519098 2.632294
v -3377.106445 -2183.458740 4795.804199
vn -0.877800 0.205645 0.432640
vt 3.757452 2.615626
v -3425.798584 -2297.161865 4812.309570
vn -0.610837 0.763927 0.208072
vt 3.903234 2.351111
v -3114.845459 -2297.161865 4454.598633
vn -0.194357 0.691859 -0.695383
vt 2.969359 3.296744
v -3278.512451 -2183.458740 4501.137695
vn -0.390353 0.265029 -0.881694
vt 3.954445 3.010735
v -3110.759521 -2183.458740 4489.407227
vn -0.316436 0.180393 -0.931304
vt 3.797690 3.191061
v -3114.845459 -2297.161865 4454.598633
vn -0.194357 0.691859 -0.695383
vt 3.969359 3.296744
v -3051.920898 -2297.161865 4979.871094
vn 0.021902 0.824635 0.565241
vt 3.137523 2.642885
v -3048.106934 -2183.458740 4933.169922
vn 0.199264 0.154145 0.967746
vt 3.288895 2.808160
v -2746.028809 -2297.161865 4743.596680
vn 0.203402 0.929742 0.306934
vt 3.039068 3.409625
v -2740.277832 -2183.458740 4677.328125
vn 0.940594 0.120601 0.317393
vt 3.236663 3.374480
v -2855.000244 -2183.458740 4844.151367
vn 0.669826 0.124733 0.731967
vt 3.184318 3.091612
v -2834.433105 -2297.161865 4881.548828
vn 0.331596 0.820198 0.466176
vt 2.968997 3.089508
v -2705.284912 -2272.161865 4683.360840
vn 0.216469 0.968041 0.126639
vt 3.066634 3.552432
v -2714.040283 -2272.161865 4507.279297
vn 0.227981 0.955591 -0.186738
vt 3.328033 3.789067
v -2748.236328 -2183.458740 4527.975098
vn 0.905597 0.168653 -0.389165
vt 3.394714 3.516539
v -2775.838135 -2297.161865 4428.993652
vn -0.007719 0.981896 -0.189263
vt 3.526141 3.812385
v -2804.109619 -2183.458740 4451.916504
vn 0.563409 0.118671 -0.817611
vt 3.527266 3.536819
v -3114.845459 -2297.161865 4454.598633
vn -0.194357 0.691859 -0.695383
vt 3.969359 3.296744
v -3110.759521 -2183.458740 4489.407227
vn -0.316436 0.180393 -0.931304
vt 3.797690 3.191061
v -3022.505371 -2183.458740 4435.337891
vn -0.344650 0.071045 -0.936039
vt 3.763344 3.334054
v -3018.702148 -2297.161865 4414.435059
vn -0.263782 0.165398 -0.950296
vt 3.890192 3.489511
v -2907.999512 -2183.458740 4411.056641
vn 0.087615 0.072817 -0.993489
vt 3.672696 3.473493
v -2890.560303 -2297.161865 4387.450684
vn 0.038199 0.974618 -0.220591
vt 3.747133 3.708894
f 152/152/152 153/153/153 154/154/154
f 172/172/172 171/171/171 173/173/173
f 171/171/171 172/172/172 170/170/170
f 167/167/167 170/170/170 172/172/172
f 170/170/170 167/167/167 166/166/166
f 168/168/168 166/166/166 167/167/167
f 166/166/166 168/168/168 169/169/169
f 165/165/165 169/169/169 168/168/168
f 169/169/169 165/165/165 164/164/164
f 157/157/157 164/164/164 165/165/165
f 164/164/164 157/157/157 156/156/156
f 158/158/158 156/156/156 157/157/157
f 156/156/156 158/158/158 159/159/159
f 177/177/177 175/175/175 176/176/176
f 175/175/175 177/177/177 178/178/178
f 179/179/179 178/178/178 177/177/177
f 178/178/178 179/179/179 180/180/180
f 174/174/174 180/180/180 179/179/179
f 180/180/180 174/174/174 173/173/173
f 172/172/172 173/173/173 174/174/174
f 148/148/148 151/151/151 160/160/160
f 151/151/151 148/148/148 150/150/150
f 149/149/149 150/150/150 148/148/148
f 150/150/150 149/149/149 155/155/155
f 161/161/161 162/162/162 163/163/163
