mtllib EKH_GROTTO_PS_GR_LINE41.mtl
g GR_Line41
usemtl Edgegrab
v 4523.368164 1298.036377 3521.878174
vn -0.668111 0.578427 0.468027
vt 0.427843 0.248205
v 4458.692871 1285.772949 3422.166016
vn -0.439983 0.880911 0.174387
vt 0.002280 0.248205
v 4466.505371 1249.677368 3420.678467
vn -0.745894 -0.331683 0.577606
vt 0.002280 1.000000
v 4539.024902 1261.940796 3511.526123
vn -0.717444 -0.470695 0.513537
vt 0.427843 1.000000
v 4608.881836 1289.438477 3666.128418
vn -0.886909 0.213558 0.409617
vt 1.020343 0.248205
v 4625.884766 1253.342896 3654.047363
vn -0.869653 -0.382920 0.311572
vt 1.020343 1.000000
v 4650.914063 1272.862915 3812.281982
vn -0.970480 -0.082787 0.226527
vt 1.572280 0.248205
v 4651.072754 1240.769653 3809.412842
vn -0.987175 -0.019058 0.158500
vt 1.572280 1.000000
v 4539.024902 1297.940796 3511.526123
vn -0.655285 0.701096 0.281188
vt 0.427843 0.000000
v 4460.582520 1285.677368 3420.743408
vn -0.372558 0.892242 0.255157
vt 0.002280 0.000000
v 4624.538574 1289.342896 3655.776367
vn 0.032655 0.998659 0.040166
vt 1.020343 0.000000
v 4651.072754 1276.769653 3809.412842
vn -0.915348 0.379119 0.135673
vt 1.572280 0.000000
f 8/8/8 7/7/7 6/6/6
f 5/5/5 6/6/6 7/7/7
f 6/6/6 5/5/5 4/4/4
f 1/1/1 4/4/4 5/5/5
f 4/4/4 1/1/1 3/3/3
f 2/2/2 3/3/3 1/1/1
f 10/10/10 2/2/2 9/9/9
f 1/1/1 9/9/9 2/2/2
f 9/9/9 1/1/1 11/11/11
f 5/5/5 11/11/11 1/1/1
f 11/11/11 5/5/5 12/12/12
f 7/7/7 12/12/12 5/5/5
