mtllib EKH_GROTTO_PS_GR_OBJECT09.mtl
g GR_Object09
usemtl Cave_Blender_Vines_Ground
v 2281.734619 1441.583252 6148.103027
vn 0.950201 0.306974 -0.053712
vt -3.103104 -2.989227
v 2276.036377 1487.464600 6145.416016
vn 0.967015 0.108021 0.230681
vt -2.865325 -2.913811
v 2233.846436 1483.970581 6225.516602
vn 0.944571 0.136805 0.298447
vt -2.645854 -3.322838
v 2239.544922 1441.583252 6228.203613
vn 0.395080 0.910648 0.120962
vt -2.892154 -3.389732
v 2222.239502 1483.377563 6314.356934
vn 0.983085 0.166758 -0.075736
vt -3.576875 -2.897125
v 2240.032715 1487.520996 6394.029297
vn 0.908379 0.147173 -0.391392
vt -3.674364 -3.346619
v 2250.069580 1441.583252 6390.757324
vn 0.657347 0.701092 -0.276343
vt -3.944777 -3.202499
v 2229.973145 1441.583252 6315.152344
vn 0.759495 0.650499 -0.004217
vt -3.844296 -2.824478
v 2281.290771 1484.981812 6459.077637
vn 0.684364 0.164192 -0.710413
vt -2.914744 -2.714478
v 2368.254639 1489.664185 6508.459473
vn 0.353475 0.124341 -0.927143
vt -3.513785 -3.031929
v 2370.686035 1441.583252 6501.861816
vn 0.260133 0.764317 -0.590043
vt -3.547860 -2.758026
v 2370.686035 1441.583252 6501.861816
vn 0.260133 0.764317 -0.590043
vt -3.547860 -3.758026
v 2287.893311 1441.583252 6453.410156
vn 0.438435 0.781071 -0.444639
vt -3.133896 -3.515762
v 2281.290771 1484.981812 6459.077637
vn 0.684364 0.164192 -0.710413
vt -2.914744 -3.714478
v 2458.742676 1494.368652 6529.117676
vn -0.015338 0.150399 -0.988506
vt -3.966226 -3.135223
v 2459.592773 1441.583252 6520.463379
vn 0.043873 0.765953 -0.641398
vt -3.992393 -2.851028
v 2552.734131 1441.583252 6499.573730
vn 0.268729 0.606504 -0.748289
vt -3.458100 -3.746582
v 2556.430664 1496.610107 6510.892578
vn 0.050836 0.157200 -0.986258
vt -3.480231 -3.992966
v 2600.239014 1445.404175 6519.062012
vn 0.348681 0.109757 -0.930793
vt -3.701914 -3.903778
v 2563.385010 1441.583252 6447.503906
vn 0.640838 0.765372 0.059426
vt -3.511353 -3.486237
v 2569.432129 1377.609497 6497.843750
vn 0.879894 -0.006509 -0.475125
vt -3.827578 -3.691673
v 2571.745361 1377.609497 6447.503906
vn 0.998274 -0.039864 0.043126
vt -3.851723 -3.455704
v 2565.751709 1441.583374 6374.132813
vn 0.651162 0.758611 -0.022316
vt -3.523188 -3.119377
v 2575.442383 1377.609497 6369.210938
vn 0.986504 -0.051365 -0.155475
vt -3.870208 -3.064232
v 2553.917725 1441.583374 6310.229004
vn 0.706484 0.623510 -0.334837
vt -3.464018 -2.799858
v 2555.930664 1377.609497 6306.062012
vn 0.807165 -0.024911 -0.589800
vt -3.722332 -2.522247
v 2505.398193 1441.583374 6267.626465
vn 0.293332 0.826006 -0.481322
vt -3.221420 -3.586845
v 2553.917725 1441.583374 6310.229004
vn 0.706484 0.623510 -0.334837
vt -3.464018 -3.799858
v 2555.930664 1377.609497 6306.062012
vn 0.807165 -0.024911 -0.589800
vt -3.722332 -3.522247
v 2508.662842 1377.609497 6263.065918
vn 0.439589 -0.055083 -0.896509
vt -3.485994 -3.307266
v 2412.528564 1441.583252 6251.022949
vn 0.209975 0.604457 -0.768467
vt -2.757071 -3.503830
v 2415.184814 1377.609497 6246.037109
vn 0.324657 0.007627 -0.945801
vt -2.992125 -3.179008
v 2332.323242 1441.583374 6212.883789
vn 0.317192 0.827937 -0.462503
vt -3.356045 -3.313133
v 2412.528564 1441.583252 6251.022949
vn 0.209975 0.604457 -0.768467
vt -3.757071 -3.503830
v 2415.184814 1377.609497 6246.037109
vn 0.324657 0.007627 -0.945801
vt -3.992125 -3.179008
v 2337.637695 1377.609497 6208.014648
vn 0.662835 0.011359 -0.748680
vt -3.604389 -2.988899
v 2337.637695 1377.609497 6208.014648
vn 0.662835 0.011359 -0.748680
vt -3.604389 -3.988899
v 2287.049316 1377.609497 6143.233887
vn 0.925157 -0.065077 -0.373965
vt -3.351447 -3.664993
v 2281.734619 1441.583252 6148.103027
vn 0.950201 0.306974 -0.053712
vt -3.103104 -3.989227
v 2552.734131 1441.583252 6499.573730
vn 0.268729 0.606504 -0.748289
vt -3.458100 -2.746582
v 2459.592773 1441.583252 6520.463379
vn 0.043873 0.765953 -0.641398
vt -2.992393 -2.851028
v 2458.742676 1494.368652 6529.117676
vn -0.015338 0.150399 -0.988506
vt -2.966226 -3.135223
v 2556.430664 1496.610107 6510.892578
vn 0.050836 0.157200 -0.986258
vt -3.480231 -2.992966
v 2250.069580 1441.583252 6390.757324
vn 0.657347 0.701092 -0.276343
vt -2.944777 -3.202499
v 2281.290771 1484.981812 6459.077637
vn 0.684364 0.164192 -0.710413
vt -3.914744 -3.714478
v 2229.973145 1441.583252 6315.152344
vn 0.759495 0.650499 -0.004217
vt -3.844296 -3.824478
v 2239.544922 1441.583252 6228.203613
vn 0.395080 0.910648 0.120962
vt -3.892154 -3.389732
v 2233.846436 1483.970581 6225.516602
vn 0.944571 0.136805 0.298447
vt -3.645854 -3.322838
v 2222.239502 1483.377563 6314.356934
vn 0.983085 0.166758 -0.075736
vt -3.576875 -3.897125
v 2276.036377 1487.464600 6145.416016
vn 0.967015 0.108021 0.230681
vt -2.865325 -3.913811
v 2278.886475 1468.028564 6103.496094
vn 0.994590 0.103856 -0.001937
vt -3.046250 -3.715065
v 2229.973145 1441.583252 6315.152344
vn 0.759495 0.650499 -0.004217
vt -2.844296 -3.824478
v 2264.086426 1441.583374 6281.066406
vn 0.000000 1.000000 0.000000
vt -3.014862 -3.654045
v 2239.544922 1441.583252 6228.203613
vn 0.395080 0.910648 0.120962
vt -2.892154 -3.389732
v 2459.592773 1441.583252 6520.463379
vn 0.043873 0.765953 -0.641398
vt -2.992393 -3.851028
v 2552.734131 1441.583252 6499.573730
vn 0.268729 0.606504 -0.748289
vt -3.458100 -3.746582
v 2503.272217 1441.583252 6472.283691
vn 0.000000 1.000000 0.000001
vt -3.210791 -3.610130
v 2402.825684 1441.583374 6457.907715
vn 0.000000 1.000000 0.000000
vt -2.708557 -3.538254
v 2402.825684 1441.583374 6457.907715
vn 0.000000 1.000000 0.000000
vt -3.708557 -3.538254
v 2370.686035 1441.583252 6501.861816
vn 0.260133 0.764317 -0.590043
vt -3.547860 -3.758026
v 2459.592773 1441.583252 6520.463379
vn 0.043873 0.765953 -0.641398
vt -3.992393 -3.851028
v 2318.281738 1441.583252 6403.648438
vn 0.000000 1.000000 0.000000
vt -3.285839 -3.266953
v 2287.893311 1441.583252 6453.410156
vn 0.438435 0.781071 -0.444639
vt -3.133896 -3.515762
v 2250.069580 1441.583252 6390.757324
vn 0.657347 0.701092 -0.276343
vt -2.944777 -3.202499
v 2264.086426 1441.583374 6281.066406
vn 0.000000 1.000000 0.000000
vt -3.014862 -2.654045
v 2229.973145 1441.583252 6315.152344
vn 0.759495 0.650499 -0.004217
vt -2.844296 -2.824478
v 2531.546143 1441.583252 6424.169434
vn 0.000000 1.000000 0.000001
vt -3.352160 -3.369560
v 2507.917969 1441.583374 6348.059082
vn 0.000000 1.000000 0.000000
vt -3.234019 -2.989006
v 2565.751709 1441.583374 6374.132813
vn 0.651162 0.758611 -0.022316
vt -3.523188 -3.119377
v 2553.917725 1441.583374 6310.229004
vn 0.706484 0.623510 -0.334837
vt -3.464018 -2.799858
v 2453.740723 1441.583374 6317.917969
vn 0.000000 1.000000 0.000000
vt -3.963133 -2.838303
v 2379.443848 1441.583252 6301.789063
vn 0.000000 1.000000 0.000000
vt -3.591648 -2.757660
v 2507.917969 1441.583374 6348.059082
vn 0.000000 1.000000 0.000000
vt -3.234019 -3.989006
v 2553.917725 1441.583374 6310.229004
vn 0.706484 0.623510 -0.334837
vt -3.464018 -3.799858
v 2505.398193 1441.583374 6267.626465
vn 0.293332 0.826006 -0.481322
vt -3.221420 -3.586845
v 2453.740723 1441.583374 6317.917969
vn 0.000000 1.000000 0.000000
vt -2.963133 -3.838303
v 2379.443848 1441.583252 6301.789063
vn 0.000000 1.000000 0.000000
vt -3.591648 -3.757660
v 2298.204834 1441.583374 6246.975098
vn 0.000000 1.000000 0.000000
vt -3.185453 -3.483589
v 2412.528564 1441.583252 6251.022949
vn 0.209975 0.604457 -0.768467
vt -3.757071 -3.503830
v 2332.323242 1441.583374 6212.883789
vn 0.317192 0.827937 -0.462503
vt -3.356045 -3.313133
v 2563.385010 1441.583252 6447.503906
vn 0.640838 0.765372 0.059426
vt -3.511353 -3.486237
v 2412.528564 1441.583252 6251.022949
vn 0.209975 0.604457 -0.768467
vt -2.757071 -3.503830
v 2379.443848 1441.583252 6301.789063
vn 0.000000 1.000000 0.000000
vt -2.591648 -3.757660
v 2281.734619 1441.583252 6148.103027
vn 0.950201 0.306974 -0.053712
vt -3.103104 -2.989227
v 2453.740723 1441.583374 6317.917969
vn 0.000000 1.000000 0.000000
vt -2.963133 -2.838303
f 12/12/12 13/13/13 14/14/14
f 44/44/44 14/14/14 13/13/13
f 26/26/26 25/25/25 24/24/24
f 23/23/23 24/24/24 25/25/25
f 24/24/24 23/23/23 22/22/22
f 20/20/20 22/22/22 23/23/23
f 22/22/22 20/20/20 21/21/21
f 17/17/17 21/21/21 20/20/20
f 21/21/21 17/17/17 19/19/19
f 18/18/18 19/19/19 17/17/17
f 57/57/57 56/56/56 81/81/81
f 56/56/56 57/57/57 55/55/55
f 58/58/58 55/55/55 57/57/57
f 67/67/67 81/81/81 69/69/69
f 81/81/81 67/67/67 57/57/57
f 68/68/68 57/57/57 67/67/67
f 57/57/57 68/68/68 58/58/58
f 85/85/85 58/58/58 68/68/68
f 68/68/68 69/69/69 70/70/70
f 69/69/69 68/68/68 67/67/67
f 64/64/64 63/63/63 62/62/62
f 60/60/60 62/62/62 63/63/63
f 62/62/62 60/60/60 59/59/59
f 61/61/61 59/59/59 60/60/60
f 72/72/72 59/59/59 71/71/71
f 59/59/59 72/72/72 62/62/62
f 65/65/65 62/62/62 72/72/72
f 62/62/62 65/65/65 64/64/64
f 66/66/66 64/64/64 65/65/65
f 52/52/52 53/53/53 54/54/54
f 78/78/78 54/54/54 53/53/53
f 54/54/54 78/78/78 80/80/80
f 77/77/77 80/80/80 78/78/78
f 80/80/80 77/77/77 79/79/79
f 77/77/77 78/78/78 53/53/53
f 80/80/80 84/84/84 54/54/54
f 28/28/28 29/29/29 27/27/27
f 30/30/30 27/27/27 29/29/29
f 27/27/27 30/30/30 31/31/31
f 32/32/32 31/31/31 30/30/30
f 8/8/8 5/5/5 7/7/7
f 6/6/6 7/7/7 5/5/5
f 7/7/7 6/6/6 45/45/45
f 15/15/15 16/16/16 10/10/10
f 11/11/11 10/10/10 16/16/16
f 10/10/10 11/11/11 9/9/9
f 34/34/34 35/35/35 33/33/33
f 36/36/36 33/33/33 35/35/35
f 33/33/33 36/36/36 1/1/1
f 3/3/3 1/1/1 2/2/2
f 1/1/1 3/3/3 4/4/4
f 37/37/37 38/38/38 39/39/39
f 51/51/51 39/39/39 38/38/38
f 39/39/39 51/51/51 50/50/50
f 75/75/75 73/73/73 74/74/74
f 73/73/73 75/75/75 76/76/76
f 83/83/83 76/76/76 75/75/75
f 75/75/75 82/82/82 83/83/83
f 42/42/42 40/40/40 41/41/41
f 40/40/40 42/42/42 43/43/43
f 48/48/48 46/46/46 47/47/47
f 46/46/46 48/48/48 49/49/49
