mtllib EKH_JAIL_PS_JA_GR_OBJECT59.mtl
g JA_GR_Object59
usemtl Cave_Blender_Ground
v -8575.411133 107.704605 9065.864258
vn -0.639972 0.768335 0.009906
vt 3.182613 -2.578018
v -8541.420898 107.704597 9169.872070
vn -0.243159 0.920456 0.305997
vt 3.012661 -3.098053
v -8531.423828 222.006348 9137.460938
vn -0.807746 0.225497 0.544699
vt 2.676117 -2.762108
v -8531.423828 222.006348 9137.460938
vn -0.807746 0.225497 0.544699
vt 2.676117 -3.762108
v -8554.601563 220.705322 9066.982422
vn -0.934801 0.177024 -0.307911
vt 2.703941 -3.677513
v -8575.411133 107.704605 9065.864258
vn -0.639972 0.768335 0.009906
vt 3.182613 -3.578018
v -8522.890625 107.704605 8991.452148
vn -0.317307 0.783758 -0.533891
vt 2.920010 -3.205956
v -8554.601563 220.705322 9066.982422
vn -0.934801 0.177024 -0.307911
vt 3.703941 -3.677513
v -8520.171875 215.647705 9017.450195
vn -0.479350 0.216890 -0.850401
vt 3.662613 -3.618050
v -8522.890625 107.704605 8991.452148
vn -0.317307 0.783758 -0.533891
vt 3.920010 -3.205956
v -8457.187500 107.704597 9204.517578
vn 0.203797 0.397669 0.894610
vt 2.591492 -3.271278
v -8475.975586 218.611252 9160.564453
vn -0.085608 0.351479 0.932273
vt 2.609558 -2.789848
v -8457.187500 107.704597 9204.517578
vn 0.203797 0.397669 0.894610
vt 3.591492 -3.271278
v -8377.582031 107.704597 9160.261719
vn 0.265518 0.940367 0.212625
vt 3.193466 -3.050003
v -8423.692383 212.970993 9131.127930
vn 0.701825 0.446588 0.554978
vt 3.546795 -2.754509
v -8475.975586 218.611252 9160.564453
vn -0.085608 0.351479 0.932273
vt 3.609558 -2.789848
v -8348.760742 107.704605 9060.105469
vn 0.514394 0.857447 -0.013559
vt 3.049362 -2.549217
v -8348.760742 107.704605 9060.105469
vn 0.514394 0.857447 -0.013559
vt 3.049362 -3.549217
v -8400.441406 205.857376 9067.666016
vn 0.830027 0.455975 -0.321158
vt 3.518883 -3.678329
v -8423.692383 212.970993 9131.127930
vn 0.701825 0.446588 0.554978
vt 3.546795 -3.754509
v -8418.177734 107.704605 8975.792969
vn 0.282163 0.839999 -0.463450
vt 3.396446 -3.127663
v -8446.885742 207.078186 9010.287109
vn 0.187316 0.343276 -0.920367
vt 3.574635 -3.609451
f 4/4/4 5/5/5 6/6/6
f 7/7/7 6/6/6 5/5/5
f 8/8/8 9/9/9 10/10/10
f 22/22/22 10/10/10 9/9/9
f 10/10/10 22/22/22 21/21/21
f 19/19/19 21/21/21 22/22/22
f 21/21/21 19/19/19 18/18/18
f 20/20/20 18/18/18 19/19/19
f 11/11/11 12/12/12 2/2/2
f 3/3/3 2/2/2 12/12/12
f 2/2/2 3/3/3 1/1/1
f 15/15/15 14/14/14 17/17/17
f 14/14/14 15/15/15 13/13/13
f 16/16/16 13/13/13 15/15/15
