mtllib EKH_BARRELROOM_PS_JA1_OBJECT01.mtl
g JA1_Object01
usemtl Cave_Wall
v -10040.396484 -575.996582 4783.183594
vn 0.526262 0.104879 -0.843830
vt 0.068544 0.426749
v -9958.971680 -640.336670 4810.157715
vn 0.446426 0.121793 -0.886493
vt -0.017840 0.487115
v -9962.078125 -673.552734 4797.653809
vn 0.528494 0.205035 -0.823805
vt -0.000773 0.510500
v -10041.294922 -612.256653 4769.940918
vn 0.604930 0.236701 -0.760285
vt 0.101365 0.476356
v -9976.086914 -703.504761 4785.205078
vn 0.504594 0.189474 -0.842309
vt 0.023124 0.532022
v -10038.116211 -732.931519 4753.487793
vn 0.402879 0.080747 -0.911685
vt 0.117630 0.582217
v -10059.503906 -641.703125 4742.120117
vn 0.614603 0.046142 -0.787486
vt 0.148091 0.503870
v -10101.434570 -732.110962 4725.587891
vn -0.179708 -0.141391 -0.973506
vt 0.209316 0.597475
v -10411.171875 -575.996582 4426.412109
vn 0.660638 0.315655 -0.681116
vt 0.793944 0.289237
v -10466.279297 -614.145508 4349.814941
vn 0.594558 0.213228 -0.775264
vt 0.919142 0.373440
v -10528.117188 -575.996582 4307.373535
vn 0.675106 0.090458 -0.732154
vt 1.021776 0.379452
v -10434.922852 -677.192566 4393.815918
vn 0.685998 -0.652822 -0.321295
vt 0.789507 0.421147
v -10461.455078 -654.981567 4353.822754
vn 0.656789 -0.140516 -0.740867
vt 0.906290 0.399368
v -10394.294922 -617.158447 4407.309082
vn 0.640901 -0.153215 -0.752177
vt 0.787765 0.354447
v -10292.166992 -575.996582 4543.357910
vn 0.648480 0.365624 -0.667677
vt 0.525592 0.286164
v -10285.683594 -586.320679 4535.666992
vn 0.544660 0.611362 -0.574093
vt 0.544352 0.323756
v -10364.562500 -594.185181 4450.633789
vn 0.518678 0.675145 -0.524550
vt 0.715251 0.320019
v -10351.669922 -575.996582 4484.885254
vn 0.658131 0.344004 -0.669720
vt 0.674747 0.272869
v -10349.476563 -611.529114 4442.342773
vn 0.703649 0.135875 -0.697436
vt 0.674167 0.346611
v -10278.404297 -610.645569 4529.570801
vn 0.683609 0.109574 -0.721576
vt 0.533918 0.358192
v -10291.794922 -645.868713 4529.947754
vn 0.607674 -0.487193 -0.627197
vt 0.563579 0.429415
v -10390.456055 -658.342712 4425.303711
vn 0.547524 -0.682546 -0.484096
vt 0.769459 0.401729
v -10160.451172 -607.258179 4655.582520
vn 0.677414 0.269295 -0.684537
vt 0.320319 0.392133
v -10163.962891 -575.996582 4663.747070
vn 0.696307 0.133989 -0.705127
vt 0.302194 0.354702
v -10141.146484 -575.996582 4686.650391
vn 0.673259 0.197421 -0.712564
vt 0.238119 0.394123
v -10122.471680 -603.689514 4684.608887
vn 0.651703 0.177194 -0.737486
vt 0.243641 0.433289
v -10174.177734 -663.279968 4661.312988
vn 0.291297 -0.611415 -0.735743
vt 0.339281 0.498154
v -10163.265625 -629.433594 4655.246094
vn 0.701623 -0.113133 -0.703510
vt 0.331085 0.428900
v -10113.245117 -669.288086 4692.309570
vn 0.571495 -0.179576 -0.800716
vt 0.247760 0.493951
v -10216.129883 -591.862061 4587.599609
vn 0.669896 0.432626 -0.603386
vt 0.425940 0.329557
v -10228.065430 -575.996582 4603.552734
vn 0.662053 0.344208 -0.665738
vt 0.409510 0.287749
v -10223.773438 -654.190186 4587.672363
vn 0.545124 -0.652911 -0.525878
vt 0.454089 0.452761
v -10213.069336 -609.576660 4582.158203
vn 0.715238 -0.024609 -0.698448
vt 0.445272 0.369494
v -9910.366211 -733.966980 4825.587891
vn 0.298447 0.117077 -0.947218
vt -0.079671 0.570413
v -9968.514648 -733.449219 4779.309570
vn 0.291467 0.820191 -0.492274
vt 0.020883 0.560606
v -10528.117188 -688.932556 4307.373535
vn 0.628912 -0.073915 -0.773955
vt 1.018265 0.445251
v -10465.289063 -705.492493 4370.202148
vn 0.730658 -0.607260 -0.312049
vt 0.898451 0.482004
v -10528.117188 -721.475586 4307.373535
vn 0.875979 -0.389579 -0.284409
vt 1.019366 0.487425
v -10394.812500 -602.524536 4407.838379
vn 0.587298 0.383751 -0.712612
vt 0.789772 0.314827
v -10485.279297 -700.849976 4463.615234
vn 0.466429 -0.853607 0.231945
vt 0.806643 0.524602
v -10542.541016 -739.414246 4449.008789
vn 0.472089 -0.813511 0.339607
vt 0.915082 0.566113
v -10315.055664 -673.593384 4560.983398
vn 0.186300 -0.956248 -0.225569
vt 0.575654 0.513559
v -10161.263672 -834.806946 4820.741699
vn -0.395394 -0.564602 -0.724491
vt 0.188710 0.721251
v -10225.669922 -686.313782 4699.186523
vn -0.170898 -0.900175 -0.400598
vt 0.364034 0.595537
v -10627.605469 -833.921143 4365.919922
vn 0.846206 -0.380144 0.373397
vt 1.035996 0.571534
v -10252.056641 -677.380798 4606.341309
vn 0.116431 -0.976503 -0.181343
vt 0.469824 0.517996
v -10467.708008 -683.547852 4504.110352
vn 0.205360 -0.975780 0.075368
vt 0.786646 0.507190
v -10509.032227 -677.679932 4541.953125
vn 0.233574 -0.920655 0.312791
vt 0.799886 0.668259
v -10578.782227 -732.827759 4491.934570
vn 0.493969 -0.774850 0.394464
vt 0.918558 0.727489
v -10405.288086 -673.793335 4665.427734
vn -0.003965 -0.999112 0.041937
vt 0.585108 0.729431
v -10227.241211 -824.488098 4913.589844
vn -0.757006 -0.297519 -0.581742
vt 0.174437 0.874019
v -10287.671875 -682.759888 4783.045410
vn -0.303190 -0.933777 -0.190094
vt 0.360811 0.798170
v -10337.267578 -673.670044 4709.404785
vn -0.052543 -0.998416 -0.020125
vt 0.475618 0.752776
v -10665.761719 -829.758362 4474.174316
vn 0.855312 -0.424217 0.297458
vt 1.040895 0.787440
v -9910.365234 -575.296997 4825.587891
vn 0.176584 0.016072 -0.984154
vt -0.103766 0.391330
v -9856.890625 -673.320313 4814.428223
vn -0.054021 0.193963 -0.979520
vt -0.159709 0.487412
v -9548.946289 -693.255493 4825.587891
vn -0.114283 0.349083 -0.930097
vt -0.511708 0.430573
v -9488.709961 -712.915222 4808.261230
vn -0.099526 0.471767 -0.876088
vt -0.579698 0.437114
v -9572.893555 -714.118591 4794.425293
vn 0.087829 0.703628 -0.705120
vt -0.501919 0.477466
v -9669.418945 -653.935974 4837.202637
vn 0.080769 0.397016 -0.914251
vt -0.375727 0.417492
v -9609.182617 -673.595703 4835.057617
vn 0.019798 0.308869 -0.950899
vt -0.443718 0.424032
v -9714.892578 -693.719482 4793.990234
vn 0.057768 0.452636 -0.889822
vt -0.364948 0.497588
v -9789.892578 -614.616455 4836.676270
vn 0.074897 0.220921 -0.972412
vt -0.239747 0.404411
v -9729.656250 -634.276245 4838.868164
vn 0.108661 0.319407 -0.941367
vt -0.307737 0.410951
v -9610.365234 -733.038940 4787.486328
vn -0.012253 0.938699 -0.344519
vt -0.492129 0.524359
v -9760.365234 -733.502930 4786.657715
vn -0.115354 0.170135 -0.978646
vt -0.354168 0.577683
v -9428.472656 -732.574951 4791.258789
vn -0.081217 0.824783 -0.559586
vt -0.647689 0.443654
v -9519.418945 -732.806946 4774.916504
vn -0.000581 0.972849 -0.231439
vt -0.569909 0.484007
v -9850.128906 -594.956726 4831.090332
vn 0.115861 0.076779 -0.990294
vt -0.171756 0.397870
f 59/59/59 58/58/58 67/67/67
f 58/58/58 59/59/59 57/57/57
f 61/61/61 57/57/57 59/59/59
f 61/61/61 59/59/59 60/60/60
f 62/62/62 60/60/60 59/59/59
f 60/60/60 62/62/62 64/64/64
f 63/63/63 64/64/64 62/62/62
f 62/62/62 56/56/56 63/63/63
f 67/67/67 68/68/68 59/59/59
f 65/65/65 59/59/59 68/68/68
f 59/59/59 65/65/65 62/62/62
f 66/66/66 62/62/62 65/65/65
f 62/62/62 66/66/66 56/56/56
f 34/34/34 56/56/56 66/66/66
f 44/44/44 51/51/51 52/52/52
f 51/51/51 44/44/44 43/43/43
f 27/27/27 43/43/43 44/44/44
f 43/43/43 27/27/27 8/8/8
f 29/29/29 8/8/8 27/27/27
f 8/8/8 29/29/29 7/7/7
f 26/26/26 7/7/7 29/29/29
f 7/7/7 26/26/26 4/4/4
f 1/1/1 4/4/4 26/26/26
f 4/4/4 1/1/1 3/3/3
f 2/2/2 3/3/3 1/1/1
f 3/3/3 2/2/2 34/34/34
f 55/55/55 34/34/34 2/2/2
f 34/34/34 55/55/55 56/56/56
f 69/69/69 56/56/56 55/55/55
f 56/56/56 69/69/69 63/63/63
f 2/2/2 1/1/1 55/55/55
f 5/5/5 3/3/3 34/34/34
f 3/3/3 5/5/5 4/4/4
f 7/7/7 4/4/4 5/5/5
f 26/26/26 25/25/25 1/1/1
f 28/28/28 29/29/29 27/27/27
f 29/29/29 28/28/28 26/26/26
f 23/23/23 26/26/26 28/28/28
f 26/26/26 23/23/23 25/25/25
f 24/24/24 25/25/25 23/23/23
f 34/34/34 35/35/35 5/5/5
f 6/6/6 5/5/5 35/35/35
f 5/5/5 6/6/6 7/7/7
f 8/8/8 7/7/7 6/6/6
f 45/45/45 49/49/49 54/54/54
f 49/49/49 45/45/45 41/41/41
f 37/37/37 41/41/41 45/45/45
f 41/41/41 37/37/37 40/40/40
f 12/12/12 40/40/40 37/37/37
f 40/40/40 12/12/12 47/47/47
f 22/22/22 47/47/47 12/12/12
f 47/47/47 22/22/22 42/42/42
f 21/21/21 42/42/42 22/22/22
f 42/42/42 21/21/21 32/32/32
f 33/33/33 32/32/32 21/21/21
f 32/32/32 33/33/33 28/28/28
f 30/30/30 28/28/28 33/33/33
f 28/28/28 30/30/30 23/23/23
f 31/31/31 23/23/23 30/30/30
f 23/23/23 31/31/31 24/24/24
f 21/21/21 22/22/22 19/19/19
f 48/48/48 40/40/40 47/47/47
f 40/40/40 48/48/48 41/41/41
f 49/49/49 41/41/41 48/48/48
f 50/50/50 47/47/47 42/42/42
f 47/47/47 50/50/50 48/48/48
f 32/32/32 46/46/46 42/42/42
f 53/53/53 42/42/42 46/46/46
f 42/42/42 53/53/53 50/50/50
f 15/15/15 31/31/31 16/16/16
f 30/30/30 16/16/16 31/31/31
f 16/16/16 30/30/30 20/20/20
f 33/33/33 20/20/20 30/30/30
f 20/20/20 33/33/33 21/21/21
f 19/19/19 20/20/20 21/21/21
f 20/20/20 19/19/19 16/16/16
f 17/17/17 16/16/16 19/19/19
f 16/16/16 17/17/17 15/15/15
f 18/18/18 15/15/15 17/17/17
f 28/28/28 27/27/27 32/32/32
f 44/44/44 32/32/32 27/27/27
f 32/32/32 44/44/44 46/46/46
f 52/52/52 46/46/46 44/44/44
f 46/46/46 52/52/52 53/53/53
f 17/17/17 9/9/9 18/18/18
f 9/9/9 17/17/17 39/39/39
f 19/19/19 39/39/39 17/17/17
f 39/39/39 19/19/19 14/14/14
f 22/22/22 14/14/14 19/19/19
f 14/14/14 22/22/22 12/12/12
f 13/13/13 12/12/12 37/37/37
f 12/12/12 13/13/13 14/14/14
f 39/39/39 14/14/14 13/13/13
f 45/45/45 38/38/38 37/37/37
f 36/36/36 37/37/37 38/38/38
f 37/37/37 36/36/36 13/13/13
f 10/10/10 13/13/13 36/36/36
f 13/13/13 10/10/10 39/39/39
f 9/9/9 39/39/39 10/10/10
f 9/9/9 10/10/10 11/11/11
f 36/36/36 11/11/11 10/10/10
