mtllib EKH_JAIL_PS_JA_DOOR_TRIM39387.mtl
g _Door_Trim39387
usemtl Metal_Trim_Spec
v -8220.930664 -432.547974 9493.448242
vn -0.404701 -0.271467 0.873226
vt 1.001201 -3.048660
v -8212.397461 -399.546051 9507.589844
vn -0.230161 -0.152890 0.961067
vt 0.001201 -2.830583
v -8239.346680 -391.240723 9506.366211
vn -0.091146 -0.201932 0.975149
vt 0.001201 -2.453071
v -8241.080078 -421.764008 9491.991211
vn -0.182255 -0.410460 0.893479
vt 1.001201 -2.587251
v -8301.881836 -435.795502 9489.374023
vn 0.386401 -0.182646 0.904066
vt 1.000000 -1.062160
v -8306.111328 -399.546051 9503.919922
vn 0.105924 -0.182483 0.977487
vt 0.000000 -1.686132
v -8331.765625 -424.008575 9504.127930
vn 0.190990 -0.044855 0.980567
vt 0.000000 -1.111567
v -8311.732422 -493.821075 9498.289063
vn 0.726296 0.174912 0.664756
vt 1.000000 -0.085577
v -8310.898438 -459.134888 9492.324219
vn 0.799728 -0.063921 0.596950
vt 1.000000 -0.711438
v -8337.127930 -458.914825 9508.335938
vn 0.146447 0.099931 0.984158
vt 0.000000 -0.431802
v -8337.533203 -493.821075 9512.542969
vn 0.249750 0.261914 0.932216
vt 0.000000 -0.078616
v -8190.801758 -424.008575 9512.667969
vn -0.305104 -0.084885 0.948529
vt 0.001201 -3.324203
v -8209.478516 -456.301636 9494.629883
vn -0.738656 -0.111502 0.664797
vt 1.001201 -3.568725
v -8181.833008 -458.914825 9513.921875
vn -0.401261 -0.025086 0.915620
vt 0.001201 -3.810610
v -8209.688477 -493.821075 9498.942383
vn -0.719207 0.120597 0.684249
vt 1.001201 -3.160330
v -8182.708984 -493.821075 9515.175781
vn -0.324323 0.185944 0.927491
vt 0.001201 -3.173268
v -8181.833008 -458.914825 9513.921875
vn -0.401261 -0.025086 0.915620
vt 0.001201 -2.810610
v -8209.478516 -456.301636 9494.629883
vn -0.738656 -0.111502 0.664797
vt 1.001201 -2.568725
v -8287.285156 -391.240723 9505.143555
vn 0.004143 -0.213834 0.976861
vt 0.000000 -1.842107
v -8284.678711 -421.764008 9490.275391
vn 0.126606 -0.402230 0.906743
vt 1.000000 -1.692626
v -8263.165039 -419.025696 9491.133789
vn -0.028128 -0.433629 0.900652
vt 1.000000 -2.125000
v -8263.600586 -389.017639 9505.754883
vn -0.027872 -0.217907 0.975571
vt 0.000000 -2.125000
v -8308.377930 -528.727295 9508.308594
vn 0.517533 0.421279 0.744771
vt 1.000000 0.301069
v -8332.524414 -528.727295 9529.054688
vn 0.290041 0.437138 0.851344
vt 0.000000 0.311627
v -8327.516602 -563.633545 9545.566406
vn 0.119443 0.909559 0.398041
vt 0.000000 1.000000
v -8302.206055 -563.633545 9531.719727
vn 0.382995 0.911933 0.147285
vt 1.000000 1.000000
v -8209.495117 -528.727295 9505.963867
vn -0.774454 0.191882 0.602829
vt 1.001201 -3.672256
v -8184.537598 -528.727295 9529.623047
vn -0.435897 0.390123 0.811047
vt 0.001201 -3.690502
v -8213.064453 -563.633545 9526.376953
vn -0.315889 0.934810 0.162312
vt 1.001201 -3.261768
v -8186.366211 -563.633545 9544.070313
vn -0.205570 0.810102 0.549068
vt 0.001201 -3.261768
v -8184.537598 -528.727295 9529.623047
vn -0.435897 0.390123 0.811047
vt 0.001201 -2.690502
v -8209.495117 -528.727295 9505.963867
vn -0.774454 0.191882 0.602829
vt 1.001201 -2.672256
f 31/31/31 29/29/29 30/30/30
f 29/29/29 31/31/31 32/32/32
f 3/3/3 22/22/22 21/21/21
f 19/19/19 21/21/21 22/22/22
f 21/21/21 19/19/19 20/20/20
f 6/6/6 20/20/20 19/19/19
f 20/20/20 6/6/6 5/5/5
f 7/7/7 5/5/5 6/6/6
f 5/5/5 7/7/7 10/10/10
f 21/21/21 4/4/4 3/3/3
f 1/1/1 3/3/3 4/4/4
f 3/3/3 1/1/1 2/2/2
f 12/12/12 2/2/2 1/1/1
f 14/14/14 1/1/1 13/13/13
f 1/1/1 14/14/14 12/12/12
f 10/10/10 9/9/9 5/5/5
f 9/9/9 10/10/10 8/8/8
f 11/11/11 8/8/8 10/10/10
f 8/8/8 11/11/11 23/23/23
f 24/24/24 23/23/23 11/11/11
f 23/23/23 24/24/24 25/25/25
f 25/25/25 26/26/26 23/23/23
f 16/16/16 27/27/27 28/28/28
f 27/27/27 16/16/16 15/15/15
f 17/17/17 15/15/15 16/16/16
f 15/15/15 17/17/17 18/18/18
