mtllib EKH_JAIL_PS_JA_BASE_TRIM11029.mtl
g _Base_Trim11029
usemtl Cave_Blender_Ground
v -8757.107422 700.428284 6441.919434
vn 0.177616 0.564244 0.806276
vt 3.141140 -3.328217
v -8748.783203 654.530090 6484.824707
vn 0.127645 0.820256 0.557573
vt 3.049492 -3.672821
v -8581.925781 669.976379 6468.501953
vn -0.065713 0.919050 0.388624
vt 2.215199 -3.591209
v -8581.924805 715.874573 6422.885254
vn -0.065694 0.494375 0.866763
vt 2.215199 -3.263062
v -7961.648926 636.516357 6898.953613
vn -0.756856 0.571960 0.316276
vt 2.953724 -3.703445
v -8077.488281 676.195435 6679.291992
vn -0.577630 0.564785 0.589374
vt 3.562939 -2.555099
v -8109.563965 630.297241 6708.684082
vn -0.197081 0.925429 0.323635
vt 3.853394 -2.792114
v -8002.991699 590.618225 6918.231934
vn -0.275516 0.919456 0.280521
vt 3.320530 -3.839859
v -9075.564453 679.894653 6632.918945
vn 0.586478 0.366172 0.722469
vt 3.753441 -3.323235
v -9057.774414 620.197327 6658.591309
vn 0.273201 0.841092 0.466826
vt 3.594444 -3.541656
v -8910.659180 639.083862 6568.328125
vn 0.059574 0.962099 0.266114
vt 2.858868 -3.090340
v -8927.307617 684.981995 6528.134277
vn 0.419495 0.535200 0.733202
vt 3.012154 -2.799309
v -8412.309570 715.874573 6459.147949
vn -0.247433 0.563586 0.788130
vt 3.327095 -2.424362
v -8423.713867 669.976379 6501.708984
vn -0.119272 0.918663 0.376607
vt 3.424141 -2.757240
v -8273.010742 669.976318 6566.440430
vn -0.138425 0.916107 0.376280
vt 2.670624 -3.080902
v -8250.202148 715.874512 6526.935059
vn -0.393156 0.570893 0.720770
vt 2.486542 -2.763298
v -8035.646484 478.665009 7393.620605
vn -0.816102 0.550826 -0.174837
vt 3.383747 -3.296852
v -7969.837891 557.590698 7140.593262
vn -0.841373 0.538116 0.050234
vt 3.014683 -1.951668
v -8012.971191 511.692535 7154.192871
vn -0.329297 0.911293 0.247201
vt 3.370430 -2.019661
v -8080.570313 432.766876 7401.541992
vn -0.468181 0.882100 -0.052019
vt 3.708424 -3.256409
v -6922.110352 537.753784 8407.925781
vn -0.023286 0.489755 0.871549
vt 3.012959 -3.223778
v -6941.389160 480.956696 8449.268555
vn 0.052220 0.879993 0.472107
vt 3.012520 -3.495041
v -6786.586426 474.721313 8490.049805
vn -0.201372 0.891192 0.406481
vt 2.238506 -3.698952
v -6767.307617 529.452393 8448.707031
vn -0.426247 0.511770 0.745926
vt 2.120598 -3.449196
v -8133.615723 478.664978 7807.324219
vn -0.816893 0.570811 0.082831
vt 2.803551 -3.275307
v -8129.794922 478.664978 7600.472656
vn -0.789604 0.577538 -0.207304
vt 2.794453 -2.291084
v -8175.064941 432.766846 7604.433105
vn -0.369328 0.926994 -0.065416
vt 3.180901 -2.270866
v -8179.231934 432.766846 7807.324219
vn -0.388714 0.919807 0.053439
vt 3.201736 -3.285316
v -8101.797852 478.664948 7948.478516
vn -0.773917 0.563221 0.289543
vt 2.714508 -2.951065
v -8146.637207 432.766846 7954.381836
vn -0.415252 0.900020 0.132403
vt 3.038761 -3.020607
v -8082.792969 432.766846 8081.062988
vn -0.444505 0.877285 0.181072
vt 2.719540 -3.654015
v -8082.792969 432.766846 8081.062988
vn -0.444505 0.877285 0.181072
vt 3.719540 -3.654015
v -8038.730957 478.664948 8069.256348
vn -0.764793 0.561552 0.315835
vt 3.399170 -3.574966
v -8101.797852 478.664948 7948.478516
vn -0.773917 0.563221 0.289543
vt 3.714508 -2.951065
v -7960.574219 495.643280 8273.584961
vn -0.646224 0.549910 0.529144
vt 2.988377 -2.566589
v -7995.518555 449.745148 8302.906250
vn -0.360396 0.903625 0.231467
vt 3.283169 -2.763229
v -7799.288574 449.745148 8419.974609
vn -0.199383 0.905536 0.374502
vt 2.302021 -3.348572
v -7799.288574 449.745148 8419.974609
vn -0.199383 0.905536 0.374502
vt 3.302021 -3.348572
v -7780.009766 495.643250 8378.631836
vn -0.259763 0.484488 0.835341
vt 3.227146 -3.055786
v -7960.574219 495.643280 8273.584961
vn -0.646224 0.549910 0.529144
vt 3.988377 -2.566589
v -8038.730957 478.664948 8069.256348
vn -0.764793 0.561552 0.315835
vt 3.399170 -2.574966
v -8082.792969 432.766846 8081.062988
vn -0.444505 0.877285 0.181072
vt 3.719540 -2.654015
v -7995.518555 449.745148 8302.906250
vn -0.360396 0.903625 0.231467
vt 3.283169 -3.763229
v -7960.574219 495.643280 8273.584961
vn -0.646224 0.549910 0.529144
vt 2.988377 -3.566589
v -7130.644043 537.753784 8449.828125
vn 0.394298 0.341213 0.853289
vt 3.055630 -3.449425
v -7149.922852 486.406158 8491.170898
vn 0.277009 0.850294 0.447511
vt 3.055191 -3.704552
v -6941.389160 480.956696 8449.268555
vn 0.052220 0.879993 0.472107
vt 2.012520 -3.495041
v -6922.110352 537.753784 8407.925781
vn -0.023286 0.489755 0.871549
vt 2.012959 -3.223778
v -7554.474609 516.698547 8336.162109
vn -0.099558 0.441263 0.891838
vt 3.072571 -2.881096
v -7573.753418 462.647797 8377.504883
vn -0.034687 0.897279 0.440099
vt 3.174343 -3.136223
v -7459.467773 475.550476 8438.459961
vn -0.329575 0.885966 0.326258
vt 2.602917 -3.440994
v -7440.188477 537.753784 8397.117188
vn -0.607514 0.471459 0.639260
vt 2.490379 -3.185867
v -7288.576660 537.753784 8513.243164
vn -0.164837 0.530566 0.831462
vt 3.813019 -2.766495
v -7307.855957 483.703064 8554.584961
vn -0.209624 0.630731 0.747152
vt 3.844856 -3.021629
v -7239.928711 491.855621 8558.188477
vn 0.103561 0.812331 0.573929
vt 3.505219 -3.039642
v -7220.649902 537.753784 8516.845703
vn 0.300556 0.403796 0.864069
vt 3.473381 -2.773758
v -6601.888672 551.691345 8588.229492
vn -0.699944 0.394688 0.595231
vt 3.271984 -2.136055
v -6623.330566 501.376709 8617.305664
vn -0.420140 0.871332 0.253500
vt 3.422230 -2.335228
v -6491.963867 541.103638 8778.015625
vn -0.510285 0.838981 0.188998
vt 2.765396 -3.138779
v -6468.359375 587.001770 8761.207031
vn -0.806567 0.405797 0.429858
vt 2.577438 -3.022453
v -6384.551758 636.176147 8900.886719
vn -0.854959 0.192494 0.481655
vt 3.023026 -3.668495
v -6468.359375 587.001770 8761.207031
vn -0.806567 0.405797 0.429858
vt 3.577438 -3.022453
v -6491.963867 541.103638 8778.015625
vn -0.510285 0.838981 0.188998
vt 3.765396 -3.138779
v -6402.082520 562.671143 8900.887695
vn -0.384806 0.899241 0.208061
vt 3.315990 -3.753143
v -6767.307617 529.452393 8448.707031
vn -0.426247 0.511770 0.745926
vt 3.120598 -2.449196
v -6786.586426 474.721313 8490.049805
vn -0.201372 0.891192 0.406481
vt 3.238506 -2.698952
v -6623.330566 501.376709 8617.305664
vn -0.420140 0.871332 0.253500
vt 2.422230 -3.335228
v -6601.888672 551.691345 8588.229492
vn -0.699944 0.394688 0.595231
vt 2.271984 -3.136055
v -8748.783203 654.530090 6484.824707
vn 0.127645 0.820256 0.557573
vt 2.049492 -2.672821
v -8748.783203 654.530090 6484.824707
vn 0.127645 0.820256 0.557573
vt 2.049492 -3.672821
v -8757.107422 700.428284 6441.919434
vn 0.177616 0.564244 0.806276
vt 2.141140 -3.328217
v -8927.307617 684.981995 6528.134277
vn 0.419495 0.535200 0.733202
vt 3.012154 -3.799309
v -8077.488281 676.195435 6679.291992
vn -0.577630 0.564785 0.589374
vt 2.562939 -3.555099
v -8250.202148 715.874512 6526.935059
vn -0.393156 0.570893 0.720770
vt 3.486542 -2.763298
v -8273.010742 669.976318 6566.440430
vn -0.138425 0.916107 0.376280
vt 3.670624 -3.080902
v -8109.563965 630.297241 6708.684082
vn -0.197081 0.925429 0.323635
vt 2.853394 -3.792114
v -7969.837891 557.590698 7140.593262
vn -0.841373 0.538116 0.050234
vt 3.014683 -3.951668
v -7961.648926 636.516357 6898.953613
vn -0.756856 0.571960 0.316276
vt 2.953724 -2.703445
v -8002.991699 590.618225 6918.231934
vn -0.275516 0.919456 0.280521
vt 3.320530 -2.839859
v -8002.991699 590.618225 6918.231934
vn -0.275516 0.919456 0.280521
vt 3.320530 -1.839859
v -8012.971191 511.692535 7154.192871
vn -0.329297 0.911293 0.247201
vt 3.370430 -3.019661
v -7969.837891 557.590698 7140.593262
vn -0.841373 0.538116 0.050234
vt 3.014683 -2.951668
v -8129.794922 478.664978 7600.472656
vn -0.789604 0.577538 -0.207304
vt 3.794453 -3.291084
v -8035.646484 478.665009 7393.620605
vn -0.816102 0.550826 -0.174837
vt 3.383747 -2.296852
v -8080.570313 432.766876 7401.541992
vn -0.468181 0.882100 -0.052019
vt 3.708424 -2.256409
v -8080.570313 432.766876 7401.541992
vn -0.468181 0.882100 -0.052019
vt 2.708424 -2.256409
v -8175.064941 432.766846 7604.433105
vn -0.369328 0.926994 -0.065416
vt 3.180901 -3.270866
v -8129.794922 478.664978 7600.472656
vn -0.789604 0.577538 -0.207304
vt 2.794453 -3.291084
v -7371.002930 537.753784 8486.250000
vn -0.487138 0.510496 0.708584
vt 3.155212 -2.626152
v -7390.282227 479.626770 8527.591797
vn -0.334359 0.893783 0.298924
vt 3.256989 -2.886658
v -7307.855957 483.703064 8554.584961
vn -0.209624 0.630731 0.747152
vt 2.844856 -3.021629
v -7288.576660 537.753784 8513.243164
vn -0.164837 0.530566 0.831462
vt 2.813019 -2.766495
v -7220.649902 537.753784 8516.845703
vn 0.300556 0.403796 0.864069
vt 3.473381 -2.773758
v -7239.928711 491.855621 8558.188477
vn 0.103561 0.812331 0.573929
vt 3.505219 -3.039642
v -7149.922852 486.406158 8491.170898
vn 0.277009 0.850294 0.447511
vt 3.055191 -2.704552
v -7220.649902 537.753784 8516.845703
vn 0.300556 0.403796 0.864069
vt 3.473381 -3.773758
v -7440.188477 537.753784 8397.117188
vn -0.607514 0.471459 0.639260
vt 3.490379 -3.185867
v -7459.467773 475.550476 8438.459961
vn -0.329575 0.885966 0.326258
vt 3.602917 -3.440994
v -7390.282227 479.626770 8527.591797
vn -0.334359 0.893783 0.298924
vt 3.256989 -3.886658
v -7371.002930 537.753784 8486.250000
vn -0.487138 0.510496 0.708584
vt 3.155212 -3.626152
v -7682.400879 506.170898 8379.049805
vn 0.116990 0.478253 0.870395
vt 3.760616 -3.063255
v -7701.679688 456.196472 8420.392578
vn 0.002266 0.904672 0.426102
vt 3.813976 -3.350662
v -7701.679688 456.196472 8420.392578
vn 0.002266 0.904672 0.426102
vt 2.813976 -3.350662
v -7682.400879 506.170898 8379.049805
vn 0.116990 0.478253 0.870395
vt 2.760616 -3.063255
v -8133.615723 478.664978 7807.324219
vn -0.816893 0.570811 0.082831
vt 2.803551 -2.275307
v -8179.231934 432.766846 7807.324219
vn -0.388714 0.919807 0.053439
vt 3.201736 -2.285316
v -9205.333008 674.807312 6765.317383
vn 0.494654 0.228889 0.838408
vt 3.442307 -2.975227
v -9186.400391 601.310791 6776.469238
vn 0.366850 0.806572 0.463532
vt 3.237576 -3.131042
v -9057.774414 620.197327 6658.591309
vn 0.273201 0.841092 0.466826
vt 2.594444 -2.541656
v -9057.774414 620.197327 6658.591309
vn 0.273201 0.841092 0.466826
vt 2.594444 -3.541656
v -9075.564453 679.894653 6632.918945
vn 0.586478 0.366172 0.722469
vt 2.753441 -3.323235
v -9205.333008 674.807312 6765.317383
vn 0.494654 0.228889 0.838408
vt 3.442307 -3.975227
v -8412.309570 715.874573 6459.147949
vn -0.247433 0.563586 0.788130
vt 2.327095 -3.424362
v -8581.924805 715.874573 6422.885254
vn -0.065694 0.494375 0.866763
vt 3.215199 -3.263062
v -8581.925781 669.976379 6468.501953
vn -0.065713 0.919050 0.388624
vt 3.215199 -3.591209
v -8423.713867 669.976379 6501.708984
vn -0.119272 0.918663 0.376607
vt 2.424141 -3.757240
f 32/32/32 33/33/33 34/34/34
f 50/50/50 101/101/101 102/102/102
f 101/101/101 50/50/50 49/49/49
f 51/51/51 49/49/49 50/50/50
f 49/49/49 51/51/51 52/52/52
f 40/40/40 38/38/38 39/39/39
f 103/103/103 39/39/39 38/38/38
f 39/39/39 103/103/103 104/104/104
f 30/30/30 105/105/105 106/106/106
f 105/105/105 30/30/30 29/29/29
f 31/31/31 29/29/29 30/30/30
f 7/7/7 5/5/5 6/6/6
f 5/5/5 7/7/7 8/8/8
f 11/11/11 9/9/9 10/10/10
f 9/9/9 11/11/11 12/12/12
f 69/69/69 12/12/12 11/11/11
f 15/15/15 13/13/13 14/14/14
f 13/13/13 15/15/15 16/16/16
f 19/19/19 17/17/17 18/18/18
f 17/17/17 19/19/19 20/20/20
f 23/23/23 21/21/21 22/22/22
f 21/21/21 23/23/23 24/24/24
f 27/27/27 25/25/25 26/26/26
f 25/25/25 27/27/27 28/28/28
f 41/41/41 43/43/43 44/44/44
f 43/43/43 41/41/41 42/42/42
f 96/96/96 46/46/46 45/45/45
f 47/47/47 45/45/45 46/46/46
f 45/45/45 47/47/47 48/48/48
f 55/55/55 53/53/53 54/54/54
f 53/53/53 55/55/55 56/56/56
f 59/59/59 57/57/57 58/58/58
f 57/57/57 59/59/59 60/60/60
f 63/63/63 61/61/61 62/62/62
f 61/61/61 63/63/63 64/64/64
f 67/67/67 65/65/65 66/66/66
f 65/65/65 67/67/67 68/68/68
f 73/73/73 75/75/75 76/76/76
f 75/75/75 73/73/73 74/74/74
f 89/89/89 91/91/91 92/92/92
f 91/91/91 89/89/89 90/90/90
f 35/35/35 36/36/36 37/37/37
f 70/70/70 71/71/71 72/72/72
f 77/77/77 78/78/78 79/79/79
f 80/80/80 81/81/81 82/82/82
f 83/83/83 84/84/84 85/85/85
f 86/86/86 87/87/87 88/88/88
f 93/93/93 94/94/94 95/95/95
f 99/99/99 97/97/97 98/98/98
f 97/97/97 99/99/99 100/100/100
f 107/107/107 108/108/108 109/109/109
f 110/110/110 111/111/111 112/112/112
f 115/115/115 113/113/113 114/114/114
f 113/113/113 115/115/115 116/116/116
f 3/3/3 1/1/1 2/2/2
f 1/1/1 3/3/3 4/4/4
