mtllib EKH_GROTTO_PS_GR_CORNER_WEB__NC03.mtl
g orner_Web__NC03
usemtl Default_Standard
v 7979.762207 1843.249634 9764.291016
vn -0.239949 0.684838 -0.688057
vt 0.000000 0.000000
v 7820.584473 1899.092163 9875.382813
vn -0.540122 0.803015 -0.251863
vt 0.500000 0.500000
v 7942.972656 2066.050049 9932.453125
vn -0.704663 0.628872 -0.328589
vt 1.000000 0.000000
v 7679.322266 1833.150024 9809.511719
vn -0.353129 0.920970 -0.164667
vt 0.000000 1.000000
v 7837.800781 1843.249634 10068.728516
vn -0.681318 0.684838 0.258463
vt 1.000000 1.000000
f 2/2/2 1/1/1 4/4/4
f 1/1/1 2/2/2 3/3/3
f 5/5/5 3/3/3 2/2/2
f 4/4/4 5/5/5 2/2/2
