mtllib EKH_BARRELROOM_PS_JA1_LEAVES84746.mtl
g JA1_leaves84746
usemtl leaf
v -9221.824219 -728.552307 4291.151367
vn 0.073268 0.993663 -0.085234
vt 0.500000 0.999501
v -9226.246094 -728.628479 4294.378418
vn -0.000103 0.998868 -0.047567
vt 0.500000 0.708125
v -9224.043945 -727.506409 4297.092773
vn 0.052506 0.997225 0.052786
vt 0.094067 0.708125
v -9227.942383 -730.452087 4291.681641
vn -0.132875 0.983336 -0.124072
vt 0.905933 0.708125
v -9229.683594 -729.616821 4297.393555
vn -0.232092 0.970041 0.071783
vt 0.500000 0.500000
v -9231.530273 -731.489929 4299.743652
vn -0.539799 0.805708 0.243826
vt 0.500000 0.291875
v -9229.328125 -730.367920 4302.458008
vn -0.327332 0.898981 0.291011
vt 0.094067 0.291875
v -9233.226563 -733.313599 4297.046875
vn -0.631115 0.768136 0.107983
vt 0.905933 0.291875
v -9232.507813 -733.792542 4301.701660
vn -0.670195 0.670061 0.319150
vt 0.500000 0.000499
v -9226.844727 -728.415161 4300.737793
vn -0.082524 0.981726 0.171475
vt 0.000500 0.500000
v -9231.641602 -732.039795 4294.079590
vn -0.392554 0.918096 -0.054774
vt 0.999501 0.500000
v -9226.372070 -750.072632 4316.848633
vn 0.899933 0.432011 0.059052
vt 0.500000 0.999501
v -9226.815430 -745.299072 4314.206055
vn 0.863286 0.503466 0.035489
vt 0.500000 0.708125
v -9227.193359 -743.731140 4317.503418
vn 0.808776 0.578849 0.103999
vt 0.094067 0.708125
v -9227.176758 -747.261475 4311.124512
vn 0.877224 0.476202 -0.060899
vt 0.905933 0.708125
v -9228.193359 -741.388855 4312.038574
vn 0.755566 0.654732 -0.021130
vt 0.500000 0.500000
v -9230.424805 -739.001770 4310.711914
vn 0.622329 0.779382 -0.072593
vt 0.500000 0.291875
v -9230.802734 -737.433838 4314.009277
vn 0.624484 0.780935 0.012685
vt 0.094067 0.291875
v -9230.787109 -740.964233 4307.630371
vn 0.669427 0.728618 -0.144858
vt 0.905933 0.291875
v -9233.064453 -737.457275 4309.850098
vn 0.561908 0.821928 -0.093239
vt 0.500000 0.000499
v -9228.845703 -739.560120 4316.151367
vn 0.716132 0.693893 0.075283
vt 0.000500 0.500000
v -9228.826172 -743.904297 4308.302246
vn 0.789963 0.599766 -0.127431
vt 0.999501 0.500000
v -9254.076172 -734.424011 4357.733398
vn 0.103619 0.961885 0.253062
vt 0.500000 0.999501
v -9249.152344 -732.721680 4356.050781
vn 0.170410 0.958258 0.229571
vt 0.500000 0.708125
v -9250.530273 -732.726807 4352.647949
vn 0.170733 0.972476 0.158560
vt 0.094067 0.708125
v -9247.929688 -733.566711 4359.407227
vn 0.224653 0.934352 0.276617
vt 0.905933 0.708125
v -9244.789063 -732.255249 4354.430176
vn 0.324288 0.930709 0.169168
vt 0.500000 0.500000
v -9241.671875 -733.243042 4353.108398
vn 0.470132 0.876354 0.104785
vt 0.500000 0.291875
v -9243.048828 -733.248108 4349.705566
vn 0.426027 0.902756 0.059434
vt 0.094067 0.291875
v -9240.449219 -734.088013 4356.464844
vn 0.459630 0.871194 0.172516
vt 0.905933 0.291875
v -9239.265625 -734.975098 4351.967285
vn 0.526971 0.846401 0.076861
vt 0.500000 0.000499
v -9246.523438 -732.478333 4350.231445
vn 0.294710 0.950837 0.095160
vt 0.000500 0.500000
v -9243.323242 -733.511902 4358.548828
vn 0.348689 0.906051 0.239766
vt 0.999501 0.500000
v -9211.917969 -727.811523 4356.247070
vn 0.363345 0.929668 0.060815
vt 0.500000 0.999501
v -9214.478516 -728.032166 4351.413574
vn 0.337806 0.941201 0.005276
vt 0.500000 0.708125
v -9217.606445 -727.532166 4353.268066
vn 0.262866 0.964787 0.009361
vt 0.094067 0.708125
v -9211.316406 -729.266602 4350.014648
vn 0.385077 0.921491 -0.050692
vt 0.905933 0.708125
v -9216.809570 -729.197449 4347.527832
vn 0.238648 0.952795 -0.187695
vt 0.500000 0.500000
v -9218.551758 -731.258972 4345.257813
vn 0.028096 0.854794 -0.518206
vt 0.500000 0.291875
v -9221.680664 -730.758972 4347.112305
vn -0.019538 0.915986 -0.400733
vt 0.094067 0.291875
v -9215.390625 -732.493408 4343.859375
vn 0.179079 0.859127 -0.479408
vt 0.905933 0.291875
v -9219.954102 -733.752502 4343.875977
vn -0.109170 0.719588 -0.685766
vt 0.500000 0.000499
v -9220.650391 -728.769531 4349.926270
vn 0.143357 0.979938 -0.138455
vt 0.000500 0.500000
v -9212.910156 -730.903809 4345.923340
vn 0.334104 0.915577 -0.223814
vt 0.999501 0.500000
f 12/12/12 15/15/15 13/13/13
f 16/16/16 15/15/15 22/22/22
f 15/15/15 16/16/16 13/13/13
f 14/14/14 13/13/13 16/16/16
f 13/13/13 14/14/14 12/12/12
f 22/22/22 19/19/19 16/16/16
f 17/17/17 16/16/16 19/19/19
f 16/16/16 21/21/21 14/14/14
f 21/21/21 16/16/16 18/18/18
f 17/17/17 18/18/18 16/16/16
f 18/18/18 17/17/17 20/20/20
f 19/19/19 20/20/20 17/17/17
f 5/5/5 11/11/11 8/8/8
f 11/11/11 5/5/5 4/4/4
f 2/2/2 4/4/4 5/5/5
f 4/4/4 2/2/2 1/1/1
f 3/3/3 1/1/1 2/2/2
f 2/2/2 5/5/5 3/3/3
f 5/5/5 8/8/8 6/6/6
f 5/5/5 10/10/10 3/3/3
f 10/10/10 5/5/5 7/7/7
f 6/6/6 7/7/7 5/5/5
f 7/7/7 6/6/6 9/9/9
f 8/8/8 9/9/9 6/6/6
f 27/27/27 26/26/26 33/33/33
f 26/26/26 27/27/27 24/24/24
f 25/25/25 24/24/24 27/27/27
f 24/24/24 25/25/25 23/23/23
f 23/23/23 26/26/26 24/24/24
f 33/33/33 30/30/30 27/27/27
f 28/28/28 27/27/27 30/30/30
f 27/27/27 32/32/32 25/25/25
f 32/32/32 27/27/27 29/29/29
f 28/28/28 29/29/29 27/27/27
f 29/29/29 28/28/28 31/31/31
f 30/30/30 31/31/31 28/28/28
f 38/38/38 43/43/43 36/36/36
f 43/43/43 38/38/38 40/40/40
f 39/39/39 40/40/40 38/38/38
f 40/40/40 39/39/39 42/42/42
f 41/41/41 42/42/42 39/39/39
f 38/38/38 41/41/41 39/39/39
f 41/41/41 38/38/38 44/44/44
f 35/35/35 36/36/36 34/34/34
f 36/36/36 35/35/35 38/38/38
f 37/37/37 38/38/38 35/35/35
f 38/38/38 37/37/37 44/44/44
f 34/34/34 37/37/37 35/35/35
