mtllib EKH_GROTTO_PS_GR_ROCKFORMS8373__GX.mtl
g ckForms8373__GX
usemtl Cave_Blender_Vines_Ground
v 3793.922852 1265.584106 5464.089844
vn 0.026456 0.598784 0.800473
vt -3.664044 -3.569168
v 3781.847656 1272.438110 5379.024414
vn 0.032316 0.998285 0.048820
vt -3.603668 -3.143845
v 3704.868896 1272.154541 5401.360352
vn -0.624212 0.565522 0.539022
vt -3.218775 -3.255524
v 3935.793701 1260.597778 5334.355957
vn 0.944287 0.322513 0.065630
vt -3.373399 -2.920502
v 3896.693848 1260.440674 5434.270020
vn 0.582119 0.537919 0.609738
vt -3.177899 -3.420074
v 3878.978027 1208.013794 5415.188965
vn 0.597049 -0.300860 0.743650
vt -3.465261 -3.691643
v 3914.333984 1208.092285 5318.594727
vn 0.968258 -0.226920 -0.104806
vt -3.771124 -2.856003
v 3704.868896 1272.154541 5401.360352
vn -0.624212 0.565522 0.539022
vt -3.218775 -3.255524
v 3695.515137 1213.870728 5387.974121
vn -0.925571 -0.025904 0.377686
vt -2.878133 -3.456207
v 3781.594482 1210.585449 5446.065918
vn -0.303887 -0.192927 0.932970
vt -3.622801 -3.958755
v 3793.922852 1265.584106 5464.089844
vn 0.026456 0.598784 0.800473
vt -3.664044 -3.569168
v 3793.922852 1265.584106 5464.089844
vn 0.026456 0.598784 0.800473
vt -2.664044 -3.569168
v 3781.594482 1210.585449 5446.065918
vn -0.303887 -0.192927 0.932970
vt -2.622801 -3.958755
v 3881.778809 1265.936768 5239.584961
vn 0.537737 0.659858 -0.524811
vt -3.103325 -3.446648
v 3935.793701 1260.597778 5334.355957
vn 0.944287 0.322513 0.065630
vt -3.373399 -3.920502
v 3914.333984 1208.092285 5318.594727
vn 0.968258 -0.226920 -0.104806
vt -3.771124 -3.856003
v 3861.038574 1210.761841 5229.020020
vn 0.547856 -0.060889 -0.834354
vt -3.310068 -3.081100
v 3775.323975 1272.437500 5221.321289
vn -0.059436 0.750456 -0.658243
vt -2.571051 -3.355324
v 3759.224365 1214.012085 5213.916992
vn -0.401645 0.104039 -0.909867
vt -2.429279 -2.950447
v 3696.591797 1275.204590 5293.317871
vn -0.643736 0.725388 -0.243755
vt -3.177389 -3.715309
v 3775.323975 1272.437500 5221.321289
vn -0.059436 0.750456 -0.658243
vt -3.571051 -3.355324
v 3759.224365 1214.012085 5213.916992
vn -0.401645 0.104039 -0.909867
vt -3.429279 -2.950447
v 3685.559570 1215.395752 5284.658203
vn -0.933117 0.105731 -0.343677
vt -2.792008 -3.562431
v 3696.591797 1275.204590 5293.317871
vn -0.643736 0.725388 -0.243755
vt -3.177389 -2.715309
v 3685.559570 1215.395752 5284.658203
vn -0.933117 0.105731 -0.343677
vt -2.792008 -2.562431
v 3881.778809 1265.936768 5239.584961
vn 0.537737 0.659858 -0.524811
vt -3.103325 -3.446648
v 3775.323975 1272.437500 5221.321289
vn -0.059436 0.750456 -0.658243
vt -2.571051 -3.355324
v 3820.055908 1274.185303 5257.494141
vn 0.073373 0.996750 -0.033239
vt -2.794710 -3.536194
v 3881.778809 1265.936768 5239.584961
vn 0.537737 0.659858 -0.524811
vt -3.103325 -2.446648
v 3820.055908 1274.185303 5257.494141
vn 0.073373 0.996750 -0.033239
vt -2.794710 -2.536194
v 3858.826416 1268.585571 5356.688477
vn 0.092171 0.995054 0.037037
vt -2.988563 -3.032166
v 3935.793701 1260.597778 5334.355957
vn 0.944287 0.322513 0.065630
vt -3.373399 -2.920502
v 3820.055908 1274.185303 5257.494141
vn 0.073373 0.996750 -0.033239
vt -3.794710 -2.536194
v 3758.323975 1277.274780 5275.406250
vn 0.000573 0.999646 -0.026598
vt -3.486050 -2.625748
v 3858.826416 1268.585571 5356.688477
vn 0.092171 0.995054 0.037037
vt -3.988563 -3.032166
v 3696.591797 1275.204590 5293.317871
vn -0.643736 0.725388 -0.243755
vt -3.177389 -2.715309
v 3896.693848 1260.440674 5434.270020
vn 0.582119 0.537919 0.609738
vt -3.177899 -3.420074
v 3775.323975 1272.437500 5221.321289
vn -0.059436 0.750456 -0.658243
vt -3.571051 -3.355324
v 3758.323975 1277.274780 5275.406250
vn 0.000573 0.999646 -0.026598
vt -3.486050 -3.625748
v 3820.055908 1274.185303 5257.494141
vn 0.073373 0.996750 -0.033239
vt -3.794710 -3.536194
v 3793.922852 1265.584106 5464.089844
vn 0.026456 0.598784 0.800473
vt -2.664044 -3.569168
v 3696.591797 1275.204590 5293.317871
vn -0.643736 0.725388 -0.243755
vt -3.177389 -3.715309
v 3845.467285 1011.813538 5597.105469
vn -0.365955 0.150799 0.918333
vt -3.822777 -3.471634
v 3845.016113 1074.392578 5577.165527
vn -0.200109 0.873756 0.443291
vt -3.919535 -3.134537
v 3759.145996 1071.639771 5496.020508
vn -0.774911 0.610495 0.163734
vt -3.490185 -2.728813
v 4027.339111 1064.822510 5506.516602
vn 0.713544 0.634860 0.296322
vt -3.831150 -2.781296
v 3952.529297 1071.358643 5584.908203
vn 0.180702 0.801069 0.570644
vt -3.457100 -3.173256
v 3957.006592 1011.813538 5600.552246
vn 0.442136 0.092083 0.892209
vt -3.715093 -3.499207
v 4030.241211 1011.813538 5517.042969
vn 0.974442 -0.062059 0.215897
vt -3.300970 -3.831139
v 4010.023926 1011.813538 5409.461914
vn 0.986604 -0.129796 -0.098823
vt -3.151896 -3.065483
v 4013.112305 1059.706055 5401.021973
vn 0.741448 0.645034 -0.184894
vt -2.760015 -3.253822
v 4027.339111 1064.822510 5506.516602
vn 0.713544 0.634860 0.296322
vt -2.831150 -3.781296
v 3881.505615 1011.813538 5366.618164
vn -0.386263 -0.139411 -0.911793
vt -3.073085 -2.577065
v 3778.963867 1011.813538 5411.049316
vn -0.783773 -0.038797 -0.619834
vt -2.290751 -2.913521
v 3792.767090 1065.173218 5393.971680
vn -0.474995 0.617184 -0.627267
vt -2.658290 -3.218575
v 3893.948975 1059.862183 5354.764648
vn -0.089749 0.869070 -0.486480
vt -3.164198 -3.022537
v 3778.963867 1011.813538 5411.049316
vn -0.783773 -0.038797 -0.619834
vt -3.290751 -2.913521
v 3749.541504 1011.813538 5517.096680
vn -0.948475 0.122801 0.292089
vt -3.055371 -3.831566
v 3759.145996 1071.639771 5496.020508
vn -0.774911 0.610495 0.163734
vt -3.490185 -3.728813
v 3792.767090 1065.173218 5393.971680
vn -0.474995 0.617184 -0.627267
vt -3.658290 -3.218575
v 3845.467285 1011.813538 5597.105469
vn -0.365955 0.150799 0.918333
vt -2.822777 -3.471634
v 3845.016113 1074.392578 5577.165527
vn -0.200109 0.873756 0.443291
vt -2.919535 -3.134537
v 3792.767090 1065.173218 5393.971680
vn -0.474995 0.617184 -0.627267
vt -2.658290 -3.218575
v 3849.012451 1071.856201 5401.852539
vn -0.005934 0.987954 -0.154631
vt -2.939516 -3.257973
v 3893.948975 1059.862183 5354.764648
vn -0.089749 0.869070 -0.486480
vt -3.164200 -3.022537
v 3845.016113 1074.392578 5577.165527
vn -0.200109 0.873756 0.443291
vt -2.919534 -3.134544
v 3901.042480 1077.565552 5518.457031
vn 0.027971 0.999607 -0.001665
vt -3.199667 -2.840996
v 3804.075928 1075.782349 5448.939941
vn -0.079706 0.994782 -0.063679
vt -2.714833 -2.493416
v 3804.075928 1075.782349 5448.939941
vn -0.079706 0.994782 -0.063679
vt -3.714833 -2.493416
v 3759.145996 1071.639771 5496.020508
vn -0.774911 0.610495 0.163734
vt -3.490184 -2.728821
v 3845.016113 1074.392578 5577.165527
vn -0.200109 0.873756 0.443291
vt -3.919534 -3.134544
v 3952.529297 1071.358643 5584.908203
vn 0.180702 0.801069 0.570644
vt -3.457101 -3.173256
v 3901.042480 1077.565552 5518.457031
vn 0.027971 0.999607 -0.001665
vt -3.199667 -3.840996
v 3957.077393 1072.669800 5459.739746
vn 0.088662 0.993481 -0.071651
vt -3.479842 -3.547409
v 3804.075928 1075.782349 5448.939941
vn -0.079706 0.994782 -0.063679
vt -2.714833 -3.493416
v 4013.112305 1059.706055 5401.021973
vn 0.741448 0.645034 -0.184894
vt -3.760017 -3.253822
v 3792.767090 1065.173218 5393.971680
vn -0.474995 0.617184 -0.627267
vt -3.658290 -3.218575
v 3804.075928 1075.782349 5448.939941
vn -0.079706 0.994782 -0.063679
vt -3.714833 -3.493416
v 3849.012451 1071.856201 5401.852539
vn -0.005934 0.987954 -0.154631
vt -3.939516 -3.257973
v 3759.145996 1071.639771 5496.020508
vn -0.774911 0.610495 0.163734
vt -3.490184 -3.728821
v 4027.339111 1064.822510 5506.516602
vn 0.713544 0.634860 0.296322
vt -3.831150 -3.781296
v 4027.339111 1064.822510 5506.516602
vn 0.713544 0.634860 0.296322
vt -3.831150 -2.781296
v 3957.077393 1072.669800 5459.739746
vn 0.088662 0.993481 -0.071651
vt -3.479842 -2.547409
v 3749.541504 1011.813538 5517.096680
vn -0.948475 0.122801 0.292089
vt -3.055371 -2.831566
v 3957.006592 1011.813538 5600.552246
vn 0.442136 0.092083 0.892209
vt -2.715093 -3.499207
v 4030.241211 1011.813538 5517.042969
vn 0.974442 -0.062059 0.215897
vt -3.300970 -2.831139
v 4027.339111 1064.822510 5506.516602
vn 0.713544 0.634860 0.296322
vt -2.831150 -2.781296
f 26/26/26 27/27/27 28/28/28
f 2/2/2 3/3/3 1/1/1
f 3/3/3 2/2/2 36/36/36
f 34/34/34 36/36/36 2/2/2
f 2/2/2 33/33/33 34/34/34
f 33/33/33 2/2/2 35/35/35
f 1/1/1 35/35/35 2/2/2
f 15/15/15 16/16/16 14/14/14
f 17/17/17 14/14/14 16/16/16
f 14/14/14 17/17/17 18/18/18
f 19/19/19 18/18/18 17/17/17
f 82/82/82 83/83/83 72/72/72
f 67/67/67 72/72/72 83/83/83
f 72/72/72 67/67/67 66/66/66
f 68/68/68 66/66/66 67/67/67
f 81/81/81 76/76/76 74/74/74
f 65/65/65 74/74/74 76/76/76
f 74/74/74 65/65/65 64/64/64
f 63/63/63 64/64/64 65/65/65
f 64/64/64 73/73/73 74/74/74
f 73/73/73 64/64/64 75/75/75
f 4/4/4 6/6/6 7/7/7
f 6/6/6 4/4/4 5/5/5
f 6/6/6 12/12/12 13/13/13
f 12/12/12 6/6/6 5/5/5
f 9/9/9 24/24/24 25/25/25
f 24/24/24 9/9/9 8/8/8
f 10/10/10 8/8/8 9/9/9
f 8/8/8 10/10/10 11/11/11
f 41/41/41 37/37/37 31/31/31
f 32/32/32 31/31/31 37/37/37
f 31/31/31 32/32/32 29/29/29
f 29/29/29 30/30/30 31/31/31
f 62/62/62 61/61/61 47/47/47
f 48/48/48 47/47/47 61/61/61
f 47/47/47 48/48/48 46/46/46
f 22/22/22 20/20/20 21/21/21
f 20/20/20 22/22/22 23/23/23
f 39/39/39 38/38/38 42/42/42
f 38/38/38 39/39/39 40/40/40
f 45/45/45 43/43/43 44/44/44
f 43/43/43 45/45/45 84/84/84
f 51/51/51 49/49/49 50/50/50
f 49/49/49 51/51/51 52/52/52
f 55/55/55 53/53/53 54/54/54
f 53/53/53 55/55/55 56/56/56
f 59/59/59 57/57/57 58/58/58
f 57/57/57 59/59/59 60/60/60
f 78/78/78 77/77/77 80/80/80
f 77/77/77 78/78/78 79/79/79
f 69/69/69 70/70/70 71/71/71
f 85/85/85 86/86/86 87/87/87
usemtl Cave_Wall_Blender
v 3775.130371 794.385193 5283.946777
vn -0.487774 -0.112687 -0.865666
vt -0.288783 -0.222469
v 3719.302734 795.759888 5340.652344
vn -0.979423 -0.114567 -0.166145
vt -0.153325 -0.225499
v 3731.369629 922.315186 5330.121094
vn -0.949102 -0.115125 -0.293175
vt -0.156277 -0.468218
v 3855.912109 912.971619 5281.693359
vn 0.499372 -0.179041 -0.847686
vt -0.484991 -0.473619
v 3897.515869 911.367004 5343.258301
vn 0.989551 -0.003716 -0.144135
vt -0.673872 -0.458624
v 3896.974365 785.155945 5359.247070
vn 0.985995 -0.106140 -0.128641
vt -0.717754 -0.221224
v 3854.201660 789.665955 5292.222168
vn 0.451969 -0.098879 -0.886536
vt -0.539999 -0.212068
v 3781.970215 917.844055 5275.847168
vn -0.354910 -0.226554 -0.907035
vt -0.305077 -0.477795
v 3728.758057 792.754761 5419.638672
vn -0.784354 -0.051569 0.618167
vt -0.020235 -0.218876
v 3742.213867 923.018188 5403.646484
vn -0.826365 0.076421 0.557926
vt -0.013243 -0.454610
v 3788.273193 1026.234619 5417.529297
vn -0.092395 0.004500 0.995712
vt 0.175332 -0.767568
v 3718.086670 1030.291626 5376.308105
vn -0.827654 -0.121357 0.547961
vt -0.000682 -0.799608
v 3806.336914 919.423828 5441.057129
vn -0.073943 0.196541 0.977703
vt 0.161698 -0.452192
v 3875.452637 914.238403 5414.181641
vn 0.725262 0.161500 0.669263
vt 0.330681 -0.453198
v 3863.455078 1021.549072 5388.358398
vn 0.731399 0.047027 0.680327
vt 0.334401 -0.749012
v 3841.220947 1022.222229 5243.170898
vn 0.506130 -0.154211 -0.848559
vt -0.491637 -0.730143
v 3887.019043 1019.763489 5310.761719
vn 0.989406 -0.021900 -0.143516
vt -0.662247 -0.751651
v 3760.547852 1027.073975 5236.483887
vn -0.274980 -0.269902 -0.922789
vt -0.291136 -0.725478
v 3796.376465 787.632996 5461.427246
vn -0.092852 -0.115957 0.988905
vt 0.128406 -0.213732
v 3705.747803 1030.665161 5295.735352
vn -0.910790 -0.212285 -0.354114
vt -0.171044 -0.780930
v 3695.515137 1213.870605 5387.974121
vn -0.925571 -0.025904 0.377686
vt -0.030530 -1.183249
v 3685.559570 1215.395630 5284.658203
vn -0.933117 0.105731 -0.343677
vt -0.172419 -1.175558
v 3759.224365 1214.012085 5213.916992
vn -0.401645 0.104039 -0.909867
vt -0.313865 -1.173944
v 3781.594482 1210.585449 5446.065918
vn -0.303887 -0.192927 0.932970
vt 0.146615 -1.190184
v 3878.978027 1208.013672 5415.188965
vn 0.597049 -0.300860 0.743650
vt 0.334340 -1.190824
v 3861.038574 1210.761719 5229.020020
vn 0.547856 -0.060889 -0.834354
vt -0.515464 -1.179971
v 3914.333984 1208.092163 5318.594727
vn 0.968258 -0.226920 -0.104806
vt -0.689559 -1.191775
v 3871.239746 784.251099 5434.550293
vn 0.716311 -0.119818 0.687417
vt 0.334936 -0.213651
v 3749.689453 726.968811 5404.402344
vn -0.811298 -0.266789 0.520211
vt -0.012280 -0.104672
v 3741.282227 727.256409 5340.460938
vn -0.933762 -0.189761 -0.303446
vt -0.153967 -0.111659
v 3896.974365 785.155945 5359.247070
vn 0.985995 -0.106140 -0.128641
vt 0.548768 -0.221224
v 3865.614746 722.643494 5413.916992
vn 0.714605 -0.167587 0.679157
vt 0.334790 -0.115906
v 3786.132080 725.562012 5293.418457
vn -0.356432 -0.075423 -0.931272
vt -0.298718 -0.115199
v 3850.465820 723.161560 5298.698730
vn 0.503337 0.000150 -0.864090
vt -0.557889 -0.113859
v 3885.839111 721.862732 5352.325684
vn 0.990260 -0.040461 -0.133224
vt -0.724828 -0.123512
v 3805.022461 724.915955 5437.093750
vn -0.088440 -0.265041 0.960173
vt 0.143646 -0.102572
v 3914.333984 1208.092163 5318.594727
vn 0.968258 -0.226920 -0.104806
vt 0.576963 -1.191775
v 3887.019043 1019.763489 5310.761719
vn 0.989406 -0.021900 -0.143516
vt 0.604275 -0.751651
v 3897.515869 911.367004 5343.258301
vn 0.989551 -0.003716 -0.144135
vt 0.592650 -0.458624
v 3885.839111 721.862732 5352.325684
vn 0.990260 -0.040461 -0.133224
vt 0.541694 -0.123512
v 3957.006592 1011.813538 5600.552246
vn 0.442136 0.092083 0.892209
vt -0.149639 -1.229000
v 3845.467285 1011.813538 5597.105469
vn -0.365955 0.150799 0.918333
vt -0.366591 -1.229000
v 3848.740479 831.133240 5568.512695
vn -0.319797 -0.128989 0.938665
vt -0.346456 -0.841257
v 3749.541504 1011.813538 5517.096680
vn -0.948475 0.122801 0.292089
vt -0.614951 -1.229000
v 3771.890625 827.560791 5512.787598
vn -0.928928 -0.109839 0.353592
vt -0.574540 -0.841257
v 3988.668701 720.634277 5499.350586
vn 0.899710 0.086037 0.427925
vt 0.115585 -0.476871
v 3998.930420 715.082520 5432.858398
vn 0.992788 0.112302 0.041945
vt 0.300701 -0.477988
v 3990.837158 822.064819 5437.918945
vn 0.988730 0.019151 0.148483
vt 0.304776 -0.841257
v 3980.700439 826.725952 5505.229004
vn 0.931754 -0.079052 0.354379
vt 0.130520 -0.841257
v 3778.964111 1011.813599 5411.049316
vn -0.783773 -0.038797 -0.619834
vt -0.845867 -1.229000
v 3790.331787 822.734497 5434.401367
vn -0.774283 -0.071707 -0.628764
vt -0.833196 -0.841257
v 3881.505859 1011.813599 5366.618164
vn -0.386263 -0.139411 -0.911793
vt -1.035042 -1.229000
v 3863.563965 820.288635 5399.281250
vn -0.420630 -0.082202 -0.903501
vt -1.020095 -0.841257
v 4010.023926 1011.813599 5409.461914
vn 0.986604 -0.129796 -0.098823
vt 0.305356 -1.229000
v 4030.241211 1011.813538 5517.042969
vn 0.974442 -0.062059 0.215897
vt 0.089269 -1.229000
v 3929.825439 830.761597 5568.220215
vn 0.417556 -0.137862 0.898132
vt -0.114314 -0.841257
v 3859.337402 723.729919 5561.176270
vn -0.333719 -0.147257 0.931100
vt -0.330279 -0.494660
v 3938.907959 724.482544 5561.329102
vn 0.428663 -0.063128 0.901256
vt -0.128075 -0.479555
v 3781.231934 718.942993 5506.435059
vn -0.959016 -0.134142 0.249590
vt -0.589812 -0.505291
v 3870.897217 712.008423 5394.754395
vn -0.431407 0.007213 -0.902129
vt -1.032830 -0.484010
v 3799.124023 713.726318 5429.064941
vn -0.777063 -0.041741 -0.628037
vt -0.825915 -0.500655
f 107/107/107 109/109/109 110/110/110
f 116/116/116 96/96/96 89/89/89
f 97/97/97 89/89/89 96/96/96
f 89/89/89 97/97/97 90/90/90
f 99/99/99 90/90/90 97/97/97
f 90/90/90 99/99/99 107/107/107
f 108/108/108 107/107/107 99/99/99
f 107/107/107 108/108/108 109/109/109
f 99/99/99 111/111/111 108/108/108
f 111/111/111 99/99/99 98/98/98
f 97/97/97 98/98/98 99/99/99
f 98/98/98 97/97/97 100/100/100
f 96/96/96 100/100/100 97/97/97
f 100/100/100 96/96/96 106/106/106
f 116/116/116 106/106/106 96/96/96
f 106/106/106 116/116/116 123/123/123
f 115/115/115 123/123/123 119/119/119
f 123/123/123 115/115/115 106/106/106
f 101/101/101 106/106/106 115/115/115
f 106/106/106 101/101/101 100/100/100
f 102/102/102 100/100/100 101/101/101
f 100/100/100 102/102/102 98/98/98
f 112/112/112 98/98/98 102/102/102
f 98/98/98 112/112/112 111/111/111
f 118/118/118 119/119/119 127/127/127
f 119/119/119 118/118/118 115/115/115
f 126/126/126 115/115/115 118/118/118
f 115/115/115 126/126/126 101/101/101
f 125/125/125 101/101/101 126/126/126
f 101/101/101 125/125/125 102/102/102
f 124/124/124 102/102/102 125/125/125
f 102/102/102 124/124/124 112/112/112
f 89/89/89 117/117/117 116/116/116
f 117/117/117 89/89/89 88/88/88
f 90/90/90 88/88/88 89/89/89
f 88/88/88 90/90/90 95/95/95
f 107/107/107 95/95/95 90/90/90
f 95/95/95 107/107/107 105/105/105
f 110/110/110 105/105/105 107/107/107
f 105/105/105 110/110/110 103/103/103
f 113/113/113 103/103/103 110/110/110
f 103/103/103 113/113/113 104/104/104
f 114/114/114 104/104/104 113/113/113
f 88/88/88 120/120/120 117/117/117
f 120/120/120 88/88/88 94/94/94
f 95/95/95 94/94/94 88/88/88
f 94/94/94 95/95/95 91/91/91
f 105/105/105 91/91/91 95/95/95
f 91/91/91 105/105/105 103/103/103
f 94/94/94 121/121/121 120/120/120
f 92/92/92 103/103/103 104/104/104
f 103/103/103 92/92/92 91/91/91
f 93/93/93 91/91/91 92/92/92
f 91/91/91 93/93/93 94/94/94
f 122/122/122 94/94/94 93/93/93
f 94/94/94 122/122/122 121/121/121
f 130/130/130 129/129/129 131/131/131
f 129/129/129 130/130/130 128/128/128
f 143/143/143 128/128/128 130/130/130
f 128/128/128 143/143/143 142/142/142
f 136/136/136 142/142/142 143/143/143
f 142/142/142 136/136/136 141/141/141
f 135/135/135 141/141/141 136/136/136
f 134/134/134 135/135/135 133/133/133
f 136/136/136 133/133/133 135/135/135
f 133/133/133 136/136/136 145/145/145
f 143/143/143 145/145/145 136/136/136
f 145/145/145 143/143/143 144/144/144
f 130/130/130 144/144/144 143/143/143
f 144/144/144 130/130/130 132/132/132
f 131/131/131 132/132/132 130/130/130
f 132/132/132 131/131/131 138/138/138
f 137/137/137 138/138/138 131/131/131
f 138/138/138 137/137/137 140/140/140
f 139/139/139 140/140/140 137/137/137
f 140/140/140 147/147/147 138/138/138
f 148/148/148 138/138/138 147/147/147
f 138/138/138 148/148/148 132/132/132
f 146/146/146 132/132/132 148/148/148
f 132/132/132 146/146/146 144/144/144
usemtl Wall_Stream_Blend
v 3748.987305 659.284058 5335.739746
vn -0.864055 0.187066 -0.467349
vt 3.203380 0.886922
v 3741.282227 727.256409 5340.460938
vn -0.933762 -0.189761 -0.303446
vt 3.235513 0.865467
v 3786.132080 725.562012 5293.418457
vn -0.356432 -0.075423 -0.931272
vt 3.243035 0.871108
v 3955.476563 596.999695 5541.462891
vn 0.504697 -0.023635 0.862973
vt 3.404894 0.574139
v 4021.001465 596.999695 5486.648926
vn 0.959772 0.146791 0.239353
vt 3.510141 0.635921
v 3988.668457 720.634277 5499.350586
vn 0.899710 0.086037 0.427925
vt 3.472035 0.802032
v 3859.337402 723.729919 5561.176270
vn -0.333719 -0.147257 0.931100
vt 3.347830 0.787087
v 3781.231934 718.942932 5506.435547
vn -0.959016 -0.134142 0.249590
vt 3.311562 0.861186
v 3798.555420 596.999695 5489.596680
vn -0.804966 -0.208474 0.555489
vt 3.196024 0.684216
v 3881.091064 596.999695 5539.289063
vn -0.182500 -0.191736 0.964329
vt 3.300599 0.594740
v 3938.907959 724.482544 5561.329102
vn 0.428663 -0.063128 0.901256
vt 3.415668 0.767201
v 3799.124023 713.726257 5429.064941
vn -0.777063 -0.041741 -0.628037
vt 3.280528 0.937728
v 3817.145020 596.999695 5417.584473
vn -0.859330 -0.074919 -0.505904
vt 3.149938 0.789798
v 3870.897217 712.008362 5394.754395
vn -0.431407 0.007213 -0.902129
vt 3.273229 1.001276
v 3885.070557 596.999695 5387.278809
vn -0.419300 0.016210 -0.907703
vt 3.123153 0.888739
v 3998.930176 715.082520 5432.858398
vn 0.992788 0.112302 0.041945
vt 3.537370 0.885628
v 4001.539551 596.999695 5412.221191
vn 0.965396 0.065450 -0.252441
vt 3.632030 0.719874
v 3791.911377 656.927979 5288.865723
vn -0.209683 0.166687 -0.963456
vt 3.238259 0.910370
v 3850.465820 723.161560 5298.698730
vn 0.503337 0.000150 -0.864090
vt 3.252088 0.868819
v 3854.492676 656.361877 5292.216797
vn 0.595973 0.152784 -0.788336
vt 3.280224 0.897382
v 3885.839111 721.862732 5352.325684
vn 0.990260 -0.040461 -0.133224
vt 3.255854 0.860323
v 3889.605713 658.012085 5343.269531
vn 0.986435 0.077409 -0.144751
vt 3.284842 0.860774
v 3885.839111 721.862732 5352.325684
vn 0.990260 -0.040461 -0.133224
vt 3.255854 0.860323
v 3865.614746 722.643494 5413.916992
vn 0.714605 -0.167587 0.679157
vt 3.251498 0.852019
v 3870.809814 660.635925 5403.581055
vn 0.727388 0.077430 0.681844
vt 3.270682 0.825258
v 3889.605713 658.012085 5343.269531
vn 0.986435 0.077409 -0.144751
vt 3.284842 0.860774
v 3805.022461 724.915955 5437.093750
vn -0.088440 -0.265041 0.960173
vt 3.242300 0.850159
v 3812.259033 662.257629 5427.734375
vn -0.025323 0.058664 0.997957
vt 3.237225 0.820170
v 3758.042725 661.655945 5397.542480
vn -0.849545 0.093332 0.519193
vt 3.204912 0.841996
v 3749.689453 726.968811 5404.402344
vn -0.811298 -0.266789 0.520211
vt 3.235186 0.856144
v 3714.169189 596.999817 5326.730957
vn -0.879816 0.457526 -0.128816
vt 3.115526 0.933587
v 3740.190918 596.999817 5416.716309
vn -0.607361 0.319674 0.727270
vt 3.130973 0.800665
v 3784.861084 596.999817 5271.310547
vn -0.417773 0.346212 -0.840002
vt 3.228197 0.995006
v 3864.787842 596.999817 5280.007324
vn 0.396318 0.269367 -0.877709
vt 3.338761 0.963907
v 3893.763184 596.999817 5346.273438
vn 0.963783 0.123911 -0.236154
vt 3.363963 0.863707
v 3810.661865 596.999817 5440.275879
vn 0.123492 0.215762 0.968605
vt 3.224710 0.750854
v 3869.460693 596.999817 5422.173340
vn 0.811561 0.151714 0.564226
vt 3.311825 0.762496
v 3893.763184 596.999817 5346.273438
vn 0.963783 0.123911 -0.236154
vt 3.363963 0.863707
f 167/167/167 169/169/169 170/170/170
f 175/175/175 178/178/178 177/177/177
f 150/150/150 177/177/177 178/178/178
f 177/177/177 150/150/150 149/149/149
f 151/151/151 149/149/149 150/150/150
f 149/149/149 151/151/151 166/166/166
f 167/167/167 166/166/166 151/151/151
f 166/166/166 167/167/167 168/168/168
f 170/170/170 168/168/168 167/167/167
f 186/186/186 174/174/174 185/185/185
f 173/173/173 185/185/185 174/174/174
f 185/185/185 173/173/173 184/184/184
f 176/176/176 184/184/184 173/173/173
f 184/184/184 176/176/176 180/180/180
f 177/177/177 180/180/180 176/176/176
f 180/180/180 177/177/177 179/179/179
f 149/149/149 179/179/179 177/177/177
f 179/179/179 149/149/149 181/181/181
f 166/166/166 181/181/181 149/149/149
f 181/181/181 166/166/166 182/182/182
f 168/168/168 182/182/182 166/166/166
f 182/182/182 168/168/168 183/183/183
f 170/170/170 183/183/183 168/168/168
f 176/176/176 175/175/175 177/177/177
f 175/175/175 176/176/176 172/172/172
f 173/173/173 172/172/172 176/176/176
f 172/172/172 173/173/173 171/171/171
f 174/174/174 171/171/171 173/173/173
f 165/165/165 164/164/164 153/153/153
f 154/154/154 153/153/153 164/164/164
f 153/153/153 154/154/154 152/152/152
f 159/159/159 152/152/152 154/154/154
f 152/152/152 159/159/159 158/158/158
f 155/155/155 158/158/158 159/159/159
f 158/158/158 155/155/155 157/157/157
f 156/156/156 157/157/157 155/155/155
f 157/157/157 156/156/156 161/161/161
f 160/160/160 161/161/161 156/156/156
f 161/161/161 160/160/160 163/163/163
f 162/162/162 163/163/163 160/160/160
