mtllib INST_TROLLHOLE_GEODE.mtl
g Geode
usemtl GeodeOut
v -19.727987 -13.930431 -41.037579
vn 0.024142 0.085111 -0.996079
vt 0.749750 0.671749
v -36.008846 -36.940891 -11.597147
vn -0.547732 -0.593024 -0.590179
vt 0.890805 0.975346
v -38.728947 -0.139565 -32.557896
vn -0.717327 -0.072546 -0.692950
vt 0.999500 0.500000
v -46.142544 19.914488 -13.090533
vn -0.847318 0.384977 -0.365849
vt 0.250250 0.250250
v -38.728947 -0.139565 -32.557896
vn -0.717327 -0.072546 -0.692950
vt 0.000500 0.500000
v -53.182793 -0.139568 6.963521
vn -0.997160 0.000000 -0.075311
vt 0.500000 0.500000
v 20.846531 -47.074589 -13.090542
vn 0.276789 -0.924257 -0.262938
vt 0.250000 0.250000
v -19.261578 -47.074589 -13.090538
vn -0.276789 -0.924257 -0.262938
vt 0.750000 0.250000
v 0.792476 -39.660992 -32.557899
vn 0.002406 -0.665647 -0.746263
vt 0.466184 0.024155
v 2.310425 39.381847 -32.557907
vn 0.064563 0.669970 -0.739575
vt 0.500000 0.000500
v 12.337068 14.118242 -43.126270
vn -0.043969 0.166646 -0.985036
vt 0.397893 0.333430
v 0.005632 28.450375 -38.494007
vn -0.223298 -0.393061 -0.891987
vt 0.500000 0.207595
v 2.310425 39.381847 -32.557907
vn 0.064563 0.669970 -0.739575
vt 0.545435 -0.161546
v -19.261578 46.795452 -13.090534
vn -0.248825 0.931492 -0.265346
vt 0.750000 0.250000
v 21.135538 46.795452 -13.090538
vn 0.265727 0.929907 -0.254286
vt 0.295435 0.250000
v -17.768190 36.661755 -29.837803
vn -0.494968 0.606192 -0.622526
vt -0.183075 -0.055056
v -26.299871 13.015989 -37.207291
vn -0.023276 0.365794 -0.930405
vt -0.325587 0.472472
v 0.792475 -23.367413 -42.372734
vn -0.393864 0.373596 -0.839820
vt 0.473766 0.749750
v 13.686254 -18.864262 -41.856281
vn -0.158200 -0.237339 -0.958459
vt 0.363334 0.725766
v 0.792476 -39.660992 -32.557899
vn 0.002406 -0.665647 -0.746263
vt 0.500000 0.999500
v -12.176541 -16.746941 -41.896595
vn 0.362033 0.249329 -0.898202
vt 0.641214 0.774652
v 15.361649 7.115165 -43.806686
vn -0.592892 -0.012254 -0.805189
vt 0.363480 0.415245
v 41.701160 -0.139565 -32.557907
vn 0.677637 -0.002331 -0.735393
vt 0.043978 0.531401
v 13.104618 -0.139565 -45.400257
vn -0.637472 0.159219 -0.753842
vt 0.389028 0.500000
v -16.362740 22.855597 -38.789173
vn 0.058783 -0.111059 -0.992074
vt 0.668652 0.211656
v -17.768190 36.661755 -29.837803
vn -0.494968 0.606192 -0.622526
vt 0.757246 -0.009662
v -16.362740 22.855597 -38.789173
vn 0.058783 -0.111059 -0.992074
vt 0.749750 0.250250
v -26.299871 13.015989 -37.207291
vn -0.023276 0.365794 -0.930405
vt 0.840825 0.335747
v 20.846535 46.795452 27.017570
vn 0.265359 0.930626 0.252031
vt 0.229807 0.664179
v 0.792479 50.838211 6.963519
vn -0.000347 1.000000 0.000361
vt 0.500000 0.500000
v 20.846535 -47.074589 27.017567
vn 0.276789 -0.924257 0.262938
vt 0.250000 0.750000
v 40.313892 -39.660988 6.963511
vn 0.706956 -0.707257 0.000073
vt 0.000000 0.500000
v 37.593803 -36.940891 25.524179
vn 0.602566 -0.602566 0.523287
vt 0.000000 0.750000
v 48.016506 19.914488 -13.090541
vn 0.915776 0.328301 -0.231459
vt 0.250250 0.250250
v 54.767746 -0.139568 6.963511
vn 0.998129 -0.003889 -0.061016
vt 0.500000 0.500000
v 41.701160 -0.139565 -32.557907
vn 0.677637 -0.002331 -0.735393
vt 0.000500 0.500000
v 47.746887 -20.193621 -13.090542
vn 0.903995 -0.351118 -0.243947
vt 0.250250 0.749750
v -19.261572 19.914490 53.898540
vn -0.313589 0.313589 0.896283
vt 0.769943 0.250250
v 0.792483 39.381851 46.484932
vn 0.000000 0.700791 0.713366
vt 0.585821 0.086321
v -36.008842 36.661755 25.524187
vn -0.602565 0.602566 0.523287
vt 1.287254 -0.362978
v -46.142544 -20.193621 -13.090534
vn -0.903042 -0.343972 -0.257289
vt 0.250250 0.749750
v 0.792479 -52.579033 6.963514
vn 0.000000 -1.000000 0.000000
vt 0.500000 0.500000
v -46.142540 -20.193623 27.017574
vn -0.824894 -0.399718 0.399718
vt 0.749750 0.749750
v -46.142540 19.914486 27.017576
vn -0.917171 0.288620 0.274765
vt 0.749750 0.250250
v 0.792484 -0.139570 60.938786
vn 0.000000 0.000000 1.000000
vt 0.500000 0.500000
v 20.846537 19.914490 53.898537
vn 0.313589 0.313589 0.896283
vt 0.250250 0.250250
v -19.261574 -47.074589 27.017570
vn -0.320401 -0.894895 0.310655
vt 0.750000 0.750000
v -46.142540 -20.193623 27.017574
vn -0.824894 -0.399718 0.399718
vt 1.000000 1.000000
v -38.728943 -39.660984 6.963518
vn -0.707106 -0.707106 -0.001038
vt 1.000000 0.500000
v 40.313896 39.381847 6.963514
vn 0.711888 0.702088 -0.016990
vt 0.500000 0.000500
v 37.593803 36.661755 25.524181
vn 0.602566 0.602566 0.523287
vt 0.749750 0.000500
v 47.727501 19.914486 27.017567
vn 0.916562 0.288433 0.276984
vt 0.749750 0.250250
v 20.846537 -20.193623 53.898533
vn 0.313589 -0.313589 0.896283
vt 0.250250 0.749750
v 37.972164 31.785942 -19.503328
vn 0.592417 0.561921 -0.577310
vt 0.101949 -0.125104
v 37.593800 -36.940891 -11.597154
vn 0.589721 -0.599144 -0.541531
vt 0.250250 0.999500
v -36.008842 36.661755 25.524187
vn -0.602565 0.602566 0.523287
vt 0.749750 0.000500
v -38.728939 39.381851 6.963521
vn -0.707982 0.701821 -0.078793
vt 0.500000 0.000500
v 47.727501 -20.193623 27.017565
vn 0.917130 -0.288608 0.274913
vt 0.749750 0.749750
v 40.313900 -0.139569 46.484928
vn 0.700791 0.000000 0.713366
vt 0.999500 0.500000
v -36.008846 -36.940891 -11.597147
vn -0.547732 -0.593024 -0.590179
vt 0.929952 0.105072
v -19.261574 46.795452 27.017574
vn -0.265221 0.930848 0.251355
vt 0.750000 0.750000
v -38.728939 39.381851 6.963521
vn -0.707982 0.701821 -0.078793
vt 1.000000 0.500000
v -46.142540 -20.193623 27.017574
vn -0.824894 -0.399718 0.399718
vt 1.125708 1.067794
v 0.792483 -39.660988 46.484940
vn -0.031096 -0.703551 0.709964
vt 0.500000 0.999500
v -19.261572 -20.193623 53.898537
vn -0.332090 -0.322354 0.886456
vt 0.749750 0.749750
v -36.008842 36.661755 25.524187
vn -0.602565 0.602566 0.523287
vt 1.000000 0.750000
v 0.792483 39.381851 46.484932
vn 0.000000 0.700791 0.713366
vt 0.393986 0.838454
v 37.593803 36.661755 25.524181
vn 0.602566 0.602566 0.523287
vt -0.211529 -0.039887
v 37.593803 -36.940891 25.524179
vn 0.602566 -0.602566 0.523287
vt -0.211530 1.398317
v 40.313900 -0.139569 46.484928
vn 0.700791 0.000000 0.713366
vt -0.019694 0.545435
v -38.728935 -0.139569 46.484940
vn -0.700032 0.096802 0.707520
vt 0.893486 0.646401
v -38.728943 -39.660984 6.963518
vn -0.707106 -0.707106 -0.001038
vt 0.500000 0.999500
v -38.728935 -0.139569 46.484940
vn -0.700032 0.096802 0.707520
vt 0.999500 0.500000
v 37.593800 -36.940891 -11.597154
vn 0.589721 -0.599144 -0.541531
vt 0.000000 0.250000
v 37.593803 36.661755 25.524181
vn 0.602566 0.602566 0.523287
vt 0.060580 0.755048
v 40.313896 39.381847 6.963514
vn 0.711888 0.702088 -0.016990
vt 0.000000 0.500000
v 37.972164 31.785942 -19.503328
vn 0.592417 0.561921 -0.577310
vt 0.010097 0.250000
v -17.553240 -5.639473 -42.918777
vn 0.529730 -0.040050 -0.847220
vt 0.749750 0.500000
v -3.242228 -27.522900 -39.001823
vn -0.505940 0.003624 -0.862561
vt 0.550247 0.835015
v 0.792475 -23.367413 -42.372734
vn -0.393864 0.373596 -0.839820
vt 0.500000 0.773100
v 40.313892 -39.660988 6.963511
vn 0.706956 -0.707257 0.000073
vt 0.500000 0.999500
v 37.972164 31.785942 -19.503328
vn 0.592417 0.561921 -0.577310
vt 0.250250 0.000500
v -36.008846 -36.940891 -11.597147
vn -0.547732 -0.593024 -0.590179
vt 0.093245 0.999500
v 0.005632 28.450375 -38.494007
vn -0.223298 -0.393061 -0.891987
vt 0.537565 0.149273
v 37.593803 -36.940891 25.524179
vn 0.602566 -0.602566 0.523287
vt 0.749750 0.999500
f 26/26/26 27/27/27 28/28/28
f 10/10/10 25/25/25 26/26/26
f 25/25/25 10/10/10 84/84/84
f 10/10/10 11/11/11 12/12/12
f 11/11/11 10/10/10 54/54/54
f 54/54/54 23/23/23 11/11/11
f 22/22/22 11/11/11 23/23/23
f 24/24/24 23/23/23 19/19/19
f 23/23/23 24/24/24 22/22/22
f 19/19/19 20/20/20 18/18/18
f 20/20/20 19/19/19 55/55/55
f 23/23/23 55/55/55 19/19/19
f 55/55/55 37/37/37 81/81/81
f 37/37/37 55/55/55 36/36/36
f 36/36/36 35/35/35 37/37/37
f 58/58/58 37/37/37 35/35/35
f 37/37/37 58/58/58 81/81/81
f 85/85/85 81/81/81 58/58/58
f 36/36/36 34/34/34 35/35/35
f 52/52/52 35/35/35 34/34/34
f 35/35/35 52/52/52 58/58/58
f 59/59/59 58/58/58 52/52/52
f 58/58/58 59/59/59 85/85/85
f 36/36/36 82/82/82 34/34/34
f 50/50/50 34/34/34 82/82/82
f 34/34/34 50/50/50 52/52/52
f 51/51/51 52/52/52 50/50/50
f 52/52/52 51/51/51 59/59/59
f 79/79/79 20/20/20 2/2/2
f 20/20/20 79/79/79 80/80/80
f 2/2/2 21/21/21 79/79/79
f 21/21/21 2/2/2 1/1/1
f 3/3/3 1/1/1 2/2/2
f 1/1/1 3/3/3 78/78/78
f 28/28/28 78/78/78 3/3/3
f 32/32/32 33/33/33 31/31/31
f 64/64/64 31/31/31 33/33/33
f 31/31/31 64/64/64 47/47/47
f 48/48/48 47/47/47 64/64/64
f 47/47/47 48/48/48 49/49/49
f 74/74/74 32/32/32 7/7/7
f 31/31/31 7/7/7 32/32/32
f 7/7/7 31/31/31 42/42/42
f 47/47/47 42/42/42 31/31/31
f 42/42/42 47/47/47 8/8/8
f 49/49/49 8/8/8 47/47/47
f 8/8/8 49/49/49 60/60/60
f 8/8/8 7/7/7 42/42/42
f 7/7/7 8/8/8 9/9/9
f 60/60/60 9/9/9 8/8/8
f 7/7/7 9/9/9 74/74/74
f 63/63/63 64/64/64 65/65/65
f 53/53/53 65/65/65 64/64/64
f 65/65/65 53/53/53 45/45/45
f 46/46/46 45/45/45 53/53/53
f 45/45/45 46/46/46 38/38/38
f 39/39/39 38/38/38 46/46/46
f 38/38/38 39/39/39 40/40/40
f 38/38/38 65/65/65 45/45/45
f 65/65/65 38/38/38 71/71/71
f 40/40/40 71/71/71 38/38/38
f 71/71/71 63/63/63 65/65/65
f 64/64/64 69/69/69 53/53/53
f 70/70/70 53/53/53 69/69/69
f 53/53/53 70/70/70 46/46/46
f 68/68/68 46/46/46 70/70/70
f 46/46/46 68/68/68 39/39/39
f 75/75/75 76/76/76 29/29/29
f 15/15/15 29/29/29 76/76/76
f 29/29/29 15/15/15 30/30/30
f 14/14/14 30/30/30 15/15/15
f 30/30/30 14/14/14 61/61/61
f 62/62/62 61/61/61 14/14/14
f 61/61/61 62/62/62 66/66/66
f 66/66/66 67/67/67 61/61/61
f 29/29/29 61/61/61 67/67/67
f 61/61/61 29/29/29 30/30/30
f 29/29/29 67/67/67 75/75/75
f 76/76/76 77/77/77 15/15/15
f 13/13/13 15/15/15 77/77/77
f 15/15/15 13/13/13 14/14/14
f 26/26/26 14/14/14 13/13/13
f 14/14/14 26/26/26 62/62/62
f 72/72/72 43/43/43 41/41/41
f 6/6/6 41/41/41 43/43/43
f 41/41/41 6/6/6 5/5/5
f 4/4/4 5/5/5 6/6/6
f 5/5/5 4/4/4 17/17/17
f 16/16/16 17/17/17 4/4/4
f 83/83/83 41/41/41 5/5/5
f 41/41/41 83/83/83 72/72/72
f 44/44/44 6/6/6 43/43/43
f 6/6/6 44/44/44 4/4/4
f 57/57/57 4/4/4 44/44/44
f 4/4/4 57/57/57 16/16/16
f 43/43/43 73/73/73 44/44/44
f 56/56/56 44/44/44 73/73/73
f 44/44/44 56/56/56 57/57/57
usemtl GeodeIn
v 12.082795 -15.963029 -34.758614
vn -0.763272 0.642328 -0.069500
vt 0.363334 0.725766
v 13.453305 5.993890 -36.407036
vn -0.994892 0.015111 -0.099806
vt 0.363480 0.415245
v 11.559142 -0.137559 -37.753864
vn -0.996797 0.078229 0.016604
vt 0.389028 0.500000
v 13.104618 -0.139565 -45.400257
vn -0.637472 0.159219 -0.753842
vt 0.054496 0.492439
v 11.559142 -0.137559 -37.753864
vn -0.996797 0.078229 0.016604
vt 0.053648 0.500883
v 13.453305 5.993890 -36.407036
vn -0.994892 0.015111 -0.099806
vt 0.005511 0.369300
v 0.792475 -23.367413 -42.372734
vn -0.393864 0.373596 -0.839820
vt 0.355916 0.887012
v -3.242228 -27.522900 -39.001823
vn -0.505940 0.003624 -0.862561
vt 0.448950 0.936078
v 0.698917 -19.768932 -35.195107
vn -0.616141 0.779154 -0.115279
vt 0.347631 0.881389
v 0.005632 28.450375 -38.494007
vn -0.223298 -0.393061 -0.891987
vt 0.354507 -0.013957
v 0.538729 24.025673 -31.916945
vn -0.245838 -0.826571 -0.506305
vt 0.357636 -0.013413
v -16.250082 16.811441 -33.165668
vn 0.373293 -0.721135 -0.583623
vt 0.802999 0.145261
v 12.082795 -15.963029 -34.758614
vn -0.763272 0.642328 -0.069500
vt 0.044929 0.798031
v 15.361649 7.115165 -43.806686
vn -0.592892 -0.012254 -0.805189
vt 0.002951 0.362997
v -10.262049 -14.173542 -34.792690
vn 0.500626 0.859540 -0.102780
vt 0.640527 0.771634
v -2.711075 -23.281017 -32.346130
vn 0.197576 0.978083 -0.065712
vt 0.443517 0.935185
v -12.176541 -16.746941 -41.896595
vn 0.362033 0.249329 -0.898202
vt 0.641214 0.774652
v -16.362740 22.855597 -38.789173
vn 0.058783 -0.111059 -0.992074
vt 0.799082 0.141281
v -22.198603 10.981065 -30.829454
vn 0.763879 -0.257340 -0.591832
vt 0.965659 0.249574
v -26.299871 13.015989 -37.207291
vn -0.023276 0.365794 -0.930405
vt 0.979239 0.247377
v -19.727987 -13.930431 -41.037579
vn 0.024142 0.085111 -0.996079
vt 0.814850 0.727820
v 10.897034 11.912651 -35.831970
vn -0.835076 -0.459714 -0.302178
vt 0.074661 0.248582
v 12.337068 14.118242 -43.126270
vn -0.043969 0.166646 -0.985036
vt 0.073101 0.234749
v 13.686254 -18.864262 -41.856281
vn -0.158200 -0.237339 -0.958459
vt 0.033523 0.794452
v -17.553240 -5.639473 -42.918777
vn 0.529730 -0.040050 -0.847220
vt 0.768171 0.593504
v -14.806251 -4.785890 -35.656605
vn 0.922168 0.181738 -0.341435
vt 0.760153 0.591415
v -16.644274 -11.793121 -34.066677
vn 0.944295 0.270216 -0.187855
vt 0.811931 0.722192
v 13.453305 5.993890 -36.407036
vn -0.994892 0.015111 -0.099806
vt 1.707046 0.394960
v 12.082795 -15.963029 -34.758614
vn -0.763272 0.642328 -0.069500
vt 1.642180 1.050185
v 0.790269 -2.921578 14.560804
vn 0.054509 -0.220849 -0.973784
vt 0.716775 0.707688
v -2.711075 -23.281017 -32.346130
vn 0.197576 0.978083 -0.065712
vt 0.551057 1.922060
v 0.698917 -19.768932 -35.195107
vn -0.616141 0.779154 -0.115279
vt 0.712452 1.817254
v 10.897034 11.912651 -35.831970
vn -0.835076 -0.459714 -0.302178
vt 1.586058 0.218336
v -16.644274 -11.793121 -34.066677
vn 0.944295 0.270216 -0.187855
vt -0.376799 1.182480
v -10.262049 -14.173542 -34.792690
vn 0.500626 0.859540 -0.102780
vt -0.173920 1.591932
v 0.538729 24.025673 -31.916945
vn -0.245838 -0.826571 -0.506305
vt 0.857376 -0.529697
v -16.250082 16.811441 -33.165668
vn 0.373293 -0.721135 -0.583623
vt -0.276455 -0.260434
v -14.806251 -4.785890 -35.656605
vn 0.922168 0.181738 -0.341435
vt -0.289806 0.973374
v -22.198603 10.981065 -30.829454
vn 0.763879 -0.257340 -0.591832
vt -0.692198 0.263640
f 86/86/86 87/87/87 88/88/88
f 99/99/99 107/107/107 108/108/108
f 107/107/107 99/99/99 91/91/91
f 89/89/89 91/91/91 99/99/99
f 91/91/91 89/89/89 90/90/90
f 109/109/109 90/90/90 89/89/89
f 90/90/90 109/109/109 98/98/98
f 92/92/92 98/98/98 109/109/109
f 98/98/98 92/92/92 94/94/94
f 93/93/93 94/94/94 92/92/92
f 94/94/94 93/93/93 101/101/101
f 102/102/102 101/101/101 93/93/93
f 101/101/101 102/102/102 100/100/100
f 106/106/106 100/100/100 102/102/102
f 100/100/100 106/106/106 112/112/112
f 110/110/110 112/112/112 106/106/106
f 112/112/112 110/110/110 111/111/111
f 105/105/105 111/111/111 110/110/110
f 111/111/111 105/105/105 104/104/104
f 95/95/95 107/107/107 96/96/96
f 107/107/107 95/95/95 108/108/108
f 103/103/103 104/104/104 105/105/105
f 104/104/104 103/103/103 97/97/97
f 95/95/95 97/97/97 103/103/103
f 97/97/97 95/95/95 96/96/96
f 115/115/115 119/119/119 123/123/123
f 119/119/119 115/115/115 116/116/116
f 114/114/114 116/116/116 115/115/115
f 116/116/116 114/114/114 117/117/117
f 119/119/119 116/116/116 120/120/120
f 123/123/123 124/124/124 115/115/115
f 122/122/122 115/115/115 124/124/124
f 115/115/115 122/122/122 121/121/121
f 115/115/115 113/113/113 114/114/114
f 113/113/113 115/115/115 118/118/118
f 121/121/121 118/118/118 115/115/115
