mtllib INST_EKH_TWISTVINELG_01.mtl
g Inst_Hang_Vine_
usemtl Twist_vine
v 5.881146 -135.473831 33.353901
vn -0.984808 0.000000 0.173648
vt 0.000000 1.000000
v 5.881227 135.473816 33.353939
vn -0.984808 0.000000 0.173648
vt 1.000000 1.000000
v -5.881146 135.473831 -33.353901
vn -0.984808 0.000000 0.173648
vt 1.000000 0.000000
v -5.881227 -135.473816 -33.353939
vn -0.984808 0.000000 0.173648
vt 0.000000 0.000000
v 6.596637 -380.832672 41.534435
vn -0.984808 0.000000 0.173648
vt 0.000000 1.000000
v 6.596716 -109.885033 41.534481
vn -0.984808 0.000000 0.173648
vt 1.000000 1.000000
v -5.165657 -109.885025 -25.173363
vn -0.984808 0.000000 0.173648
vt 1.000000 0.000000
v -5.165736 -380.832672 -25.173403
vn -0.984808 0.000000 0.173648
vt 0.000000 0.000000
v 34.069370 -380.832672 2.299330
vn 0.173648 0.000000 0.984808
vt 0.000000 1.000000
v 34.069450 -109.885040 2.299371
vn 0.173648 0.000000 0.984808
vt 1.000000 1.000000
v -32.638393 -109.885017 14.061747
vn 0.173648 0.000000 0.984808
vt 1.000000 0.000000
v -32.638470 -380.832672 14.061706
vn 0.173648 0.000000 0.984808
vt 0.000000 0.000000
v 33.353909 -135.473816 -5.881155
vn 0.173648 0.000000 0.984808
vt 0.000000 1.000000
v 33.353935 135.473831 -5.881223
vn 0.173648 0.000000 0.984808
vt 1.000000 1.000000
v -33.353909 135.473831 5.881155
vn 0.173648 0.000000 0.984808
vt 1.000000 0.000000
v -33.353935 -135.473816 5.881223
vn 0.173648 0.000000 0.984808
vt 0.000000 0.000000
f 3/3/3 1/1/1 2/2/2
f 1/1/1 3/3/3 4/4/4
f 7/7/7 5/5/5 6/6/6
f 5/5/5 7/7/7 8/8/8
f 11/11/11 9/9/9 10/10/10
f 9/9/9 11/11/11 12/12/12
f 15/15/15 13/13/13 14/14/14
f 13/13/13 15/15/15 16/16/16
