mtllib HAYSTACK.mtl
g haystack
usemtl haybail
v -3.051152 115.320564 -1.143173
vn -0.031658 0.999468 0.007877
vt 0.980856 0.014844
v 1.434046 108.210541 23.865868
vn 0.052125 0.837951 0.543250
vt 0.980850 0.237727
v 14.829093 108.245537 19.251501
vn 0.384353 0.834014 0.395845
vt 1.184288 0.237727
v -1.866027 90.675613 42.079971
vn -0.015579 0.767133 0.641298
vt 0.980851 0.418799
v 23.836491 89.982994 34.094997
vn 0.427197 0.733559 0.528577
vt 1.184288 0.418799
v 1.427502 83.420090 51.873760
vn -0.012760 0.660283 0.750908
vt 0.980851 0.490800
v 30.277569 82.941986 42.091747
vn 0.491642 0.659887 0.568187
vt 1.184288 0.490800
v 1.957691 63.522354 62.524658
vn -0.010032 0.520825 0.853605
vt 0.980851 0.610802
v 24.949213 62.219711 57.678215
vn 0.378176 0.510002 0.772581
vt 1.116476 0.610802
v -2.325438 30.005779 83.037476
vn -0.008912 0.435334 0.900225
vt 0.980851 0.829331
v 33.911827 29.173141 76.629593
vn 0.352329 0.429504 0.831499
vt 1.116476 0.829331
v 0.000009 8.340607 90.927017
vn -0.071076 0.344253 0.936183
vt 0.980851 0.985965
v 35.233799 8.340612 83.918587
vn 0.298823 0.338321 0.892325
vt 1.116476 0.985965
v 41.462788 63.598541 43.876732
vn 0.653898 0.519047 0.550461
vt 1.252101 0.610802
v 60.738369 29.489403 58.381493
vn 0.650526 0.459328 0.604842
vt 1.252101 0.829331
v 65.103569 8.340615 63.960262
vn 0.626692 0.314866 0.712823
vt 1.252101 0.985965
v -3.051152 115.320564 -1.143173
vn -0.031658 0.999468 0.007877
vt 1.252104 0.014844
v 24.191404 108.076035 3.641982
vn 0.532947 0.845956 0.018058
vt 1.387726 0.237727
v 41.960690 89.818695 7.146950
vn 0.696740 0.702809 0.143570
vt 1.387726 0.418799
v 49.650452 81.535332 7.854069
vn 0.746784 0.650450 0.138667
vt 1.387870 0.490689
v 55.875259 61.995132 23.221367
vn 0.780068 0.518306 0.350505
vt 1.387726 0.610802
v 75.879257 30.226643 31.071274
vn 0.816298 0.486280 0.311752
vt 1.387726 0.829331
v 85.061890 8.340618 34.090492
vn 0.841006 0.372431 0.392433
vt 1.387726 0.985965
v 64.567368 62.203175 -1.143336
vn 0.832105 0.554492 0.011823
vt 1.508703 0.615744
v 82.542152 30.209661 -1.143309
vn 0.896725 0.440357 0.044384
vt 1.511938 0.830091
v 92.070351 8.340619 -1.143323
vn 0.913697 0.401529 0.062709
vt 1.523351 0.985965
v -3.051152 115.320564 -1.143173
vn -0.031658 0.999468 0.007877
vt -0.646645 0.014844
v 24.191404 108.076035 3.641982
vn 0.532947 0.845956 0.018058
vt -0.646649 0.237727
v 18.831112 108.099388 -14.770731
vn 0.425157 0.837376 -0.343574
vt -0.511024 0.237727
v 41.960690 89.818695 7.146950
vn 0.696740 0.702809 0.143570
vt -0.649571 0.418352
v 35.385548 90.058502 -24.778976
vn 0.559134 0.740628 -0.372611
vt -0.443211 0.418799
v 49.650452 81.535332 7.854069
vn 0.746784 0.650450 0.138667
vt -0.646649 0.490800
v 42.576244 82.696129 -30.032082
vn 0.638076 0.651109 -0.410994
vt -0.443212 0.490800
v 64.567368 62.203175 -1.143336
vn 0.832105 0.554492 0.011823
vt -0.646649 0.610801
v 57.440178 62.274979 -25.507996
vn 0.754848 0.565630 -0.332065
vt -0.511024 0.610801
v 82.542152 30.209661 -1.143309
vn 0.896725 0.440357 0.044384
vt -0.646649 0.829331
v 78.648712 30.404112 -33.357903
vn 0.832450 0.437459 -0.340083
vt -0.511024 0.829331
v 92.070351 8.340619 -1.143323
vn 0.913697 0.401529 0.062709
vt -0.646649 0.985965
v 85.061897 8.340620 -36.377087
vn 0.899463 0.335848 -0.279592
vt -0.511024 0.985965
v 43.967113 63.048206 -46.163361
vn 0.588041 0.535814 -0.605897
vt -0.375399 0.610802
v 60.019199 29.908384 -60.668121
vn 0.631815 0.445042 -0.634624
vt -0.375399 0.829331
v 65.103577 8.340617 -66.246849
vn 0.709390 0.322270 -0.626824
vt -0.375399 0.985965
v -3.051152 115.320564 -1.143173
vn -0.031658 0.999468 0.007877
vt -0.375393 0.014844
v 18.831112 108.099388 -14.770731
vn 0.425157 0.837376 -0.343574
vt -0.375399 0.237727
v 7.087482 107.920837 -25.200647
vn 0.075274 0.837380 -0.541414
vt -0.171961 0.237727
v 10.787016 89.724915 -42.827564
vn 0.172261 0.749662 -0.639009
vt -0.171961 0.418799
v 10.118159 82.641281 -52.142559
vn 0.144641 0.676412 -0.722181
vt -0.171962 0.490800
v 23.556267 63.483837 -59.964863
vn 0.318621 0.547866 -0.773514
vt -0.239774 0.610802
v 32.831352 30.428518 -78.916245
vn 0.347232 0.436277 -0.830116
vt -0.239774 0.829331
v 35.233810 8.340615 -86.205215
vn 0.420611 0.328424 -0.845709
vt -0.239774 0.985965
v -2.134484 63.253239 -64.811287
vn -0.045061 0.533303 -0.844723
vt -0.104149 0.610802
v 1.697676 30.293863 -85.324150
vn -0.006854 0.439773 -0.898083
vt -0.104149 0.829331
v 0.000023 8.340609 -93.213646
vn 0.064681 0.335185 -0.939929
vt -0.104149 0.985965
v -3.051152 115.320564 -1.143173
vn -0.031658 0.999468 0.007877
vt -0.104142 0.014844
v -12.545769 107.787437 -21.538136
vn -0.348633 0.831120 -0.433238
vt 0.099289 0.237727
v -23.553865 90.369926 -36.489719
vn -0.331866 0.771234 -0.543197
vt 0.099288 0.418799
v -29.148190 83.150917 -44.378361
vn -0.402455 0.684867 -0.607443
vt 0.099288 0.490800
v -25.173134 62.957603 -59.964863
vn -0.328460 0.538680 -0.775846
vt 0.031476 0.610802
v -31.597834 29.155317 -78.916206
vn -0.346920 0.435376 -0.830719
vt 0.031476 0.829331
v -35.233788 8.340603 -86.205193
vn -0.300896 0.358810 -0.883582
vt 0.031475 0.985965
v -46.073009 62.560009 -46.163368
vn -0.623790 0.519756 -0.583729
vt 0.167101 0.610802
v -59.030464 30.318090 -60.668106
vn -0.636009 0.435988 -0.636715
vt 0.167101 0.829331
v -65.103561 8.340600 -66.246864
vn -0.612216 0.355867 -0.706081
vt 0.167101 0.985965
v -3.051152 115.320564 -1.143173
vn -0.031658 0.999468 0.007877
vt 0.167109 0.014844
v -24.246164 107.689262 -5.928601
vn -0.570381 0.812376 -0.121290
vt 0.370538 0.237727
v -41.686546 90.441055 -9.478110
vn -0.586295 0.794198 -0.159709
vt 0.370538 0.418799
v -52.406643 83.877235 -10.589348
vn -0.725932 0.668606 -0.161212
vt 0.370538 0.490800
v -60.202892 62.811985 -25.507965
vn -0.786194 0.531141 -0.315893
vt 0.302726 0.610802
v -76.897224 30.492226 -33.357899
vn -0.831952 0.419648 -0.362975
vt 0.302726 0.829331
v -85.061905 8.340596 -36.377071
vn -0.837026 0.360945 -0.411224
vt 0.302726 0.985965
v -62.768597 63.358826 -1.143308
vn -0.865030 0.501707 0.003604
vt 0.438350 0.610802
v -85.819389 29.777811 -1.143310
vn -0.910305 0.413743 -0.012722
vt 0.438350 0.829331
v -92.070328 8.340596 -1.143337
vn -0.947501 0.308650 -0.083527
vt 0.438350 0.985965
v -3.051152 115.320564 -1.143173
vn -0.031658 0.999468 0.007877
vt 0.438359 0.014844
v -25.103483 107.283958 8.427329
vn -0.518529 0.818700 0.246695
vt 0.573976 0.237727
v -38.204517 90.697403 15.364167
vn -0.607723 0.755096 0.245972
vt 0.573976 0.418799
v -50.012115 83.108437 19.145470
vn -0.622823 0.730081 0.281199
vt 0.573976 0.490800
v -61.767757 63.057198 23.221386
vn -0.816926 0.501213 0.285337
vt 0.573976 0.610802
v -79.666580 30.828836 31.071281
vn -0.833748 0.426622 0.350511
vt 0.573976 0.829331
v -85.061890 8.340595 34.090481
vn -0.914148 0.268121 0.304046
vt 0.573976 0.985965
v -3.051152 115.320564 -1.143173
vn -0.031658 0.999468 0.007877
vt 0.573984 0.014844
v -12.425659 108.252190 19.251518
vn -0.269245 0.835084 0.479731
vt 0.777413 0.237727
v -23.326767 90.380035 34.095016
vn -0.390363 0.732067 0.558296
vt 0.777413 0.418799
v -27.499929 82.878220 42.091763
vn -0.377398 0.664903 0.644574
vt 0.777413 0.490800
v -48.577278 63.216393 43.876759
vn -0.571211 0.520792 0.634424
vt 0.709601 0.610802
v -58.311153 29.010220 58.381504
vn -0.620999 0.425674 0.658151
vt 0.709601 0.829331
v -65.103546 8.340598 63.960262
vn -0.685820 0.349106 0.638573
vt 0.709601 0.985965
v -23.780117 62.784512 57.678223
vn -0.271155 0.537272 0.798633
vt 0.845226 0.610802
v -30.517385 30.105982 76.629601
vn -0.340744 0.428742 0.836704
vt 0.845226 0.829331
v -35.233799 8.340600 83.918594
vn -0.412045 0.370600 0.832391
vt 0.845226 0.985965
v -3.051152 115.320564 -1.143173
vn -0.031658 0.999468 0.007877
vt 0.845232 0.014844
f 17/17/17 3/3/3 18/18/18
f 19/19/19 18/18/18 3/3/3
f 1/1/1 2/2/2 3/3/3
f 5/5/5 3/3/3 2/2/2
f 3/3/3 5/5/5 19/19/19
f 20/20/20 19/19/19 5/5/5
f 91/91/91 82/82/82 2/2/2
f 4/4/4 2/2/2 82/82/82
f 2/2/2 4/4/4 5/5/5
f 7/7/7 5/5/5 4/4/4
f 5/5/5 7/7/7 20/20/20
f 21/21/21 20/20/20 7/7/7
f 20/20/20 21/21/21 24/24/24
f 25/25/25 24/24/24 21/21/21
f 7/7/7 14/14/14 21/21/21
f 22/22/22 21/21/21 14/14/14
f 21/21/21 22/22/22 25/25/25
f 26/26/26 25/25/25 22/22/22
f 81/81/81 75/75/75 82/82/82
f 83/83/83 82/82/82 75/75/75
f 82/82/82 83/83/83 4/4/4
f 6/6/6 4/4/4 83/83/83
f 4/4/4 6/6/6 7/7/7
f 9/9/9 7/7/7 6/6/6
f 7/7/7 9/9/9 14/14/14
f 15/15/15 14/14/14 9/9/9
f 14/14/14 15/15/15 22/22/22
f 23/23/23 22/22/22 15/15/15
f 22/22/22 23/23/23 26/26/26
f 74/74/74 65/65/65 75/75/75
f 76/76/76 75/75/75 65/65/65
f 75/75/75 76/76/76 83/83/83
f 84/84/84 83/83/83 76/76/76
f 83/83/83 84/84/84 6/6/6
f 8/8/8 6/6/6 84/84/84
f 6/6/6 8/8/8 9/9/9
f 11/11/11 9/9/9 8/8/8
f 9/9/9 11/11/11 15/15/15
f 16/16/16 15/15/15 11/11/11
f 15/15/15 16/16/16 23/23/23
f 84/84/84 88/88/88 8/8/8
f 10/10/10 8/8/8 88/88/88
f 8/8/8 10/10/10 11/11/11
f 13/13/13 11/11/11 10/10/10
f 11/11/11 13/13/13 16/16/16
f 64/64/64 55/55/55 65/65/65
f 66/66/66 65/65/65 55/55/55
f 65/65/65 66/66/66 76/76/76
f 77/77/77 76/76/76 66/66/66
f 76/76/76 77/77/77 84/84/84
f 85/85/85 84/84/84 77/77/77
f 84/84/84 85/85/85 88/88/88
f 89/89/89 88/88/88 85/85/85
f 88/88/88 89/89/89 10/10/10
f 12/12/12 10/10/10 89/89/89
f 10/10/10 12/12/12 13/13/13
f 54/54/54 45/45/45 55/55/55
f 56/56/56 55/55/55 45/45/45
f 55/55/55 56/56/56 66/66/66
f 67/67/67 66/66/66 56/56/56
f 66/66/66 67/67/67 77/77/77
f 78/78/78 77/77/77 67/67/67
f 77/77/77 78/78/78 85/85/85
f 86/86/86 85/85/85 78/78/78
f 85/85/85 86/86/86 89/89/89
f 90/90/90 89/89/89 86/86/86
f 89/89/89 90/90/90 12/12/12
f 67/67/67 71/71/71 78/78/78
f 79/79/79 78/78/78 71/71/71
f 78/78/78 79/79/79 86/86/86
f 87/87/87 86/86/86 79/79/79
f 86/86/86 87/87/87 90/90/90
f 43/43/43 44/44/44 45/45/45
f 46/46/46 45/45/45 44/44/44
f 45/45/45 46/46/46 56/56/56
f 57/57/57 56/56/56 46/46/46
f 56/56/56 57/57/57 67/67/67
f 68/68/68 67/67/67 57/57/57
f 67/67/67 68/68/68 71/71/71
f 72/72/72 71/71/71 68/68/68
f 71/71/71 72/72/72 79/79/79
f 80/80/80 79/79/79 72/72/72
f 79/79/79 80/80/80 87/87/87
f 57/57/57 61/61/61 68/68/68
f 69/69/69 68/68/68 61/61/61
f 68/68/68 69/69/69 72/72/72
f 73/73/73 72/72/72 69/69/69
f 72/72/72 73/73/73 80/80/80
f 44/44/44 31/31/31 46/46/46
f 47/47/47 46/46/46 31/31/31
f 46/46/46 47/47/47 57/57/57
f 58/58/58 57/57/57 47/47/47
f 57/57/57 58/58/58 61/61/61
f 62/62/62 61/61/61 58/58/58
f 61/61/61 62/62/62 69/69/69
f 70/70/70 69/69/69 62/62/62
f 69/69/69 70/70/70 73/73/73
f 31/31/31 33/33/33 47/47/47
f 62/62/62 63/63/63 70/70/70
f 63/63/63 62/62/62 59/59/59
f 58/58/58 59/59/59 62/62/62
f 59/59/59 58/58/58 51/51/51
f 47/47/47 51/51/51 58/58/58
f 51/51/51 47/47/47 48/48/48
f 33/33/33 48/48/48 47/47/47
f 48/48/48 33/33/33 40/40/40
f 35/35/35 40/40/40 33/33/33
f 40/40/40 35/35/35 41/41/41
f 37/37/37 41/41/41 35/35/35
f 41/41/41 37/37/37 42/42/42
f 39/39/39 42/42/42 37/37/37
f 49/49/49 40/40/40 41/41/41
f 40/40/40 49/49/49 48/48/48
f 52/52/52 48/48/48 49/49/49
f 48/48/48 52/52/52 51/51/51
f 59/59/59 51/51/51 52/52/52
f 50/50/50 41/41/41 42/42/42
f 41/41/41 50/50/50 49/49/49
f 53/53/53 49/49/49 50/50/50
f 49/49/49 53/53/53 52/52/52
f 60/60/60 52/52/52 53/53/53
f 52/52/52 60/60/60 59/59/59
f 63/63/63 59/59/59 60/60/60
f 38/38/38 39/39/39 36/36/36
f 37/37/37 36/36/36 39/39/39
f 36/36/36 37/37/37 34/34/34
f 35/35/35 34/34/34 37/37/37
f 34/34/34 35/35/35 32/32/32
f 33/33/33 32/32/32 35/35/35
f 32/32/32 33/33/33 30/30/30
f 31/31/31 30/30/30 33/33/33
f 30/30/30 31/31/31 28/28/28
f 29/29/29 28/28/28 31/31/31
f 28/28/28 29/29/29 27/27/27
usemtl haybail_op
v -3.199267 118.106407 -1.142749
vn -0.031658 0.999468 0.007877
vt 0.980856 0.014844
v 1.503659 110.651237 25.080322
vn 0.052125 0.837951 0.543250
vt 0.980850 0.237727
v 15.548952 110.687927 20.241957
vn 0.384353 0.834014 0.395845
vt 1.184288 0.237727
v -1.956611 92.265099 44.178604
vn -0.015579 0.767133 0.641298
vt 0.980851 0.418799
v 24.993601 91.538857 35.806011
vn 0.427197 0.733559 0.528577
vt 1.184288 0.418799
v 1.496797 84.657364 54.447819
vn -0.012760 0.660283 0.750908
vt 0.980851 0.490800
v 31.747355 84.156052 44.190952
vn 0.491642 0.659887 0.568187
vt 1.184288 0.490800
v 2.052724 63.793720 65.615753
vn -0.010032 0.520825 0.853605
vt 0.980851 0.610802
v 26.160339 62.427841 60.534046
vn 0.378176 0.510002 0.772581
vt 1.116476 0.610802
v -2.438324 28.650127 87.124336
vn -0.008912 0.435334 0.900225
vt 0.980851 0.829331
v 35.558033 27.777071 80.405396
vn 0.352329 0.429505 0.831499
vt 1.116476 0.829331
v 0.000009 5.933246 95.396866
vn -0.071076 0.344253 0.936183
vt 0.980851 0.985965
v 36.944180 5.933252 88.048225
vn 0.298822 0.338321 0.892325
vt 1.116476 0.985965
v 43.475544 63.873608 46.062588
vn 0.653898 0.519047 0.550461
vt 1.252101 0.610802
v 63.686832 28.108685 61.271465
vn 0.650526 0.459328 0.604842
vt 1.252101 0.829331
v 68.263939 5.933259 67.121048
vn 0.626692 0.314866 0.712823
vt 1.252101 0.985965
v -3.199267 118.106407 -1.142749
vn -0.031658 0.999468 0.007877
vt 1.252104 0.014844
v 25.365744 110.510201 3.874694
vn 0.532947 0.845956 0.018058
vt 1.387726 0.237727
v 43.997616 91.366585 7.549805
vn 0.696740 0.702809 0.143570
vt 1.387726 0.418799
v 52.060669 82.681122 8.291252
vn 0.746784 0.650450 0.138667
vt 1.387870 0.490689
v 58.587650 62.192364 24.404533
vn 0.780068 0.518306 0.350505
vt 1.387726 0.610802
v 79.562714 28.881714 32.635502
vn 0.816298 0.486280 0.311752
vt 1.387726 0.829331
v 89.191109 5.933262 35.801289
vn 0.841006 0.372431 0.392433
vt 1.387726 0.985965
v 67.701706 62.410503 -1.142920
vn 0.832105 0.554492 0.011823
vt 1.508703 0.615744
v 86.549049 28.863905 -1.142892
vn 0.896725 0.440358 0.044384
vt 1.511938 0.830091
v 96.539787 5.933262 -1.142907
vn 0.913697 0.401530 0.062709
vt 1.523351 0.985965
v -3.199267 118.106407 -1.142749
vn -0.031658 0.999468 0.007877
vt -0.646645 0.014844
v 25.365744 110.510201 3.874694
vn 0.532947 0.845956 0.018058
vt -0.646649 0.237727
v 19.745243 110.534691 -15.431841
vn 0.425157 0.837376 -0.343574
vt -0.511024 0.237727
v 43.997616 91.366585 7.549805
vn 0.696740 0.702809 0.143570
vt -0.649571 0.418352
v 37.103291 91.618027 -25.925926
vn 0.559134 0.740628 -0.372611
vt -0.443211 0.418799
v 52.060669 82.681122 8.291252
vn 0.746784 0.650450 0.138667
vt -0.646649 0.490800
v 44.643051 83.898262 -31.434036
vn 0.638076 0.651109 -0.410994
vt -0.443212 0.490800
v 67.701706 62.410503 -1.142920
vn 0.832105 0.554492 0.011823
vt -0.646649 0.610801
v 60.228535 62.485794 -26.690331
vn 0.754848 0.565630 -0.332065
vt -0.511024 0.610801
v 86.549049 28.863905 -1.142892
vn 0.896725 0.440358 0.044384
vt -0.646649 0.829331
v 82.466614 29.067797 -34.921299
vn 0.832450 0.437459 -0.340083
vt -0.511024 0.829331
v 96.539787 5.933262 -1.142907
vn 0.913697 0.401530 0.062709
vt -0.646649 0.985965
v 89.191116 5.933263 -38.087048
vn 0.899463 0.335848 -0.279592
vt -0.511024 0.985965
v 46.101440 63.296555 -48.348381
vn 0.588041 0.535814 -0.605897
vt -0.375399 0.610802
v 62.932751 28.548004 -63.557259
vn 0.631815 0.445042 -0.634624
vt -0.375399 0.829331
v 68.263947 5.933261 -69.406799
vn 0.709390 0.322270 -0.626824
vt -0.375399 0.985965
v -3.199267 118.106407 -1.142749
vn -0.031658 0.999468 0.007877
vt -0.375393 0.014844
v 19.745243 110.534691 -15.431841
vn 0.425157 0.837376 -0.343574
vt -0.375399 0.237727
v 7.431535 110.347473 -26.368067
vn 0.075274 0.837380 -0.541414
vt -0.171961 0.237727
v 11.310658 91.268250 -44.850658
vn 0.172261 0.749662 -0.639009
vt -0.171961 0.418799
v 10.609332 83.840752 -54.617832
vn 0.144641 0.676412 -0.722181
vt -0.171962 0.490800
v 24.699774 63.753334 -62.819855
vn 0.318621 0.547866 -0.773514
vt -0.239774 0.610802
v 34.425106 29.093388 -82.691208
vn 0.347232 0.436277 -0.830116
vt -0.239774 0.829331
v 36.944191 5.933255 -90.334015
vn 0.420611 0.328424 -0.845709
vt -0.239774 0.985965
v -2.238100 63.511539 -67.901543
vn -0.045061 0.533303 -0.844723
vt -0.104149 0.610802
v 1.780087 28.952196 -89.410179
vn -0.006854 0.439773 -0.898083
vt -0.104149 0.829331
v 0.000024 5.933249 -97.682671
vn 0.064681 0.335185 -0.939929
vt -0.104149 0.985965
v -3.199267 118.106407 -1.142749
vn -0.031658 0.999468 0.007877
vt -0.104142 0.014844
v -13.154787 110.207596 -22.527760
vn -0.348633 0.831120 -0.433238
vt 0.099289 0.237727
v -24.697258 91.944572 -38.205151
vn -0.331866 0.771234 -0.543197
vt 0.099288 0.418799
v -30.563150 84.375130 -46.476738
vn -0.402455 0.684867 -0.607443
vt 0.099288 0.490800
v -26.395130 63.201557 -62.819862
vn -0.328460 0.538680 -0.775846
vt 0.031476 0.610802
v -33.131710 27.758381 -82.691170
vn -0.346920 0.435376 -0.830719
vt 0.031476 0.829331
v -36.944164 5.933243 -90.333992
vn -0.300896 0.358810 -0.883582
vt 0.031475 0.985965
v -48.309563 62.784660 -48.348389
vn -0.623790 0.519756 -0.583729
vt 0.167101 0.610802
v -61.896023 28.977600 -63.557243
vn -0.636009 0.435989 -0.636715
vt 0.167101 0.829331
v -68.263931 5.933240 -69.406822
vn -0.612216 0.355867 -0.706081
vt 0.167101 0.985965
v -3.199267 118.106407 -1.142749
vn -0.031658 0.999468 0.007877
vt 0.167109 0.014844
v -25.423162 110.104652 -6.160482
vn -0.570381 0.812376 -0.121290
vt 0.370538 0.237727
v -43.710167 92.019150 -9.882293
vn -0.586295 0.794198 -0.159709
vt 0.370538 0.418799
v -54.950657 85.136703 -11.047478
vn -0.725932 0.668606 -0.161212
vt 0.370538 0.490800
v -63.125362 63.048870 -26.690300
vn -0.786194 0.531141 -0.315893
vt 0.302726 0.610802
v -80.630096 29.160191 -34.921299
vn -0.831952 0.419649 -0.362975
vt 0.302726 0.829331
v -89.191124 5.933237 -38.087032
vn -0.837026 0.360945 -0.411224
vt 0.302726 0.985965
v -65.815613 63.622253 -1.142892
vn -0.865030 0.501707 0.003604
vt 0.438350 0.610802
v -89.985382 28.411095 -1.142894
vn -0.910305 0.413743 -0.012722
vt 0.438350 0.829331
v -96.539764 5.933237 -1.142922
vn -0.947501 0.308650 -0.083527
vt 0.438350 0.985965
v -3.199267 118.106407 -1.142749
vn -0.031658 0.999468 0.007877
vt 0.438359 0.014844
v -26.322100 109.679680 8.892341
vn -0.518529 0.818700 0.246695
vt 0.573976 0.237727
v -40.059105 92.287949 16.165918
vn -0.607723 0.755096 0.245972
vt 0.573976 0.418799
v -52.439888 84.330582 20.130779
vn -0.622823 0.730081 0.281199
vt 0.573976 0.490800
v -64.766190 63.305984 24.404554
vn -0.816926 0.501213 0.285337
vt 0.573976 0.610802
v -83.533890 29.513140 32.635513
vn -0.833748 0.426622 0.350511
vt 0.573976 0.829331
v -89.191109 5.933236 35.801273
vn -0.914148 0.268121 0.304046
vt 0.573976 0.985965
v -3.199267 118.106407 -1.142749
vn -0.031658 0.999468 0.007877
vt 0.573984 0.014844
v -13.028847 110.694908 20.241974
vn -0.269245 0.835084 0.479731
vt 0.777413 0.237727
v -24.459135 91.955177 35.806030
vn -0.390363 0.732067 0.558296
vt 0.777413 0.418799
v -28.834877 84.089188 44.190968
vn -0.377398 0.664903 0.644574
vt 0.777413 0.490800
v -50.935398 63.472908 46.062614
vn -0.571211 0.520792 0.634424
vt 0.709601 0.610802
v -61.141792 27.606239 61.271477
vn -0.620999 0.425674 0.658151
vt 0.709601 0.829331
v -68.263916 5.933238 67.121048
vn -0.685820 0.349106 0.638573
vt 0.709601 0.985965
v -24.934492 63.020061 60.534054
vn -0.271155 0.537272 0.798633
vt 0.845226 0.610802
v -31.998812 28.755196 80.405403
vn -0.340744 0.428742 0.836704
vt 0.845226 0.829331
v -36.944176 5.933240 88.048225
vn -0.412045 0.370600 0.832391
vt 0.845226 0.985965
v -3.199267 118.106407 -1.142749
vn -0.031658 0.999468 0.007877
vt 0.845232 0.014844
f 108/108/108 94/94/94 109/109/109
f 110/110/110 109/109/109 94/94/94
f 92/92/92 93/93/93 94/94/94
f 96/96/96 94/94/94 93/93/93
f 94/94/94 96/96/96 110/110/110
f 111/111/111 110/110/110 96/96/96
f 182/182/182 173/173/173 93/93/93
f 95/95/95 93/93/93 173/173/173
f 93/93/93 95/95/95 96/96/96
f 98/98/98 96/96/96 95/95/95
f 96/96/96 98/98/98 111/111/111
f 112/112/112 111/111/111 98/98/98
f 111/111/111 112/112/112 115/115/115
f 116/116/116 115/115/115 112/112/112
f 98/98/98 105/105/105 112/112/112
f 113/113/113 112/112/112 105/105/105
f 112/112/112 113/113/113 116/116/116
f 117/117/117 116/116/116 113/113/113
f 172/172/172 166/166/166 173/173/173
f 174/174/174 173/173/173 166/166/166
f 173/173/173 174/174/174 95/95/95
f 97/97/97 95/95/95 174/174/174
f 95/95/95 97/97/97 98/98/98
f 100/100/100 98/98/98 97/97/97
f 98/98/98 100/100/100 105/105/105
f 106/106/106 105/105/105 100/100/100
f 105/105/105 106/106/106 113/113/113
f 114/114/114 113/113/113 106/106/106
f 113/113/113 114/114/114 117/117/117
f 165/165/165 156/156/156 166/166/166
f 167/167/167 166/166/166 156/156/156
f 166/166/166 167/167/167 174/174/174
f 175/175/175 174/174/174 167/167/167
f 174/174/174 175/175/175 97/97/97
f 99/99/99 97/97/97 175/175/175
f 97/97/97 99/99/99 100/100/100
f 102/102/102 100/100/100 99/99/99
f 100/100/100 102/102/102 106/106/106
f 107/107/107 106/106/106 102/102/102
f 106/106/106 107/107/107 114/114/114
f 175/175/175 179/179/179 99/99/99
f 101/101/101 99/99/99 179/179/179
f 99/99/99 101/101/101 102/102/102
f 104/104/104 102/102/102 101/101/101
f 102/102/102 104/104/104 107/107/107
f 155/155/155 146/146/146 156/156/156
f 157/157/157 156/156/156 146/146/146
f 156/156/156 157/157/157 167/167/167
f 168/168/168 167/167/167 157/157/157
f 167/167/167 168/168/168 175/175/175
f 176/176/176 175/175/175 168/168/168
f 175/175/175 176/176/176 179/179/179
f 180/180/180 179/179/179 176/176/176
f 179/179/179 180/180/180 101/101/101
f 103/103/103 101/101/101 180/180/180
f 101/101/101 103/103/103 104/104/104
f 145/145/145 136/136/136 146/146/146
f 147/147/147 146/146/146 136/136/136
f 146/146/146 147/147/147 157/157/157
f 158/158/158 157/157/157 147/147/147
f 157/157/157 158/158/158 168/168/168
f 169/169/169 168/168/168 158/158/158
f 168/168/168 169/169/169 176/176/176
f 177/177/177 176/176/176 169/169/169
f 176/176/176 177/177/177 180/180/180
f 181/181/181 180/180/180 177/177/177
f 180/180/180 181/181/181 103/103/103
f 158/158/158 162/162/162 169/169/169
f 170/170/170 169/169/169 162/162/162
f 169/169/169 170/170/170 177/177/177
f 178/178/178 177/177/177 170/170/170
f 177/177/177 178/178/178 181/181/181
f 134/134/134 135/135/135 136/136/136
f 137/137/137 136/136/136 135/135/135
f 136/136/136 137/137/137 147/147/147
f 148/148/148 147/147/147 137/137/137
f 147/147/147 148/148/148 158/158/158
f 159/159/159 158/158/158 148/148/148
f 158/158/158 159/159/159 162/162/162
f 163/163/163 162/162/162 159/159/159
f 162/162/162 163/163/163 170/170/170
f 171/171/171 170/170/170 163/163/163
f 170/170/170 171/171/171 178/178/178
f 148/148/148 152/152/152 159/159/159
f 160/160/160 159/159/159 152/152/152
f 159/159/159 160/160/160 163/163/163
f 164/164/164 163/163/163 160/160/160
f 163/163/163 164/164/164 171/171/171
f 135/135/135 122/122/122 137/137/137
f 138/138/138 137/137/137 122/122/122
f 137/137/137 138/138/138 148/148/148
f 149/149/149 148/148/148 138/138/138
f 148/148/148 149/149/149 152/152/152
f 153/153/153 152/152/152 149/149/149
f 152/152/152 153/153/153 160/160/160
f 161/161/161 160/160/160 153/153/153
f 160/160/160 161/161/161 164/164/164
f 122/122/122 124/124/124 138/138/138
f 153/153/153 154/154/154 161/161/161
f 154/154/154 153/153/153 150/150/150
f 149/149/149 150/150/150 153/153/153
f 150/150/150 149/149/149 142/142/142
f 138/138/138 142/142/142 149/149/149
f 142/142/142 138/138/138 139/139/139
f 124/124/124 139/139/139 138/138/138
f 139/139/139 124/124/124 131/131/131
f 126/126/126 131/131/131 124/124/124
f 131/131/131 126/126/126 132/132/132
f 128/128/128 132/132/132 126/126/126
f 132/132/132 128/128/128 133/133/133
f 130/130/130 133/133/133 128/128/128
f 140/140/140 131/131/131 132/132/132
f 131/131/131 140/140/140 139/139/139
f 143/143/143 139/139/139 140/140/140
f 139/139/139 143/143/143 142/142/142
f 150/150/150 142/142/142 143/143/143
f 141/141/141 132/132/132 133/133/133
f 132/132/132 141/141/141 140/140/140
f 144/144/144 140/140/140 141/141/141
f 140/140/140 144/144/144 143/143/143
f 151/151/151 143/143/143 144/144/144
f 143/143/143 151/151/151 150/150/150
f 154/154/154 150/150/150 151/151/151
f 129/129/129 130/130/130 127/127/127
f 128/128/128 127/127/127 130/130/130
f 127/127/127 128/128/128 125/125/125
f 126/126/126 125/125/125 128/128/128
f 125/125/125 126/126/126 123/123/123
f 124/124/124 123/123/123 126/126/126
f 123/123/123 124/124/124 121/121/121
f 122/122/122 121/121/121 124/124/124
f 121/121/121 122/122/122 119/119/119
f 120/120/120 119/119/119 122/122/122
f 119/119/119 120/120/120 118/118/118
