mtllib HTOWN01_MILLWHEELMOUNT01.mtl
g illWheelMount01
usemtl BoltPlate
v -2195.477539 -1956.849976 -7286.226563
vn 0.000000 0.000000 1.000000
vt 0.500000 0.500000
v -2231.594482 -1930.609619 -7286.226563
vn -0.619111 0.449811 0.643717
vt 0.783156 0.705725
v -2240.120361 -1956.849976 -7286.226563
vn -0.765264 0.000000 0.643717
vt 0.850000 0.500000
v -2209.272949 -1914.392090 -7286.226563
vn -0.236479 0.727809 0.643717
vt 0.608156 0.832870
v -2181.682129 -1914.392090 -7286.226563
vn 0.236480 0.727809 0.643717
vt 0.391844 0.832870
v -2159.360596 -1930.609619 -7286.226563
vn 0.619111 0.449811 0.643717
vt 0.216844 0.705725
v -2150.834717 -1956.849976 -7286.226563
vn 0.765264 0.000000 0.643717
vt 0.150000 0.500000
v -2159.360596 -1983.090332 -7286.226563
vn 0.619111 -0.449811 0.643717
vt 0.216844 0.294275
v -2181.682129 -1999.307861 -7286.226563
vn 0.236479 -0.727809 0.643717
vt 0.391844 0.167130
v -2209.272949 -1999.307861 -7286.226563
vn -0.236480 -0.727809 0.643717
vt 0.608156 0.167130
v -2231.594482 -1983.090332 -7286.226563
vn -0.619111 -0.449811 0.643717
vt 0.783156 0.294275
v -2240.120361 -1956.849976 -7286.226563
vn -0.765264 0.000000 0.643717
vt 3.325339 0.000500
v -2231.594482 -1930.609619 -7321.829590
vn -0.809017 0.587785 0.000000
vt 2.506163 0.999500
v -2240.120361 -1956.849976 -7321.829590
vn -1.000000 0.000000 0.000000
vt 3.325339 0.999500
v -2231.594482 -1930.609619 -7286.226563
vn -0.619111 0.449811 0.643717
vt 2.506163 0.000500
v -2231.594482 -1930.609619 -7286.226563
vn -0.619111 0.449811 0.643717
vt 3.506163 0.000500
v -2209.272949 -1914.392090 -7321.829590
vn -0.309017 0.951057 0.000000
vt 2.686648 0.999500
v -2231.594482 -1930.609619 -7321.829590
vn -0.809017 0.587785 0.000000
vt 3.506163 0.999500
v -2209.272949 -1914.392090 -7286.226563
vn -0.236479 0.727809 0.643717
vt 2.686648 0.000500
v -2181.682129 -1914.392090 -7286.226563
vn 0.236480 0.727809 0.643717
vt 1.871109 0.000500
v -2159.360596 -1930.609619 -7321.829590
vn 0.809017 0.587785 0.000000
vt 1.081709 0.999500
v -2181.682129 -1914.392090 -7321.829590
vn 0.309017 0.951056 0.000000
vt 1.871109 0.999500
v -2159.360596 -1930.609619 -7286.226563
vn 0.619111 0.449811 0.643717
vt 1.081709 0.000500
v -2150.834717 -1956.849976 -7321.829590
vn 1.000000 0.000000 0.000000
vt 0.325339 0.999500
v -2150.834717 -1956.849976 -7286.226563
vn 0.765264 0.000000 0.643717
vt 0.325339 0.000500
v -2159.360596 -1983.090332 -7321.829590
vn 0.809017 -0.587785 0.000000
vt -0.421019 0.999500
v -2159.360596 -1983.090332 -7286.226563
vn 0.619111 -0.449811 0.643717
vt -0.421019 0.000500
v -2159.360596 -1983.090332 -7286.226563
vn 0.619111 -0.449811 0.643717
vt 3.578981 0.000500
v -2181.682129 -1999.307861 -7321.829590
vn 0.309017 -0.951057 0.000000
vt 2.807720 0.999500
v -2159.360596 -1983.090332 -7321.829590
vn 0.809017 -0.587785 0.000000
vt 3.578981 0.999500
v -2181.682129 -1999.307861 -7286.226563
vn 0.236479 -0.727809 0.643717
vt 2.807720 0.000500
v -2181.682129 -1999.307861 -7286.226563
vn 0.236479 -0.727809 0.643717
vt 3.807720 0.000500
v -2209.272949 -1999.307861 -7321.829590
vn -0.309017 -0.951056 0.000000
vt 2.994028 0.999500
v -2181.682129 -1999.307861 -7321.829590
vn 0.309017 -0.951057 0.000000
vt 3.807720 0.999500
v -2209.272949 -1999.307861 -7286.226563
vn -0.236480 -0.727809 0.643717
vt 2.994028 0.000500
v -2209.272949 -1999.307861 -7286.226563
vn -0.236480 -0.727809 0.643717
vt 3.994028 0.000500
v -2231.594482 -1983.090332 -7321.829590
vn -0.809017 -0.587785 0.000000
vt 3.156294 0.999500
v -2209.272949 -1999.307861 -7321.829590
vn -0.309017 -0.951056 0.000000
vt 3.994028 0.999500
v -2231.594482 -1983.090332 -7286.226563
vn -0.619111 -0.449811 0.643717
vt 3.156294 0.000500
v -2240.120361 -1956.849976 -7321.829590
vn -1.000000 0.000000 0.000000
vt 2.325339 0.999500
v -2240.120361 -1956.849976 -7286.226563
vn -0.765264 0.000000 0.643717
vt 2.325339 0.000500
f 13/13/13 12/12/12 15/15/15
f 12/12/12 13/13/13 14/14/14
f 27/27/27 26/26/26 25/25/25
f 24/24/24 25/25/25 26/26/26
f 25/25/25 24/24/24 23/23/23
f 21/21/21 23/23/23 24/24/24
f 23/23/23 21/21/21 20/20/20
f 22/22/22 20/20/20 21/21/21
f 20/20/20 22/22/22 19/19/19
f 17/17/17 19/19/19 22/22/22
f 19/19/19 17/17/17 16/16/16
f 18/18/18 16/16/16 17/17/17
f 8/8/8 7/7/7 1/1/1
f 6/6/6 1/1/1 7/7/7
f 1/1/1 6/6/6 5/5/5
f 1/1/1 9/9/9 8/8/8
f 9/9/9 1/1/1 10/10/10
f 4/4/4 1/1/1 5/5/5
f 1/1/1 4/4/4 2/2/2
f 1/1/1 11/11/11 10/10/10
f 11/11/11 1/1/1 3/3/3
f 2/2/2 3/3/3 1/1/1
f 41/41/41 40/40/40 39/39/39
f 37/37/37 39/39/39 40/40/40
f 39/39/39 37/37/37 36/36/36
f 38/38/38 36/36/36 37/37/37
f 29/29/29 28/28/28 31/31/31
f 28/28/28 29/29/29 30/30/30
f 33/33/33 32/32/32 35/35/35
f 32/32/32 33/33/33 34/34/34
