mtllib HTOWN01_TREESHADOWS23.mtl
g TreeShadows23
usemtl treeshade
v -7269.924316 -2117.388672 -10180.027344
vn -0.014627 0.985067 0.171547
vt 2.224972 -1.812389
v -7262.686523 -2076.925293 -10410.365234
vn -0.000471 0.964393 0.264471
vt 2.214764 -1.411795
v -7887.028320 -2078.334961 -10237.915039
vn 0.156971 0.945521 0.285221
vt 3.095272 -1.711713
v -7839.552734 -2123.409180 -10037.035156
vn 0.081738 0.976426 0.199776
vt 3.028316 -2.061075
v -7163.583008 -1986.396729 -10676.269531
vn -0.011832 0.937207 0.348572
vt 2.074999 -0.949346
v -7975.567383 -1996.725952 -10399.550781
vn 0.180607 0.914465 0.362125
vt 3.220139 -1.430603
v -7385.917969 -1852.631348 -10952.112305
vn 0.041367 0.951251 0.305630
vt 2.388557 -0.469611
v -8139.201172 -1872.015503 -10633.512695
vn 0.140921 0.951840 0.272289
vt 3.450911 -1.023706
v -7567.263672 -1788.178223 -11214.116211
vn -0.031910 0.999385 -0.014547
vt 2.644310 -0.013944
v -8331.620117 -1796.969604 -10895.850586
vn -0.009178 0.999909 -0.009939
vt 3.722279 -0.567459
v -7740.105469 -1855.087769 -11453.962891
vn -0.096891 0.947708 -0.304076
vt 2.888067 0.403187
v -8505.785156 -1864.691040 -11141.394531
vn -0.160396 0.955833 -0.246285
vt 3.967903 -0.140419
v -5895.444336 -1724.141968 -10882.462891
vn -0.170984 0.967029 0.188729
vt 2.286545 -0.590743
v -6491.988770 -1849.939697 -10827.157227
vn -0.154144 0.950434 0.270026
vt 3.127851 -0.686928
v -6289.515137 -1886.418579 -10550.289063
vn -0.187527 0.951541 0.243727
vt 2.842302 -1.168446
v -6289.515137 -1886.418579 -10550.289063
vn -0.187527 0.951541 0.243727
vt 3.842302 -1.168446
v -5844.354492 -1761.106323 -10647.922852
vn -0.224788 0.953810 0.199290
vt 3.214493 -0.998645
v -5895.444336 -1724.141968 -10882.462891
vn -0.170984 0.967029 0.188729
vt 3.286545 -0.590743
v -7163.583008 -1986.396729 -10676.269531
vn -0.011832 0.937207 0.348572
vt 3.074999 -0.949346
v -6660.155273 -2002.967896 -10412.903320
vn -0.172672 0.943828 0.281731
vt 2.365015 -1.407381
v -6289.515137 -1886.418579 -10550.289063
vn -0.187527 0.951541 0.243727
vt 1.842302 -1.168446
v -6491.988770 -1849.939697 -10827.157227
vn -0.154144 0.950434 0.270026
vt 2.127851 -0.686928
v -6345.745605 -2008.562134 -10071.047852
vn -0.210964 0.955558 0.205919
vt 3.921606 -2.001922
v -6104.752441 -1912.698120 -10256.771484
vn -0.210952 0.952854 0.218101
vt 3.581734 -1.678919
v -6660.155273 -2002.967896 -10412.903320
vn -0.172672 0.943828 0.281731
vt 3.365015 -1.407381
v -6345.745605 -2008.562134 -10071.047852
vn -0.210964 0.955558 0.205919
vt 2.921606 -2.001922
v -6807.657715 -2076.712158 -10226.362305
vn -0.132413 0.967721 0.214437
vt 3.573038 -1.731806
v -6467.570313 -2076.180176 -9861.276367
vn -0.205551 0.960010 0.190078
vt 3.093414 -2.366748
v -7262.686523 -2076.925293 -10410.365234
vn -0.000471 0.964393 0.264471
vt 3.214764 -1.411795
v -6807.657715 -2076.712158 -10226.362305
vn -0.132413 0.967721 0.214437
vt 2.573038 -1.731806
v -7269.924316 -2117.388672 -10180.027344
vn -0.014627 0.985067 0.171547
vt 3.224972 -1.812389
v -6861.585938 -2115.462402 -9983.299805
vn -0.072716 0.987297 0.141266
vt 2.649094 -2.154530
v -5966.394043 -1706.624878 -11153.215820
vn -0.114221 0.992110 0.051694
vt 2.386604 -0.119861
v -6651.779785 -1788.039307 -11105.119141
vn -0.077766 0.975521 0.205699
vt 3.353203 -0.203508
v -6083.612793 -1722.766113 -11410.932617
vn -0.090641 0.993915 -0.062589
vt 2.551920 0.328349
v -6800.762207 -1760.234009 -11365.338867
vn -0.049489 0.996635 -0.065344
vt 3.563314 0.249056
v -7567.263672 -1788.178223 -11214.116211
vn -0.031910 0.999385 -0.014547
vt 3.644310 -0.013944
v -7385.917969 -1852.631348 -10952.112305
vn 0.041367 0.951251 0.305630
vt 3.388557 -0.469611
v -6651.779785 -1788.039307 -11105.119141
vn -0.077766 0.975521 0.205699
vt 2.353203 -0.203508
v -6800.762207 -1760.234009 -11365.338867
vn -0.049489 0.996635 -0.065344
vt 2.563314 0.249056
v -6970.355469 -1826.255127 -11587.518555
vn -0.078803 0.938377 -0.336510
vt 2.802490 0.635461
v -7740.105469 -1855.087769 -11453.962891
vn -0.096891 0.947708 -0.304076
vt 3.888067 0.403187
v -6273.368652 -1786.688110 -11605.938477
vn -0.062031 0.949496 -0.307587
vt 2.819530 0.667496
v -6970.355469 -1826.255127 -11587.518555
vn -0.078803 0.938377 -0.336510
vt 3.802490 0.635461
v -6381.155762 -1863.556030 -11754.316406
vn -0.063312 0.902730 -0.425523
vt 1.971542 0.925549
v -7150.147949 -1938.861084 -11789.656250
vn -0.102122 0.904873 -0.413250
vt 3.056051 0.987011
v -6381.155762 -1863.556030 -11754.316406
vn -0.063312 0.902730 -0.425523
vt 2.971542 0.925549
v -7908.396973 -1987.300781 -11681.624023
vn -0.110811 0.896319 -0.429340
vt 3.125408 0.799126
v -6970.355469 -1826.255127 -11587.518555
vn -0.078803 0.938377 -0.336510
vt 1.802490 0.635461
v -7150.147949 -1938.861084 -11789.656250
vn -0.102122 0.904873 -0.413250
vt 2.056051 0.987011
f 16/16/16 17/17/17 18/18/18
f 23/23/23 24/24/24 16/16/16
f 1/1/1 3/3/3 4/4/4
f 3/3/3 1/1/1 2/2/2
f 3/3/3 5/5/5 6/6/6
f 5/5/5 3/3/3 2/2/2
f 8/8/8 5/5/5 7/7/7
f 5/5/5 8/8/8 6/6/6
f 8/8/8 9/9/9 10/10/10
f 9/9/9 8/8/8 7/7/7
f 12/12/12 9/9/9 11/11/11
f 9/9/9 12/12/12 10/10/10
f 49/49/49 48/48/48 11/11/11
f 48/48/48 49/49/49 50/50/50
f 37/37/37 41/41/41 42/42/42
f 41/41/41 37/37/37 40/40/40
f 39/39/39 37/37/37 38/38/38
f 37/37/37 39/39/39 40/40/40
f 39/39/39 19/19/19 22/22/22
f 19/19/19 39/39/39 38/38/38
f 21/21/21 22/22/22 19/19/19
f 30/30/30 29/29/29 31/31/31
f 29/29/29 30/30/30 19/19/19
f 20/20/20 19/19/19 30/30/30
f 19/19/19 20/20/20 21/21/21
f 31/31/31 32/32/32 30/30/30
f 45/45/45 46/46/46 41/41/41
f 34/34/34 33/33/33 35/35/35
f 33/33/33 34/34/34 13/13/13
f 14/14/14 13/13/13 34/34/34
f 13/13/13 14/14/14 15/15/15
f 44/44/44 43/43/43 47/47/47
f 43/43/43 44/44/44 35/35/35
f 36/36/36 35/35/35 44/44/44
f 35/35/35 36/36/36 34/34/34
f 15/15/15 25/25/25 26/26/26
f 27/27/27 26/26/26 25/25/25
f 26/26/26 27/27/27 28/28/28
