mtllib HTOWN01_PS10.mtl
g PS10
usemtl Grass/sand
v -6190.062012 -621.953796 855.975525
vn -0.195741 0.941854 -0.273125
vt 3.988533 -2.853283
v -5707.805664 -414.435791 942.040100
vn -0.350889 0.935737 -0.035695
vt 1.998655 -3.402866
v -5571.880859 -378.397461 730.734436
vn -0.319209 0.896810 -0.306330
vt 1.536392 -2.447535
v -5571.880859 -378.397461 730.734436
vn -0.319209 0.896810 -0.306330
vt 1.536392 -3.447535
v -5696.003418 -501.704041 616.770142
vn -0.356263 0.761873 -0.540950
vt 2.108509 -2.823914
v -6190.062012 -621.953796 855.975525
vn -0.195741 0.941854 -0.273125
vt 3.988533 -3.853283
v -5271.369629 -274.172943 974.975525
vn -0.104423 0.994056 -0.030802
vt 2.231846 -3.636948
v -5249.753906 -286.547852 721.003967
vn -0.024871 0.942945 -0.332019
vt 2.260815 -2.461639
v -5571.880859 -378.397461 730.734436
vn -0.319209 0.896810 -0.306330
vt 3.536392 -2.447535
v -5707.805664 -414.435791 942.040100
vn -0.350889 0.935737 -0.035695
vt 3.998655 -3.402866
v -5252.640625 -391.191345 559.910767
vn -0.014993 0.782587 -0.622361
vt 1.392572 -2.616415
v -5696.003418 -501.704041 616.770142
vn -0.356263 0.761873 -0.540950
vt 3.108509 -2.823914
v -5571.880859 -378.397461 730.734436
vn -0.319209 0.896810 -0.306330
vt 2.536392 -3.447535
v -5571.880859 -378.397461 730.734436
vn -0.319209 0.896810 -0.306330
vt 3.536392 -3.447535
v -5249.753906 -286.547852 721.003967
vn -0.024871 0.942945 -0.332019
vt 2.260815 -3.461639
v -5252.640625 -391.191345 559.910767
vn -0.014993 0.782587 -0.622361
vt 2.392572 -2.616415
v -6293.754883 -660.120850 1577.614868
vn -0.195342 0.941718 0.273879
vt 3.396339 -3.289288
v -5797.274902 -496.821838 1609.816040
vn -0.329342 0.913909 0.237285
vt 1.422663 -3.462471
v -5771.142578 -436.427521 1249.838867
vn -0.334451 0.941177 0.048262
vt 1.268890 -1.800568
v -6279.734863 -601.996765 1217.018066
vn -0.137282 0.989837 0.037100
vt 3.328327 -1.570248
v -5355.789063 -343.436829 1655.625488
vn -0.146434 0.946831 0.286475
vt 1.670412 -3.695183
v -5310.788086 -275.123322 1294.389038
vn -0.147175 0.986644 0.069812
vt 1.416838 -2.063324
v -5771.142578 -436.427521 1249.838867
vn -0.334451 0.941177 0.048262
vt 3.268890 -1.800568
v -5797.274902 -496.821838 1609.816040
vn -0.329342 0.913909 0.237285
vt 3.422663 -3.462471
v -5271.369629 -274.172943 974.975525
vn -0.104423 0.994056 -0.030802
vt 1.231846 -2.636948
v -5707.805664 -414.435791 942.040100
vn -0.350889 0.935737 -0.035695
vt 2.998655 -2.402866
v -5771.142578 -436.427521 1249.838867
vn -0.334451 0.941177 0.048262
vt 3.268890 -3.800568
v -5771.142578 -436.427521 1249.838867
vn -0.334451 0.941177 0.048262
vt 3.268890 -2.800568
v -5310.788086 -275.123322 1294.389038
vn -0.147175 0.986644 0.069812
vt 1.416838 -3.063324
v -5271.369629 -274.172943 974.975525
vn -0.104423 0.994056 -0.030802
vt 1.231846 -1.636948
v -6190.062012 -621.953796 855.975525
vn -0.195741 0.941854 -0.273125
vt 2.988533 -1.853283
v -6279.734863 -601.996765 1217.018066
vn -0.137282 0.989837 0.037100
vt 3.328327 -3.570248
v -5771.142578 -436.427521 1249.838867
vn -0.334451 0.941177 0.048262
vt 1.268890 -3.800568
v -5771.142578 -436.427521 1249.838867
vn -0.334451 0.941177 0.048262
vt 2.268890 -3.800568
v -5707.805664 -414.435791 942.040100
vn -0.350889 0.935737 -0.035695
vt 1.998655 -2.402866
v -6190.062012 -621.953796 855.975525
vn -0.195741 0.941854 -0.273125
vt 3.988533 -1.853283
v -6190.062012 -621.953796 855.975525
vn -0.195741 0.941854 -0.273125
vt 0.988533 -3.853283
v -6246.705566 -758.534790 600.233826
vn -0.146414 0.855517 -0.496643
vt 1.229156 -2.596619
v -6766.740234 -768.731262 579.348145
vn 0.048772 0.796989 -0.602022
vt 3.268795 -2.474340
v -6807.923828 -616.760193 815.879395
vn 0.065530 0.948166 -0.310945
vt 3.431465 -3.613777
v -6273.511230 -914.255554 378.311737
vn -0.170308 0.837659 -0.518963
vt 1.324207 -2.511307
v -6750.169922 -961.651550 367.231598
vn -0.022395 0.801108 -0.598101
vt 3.203346 -2.452515
v -6766.740234 -768.731262 579.348145
vn 0.048772 0.796989 -0.602022
vt 3.268795 -3.474340
v -6246.705566 -758.534790 600.233826
vn -0.146414 0.855517 -0.496643
vt 1.229156 -3.596619
v -7230.019043 -995.975647 300.321411
vn 0.026506 0.738345 -0.673902
vt 3.132874 -2.104733
v -7289.265625 -772.118896 482.660248
vn 0.059732 0.721378 -0.689961
vt 3.411240 -3.037643
v -6766.740234 -768.731262 579.348145
vn 0.048772 0.796989 -0.602022
vt 1.268795 -3.474340
v -6750.169922 -961.651550 367.231598
vn -0.022395 0.801108 -0.598101
vt 1.203346 -2.452515
v -7370.957031 -591.434204 709.482361
vn -0.029403 0.939036 -0.342559
vt 3.772446 -3.177580
v -6807.923828 -616.760193 815.879395
vn 0.065530 0.948166 -0.310945
vt 1.431465 -3.613777
v -6766.740234 -768.731262 579.348145
vn 0.048772 0.796989 -0.602022
vt 1.268795 -2.474340
v -7289.265625 -772.118896 482.660248
vn 0.059732 0.721378 -0.689961
vt 3.411240 -2.037643
v -5252.640625 -391.191345 559.910767
vn -0.014993 0.782587 -0.622361
vt 1.392572 -3.616415
v -5254.588867 -549.105408 390.809204
vn -0.060070 0.789172 -0.611228
vt 1.382612 -2.684044
v -5736.410645 -656.105957 453.211761
vn -0.309976 0.766404 -0.562619
vt 3.256870 -2.953363
v -5696.003418 -501.704041 616.770142
vn -0.356263 0.761873 -0.540950
vt 3.108509 -3.823914
v -5265.964355 -735.084839 108.193687
vn -0.144811 0.930996 -0.335075
vt 1.350512 -2.210630
v -5800.236328 -818.914185 265.305389
vn -0.278048 0.823418 -0.494643
vt 3.465647 -2.983175
v -5736.410645 -656.105957 453.211761
vn -0.309976 0.766404 -0.562619
vt 3.256870 -3.953363
v -5254.588867 -549.105408 390.809204
vn -0.060070 0.789172 -0.611228
vt 1.382612 -3.684044
v -6273.511230 -914.255554 378.311737
vn -0.170308 0.837659 -0.518963
vt 3.324207 -2.511307
v -6246.705566 -758.534790 600.233826
vn -0.146414 0.855517 -0.496643
vt 3.229156 -3.596619
v -5736.410645 -656.105957 453.211761
vn -0.309976 0.766404 -0.562619
vt 1.256870 -2.953363
v -5736.410645 -656.105957 453.211761
vn -0.309976 0.766404 -0.562619
vt 1.256870 -3.953363
v -5800.236328 -818.914185 265.305389
vn -0.278048 0.823418 -0.494643
vt 1.465647 -2.983175
v -6273.511230 -914.255554 378.311737
vn -0.170308 0.837659 -0.518963
vt 3.324207 -3.511307
v -5736.410645 -656.105957 453.211761
vn -0.309976 0.766404 -0.562619
vt 2.256870 -1.953363
v -5736.410645 -656.105957 453.211761
vn -0.309976 0.766404 -0.562619
vt 1.256870 -1.953363
v -6246.705566 -758.534790 600.233826
vn -0.146414 0.855517 -0.496643
vt 3.229156 -2.596619
v -6190.062012 -621.953796 855.975525
vn -0.195741 0.941854 -0.273125
vt 2.988533 -3.853283
v -6190.062012 -621.953796 855.975525
vn -0.195741 0.941854 -0.273125
vt 0.988533 -1.853283
v -6807.923828 -616.760193 815.879395
vn 0.065530 0.948166 -0.310945
vt 3.431465 -1.613777
v -6837.763672 -585.601440 1140.430420
vn -0.006165 0.996916 0.078235
vt 3.549332 -3.177235
v -6279.734863 -601.996765 1217.018066
vn -0.137282 0.989837 0.037100
vt 1.328327 -3.570248
v -7370.957031 -591.434204 709.482361
vn -0.029403 0.939036 -0.342559
vt 2.772446 -1.177580
v -7454.758789 -574.487000 1031.947754
vn -0.139717 0.984673 0.104396
vt 3.108555 -2.709904
v -6837.763672 -585.601440 1140.430420
vn -0.006165 0.996916 0.078235
vt 0.549332 -3.177235
v -6837.763672 -585.601440 1140.430420
vn -0.006165 0.996916 0.078235
vt 1.549332 -3.177235
v -6807.923828 -616.760193 815.879395
vn 0.065530 0.948166 -0.310945
vt 1.431465 -1.613777
v -7370.957031 -591.434204 709.482361
vn -0.029403 0.939036 -0.342559
vt 3.772446 -1.177580
v -7518.974609 -698.104126 1399.443481
vn -0.199800 0.898348 0.391217
vt 3.339653 -3.438789
v -6856.500977 -670.459473 1507.503418
vn -0.078575 0.933304 0.350386
vt 0.623344 -3.945530
v -6837.763672 -585.601440 1140.430420
vn -0.006165 0.996916 0.078235
vt 0.549332 -2.177235
v -7454.758789 -574.487000 1031.947754
vn -0.139717 0.984673 0.104396
vt 3.108555 -1.709904
v -6293.754883 -660.120850 1577.614868
vn -0.195342 0.941718 0.273879
vt 1.396339 -3.289288
v -6279.734863 -601.996765 1217.018066
vn -0.137282 0.989837 0.037100
vt 1.328327 -1.570248
v -6837.763672 -585.601440 1140.430420
vn -0.006165 0.996916 0.078235
vt 3.549332 -1.177235
v -6856.500977 -670.459473 1507.503418
vn -0.078575 0.933304 0.350386
vt 3.623344 -2.945530
v -8061.096680 -1057.236572 96.788147
vn 0.540844 0.777448 -0.321035
vt 2.758015 -1.989748
v -8178.441406 -892.939392 228.402206
vn 0.452186 0.860805 -0.233545
vt 3.551624 -2.943693
v -7807.030273 -854.121094 402.275635
vn 0.081216 0.754252 -0.651542
vt 1.691944 -3.737663
v -7807.030273 -854.121094 402.275635
vn 0.081216 0.754252 -0.651542
vt 2.691944 -3.737663
v -7712.868164 -1052.102051 245.837601
vn 0.113247 0.763674 -0.635592
vt 2.142593 -2.765930
v -8061.096680 -1057.236572 96.788147
vn 0.540844 0.777448 -0.321035
vt 3.758015 -1.989748
v -8364.978516 -803.110168 384.766632
vn -0.029314 0.999161 0.028582
vt 3.547268 -2.977613
v -7940.913086 -710.789368 598.595825
vn -0.105659 0.955151 -0.276626
vt 1.374920 -3.872444
v -7807.030273 -854.121094 402.275635
vn 0.081216 0.754252 -0.651542
vt 0.691944 -2.737663
v -7807.030273 -854.121094 402.275635
vn 0.081216 0.754252 -0.651542
vt 0.691944 -3.737663
v -8178.441406 -892.939392 228.402206
vn 0.452186 0.860805 -0.233545
vt 2.551624 -2.943693
v -8364.978516 -803.110168 384.766632
vn -0.029314 0.999161 0.028582
vt 3.547268 -3.977613
v -7370.957031 -591.434204 709.482361
vn -0.029403 0.939036 -0.342559
vt 1.772446 -3.177580
v -7289.265625 -772.118896 482.660248
vn 0.059732 0.721378 -0.689961
vt 1.411240 -2.037643
v -7807.030273 -854.121094 402.275635
vn 0.081216 0.754252 -0.651542
vt 3.691944 -1.737663
v -7807.030273 -854.121094 402.275635
vn 0.081216 0.754252 -0.651542
vt 2.691944 -1.737663
v -7940.913086 -710.789368 598.595825
vn -0.105659 0.955151 -0.276626
vt 3.374920 -2.872444
v -7370.957031 -591.434204 709.482361
vn -0.029403 0.939036 -0.342559
vt 0.772446 -3.177580
v -7230.019043 -995.975647 300.321411
vn 0.026506 0.738345 -0.673902
vt 1.132874 -3.104733
v -7712.868164 -1052.102051 245.837601
vn 0.113247 0.763674 -0.635592
vt 3.142593 -2.765930
v -7807.030273 -854.121094 402.275635
vn 0.081216 0.754252 -0.651542
vt 3.691944 -3.737663
v -7807.030273 -854.121094 402.275635
vn 0.081216 0.754252 -0.651542
vt 3.691944 -2.737663
v -7289.265625 -772.118896 482.660248
vn 0.059732 0.721378 -0.689961
vt 1.411240 -3.037643
v -7230.019043 -995.975647 300.321411
vn 0.026506 0.738345 -0.673902
vt 1.132874 -2.104733
v -8364.978516 -803.110168 384.766632
vn -0.029314 0.999161 0.028582
vt 2.547268 -0.977613
v -8692.866211 -916.466614 644.999512
vn -0.296778 0.933765 0.200016
vt 3.845310 -2.113434
v -8140.250000 -755.898743 903.441650
vn -0.285063 0.949373 0.132022
vt 1.182636 -3.256626
v -8140.250000 -755.898743 903.441650
vn -0.285063 0.949373 0.132022
vt 2.182636 -3.256626
v -7940.913086 -710.789368 598.595825
vn -0.105659 0.955151 -0.276626
vt 1.374920 -1.872444
v -8364.978516 -803.110168 384.766632
vn -0.029314 0.999161 0.028582
vt 3.547268 -0.977613
v -9318.980469 -1238.199463 985.449036
vn -0.322689 0.911123 0.256374
vt 3.193317 -2.436466
v -8314.631836 -913.321045 1253.394897
vn -0.338528 0.877667 0.339263
vt -1.218739 -3.776672
v -8140.250000 -755.898743 903.441650
vn -0.285063 0.949373 0.132022
vt -1.817364 -2.256626
v -8140.250000 -755.898743 903.441650
vn -0.285063 0.949373 0.132022
vt -1.817364 -3.256626
v -8692.866211 -916.466614 644.999512
vn -0.296778 0.933765 0.200016
vt 0.845310 -2.113434
v -9318.980469 -1238.199463 985.449036
vn -0.322689 0.911123 0.256374
vt 3.193317 -3.436466
v -7518.974609 -698.104126 1399.443481
vn -0.199800 0.898348 0.391217
vt 0.339653 -3.438789
v -7454.758789 -574.487000 1031.947754
vn -0.139717 0.984673 0.104396
vt 0.108555 -1.709904
v -8140.250000 -755.898743 903.441650
vn -0.285063 0.949373 0.132022
vt 3.182636 -1.256626
v -8314.631836 -913.321045 1253.394897
vn -0.338528 0.877667 0.339263
vt 3.781261 -2.776672
v -7370.957031 -591.434204 709.482361
vn -0.029403 0.939036 -0.342559
vt -0.227554 -2.177580
v -7940.913086 -710.789368 598.595825
vn -0.105659 0.955151 -0.276626
vt 2.374920 -1.872444
v -8140.250000 -755.898743 903.441650
vn -0.285063 0.949373 0.132022
vt 3.182636 -3.256626
v -7454.758789 -574.487000 1031.947754
vn -0.139717 0.984673 0.104396
vt 0.108555 -3.709904
v -9318.980469 -1238.199463 985.449036
vn -0.322689 0.911123 0.256374
vt 3.193317 -0.436466
v -9282.513672 -1322.363403 1375.680054
vn -0.271582 0.938492 0.213250
vt 2.647919 -2.310497
v -8373.652344 -1106.927856 1585.037231
vn -0.280147 0.836387 0.471142
vt -1.163029 -3.319027
v -8314.631836 -913.321045 1253.394897
vn -0.338528 0.877667 0.339263
vt -1.218739 -1.776672
v -9282.513672 -1378.047119 1644.957397
vn -0.258380 0.926567 0.273337
vt 3.205833 -2.607674
v -8374.992188 -1318.626831 1907.524048
vn -0.212549 0.817272 0.535621
vt -0.378777 -3.872536
v -8373.652344 -1106.927856 1585.037231
vn -0.280147 0.836387 0.471142
vt -0.163029 -2.319027
v -8373.652344 -1106.927856 1585.037231
vn -0.280147 0.836387 0.471142
vt -0.163029 -3.319027
v -9282.513672 -1322.363403 1375.680054
vn -0.271582 0.938492 0.213250
vt 3.647919 -2.310497
v -9282.513672 -1378.047119 1644.957397
vn -0.258380 0.926567 0.273337
vt 3.205833 -3.607674
v -7544.188477 -1238.817383 2120.478760
vn -0.231078 0.767031 0.598554
vt 0.339634 -3.898403
v -7541.903320 -939.112854 1761.356812
vn -0.228938 0.784019 0.576977
vt 0.385868 -2.168411
v -8373.652344 -1106.927856 1585.037231
vn -0.280147 0.836387 0.471142
vt 3.836971 -1.319027
v -8374.992188 -1318.626831 1907.524048
vn -0.212549 0.817272 0.535621
vt 3.621223 -2.872536
v -7518.974609 -698.104126 1399.443481
vn -0.199800 0.898348 0.391217
vt 0.339653 -2.438789
v -8314.631836 -913.321045 1253.394897
vn -0.338528 0.877667 0.339263
vt 3.781261 -1.776672
v -8373.652344 -1106.927856 1585.037231
vn -0.280147 0.836387 0.471142
vt 3.836971 -3.319027
v -8373.652344 -1106.927856 1585.037231
vn -0.280147 0.836387 0.471142
vt 3.836971 -2.319027
v -7541.903320 -939.112854 1761.356812
vn -0.228938 0.784019 0.576977
vt 0.385868 -3.168411
v -7518.974609 -698.104126 1399.443481
vn -0.199800 0.898348 0.391217
vt 0.339653 -1.438789
v -7518.974609 -698.104126 1399.443481
vn -0.199800 0.898348 0.391217
vt 3.339653 -1.438789
v -7541.903320 -939.112854 1761.356812
vn -0.228938 0.784019 0.576977
vt 3.385868 -3.168411
v -6864.375977 -866.539001 1871.600586
vn -0.170246 0.845491 0.506124
vt 0.654449 -3.699486
v -6856.500977 -670.459473 1507.503418
vn -0.078575 0.933304 0.350386
vt 0.623344 -1.945530
v -7544.188477 -1238.817383 2120.478760
vn -0.231078 0.767031 0.598554
vt 3.339634 -2.898403
v -6866.819336 -1118.229248 2234.209717
vn -0.246824 0.796861 0.551445
vt 0.664104 -3.446278
v -6864.375977 -866.539001 1871.600586
vn -0.170246 0.845491 0.506124
vt 0.654449 -1.699486
v -6864.375977 -866.539001 1871.600586
vn -0.170246 0.845491 0.506124
vt 0.654449 -2.699486
v -7541.903320 -939.112854 1761.356812
vn -0.228938 0.784019 0.576977
vt 3.385868 -2.168411
v -7544.188477 -1238.817383 2120.478760
vn -0.231078 0.767031 0.598554
vt 3.339634 -3.898403
v -6311.035156 -979.368164 2295.074463
vn -0.249698 0.852717 0.458829
vt 1.468811 -3.739491
v -6303.470703 -799.444580 1936.717896
vn -0.231477 0.890633 0.391396
vt 1.438934 -2.013180
v -6864.375977 -866.539001 1871.600586
vn -0.170246 0.845491 0.506124
vt 3.654449 -1.699486
v -6866.819336 -1118.229248 2234.209717
vn -0.246824 0.796861 0.551445
vt 3.664104 -3.446278
v -6293.754883 -660.120850 1577.614868
vn -0.195342 0.941718 0.273879
vt 1.396339 -2.289288
v -6856.500977 -670.459473 1507.503418
vn -0.078575 0.933304 0.350386
vt 3.623344 -1.945530
v -6864.375977 -866.539001 1871.600586
vn -0.170246 0.845491 0.506124
vt 3.654449 -3.699486
v -6864.375977 -866.539001 1871.600586
vn -0.170246 0.845491 0.506124
vt 3.654449 -2.699486
v -6303.470703 -799.444580 1936.717896
vn -0.231477 0.890633 0.391396
vt 1.438934 -3.013180
v -6293.754883 -660.120850 1577.614868
vn -0.195342 0.941718 0.273879
vt 1.396339 -1.289288
v -6293.754883 -660.120850 1577.614868
vn -0.195342 0.941718 0.273879
vt 3.396339 -1.289288
v -6303.470703 -799.444580 1936.717896
vn -0.231477 0.890633 0.391396
vt 3.438934 -3.013180
v -5821.585449 -648.067810 1977.657227
vn -0.294300 0.866218 0.403800
vt 1.535534 -3.210400
v -5797.274902 -496.821838 1609.816040
vn -0.329342 0.913909 0.237285
vt 1.422663 -1.462471
v -6311.035156 -979.368164 2295.074463
vn -0.249698 0.852717 0.458829
vt 3.468811 -2.739491
v -5844.985352 -844.739685 2349.430420
vn -0.253068 0.861654 0.439896
vt 1.627964 -3.001328
v -5821.585449 -648.067810 1977.657227
vn -0.294300 0.866218 0.403800
vt 1.535534 -1.210400
v -5821.585449 -648.067810 1977.657227
vn -0.294300 0.866218 0.403800
vt 1.535534 -2.210400
v -6303.470703 -799.444580 1936.717896
vn -0.231477 0.890633 0.391396
vt 3.438934 -2.013180
v -6311.035156 -979.368164 2295.074463
vn -0.249698 0.852717 0.458829
vt 3.468811 -3.739491
v -5429.198242 -783.566284 2423.606445
vn -0.143766 0.838946 0.524882
vt 1.985651 -3.358658
v -5394.153320 -533.151306 2035.065063
vn -0.168533 0.865754 0.471239
vt 1.847223 -1.486950
v -5821.585449 -648.067810 1977.657227
vn -0.294300 0.866218 0.403800
vt 3.535534 -1.210400
v -5844.985352 -844.739685 2349.430420
vn -0.253068 0.861654 0.439896
vt 3.627964 -3.001328
v -5355.789063 -343.436829 1655.625488
vn -0.146434 0.946831 0.286475
vt 1.670412 -1.695183
v -5797.274902 -496.821838 1609.816040
vn -0.329342 0.913909 0.237285
vt 3.422663 -1.462471
v -5821.585449 -648.067810 1977.657227
vn -0.294300 0.866218 0.403800
vt 3.535534 -3.210400
v -5394.153320 -533.151306 2035.065063
vn -0.168533 0.865754 0.471239
vt 1.847223 -3.486950
f 11/11/11 12/12/12 13/13/13
f 17/17/17 19/19/19 20/20/20
f 19/19/19 17/17/17 18/18/18
f 7/7/7 9/9/9 10/10/10
f 9/9/9 7/7/7 8/8/8
f 45/45/45 47/47/47 48/48/48
f 47/47/47 45/45/45 46/46/46
f 51/51/51 49/49/49 50/50/50
f 49/49/49 51/51/51 52/52/52
f 55/55/55 53/53/53 54/54/54
f 53/53/53 55/55/55 56/56/56
f 59/59/59 57/57/57 58/58/58
f 57/57/57 59/59/59 60/60/60
f 83/83/83 81/81/81 82/82/82
f 81/81/81 83/83/83 84/84/84
f 87/87/87 85/85/85 86/86/86
f 85/85/85 87/87/87 88/88/88
f 127/127/127 125/125/125 126/126/126
f 125/125/125 127/127/127 128/128/128
f 131/131/131 129/129/129 130/130/130
f 129/129/129 131/131/131 132/132/132
f 135/135/135 133/133/133 134/134/134
f 133/133/133 135/135/135 136/136/136
f 14/14/14 15/15/15 16/16/16
f 23/23/23 21/21/21 22/22/22
f 21/21/21 23/23/23 24/24/24
f 25/25/25 26/26/26 27/27/27
f 28/28/28 29/29/29 30/30/30
f 31/31/31 32/32/32 33/33/33
f 34/34/34 35/35/35 36/36/36
f 39/39/39 37/37/37 38/38/38
f 37/37/37 39/39/39 40/40/40
f 43/43/43 41/41/41 42/42/42
f 41/41/41 43/43/43 44/44/44
f 61/61/61 62/62/62 63/63/63
f 64/64/64 65/65/65 66/66/66
f 4/4/4 5/5/5 6/6/6
f 67/67/67 6/6/6 5/5/5
f 68/68/68 69/69/69 70/70/70
f 73/73/73 71/71/71 72/72/72
f 71/71/71 73/73/73 74/74/74
f 75/75/75 76/76/76 77/77/77
f 78/78/78 79/79/79 80/80/80
f 89/89/89 90/90/90 91/91/91
f 92/92/92 93/93/93 94/94/94
f 95/95/95 96/96/96 97/97/97
f 98/98/98 99/99/99 100/100/100
f 101/101/101 102/102/102 103/103/103
f 104/104/104 105/105/105 106/106/106
f 107/107/107 108/108/108 109/109/109
f 110/110/110 111/111/111 112/112/112
f 113/113/113 114/114/114 115/115/115
f 116/116/116 117/117/117 118/118/118
f 119/119/119 120/120/120 121/121/121
f 122/122/122 123/123/123 124/124/124
f 137/137/137 138/138/138 139/139/139
f 140/140/140 141/141/141 142/142/142
f 145/145/145 143/143/143 144/144/144
f 143/143/143 145/145/145 146/146/146
f 147/147/147 148/148/148 149/149/149
f 150/150/150 151/151/151 152/152/152
f 155/155/155 153/153/153 154/154/154
f 153/153/153 155/155/155 156/156/156
f 157/157/157 158/158/158 159/159/159
f 160/160/160 161/161/161 162/162/162
f 165/165/165 163/163/163 164/164/164
f 163/163/163 165/165/165 166/166/166
f 167/167/167 168/168/168 169/169/169
f 170/170/170 171/171/171 172/172/172
f 175/175/175 173/173/173 174/174/174
f 173/173/173 175/175/175 176/176/176
f 177/177/177 178/178/178 179/179/179
f 180/180/180 181/181/181 182/182/182
f 185/185/185 183/183/183 184/184/184
f 183/183/183 185/185/185 186/186/186
f 189/189/189 187/187/187 188/188/188
f 187/187/187 189/189/189 190/190/190
f 1/1/1 2/2/2 3/3/3
