mtllib HTOWN01_GREENDRAGUPPERWALL01.mtl
g DragUpperwall01
usemtl WoodFront
v -3543.980225 -1715.690063 -9271.860352
vn -0.414693 0.000000 -0.909961
vt 0.000500 0.314093
v -3477.661377 -1698.036743 -9274.175781
vn -0.034899 0.000000 -0.999391
vt 0.491376 0.156670
v -3477.661377 -1733.495972 -9274.175781
vn -0.034900 0.000000 -0.999391
vt 0.491376 0.472878
v -3543.980225 -1735.567139 -9271.860352
vn -0.418471 0.000000 -0.908230
vt 0.000500 0.491347
v -3472.013672 -1777.848267 -9112.447266
vn 0.034900 0.000000 0.999391
vt 0.491376 0.868389
v -3472.013672 -1726.227417 -9112.446289
vn 0.034900 0.000000 0.999391
vt 0.491376 0.408060
v -3538.332520 -1743.880737 -9110.130859
vn -0.350207 0.000000 0.936672
vt 0.000500 0.565484
v -3538.332520 -1789.584229 -9110.130859
vn -0.372989 0.000000 0.927836
vt 0.000500 0.973045
v -3393.618896 -1718.656738 -9262.218750
vn 0.909961 0.000000 -0.414693
vt 0.000499 0.311313
v -3391.203369 -1723.605835 -9193.043945
vn 0.999391 0.000000 -0.034899
vt 0.524105 0.357405
v -3391.203369 -1779.656860 -9193.043945
vn 0.999391 0.000000 -0.034899
vt 0.524105 0.879416
v -3393.618896 -1738.533813 -9262.218750
vn 0.933300 0.000000 -0.359097
vt 0.000499 0.496431
v -3558.334717 -1715.690063 -9256.466797
vn -0.936672 0.000000 -0.350207
vt 0.000500 0.283683
v -3555.918945 -1715.813477 -9187.291992
vn -0.999391 0.000000 0.034899
vt 0.524105 0.284833
v -3555.918945 -1685.283203 -9187.291992
vn -0.999391 0.000000 0.034899
vt 0.524105 0.000499
v -3558.334717 -1698.177246 -9256.466797
vn -0.944457 0.000000 -0.328635
vt 0.000500 0.120584
v -3558.334717 -1735.567139 -9256.466797
vn -0.956076 0.000000 -0.293119
vt 0.999500 0.491347
v -3558.334717 -1715.690063 -9256.466797
vn -0.936672 0.000000 -0.350207
vt 0.999500 0.314093
v -3543.980225 -1715.690063 -9271.860352
vn -0.414693 0.000000 -0.909961
vt 0.844073 0.314093
v -3543.980225 -1735.567139 -9271.860352
vn -0.418471 0.000000 -0.908230
vt 0.844073 0.491347
v -3393.618896 -1701.143921 -9262.218750
vn 0.919232 0.000000 -0.393717
vt 0.843495 0.160225
v -3393.618896 -1718.656738 -9262.218750
vn 0.909961 0.000000 -0.414693
vt 0.843495 0.316395
v -3409.012451 -1718.656738 -9276.573242
vn 0.350207 0.000000 -0.936672
vt 0.999500 0.340549
v -3409.012451 -1701.144043 -9276.573242
vn 0.328221 0.000000 -0.944601
vt 0.999501 0.184379
v -3389.010010 -1792.550903 -9130.237305
vn 0.926308 0.000000 0.376767
vt 0.999500 0.999501
v -3389.010010 -1746.847412 -9130.237305
vn 0.936672 0.000000 0.350208
vt 0.999500 0.573857
v -3403.364746 -1746.847412 -9114.843750
vn 0.414693 0.000000 0.909961
vt 0.848903 0.591940
v -3403.364746 -1792.550903 -9114.843750
vn 0.441616 0.000000 0.897204
vt 0.848903 0.999501
v -3553.725830 -1698.177246 -9124.485352
vn -0.920067 0.000000 0.391760
vt 0.848326 0.184493
v -3553.725830 -1743.880737 -9124.485352
vn -0.909961 0.000000 0.414693
vt 0.848326 0.592054
v -3538.332520 -1743.880737 -9110.130859
vn -0.350207 0.000000 0.936672
vt 1.003754 0.592054
v -3538.332520 -1698.177246 -9110.130859
vn -0.320391 0.000000 0.947285
vt 1.003754 0.184493
v -3477.661377 -1688.082153 -9274.175781
vn -0.034899 0.000000 -0.999391
vt 0.491376 0.067900
v -3403.364746 -1792.550903 -9114.843750
vn 0.441616 0.000000 0.897204
vt 0.999500 0.999501
v -3403.364746 -1746.847412 -9114.843750
vn 0.414693 0.000000 0.909961
vt 0.999500 0.591940
v -3389.010010 -1701.143921 -9130.237305
vn 0.945154 0.000000 0.326625
vt 0.999500 0.148214
v -3391.203369 -1688.250000 -9193.043945
vn 0.999391 0.000000 -0.034899
vt 0.524105 0.028130
v -3553.725830 -1789.584229 -9124.485352
vn -0.897770 0.000000 0.440465
vt 0.999501 0.971871
v -3553.725830 -1743.880737 -9124.485352
vn -0.909961 0.000000 0.414693
vt 0.999501 0.546227
v -3555.918945 -1776.690186 -9187.291992
vn -0.999391 0.000000 0.034899
vt 0.524105 0.851786
v -3543.980225 -1698.177246 -9271.860352
vn -0.397339 0.000000 -0.917672
vt 0.000500 0.157923
v -3472.013672 -1680.523926 -9112.446289
vn 0.034900 0.000000 0.999391
vt 0.491376 0.000499
v -3538.332520 -1698.177246 -9110.130859
vn -0.320391 0.000000 0.947285
vt 0.000500 0.157923
v -3393.618896 -1701.143921 -9262.218750
vn 0.919232 0.000000 -0.393717
vt 0.000500 0.148214
v -3558.334717 -1735.567139 -9256.466797
vn -0.956076 0.000000 -0.293119
vt 0.000500 0.468802
v -3558.334717 -1698.177246 -9256.466797
vn -0.944457 0.000000 -0.328635
vt 0.999500 0.157923
v -3543.980225 -1698.177246 -9271.860352
vn -0.397339 0.000000 -0.917672
vt 0.844073 0.157923
v -3393.618896 -1738.533813 -9262.218750
vn 0.933300 0.000000 -0.359097
vt 0.843495 0.493649
v -3409.012451 -1738.533813 -9276.573242
vn 0.359447 0.000000 -0.933166
vt 0.999500 0.517804
v -3389.010010 -1701.143921 -9130.237305
vn 0.945154 0.000000 0.326625
vt 0.989839 0.184379
v -3403.364746 -1701.143921 -9114.843750
vn 0.382440 0.000000 0.923980
vt 0.848903 0.184379
v -3553.725830 -1789.584229 -9124.485352
vn -0.897770 0.000000 0.440465
vt 0.848326 0.999614
v -3538.332520 -1789.584229 -9110.130859
vn -0.372989 0.000000 0.927836
vt 1.003753 0.999615
v -3403.364746 -1701.143921 -9114.843750
vn 0.382440 0.000000 0.923980
vt 0.999501 0.184379
v -3553.725830 -1698.177246 -9124.485352
vn -0.920067 0.000000 0.391760
vt 0.999501 0.120584
f 7/7/7 8/8/8 5/5/5
f 6/6/6 5/5/5 34/34/34
f 5/5/5 6/6/6 7/7/7
f 42/42/42 7/7/7 6/6/6
f 7/7/7 42/42/42 43/43/43
f 6/6/6 54/54/54 42/42/42
f 54/54/54 6/6/6 35/35/35
f 34/34/34 35/35/35 6/6/6
f 27/27/27 50/50/50 51/51/51
f 50/50/50 27/27/27 26/26/26
f 25/25/25 26/26/26 27/27/27
f 26/26/26 25/25/25 10/10/10
f 11/11/11 10/10/10 25/25/25
f 10/10/10 11/11/11 9/9/9
f 12/12/12 9/9/9 11/11/11
f 27/27/27 28/28/28 25/25/25
f 10/10/10 9/9/9 44/44/44
f 10/10/10 36/36/36 26/26/26
f 36/36/36 10/10/10 37/37/37
f 44/44/44 37/37/37 10/10/10
f 41/41/41 33/33/33 2/2/2
f 24/24/24 2/2/2 33/33/33
f 2/2/2 24/24/24 23/23/23
f 21/21/21 23/23/23 24/24/24
f 23/23/23 21/21/21 22/22/22
f 2/2/2 1/1/1 41/41/41
f 4/4/4 1/1/1 3/3/3
f 2/2/2 3/3/3 1/1/1
f 3/3/3 2/2/2 49/49/49
f 23/23/23 49/49/49 2/2/2
f 49/49/49 23/23/23 48/48/48
f 22/22/22 48/48/48 23/23/23
f 14/14/14 40/40/40 38/38/38
f 40/40/40 14/14/14 45/45/45
f 13/13/13 45/45/45 14/14/14
f 15/15/15 13/13/13 14/14/14
f 13/13/13 15/15/15 16/16/16
f 14/14/14 55/55/55 15/15/15
f 55/55/55 14/14/14 39/39/39
f 38/38/38 39/39/39 14/14/14
f 17/17/17 18/18/18 19/19/19
f 46/46/46 19/19/19 18/18/18
f 19/19/19 46/46/46 47/47/47
f 19/19/19 20/20/20 17/17/17
f 31/31/31 52/52/52 53/53/53
f 52/52/52 31/31/31 30/30/30
f 29/29/29 30/30/30 31/31/31
f 31/31/31 32/32/32 29/29/29
