mtllib HTOWN01_BAGROW1FRONT.mtl
g BagRow1Front
usemtl WoodFront
v -1382.282471 -1544.942627 -2073.203125
vn -0.258819 0.000000 -0.965926
vt 0.001998 0.749750
v -1382.282471 -1628.978638 -2073.203125
vn -0.258819 0.000000 -0.965926
vt 0.001998 0.999500
v -1532.659912 -1544.942627 -2032.909668
vn -0.258819 0.000000 -0.965926
vt 0.680409 0.749750
v -1532.659912 -1628.978638 -2032.909668
vn -0.258819 0.000000 -0.965926
vt 0.680409 0.999500
v -1683.037231 -1544.942627 -1992.616089
vn -0.258819 0.000000 -0.965926
vt 1.358820 0.749750
v -1683.037231 -1628.978638 -1992.616211
vn -0.258819 0.000000 -0.965926
vt 1.358820 0.999500
v -1833.414673 -1544.942627 -1952.322632
vn -0.258819 0.000000 -0.965926
vt 2.037232 0.749750
v -1833.414673 -1628.978638 -1952.322632
vn -0.258819 0.000000 -0.965926
vt 2.037231 0.999500
v -1983.792114 -1544.942627 -1912.029175
vn -0.258819 0.000000 -0.965926
vt 2.715643 0.749750
v -1983.792114 -1628.978638 -1912.029175
vn -0.258819 0.000000 -0.965926
vt 2.715643 0.999500
v -2134.169434 -1544.942627 -1871.735596
vn -0.258819 0.000000 -0.965926
vt 3.394054 0.749750
v -2134.169434 -1628.978638 -1871.735596
vn -0.258819 0.000000 -0.965926
vt 3.394054 0.999500
v -2262.665771 -1544.942627 -1837.305054
vn -0.258819 0.000000 -0.965926
vt 3.973751 0.749750
v -2262.665771 -1628.978638 -1837.305054
vn -0.258819 0.000000 -0.965926
vt 3.973751 0.999500
v -1382.282471 -1460.906616 -2073.203125
vn -0.258819 0.000000 -0.965926
vt 0.001998 0.500000
v -1532.659912 -1460.906616 -2032.909668
vn -0.258819 0.000000 -0.965926
vt 0.680409 0.500000
v -1683.037231 -1460.906616 -1992.616089
vn -0.258819 0.000000 -0.965926
vt 1.358821 0.500000
v -1833.414673 -1460.906616 -1952.322632
vn -0.258819 0.000000 -0.965926
vt 2.037232 0.500000
v -1983.792114 -1460.906616 -1912.029175
vn -0.258819 0.000000 -0.965926
vt 2.715643 0.500000
v -2134.169434 -1460.906616 -1871.735596
vn -0.258819 0.000000 -0.965926
vt 3.394054 0.500000
v -2254.084229 -1507.718872 -1839.604492
vn -0.258819 0.000000 -0.965926
vt 3.935037 0.639123
v -1382.282471 -1390.429077 -2073.203125
vn -0.258819 0.000000 -0.965926
vt 0.001998 0.290545
v -1532.659912 -1376.870605 -2032.909668
vn -0.258819 0.000000 -0.965926
vt 0.680410 0.250250
v -1683.037231 -1376.870605 -1992.616089
vn -0.258819 0.000000 -0.965926
vt 1.358821 0.250250
v -1833.414673 -1327.081299 -1952.322632
vn -0.258819 0.000000 -0.965926
vt 2.037232 0.102279
v -1983.792114 -1376.870605 -1912.029175
vn -0.258819 0.000000 -0.965926
vt 2.715643 0.250250
v -2134.169434 -1376.870605 -1871.735596
vn -0.258819 0.000000 -0.965926
vt 3.394054 0.250250
v -2222.140381 -1447.386841 -1848.163818
vn -0.258819 0.000000 -0.965926
vt 3.790925 0.459820
f 14/14/14 13/13/13 12/12/12
f 11/11/11 12/12/12 13/13/13
f 12/12/12 11/11/11 10/10/10
f 9/9/9 10/10/10 11/11/11
f 10/10/10 9/9/9 8/8/8
f 7/7/7 8/8/8 9/9/9
f 8/8/8 7/7/7 6/6/6
f 5/5/5 6/6/6 7/7/7
f 6/6/6 5/5/5 4/4/4
f 3/3/3 4/4/4 5/5/5
f 4/4/4 3/3/3 2/2/2
f 1/1/1 2/2/2 3/3/3
f 15/15/15 1/1/1 16/16/16
f 3/3/3 16/16/16 1/1/1
f 16/16/16 3/3/3 17/17/17
f 5/5/5 17/17/17 3/3/3
f 17/17/17 5/5/5 18/18/18
f 7/7/7 18/18/18 5/5/5
f 18/18/18 7/7/7 19/19/19
f 9/9/9 19/19/19 7/7/7
f 19/19/19 9/9/9 20/20/20
f 11/11/11 20/20/20 9/9/9
f 20/20/20 11/11/11 21/21/21
f 13/13/13 21/21/21 11/11/11
f 22/22/22 15/15/15 23/23/23
f 16/16/16 23/23/23 15/15/15
f 23/23/23 16/16/16 24/24/24
f 17/17/17 24/24/24 16/16/16
f 24/24/24 17/17/17 25/25/25
f 18/18/18 25/25/25 17/17/17
f 25/25/25 18/18/18 26/26/26
f 19/19/19 26/26/26 18/18/18
f 26/26/26 19/19/19 27/27/27
f 20/20/20 27/27/27 19/19/19
f 27/27/27 20/20/20 28/28/28
f 21/21/21 28/28/28 20/20/20
