mtllib HTOWN01_BAGENDTERRACE3.mtl
g BagEndTerrace3
usemtl Newstonewall
v 295.332275 -254.729614 1209.851685
vn 0.953643 0.000000 0.300940
vt 0.975302 0.612729
v 319.278656 -254.729614 1133.968384
vn 0.991558 0.000000 0.129666
vt 1.261829 0.612729
v 319.278656 -198.189911 1133.968384
vn 0.991558 0.000000 0.129666
vt 1.261829 0.362979
v 295.332275 -198.189911 1209.851685
vn 0.953643 0.000000 0.300940
vt 0.975302 0.362979
v 315.700287 -198.189911 1055.573120
vn 0.982781 0.000000 -0.184777
vt 1.552138 0.362979
v 315.700287 -254.729614 1055.573120
vn 0.982781 0.000000 -0.184777
vt 1.552138 0.612729
v 315.700287 -141.650192 1055.573120
vn 0.723347 0.676959 -0.136000
vt 1.552138 0.113229
v 319.278656 -141.650192 1133.968384
vn 0.736265 0.669809 0.096281
vt 1.261829 0.113229
v 295.332275 -141.650208 1209.851685
vn 0.706483 0.671697 0.222944
vt 0.975302 0.113229
v 307.169067 -141.650192 1131.553833
vn 0.000000 1.000000 0.000000
vt 1.243922 0.113229
v 284.581421 -141.650208 1204.628540
vn 0.000000 1.000000 0.000000
vt 0.958292 0.113229
v 303.919006 -141.650192 1056.662109
vn 0.000000 1.000000 0.000000
vt 1.532822 0.113229
v 292.137695 -141.650192 1057.751099
vn -0.663543 0.738755 0.118116
vt 1.511988 0.113229
v 295.059418 -141.650192 1129.139160
vn -0.660042 0.746543 -0.083775
vt 1.224768 0.113229
v 273.830566 -141.650208 1199.405396
vn -0.643565 0.740283 -0.194434
vt 0.940303 0.113229
v 285.395752 -254.729599 965.953613
vn 0.878051 0.000000 -0.478568
vt 2.024049 0.612729
v 285.395752 -198.189896 965.953613
vn 0.878051 0.000000 -0.478568
vt 2.024049 0.362979
v 225.969315 -198.189896 891.247009
vn 0.581384 0.000000 -0.813629
vt 2.548517 0.362979
v 225.969315 -254.729599 891.247009
vn 0.581384 0.000000 -0.813629
vt 2.548517 0.612729
v 225.969315 -141.650192 891.247009
vn 0.441731 0.650166 -0.618190
vt 2.548517 0.113229
v 285.395752 -141.650192 965.953613
vn 0.651555 0.670348 -0.355120
vt 2.024049 0.113229
v 275.926331 -141.650192 971.962280
vn 0.000000 1.000000 0.000000
vt 2.003721 0.113229
v 219.905960 -141.650192 901.428345
vn 0.000000 1.000000 0.000000
vt 2.530443 0.113229
v 213.842590 -141.650192 911.609680
vn -0.367838 0.774780 0.514209
vt 2.510401 0.113229
v 266.456940 -141.650192 977.970947
vn -0.583750 0.749580 0.312034
vt 1.981651 0.113229
v 122.777275 -254.729599 854.508240
vn 0.162235 0.000000 -0.986752
vt 3.212475 0.612729
v 122.777275 -198.189896 854.508240
vn 0.162235 0.000000 -0.986752
vt 3.212476 0.362979
v 13.362055 -198.189896 856.272217
vn -0.284316 0.000000 -0.958731
vt 3.852204 0.362979
v 13.362055 -254.729599 856.272217
vn -0.284316 0.000000 -0.958731
vt 3.852204 0.612729
v 13.362055 -141.650192 856.272217
vn -0.215743 0.651309 -0.727497
vt 3.852204 0.113229
v 122.777275 -141.650192 854.508240
vn 0.120565 0.669127 -0.733303
vt 3.212475 0.113229
v 120.332710 -141.650192 866.008118
vn 0.000000 1.000000 0.000000
vt 3.220860 0.113229
v 15.021642 -141.650192 866.789612
vn 0.000000 1.000000 0.000000
vt 3.877945 0.113229
v 16.681246 -141.650192 877.307007
vn 0.170932 0.773673 0.610092
vt 3.905665 0.113229
v 117.888145 -141.650192 877.507935
vn -0.113575 0.747180 0.654845
vt 3.229250 0.113229
v 13.362055 -254.729599 856.272217
vn -0.284316 0.000000 -0.958731
vt 2.852204 0.612729
v -65.532539 -254.729599 905.786377
vn -0.703049 0.000000 -0.711142
vt 3.279928 0.612729
v -65.532539 -198.189896 905.786377
vn -0.703049 0.000000 -0.711142
vt 3.279929 0.362979
v 13.362055 -198.189896 856.272217
vn -0.284316 0.000000 -0.958731
vt 2.852204 0.362979
v -126.154427 -198.189911 999.968201
vn -0.840868 0.000000 -0.541240
vt 3.759556 0.362979
v -126.154427 -254.729614 999.968201
vn -0.840868 0.000000 -0.541240
vt 3.759556 0.612729
v -126.154427 -141.650192 999.968201
vn -0.687699 0.575439 -0.442650
vt 3.759556 0.113229
v -65.532524 -141.650192 905.786377
vn -0.527384 0.661280 -0.533455
vt 3.279928 0.113229
v 13.362055 -141.650192 856.272217
vn -0.215743 0.651309 -0.727497
vt 2.852204 0.113229
v -59.307240 -141.650192 912.852478
vn 0.000000 1.000000 0.000000
vt 3.295471 0.113229
v 15.021642 -141.650192 866.789612
vn 0.000000 1.000000 0.000000
vt 2.877945 0.113229
v -114.893944 -141.650192 1001.170105
vn 0.000000 1.000000 0.000000
vt 3.763451 0.113229
v -103.633469 -141.650192 1002.372009
vn 0.524234 0.788592 0.321404
vt 3.767608 0.113229
v -53.081940 -141.650192 919.918579
vn 0.456045 0.763775 0.456805
vt 3.312134 0.113229
v 16.681246 -141.650192 877.307007
vn 0.170932 0.773673 0.610092
vt 2.905665 0.113229
v 295.059387 -198.189911 1129.139160
vn -0.992041 0.000000 -0.125913
vt 1.224767 0.362979
v 273.830566 -198.189911 1199.405396
vn -0.957266 0.000000 -0.289209
vt 0.940303 0.362979
v 292.137695 -198.189911 1057.751099
vn -0.984524 0.000000 0.175253
vt 1.511988 0.362979
v 292.137695 -254.729614 1057.751099
vn -0.984524 0.000000 0.175252
vt 1.511988 0.612729
v 295.059418 -254.729614 1129.139160
vn -0.992041 0.000000 -0.125913
vt 1.224768 0.612729
v 273.830566 -254.729614 1199.405396
vn -0.957266 0.000000 -0.289209
vt 0.940303 0.612729
v 266.456909 -198.189896 977.970947
vn -0.881913 0.000000 0.471413
vt 1.981651 0.362979
v 213.842575 -198.189896 911.609741
vn -0.581810 0.000000 0.813325
vt 2.510401 0.362979
v 213.842590 -254.729599 911.609680
vn -0.581810 0.000000 0.813325
vt 2.510401 0.612729
v 266.456940 -254.729599 977.970947
vn -0.881913 0.000000 0.471413
vt 1.981651 0.612729
v 117.888138 -198.189896 877.507996
vn -0.170887 0.000000 0.985291
vt 3.229250 0.362979
v 16.681242 -198.189896 877.307007
vn 0.269785 0.000000 0.962921
vt 3.905665 0.362979
v 16.681246 -254.729599 877.307007
vn 0.269785 0.000000 0.962921
vt 3.905665 0.612729
v 117.888145 -254.729599 877.507935
vn -0.170887 0.000000 0.985291
vt 3.229250 0.612729
v -53.081944 -198.189896 919.918579
vn 0.706518 0.000000 0.707695
vt 3.312134 0.362979
v 16.681242 -198.189896 877.307007
vn 0.269785 0.000000 0.962921
vt 2.905665 0.362979
v -103.633469 -198.189911 1002.372009
vn 0.852530 0.000000 0.522679
vt 3.767608 0.362979
v -103.633469 -254.729614 1002.372009
vn 0.852530 0.000000 0.522679
vt 3.767608 0.612729
v -53.081940 -254.729599 919.918579
vn 0.706518 0.000000 0.707695
vt 3.312134 0.612729
v 16.681246 -254.729599 877.307007
vn 0.269785 0.000000 0.962921
vt 2.905665 0.612729
f 56/56/56 52/52/52 55/55/55
f 51/51/51 55/55/55 52/52/52
f 55/55/55 51/51/51 54/54/54
f 53/53/53 54/54/54 51/51/51
f 54/54/54 53/53/53 60/60/60
f 57/57/57 60/60/60 53/53/53
f 60/60/60 57/57/57 59/59/59
f 58/58/58 59/59/59 57/57/57
f 59/59/59 58/58/58 64/64/64
f 61/61/61 64/64/64 58/58/58
f 64/64/64 61/61/61 63/63/63
f 62/62/62 63/63/63 61/61/61
f 34/34/34 62/62/62 35/35/35
f 61/61/61 35/35/35 62/62/62
f 35/35/35 61/61/61 24/24/24
f 58/58/58 24/24/24 61/61/61
f 24/24/24 58/58/58 25/25/25
f 57/57/57 25/25/25 58/58/58
f 25/25/25 57/57/57 13/13/13
f 53/53/53 13/13/13 57/57/57
f 13/13/13 53/53/53 14/14/14
f 51/51/51 14/14/14 53/53/53
f 14/14/14 51/51/51 15/15/15
f 52/52/52 15/15/15 51/51/51
f 15/15/15 11/11/11 14/14/14
f 10/10/10 14/14/14 11/11/11
f 14/14/14 10/10/10 13/13/13
f 12/12/12 13/13/13 10/10/10
f 13/13/13 12/12/12 25/25/25
f 22/22/22 25/25/25 12/12/12
f 25/25/25 22/22/22 24/24/24
f 23/23/23 24/24/24 22/22/22
f 24/24/24 23/23/23 35/35/35
f 32/32/32 35/35/35 23/23/23
f 35/35/35 32/32/32 34/34/34
f 33/33/33 34/34/34 32/32/32
f 11/11/11 9/9/9 10/10/10
f 8/8/8 10/10/10 9/9/9
f 10/10/10 8/8/8 12/12/12
f 7/7/7 12/12/12 8/8/8
f 12/12/12 7/7/7 22/22/22
f 21/21/21 22/22/22 7/7/7
f 22/22/22 21/21/21 23/23/23
f 20/20/20 23/23/23 21/21/21
f 23/23/23 20/20/20 32/32/32
f 31/31/31 32/32/32 20/20/20
f 32/32/32 31/31/31 33/33/33
f 30/30/30 33/33/33 31/31/31
f 9/9/9 4/4/4 8/8/8
f 3/3/3 8/8/8 4/4/4
f 8/8/8 3/3/3 7/7/7
f 5/5/5 7/7/7 3/3/3
f 7/7/7 5/5/5 21/21/21
f 17/17/17 21/21/21 5/5/5
f 21/21/21 17/17/17 20/20/20
f 18/18/18 20/20/20 17/17/17
f 20/20/20 18/18/18 31/31/31
f 27/27/27 31/31/31 18/18/18
f 31/31/31 27/27/27 30/30/30
f 28/28/28 30/30/30 27/27/27
f 4/4/4 1/1/1 3/3/3
f 2/2/2 3/3/3 1/1/1
f 3/3/3 2/2/2 5/5/5
f 6/6/6 5/5/5 2/2/2
f 5/5/5 6/6/6 17/17/17
f 16/16/16 17/17/17 6/6/6
f 17/17/17 16/16/16 18/18/18
f 19/19/19 18/18/18 16/16/16
f 18/18/18 19/19/19 27/27/27
f 26/26/26 27/27/27 19/19/19
f 27/27/27 26/26/26 28/28/28
f 29/29/29 28/28/28 26/26/26
f 40/40/40 37/37/37 41/41/41
f 37/37/37 40/40/40 38/38/38
f 42/42/42 38/38/38 40/40/40
f 38/38/38 42/42/42 43/43/43
f 47/47/47 43/43/43 42/42/42
f 43/43/43 47/47/47 45/45/45
f 48/48/48 45/45/45 47/47/47
f 45/45/45 48/48/48 49/49/49
f 67/67/67 49/49/49 48/48/48
f 49/49/49 67/67/67 65/65/65
f 68/68/68 65/65/65 67/67/67
f 65/65/65 68/68/68 69/69/69
f 38/38/38 36/36/36 37/37/37
f 36/36/36 38/38/38 39/39/39
f 43/43/43 39/39/39 38/38/38
f 39/39/39 43/43/43 44/44/44
f 45/45/45 44/44/44 43/43/43
f 44/44/44 45/45/45 46/46/46
f 49/49/49 46/46/46 45/45/45
f 46/46/46 49/49/49 50/50/50
f 65/65/65 50/50/50 49/49/49
f 50/50/50 65/65/65 66/66/66
f 69/69/69 66/66/66 65/65/65
f 66/66/66 69/69/69 70/70/70
