mtllib HTOWN01_BAGROW2FRONT.mtl
g BagRow2Front
usemtl WoodFront
v -261.178467 -1516.930664 -2420.194336
vn -0.350208 0.000000 -0.936672
vt 0.001499 0.666500
v -261.178467 -1628.978638 -2420.194336
vn -0.350208 0.000000 -0.936672
vt 0.001499 0.999500
v -552.824707 -1516.930664 -2311.152100
vn -0.350208 0.000000 -0.936672
vt 1.000499 0.666500
v -552.824707 -1628.978638 -2311.152100
vn -0.350208 0.000000 -0.936672
vt 1.000499 0.999500
v -844.470947 -1516.930664 -2202.110107
vn -0.350208 0.000000 -0.936672
vt 1.999501 0.666500
v -844.470947 -1628.978638 -2202.110107
vn -0.350208 0.000000 -0.936672
vt 1.999500 0.999500
v -1136.117188 -1516.930664 -2093.067871
vn -0.350208 0.000000 -0.936672
vt 2.998501 0.666500
v -1136.117188 -1628.978638 -2093.067871
vn -0.350208 0.000000 -0.936672
vt 2.998501 0.999500
v -261.178497 -1404.882568 -2420.194336
vn -0.350208 0.000000 -0.936672
vt 0.001499 0.333500
v -552.824707 -1404.882568 -2311.152100
vn -0.350208 0.000000 -0.936672
vt 1.000499 0.333500
v -844.470947 -1404.882568 -2202.110107
vn -0.350208 0.000000 -0.936672
vt 1.999501 0.333500
v -1136.117188 -1404.882690 -2093.067871
vn -0.350208 0.000000 -0.936672
vt 2.998501 0.333500
v -261.178497 -1292.834595 -2420.194336
vn -0.350208 0.000000 -0.936672
vt 0.001499 0.000500
v -552.824707 -1292.834595 -2311.152100
vn -0.350208 0.000000 -0.936672
vt 1.000500 0.000500
v -844.470947 -1292.834595 -2202.110107
vn -0.350208 0.000000 -0.936672
vt 1.999501 0.000500
v -1136.117188 -1292.834595 -2093.067871
vn -0.350208 0.000000 -0.936672
vt 2.998502 0.000500
f 8/8/8 7/7/7 6/6/6
f 5/5/5 6/6/6 7/7/7
f 6/6/6 5/5/5 4/4/4
f 3/3/3 4/4/4 5/5/5
f 4/4/4 3/3/3 2/2/2
f 1/1/1 2/2/2 3/3/3
f 9/9/9 1/1/1 10/10/10
f 3/3/3 10/10/10 1/1/1
f 10/10/10 3/3/3 11/11/11
f 5/5/5 11/11/11 3/3/3
f 11/11/11 5/5/5 12/12/12
f 7/7/7 12/12/12 5/5/5
f 13/13/13 9/9/9 14/14/14
f 10/10/10 14/14/14 9/9/9
f 14/14/14 10/10/10 15/15/15
f 11/11/11 15/15/15 10/10/10
f 15/15/15 11/11/11 16/16/16
f 12/12/12 16/16/16 11/11/11
