mtllib HTOWN01_TREESHADOWS01.mtl
g TreeShadows01
usemtl treeshade
v -7784.579102 -1231.362793 -337.198761
vn 0.254344 0.962140 -0.097955
vt 3.950794 -2.930630
v -7549.272461 -1230.911621 -173.076584
vn 0.114526 0.979301 -0.166891
vt 3.618940 -3.216064
v -7446.346680 -1266.926758 -471.743835
vn 0.070791 0.993884 -0.084749
vt 3.473783 -2.696634
v -7446.346680 -1266.926758 -471.743835
vn 0.070791 0.993884 -0.084749
vt 3.473783 -3.696634
v -7562.936035 -1272.343750 -653.279236
vn 0.082577 0.994054 -0.070977
vt 3.638210 -3.380917
v -7784.579102 -1231.362793 -337.198761
vn 0.254344 0.962140 -0.097955
vt 3.950794 -3.930630
v -7887.062012 -1199.921143 -887.199707
vn 0.496148 0.867864 -0.025480
vt 3.095324 -2.974091
v -7888.972168 -1213.090210 -555.970093
vn 0.478214 0.877811 -0.027552
vt 3.098019 -3.550152
v -7688.869629 -1266.984131 -742.157593
vn 0.229933 0.973206 0.000510
vt 2.815813 -3.226341
v -7638.006348 -1272.390747 -989.111755
vn 0.276563 0.960967 -0.007471
vt 2.744080 -2.796850
v -7688.869629 -1266.984131 -742.157593
vn 0.229933 0.973206 0.000510
vt 3.815813 -3.226341
v -7784.579102 -1231.362793 -337.198761
vn 0.254344 0.962140 -0.097955
vt 2.950794 -3.930630
v -7887.062012 -1199.921143 -887.199707
vn 0.496148 0.867864 -0.025480
vt 3.095324 -3.974091
v -7638.006348 -1272.390747 -989.111755
vn 0.276563 0.960967 -0.007471
vt 2.744080 -3.796850
v -7691.311035 -1266.988525 -1250.869995
vn 0.266210 0.963303 -0.034359
vt 2.819258 -3.341610
v -7918.124512 -1205.698730 -1289.686157
vn 0.430348 0.901482 -0.046153
vt 3.139132 -3.274103
v -7784.579102 -1231.362793 -337.198761
vn 0.254344 0.962140 -0.097955
vt 2.950794 -2.930630
v -7938.797852 -1162.765869 -89.993271
vn 0.463287 0.883981 -0.062794
vt 3.168289 -3.360559
v -7632.270508 -1166.358154 58.682121
vn 0.128116 0.969595 -0.208500
vt 2.735994 -3.619129
v -7632.270508 -1166.358154 58.682121
vn 0.128116 0.969595 -0.208500
vt 3.735994 -3.619129
v -8521.683594 -589.984802 -570.356934
vn -0.008484 0.999722 0.021988
vt 2.990330 -2.525131
v -8971.320313 -741.770142 -475.795685
vn -0.310861 0.949355 0.045722
vt 3.624453 -2.689587
v -8912.765625 -838.184082 147.793716
vn -0.264428 0.946838 0.183236
vt 3.541872 -3.774107
v -8490.106445 -691.789490 -29.451191
vn 0.119126 0.978377 0.169078
vt 2.945797 -3.465851
v -8365.032227 -798.114990 384.979340
vn 0.463742 0.873163 0.150096
vt 3.769405 -3.186611
v -8176.208008 -888.630371 227.201370
vn 0.667133 0.738136 0.100438
vt 3.503107 -2.912210
v -8258.842773 -762.877869 -148.094055
vn 0.611210 0.783856 0.109509
vt 3.619646 -2.259512
v -8490.106445 -691.789490 -29.451191
vn 0.119126 0.978377 0.169078
vt 3.945797 -2.465851
v -8058.392578 -1053.312622 95.274879
vn 0.789461 0.613743 0.008456
vt 3.336952 -3.682768
v -8132.937500 -935.810242 -253.572495
vn 0.830306 0.555064 0.049952
vt 3.442081 -3.076069
v -8258.842773 -762.877869 -148.094055
vn 0.611210 0.783856 0.109509
vt 3.619646 -3.259512
v -8176.208008 -888.630371 227.201370
vn 0.667133 0.738136 0.100438
vt 3.503107 -3.912210
v -8147.683105 -835.274353 -732.722534
vn 0.804563 0.584395 -0.105641
vt 3.462877 -2.242750
v -8277.743164 -653.645142 -655.140564
vn 0.548899 0.833330 -0.065349
vt 3.646301 -2.377678
v -8521.683594 -589.984802 -570.356934
vn -0.008484 0.999722 0.021988
vt 3.990330 -2.525131
v -8490.106445 -691.789490 -29.451191
vn 0.119126 0.978377 0.169078
vt 3.945797 -3.465851
v -8023.242188 -1094.329834 -391.271301
vn 0.725972 0.687575 0.014327
vt 3.287378 -2.836588
v -8023.242188 -1094.329834 -391.271301
vn 0.725972 0.687575 0.014327
vt 3.287378 -3.836588
v -8037.093262 -1036.004517 -805.882751
vn 0.799783 0.596891 -0.063781
vt 3.306911 -3.115515
v -8147.683105 -835.274353 -732.722534
vn 0.804563 0.584395 -0.105641
vt 3.462877 -3.242750
v -8129.549316 -1064.660889 -1292.169800
vn 0.649700 0.738625 -0.179785
vt 3.437304 -2.269783
v -8312.812500 -894.089111 -1265.593140
vn 0.641372 0.715212 -0.277693
vt 3.695759 -2.316004
v -8129.549316 -1064.660889 -1292.169800
vn 0.649700 0.738625 -0.179785
vt 3.437304 -3.269783
v -8521.683594 -589.984802 -570.356934
vn -0.008484 0.999722 0.021988
vt 3.990330 -3.525131
v -8277.743164 -653.645142 -655.140564
vn 0.548899 0.833330 -0.065349
vt 3.646301 -3.377678
v -8455.197266 -743.875732 -1216.748779
vn 0.440797 0.858002 -0.263688
vt 3.896564 -2.400951
v -8455.197266 -743.875732 -1216.748779
vn 0.440797 0.858002 -0.263688
vt 2.896564 -2.400951
v -8663.918945 -696.593933 -1159.433960
vn -0.105106 0.982704 -0.152468
vt 3.190924 -2.500631
v -8521.683594 -589.984802 -570.356934
vn -0.008484 0.999722 0.021988
vt 2.990330 -3.525131
v -9043.802734 -834.196594 -1108.315674
vn -0.344000 0.934608 -0.090404
vt 3.726673 -2.589535
v -8971.320313 -741.770142 -475.795685
vn -0.310861 0.949355 0.045722
vt 3.624453 -3.689587
f 31/31/31 32/32/32 29/29/29
f 31/31/31 35/35/35 36/36/36
f 35/35/35 31/31/31 34/34/34
f 31/31/31 33/33/33 34/34/34
f 33/33/33 31/31/31 30/30/30
f 29/29/29 30/30/30 31/31/31
f 30/30/30 29/29/29 37/37/37
f 18/18/18 37/37/37 29/29/29
f 37/37/37 18/18/18 17/17/17
f 19/19/19 17/17/17 18/18/18
f 33/33/33 30/30/30 37/37/37
f 8/8/8 12/12/12 9/9/9
f 12/12/12 8/8/8 38/38/38
f 7/7/7 38/38/38 8/8/8
f 38/38/38 7/7/7 39/39/39
f 41/41/41 39/39/39 7/7/7
f 39/39/39 41/41/41 40/40/40
f 42/42/42 40/40/40 41/41/41
f 40/40/40 42/42/42 46/46/46
f 38/38/38 39/39/39 40/40/40
f 9/9/9 7/7/7 8/8/8
f 7/7/7 9/9/9 10/10/10
f 44/44/44 45/45/45 46/46/46
f 40/40/40 46/46/46 45/45/45
f 14/14/14 15/15/15 13/13/13
f 16/16/16 13/13/13 15/15/15
f 13/13/13 16/16/16 43/43/43
f 4/4/4 5/5/5 6/6/6
f 11/11/11 6/6/6 5/5/5
f 20/20/20 2/2/2 1/1/1
f 3/3/3 1/1/1 2/2/2
f 23/23/23 21/21/21 22/22/22
f 21/21/21 23/23/23 24/24/24
f 27/27/27 25/25/25 26/26/26
f 25/25/25 27/27/27 28/28/28
f 47/47/47 48/48/48 49/49/49
f 50/50/50 49/49/49 48/48/48
f 49/49/49 50/50/50 51/51/51
