mtllib HTOWN01_BAGENDFRONT.mtl
g BagEndFront
usemtl WoodFront
v -218.627335 181.260605 1549.292236
vn 0.186987 -0.000151 -0.982362
vt 3.145295 0.210531
v -104.259590 228.886902 1571.034180
vn 0.172958 -0.000100 -0.984929
vt 2.723122 0.065357
v -106.318062 110.570755 1570.680542
vn 0.175433 -0.000088 -0.984491
vt 2.724421 0.532429
v -218.627335 92.183449 1549.292236
vn 0.187181 -0.000090 -0.982325
vt 3.145295 0.605015
v -9.382150 118.785408 1586.774170
vn 0.145597 0.001317 -0.989343
vt 3.319759 0.500000
v -106.318062 110.570755 1570.680542
vn 0.175433 -0.000088 -0.984491
vt 3.724421 0.532429
v -104.259590 228.886902 1571.034180
vn 0.172958 -0.000100 -0.984929
vt 3.723122 0.065357
v -9.382150 245.316193 1586.774048
vn 0.150948 0.003014 -0.988537
vt 3.319759 0.000499
v -9.382150 -7.745404 1586.774048
vn 0.141247 0.000027 -0.989974
vt 3.319759 0.999501
v -108.376778 -7.745403 1570.326782
vn 0.175721 -0.000039 -0.984440
vt 3.725718 0.999501
v -108.376778 -7.745403 1570.326782
vn 0.175721 -0.000039 -0.984440
vt 2.725718 0.999501
v -218.627335 -7.745402 1549.292236
vn 0.187409 0.000000 -0.982282
vt 3.145295 0.999501
v 89.839531 221.497665 1601.049194
vn 0.149491 0.010575 -0.988707
vt 2.924321 0.094527
v 97.037468 106.876129 1600.695557
vn 0.148904 0.009820 -0.988803
vt 2.903504 0.547014
v 213.764526 80.990845 1619.568604
vn 0.253226 0.002023 -0.967405
vt 2.408500 0.649200
v 213.764526 169.727112 1619.568604
vn 0.244182 0.001240 -0.969729
vt 2.408500 0.298899
v 213.764526 -7.745406 1619.568604
vn 0.255328 0.003419 -0.966848
vt 2.408500 0.999501
v 104.235283 -7.745405 1600.341797
vn 0.149492 0.009642 -0.988716
vt 2.882687 0.999501
v 282.182068 181.458969 1645.411621
vn 0.388853 0.003115 -0.921295
vt 2.127928 0.252586
v 282.373352 86.856781 1645.026733
vn 0.387096 0.003192 -0.922034
vt 2.126547 0.626043
v 347.533569 87.706055 1675.499023
vn 0.471292 0.001408 -0.881976
vt 1.922675 0.622691
v 347.533569 183.157486 1675.499023
vn 0.465820 0.001442 -0.884878
vt 1.922675 0.245881
v 347.533569 -7.745408 1675.499023
vn 0.470774 0.001333 -0.882253
vt 1.922675 0.999501
v 282.564758 -7.745407 1644.641846
vn 0.387254 0.003267 -0.921967
vt 2.125166 0.999501
v 407.133057 158.113953 1712.347778
vn 0.550521 0.005398 -0.834804
vt 1.692324 0.344744
v 407.785645 75.184296 1712.152466
vn 0.560743 0.004993 -0.827975
vt 1.690584 0.672122
v 462.896240 51.633945 1753.066040
vn 0.659138 0.002596 -0.752018
vt 1.472175 0.765091
v 462.896240 111.013283 1753.066040
vn 0.658033 0.003087 -0.752983
vt 1.472175 0.530682
v 462.896240 -7.745411 1753.066040
vn 0.657686 0.001859 -0.753290
vt 1.472175 0.999501
v 408.438171 -7.745409 1711.957153
vn 0.560370 0.004560 -0.828230
vt 1.688844 0.999501
v 504.177979 142.778992 1797.392090
vn 0.748339 0.008006 -0.663268
vt 1.246345 0.374458
v 505.166260 71.420830 1797.163208
vn 0.745633 0.008459 -0.666303
vt 1.245965 0.686979
v 547.146423 75.295280 1847.200806
vn 0.764363 0.003599 -0.644776
vt 1.042785 0.671684
v 547.146423 158.335938 1847.200806
vn 0.765382 0.004064 -0.643564
vt 1.042785 0.343868
v 547.146423 -7.745416 1847.200806
vn 0.763731 0.003226 -0.645527
vt 1.042785 0.999501
v 506.154480 -7.745413 1796.934204
vn 0.746224 0.008571 -0.665640
vt 1.245586 0.999501
v 591.801636 134.259949 1902.492065
vn 0.789360 0.016134 -0.613718
vt 0.827161 0.390602
v 593.629395 63.257275 1902.768188
vn 0.791153 0.014736 -0.611441
vt 0.827793 0.719206
v 638.143677 35.306831 1963.265747
vn 0.822780 -0.000803 -0.568359
vt 0.644526 0.759497
v 638.143616 78.359100 1963.265869
vn 0.815189 -0.003605 -0.579183
vt 0.644526 0.512246
v 638.143616 -7.745420 1963.265869
vn 0.828863 0.004521 -0.559434
vt 0.644526 0.999501
v 595.457092 -7.745418 1903.044556
vn 0.789951 0.013396 -0.613023
vt 0.828424 0.999501
v 679.083984 118.825363 2023.742676
vn 0.878717 -0.009872 -0.477241
vt 0.481660 0.498955
v 678.036865 43.108917 2024.373779
vn 0.866814 -0.016264 -0.498367
vt 0.479152 0.728697
v 710.669250 41.664444 2090.506104
vn 0.929461 -0.000496 -0.368920
vt 0.323535 0.734399
v 710.669189 146.093491 2090.506104
vn 0.937964 0.002625 -0.346722
vt 0.323535 0.510360
v 710.669189 -7.745426 2090.506104
vn 0.926051 -0.004624 -0.377371
vt 0.323535 0.999501
v 676.989685 -7.745423 2025.004883
vn 0.866181 -0.019951 -0.499331
vt 0.476643 0.999501
v 710.669189 146.093491 2090.506104
vn 0.937964 0.002625 -0.346722
vt 3.982050 0.609394
v 733.853638 157.691025 2169.017822
vn 0.963630 0.005213 -0.267188
vt 3.893446 0.712848
v 734.633240 28.561234 2168.493896
vn 0.964469 0.013982 -0.263826
vt 3.894967 0.856174
v 710.669250 41.664444 2090.506104
vn 0.929461 -0.000496 -0.368920
vt 3.982050 0.804447
v 756.312256 10.714079 2255.340576
vn 0.969896 0.001804 -0.243511
vt 3.807960 0.926629
v 756.312256 121.996727 2255.340576
vn 0.967782 0.000000 -0.251788
vt 3.807960 0.853757
v 756.312256 -7.745433 2255.340576
vn 0.970792 0.005947 -0.239847
vt 3.807960 0.999501
v 735.412781 -7.745430 2167.969971
vn 0.964306 0.020193 -0.264018
vt 3.896486 0.999501
v 710.669189 -7.745426 2090.506104
vn 0.926051 -0.004624 -0.377371
vt 3.982050 0.999501
f 3/3/3 1/1/1 2/2/2
f 1/1/1 3/3/3 4/4/4
f 11/11/11 4/4/4 3/3/3
f 4/4/4 11/11/11 12/12/12
f 10/10/10 6/6/6 9/9/9
f 5/5/5 9/9/9 6/6/6
f 9/9/9 5/5/5 18/18/18
f 14/14/14 18/18/18 5/5/5
f 18/18/18 14/14/14 17/17/17
f 15/15/15 17/17/17 14/14/14
f 17/17/17 15/15/15 24/24/24
f 20/20/20 24/24/24 15/15/15
f 24/24/24 20/20/20 23/23/23
f 21/21/21 23/23/23 20/20/20
f 23/23/23 21/21/21 30/30/30
f 26/26/26 30/30/30 21/21/21
f 30/30/30 26/26/26 29/29/29
f 27/27/27 29/29/29 26/26/26
f 29/29/29 27/27/27 36/36/36
f 32/32/32 36/36/36 27/27/27
f 36/36/36 32/32/32 35/35/35
f 33/33/33 35/35/35 32/32/32
f 19/19/19 20/20/20 16/16/16
f 15/15/15 16/16/16 20/20/20
f 16/16/16 15/15/15 13/13/13
f 14/14/14 13/13/13 15/15/15
f 13/13/13 14/14/14 8/8/8
f 5/5/5 8/8/8 14/14/14
f 8/8/8 5/5/5 7/7/7
f 6/6/6 7/7/7 5/5/5
f 46/46/46 45/45/45 43/43/43
f 44/44/44 43/43/43 45/45/45
f 43/43/43 44/44/44 40/40/40
f 39/39/39 40/40/40 44/44/44
f 40/40/40 39/39/39 37/37/37
f 38/38/38 37/37/37 39/39/39
f 37/37/37 38/38/38 34/34/34
f 33/33/33 34/34/34 38/38/38
f 34/34/34 33/33/33 31/31/31
f 32/32/32 31/31/31 33/33/33
f 31/31/31 32/32/32 28/28/28
f 27/27/27 28/28/28 32/32/32
f 28/28/28 27/27/27 25/25/25
f 26/26/26 25/25/25 27/27/27
f 25/25/25 26/26/26 22/22/22
f 21/21/21 22/22/22 26/26/26
f 22/22/22 21/21/21 19/19/19
f 20/20/20 19/19/19 21/21/21
f 35/35/35 33/33/33 42/42/42
f 38/38/38 42/42/42 33/33/33
f 42/42/42 38/38/38 41/41/41
f 39/39/39 41/41/41 38/38/38
f 41/41/41 39/39/39 48/48/48
f 44/44/44 48/48/48 39/39/39
f 48/48/48 44/44/44 47/47/47
f 45/45/45 47/47/47 44/44/44
f 54/54/54 53/53/53 50/50/50
f 51/51/51 50/50/50 53/53/53
f 50/50/50 51/51/51 49/49/49
f 52/52/52 49/49/49 51/51/51
f 57/57/57 52/52/52 56/56/56
f 51/51/51 56/56/56 52/52/52
f 56/56/56 51/51/51 55/55/55
f 53/53/53 55/55/55 51/51/51
