mtllib HTOWN01_MILLPLATFORM01.mtl
g MillPlatform01
usemtl ChickenTable
v -2212.349121 -1644.589722 -7326.868164
vn 0.000000 -0.707107 -0.707107
vt 0.139928 0.998501
v -2188.995850 -1644.589722 -7326.868164
vn 0.577350 -0.577350 -0.577350
vt 0.000070 0.998501
v -2188.995850 -1644.589722 -7147.125488
vn 0.707107 -0.707107 0.000000
vt 0.000070 0.570358
v -2212.349121 -1644.589722 -7147.125488
vn 0.000000 -1.000000 0.000000
vt 0.139929 0.570358
v -2307.752441 -1644.589722 -7326.868164
vn 0.000000 -0.707107 -0.707107
vt 3.996974 0.333500
v -2307.752441 -1644.589722 -7147.125488
vn 0.000000 -1.000000 0.000000
vt 3.140696 0.333500
v -2462.730225 -1644.589722 -7147.125488
vn 0.000000 -1.000000 0.000000
vt 3.140696 0.666500
v -2462.730225 -1644.589722 -7326.868164
vn 0.000000 -0.707107 -0.707107
vt 3.996974 0.666500
v -2574.369629 -1644.589722 -7326.868164
vn -0.577351 -0.577350 -0.577350
vt 0.139930 0.998501
v -2551.942383 -1644.589722 -7326.868164
vn 0.000000 -0.707107 -0.707107
vt 0.000075 0.998501
v -2551.942383 -1644.589722 -7147.125488
vn 0.000000 -1.000000 0.000000
vt 0.000075 0.570358
v -2574.369629 -1644.589722 -7147.125488
vn -0.707107 -0.707107 0.000000
vt 0.139930 0.570358
v -2188.995850 -1644.589722 -6967.382813
vn 0.707107 -0.707107 0.000000
vt 0.000071 0.142215
v -2212.349121 -1644.589722 -6967.382813
vn 0.000000 -1.000000 0.000000
vt 0.139929 0.142215
v -2307.752441 -1644.589722 -7147.125488
vn 0.000000 -1.000000 0.000000
vt 0.859284 0.690336
v -2307.752441 -1644.589722 -6967.382813
vn 0.000000 -1.000000 0.000000
vt 1.715570 0.690336
v -2462.730225 -1644.589722 -6967.382813
vn 0.000000 -1.000000 0.000000
vt 1.715570 0.289601
v -2462.730225 -1644.589722 -7147.125488
vn 0.000000 -1.000000 0.000000
vt 0.859284 0.289601
v -2551.942383 -1644.589722 -6967.382813
vn 0.000000 -1.000000 0.000000
vt 0.000075 0.142215
v -2574.369629 -1644.589722 -6967.382813
vn -0.707107 -0.707107 0.000000
vt 0.139930 0.142215
v -2188.995850 -1644.589722 -6787.640137
vn 0.707107 -0.707107 0.000000
vt 0.000071 -0.285928
v -2212.349121 -1644.589722 -6787.640137
vn 0.000000 -1.000000 0.000000
vt 0.139929 -0.285928
v -2307.752441 -1644.589722 -6787.640137
vn 0.000000 -1.000000 0.000000
vt 2.571857 0.690336
v -2462.730225 -1644.589722 -6787.640137
vn 0.000000 -1.000000 0.000000
vt 2.571857 0.289601
v -2551.942383 -1644.589722 -6787.640137
vn 0.000000 -1.000000 0.000000
vt 0.000076 -0.285928
v -2574.369629 -1644.589722 -6787.640137
vn -0.707107 -0.707107 0.000000
vt 0.139930 -0.285928
v -2188.995605 -1644.589722 -6607.896973
vn 0.707107 -0.707107 0.000000
vt 0.000071 -0.714072
v -2212.349121 -1644.589722 -6607.896973
vn 0.000000 -1.000000 0.000000
vt 0.139929 -0.714072
v -2307.752197 -1644.589722 -6607.896973
vn 0.000000 -1.000000 0.000000
vt 3.428143 0.690336
v -2462.730225 -1644.589722 -6607.896973
vn 0.000000 -1.000000 0.000000
vt 3.428143 0.289601
v -2551.942383 -1644.589722 -6607.896973
vn 0.000000 -1.000000 0.000000
vt 0.000076 -0.714072
v -2574.369629 -1644.589722 -6607.896973
vn -0.707107 -0.707107 0.000000
vt 0.139930 -0.714072
v -2188.995605 -1644.589722 -6607.896973
vn 0.707107 -0.707107 0.000000
vt 0.139930 -0.714072
v -2188.995605 -1644.589722 -6428.154297
vn 0.707107 -0.707107 0.000000
vt 0.139930 -1.142215
v -2212.348877 -1644.589722 -6428.154297
vn 0.000000 -1.000000 0.000000
vt 0.139930 -1.142215
v -2307.752197 -1644.589722 -6607.896973
vn 0.000000 -1.000000 0.000000
vt 2.428143 0.690336
v -2307.752197 -1644.589722 -6428.154297
vn 0.000000 -1.000000 0.000000
vt 3.284430 0.690336
v -2462.730225 -1644.589722 -6428.154297
vn 0.000000 -1.000000 0.000000
vt 3.284430 0.289601
v -2462.730225 -1644.589722 -6607.896973
vn 0.000000 -1.000000 0.000000
vt 2.428143 0.289601
v -2551.942383 -1644.589722 -6428.154297
vn 0.000000 -1.000000 0.000000
vt 0.000076 -1.142215
v -2574.369629 -1644.589722 -6428.154297
vn -0.707107 -0.707107 0.000000
vt 0.139930 -1.142215
v -2188.995605 -1644.589722 -6428.154297
vn 0.707107 -0.707107 0.000000
vt 0.000071 -1.142215
v -2188.995605 -1644.589722 -6248.411621
vn 0.707107 -0.707107 0.000000
vt 0.000072 -1.570358
v -2212.348877 -1644.589722 -6248.411621
vn 0.000000 -1.000000 0.000000
vt 0.139930 -1.570358
v -2307.752197 -1644.589722 -6428.154297
vn 0.000000 -1.000000 0.000000
vt 2.284430 0.690336
v -2307.752197 -1644.589722 -6248.411621
vn 0.000000 -1.000000 0.000000
vt 3.140716 0.690336
v -2462.729980 -1644.589722 -6248.411621
vn 0.000000 -1.000000 0.000000
vt 3.140716 0.289601
v -2462.730225 -1644.589722 -6428.154297
vn 0.000000 -1.000000 0.000000
vt 2.284430 0.289601
v -2551.942383 -1644.589722 -6248.411621
vn 0.000000 -1.000000 0.000000
vt 0.000076 -1.570358
v -2574.369629 -1644.589722 -6248.411621
vn -0.707107 -0.707107 0.000000
vt 0.139930 -1.570358
v -2188.995605 -1644.589722 -6068.668945
vn 0.577350 -0.577350 0.577350
vt 0.000072 -1.998501
v -2212.348877 -1644.589722 -6068.668945
vn 0.000000 -0.707107 0.707107
vt 0.139930 -1.998501
v -2307.752197 -1644.589722 -6248.411621
vn 0.000000 -1.000000 0.000000
vt 0.859304 0.333500
v -2307.752197 -1644.589722 -6068.668945
vn 0.000000 -0.707107 0.707107
vt 0.003026 0.333500
v -2462.729980 -1644.589722 -6068.668945
vn 0.000000 -0.707107 0.707107
vt 0.003026 0.666500
v -2462.729980 -1644.589722 -6248.411621
vn 0.000000 -1.000000 0.000000
vt 0.859304 0.666500
v -2551.942383 -1644.589722 -6068.668945
vn 0.000000 -0.707107 0.707107
vt 0.000076 -1.998501
v -2574.369629 -1644.589722 -6068.668945
vn -0.577350 -0.577350 0.577350
vt 0.139930 -1.998501
v -2188.995850 -1625.619019 -7147.125488
vn 0.707107 0.707107 0.000000
vt 0.000070 0.570358
v -2188.995850 -1625.619019 -7326.868164
vn 0.577350 0.577350 -0.577350
vt -0.003439 0.999500
v -2212.349121 -1625.619019 -7326.868164
vn 0.000000 0.707107 -0.707107
vt 0.139928 0.998501
v -2212.349121 -1625.619019 -7147.125488
vn 0.000000 1.000000 0.000000
vt 0.139929 0.570358
v -2307.752441 -1625.619019 -7326.868164
vn 0.000000 0.707107 -0.707107
vt 0.000070 0.690336
v -2462.730225 -1625.619019 -7326.868164
vn 0.000000 0.707107 -0.707107
vt 0.000070 0.289601
v -2462.730225 -1625.619019 -7147.125488
vn 0.000000 1.000000 0.000000
vt 0.859284 0.289601
v -2307.752441 -1625.619019 -7147.125488
vn 0.000000 1.000000 0.000000
vt 0.859284 0.690336
v -2551.942383 -1625.619019 -7147.125488
vn 0.000000 1.000000 0.000000
vt 0.000075 0.570358
v -2551.942383 -1625.619019 -7326.868164
vn 0.000000 0.707107 -0.707107
vt 0.000075 0.998501
v -2574.369629 -1625.619019 -7326.868164
vn -0.577350 0.577350 -0.577350
vt 0.149924 0.998501
v -2574.369629 -1625.619019 -7147.125488
vn -0.707107 0.707107 0.000000
vt 0.149924 0.570358
v -2188.995850 -1625.619019 -6967.382813
vn 0.707107 0.707107 0.000000
vt 0.000071 0.142215
v -2212.349121 -1625.619019 -6967.382813
vn 0.000000 1.000000 0.000000
vt 0.139929 0.142215
v -2462.730225 -1625.619019 -6967.382813
vn 0.000000 1.000000 0.000000
vt 1.715570 0.289601
v -2307.752441 -1625.619019 -6967.382813
vn 0.000000 1.000000 0.000000
vt 1.715570 0.690336
v -2551.942383 -1625.619019 -6967.382813
vn 0.000000 1.000000 0.000000
vt 0.000075 0.142215
v -2574.369629 -1625.619019 -6967.382813
vn -0.707107 0.707107 0.000000
vt 0.149924 0.142215
v -2188.995850 -1625.619019 -6787.640137
vn 0.707107 0.707107 0.000000
vt 0.000071 -0.285928
v -2212.349121 -1625.619019 -6787.640137
vn 0.000000 1.000000 0.000000
vt 0.139929 -0.285928
v -2462.730225 -1625.619019 -6787.640137
vn 0.000000 1.000000 0.000000
vt 2.571857 0.289601
v -2307.752441 -1625.619019 -6787.640137
vn 0.000000 1.000000 0.000000
vt 2.571857 0.690336
v -2551.942383 -1625.619019 -6787.640137
vn 0.000000 1.000000 0.000000
vt 0.000076 -0.285928
v -2574.369629 -1625.619019 -6787.640137
vn -0.707107 0.707107 0.000000
vt 0.149924 -0.285928
v -2188.995605 -1625.619019 -6607.896973
vn 0.707107 0.707107 0.000000
vt 0.000071 -0.714072
v -2212.349121 -1625.619019 -6607.896973
vn 0.000000 1.000000 0.000000
vt 0.139929 -0.714072
v -2462.730225 -1625.619019 -6607.896973
vn 0.000000 1.000000 0.000000
vt 3.428143 0.289601
v -2307.752197 -1625.619019 -6607.896973
vn 0.000000 1.000000 0.000000
vt 3.428143 0.690336
v -2551.942383 -1625.619019 -6607.896973
vn 0.000000 1.000000 0.000000
vt 0.000076 -0.714072
v -2574.369629 -1625.619019 -6607.896973
vn -0.707107 0.707107 0.000000
vt 0.149925 -0.714072
v -2188.995605 -1625.619019 -6428.154297
vn 0.707107 0.707107 0.000000
vt 0.000071 -1.142215
v -2212.348877 -1625.619019 -6428.154297
vn 0.000000 1.000000 0.000000
vt 0.139930 -1.142215
v -2307.752197 -1625.619019 -6607.896973
vn 0.000000 1.000000 0.000000
vt 2.428143 0.690336
v -2462.730225 -1625.619019 -6607.896973
vn 0.000000 1.000000 0.000000
vt 2.428143 0.289601
v -2462.730225 -1625.619019 -6428.154297
vn 0.000000 1.000000 0.000000
vt 3.284430 0.289601
v -2307.752197 -1625.619019 -6428.154297
vn 0.000000 1.000000 0.000000
vt 3.284430 0.690336
v -2551.942383 -1625.619019 -6428.154297
vn 0.000000 1.000000 0.000000
vt 0.000076 -1.142215
v -2574.369629 -1625.619019 -6428.154297
vn -0.707107 0.707107 0.000000
vt 0.149925 -1.142215
v -2188.995605 -1625.619019 -6248.411621
vn 0.707107 0.707107 0.000000
vt 0.000072 -1.570358
v -2212.348877 -1625.619019 -6248.411621
vn 0.000000 1.000000 0.000000
vt 0.139930 -1.570358
v -2307.752197 -1625.619019 -6428.154297
vn 0.000000 1.000000 0.000000
vt 2.284430 0.690336
v -2462.730225 -1625.619019 -6428.154297
vn 0.000000 1.000000 0.000000
vt 2.284430 0.289601
v -2462.729980 -1625.619019 -6248.411621
vn 0.000000 1.000000 0.000000
vt 3.140716 0.289601
v -2307.752197 -1625.619019 -6248.411621
vn 0.000000 1.000000 0.000000
vt 3.140716 0.690336
v -2551.942383 -1625.619019 -6248.411621
vn 0.000000 1.000000 0.000000
vt 0.000076 -1.570358
v -2574.369629 -1625.619019 -6248.411621
vn -0.707107 0.707107 0.000000
vt 0.149925 -1.570358
v -2188.995605 -1625.619019 -6068.668945
vn 0.577350 0.577350 0.577350
vt 0.000072 -1.998501
v -2212.348877 -1625.619019 -6068.668945
vn 0.000000 0.707107 0.707107
vt 0.139930 -1.998501
v -2462.729980 -1625.619019 -6068.668945
vn 0.000000 0.707107 0.707107
vt 3.997003 0.289601
v -2307.752197 -1625.619019 -6068.668945
vn 0.000000 0.707107 0.707107
vt 3.997003 0.690336
v -2551.942383 -1625.619019 -6068.668945
vn 0.000000 0.707107 0.707107
vt 0.000076 -1.998501
v -2574.369629 -1625.619019 -6068.668945
vn -0.577350 0.577350 0.577350
vt 0.149925 -1.998501
v -2188.995850 -1644.589722 -7326.868164
vn 0.577350 -0.577350 -0.577350
vt 0.139930 0.998501
v -2212.349121 -1644.589722 -7326.868164
vn 0.000000 -0.707107 -0.707107
vt 0.146408 0.910201
v -2212.349121 -1625.619019 -7326.868164
vn 0.000000 0.707107 -0.707107
vt -0.003439 0.910201
v -2307.752441 -1644.589722 -7326.868164
vn 0.000000 -0.707107 -0.707107
vt 0.139928 0.690336
v -2462.730225 -1644.589722 -7326.868164
vn 0.000000 -0.707107 -0.707107
vt 0.139928 0.289601
v -2551.942383 -1625.619019 -7326.868164
vn 0.000000 0.707107 -0.707107
vt -0.003439 0.093264
v -2551.942383 -1644.589722 -7326.868164
vn 0.000000 -0.707107 -0.707107
vt 0.146409 0.093264
v -2574.369629 -1644.589722 -7326.868164
vn -0.577351 -0.577350 -0.577350
vt 0.146409 0.000499
v -2574.369629 -1625.619019 -7326.868164
vn -0.577350 0.577350 -0.577350
vt -0.003439 0.000499
v -2574.369629 -1625.619019 -7147.125488
vn -0.707107 0.707107 0.000000
vt 0.000070 0.570358
v -2574.369629 -1625.619019 -7326.868164
vn -0.577350 0.577350 -0.577350
vt 0.000070 0.998501
v -2574.369629 -1625.619019 -6967.382813
vn -0.707107 0.707107 0.000000
vt 0.000070 0.142215
v -2574.369629 -1625.619019 -6787.640137
vn -0.707107 0.707107 0.000000
vt 0.000070 -0.285928
v -2574.369629 -1625.619019 -6607.896973
vn -0.707107 0.707107 0.000000
vt 0.000070 -0.714072
v -2574.369629 -1625.619019 -6428.154297
vn -0.707107 0.707107 0.000000
vt 0.000070 -1.142215
v -2574.369629 -1625.619019 -6248.411621
vn -0.707107 0.707107 0.000000
vt 0.000070 -1.570358
v -2574.369629 -1625.619019 -6068.668945
vn -0.577350 0.577350 0.577350
vt 0.000070 -1.998501
v -2551.942383 -1625.619019 -6068.668945
vn 0.000000 0.707107 0.707107
vt 0.000072 0.000500
v -2551.942383 -1644.589722 -6068.668945
vn 0.000000 -0.707107 0.707107
vt 0.139930 0.000500
v -2462.729980 -1644.589722 -6068.668945
vn 0.000000 -0.707107 0.707107
vt 0.139930 0.289601
v -2462.729980 -1625.619019 -6068.668945
vn 0.000000 0.707107 0.707107
vt 0.000072 0.289601
v -2307.752197 -1644.589722 -6068.668945
vn 0.000000 -0.707107 0.707107
vt 0.139930 0.690336
v -2307.752197 -1625.619019 -6068.668945
vn 0.000000 0.707107 0.707107
vt 0.000072 0.690336
v -2212.348877 -1644.589722 -6068.668945
vn 0.000000 -0.707107 0.707107
vt 0.139930 0.999501
v -2212.348877 -1625.619019 -6068.668945
vn 0.000000 0.707107 0.707107
vt 0.000072 0.999501
v -2188.995605 -1644.589722 -6068.668945
vn 0.577350 -0.577350 0.577350
vt 0.139930 -1.998501
v -2188.995605 -1644.589722 -6248.411621
vn 0.707107 -0.707107 0.000000
vt 0.139930 -1.570358
v -2188.995850 -1644.589722 -6787.640137
vn 0.707107 -0.707107 0.000000
vt 0.139930 -0.285928
v -2188.995850 -1644.589722 -6967.382813
vn 0.707107 -0.707107 0.000000
vt 0.139930 0.142215
v -2188.995850 -1644.589722 -7147.125488
vn 0.707107 -0.707107 0.000000
vt 0.139930 0.570358
v -2212.349121 -1644.589722 -7326.868164
vn 0.000000 -0.707107 -0.707107
vt 0.002998 0.999501
v -2212.349121 -1644.589722 -7147.125488
vn 0.000000 -1.000000 0.000000
vt 0.859284 0.999500
v -2307.752441 -1644.589722 -7326.868164
vn 0.000000 -0.707107 -0.707107
vt 0.002998 0.690337
v -2212.349121 -1644.589722 -6967.382813
vn 0.000000 -1.000000 0.000000
vt 1.715571 0.999500
v -2212.349121 -1644.589722 -6787.640137
vn 0.000000 -1.000000 0.000000
vt 2.571857 0.999500
v -2212.349121 -1644.589722 -6607.896973
vn 0.000000 -1.000000 0.000000
vt 3.428144 0.999500
v -2212.349121 -1644.589722 -6607.896973
vn 0.000000 -1.000000 0.000000
vt 2.428144 0.999500
v -2212.348877 -1644.589722 -6428.154297
vn 0.000000 -1.000000 0.000000
vt 3.284430 0.999500
v -2212.348877 -1644.589722 -6428.154297
vn 0.000000 -1.000000 0.000000
vt 2.284430 0.999500
v -2212.348877 -1644.589722 -6248.411621
vn 0.000000 -1.000000 0.000000
vt 3.140716 0.999500
v -2212.348877 -1644.589722 -6068.668945
vn 0.000000 -0.707107 0.707107
vt 3.997003 0.999499
v -2307.752197 -1644.589722 -6068.668945
vn 0.000000 -0.707107 0.707107
vt 3.997003 0.690336
v -2212.349121 -1625.619019 -7147.125488
vn 0.000000 1.000000 0.000000
vt 0.859284 0.999500
v -2212.349121 -1625.619019 -7326.868164
vn 0.000000 0.707107 -0.707107
vt 0.000070 0.999500
v -2212.349121 -1625.619019 -6967.382813
vn 0.000000 1.000000 0.000000
vt 1.715571 0.999500
v -2212.349121 -1625.619019 -6787.640137
vn 0.000000 1.000000 0.000000
vt 2.571857 0.999500
v -2212.349121 -1625.619019 -6607.896973
vn 0.000000 1.000000 0.000000
vt 3.428144 0.999500
v -2212.348877 -1625.619019 -6428.154297
vn 0.000000 1.000000 0.000000
vt 3.284430 0.999500
v -2212.349121 -1625.619019 -6607.896973
vn 0.000000 1.000000 0.000000
vt 2.428144 0.999500
v -2212.348877 -1625.619019 -6248.411621
vn 0.000000 1.000000 0.000000
vt 3.140716 0.999500
v -2212.348877 -1625.619019 -6428.154297
vn 0.000000 1.000000 0.000000
vt 2.284430 0.999500
v -2212.348877 -1625.619019 -6068.668945
vn 0.000000 0.707107 0.707107
vt 3.997003 0.999499
v -2212.348877 -1625.619019 -6068.668945
vn 0.000000 0.707107 0.707107
vt -0.003437 0.910201
v -2212.348877 -1644.589722 -6068.668945
vn 0.000000 -0.707107 0.707107
vt 0.146411 0.910201
v -2188.995605 -1644.589722 -6068.668945
vn 0.577350 -0.577350 0.577350
vt 0.146411 0.999501
v -2188.995605 -1625.619019 -6068.668945
vn 0.577350 0.577350 0.577350
vt -0.003437 0.999501
v -2462.730225 -1644.589722 -7326.868164
vn 0.000000 -0.707107 -0.707107
vt 0.002997 0.289602
v -2551.942383 -1644.589722 -7147.125488
vn 0.000000 -1.000000 0.000000
vt 0.859284 0.000500
v -2551.942383 -1644.589722 -7326.868164
vn 0.000000 -0.707107 -0.707107
vt 0.002997 0.000501
v -2551.942383 -1644.589722 -6967.382813
vn 0.000000 -1.000000 0.000000
vt 1.715570 0.000500
v -2551.942383 -1644.589722 -6787.640137
vn 0.000000 -1.000000 0.000000
vt 2.571856 0.000500
v -2551.942383 -1644.589722 -6607.896973
vn 0.000000 -1.000000 0.000000
vt 3.428143 0.000500
v -2551.942383 -1644.589722 -6428.154297
vn 0.000000 -1.000000 0.000000
vt 3.284430 0.000500
v -2551.942383 -1644.589722 -6607.896973
vn 0.000000 -1.000000 0.000000
vt 2.428143 0.000500
v -2551.942383 -1644.589722 -6248.411621
vn 0.000000 -1.000000 0.000000
vt 3.140716 0.000500
v -2551.942383 -1644.589722 -6428.154297
vn 0.000000 -1.000000 0.000000
vt 2.284430 0.000500
v -2462.729980 -1644.589722 -6068.668945
vn 0.000000 -0.707107 0.707107
vt 3.997003 0.289601
v -2551.942383 -1644.589722 -6068.668945
vn 0.000000 -0.707107 0.707107
vt 3.997003 0.000499
v -2551.942383 -1625.619019 -7326.868164
vn 0.000000 0.707107 -0.707107
vt 0.000070 0.000499
v -2551.942383 -1625.619019 -7147.125488
vn 0.000000 1.000000 0.000000
vt 0.859284 0.000500
v -2551.942383 -1625.619019 -6967.382813
vn 0.000000 1.000000 0.000000
vt 1.715570 0.000500
v -2551.942383 -1625.619019 -6787.640137
vn 0.000000 1.000000 0.000000
vt 2.571856 0.000500
v -2551.942383 -1625.619019 -6607.896973
vn 0.000000 1.000000 0.000000
vt 3.428143 0.000500
v -2551.942383 -1625.619019 -6607.896973
vn 0.000000 1.000000 0.000000
vt 2.428143 0.000500
v -2551.942383 -1625.619019 -6428.154297
vn 0.000000 1.000000 0.000000
vt 3.284430 0.000500
v -2551.942383 -1625.619019 -6428.154297
vn 0.000000 1.000000 0.000000
vt 2.284430 0.000500
v -2551.942383 -1625.619019 -6248.411621
vn 0.000000 1.000000 0.000000
vt 3.140716 0.000500
v -2551.942383 -1625.619019 -6068.668945
vn 0.000000 0.707107 0.707107
vt 3.997003 0.000499
v -2551.942383 -1644.589722 -7326.868164
vn 0.000000 -0.707107 -0.707107
vt 0.139928 0.000499
v -2574.369629 -1625.619019 -6068.668945
vn -0.577350 0.577350 0.577350
vt -0.003437 0.000500
v -2574.369629 -1644.589722 -6068.668945
vn -0.577350 -0.577350 0.577350
vt 0.146411 0.000500
v -2551.942383 -1644.589722 -6068.668945
vn 0.000000 -0.707107 0.707107
vt 0.146411 0.093264
v -2551.942383 -1625.619019 -6068.668945
vn 0.000000 0.707107 0.707107
vt -0.003437 0.093264
f 55/55/55 53/53/53 54/54/54
f 53/53/53 55/55/55 56/56/56
f 60/60/60 111/111/111 112/112/112
f 111/111/111 60/60/60 140/140/140
f 59/59/59 140/140/140 60/60/60
f 140/140/140 59/59/59 139/139/139
f 71/71/71 139/139/139 59/59/59
f 139/139/139 71/71/71 138/138/138
f 77/77/77 138/138/138 71/71/71
f 138/138/138 77/77/77 33/33/33
f 83/83/83 33/33/33 77/77/77
f 33/33/33 83/83/83 34/34/34
f 89/89/89 34/34/34 83/83/83
f 34/34/34 89/89/89 137/137/137
f 97/97/97 137/137/137 89/89/89
f 137/137/137 97/97/97 136/136/136
f 105/105/105 136/136/136 97/97/97
f 112/112/112 113/113/113 60/60/60
f 60/60/60 61/61/61 59/59/59
f 62/62/62 59/59/59 61/61/61
f 59/59/59 62/62/62 71/71/71
f 72/72/72 71/71/71 62/62/62
f 71/71/71 72/72/72 77/77/77
f 78/78/78 77/77/77 72/72/72
f 77/77/77 78/78/78 83/83/83
f 84/84/84 83/83/83 78/78/78
f 83/83/83 84/84/84 89/89/89
f 90/90/90 89/89/89 84/84/84
f 89/89/89 90/90/90 97/97/97
f 98/98/98 97/97/97 90/90/90
f 97/97/97 98/98/98 105/105/105
f 106/106/106 105/105/105 98/98/98
f 34/34/34 28/28/28 33/33/33
f 28/28/28 34/34/34 35/35/35
f 43/43/43 35/35/35 42/42/42
f 35/35/35 43/43/43 44/44/44
f 51/51/51 44/44/44 43/43/43
f 44/44/44 51/51/51 52/52/52
f 3/3/3 1/1/1 2/2/2
f 1/1/1 3/3/3 4/4/4
f 13/13/13 4/4/4 3/3/3
f 4/4/4 13/13/13 14/14/14
f 21/21/21 14/14/14 13/13/13
f 14/14/14 21/21/21 22/22/22
f 27/27/27 22/22/22 21/21/21
f 22/22/22 27/27/27 28/28/28
f 1/1/1 114/114/114 154/154/154
f 63/63/63 154/154/154 114/114/114
f 154/154/154 63/63/63 153/153/153
f 66/66/66 153/153/153 63/63/63
f 153/153/153 66/66/66 155/155/155
f 74/74/74 155/155/155 66/66/66
f 155/155/155 74/74/74 156/156/156
f 80/80/80 156/156/156 74/74/74
f 156/156/156 80/80/80 157/157/157
f 86/86/86 157/157/157 80/80/80
f 64/64/64 114/114/114 115/115/115
f 114/114/114 64/64/64 63/63/63
f 65/65/65 63/63/63 64/64/64
f 63/63/63 65/65/65 66/66/66
f 73/73/73 66/66/66 65/65/65
f 66/66/66 73/73/73 74/74/74
f 79/79/79 74/74/74 73/73/73
f 74/74/74 79/79/79 80/80/80
f 85/85/85 80/80/80 79/79/79
f 80/80/80 85/85/85 86/86/86
f 115/115/115 189/189/189 64/64/64
f 179/179/179 64/64/64 189/189/189
f 64/64/64 179/179/179 65/65/65
f 180/180/180 65/65/65 179/179/179
f 65/65/65 180/180/180 73/73/73
f 181/181/181 73/73/73 180/180/180
f 73/73/73 181/181/181 79/79/79
f 182/182/182 79/79/79 181/181/181
f 79/79/79 182/182/182 85/85/85
f 183/183/183 85/85/85 182/182/182
f 11/11/11 9/9/9 10/10/10
f 9/9/9 11/11/11 12/12/12
f 19/19/19 12/12/12 11/11/11
f 12/12/12 19/19/19 20/20/20
f 25/25/25 20/20/20 19/19/19
f 20/20/20 25/25/25 26/26/26
f 31/31/31 26/26/26 25/25/25
f 26/26/26 31/31/31 32/32/32
f 40/40/40 32/32/32 31/31/31
f 32/32/32 40/40/40 41/41/41
f 49/49/49 41/41/41 40/40/40
f 41/41/41 49/49/49 50/50/50
f 57/57/57 50/50/50 49/49/49
f 50/50/50 57/57/57 58/58/58
f 58/58/58 127/127/127 50/50/50
f 126/126/126 50/50/50 127/127/127
f 50/50/50 126/126/126 41/41/41
f 125/125/125 41/41/41 126/126/126
f 41/41/41 125/125/125 32/32/32
f 124/124/124 32/32/32 125/125/125
f 32/32/32 124/124/124 26/26/26
f 123/123/123 26/26/26 124/124/124
f 26/26/26 123/123/123 20/20/20
f 122/122/122 20/20/20 123/123/123
f 20/20/20 122/122/122 12/12/12
f 120/120/120 12/12/12 122/122/122
f 12/12/12 120/120/120 9/9/9
f 121/121/121 9/9/9 120/120/120
f 68/68/68 69/69/69 67/67/67
f 70/70/70 67/67/67 69/69/69
f 67/67/67 70/70/70 75/75/75
f 76/76/76 75/75/75 70/70/70
f 75/75/75 76/76/76 81/81/81
f 82/82/82 81/81/81 76/76/76
f 81/81/81 82/82/82 87/87/87
f 88/88/88 87/87/87 82/82/82
f 87/87/87 88/88/88 95/95/95
f 96/96/96 95/95/95 88/88/88
f 95/95/95 96/96/96 103/103/103
f 104/104/104 103/103/103 96/96/96
f 103/103/103 104/104/104 109/109/109
f 110/110/110 109/109/109 104/104/104
f 146/146/146 29/29/29 145/145/145
f 23/23/23 145/145/145 29/29/29
f 145/145/145 23/23/23 144/144/144
f 16/16/16 144/144/144 23/23/23
f 144/144/144 16/16/16 142/142/142
f 15/15/15 142/142/142 16/16/16
f 142/142/142 15/15/15 141/141/141
f 143/143/143 141/141/141 15/15/15
f 29/29/29 30/30/30 23/23/23
f 24/24/24 23/23/23 30/30/30
f 23/23/23 24/24/24 16/16/16
f 17/17/17 16/16/16 24/24/24
f 16/16/16 17/17/17 15/15/15
f 18/18/18 15/15/15 17/17/17
f 30/30/30 172/172/172 24/24/24
f 171/171/171 24/24/24 172/172/172
f 24/24/24 171/171/171 17/17/17
f 170/170/170 17/17/17 171/171/171
f 17/17/17 170/170/170 18/18/18
f 168/168/168 18/18/18 170/170/170
f 18/18/18 168/168/168 167/167/167
f 169/169/169 167/167/167 168/168/168
f 37/37/37 147/147/147 148/148/148
f 147/147/147 37/37/37 36/36/36
f 38/38/38 36/36/36 37/37/37
f 36/36/36 38/38/38 39/39/39
f 173/173/173 39/39/39 38/38/38
f 39/39/39 173/173/173 174/174/174
f 46/46/46 149/149/149 150/150/150
f 149/149/149 46/46/46 45/45/45
f 47/47/47 45/45/45 46/46/46
f 45/45/45 47/47/47 48/48/48
f 175/175/175 48/48/48 47/47/47
f 48/48/48 175/175/175 176/176/176
f 152/152/152 150/150/150 151/151/151
f 150/150/150 152/152/152 46/46/46
f 178/178/178 47/47/47 177/177/177
f 47/47/47 178/178/178 175/175/175
f 93/93/93 92/92/92 184/184/184
f 92/92/92 93/93/93 91/91/91
f 94/94/94 91/91/91 93/93/93
f 91/91/91 94/94/94 158/158/158
f 158/158/158 159/159/159 91/91/91
f 184/184/184 185/185/185 93/93/93
f 101/101/101 100/100/100 186/186/186
f 100/100/100 101/101/101 99/99/99
f 102/102/102 99/99/99 101/101/101
f 99/99/99 102/102/102 160/160/160
f 162/162/162 160/160/160 102/102/102
f 160/160/160 161/161/161 99/99/99
f 186/186/186 187/187/187 101/101/101
f 107/107/107 101/101/101 187/187/187
f 101/101/101 107/107/107 102/102/102
f 108/108/108 102/102/102 107/107/107
f 102/102/102 108/108/108 162/162/162
f 187/187/187 188/188/188 107/107/107
f 130/130/130 128/128/128 129/129/129
f 128/128/128 130/130/130 131/131/131
f 133/133/133 130/130/130 132/132/132
f 130/130/130 133/133/133 131/131/131
f 134/134/134 133/133/133 132/132/132
f 133/133/133 134/134/134 135/135/135
f 118/118/118 116/116/116 117/117/117
f 116/116/116 118/118/118 119/119/119
f 165/165/165 163/163/163 164/164/164
f 163/163/163 165/165/165 166/166/166
f 192/192/192 190/190/190 191/191/191
f 190/190/190 192/192/192 193/193/193
f 7/7/7 5/5/5 6/6/6
f 5/5/5 7/7/7 8/8/8
