mtllib HTOWN01_BAGROW1AWNING2.mtl
g BagRow1Awning2
usemtl Material_#69
v -1340.385010 -1427.366943 -2333.858887
vn 0.028850 0.017177 -0.999436
vt -0.001750 1.000602
v -1476.076172 -1398.145874 -2335.405029
vn -0.136354 -0.055720 -0.989092
vt 0.257195 0.990784
v -1473.620117 -1380.485107 -2336.898926
vn -0.041144 0.374211 -0.926430
vt 0.260071 0.534684
v -1336.658569 -1408.048340 -2333.234619
vn 0.142466 0.519183 -0.842705
vt 0.001369 0.573805
v -1605.001343 -1357.785278 -2300.107422
vn -0.210907 0.465402 -0.859604
vt 0.498941 0.501396
v -1607.542236 -1374.352661 -2302.692871
vn -0.276383 0.191864 -0.941701
vt 0.499223 0.988752
v -1605.854492 -1343.551514 -2285.467773
vn -0.199128 0.528473 -0.825266
vt 0.497577 0.014494
v -1474.117065 -1370.040649 -2325.134277
vn 0.017979 0.527032 -0.849655
vt 0.260118 0.014943
v -1335.444336 -1400.828613 -2318.147461
vn 0.241247 0.939952 -0.241435
vt -0.000086 0.019275
v -1726.857300 -1333.131958 -2241.630127
vn -0.397022 0.527285 -0.751228
vt 0.768756 0.016704
v -1726.730957 -1347.309570 -2251.476318
vn -0.420859 0.393630 -0.817272
vt 0.767527 0.502131
v -1827.138794 -1349.037476 -2177.947266
vn -0.547832 0.371165 -0.749744
vt 0.997091 0.504030
v -1827.854858 -1333.105835 -2169.419189
vn -0.778301 0.593028 -0.206314
vt 0.999038 0.016571
v -1728.301758 -1362.653931 -2255.295166
vn -0.450921 0.264296 -0.852536
vt 0.765057 0.987785
v -1826.422852 -1364.969116 -2186.475586
vn -0.537329 0.379124 -0.753354
vt 0.993743 0.991491
f 15/15/15 12/12/12 14/14/14
f 11/11/11 14/14/14 12/12/12
f 14/14/14 11/11/11 6/6/6
f 5/5/5 6/6/6 11/11/11
f 6/6/6 5/5/5 2/2/2
f 3/3/3 2/2/2 5/5/5
f 2/2/2 3/3/3 1/1/1
f 4/4/4 1/1/1 3/3/3
f 9/9/9 4/4/4 8/8/8
f 3/3/3 8/8/8 4/4/4
f 8/8/8 3/3/3 7/7/7
f 5/5/5 7/7/7 3/3/3
f 7/7/7 5/5/5 10/10/10
f 11/11/11 10/10/10 5/5/5
f 10/10/10 11/11/11 13/13/13
f 12/12/12 13/13/13 11/11/11
usemtl thatchRoof
v -1605.854492 -1343.551514 -2285.467773
vn -0.199128 0.528473 -0.825266
vt 0.497302 0.998706
v -1726.857300 -1333.131958 -2241.630127
vn -0.397022 0.527285 -0.751228
vt 0.765122 0.993936
v -1702.339722 -1332.757202 -2201.395020
vn 0.018212 0.999048 0.039650
vt 0.764001 0.700452
v -1484.263184 -1362.722046 -2204.455811
vn 0.292952 0.951958 0.089192
vt 0.256981 0.465469
v -1383.329102 -1400.492798 -2206.731934
vn 0.351789 0.918118 0.182494
vt -0.001021 0.469086
v -1357.832642 -1398.327637 -2266.194336
vn 0.292913 0.951899 0.089950
vt -0.002561 0.724827
v -1798.555664 -1340.060059 -2140.966553
vn 0.064790 0.985845 0.154633
vt 0.995010 0.672102
v -1595.250366 -1337.461548 -2239.014648
vn 0.099684 0.991807 -0.079883
vt 0.496116 0.729264
v -1827.854858 -1333.105835 -2169.419189
vn -0.778301 0.593028 -0.206314
vt 0.996282 0.990450
v -1752.635376 -1348.983276 -2114.721680
vn 0.005214 0.978294 0.207158
vt 0.994936 0.460695
v -1670.550049 -1336.205566 -2158.281494
vn 0.001656 0.990695 0.136088
vt 0.764489 0.461273
v -1586.723267 -1337.048950 -2184.597168
vn 0.135590 0.988833 0.061842
vt 0.496950 0.461491
v -1477.893799 -1363.795532 -2268.663574
vn 0.233280 0.971569 -0.040428
vt 0.255791 0.724921
v -1474.117065 -1370.040649 -2325.134277
vn 0.017979 0.527032 -0.849655
vt 0.257007 0.994424
v -1335.444336 -1400.828613 -2318.147461
vn 0.241247 0.939952 -0.241435
vt -0.001308 0.999001
v -1725.893555 -1353.381592 -2091.188721
vn -0.014820 0.974348 0.224559
vt 0.998990 0.238999
v -1650.484375 -1345.954834 -2114.084961
vn 0.034372 0.970916 0.236942
vt 0.766442 0.242416
v -1630.895630 -1361.199219 -2064.503174
vn 0.064562 0.963759 0.258843
vt 0.764587 0.001204
v -1699.345703 -1359.749023 -2060.758789
vn 0.030628 0.983364 0.179046
vt 0.999363 0.001101
v -1562.714600 -1366.574585 -2072.361572
vn 0.196022 0.945762 0.259054
vt 0.488060 0.001730
v -1574.338867 -1347.301270 -2130.416260
vn 0.180518 0.960032 0.213897
vt 0.494472 0.245863
v -1498.289795 -1381.538208 -2088.939453
vn 0.306127 0.927902 0.212803
vt 0.256146 0.004822
v -1491.826294 -1369.789917 -2147.596680
vn 0.319983 0.928362 0.189092
vt 0.256909 0.241035
v -1410.211060 -1400.289917 -2158.042725
vn 0.359788 0.912005 0.196974
vt -0.001138 0.234891
v -1434.134033 -1400.427124 -2109.631592
vn 0.326971 0.930657 0.164217
vt 0.001298 0.005643
f 37/37/37 40/40/40 39/39/39
f 35/35/35 37/37/37 38/38/38
f 39/39/39 38/38/38 37/37/37
f 38/38/38 39/39/39 20/20/20
f 33/33/33 31/31/31 34/34/34
f 31/31/31 33/33/33 32/32/32
f 35/35/35 32/32/32 33/33/33
f 32/32/32 35/35/35 36/36/36
f 38/38/38 36/36/36 35/35/35
f 36/36/36 38/38/38 19/19/19
f 20/20/20 19/19/19 38/38/38
f 19/19/19 20/20/20 21/21/21
f 32/32/32 25/25/25 31/31/31
f 25/25/25 32/32/32 26/26/26
f 36/36/36 26/26/26 32/32/32
f 26/26/26 36/36/36 27/27/27
f 19/19/19 27/27/27 36/36/36
f 27/27/27 19/19/19 28/28/28
f 21/21/21 28/28/28 19/19/19
f 28/28/28 21/21/21 30/30/30
f 22/22/22 25/25/25 18/18/18
f 26/26/26 18/18/18 25/25/25
f 18/18/18 26/26/26 23/23/23
f 27/27/27 23/23/23 26/26/26
f 23/23/23 27/27/27 28/28/28
f 24/24/24 22/22/22 17/17/17
f 18/18/18 17/17/17 22/22/22
f 17/17/17 18/18/18 16/16/16
f 23/23/23 16/16/16 18/18/18
f 16/16/16 23/23/23 29/29/29
f 28/28/28 29/29/29 23/23/23
f 29/29/29 28/28/28 30/30/30
