mtllib HTOWN01_MILLROOF03.mtl
g MillRoof03
usemtl Material_#71
v -2896.131592 -1680.719727 -6235.521973
vn -0.332475 0.925784 0.179956
vt 0.200900 -0.348920
v -2948.207031 -1711.008789 -6199.849609
vn -0.445511 0.845640 0.293962
vt 0.074412 -0.154274
v -2896.107178 -1695.035767 -6191.703613
vn -0.236071 0.816095 0.527503
vt 0.199821 -0.172658
v -2981.850342 -1741.819702 -6171.745605
vn -0.455743 0.738827 0.496421
vt 0.000719 0.004603
v -2957.731445 -1737.004150 -6168.357422
vn -0.196797 0.668265 0.717421
vt 0.082489 0.004885
v -2898.519043 -1716.204834 -6174.010254
vn -0.166795 0.632039 0.756773
vt 0.200901 0.003818
v -2958.393066 -1714.298218 -6235.667969
vn -0.595556 0.802464 0.036952
vt 0.024059 -0.350407
v -2990.761230 -1747.056641 -6235.515625
vn -0.697418 0.716405 -0.019296
vt -0.064594 -0.348890
v -2992.462158 -1746.160156 -6187.678711
vn -0.679307 0.723094 0.125211
vt -0.048531 -0.094454
v -2896.442627 -1675.350586 -6850.065918
vn -0.344903 0.925921 -0.153989
vt 1.702037 -0.384532
v -2952.142578 -1706.484741 -6899.833008
vn -0.445924 0.874358 -0.191443
vt 1.862857 -0.187515
v -2958.447266 -1709.031128 -6849.893555
vn -0.594805 0.803575 -0.021784
vt 1.894340 -0.386011
v -2990.179443 -1735.933472 -6939.247559
vn -0.558382 0.673833 -0.483899
vt 1.998774 0.031091
v -2996.251465 -1740.680298 -6910.279297
vn -0.764367 0.644644 -0.013295
vt 2.018466 -0.184629
v -2990.761230 -1741.289795 -6850.113770
vn -0.723051 0.690733 0.009183
vt 2.008995 -0.384122
v -2895.459473 -1688.594116 -6904.514648
vn -0.266863 0.898493 -0.348560
vt 1.701955 -0.181606
v -2897.989502 -1705.791870 -6933.955078
vn -0.195479 0.724396 -0.661089
vt 1.702036 0.022300
v -2961.631348 -1728.854614 -6941.909180
vn -0.215723 0.689604 -0.691310
vt 1.890207 0.024921
v -2607.625732 -1617.621460 -6235.517578
vn -0.220777 0.973371 0.061695
vt 0.997385 -0.348900
v -2760.159912 -1650.613647 -6236.530273
vn -0.217320 0.966348 0.137638
vt 0.564703 -0.347958
v -2761.274170 -1656.184692 -6195.533691
vn -0.236419 0.890407 0.388949
vt 0.564683 -0.140403
v -2609.326416 -1619.120483 -6191.211914
vn -0.248435 0.937793 0.242538
vt 0.997395 -0.109101
v -2762.410400 -1668.748535 -6181.150879
vn -0.200144 0.677078 0.708172
vt 0.565733 0.003824
v -2608.634277 -1627.752319 -6174.008301
vn -0.225705 0.751237 0.620242
vt 0.997385 0.003828
v -2760.406982 -1643.779175 -6848.222656
vn -0.222143 0.967343 -0.122062
vt 1.382251 -0.381934
v -2760.586914 -1652.330566 -6901.264160
vn -0.230259 0.932096 -0.279603
vt 1.382119 -0.184346
v -2608.456543 -1617.050537 -6906.887207
vn -0.224091 0.942658 -0.247343
vt 1.002731 -0.188622
v -2607.367432 -1609.241577 -6850.312988
vn -0.220461 0.971871 -0.082851
vt 1.002083 -0.382412
v -2608.135254 -1629.115967 -6937.373047
vn -0.212652 0.790976 -0.573704
vt 1.002083 0.008257
v -2761.818359 -1664.987183 -6928.757813
vn -0.206669 0.768525 -0.605523
vt 1.381420 0.015277
f 10/10/10 11/11/11 12/12/12
f 14/14/14 12/12/12 11/11/11
f 12/12/12 14/14/14 15/15/15
f 13/13/13 14/14/14 11/11/11
f 28/28/28 27/27/27 25/25/25
f 26/26/26 25/25/25 27/27/27
f 25/25/25 26/26/26 10/10/10
f 16/16/16 10/10/10 26/26/26
f 10/10/10 16/16/16 11/11/11
f 18/18/18 11/11/11 16/16/16
f 11/11/11 18/18/18 13/13/13
f 27/27/27 29/29/29 26/26/26
f 30/30/30 26/26/26 29/29/29
f 26/26/26 30/30/30 16/16/16
f 17/17/17 16/16/16 30/30/30
f 16/16/16 17/17/17 18/18/18
f 24/24/24 22/22/22 23/23/23
f 21/21/21 23/23/23 22/22/22
f 23/23/23 21/21/21 6/6/6
f 3/3/3 6/6/6 21/21/21
f 6/6/6 3/3/3 5/5/5
f 2/2/2 5/5/5 3/3/3
f 5/5/5 2/2/2 4/4/4
f 9/9/9 4/4/4 2/2/2
f 22/22/22 19/19/19 21/21/21
f 20/20/20 21/21/21 19/19/19
f 21/21/21 20/20/20 3/3/3
f 1/1/1 3/3/3 20/20/20
f 3/3/3 1/1/1 2/2/2
f 7/7/7 2/2/2 1/1/1
f 2/2/2 7/7/7 9/9/9
f 8/8/8 9/9/9 7/7/7
usemtl Material_#69
v -2992.462158 -1746.160156 -6187.678711
vn -0.679307 0.723094 0.125211
vt 0.076152 0.018480
v -2990.761230 -1747.056641 -6235.515625
vn -0.697418 0.716405 -0.019296
vt 0.165092 0.017147
v -3022.999512 -1776.859375 -6234.727539
vn -0.814541 0.580101 0.002415
vt 0.164989 0.757092
v -2991.596436 -1746.283813 -6394.662598
vn -0.750512 0.660852 0.002669
vt 0.554149 0.017139
v -3020.289307 -1776.792358 -6394.274902
vn -0.849432 0.527402 -0.017662
vt 0.554137 0.808602
v -3022.999512 -1776.859375 -6234.727539
vn -0.814541 0.580101 0.002415
vt 0.165175 0.808600
v -3033.609619 -1812.315063 -6709.262207
vn -0.940111 0.339267 0.033010
vt 1.225898 0.981826
v -3027.370850 -1812.689697 -6542.676758
vn -0.956064 0.293115 0.004966
vt 0.918144 0.981820
v -3016.773682 -1777.496948 -6542.666016
vn -0.875663 0.482873 0.006902
vt 0.918120 0.808597
v -3019.690430 -1774.087769 -6710.643066
vn -0.852690 0.521754 0.026307
vt 1.228985 0.808599
v -3022.853027 -1772.839355 -6850.204102
vn -0.830200 0.555889 -0.041894
vt 1.476316 0.808594
v -3039.933838 -1812.689697 -6850.338867
vn -0.919081 0.388971 -0.063174
vt 1.476618 0.981818
v -2990.557617 -1742.387085 -6712.048340
vn -0.753767 0.657019 0.012694
vt 1.232127 0.017137
v -2990.761230 -1741.289795 -6850.113770
vn -0.723051 0.690733 0.009183
vt 1.476114 0.017136
v -2981.850342 -1741.819702 -6171.745605
vn -0.455743 0.738827 0.496421
vt 0.004162 0.017147
v -3022.276123 -1781.780518 -6174.135742
vn -0.822273 0.541966 0.173607
vt 0.066468 0.781900
v -3015.361816 -1785.871704 -6146.903320
vn -0.562849 0.576119 0.592695
vt 0.003987 0.805372
v -3039.933838 -1812.689819 -6233.719727
vn -0.908186 0.418383 0.012380
vt 0.164272 0.981828
v -3036.348389 -1818.302856 -6163.593262
vn -0.891363 0.421872 0.165819
vt 0.057591 0.981838
v -3032.693604 -1825.700317 -6128.281738
vn -0.605477 0.532572 0.591409
vt 0.006041 0.981839
v -2990.761230 -1747.056519 -6542.659668
vn -0.775374 0.631445 0.008526
vt 0.918106 0.017138
v -3033.622559 -1812.690918 -6393.779785
vn -0.934834 0.353906 -0.028907
vt 0.554137 0.981829
v -2996.251465 -1740.680298 -6910.279297
vn -0.764367 0.644644 -0.013295
vt 1.588356 0.016138
v -3022.352539 -1781.079956 -6918.692871
vn -0.897912 0.422070 -0.124946
vt 1.586858 0.671212
v -3016.028320 -1787.921509 -6956.795898
vn -0.685240 0.383196 -0.619360
vt 1.668032 0.534824
v -2990.179443 -1735.933472 -6939.247559
vn -0.558382 0.673833 -0.483899
vt 1.667868 0.017135
v -3025.717773 -1835.330566 -6964.993164
vn -0.743892 0.264972 -0.613527
vt 1.670010 0.981826
v -3032.868408 -1823.340698 -6922.453613
vn -0.947250 0.274157 -0.166001
vt 1.586316 0.981825
f 32/32/32 33/33/33 31/31/31
f 46/46/46 31/31/31 33/33/33
f 31/31/31 46/46/46 45/45/45
f 47/47/47 45/45/45 46/46/46
f 50/50/50 47/47/47 49/49/49
f 46/46/46 49/49/49 47/47/47
f 49/49/49 46/46/46 48/48/48
f 33/33/33 48/48/48 46/46/46
f 36/36/36 32/32/32 35/35/35
f 34/34/34 35/35/35 32/32/32
f 35/35/35 34/34/34 39/39/39
f 51/51/51 39/39/39 34/34/34
f 39/39/39 51/51/51 40/40/40
f 43/43/43 40/40/40 51/51/51
f 40/40/40 43/43/43 41/41/41
f 44/44/44 41/41/41 43/43/43
f 41/41/41 44/44/44 54/54/54
f 53/53/53 54/54/54 44/44/44
f 54/54/54 53/53/53 55/55/55
f 56/56/56 55/55/55 53/53/53
f 48/48/48 36/36/36 52/52/52
f 35/35/35 52/52/52 36/36/36
f 52/52/52 35/35/35 38/38/38
f 39/39/39 38/38/38 35/35/35
f 38/38/38 39/39/39 37/37/37
f 40/40/40 37/37/37 39/39/39
f 37/37/37 40/40/40 42/42/42
f 41/41/41 42/42/42 40/40/40
f 42/42/42 41/41/41 58/58/58
f 54/54/54 58/58/58 41/41/41
f 58/58/58 54/54/54 57/57/57
f 55/55/55 57/57/57 54/54/54
usemtl Material_#73
v -2612.022949 -1654.681030 -6156.128906
vn -0.147936 0.482131 0.863519
vt 0.997594 0.508901
v -2769.058105 -1701.400391 -6158.330566
vn -0.141746 0.512545 0.846880
vt 0.578135 0.496961
v -2777.516357 -1738.031006 -6142.055664
vn -0.083584 0.416406 0.905329
vt 0.592622 0.977716
v -2613.954590 -1686.004395 -6144.949219
vn -0.091506 0.339740 0.936057
vt 0.997768 0.977721
v -2898.519043 -1716.204834 -6174.010254
vn -0.166795 0.632039 0.756773
vt 0.200901 0.003818
v -2957.731445 -1737.004150 -6168.357422
vn -0.196797 0.668265 0.717421
vt 0.082489 0.004885
v -2983.624023 -1777.317383 -6144.906250
vn -0.164228 0.519402 0.838600
vt 0.072212 0.496388
v -3015.361816 -1785.871704 -6146.903320
vn -0.562849 0.576119 0.592695
vt 0.001599 0.507081
v -2909.595947 -1751.917725 -6147.429199
vn -0.152924 0.555986 0.817003
vt 0.223444 0.485021
v -2608.634277 -1627.752319 -6174.008301
vn -0.225705 0.751237 0.620242
vt 0.997385 0.003828
v -2762.410400 -1668.748535 -6181.150879
vn -0.200144 0.677078 0.708172
vt 0.565733 0.003824
v -2925.751221 -1791.193848 -6127.240723
vn -0.152894 0.497282 0.854011
vt 0.250192 0.977710
v -3003.965576 -1817.300659 -6127.761230
vn -0.146688 0.456760 0.877413
vt 0.063297 0.977708
v -3032.693604 -1825.700317 -6128.281738
vn -0.605477 0.532572 0.591409
vt 0.006041 0.981839
v -2981.850342 -1741.819702 -6171.745605
vn -0.455743 0.738827 0.496421
vt 0.004162 0.017147
v -2984.083496 -1778.009033 -6962.109863
vn -0.214004 0.370864 -0.903694
vt 1.911539 0.657924
v -3016.028320 -1787.921509 -6956.795898
vn -0.685240 0.383196 -0.619360
vt 2.000399 0.768702
v -2990.179443 -1735.933472 -6939.247559
vn -0.558382 0.673833 -0.483899
vt 1.998774 0.031091
v -2780.590332 -1753.172607 -6980.723145
vn -0.125847 0.438392 -0.889930
vt 1.408120 0.993532
v -2926.744873 -1799.916138 -6980.724609
vn -0.150628 0.368430 -0.917372
vt 1.751179 0.993545
v -2909.848389 -1751.251099 -6962.115234
vn -0.130807 0.460267 -0.878091
vt 1.720465 0.548919
v -3000.974609 -1826.476929 -6972.858887
vn -0.289790 0.259603 -0.921210
vt 1.938417 0.992650
v -2770.226807 -1707.425903 -6959.288574
vn -0.146481 0.520179 -0.841402
vt 1.391690 0.545267
v -2613.154297 -1665.003662 -6963.367676
vn -0.164201 0.524255 -0.835581
vt 1.002138 0.541617
v -2617.045898 -1704.301514 -6980.721680
vn -0.134297 0.416747 -0.899047
vt 1.002230 0.993523
v -2761.818359 -1664.987183 -6928.757813
vn -0.206669 0.768525 -0.605523
vt 1.381420 0.015277
v -2608.135254 -1629.115967 -6937.373047
vn -0.212652 0.790976 -0.573704
vt 1.002083 0.008257
v -2961.631348 -1728.854614 -6941.909180
vn -0.215723 0.689604 -0.691310
vt 1.890207 0.024922
v -2897.989502 -1705.791870 -6933.955078
vn -0.195479 0.724396 -0.661089
vt 1.702036 0.022300
v -3025.717773 -1835.330566 -6964.993164
vn -0.743892 0.264972 -0.613527
vt 2.000830 0.991753
f 62/62/62 59/59/59 61/61/61
f 60/60/60 61/61/61 59/59/59
f 61/61/61 60/60/60 70/70/70
f 67/67/67 70/70/70 60/60/60
f 70/70/70 67/67/67 71/71/71
f 65/65/65 71/71/71 67/67/67
f 71/71/71 65/65/65 72/72/72
f 66/66/66 72/72/72 65/65/65
f 73/73/73 66/66/66 64/64/64
f 65/65/65 64/64/64 66/66/66
f 64/64/64 65/65/65 63/63/63
f 67/67/67 63/63/63 65/65/65
f 63/63/63 67/67/67 69/69/69
f 60/60/60 69/69/69 67/67/67
f 69/69/69 60/60/60 68/68/68
f 59/59/59 68/68/68 60/60/60
f 88/88/88 75/75/75 80/80/80
f 74/74/74 80/80/80 75/75/75
f 80/80/80 74/74/74 78/78/78
f 79/79/79 78/78/78 74/74/74
f 78/78/78 79/79/79 77/77/77
f 81/81/81 77/77/77 79/79/79
f 77/77/77 81/81/81 83/83/83
f 82/82/82 83/83/83 81/81/81
f 75/75/75 76/76/76 74/74/74
f 86/86/86 74/74/74 76/76/76
f 74/74/74 86/86/86 79/79/79
f 87/87/87 79/79/79 86/86/86
f 79/79/79 87/87/87 81/81/81
f 84/84/84 81/81/81 87/87/87
f 81/81/81 84/84/84 82/82/82
f 85/85/85 82/82/82 84/84/84
usemtl thatchRoof
v -2957.882813 -1704.076050 -6543.220703
vn -0.684360 0.729059 0.011140
vt 0.916731 0.917073
v -2958.059814 -1702.913330 -6712.300781
vn -0.661130 0.750219 -0.008848
vt 1.231775 0.917073
v -2990.557617 -1742.387085 -6712.048340
vn -0.753767 0.657019 0.012694
vt 1.231842 0.999500
v -2894.825439 -1661.010620 -6542.661133
vn -0.391128 0.920287 0.009506
vt 0.916736 0.749750
v -2895.626953 -1662.686279 -6712.189941
vn -0.378437 0.924916 -0.036288
vt 1.231778 0.749750
v -2958.447266 -1709.031128 -6849.893555
vn -0.594805 0.803575 -0.021784
vt 1.476346 0.917073
v -2990.761230 -1741.289795 -6850.113770
vn -0.723051 0.690733 0.009183
vt 1.476466 0.999500
v -2896.442627 -1675.350586 -6850.065918
vn -0.344903 0.925921 -0.153989
vt 1.476358 0.749750
v -2990.761230 -1747.056519 -6542.659668
vn -0.775374 0.631445 0.008526
vt 0.916732 0.999500
v -2991.596436 -1746.283813 -6394.662598
vn -0.750512 0.660852 0.002669
vt 0.553126 0.999500
v -2990.761230 -1747.056641 -6235.515625
vn -0.697418 0.716405 -0.019296
vt 0.164359 0.999500
v -2958.393066 -1714.298218 -6235.667969
vn -0.595556 0.802464 0.036952
vt 0.164388 0.917073
v -2959.458984 -1706.921875 -6394.866699
vn -0.662529 0.748546 0.027083
vt 0.553146 0.917073
v -2897.285645 -1667.107544 -6394.361816
vn -0.395069 0.917257 0.050605
vt 0.553184 0.749750
v -2896.131592 -1680.719727 -6235.521973
vn -0.332475 0.925784 0.179956
vt 0.164447 0.749750
v -2607.625732 -1617.621460 -6235.517578
vn -0.220777 0.973371 0.061695
vt 0.164710 0.000500
v -2609.018555 -1612.380249 -6394.577637
vn -0.182153 0.983013 0.022479
vt 0.553303 0.000500
v -2761.353271 -1641.258911 -6394.688965
vn -0.187248 0.981553 0.038629
vt 0.553255 0.406553
v -2760.159912 -1650.613647 -6236.530273
vn -0.217320 0.966348 0.137638
vt 0.164600 0.406553
v -2759.353760 -1637.944092 -6542.092285
vn -0.173664 0.984753 0.010068
vt 0.916742 0.406553
v -2607.639648 -1611.703003 -6542.666016
vn -0.174871 0.984535 0.010503
vt 0.916747 0.000500
v -2608.041504 -1607.076416 -6712.229492
vn -0.197860 0.980226 -0.002989
vt 1.232081 0.000500
v -2760.145752 -1636.416504 -6710.940918
vn -0.191955 0.981130 -0.023177
vt 1.231944 0.406553
v -2760.406982 -1643.779175 -6848.222656
vn -0.222143 0.967343 -0.122062
vt 1.476664 0.406553
v -2607.367432 -1609.241577 -6850.312988
vn -0.220461 0.971871 -0.082851
vt 1.476914 0.000500
f 99/99/99 100/100/100 98/98/98
f 101/101/101 98/98/98 100/100/100
f 98/98/98 101/101/101 97/97/97
f 89/89/89 97/97/97 101/101/101
f 97/97/97 89/89/89 91/91/91
f 90/90/90 91/91/91 89/89/89
f 91/91/91 90/90/90 95/95/95
f 94/94/94 95/95/95 90/90/90
f 96/96/96 94/94/94 93/93/93
f 90/90/90 93/93/93 94/94/94
f 93/93/93 90/90/90 92/92/92
f 89/89/89 92/92/92 90/90/90
f 92/92/92 89/89/89 102/102/102
f 101/101/101 102/102/102 89/89/89
f 102/102/102 101/101/101 103/103/103
f 100/100/100 103/103/103 101/101/101
f 103/103/103 107/107/107 102/102/102
f 106/106/106 102/102/102 107/107/107
f 102/102/102 106/106/106 92/92/92
f 108/108/108 92/92/92 106/106/106
f 92/92/92 108/108/108 93/93/93
f 111/111/111 93/93/93 108/108/108
f 93/93/93 111/111/111 96/96/96
f 112/112/112 96/96/96 111/111/111
f 107/107/107 104/104/104 106/106/106
f 105/105/105 106/106/106 104/104/104
f 106/106/106 105/105/105 108/108/108
f 109/109/109 108/108/108 105/105/105
f 108/108/108 109/109/109 111/111/111
f 110/110/110 111/111/111 109/109/109
f 111/111/111 110/110/110 112/112/112
f 113/113/113 112/112/112 110/110/110
