mtllib HTOWN01_TREESHADOWS03.mtl
g TreeShadows03
usemtl treeshade
v -6928.681152 -2062.375244 -4133.198730
vn 0.673557 0.642045 -0.366195
vt 3.743719 -3.328784
v -6803.071289 -2127.360840 -4363.584961
vn 0.156146 0.969606 -0.188366
vt 3.566572 -2.928106
v -6982.936523 -2131.880859 -4535.951172
vn 0.256394 0.946114 -0.197816
vt 3.820236 -2.628334
v -7103.136230 -2074.404785 -4460.919922
vn 0.749273 0.565925 -0.343976
vt 3.989754 -2.758824
v -7803.186035 -1277.075562 -5049.750488
vn -0.010096 0.998794 -0.048049
vt 3.977032 -3.734755
v -7571.687012 -1275.482056 -5054.607422
vn 0.158840 0.987246 0.010715
vt 3.650549 -3.726308
v -7571.443848 -1256.066650 -5173.206543
vn 0.151322 0.975849 0.157544
vt 3.650208 -3.520044
v -7803.066895 -1260.879883 -5169.935547
vn -0.018705 0.990871 0.133508
vt 3.976864 -3.525734
v -7402.523926 -1331.701782 -5055.245605
vn 0.740314 0.671955 0.020288
vt 3.411978 -3.725198
v -7401.770996 -1311.136353 -5173.810059
vn 0.680895 0.720866 0.129361
vt 3.410917 -3.518995
v -7350.347168 -1502.723633 -5047.756348
vn 0.988665 0.148274 0.023602
vt 3.338394 -3.738223
v -7347.863770 -1487.927368 -5169.073242
vn 0.984127 0.171991 0.043747
vt 3.334892 -3.527233
v -7346.192871 -1726.137085 -5038.519531
vn 0.997954 0.051824 0.037433
vt 3.332537 -3.754287
v -7341.583496 -1718.861084 -5161.568848
vn 0.998831 0.028434 0.039097
vt 3.326035 -3.540285
v -7803.147949 -1262.129517 -4944.981934
vn -0.012105 0.947156 -0.320544
vt 3.976978 -3.916964
v -7571.638184 -1260.421509 -4949.880859
vn 0.157629 0.937539 -0.310119
vt 3.650480 -3.908443
v -7779.895996 -1162.024292 -4767.455078
vn 0.008101 0.845696 -0.533603
vt 3.944187 -3.225711
v -7553.233887 -1167.419312 -4772.473145
vn 0.172654 0.840346 -0.513818
vt 3.624525 -3.216984
v -7571.638184 -1260.421509 -4949.880859
vn 0.157629 0.937539 -0.310119
vt 3.650480 -2.908443
v -7803.147949 -1262.129517 -4944.981934
vn -0.012105 0.947156 -0.320544
vt 3.976978 -2.916964
v -7384.910645 -1237.166504 -4770.747559
vn 0.687560 0.588520 -0.425329
vt 3.387138 -3.219984
v -7403.135254 -1317.647461 -4948.904297
vn 0.728132 0.647988 -0.223463
vt 3.412842 -2.910142
v -7403.135254 -1317.647461 -4948.904297
vn 0.728132 0.647988 -0.223463
vt 3.412842 -3.910142
v -7352.991699 -1492.250000 -4938.199707
vn 0.984584 0.143099 -0.100586
vt 3.342125 -3.928759
v -7324.789551 -1433.048462 -4758.658203
vn 0.953545 0.152107 -0.260028
vt 3.302351 -3.241011
v -7352.991699 -1492.250000 -4938.199707
vn 0.984584 0.143099 -0.100586
vt 3.342125 -2.928759
v -7312.476074 -1684.073853 -4749.472656
vn 0.955730 0.078202 -0.283663
vt 3.284985 -3.256985
v -7350.992676 -1719.991821 -4928.461426
vn 0.993854 0.060225 -0.092878
vt 3.339306 -2.945696
v -7350.992676 -1719.991821 -4928.461426
vn 0.993854 0.060225 -0.092878
vt 3.339306 -3.945696
v -7710.386230 -922.057922 -4429.776855
vn 0.075852 0.840513 -0.536456
vt 3.846157 -3.812986
v -7498.532715 -952.448486 -4436.996582
vn 0.288846 0.814892 -0.502512
vt 3.547380 -3.800431
v -7575.576660 -688.089966 -3986.495850
vn 0.184973 0.918227 -0.350205
vt 3.656036 -3.583924
v -7382.681152 -756.986572 -4007.708252
vn 0.450864 0.814005 -0.366221
vt 3.383997 -3.547031
v -7498.532715 -952.448486 -4436.996582
vn 0.288846 0.814892 -0.502512
vt 3.547380 -2.800431
v -7710.386230 -922.057922 -4429.776855
vn 0.075852 0.840513 -0.536456
vt 3.846157 -2.812986
v -7229.533203 -908.053406 -4019.433838
vn 0.772594 0.525967 -0.355607
vt 3.168011 -3.526638
v -7329.055176 -1058.009766 -4437.328613
vn 0.703553 0.583992 -0.404927
vt 3.308367 -2.799853
v -7329.055176 -1058.009766 -4437.328613
vn 0.703553 0.583992 -0.404927
vt 3.308367 -3.799853
v -7234.487793 -1301.760864 -4426.621094
vn 0.911221 0.233064 -0.339642
vt 3.174997 -3.818475
v -7117.976074 -1189.194702 -4017.055908
vn 0.913395 0.288168 -0.287522
vt 3.010683 -3.530775
v -7234.487793 -1301.760864 -4426.621094
vn 0.911221 0.233064 -0.339642
vt 3.174997 -2.818475
v -7041.315918 -1524.638794 -4017.354736
vn 0.927426 0.195192 -0.319033
vt 2.902569 -3.530255
v -7186.725586 -1602.096802 -4418.591309
vn 0.921344 0.122823 -0.368835
vt 3.107639 -2.832440
v -7186.725586 -1602.096802 -4418.591309
vn 0.921344 0.122823 -0.368835
vt 3.107639 -3.832440
v -7575.576660 -688.089966 -3986.495850
vn 0.184973 0.918227 -0.350205
vt 3.656036 -2.583924
v -7356.257324 -606.427490 -3492.208008
vn 0.335481 0.935572 -0.110258
vt 3.346729 -3.443568
v -7180.670898 -722.935425 -3548.858887
vn 0.674100 0.714490 -0.187331
vt 3.099102 -3.345043
v -7382.681152 -756.986572 -4007.708252
vn 0.450864 0.814005 -0.366221
vt 3.383997 -2.547031
v -7229.533203 -908.053406 -4019.433838
vn 0.772594 0.525967 -0.355607
vt 3.168011 -2.526638
v -7080.571777 -915.438293 -3588.190186
vn 0.892473 0.381132 -0.241311
vt 2.957932 -3.276640
v -7011.536621 -1186.004395 -3605.881836
vn 0.925939 0.268365 -0.265738
vt 2.860573 -3.245872
v -7117.976074 -1189.194702 -4017.055908
vn 0.913395 0.288168 -0.287522
vt 3.010683 -2.530775
v -7041.315918 -1524.638794 -4017.354736
vn 0.927426 0.195192 -0.319033
vt 2.902569 -2.530255
v -7011.536621 -1186.004395 -3605.881836
vn 0.925939 0.268365 -0.265738
vt 3.860573 -3.245872
v -6944.298828 -1502.222290 -3628.171387
vn 0.933932 0.257751 -0.247660
vt 3.765745 -3.207107
v -7041.315918 -1524.638794 -4017.354736
vn 0.927426 0.195192 -0.319033
vt 3.902569 -2.530255
v -7326.312012 -1940.600464 -4928.870605
vn 0.942093 0.322208 -0.092970
vt 3.304499 -3.944983
v -7320.631348 -1943.424438 -5034.096680
vn 0.940170 0.338146 0.041680
vt 3.296486 -3.761979
v -7286.585449 -1922.484131 -4754.542969
vn 0.905500 0.288639 -0.311059
vt 3.248472 -3.248167
v -7326.312012 -1940.600464 -4928.870605
vn 0.942093 0.322208 -0.092970
vt 3.304499 -2.944983
v -7195.919922 -2090.564697 -4761.123047
vn 0.845697 0.452527 -0.282870
vt 3.120605 -3.236723
v -7226.844727 -2096.926270 -4929.874023
vn 0.840811 0.535501 -0.079217
vt 3.164219 -2.943238
v -7224.209473 -2097.605469 -5041.714355
vn 0.845146 0.534099 0.021581
vt 3.160501 -3.748731
v -7226.844727 -2096.926270 -4929.874023
vn 0.840811 0.535501 -0.079217
vt 3.164219 -3.943238
v -7156.911133 -1879.302734 -4425.957520
vn 0.892877 0.235913 -0.383557
vt 3.065592 -3.819630
v -6992.934570 -1839.227417 -4036.988525
vn 0.891647 0.232293 -0.388594
vt 2.834337 -3.496109
v -7156.911133 -1879.302734 -4425.957520
vn 0.892877 0.235913 -0.383557
vt 3.065592 -2.819630
v -6928.681152 -2062.375244 -4133.198730
vn 0.673557 0.642045 -0.366195
vt 2.743719 -3.328784
v -7103.136230 -2074.404785 -4460.919922
vn 0.749273 0.565925 -0.343976
vt 2.989754 -2.758824
v -7103.136230 -2074.404785 -4460.919922
vn 0.749273 0.565925 -0.343976
vt 2.989754 -3.758824
v -6850.412598 -1831.644165 -3681.802979
vn 0.921819 0.244156 -0.301060
vt 3.633337 -3.113832
v -6992.934570 -1839.227417 -4036.988525
vn 0.891647 0.232293 -0.388594
vt 3.834337 -2.496109
v -7803.186035 -1277.075562 -5049.750488
vn -0.010096 0.998794 -0.048049
vt 2.977032 -3.734755
v -8047.381348 -1277.628784 -5044.501953
vn -0.005241 0.990210 -0.139486
vt 3.321419 -3.743882
v -8047.377441 -1262.728516 -4938.725098
vn -0.008053 0.921102 -0.389238
vt 3.321415 -3.927845
v -7803.147949 -1262.129517 -4944.981934
vn -0.012105 0.947156 -0.320544
vt 2.976978 -3.916964
v -8252.294922 -1157.026611 -4753.758301
vn -0.021740 0.827257 -0.561404
vt 3.610409 -3.249532
v -8019.192871 -1157.894165 -4760.214355
vn -0.007386 0.832703 -0.553671
vt 3.281666 -3.238304
v -8047.377441 -1262.728516 -4938.725098
vn -0.008053 0.921102 -0.389238
vt 3.321415 -2.927845
v -8279.365234 -1262.730347 -4933.492188
vn -0.011412 0.862675 -0.505631
vt 3.648586 -2.936946
v -7779.895996 -1162.024292 -4767.455078
vn 0.008101 0.845696 -0.533603
vt 2.944187 -3.225711
v -7803.147949 -1262.129517 -4944.981934
vn -0.012105 0.947156 -0.320544
vt 2.976978 -2.916964
v -7934.616699 -902.396240 -4420.484375
vn 0.017218 0.844196 -0.535758
vt 3.162388 -3.829148
v -7710.386230 -922.057922 -4429.776855
vn 0.075852 0.840513 -0.536456
vt 2.846157 -3.812986
v -8170.880371 -898.875549 -4412.138672
vn -0.039228 0.847702 -0.529021
vt 3.495590 -3.843662
v -8074.604004 -648.679565 -3938.884277
vn -0.040619 0.931930 -0.360355
vt 3.359812 -3.666727
v -7807.194824 -652.046082 -3960.704834
vn 0.044706 0.942055 -0.332465
vt 2.982685 -3.628778
v -7934.616699 -902.396240 -4420.484375
vn 0.017218 0.844196 -0.535758
vt 3.162388 -2.829148
v -8170.880371 -898.875549 -4412.138672
vn -0.039228 0.847702 -0.529021
vt 3.495590 -2.843662
v -7575.576660 -688.089966 -3986.495850
vn 0.184973 0.918227 -0.350205
vt 2.656036 -3.583924
v -7710.386230 -922.057922 -4429.776855
vn 0.075852 0.840513 -0.536456
vt 2.846157 -2.812986
v -7807.194824 -652.046082 -3960.704834
vn 0.044706 0.942055 -0.332465
vt 3.982685 -2.628778
v -7650.283691 -563.280579 -3422.426514
vn 0.071096 0.996902 -0.033644
vt 3.761395 -3.564930
v -8074.604004 -648.679565 -3938.884277
vn -0.040619 0.931930 -0.360355
vt 3.359812 -2.666727
v -8002.850098 -567.419373 -3364.846924
vn -0.030671 0.999378 -0.017410
vt 3.258617 -3.665068
v -7650.283691 -563.280579 -3422.426514
vn 0.071096 0.996902 -0.033644
vt 2.761395 -3.564930
v -7807.194824 -652.046082 -3960.704834
vn 0.044706 0.942055 -0.332465
vt 2.982685 -2.628778
v -8459.585938 -1161.538574 -4751.142090
vn -0.025049 0.815841 -0.577734
vt 3.902750 -3.254082
v -8418.022461 -917.132080 -4407.808105
vn -0.069320 0.848457 -0.524705
vt 3.844133 -3.851193
v -8418.022461 -917.132080 -4407.808105
vn -0.069320 0.848457 -0.524705
vt 3.844133 -2.851193
v -8374.537109 -678.017944 -3929.452637
vn -0.101158 0.893534 -0.437452
vt 3.782806 -3.683129
f 13/13/13 14/14/14 12/12/12
f 13/13/13 24/24/24 29/29/29
f 24/24/24 13/13/13 11/11/11
f 12/12/12 11/11/11 13/13/13
f 11/11/11 12/12/12 9/9/9
f 10/10/10 9/9/9 12/12/12
f 9/9/9 10/10/10 7/7/7
f 24/24/24 11/11/11 9/9/9
f 7/7/7 6/6/6 9/9/9
f 9/9/9 23/23/23 24/24/24
f 23/23/23 9/9/9 16/16/16
f 6/6/6 16/16/16 9/9/9
f 16/16/16 6/6/6 5/5/5
f 7/7/7 5/5/5 6/6/6
f 5/5/5 7/7/7 8/8/8
f 5/5/5 15/15/15 16/16/16
f 57/57/57 13/13/13 29/29/29
f 13/13/13 57/57/57 58/58/58
f 63/63/63 57/57/57 64/64/64
f 57/57/57 63/63/63 58/58/58
f 17/17/17 19/19/19 20/20/20
f 19/19/19 17/17/17 18/18/18
f 31/31/31 18/18/18 17/17/17
f 18/18/18 31/31/31 21/21/21
f 38/38/38 21/21/21 31/31/31
f 21/21/21 38/38/38 39/39/39
f 19/19/19 21/21/21 22/22/22
f 21/21/21 19/19/19 18/18/18
f 26/26/26 22/22/22 21/21/21
f 17/17/17 30/30/30 31/31/31
f 25/25/25 21/21/21 39/39/39
f 21/21/21 25/25/25 26/26/26
f 27/27/27 26/26/26 25/25/25
f 26/26/26 27/27/27 28/28/28
f 60/60/60 28/28/28 27/27/27
f 39/39/39 27/27/27 25/25/25
f 27/27/27 39/39/39 44/44/44
f 44/44/44 65/65/65 27/27/27
f 59/59/59 27/27/27 65/65/65
f 27/27/27 59/59/59 60/60/60
f 61/61/61 60/60/60 59/59/59
f 60/60/60 61/61/61 62/62/62
f 65/65/65 61/61/61 59/59/59
f 61/61/61 65/65/65 70/70/70
f 36/36/36 34/34/34 33/33/33
f 34/34/34 36/36/36 37/37/37
f 41/41/41 36/36/36 40/40/40
f 36/36/36 41/41/41 37/37/37
f 41/41/41 42/42/42 43/43/43
f 42/42/42 41/41/41 40/40/40
f 67/67/67 42/42/42 66/66/66
f 42/42/42 67/67/67 43/43/43
f 67/67/67 68/68/68 69/69/69
f 68/68/68 67/67/67 66/66/66
f 34/34/34 32/32/32 33/33/33
f 32/32/32 34/34/34 35/35/35
f 81/81/81 83/83/83 84/84/84
f 83/83/83 81/81/81 78/78/78
f 79/79/79 78/78/78 81/81/81
f 78/78/78 79/79/79 77/77/77
f 80/80/80 77/77/77 79/79/79
f 83/83/83 77/77/77 85/85/85
f 77/77/77 83/83/83 78/78/78
f 81/81/81 82/82/82 79/79/79
f 99/99/99 77/77/77 98/98/98
f 77/77/77 99/99/99 85/85/85
f 93/93/93 46/46/46 45/45/45
f 47/47/47 45/45/45 46/46/46
f 45/45/45 47/47/47 48/48/48
f 49/49/49 48/48/48 47/47/47
f 45/45/45 92/92/92 93/93/93
f 47/47/47 50/50/50 49/49/49
f 51/51/51 49/49/49 50/50/50
f 49/49/49 51/51/51 52/52/52
f 53/53/53 52/52/52 51/51/51
f 88/88/88 87/87/87 90/90/90
f 87/87/87 88/88/88 86/86/86
f 89/89/89 86/86/86 88/88/88
f 86/86/86 89/89/89 100/100/100
f 90/90/90 91/91/91 88/88/88
f 100/100/100 101/101/101 86/86/86
f 54/54/54 55/55/55 56/56/56
f 71/71/71 56/56/56 55/55/55
f 56/56/56 71/71/71 72/72/72
f 75/75/75 73/73/73 74/74/74
f 73/73/73 75/75/75 76/76/76
f 96/96/96 94/94/94 95/95/95
f 94/94/94 96/96/96 97/97/97
f 3/3/3 1/1/1 2/2/2
f 1/1/1 3/3/3 4/4/4
