mtllib HTOWN01_DAMN.mtl
g Damn
usemtl StoneWall
v -3603.382080 -2021.770020 -7247.170898
vn 0.612825 0.784520 0.094730
vt 0.001324 1.112705
v -4109.840332 -2021.770020 -7339.100586
vn 0.012209 0.997012 -0.076272
vt 0.883775 1.125743
v -4113.528809 -2030.611572 -7318.181152
vn -0.140251 0.576878 0.804700
vt 0.883775 1.112705
v -3606.621338 -2030.611572 -7228.799805
vn 0.478160 0.426004 0.768039
vt 0.001324 1.112705
v -4617.181152 -2021.770020 -7426.021973
vn 0.003757 0.999815 -0.018846
vt 1.766226 1.127299
v -4620.436035 -2030.611572 -7407.562500
vn -0.149435 0.530206 0.834596
vt 1.766225 1.112705
v -5124.186523 -2021.770020 -7514.849609
vn -0.609144 0.784994 -0.112814
vt 2.648676 1.127392
v -5127.343750 -2030.611572 -7496.943848
vn -0.712537 0.422174 0.560410
vt 2.648676 1.112705
v -3600.415039 -2030.611572 -7263.997559
vn 0.715109 0.411777 -0.564853
vt 0.001324 1.117929
v -3600.415039 -2104.635986 -7263.997559
vn 0.818311 0.001203 -0.574775
vt 0.001324 1.252565
v -4107.322754 -2104.635986 -7350.572754
vn 0.178075 -0.002577 -0.984014
vt 0.883775 1.252565
v -4107.322754 -2030.611572 -7353.378906
vn 0.157664 0.476668 -0.864829
vt 0.883775 1.117929
v -4614.229980 -2104.635986 -7451.488281
vn 0.174926 -0.000625 -0.984581
vt 1.766225 1.252565
v -4614.229980 -2030.611572 -7442.760254
vn 0.138927 0.565386 -0.813042
vt 1.766225 1.117929
v -5121.137207 -2104.635986 -7532.141602
vn -0.577321 0.003727 -0.816509
vt 2.648676 1.252565
v -5121.137207 -2030.611572 -7532.141602
vn -0.479110 0.417272 -0.772229
vt 2.648676 1.117929
v -3600.415039 -2178.660156 -7263.997559
vn 0.819152 0.000000 -0.573577
vt 0.001324 1.392425
v -4107.322754 -2178.660156 -7353.378906
vn 0.171144 0.035628 -0.984602
vt 0.883775 1.392425
v -4614.229980 -2178.660156 -7442.760254
vn 0.182543 -0.108253 -0.977220
vt 1.766225 1.392425
v -5121.137207 -2178.660156 -7532.141602
vn -0.579781 -0.007431 -0.814739
vt 2.648676 1.392425
v -5121.137207 -2030.611572 -7532.141602
vn -0.479110 0.417272 -0.772229
vt 2.608746 1.112705
v -5121.137207 -2104.635986 -7532.141602
vn -0.577321 0.003727 -0.816509
vt 2.609422 1.252565
v -5127.343750 -2104.635986 -7496.943848
vn -0.818784 0.000526 0.574102
vt 2.648676 1.252565
v -5124.186523 -2021.770020 -7514.849609
vn -0.609144 0.784994 -0.112814
vt 2.608746 1.112705
v -5121.137207 -2178.660156 -7532.141602
vn -0.579781 -0.007431 -0.814739
vt 2.609422 1.392425
v -5127.343750 -2178.660156 -7496.943848
vn -0.819152 0.000000 0.573577
vt 2.648676 1.392425
v -4620.436035 -2104.635986 -7408.791992
vn -0.175823 -0.001274 0.984421
vt 1.766225 1.252565
v -4113.528809 -2104.635986 -7313.924805
vn -0.174241 -0.000320 0.984703
vt 0.883775 1.252565
v -3606.621338 -2104.635986 -7228.799805
vn 0.575399 0.001819 0.817871
vt 0.001324 1.252565
v -4620.436035 -2178.660156 -7407.562500
vn -0.172576 0.015611 0.984873
vt 1.766225 1.392425
v -4113.528809 -2178.660156 -7318.181152
vn -0.178116 -0.053179 0.982571
vt 0.883775 1.392425
v -3606.621338 -2178.660156 -7228.799805
vn 0.576605 -0.003632 0.817015
vt 0.001324 1.392425
f 21/21/21 22/22/22 23/23/23
f 26/26/26 22/22/22 25/25/25
f 22/22/22 26/26/26 23/23/23
f 30/30/30 23/23/23 26/26/26
f 23/23/23 30/30/30 27/27/27
f 31/31/31 27/27/27 30/30/30
f 27/27/27 31/31/31 28/28/28
f 32/32/32 28/28/28 31/31/31
f 28/28/28 32/32/32 29/29/29
f 17/17/17 29/29/29 32/32/32
f 29/29/29 17/17/17 10/10/10
f 18/18/18 10/10/10 17/17/17
f 10/10/10 18/18/18 11/11/11
f 19/19/19 11/11/11 18/18/18
f 11/11/11 19/19/19 13/13/13
f 20/20/20 13/13/13 19/19/19
f 13/13/13 20/20/20 15/15/15
f 11/11/11 9/9/9 10/10/10
f 9/9/9 11/11/11 12/12/12
f 13/13/13 12/12/12 11/11/11
f 12/12/12 13/13/13 14/14/14
f 15/15/15 14/14/14 13/13/13
f 14/14/14 15/15/15 16/16/16
f 23/23/23 24/24/24 21/21/21
f 24/24/24 23/23/23 8/8/8
f 27/27/27 8/8/8 23/23/23
f 8/8/8 27/27/27 6/6/6
f 28/28/28 6/6/6 27/27/27
f 6/6/6 28/28/28 3/3/3
f 29/29/29 3/3/3 28/28/28
f 3/3/3 29/29/29 4/4/4
f 10/10/10 4/4/4 29/29/29
f 4/4/4 10/10/10 1/1/1
f 9/9/9 1/1/1 10/10/10
f 1/1/1 9/9/9 2/2/2
f 12/12/12 2/2/2 9/9/9
f 2/2/2 12/12/12 5/5/5
f 14/14/14 5/5/5 12/12/12
f 5/5/5 14/14/14 7/7/7
f 16/16/16 7/7/7 14/14/14
f 7/7/7 8/8/8 5/5/5
f 6/6/6 5/5/5 8/8/8
f 5/5/5 6/6/6 2/2/2
f 3/3/3 2/2/2 6/6/6
f 2/2/2 3/3/3 1/1/1
f 4/4/4 1/1/1 3/3/3
