mtllib HTOWN01_TREESHADOWS16.mtl
g TreeShadows16
usemtl treeshade
v -2150.902588 -366.749512 -15.064082
vn -0.286971 0.846490 -0.448444
vt 3.005630 -3.490875
v -2144.515381 -561.428528 -241.632874
vn -0.338544 0.739784 -0.581470
vt 2.996621 -3.096838
v -2327.232910 -624.733154 -213.940659
vn -0.272695 0.779871 -0.563417
vt 3.254308 -3.144997
v -2454.418213 -571.584961 -112.198219
vn -0.229041 0.731407 -0.642327
vt 3.433677 -3.321943
v -2227.986328 -730.445679 -473.657898
vn -0.298579 0.838689 -0.455468
vt 3.114342 -2.693310
v -2408.192871 -745.796570 -398.784119
vn -0.191927 0.922723 -0.334284
vt 3.368486 -2.823526
v -2621.619385 -748.739380 -286.941956
vn -0.161377 0.919491 -0.358460
vt 3.669481 -3.018038
v -2903.879150 -569.921082 608.113953
vn -0.572744 0.774917 0.267336
vt 3.067551 -3.574680
v -2788.399170 -469.155823 544.507568
vn -0.436510 0.865788 0.244683
vt 2.904692 -3.464060
v -2933.746582 -532.419312 357.664734
vn -0.557064 0.829481 0.040518
vt 3.109673 -3.139111
v -3044.631592 -626.825439 323.952118
vn -0.691112 0.713086 0.117781
vt 3.266056 -3.080479
v -2647.453125 -394.216797 392.404175
vn -0.317050 0.947848 -0.032604
vt 2.705914 -3.199528
v -2880.237549 -527.654968 185.768387
vn -0.350411 0.899286 -0.261719
vt 3.034208 -2.840155
v -3091.538818 -660.770386 60.060535
vn -0.479839 0.867730 -0.129609
vt 3.332209 -2.621531
v -3066.052979 -654.299377 1032.007935
vn -0.011385 0.979311 -0.202042
vt 3.296265 -3.311901
v -3271.087402 -690.980225 952.748535
vn -0.122336 0.982796 -0.138366
vt 3.585424 -3.174055
v -3313.363770 -680.933289 1024.156494
vn -0.051995 0.955847 -0.289228
vt 3.645046 -3.298244
v -3209.730957 -655.590820 1062.018433
vn -0.118203 0.839868 -0.529763
vt 3.498894 -3.364092
v -1951.975098 -261.169800 137.459000
vn -0.230626 0.958402 -0.168160
vt 2.725082 -3.756138
v -1579.935791 -213.235641 -23.158180
vn -0.243083 0.936156 -0.254014
vt 2.200397 -3.476799
v -1687.678711 -323.605499 -201.145752
vn -0.275651 0.823910 -0.495166
vt 2.352346 -3.167252
v -1830.424194 -235.797638 231.140961
vn -0.176673 0.983046 0.049071
vt 3.553660 -3.919065
v -1511.928711 -168.174042 119.745941
vn -0.262484 0.949055 -0.174349
vt 3.104486 -3.725334
v -1579.935791 -213.235641 -23.158180
vn -0.243083 0.936156 -0.254014
vt 3.200397 -3.476799
v -1951.975098 -261.169800 137.459000
vn -0.230626 0.958402 -0.168160
vt 3.725082 -3.756138
v -1836.516602 -529.993896 -367.095490
vn -0.318365 0.719043 -0.617755
vt 2.562252 -2.878637
v -2150.902588 -366.749512 -15.064082
vn -0.286971 0.846490 -0.448444
vt 3.005630 -2.490875
v -2452.892822 -372.694427 201.985184
vn -0.271932 0.927262 -0.257367
vt 3.431526 -2.868359
v -2229.012939 -307.282440 341.736694
vn -0.163974 0.985908 0.033142
vt 3.115788 -3.111408
v -1951.975098 -261.169800 137.459000
vn -0.230626 0.958402 -0.168160
vt 2.725082 -2.756138
v -2647.453125 -394.216797 392.404175
vn -0.317050 0.947848 -0.032604
vt 3.705914 -3.199528
v -2436.300781 -365.036194 541.620239
vn -0.153017 0.958927 0.238842
vt 3.408127 -3.459038
v -2279.521240 -386.220398 635.586548
vn -0.040610 0.945537 0.322972
vt 3.187021 -3.622459
v -2082.385254 -311.630951 426.946442
vn -0.074081 0.959067 0.273318
vt 2.909000 -3.259602
v -1830.424194 -235.797638 231.140961
vn -0.176673 0.983046 0.049071
vt 2.553660 -2.919065
v -2621.619385 -748.739380 -286.941956
vn -0.161377 0.919491 -0.358460
vt 2.669481 -3.018038
v -2865.918213 -721.826843 -151.032730
vn -0.161376 0.802095 -0.574979
vt 3.014015 -3.254404
v -2749.661621 -571.291748 0.879687
vn -0.256464 0.838550 -0.480687
vt 2.850059 -3.518604
v -2749.661621 -571.291748 0.879687
vn -0.256464 0.838550 -0.480687
vt 3.850059 -3.518604
v -3105.692627 -749.026306 -143.250595
vn -0.126410 0.827371 -0.547245
vt 3.352169 -3.267939
v -3074.427490 -694.363647 -77.896446
vn -0.238966 0.870891 -0.429470
vt 3.308075 -3.381599
v -3091.538818 -660.770386 60.060535
vn -0.479839 0.867730 -0.129609
vt 3.332209 -3.621531
v -2880.237549 -527.654968 185.768387
vn -0.350411 0.899286 -0.261719
vt 3.034208 -3.840155
v -2749.661621 -571.291748 0.879687
vn -0.256464 0.838550 -0.480687
vt 3.850059 -2.518604
v -2749.661621 -571.291748 0.879687
vn -0.256464 0.838550 -0.480687
vt 2.850059 -2.518604
v -2452.892822 -372.694427 201.985184
vn -0.271932 0.927262 -0.257367
vt 3.431526 -3.868359
v -2788.399170 -469.155823 544.507568
vn -0.436510 0.865788 0.244683
vt 3.904692 -3.464060
v -2598.644531 -447.533600 689.312561
vn -0.274021 0.916260 0.292200
vt 3.637079 -3.715899
v -2709.958496 -525.970215 785.681702
vn -0.391433 0.861852 0.322477
vt 2.794065 -3.883499
v -2598.644531 -447.533600 689.312561
vn -0.274021 0.916260 0.292200
vt 2.637079 -3.715899
v -2537.741699 -499.527130 882.577576
vn -0.245752 0.928836 0.277254
vt 3.551189 -3.052017
v -2432.852295 -450.106964 786.031982
vn -0.117429 0.941409 0.316165
vt 3.403263 -2.884109
v -2598.644531 -447.533600 689.312561
vn -0.274021 0.916260 0.292200
vt 3.637079 -2.715899
v -2709.958496 -525.970215 785.681702
vn -0.391433 0.861852 0.322477
vt 3.794065 -2.883499
v -2432.852295 -450.106964 786.031982
vn -0.117429 0.941409 0.316165
vt 3.403263 -3.884109
v -2497.181641 -792.120300 -720.954651
vn -0.070088 0.990407 -0.119090
vt 3.493987 -2.263220
v -2689.583984 -791.855652 -612.165955
vn -0.069110 0.990736 -0.116904
vt 3.765331 -2.452421
v -2877.264160 -633.711060 1127.114380
vn -0.163239 0.984698 0.061007
vt 3.030018 -3.477304
v -2772.599121 -602.452820 1002.210266
vn -0.251152 0.967106 0.040350
vt 2.882408 -3.260078
v -3020.071045 -654.900513 905.043579
vn -0.173906 0.983099 -0.057208
vt 3.231417 -3.091087
v -2509.204834 -522.733704 1000.481201
vn -0.261734 0.953355 0.150365
vt 3.510944 -3.257071
v -2537.136719 -530.581055 994.418823
vn -0.316826 0.937268 0.145433
vt 3.550335 -3.246527
v -2772.599121 -602.452820 1002.210266
vn -0.251152 0.967106 0.040350
vt 3.882408 -3.260078
v -2638.089844 -575.460754 1140.898438
vn -0.289113 0.955676 0.055648
vt 3.692710 -3.501278
v -2614.842773 -552.151001 951.081421
vn -0.349213 0.913366 0.209317
vt 3.659925 -3.171156
v -2789.578613 -600.565430 852.955933
vn -0.442535 0.868182 0.224550
vt 3.906354 -3.000500
v -2986.759277 -661.581726 651.585022
vn -0.456188 0.878909 0.139323
vt 3.184437 -2.650284
v -2789.578613 -600.565430 852.955933
vn -0.442535 0.868182 0.224550
vt 2.906354 -3.000500
v -3254.033447 -695.101990 872.229736
vn -0.134451 0.989736 -0.048430
vt 3.561373 -3.034019
v -3293.979736 -704.263245 696.265015
vn -0.117336 0.992746 -0.026239
vt 3.617710 -2.727989
v -3211.864502 -766.529419 -137.067764
vn -0.606753 0.767799 -0.205756
vt 3.501902 -3.278690
v -3201.891846 -747.487976 -109.406441
vn -0.538091 0.793640 -0.283890
vt 3.487839 -3.326799
v -3224.427979 -768.000488 -28.379190
vn -0.373102 0.925280 -0.068204
vt 3.519621 -3.467718
v -3184.426758 -728.396606 4.027072
vn -0.660691 0.750224 0.025516
vt 3.463207 -3.524076
v -3184.426758 -728.396606 4.027072
vn -0.660691 0.750224 0.025516
vt 3.463207 -2.524076
v -3102.653320 -684.216797 307.846069
vn -0.743869 0.652412 0.144974
vt 3.347881 -3.052467
v -3224.427979 -768.000488 -28.379190
vn -0.373102 0.925280 -0.068204
vt 3.519621 -2.467718
v -3132.639160 -721.609741 299.645325
vn -0.465412 0.884968 0.014912
vt 3.390173 -3.038204
v -2986.759277 -661.581726 651.585022
vn -0.456188 0.878909 0.139323
vt 3.184437 -3.650284
v -2960.638672 -627.251221 638.669983
vn -0.654837 0.693388 0.300669
vt 3.147598 -3.627823
v -2764.284912 -571.807068 832.341187
vn -0.475294 0.795549 0.375763
vt 2.870683 -3.964647
v -2764.284912 -571.807068 832.341187
vn -0.475294 0.795549 0.375763
vt 2.870683 -2.964647
v -2589.743896 -530.664612 929.700928
vn -0.359291 0.878668 0.314407
vt 3.624528 -3.133972
v -2764.284912 -571.807068 832.341187
vn -0.475294 0.795549 0.375763
vt 3.870683 -2.964647
v -2512.202637 -516.340515 972.578369
vn -0.232674 0.941430 0.244074
vt 3.515172 -3.208544
v -2483.587402 -515.484497 987.814026
vn -0.194525 0.974429 0.112468
vt 3.474815 -3.235041
v -2434.015381 -501.185333 940.179260
vn -0.126863 0.971940 0.198089
vt 3.404904 -3.152195
v -2461.155762 -494.939545 925.640381
vn -0.084930 0.950539 0.298769
vt 3.443180 -3.126909
v -2358.675049 -459.561005 829.403564
vn 0.034119 0.921623 0.386583
vt 3.298651 -2.959539
v -2331.732422 -472.016266 844.886780
vn 0.005807 0.947130 0.320796
vt 3.260653 -2.986467
v -2183.098389 -419.347046 693.223450
vn -0.142572 0.964791 0.221022
vt 3.051035 -3.722700
v -2208.985352 -403.946381 677.897339
vn 0.109562 0.891280 0.440019
vt 3.087543 -3.696045
v -2358.675049 -459.561005 829.403564
vn 0.034119 0.921623 0.386583
vt 3.298651 -3.959539
v -2331.732422 -472.016266 844.886780
vn 0.005807 0.947130 0.320796
vt 3.260653 -3.986467
v -2016.374146 -321.819702 465.367310
vn 0.044919 0.910315 0.411472
vt 2.815906 -3.326424
v -1991.896851 -334.411102 479.349396
vn -0.088709 0.942421 0.322448
vt 2.781385 -3.350739
v -1755.310913 -240.922333 287.852417
vn -0.128249 0.950204 0.284016
vt 3.447727 -3.017696
v -1775.794556 -232.883240 273.003113
vn -0.072584 0.936774 0.342326
vt 3.476616 -2.991869
v -2016.374146 -321.819702 465.367310
vn 0.044919 0.910315 0.411472
vt 3.815906 -3.326424
v -1991.896851 -334.411102 479.349396
vn -0.088709 0.942421 0.322448
vt 3.781385 -3.350739
v -1830.424194 -235.797638 231.140961
vn -0.176673 0.983046 0.049071
vt 3.553660 -2.919065
v -2082.385254 -311.630951 426.946442
vn -0.074081 0.959067 0.273318
vt 3.909000 -3.259602
v -3220.403564 -777.728638 -166.766129
vn -0.384843 0.919860 -0.075855
vt 3.513945 -3.227043
v -3259.924561 -788.577271 -157.648361
vn -0.125872 0.984498 -0.122147
vt 3.569681 -3.242899
v -2975.822021 -772.133850 -202.434906
vn -0.118551 0.872120 -0.474712
vt 3.169012 -3.165007
v -3138.795166 -770.809509 -180.272446
vn -0.056516 0.881767 -0.468288
vt 3.398853 -3.203552
v -2918.187744 -780.526489 -281.880585
vn -0.107857 0.985831 -0.128465
vt 3.087730 -3.026840
v -2689.583984 -791.855652 -612.165955
vn -0.069110 0.990736 -0.116904
vt 2.765331 -2.452421
v -2939.604004 -793.637939 -465.354858
vn -0.090355 0.991961 -0.088593
vt 3.117935 -2.707748
v -3423.013428 -729.694824 338.159241
vn -0.038228 0.997438 -0.060472
vt 3.799686 -3.105186
v -3293.979736 -704.263245 696.265015
vn -0.117336 0.992746 -0.026239
vt 3.617710 -3.727989
v -3550.119385 -771.106567 -84.773239
vn 0.030797 0.990551 -0.133642
vt 3.978943 -2.369640
v -3224.427979 -768.000488 -28.379190
vn -0.373102 0.925280 -0.068204
vt 2.519621 -3.467718
v -3259.924561 -788.577271 -157.648361
vn -0.125872 0.984498 -0.122147
vt 2.569681 -3.242899
v -3583.781494 -828.202637 -455.523132
vn 0.097686 0.979180 -0.177943
vt 3.026417 -2.724846
v -3550.119385 -771.106567 -84.773239
vn 0.030797 0.990551 -0.133642
vt 2.978943 -3.369640
v -1877.488647 -320.986053 717.948425
vn -0.296380 0.951431 0.083298
vt 3.620035 -3.765701
v -1643.793335 -236.012527 529.052002
vn -0.265229 0.958656 0.103113
vt 3.290456 -3.437180
v -2183.098389 -419.347046 693.223450
vn -0.142572 0.964791 0.221022
vt 3.051035 -2.722700
v -2084.071045 -401.652924 917.776489
vn -0.289168 0.955683 0.055240
vt 2.911379 -3.113234
v -1877.488647 -320.986053 717.948425
vn -0.296380 0.951431 0.083298
vt 2.620035 -2.765701
v -1877.488647 -320.986053 717.948425
vn -0.296380 0.951431 0.083298
vt 2.620035 -3.765701
v -1957.953979 -377.442810 1148.162842
vn -0.277754 0.959097 0.054646
vt 3.733516 -3.513912
v -1762.667114 -307.874756 956.816711
vn -0.267724 0.960496 0.075971
vt 3.458103 -3.181131
v -1877.488647 -320.986053 717.948425
vn -0.296380 0.951431 0.083298
vt 3.620035 -2.765701
v -2084.071045 -401.652924 917.776489
vn -0.289168 0.955683 0.055240
vt 3.911379 -3.113234
v -1957.953979 -377.442810 1148.162842
vn -0.277754 0.959097 0.054646
vt 2.733516 -3.513912
v -2294.754395 -467.738861 1055.429932
vn -0.267136 0.962928 0.037530
vt 3.208504 -3.352634
v -2150.762939 -436.348083 1288.589844
vn -0.267994 0.962752 0.035887
vt 3.005433 -3.758137
v -2420.460693 -506.944550 1186.417480
vn -0.277268 0.959445 0.050862
vt 3.385789 -3.580442
v -2536.831543 -547.726074 1275.072144
vn -0.295977 0.955141 0.010206
vt 3.549906 -3.734627
f 115/115/115 113/113/113 114/114/114
f 113/113/113 115/115/115 116/116/116
f 61/61/61 64/64/64 131/131/131
f 64/64/64 61/61/61 63/63/63
f 62/62/62 63/63/63 61/61/61
f 63/63/63 62/62/62 65/65/65
f 85/85/85 65/65/65 62/62/62
f 65/65/65 85/85/85 83/83/83
f 51/51/51 83/83/83 85/85/85
f 83/83/83 51/51/51 84/84/84
f 54/54/54 84/84/84 51/51/51
f 85/85/85 62/62/62 61/61/61
f 83/83/83 84/84/84 65/65/65
f 66/66/66 65/65/65 84/84/84
f 65/65/65 66/66/66 63/63/63
f 85/85/85 88/88/88 51/51/51
f 53/53/53 54/54/54 51/51/51
f 131/131/131 130/130/130 61/61/61
f 130/130/130 128/128/128 61/61/61
f 86/86/86 61/61/61 128/128/128
f 61/61/61 86/86/86 85/85/85
f 87/87/87 85/85/85 86/86/86
f 85/85/85 87/87/87 88/88/88
f 89/89/89 88/88/88 87/87/87
f 88/88/88 89/89/89 51/51/51
f 52/52/52 51/51/51 89/89/89
f 51/51/51 52/52/52 53/53/53
f 87/87/87 86/86/86 128/128/128
f 119/119/119 120/120/120 121/121/121
f 120/120/120 119/119/119 128/128/128
f 90/90/90 128/128/128 119/119/119
f 128/128/128 90/90/90 87/87/87
f 89/89/89 87/87/87 90/90/90
f 128/128/128 127/127/127 120/120/120
f 127/127/127 128/128/128 129/129/129
f 50/50/50 9/9/9 8/8/8
f 10/10/10 8/8/8 9/9/9
f 8/8/8 10/10/10 11/11/11
f 14/14/14 11/11/11 10/10/10
f 11/11/11 14/14/14 76/76/76
f 75/75/75 76/76/76 14/14/14
f 76/76/76 75/75/75 77/77/77
f 76/76/76 8/8/8 11/11/11
f 8/8/8 76/76/76 80/80/80
f 10/10/10 9/9/9 12/12/12
f 13/13/13 12/12/12 45/45/45
f 12/12/12 13/13/13 10/10/10
f 14/14/14 10/10/10 13/13/13
f 112/112/112 110/110/110 77/77/77
f 78/78/78 77/77/77 110/110/110
f 77/77/77 78/78/78 76/76/76
f 79/79/79 76/76/76 78/78/78
f 76/76/76 79/79/79 80/80/80
f 81/81/81 80/80/80 79/79/79
f 80/80/80 81/81/81 8/8/8
f 49/49/49 8/8/8 81/81/81
f 8/8/8 49/49/49 50/50/50
f 110/110/110 79/79/79 78/78/78
f 79/79/79 110/110/110 111/111/111
f 44/44/44 31/31/31 28/28/28
f 29/29/29 28/28/28 31/31/31
f 28/28/28 29/29/29 27/27/27
f 30/30/30 27/27/27 29/29/29
f 48/48/48 31/31/31 47/47/47
f 31/31/31 48/48/48 32/32/32
f 32/32/32 29/29/29 31/31/31
f 29/29/29 32/32/32 33/33/33
f 48/48/48 33/33/33 32/32/32
f 33/33/33 48/48/48 55/55/55
f 93/93/93 33/33/33 55/55/55
f 33/33/33 93/93/93 92/92/92
f 29/29/29 35/35/35 30/30/30
f 35/35/35 29/29/29 34/34/34
f 33/33/33 34/34/34 29/29/29
f 34/34/34 33/33/33 95/95/95
f 92/92/92 95/95/95 33/33/33
f 95/95/95 92/92/92 91/91/91
f 93/93/93 91/91/91 92/92/92
f 91/91/91 93/93/93 94/94/94
f 122/122/122 96/96/96 91/91/91
f 95/95/95 91/91/91 96/96/96
f 109/109/109 107/107/107 36/36/36
f 105/105/105 36/36/36 107/107/107
f 36/36/36 105/105/105 37/37/37
f 40/40/40 37/37/37 105/105/105
f 37/37/37 40/40/40 38/38/38
f 41/41/41 38/38/38 40/40/40
f 38/38/38 41/41/41 42/42/42
f 72/72/72 42/42/42 41/41/41
f 42/42/42 72/72/72 74/74/74
f 73/73/73 74/74/74 72/72/72
f 36/36/36 37/37/37 38/38/38
f 36/36/36 108/108/108 109/109/109
f 42/42/42 43/43/43 38/38/38
f 105/105/105 106/106/106 40/40/40
f 73/73/73 103/103/103 104/104/104
f 103/103/103 73/73/73 71/71/71
f 72/72/72 71/71/71 73/73/73
f 71/71/71 72/72/72 40/40/40
f 41/41/41 40/40/40 72/72/72
f 7/7/7 56/56/56 57/57/57
f 56/56/56 7/7/7 6/6/6
f 46/46/46 1/1/1 39/39/39
f 4/4/4 39/39/39 1/1/1
f 39/39/39 4/4/4 7/7/7
f 3/3/3 7/7/7 4/4/4
f 7/7/7 3/3/3 6/6/6
f 5/5/5 6/6/6 3/3/3
f 3/3/3 2/2/2 5/5/5
f 2/2/2 3/3/3 1/1/1
f 4/4/4 1/1/1 3/3/3
f 20/20/20 21/21/21 1/1/1
f 26/26/26 1/1/1 21/21/21
f 1/1/1 26/26/26 2/2/2
f 1/1/1 19/19/19 20/20/20
f 59/59/59 15/15/15 58/58/58
f 15/15/15 59/59/59 60/60/60
f 67/67/67 60/60/60 59/59/59
f 60/60/60 67/67/67 69/69/69
f 70/70/70 69/69/69 67/67/67
f 60/60/60 69/69/69 15/15/15
f 16/16/16 15/15/15 69/69/69
f 15/15/15 16/16/16 17/17/17
f 17/17/17 18/18/18 15/15/15
f 59/59/59 68/68/68 67/67/67
f 82/82/82 67/67/67 68/68/68
f 99/99/99 98/98/98 101/101/101
f 98/98/98 99/99/99 97/97/97
f 100/100/100 97/97/97 99/99/99
f 97/97/97 100/100/100 117/117/117
f 101/101/101 102/102/102 99/99/99
f 117/117/117 118/118/118 97/97/97
f 24/24/24 22/22/22 23/23/23
f 22/22/22 24/24/24 25/25/25
f 125/125/125 123/123/123 124/124/124
f 123/123/123 125/125/125 126/126/126
