mtllib HTOWN01_PS27.mtl
g PS27
usemtl Grass/sand
v 1163.554077 -621.345581 -1101.340942
vn -0.023188 0.963513 -0.266654
vt 1.944964 -2.377993
v 1035.355103 -697.384705 -1303.619995
vn -0.176727 0.931207 -0.318781
vt 2.451335 -1.403557
v 795.915466 -653.177795 -926.798706
vn -0.272103 0.914412 -0.299683
vt 3.397098 -3.218811
v 1219.995850 -520.141235 -592.258972
vn 0.064166 0.980109 -0.187799
vt 3.722026 -2.830387
v 1538.509399 -531.386902 -451.690521
vn 0.116962 0.972259 -0.202562
vt 2.463934 -3.507542
v 1667.180908 -630.392273 -827.209534
vn 0.179128 0.951518 -0.250053
vt 1.955689 -1.698565
v 1667.180908 -630.392273 -827.209534
vn 0.179128 0.951518 -0.250053
vt 1.955689 -2.698565
v 1378.777588 -603.269226 -937.009827
vn 0.134068 0.966201 -0.220184
vt 3.094857 -2.169621
v 1219.995850 -520.141235 -592.258972
vn 0.064166 0.980109 -0.187799
vt 3.722026 -3.830387
v 795.915466 -653.177795 -926.798706
vn -0.272103 0.914412 -0.299683
vt 3.397098 -2.218811
v 954.398926 -545.854248 -742.252441
vn -0.112380 0.960564 -0.254337
vt 2.771106 -3.107824
v 1163.554077 -621.345581 -1101.340942
vn -0.023188 0.963513 -0.266654
vt 1.944964 -1.377993
v 933.209900 -842.295776 -1620.317017
vn -0.043001 0.898846 -0.436150
vt 1.841969 0.081764
v 618.940125 -763.990479 -1096.078491
vn -0.171492 0.956039 -0.237866
vt 3.090209 -2.407785
v 795.915466 -653.177795 -926.798706
vn -0.272103 0.914412 -0.299683
vt 2.397098 -3.218811
v 1163.554077 -621.345581 -1101.340942
vn -0.023188 0.963513 -0.266654
vt 3.944964 -1.377993
v 1163.554077 -621.345581 -1101.340942
vn -0.023188 0.963513 -0.266654
vt 2.944964 -1.377993
v 954.398926 -545.854248 -742.252441
vn -0.112380 0.960564 -0.254337
vt 3.771106 -3.107824
v 1219.995850 -520.141235 -592.258972
vn 0.064166 0.980109 -0.187799
vt 2.722026 -3.830387
v 2405.735840 -541.025391 122.568260
vn 0.193702 0.967701 -0.161351
vt -0.818468 -3.344343
v 2573.546387 -656.444580 -232.341003
vn 0.352788 0.886080 -0.300672
vt -1.444907 -1.661077
v 2294.209961 -649.018982 -477.289703
vn 0.270260 0.913650 -0.303649
vt -0.476144 -0.408443
v 2151.536865 -536.313904 -108.861588
vn 0.168712 0.964573 -0.202818
vt 0.078302 -2.176655
v 2405.735840 -541.025391 122.568260
vn 0.193702 0.967701 -0.161351
vt -0.818468 -2.344343
v 2613.994385 -546.080017 374.688446
vn 0.223515 0.963474 -0.147511
vt -1.472046 -3.645004
v 2825.937744 -645.845703 140.270615
vn 0.563480 0.791677 -0.236090
vt -2.177964 -2.587368
v 2825.937744 -645.845703 140.270615
vn 0.563480 0.791677 -0.236090
vt -2.177964 -3.587368
v 1855.742188 -534.939453 -295.419647
vn 0.126845 0.970872 -0.203267
vt 1.210899 -3.260345
v 1982.206787 -642.988586 -674.774231
vn 0.188132 0.940092 -0.284313
vt 0.711375 -1.432886
v 1667.180908 -630.392273 -827.209534
vn 0.179128 0.951518 -0.250053
vt 1.955689 -0.698565
v 1538.509399 -531.386902 -451.690521
vn 0.116962 0.972259 -0.202562
vt 2.463934 -2.507542
v 1855.742188 -534.939453 -295.419647
vn 0.126845 0.970872 -0.203267
vt 1.210899 -2.260345
v 2151.536865 -536.313904 -108.861588
vn 0.168712 0.964573 -0.202818
vt 0.078302 -3.176655
v 2294.209961 -649.018982 -477.289703
vn 0.270260 0.913650 -0.303649
vt -0.476144 -1.408443
v 2294.209961 -649.018982 -477.289703
vn 0.270260 0.913650 -0.303649
vt -0.476144 -2.408443
v 933.209900 -842.295776 -1620.317017
vn -0.043001 0.898846 -0.436150
vt 2.841969 0.081764
f 4/4/4 5/5/5 6/6/6
f 27/27/27 21/21/21 20/20/20
f 22/22/22 20/20/20 21/21/21
f 20/20/20 22/22/22 23/23/23
f 35/35/35 29/29/29 28/28/28
f 30/30/30 28/28/28 29/29/29
f 28/28/28 30/30/30 31/31/31
f 1/1/1 2/2/2 3/3/3
f 36/36/36 3/3/3 2/2/2
f 7/7/7 8/8/8 9/9/9
f 16/16/16 9/9/9 8/8/8
f 10/10/10 11/11/11 12/12/12
f 13/13/13 14/14/14 15/15/15
f 17/17/17 18/18/18 19/19/19
f 24/24/24 25/25/25 26/26/26
f 32/32/32 33/33/33 34/34/34
usemtl Grass/Rock
v 2746.197998 -1202.197510 -945.010620
vn 0.424096 0.814345 -0.396213
vt -2.446833 -3.095955
v 2840.437988 -1344.191284 -1236.139282
vn 0.144486 0.965217 -0.217900
vt -2.713681 -1.719851
v 2277.809814 -1406.380859 -1680.039673
vn 0.213971 0.909757 -0.355751
vt -0.562701 0.388781
v 2340.659912 -985.135986 -1043.463501
vn 0.477387 0.705021 -0.524449
vt -0.759059 -1.649038
v 2675.239258 -1008.697510 -725.608826
vn 0.601722 0.671053 -0.433149
vt -2.201049 -3.152918
v 2746.197998 -1202.197510 -945.010620
vn 0.424096 0.814345 -0.396213
vt -2.446833 -2.095955
v 2341.369873 -1199.461792 -1301.043457
vn 0.447573 0.723217 -0.525961
vt -0.785715 -1.411209
v 2340.659912 -985.135986 -1043.463501
vn 0.477387 0.705021 -0.524449
vt -0.759059 -2.649038
v 2746.197998 -1202.197510 -945.010620
vn 0.424096 0.814345 -0.396213
vt -2.446833 -0.095955
v 2675.239258 -1008.697510 -725.608826
vn 0.601722 0.671053 -0.433149
vt -2.201049 -1.152918
v 2939.314209 -1056.493408 -312.576477
vn 0.787517 0.581778 -0.203348
vt -3.560587 -3.057110
v 2746.197998 -1202.197510 -945.010620
vn 0.424096 0.814345 -0.396213
vt -1.446833 -2.095955
v 3034.277588 -1220.348633 -628.868530
vn 0.510618 0.846384 -0.151340
vt -2.799314 -3.599100
v 3244.684814 -1345.997925 -806.942200
vn 0.228908 0.971939 -0.054186
vt -3.418952 -2.784632
v 3244.684814 -1345.997925 -806.942200
vn 0.228908 0.971939 -0.054186
vt -3.418952 -3.784632
v 2840.437988 -1344.191284 -1236.139282
vn 0.144486 0.965217 -0.217900
vt -1.713681 -1.719851
v 2746.197998 -1202.197510 -945.010620
vn 0.424096 0.814345 -0.396213
vt -1.446833 -3.095955
v 1475.322388 -693.595581 -1203.591431
vn 0.205435 0.925348 -0.318634
vt 2.713514 -1.885424
v 1378.777588 -603.269226 -937.009827
vn 0.134068 0.966201 -0.220184
vt 3.094857 -3.169621
v 1667.180908 -630.392273 -827.209534
vn 0.179128 0.951518 -0.250053
vt 1.955689 -3.698565
v 1699.664673 -745.843018 -1181.798462
vn 0.266423 0.895988 -0.355280
vt 1.827386 -1.990404
v 1475.322388 -693.595581 -1203.591431
vn 0.205435 0.925348 -0.318634
vt 2.713514 -2.885424
v 1357.478149 -724.741943 -1364.705811
vn 0.189985 0.913360 -0.360111
vt 3.178985 -2.109289
v 1163.554077 -621.345581 -1101.340942
vn -0.023188 0.963513 -0.266654
vt 3.944964 -3.377993
v 1163.554077 -621.345581 -1101.340942
vn -0.023188 0.963513 -0.266654
vt 3.944964 -2.377993
v 1378.777588 -603.269226 -937.009827
vn 0.134068 0.966201 -0.220184
vt 3.094857 -3.169621
v 1475.322388 -693.595581 -1203.591431
vn 0.205435 0.925348 -0.318634
vt 2.713514 -1.885424
v 1475.322388 -693.595581 -1203.591431
vn 0.205435 0.925348 -0.318634
vt 2.713514 -3.885424
v 1699.664673 -745.843018 -1181.798462
vn 0.266423 0.895988 -0.355280
vt 1.827386 -3.990404
v 1577.379517 -888.188904 -1565.173950
vn 0.334142 0.763425 -0.552750
vt 2.269239 -2.152397
v 3034.277588 -1220.348633 -628.868530
vn 0.510618 0.846384 -0.151340
vt -3.799314 -1.599100
v 1577.379517 -888.188904 -1565.173950
vn 0.334142 0.763425 -0.552750
vt 2.269239 -2.152397
v 1357.478149 -724.741943 -1364.705811
vn 0.189985 0.913360 -0.360111
vt 3.178985 -3.109289
v 1475.322388 -693.595581 -1203.591431
vn 0.205435 0.925348 -0.318634
vt 2.713514 -3.885424
v 2294.209961 -649.018982 -477.289703
vn 0.270260 0.913650 -0.303649
vt -0.476144 -3.408443
v 2341.095703 -800.140747 -778.851379
vn 0.421226 0.791026 -0.443674
vt -0.705566 -1.940344
v 2007.864014 -778.463623 -1022.907959
vn 0.335599 0.848114 -0.409972
vt 0.610030 -0.755823
v 2007.864014 -778.463623 -1022.907959
vn 0.335599 0.848114 -0.409972
vt 0.610030 -2.755823
v 2341.095703 -800.140747 -778.851379
vn 0.421226 0.791026 -0.443674
vt -0.705566 -3.940344
v 2340.659912 -985.135986 -1043.463501
vn 0.477387 0.705021 -0.524449
vt -0.759059 -2.649038
v 1577.379517 -888.188904 -1565.173950
vn 0.334142 0.763425 -0.552750
vt 2.269239 -1.152397
v 1699.664673 -745.843018 -1181.798462
vn 0.266423 0.895988 -0.355280
vt 1.827386 -2.990404
v 2007.864014 -778.463623 -1022.907959
vn 0.335599 0.848114 -0.409972
vt 0.610030 -3.755823
v 1971.976196 -954.741089 -1340.614502
vn 0.465186 0.698011 -0.544410
vt 0.708481 -2.229361
v 1667.180908 -630.392273 -827.209534
vn 0.179128 0.951518 -0.250053
vt 1.955689 -2.698565
v 1982.206787 -642.988586 -674.774231
vn 0.188132 0.940092 -0.284313
vt 0.711375 -3.432886
v 2007.864014 -778.463623 -1022.907959
vn 0.335599 0.848114 -0.409972
vt 0.610030 -1.755823
v 2825.937744 -645.845703 140.270615
vn 0.563480 0.791677 -0.236090
vt -2.177964 -3.587368
v 2866.762939 -828.776489 -114.264824
vn 0.753703 0.575343 -0.317666
vt -2.759815 -2.173811
v 2640.534668 -819.557617 -501.559509
vn 0.558634 0.719504 -0.412603
vt -1.886421 -0.302614
v 2573.546387 -656.444580 -232.341003
vn 0.352788 0.886080 -0.300672
vt -1.444907 -1.661077
v 2939.314209 -1056.493408 -312.576477
vn 0.787517 0.581778 -0.203348
vt -3.560587 -3.057110
v 2675.239258 -1008.697510 -725.608826
vn 0.601722 0.671053 -0.433149
vt -2.201049 -1.152918
v 2640.534668 -819.557617 -501.559509
vn 0.558634 0.719504 -0.412603
vt -1.886421 -2.302614
v 2640.534668 -819.557617 -501.559509
vn 0.558634 0.719504 -0.412603
vt -1.886421 -1.302614
v 2866.762939 -828.776489 -114.264824
vn 0.753703 0.575343 -0.317666
vt -2.759815 -3.173811
v 2939.314209 -1056.493408 -312.576477
vn 0.787517 0.581778 -0.203348
vt -3.560587 -2.057110
v 2340.659912 -985.135986 -1043.463501
vn 0.477387 0.705021 -0.524449
vt -0.759059 -0.649038
v 2341.095703 -800.140747 -778.851379
vn 0.421226 0.791026 -0.443674
vt -0.705566 -1.940344
v 2640.534668 -819.557617 -501.559509
vn 0.558634 0.719504 -0.412603
vt -1.886421 -3.302614
v 2675.239258 -1008.697510 -725.608826
vn 0.601722 0.671053 -0.433149
vt -2.201049 -2.152918
v 2294.209961 -649.018982 -477.289703
vn 0.270260 0.913650 -0.303649
vt -0.476144 -2.408443
v 2573.546387 -656.444580 -232.341003
vn 0.352788 0.886080 -0.300672
vt -1.444907 -3.661077
v 2294.209961 -649.018982 -477.289703
vn 0.270260 0.913650 -0.303649
vt -0.476144 -3.408443
v 2340.659912 -985.135986 -1043.463501
vn 0.477387 0.705021 -0.524449
vt -0.759059 -3.649038
v 2341.369873 -1199.461792 -1301.043457
vn 0.447573 0.723217 -0.525961
vt -0.785715 -2.411209
v 1913.805664 -1185.197510 -1628.687256
vn 0.417112 0.662266 -0.622432
vt 0.808342 -0.853697
v 1971.976196 -954.741089 -1340.614502
vn 0.465186 0.698011 -0.544410
vt 0.708481 -2.229361
v 2277.809814 -1406.380859 -1680.039673
vn 0.213971 0.909757 -0.355751
vt -0.562701 -3.611219
v 1825.663574 -1380.089233 -1862.795166
vn 0.331490 0.706462 -0.625321
vt 0.998888 -2.754005
v 1913.805664 -1185.197510 -1628.687256
vn 0.417112 0.662266 -0.622432
vt 0.808342 -3.853697
v 1913.805664 -1185.197510 -1628.687256
vn 0.417112 0.662266 -0.622432
vt 0.808342 -1.853697
v 2341.369873 -1199.461792 -1301.043457
vn 0.447573 0.723217 -0.525961
vt -0.785715 -3.411209
v 2277.809814 -1406.380859 -1680.039673
vn 0.213971 0.909757 -0.355751
vt -0.562701 -1.611219
v 1352.442749 -1429.911133 -2194.427490
vn 0.208194 0.712977 -0.669566
vt 2.604062 -1.194738
v 1512.496460 -1163.081543 -1875.146973
vn 0.375816 0.627472 -0.681939
vt 2.309449 -2.705450
v 1913.805664 -1185.197510 -1628.687256
vn 0.417112 0.662266 -0.622432
vt 0.808342 -3.853697
v 1825.663574 -1380.089233 -1862.795166
vn 0.331490 0.706462 -0.625321
vt 0.998888 -2.754005
v 1577.379517 -888.188904 -1565.173950
vn 0.334142 0.763425 -0.552750
vt 2.269239 -2.152397
v 1971.976196 -954.741089 -1340.614502
vn 0.465186 0.698011 -0.544410
vt 0.708481 -3.229361
v 1237.920044 -754.451904 -1486.566650
vn 0.071430 0.895600 -0.439089
vt 2.651225 -1.522255
v 1035.355103 -697.384705 -1303.619995
vn -0.176727 0.931207 -0.318781
vt 3.451335 -2.403557
v 1163.554077 -621.345581 -1101.340942
vn -0.023188 0.963513 -0.266654
vt 2.944964 -3.377993
v 1237.920044 -754.451904 -1486.566650
vn 0.071430 0.895600 -0.439089
vt 3.651225 -1.522255
v 1982.206787 -642.988586 -674.774231
vn 0.188132 0.940092 -0.284313
vt 0.711375 -2.432886
v 1577.379517 -888.188904 -1565.173950
vn 0.334142 0.763425 -0.552750
vt 2.269239 -3.152397
v 1256.904541 -896.281006 -1705.953613
vn 0.123253 0.780304 -0.613135
vt 3.535520 -2.500406
v 1237.920044 -754.451904 -1486.566650
vn 0.071430 0.895600 -0.439089
vt 3.651225 -3.522255
v 1237.920044 -754.451904 -1486.566650
vn 0.071430 0.895600 -0.439089
vt 2.651225 -3.522255
v 1256.904541 -896.281006 -1705.953613
vn 0.123253 0.780304 -0.613135
vt 2.535520 -2.500406
v 933.209900 -842.295776 -1620.317017
vn -0.043001 0.898846 -0.436150
vt 3.841969 -2.918236
v 933.209900 -842.295776 -1620.317017
vn -0.043001 0.898846 -0.436150
vt 3.841969 -1.918236
v 1035.355103 -697.384705 -1303.619995
vn -0.176727 0.931207 -0.318781
vt 3.451335 -3.403557
v 1237.920044 -754.451904 -1486.566650
vn 0.071430 0.895600 -0.439089
vt 2.651225 -2.522255
v 2340.659912 -985.135986 -1043.463501
vn 0.477387 0.705021 -0.524449
vt -0.759059 -3.649038
v 1237.920044 -754.451904 -1486.566650
vn 0.071430 0.895600 -0.439089
vt 3.651225 -2.522255
v 1913.805664 -1185.197510 -1628.687256
vn 0.417112 0.662266 -0.622432
vt 0.808342 -2.853697
v 1512.496460 -1163.081543 -1875.146973
vn 0.375816 0.627472 -0.681939
vt 2.309449 -1.705450
v 821.026855 -1330.031738 -2291.345459
vn 0.223034 0.700809 -0.677586
vt 3.228633 -2.033518
v 898.289917 -1106.275879 -2030.689331
vn 0.173865 0.773727 -0.609194
vt 2.942177 -3.130680
v 1186.433228 -1136.790283 -1987.627930
vn 0.212725 0.718678 -0.662005
vt 1.691713 -3.248501
v 1075.776367 -1358.245972 -2234.029785
vn 0.253354 0.655860 -0.711097
vt 2.038944 -2.177603
v 933.209900 -842.295776 -1620.317017
vn -0.043001 0.898846 -0.436150
vt 3.841969 -3.918236
v 1256.904541 -896.281006 -1705.953613
vn 0.123253 0.780304 -0.613135
vt 2.535520 -3.500406
v 1186.433228 -1136.790283 -1987.627930
vn 0.212725 0.718678 -0.662005
vt 2.691713 -2.248501
v 898.289917 -1106.275879 -2030.689331
vn 0.173865 0.773727 -0.609194
vt 3.942177 -2.130680
v 1186.433228 -1136.790283 -1987.627930
vn 0.212725 0.718678 -0.662005
vt 3.691713 -1.248501
v 1352.442749 -1429.911133 -2194.427490
vn 0.208194 0.712977 -0.669566
vt 1.604062 -2.194738
v 1075.776367 -1358.245972 -2234.029785
vn 0.253354 0.655860 -0.711097
vt 3.038944 -2.177603
v 1186.433228 -1136.790283 -1987.627930
vn 0.212725 0.718678 -0.662005
vt 2.691713 -3.248501
v 1186.433228 -1136.790283 -1987.627930
vn 0.212725 0.718678 -0.662005
vt 3.691713 -3.248501
v 1512.496460 -1163.081543 -1875.146973
vn 0.375816 0.627472 -0.681939
vt 2.309449 -3.705450
v 1352.442749 -1429.911133 -2194.427490
vn 0.208194 0.712977 -0.669566
vt 2.604062 -2.194738
f 48/48/48 49/49/49 50/50/50
f 38/38/38 39/39/39 37/37/37
f 43/43/43 37/37/37 39/39/39
f 37/37/37 43/43/43 44/44/44
f 56/56/56 54/54/54 55/55/55
f 54/54/54 56/56/56 57/57/57
f 74/74/74 57/57/57 56/56/56
f 74/74/74 75/75/75 76/76/76
f 131/131/131 80/80/80 79/79/79
f 77/77/77 79/79/79 80/80/80
f 79/79/79 77/77/77 78/78/78
f 134/134/134 143/143/143 122/122/122
f 123/123/123 122/122/122 143/143/143
f 122/122/122 123/123/123 124/124/124
f 133/133/133 134/134/134 122/122/122
f 47/47/47 45/45/45 46/46/46
f 45/45/45 47/47/47 67/67/67
f 58/58/58 59/59/59 60/60/60
f 120/120/120 60/60/60 59/59/59
f 132/132/132 69/69/69 68/68/68
f 70/70/70 68/68/68 69/69/69
f 73/73/73 71/71/71 72/72/72
f 71/71/71 73/73/73 121/121/121
f 103/103/103 101/101/101 102/102/102
f 101/101/101 103/103/103 104/104/104
f 111/111/111 113/113/113 114/114/114
f 113/113/113 111/111/111 112/112/112
f 51/51/51 52/52/52 53/53/53
f 61/61/61 62/62/62 63/63/63
f 64/64/64 65/65/65 66/66/66
f 81/81/81 82/82/82 83/83/83
f 86/86/86 84/84/84 85/85/85
f 84/84/84 86/86/86 87/87/87
f 88/88/88 89/89/89 90/90/90
f 98/98/98 99/99/99 90/90/90
f 91/91/91 92/92/92 93/93/93
f 96/96/96 95/95/95 100/100/100
f 95/95/95 96/96/96 94/94/94
f 97/97/97 94/94/94 96/96/96
f 105/105/105 106/106/106 107/107/107
f 108/108/108 109/109/109 110/110/110
f 115/115/115 116/116/116 108/108/108
f 117/117/117 118/118/118 119/119/119
f 125/125/125 126/126/126 127/127/127
f 128/128/128 129/129/129 130/130/130
f 137/137/137 135/135/135 136/136/136
f 135/135/135 137/137/137 138/138/138
f 141/141/141 139/139/139 140/140/140
f 139/139/139 141/141/141 142/142/142
f 144/144/144 145/145/145 146/146/146
f 147/147/147 148/148/148 149/149/149
f 40/40/40 41/41/41 42/42/42
