mtllib INST_HTOWN_FENCEBRN20DEG.mtl
g ceBrn20Deg_Lod1
usemtl FenceEnd
v 10.869168 133.602905 -11.462330
vn 0.000000 1.000000 0.000000
vt 0.000000 1.000000
v -10.869170 133.602905 -11.462328
vn 0.000000 1.000000 0.000000
vt 1.000000 1.000000
v -10.869168 133.602905 11.462341
vn 0.000000 1.000000 0.000000
vt 1.000000 0.000000
v 10.869170 133.602905 11.462339
vn 0.000000 1.000000 0.000000
vt 0.000000 0.000000
f 3/3/3 1/1/1 2/2/2
f 1/1/1 3/3/3 4/4/4
usemtl FencePost
v 10.869168 0.000001 -11.462336
vn 0.000000 0.046363 -0.998925
vt 0.000000 1.000000
v -10.869170 0.000001 -11.462334
vn 0.000000 0.046363 -0.998925
vt 1.000000 1.000000
v -5.792207 44.534298 -9.395353
vn 0.000000 0.012091 -0.999927
vt 1.000000 0.666667
v 12.026104 44.534298 -9.395355
vn 0.000000 -0.022235 -0.999753
vt 0.000000 0.666667
v -9.211162 89.068596 -11.915344
vn 0.000000 -0.034290 -0.999412
vt 1.000000 0.333333
v 9.211160 89.068596 -11.915346
vn 0.000000 -0.012056 -0.999927
vt 0.000000 0.333333
v -10.869170 133.602905 -11.462328
vn 0.000000 0.010172 -0.999948
vt 1.000000 0.000000
v 10.869168 133.602905 -11.462330
vn 0.000000 0.010172 -0.999948
vt 0.000000 0.000000
v -10.869170 0.000001 -11.462334
vn -0.993565 0.113268 0.000000
vt 0.000000 1.000000
v -10.869168 -0.000001 11.462336
vn -0.993565 0.113268 0.000000
vt 1.000000 1.000000
v -5.792205 44.534298 9.395359
vn -0.998739 0.050198 0.000000
vt 1.000000 0.666667
v -5.792207 44.534298 -9.395353
vn -0.999911 -0.013328 0.000000
vt 0.000000 0.666667
v -9.211160 89.068596 7.512341
vn -0.997985 -0.063443 0.000000
vt 1.000000 0.333333
v -9.211162 89.068596 -11.915344
vn -0.998733 -0.050327 0.000000
vt 0.000000 0.333333
v -10.869168 133.602905 11.462341
vn -0.999308 -0.037204 0.000000
vt 1.000000 0.000000
v -10.869170 133.602905 -11.462328
vn -0.999308 -0.037204 0.000000
vt 0.000000 0.000000
v -10.869168 -0.000001 11.462336
vn 0.000000 0.046363 0.998925
vt 0.000000 1.000000
v 10.869170 -0.000001 11.462334
vn 0.000000 0.046363 0.998925
vt 1.000000 1.000000
v 12.026106 44.534298 9.395357
vn 0.000000 0.044990 0.998987
vt 1.000000 0.666667
v -5.792205 44.534298 9.395359
vn 0.000000 0.043618 0.999048
vt 0.000000 0.666667
v 9.211162 89.068596 7.512340
vn 0.000000 -0.001289 0.999999
vt 1.000000 0.333333
v -9.211160 89.068596 7.512341
vn 0.000000 -0.044903 0.998991
vt 0.000000 0.333333
v 10.869170 133.602905 11.462339
vn 0.000000 -0.088349 0.996090
vt 1.000000 0.000000
v -10.869168 133.602905 11.462341
vn 0.000000 -0.088349 0.996090
vt 0.000000 0.000000
v 10.869170 -0.000001 11.462334
vn 0.999663 -0.025970 0.000000
vt 0.000000 1.000000
v 10.869168 0.000001 -11.462336
vn 0.999663 -0.025970 0.000000
vt 1.000000 1.000000
v 12.026104 44.534298 -9.395355
vn 0.999993 0.003718 0.000000
vt 1.000000 0.666667
v 12.026106 44.534298 9.395357
vn 0.999441 0.033428 0.000000
vt 0.000000 0.666667
v 9.211160 89.068596 -11.915346
vn 0.999559 0.029687 0.000000
vt 1.000000 0.333333
v 9.211162 89.068596 7.512340
vn 0.999993 -0.003779 0.000000
vt 0.000000 0.333333
v 10.869168 133.602905 -11.462330
vn 0.999308 -0.037204 0.000000
vt 1.000000 0.000000
v 10.869170 133.602905 11.462339
vn 0.999308 -0.037204 0.000000
vt 0.000000 0.000000
v 288.063354 229.225739 7.979345
vn -0.377224 0.832115 0.406554
vt -0.743850 0.999501
v 194.162186 189.244034 -12.090936
vn -0.180424 0.352453 -0.918272
vt -0.110270 0.666500
v 193.069443 192.301300 1.273422
vn -0.237929 0.551422 0.799577
vt -0.821117 0.666500
v 287.968231 229.807541 -8.137464
vn 0.064709 -0.104789 -0.992387
vt -0.261693 0.999501
v 197.326050 179.763733 -2.574189
vn 0.423864 -0.897552 0.121407
vt 0.424793 0.666500
v 287.863800 215.594849 -0.675071
vn 0.266804 -0.774985 0.572899
vt 0.497355 0.999501
v 193.069443 192.301300 1.273422
vn -0.237929 0.551422 0.799577
vt 1.178883 0.666500
v 288.063354 229.225739 7.979345
vn -0.377224 0.832115 0.406554
vt 1.256150 0.999501
v 95.178688 147.298538 -0.822162
vn -0.220550 0.496049 -0.839817
vt -0.192723 0.313134
v 95.590263 145.574905 10.814117
vn -0.091975 0.446319 0.890135
vt -0.892550 0.313134
v 97.999687 136.663681 3.453012
vn 0.294287 -0.953951 -0.058068
vt 0.574279 0.313134
v 95.590263 145.574905 10.814117
vn -0.091975 0.446319 0.890135
vt 1.107450 0.313134
v 8.750074 125.386581 -7.905751
vn -0.182513 0.891651 -0.414303
vt -0.263768 0.000500
v 8.876506 124.850098 7.698305
vn -0.003243 -0.098662 0.995116
vt -0.741780 0.000500
v 8.954715 111.632217 -0.496773
vn 0.257333 -0.784803 -0.563794
vt 0.497364 0.000500
v 8.876506 124.850098 7.698305
vn -0.003243 -0.098662 0.995116
vt 1.258220 0.000500
v 287.140991 193.957153 4.731634
vn -0.300908 0.760646 0.575216
vt -0.031883 0.999501
v 192.599335 155.501251 -4.470643
vn -0.232086 0.527311 -0.817361
vt 0.601697 0.666500
v 193.225525 153.897873 7.350432
vn -0.161368 0.390839 0.906204
vt -0.109150 0.666500
v 287.229370 194.535355 -8.749120
vn -0.083172 0.100358 -0.991469
vt 0.450274 0.999501
v 196.750290 145.235031 -0.110602
vn 0.354628 -0.928662 -0.108748
vt 1.136760 0.666500
v 287.938965 180.347778 -2.613389
vn 0.344239 -0.833897 0.431410
vt 1.209322 0.999501
v 193.225525 153.897873 7.350432
vn -0.161368 0.390839 0.906204
vt 1.890850 0.666500
v 287.140991 193.957153 4.731634
vn -0.300908 0.760646 0.575216
vt 1.968117 0.999501
v 95.123299 113.281212 -7.070482
vn -0.156838 0.429643 -0.889274
vt 0.519244 0.313134
v 95.045815 114.520882 6.050526
vn -0.159135 0.502649 0.849718
vt -0.180583 0.313134
v 96.142441 102.559120 0.580450
vn 0.341489 -0.939022 0.040287
vt 1.286246 0.313134
v 95.045815 114.520882 6.050526
vn -0.159135 0.502649 0.849718
vt 1.819417 0.313134
v 8.111929 86.906540 -8.471890
vn -0.248880 0.813552 -0.525540
vt 0.448199 0.000500
v 8.174840 86.479729 4.050793
vn -0.038904 0.014615 0.999136
vt -0.029813 0.000500
v 8.309523 75.895424 -2.482481
vn 0.264717 -0.849460 -0.456445
vt 1.209331 0.000500
v 8.174840 86.479729 4.050793
vn -0.038904 0.014615 0.999136
vt 1.970186 0.000500
v 291.252838 158.059052 5.894364
vn -0.347007 0.824304 0.447336
vt -0.447197 0.999501
v 194.627670 119.503281 -12.256879
vn -0.170537 0.406281 -0.897693
vt 0.186383 0.666500
v 194.228226 121.515373 1.342906
vn -0.210477 0.511221 0.833278
vt -0.524464 0.666500
v 291.193268 158.503113 -7.839478
vn 0.017934 0.005740 -0.999823
vt 0.034960 0.999501
v 196.640320 108.900070 -3.652297
vn 0.396218 -0.916640 0.052752
vt 0.721446 0.666500
v 291.488892 144.369736 -2.617296
vn 0.270459 -0.789800 0.550517
vt 0.794008 0.999501
v 194.228226 121.515373 1.342906
vn -0.210477 0.511221 0.833278
vt 1.475536 0.666500
v 291.252838 158.059052 5.894364
vn -0.347007 0.824304 0.447336
vt 1.552803 0.999501
v 95.480110 79.971916 -5.753648
vn -0.229941 0.536799 -0.811772
vt 0.103930 0.313134
v 95.873131 78.282822 6.454565
vn -0.115469 0.424775 0.897905
vt -0.595897 0.313134
v 98.290001 68.897484 -1.140862
vn 0.325279 -0.942017 -0.082443
vt 0.870932 0.313134
v 95.873131 78.282822 6.454565
vn -0.115469 0.424775 0.897905
vt 1.404103 0.313134
v 10.813941 52.791451 -6.312593
vn -0.265550 0.865294 -0.425147
vt 0.032885 0.000500
v 10.825458 52.528606 6.874681
vn 0.045747 -0.130846 0.990347
vt -0.445127 0.000500
v 9.266568 39.187031 -2.481568
vn 0.243747 -0.721913 -0.647633
vt 0.794016 0.000500
v 10.825458 52.528606 6.874681
vn 0.045747 -0.130846 0.990347
vt 1.554873 0.000500
f 74/74/74 76/76/76 75/75/75
f 72/72/72 74/74/74 73/73/73
f 75/75/75 73/73/73 74/74/74
f 73/73/73 75/75/75 80/80/80
f 69/69/69 72/72/72 70/70/70
f 73/73/73 70/70/70 72/72/72
f 70/70/70 73/73/73 79/79/79
f 80/80/80 79/79/79 73/73/73
f 79/79/79 80/80/80 84/84/84
f 70/70/70 71/71/71 69/69/69
f 71/71/71 70/70/70 77/77/77
f 79/79/79 77/77/77 70/70/70
f 77/77/77 79/79/79 83/83/83
f 84/84/84 83/83/83 79/79/79
f 77/77/77 78/78/78 71/71/71
f 78/78/78 77/77/77 81/81/81
f 83/83/83 81/81/81 77/77/77
f 78/78/78 81/81/81 82/82/82
f 48/48/48 52/52/52 47/47/47
f 51/51/51 47/47/47 52/52/52
f 47/47/47 51/51/51 45/45/45
f 49/49/49 45/45/45 51/51/51
f 45/45/45 49/49/49 46/46/46
f 50/50/50 46/46/46 49/49/49
f 46/46/46 39/39/39 45/45/45
f 38/38/38 45/45/45 39/39/39
f 45/45/45 38/38/38 47/47/47
f 41/41/41 47/47/47 38/38/38
f 47/47/47 41/41/41 48/48/48
f 43/43/43 48/48/48 41/41/41
f 39/39/39 37/37/37 38/38/38
f 40/40/40 38/38/38 37/37/37
f 38/38/38 40/40/40 41/41/41
f 42/42/42 41/41/41 40/40/40
f 41/41/41 42/42/42 43/43/43
f 44/44/44 43/43/43 42/42/42
f 54/54/54 53/53/53 56/56/56
f 53/53/53 54/54/54 55/55/55
f 61/61/61 55/55/55 54/54/54
f 55/55/55 61/61/61 62/62/62
f 65/65/65 62/62/62 61/61/61
f 62/62/62 65/65/65 66/66/66
f 61/61/61 67/67/67 65/65/65
f 67/67/67 61/61/61 63/63/63
f 54/54/54 63/63/63 61/61/61
f 63/63/63 54/54/54 57/57/57
f 56/56/56 57/57/57 54/54/54
f 57/57/57 56/56/56 58/58/58
f 59/59/59 58/58/58 60/60/60
f 58/58/58 59/59/59 57/57/57
f 64/64/64 57/57/57 59/59/59
f 57/57/57 64/64/64 63/63/63
f 68/68/68 63/63/63 64/64/64
f 63/63/63 68/68/68 67/67/67
f 10/10/10 11/11/11 12/12/12
f 11/11/11 10/10/10 9/9/9
f 8/8/8 9/9/9 10/10/10
f 9/9/9 8/8/8 7/7/7
f 5/5/5 7/7/7 8/8/8
f 7/7/7 5/5/5 6/6/6
f 15/15/15 13/13/13 14/14/14
f 13/13/13 15/15/15 16/16/16
f 17/17/17 16/16/16 15/15/15
f 16/16/16 17/17/17 18/18/18
f 19/19/19 18/18/18 17/17/17
f 18/18/18 19/19/19 20/20/20
f 23/23/23 21/21/21 22/22/22
f 21/21/21 23/23/23 24/24/24
f 25/25/25 24/24/24 23/23/23
f 24/24/24 25/25/25 26/26/26
f 27/27/27 26/26/26 25/25/25
f 26/26/26 27/27/27 28/28/28
f 31/31/31 29/29/29 30/30/30
f 29/29/29 31/31/31 32/32/32
f 33/33/33 32/32/32 31/31/31
f 32/32/32 33/33/33 34/34/34
f 35/35/35 34/34/34 33/33/33
f 34/34/34 35/35/35 36/36/36
