mtllib INST_HTOWN_BOARDC.mtl
g _BoardC_Lod1_01
usemtl BoardC
v -150.000000 0.032236 7.894804
vn -0.666723 -0.666622 0.333311
vt 0.752720 0.998696
v -150.000000 16.167765 7.894820
vn -0.408197 0.408258 0.816517
vt 0.752720 0.875765
v -150.000000 16.167765 -8.240724
vn -0.666611 0.666712 -0.333356
vt 0.997363 0.875765
v -150.000000 0.032236 -8.240725
vn -0.408300 -0.408237 -0.816476
vt 0.997363 0.998696
v 150.000000 -0.013153 7.894900
vn 0.666639 -0.333346 0.666689
vt 0.752720 0.998696
v 150.000000 -0.013153 -8.240659
vn 0.408146 -0.816537 -0.408269
vt 0.997363 0.998696
v 150.000000 16.122375 -8.240628
vn 0.666694 0.333322 -0.666645
vt 0.997363 0.875765
v 150.000031 16.122375 7.894901
vn 0.408352 0.816455 0.408227
vt 0.752720 0.875765
v -150.000000 0.032236 7.894804
vn -0.666723 -0.666622 0.333311
vt 0.250000 0.873425
v -150.000000 0.032236 -8.240725
vn -0.408300 -0.408237 -0.816476
vt 0.500000 0.873425
v 150.000000 -0.013153 -8.240659
vn 0.408146 -0.816537 -0.408269
vt 0.500000 0.000499
v 150.000000 -0.013153 7.894900
vn 0.666639 -0.333346 0.666689
vt 0.250000 0.000499
v -150.000000 16.167765 -8.240724
vn -0.666611 0.666712 -0.333356
vt 0.750000 0.873425
v 150.000000 16.122375 -8.240628
vn 0.666694 0.333322 -0.666645
vt 0.750000 0.000499
v -150.000000 16.167765 7.894820
vn -0.408197 0.408258 0.816517
vt 1.000000 0.873425
v 150.000031 16.122375 7.894901
vn 0.408352 0.816455 0.408227
vt 1.000000 0.000499
v -150.000000 16.167765 7.894820
vn -0.408197 0.408258 0.816517
vt -0.000000 0.873425
v 150.000031 16.122375 7.894901
vn 0.408352 0.816455 0.408227
vt -0.000000 0.000499
f 3/3/3 1/1/1 2/2/2
f 1/1/1 3/3/3 4/4/4
f 15/15/15 16/16/16 13/13/13
f 14/14/14 13/13/13 16/16/16
f 13/13/13 14/14/14 10/10/10
f 11/11/11 10/10/10 14/14/14
f 10/10/10 11/11/11 9/9/9
f 12/12/12 9/9/9 11/11/11
f 9/9/9 12/12/12 17/17/17
f 18/18/18 17/17/17 12/12/12
f 7/7/7 5/5/5 6/6/6
f 5/5/5 7/7/7 8/8/8
