mtllib INST_DOOR_SYMBOL.mtl
g door_symbol
usemtl symbol1
v 7.484858 20.334562 3.004473
vn -0.000001 0.000001 -1.000000
vt 0.422794 0.259906
v 8.370569 32.444523 3.004473
vn 0.000000 0.000000 -1.000000
vt 0.415888 0.165483
v 10.639708 30.989584 3.004473
vn 0.000000 0.000000 -1.000000
vt 0.398195 0.176827
v 8.615031 20.005568 3.004473
vn 0.000000 0.000001 -1.000000
vt 0.413982 0.262471
v 7.290649 15.965778 3.004465
vn 0.000000 0.000003 -1.000000
vt 0.424308 0.293969
v 6.375029 18.921717 3.004473
vn 0.000000 0.000003 -1.000000
vt 0.431447 0.270922
v -7.107910 18.784407 3.004475
vn -0.000001 0.000001 -1.000000
vt 0.536573 0.271992
v -4.166676 17.414829 3.004472
vn 0.000000 0.000003 -1.000000
vt 0.513640 0.282671
v -5.641588 16.313620 3.004472
vn 0.000000 0.000001 -1.000000
vt 0.525140 0.291257
v 5.769886 17.356909 3.004465
vn 0.000001 0.000005 -1.000000
vt 0.436165 0.283123
v -3.401613 5.572196 3.004468
vn 0.000000 0.000001 -1.000000
vt 0.507675 0.375009
v -2.265766 7.762249 3.004472
vn 0.000000 0.000002 -1.000000
vt 0.498819 0.357933
v -0.198694 5.549269 3.004466
vn -0.000001 0.000002 -1.000000
vt 0.482702 0.375188
v -4.323606 15.536171 3.004456
vn 0.000000 0.000000 -1.000000
vt 0.514864 0.297319
v -3.571450 17.542215 3.004456
vn 0.000000 0.000000 -1.000000
vt 0.508999 0.281678
v -2.333610 14.789902 3.004456
vn 0.000000 0.000000 -1.000000
vt 0.499348 0.303138
v 12.819420 20.387506 3.004473
vn 0.000000 -0.000001 -1.000000
vt 0.381200 0.259493
v 11.119250 23.404968 3.004471
vn 0.000000 -0.000001 -1.000000
vt 0.394456 0.235965
v 16.767534 19.210543 3.004472
vn 0.000000 -0.000001 -1.000000
vt 0.350417 0.268670
v 18.449327 25.253098 3.004472
vn 0.000000 0.000000 -1.000000
vt 0.337304 0.221555
v 10.910892 23.394026 3.004473
vn 0.000000 0.000000 -1.000000
vt 0.396081 0.236051
v 14.595856 26.181704 3.004473
vn 0.000000 0.000000 -1.000000
vt 0.367349 0.214315
v -7.458811 28.667402 3.004466
vn 0.000000 0.000000 -1.000000
vt 0.539309 0.194934
v 9.294233 26.329323 3.004467
vn 0.000000 0.000000 -1.000000
vt 0.408686 0.213164
v -5.151571 26.831083 3.004466
vn 0.000000 0.000000 -1.000000
vt 0.521320 0.209252
v 6.506746 33.231010 3.004471
vn 0.000000 0.000000 -1.000000
vt 0.430420 0.159351
v 4.088421 18.588522 3.004467
vn 0.000000 0.000000 -1.000000
vt 0.449276 0.273520
v 3.871244 34.380005 3.004472
vn 0.000000 0.000000 -1.000000
vt 0.450969 0.150392
v -6.577452 34.175434 3.004474
vn 0.000001 0.000003 -1.000000
vt 0.532437 0.151987
v 9.655073 28.944506 3.004473
vn 0.000001 0.000003 -1.000000
vt 0.405872 0.192773
v -5.195741 31.065638 3.004466
vn 0.000001 0.000003 -1.000000
vt 0.521664 0.176234
v -7.745508 24.969486 3.004466
vn 0.000000 -0.000002 -1.000000
vt 0.541544 0.223767
v 8.874183 23.686291 3.004467
vn 0.000000 -0.000002 -1.000000
vt 0.411961 0.233772
v -5.113020 23.144123 3.004470
vn 0.000000 -0.000002 -1.000000
vt 0.521019 0.237999
v -7.301180 21.426762 3.004472
vn 0.000000 0.000001 -1.000000
vt 0.538080 0.251390
v 8.208040 21.032328 3.004471
vn 0.000000 0.000001 -1.000000
vt 0.417155 0.254465
v -4.653880 19.805767 3.004470
vn 0.000000 0.000001 -1.000000
vt 0.517439 0.264029
v -1.710939 15.379740 3.004456
vn 0.000000 0.000000 -1.000000
vt 0.494493 0.298539
v -1.011521 17.373589 3.004455
vn 0.000000 0.000000 -1.000000
vt 0.489040 0.282992
v 0.311169 14.640898 3.004455
vn 0.000000 0.000000 -1.000000
vt 0.478727 0.304300
v 1.053374 15.126628 3.004455
vn 0.000000 0.000000 -1.000000
vt 0.472940 0.300512
v 1.376822 17.140949 3.004455
vn 0.000000 0.000000 -1.000000
vt 0.470418 0.284806
v 3.231903 14.619569 3.004455
vn 0.000000 0.000000 -1.000000
vt 0.455954 0.304466
v 4.297163 14.996744 3.004455
vn 0.000000 0.000000 -1.000000
vt 0.447648 0.301525
v 4.399574 16.998810 3.004455
vn 0.000000 0.000000 -1.000000
vt 0.446850 0.285915
v 6.371578 14.729373 3.004455
vn 0.000000 0.000000 -1.000000
vt 0.431474 0.303610
v 2.796919 8.697910 3.004472
vn -0.000001 0.000002 -1.000000
vt 0.459345 0.350637
f 14/14/14 15/15/15 16/16/16
f 5/5/5 10/10/10 6/6/6
f 8/8/8 6/6/6 10/10/10
f 6/6/6 8/8/8 7/7/7
f 9/9/9 7/7/7 8/8/8
f 7/7/7 9/9/9 11/11/11
f 12/12/12 11/11/11 9/9/9
f 11/11/11 12/12/12 13/13/13
f 47/47/47 13/13/13 12/12/12
f 6/6/6 1/1/1 5/5/5
f 2/2/2 3/3/3 1/1/1
f 4/4/4 1/1/1 3/3/3
f 1/1/1 4/4/4 5/5/5
f 17/17/17 18/18/18 19/19/19
f 20/20/20 21/21/21 22/22/22
f 23/23/23 24/24/24 25/25/25
f 26/26/26 27/27/27 28/28/28
f 29/29/29 30/30/30 31/31/31
f 32/32/32 33/33/33 34/34/34
f 35/35/35 36/36/36 37/37/37
f 38/38/38 39/39/39 40/40/40
f 41/41/41 42/42/42 43/43/43
f 44/44/44 45/45/45 46/46/46
usemtl symbol2
v 7.115917 20.477432 3.360294
vn -0.000001 0.000001 -1.000000
vt 0.224793 0.076391
v 8.039578 33.106239 3.360298
vn -0.000001 0.000000 -1.000000
vt 0.224395 0.070955
v 11.057890 31.170944 3.360293
vn -0.000001 0.000000 -1.000000
vt 0.223376 0.071608
v 8.982522 19.911926 3.360294
vn 0.000000 0.000001 -1.000000
vt 0.224285 0.076539
v 7.467646 15.291073 3.360286
vn 0.000000 0.000002 -1.000000
vt 0.224880 0.078353
v 6.189630 19.298239 3.360294
vn 0.000000 0.000002 -1.000000
vt 0.225291 0.077026
v -7.605620 19.157749 3.360295
vn 0.000000 0.000000 -1.000000
vt 0.231344 0.077087
v -4.041985 17.035732 3.360295
vn 0.000000 0.000001 -1.000000
vt 0.230024 0.077702
v -5.183422 16.183504 3.360295
vn 0.000001 0.000000 -1.000000
vt 0.230686 0.078196
v 5.621994 16.979399 3.360286
vn 0.000001 0.000003 -1.000000
vt 0.225563 0.077728
v -3.689028 5.195879 3.360291
vn 0.000000 0.000001 -1.000000
vt 0.229680 0.083019
v -2.028204 8.190953 3.360295
vn 0.000000 0.000002 -1.000000
vt 0.229170 0.082036
v -0.037522 5.169740 3.360286
vn -0.000001 0.000002 -1.000000
vt 0.228242 0.083029
v -4.810732 15.314738 3.360278
vn 0.000000 0.000000 -1.000000
vt 0.230094 0.078546
v -3.603200 18.535299 3.360278
vn 0.000000 0.000000 -1.000000
vt 0.229756 0.077645
v -1.615936 14.116658 3.360278
vn 0.000000 0.000000 -1.000000
vt 0.229201 0.078881
v 12.564813 20.068567 3.360293
vn 0.000000 0.000000 -1.000000
vt 0.222398 0.076367
v 9.915891 24.769878 3.360293
vn 0.000000 0.000000 -1.000000
vt 0.223161 0.075013
v 18.716110 18.234818 3.360293
vn 0.000000 0.000000 -1.000000
vt 0.220625 0.076896
v 20.046822 25.257345 3.360293
vn 0.000000 0.000000 -1.000000
vt 0.219870 0.074183
v 9.216076 22.586349 3.360294
vn 0.000000 0.000000 -1.000000
vt 0.223255 0.075018
v 14.510399 26.591509 3.360293
vn 0.000000 0.000000 -1.000000
vt 0.221600 0.073766
v -8.777710 29.233519 3.360287
vn 0.000000 0.000000 -1.000000
vt 0.231502 0.072650
v 9.333401 26.325922 3.360290
vn 0.000000 0.000000 -1.000000
vt 0.223980 0.073700
v -5.289497 26.457270 3.360287
vn 0.000000 0.000000 -1.000000
vt 0.230466 0.073475
v 6.928087 33.460098 3.360294
vn 0.000000 0.000000 -1.000000
vt 0.225232 0.070601
v 3.768575 14.329872 3.360290
vn 0.000000 0.000000 -1.000000
vt 0.226318 0.077175
v 3.484838 34.961243 3.360294
vn 0.000000 0.000000 -1.000000
vt 0.226415 0.070086
v -7.266823 34.795151 3.360299
vn 0.000001 0.000003 -1.000000
vt 0.231106 0.070177
v 14.001075 27.941578 3.360297
vn 0.000001 0.000003 -1.000000
vt 0.223818 0.072526
v -5.456503 30.720692 3.360287
vn 0.000001 0.000003 -1.000000
vt 0.230486 0.071574
v -9.108639 25.454220 3.360287
vn 0.000000 -0.000001 -1.000000
vt 0.231630 0.074310
v 8.917966 23.685434 3.360290
vn 0.000000 -0.000001 -1.000000
vt 0.224169 0.074887
v -5.224716 22.761114 3.360291
vn 0.000000 -0.000001 -1.000000
vt 0.230448 0.075130
v -8.702094 21.840902 3.360295
vn 0.000000 0.000002 -1.000000
vt 0.231431 0.075901
v 8.253581 21.033928 3.360294
vn 0.000000 0.000002 -1.000000
vt 0.224468 0.076078
v -4.743725 19.417116 3.360291
vn 0.000000 0.000002 -1.000000
vt 0.230242 0.076629
v -2.191624 15.152530 3.360278
vn 0.000000 0.000000 -1.000000
vt 0.228921 0.078616
v -1.067371 18.357470 3.360278
vn 0.000000 0.000000 -1.000000
vt 0.228607 0.077721
v 1.058739 13.964906 3.360278
vn 0.000000 0.000000 -1.000000
vt 0.228013 0.078947
v 0.623821 14.838117 3.360278
vn 0.000000 0.000000 -1.000000
vt 0.227680 0.078729
v 1.146409 18.092604 3.360278
vn 0.000000 0.000000 -1.000000
vt 0.227535 0.077825
v 4.143615 14.018874 3.360277
vn 0.000000 0.000000 -1.000000
vt 0.226702 0.078957
v 3.901384 14.666248 3.360278
vn 0.000000 0.000000 -1.000000
vt 0.226224 0.078788
v 4.069633 17.955391 3.360278
vn 0.000000 0.000000 -1.000000
vt 0.226178 0.077889
v 7.309389 14.226991 3.360277
vn 0.000000 0.000000 -1.000000
vt 0.225293 0.078908
v 3.874797 9.281918 3.360294
vn -0.000001 0.000002 -1.000000
vt 0.226897 0.081616
f 61/61/61 62/62/62 63/63/63
f 52/52/52 57/57/57 53/53/53
f 55/55/55 53/53/53 57/57/57
f 53/53/53 55/55/55 54/54/54
f 56/56/56 54/54/54 55/55/55
f 54/54/54 56/56/56 58/58/58
f 59/59/59 58/58/58 56/56/56
f 58/58/58 59/59/59 60/60/60
f 94/94/94 60/60/60 59/59/59
f 53/53/53 48/48/48 52/52/52
f 49/49/49 50/50/50 48/48/48
f 51/51/51 48/48/48 50/50/50
f 48/48/48 51/51/51 52/52/52
f 64/64/64 65/65/65 66/66/66
f 67/67/67 68/68/68 69/69/69
f 70/70/70 71/71/71 72/72/72
f 73/73/73 74/74/74 75/75/75
f 76/76/76 77/77/77 78/78/78
f 79/79/79 80/80/80 81/81/81
f 82/82/82 83/83/83 84/84/84
f 85/85/85 86/86/86 87/87/87
f 88/88/88 89/89/89 90/90/90
f 91/91/91 92/92/92 93/93/93
