mtllib INST_HTOWN_CLIFFPIECEC.mtl
g fPieceC_Lod1_01
usemtl Material_#105
v 0.000000 20.721451 0.000002
vn -0.000077 1.000000 0.000049
vt 0.500000 0.500000
v 0.000013 14.379220 146.480667
vn -0.000353 0.999064 0.043257
vt 0.000500 0.500000
v 58.384750 14.379221 140.950333
vn 0.012447 0.999130 0.039801
vt 0.000500 0.736790
v 150.292419 14.379227 -0.000012
vn 0.042162 0.999111 0.000220
vt 0.500000 0.999500
v 144.028503 14.379230 -58.809307
vn 0.038675 0.999167 -0.013035
vt 0.744806 0.999501
v -0.000013 14.379233 -146.480667
vn 0.000058 0.999064 -0.043257
vt 0.999500 0.500000
v -62.557091 14.379232 -139.613342
vn -0.013009 0.999133 -0.039559
vt 0.999500 0.245915
v -150.292419 14.379227 0.000015
vn -0.042162 0.999111 -0.000169
vt 0.500000 0.000500
v -144.157364 14.379224 58.125732
vn -0.038736 0.999166 0.012953
vt 0.257844 0.000500
v -0.000013 14.379233 -146.480667
vn 0.001334 0.000000 -0.999999
vt 0.500000 0.000499
v -0.000013 -41.163841 -146.480652
vn 0.046392 -0.066924 -0.996679
vt 0.500000 0.250250
v -62.557091 14.379232 -139.613342
vn -0.313278 -0.076426 -0.946581
vt 0.754085 0.000499
v 63.488369 14.379232 -139.339615
vn 0.315435 -0.076593 -0.945851
vt 0.242495 0.000499
v 112.719307 14.379231 -109.860512
vn 0.703348 0.000000 -0.710846
vt 0.000499 0.000499
v 112.719307 -41.163845 -109.860512
vn 0.748361 -0.071032 -0.659478
vt 0.000499 0.250250
v 112.719307 -211.072968 -109.860527
vn 0.701636 0.000000 -0.712536
vt 0.000499 0.999500
v -0.000013 -211.072968 -146.480698
vn 0.000000 0.000000 -1.000000
vt 0.500000 0.999500
v -0.000013 -96.706932 -146.480667
vn -0.046361 0.000000 -0.998925
vt 0.500000 0.500000
v 112.719307 -96.706932 -109.860519
vn 0.627269 0.000000 -0.778802
vt 0.000499 0.500000
v -112.719322 -211.072968 -109.860504
vn -0.701636 0.000000 -0.712535
vt 0.999500 0.999501
v -112.719322 -96.706932 -109.860497
vn -0.769041 0.000000 -0.639199
vt 0.999500 0.500000
v -150.292419 14.379227 0.000015
vn -0.999992 0.000000 -0.003960
vt 0.500000 0.000499
v -150.292419 -41.163849 0.000012
vn -0.996444 -0.068161 -0.049523
vt 0.500000 0.250250
v -144.157364 14.379224 58.125732
vn -0.944176 -0.077697 0.320149
vt 0.257843 0.000499
v -143.451767 14.379230 -60.236145
vn -0.942407 -0.077788 -0.325297
vt 0.750748 0.000499
v -112.719322 14.379231 -109.860497
vn -0.700309 0.000000 -0.713840
vt 0.999500 0.000499
v -112.719322 -41.163845 -109.860497
vn -0.647904 -0.070740 -0.758430
vt 0.999500 0.250250
v -150.292419 -211.072968 0.000003
vn -1.000000 0.000000 0.000000
vt 0.500000 0.999501
v -150.292419 -96.706940 0.000010
vn -0.998809 0.000000 0.048800
vt 0.500000 0.500000
v -112.719307 -211.072968 109.860504
vn -0.701636 0.000000 0.712536
vt 0.000499 0.999501
v -112.719307 -96.706947 109.860512
vn -0.627269 0.000000 0.778802
vt 0.000499 0.500000
v 0.000013 14.379220 146.480667
vn -0.008075 0.000000 0.999967
vt 0.500000 0.000499
v 0.000013 -41.163857 146.480667
vn -0.048380 -0.066676 0.996601
vt 0.500000 0.250250
v 58.384750 14.379221 140.950333
vn 0.303622 -0.076321 0.949731
vt 0.263210 0.000499
v -62.706142 14.379221 139.517563
vn -0.313645 -0.076161 0.946481
vt 0.754690 0.000499
v -112.719307 14.379222 109.860512
vn -0.703278 0.000000 0.710915
vt 0.999500 0.000499
v -112.719307 -41.163853 109.860512
vn -0.748379 -0.070604 0.659503
vt 0.999500 0.250250
v -112.719307 -211.072968 109.860504
vn -0.701636 0.000000 0.712536
vt 0.999500 0.999500
v 0.000013 -211.072968 146.480637
vn 0.000000 0.000000 1.000000
vt 0.500000 0.999500
v 0.000013 -96.706932 146.480667
vn 0.046361 0.000000 0.998925
vt 0.500000 0.500000
v -112.719307 -96.706947 109.860512
vn -0.627269 0.000000 0.778802
vt 0.999500 0.500000
v 112.719322 -211.072968 109.860489
vn 0.701636 0.000000 0.712535
vt 0.000499 0.999501
v 112.719322 -96.706947 109.860489
vn 0.769041 0.000000 0.639199
vt 0.000499 0.500000
v 150.292419 14.379227 -0.000012
vn 0.999987 0.000000 0.005159
vt 0.500000 0.000499
v 150.292419 -41.163849 -0.000014
vn 0.996397 -0.068586 0.049891
vt 0.500000 0.250250
v 144.028503 14.379230 -58.809307
vn 0.943592 -0.078284 -0.321722
vt 0.744806 0.000499
v 143.103210 14.379224 61.467419
vn 0.941340 -0.078198 0.328274
vt 0.243927 0.000499
v 112.719322 14.379222 109.860497
vn 0.692489 0.000000 0.721428
vt 0.000499 0.000499
v 112.719322 -41.163853 109.860497
vn 0.645349 -0.070883 0.760592
vt 0.000499 0.250250
v 150.292419 -211.072968 -0.000023
vn 1.000000 0.000000 0.000000
vt 0.500000 0.999501
v 150.292419 -96.706940 -0.000017
vn 0.998809 0.000000 -0.048800
vt 0.500000 0.500000
v 112.719307 -211.072968 -109.860527
vn 0.701636 0.000000 -0.712536
vt 0.999500 0.999501
v 112.719307 -96.706932 -109.860519
vn 0.627269 0.000000 -0.778802
vt 0.999500 0.500000
v -112.719322 -211.072968 -109.860504
vn -0.701636 0.000000 -0.712535
vt 0.999500 0.000499
v -0.000013 -211.072968 -146.480698
vn 0.000000 0.000000 -1.000000
vt 0.500000 0.000499
v -0.000013 -331.998749 -146.480698
vn 0.000000 0.000000 -1.000000
vt 0.500000 0.500000
v -112.719322 -331.998749 -109.860512
vn -0.701636 0.000000 -0.712535
vt 0.999500 0.500000
v 112.719307 -211.072968 -109.860527
vn 0.701636 0.000000 -0.712536
vt 0.000499 0.000499
v 112.719307 -331.998749 -109.860535
vn 0.701636 0.000000 -0.712536
vt 0.000499 0.500000
v 112.719307 -460.080750 -109.860550
vn 0.701636 0.000000 -0.712536
vt 0.000499 0.999500
v -0.000013 -460.080719 -146.480698
vn 0.000000 0.000000 -1.000000
vt 0.500000 0.999500
v -112.719322 -460.080750 -109.860519
vn -0.701636 0.000000 -0.712535
vt 0.999500 0.999501
v -112.719307 -211.072968 109.860504
vn -0.701636 0.000000 0.712536
vt 0.000499 0.000499
v -150.292419 -211.072968 0.000003
vn -1.000000 0.000000 0.000000
vt 0.500000 0.000499
v -150.292419 -331.998749 -0.000008
vn -1.000000 0.000000 0.000000
vt 0.500000 0.500000
v -112.719307 -331.998749 109.860489
vn -0.701636 0.000000 0.712536
vt 0.000499 0.500000
v -150.292419 -460.080719 -0.000014
vn -1.000000 0.000000 0.000000
vt 0.500000 0.999501
v -112.719307 -460.080750 109.860481
vn -0.701636 0.000000 0.712536
vt 0.000499 0.999501
v 112.719322 -211.072968 109.860489
vn 0.701636 0.000000 0.712535
vt 0.000499 0.000499
v 0.000013 -211.072968 146.480637
vn 0.000000 0.000000 1.000000
vt 0.500000 0.000499
v 0.000013 -331.998749 146.480637
vn 0.000000 0.000000 1.000000
vt 0.500000 0.500000
v 112.719322 -331.998749 109.860466
vn 0.701636 0.000000 0.712535
vt 0.000499 0.500000
v -112.719307 -211.072968 109.860504
vn -0.701636 0.000000 0.712536
vt 0.999500 0.000499
v -112.719307 -331.998749 109.860489
vn -0.701636 0.000000 0.712536
vt 0.999500 0.500000
v -112.719307 -460.080750 109.860481
vn -0.701636 0.000000 0.712536
vt 0.999500 0.999500
v 0.000013 -460.080719 146.480637
vn 0.000000 0.000000 1.000000
vt 0.500000 0.999500
v 112.719322 -460.080750 109.860474
vn 0.701636 0.000000 0.712535
vt 0.000499 0.999501
v 112.719307 -211.072968 -109.860527
vn 0.701636 0.000000 -0.712536
vt 0.999500 0.000499
v 150.292419 -211.072968 -0.000023
vn 1.000000 0.000000 0.000000
vt 0.500000 0.000499
v 150.292419 -331.998749 -0.000034
vn 1.000000 0.000000 0.000000
vt 0.500000 0.500000
v 112.719307 -331.998749 -109.860535
vn 0.701636 0.000000 -0.712536
vt 0.999500 0.500000
v 150.292419 -460.080719 -0.000040
vn 1.000000 0.000000 0.000000
vt 0.500000 0.999501
v 112.719307 -460.080750 -109.860550
vn 0.701636 0.000000 -0.712536
vt 0.999500 0.999501
v -112.719315 -700.698608 0.000005
vn -0.584677 -0.811266 0.000000
vt 0.500000 0.000500
v -83.495804 -673.532532 -81.378159
vn -0.608241 -0.495089 -0.620427
vt 0.999501 0.000500
v -0.000010 -700.698608 -109.860504
vn 0.000000 -0.805860 -0.592106
vt 0.999500 0.500000
v 83.495789 -673.532532 -81.378166
vn 0.608241 -0.495089 -0.620427
vt 0.999500 0.999501
v 112.719315 -700.698608 -0.000015
vn 0.584677 -0.811266 0.000000
vt 0.500000 0.999500
v 83.495804 -673.532532 81.378136
vn 0.608241 -0.495089 0.620427
vt 0.000499 0.999500
v 0.000010 -700.698608 109.860497
vn 0.000000 -0.805860 0.592106
vt 0.000500 0.500000
v -83.495789 -673.532532 81.378151
vn -0.608241 -0.495089 0.620427
vt 0.000500 0.000499
v -112.719322 -460.080750 -109.860519
vn -0.701636 0.000000 -0.712535
vt 0.999500 0.000499
v -0.000013 -460.080719 -146.480698
vn 0.000000 0.000000 -1.000000
vt 0.500000 0.000499
v -0.000013 -595.915405 -146.480698
vn 0.000000 -0.195774 -0.980649
vt 0.500000 0.500000
v -112.719322 -595.915405 -109.860504
vn -0.680429 -0.242266 -0.691609
vt 0.999500 0.500000
v 112.719307 -460.080750 -109.860550
vn 0.701636 0.000000 -0.712536
vt 0.000499 0.000499
v 112.719307 -595.915405 -109.860527
vn 0.680429 -0.242266 -0.691610
vt 0.000499 0.500000
v 83.495789 -673.532532 -81.378166
vn 0.608241 -0.495089 -0.620427
vt 0.000499 0.999500
v -0.000010 -700.698608 -109.860504
vn 0.000000 -0.805860 -0.592106
vt 0.500000 0.999500
v -83.495804 -673.532532 -81.378159
vn -0.608241 -0.495089 -0.620427
vt 0.999500 0.999501
v -112.719307 -460.080750 109.860481
vn -0.701636 0.000000 0.712536
vt 0.000499 0.000499
v -150.292419 -460.080719 -0.000014
vn -1.000000 0.000000 0.000000
vt 0.500000 0.000499
v -150.292419 -595.915405 -0.000004
vn -0.979750 -0.200226 0.000000
vt 0.500000 0.500000
v -112.719307 -595.915405 109.860497
vn -0.680429 -0.242266 0.691610
vt 0.000499 0.500000
v -112.719315 -700.698608 0.000005
vn -0.584677 -0.811266 0.000000
vt 0.500000 0.999501
v -83.495789 -673.532532 81.378151
vn -0.608241 -0.495089 0.620427
vt 0.000499 0.999501
v 112.719322 -460.080750 109.860474
vn 0.701636 0.000000 0.712535
vt 0.000499 0.000499
v 0.000013 -460.080719 146.480637
vn 0.000000 0.000000 1.000000
vt 0.500000 0.000499
v 0.000013 -595.915405 146.480652
vn 0.000000 -0.195774 0.980649
vt 0.500000 0.500000
v 112.719322 -595.915405 109.860474
vn 0.680429 -0.242266 0.691610
vt 0.000499 0.500000
v -112.719307 -460.080750 109.860481
vn -0.701636 0.000000 0.712536
vt 0.999500 0.000499
v -112.719307 -595.915405 109.860497
vn -0.680429 -0.242266 0.691610
vt 0.999500 0.500000
v -83.495789 -673.532532 81.378151
vn -0.608241 -0.495089 0.620427
vt 0.999500 0.999500
v 0.000010 -700.698608 109.860497
vn 0.000000 -0.805860 0.592106
vt 0.500000 0.999500
v 112.719307 -460.080750 -109.860550
vn 0.701636 0.000000 -0.712536
vt 0.999500 0.000499
v 150.292419 -460.080719 -0.000040
vn 1.000000 0.000000 0.000000
vt 0.500000 0.000499
v 150.292419 -595.915405 -0.000031
vn 0.979750 -0.200226 0.000000
vt 0.500000 0.500000
v 112.719307 -595.915405 -109.860527
vn 0.680429 -0.242266 -0.691610
vt 0.999500 0.500000
v -112.719307 -41.163853 109.860512
vn -0.748379 -0.070604 0.659503
vt 0.000499 0.250250
v 112.719307 -41.163845 -109.860512
vn 0.748361 -0.071032 -0.659478
vt 0.999500 0.250250
v -112.719307 14.379222 109.860512
vn -0.703278 0.000000 0.710915
vt 0.000499 0.000499
v -112.719307 14.379222 109.860512
vn -0.028287 0.999189 0.028660
vt 0.000500 0.000499
v -143.451767 14.379230 -60.236145
vn -0.038611 0.999166 -0.013250
vt 0.750748 0.000500
v -112.719322 14.379231 -109.860497
vn -0.028164 0.999189 -0.028786
vt 0.999500 0.000500
v -62.706142 14.379221 139.517563
vn -0.013035 0.999132 0.039560
vt 0.000500 0.245310
v 112.719322 14.379222 109.860497
vn 0.027837 0.999188 0.029122
vt 0.000499 0.999500
v 143.103210 14.379224 61.467419
vn 0.038520 0.999168 0.013415
vt 0.243927 0.999500
v 112.719307 14.379231 -109.860512
vn 0.703348 0.000000 -0.710846
vt 0.999500 0.000499
v 112.719307 14.379231 -109.860512
vn 0.028291 0.999189 -0.028655
vt 0.999500 0.999501
v 63.488369 14.379232 -139.339615
vn 0.013130 0.999134 -0.039494
vt 0.999500 0.757505
v -0.000000 -727.463196 -0.000000
vn 0.000000 -1.000000 0.000000
vt 0.500000 0.500000
f 90/90/90 91/91/91 84/84/84
f 85/85/85 86/86/86 84/84/84
f 131/131/131 84/84/84 86/86/86
f 84/84/84 131/131/131 90/90/90
f 88/88/88 90/90/90 131/131/131
f 90/90/90 88/88/88 89/89/89
f 117/117/117 89/89/89 88/88/88
f 89/89/89 117/117/117 110/110/110
f 117/117/117 118/118/118 115/115/115
f 118/118/118 117/117/117 87/87/87
f 88/88/88 87/87/87 117/117/117
f 87/87/87 88/88/88 86/86/86
f 131/131/131 86/86/86 88/88/88
f 115/115/115 116/116/116 117/117/117
f 107/107/107 117/117/117 116/116/116
f 117/117/117 107/107/107 110/110/110
f 109/109/109 110/110/110 107/107/107
f 110/110/110 109/109/109 89/89/89
f 114/114/114 89/89/89 109/109/109
f 107/107/107 108/108/108 109/109/109
f 111/111/111 109/109/109 108/108/108
f 111/111/111 112/112/112 109/109/109
f 113/113/113 109/109/109 112/112/112
f 109/109/109 113/113/113 114/114/114
f 38/38/38 39/39/39 40/40/40
f 42/42/42 40/40/40 39/39/39
f 40/40/40 42/42/42 43/43/43
f 51/51/51 43/43/43 42/42/42
f 43/43/43 51/51/51 45/45/45
f 120/120/120 45/45/45 51/51/51
f 45/45/45 120/120/120 46/46/46
f 128/128/128 46/46/46 120/120/120
f 40/40/40 41/41/41 38/38/38
f 51/51/51 53/53/53 120/120/120
f 42/42/42 50/50/50 51/51/51
f 52/52/52 51/51/51 50/50/50
f 51/51/51 52/52/52 53/53/53
f 37/37/37 41/41/41 33/33/33
f 40/40/40 33/33/33 41/41/41
f 33/33/33 40/40/40 49/49/49
f 43/43/43 49/49/49 40/40/40
f 49/49/49 43/43/43 45/45/45
f 45/45/45 47/47/47 49/49/49
f 47/47/47 45/45/45 44/44/44
f 46/46/46 44/44/44 45/45/45
f 37/37/37 35/35/35 36/36/36
f 35/35/35 37/37/37 33/33/33
f 47/47/47 48/48/48 49/49/49
f 34/34/34 49/49/49 48/48/48
f 49/49/49 34/34/34 33/33/33
f 32/32/32 33/33/33 34/34/34
f 33/33/33 32/32/32 35/35/35
f 15/15/15 13/13/13 14/14/14
f 13/13/13 15/15/15 11/11/11
f 19/19/19 11/11/11 15/15/15
f 11/11/11 19/19/19 18/18/18
f 16/16/16 18/18/18 19/19/19
f 18/18/18 16/16/16 17/17/17
f 18/18/18 17/17/17 20/20/20
f 11/11/11 10/10/10 13/13/13
f 11/11/11 12/12/12 10/10/10
f 12/12/12 11/11/11 27/27/27
f 18/18/18 27/27/27 11/11/11
f 27/27/27 18/18/18 21/21/21
f 20/20/20 21/21/21 18/18/18
f 21/21/21 20/20/20 29/29/29
f 28/28/28 29/29/29 20/20/20
f 29/29/29 28/28/28 30/30/30
f 30/30/30 31/31/31 29/29/29
f 27/27/27 21/21/21 23/23/23
f 29/29/29 23/23/23 21/21/21
f 23/23/23 29/29/29 119/119/119
f 31/31/31 119/119/119 29/29/29
f 23/23/23 25/25/25 27/27/27
f 26/26/26 27/27/27 25/25/25
f 27/27/27 26/26/26 12/12/12
f 23/23/23 22/22/22 25/25/25
f 22/22/22 23/23/23 24/24/24
f 119/119/119 24/24/24 23/23/23
f 24/24/24 119/119/119 121/121/121
f 61/61/61 62/62/62 56/56/56
f 57/57/57 56/56/56 62/62/62
f 56/56/56 57/57/57 54/54/54
f 65/65/65 54/54/54 57/57/57
f 54/54/54 65/65/65 64/64/64
f 63/63/63 64/64/64 65/65/65
f 65/65/65 62/62/62 67/67/67
f 62/62/62 65/65/65 57/57/57
f 65/65/65 66/66/66 63/63/63
f 66/66/66 65/65/65 68/68/68
f 67/67/67 68/68/68 65/65/65
f 56/56/56 55/55/55 58/58/58
f 55/55/55 56/56/56 54/54/54
f 56/56/56 60/60/60 61/61/61
f 60/60/60 56/56/56 59/59/59
f 58/58/58 59/59/59 56/56/56
f 71/71/71 70/70/70 73/73/73
f 70/70/70 71/71/71 69/69/69
f 72/72/72 69/69/69 71/71/71
f 69/69/69 72/72/72 80/80/80
f 77/77/77 80/80/80 72/72/72
f 80/80/80 77/77/77 82/82/82
f 71/71/71 77/77/77 72/72/72
f 77/77/77 71/71/71 76/76/76
f 75/75/75 76/76/76 71/71/71
f 73/73/73 74/74/74 71/71/71
f 75/75/75 71/71/71 74/74/74
f 80/80/80 83/83/83 81/81/81
f 83/83/83 80/80/80 82/82/82
f 80/80/80 79/79/79 69/69/69
f 79/79/79 80/80/80 78/78/78
f 81/81/81 78/78/78 80/80/80
f 94/94/94 93/93/93 96/96/96
f 93/93/93 94/94/94 92/92/92
f 95/95/95 92/92/92 94/94/94
f 92/92/92 95/95/95 103/103/103
f 100/100/100 103/103/103 95/95/95
f 103/103/103 100/100/100 105/105/105
f 94/94/94 100/100/100 95/95/95
f 100/100/100 94/94/94 99/99/99
f 98/98/98 99/99/99 94/94/94
f 96/96/96 97/97/97 94/94/94
f 98/98/98 94/94/94 97/97/97
f 103/103/103 106/106/106 104/104/104
f 106/106/106 103/103/103 105/105/105
f 103/103/103 102/102/102 92/92/92
f 102/102/102 103/103/103 101/101/101
f 104/104/104 101/101/101 103/103/103
f 1/1/1 2/2/2 3/3/3
f 2/2/2 1/1/1 125/125/125
f 122/122/122 125/125/125 1/1/1
f 1/1/1 126/126/126 127/127/127
f 126/126/126 1/1/1 3/3/3
f 127/127/127 4/4/4 1/1/1
f 1/1/1 5/5/5 129/129/129
f 5/5/5 1/1/1 4/4/4
f 1/1/1 9/9/9 122/122/122
f 9/9/9 1/1/1 8/8/8
f 123/123/123 8/8/8 1/1/1
f 1/1/1 124/124/124 123/123/123
f 124/124/124 1/1/1 7/7/7
f 129/129/129 130/130/130 1/1/1
f 6/6/6 1/1/1 130/130/130
f 1/1/1 6/6/6 7/7/7
