mtllib BLOCK_CLUSTER03.mtl
g block_cluster03
usemtl Lvl_dwarven_plc_cellingA
v -40.045891 10.045959 90.038582
vn -0.378446 -0.244078 -0.892863
vt 0.449800 0.966200
v -40.045891 290.045959 90.038589
vn -0.292403 0.453374 -0.841993
vt 0.449800 0.033800
v 39.954109 290.045959 90.038582
vn 0.378446 0.244078 -0.892863
vt 0.050200 0.033800
v 39.954109 10.045959 90.038574
vn 0.292403 -0.453374 -0.841993
vt 0.050200 0.966200
v -40.045883 10.045955 190.038574
vn -0.244078 -0.378446 0.892863
vt 0.050200 0.966200
v 39.954117 10.045955 190.038574
vn 0.453374 -0.292403 0.841993
vt 0.449800 0.966200
v 39.954117 290.045959 190.038589
vn 0.244079 0.378446 0.892863
vt 0.449800 0.033800
v -40.045883 290.045959 190.038589
vn -0.453374 0.292403 0.841993
vt 0.050200 0.033800
v 49.954109 10.045959 100.038567
vn 0.892863 -0.244078 -0.378446
vt 0.016900 0.899600
v 49.954109 290.045959 100.038582
vn 0.841993 0.453374 -0.292403
vt 0.483100 0.899600
v 49.954117 290.045959 180.038589
vn 0.892863 0.244078 0.378446
vt 0.483100 0.100400
v 49.954117 10.045956 180.038574
vn 0.841993 -0.453374 0.292403
vt 0.016900 0.100400
v 39.954109 300.045959 100.038582
vn 0.244078 0.892863 -0.378446
vt 0.050200 0.899600
v -40.045891 300.045959 100.038589
vn -0.453374 0.841993 -0.292403
vt 0.449800 0.899600
v -40.045883 300.045959 180.038589
vn -0.244078 0.892863 0.378446
vt 0.449800 0.100400
v 39.954117 300.045959 180.038589
vn 0.453374 0.841993 0.292403
vt 0.050200 0.100400
v -50.045891 290.045959 100.038589
vn -0.892863 0.244078 -0.378446
vt 0.016900 0.899600
v -50.045891 10.045959 100.038582
vn -0.841993 -0.453374 -0.292403
vt 0.483100 0.899600
v -50.045883 10.045956 180.038574
vn -0.892863 -0.244078 0.378446
vt 0.483100 0.100400
v -50.045883 290.045959 180.038589
vn -0.841993 0.453374 0.292403
vt 0.016900 0.100400
v -40.045891 0.045959 100.038574
vn -0.357637 -0.751402 -0.554519
vt 0.449800 0.999500
v -50.045891 10.045959 100.038582
vn -0.841993 -0.453374 -0.292403
vt 0.499750 0.966200
v 49.954109 10.045959 100.038567
vn 0.892863 -0.244078 -0.378446
vt 0.000250 0.966200
v 39.954109 0.045959 100.038574
vn 0.554519 -0.751402 -0.357637
vt 0.050200 0.999500
v -50.045891 290.045959 100.038589
vn -0.892863 0.244078 -0.378446
vt 0.499750 0.033800
v -40.045891 300.045959 100.038589
vn -0.453374 0.841993 -0.292403
vt 0.449800 0.000500
v 39.954109 300.045959 100.038582
vn 0.244078 0.892863 -0.378446
vt 0.050200 0.000500
v 49.954109 290.045959 100.038582
vn 0.841993 0.453374 -0.292403
vt 0.000250 0.033800
v -40.045883 0.045955 180.038574
vn -0.554519 -0.751402 0.357637
vt 0.050200 0.999500
v -50.045883 10.045956 180.038574
vn -0.892863 -0.244078 0.378446
vt 0.000250 0.966200
v 49.954117 10.045956 180.038574
vn 0.841993 -0.453374 0.292403
vt 0.499750 0.966200
v 39.954117 0.045955 180.038574
vn 0.357637 -0.751402 0.554519
vt 0.449800 0.999500
v -50.045883 290.045959 180.038589
vn -0.841993 0.453374 0.292403
vt 0.000250 0.033800
v -40.045883 300.045959 180.038589
vn -0.244078 0.892863 0.378446
vt 0.050200 0.000500
v 39.954117 300.045959 180.038589
vn 0.453374 0.841993 0.292403
vt 0.449800 0.000500
v 49.954117 290.045959 180.038589
vn 0.892863 0.244078 0.378446
vt 0.499750 0.033800
v 39.954109 0.045959 100.038574
vn 0.554519 -0.751402 -0.357637
vt 0.000250 0.899600
v 39.954117 0.045955 180.038574
vn 0.357637 -0.751402 0.554519
vt 0.000250 0.100400
v -40.045883 0.045955 180.038574
vn -0.554519 -0.751402 0.357637
vt 0.499750 0.100400
v -40.045891 0.045959 100.038574
vn -0.357637 -0.751402 -0.554519
vt 0.499750 0.899600
v 39.954109 300.045959 100.038582
vn 0.244078 0.892863 -0.378446
vt 0.499750 0.899600
v 39.954117 300.045959 180.038589
vn 0.453374 0.841993 0.292403
vt 0.499750 0.100400
v -40.045891 300.045959 100.038589
vn -0.453374 0.841993 -0.292403
vt 0.000250 0.899600
v -40.045883 300.045959 180.038589
vn -0.244078 0.892863 0.378446
vt 0.000250 0.100400
v -39.956055 10.045963 -10.036617
vn -0.378446 -0.244078 -0.892863
vt 0.449800 0.966200
v -39.956055 290.045959 -10.036605
vn -0.292403 0.453374 -0.841993
vt 0.449800 0.033800
v 40.043945 290.045959 -10.036612
vn 0.378446 0.244078 -0.892863
vt 0.050200 0.033800
v 40.043945 10.045963 -10.036624
vn 0.292403 -0.453374 -0.841993
vt 0.050200 0.966200
v -39.956047 10.045959 89.963387
vn -0.244078 -0.378446 0.892863
vt 0.050200 0.966200
v 40.043953 10.045959 89.963379
vn 0.453374 -0.292403 0.841993
vt 0.449800 0.966200
v 40.043953 290.045959 89.963387
vn 0.244079 0.378446 0.892863
vt 0.449800 0.033800
v -39.956047 290.045959 89.963394
vn -0.453374 0.292403 0.841993
vt 0.050200 0.033800
v 50.043945 10.045963 -0.036625
vn 0.892863 -0.244078 -0.378446
vt 0.016900 0.899600
v 50.043945 290.045959 -0.036613
vn 0.841993 0.453374 -0.292403
vt 0.483100 0.899600
v 50.043953 290.045959 79.963387
vn 0.892863 0.244078 0.378446
vt 0.483100 0.100400
v 50.043953 10.045959 79.963371
vn 0.841993 -0.453374 0.292403
vt 0.016900 0.100400
v 40.043945 300.045959 -0.036611
vn 0.244078 0.892863 -0.378446
vt 0.050200 0.899600
v -39.956055 300.045959 -0.036604
vn -0.453374 0.841993 -0.292403
vt 0.449800 0.899600
v -39.956047 300.045959 79.963394
vn -0.244078 0.892863 0.378446
vt 0.449800 0.100400
v 40.043953 300.045959 79.963387
vn 0.453374 0.841993 0.292403
vt 0.050200 0.100400
v -49.956055 290.045959 -0.036604
vn -0.892863 0.244078 -0.378446
vt 0.016900 0.899600
v -49.956055 10.045963 -0.036616
vn -0.841993 -0.453374 -0.292403
vt 0.483100 0.899600
v -49.956047 10.045959 79.963387
vn -0.892863 -0.244078 0.378446
vt 0.483100 0.100400
v -49.956047 290.045959 79.963394
vn -0.841993 0.453374 0.292403
vt 0.016900 0.100400
v -39.956055 0.045963 -0.036618
vn -0.357637 -0.751402 -0.554519
vt 0.449800 0.999500
v -49.956055 10.045963 -0.036616
vn -0.841993 -0.453374 -0.292403
vt 0.499750 0.966200
v 50.043945 10.045963 -0.036625
vn 0.892863 -0.244078 -0.378446
vt 0.000250 0.966200
v 40.043945 0.045963 -0.036625
vn 0.554519 -0.751402 -0.357637
vt 0.050200 0.999500
v -49.956055 290.045959 -0.036604
vn -0.892863 0.244078 -0.378446
vt 0.499750 0.033800
v -39.956055 300.045959 -0.036604
vn -0.453374 0.841993 -0.292403
vt 0.449800 0.000500
v 40.043945 300.045959 -0.036611
vn 0.244078 0.892863 -0.378446
vt 0.050200 0.000500
v 50.043945 290.045959 -0.036613
vn 0.841993 0.453374 -0.292403
vt 0.000250 0.033800
v -39.956047 0.045960 79.963379
vn -0.554519 -0.751402 0.357637
vt 0.050200 0.999500
v -49.956047 10.045959 79.963387
vn -0.892863 -0.244078 0.378446
vt 0.000250 0.966200
v 50.043953 10.045959 79.963371
vn 0.841993 -0.453374 0.292403
vt 0.499750 0.966200
v 40.043953 0.045960 79.963379
vn 0.357637 -0.751402 0.554519
vt 0.449800 0.999500
v -49.956047 290.045959 79.963394
vn -0.841993 0.453374 0.292403
vt 0.000250 0.033800
v -39.956047 300.045959 79.963394
vn -0.244078 0.892863 0.378446
vt 0.050200 0.000500
v 40.043953 300.045959 79.963387
vn 0.453374 0.841993 0.292403
vt 0.449800 0.000500
v 50.043953 290.045959 79.963387
vn 0.892863 0.244078 0.378446
vt 0.499750 0.033800
v 40.043945 0.045963 -0.036625
vn 0.554519 -0.751402 -0.357637
vt 0.000250 0.899600
v 40.043953 0.045960 79.963379
vn 0.357637 -0.751402 0.554519
vt 0.000250 0.100400
v -39.956047 0.045960 79.963379
vn -0.554519 -0.751402 0.357637
vt 0.499750 0.100400
v -39.956055 0.045963 -0.036618
vn -0.357637 -0.751402 -0.554519
vt 0.499750 0.899600
v 40.043945 300.045959 -0.036611
vn 0.244078 0.892863 -0.378446
vt 0.499750 0.899600
v 40.043953 300.045959 79.963387
vn 0.453374 0.841993 0.292403
vt 0.499750 0.100400
v -39.956055 300.045959 -0.036604
vn -0.453374 0.841993 -0.292403
vt 0.000250 0.899600
v -39.956047 300.045959 79.963394
vn -0.244078 0.892863 0.378446
vt 0.000250 0.100400
v -49.956055 10.045963 -0.038569
vn -0.892863 -0.244078 0.378446
vt 0.949551 0.966200
v -49.956055 290.045959 -0.038557
vn -0.841993 0.453374 0.292403
vt 0.949550 0.033800
v -49.956070 290.045959 -180.038559
vn -0.892863 0.244078 -0.378446
vt 0.050450 0.033800
v -49.956070 10.045971 -180.038574
vn -0.841993 -0.453374 -0.292403
vt 0.050450 0.966200
v 50.043945 10.045963 -0.038578
vn 0.892863 -0.378446 0.244078
vt 0.050450 0.966200
v 50.043930 10.045971 -180.038574
vn 0.841993 -0.292403 -0.453374
vt 0.949550 0.966200
v 50.043930 290.045959 -180.038559
vn 0.892863 0.378446 -0.244078
vt 0.949551 0.033800
v 50.043945 290.045959 -0.038566
vn 0.841993 0.292403 0.453374
vt 0.050450 0.033800
v -39.956070 10.045972 -190.038574
vn -0.378446 -0.244078 -0.892863
vt 0.033799 0.899600
v -39.956070 290.045959 -190.038559
vn -0.292403 0.453374 -0.841993
vt 0.966200 0.899600
v 40.043930 290.045959 -190.038559
vn 0.378446 0.244078 -0.892863
vt 0.966200 0.100400
v 40.043930 10.045972 -190.038574
vn 0.292403 -0.453374 -0.841993
vt 0.033799 0.100400
v -39.956070 300.045959 -180.038559
vn -0.378446 0.892863 -0.244078
vt 0.050450 0.899600
v -39.956055 300.045959 -0.038558
vn -0.292403 0.841993 0.453374
vt 0.949550 0.899600
v 40.043945 300.045959 -0.038565
vn 0.378446 0.892863 0.244078
vt 0.949550 0.100400
v 40.043930 300.045959 -180.038559
vn 0.292403 0.841993 -0.453374
vt 0.050450 0.100400
v -39.956055 290.045959 9.961442
vn -0.378446 0.244078 0.892863
vt 0.033799 0.899600
v -39.956055 10.045963 9.961430
vn -0.292403 -0.453374 0.841993
vt 0.966200 0.899600
v 40.043945 10.045963 9.961423
vn 0.378446 -0.244078 0.892863
vt 0.966200 0.100400
v 40.043945 290.045959 9.961435
vn 0.292403 0.453374 0.841993
vt 0.033799 0.100400
v -39.956055 0.045963 -0.038571
vn -0.554519 -0.751402 0.357637
vt 0.949551 0.999500
v -39.956055 10.045963 9.961430
vn -0.292403 -0.453374 0.841993
vt 0.999501 0.966200
v -39.956070 10.045972 -190.038574
vn -0.378446 -0.244078 -0.892863
vt 0.000500 0.966200
v -39.956070 0.045971 -180.038574
vn -0.357637 -0.751402 -0.554519
vt 0.050450 0.999501
v -39.956055 290.045959 9.961442
vn -0.378446 0.244078 0.892863
vt 0.999500 0.033800
v -39.956055 300.045959 -0.038558
vn -0.292403 0.841993 0.453374
vt 0.949550 0.000499
v -39.956070 300.045959 -180.038559
vn -0.378446 0.892863 -0.244078
vt 0.050450 0.000500
v -39.956070 290.045959 -190.038559
vn -0.292403 0.453374 -0.841993
vt 0.000499 0.033800
v 40.043945 0.045963 -0.038578
vn 0.357637 -0.751402 0.554519
vt 0.050450 0.999500
v 40.043945 10.045963 9.961423
vn 0.378446 -0.244078 0.892863
vt 0.000499 0.966200
v 40.043930 10.045972 -190.038574
vn 0.292403 -0.453374 -0.841993
vt 0.999500 0.966200
v 40.043930 0.045971 -180.038574
vn 0.554519 -0.751402 -0.357637
vt 0.949550 0.999501
v 40.043945 290.045959 9.961435
vn 0.292403 0.453374 0.841993
vt 0.000500 0.033800
v 40.043945 300.045959 -0.038565
vn 0.378446 0.892863 0.244078
vt 0.050450 0.000499
v 40.043930 300.045959 -180.038559
vn 0.292403 0.841993 -0.453374
vt 0.949551 0.000500
v 40.043930 290.045959 -190.038559
vn 0.378446 0.244078 -0.892863
vt 0.999501 0.033800
v -39.956070 0.045971 -180.038574
vn -0.357637 -0.751402 -0.554519
vt 0.000499 0.899600
v 40.043930 0.045971 -180.038574
vn 0.554519 -0.751402 -0.357637
vt 0.000499 0.100400
v 40.043945 0.045963 -0.038578
vn 0.357637 -0.751402 0.554519
vt 0.999500 0.100400
v -39.956055 0.045963 -0.038571
vn -0.554519 -0.751402 0.357637
vt 0.999500 0.899600
v -39.956070 300.045959 -180.038559
vn -0.378446 0.892863 -0.244078
vt 0.999500 0.899600
v 40.043930 300.045959 -180.038559
vn 0.292403 0.841993 -0.453374
vt 0.999500 0.100400
v -39.956055 300.045959 -0.038558
vn -0.292403 0.841993 0.453374
vt 0.000499 0.899600
v 40.043945 300.045959 -0.038565
vn 0.378446 0.892863 0.244078
vt 0.000499 0.100400
f 15/15/15 13/13/13 14/14/14
f 13/13/13 15/15/15 16/16/16
f 2/2/2 26/26/26 27/27/27
f 26/26/26 2/2/2 25/25/25
f 1/1/1 25/25/25 2/2/2
f 25/25/25 1/1/1 22/22/22
f 21/21/21 22/22/22 1/1/1
f 1/1/1 2/2/2 3/3/3
f 27/27/27 3/3/3 2/2/2
f 3/3/3 27/27/27 28/28/28
f 28/28/28 23/23/23 3/3/3
f 4/4/4 3/3/3 23/23/23
f 3/3/3 4/4/4 1/1/1
f 21/21/21 1/1/1 4/4/4
f 24/24/24 4/4/4 23/23/23
f 4/4/4 24/24/24 21/21/21
f 49/49/49 73/73/73 76/76/76
f 73/73/73 49/49/49 74/74/74
f 52/52/52 74/74/74 49/49/49
f 74/74/74 52/52/52 77/77/77
f 78/78/78 77/77/77 52/52/52
f 50/50/50 76/76/76 75/75/75
f 76/76/76 50/50/50 49/49/49
f 51/51/51 49/49/49 50/50/50
f 49/49/49 51/51/51 52/52/52
f 78/78/78 52/52/52 51/51/51
f 51/51/51 79/79/79 78/78/78
f 79/79/79 51/51/51 80/80/80
f 50/50/50 80/80/80 51/51/51
f 80/80/80 50/50/50 75/75/75
f 65/65/65 66/66/66 45/45/45
f 69/69/69 45/45/45 66/66/66
f 45/45/45 69/69/69 46/46/46
f 70/70/70 46/46/46 69/69/69
f 46/46/46 70/70/70 71/71/71
f 47/47/47 46/46/46 71/71/71
f 46/46/46 47/47/47 45/45/45
f 48/48/48 45/45/45 47/47/47
f 45/45/45 48/48/48 65/65/65
f 68/68/68 65/65/65 48/48/48
f 68/68/68 48/48/48 67/67/67
f 47/47/47 67/67/67 48/48/48
f 67/67/67 47/47/47 72/72/72
f 71/71/71 72/72/72 47/47/47
f 115/115/115 116/116/116 91/91/91
f 111/111/111 91/91/91 116/116/116
f 91/91/91 111/111/111 92/92/92
f 112/112/112 92/92/92 111/111/111
f 92/92/92 112/112/112 109/109/109
f 114/114/114 115/115/115 90/90/90
f 91/91/91 90/90/90 115/115/115
f 90/90/90 91/91/91 89/89/89
f 92/92/92 89/89/89 91/91/91
f 89/89/89 92/92/92 109/109/109
f 109/109/109 110/110/110 89/89/89
f 113/113/113 89/89/89 110/110/110
f 89/89/89 113/113/113 90/90/90
f 114/114/114 90/90/90 113/113/113
f 118/118/118 117/117/117 93/93/93
f 120/120/120 93/93/93 117/117/117
f 93/93/93 120/120/120 94/94/94
f 119/119/119 94/94/94 120/120/120
f 94/94/94 119/119/119 124/124/124
f 95/95/95 94/94/94 124/124/124
f 94/94/94 95/95/95 93/93/93
f 96/96/96 93/93/93 95/95/95
f 93/93/93 96/96/96 118/118/118
f 121/121/121 118/118/118 96/96/96
f 121/121/121 96/96/96 122/122/122
f 95/95/95 122/122/122 96/96/96
f 122/122/122 95/95/95 123/123/123
f 124/124/124 123/123/123 95/95/95
f 8/8/8 34/34/34 33/33/33
f 34/34/34 8/8/8 7/7/7
f 5/5/5 7/7/7 8/8/8
f 7/7/7 5/5/5 6/6/6
f 32/32/32 6/6/6 5/5/5
f 6/6/6 32/32/32 31/31/31
f 30/30/30 8/8/8 33/33/33
f 8/8/8 30/30/30 5/5/5
f 29/29/29 5/5/5 30/30/30
f 5/5/5 29/29/29 32/32/32
f 7/7/7 35/35/35 34/34/34
f 35/35/35 7/7/7 36/36/36
f 6/6/6 36/36/36 7/7/7
f 36/36/36 6/6/6 31/31/31
f 41/41/41 42/42/42 10/10/10
f 11/11/11 10/10/10 42/42/42
f 10/10/10 11/11/11 9/9/9
f 12/12/12 9/9/9 11/11/11
f 9/9/9 12/12/12 37/37/37
f 38/38/38 37/37/37 12/12/12
f 44/44/44 43/43/43 20/20/20
f 17/17/17 20/20/20 43/43/43
f 20/20/20 17/17/17 19/19/19
f 18/18/18 19/19/19 17/17/17
f 19/19/19 18/18/18 39/39/39
f 40/40/40 39/39/39 18/18/18
f 85/85/85 86/86/86 54/54/54
f 55/55/55 54/54/54 86/86/86
f 54/54/54 55/55/55 53/53/53
f 56/56/56 53/53/53 55/55/55
f 53/53/53 56/56/56 81/81/81
f 82/82/82 81/81/81 56/56/56
f 88/88/88 87/87/87 64/64/64
f 61/61/61 64/64/64 87/87/87
f 64/64/64 61/61/61 63/63/63
f 62/62/62 63/63/63 61/61/61
f 63/63/63 62/62/62 83/83/83
f 84/84/84 83/83/83 62/62/62
f 129/129/129 130/130/130 98/98/98
f 99/99/99 98/98/98 130/130/130
f 98/98/98 99/99/99 97/97/97
f 100/100/100 97/97/97 99/99/99
f 97/97/97 100/100/100 125/125/125
f 126/126/126 125/125/125 100/100/100
f 132/132/132 131/131/131 108/108/108
f 105/105/105 108/108/108 131/131/131
f 108/108/108 105/105/105 107/107/107
f 106/106/106 107/107/107 105/105/105
f 107/107/107 106/106/106 127/127/127
f 128/128/128 127/127/127 106/106/106
f 59/59/59 57/57/57 58/58/58
f 57/57/57 59/59/59 60/60/60
f 103/103/103 101/101/101 102/102/102
f 101/101/101 103/103/103 104/104/104
