mtllib BLOCK_PZL_COOLER_BLOCK_PZL_COOLER01.mtl
g ck_PZL_cooler01
usemtl Lvl_dwarven_plc_tileB
v 14216.372070 197.999496 -6974.340820
vn 0.244077 0.378453 0.892861
vt 0.990000 0.000947
v 14120.372070 197.999496 -6974.340820
vn -0.453360 0.292411 0.841998
vt 0.509999 0.010000
v 14120.372070 101.999481 -6974.340820
vn -0.244076 -0.378439 0.892867
vt 0.510194 0.489806
v 14216.372070 101.999504 -6974.340820
vn 0.453379 -0.292403 0.841990
vt 0.989999 0.490000
v 14116.372070 99.999451 -6976.340820
vn 0.554524 0.751402 0.357628
vt 0.500000 0.010947
v 14116.372070 97.999466 -6974.340820
vn 0.244087 0.378446 0.892861
vt 0.490000 0.000947
v 14118.372070 97.999451 -6976.340820
vn 0.892867 0.244077 0.378438
vt 0.490000 0.010948
v 14116.372070 197.999512 -6974.340820
vn 0.244077 0.378452 0.892861
vt 0.489999 0.010000
v 14116.372070 199.999496 -6976.340820
vn 0.453372 0.841995 0.292400
vt 0.510001 0.010948
v 14020.372070 199.999451 -6976.340820
vn -0.244076 0.892866 0.378440
vt 0.990001 0.010948
v 14020.372070 197.999466 -6974.340820
vn -0.453372 0.292408 0.841993
vt 0.990001 0.000947
v 14116.372070 101.999481 -6974.340820
vn 0.453370 -0.292396 0.841998
vt 0.489806 0.489806
v 14118.372070 101.999435 -6976.340820
vn 0.841991 -0.453374 0.292408
vt 0.499999 0.490000
v 14118.372070 197.999527 -6976.340820
vn 0.892862 0.244081 0.378447
vt 0.500001 0.010947
v 14020.372070 101.999512 -6974.340820
vn -0.244075 -0.378435 0.892869
vt 0.009999 0.490000
v 14020.372070 99.999481 -6976.340820
vn -0.554518 -0.751398 0.357648
vt 0.009999 0.500000
v 14116.372070 99.999451 -6976.340820
vn 0.357635 -0.751391 0.554535
vt 0.489999 0.500000
v 14020.372070 -0.000487 -6976.340820
vn -0.554521 -0.751399 0.357640
vt 0.009999 1.000000
v 14020.372070 1.999484 -6974.340820
vn -0.244078 -0.378442 0.892865
vt 0.009999 0.990000
v 14018.372070 1.999493 -6976.340820
vn -0.892862 -0.244078 0.378448
vt -0.000001 0.990000
v 14018.372070 197.999466 -6976.340820
vn -0.841992 0.453375 0.292403
vt 1.000001 0.010947
v 14018.372070 101.999458 -6976.340820
vn -0.892861 -0.244077 0.378451
vt -0.000001 0.490000
v 14116.372070 97.999466 -6974.340820
vn 0.244087 0.378446 0.892861
vt 0.489806 0.510194
v 14020.372070 97.999466 -6974.340820
vn -0.453373 0.292395 0.841996
vt 0.009999 0.510000
v 14120.372070 99.999451 -6976.340820
vn -0.453373 -0.841990 0.292412
vt 0.509999 0.500000
v 14118.372070 101.999435 -6976.340820
vn -0.892859 -0.244078 0.378455
vt 0.499999 0.490000
v 14218.372070 101.999428 -6976.340820
vn 0.841995 -0.453375 0.292398
vt 0.510000 0.010948
v 14216.372070 101.999504 -6974.340820
vn 0.453379 -0.292403 0.841990
vt 0.510000 0.000947
v 14216.372070 99.999451 -6976.340820
vn 0.244079 -0.892861 0.378450
vt 0.500000 0.010947
v 14118.372070 197.999527 -6976.340820
vn -0.841985 0.453383 0.292413
vt 0.500001 0.010947
v 14120.372070 199.999481 -6976.340820
vn -0.244068 0.892867 0.378442
vt 0.490001 0.010948
v 14216.372070 199.999481 -6976.340820
vn 0.453372 0.841995 0.292400
vt 0.010001 0.010948
v 14216.372070 197.999496 -6974.340820
vn 0.244077 0.378453 0.892861
vt 0.010001 0.000947
v 14218.372070 197.999496 -6976.340820
vn 0.892864 0.244081 0.378442
vt 0.000001 0.010947
v 14116.372070 1.999457 -6974.340820
vn 0.453380 -0.292401 0.841991
vt 0.489999 0.990000
v 14116.372070 99.999451 -6976.340820
vn 0.554524 0.751402 0.357628
vt 0.489999 0.500000
v 14020.372070 99.999481 -6976.340820
vn -0.357638 0.751397 0.554525
vt 0.009999 0.500000
v 14116.372070 1.999457 -6974.340820
vn 0.453380 -0.292401 0.841991
vt 0.010000 0.000948
v 14118.372070 1.999466 -6976.340820
vn 0.841994 -0.453372 0.292404
vt 0.010000 0.010948
v 14116.372070 -0.000513 -6976.340820
vn 0.357637 -0.751399 0.554523
vt 0.489999 1.000000
v 14116.372070 -0.000513 -6976.340820
vn 0.357637 -0.751399 0.554523
vt 0.000000 0.010947
v 14216.372070 99.999451 -6976.340820
vn 0.244079 -0.892861 0.378450
vt 0.989999 0.500000
v 14218.372070 197.999496 -6976.340820
vn 0.892864 0.244081 0.378442
vt 0.990000 0.010947
v 14018.372070 97.999474 -6976.340820
vn -0.841994 0.453371 0.292406
vt -0.000001 0.510000
v 14020.372070 197.999466 -6974.340820
vn -0.453372 0.292408 0.841993
vt 0.009999 0.010000
v 14018.372070 197.999466 -6976.340820
vn -0.841992 0.453375 0.292403
vt -0.000001 0.010000
f 23/23/23 36/36/36 37/37/37
f 37/37/37 24/24/24 23/23/23
f 19/19/19 23/23/23 24/24/24
f 23/23/23 19/19/19 35/35/35
f 40/40/40 35/35/35 19/19/19
f 19/19/19 18/18/18 40/40/40
f 18/18/18 19/19/19 20/20/20
f 24/24/24 20/20/20 19/19/19
f 20/20/20 24/24/24 44/44/44
f 37/37/37 44/44/44 24/24/24
f 15/15/15 16/16/16 17/17/17
f 16/16/16 15/15/15 22/22/22
f 45/45/45 22/22/22 15/15/15
f 22/22/22 45/45/45 46/46/46
f 12/12/12 17/17/17 13/13/13
f 17/17/17 12/12/12 15/15/15
f 8/8/8 15/15/15 12/12/12
f 15/15/15 8/8/8 45/45/45
f 14/14/14 12/12/12 13/13/13
f 12/12/12 14/14/14 8/8/8
f 9/9/9 8/8/8 14/14/14
f 8/8/8 9/9/9 10/10/10
f 21/21/21 11/11/11 10/10/10
f 8/8/8 10/10/10 11/11/11
f 3/3/3 25/25/25 42/42/42
f 25/25/25 3/3/3 26/26/26
f 2/2/2 26/26/26 3/3/3
f 26/26/26 2/2/2 30/30/30
f 31/31/31 30/30/30 2/2/2
f 3/3/3 1/1/1 2/2/2
f 1/1/1 3/3/3 4/4/4
f 42/42/42 4/4/4 3/3/3
f 33/33/33 31/31/31 2/2/2
f 31/31/31 33/33/33 32/32/32
f 34/34/34 32/32/32 33/33/33
f 28/28/28 43/43/43 1/1/1
f 43/43/43 28/28/28 27/27/27
f 29/29/29 27/27/27 28/28/28
f 5/5/5 6/6/6 7/7/7
f 38/38/38 7/7/7 6/6/6
f 7/7/7 38/38/38 39/39/39
f 41/41/41 39/39/39 38/38/38
usemtl Lvl_dwarven_plc_tile01
v 14120.372070 99.999451 -6976.340820
vn -0.453373 -0.841990 0.292412
vt 0.509999 0.010947
v 14118.372070 101.999435 -6976.340820
vn -0.892859 -0.244078 0.378455
vt 0.499999 0.010948
v 14118.372070 101.999481 -7072.340820
vn -0.841990 -0.453379 -0.292403
vt 0.499999 0.490948
v 14218.372070 101.999428 -6976.340820
vn 0.841995 -0.453375 0.292398
vt 0.999999 0.010948
v 14216.372070 99.999451 -6976.340820
vn 0.244079 -0.892861 0.378450
vt 0.989999 0.010947
v 14216.372070 99.999474 -7072.340820
vn 0.453370 -0.841997 -0.292398
vt 0.989999 0.490947
v 14216.372070 199.999481 -6976.340820
vn 0.453372 0.841995 0.292400
vt 1.000000 0.010948
v 14218.372070 197.999496 -6976.340820
vn 0.892864 0.244081 0.378442
vt 0.990000 0.010947
v 14218.372070 197.999466 -7072.340820
vn 0.841994 0.453369 -0.292407
vt 0.990000 0.490947
v 14118.372070 197.999496 -7072.340820
vn -0.892867 0.244074 -0.378439
vt 0.010000 0.490947
v 14120.372070 197.999481 -7074.340820
vn -0.357648 0.554512 -0.751401
vt 0.010000 0.500948
v 14120.372070 101.999489 -7074.340820
vn -0.554524 -0.357644 -0.751395
vt 0.490000 0.500948
v 14216.372070 199.999496 -7072.340820
vn 0.244083 0.892858 -0.378454
vt 1.000000 0.490948
v 14218.372070 101.999458 -7072.340820
vn 0.892862 -0.244082 -0.378445
vt 0.999999 0.490948
v 14020.372070 -0.000522 -7072.340820
vn -0.357639 -0.751407 -0.554511
vt 0.009999 0.490947
v 14018.372070 1.999517 -7072.340820
vn -0.841993 -0.453375 -0.292402
vt -0.000000 0.490948
v 14020.372070 1.999466 -7074.340820
vn -0.554519 -0.357642 -0.751399
vt 0.009999 0.500947
v 14116.372070 1.999464 -7074.340820
vn 0.357636 -0.554527 -0.751396
vt 0.489999 0.500947
v 14118.372070 1.999515 -7072.340820
vn 0.892863 -0.244079 -0.378446
vt 0.499999 0.490948
v 14116.372070 -0.000524 -7072.340820
vn 0.554519 -0.751404 -0.357631
vt 0.489999 0.490947
v 14018.372070 97.999504 -7072.340820
vn -0.892862 0.244081 -0.378446
vt 1.000001 0.510000
v 14020.372070 99.999504 -7072.340820
vn -0.554516 0.751407 -0.357631
vt 0.990001 0.490947
v 14020.372070 97.999512 -7074.340820
vn -0.357635 0.554530 -0.751395
vt 0.990001 0.510000
v 14116.372070 97.999504 -7074.340820
vn 0.554517 0.357644 -0.751400
vt 0.510001 0.510000
v 14116.372070 99.999504 -7072.340820
vn 0.357634 0.751410 -0.554510
vt 0.500000 0.490947
v 14118.372070 97.999496 -7072.340820
vn 0.841992 0.453377 -0.292402
vt 0.500001 0.510000
v 14120.372070 99.999504 -7072.340820
vn -0.244076 -0.892866 -0.378440
vt 0.509999 0.490947
v 14120.372070 199.999527 -7072.340820
vn -0.453379 0.841991 -0.292402
vt -0.000000 0.490948
v 14118.372070 197.999527 -6976.340820
vn -0.841985 0.453383 0.292413
vt 0.010000 0.010947
v 14120.372070 199.999481 -6976.340820
vn -0.244068 0.892867 0.378442
vt 0.000000 0.010948
v 14216.372070 101.999466 -7074.340820
vn 0.357636 -0.554530 -0.751394
vt 0.989999 0.500948
v 14018.372070 97.999504 -7072.340820
vn -0.892862 0.244081 -0.378446
vt 0.510000 0.490948
v 14018.372070 1.999517 -7072.340820
vn -0.841993 -0.453375 -0.292402
vt 0.990000 0.490948
v 14018.372070 1.999493 -6976.340820
vn -0.892862 -0.244078 0.378448
vt 0.990000 0.010948
v 14118.372070 1.999515 -7072.340820
vn 0.892863 -0.244079 -0.378446
vt 0.500001 0.990000
v 14116.372070 1.999464 -7074.340820
vn 0.357636 -0.554527 -0.751396
vt 0.510001 0.990000
v 14118.372070 97.999451 -6976.340820
vn 0.892867 0.244077 0.378438
vt 0.490000 0.010948
v 14118.372070 1.999466 -6976.340820
vn 0.841994 -0.453372 0.292404
vt 0.010000 0.010948
v 14118.372070 1.999515 -7072.340820
vn 0.892863 -0.244079 -0.378446
vt 0.010000 0.490948
v 14216.372070 197.999466 -7074.340820
vn 0.554519 0.357625 -0.751407
vt 0.990000 0.500947
v 14218.372070 101.999458 -7072.340820
vn 0.892862 -0.244082 -0.378445
vt 0.510000 0.490948
v 14216.372070 101.999466 -7074.340820
vn 0.357636 -0.554530 -0.751394
vt 0.510000 0.500948
v 14120.372070 197.999481 -7074.340820
vn -0.357648 0.554512 -0.751401
vt 0.490001 0.010000
v 14120.372070 199.999527 -7072.340820
vn -0.453379 0.841991 -0.292402
vt 0.490001 -0.000000
v 14216.372070 199.999496 -7072.340820
vn 0.244083 0.892858 -0.378454
vt 0.010001 -0.000000
v 14216.372070 197.999466 -7074.340820
vn 0.554519 0.357625 -0.751407
vt 0.010001 0.010000
v 14018.372070 97.999474 -6976.340820
vn -0.841994 0.453371 0.292406
vt 0.510000 0.010948
v 14116.372070 -0.000513 -6976.340820
vn 0.357637 -0.751399 0.554523
vt 0.000000 0.010947
v 14116.372070 -0.000524 -7072.340820
vn 0.554519 -0.751404 -0.357631
vt -0.000000 0.490947
v 14020.372070 -0.000522 -7072.340820
vn -0.357639 -0.751407 -0.554511
vt 1.000000 0.490947
v 14020.372070 -0.000487 -6976.340820
vn -0.554521 -0.751399 0.357640
vt 1.000000 0.010947
v 14116.372070 99.999451 -6976.340820
vn 0.554524 0.751402 0.357628
vt 0.500000 0.010947
v 14020.372070 99.999481 -6976.340820
vn -0.357638 0.751397 0.554525
vt 0.500000 0.010947
v 14020.372070 99.999504 -7072.340820
vn -0.554516 0.751407 -0.357631
vt 0.500000 0.490947
v 14218.372070 197.999466 -7072.340820
vn 0.841994 0.453369 -0.292407
vt 0.000001 0.010000
v 14118.372070 197.999527 -6976.340820
vn 0.892862 0.244081 0.378447
vt 0.990000 0.010947
v 14118.372070 101.999435 -6976.340820
vn 0.841991 -0.453374 0.292408
vt 0.499999 0.010948
v 14118.372070 101.999481 -7072.340820
vn 0.892864 -0.244081 -0.378442
vt 0.499999 0.490948
v 14118.372070 197.999496 -7072.340820
vn 0.841998 0.453369 -0.292396
vt 0.990000 0.490947
v 14020.372070 199.999451 -6976.340820
vn -0.244076 0.892866 0.378440
vt 0.990001 0.010948
v 14116.372070 199.999496 -6976.340820
vn 0.453372 0.841995 0.292400
vt 0.510001 0.010948
v 14116.372070 199.999527 -7072.340820
vn 0.244084 0.892862 -0.378446
vt 0.510001 0.490948
v 14020.372070 199.999466 -7072.340820
vn -0.453377 0.841991 -0.292404
vt 0.990001 0.490948
v 14018.372070 101.999458 -6976.340820
vn -0.892861 -0.244077 0.378451
vt 0.490000 0.010948
v 14018.372070 197.999466 -6976.340820
vn -0.841992 0.453375 0.292403
vt -0.000001 0.010000
v 14018.372070 197.999405 -7072.340820
vn -0.892864 0.244076 -0.378446
vt 0.010000 0.490948
v 14018.372070 101.999481 -7072.340820
vn -0.841990 -0.453380 -0.292403
vt 0.490000 0.490948
v 14020.372070 99.999504 -7072.340820
vn -0.357632 -0.751410 -0.554511
vt 0.009999 0.490947
v 14018.372070 101.999481 -7072.340820
vn -0.841990 -0.453380 -0.292403
vt -0.000001 0.490948
v 14020.372070 101.999489 -7074.340820
vn -0.554517 -0.357643 -0.751400
vt 0.009999 0.500948
v 14116.372070 101.999489 -7074.340820
vn 0.357634 -0.554528 -0.751396
vt 0.510000 0.500948
v 14116.372070 99.999504 -7072.340820
vn 0.554513 -0.751408 -0.357632
vt 0.489999 0.490947
v 14020.372070 199.999466 -7072.340820
vn -0.453377 0.841991 -0.292404
vt 0.000000 0.490948
v 14020.372070 197.999420 -7074.340820
vn -0.357636 0.554518 -0.751403
vt 0.010000 0.500948
v 14116.372070 197.999481 -7074.340820
vn 0.554530 0.357634 -0.751395
vt 0.990000 0.500948
v 14116.372070 199.999527 -7072.340820
vn 0.244084 0.892862 -0.378446
vt 1.000000 0.490948
v 14020.372070 1.999466 -7074.340820
vn -0.554519 -0.357642 -0.751399
vt 0.990001 0.990000
v 14018.372070 197.999405 -7072.340820
vn -0.892864 0.244076 -0.378446
vt 1.000001 0.010000
v 14020.372070 197.999420 -7074.340820
vn -0.357636 0.554518 -0.751403
vt 0.990001 0.010000
v 14020.372070 101.999489 -7074.340820
vn -0.554517 -0.357643 -0.751400
vt 0.990001 0.490000
v 14018.372070 101.999481 -7072.340820
vn -0.841990 -0.453380 -0.292403
vt 1.000001 0.490000
v 14116.372070 199.999527 -7072.340820
vn 0.244084 0.892862 -0.378446
vt 0.510001 -0.000000
v 14116.372070 197.999481 -7074.340820
vn 0.554530 0.357634 -0.751395
vt 0.510001 0.010000
v 14020.372070 199.999466 -7072.340820
vn -0.453377 0.841991 -0.292404
vt 0.990001 0.000000
v 14216.372070 199.999496 -7072.340820
vn 0.244083 0.892858 -0.378454
vt 0.010001 0.490948
v 14120.372070 199.999527 -7072.340820
vn -0.453379 0.841991 -0.292402
vt 0.490001 0.490948
v 14120.372070 199.999481 -6976.340820
vn -0.244068 0.892867 0.378442
vt 0.490001 0.010948
v 14216.372070 199.999481 -6976.340820
vn 0.453372 0.841995 0.292400
vt 0.010001 0.010948
v 14218.372070 101.999428 -6976.340820
vn 0.841995 -0.453375 0.292398
vt 0.510000 0.010948
v 14018.372070 1.999517 -7072.340820
vn -0.841993 -0.453375 -0.292402
vt 1.000000 0.990000
v 14116.372070 99.999451 -6976.340820
vn 0.357635 -0.751391 0.554535
vt 0.489999 0.010947
v 14020.372070 99.999481 -6976.340820
vn -0.554518 -0.751398 0.357648
vt 0.009999 0.010947
v 14018.372070 101.999458 -6976.340820
vn -0.892861 -0.244077 0.378451
vt -0.000001 0.010948
v 14116.372070 199.999496 -6976.340820
vn 0.453372 0.841995 0.292400
vt 1.000000 0.010948
v 14020.372070 199.999451 -6976.340820
vn -0.244076 0.892866 0.378440
vt 0.000000 0.010948
f 108/108/108 106/106/106 107/107/107
f 106/106/106 108/108/108 109/109/109
f 105/105/105 122/122/122 140/140/140
f 122/122/122 105/105/105 121/121/121
f 104/104/104 121/121/121 105/105/105
f 121/121/121 104/104/104 117/117/117
f 118/118/118 117/117/117 104/104/104
f 117/117/117 118/118/118 114/114/114
f 137/137/137 118/118/118 103/103/103
f 104/104/104 103/103/103 118/118/118
f 103/103/103 104/104/104 102/102/102
f 105/105/105 102/102/102 104/104/104
f 102/102/102 105/105/105 140/140/140
f 115/115/115 138/138/138 139/139/139
f 138/138/138 115/115/115 114/114/114
f 116/116/116 114/114/114 115/115/115
f 114/114/114 116/116/116 117/117/117
f 60/60/60 50/50/50 52/52/52
f 51/51/51 52/52/52 50/50/50
f 52/52/52 51/51/51 73/73/73
f 47/47/47 73/73/73 51/51/51
f 73/73/73 47/47/47 49/49/49
f 48/48/48 49/49/49 47/47/47
f 49/49/49 48/48/48 56/56/56
f 75/75/75 56/56/56 48/48/48
f 56/56/56 75/75/75 74/74/74
f 76/76/76 74/74/74 75/75/75
f 58/58/58 49/49/49 56/56/56
f 49/49/49 58/58/58 73/73/73
f 77/77/77 73/73/73 58/58/58
f 73/73/73 77/77/77 52/52/52
f 60/60/60 52/52/52 77/77/77
f 57/57/57 56/56/56 74/74/74
f 56/56/56 57/57/57 58/58/58
f 94/94/94 95/95/95 84/84/84
f 85/85/85 84/84/84 95/95/95
f 84/84/84 85/85/85 83/83/83
f 72/72/72 83/83/83 85/85/85
f 83/83/83 72/72/72 98/98/98
f 71/71/71 98/98/98 72/72/72
f 67/67/67 68/68/68 69/69/69
f 71/71/71 69/69/69 68/68/68
f 69/69/69 71/71/71 70/70/70
f 72/72/72 70/70/70 71/71/71
f 70/70/70 72/72/72 81/81/81
f 81/81/81 82/82/82 70/70/70
f 123/123/123 67/67/67 69/69/69
f 67/67/67 123/123/123 136/136/136
f 99/99/99 100/100/100 93/93/93
f 78/78/78 93/93/93 100/100/100
f 93/93/93 78/78/78 80/80/80
f 79/79/79 80/80/80 78/78/78
f 80/80/80 79/79/79 97/97/97
f 96/96/96 97/97/97 79/79/79
f 59/59/59 53/53/53 55/55/55
f 54/54/54 55/55/55 53/53/53
f 55/55/55 54/54/54 87/87/87
f 135/135/135 87/87/87 54/54/54
f 87/87/87 86/86/86 55/55/55
f 86/86/86 87/87/87 88/88/88
f 62/62/62 63/63/63 61/61/61
f 64/64/64 61/61/61 63/63/63
f 61/61/61 64/64/64 66/66/66
f 65/65/65 66/66/66 64/64/64
f 141/141/141 119/119/119 111/111/111
f 112/112/112 111/111/111 119/119/119
f 111/111/111 112/112/112 110/110/110
f 113/113/113 110/110/110 112/112/112
f 112/112/112 119/119/119 120/120/120
f 101/101/101 92/92/92 91/91/91
f 89/89/89 91/91/91 92/92/92
f 91/91/91 89/89/89 90/90/90
f 124/124/124 125/125/125 126/126/126
f 126/126/126 127/127/127 124/124/124
f 125/125/125 128/128/128 129/129/129
f 128/128/128 125/125/125 130/130/130
f 133/133/133 131/131/131 132/132/132
f 131/131/131 133/133/133 134/134/134
