mtllib DWARF_PALACE_SPIDERWEB_COVERS16.mtl
g derWEB_Covers16
usemtl treebark2
v 10454.665039 1177.583252 1485.045410
vn 0.999928 -0.003565 0.011472
vt 0.502916 1.000000
v 10454.709961 1279.424683 1512.850952
vn 0.999928 -0.003565 0.011472
vt 0.875519 0.895686
v 10453.713867 1313.713257 1610.325928
vn 0.999928 -0.003565 0.011472
vt 1.000000 0.534243
v 10450.801758 1279.784424 1712.607666
vn 0.998650 -0.050629 0.011637
vt 0.874480 0.155677
v 10445.097656 1176.973999 1754.831665
vn 0.998650 -0.050629 0.011637
vt 0.497082 0.000000
v 10439.397461 1052.521851 1753.180664
vn 0.997235 -0.046442 0.058022
vt 0.040882 0.007033
v 10446.046875 1040.844116 1629.548218
vn 0.997235 -0.046442 0.058022
vt 0.000000 0.465764
v 10452.227539 1075.589478 1524.684937
vn 0.998289 -0.001137 0.058465
vt 0.128856 0.854317
f 3/3/3 1/1/1 2/2/2
f 1/1/1 3/3/3 5/5/5
f 4/4/4 5/5/5 3/3/3
f 7/7/7 5/5/5 6/6/6
f 5/5/5 7/7/7 1/1/1
f 8/8/8 1/1/1 7/7/7
