mtllib DWARF_PALACE_SPIDERWEB20.mtl
g spiderweb20
usemtl 13_-_Default
v 11359.543945 1439.623657 -2086.023438
vn 0.198852 -0.936290 -0.289516
vt 0.500000 0.500000
v 11353.515625 1633.009521 -2400.794434
vn 0.128579 -0.874986 -0.466762
vt 0.500000 1.000000
v 11644.165039 1636.344727 -2320.762207
vn 0.325533 -0.868473 -0.373875
vt 0.000000 1.000000
v 11605.317383 1535.916504 -1981.083252
vn 0.341675 -0.926377 -0.158376
vt 0.000000 0.500000
v 11024.018555 1529.246094 -2141.147705
vn 0.045524 -0.910495 -0.411006
vt 1.000000 0.500000
v 11062.865234 1629.674316 -2480.826660
vn 0.186990 -0.935876 -0.298615
vt 1.000000 1.000000
v 11275.820313 1432.153076 -1721.436646
vn 0.248253 -0.962996 -0.104921
vt 0.500000 0.000000
v 11566.470703 1435.488281 -1641.404419
vn 0.186990 -0.935876 -0.298615
vt 0.000000 0.000000
v 10985.170898 1428.817871 -1801.468872
vn 0.059382 -0.976326 -0.207993
vt 1.000000 0.000000
v 11362.619141 1460.535034 -2078.504883
vn -0.330019 0.908746 0.255477
vt 0.500000 0.500000
v 11290.803711 1617.853638 -2415.035889
vn -0.373418 0.844850 0.383128
vt 0.500000 1.000000
v 11013.378906 1543.347900 -2443.915283
vn -0.221977 0.904256 0.364756
vt 0.000000 1.000000
v 11037.242188 1458.075562 -2089.994385
vn -0.205541 0.958040 0.199782
vt 0.000000 0.500000
v 11592.092773 1607.086792 -2032.235596
vn -0.446255 0.840979 0.305960
vt 1.000000 0.500000
v 11568.229492 1692.359253 -2386.156494
vn -0.321832 0.912505 0.252504
vt 1.000000 1.000000
v 11338.531250 1447.308716 -1707.193970
vn -0.269688 0.955171 0.122136
vt 0.500000 0.000000
v 11061.106445 1372.803101 -1736.073364
vn -0.321832 0.912505 0.252504
vt 0.000000 0.000000
v 11615.957031 1521.814331 -1678.314575
vn -0.426829 0.894636 0.132072
vt 1.000000 0.000000
f 8/8/8 7/7/7 4/4/4
f 1/1/1 4/4/4 7/7/7
f 4/4/4 1/1/1 3/3/3
f 2/2/2 3/3/3 1/1/1
f 6/6/6 2/2/2 5/5/5
f 1/1/1 5/5/5 2/2/2
f 5/5/5 1/1/1 9/9/9
f 7/7/7 9/9/9 1/1/1
f 11/11/11 14/14/14 15/15/15
f 14/14/14 11/11/11 10/10/10
f 12/12/12 10/10/10 11/11/11
f 10/10/10 12/12/12 13/13/13
f 10/10/10 18/18/18 14/14/14
f 18/18/18 10/10/10 16/16/16
f 13/13/13 16/16/16 10/10/10
f 16/16/16 13/13/13 17/17/17
