mtllib DWARF_PALACE_SPIDERWEB21.mtl
g spiderweb21
usemtl 13_-_Default
v 11841.491211 1443.261841 -2080.348389
vn 0.057544 -0.971603 -0.229515
vt 0.500000 0.500000
v 12190.837891 1541.268921 -2010.585815
vn 0.248965 -0.929814 -0.271040
vt 0.500000 1.000000
v 12090.846680 1440.128052 -1744.755249
vn 0.144589 -0.985560 -0.088121
vt 0.000000 1.000000
v 11741.500000 1448.306519 -1814.517944
vn -0.078974 -0.992523 -0.093062
vt 0.000000 0.500000
v 11941.482422 1650.588501 -2346.178955
vn 0.193450 -0.912720 -0.359887
vt 1.000000 0.500000
v 12290.829102 1642.409912 -2276.416260
vn 0.067415 -0.968362 -0.240273
vt 1.000000 1.000000
v 11492.144531 1557.626099 -2150.111084
vn -0.131680 -0.972560 -0.191802
vt 0.500000 0.000000
v 11392.153320 1456.485107 -1884.280518
vn 0.067415 -0.968362 -0.240273
vt 0.000000 0.000000
v 11592.135742 1658.766968 -2415.941406
vn -0.019560 -0.928586 -0.370601
vt 1.000000 0.000000
v 11838.589844 1462.032227 -2068.409668
vn -0.020226 0.994939 0.098423
vt 0.500000 0.500000
v 12206.262695 1551.163452 -2074.063721
vn -0.155048 0.987288 0.034979
vt 0.500000 1.000000
v 12239.681641 1596.410034 -2357.234619
vn -0.135954 0.970982 0.196751
vt 0.000000 1.000000
v 11874.910156 1594.694214 -2363.519775
vn 0.035020 0.972421 0.230587
vt 0.000000 0.500000
v 11808.071289 1504.201050 -1797.177734
vn -0.075165 0.996579 -0.034357
vt 1.000000 0.500000
v 12172.843750 1505.916870 -1790.892700
vn -0.017148 0.994073 0.107356
vt 1.000000 1.000000
v 11476.718750 1547.731812 -2086.633789
vn 0.114905 0.978806 0.169516
vt 0.500000 0.000000
v 11510.137695 1592.978394 -2369.804688
vn -0.017148 0.994073 0.107356
vt 0.000000 0.000000
v 11443.299805 1502.485229 -1803.462646
vn 0.104208 0.994554 0.001903
vt 1.000000 0.000000
f 8/8/8 7/7/7 4/4/4
f 1/1/1 4/4/4 7/7/7
f 4/4/4 1/1/1 3/3/3
f 2/2/2 3/3/3 1/1/1
f 6/6/6 2/2/2 5/5/5
f 1/1/1 5/5/5 2/2/2
f 5/5/5 1/1/1 9/9/9
f 7/7/7 9/9/9 1/1/1
f 11/11/11 14/14/14 15/15/15
f 14/14/14 11/11/11 10/10/10
f 12/12/12 10/10/10 11/11/11
f 10/10/10 12/12/12 13/13/13
f 10/10/10 18/18/18 14/14/14
f 18/18/18 10/10/10 16/16/16
f 13/13/13 16/16/16 10/10/10
f 16/16/16 13/13/13 17/17/17
