mtllib DWARF_PALACE_SPIDERWEB_COVERS04.mtl
g derWEB_Covers04
usemtl treebark2
v 17651.138672 406.999603 1626.107910
vn 0.011472 -0.003570 -0.999928
vt 0.502916 1.000000
v 17678.943359 508.841187 1626.063354
vn 0.011472 -0.003570 -0.999928
vt 0.875519 0.895686
v 17776.419922 543.129883 1627.059204
vn 0.011472 -0.003570 -0.999928
vt 1.000000 0.534243
v 17878.701172 509.201019 1629.971191
vn 0.011635 -0.050636 -0.998649
vt 0.874480 0.155677
v 17920.923828 406.390442 1635.676147
vn 0.011635 -0.050636 -0.998649
vt 0.497082 0.000000
v 17919.273438 281.938416 1641.375366
vn 0.058020 -0.046438 -0.997235
vt 0.040882 0.007033
v 17795.640625 270.260620 1634.726196
vn 0.058020 -0.046438 -0.997235
vt 0.000000 0.465764
v 17690.777344 305.005981 1628.545410
vn 0.058466 -0.001135 -0.998289
vt 0.128856 0.854317
f 3/3/3 1/1/1 2/2/2
f 1/1/1 3/3/3 5/5/5
f 4/4/4 5/5/5 3/3/3
f 7/7/7 5/5/5 6/6/6
f 5/5/5 7/7/7 1/1/1
f 8/8/8 1/1/1 7/7/7
