mtllib DWARF_PALACE_SPIDERWEB03.mtl
g spiderweb03
usemtl 13_-_Default
v 17535.884766 751.441895 -1442.315430
vn -0.315473 -0.899406 0.302565
vt 0.500000 0.500000
v 17106.962891 971.175293 -1871.121094
vn -0.658204 -0.722743 0.210738
vt 0.500000 1.000000
v 17561.947266 913.546326 -2392.637695
vn -0.293858 -0.929442 -0.223127
vt 0.000000 1.000000
v 17987.621094 857.061951 -1974.133545
vn 0.168092 -0.985279 0.031154
vt 0.000000 0.500000
v 17077.652344 972.319885 -931.100342
vn -0.616069 -0.656007 0.436020
vt 1.000000 0.500000
v 16651.978516 1028.804199 -1349.604492
vn -0.363613 -0.875240 0.318968
vt 1.000000 1.000000
v 17958.310547 858.206543 -1034.112793
vn 0.105531 -0.916303 0.386332
vt 0.500000 0.000000
v 18413.294922 800.577576 -1555.629395
vn -0.363613 -0.875240 0.318968
vt 0.000000 0.000000
v 17503.326172 915.835510 -512.596191
vn -0.308852 -0.702598 0.641066
vt 1.000000 0.000000
v 17547.724609 830.073364 -1486.872314
vn 0.177338 0.980589 -0.083642
vt 0.500000 0.500000
v 17010.074219 969.584595 -1741.859619
vn 0.295756 0.943202 0.151323
vt 0.500000 1.000000
v 16629.332031 958.557922 -1138.360596
vn 0.418164 0.887045 -0.195676
vt 0.000000 1.000000
v 17151.892578 903.664246 -849.117615
vn 0.226562 0.900221 -0.371849
vt 0.000000 0.500000
v 17913.378906 925.717590 -2056.115967
vn 0.104415 0.963543 0.246338
vt 1.000000 0.500000
v 17390.818359 980.611267 -2345.358887
vn 0.182390 0.977635 -0.104710
vt 1.000000 1.000000
v 18055.199219 859.797302 -1163.373779
vn 0.063468 0.945404 -0.319662
vt 0.500000 0.000000
v 17674.455078 848.770630 -559.874634
vn 0.182390 0.977635 -0.104710
vt 0.000000 0.000000
v 18435.941406 870.823975 -1766.872803
vn -0.111701 0.993214 0.032373
vt 1.000000 0.000000
f 8/8/8 7/7/7 4/4/4
f 1/1/1 4/4/4 7/7/7
f 4/4/4 1/1/1 3/3/3
f 2/2/2 3/3/3 1/1/1
f 6/6/6 2/2/2 5/5/5
f 1/1/1 5/5/5 2/2/2
f 5/5/5 1/1/1 9/9/9
f 7/7/7 9/9/9 1/1/1
f 11/11/11 14/14/14 15/15/15
f 14/14/14 11/11/11 10/10/10
f 12/12/12 10/10/10 11/11/11
f 10/10/10 12/12/12 13/13/13
f 10/10/10 18/18/18 14/14/14
f 18/18/18 10/10/10 16/16/16
f 13/13/13 16/16/16 10/10/10
f 16/16/16 13/13/13 17/17/17
