mtllib DWARF_PALACE_FORGE_UPPER_FLOOR02.mtl
g e_upper_floor02
usemtl Lvl_dwarven_plc_stone26
v 16810.035156 1000.000549 -12999.636719
vn -1.000000 0.000000 0.000034
vt 0.009992 0.999489
v 16810.046875 1000.000549 -12687.221680
vn -0.976997 0.000000 -0.213254
vt 1.811469 0.999490
v 16810.046875 1050.000122 -12687.221680
vn -0.994301 0.000000 -0.106609
vt 1.811469 0.000502
v 16810.035156 1050.000122 -12999.636719
vn -1.000000 0.000000 0.000034
vt 0.009992 0.000501
v 16710.046875 1000.000549 -12387.221680
vn -0.994299 0.000000 -0.106632
vt 2.794092 0.999490
v 16710.046875 1050.000000 -12387.221680
vn -0.976994 0.000000 -0.213265
vt 2.794092 0.000502
v 16710.046875 1000.000549 -12087.221680
vn -0.976994 0.000000 0.213265
vt 3.776716 0.999490
v 16710.046875 1050.000000 -12087.221680
vn -0.994299 0.000000 0.106632
vt 3.776716 0.000502
v 16710.046875 1000.000549 -12087.221680
vn -0.976994 0.000000 0.213265
vt 2.776716 0.999490
v 16810.046875 1000.000488 -11787.221680
vn -0.994299 0.000000 0.106632
vt 3.759340 0.999491
v 16810.046875 1050.000000 -11787.221680
vn -0.976994 0.000000 0.213265
vt 3.759340 0.000503
v 16710.046875 1050.000000 -12087.221680
vn -0.994299 0.000000 0.106632
vt 2.776716 0.000502
v 16810.046875 1000.000488 -11787.221680
vn -0.994299 0.000000 0.106632
vt 2.759340 0.999491
v 16810.046875 1000.000488 -11497.221680
vn -0.862949 0.000000 -0.505291
vt 3.709209 0.999492
v 16810.046875 1050.000000 -11497.221680
vn -0.967559 0.000000 -0.252645
vt 3.709209 0.000504
v 16810.046875 1050.000000 -11787.221680
vn -0.976994 0.000000 0.213265
vt 2.759340 0.000503
v 16810.046875 1000.000488 -11497.221680
vn -0.862949 0.000000 -0.505291
vt 2.709209 0.999492
v 16700.048828 1000.000488 -11387.165039
vn -0.923931 0.000000 -0.382560
vt 3.069505 0.999492
v 16700.048828 1050.000000 -11387.165039
vn -0.923931 0.000000 -0.382560
vt 3.069505 0.000503
v 16810.046875 1050.000000 -11497.221680
vn -0.967559 0.000000 -0.252645
vt 2.709209 0.000504
v 16810.035156 1050.000122 -12999.636719
vn -0.000072 0.001060 -0.999999
vt 1.811469 0.000502
v 17510.035156 1050.000122 -12999.650391
vn -0.000020 0.000000 -1.000000
vt 0.009992 0.000501
v 17510.035156 1000.000061 -12999.650391
vn 0.000094 0.001589 -0.999999
vt 0.009992 0.999489
v 17070.044922 1000.000061 -12999.742188
vn -0.000098 0.001589 -0.999999
vt 0.910730 0.999489
v 16810.035156 1000.000061 -12999.636719
vn -0.000404 0.000000 -1.000000
vt 1.811469 0.999490
v 16700.048828 1050.000000 -11237.165039
vn -1.000000 0.000000 0.000000
vt 3.069505 0.000503
v 16700.048828 1050.000000 -11387.165039
vn -0.923931 0.000000 -0.382560
vt 2.709209 0.000504
v 16700.048828 1000.000488 -11387.165039
vn -0.923931 0.000000 -0.382560
vt 2.709209 0.999492
v 16700.048828 1000.000488 -11237.165039
vn -1.000000 0.000000 0.000000
vt 3.069505 0.999492
f 11/11/11 9/9/9 10/10/10
f 9/9/9 11/11/11 12/12/12
f 4/4/4 1/1/1 3/3/3
f 2/2/2 3/3/3 1/1/1
f 3/3/3 2/2/2 6/6/6
f 5/5/5 6/6/6 2/2/2
f 6/6/6 5/5/5 8/8/8
f 7/7/7 8/8/8 5/5/5
f 22/22/22 23/23/23 21/21/21
f 24/24/24 21/21/21 23/23/23
f 21/21/21 24/24/24 25/25/25
f 15/15/15 13/13/13 14/14/14
f 13/13/13 15/15/15 16/16/16
f 19/19/19 17/17/17 18/18/18
f 17/17/17 19/19/19 20/20/20
f 28/28/28 26/26/26 27/27/27
f 26/26/26 28/28/28 29/29/29
usemtl Lvl_dwarven_plc_stone28c
v 16810.046875 1050.000122 -12687.221680
vn -0.000001 1.000000 0.000000
vt 0.905754 0.542934
v 17510.046875 1050.000610 -12570.329102
vn -0.000001 1.000000 0.000000
vt 0.905732 -0.999001
v 17510.035156 1050.000610 -12999.650391
vn -0.000001 1.000000 0.000000
vt 0.004995 -0.999001
v 16810.035156 1050.000122 -12999.636719
vn -0.000001 1.000000 0.000000
vt 0.005017 0.542934
v 17510.046875 1050.000488 -11237.235352
vn -0.000001 1.000000 0.000000
vt 3.280400 -0.999001
v 17510.046875 1050.000000 -11982.735352
vn 0.000000 1.000000 0.000000
vt 2.379664 -0.999000
v 16810.046875 1050.000000 -11787.221680
vn 0.000000 1.000000 0.000000
vt 2.379686 0.542935
v 16810.046875 1050.000000 -11497.221680
vn 0.000000 1.000000 0.000000
vt 2.854620 0.542934
v 16710.046875 1050.000000 -12387.221680
vn 0.000000 1.000000 0.000000
vt 1.397065 0.760109
v 16710.046875 1050.000000 -12087.221680
vn 0.000000 1.000000 0.000000
vt 1.888376 0.760109
v 16700.048828 1049.999756 -11237.165039
vn 0.000000 1.000000 -0.000001
vt 3.280423 0.760109
v 16700.048828 1000.000000 -11387.165039
vn 0.004829 -0.999986 0.002209
vt 3.034768 0.760109
v 16810.046875 1000.000000 -11497.221680
vn 0.005241 -0.999984 0.002209
vt 2.854620 0.542934
v 17510.046875 1004.242737 -11237.236328
vn 0.004327 -0.999987 0.002527
vt 3.280400 -0.999001
v 17070.044922 1000.000061 -12999.742188
vn 0.000001 -1.000000 0.000000
vt 0.005006 -0.228034
v 17510.035156 1000.000549 -12999.650391
vn 0.000001 -1.000000 0.000000
vt 0.004995 -0.999001
v 17510.046875 1000.000549 -12570.329102
vn 0.000001 -1.000000 0.000000
vt 0.905732 -0.999001
v 16810.046875 1000.000061 -12687.221680
vn 0.000000 -1.000000 0.000000
vt 0.905754 0.542934
v 16810.035156 1000.000061 -12999.636719
vn 0.000000 -1.000000 0.000000
vt 0.005017 0.542934
v 16710.046875 1000.000061 -12087.221680
vn 0.000000 -1.000000 0.000000
vt 1.888376 0.760109
v 16710.046875 1000.000061 -12387.221680
vn 0.000000 -1.000000 0.000000
vt 1.397065 0.760109
v 17510.046875 1000.000061 -11982.735352
vn 0.000530 -0.999998 0.001897
vt 2.379664 -0.999000
v 16810.046875 1000.000000 -11787.221680
vn 0.002550 -0.999995 0.001897
vt 2.379686 0.542935
v 16700.048828 1000.000061 -11237.165039
vn 0.000000 -1.000000 0.000000
vt 3.280423 0.760109
v 16700.048828 1050.000000 -11387.165039
vn 0.000000 1.000000 0.000000
vt 3.034768 0.760109
f 38/38/38 39/39/39 36/36/36
f 30/30/30 32/32/32 33/33/33
f 32/32/32 30/30/30 31/31/31
f 38/38/38 31/31/31 30/30/30
f 31/31/31 38/38/38 35/35/35
f 36/36/36 35/35/35 38/38/38
f 35/35/35 36/36/36 34/34/34
f 37/37/37 34/34/34 36/36/36
f 34/34/34 37/37/37 40/40/40
f 54/54/54 40/40/40 37/37/37
f 41/41/41 42/42/42 43/43/43
f 52/52/52 43/43/43 42/42/42
f 43/43/43 52/52/52 51/51/51
f 49/49/49 51/51/51 52/52/52
f 51/51/51 49/49/49 46/46/46
f 47/47/47 46/46/46 49/49/49
f 46/46/46 47/47/47 44/44/44
f 48/48/48 44/44/44 47/47/47
f 44/44/44 45/45/45 46/46/46
f 49/49/49 50/50/50 47/47/47
f 43/43/43 53/53/53 41/41/41
