mtllib EREBOR_RUNE_PZL_EREBOR_PZL_TILE_STATIC14.mtl
g l_tile_static14
usemtl Lvl_dwarven_plc_tileE
v 5896.037109 1023.696472 -4807.874023
vn 0.241488 0.962920 0.120286
vt 0.054637 0.946433
v 5896.037109 1023.696533 -4897.863281
vn 0.151814 0.940978 -0.302512
vt 0.945363 0.946433
v 5804.511719 1023.696533 -4897.863281
vn -0.241490 0.962918 -0.120301
vt 0.945363 0.053568
v 5804.511719 1023.696472 -4807.874023
vn -0.151812 0.940991 0.302471
vt 0.054637 0.053568
v 5799.072266 1019.999695 -4802.404297
vn -0.374815 0.908114 0.186660
vt 0.000500 0.000500
v 5799.072266 1019.999756 -4903.332031
vn -0.187409 0.908555 -0.373370
vt 0.999501 0.000500
v 5901.476563 1019.999695 -4802.404297
vn 0.187407 0.908577 0.373319
vt 0.000499 0.999500
v 5901.476563 1019.999756 -4903.332031
vn 0.374818 0.908108 -0.186686
vt 0.999500 0.999500
f 5/5/5 3/3/3 6/6/6
f 3/3/3 5/5/5 4/4/4
f 7/7/7 4/4/4 5/5/5
f 4/4/4 7/7/7 1/1/1
f 8/8/8 1/1/1 7/7/7
f 1/1/1 8/8/8 2/2/2
f 8/8/8 6/6/6 2/2/2
f 3/3/3 2/2/2 6/6/6
f 2/2/2 3/3/3 1/1/1
f 4/4/4 1/1/1 3/3/3
