mtllib EREBOR_RUNE_PZL_EREBOR_PZL_TILE_ACTIVE01.mtl
g l_tile_active01
usemtl Lvl_dwarven_plc_tileUa
v 5906.915039 1023.052368 -4694.532227
vn -0.206283 0.973086 -0.102721
vt 0.945363 0.053567
v 5906.915039 1023.052368 -4603.065430
vn -0.129499 0.957443 0.257940
vt 0.054637 0.053567
v 5995.487305 1023.052368 -4603.065430
vn 0.206283 0.973086 0.102721
vt 0.054637 0.946432
v 5995.487305 1023.052368 -4694.532227
vn 0.129499 0.957443 -0.257940
vt 0.945363 0.946432
v 6000.926758 1019.999695 -4700.000977
vn 0.374816 0.908109 -0.186684
vt 0.999500 0.999500
v 6000.926758 1019.999695 -4597.596680
vn 0.187408 0.908557 0.373368
vt 0.000499 0.999500
v 5901.475586 1019.999695 -4700.000977
vn 0.000000 1.000000 0.000000
vt 0.999501 0.000500
v 5901.475586 1019.999695 -4597.596680
vn -0.374816 0.908109 0.186685
vt 0.000500 0.000500
f 5/5/5 3/3/3 6/6/6
f 3/3/3 5/5/5 4/4/4
f 7/7/7 4/4/4 5/5/5
f 4/4/4 7/7/7 1/1/1
f 8/8/8 1/1/1 7/7/7
f 1/1/1 8/8/8 2/2/2
f 8/8/8 6/6/6 2/2/2
f 3/3/3 2/2/2 6/6/6
f 2/2/2 3/3/3 1/1/1
f 4/4/4 1/1/1 3/3/3
