mtllib EREBOR_RUNE_PZL_EREBOR_PZL_TILE_ACTIVE19.mtl
g l_tile_active19
usemtl Lvl_dwarven_plc_tileRa
v 5793.632813 1023.052490 -5110.657227
vn 0.206285 0.973087 0.102708
vt 0.054637 0.944856
v 5793.632813 1023.052490 -5200.646484
vn 0.129501 0.957441 -0.257945
vt 0.945363 0.944856
v 5705.062500 1023.052490 -5200.646484
vn -0.206226 0.973098 -0.102720
vt 0.945363 0.055145
v 5705.062500 1023.052490 -5110.657227
vn -0.129462 0.957458 0.257903
vt 0.054637 0.055145
v 5699.621094 1019.999756 -5105.187500
vn 0.000116 1.000000 -0.000018
vt 0.000500 0.000500
v 5699.621094 1019.999756 -5206.115234
vn -0.187357 0.908569 -0.373363
vt 0.999501 0.000500
v 5799.072266 1019.999756 -5105.187500
vn -0.000001 1.000000 -0.000028
vt 0.000499 0.999500
v 5799.072266 1019.999756 -5206.115234
vn 0.000002 1.000000 -0.000014
vt 0.999500 0.999500
f 5/5/5 3/3/3 6/6/6
f 3/3/3 5/5/5 4/4/4
f 7/7/7 4/4/4 5/5/5
f 4/4/4 7/7/7 1/1/1
f 8/8/8 1/1/1 7/7/7
f 1/1/1 8/8/8 2/2/2
f 8/8/8 6/6/6 2/2/2
f 3/3/3 2/2/2 6/6/6
f 2/2/2 3/3/3 1/1/1
f 4/4/4 1/1/1 3/3/3
