mtllib EREBOR_RUNE_PZL_EREBOR_PZL_TILE_ACTIVE51.mtl
g l_tile_active51
usemtl Lvl_dwarven_plc_tileOa
v 5389.921875 1023.052490 -4908.801758
vn 0.206285 0.973087 0.102708
vt 0.054637 0.946433
v 5389.921875 1023.052490 -4998.791016
vn 0.129501 0.957441 -0.257945
vt 0.945363 0.946433
v 5298.394531 1023.052490 -4998.791016
vn -0.206347 0.973072 -0.102724
vt 0.945363 0.053568
v 5298.394531 1023.052490 -4908.801758
vn -0.129537 0.957446 0.257911
vt 0.054637 0.053568
v 5292.957031 1019.999756 -4903.332031
vn -0.374919 0.908071 0.186664
vt 0.000500 0.000500
v 5292.957031 1019.999756 -5004.259766
vn -0.187461 0.908542 -0.373377
vt 0.999501 0.000500
v 5395.361328 1019.999756 -4903.332031
vn -0.098106 0.951021 0.293144
vt 0.000499 0.999500
v 5395.361328 1019.999756 -5004.259766
vn 0.098107 0.951009 -0.293185
vt 0.999500 0.999500
f 5/5/5 3/3/3 6/6/6
f 3/3/3 5/5/5 4/4/4
f 7/7/7 4/4/4 5/5/5
f 4/4/4 7/7/7 1/1/1
f 8/8/8 1/1/1 7/7/7
f 1/1/1 8/8/8 2/2/2
f 8/8/8 6/6/6 2/2/2
f 3/3/3 2/2/2 6/6/6
f 2/2/2 3/3/3 1/1/1
f 4/4/4 1/1/1 3/3/3
