mtllib EREBOR_RUNE_PZL_EREBOR_PZL_TILE_ACTIVE37.mtl
g l_tile_active37
usemtl Lvl_dwarven_plc_tileEa
v 5591.777344 1023.052429 -4807.874023
vn 0.206285 0.973087 0.102708
vt 0.054637 0.946433
v 5591.777344 1023.052490 -4897.863281
vn 0.129501 0.957441 -0.257945
vt 0.945363 0.946433
v 5500.250000 1023.052490 -4897.863281
vn -0.206347 0.973072 -0.102724
vt 0.945363 0.053568
v 5500.250000 1023.052429 -4807.874023
vn -0.129537 0.957446 0.257911
vt 0.054637 0.053568
v 5494.812500 1019.999695 -4802.404297
vn -0.374919 0.908071 0.186664
vt 0.000500 0.000500
v 5494.812500 1019.999756 -4903.332031
vn -0.136016 0.988392 0.067677
vt 0.999501 0.000500
v 5597.216797 1019.999695 -4802.404297
vn 0.187407 0.908577 0.373319
vt 0.000499 0.999500
v 5597.216797 1019.999756 -4903.332031
vn 0.294231 0.950731 0.097672
vt 0.999500 0.999500
f 5/5/5 3/3/3 6/6/6
f 3/3/3 5/5/5 4/4/4
f 7/7/7 4/4/4 5/5/5
f 4/4/4 7/7/7 1/1/1
f 8/8/8 1/1/1 7/7/7
f 1/1/1 8/8/8 2/2/2
f 8/8/8 6/6/6 2/2/2
f 3/3/3 2/2/2 6/6/6
f 2/2/2 3/3/3 1/1/1
f 4/4/4 1/1/1 3/3/3
