mtllib FLOOR_RUIN_COOLER_FLOOR_RUIN_COOLER02.mtl
g r_ruin_cooler02
usemtl Lvl_dwarven_plc_tile_forge0a
v 3359.645508 747.455750 -5711.053711
vn -0.175624 0.968665 0.175624
vt 0.999501 0.999500
v 3483.662598 747.455750 -5711.053711
vn 0.175624 0.968665 0.175624
vt 0.999500 0.000499
v 3483.662598 747.455688 -5835.070801
vn 0.175624 0.968665 -0.175624
vt 0.000499 0.000500
v 3359.645508 747.455750 -5835.070801
vn -0.175624 0.968665 -0.175624
vt 0.000500 0.999501
f 3/3/3 1/1/1 2/2/2
f 1/1/1 3/3/3 4/4/4
usemtl Lvl_dwarven_plc_stone25
v 3346.654053 721.809082 -5698.062012
vn 0.000000 -1.000000 0.000000
vt 0.000499 0.999500
v 3346.654053 721.809082 -5848.062012
vn 0.000000 -1.000000 0.000000
vt 0.999500 0.999501
v 3496.654053 721.809021 -5848.062012
vn 0.000000 -1.000000 0.000000
vt 0.999501 0.000500
v 3496.654053 721.809082 -5698.062012
vn 0.000000 -1.000000 0.000000
vt 0.000500 0.000499
v 3346.654053 740.032043 -5848.062012
vn 0.000000 0.000000 -1.000000
vt 0.000500 0.870350
v 3496.654053 740.031982 -5848.062012
vn 0.211555 0.740442 -0.637958
vt 0.999500 0.870350
v 3496.654053 721.809021 -5848.062012
vn 0.000000 0.000000 -1.000000
vt 0.999500 0.000499
v 3346.654053 721.809082 -5848.062012
vn 0.000000 0.000000 -1.000000
vt 0.000500 0.000499
v 3496.654053 740.031982 -5848.062012
vn 1.000000 0.000000 0.000000
vt 0.000499 0.870350
v 3496.654053 740.032043 -5698.062012
vn 0.637958 0.740442 0.211555
vt 0.999500 0.870350
v 3496.654053 721.809082 -5698.062012
vn 1.000000 0.000000 0.000000
vt 0.999500 0.000499
v 3496.654053 721.809021 -5848.062012
vn 1.000000 0.000000 0.000000
vt 0.000499 0.000499
v 3496.654053 740.032043 -5698.062012
vn 0.000000 0.000000 1.000000
vt 0.000499 0.870350
v 3346.654053 740.032043 -5698.062012
vn 0.000000 0.000000 1.000000
vt 0.999500 0.870350
v 3346.654053 721.809082 -5698.062012
vn 0.000000 0.000000 1.000000
vt 0.999500 0.000499
v 3496.654053 721.809082 -5698.062012
vn 0.000000 0.000000 1.000000
vt 0.000499 0.000499
v 3346.654053 740.032043 -5698.062012
vn -0.637958 0.740442 0.211555
vt 0.999501 0.999500
v 3496.654053 740.032043 -5698.062012
vn 0.637958 0.740442 0.211555
vt 0.999500 0.000499
v 3483.662598 747.455750 -5711.053711
vn 0.175624 0.968665 0.175624
vt 0.912977 0.087023
v 3359.645508 747.455750 -5711.053711
vn -0.175624 0.968665 0.175624
vt 0.912977 0.912977
v 3496.654053 740.031982 -5848.062012
vn 0.211555 0.740442 -0.637958
vt 0.000499 0.000500
v 3483.662598 747.455688 -5835.070801
vn 0.175624 0.968665 -0.175624
vt 0.087023 0.087023
v 3346.654053 740.032043 -5848.062012
vn -0.637958 0.740442 -0.211555
vt 0.000500 0.999501
v 3359.645508 747.455750 -5835.070801
vn -0.175624 0.968665 -0.175624
vt 0.087023 0.912977
v 3346.654053 740.032043 -5698.062012
vn -0.637958 0.740442 0.211555
vt 0.000500 0.000499
v 3346.654053 740.032043 -5848.062012
vn -0.637958 0.740442 -0.211555
vt 0.999501 0.000501
v 3346.654053 721.809082 -5848.062012
vn -1.000000 0.000000 0.000000
vt 0.999501 0.999500
v 3346.654053 721.809082 -5698.062012
vn -1.000000 0.000000 0.000000
vt 0.000500 0.999497
f 7/7/7 5/5/5 6/6/6
f 5/5/5 7/7/7 8/8/8
f 22/22/22 23/23/23 21/21/21
f 24/24/24 21/21/21 23/23/23
f 21/21/21 24/24/24 27/27/27
f 28/28/28 27/27/27 24/24/24
f 27/27/27 28/28/28 25/25/25
f 26/26/26 25/25/25 28/28/28
f 26/26/26 22/22/22 25/25/25
f 22/22/22 26/26/26 23/23/23
f 11/11/11 9/9/9 10/10/10
f 9/9/9 11/11/11 12/12/12
f 15/15/15 13/13/13 14/14/14
f 13/13/13 15/15/15 16/16/16
f 19/19/19 17/17/17 18/18/18
f 17/17/17 19/19/19 20/20/20
f 31/31/31 29/29/29 30/30/30
f 29/29/29 31/31/31 32/32/32
