mtllib INST_POT2.mtl
g Pot-02
usemtl Pot2
v -0.000008 0.000004 0.000000
vn 0.000000 -1.000000 0.000000
vt 3.000000 0.968207
v -10.880633 -0.000001 18.845823
vn -0.180937 -0.833332 0.522321
vt 0.000001 0.968207
v -21.761280 0.000004 0.000006
vn -0.542812 -0.833332 0.104464
vt -1.000000 0.968207
v -21.761280 0.000004 0.000006
vn -0.542812 -0.833332 0.104464
vt -1.000000 0.968207
v -19.999996 42.429840 34.641026
vn -0.492279 -0.101489 0.864501
vt 0.000000 0.467077
v -40.000000 42.429844 0.000010
vn -0.998273 -0.038802 0.044095
vt -1.000000 0.467077
v -10.880633 -0.000001 18.845823
vn -0.180937 -0.833332 0.522321
vt 0.000001 0.968207
v -40.000000 42.429844 0.000010
vn -0.998273 -0.038802 0.044095
vt 3.000000 0.467077
v -18.189030 60.000000 31.504332
vn -0.474388 0.376394 0.795791
vt 4.000000 0.259559
v -36.378059 60.000004 0.000010
vn -0.926369 0.376395 -0.012937
vt 3.000000 0.259559
v -40.000000 42.429844 0.000010
vn -0.998273 -0.038802 0.044095
vt -1.000000 0.467077
v -19.999996 42.429840 34.641026
vn -0.492279 -0.101489 0.864501
vt 0.000000 0.467077
v -18.189030 60.000000 31.504332
vn -0.474388 0.376394 0.795791
vt -0.000000 0.259559
v -36.378059 60.000004 0.000010
vn -0.926369 0.376395 -0.012937
vt 3.000000 0.259559
v -15.000004 70.000000 25.980774
vn -0.335489 0.832600 0.440708
vt 4.000000 0.141451
v -30.000002 70.000000 0.000009
vn -0.549409 0.832600 -0.070188
vt 3.000000 0.141451
v -18.189030 60.000000 31.504332
vn -0.474388 0.376394 0.795791
vt 4.000000 0.259559
v -30.000002 70.000000 0.000009
vn -0.549409 0.832600 -0.070188
vt 3.000000 0.141451
v -12.064771 71.001961 20.896801
vn -0.147745 0.933952 0.325431
vt 4.000000 0.115352
v -24.129536 71.001968 0.000009
vn -0.355704 0.933952 0.034765
vt 3.000000 0.115352
v -15.000004 70.000000 25.980774
vn -0.335489 0.832600 0.440708
vt 4.000000 0.141451
v -5.000007 80.000000 8.660266
vn -0.185733 0.958909 0.214467
vt 3.999999 0.023342
v -10.000002 80.000000 0.000008
vn -0.278601 0.958909 -0.053617
vt 3.000000 0.023342
v -10.000002 80.000000 0.000008
vn -0.278601 0.958909 -0.053617
vt 3.000000 0.023342
v -5.000007 80.000000 8.660266
vn -0.185733 0.958909 0.214467
vt 3.999999 0.023342
v -0.064656 80.000008 0.000013
vn 0.000000 1.000000 0.000000
vt 3.999999 0.023342
v 10.880646 -0.000001 18.845814
vn 0.361875 -0.833332 0.417857
vt 1.000001 0.968207
v 20.000004 42.429840 34.641018
vn 0.502540 -0.101489 0.858576
vt 1.000000 0.467077
v 10.880646 -0.000001 18.845814
vn 0.361875 -0.833332 0.417857
vt 1.000001 0.968207
v 18.189028 60.000000 31.504330
vn 0.451981 0.376395 0.808728
vt 1.000000 0.259559
v 20.000004 42.429840 34.641018
vn 0.502540 -0.101489 0.858576
vt 1.000000 0.467077
v -18.189030 60.000000 31.504332
vn -0.474388 0.376394 0.795791
vt -0.000000 0.259559
v 14.999998 70.000000 25.980774
vn 0.213921 0.832600 0.510896
vt 1.000000 0.141451
v -15.000004 70.000000 25.980774
vn -0.335489 0.832600 0.440708
vt -0.000000 0.141451
v 18.189028 60.000000 31.504330
vn 0.451981 0.376395 0.808728
vt 1.000000 0.259559
v -15.000004 70.000000 25.980774
vn -0.335489 0.832600 0.440708
vt -0.000000 0.141451
v 12.064764 71.001961 20.896801
vn 0.207959 0.933952 0.290667
vt 1.000000 0.115352
v -12.064771 71.001961 20.896801
vn -0.147745 0.933952 0.325431
vt -0.000000 0.115352
v 14.999998 70.000000 25.980774
vn 0.213921 0.832600 0.510896
vt 1.000000 0.141451
v 4.999993 80.000000 8.660270
vn 0.092866 0.958909 0.268084
vt 0.999999 0.023342
v -5.000007 80.000000 8.660266
vn -0.185733 0.958909 0.214467
vt -0.000001 0.023342
v -5.000007 80.000000 8.660266
vn -0.185733 0.958909 0.214467
vt -0.000001 0.023342
v 0.072734 80.000008 0.042008
vn 0.000000 1.000000 0.000001
vt 0.999997 0.023342
v -0.064656 80.000008 0.000013
vn 0.000000 1.000000 0.000000
vt -0.000003 0.023342
v 4.999993 80.000000 8.660270
vn 0.092866 0.958909 0.268084
vt 0.999999 0.023342
v 21.761276 0.000004 -0.000014
vn 0.542812 -0.833332 -0.104464
vt 2.000001 0.968207
v 39.999996 42.429844 -0.000002
vn 0.994819 -0.101489 -0.005924
vt 2.000000 0.467076
v 21.761276 0.000004 -0.000014
vn 0.542812 -0.833332 -0.104464
vt 2.000001 0.968207
v 36.378056 60.000004 0.000005
vn 0.926369 0.376395 0.012937
vt 2.000000 0.259559
v 39.999996 42.429844 -0.000002
vn 0.994819 -0.101489 -0.005924
vt 2.000000 0.467076
v 30.000000 70.000000 0.000010
vn 0.549409 0.832600 0.070188
vt 2.000000 0.141451
v 36.378056 60.000004 0.000005
vn 0.926369 0.376395 0.012937
vt 2.000000 0.259559
v 24.129532 71.001968 0.000012
vn 0.355704 0.933952 -0.034764
vt 2.000000 0.115352
v 30.000000 70.000000 0.000010
vn 0.549409 0.832600 0.070188
vt 2.000000 0.141451
v 9.999998 80.000000 0.000017
vn 0.278601 0.958909 0.053617
vt 1.999999 0.023342
v 9.999998 80.000000 0.000017
vn 0.278601 0.958909 0.053617
vt 1.999999 0.023342
v 0.072734 80.000008 0.042008
vn 0.000000 1.000000 0.000001
vt 1.999998 0.023342
v 10.880627 0.000008 -18.845827
vn 0.180938 -0.833332 -0.522321
vt 3.000000 0.968207
v 19.999989 42.429852 -34.641014
vn 0.492279 -0.101489 -0.864501
vt 3.000000 0.467076
v 10.880627 0.000008 -18.845827
vn 0.180938 -0.833332 -0.522321
vt 3.000000 0.968207
v 18.189024 60.000008 -31.504313
vn 0.474388 0.376395 -0.795791
vt 3.000000 0.259559
v 19.999989 42.429852 -34.641014
vn 0.492279 -0.101489 -0.864501
vt 3.000000 0.467076
v 14.999998 70.000008 -25.980751
vn 0.335489 0.832600 -0.440708
vt 3.000000 0.141451
v 18.189024 60.000008 -31.504313
vn 0.474388 0.376395 -0.795791
vt 3.000000 0.259559
v 12.064764 71.001968 -20.896778
vn 0.147745 0.933952 -0.325431
vt 3.000000 0.115352
v 14.999998 70.000008 -25.980751
vn 0.335489 0.832600 -0.440708
vt 3.000000 0.141451
v 5.000001 80.000008 -8.660238
vn 0.185733 0.958909 -0.214467
vt 3.000000 0.023342
v 0.048489 80.000008 -0.083975
vn 0.000001 1.000000 0.000000
vt 3.000000 0.023342
v 5.000001 80.000008 -8.660238
vn 0.185733 0.958909 -0.214467
vt 3.000000 0.023342
v -10.880648 0.000008 -18.845821
vn -0.361875 -0.833332 -0.417857
vt 4.000000 0.968207
v -20.000002 42.429852 -34.641010
vn -0.502540 -0.101489 -0.858576
vt 4.000000 0.467077
v -10.880648 0.000008 -18.845821
vn -0.361875 -0.833332 -0.417857
vt 4.000000 0.968207
v -18.189026 60.000008 -31.504313
vn -0.451981 0.376395 -0.808728
vt 4.000000 0.259559
v -20.000002 42.429852 -34.641010
vn -0.502540 -0.101489 -0.858576
vt 4.000000 0.467077
v -14.999998 70.000008 -25.980753
vn -0.213920 0.832600 -0.510896
vt 4.000000 0.141451
v -18.189026 60.000008 -31.504313
vn -0.451981 0.376395 -0.808728
vt 4.000000 0.259559
v -12.064764 71.001968 -20.896780
vn -0.207959 0.933952 -0.290666
vt 4.000000 0.115352
v -14.999998 70.000008 -25.980753
vn -0.213920 0.832600 -0.510896
vt 4.000000 0.141451
v -4.999997 80.000008 -8.660244
vn -0.092867 0.958909 -0.268083
vt 4.000000 0.023342
v -4.999997 80.000008 -8.660244
vn -0.092867 0.958909 -0.268083
vt 4.000000 0.023342
v -0.000002 0.000004 0.000004
vn 0.000000 -1.000000 0.000000
vt 2.000000 0.968207
v -21.761280 0.000004 0.000006
vn -0.542812 -0.833332 0.104464
vt 4.000000 0.968207
v -10.880648 0.000008 -18.845821
vn -0.361875 -0.833332 -0.417857
vt 3.000000 0.968207
v -10.880648 0.000008 -18.845821
vn -0.361875 -0.833332 -0.417857
vt 3.000000 0.968207
v -40.000000 42.429844 0.000010
vn -0.998273 -0.038802 0.044095
vt 4.000000 0.467077
v -20.000002 42.429852 -34.641010
vn -0.502540 -0.101489 -0.858576
vt 3.000000 0.467077
v -21.761280 0.000004 0.000006
vn -0.542812 -0.833332 0.104464
vt 4.000000 0.968207
v -20.000002 42.429852 -34.641010
vn -0.502540 -0.101489 -0.858576
vt 3.000000 0.467077
v -36.378059 60.000004 0.000010
vn -0.926369 0.376395 -0.012937
vt 4.000000 0.259559
v -18.189026 60.000008 -31.504313
vn -0.451981 0.376395 -0.808728
vt 3.000000 0.259559
v -40.000000 42.429844 0.000010
vn -0.998273 -0.038802 0.044095
vt 4.000000 0.467077
v -18.189026 60.000008 -31.504313
vn -0.451981 0.376395 -0.808728
vt 3.000000 0.259559
v -30.000002 70.000000 0.000009
vn -0.549409 0.832600 -0.070188
vt 4.000000 0.141451
v -14.999998 70.000008 -25.980753
vn -0.213920 0.832600 -0.510896
vt 3.000000 0.141451
v -36.378059 60.000004 0.000010
vn -0.926369 0.376395 -0.012937
vt 4.000000 0.259559
v -14.999998 70.000008 -25.980753
vn -0.213920 0.832600 -0.510896
vt 3.000000 0.141451
v -24.129536 71.001968 0.000009
vn -0.355704 0.933952 0.034765
vt 4.000000 0.115352
v -12.064764 71.001968 -20.896780
vn -0.207959 0.933952 -0.290666
vt 3.000000 0.115352
v -30.000002 70.000000 0.000009
vn -0.549409 0.832600 -0.070188
vt 4.000000 0.141451
v -10.000002 80.000000 0.000008
vn -0.278601 0.958909 -0.053617
vt 4.000000 0.023342
v -4.999997 80.000008 -8.660244
vn -0.092867 0.958909 -0.268083
vt 3.000000 0.023342
v -4.999997 80.000008 -8.660244
vn -0.092867 0.958909 -0.268083
vt 3.000000 0.023342
v -10.000002 80.000000 0.000008
vn -0.278601 0.958909 -0.053617
vt 4.000000 0.023342
f 8/8/8 9/9/9 10/10/10
f 77/77/77 79/79/79 65/65/65
f 67/67/67 65/65/65 79/79/79
f 65/65/65 67/67/67 53/53/53
f 55/55/55 53/53/53 67/67/67
f 53/53/53 55/55/55 37/37/37
f 40/40/40 37/37/37 55/55/55
f 37/37/37 40/40/40 38/38/38
f 41/41/41 38/38/38 40/40/40
f 38/38/38 36/36/36 37/37/37
f 39/39/39 37/37/37 36/36/36
f 37/37/37 39/39/39 53/53/53
f 54/54/54 53/53/53 39/39/39
f 53/53/53 54/54/54 65/65/65
f 66/66/66 65/65/65 54/54/54
f 65/65/65 66/66/66 77/77/77
f 78/78/78 77/77/77 66/66/66
f 74/74/74 73/73/73 62/62/62
f 61/61/61 62/62/62 73/73/73
f 62/62/62 61/61/61 50/50/50
f 49/49/49 50/50/50 61/61/61
f 50/50/50 49/49/49 31/31/31
f 30/30/30 31/31/31 49/49/49
f 31/31/31 30/30/30 12/12/12
f 13/13/13 12/12/12 30/30/30
f 12/12/12 13/13/13 11/11/11
f 76/76/76 75/75/75 64/64/64
f 63/63/63 64/64/64 75/75/75
f 64/64/64 63/63/63 52/52/52
f 51/51/51 52/52/52 63/63/63
f 52/52/52 51/51/51 35/35/35
f 33/33/33 35/35/35 51/51/51
f 35/35/35 33/33/33 32/32/32
f 34/34/34 32/32/32 33/33/33
f 80/80/80 26/26/26 69/69/69
f 68/68/68 69/69/69 26/26/26
f 69/69/69 68/68/68 56/56/56
f 57/57/57 56/56/56 68/68/68
f 56/56/56 57/57/57 45/45/45
f 24/24/24 25/25/25 26/26/26
f 102/102/102 103/103/103 26/26/26
f 43/43/43 42/42/42 45/45/45
f 42/42/42 43/43/43 44/44/44
f 97/97/97 96/96/96 99/99/99
f 96/96/96 97/97/97 98/98/98
f 100/100/100 98/98/98 97/97/97
f 98/98/98 100/100/100 101/101/101
f 70/70/70 58/58/58 1/1/1
f 46/46/46 1/1/1 58/58/58
f 1/1/1 46/46/46 27/27/27
f 1/1/1 2/2/2 3/3/3
f 2/2/2 1/1/1 27/27/27
f 72/72/72 71/71/71 60/60/60
f 59/59/59 60/60/60 71/71/71
f 60/60/60 59/59/59 48/48/48
f 47/47/47 48/48/48 59/59/59
f 48/48/48 47/47/47 29/29/29
f 28/28/28 29/29/29 47/47/47
f 29/29/29 28/28/28 7/7/7
f 5/5/5 7/7/7 28/28/28
f 7/7/7 5/5/5 4/4/4
f 6/6/6 4/4/4 5/5/5
f 15/15/15 14/14/14 17/17/17
f 14/14/14 15/15/15 16/16/16
f 19/19/19 18/18/18 21/21/21
f 18/18/18 19/19/19 20/20/20
f 22/22/22 20/20/20 19/19/19
f 20/20/20 22/22/22 23/23/23
f 81/81/81 82/82/82 83/83/83
f 85/85/85 84/84/84 87/87/87
f 84/84/84 85/85/85 86/86/86
f 89/89/89 88/88/88 91/91/91
f 88/88/88 89/89/89 90/90/90
f 93/93/93 92/92/92 95/95/95
f 92/92/92 93/93/93 94/94/94
