mtllib LONE_MOUNTAIN_WATERFALLS_MAINWATER_TREASURY01.mtl
g ater_treasury01
usemtl Material_#124
v 9709.064453 -18.897919 -4234.421875
vn 0.006406 0.999522 0.030231
vt -0.005562 -3.818880
v 9878.600586 -14.805037 -4259.175293
vn -0.010707 0.999942 0.000997
vt -0.005562 -3.318882
v 9882.297852 -14.612277 -4412.823242
vn 0.015467 0.999792 0.013287
vt 0.494438 -3.318884
v 9709.927734 -9.585273 -4390.477051
vn 0.031164 0.999393 0.015562
vt 0.494438 -3.818882
v 10041.648438 -15.223477 -4266.283691
vn -0.019169 0.999816 -0.000932
vt -0.005562 -2.820835
v 10047.033203 -19.880142 -4419.195313
vn -0.031744 0.999476 -0.006288
vt 0.494438 -2.820837
v 10065.420898 -16.363461 -4572.274414
vn 0.001439 0.999999 0.000390
vt 0.994438 -2.820837
v 9900.228516 -8.968792 -4566.511230
vn 0.009497 0.999240 0.037801
vt 0.994438 -3.318884
v 9726.388672 -14.425358 -4544.743164
vn -0.000867 0.999997 0.002441
vt 0.994438 -3.818884
v 10041.648438 -15.223477 -4266.283691
vn -0.019169 0.999816 -0.000932
vt -0.005562 -3.820835
v 10190.482422 -14.253121 -4232.417969
vn -0.000037 0.998287 0.058499
vt -0.005562 -3.326696
v 10195.945313 -5.250826 -4386.038574
vn 0.004231 0.999943 -0.009849
vt 0.494438 -3.326696
v 10047.033203 -19.880142 -4419.195313
vn -0.031744 0.999476 -0.006288
vt 0.494438 -3.820837
v 10332.756836 -14.385916 -4277.256348
vn 0.034953 0.999362 -0.007378
vt -0.005562 -2.833532
v 10337.233398 -21.099611 -4431.161621
vn 0.049963 0.998704 -0.009744
vt 0.494438 -2.833532
v 10353.947266 -18.517481 -4585.015625
vn 0.018125 0.999827 -0.004182
vt 0.994438 -2.833532
v 10213.726563 -17.795622 -4539.786133
vn 0.002426 0.996708 -0.081044
vt 0.994438 -3.326696
v 10065.420898 -16.363461 -4572.274414
vn 0.001439 0.999999 0.000390
vt 0.994438 -3.820837
v 10332.756836 -14.385916 -4277.256348
vn 0.034953 0.999362 -0.007378
vt -0.005562 -3.833532
v 10476.347656 -18.950544 -4278.989258
vn -0.012803 0.999905 -0.005101
vt -0.005562 -3.338415
v 10479.230469 -19.697556 -4432.649414
vn -0.009490 0.999951 -0.002721
vt 0.494438 -3.338415
v 10337.233398 -21.099611 -4431.161621
vn 0.049963 0.998704 -0.009744
vt 0.494438 -3.833532
v 10618.715820 -10.730810 -4270.879883
vn -0.001647 0.999667 -0.025764
vt -0.005562 -2.841345
v 10620.593750 -19.410364 -4422.159180
vn -0.008826 0.999862 -0.014105
vt 0.494438 -2.841345
v 10635.637695 -14.789660 -4573.942383
vn 0.001160 0.999879 0.015507
vt 0.994438 -2.841345
v 10494.778320 -16.091034 -4587.111328
vn -0.014106 0.999660 0.021921
vt 0.994438 -3.338415
v 10353.947266 -18.517481 -4585.015625
vn 0.018125 0.999827 -0.004182
vt 0.994438 -3.833532
v 10618.715820 -10.730810 -4270.879883
vn -0.001647 0.999667 -0.025764
vt -0.005562 -3.841345
v 10757.348633 -19.437937 -4252.641113
vn 0.017055 0.999710 0.016981
vt -0.005562 -3.342321
v 10759.985352 -16.866116 -4406.701660
vn 0.007231 0.999952 -0.006653
vt 0.494438 -3.342321
v 10620.593750 -19.410364 -4422.159180
vn -0.008826 0.999862 -0.014105
vt 0.494438 -3.841345
v 10893.118164 -15.745203 -4260.234863
vn -0.014653 0.999871 -0.006623
vt -0.005562 -2.842321
v 10897.153320 -19.056751 -4414.365234
vn -0.010453 0.999902 -0.009315
vt 0.494438 -2.842321
v 10914.336914 -18.399038 -4568.474609
vn -0.017592 0.999833 -0.004962
vt 0.994438 -2.842321
v 10775.986328 -20.392918 -4561.026367
vn 0.012937 0.999685 -0.021505
vt 0.994438 -3.342321
v 10635.637695 -14.789660 -4573.942383
vn 0.001160 0.999879 0.015507
vt 0.994438 -3.841345
v 9710.181641 -17.796684 -4234.085938
vn 0.006524 0.999524 0.030157
vt 1.001174 -3.743973
v 9879.587891 -13.703644 -4259.969727
vn -0.010710 0.999942 0.001049
vt 1.001174 -3.243973
v 9882.548828 -13.511026 -4413.417480
vn 0.015473 0.999793 0.013247
vt 0.501174 -3.243973
v 9709.614258 -8.484038 -4389.943359
vn 0.031136 0.999397 0.015360
vt 0.501174 -3.743973
v 10042.262695 -14.121597 -4265.768066
vn -0.019070 0.999818 -0.000916
vt 1.001174 -2.745926
v 10047.486328 -18.778553 -4418.670410
vn -0.031849 0.999473 -0.006233
vt 0.501174 -2.745926
v 10065.414063 -15.262223 -4571.778320
vn 0.001138 0.999999 0.000385
vt 0.001174 -2.745926
v 9900.290039 -7.867556 -4566.812500
vn 0.009584 0.999237 0.037871
vt 0.001174 -3.243973
v 9726.431641 -13.324121 -4543.304688
vn -0.000833 0.999997 0.002440
vt 0.001174 -3.743973
v 10042.262695 -14.121597 -4265.768066
vn -0.019070 0.999818 -0.000916
vt 1.001174 -3.745926
v 10190.961914 -13.153195 -4233.612793
vn -0.000076 0.998288 0.058498
vt 1.001174 -3.251785
v 10196.391602 -4.149442 -4387.257813
vn 0.004215 0.999942 -0.009864
vt 0.501174 -3.251785
v 10047.486328 -18.778553 -4418.670410
vn -0.031849 0.999473 -0.006233
vt 0.501174 -3.745926
v 10333.262695 -13.284141 -4276.754883
vn 0.034790 0.999367 -0.007410
vt 1.001174 -2.758621
v 10337.679688 -19.998314 -4430.553711
vn 0.049898 0.998706 -0.009865
vt 0.501174 -2.758621
v 10353.891602 -17.416245 -4584.379395
vn 0.018364 0.999822 -0.004204
vt 0.001174 -2.758621
v 10213.677734 -16.694386 -4540.988281
vn 0.002580 0.996707 -0.081045
vt 0.001174 -3.251785
v 10065.414063 -15.262223 -4571.778320
vn 0.001138 0.999999 0.000385
vt 0.001174 -3.745926
v 10333.262695 -13.284141 -4276.754883
vn 0.034790 0.999367 -0.007410
vt 1.001174 -3.758621
v 10476.842773 -17.849102 -4279.391113
vn -0.012869 0.999904 -0.005092
vt 1.001174 -3.263504
v 10479.685547 -18.596542 -4433.339844
vn -0.009516 0.999951 -0.002717
vt 0.501174 -3.263504
v 10337.679688 -19.998314 -4430.553711
vn 0.049898 0.998706 -0.009865
vt 0.501174 -3.758621
v 10619.027344 -9.629574 -4272.162109
vn -0.001666 0.999665 -0.025846
vt 1.001174 -2.766436
v 10621.049805 -18.309128 -4422.740723
vn -0.008835 0.999860 -0.014191
vt 0.501174 -2.766434
v 10635.642578 -13.688421 -4574.220215
vn 0.001123 0.999878 0.015560
vt 0.001174 -2.766434
v 10494.750000 -14.989797 -4587.483887
vn -0.014036 0.999659 0.022019
vt 0.001174 -3.263504
v 10353.891602 -17.416245 -4584.379395
vn 0.018364 0.999822 -0.004204
vt 0.001174 -3.758621
v 10619.027344 -9.629574 -4272.162109
vn -0.001666 0.999665 -0.025846
vt 1.001174 -3.766436
v 10757.182617 -18.336479 -4253.248535
vn 0.016997 0.999711 0.017007
vt 1.001174 -3.267412
v 10760.408203 -15.764880 -4407.641602
vn 0.007253 0.999952 -0.006648
vt 0.501174 -3.267412
v 10621.049805 -18.309128 -4422.740723
vn -0.008835 0.999860 -0.014191
vt 0.501174 -3.766434
v 10892.666016 -14.644178 -4259.578125
vn -0.014690 0.999870 -0.006685
vt 1.001174 -2.767410
v 10897.473633 -17.955643 -4413.861328
vn -0.010458 0.999902 -0.009323
vt 0.501174 -2.767410
v 10914.358398 -17.297802 -4568.109863
vn -0.017532 0.999834 -0.004906
vt 0.001174 -2.767412
v 10776.004883 -19.291681 -4562.458496
vn 0.013024 0.999685 -0.021461
vt 0.001174 -3.267412
v 10635.642578 -13.688421 -4574.220215
vn 0.001123 0.999878 0.015560
vt 0.001174 -3.766434
f 3/3/3 2/2/2 5/5/5
f 2/2/2 3/3/3 1/1/1
f 4/4/4 1/1/1 3/3/3
f 5/5/5 6/6/6 3/3/3
f 7/7/7 3/3/3 6/6/6
f 3/3/3 9/9/9 4/4/4
f 9/9/9 3/3/3 8/8/8
f 7/7/7 8/8/8 3/3/3
f 12/12/12 11/11/11 14/14/14
f 11/11/11 12/12/12 10/10/10
f 13/13/13 10/10/10 12/12/12
f 14/14/14 15/15/15 12/12/12
f 16/16/16 12/12/12 15/15/15
f 12/12/12 18/18/18 13/13/13
f 18/18/18 12/12/12 17/17/17
f 16/16/16 17/17/17 12/12/12
f 21/21/21 20/20/20 23/23/23
f 20/20/20 21/21/21 19/19/19
f 22/22/22 19/19/19 21/21/21
f 23/23/23 24/24/24 21/21/21
f 25/25/25 21/21/21 24/24/24
f 21/21/21 27/27/27 22/22/22
f 27/27/27 21/21/21 26/26/26
f 25/25/25 26/26/26 21/21/21
f 30/30/30 29/29/29 32/32/32
f 29/29/29 30/30/30 28/28/28
f 31/31/31 28/28/28 30/30/30
f 32/32/32 33/33/33 30/30/30
f 34/34/34 30/30/30 33/33/33
f 30/30/30 36/36/36 31/31/31
f 36/36/36 30/30/30 35/35/35
f 34/34/34 35/35/35 30/30/30
f 39/39/39 38/38/38 41/41/41
f 38/38/38 39/39/39 37/37/37
f 40/40/40 37/37/37 39/39/39
f 41/41/41 42/42/42 39/39/39
f 43/43/43 39/39/39 42/42/42
f 39/39/39 45/45/45 40/40/40
f 45/45/45 39/39/39 44/44/44
f 43/43/43 44/44/44 39/39/39
f 48/48/48 47/47/47 50/50/50
f 47/47/47 48/48/48 46/46/46
f 49/49/49 46/46/46 48/48/48
f 50/50/50 51/51/51 48/48/48
f 52/52/52 48/48/48 51/51/51
f 48/48/48 54/54/54 49/49/49
f 54/54/54 48/48/48 53/53/53
f 52/52/52 53/53/53 48/48/48
f 57/57/57 56/56/56 59/59/59
f 56/56/56 57/57/57 55/55/55
f 58/58/58 55/55/55 57/57/57
f 59/59/59 60/60/60 57/57/57
f 61/61/61 57/57/57 60/60/60
f 57/57/57 63/63/63 58/58/58
f 63/63/63 57/57/57 62/62/62
f 61/61/61 62/62/62 57/57/57
f 66/66/66 65/65/65 68/68/68
f 65/65/65 66/66/66 64/64/64
f 67/67/67 64/64/64 66/66/66
f 68/68/68 69/69/69 66/66/66
f 70/70/70 66/66/66 69/69/69
f 66/66/66 72/72/72 67/67/67
f 72/72/72 66/66/66 71/71/71
f 70/70/70 71/71/71 66/66/66
usemtl Material_#125
v 9711.320313 -16.563305 -4235.145996
vn 0.006753 0.999516 0.030376
vt 2.788659 -3.405991
v 9880.722656 -12.470266 -4261.043945
vn -0.010701 0.999942 0.001131
vt 2.704246 -2.927258
v 9882.526367 -12.277649 -4414.229980
vn 0.015493 0.999791 0.013327
vt 3.196650 -2.840435
v 9709.445313 -7.250659 -4389.512695
vn 0.031240 0.999392 0.015500
vt 3.281063 -3.319168
v 10043.115234 -12.888219 -4265.062988
vn -0.019039 0.999819 -0.000777
vt 2.620162 -3.450394
v 10047.291992 -17.545179 -4417.998535
vn -0.031893 0.999472 -0.006231
vt 3.112566 -3.363571
v 9882.526367 -12.277649 -4414.229980
vn 0.015493 0.999791 0.013327
vt 3.196650 -3.840435
v 9880.722656 -12.470266 -4261.043945
vn -0.010701 0.999942 0.001131
vt 2.704246 -3.927258
v 10066.079102 -14.028846 -4571.177246
vn 0.000934 1.000000 0.000379
vt 3.604970 -3.276749
v 9900.615234 -6.634178 -4567.173340
vn 0.009511 0.999233 0.037996
vt 3.689054 -3.753609
v 9726.500977 -12.090744 -4542.937500
vn -0.000851 0.999997 0.002484
vt 3.773467 -3.232342
v 9900.615234 -6.634178 -4567.173340
vn 0.009511 0.999233 0.037996
vt 3.689054 -2.753609
v 10191.699219 -11.919814 -4233.448730
vn -0.000062 0.998287 0.058511
vt 2.536738 -2.977272
v 10196.056641 -2.916067 -4387.061035
vn 0.004190 0.999943 -0.009806
vt 3.029141 -2.890450
v 10334.022461 -12.050762 -4276.358887
vn 0.034631 0.999371 -0.007672
vt 2.453478 -3.505087
v 10337.341797 -18.764936 -4430.033203
vn 0.049871 0.998708 -0.009806
vt 2.945882 -3.418262
v 10196.056641 -2.916067 -4387.061035
vn 0.004190 0.999943 -0.009806
vt 3.029141 -3.890450
v 10191.699219 -11.919814 -4233.448730
vn -0.000062 0.998287 0.058511
vt 2.536738 -3.977272
v 10354.780273 -16.182867 -4583.778809
vn 0.018540 0.999820 -0.003994
vt 3.438286 -3.331440
v 10214.540039 -15.461008 -4540.873535
vn 0.002547 0.996712 -0.080986
vt 3.521545 -3.803627
v 10214.540039 -15.461008 -4540.873535
vn 0.002547 0.996712 -0.080986
vt 3.521545 -2.803627
v 10334.022461 -12.050762 -4276.358887
vn 0.034631 0.999371 -0.007672
vt 3.453478 -3.505087
v 10477.592773 -16.615730 -4280.070801
vn -0.012934 0.999904 -0.005010
vt 3.369889 -3.031029
v 10479.405273 -17.363167 -4433.916992
vn -0.009503 0.999951 -0.002773
vt 3.862293 -2.944204
v 10337.341797 -18.764936 -4430.033203
vn 0.049871 0.998708 -0.009806
vt 3.945882 -3.418262
v 10619.611328 -8.396196 -4273.027832
vn -0.001613 0.999663 -0.025921
vt 3.285971 -3.555101
v 10620.777344 -17.075750 -4422.883301
vn -0.008809 0.999856 -0.014491
vt 3.778375 -3.468277
v 10479.405273 -17.363167 -4433.916992
vn -0.009503 0.999951 -0.002773
vt 3.862293 -3.944204
v 10619.611328 -8.396196 -4273.027832
vn -0.001613 0.999663 -0.025921
vt 3.285971 -2.555101
v 10636.251953 -12.455045 -4575.803711
vn 0.001212 0.999880 0.015468
vt 3.270778 -3.381454
v 10495.511719 -13.756419 -4587.488770
vn -0.013879 0.999661 0.022022
vt 3.354697 -3.857382
v 10479.405273 -17.363167 -4433.916992
vn -0.009503 0.999951 -0.002773
vt 2.862293 -3.944204
v 10620.777344 -17.075750 -4422.883301
vn -0.008809 0.999856 -0.014491
vt 2.778375 -3.468277
v 10479.405273 -17.363167 -4433.916992
vn -0.009503 0.999951 -0.002773
vt 2.862293 -2.944204
v 10495.511719 -13.756419 -4587.488770
vn -0.013879 0.999661 0.022022
vt 3.354697 -2.857382
v 10757.291016 -17.103102 -4253.904297
vn 0.016969 0.999712 0.016974
vt 3.201722 -3.077301
v 10759.975586 -14.531503 -4408.046387
vn 0.007303 0.999951 -0.006683
vt 3.694126 -2.990479
v 10892.346680 -13.410801 -4258.710449
vn -0.014845 0.999868 -0.006627
vt 3.117309 -3.598568
v 10896.801758 -16.722265 -4413.199707
vn -0.010561 0.999901 -0.009343
vt 3.609712 -3.511745
v 10759.975586 -14.531503 -4408.046387
vn 0.007303 0.999951 -0.006683
vt 3.694126 -3.990479
v 10892.346680 -13.410801 -4258.710449
vn -0.014845 0.999868 -0.006627
vt 3.117309 -2.598568
v 10914.890625 -16.064425 -4567.666016
vn -0.017507 0.999834 -0.005036
vt 3.102116 -3.424919
v 10776.550781 -18.058304 -4563.100586
vn 0.013176 0.999686 -0.021330
vt 3.186529 -3.903654
v 10759.975586 -14.531503 -4408.046387
vn 0.007303 0.999951 -0.006683
vt 2.694126 -3.990479
v 10896.801758 -16.722265 -4413.199707
vn -0.010561 0.999901 -0.009343
vt 2.609712 -3.511745
v 10759.975586 -14.531503 -4408.046387
vn 0.007303 0.999951 -0.006683
vt 2.694126 -2.990479
v 10776.550781 -18.058304 -4563.100586
vn 0.013176 0.999686 -0.021330
vt 3.186529 -2.903654
f 110/110/110 111/111/111 112/112/112
f 77/77/77 79/79/79 80/80/80
f 79/79/79 77/77/77 78/78/78
f 86/86/86 78/78/78 77/77/77
f 78/78/78 86/86/86 81/81/81
f 93/93/93 81/81/81 86/86/86
f 79/79/79 81/81/81 82/82/82
f 81/81/81 79/79/79 78/78/78
f 77/77/77 85/85/85 86/86/86
f 91/91/91 106/106/106 107/107/107
f 106/106/106 91/91/91 88/88/88
f 89/89/89 88/88/88 91/91/91
f 88/88/88 89/89/89 87/87/87
f 90/90/90 87/87/87 89/89/89
f 91/91/91 92/92/92 89/89/89
f 109/109/109 108/108/108 113/113/113
f 108/108/108 109/109/109 98/98/98
f 99/99/99 98/98/98 109/109/109
f 98/98/98 99/99/99 100/100/100
f 84/84/84 83/83/83 75/75/75
f 76/76/76 75/75/75 83/83/83
f 75/75/75 76/76/76 73/73/73
f 73/73/73 74/74/74 75/75/75
f 96/96/96 95/95/95 101/101/101
f 95/95/95 96/96/96 94/94/94
f 97/97/97 94/94/94 96/96/96
f 104/104/104 102/102/102 103/103/103
f 102/102/102 104/104/104 105/105/105
f 118/118/118 102/102/102 105/105/105
f 102/102/102 118/118/118 119/119/119
f 114/114/114 116/116/116 117/117/117
f 116/116/116 114/114/114 115/115/115
