mtllib LONE_MOUNTAIN_WATERFALLS_MAIN_WATERFALL_BILLOWS02.mtl
g rfall_billows02
usemtl Material_#124
v 12178.291016 -26.609074 -6583.384766
vn -0.510069 0.655371 -0.557063
vt 0.000874 -1.985773
v 12167.537109 -26.657244 -6805.208984
vn -0.870715 0.444918 -0.209529
vt 0.000803 -1.491821
v 11979.193359 -26.862469 -6842.976074
vn -0.756861 0.523398 -0.391428
vt 0.500803 -1.491822
v 11967.113281 -26.765108 -6614.402344
vn -0.594374 0.466594 -0.654988
vt 0.500875 -1.985770
v 12174.737305 -26.725294 -7030.830566
vn -0.845331 0.492154 -0.207847
vt 0.000803 -0.998657
v 11964.729492 -26.964005 -7051.920410
vn -0.870770 0.489403 -0.047379
vt 0.500803 -0.998657
v 11761.939453 -27.117205 -7046.576172
vn -0.808571 0.503735 -0.304080
vt 1.000803 -0.998658
v 11765.445313 -26.941679 -6829.235840
vn -0.496564 0.659770 -0.564028
vt 1.000803 -1.491822
v 11756.910156 -26.922585 -6621.604492
vn -0.708370 0.517364 -0.480153
vt 1.000876 -1.985767
v 12146.828125 -26.836117 -7236.472168
vn -0.402975 0.608309 -0.683792
vt 0.000803 -0.503540
v 11946.821289 -26.916834 -7253.793945
vn -0.822460 0.522238 -0.225447
vt 0.500803 -0.503540
v 12167.097656 -26.981361 -7452.598145
vn -0.190925 0.605372 -0.772705
vt 0.000803 -0.006470
v 11965.424805 -26.995615 -7467.138184
vn -0.548566 0.510155 -0.662433
vt 0.500803 -0.006470
v 11752.016602 -27.218693 -7444.913574
vn -0.829460 0.376310 -0.412780
vt 1.000803 -0.006470
v 11748.702148 -27.205278 -7243.112305
vn -0.931147 0.336964 -0.139358
vt 1.000803 -0.503541
v 12161.528320 -27.117693 -7649.749023
vn -0.393317 0.709313 -0.584958
vt 0.000803 0.492554
v 11968.648438 -27.178946 -7659.897949
vn -0.648046 0.616060 -0.447780
vt 0.500803 0.492553
v 12165.303711 -27.153225 -7840.334473
vn -0.321587 0.833039 -0.450143
vt 0.000803 0.992554
v 11954.683594 -27.159286 -7859.539551
vn -0.583004 0.719618 -0.377169
vt 0.500803 0.992554
v 11745.443359 -27.333506 -7838.196289
vn -0.749880 0.623691 -0.220659
vt 1.000803 0.992554
v 11762.473633 -27.368114 -7643.291504
vn -0.843701 0.476934 -0.246380
vt 1.000803 0.492553
v 12178.680664 -26.595625 -6583.200684
vn -0.512292 0.658152 -0.551718
vt 1.000073 -3.937668
v 12163.956055 -26.642363 -6805.669434
vn -0.873116 0.441047 -0.207718
vt 1.000000 -3.443722
v 11977.468750 -26.847435 -6841.574219
vn -0.758838 0.523178 -0.387878
vt 0.500000 -3.443722
v 11969.391602 -26.750086 -6614.801758
vn -0.593087 0.468904 -0.654505
vt 0.500072 -3.937670
v 12176.272461 -26.710754 -7030.168457
vn -0.843392 0.493370 -0.212781
vt 1.000000 -2.950558
v 11965.184570 -26.949055 -7054.801270
vn -0.870196 0.490743 -0.043940
vt 0.500000 -2.950558
v 11762.315430 -27.102604 -7048.733887
vn -0.811481 0.503348 -0.296882
vt 0.000000 -2.950558
v 11764.807617 -26.927458 -6827.192383
vn -0.505203 0.660047 -0.555974
vt 0.000000 -3.443722
v 11757.225586 -26.908026 -6622.560059
vn -0.708811 0.517813 -0.479017
vt 0.000071 -3.937673
v 12176.272461 -26.710754 -7030.168457
vn -0.843392 0.493370 -0.212781
vt 1.000000 -3.950558
v 12146.622070 -26.821373 -7235.071289
vn -0.393187 0.611556 -0.686588
vt 1.000000 -3.455441
v 11945.896484 -26.901817 -7255.026367
vn -0.822300 0.523980 -0.221963
vt 0.500000 -3.455441
v 11965.184570 -26.949055 -7054.801270
vn -0.870196 0.490743 -0.043940
vt 0.500000 -3.950558
v 12166.229492 -26.966051 -7449.892578
vn -0.182184 0.607419 -0.773208
vt 1.000000 -2.958370
v 11964.904297 -26.981073 -7468.006836
vn -0.543922 0.512040 -0.664804
vt 0.500000 -2.958370
v 11749.333008 -27.203957 -7443.935547
vn -0.829811 0.375706 -0.412623
vt 0.000000 -2.958370
v 11748.095703 -27.190746 -7244.362793
vn -0.932341 0.336428 -0.132499
vt 0.000000 -3.455441
v 11762.315430 -27.102604 -7048.733887
vn -0.811481 0.503348 -0.296882
vt 0.000000 -3.950558
v 12166.229492 -26.966051 -7449.892578
vn -0.182184 0.607419 -0.773208
vt 1.000000 -3.958370
v 12158.475586 -27.103340 -7649.418457
vn -0.388518 0.711705 -0.585260
vt 1.000000 -3.459347
v 11967.977539 -27.163307 -7660.251953
vn -0.647503 0.615981 -0.448672
vt 0.500000 -3.459347
v 11964.904297 -26.981073 -7468.006836
vn -0.543922 0.512040 -0.664804
vt 0.500000 -3.958370
v 12164.770508 -27.138784 -7839.773926
vn -0.316947 0.834011 -0.451631
vt 1.000000 -2.959347
v 11955.205078 -27.144072 -7856.790527
vn -0.580219 0.722177 -0.376572
vt 0.500000 -2.959347
v 11745.418945 -27.318241 -7838.732910
vn -0.747758 0.626632 -0.219524
vt 0.000000 -2.959347
v 11763.281250 -27.353558 -7642.730469
vn -0.846208 0.471452 -0.248323
vt 0.000000 -3.459347
v 11749.333008 -27.203957 -7443.935547
vn -0.829811 0.375706 -0.412623
vt 0.000000 -3.958370
f 3/3/3 4/4/4 1/1/1
f 4/4/4 3/3/3 9/9/9
f 8/8/8 9/9/9 3/3/3
f 3/3/3 7/7/7 8/8/8
f 7/7/7 3/3/3 6/6/6
f 1/1/1 2/2/2 3/3/3
f 5/5/5 3/3/3 2/2/2
f 3/3/3 5/5/5 6/6/6
f 11/11/11 6/6/6 5/5/5
f 6/6/6 11/11/11 7/7/7
f 15/15/15 7/7/7 11/11/11
f 11/11/11 14/14/14 15/15/15
f 14/14/14 11/11/11 13/13/13
f 21/21/21 14/14/14 17/17/17
f 13/13/13 17/17/17 14/14/14
f 17/17/17 13/13/13 12/12/12
f 11/11/11 12/12/12 13/13/13
f 12/12/12 11/11/11 10/10/10
f 5/5/5 10/10/10 11/11/11
f 17/17/17 16/16/16 18/18/18
f 16/16/16 17/17/17 12/12/12
f 17/17/17 20/20/20 21/21/21
f 20/20/20 17/17/17 19/19/19
f 18/18/18 19/19/19 17/17/17
f 24/24/24 25/25/25 22/22/22
f 25/25/25 24/24/24 30/30/30
f 29/29/29 30/30/30 24/24/24
f 22/22/22 23/23/23 24/24/24
f 26/26/26 24/24/24 23/23/23
f 24/24/24 28/28/28 29/29/29
f 28/28/28 24/24/24 27/27/27
f 26/26/26 27/27/27 24/24/24
f 33/33/33 32/32/32 35/35/35
f 32/32/32 33/33/33 31/31/31
f 34/34/34 31/31/31 33/33/33
f 35/35/35 36/36/36 33/33/33
f 37/37/37 33/33/33 36/36/36
f 33/33/33 39/39/39 34/34/34
f 39/39/39 33/33/33 38/38/38
f 37/37/37 38/38/38 33/33/33
f 42/42/42 41/41/41 44/44/44
f 41/41/41 42/42/42 40/40/40
f 43/43/43 40/40/40 42/42/42
f 44/44/44 45/45/45 42/42/42
f 46/46/46 42/42/42 45/45/45
f 42/42/42 48/48/48 43/43/43
f 48/48/48 42/42/42 47/47/47
f 46/46/46 47/47/47 42/42/42
usemtl Material_#125
v 12178.136719 -26.580608 -6580.760254
vn -0.505843 0.666219 -0.547973
vt 1.766749 -3.610563
v 12160.908203 -26.625723 -6804.912109
vn -0.874011 0.440412 -0.205283
vt 1.683221 -3.137491
v 11974.501953 -26.830601 -6838.804199
vn -0.759552 0.523385 -0.386199
vt 2.175624 -3.050668
v 11970.813477 -26.733263 -6615.854492
vn -0.591252 0.472630 -0.653485
vt 2.259156 -3.523737
v 12175.793945 -26.694479 -7028.198730
vn -0.842980 0.493534 -0.214028
vt 1.599961 -2.665304
v 11965.622070 -26.932314 -7058.578125
vn -0.870964 0.489634 -0.040984
vt 2.092365 -2.578481
v 11763.022461 -27.086248 -7049.192871
vn -0.814162 0.501061 -0.293390
vt 2.584769 -2.491657
v 11764.163086 -26.911501 -6826.724609
vn -0.508940 0.658917 -0.553903
vt 2.668028 -2.963844
v 11757.814453 -26.891689 -6623.732422
vn -0.710744 0.517867 -0.476084
vt 2.751563 -3.436913
v 12175.793945 -26.694479 -7028.198730
vn -0.842980 0.493534 -0.214028
vt 1.599961 -3.665304
v 12144.315430 -26.804874 -7233.975098
vn -0.381964 0.613575 -0.691107
vt 1.516372 -3.191247
v 11945.133789 -26.885004 -7257.827148
vn -0.823323 0.523445 -0.219418
vt 2.008776 -3.104424
v 11965.622070 -26.932314 -7058.578125
vn -0.870964 0.489634 -0.040984
vt 2.092365 -3.578481
v 12165.362305 -26.948929 -7445.467285
vn -0.170204 0.608986 -0.774704
vt 1.432453 -2.715319
v 11963.988281 -26.964792 -7467.203613
vn -0.539268 0.515870 -0.665634
vt 1.924857 -2.628496
v 11747.451172 -27.187426 -7444.261719
vn -0.832012 0.374047 -0.409689
vt 2.417261 -2.541672
v 11749.406250 -27.174467 -7246.622559
vn -0.934718 0.333163 -0.123710
vt 2.501180 -3.017599
v 11763.022461 -27.086248 -7049.192871
vn -0.814162 0.501061 -0.293390
vt 2.584769 -3.491657
v 12165.362305 -26.948929 -7445.467285
vn -0.170204 0.608986 -0.774704
vt 1.432453 -3.715319
v 12155.943359 -27.087275 -7647.840820
vn -0.375300 0.717264 -0.587096
vt 1.348204 -3.237521
v 11965.759766 -27.145821 -7660.931641
vn -0.647171 0.616497 -0.448443
vt 1.840608 -3.150698
v 11963.988281 -26.964792 -7467.203613
vn -0.539268 0.515870 -0.665634
vt 1.924857 -3.628496
v 12163.962891 -27.122602 -7838.102051
vn -0.311327 0.835929 -0.451993
vt 1.263791 -2.758789
v 11956.958008 -27.127028 -7854.452637
vn -0.572575 0.725322 -0.382185
vt 1.756195 -2.671965
v 11744.674805 -27.301144 -7837.968262
vn -0.745145 0.629398 -0.220495
vt 2.248599 -2.585140
v 11764.670898 -27.337255 -7640.855957
vn -0.851424 0.461130 -0.249871
vt 2.333012 -3.063873
v 11747.451172 -27.187426 -7444.261719
vn -0.832012 0.374047 -0.409689
vt 2.417261 -3.541672
f 51/51/51 50/50/50 53/53/53
f 50/50/50 51/51/51 49/49/49
f 52/52/52 49/49/49 51/51/51
f 53/53/53 54/54/54 51/51/51
f 55/55/55 51/51/51 54/54/54
f 51/51/51 57/57/57 52/52/52
f 57/57/57 51/51/51 56/56/56
f 55/55/55 56/56/56 51/51/51
f 60/60/60 59/59/59 62/62/62
f 59/59/59 60/60/60 58/58/58
f 61/61/61 58/58/58 60/60/60
f 62/62/62 63/63/63 60/60/60
f 64/64/64 60/60/60 63/63/63
f 60/60/60 66/66/66 61/61/61
f 66/66/66 60/60/60 65/65/65
f 64/64/64 65/65/65 60/60/60
f 69/69/69 68/68/68 71/71/71
f 68/68/68 69/69/69 67/67/67
f 70/70/70 67/67/67 69/69/69
f 71/71/71 72/72/72 69/69/69
f 73/73/73 69/69/69 72/72/72
f 69/69/69 75/75/75 70/70/70
f 75/75/75 69/69/69 74/74/74
f 73/73/73 74/74/74 69/69/69
