mtllib LONE_MOUNTAIN_WATERFALLS_MAIN_WATER_CENTER02.mtl
g _water_center02
usemtl Material_#124
v 17392.734375 -16.833059 -4744.289063
vn -0.009773 0.999916 0.008505
vt -0.006317 2.951769
v 17655.142578 -23.553549 -4740.104980
vn 0.001269 0.999065 0.043218
vt -0.006317 3.447488
v 17636.142578 -11.989160 -5006.879883
vn -0.004027 0.999970 -0.006681
vt 0.493683 3.447780
v 17373.451172 -18.954119 -5012.500488
vn -0.019136 0.999281 -0.032727
vt 0.493683 2.951842
v 17914.578125 -16.830385 -4760.333496
vn 0.002167 0.999992 -0.003466
vt -0.006317 3.943867
v 17895.869141 -23.459620 -5029.270996
vn 0.014905 0.999886 -0.002320
vt 0.493683 3.944304
v 17871.126953 -17.414894 -5298.668457
vn 0.007130 0.999974 -0.000477
vt 0.993683 3.944742
v 17612.046875 -21.705156 -5274.661133
vn -0.035277 0.998830 -0.033066
vt 0.993683 3.448071
v 17350.033203 -35.236755 -5280.848145
vn 0.006026 0.999730 -0.022435
vt 0.993683 2.951915
v 17914.578125 -16.830385 -4760.333496
vn 0.002167 0.999992 -0.003466
vt -0.006317 2.943867
v 18183.972656 -17.737764 -4760.612305
vn 0.007420 0.999942 -0.007844
vt -0.006317 3.438425
v 18164.816406 -19.715021 -5030.800781
vn -0.010978 0.999935 -0.003028
vt 0.493683 3.438716
v 17895.869141 -23.459620 -5029.270996
vn 0.014905 0.999886 -0.002320
vt 0.493683 2.944304
v 18461.335938 -20.749498 -4739.361816
vn -0.005812 0.999652 0.025722
vt -0.006317 3.932648
v 18442.238281 -7.764850 -5008.839844
vn -0.010768 0.999941 0.001507
vt 0.493683 3.932720
v 18417.845703 -20.410778 -5278.628418
vn -0.011737 0.999636 -0.024274
vt 0.993683 3.932793
v 18139.773438 -21.822330 -5300.245605
vn 0.005924 0.999947 -0.008371
vt 0.993683 3.439008
v 17871.126953 -17.414894 -5298.668457
vn 0.007130 0.999974 -0.000477
vt 0.993683 2.944742
v 18417.845703 -20.410778 -5278.628418
vn -0.011737 0.999636 -0.024274
vt 0.993683 2.932793
v 18442.238281 -7.764850 -5008.839844
vn -0.010768 0.999941 0.001507
vt 0.493683 2.932720
v 18726.626953 -13.989133 -5021.166016
vn 0.030502 0.999520 0.005404
vt 0.493683 3.428020
v 18702.898438 -13.943308 -5290.185547
vn -0.000936 1.000000 0.000253
vt 0.993683 3.428020
v 18461.335938 -20.749498 -4739.361816
vn -0.005812 0.999652 0.025722
vt -0.006317 2.932648
v 18744.494141 -17.312063 -4752.255371
vn 0.015932 0.999809 0.011296
vt -0.006317 3.428020
v 19029.183594 -29.236023 -4798.895508
vn 0.060581 0.998065 -0.014000
vt -0.006317 3.923967
v 19014.410156 -38.093555 -5065.191895
vn 0.085154 0.996306 0.011142
vt 0.493683 3.923967
v 18991.367188 -19.990221 -5330.903809
vn 0.056618 0.997973 0.029057
vt 0.993683 3.923967
v 17391.429688 -15.731884 -4744.629395
vn -0.009803 0.999916 0.008449
vt 1.000000 2.952427
v 17653.666016 -22.452616 -4739.359375
vn 0.001177 0.999062 0.043282
vt 1.000000 3.448146
v 17636.873047 -10.887495 -5005.857910
vn -0.004032 0.999970 -0.006656
vt 0.500000 3.448438
v 17374.080078 -17.852741 -5012.260742
vn -0.019130 0.999277 -0.032865
vt 0.500000 2.952500
v 17912.996094 -15.729008 -4759.571777
vn 0.002238 0.999992 -0.003400
vt 1.000000 3.944524
v 17896.970703 -22.358707 -5029.085938
vn 0.014890 0.999887 -0.002221
vt 0.500000 3.944962
v 17872.396484 -16.313572 -5298.617188
vn 0.007057 0.999975 -0.000496
vt 0.000000 3.945400
v 17612.613281 -20.603619 -5273.051270
vn -0.035260 0.998829 -0.033119
vt 0.000000 3.448730
v 17349.994141 -34.135635 -5279.856445
vn 0.006097 0.999727 -0.022568
vt 0.000000 2.952573
v 17912.996094 -15.729008 -4759.571777
vn 0.002238 0.999992 -0.003400
vt 1.000000 2.944524
v 18182.519531 -16.636847 -4757.094727
vn 0.007403 0.999942 -0.007766
vt 1.000000 3.439082
v 18166.326172 -18.613827 -5027.091309
vn -0.010948 0.999935 -0.003060
vt 0.500000 3.439374
v 17896.970703 -22.358707 -5029.085938
vn 0.014890 0.999887 -0.002221
vt 0.500000 2.944962
v 18459.939453 -19.648024 -4739.219238
vn -0.005645 0.999654 0.025684
vt 1.000000 3.933305
v 18443.917969 -6.663177 -5008.222168
vn -0.010733 0.999941 0.001468
vt 0.500000 3.933378
v 18417.773438 -19.309456 -5277.395508
vn -0.011908 0.999635 -0.024238
vt 0.000000 3.933451
v 18140.560547 -20.721008 -5296.636230
vn 0.005962 0.999947 -0.008387
vt 0.000000 3.439666
v 17872.396484 -16.313572 -5298.617188
vn 0.007057 0.999975 -0.000496
vt 0.000000 2.945400
v 18417.773438 -19.309456 -5277.395508
vn -0.011908 0.999635 -0.024238
vt 0.000000 2.933451
v 18443.917969 -6.663177 -5008.222168
vn -0.010733 0.999941 0.001468
vt 0.500000 2.933378
v 18728.429688 -12.887811 -5021.376953
vn 0.030493 0.999520 0.005535
vt 0.500000 3.428678
v 18702.976563 -12.841986 -5290.311035
vn -0.000953 1.000000 0.000261
vt 0.000000 3.428678
v 18459.939453 -19.648024 -4739.219238
vn -0.005645 0.999654 0.025684
vt 1.000000 2.933305
v 18742.892578 -16.209852 -4752.585449
vn 0.015955 0.999807 0.011498
vt 1.000000 3.428678
v 19027.541016 -28.134701 -4797.613770
vn 0.060760 0.998065 -0.013213
vt 1.000000 3.924625
v 19016.279297 -36.992233 -5064.008789
vn 0.085118 0.996306 0.011392
vt 0.500000 3.924625
v 18992.119141 -18.888899 -5330.505859
vn 0.056394 0.997995 0.028730
vt 0.000000 3.924625
f 3/3/3 2/2/2 5/5/5
f 2/2/2 3/3/3 1/1/1
f 4/4/4 1/1/1 3/3/3
f 5/5/5 6/6/6 3/3/3
f 7/7/7 3/3/3 6/6/6
f 3/3/3 9/9/9 4/4/4
f 9/9/9 3/3/3 8/8/8
f 7/7/7 8/8/8 3/3/3
f 12/12/12 11/11/11 14/14/14
f 11/11/11 12/12/12 10/10/10
f 13/13/13 10/10/10 12/12/12
f 14/14/14 15/15/15 12/12/12
f 16/16/16 12/12/12 15/15/15
f 12/12/12 18/18/18 13/13/13
f 18/18/18 12/12/12 17/17/17
f 16/16/16 17/17/17 12/12/12
f 21/21/21 20/20/20 23/23/23
f 20/20/20 21/21/21 19/19/19
f 22/22/22 19/19/19 21/21/21
f 23/23/23 24/24/24 21/21/21
f 25/25/25 21/21/21 24/24/24
f 21/21/21 27/27/27 22/22/22
f 27/27/27 21/21/21 26/26/26
f 25/25/25 26/26/26 21/21/21
f 30/30/30 29/29/29 32/32/32
f 29/29/29 30/30/30 28/28/28
f 31/31/31 28/28/28 30/30/30
f 32/32/32 33/33/33 30/30/30
f 34/34/34 30/30/30 33/33/33
f 30/30/30 36/36/36 31/31/31
f 36/36/36 30/30/30 35/35/35
f 34/34/34 35/35/35 30/30/30
f 39/39/39 38/38/38 41/41/41
f 38/38/38 39/39/39 37/37/37
f 40/40/40 37/37/37 39/39/39
f 41/41/41 42/42/42 39/39/39
f 43/43/43 39/39/39 42/42/42
f 39/39/39 45/45/45 40/40/40
f 45/45/45 39/39/39 44/44/44
f 43/43/43 44/44/44 39/39/39
f 48/48/48 47/47/47 50/50/50
f 47/47/47 48/48/48 46/46/46
f 49/49/49 46/46/46 48/48/48
f 50/50/50 51/51/51 48/48/48
f 52/52/52 48/48/48 51/51/51
f 48/48/48 54/54/54 49/49/49
f 54/54/54 48/48/48 53/53/53
f 52/52/52 53/53/53 48/48/48
usemtl Material_#125
v 17392.298828 -14.498405 -4746.162598
vn -0.009796 0.999916 0.008496
vt -0.578411 2.688855
v 17654.691406 -21.219137 -4740.674316
vn 0.001067 0.999060 0.043336
vt -0.662101 3.163488
v 17637.710938 -9.654016 -5006.875488
vn -0.004032 0.999969 -0.006701
vt -0.169747 3.250592
v 17374.218750 -16.619263 -5013.764160
vn -0.019084 0.999277 -0.032889
vt -0.086019 2.775749
v 17914.099609 -14.495529 -4759.829102
vn 0.002260 0.999992 -0.003377
vt -0.745903 3.638754
v 17898.591797 -21.125229 -5029.240723
vn 0.014838 0.999888 -0.002203
vt -0.253573 3.725997
v 17873.171875 -15.080092 -5298.067871
vn 0.006973 0.999976 -0.000547
vt 0.238757 3.813241
v 17613.773438 -19.370140 -5272.915039
vn -0.035163 0.998826 -0.033315
vt 0.322608 3.337696
v 17351.195313 -32.902157 -5281.276367
vn 0.006179 0.999726 -0.022570
vt 0.406373 2.862643
v 17914.099609 -14.495529 -4759.829102
vn 0.002260 0.999992 -0.003377
vt -0.745903 2.638754
v 18183.572266 -15.403370 -4755.303223
vn 0.007396 0.999943 -0.007758
vt -0.829398 3.112276
v 18168.199219 -17.380348 -5024.780273
vn -0.010935 0.999936 -0.003050
vt -0.337044 3.199380
v 17898.591797 -21.125229 -5029.240723
vn 0.014838 0.999888 -0.002203
vt -0.253573 2.725997
v 18460.900391 -18.414545 -4740.028320
vn -0.005544 0.999655 0.025672
vt -0.912836 3.585477
v 18445.863281 -5.429874 -5008.795898
vn -0.010714 0.999942 0.001467
vt -0.420445 3.672371
v 18418.285156 -18.075977 -5277.578125
vn -0.012029 0.999635 -0.024196
vt 0.071947 3.759265
v 18141.376953 -19.487530 -5294.114258
vn 0.005956 0.999947 -0.008416
vt 0.155311 3.286483
v 17873.171875 -15.080092 -5298.067871
vn 0.006973 0.999976 -0.000547
vt 0.238757 2.813241
v 18418.285156 -18.075977 -5277.578125
vn -0.012029 0.999635 -0.024196
vt 0.071947 2.759265
v 18445.863281 -5.429874 -5008.795898
vn -0.010714 0.999942 0.001467
vt -0.420445 2.672371
v 18730.523438 -11.654332 -5021.682129
vn 0.030452 0.999521 0.005511
vt -0.504065 3.146604
v 18703.564453 -11.608507 -5290.588867
vn -0.000963 1.000000 0.000267
vt -0.011661 3.233427
v 18460.900391 -18.414545 -4740.028320
vn -0.005544 0.999655 0.025672
vt -0.912836 2.585477
v 18744.001953 -14.976375 -4752.835938
vn 0.015923 0.999806 0.011556
vt -0.996468 3.059779
v 19028.640625 -26.901222 -4795.874023
vn 0.060806 0.998066 -0.012887
vt -1.080198 3.534631
v 19018.562500 -35.758755 -5063.392090
vn 0.085006 0.996317 0.011256
vt -0.587794 3.621455
v 18992.904297 -17.655420 -5331.194336
vn 0.056199 0.998019 0.028291
vt -0.095390 3.708280
f 57/57/57 56/56/56 59/59/59
f 56/56/56 57/57/57 55/55/55
f 58/58/58 55/55/55 57/57/57
f 59/59/59 60/60/60 57/57/57
f 61/61/61 57/57/57 60/60/60
f 57/57/57 63/63/63 58/58/58
f 63/63/63 57/57/57 62/62/62
f 61/61/61 62/62/62 57/57/57
f 66/66/66 65/65/65 68/68/68
f 65/65/65 66/66/66 64/64/64
f 67/67/67 64/64/64 66/66/66
f 68/68/68 69/69/69 66/66/66
f 70/70/70 66/66/66 69/69/69
f 66/66/66 72/72/72 67/67/67
f 72/72/72 66/66/66 71/71/71
f 70/70/70 71/71/71 66/66/66
f 75/75/75 74/74/74 77/77/77
f 74/74/74 75/75/75 73/73/73
f 76/76/76 73/73/73 75/75/75
f 77/77/77 78/78/78 75/75/75
f 79/79/79 75/75/75 78/78/78
f 75/75/75 81/81/81 76/76/76
f 81/81/81 75/75/75 80/80/80
f 79/79/79 80/80/80 75/75/75
