mtllib LONE_MOUNTAIN_WATERFALLS_ARKENSTONE_WATERWAY03.mtl
g tone_waterway03
usemtl Material_#124
v 16006.684570 -34.218086 1402.474854
vn -0.007446 0.999843 0.016099
vt -0.022750 -3.979269
v 16116.411133 -41.021893 1385.829346
vn 0.020333 0.998569 -0.049465
vt -0.023033 -3.480026
v 16099.154297 -48.186592 1234.100220
vn 0.009374 0.999647 -0.024848
vt 0.476971 -3.480014
v 15952.416992 -36.763443 1226.377808
vn 0.029053 0.999100 -0.030895
vt 0.477258 -3.979246
v 16245.946289 -38.356747 1406.917603
vn 0.031940 0.999418 -0.011945
vt -0.023245 -2.982547
v 16257.649414 -38.177902 1230.457275
vn 0.021871 0.999697 -0.011267
vt 0.476756 -2.982544
v 16212.239258 -41.143860 1076.166992
vn -0.002388 0.999753 0.022105
vt 0.976757 -2.982541
v 16030.723633 -48.641384 1055.742676
vn 0.000272 0.999996 -0.002654
vt 0.976975 -3.480003
v 15893.509766 -43.772068 999.092407
vn 0.053805 0.998049 -0.031667
vt 0.977266 -3.979224
v 16408.042969 -53.745117 1379.840576
vn 0.015711 0.999774 -0.014343
vt -0.023316 -2.488595
v 16423.744141 -56.433964 1209.619629
vn 0.014388 0.999598 0.024414
vt 0.476684 -2.488595
v 16599.480469 -41.617367 1390.651978
vn -0.016900 0.999746 0.014895
vt -0.023316 -1.995431
v 16601.972656 -44.573135 1230.413086
vn -0.050366 0.998701 0.007768
vt 0.476684 -1.995431
v 16565.445313 -40.652580 1065.223877
vn -0.028340 0.998185 0.053145
vt 0.976684 -1.995431
v 16387.841797 -37.617203 1057.392212
vn 0.002515 0.992516 0.122091
vt 0.976684 -2.488595
v 16799.000000 -59.519566 1378.221436
vn 0.003257 0.992887 0.119014
vt -0.023316 -1.500314
v 16800.521484 -37.799171 1196.974365
vn -0.003190 0.999296 0.037378
vt 0.476684 -1.500314
v 16999.566406 -41.448025 1379.072388
vn -0.006761 0.998113 0.061033
vt -0.023316 -1.003244
v 17010.156250 -42.161945 1215.142212
vn -0.009238 0.999928 0.007682
vt 0.476684 -1.003244
v 16985.027344 -39.319363 1064.017822
vn 0.003463 0.999994 -0.000422
vt 0.976684 -1.003244
v 16770.486328 -34.895718 1037.558472
vn -0.003083 0.999819 0.018791
vt 0.976684 -1.500314
v 17190.402344 -55.589397 1367.479126
vn 0.041398 0.990460 0.131434
vt -0.023316 -0.504220
v 17207.699219 -34.387589 1202.258179
vn 0.032216 0.999049 0.029382
vt 0.476684 -0.504220
v 17189.267578 -43.720291 1034.447266
vn 0.013262 0.998287 -0.056976
vt 0.976684 -0.504220
v 16006.481445 -33.411976 1403.080444
vn -0.007001 0.999817 0.017814
vt 1.000582 -3.934350
v 16116.203125 -40.415329 1386.252441
vn 0.019315 0.998655 -0.048110
vt 1.000291 -3.435129
v 16096.971680 -47.380962 1233.939209
vn 0.009348 0.999648 -0.024832
vt 0.500287 -3.435141
v 15952.440430 -35.729443 1224.817871
vn 0.029946 0.999070 -0.031027
vt 0.500574 -3.934372
v 16247.263672 -37.383057 1404.748169
vn 0.030232 0.999470 -0.012089
vt 1.000073 -2.937668
v 16252.672852 -37.221912 1229.231812
vn 0.020050 0.999736 -0.011259
vt 0.500072 -2.937670
v 16214.296875 -40.216679 1075.461792
vn -0.003444 0.999740 0.022550
vt 0.000071 -2.937673
v 16031.159180 -47.880177 1055.734131
vn 0.000027 0.999996 -0.002811
vt 0.000283 -3.435152
v 15892.240234 -42.906315 1000.177673
vn 0.054400 0.998047 -0.030723
vt 0.000566 -3.934394
v 16247.263672 -37.383057 1404.748169
vn 0.030232 0.999470 -0.012089
vt 1.000073 -3.937668
v 16407.404297 -52.801044 1379.991211
vn 0.016397 0.999764 -0.014251
vt 1.000000 -3.443722
v 16421.281250 -55.463280 1209.191162
vn 0.014503 0.999594 0.024512
vt 0.500000 -3.443722
v 16252.672852 -37.221912 1229.231812
vn 0.020050 0.999736 -0.011259
vt 0.500072 -3.937670
v 16599.630859 -40.659821 1390.134521
vn -0.016864 0.999744 0.015053
vt 1.000000 -2.950558
v 16603.097656 -43.683105 1230.748779
vn -0.049806 0.998731 0.007422
vt 0.500000 -2.950558
v 16567.246094 -39.697659 1065.650146
vn -0.028101 0.998199 0.052995
vt 0.000000 -2.950558
v 16389.181641 -36.585789 1057.054321
vn 0.002022 0.992440 0.122718
vt 0.000000 -3.443722
v 16214.296875 -40.216679 1075.461792
vn -0.003444 0.999740 0.022550
vt 0.000071 -3.937673
v 16599.630859 -40.659821 1390.134521
vn -0.016864 0.999744 0.015053
vt 1.000000 -3.950558
v 16799.974609 -58.677280 1380.494507
vn 0.003794 0.992692 0.120620
vt 1.000000 -3.455441
v 16801.041016 -36.817524 1200.557007
vn -0.003203 0.999292 0.037486
vt 0.500000 -3.455441
v 16603.097656 -43.683105 1230.748779
vn -0.049806 0.998731 0.007422
vt 0.500000 -3.950558
v 16999.201172 -40.529690 1375.545532
vn -0.006988 0.998123 0.060848
vt 1.000000 -2.958370
v 17011.343750 -41.198082 1213.631592
vn -0.009370 0.999927 0.007696
vt 0.500000 -2.958370
v 16987.492188 -38.342628 1062.029663
vn 0.003313 0.999994 -0.000952
vt 0.000000 -2.958370
v 16771.955078 -34.068817 1037.744141
vn -0.003147 0.999843 0.017442
vt 0.000000 -3.455441
v 16567.246094 -39.697659 1065.650146
vn -0.028101 0.998199 0.052995
vt 0.000000 -3.950558
v 16999.201172 -40.529690 1375.545532
vn -0.006988 0.998123 0.060848
vt 1.000000 -3.958370
v 17190.419922 -54.862232 1368.787964
vn 0.039131 0.990912 0.128692
vt 1.000000 -3.459347
v 17208.271484 -33.341499 1197.653198
vn 0.031682 0.999084 0.028780
vt 0.500000 -3.459347
v 17011.343750 -41.198082 1213.631592
vn -0.009370 0.999927 0.007696
vt 0.500000 -3.958370
v 16987.492188 -38.342628 1062.029663
vn 0.003313 0.999994 -0.000952
vt 0.000000 -3.958370
v 17192.162109 -42.695637 1032.755981
vn 0.012951 0.998239 -0.057892
vt 0.000000 -3.459347
f 18/18/18 22/22/22 23/23/23
f 24/24/24 20/20/20 23/23/23
f 19/19/19 23/23/23 20/20/20
f 23/23/23 19/19/19 18/18/18
f 17/17/17 18/18/18 19/19/19
f 18/18/18 17/17/17 16/16/16
f 12/12/12 16/16/16 17/17/17
f 17/17/17 20/20/20 21/21/21
f 20/20/20 17/17/17 19/19/19
f 5/5/5 10/10/10 11/11/11
f 12/12/12 11/11/11 10/10/10
f 11/11/11 12/12/12 13/13/13
f 17/17/17 13/13/13 12/12/12
f 13/13/13 17/17/17 14/14/14
f 21/21/21 14/14/14 17/17/17
f 11/11/11 14/14/14 15/15/15
f 14/14/14 11/11/11 13/13/13
f 1/1/1 2/2/2 3/3/3
f 5/5/5 3/3/3 2/2/2
f 3/3/3 5/5/5 6/6/6
f 11/11/11 6/6/6 5/5/5
f 6/6/6 11/11/11 7/7/7
f 15/15/15 7/7/7 11/11/11
f 3/3/3 7/7/7 8/8/8
f 7/7/7 3/3/3 6/6/6
f 3/3/3 4/4/4 1/1/1
f 4/4/4 3/3/3 9/9/9
f 8/8/8 9/9/9 3/3/3
f 27/27/27 30/30/30 31/31/31
f 30/30/30 27/27/27 29/29/29
f 26/26/26 29/29/29 27/27/27
f 27/27/27 25/25/25 26/26/26
f 25/25/25 27/27/27 28/28/28
f 27/27/27 33/33/33 28/28/28
f 33/33/33 27/27/27 32/32/32
f 31/31/31 32/32/32 27/27/27
f 36/36/36 35/35/35 38/38/38
f 35/35/35 36/36/36 34/34/34
f 37/37/37 34/34/34 36/36/36
f 38/38/38 39/39/39 36/36/36
f 40/40/40 36/36/36 39/39/39
f 36/36/36 42/42/42 37/37/37
f 42/42/42 36/36/36 41/41/41
f 40/40/40 41/41/41 36/36/36
f 45/45/45 44/44/44 47/47/47
f 44/44/44 45/45/45 43/43/43
f 46/46/46 43/43/43 45/45/45
f 47/47/47 48/48/48 45/45/45
f 49/49/49 45/45/45 48/48/48
f 45/45/45 51/51/51 46/46/46
f 51/51/51 45/45/45 50/50/50
f 49/49/49 50/50/50 45/45/45
f 54/54/54 52/52/52 53/53/53
f 52/52/52 54/54/54 55/55/55
f 56/56/56 55/55/55 54/54/54
f 54/54/54 57/57/57 56/56/56
usemtl Material_#125
v 16008.039063 -32.469105 1401.352417
vn -0.030707 0.998725 0.040080
vt 1.935974 -3.565804
v 16115.859375 -39.701927 1387.121582
vn 0.019545 0.998740 -0.046223
vt 1.851145 -3.087274
v 16096.839844 -46.432003 1233.661499
vn 0.009706 0.999644 -0.024849
vt 2.343561 -3.000443
v 15952.912109 -34.542389 1223.785400
vn 0.030419 0.999061 -0.030849
vt 2.428402 -3.478968
v 16246.782227 -36.251892 1403.842651
vn 0.028982 0.999517 -0.011253
vt 1.766749 -2.610563
v 16251.531250 -36.098526 1230.651367
vn 0.018949 0.999758 -0.011158
vt 2.259156 -2.523737
v 16216.269531 -39.133785 1077.045654
vn -0.004054 0.999736 0.022594
vt 2.751563 -2.436913
v 16032.187500 -46.986427 1056.357422
vn 0.000475 0.999994 -0.003300
vt 2.835977 -2.913614
v 15890.203125 -41.664200 1001.291321
vn 0.051851 0.998241 -0.028732
vt 2.920830 -3.392133
v 16246.782227 -36.251892 1403.842651
vn 0.028982 0.999517 -0.011253
vt 1.766749 -3.610563
v 16405.552734 -51.710712 1379.949951
vn 0.016947 0.999761 -0.013784
vt 1.683221 -3.137491
v 16421.000000 -54.322857 1209.485962
vn 0.014990 0.999591 0.024348
vt 2.175624 -3.050668
v 16251.531250 -36.098526 1230.651367
vn 0.018949 0.999758 -0.011158
vt 2.259156 -3.523737
v 16596.912109 -39.513626 1393.322388
vn -0.016380 0.999756 0.014795
vt 1.599961 -2.665304
v 16604.798828 -42.640480 1230.265625
vn -0.049618 0.998749 0.006257
vt 2.092365 -2.578481
v 16572.929688 -38.570690 1064.690063
vn -0.027833 0.998259 0.052012
vt 2.584769 -2.491657
v 16390.591797 -35.390228 1056.807739
vn 0.002616 0.992459 0.122547
vt 2.668028 -2.963844
v 16216.269531 -39.133785 1077.045654
vn -0.004054 0.999736 0.022594
vt 2.751563 -3.436913
v 16596.912109 -39.513626 1393.322388
vn -0.016380 0.999756 0.014795
vt 1.599961 -3.665304
v 16801.554688 -57.692993 1379.130493
vn 0.003538 0.992238 0.124304
vt 1.516372 -3.191247
v 16800.074219 -35.687576 1203.517578
vn -0.003578 0.999270 0.038031
vt 2.008776 -3.104424
v 16604.798828 -42.640480 1230.265625
vn -0.049618 0.998749 0.006257
vt 2.092365 -3.578481
v 16999.068359 -39.430256 1375.728271
vn -0.007143 0.998031 0.062310
vt 1.432453 -2.715319
v 17011.001953 -40.062061 1213.885620
vn -0.009576 0.999924 0.007736
vt 1.924857 -2.628496
v 16991.199219 -37.201569 1062.864380
vn 0.002934 0.999995 -0.001235
vt 2.417261 -2.541672
v 16777.968750 -33.093700 1038.803833
vn -0.003275 0.999864 0.016185
vt 2.501180 -3.017599
v 16572.929688 -38.570690 1064.690063
vn -0.027833 0.998259 0.052012
vt 2.584769 -3.491657
v 16999.068359 -39.430256 1375.728271
vn -0.007143 0.998031 0.062310
vt 1.432453 -3.715319
v 17192.269531 -54.001820 1366.268433
vn 0.037706 0.990875 0.129400
vt 1.348204 -3.237521
v 17207.664063 -32.112591 1194.166260
vn 0.030791 0.999118 0.028538
vt 1.840608 -3.150698
v 17011.001953 -40.062061 1213.885620
vn -0.009576 0.999924 0.007736
vt 1.924857 -3.628496
v 16991.199219 -37.201569 1062.864380
vn 0.002934 0.999995 -0.001235
vt 2.417261 -3.541672
v 17196.958984 -41.518188 1031.530151
vn 0.012030 0.998214 -0.058521
vt 2.333012 -3.063873
f 87/87/87 90/90/90 89/89/89
f 87/87/87 85/85/85 86/86/86
f 85/85/85 87/87/87 88/88/88
f 89/89/89 88/88/88 87/87/87
f 60/60/60 63/63/63 64/64/64
f 63/63/63 60/60/60 62/62/62
f 59/59/59 62/62/62 60/60/60
f 60/60/60 58/58/58 59/59/59
f 58/58/58 60/60/60 61/61/61
f 60/60/60 66/66/66 61/61/61
f 66/66/66 60/60/60 65/65/65
f 64/64/64 65/65/65 60/60/60
f 69/69/69 68/68/68 71/71/71
f 68/68/68 69/69/69 67/67/67
f 70/70/70 67/67/67 69/69/69
f 71/71/71 72/72/72 69/69/69
f 73/73/73 69/69/69 72/72/72
f 69/69/69 75/75/75 70/70/70
f 75/75/75 69/69/69 74/74/74
f 73/73/73 74/74/74 69/69/69
f 78/78/78 77/77/77 80/80/80
f 77/77/77 78/78/78 76/76/76
f 79/79/79 76/76/76 78/78/78
f 80/80/80 81/81/81 78/78/78
f 82/82/82 78/78/78 81/81/81
f 78/78/78 84/84/84 79/79/79
f 84/84/84 78/78/78 83/83/83
f 82/82/82 83/83/83 78/78/78
