mtllib MAINHALL_THRONE_ARM02.mtl
g ll_throne_arm02
usemtl Lvl_dwarven_plc_stone41
v 9687.146484 718.525513 -4907.509277
vn 0.999833 0.018269 0.000000
vt 0.000500 0.999500
v 9686.525391 752.517639 -4907.509766
vn 0.793601 0.608438 0.000001
vt 0.000500 0.000500
v 9686.525391 752.517578 -4793.667480
vn 0.949319 0.314315 0.000001
vt 0.999500 0.000500
v 9687.146484 718.525513 -4793.667480
vn 0.999833 0.018270 0.000000
vt 0.999500 0.999500
v 9687.146484 718.525513 -4793.667480
vn 0.000000 0.000007 1.000000
vt 0.000499 0.999500
v 9686.525391 752.517578 -4793.667480
vn 0.000000 0.541039 0.840997
vt 0.004828 0.000500
v 9543.756836 752.517639 -4793.667480
vn 0.000000 0.270523 0.962713
vt 0.999500 0.000500
v 9544.377930 718.525574 -4793.667480
vn 0.000000 0.000007 1.000000
vt 0.995172 0.999500
v 9544.377930 718.525574 -4793.667480
vn -0.999985 -0.000001 0.005455
vt 0.000500 0.999500
v 9543.756836 752.517639 -4793.667480
vn -0.800106 0.599859 -0.000001
vt 0.000500 0.000500
v 9543.756836 752.517639 -4907.509766
vn -0.953264 0.302112 0.004035
vt 0.999500 0.000500
v 9543.135742 718.525635 -4907.510254
vn -0.999774 0.018269 0.010909
vt 0.999500 0.999500
v 9686.525391 752.517639 -4907.509766
vn 0.000001 0.270509 -0.962717
vt 0.999500 0.000500
v 9687.146484 718.525574 -4907.509766
vn 0.000001 -0.000007 -1.000000
vt 0.995172 0.999500
v 9543.135742 718.525635 -4907.509766
vn 0.000001 -0.000003 -1.000000
vt 0.000499 0.999500
v 9543.756836 752.517639 -4907.509766
vn 0.000000 0.541023 -0.841008
vt 0.004828 0.000500
f 3/3/3 1/1/1 2/2/2
f 1/1/1 3/3/3 4/4/4
f 7/7/7 5/5/5 6/6/6
f 5/5/5 7/7/7 8/8/8
f 11/11/11 9/9/9 10/10/10
f 9/9/9 11/11/11 12/12/12
f 15/15/15 13/13/13 14/14/14
f 13/13/13 15/15/15 16/16/16
usemtl Lvl_dwarven_plc_stone25
v 9675.145508 760.560181 -4802.742188
vn 0.212853 0.945968 0.244617
vt 0.999500 0.999501
v 9686.525391 752.517578 -4793.667480
vn 0.949319 0.314315 0.000001
vt 0.000499 0.999500
v 9686.525391 752.517639 -4907.509766
vn 0.793601 0.608438 0.000001
vt 0.080127 0.000500
v 9686.525391 752.517578 -4793.667480
vn 0.000000 0.541039 0.840997
vt 0.080127 0.000499
v 9675.145508 760.560181 -4802.742188
vn 0.212853 0.945968 0.244617
vt 0.248076 0.000499
v 9555.136719 760.560181 -4802.742188
vn -0.212851 0.945969 0.244616
vt 0.999500 0.999500
v 9555.135742 289.360168 -4802.741699
vn 0.000000 -0.000001 1.000000
vt 0.999500 0.999001
v 9675.145508 289.359924 -4802.741699
vn 0.000000 -0.000001 1.000000
vt 0.005645 0.999001
v 9675.766602 718.525513 -4802.741699
vn 0.000000 -0.000001 1.000000
vt 0.000500 -0.999001
v 9675.146484 760.560181 -4898.436035
vn 0.212854 0.945966 -0.244624
vt 0.248076 0.000500
v 9555.757813 718.525574 -4802.741699
vn 0.000000 -0.000001 1.000000
vt 0.994355 -0.999001
v 9555.757813 718.525574 -4802.741699
vn -0.999999 0.001448 0.000000
vt 0.000500 -0.999001
v 9555.756836 718.525574 -4898.435547
vn -0.999999 0.001448 0.000000
vt 0.999500 -0.999001
v 9555.135742 289.360138 -4898.435547
vn -0.999999 0.001448 0.000000
vt 0.999500 0.999001
v 9675.145508 289.359924 -4802.741699
vn 0.999999 -0.001447 0.000000
vt 0.999500 0.999001
v 9675.145508 289.359924 -4898.435547
vn 0.999999 -0.001447 0.000000
vt 0.000500 0.999001
v 9675.766602 718.525513 -4898.435547
vn 0.999999 -0.001447 0.000000
vt 0.000500 -0.999001
v 9675.766602 718.525513 -4802.741699
vn 0.999999 -0.001447 0.000000
vt 0.999500 -0.999001
v 9555.135742 289.360168 -4802.741699
vn -0.999999 0.001448 0.000000
vt 0.000500 0.999001
v 9543.756836 752.517639 -4793.667480
vn 0.000000 0.270523 0.962713
vt 0.000499 0.999500
v 9555.136719 760.560242 -4898.436035
vn -0.212852 0.945967 -0.244624
vt 0.999502 0.999500
v 9555.136719 760.560181 -4802.742188
vn -0.212851 0.945969 0.244616
vt 0.000502 0.999500
v 9675.145508 760.560181 -4802.742188
vn 0.212853 0.945968 0.244617
vt 0.000502 0.000500
v 9675.146484 289.359894 -4898.436035
vn 0.000000 0.000001 -1.000000
vt 0.999500 0.999001
v 9555.136719 289.360168 -4898.436035
vn 0.000000 0.000001 -1.000000
vt 0.005645 0.999001
v 9555.756836 718.525574 -4898.435547
vn 0.000000 0.000001 -1.000000
vt 0.000500 -0.999001
v 9675.146484 760.560181 -4898.436035
vn 0.212854 0.945966 -0.244624
vt 0.999503 0.000499
v 9543.756836 752.517639 -4907.509766
vn 0.000000 0.541023 -0.841008
vt 0.080127 0.000499
v 9555.136719 760.560242 -4898.436035
vn -0.212852 0.945967 -0.244624
vt 0.248076 0.000499
v 9675.146484 760.560181 -4898.436035
vn 0.212854 0.945966 -0.244624
vt 0.999500 0.999500
v 9686.525391 752.517639 -4907.509766
vn 0.000001 0.270509 -0.962717
vt 0.000499 0.999500
v 9543.756836 752.517639 -4793.667480
vn -0.800106 0.599859 -0.000001
vt 0.080127 0.000500
v 9555.136719 760.560181 -4802.742188
vn -0.212851 0.945969 0.244616
vt 0.248118 0.000500
v 9555.136719 760.560242 -4898.436035
vn -0.212852 0.945967 -0.244624
vt 0.999501 0.999500
v 9543.756836 752.517639 -4907.509766
vn -0.953264 0.302112 0.004035
vt 0.000499 0.999500
v 9675.766602 718.525513 -4898.435547
vn 0.000000 0.000001 -1.000000
vt 0.994355 -0.999001
f 19/19/19 17/17/17 18/18/18
f 17/17/17 19/19/19 26/26/26
f 22/22/22 20/20/20 21/21/21
f 20/20/20 22/22/22 36/36/36
f 25/25/25 23/23/23 24/24/24
f 23/23/23 25/25/25 27/27/27
f 30/30/30 28/28/28 29/29/29
f 28/28/28 30/30/30 35/35/35
f 33/33/33 31/31/31 32/32/32
f 31/31/31 33/33/33 34/34/34
f 39/39/39 37/37/37 38/38/38
f 37/37/37 39/39/39 43/43/43
f 42/42/42 40/40/40 41/41/41
f 40/40/40 42/42/42 52/52/52
f 46/46/46 44/44/44 45/45/45
f 44/44/44 46/46/46 47/47/47
f 50/50/50 48/48/48 49/49/49
f 48/48/48 50/50/50 51/51/51
usemtl Lvl_dwarven_plc_stone04
v 9687.146484 718.525574 -4907.509766
vn 0.000000 -1.000000 0.000001
vt 0.999500 0.999501
v 9674.525391 718.525574 -4898.436035
vn 0.000000 -1.000000 0.000003
vt 0.919873 0.919873
v 9554.515625 718.525635 -4898.436035
vn 0.000000 -1.000000 0.000002
vt 0.080127 0.919873
v 9543.135742 718.525635 -4907.509766
vn -0.000002 -1.000000 0.000000
vt 0.000499 0.999500
v 9675.766602 718.525513 -4898.435547
vn 0.000000 -1.000000 0.000000
vt 0.080127 0.080127
v 9687.146484 718.525513 -4907.509277
vn 0.000000 -1.000000 0.000001
vt 0.000500 0.000499
v 9687.146484 718.525513 -4793.667480
vn 0.000000 -1.000000 0.000000
vt 0.000499 0.999500
v 9675.766602 718.525513 -4802.741699
vn 0.000000 -1.000000 0.000000
vt 0.080127 0.919873
v 9544.377930 718.525574 -4793.667480
vn 0.000000 -1.000000 0.000000
vt 0.999500 0.999501
v 9555.757813 718.525574 -4802.741699
vn -0.000002 -1.000000 0.000000
vt 0.919873 0.919873
v 9543.135742 718.525635 -4907.510254
vn -0.000002 -1.000000 0.000000
vt 0.999501 0.000500
v 9555.756836 718.525574 -4898.435547
vn -0.000005 -1.000000 0.000000
vt 0.919873 0.080127
f 55/55/55 53/53/53 54/54/54
f 53/53/53 55/55/55 56/56/56
f 59/59/59 57/57/57 58/58/58
f 57/57/57 59/59/59 60/60/60
f 61/61/61 60/60/60 59/59/59
f 60/60/60 61/61/61 62/62/62
f 63/63/63 62/62/62 61/61/61
f 62/62/62 63/63/63 64/64/64
