mtllib MAINHALL_PUSHBLOCK_L.mtl
g all_pushblock_L
usemtl Lvl_dwarven_plc_tile01
v -48.000408 98.124268 50.000023
vn -0.378447 0.244076 0.892863
vt 0.009999 0.510000
v -48.000439 2.124277 50.000107
vn -0.292402 -0.453403 0.841978
vt 0.009999 0.990000
v 47.999561 2.124277 50.000099
vn 0.378448 -0.244094 0.892858
vt 0.489999 0.990000
v 47.999561 98.124184 50.000122
vn 0.292409 0.453373 0.841992
vt 0.510000 0.500947
f 3/3/3 1/1/1 2/2/2
f 1/1/1 3/3/3 4/4/4
usemtl Lvl_dwarven_plc_tileL
v -48.000416 98.124222 -49.999935
vn -0.244075 0.378448 -0.892863
vt 0.990001 0.509999
v 47.999569 98.124222 -49.999943
vn 0.453365 0.292405 -0.841997
vt 0.510001 0.510000
v 47.999569 2.124235 -49.999859
vn 0.244070 -0.378447 -0.892865
vt 0.510001 0.990000
v -48.000416 2.124258 -49.999973
vn -0.453383 -0.292408 -0.841986
vt 0.990001 0.989999
v -48.000408 100.124237 48.000084
vn -0.244078 0.892862 0.378448
vt 0.009999 0.499999
v -48.000408 98.124268 50.000023
vn -0.378447 0.244076 0.892863
vt 0.009999 0.510000
v 47.999561 98.124184 50.000122
vn 0.292409 0.453373 0.841992
vt 0.510000 0.500947
v -50.000408 2.124265 48.000114
vn -0.892861 -0.244089 0.378443
vt 0.010000 0.490946
v -48.000439 2.124277 50.000107
vn -0.292402 -0.453403 0.841978
vt 0.010000 0.500946
v -48.000408 98.124268 50.000023
vn -0.378447 0.244076 0.892863
vt 0.490000 0.500946
v -50.000408 98.124260 48.000031
vn -0.841992 0.453375 0.292405
vt 0.490000 0.490946
v 47.999561 100.124237 48.000076
vn 0.453374 0.841993 0.292403
vt 0.489999 0.499999
v 49.999561 98.124260 48.000023
vn 0.892865 0.244078 0.378442
vt 0.510000 0.490946
v 49.999569 98.124290 -47.999943
vn 0.841990 0.453379 -0.292405
vt 0.510000 0.010946
v 47.999569 100.124268 -47.999889
vn 0.244075 0.892864 -0.378446
vt 0.500000 0.010946
v -48.000408 100.124237 48.000084
vn -0.244078 0.892862 0.378448
vt 0.500001 0.490946
v -48.000416 100.124268 -47.999882
vn -0.453369 0.841996 -0.292404
vt 0.500001 0.010946
v -50.000416 98.124290 -47.999935
vn -0.892864 0.244081 -0.378443
vt 0.490001 0.010946
v 47.999561 0.124311 47.999939
vn 0.244070 -0.892874 0.378425
vt 0.510001 0.490946
v 49.999561 2.124265 48.000107
vn 0.841988 -0.453386 0.292401
vt 0.500001 0.490946
v 47.999561 2.124277 50.000099
vn 0.378448 -0.244094 0.892858
vt 0.510001 0.500946
v -48.000439 2.124277 50.000107
vn -0.292402 -0.453403 0.841978
vt 0.990001 0.500946
v -50.000408 2.124265 48.000114
vn -0.892861 -0.244089 0.378443
vt 1.000001 0.490946
v -48.000408 0.124311 47.999947
vn -0.453363 -0.842005 0.292388
vt 0.990001 0.490946
v -50.000408 98.124260 48.000031
vn -0.841992 0.453375 0.292405
vt -0.000001 0.510000
v 47.999569 0.124266 -47.999920
vn 0.453369 -0.841994 -0.292407
vt 0.510001 1.000000
v 49.999569 2.124270 -47.999989
vn 0.892859 -0.244080 -0.378454
vt 0.500001 0.990000
v -50.000416 2.124243 -47.999863
vn -0.841995 -0.453377 -0.292394
vt 0.010000 0.010947
v -48.000416 2.124258 -49.999973
vn -0.453383 -0.292408 -0.841986
vt 0.010001 0.000946
v -48.000416 0.124266 -47.999912
vn -0.244080 -0.892865 -0.378441
vt 0.000000 0.010946
v 47.999569 98.124222 -49.999943
vn 0.453365 0.292405 -0.841997
vt 0.489999 0.000946
v -48.000416 100.124268 -47.999882
vn -0.453369 0.841996 -0.292404
vt 0.009999 0.010946
v -48.000416 98.124222 -49.999935
vn -0.244075 0.378448 -0.892863
vt 0.009999 0.000946
v -50.000416 98.124290 -47.999935
vn -0.892864 0.244081 -0.378443
vt -0.000001 0.010946
v 47.999561 2.124277 50.000099
vn 0.378448 -0.244094 0.892858
vt 0.990000 0.500946
v 49.999561 2.124265 48.000107
vn 0.841988 -0.453386 0.292401
vt 0.990000 0.490946
v 47.999569 0.124266 -47.999920
vn 0.453369 -0.841994 -0.292407
vt 0.510001 0.010946
v 49.999569 2.124270 -47.999989
vn 0.892859 -0.244080 -0.378454
vt 0.500001 0.010946
v -48.000416 98.124222 -49.999935
vn -0.244075 0.378448 -0.892863
vt 0.490001 0.000946
v -48.000416 0.124266 -47.999912
vn -0.244080 -0.892865 -0.378441
vt 0.990001 1.000000
v -50.000416 2.124243 -47.999863
vn -0.841995 -0.453377 -0.292394
vt 1.000001 0.010947
v -48.000416 0.124266 -47.999912
vn -0.244080 -0.892865 -0.378441
vt 0.990001 0.010946
v 49.999569 98.124290 -47.999943
vn 0.841990 0.453379 -0.292405
vt 0.500001 0.510000
f 14/14/14 15/15/15 12/12/12
f 12/12/12 13/13/13 14/14/14
f 21/21/21 15/15/15 20/20/20
f 15/15/15 21/21/21 22/22/22
f 33/33/33 22/22/22 43/43/43
f 22/22/22 33/33/33 32/32/32
f 34/34/34 32/32/32 33/33/33
f 17/17/17 11/11/11 39/39/39
f 11/11/11 17/17/17 16/16/16
f 18/18/18 16/16/16 17/17/17
f 16/16/16 18/18/18 19/19/19
f 35/35/35 19/19/19 18/18/18
f 19/19/19 35/35/35 37/37/37
f 39/39/39 40/40/40 17/17/17
f 37/37/37 36/36/36 19/19/19
f 36/36/36 37/37/37 38/38/38
f 29/29/29 10/10/10 9/9/9
f 11/11/11 9/9/9 10/10/10
f 9/9/9 11/11/11 16/16/16
f 44/44/44 8/8/8 7/7/7
f 5/5/5 7/7/7 8/8/8
f 7/7/7 5/5/5 6/6/6
f 7/7/7 30/30/30 44/44/44
f 30/30/30 7/7/7 31/31/31
f 6/6/6 31/31/31 7/7/7
f 31/31/31 6/6/6 47/47/47
f 28/28/28 27/27/27 45/45/45
f 27/27/27 28/28/28 26/26/26
f 23/23/23 26/26/26 28/28/28
f 26/26/26 23/23/23 25/25/25
f 24/24/24 25/25/25 23/23/23
f 45/45/45 46/46/46 28/28/28
f 41/41/41 24/24/24 23/23/23
f 24/24/24 41/41/41 42/42/42
usemtl Lvl_dwarven_plc_tileS
v -48.000416 0.124266 -47.999912
vn -0.244080 -0.892865 -0.378441
vt 0.990001 0.010946
v 47.999569 0.124266 -47.999920
vn 0.453369 -0.841994 -0.292407
vt 0.510001 0.010946
v 47.999561 0.124311 47.999939
vn 0.244070 -0.892874 0.378425
vt 0.510001 0.490946
v -48.000408 0.124311 47.999947
vn -0.453363 -0.842005 0.292388
vt 0.990001 0.490946
f 50/50/50 48/48/48 49/49/49
f 48/48/48 50/50/50 51/51/51
usemtl Lvl_dwarven_plc_tileO
v -50.000416 98.124290 -47.999935
vn -0.892864 0.244081 -0.378443
vt 0.490001 0.010946
v -50.000416 2.124243 -47.999863
vn -0.841995 -0.453377 -0.292394
vt 0.010000 0.010947
v -50.000408 2.124265 48.000114
vn -0.892861 -0.244089 0.378443
vt 0.010000 0.490946
v -50.000408 98.124260 48.000031
vn -0.841992 0.453375 0.292405
vt 0.490000 0.490946
f 54/54/54 52/52/52 53/53/53
f 52/52/52 54/54/54 55/55/55
usemtl Lvl_dwarven_plc_tileK
v -48.000408 100.124237 48.000084
vn -0.244078 0.892862 0.378448
vt 0.009999 0.499999
v 47.999561 100.124237 48.000076
vn 0.453374 0.841993 0.292403
vt 0.489999 0.499999
v 47.999569 100.124268 -47.999889
vn 0.244075 0.892864 -0.378446
vt 0.500000 0.010946
v -48.000416 100.124268 -47.999882
vn -0.453369 0.841996 -0.292404
vt 0.009999 0.010946
f 58/58/58 56/56/56 57/57/57
f 56/56/56 58/58/58 59/59/59
usemtl Lvl_dwarven_plc_tileB
v 49.999569 2.124270 -47.999989
vn 0.892859 -0.244080 -0.378454
vt 0.994831 0.510946
v 49.999569 98.124290 -47.999943
vn 0.841990 0.453379 -0.292405
vt 0.500001 0.510000
v 49.999561 98.124260 48.000023
vn 0.892865 0.244078 0.378442
vt 0.514831 0.990946
v 49.999561 2.124265 48.000107
vn 0.841988 -0.453386 0.292401
vt 0.994831 0.990946
f 62/62/62 60/60/60 61/61/61
f 60/60/60 62/62/62 63/63/63
