mtllib SD_ARKENSTONE_01.mtl
g D_arkenstone_01
usemtl Lvl_dwarven_plc_stone53
v 15720.776367 29.999228 -952.775574
vn -0.000013 -0.000001 1.000000
vt 0.999495 0.999501
v 15720.776367 209.999390 -952.775574
vn -0.000012 0.000000 1.000000
vt 0.999495 0.000502
v 15410.206055 209.999710 -952.779419
vn -0.000013 -0.000001 1.000000
vt 0.000497 0.000500
v 15410.206055 29.999388 -952.779907
vn -0.000014 -0.000003 1.000000
vt 0.000497 0.999500
v 15410.207031 29.999441 -990.380005
vn -0.000001 -1.000000 -0.000001
vt 0.000500 0.999502
v 15720.777344 29.999281 -990.375671
vn -0.000001 -1.000000 -0.000001
vt 0.999498 0.999383
v 15720.776367 29.999228 -952.775574
vn -0.000001 -1.000000 -0.000001
vt 0.999495 0.000501
v 15410.206055 29.999388 -952.779907
vn -0.000001 -1.000000 -0.000001
vt 0.000497 0.000620
v 15720.777344 29.999281 -990.375671
vn 1.000000 0.000000 0.000026
vt 0.999383 0.999500
v 15720.777344 209.999435 -990.375671
vn 1.000000 0.000000 0.000026
vt 0.999383 0.000501
v 15720.776367 209.999390 -952.775574
vn 1.000000 0.000000 0.000026
vt 0.000501 0.000502
v 15720.776367 29.999228 -952.775574
vn 1.000000 0.000000 0.000026
vt 0.000501 0.999501
v 15720.777344 209.999435 -990.375671
vn 0.000001 1.000000 0.000001
vt 0.000502 0.999383
v 15410.207031 209.999756 -990.379517
vn 0.000001 1.000000 0.000001
vt 0.999500 0.999489
v 15410.206055 209.999710 -952.779419
vn 0.000001 1.000000 0.000001
vt 0.999503 0.000607
v 15720.776367 209.999390 -952.775574
vn 0.000001 1.000000 0.000001
vt 0.000505 0.000501
v 15410.207031 209.999756 -990.379517
vn -1.000000 0.000000 -0.000026
vt 0.000511 0.000499
v 15410.207031 29.999441 -990.380005
vn -1.000000 0.000000 -0.000026
vt 0.000498 0.999499
v 15410.206055 29.999388 -952.779907
vn -1.000000 0.000000 -0.000026
vt 0.999380 0.999500
v 15410.206055 209.999710 -952.779419
vn -1.000000 0.000000 -0.000026
vt 0.999393 0.000500
v 15720.777344 29.999273 -990.375671
vn 0.000013 0.000001 -1.000000
vt 0.000502 0.999500
v 15410.207031 29.999434 -990.380005
vn 0.000014 0.000003 -1.000000
vt 0.999500 0.999499
v 15410.207031 209.999756 -990.379517
vn 0.000013 0.000001 -1.000000
vt 0.999500 0.000499
v 15720.777344 209.999435 -990.375671
vn 0.000012 0.000000 -1.000000
vt 0.000502 0.000501
f 3/3/3 1/1/1 2/2/2
f 1/1/1 3/3/3 4/4/4
f 7/7/7 5/5/5 6/6/6
f 5/5/5 7/7/7 8/8/8
f 11/11/11 9/9/9 10/10/10
f 9/9/9 11/11/11 12/12/12
f 15/15/15 13/13/13 14/14/14
f 13/13/13 15/15/15 16/16/16
f 19/19/19 17/17/17 18/18/18
f 17/17/17 19/19/19 20/20/20
f 23/23/23 21/21/21 22/22/22
f 21/21/21 23/23/23 24/24/24
