mtllib SD_MAINHALL_01.mtl
g SD_mainhall_01
usemtl Lvl_dwarven_plc_stone53
v 9156.663086 1186.821045 -3760.696777
vn 0.999813 0.019328 0.000025
vt 0.999497 0.000500
v 9156.659180 1186.814209 -3505.812744
vn 0.999813 0.019314 0.000016
vt 0.000540 0.000537
v 9159.987305 1014.531677 -3505.798584
vn 0.999813 0.019328 0.000025
vt 0.000499 0.999501
v 9159.996094 1014.538757 -3760.697998
vn 0.999813 0.019343 0.000035
vt 0.999455 0.999463
v 9117.095703 1014.538757 -3760.698730
vn 0.000019 0.000007 -1.000000
vt 0.999405 0.999463
v 9118.292969 1186.820435 -3760.697510
vn 0.000019 0.000007 -1.000000
vt 0.999405 0.000500
v 9156.663086 1186.821045 -3760.696777
vn 0.000019 0.000007 -1.000000
vt 0.000496 0.000500
v 9159.996094 1014.538757 -3760.697998
vn 0.000017 0.000007 -1.000000
vt 0.000496 0.999463
v 9118.292969 1186.820435 -3760.697510
vn 0.000000 1.000000 0.000024
vt 0.999405 0.999500
v 9119.417969 1186.814209 -3505.813477
vn 0.000000 1.000000 0.000024
vt 0.999497 0.000543
v 9156.659180 1186.814209 -3505.812744
vn 0.000000 1.000000 0.000024
vt 0.000588 0.000540
v 9156.663086 1186.821045 -3760.696777
vn -0.000016 1.000000 0.000027
vt 0.000496 0.999497
v 9119.417969 1186.814209 -3505.813477
vn -0.009175 -0.002074 0.999956
vt 0.000503 0.000537
v 9117.090820 1014.442932 -3506.192383
vn -0.009175 -0.002074 0.999956
vt 0.000503 0.999501
v 9159.987305 1014.531677 -3505.798584
vn -0.009175 -0.002074 0.999956
vt 0.999412 0.999501
v 9156.659180 1186.814209 -3505.812744
vn -0.000020 0.000082 1.000000
vt 0.999412 0.000537
v 9117.090820 1014.442932 -3506.192383
vn 0.000000 -1.000000 -0.000377
vt 0.000503 0.000502
v 9117.095703 1014.538757 -3760.698730
vn 0.000000 -1.000000 -0.000377
vt 0.000595 0.999458
v 9159.996094 1014.538757 -3760.697998
vn 0.000000 -1.000000 -0.000377
vt 0.999504 0.999455
v 9159.987305 1014.531677 -3505.798584
vn 0.002069 -0.999998 -0.000028
vt 0.999412 0.000499
v 9118.292969 1186.820435 -3760.697510
vn -0.999945 0.010220 0.002199
vt 0.000500 0.000500
v 9117.095703 1014.538757 -3760.698730
vn -0.999976 0.006949 -0.000016
vt 0.000542 0.999463
v 9117.090820 1014.442932 -3506.192383
vn -0.999945 0.010220 0.002199
vt 0.999498 0.999501
v 9119.417969 1186.814209 -3505.813477
vn -0.999899 0.013490 0.004414
vt 0.999457 0.000537
f 3/3/3 1/1/1 2/2/2
f 1/1/1 3/3/3 4/4/4
f 7/7/7 5/5/5 6/6/6
f 5/5/5 7/7/7 8/8/8
f 11/11/11 9/9/9 10/10/10
f 9/9/9 11/11/11 12/12/12
f 15/15/15 13/13/13 14/14/14
f 13/13/13 15/15/15 16/16/16
f 19/19/19 17/17/17 18/18/18
f 17/17/17 19/19/19 20/20/20
f 23/23/23 21/21/21 22/22/22
f 21/21/21 23/23/23 24/24/24
