mtllib CH09_SMAUG_PLAYSURFACE_CAVE16.mtl
g cave16
usemtl yuyt
v -2872.780029 -556.976990 2416.637451
vn -0.082926 -0.353285 -0.931833
vt 1.095609 0.999001
v -2608.715088 -598.552612 2408.900391
vn -0.082926 -0.353285 -0.931833
vt 1.095609 0.599401
v -2619.173584 -670.208008 2436.997803
vn -0.113197 -0.567142 -0.815804
vt 0.946196 0.599401
v -2883.238525 -628.632385 2444.734863
vn -0.113197 -0.567142 -0.815804
vt 0.946196 0.999001
v -2344.649902 -640.128296 2401.163330
vn -0.082926 -0.353285 -0.931833
vt 1.095609 0.199800
v -2355.108643 -711.783691 2429.260742
vn -0.113197 -0.567142 -0.815804
vt 0.946196 0.199800
v -2080.584961 -681.703918 2393.426270
vn -0.082926 -0.353285 -0.931833
vt 1.095609 -0.199800
v -2091.043457 -753.359314 2421.523438
vn -0.114394 -0.566457 -0.816113
vt 0.946196 -0.199800
v -1816.520142 -723.279602 2385.688965
vn -0.084568 -0.354586 -0.931191
vt 1.095609 -0.599401
v -1826.978638 -794.934998 2413.786377
vn -0.117781 -0.561045 -0.819363
vt 0.946196 -0.599401
v -1553.066040 -764.806335 2377.059326
vn -0.093959 -0.362002 -0.927430
vt 1.095609 -0.999001
v -1562.913696 -836.510620 2406.049316
vn -0.116798 -0.570828 -0.812720
vt 0.946196 -0.999001
v -1553.066040 -764.806335 2377.059326
vn 0.987843 -0.152576 -0.029797
vt 1.999001 -0.309425
v -1551.075195 -759.870239 2418.482910
vn 0.987941 -0.152021 -0.029367
vt 1.740015 -0.359767
v -1558.186035 -812.824463 2440.120605
vn 0.992447 -0.024805 -0.120136
vt 1.586428 -0.031645
v -1562.913696 -836.510620 2406.049316
vn 0.990022 -0.049141 -0.132065
vt 1.790981 0.134987
v -1551.075195 -759.870239 2418.482910
vn 0.149420 0.848781 0.507192
vt 1.144040 -0.999001
v -1814.529175 -718.343506 2427.112549
vn 0.151161 0.845135 0.512735
vt 1.144040 -0.599401
v -1822.251099 -771.248779 2447.857666
vn 0.115198 0.567532 0.815252
vt 1.017160 -0.599401
v -1558.186035 -812.824463 2440.120605
vn 0.132336 0.577907 0.805302
vt 1.017160 -0.999001
v -2078.594238 -676.767883 2434.849854
vn 0.148159 0.845575 0.512885
vt 1.144040 -0.199800
v -2086.315918 -729.673157 2455.594727
vn 0.113197 0.567143 0.815804
vt 1.017160 -0.199800
v -2342.659180 -635.192200 2442.586914
vn 0.148159 0.845575 0.512885
vt 1.144040 0.199800
v -2350.380859 -688.097473 2463.332031
vn 0.113197 0.567143 0.815804
vt 1.017160 0.199800
v -2606.724121 -593.616577 2450.323975
vn 0.148159 0.845575 0.512885
vt 1.144040 0.599401
v -2614.446045 -646.521790 2471.069092
vn 0.113197 0.567143 0.815804
vt 1.017160 0.599401
v -2870.789063 -552.040894 2458.061035
vn 0.148198 0.845975 0.512215
vt 1.144040 0.999001
v -2878.510986 -604.946167 2478.806152
vn 0.113197 0.567143 0.815804
vt 1.017160 0.999001
v -2870.789063 -552.040894 2458.061035
vn -0.987418 0.155464 0.028931
vt 1.740015 -0.359767
v -2872.780029 -556.976990 2416.637451
vn -0.987418 0.155464 0.028931
vt 1.999001 -0.309425
v -2883.238525 -628.632385 2444.734863
vn -0.987418 0.155464 0.028931
vt 1.790981 0.134987
v -2878.510986 -604.946167 2478.806152
vn -0.987418 0.155464 0.028931
vt 1.586428 -0.031645
v -2625.353027 -720.424561 2495.933594
vn -0.151914 -0.881771 -0.446544
vt 0.738157 0.599401
v -2889.417969 -678.848877 2503.670898
vn -0.151914 -0.881771 -0.446544
vt 0.738157 0.999001
v -2361.288086 -762.000183 2488.196533
vn -0.151914 -0.881771 -0.446544
vt 0.738157 0.199800
v -2097.223145 -803.575867 2480.459473
vn -0.153933 -0.881737 -0.445921
vt 0.738157 -0.199800
v -1833.769043 -845.102600 2471.829834
vn -0.156823 -0.881642 -0.445101
vt 0.738157 -0.599401
v -1516.146729 -893.637085 2456.417969
vn -0.156432 -0.910963 -0.381674
vt 0.738157 -0.999001
v -1509.802124 -856.810669 2475.067627
vn 0.945312 0.029542 -0.324827
vt 1.296143 0.185122
v -1516.146729 -893.637085 2456.417969
vn 0.945938 -0.030676 -0.322894
vt 1.397816 0.428577
v -1826.813599 -808.325073 2491.371826
vn 0.154119 0.881432 0.446458
vt 0.822167 -0.599401
v -1509.802124 -856.810669 2475.067627
vn 0.157476 0.916983 0.366529
vt 0.822167 -0.999001
v -2090.878418 -766.749451 2499.108887
vn 0.151914 0.881771 0.446544
vt 0.822167 -0.199800
v -2354.943359 -725.173767 2506.846191
vn 0.151914 0.881771 0.446544
vt 0.822167 0.199800
v -2619.008545 -683.598145 2514.583252
vn 0.151914 0.881771 0.446544
vt 0.822167 0.599401
v -2883.073486 -642.022461 2522.320313
vn 0.151914 0.881771 0.446544
vt 0.822167 0.999001
v -2889.417969 -678.848877 2503.670898
vn -0.987418 0.155464 0.028931
vt 1.397816 0.428577
v -2883.073486 -642.022461 2522.320313
vn -0.987418 0.155464 0.028931
vt 1.296143 0.185121
v -2625.789795 -737.308716 2571.749756
vn -0.154652 -0.987559 0.028478
vt 0.445126 0.599401
v -2889.854980 -695.733093 2579.486816
vn -0.154652 -0.987559 0.028478
vt 0.445126 0.999001
v -2361.724854 -778.884399 2564.012695
vn -0.154652 -0.987559 0.028478
vt 0.445126 0.199800
v -2097.659912 -820.460022 2556.275391
vn -0.154652 -0.987559 0.028478
vt 0.445126 -0.199800
v -1833.594971 -862.035706 2548.538330
vn -0.148219 -0.988543 0.028524
vt 0.445126 -0.599401
v -1440.389648 -920.181030 2529.056396
vn -0.134705 -0.990744 -0.016776
vt 0.445126 -0.999001
v -1433.930786 -878.936523 2527.867188
vn 0.991292 -0.121490 0.050806
vt 0.937912 0.239192
v -1440.389648 -920.181030 2529.056396
vn 0.990669 -0.120781 0.063142
vt 0.912624 0.501811
v -1827.136108 -820.791199 2547.349121
vn 0.142785 0.989232 -0.032140
vt 0.419159 -0.599401
v -1433.930786 -878.936523 2527.867188
vn 0.139973 0.989965 0.019394
vt 0.419159 -0.999001
v -2091.201172 -779.215515 2555.086182
vn 0.154652 0.987559 -0.028478
vt 0.419159 -0.199800
v -2355.266113 -737.639893 2562.823242
vn 0.154652 0.987559 -0.028478
vt 0.419159 0.199800
v -2619.331055 -696.064209 2570.560303
vn 0.154652 0.987559 -0.028478
vt 0.419159 0.599401
v -2883.395996 -654.488586 2578.297607
vn 0.154652 0.987559 -0.028478
vt 0.419159 0.999001
v -2889.854980 -695.733093 2579.486816
vn -0.987418 0.155464 0.028931
vt 0.912624 0.501811
v -2883.395996 -654.488586 2578.297607
vn -0.987418 0.155464 0.028931
vt 0.937912 0.239192
v -2620.380859 -716.861694 2646.489258
vn -0.120761 -0.859449 0.496754
vt 0.175210 0.599401
v -2884.445801 -675.286011 2654.226318
vn -0.120761 -0.859449 0.496754
vt 0.175210 0.999001
v -2356.315918 -758.437378 2638.752197
vn -0.120761 -0.859449 0.496754
vt 0.175210 0.199800
v -2092.250732 -800.013000 2631.014893
vn -0.120761 -0.859449 0.496754
vt 0.175210 -0.199800
v -1828.185913 -841.588684 2623.277832
vn -0.120761 -0.859449 0.496754
vt 0.175210 -0.599401
v -1564.120972 -883.164307 2615.540771
vn -0.107814 -0.894177 0.434538
vt 0.175210 -0.999001
v -1559.077393 -847.270203 2594.794189
vn 0.981847 -0.063864 0.178597
vt 0.596580 0.117761
v -1564.120972 -883.164307 2615.540771
vn 0.985185 -0.042381 0.166174
vt 0.450321 0.337343
v -1823.142456 -805.694580 2602.531250
vn 0.112055 0.862718 -0.493114
vt 0.090405 -0.599401
v -1559.077393 -847.270203 2594.794189
vn 0.131162 0.907382 -0.399318
vt 0.090405 -0.999001
v -2087.207275 -764.118896 2610.268555
vn 0.120761 0.859449 -0.496754
vt 0.090405 -0.199800
v -2351.272217 -722.543274 2618.005615
vn 0.120761 0.859449 -0.496754
vt 0.090405 0.199800
v -2615.337402 -680.967590 2625.742676
vn 0.120761 0.859449 -0.496754
vt 0.090405 0.599401
v -2879.402344 -639.391907 2633.479736
vn 0.120761 0.859449 -0.496754
vt 0.090405 0.999001
v -2884.445801 -675.286011 2654.226318
vn -0.987418 0.155464 0.028931
vt 0.450321 0.337343
v -2879.402344 -639.391907 2633.479736
vn -0.987418 0.155464 0.028931
vt 0.596580 0.117761
v -2610.406738 -663.926147 2702.450684
vn -0.058269 -0.527784 0.847378
vt -0.009360 0.599401
v -2874.471680 -622.350525 2710.187744
vn -0.058269 -0.527784 0.847378
vt -0.009360 0.999001
v -2346.341797 -705.501831 2694.713623
vn -0.058269 -0.527784 0.847378
vt -0.009360 0.199800
v -2082.276855 -747.077515 2686.976318
vn -0.058269 -0.527784 0.847378
vt -0.009360 -0.199800
v -1818.211792 -788.653137 2679.239258
vn -0.072324 -0.531472 0.843983
vt -0.009360 -0.599401
v -1554.146851 -830.228821 2671.502197
vn -0.070848 -0.598491 0.797991
vt -0.009360 -0.999001
v -1551.713257 -808.186401 2636.112305
vn 0.995287 0.035197 0.090362
vt 0.352989 -0.150411
v -1554.146851 -830.228821 2671.502197
vn 0.996554 0.051624 0.064916
vt 0.120399 -0.025872
v -1815.778198 -766.610718 2643.849365
vn 0.058269 0.527784 -0.847378
vt -0.072707 -0.599401
v -1551.713257 -808.186401 2636.112305
vn 0.090692 0.612333 -0.785381
vt -0.072707 -0.999001
v -2079.843262 -725.035034 2651.586426
vn 0.058269 0.527784 -0.847378
vt -0.072707 -0.199800
v -2343.908203 -683.459412 2659.323486
vn 0.058269 0.527784 -0.847378
vt -0.072707 0.199800
v -2607.973145 -641.883728 2667.060791
vn 0.058269 0.527784 -0.847378
vt -0.072707 0.599401
v -2872.038086 -600.308105 2674.797852
vn 0.058269 0.527784 -0.847378
vt -0.072707 0.999001
v -2874.471680 -622.350525 2710.187744
vn -0.987418 0.155464 0.028931
vt 0.120399 -0.025872
v -2872.038086 -600.308105 2674.797852
vn -0.987418 0.155464 0.028931
vt 0.352989 -0.150411
v -2874.471680 -622.350525 2710.187744
vn -0.058269 -0.527784 0.847378
vt 1.990640 0.999001
v -2610.406738 -663.926147 2702.450684
vn -0.058269 -0.527784 0.847378
vt 1.990640 0.599401
v -2598.229980 -591.039612 2726.379883
vn -0.020746 -0.308730 0.950924
vt 1.851828 0.599401
v -2862.294922 -549.463928 2734.116943
vn -0.020746 -0.308730 0.950924
vt 1.851828 0.999001
v -2346.341797 -705.501831 2694.713623
vn -0.058269 -0.527784 0.847378
vt 1.990640 0.199800
v -2334.165039 -632.615295 2718.642822
vn -0.020746 -0.308730 0.950924
vt 1.851828 0.199800
v -2082.276855 -747.077515 2686.976318
vn -0.058269 -0.527784 0.847378
vt 1.990640 -0.199800
v -2070.100098 -674.190918 2710.905762
vn -0.020746 -0.308730 0.950924
vt 1.851828 -0.199800
v -1818.211792 -788.653137 2679.239258
vn -0.072324 -0.531472 0.843983
vt 1.990640 -0.599401
v -1806.035034 -715.766602 2703.168457
vn -0.064123 -0.301599 0.951276
vt 1.851828 -0.599401
v -1554.146851 -830.228821 2671.502197
vn -0.070848 -0.598491 0.797991
vt 1.990640 -0.999001
v -1637.689331 -745.107788 2702.621582
vn -0.054373 -0.347259 0.936192
vt 1.851828 -0.999001
v -1638.442017 -742.137634 2660.970215
vn 0.573293 0.743665 -0.343944
vt 0.264832 -0.501811
v -1637.689331 -745.107788 2702.621582
vn 0.686237 0.726311 0.039390
vt 0.000999 -0.501811
v -1551.713257 -808.186401 2636.112305
vn 0.090692 0.612333 -0.785381
vt 1.927293 -0.999001
v -1815.778198 -766.610718 2643.849365
vn 0.058269 0.527784 -0.847378
vt 1.927293 -0.599401
v -1806.787842 -712.796448 2661.517090
vn 0.033077 0.321762 -0.946243
vt 1.809352 -0.599401
v -1638.442017 -742.137634 2660.970215
vn 0.573293 0.743665 -0.343944
vt 1.809352 -0.999001
v -2079.843262 -725.035034 2651.586426
vn 0.058269 0.527784 -0.847378
vt 1.927293 -0.199800
v -2070.852783 -671.220764 2669.254150
vn 0.112782 0.820594 -0.560273
vt 1.809352 -0.199800
v -2343.908203 -683.459412 2659.323486
vn 0.058269 0.527784 -0.847378
vt 1.927293 0.199800
v -2334.917725 -629.645142 2676.991211
vn 0.112782 0.820594 -0.560273
vt 1.809352 0.199800
v -2607.973145 -641.883728 2667.060791
vn 0.058269 0.527784 -0.847378
vt 1.927293 0.599401
v -2598.982666 -588.069458 2684.728271
vn 0.112782 0.820594 -0.560273
vt 1.809352 0.599401
v -2872.038086 -600.308105 2674.797852
vn 0.058269 0.527784 -0.847378
vt 1.927293 0.999001
v -2863.047607 -546.493835 2692.465576
vn 0.112782 0.820594 -0.560273
vt 1.809352 0.999001
v -2862.294922 -549.463928 2734.116943
vn -0.987418 0.155464 0.028931
vt 0.000999 -0.501811
v -2863.047607 -546.493835 2692.465576
vn -0.987418 0.155464 0.028931
vt 0.264832 -0.501811
v -1553.066040 -764.806335 2377.059326
vn 0.150137 0.980845 -0.124101
vt 1.095609 -0.999001
v -1816.520142 -723.279602 2385.688965
vn 0.149654 0.980036 -0.130893
vt 1.095609 -0.599401
v -2080.584961 -681.703918 2393.426270
vn 0.150777 0.980746 -0.124113
vt 1.095609 -0.199800
v -2344.649902 -640.128296 2401.163330
vn 0.150777 0.980746 -0.124113
vt 1.095609 0.199800
v -2608.715088 -598.552612 2408.900391
vn 0.150777 0.980746 -0.124113
vt 1.095609 0.599401
v -2872.780029 -556.976990 2416.637451
vn 0.150777 0.980746 -0.124113
vt 1.095609 0.999001
v -1806.035034 -715.766602 2703.168457
vn 0.161289 0.986868 0.008796
vt 1.851828 -0.599401
v -1637.689331 -745.107788 2702.621582
vn 0.686237 0.726311 0.039390
vt 1.851828 -0.999001
v -2070.100098 -674.190918 2710.905762
vn 0.155541 0.987829 0.000413
vt 1.851828 -0.199800
v -2334.165039 -632.615295 2718.642822
vn 0.155541 0.987829 0.000413
vt 1.851828 0.199800
v -2598.229980 -591.039612 2726.379883
vn 0.155541 0.987829 0.000413
vt 1.851828 0.599401
v -2862.294922 -549.463928 2734.116943
vn 0.157357 0.985239 0.067406
vt 1.851828 0.999001
v -1806.787842 -712.796448 2661.517090
vn 0.181787 0.943573 0.276809
vt 1.809352 -0.599401
f 114/114/114 131/131/131 132/132/132
f 131/131/131 114/114/114 133/133/133
f 114/114/114 134/134/134 133/133/133
f 134/134/134 114/114/114 135/135/135
f 114/114/114 136/136/136 135/135/135
f 136/136/136 114/114/114 137/137/137
f 116/116/116 136/136/136 137/137/137
f 136/136/136 116/116/116 118/118/118
f 120/120/120 136/136/136 118/118/118
f 136/136/136 120/120/120 122/122/122
f 121/121/121 122/122/122 119/119/119
f 120/120/120 119/119/119 122/122/122
f 119/119/119 120/120/120 117/117/117
f 118/118/118 117/117/117 120/120/120
f 117/117/117 118/118/118 115/115/115
f 116/116/116 115/115/115 118/118/118
f 115/115/115 116/116/116 112/112/112
f 113/113/113 112/112/112 116/116/116
f 112/112/112 113/113/113 111/111/111
f 114/114/114 111/111/111 113/113/113
f 12/12/12 9/9/9 11/11/11
f 9/9/9 12/12/12 10/10/10
f 38/38/38 10/10/10 12/12/12
f 10/10/10 38/38/38 37/37/37
f 54/54/54 37/37/37 38/38/38
f 37/37/37 54/54/54 53/53/53
f 70/70/70 53/53/53 54/54/54
f 53/53/53 70/70/70 69/69/69
f 86/86/86 69/69/69 70/70/70
f 69/69/69 86/86/86 85/85/85
f 10/10/10 7/7/7 9/9/9
f 7/7/7 10/10/10 8/8/8
f 37/37/37 8/8/8 10/10/10
f 8/8/8 37/37/37 36/36/36
f 53/53/53 36/36/36 37/37/37
f 36/36/36 53/53/53 52/52/52
f 69/69/69 52/52/52 53/53/53
f 52/52/52 69/69/69 68/68/68
f 85/85/85 68/68/68 69/69/69
f 68/68/68 85/85/85 84/84/84
f 8/8/8 5/5/5 7/7/7
f 5/5/5 8/8/8 6/6/6
f 36/36/36 6/6/6 8/8/8
f 6/6/6 36/36/36 35/35/35
f 52/52/52 35/35/35 36/36/36
f 35/35/35 52/52/52 51/51/51
f 68/68/68 51/51/51 52/52/52
f 51/51/51 68/68/68 67/67/67
f 84/84/84 67/67/67 68/68/68
f 67/67/67 84/84/84 83/83/83
f 6/6/6 2/2/2 5/5/5
f 2/2/2 6/6/6 3/3/3
f 35/35/35 3/3/3 6/6/6
f 3/3/3 35/35/35 33/33/33
f 51/51/51 33/33/33 35/35/35
f 33/33/33 51/51/51 49/49/49
f 67/67/67 49/49/49 51/51/51
f 49/49/49 67/67/67 65/65/65
f 83/83/83 65/65/65 67/67/67
f 65/65/65 83/83/83 81/81/81
f 3/3/3 1/1/1 2/2/2
f 1/1/1 3/3/3 4/4/4
f 33/33/33 4/4/4 3/3/3
f 4/4/4 33/33/33 34/34/34
f 49/49/49 34/34/34 33/33/33
f 34/34/34 49/49/49 50/50/50
f 65/65/65 50/50/50 49/49/49
f 50/50/50 65/65/65 66/66/66
f 81/81/81 66/66/66 65/65/65
f 66/66/66 81/81/81 82/82/82
f 25/25/25 27/27/27 28/28/28
f 27/27/27 25/25/25 125/125/125
f 23/23/23 125/125/125 25/25/25
f 125/125/125 23/23/23 21/21/21
f 24/24/24 21/21/21 23/23/23
f 21/21/21 24/24/24 22/22/22
f 44/44/44 22/22/22 24/24/24
f 22/22/22 44/44/44 43/43/43
f 60/60/60 43/43/43 44/44/44
f 43/43/43 60/60/60 59/59/59
f 76/76/76 59/59/59 60/60/60
f 59/59/59 76/76/76 75/75/75
f 92/92/92 75/75/75 76/76/76
f 75/75/75 92/92/92 91/91/91
f 26/26/26 23/23/23 25/25/25
f 23/23/23 26/26/26 24/24/24
f 45/45/45 24/24/24 26/26/26
f 24/24/24 45/45/45 44/44/44
f 61/61/61 44/44/44 45/45/45
f 44/44/44 61/61/61 60/60/60
f 77/77/77 60/60/60 61/61/61
f 60/60/60 77/77/77 76/76/76
f 93/93/93 76/76/76 77/77/77
f 76/76/76 93/93/93 92/92/92
f 125/125/125 21/21/21 18/18/18
f 22/22/22 18/18/18 21/21/21
f 18/18/18 22/22/22 19/19/19
f 43/43/43 19/19/19 22/22/22
f 19/19/19 43/43/43 41/41/41
f 59/59/59 41/41/41 43/43/43
f 41/41/41 59/59/59 57/57/57
f 75/75/75 57/57/57 59/59/59
f 57/57/57 75/75/75 73/73/73
f 91/91/91 73/73/73 75/75/75
f 73/73/73 91/91/91 89/89/89
f 125/125/125 18/18/18 17/17/17
f 19/19/19 17/17/17 18/18/18
f 17/17/17 19/19/19 20/20/20
f 41/41/41 20/20/20 19/19/19
f 20/20/20 41/41/41 42/42/42
f 57/57/57 42/42/42 41/41/41
f 42/42/42 57/57/57 58/58/58
f 73/73/73 58/58/58 57/57/57
f 58/58/58 73/73/73 74/74/74
f 89/89/89 74/74/74 73/73/73
f 74/74/74 89/89/89 90/90/90
f 77/77/77 94/94/94 93/93/93
f 94/94/94 77/77/77 78/78/78
f 61/61/61 78/78/78 77/77/77
f 78/78/78 61/61/61 62/62/62
f 45/45/45 62/62/62 61/61/61
f 62/62/62 45/45/45 46/46/46
f 26/26/26 46/46/46 45/45/45
f 46/46/46 26/26/26 28/28/28
f 25/25/25 28/28/28 26/26/26
f 15/15/15 13/13/13 14/14/14
f 13/13/13 15/15/15 16/16/16
f 39/39/39 16/16/16 15/15/15
f 16/16/16 39/39/39 40/40/40
f 55/55/55 40/40/40 39/39/39
f 40/40/40 55/55/55 56/56/56
f 71/71/71 56/56/56 55/55/55
f 56/56/56 71/71/71 72/72/72
f 87/87/87 72/72/72 71/71/71
f 72/72/72 87/87/87 88/88/88
f 109/109/109 88/88/88 87/87/87
f 88/88/88 109/109/109 110/110/110
f 107/107/107 108/108/108 105/105/105
f 106/106/106 105/105/105 108/108/108
f 105/105/105 106/106/106 103/103/103
f 104/104/104 103/103/103 106/106/106
f 103/103/103 104/104/104 101/101/101
f 102/102/102 101/101/101 104/104/104
f 101/101/101 102/102/102 98/98/98
f 99/99/99 98/98/98 102/102/102
f 98/98/98 99/99/99 97/97/97
f 100/100/100 97/97/97 99/99/99
f 31/31/31 29/29/29 30/30/30
f 29/29/29 31/31/31 32/32/32
f 47/47/47 32/32/32 31/31/31
f 32/32/32 47/47/47 48/48/48
f 63/63/63 48/48/48 47/47/47
f 48/48/48 63/63/63 64/64/64
f 79/79/79 64/64/64 63/63/63
f 64/64/64 79/79/79 80/80/80
f 95/95/95 80/80/80 79/79/79
f 80/80/80 95/95/95 96/96/96
f 123/123/123 96/96/96 95/95/95
f 96/96/96 123/123/123 124/124/124
f 126/126/126 27/27/27 125/125/125
f 27/27/27 126/126/126 127/127/127
f 27/27/27 127/127/127 128/128/128
f 129/129/129 27/27/27 128/128/128
f 27/27/27 129/129/129 130/130/130
