mtllib CH09_SMAUG_PLAYSURFACE_LONELYMOUNTAIN_LM_PLAYSURFACE32.mtl
g M_playsurface32
usemtl fbyu
v -1135.429321 424.285187 -7361.369629
vn 0.379295 0.869838 -0.315462
vt 0.000000 0.000000
v -1178.262451 407.553131 -7347.792969
vn -0.540335 0.723055 0.430382
vt 0.000000 0.181818
v -1167.543091 395.882324 -7326.225098
vn -0.395940 0.679103 0.618103
vt 0.090909 0.181818
v -1135.429321 424.285187 -7361.369629
vn 0.379295 0.869838 -0.315462
vt 0.090909 0.000000
v -1145.334229 399.602875 -7316.958008
vn -0.134143 0.673539 0.726878
vt 0.181818 0.181818
v -1135.429321 424.285187 -7361.369629
vn 0.379295 0.869838 -0.315462
vt 0.181818 0.000000
v -1122.253418 403.543549 -7319.863770
vn 0.448153 0.582950 0.677737
vt 0.272727 0.181818
v -1135.429321 424.285187 -7361.369629
vn 0.379295 0.869838 -0.315462
vt 0.272727 0.000000
v -1109.646240 395.237640 -7330.173828
vn 0.954103 0.269472 0.130661
vt 0.363636 0.181818
v -1135.429321 424.285187 -7361.369629
vn 0.379295 0.869838 -0.315462
vt 0.363636 0.000000
v -1110.504395 377.280945 -7345.828613
vn 0.922351 0.028068 -0.385333
vt 0.454545 0.181818
v -1135.429321 424.285187 -7361.369629
vn 0.379295 0.869838 -0.315462
vt 0.454545 0.000000
v -1122.240723 363.419769 -7363.938477
vn 0.733247 -0.031710 -0.679223
vt 0.545455 0.181818
v -1135.429321 424.285187 -7361.369629
vn 0.379295 0.869838 -0.315462
vt 0.545455 0.000000
v -1139.252808 367.080688 -7380.224609
vn 0.505737 -0.007191 -0.862658
vt 0.636364 0.181818
v -1135.429321 424.285187 -7361.369629
vn 0.379295 0.869838 -0.315462
vt 0.636364 0.000000
v -1158.283569 381.861450 -7387.398926
vn 0.165555 0.120632 -0.978795
vt 0.727273 0.181818
v -1135.429321 424.285187 -7361.369629
vn 0.379295 0.869838 -0.315462
vt 0.727273 0.000000
v -1172.497803 401.292694 -7384.286621
vn -0.334316 0.443819 -0.831419
vt 0.818182 0.181818
v -1135.429321 424.285187 -7361.369629
vn 0.379295 0.869838 -0.315462
vt 0.818182 0.000000
v -1179.435425 411.144073 -7370.109375
vn -0.664042 0.725110 -0.182383
vt 0.909091 0.181818
v -1135.429321 424.285187 -7361.369629
vn 0.379295 0.869838 -0.315462
vt 0.909091 0.000000
v -1178.262451 407.553131 -7347.792969
vn -0.540335 0.723055 0.430382
vt 1.000000 0.181818
v -1213.591553 294.669739 -7280.952148
vn -0.547245 0.481849 0.684357
vt 0.090909 0.363636
v -1235.514526 307.442810 -7315.006836
vn -0.788019 0.490345 0.372273
vt 0.000000 0.363636
v -1178.252808 297.615326 -7261.372559
vn -0.162989 0.437880 0.884135
vt 0.181818 0.363636
v -1145.238647 286.635010 -7261.136719
vn 0.375674 0.282661 0.882594
vt 0.272727 0.363636
v -1121.151001 275.937408 -7279.752930
vn 0.875327 0.029735 0.482617
vt 0.363636 0.363636
v -1118.556763 253.108627 -7311.077637
vn 0.979522 -0.173905 -0.101457
vt 0.454545 0.363636
v -1135.120972 236.907501 -7346.359375
vn 0.748880 -0.246694 -0.615078
vt 0.545455 0.363636
v -1167.168091 245.104355 -7371.410645
vn 0.429673 -0.236270 -0.871526
vt 0.636364 0.363636
v -1199.081177 268.999542 -7385.314453
vn 0.004640 -0.116603 -0.993168
vt 0.727273 0.363636
v -1222.936279 305.607513 -7380.618164
vn -0.557153 0.139093 -0.818678
vt 0.818182 0.363636
v -1236.609985 314.840240 -7354.734375
vn -0.889987 0.389406 -0.237249
vt 0.909091 0.363636
v -1235.514526 307.442810 -7315.006836
vn -0.788019 0.490345 0.372273
vt 1.000000 0.363636
v -1283.098389 94.161446 -7215.295410
vn -0.574745 0.390811 0.718982
vt 0.090909 0.545455
v -1315.648315 98.328911 -7253.072754
vn -0.851577 0.378314 0.362899
vt 0.000000 0.545455
v -1244.765503 79.340919 -7185.062012
vn -0.195275 0.323766 0.925766
vt 0.181818 0.545455
v -1212.733643 43.007744 -7179.359375
vn 0.337495 0.155989 0.928313
vt 0.272727 0.545455
v -1181.877563 28.775024 -7199.605957
vn 0.819717 -0.091590 0.565398
vt 0.363636 0.545455
v -1175.621826 7.301805 -7241.915039
vn 0.955224 -0.295751 -0.008828
vt 0.454545 0.545455
v -1192.285522 -0.577763 -7290.093262
vn 0.728641 -0.380163 -0.569700
vt 0.545455 0.545455
v -1234.804321 12.121033 -7318.610840
vn 0.331282 -0.344982 -0.878203
vt 0.636364 0.545455
v -1271.778809 48.086166 -7339.269043
vn -0.090131 -0.239405 -0.966727
vt 0.727273 0.545455
v -1300.369019 93.877846 -7335.027344
vn -0.647632 -0.000978 -0.761953
vt 0.818182 0.545455
v -1317.319702 105.694778 -7302.773438
vn -0.944647 0.245791 -0.217320
vt 0.909091 0.545455
v -1315.648315 98.328911 -7253.072754
vn -0.851577 0.378314 0.362899
vt 1.000000 0.545455
v -1357.915161 -164.466965 -7148.856934
vn -0.720819 -0.142136 0.678393
vt 0.090909 0.727273
v -1382.985229 -162.362701 -7181.982422
vn -0.917906 -0.180241 0.353499
vt 0.000000 0.727273
v -1324.288452 -176.906815 -7126.570313
vn -0.480752 -0.197204 0.854393
vt 0.181818 0.727273
v -1293.577026 -195.691132 -7126.338379
vn -0.084314 -0.333056 0.939130
vt 0.272727 0.727273
v -1271.060303 -214.828461 -7139.987305
vn 0.302642 -0.564807 0.767725
vt 0.363636 0.727273
v -1266.916382 -230.355179 -7173.404297
vn 0.535785 -0.795994 0.281652
vt 0.454545 0.727273
v -1281.040894 -237.288940 -7212.552734
vn 0.399652 -0.898736 -0.180420
vt 0.545455 0.727273
v -1313.719604 -228.725800 -7238.829102
vn 0.014247 -0.836158 -0.548304
vt 0.636364 0.727273
v -1348.902954 -210.469162 -7251.076660
vn -0.329799 -0.722219 -0.607974
vt 0.727273 0.727273
v -1378.329468 -188.490173 -7241.865723
vn -0.735556 -0.513307 -0.442123
vt 0.818182 0.727273
v -1390.018311 -171.816132 -7217.429688
vn -0.951688 -0.301744 -0.056933
vt 0.909091 0.727273
v -1382.985229 -162.362701 -7181.982422
vn -0.917906 -0.180241 0.353499
vt 1.000000 0.727273
v -1328.643555 -197.486664 -7186.430664
vn -0.499203 -0.805508 0.319302
vt 0.000000 0.909091
v -1328.643555 -197.486664 -7186.430664
vn -0.499203 -0.805508 0.319302
vt 0.090909 0.909091
v -1328.643555 -197.486664 -7186.430664
vn -0.499203 -0.805508 0.319302
vt 0.181818 0.909091
v -1328.643555 -197.486664 -7186.430664
vn -0.499203 -0.805508 0.319302
vt 0.272727 0.909091
v -1328.643555 -197.486664 -7186.430664
vn -0.499203 -0.805508 0.319302
vt 0.363636 0.909091
v -1328.643555 -197.486664 -7186.430664
vn -0.499203 -0.805508 0.319302
vt 0.454545 0.909091
v -1328.643555 -197.486664 -7186.430664
vn -0.499203 -0.805508 0.319302
vt 0.545455 0.909091
v -1328.643555 -197.486664 -7186.430664
vn -0.499203 -0.805508 0.319302
vt 0.636364 0.909091
v -1328.643555 -197.486664 -7186.430664
vn -0.499203 -0.805508 0.319302
vt 0.727273 0.909091
v -1328.643555 -197.486664 -7186.430664
vn -0.499203 -0.805508 0.319302
vt 0.818182 0.909091
v -1328.643555 -197.486664 -7186.430664
vn -0.499203 -0.805508 0.319302
vt 0.909091 0.909091
f 10/10/10 9/9/9 11/11/11
f 8/8/8 7/7/7 9/9/9
f 12/12/12 11/11/11 13/13/13
f 14/14/14 13/13/13 15/15/15
f 16/16/16 15/15/15 17/17/17
f 21/21/21 35/35/35 23/23/23
f 35/35/35 21/21/21 34/34/34
f 19/19/19 34/34/34 21/21/21
f 34/34/34 19/19/19 33/33/33
f 17/17/17 33/33/33 19/19/19
f 33/33/33 17/17/17 32/32/32
f 15/15/15 32/32/32 17/17/17
f 32/32/32 15/15/15 31/31/31
f 13/13/13 31/31/31 15/15/15
f 31/31/31 13/13/13 30/30/30
f 11/11/11 30/30/30 13/13/13
f 30/30/30 11/11/11 29/29/29
f 9/9/9 29/29/29 11/11/11
f 29/29/29 9/9/9 28/28/28
f 7/7/7 28/28/28 9/9/9
f 28/28/28 7/7/7 27/27/27
f 5/5/5 27/27/27 7/7/7
f 27/27/27 5/5/5 26/26/26
f 18/18/18 17/17/17 19/19/19
f 20/20/20 19/19/19 21/21/21
f 6/6/6 5/5/5 7/7/7
f 34/34/34 47/47/47 35/35/35
f 47/47/47 34/34/34 46/46/46
f 33/33/33 46/46/46 34/34/34
f 46/46/46 33/33/33 45/45/45
f 32/32/32 45/45/45 33/33/33
f 45/45/45 32/32/32 44/44/44
f 31/31/31 44/44/44 32/32/32
f 44/44/44 31/31/31 43/43/43
f 30/30/30 43/43/43 31/31/31
f 43/43/43 30/30/30 42/42/42
f 29/29/29 42/42/42 30/30/30
f 42/42/42 29/29/29 41/41/41
f 28/28/28 41/41/41 29/29/29
f 41/41/41 28/28/28 40/40/40
f 27/27/27 40/40/40 28/28/28
f 40/40/40 27/27/27 39/39/39
f 26/26/26 39/39/39 27/27/27
f 39/39/39 26/26/26 38/38/38
f 58/58/58 45/45/45 57/57/57
f 45/45/45 58/58/58 46/46/46
f 59/59/59 46/46/46 58/58/58
f 46/46/46 59/59/59 47/47/47
f 69/69/69 58/58/58 57/57/57
f 70/70/70 59/59/59 58/58/58
f 48/48/48 37/37/37 49/49/49
f 37/37/37 48/48/48 36/36/36
f 50/50/50 36/36/36 48/48/48
f 36/36/36 50/50/50 38/38/38
f 51/51/51 38/38/38 50/50/50
f 38/38/38 51/51/51 39/39/39
f 52/52/52 39/39/39 51/51/51
f 39/39/39 52/52/52 40/40/40
f 53/53/53 40/40/40 52/52/52
f 40/40/40 53/53/53 41/41/41
f 54/54/54 41/41/41 53/53/53
f 41/41/41 54/54/54 42/42/42
f 55/55/55 42/42/42 54/54/54
f 42/42/42 55/55/55 43/43/43
f 56/56/56 43/43/43 55/55/55
f 43/43/43 56/56/56 44/44/44
f 57/57/57 44/44/44 56/56/56
f 44/44/44 57/57/57 45/45/45
f 60/60/60 48/48/48 49/49/49
f 61/61/61 50/50/50 48/48/48
f 62/62/62 51/51/51 50/50/50
f 63/63/63 52/52/52 51/51/51
f 64/64/64 53/53/53 52/52/52
f 65/65/65 54/54/54 53/53/53
f 66/66/66 55/55/55 54/54/54
f 67/67/67 56/56/56 55/55/55
f 68/68/68 57/57/57 56/56/56
f 24/24/24 38/38/38 26/26/26
f 38/38/38 24/24/24 36/36/36
f 25/25/25 36/36/36 24/24/24
f 36/36/36 25/25/25 37/37/37
f 3/3/3 26/26/26 5/5/5
f 26/26/26 3/3/3 24/24/24
f 2/2/2 24/24/24 3/3/3
f 24/24/24 2/2/2 25/25/25
f 1/1/1 2/2/2 3/3/3
f 4/4/4 3/3/3 5/5/5
f 22/22/22 21/21/21 23/23/23
