mtllib CH09_SMAUG_PLAYSURFACE_LAIR107.mtl
g lair107
usemtl Material_#67482
v 268.766785 -2.892424 -3548.360107
vn -0.999999 0.001195 -0.000014
vt -2.172683 1.000000
v 268.859375 74.528961 -3550.014404
vn -1.000000 0.000665 -0.000008
vt -2.171731 0.000000
v 268.859314 73.277260 -3655.726807
vn -1.000000 0.000665 -0.000008
vt -2.102165 0.000000
v 268.766754 -4.144129 -3654.072510
vn -0.999999 0.001195 -0.000014
vt -2.103117 1.000000
v -125.481941 74.528961 -3550.013916
vn 1.000000 0.000665 -0.000009
vt -1.588881 0.000000
v -125.389336 -2.892424 -3548.359863
vn 0.999999 0.001196 -0.000015
vt -1.590107 1.000000
v -125.389381 -4.144129 -3654.072266
vn 0.999999 0.001196 -0.000015
vt -1.520541 1.000000
v -125.481987 73.277260 -3655.726318
vn 1.000000 0.000488 -0.000006
vt -1.519316 0.000000
v 268.859222 69.540947 -3971.286377
vn -1.000000 0.000488 -0.000005
vt -1.894507 0.000000
v 268.766632 -7.880443 -3969.632080
vn -0.999999 0.001195 -0.000014
vt -1.895459 1.000000
v -125.389481 -7.880443 -3969.631836
vn 0.999999 0.001196 -0.000014
vt -1.312883 1.000000
v -125.482086 69.540947 -3971.285889
vn 1.000000 0.000665 -0.000008
vt -1.311658 0.000000
v 268.859039 63.041943 -4520.196777
vn -1.000000 0.000665 -0.000008
vt -1.533290 0.000000
v 268.766449 -14.379442 -4518.542480
vn -0.999999 0.001195 -0.000014
vt -1.534242 1.000000
v -125.389664 -14.379442 -4518.542480
vn 0.995468 0.003222 0.095046
vt -0.951666 1.000000
v -125.482269 63.041943 -4520.196777
vn 0.995545 0.001790 0.094270
vt -0.950440 0.000000
v 229.294052 58.127663 -5066.110352
vn -0.921986 0.000826 0.387223
vt -1.115566 0.000000
v 230.298050 -19.293726 -5064.792480
vn -0.922367 -0.005386 0.386278
vt -1.117917 1.000000
v -69.420609 -19.293736 -4808.808594
vn 0.973698 0.004176 -0.227802
vt -0.843376 1.000000
v -70.565399 58.127651 -4810.006348
vn 0.973195 0.005653 -0.229911
vt -0.840896 0.000000
v -2.192106 54.693104 -5328.567383
vn -0.639746 0.000692 0.768586
vt -0.600709 0.000000
v -0.838285 -22.728285 -5327.612305
vn -0.640334 -0.001722 0.768095
vt -0.603338 1.000000
v -209.709229 -22.728298 -4993.349121
vn 0.700668 0.002610 -0.713483
vt -0.514586 1.000000
v -211.161163 54.693089 -4994.147461
vn 0.699421 0.003025 -0.714704
vt -0.511915 0.000000
v -247.265396 51.998283 -5475.622070
vn -0.382067 0.000709 0.924134
vt -0.141711 0.000000
v -245.691483 -25.423101 -5475.104492
vn -0.382903 -0.001608 0.923787
vt -0.144378 1.000000
v -347.706665 -25.423119 -5094.378906
vn 0.464932 0.002788 -0.885342
vt -0.244137 1.000000
v -349.328552 51.998268 -5094.717773
vn 0.463095 0.003073 -0.886303
vt -0.241517 0.000000
v -524.624329 49.303463 -5544.598633
vn -0.104237 0.000600 0.994552
vt 0.313626 0.000000
v -522.967896 -28.117924 -5544.563965
vn -0.105064 -0.001803 0.994464
vt 0.311155 1.000000
v -509.212097 -28.117941 -5150.647949
vn 0.149580 0.002012 -0.988748
vt 0.031602 1.000000
v -510.862183 49.303448 -5150.497559
vn 0.148204 0.002652 -0.988953
vt 0.033942 0.000000
v -908.181702 44.759274 -5531.204590
vn -0.198236 -0.002112 0.980152
vt 0.871722 0.000000
v -906.525330 -32.662113 -5531.169922
vn -0.197939 -0.003796 0.980207
vt 0.869251 1.000000
v -892.769531 -32.662128 -5137.253906
vn 0.164000 0.005411 -0.986445
vt 0.589698 1.000000
v -894.419556 44.759258 -5137.103516
vn 0.164631 0.003012 -0.986351
vt 0.592038 0.000000
v -1088.143311 38.894043 -5614.539063
vn -0.631869 -0.003292 0.775068
vt 1.192551 0.000000
v -1086.906250 -38.527344 -5613.437012
vn -0.629595 0.000999 0.776923
vt 1.189997 1.000000
v -1332.274414 -38.527359 -5304.966797
vn 0.607114 0.008466 -0.794570
vt 1.349667 1.000000
v -1333.626709 38.894028 -5305.923828
vn 0.608581 0.000884 -0.793491
vt 1.352296 0.000000
v -1217.282471 34.410652 -5789.177734
vn -0.882215 -0.000541 0.470846
vt 1.498346 0.000000
v -1216.817383 -43.010735 -5787.587402
vn -0.881178 0.004418 0.472764
vt 1.496612 1.000000
v -1588.365356 -43.010742 -5656.015137
vn 0.905931 0.005131 -0.423395
vt 1.959190 1.000000
v -1589.005005 34.410648 -5657.543457
vn 0.906643 -0.000133 -0.421898
vt 1.961141 0.000000
v -1263.663696 29.404066 -5918.586426
vn -0.988736 0.000925 0.149667
vt 1.652058 0.000000
v -1263.828247 -48.017323 -5916.937988
vn -0.988410 0.005331 0.151711
vt 1.651216 1.000000
v -1657.609253 -48.017319 -5934.130371
vn 0.994979 0.002246 -0.100057
vt 2.244552 1.000000
v -1657.629761 29.404066 -5935.787109
vn 0.995096 -0.000798 -0.098910
vt 2.245672 0.000000
v -1247.421631 24.995392 -6290.592285
vn -0.999048 0.000663 -0.043627
vt 1.872855 0.000000
v -1247.586182 -52.425995 -6288.943848
vn -0.999047 0.001194 -0.043633
vt 1.872013 1.000000
v -1641.367188 -52.425995 -6306.136230
vn 0.999048 0.001198 0.043605
vt 2.465349 1.000000
v -1641.387695 24.995392 -6307.792969
vn 0.999048 0.000668 0.043612
vt 2.466469 0.000000
v -1230.904297 20.512009 -6668.903320
vn -0.999048 0.000663 -0.043627
vt 2.097394 0.000000
v -1231.068848 -56.909378 -6667.254883
vn -0.999047 0.001194 -0.043633
vt 2.096552 1.000000
v -1624.849854 -56.909378 -6684.447266
vn 0.999048 0.001198 0.043605
vt 2.689888 1.000000
v -1624.870361 20.512011 -6686.104004
vn 0.999048 0.000668 0.043611
vt 2.691008 0.000000
v -1223.471558 18.494438 -6839.143555
vn -0.999048 0.000663 -0.043627
vt 2.198436 0.000000
v -1223.636108 -58.926949 -6837.495117
vn -0.999047 0.001194 -0.043633
vt 2.197595 1.000000
v -1617.417114 -58.926949 -6854.687500
vn 0.999048 0.001198 0.043604
vt 2.790931 1.000000
v -1617.437622 18.494438 -6856.344238
vn 0.999048 0.000668 0.043611
vt 2.792051 0.000000
v -1209.982544 14.833076 -7177.803223
vn -0.999207 0.000709 -0.039807
vt 2.401358 0.000000
v -1210.147095 -62.588310 -7176.154785
vn -0.999206 0.001276 -0.039813
vt 2.400517 1.000000
v -1603.928101 -62.588310 -7163.641602
vn 0.999048 0.001198 0.043605
vt 2.974304 1.000000
v -1603.948608 14.833076 -7165.298340
vn 0.999048 0.000668 0.043611
vt 2.975425 0.000000
f 41/41/41 38/38/38 37/37/37
f 38/38/38 41/41/41 42/42/42
f 45/45/45 42/42/42 41/41/41
f 42/42/42 45/45/45 46/46/46
f 49/49/49 46/46/46 45/45/45
f 46/46/46 49/49/49 50/50/50
f 53/53/53 50/50/50 49/49/49
f 50/50/50 53/53/53 54/54/54
f 57/57/57 54/54/54 53/53/53
f 54/54/54 57/57/57 58/58/58
f 61/61/61 58/58/58 57/57/57
f 58/58/58 61/61/61 62/62/62
f 3/3/3 1/1/1 2/2/2
f 1/1/1 3/3/3 4/4/4
f 9/9/9 4/4/4 3/3/3
f 4/4/4 9/9/9 10/10/10
f 13/13/13 10/10/10 9/9/9
f 10/10/10 13/13/13 14/14/14
f 17/17/17 14/14/14 13/13/13
f 14/14/14 17/17/17 18/18/18
f 21/21/21 18/18/18 17/17/17
f 18/18/18 21/21/21 22/22/22
f 25/25/25 22/22/22 21/21/21
f 22/22/22 25/25/25 26/26/26
f 29/29/29 26/26/26 25/25/25
f 26/26/26 29/29/29 30/30/30
f 33/33/33 30/30/30 29/29/29
f 30/30/30 33/33/33 34/34/34
f 37/37/37 34/34/34 33/33/33
f 34/34/34 37/37/37 38/38/38
f 7/7/7 5/5/5 6/6/6
f 5/5/5 7/7/7 8/8/8
f 11/11/11 8/8/8 7/7/7
f 8/8/8 11/11/11 12/12/12
f 15/15/15 12/12/12 11/11/11
f 12/12/12 15/15/15 16/16/16
f 19/19/19 16/16/16 15/15/15
f 16/16/16 19/19/19 20/20/20
f 23/23/23 20/20/20 19/19/19
f 20/20/20 23/23/23 24/24/24
f 27/27/27 24/24/24 23/23/23
f 24/24/24 27/27/27 28/28/28
f 31/31/31 28/28/28 27/27/27
f 28/28/28 31/31/31 32/32/32
f 35/35/35 32/32/32 31/31/31
f 32/32/32 35/35/35 36/36/36
f 39/39/39 36/36/36 35/35/35
f 36/36/36 39/39/39 40/40/40
f 43/43/43 40/40/40 39/39/39
f 40/40/40 43/43/43 44/44/44
f 47/47/47 44/44/44 43/43/43
f 44/44/44 47/47/47 48/48/48
f 51/51/51 48/48/48 47/47/47
f 48/48/48 51/51/51 52/52/52
f 55/55/55 52/52/52 51/51/51
f 52/52/52 55/55/55 56/56/56
f 59/59/59 56/56/56 55/55/55
f 56/56/56 59/59/59 60/60/60
f 63/63/63 60/60/60 59/59/59
f 60/60/60 63/63/63 64/64/64
