mtllib CH09_SMAUG_PLAYSURFACE_LAIR95.mtl
g lair95
usemtl 18_-_Default
v 71.690048 786.930420 5889.808105
vn 0.000000 0.000000 -1.000000
vt 2.255805 1.005219
v 71.690033 1460.061279 5889.808105
vn 0.000000 0.000000 -1.000000
vt 2.255805 0.488597
v 860.464172 1460.061279 5889.808105
vn 0.000000 0.000000 -1.000000
vt 1.513670 0.488597
v 861.060608 786.930420 5889.808105
vn 0.000000 0.000000 -1.000000
vt 1.513109 1.005219
v -717.084290 1459.504761 3427.923584
vn 0.999996 -0.003021 0.000001
vt 2.995675 0.489024
v -717.084229 1459.665405 3855.451904
vn 0.999996 -0.003022 0.000001
vt 2.475710 0.488901
v -717.680481 786.534485 3855.451660
vn 1.000000 0.000852 -0.000001
vt 2.475710 1.005522
v -717.680603 786.374146 3430.536133
vn 0.815561 0.000543 -0.578671
vt 2.992498 1.005646
v -717.083923 1459.897217 5055.846191
vn 0.999996 -0.003021 0.000001
vt 1.015775 0.488723
v -717.680359 786.766602 5055.846191
vn 1.000000 0.000418 0.000000
vt 1.015775 1.005344
v -717.083862 1460.061279 5889.808105
vn 0.999996 -0.003021 0.000001
vt 0.001500 0.488597
v -717.680298 786.930420 5889.808105
vn 1.000000 0.000418 0.000000
vt 0.001500 1.005219
v 2467.070068 1461.684326 5889.808105
vn 0.000000 0.000000 -1.000000
vt 0.002060 0.487351
v 2467.666504 788.553711 5889.808105
vn 0.000000 0.000000 -1.000000
vt 0.001499 1.003973
v -717.680298 786.930420 5889.808105
vn 0.000000 0.000000 -1.000000
vt 2.998501 1.005219
v -717.083862 1460.061279 5889.808105
vn 0.000000 0.000000 -1.000000
vt 2.997940 0.488597
v 861.060303 786.374084 3526.667725
vn -1.000000 0.000418 0.000000
vt 0.124419 1.005646
v 861.060425 786.534485 3855.451660
vn -1.000000 0.000418 0.000000
vt 0.524290 1.005522
v 860.464050 1459.665405 3855.451660
vn -0.999996 -0.003022 0.000002
vt 0.524290 0.488901
v 860.463867 1459.504761 3524.054688
vn -0.999996 -0.003022 0.000002
vt 0.121241 0.489024
v 861.060547 786.766602 5055.846191
vn -1.000000 0.000418 0.000000
vt 1.984225 1.005344
v 860.464111 1459.897217 5055.846191
vn -0.999996 -0.003022 0.000001
vt 1.984225 0.488723
v 861.060547 786.766602 5055.846191
vn 0.000000 0.000000 1.000000
vt 1.486891 1.005344
v 2467.666504 788.389893 5055.846191
vn 0.000000 0.000000 1.000000
vt 2.998501 1.004098
v 2467.070068 1461.520752 5055.846191
vn 0.000000 0.000000 1.000000
vt 2.997940 0.487477
v 860.464111 1459.897217 5055.846191
vn 0.000000 0.000000 1.000000
vt 1.486330 0.488723
v 2467.666504 788.389893 5055.846191
vn -1.000000 0.000418 0.000000
vt 1.984226 1.004098
v 2467.666504 788.553711 5889.808105
vn -1.000000 0.000418 0.000000
vt 2.998500 1.003973
v 2467.070068 1461.684326 5889.808105
vn -0.999996 -0.003022 0.000001
vt 2.998500 0.487351
v 2467.070068 1461.520752 5055.846191
vn -0.999996 -0.003022 0.000001
vt 1.984226 0.487477
f 25/25/25 23/23/23 24/24/24
f 23/23/23 25/25/25 26/26/26
f 8/8/8 5/5/5 7/7/7
f 6/6/6 7/7/7 5/5/5
f 7/7/7 6/6/6 10/10/10
f 9/9/9 10/10/10 6/6/6
f 10/10/10 9/9/9 12/12/12
f 11/11/11 12/12/12 9/9/9
f 16/16/16 2/2/2 1/1/1
f 3/3/3 1/1/1 2/2/2
f 1/1/1 3/3/3 4/4/4
f 14/14/14 4/4/4 3/3/3
f 3/3/3 13/13/13 14/14/14
f 1/1/1 15/15/15 16/16/16
f 21/21/21 22/22/22 18/18/18
f 19/19/19 18/18/18 22/22/22
f 18/18/18 19/19/19 17/17/17
f 20/20/20 17/17/17 19/19/19
f 29/29/29 27/27/27 28/28/28
f 27/27/27 29/29/29 30/30/30
