mtllib CH09_SMAUG_PLAYSURFACE_LAIR500.mtl
g lair500
usemtl Material_#69372
v 3775.382080 -2.784162 -437.974915
vn 0.001558 0.999998 -0.001210
vt -0.150753 -1.975005
v 3716.732178 -2.196777 -27.922785
vn 0.001558 0.999998 -0.001210
vt 0.009990 -3.111368
v 4042.473389 -2.672609 -1.690224
vn 0.001558 0.999998 -0.001210
vt -0.882772 -3.184065
v 3991.073730 -2.672590 -424.670349
vn -0.000521 1.000000 0.000063
vt -0.741901 -2.011876
v 3713.148926 -2.784464 882.682068
vn -0.000412 1.000000 -0.000039
vt 0.019812 -3.634895
v 3982.670166 -2.672892 895.986572
vn -0.000412 1.000000 -0.000039
vt -0.718868 -3.671765
v 4042.473389 -2.672621 276.902832
vn -0.045387 0.998967 -0.002090
vt -0.882772 -1.956120
v 3737.454102 -2.413343 267.401825
vn 0.000830 0.999999 0.000636
vt -0.046803 -1.929790
v 3724.539551 -2.278325 83.346123
vn 0.001189 0.999999 0.000650
vt -0.011408 -1.419724
v 3716.732178 -2.196777 -27.922785
vn 0.001558 0.999998 -0.001210
vt 0.009990 -1.111368
v 3624.529297 -2.849400 765.562927
vn 0.001584 0.999998 0.000971
vt 0.262693 -3.310326
v 3586.518311 -2.759317 877.033997
vn 0.000324 1.000000 -0.000698
vt 0.366870 -3.619243
v 3636.503174 -2.845196 -445.265778
vn 0.001675 0.999998 -0.000936
vt 0.229874 -1.954801
v 4040.848389 -3.738287 111.172569
vn -0.065616 0.997841 -0.002908
vt -0.878319 -3.496838
v 3724.539551 -2.278325 83.346123
vn 0.001189 0.999999 0.000650
vt -0.011408 -3.419724
v 3737.454102 -2.413343 267.401825
vn 0.000830 0.999999 0.000636
vt -0.046803 -3.929790
v 4042.473389 -2.672618 276.902832
vn -0.045387 0.998967 -0.002090
vt -0.882772 -3.956121
f 3/3/3 4/4/4 1/1/1
f 14/14/14 16/16/16 17/17/17
f 16/16/16 14/14/14 15/15/15
f 3/3/3 15/15/15 14/14/14
f 15/15/15 3/3/3 2/2/2
f 1/1/1 2/2/2 3/3/3
f 2/2/2 1/1/1 13/13/13
f 5/5/5 8/8/8 9/9/9
f 8/8/8 5/5/5 7/7/7
f 6/6/6 7/7/7 5/5/5
f 11/11/11 9/9/9 10/10/10
f 9/9/9 11/11/11 5/5/5
f 12/12/12 5/5/5 11/11/11
