mtllib CH09_SMAUG_PLAYSURFACE_LONELYMOUNTAIN_LM_PLAYSURFACE18.mtl
g M_playsurface18
usemtl jjkjjk
v -792.097473 4618.223145 -5307.045410
vn 0.649894 0.449732 -0.612682
vt 2.465899 -2.683908
v -1005.232422 5183.388672 -5280.407715
vn 0.605694 0.416486 -0.677993
vt 2.747963 -3.121696
v -927.222290 5186.884766 -5154.450195
vn 0.768658 0.457056 -0.447509
vt 2.643612 -3.189711
v -724.597351 4622.439941 -5151.023926
vn 0.841105 0.429307 -0.328995
vt 2.364894 -2.768113
v -989.801636 4609.419434 -5424.050781
vn 0.467109 0.415729 -0.780371
vt 2.684066 -2.616841
v -1168.846680 5176.089844 -5396.859375
vn 0.463799 0.364584 -0.807446
vt 2.933002 -3.055969
v -1212.020996 4596.583008 -5550.487793
vn 0.377430 0.429981 -0.820160
vt 2.927988 -2.541957
v -1340.645996 5165.448242 -5493.060547
vn 0.202792 0.269301 -0.941463
vt 3.121193 -2.998358
v -1376.187012 4580.520020 -5592.722656
vn 0.105107 0.470979 -0.875860
vt 3.096168 -3.508473
v -1436.313110 5152.131836 -5477.553711
vn -0.015458 0.227092 -0.973751
vt 3.209833 -3.996846
v -1340.645996 5165.448242 -5493.060547
vn 0.202792 0.269301 -0.941463
vt 3.121193 -3.998358
v -1212.020996 4596.583008 -5550.487793
vn 0.377430 0.429981 -0.820160
vt 2.927988 -3.541957
v -1479.055420 4562.238770 -5615.269043
vn -0.089993 0.489004 -0.867627
vt 3.200278 -3.483540
v -1505.676392 5136.977539 -5465.004883
vn -0.030250 0.196257 -0.980086
vt 3.273549 -3.992417
v -1608.322876 4542.889648 -5609.520996
vn -0.191840 0.469607 -0.861781
vt 3.323469 -3.472592
v -1590.495239 5120.935547 -5463.467285
vn -0.056886 0.146198 -0.987618
vt 3.354739 -3.981630
v -1832.728027 4523.687500 -5553.758301
vn -0.119553 0.420623 -0.899324
vt 3.527505 -3.487915
v -1715.834961 5105.018066 -5467.021484
vn -0.056786 0.103059 -0.993053
vt 3.476407 -3.968337
v -2219.776611 4505.838379 -5537.480957
vn 0.004876 0.340160 -0.940355
vt 3.898415 -3.483889
v -1899.043945 5090.221680 -5481.316406
vn -0.080906 0.171193 -0.981910
vt 3.656723 -3.950349
v -2655.908447 4490.465332 -5583.518066
vn -0.152316 0.421551 -0.893921
vt 3.331319 -3.449296
v -2126.129150 5077.477051 -5450.265625
vn -0.412511 0.420603 -0.808039
vt 2.869312 -3.957522
v -1899.043945 5090.221680 -5481.316406
vn -0.080906 0.171193 -0.981910
vt 2.656723 -3.950349
v -2219.776611 4505.838379 -5537.480957
vn 0.004876 0.340160 -0.940355
vt 2.898415 -3.483889
v -2938.998291 4434.596191 -5524.076660
vn -0.639677 0.666060 -0.383638
vt 3.589755 -3.439867
v -2328.722656 5052.182129 -5347.440918
vn -0.706873 0.658639 -0.257925
vt 3.041135 -3.992870
v -2981.052246 4309.469238 -5355.886719
vn -0.762954 0.629151 0.148562
vt 3.586293 -2.436204
v -2387.943848 4987.902832 -5214.636230
vn -0.800725 0.594727 -0.071690
vt 3.065224 -3.015197
v -2328.722656 5052.182129 -5347.440918
vn -0.706873 0.658639 -0.257925
vt 3.041135 -2.992870
v -2981.052246 4309.469238 -5355.886719
vn -0.762954 0.629151 0.148562
vt 3.586293 -3.436204
v -2985.928467 4237.286133 -5139.114746
vn -0.763417 0.643181 0.059273
vt 3.538077 -2.496403
v -2418.402100 4959.727539 -5045.492676
vn -0.821433 0.567797 -0.053432
vt 3.054750 -3.082736
v -2982.967041 4239.091797 -4817.677246
vn -0.771736 0.620316 0.140114
vt 3.461696 -2.665048
v -2412.612793 4958.942383 -4861.459473
vn -0.790624 0.581730 0.191060
vt 3.006965 -3.177958
v -2845.926025 4245.653809 -4415.046387
vn -0.753793 0.590876 0.287510
vt 3.236880 -2.879250
v -2314.991455 4954.599121 -4702.813477
vn -0.770778 0.550368 0.320929
vt 2.875746 -3.257246
v -2713.599854 4325.477539 -4143.731934
vn -0.776272 0.599420 0.195184
vt 3.050068 -3.078539
v -2239.967041 5012.946289 -4579.136719
vn -0.760691 0.584426 0.282481
vt 2.777334 -3.364090
v -537.923645 3950.621338 -5731.251953
vn 0.596649 0.668213 -0.444411
vt 2.126896 -3.036747
v -792.097473 4618.223145 -5307.045410
vn 0.649894 0.449732 -0.612682
vt 2.465899 -3.683908
v -724.597351 4622.439941 -5151.023926
vn 0.841105 0.429307 -0.328995
vt 2.364894 -3.768113
v -478.695831 3955.462646 -5514.821777
vn 0.759946 0.609240 -0.226516
vt 2.020114 -3.152866
v -762.546143 3940.515381 -5860.361328
vn 0.383253 0.693310 -0.610277
vt 2.373887 -2.962465
v -989.801636 4609.419434 -5424.050781
vn 0.467109 0.415729 -0.780371
vt 2.684066 -3.616841
v -1008.838867 3925.777832 -6042.583984
vn 0.390579 0.701310 -0.596332
vt 2.653845 -2.857186
v -1226.045410 3907.336182 -6240.237305
vn 0.266297 0.716885 -0.644331
vt 2.908951 -2.741133
v -1405.784424 3886.348877 -6325.036621
vn -0.043722 0.686279 -0.726023
vt 3.101757 -2.681921
v -1630.785278 3864.135498 -6257.356934
vn -0.277738 0.626428 -0.728319
vt 3.303504 -2.701252
v -1988.029907 3842.089355 -6097.645996
vn -0.230092 0.623988 -0.746791
vt 3.612472 -2.768793
v -2516.970947 3821.598145 -6045.263184
vn -0.140699 0.582289 -0.800714
vt 3.112638 -2.781826
v -1832.728027 4523.687500 -5553.758301
vn -0.119553 0.420623 -0.899324
vt 2.527505 -3.487915
v -1988.029907 3842.089355 -6097.645996
vn -0.230092 0.623988 -0.746791
vt 2.612472 -2.768793
v -3022.140869 3803.949707 -5984.624512
vn -0.265245 0.488976 -0.830992
vt 3.587985 -2.801198
v -3403.794434 3773.820557 -5807.843262
vn -0.683482 0.325537 -0.653359
vt 3.916351 -2.871761
v -3518.370117 3668.467285 -5612.372559
vn -0.923462 0.336605 -0.184160
vt 3.977902 -2.896822
v -3570.761230 3604.426025 -5398.345215
vn -0.956587 0.291445 -0.001084
vt 3.976781 -2.961595
v -2985.928467 4237.286133 -5139.114746
vn -0.763417 0.643181 0.059273
vt 3.538077 -3.496403
v -3567.187744 3606.403809 -5071.676758
vn -0.971617 0.047249 0.231791
vt 3.898616 -3.133088
v -2982.967041 4239.091797 -4817.677246
vn -0.771736 0.620316 0.140114
vt 3.461696 -3.665048
v -3406.214844 3613.668457 -4677.812012
vn -0.874430 0.110117 0.472490
vt 3.652623 -3.343206
v -2845.926025 4245.653809 -4415.046387
vn -0.753793 0.590876 0.287510
vt 3.236880 -3.879250
v -3192.068115 3685.306152 -4347.270996
vn -0.863398 0.242263 0.442553
vt 3.372506 -2.567246
v -3192.068115 3685.306152 -4347.270996
vn -0.863398 0.242263 0.442553
vt 3.372506 -3.567246
f 62/62/62 37/37/37 35/35/35
f 36/36/36 37/37/37 38/38/38
f 37/37/37 36/36/36 35/35/35
f 34/34/34 35/35/35 36/36/36
f 35/35/35 34/34/34 33/33/33
f 32/32/32 33/33/33 34/34/34
f 33/33/33 32/32/32 31/31/31
f 28/28/28 31/31/31 32/32/32
f 31/31/31 28/28/28 27/27/27
f 29/29/29 27/27/27 28/28/28
f 39/39/39 41/41/41 42/42/42
f 41/41/41 39/39/39 40/40/40
f 43/43/43 40/40/40 39/39/39
f 40/40/40 43/43/43 44/44/44
f 45/45/45 44/44/44 43/43/43
f 44/44/44 45/45/45 12/12/12
f 46/46/46 12/12/12 45/45/45
f 12/12/12 46/46/46 9/9/9
f 47/47/47 9/9/9 46/46/46
f 9/9/9 47/47/47 13/13/13
f 48/48/48 13/13/13 47/47/47
f 13/13/13 48/48/48 15/15/15
f 49/49/49 15/15/15 48/48/48
f 15/15/15 49/49/49 17/17/17
f 18/18/18 19/19/19 20/20/20
f 19/19/19 18/18/18 17/17/17
f 16/16/16 17/17/17 18/18/18
f 17/17/17 16/16/16 15/15/15
f 14/14/14 15/15/15 16/16/16
f 15/15/15 14/14/14 13/13/13
f 10/10/10 13/13/13 14/14/14
f 13/13/13 10/10/10 9/9/9
f 11/11/11 9/9/9 10/10/10
f 9/9/9 11/11/11 12/12/12
f 30/30/30 26/26/26 25/25/25
f 22/22/22 25/25/25 26/26/26
f 25/25/25 22/22/22 21/21/21
f 23/23/23 21/21/21 22/22/22
f 21/21/21 23/23/23 24/24/24
f 63/63/63 61/61/61 60/60/60
f 59/59/59 60/60/60 61/61/61
f 60/60/60 59/59/59 58/58/58
f 57/57/57 58/58/58 59/59/59
f 58/58/58 57/57/57 56/56/56
f 30/30/30 56/56/56 57/57/57
f 56/56/56 30/30/30 55/55/55
f 25/25/25 55/55/55 30/30/30
f 55/55/55 25/25/25 54/54/54
f 21/21/21 54/54/54 25/25/25
f 54/54/54 21/21/21 53/53/53
f 24/24/24 53/53/53 21/21/21
f 53/53/53 24/24/24 50/50/50
f 51/51/51 50/50/50 24/24/24
f 50/50/50 51/51/51 52/52/52
f 6/6/6 7/7/7 8/8/8
f 7/7/7 6/6/6 5/5/5
f 2/2/2 5/5/5 6/6/6
f 5/5/5 2/2/2 1/1/1
f 3/3/3 1/1/1 2/2/2
f 1/1/1 3/3/3 4/4/4
