mtllib CH09_SMAUG_PLAYSURFACE_LONELYMOUNTAIN_LM_PLAYSURFACE08.mtl
g M_playsurface08
usemtl fbyu
v -1409.659668 315.900360 -7164.687988
vn -0.814148 -0.376069 0.442419
vt 0.726315 0.641986
v -1417.401123 342.030792 -7160.763184
vn -0.813373 -0.213145 0.541289
vt 0.775045 0.436731
v -1420.553833 337.130096 -7174.686035
vn -0.970610 -0.240400 0.011144
vt 0.506825 0.467685
v -1410.285278 307.856842 -7175.915039
vn -0.887666 -0.460482 -0.002172
vt 0.514668 0.700796
v -1421.745361 365.618317 -7162.770020
vn -0.890626 -0.048740 0.452116
vt 0.711878 0.260971
v -1425.791504 369.185669 -7173.465820
vn -0.999728 -0.002494 0.023175
vt 0.498244 0.229110
v -1422.206421 366.678772 -7184.700195
vn -0.910574 -0.017711 -0.412967
vt 0.282954 0.260971
v -1417.986816 343.377747 -7188.618652
vn -0.835643 -0.177257 -0.519886
vt 0.230234 0.436731
v -1410.123291 316.936646 -7186.618164
vn -0.827150 -0.348118 -0.441177
vt 0.297413 0.642148
v -1279.362305 366.587677 -7164.532715
vn 0.815090 -0.062114 0.575995
vt 0.265025 0.649375
v -1274.281250 360.897888 -7176.215820
vn 0.995907 -0.086162 -0.027319
vt 0.485450 0.707758
v -1279.292358 392.586884 -7174.944824
vn 0.898198 0.436262 -0.053996
vt 0.492599 0.472347
v -1284.558472 388.549561 -7160.324707
vn 0.684231 0.311664 0.659313
vt 0.205800 0.480134
v -1280.051147 365.619354 -7187.313477
vn 0.782212 -0.018912 -0.622726
vt 0.708719 0.663231
v -1285.572388 386.024170 -7189.547363
vn 0.595824 0.332994 -0.730827
vt 0.773793 0.506498
v -1298.303955 402.616730 -7185.326172
vn 0.531500 0.575126 -0.621883
vt 0.712333 0.353826
v -1296.238770 411.197205 -7173.655762
vn 0.654255 0.753897 -0.059922
vt 0.491957 0.295084
v -1297.514526 404.575958 -7162.545410
vn 0.604662 0.593326 0.531364
vt 0.269536 0.333337
v -1381.872925 297.640564 -7157.755371
vn -0.055539 -0.565898 0.822602
vt 0.109852 0.851944
v -1378.633423 288.126099 -7176.865723
vn -0.048724 -0.997705 -0.047026
vt 0.472282 0.855014
v -1343.935547 291.447845 -7177.015137
vn 0.297466 -0.954654 0.012209
vt 0.464100 0.636486
v -1347.029053 304.091492 -7157.062988
vn 0.201393 -0.485740 0.850587
vt 0.088140 0.624996
v -1382.656372 299.416107 -7194.910645
vn -0.087183 -0.523945 -0.847278
vt 0.836529 0.852008
v -1348.234497 302.125763 -7195.858398
vn 0.142856 -0.499490 -0.854460
vt 0.843457 0.636621
v -1312.738770 321.264679 -7195.148926
vn 0.326321 -0.405240 -0.853988
vt 0.833112 0.375133
v -1308.805908 308.823944 -7177.003906
vn 0.579844 -0.811763 0.069441
vt 0.465865 0.381460
v -1311.015991 328.698669 -7157.790527
vn 0.314934 -0.397930 0.861666
vt 0.110767 0.347171
v -1382.656372 299.416107 -7194.910645
vn -0.087183 -0.523945 -0.847278
vt 0.156273 0.852008
v -1392.540894 356.998016 -7199.507813
vn -0.114899 0.031492 -0.992878
vt 0.583463 0.773123
v -1358.334595 363.808807 -7200.663574
vn -0.011763 0.040897 -0.999094
vt 0.535743 0.549155
v -1348.234497 302.125763 -7195.858398
vn 0.142856 -0.499490 -0.854460
vt 0.079433 0.636621
v -1402.612183 396.172241 -7191.718262
vn -0.386421 0.488907 -0.782080
vt 0.887680 0.739881
v -1367.801147 414.116669 -7192.537109
vn -0.148947 0.566978 -0.810155
vt 0.916072 0.485409
v -1336.000854 415.212311 -7191.942383
vn 0.044461 0.573861 -0.817745
vt 0.835847 0.289835
v -1322.638794 368.360809 -7199.771973
vn 0.056126 0.046544 -0.997338
vt 0.468951 0.321618
v -1312.738770 321.264679 -7195.148926
vn 0.326321 -0.405240 -0.853988
vt 0.114864 0.375133
v -1402.612183 396.172241 -7191.718262
vn -0.386421 0.488907 -0.782080
vt 0.126296 0.739881
v -1405.954590 404.672058 -7172.607422
vn -0.590586 0.805312 0.051769
vt 0.489644 0.739881
v -1371.216187 423.590057 -7172.583984
vn -0.291287 0.956227 0.027949
vt 0.486507 0.483512
v -1367.801147 414.116669 -7192.537109
vn -0.148947 0.566978 -0.810155
vt 0.107677 0.485409
v -1401.830933 394.375580 -7154.562988
vn -0.361327 0.426110 0.829381
vt 0.852993 0.739881
v -1366.902222 413.060272 -7153.740723
vn -0.162713 0.516370 0.840765
vt 0.865729 0.482929
v -1334.831055 417.194366 -7154.583008
vn 0.048228 0.573609 0.817708
vt 0.858557 0.278371
v -1338.994019 427.367584 -7172.727539
vn 0.025942 0.999261 -0.028364
vt 0.493362 0.278905
v -1336.000854 415.212311 -7191.942383
vn 0.044461 0.573861 -0.817745
vt 0.131278 0.289835
v -1401.830933 394.375580 -7154.562988
vn -0.361327 0.426110 0.829381
vt 0.112320 0.739881
v -1391.408691 355.495911 -7149.967773
vn -0.086913 -0.030050 0.995763
vt 0.410556 0.770420
v -1355.821045 375.365723 -7148.937988
vn 0.004680 -0.001289 0.999988
vt 0.370155 0.506615
v -1366.902222 413.060272 -7153.740723
vn -0.162713 0.516370 0.840765
vt 0.078442 0.482929
v -1381.872925 297.640564 -7157.755371
vn -0.055539 -0.565898 0.822602
vt 0.843585 0.851944
v -1347.029053 304.091492 -7157.062988
vn 0.201393 -0.485740 0.850587
vt 0.894851 0.624996
v -1311.015991 328.698669 -7157.790527
vn 0.314934 -0.397930 0.861666
vt 0.823281 0.347171
v -1319.794189 383.671326 -7149.961426
vn 0.074946 0.017020 0.997042
vt 0.412441 0.268000
v -1334.831055 417.194366 -7154.583008
vn 0.048228 0.573609 0.817708
vt 0.138792 0.278371
v -1308.805908 308.823944 -7177.003906
vn 0.579844 -0.811763 0.069441
vt 0.975627 0.381460
v -1284.830688 332.216614 -7176.820313
vn 0.855653 -0.517360 0.014051
vt 0.878817 0.179609
v -1286.966797 348.385101 -7159.817383
vn 0.586619 -0.272296 0.762714
vt 0.753401 0.153781
v -1312.738770 321.264679 -7195.148926
vn 0.326321 -0.405240 -0.853988
vt 0.833112 0.375133
v -1288.138306 345.284973 -7192.869141
vn 0.587542 -0.228874 -0.776151
vt 0.801213 0.167998
v -1284.830688 332.216614 -7176.820313
vn 0.855653 -0.517360 0.014051
vt 0.474514 0.179609
v -1308.805908 308.823944 -7177.003906
vn 0.579844 -0.811763 0.069441
vt 0.465865 0.381460
v -1280.051147 365.619354 -7187.313477
vn 0.782212 -0.018912 -0.622726
vt 0.708719 0.663231
v -1274.281250 360.897888 -7176.215820
vn 0.995907 -0.086162 -0.027319
vt 0.485450 0.707758
v -1284.830688 332.216614 -7176.820313
vn 0.855653 -0.517360 0.014051
vt 0.474514 0.878817
v -1288.138306 345.284973 -7192.869141
vn 0.587542 -0.228874 -0.776151
vt 0.801213 0.784851
v -1279.362305 366.587677 -7164.532715
vn 0.815090 -0.062114 0.575995
vt 0.265025 0.649375
v -1286.966797 348.385101 -7159.817383
vn 0.586619 -0.272296 0.762714
vt 0.159013 0.753401
v -1312.738770 321.264679 -7195.148926
vn 0.326321 -0.405240 -0.853988
vt 0.114864 0.375133
v -1322.638794 368.360809 -7199.771973
vn 0.056126 0.046544 -0.997338
vt 0.468951 0.321618
v -1298.479004 379.039978 -7196.944824
vn 0.289324 0.149720 -0.945450
vt 0.477620 0.149323
v -1288.138306 345.284973 -7192.869141
vn 0.587542 -0.228874 -0.776151
vt 0.215149 0.167998
v -1336.000854 415.212311 -7191.942383
vn 0.044461 0.573861 -0.817745
vt 0.835847 0.289835
v -1311.128662 411.994629 -7190.003906
vn 0.391787 0.584549 -0.710496
vt 0.745264 0.146708
v -1298.303955 402.616730 -7185.326172
vn 0.531500 0.575126 -0.621883
vt 0.646174 0.091555
v -1285.572388 386.024170 -7189.547363
vn 0.595824 0.332994 -0.730827
vt 0.493502 0.054261
v -1280.051147 365.619354 -7187.313477
vn 0.782212 -0.018912 -0.622726
vt 0.336769 0.069975
v -1336.000854 415.212311 -7191.942383
vn 0.044461 0.573861 -0.817745
vt 0.131278 0.289835
v -1338.994019 427.367584 -7172.727539
vn 0.025942 0.999261 -0.028364
vt 0.493362 0.278905
v -1313.772705 423.155273 -7173.000488
vn 0.412583 0.909798 -0.045195
vt 0.497644 0.162842
v -1311.128662 411.994629 -7190.003906
vn 0.391787 0.584549 -0.710496
vt 0.182323 0.146708
v -1334.831055 417.194366 -7154.583008
vn 0.048228 0.573609 0.817708
vt 0.858557 0.278371
v -1310.074341 413.939545 -7156.952148
vn 0.427144 0.607636 0.669572
vt 0.825568 0.135986
v -1297.514526 404.575958 -7162.545410
vn 0.604662 0.593326 0.531364
vt 0.269536 0.333337
v -1296.238770 411.197205 -7173.655762
vn 0.654255 0.753897 -0.059922
vt 0.491957 0.295084
v -1310.074341 413.939545 -7156.952148
vn 0.427144 0.607636 0.669572
vt 0.174432 0.231019
v -1298.303955 402.616730 -7185.326172
vn 0.531500 0.575126 -0.621883
vt 0.712333 0.353826
v -1311.128662 411.994629 -7190.003906
vn 0.391787 0.584549 -0.710496
vt 0.817677 0.254736
v -1334.831055 417.194366 -7154.583008
vn 0.048228 0.573609 0.817708
vt 0.138792 0.278371
v -1319.794189 383.671326 -7149.961426
vn 0.074946 0.017020 0.997042
vt 0.412441 0.268000
v -1296.641235 385.891754 -7152.876953
vn 0.345255 0.118910 0.930946
vt 0.462251 0.122141
v -1310.074341 413.939545 -7156.952148
vn 0.427144 0.607636 0.669572
vt 0.231019 0.135986
v -1311.015991 328.698669 -7157.790527
vn 0.314934 -0.397930 0.861666
vt 0.823281 0.347171
v -1296.641235 385.891754 -7152.876953
vn 0.345255 0.118910 0.930946
vt 0.462251 0.122141
v -1279.362305 366.587677 -7164.532715
vn 0.815090 -0.062114 0.575995
vt 0.649375 0.063712
v -1284.558472 388.549561 -7160.324707
vn 0.684231 0.311664 0.659313
vt 0.480134 0.042343
v -1297.514526 404.575958 -7162.545410
vn 0.604662 0.593326 0.531364
vt 0.333337 0.082293
v -1310.074341 413.939545 -7156.952148
vn 0.427144 0.607636 0.669572
vt 0.231019 0.135986
v -1381.872925 297.640564 -7157.755371
vn -0.055539 -0.565898 0.822602
vt 0.843585 0.851944
v -1391.408691 355.495911 -7149.967773
vn -0.086913 -0.030050 0.995763
vt 0.410556 0.770420
v -1409.817871 346.733673 -7153.216797
vn -0.449452 -0.120419 0.885151
vt 0.421954 0.903199
v -1401.366699 302.099579 -7159.987305
vn -0.582036 -0.499164 0.641926
vt 0.759361 0.959443
v -1401.830933 394.375580 -7154.562988
vn -0.361327 0.426110 0.829381
vt 0.112320 0.739881
v -1418.965942 379.689545 -7157.188477
vn -0.707149 0.181483 0.683377
vt 0.168319 0.879215
v -1409.817871 346.733673 -7153.216797
vn -0.449452 -0.120419 0.885151
vt 0.421954 0.903199
v -1421.745361 365.618317 -7162.770020
vn -0.890626 -0.048740 0.452116
vt 0.260971 0.929937
v -1417.401123 342.030792 -7160.763184
vn -0.813373 -0.213145 0.541289
vt 0.436731 0.960462
v -1409.659668 315.900360 -7164.687988
vn -0.814148 -0.376069 0.442419
vt 0.641986 0.976439
v -1401.366699 302.099579 -7159.987305
vn -0.582036 -0.499164 0.641926
vt 0.759361 0.959443
v -1401.830933 394.375580 -7154.562988
vn -0.361327 0.426110 0.829381
vt 0.852993 0.739881
v -1405.954590 404.672058 -7172.607422
vn -0.590586 0.805312 0.051769
vt 0.489644 0.739881
v -1422.574219 388.738464 -7172.836914
vn -0.897844 0.438361 0.041410
vt 0.493381 0.879123
v -1418.965942 379.689545 -7157.188477
vn -0.707149 0.181483 0.683377
vt 0.808611 0.879215
v -1402.612183 396.172241 -7191.718262
vn -0.386421 0.488907 -0.782080
vt 0.126296 0.739881
v -1419.643677 381.248138 -7189.420410
vn -0.739588 0.231429 -0.632021
vt 0.178207 0.879215
v -1422.574219 388.738464 -7172.836914
vn -0.897844 0.438361 0.041410
vt 0.493381 0.879123
v -1422.206421 366.678772 -7184.700195
vn -0.910574 -0.017711 -0.412967
vt 0.282954 0.260971
v -1425.791504 369.185669 -7173.465820
vn -0.999728 -0.002494 0.023175
vt 0.498244 0.229110
v -1422.574219 388.738464 -7172.836914
vn -0.897844 0.438361 0.041410
vt 0.493381 0.101397
v -1419.643677 381.248138 -7189.420410
vn -0.739588 0.231429 -0.632021
vt 0.178207 0.168319
v -1421.745361 365.618317 -7162.770020
vn -0.890626 -0.048740 0.452116
vt 0.711878 0.260971
v -1418.965942 379.689545 -7157.188477
vn -0.707149 0.181483 0.683377
vt 0.808611 0.168319
v -1402.612183 396.172241 -7191.718262
vn -0.386421 0.488907 -0.782080
vt 0.887680 0.739881
v -1392.540894 356.998016 -7199.507813
vn -0.114899 0.031492 -0.992878
vt 0.583463 0.773123
v -1410.721191 348.813721 -7196.192383
vn -0.479923 -0.063737 -0.874992
vt 0.578059 0.903193
v -1419.643677 381.248138 -7189.420410
vn -0.739588 0.231429 -0.632021
vt 0.831681 0.879215
v -1382.656372 299.416107 -7194.910645
vn -0.087183 -0.523945 -0.847278
vt 0.156273 0.852008
v -1402.046143 303.641266 -7192.219238
vn -0.590305 -0.456797 -0.665489
vt 0.240526 0.959494
v -1410.721191 348.813721 -7196.192383
vn -0.479923 -0.063737 -0.874992
vt 0.578059 0.903193
v -1410.123291 316.936646 -7186.618164
vn -0.827150 -0.348118 -0.441177
vt 0.357852 0.976512
v -1417.986816 343.377747 -7188.618652
vn -0.835643 -0.177257 -0.519886
vt 0.563269 0.960462
v -1422.206421 366.678772 -7184.700195
vn -0.910574 -0.017711 -0.412967
vt 0.739029 0.929937
v -1419.643677 381.248138 -7189.420410
vn -0.739588 0.231429 -0.632021
vt 0.831681 0.879215
v -1382.656372 299.416107 -7194.910645
vn -0.087183 -0.523945 -0.847278
vt 0.836529 0.852008
v -1378.633423 288.126099 -7176.865723
vn -0.048724 -0.997705 -0.047026
vt 0.472282 0.855014
v -1398.700439 291.951965 -7176.570313
vn -0.598781 -0.800492 -0.025971
vt 0.478355 0.967546
v -1402.046143 303.641266 -7192.219238
vn -0.590305 -0.456797 -0.665489
vt 0.795977 0.959494
v -1381.872925 297.640564 -7157.755371
vn -0.055539 -0.565898 0.822602
vt 0.109852 0.851944
v -1401.366699 302.099579 -7159.987305
vn -0.582036 -0.499164 0.641926
vt 0.165588 0.959443
v -1398.700439 291.951965 -7176.570313
vn -0.598781 -0.800492 -0.025971
vt 0.478355 0.967546
v -1409.659668 315.900360 -7164.687988
vn -0.814148 -0.376069 0.442419
vt 0.726315 0.641986
v -1410.285278 307.856842 -7175.915039
vn -0.887666 -0.460482 -0.002172
vt 0.514668 0.700796
v -1398.700439 291.951965 -7176.570313
vn -0.598781 -0.800492 -0.025971
vt 0.521645 0.844084
v -1401.366699 302.099579 -7159.987305
vn -0.582036 -0.499164 0.641926
vt 0.834412 0.759361
v -1410.123291 316.936646 -7186.618164
vn -0.827150 -0.348118 -0.441177
vt 0.297413 0.642148
v -1402.046143 303.641266 -7192.219238
vn -0.590305 -0.456797 -0.665489
vt 0.204023 0.759474
f 81/81/81 82/82/82 79/79/79
f 79/79/79 78/78/78 81/81/81
f 78/78/78 79/79/79 77/77/77
f 80/80/80 77/77/77 79/79/79
f 79/79/79 86/86/86 87/87/87
f 86/86/86 79/79/79 84/84/84
f 83/83/83 84/84/84 79/79/79
f 79/79/79 85/85/85 83/83/83
f 21/21/21 22/22/22 19/19/19
f 22/22/22 21/21/21 27/27/27
f 26/26/26 27/27/27 21/21/21
f 19/19/19 20/20/20 21/21/21
f 23/23/23 21/21/21 20/20/20
f 21/21/21 25/25/25 26/26/26
f 25/25/25 21/21/21 24/24/24
f 23/23/23 24/24/24 21/21/21
f 30/30/30 29/29/29 32/32/32
f 29/29/29 30/30/30 28/28/28
f 31/31/31 28/28/28 30/30/30
f 32/32/32 33/33/33 30/30/30
f 34/34/34 30/30/30 33/33/33
f 30/30/30 36/36/36 31/31/31
f 36/36/36 30/30/30 35/35/35
f 34/34/34 35/35/35 30/30/30
f 39/39/39 38/38/38 41/41/41
f 38/38/38 39/39/39 37/37/37
f 40/40/40 37/37/37 39/39/39
f 41/41/41 42/42/42 39/39/39
f 43/43/43 39/39/39 42/42/42
f 39/39/39 45/45/45 40/40/40
f 45/45/45 39/39/39 44/44/44
f 43/43/43 44/44/44 39/39/39
f 48/48/48 47/47/47 50/50/50
f 47/47/47 48/48/48 46/46/46
f 49/49/49 46/46/46 48/48/48
f 50/50/50 51/51/51 48/48/48
f 52/52/52 48/48/48 51/51/51
f 48/48/48 54/54/54 49/49/49
f 54/54/54 48/48/48 53/53/53
f 52/52/52 53/53/53 48/48/48
f 56/56/56 57/57/57 52/52/52
f 52/52/52 55/55/55 56/56/56
f 89/89/89 92/92/92 93/93/93
f 57/57/57 93/93/93 92/92/92
f 93/93/93 57/57/57 94/94/94
f 94/94/94 95/95/95 93/93/93
f 96/96/96 93/93/93 95/95/95
f 93/93/93 96/96/96 97/97/97
f 90/90/90 88/88/88 89/89/89
f 88/88/88 90/90/90 91/91/91
f 5/5/5 6/6/6 3/3/3
f 7/7/7 3/3/3 6/6/6
f 3/3/3 7/7/7 8/8/8
f 1/1/1 2/2/2 3/3/3
f 5/5/5 3/3/3 2/2/2
f 3/3/3 4/4/4 1/1/1
f 4/4/4 3/3/3 9/9/9
f 8/8/8 9/9/9 3/3/3
f 12/12/12 11/11/11 14/14/14
f 11/11/11 12/12/12 10/10/10
f 13/13/13 10/10/10 12/12/12
f 14/14/14 15/15/15 12/12/12
f 16/16/16 12/12/12 15/15/15
f 12/12/12 18/18/18 13/13/13
f 18/18/18 12/12/12 17/17/17
f 16/16/16 17/17/17 12/12/12
f 72/72/72 73/73/73 70/70/70
f 74/74/74 70/70/70 73/73/73
f 70/70/70 74/74/74 75/75/75
f 68/68/68 69/69/69 70/70/70
f 72/72/72 70/70/70 69/69/69
f 70/70/70 71/71/71 68/68/68
f 71/71/71 70/70/70 76/76/76
f 75/75/75 76/76/76 70/70/70
f 102/102/102 104/104/104 99/99/99
f 104/104/104 102/102/102 103/103/103
f 104/104/104 103/103/103 105/105/105
f 104/104/104 107/107/107 108/108/108
f 107/107/107 104/104/104 106/106/106
f 105/105/105 106/106/106 104/104/104
f 100/100/100 98/98/98 99/99/99
f 98/98/98 100/100/100 101/101/101
f 118/118/118 120/120/120 121/121/121
f 120/120/120 118/118/118 117/117/117
f 116/116/116 117/117/117 118/118/118
f 118/118/118 119/119/119 116/116/116
f 60/60/60 58/58/58 59/59/59
f 58/58/58 60/60/60 61/61/61
f 62/62/62 63/63/63 64/64/64
f 66/66/66 64/64/64 63/63/63
f 64/64/64 66/66/66 67/67/67
f 64/64/64 65/65/65 62/62/62
f 111/111/111 109/109/109 110/110/110
f 109/109/109 111/111/111 112/112/112
f 115/115/115 113/113/113 114/114/114
f 113/113/113 115/115/115 110/110/110
f 124/124/124 122/122/122 123/123/123
f 122/122/122 124/124/124 125/125/125
f 128/128/128 127/127/127 129/129/129
f 127/127/127 128/128/128 126/126/126
f 123/123/123 126/126/126 128/128/128
f 128/128/128 131/131/131 132/132/132
f 131/131/131 128/128/128 130/130/130
f 129/129/129 130/130/130 128/128/128
f 135/135/135 133/133/133 134/134/134
f 133/133/133 135/135/135 136/136/136
f 139/139/139 137/137/137 138/138/138
f 137/137/137 139/139/139 134/134/134
f 140/140/140 141/141/141 142/142/142
f 144/144/144 142/142/142 141/141/141
f 142/142/142 144/144/144 145/145/145
f 142/142/142 143/143/143 140/140/140
