mtllib CH09_SMAUG_PLAYSURFACE_LAIR75.mtl
g lair75
usemtl 18_-_Default
v -3212.508789 913.258545 744.700195
vn 0.418778 -0.009993 0.908034
vt 0.612382 0.822340
v -3211.090088 968.218689 745.682556
vn 0.414137 -0.015466 0.910083
vt 0.751613 0.822340
v -3322.996826 970.586731 784.515442
vn 0.423354 -0.004568 0.905953
vt 0.751613 0.606072
v -3361.954834 917.203735 797.917358
vn 0.426876 -0.000374 0.904310
vt 0.612382 0.606072
v -3220.551270 921.624878 -541.069092
vn 0.861685 -0.016910 -0.507161
vt 0.361164 0.822340
v -3332.812500 924.361389 -558.866943
vn 0.377526 -0.002932 -0.925994
vt 0.361164 0.606072
v -3331.393555 979.321533 -557.884583
vn 0.377526 -0.002932 -0.925994
vt 0.221933 0.606072
v -3219.132324 976.585022 -540.086731
vn 0.861685 -0.016910 -0.507161
vt 0.221933 0.822340
v -3277.946533 970.885681 572.007996
vn 0.025803 0.999507 0.017865
vt -3.309985 0.822340
v -3392.798096 973.371216 603.191528
vn 0.025803 0.999507 0.017865
vt -3.324019 0.606072
v -3322.996826 970.586731 784.515442
vn 0.025803 0.999507 0.017865
vt -3.656680 0.606072
v -3211.090088 968.218689 745.682556
vn 0.025803 0.999507 0.017865
vt -3.642646 0.822340
v -3323.221191 973.085632 392.473633
vn 0.025803 0.999507 0.017865
vt -2.977324 0.822340
v -3440.066895 975.668091 415.749725
vn 0.025803 0.999507 0.017865
vt -2.991358 0.606072
v -3346.539307 974.800354 208.565460
vn 0.025803 0.999507 0.017865
vt -2.644664 0.822340
v -3464.411865 977.458252 223.741440
vn 0.025803 0.999507 0.017865
vt -2.658698 0.606072
v -3347.707275 976.015564 21.805389
vn 0.025803 0.999507 0.017865
vt -2.312003 0.822340
v -3465.631348 978.726990 28.755713
vn 0.025803 0.999507 0.017865
vt -2.326037 0.606072
v -3326.716064 976.721252 -166.260620
vn 0.025803 0.999507 0.017865
vt -1.979343 0.822340
v -3443.715576 979.463806 -167.593567
vn 0.025803 0.999507 0.017865
vt -1.993376 0.606072
v -3283.739258 976.911560 -354.076111
vn 0.025803 0.999507 0.017865
vt -1.646682 0.822340
v -3398.845947 979.662537 -363.681244
vn 0.025803 0.999507 0.017865
vt -1.660716 0.606072
v -3219.132324 976.585022 -540.086731
vn 0.025803 0.999507 0.017865
vt -1.328056 0.822340
v -3331.393555 979.321533 -557.884583
vn 0.025803 0.999507 0.017865
vt -1.328056 0.606072
v -3279.365479 915.925598 571.025635
vn 0.964851 -0.020880 -0.261968
vt 3.323086 0.616161
v -3277.946533 970.885681 572.007996
vn 0.964851 -0.020880 -0.261968
vt 3.324019 0.755393
v -3211.090088 968.218689 745.682556
vn 0.955289 -0.020447 -0.294966
vt 3.656680 0.751613
v -3212.508789 913.258545 744.700195
vn 0.955289 -0.020447 -0.294966
vt 3.655746 0.612382
v -3324.640137 918.125488 391.491241
vn 0.980500 -0.021670 -0.195319
vt 2.990425 0.619940
v -3323.221191 973.085632 392.473633
vn 0.980500 -0.021670 -0.195319
vt 2.991358 0.759172
v -3347.958008 919.840210 207.583099
vn 0.991566 -0.022359 -0.127663
vt 3.657764 0.623719
v -3346.539307 974.800354 208.565460
vn 0.991566 -0.022359 -0.127663
vt 3.658698 0.762951
v -3323.221191 973.085632 392.473633
vn 0.980500 -0.021670 -0.195319
vt 3.991358 0.759172
v -3324.640137 918.125488 391.491241
vn 0.980500 -0.021670 -0.195319
vt 3.990425 0.619940
v -3349.126221 921.055420 20.823021
vn 0.998005 -0.022947 -0.058821
vt 3.325104 0.627498
v -3347.707275 976.015564 21.805389
vn 0.998005 -0.022947 -0.058821
vt 3.326037 0.766730
v -3328.135010 921.761108 -167.242996
vn 0.999661 -0.023433 0.011389
vt 2.992443 0.631277
v -3326.716064 976.721252 -166.260620
vn 0.999661 -0.023433 0.011389
vt 2.993376 0.770509
v -3285.157959 921.951477 -355.058472
vn 0.996254 -0.023809 0.083133
vt 2.659783 0.635056
v -3283.739258 976.911560 -354.076111
vn 0.996254 -0.023809 0.083133
vt 2.660716 0.774288
v -3220.551270 921.624878 -541.069092
vn 0.861685 -0.016910 -0.507161
vt 2.327122 0.638836
v -3219.132324 976.585022 -540.086731
vn 0.861685 -0.016910 -0.507161
vt 2.328055 0.778067
v -3394.217041 918.411072 602.209167
vn -0.027255 -0.999488 -0.016759
vt 3.323086 0.606072
v -3279.365479 915.925598 571.025635
vn -0.025803 -0.999507 -0.017865
vt 3.323086 0.822340
v -3212.508789 913.258545 744.700195
vn -0.031487 -0.999413 -0.013533
vt 3.655746 0.822340
v -3361.954834 917.203735 797.917358
vn -0.033607 -0.999364 -0.011917
vt 3.655746 0.606072
v -3441.485840 920.707947 414.767334
vn -0.025803 -0.999507 -0.017865
vt 2.990425 0.606072
v -3324.640137 918.125488 391.491241
vn -0.025803 -0.999507 -0.017865
vt 3.004458 0.822340
v -3465.830811 922.498108 222.759079
vn -0.025803 -0.999507 -0.017865
vt 3.657764 0.606072
v -3347.958008 919.840210 207.583099
vn -0.025803 -0.999507 -0.017865
vt 3.657764 0.822340
v -3324.640137 918.125488 391.491241
vn -0.025803 -0.999507 -0.017865
vt 3.990425 0.822340
v -3441.485840 920.707947 414.767334
vn -0.025803 -0.999507 -0.017865
vt 3.990425 0.606072
v -3467.050293 923.766846 27.773344
vn -0.025803 -0.999507 -0.017865
vt 3.325104 0.606072
v -3349.126221 921.055420 20.823021
vn -0.025803 -0.999507 -0.017865
vt 3.325104 0.822340
v -3445.134521 924.503662 -168.575928
vn -0.025803 -0.999507 -0.017865
vt 2.992443 0.606072
v -3328.135010 921.761108 -167.242996
vn -0.025803 -0.999507 -0.017865
vt 2.992443 0.822340
v -3400.264648 924.702393 -364.663635
vn -0.025803 -0.999507 -0.017865
vt 2.659783 0.606072
v -3285.157959 921.951477 -355.058472
vn -0.025803 -0.999507 -0.017865
vt 2.659783 0.822340
v -3332.812500 924.361389 -558.866943
vn -0.025803 -0.999507 -0.017865
vt 2.327122 0.606072
v -3220.551270 921.624878 -541.069092
vn -0.025803 -0.999507 -0.017865
vt 2.341156 0.822340
f 7/7/7 5/5/5 6/6/6
f 5/5/5 7/7/7 8/8/8
f 22/22/22 23/23/23 24/24/24
f 23/23/23 22/22/22 21/21/21
f 20/20/20 21/21/21 22/22/22
f 21/21/21 20/20/20 19/19/19
f 18/18/18 19/19/19 20/20/20
f 19/19/19 18/18/18 17/17/17
f 16/16/16 17/17/17 18/18/18
f 17/17/17 16/16/16 15/15/15
f 14/14/14 15/15/15 16/16/16
f 15/15/15 14/14/14 13/13/13
f 10/10/10 13/13/13 14/14/14
f 13/13/13 10/10/10 9/9/9
f 11/11/11 9/9/9 10/10/10
f 9/9/9 11/11/11 12/12/12
f 40/40/40 41/41/41 42/42/42
f 41/41/41 40/40/40 39/39/39
f 38/38/38 39/39/39 40/40/40
f 39/39/39 38/38/38 37/37/37
f 36/36/36 37/37/37 38/38/38
f 37/37/37 36/36/36 35/35/35
f 32/32/32 35/35/35 36/36/36
f 35/35/35 32/32/32 31/31/31
f 33/33/33 31/31/31 32/32/32
f 31/31/31 33/33/33 34/34/34
f 58/58/58 59/59/59 60/60/60
f 59/59/59 58/58/58 57/57/57
f 56/56/56 57/57/57 58/58/58
f 57/57/57 56/56/56 55/55/55
f 54/54/54 55/55/55 56/56/56
f 55/55/55 54/54/54 53/53/53
f 50/50/50 53/53/53 54/54/54
f 53/53/53 50/50/50 49/49/49
f 51/51/51 49/49/49 50/50/50
f 49/49/49 51/51/51 52/52/52
f 26/26/26 29/29/29 30/30/30
f 29/29/29 26/26/26 25/25/25
f 27/27/27 25/25/25 26/26/26
f 25/25/25 27/27/27 28/28/28
f 44/44/44 47/47/47 48/48/48
f 47/47/47 44/44/44 43/43/43
f 45/45/45 43/43/43 44/44/44
f 43/43/43 45/45/45 46/46/46
f 3/3/3 1/1/1 2/2/2
f 1/1/1 3/3/3 4/4/4
