mtllib CH09_SMAUG_PLAYSURFACE_LONELYMOUNTAIN_LM_PLAYSURFACE10.mtl
g M_playsurface10
usemtl fbyu
v -701.124939 173.458023 -8737.963867
vn 0.356786 0.841641 -0.405395
vt 0.000000 0.000000
v -822.558960 231.586258 -8717.105469
vn -0.173034 0.889691 -0.422504
vt 0.000000 0.181818
v -776.391479 264.777435 -8655.684570
vn 0.118031 0.991394 -0.056628
vt 0.090909 0.181818
v -701.124939 173.458023 -8737.963867
vn 0.356786 0.841641 -0.405395
vt 0.090909 0.000000
v -709.307068 240.336594 -8617.480469
vn 0.504805 0.860333 0.070703
vt 0.181818 0.181818
v -701.124939 173.458023 -8737.963867
vn 0.356786 0.841641 -0.405395
vt 0.181818 0.000000
v -639.139771 180.004715 -8618.523438
vn 0.579875 0.810360 -0.084027
vt 0.272727 0.181818
v -701.124939 173.458023 -8737.963867
vn 0.356786 0.841641 -0.405395
vt 0.272727 0.000000
v -590.992798 136.578400 -8655.300781
vn 0.477730 0.857404 -0.191397
vt 0.363636 0.181818
v -701.124939 173.458023 -8737.963867
vn 0.356786 0.841641 -0.405395
vt 0.363636 0.000000
v -576.280151 115.625221 -8720.505859
vn 0.379930 0.919493 -0.100922
vt 0.454545 0.181818
v -701.124939 173.458023 -8737.963867
vn 0.356786 0.841641 -0.405395
vt 0.454545 0.000000
v -600.098999 117.169243 -8792.954102
vn 0.258308 0.923847 -0.282459
vt 0.545455 0.181818
v -701.124939 173.458023 -8737.963867
vn 0.356786 0.841641 -0.405395
vt 0.545455 0.000000
v -657.692627 113.317261 -8846.472656
vn 0.207739 0.886482 -0.413514
vt 0.636364 0.181818
v -701.124939 173.458023 -8737.963867
vn 0.356786 0.841641 -0.405395
vt 0.636364 0.000000
v -732.497192 111.593994 -8862.124023
vn 0.153277 0.903541 -0.400150
vt 0.727273 0.181818
v -701.124939 173.458023 -8737.963867
vn 0.356786 0.841641 -0.405395
vt 0.727273 0.000000
v -796.518799 139.328705 -8839.736328
vn 0.148766 0.871338 -0.467588
vt 0.818182 0.181818
v -701.124939 173.458023 -8737.963867
vn 0.356786 0.841641 -0.405395
vt 0.818182 0.000000
v -828.468079 182.190094 -8787.507813
vn -0.025549 0.848523 -0.528541
vt 0.909091 0.181818
v -701.124939 173.458023 -8737.963867
vn 0.356786 0.841641 -0.405395
vt 0.909091 0.000000
v -822.558960 231.586258 -8717.105469
vn -0.173034 0.889691 -0.422504
vt 1.000000 0.181818
v -829.553040 245.493729 -8599.416016
vn -0.460439 0.753979 0.468520
vt 0.090909 0.363636
v -911.456909 190.003799 -8703.842773
vn -0.751117 0.658563 -0.046023
vt 0.000000 0.363636
v -718.553589 194.406906 -8527.091797
vn 0.121916 0.662765 0.738837
vt 0.181818 0.363636
v -598.582031 125.303574 -8532.031250
vn 0.522497 0.647485 0.554761
vt 0.272727 0.363636
v -511.679565 97.485672 -8594.501953
vn 0.666221 0.727451 0.164210
vt 0.363636 0.363636
v -481.269348 73.726540 -8713.121094
vn 0.615907 0.787031 -0.035229
vt 0.454545 0.363636
v -518.151489 97.020630 -8843.800781
vn 0.355260 0.846680 -0.396135
vt 0.545455 0.363636
v -627.908142 59.357544 -8925.492188
vn 0.293297 0.637583 -0.712366
vt 0.636364 0.363636
v -752.484375 81.354355 -8958.477539
vn 0.061670 0.682941 -0.727866
vt 0.727273 0.363636
v -863.810547 120.055298 -8919.307617
vn -0.275021 0.744787 -0.607993
vt 0.818182 0.363636
v -916.210815 145.756149 -8832.111328
vn -0.609762 0.704557 -0.363029
vt 0.909091 0.363636
v -911.456909 190.003799 -8703.842773
vn -0.751117 0.658563 -0.046023
vt 1.000000 0.363636
v -882.369629 72.251785 -8541.145508
vn -0.676861 0.005685 0.736089
vt 0.090909 0.545455
v -959.151794 -49.493454 -8701.409180
vn -0.955271 -0.070774 0.287140
vt 0.000000 0.545455
v -721.055176 45.119473 -8474.841797
vn -0.165095 0.002170 0.986275
vt 0.181818 0.545455
v -576.380920 11.484020 -8486.915039
vn 0.331927 -0.016843 0.943155
vt 0.272727 0.545455
v -464.545624 -0.255051 -8555.819336
vn 0.824615 0.024398 0.565168
vt 0.363636 0.545455
v -423.821106 -5.964273 -8707.643555
vn 0.996953 0.071376 -0.031476
vt 0.454545 0.545455
v -469.100403 48.137173 -8872.888672
vn 0.819774 0.161163 -0.549542
vt 0.545455 0.545455
v -616.492310 -55.552963 -8964.631836
vn 0.383833 0.006530 -0.923380
vt 0.636364 0.545455
v -768.867310 -72.821533 -9010.637695
vn -0.008521 -0.089112 -0.995985
vt 0.727273 0.545455
v -904.153198 -58.451897 -8966.566406
vn -0.613330 -0.072161 -0.786523
vt 0.818182 0.545455
v -969.472534 -57.626251 -8857.629883
vn -0.970370 -0.055530 -0.235158
vt 0.909091 0.545455
v -959.151794 -49.493454 -8701.409180
vn -0.955271 -0.070774 0.287140
vt 1.000000 0.545455
v -839.149170 -124.591148 -8592.651367
vn -0.411217 -0.713655 0.567095
vt 0.090909 0.727273
v -917.734497 -152.477386 -8706.963867
vn -0.601415 -0.760438 0.245021
vt 0.000000 0.727273
v -717.651611 -104.623596 -8525.835938
vn -0.148739 -0.698060 0.700421
vt 0.181818 0.727273
v -601.366333 -100.826477 -8533.360352
vn 0.116889 -0.717787 0.686381
vt 0.272727 0.727273
v -511.257507 -111.847916 -8587.226563
vn 0.423737 -0.767983 0.480259
vt 0.363636 0.727273
v -483.015808 -115.870102 -8706.166992
vn 0.635347 -0.772210 0.005116
vt 0.454545 0.727273
v -521.148193 -93.933220 -8841.022461
vn 0.636714 -0.717179 -0.283284
vt 0.545455 0.727273
v -633.266724 -154.923904 -8926.501953
vn 0.480366 -0.755338 -0.445772
vt 0.636364 0.727273
v -762.755127 -162.262375 -8959.628906
vn 0.073384 -0.820178 -0.567382
vt 0.727273 0.727273
v -877.572388 -159.265488 -8919.402344
vn -0.318296 -0.824937 -0.467083
vt 0.818182 0.727273
v -930.894287 -157.465866 -8830.233398
vn -0.580139 -0.794849 -0.177915
vt 0.909091 0.727273
v -917.734497 -152.477386 -8706.963867
vn -0.601415 -0.760438 0.245021
vt 1.000000 0.727273
v -711.010254 -132.440918 -8736.453125
vn 0.085468 -0.991716 0.095886
vt 0.000000 0.909091
v -711.010254 -132.440918 -8736.453125
vn 0.085468 -0.991716 0.095886
vt 0.090909 0.909091
v -711.010254 -132.440918 -8736.453125
vn 0.085468 -0.991716 0.095886
vt 0.181818 0.909091
v -711.010254 -132.440918 -8736.453125
vn 0.085468 -0.991716 0.095886
vt 0.272727 0.909091
v -711.010254 -132.440918 -8736.453125
vn 0.085468 -0.991716 0.095886
vt 0.363636 0.909091
v -711.010254 -132.440918 -8736.453125
vn 0.085468 -0.991716 0.095886
vt 0.454545 0.909091
v -711.010254 -132.440918 -8736.453125
vn 0.085468 -0.991716 0.095886
vt 0.545455 0.909091
v -711.010254 -132.440918 -8736.453125
vn 0.085468 -0.991716 0.095886
vt 0.636364 0.909091
v -762.755127 -162.262375 -8959.628906
vn 0.073384 -0.820178 -0.567382
vt 0.727273 0.727273
v -633.266724 -154.923904 -8926.501953
vn 0.480366 -0.755338 -0.445772
vt 0.636364 0.727273
v -711.010254 -132.440918 -8736.453125
vn 0.085468 -0.991716 0.095886
vt 0.727273 0.909091
v -711.010254 -132.440918 -8736.453125
vn 0.085468 -0.991716 0.095886
vt 0.818182 0.909091
v -930.894287 -157.465866 -8830.233398
vn -0.580139 -0.794849 -0.177915
vt 0.909091 0.727273
v -877.572388 -159.265488 -8919.402344
vn -0.318296 -0.824937 -0.467083
vt 0.818182 0.727273
v -711.010254 -132.440918 -8736.453125
vn 0.085468 -0.991716 0.095886
vt 0.909091 0.909091
f 67/67/67 68/68/68 69/69/69
f 48/48/48 37/37/37 49/49/49
f 37/37/37 48/48/48 36/36/36
f 50/50/50 36/36/36 48/48/48
f 36/36/36 50/50/50 38/38/38
f 51/51/51 38/38/38 50/50/50
f 38/38/38 51/51/51 39/39/39
f 52/52/52 39/39/39 51/51/51
f 39/39/39 52/52/52 40/40/40
f 53/53/53 40/40/40 52/52/52
f 40/40/40 53/53/53 41/41/41
f 54/54/54 41/41/41 53/53/53
f 41/41/41 54/54/54 42/42/42
f 55/55/55 42/42/42 54/54/54
f 42/42/42 55/55/55 43/43/43
f 56/56/56 43/43/43 55/55/55
f 43/43/43 56/56/56 44/44/44
f 57/57/57 44/44/44 56/56/56
f 44/44/44 57/57/57 45/45/45
f 61/61/61 50/50/50 48/48/48
f 62/62/62 51/51/51 50/50/50
f 63/63/63 52/52/52 51/51/51
f 64/64/64 53/53/53 52/52/52
f 65/65/65 54/54/54 53/53/53
f 66/66/66 55/55/55 54/54/54
f 70/70/70 57/57/57 56/56/56
f 60/60/60 48/48/48 49/49/49
f 58/58/58 45/45/45 57/57/57
f 45/45/45 58/58/58 46/46/46
f 59/59/59 46/46/46 58/58/58
f 46/46/46 59/59/59 47/47/47
f 74/74/74 59/59/59 58/58/58
f 34/34/34 47/47/47 35/35/35
f 47/47/47 34/34/34 46/46/46
f 33/33/33 46/46/46 34/34/34
f 46/46/46 33/33/33 45/45/45
f 32/32/32 45/45/45 33/33/33
f 45/45/45 32/32/32 44/44/44
f 31/31/31 44/44/44 32/32/32
f 44/44/44 31/31/31 43/43/43
f 30/30/30 43/43/43 31/31/31
f 43/43/43 30/30/30 42/42/42
f 29/29/29 42/42/42 30/30/30
f 42/42/42 29/29/29 41/41/41
f 28/28/28 41/41/41 29/29/29
f 41/41/41 28/28/28 40/40/40
f 27/27/27 40/40/40 28/28/28
f 40/40/40 27/27/27 39/39/39
f 26/26/26 39/39/39 27/27/27
f 39/39/39 26/26/26 38/38/38
f 21/21/21 35/35/35 23/23/23
f 35/35/35 21/21/21 34/34/34
f 19/19/19 34/34/34 21/21/21
f 34/34/34 19/19/19 33/33/33
f 17/17/17 33/33/33 19/19/19
f 33/33/33 17/17/17 32/32/32
f 15/15/15 32/32/32 17/17/17
f 32/32/32 15/15/15 31/31/31
f 13/13/13 31/31/31 15/15/15
f 31/31/31 13/13/13 30/30/30
f 11/11/11 30/30/30 13/13/13
f 30/30/30 11/11/11 29/29/29
f 9/9/9 29/29/29 11/11/11
f 29/29/29 9/9/9 28/28/28
f 7/7/7 28/28/28 9/9/9
f 28/28/28 7/7/7 27/27/27
f 5/5/5 27/27/27 7/7/7
f 27/27/27 5/5/5 26/26/26
f 10/10/10 9/9/9 11/11/11
f 8/8/8 7/7/7 9/9/9
f 12/12/12 11/11/11 13/13/13
f 14/14/14 13/13/13 15/15/15
f 16/16/16 15/15/15 17/17/17
f 6/6/6 5/5/5 7/7/7
f 18/18/18 17/17/17 19/19/19
f 20/20/20 19/19/19 21/21/21
f 22/22/22 21/21/21 23/23/23
f 4/4/4 3/3/3 5/5/5
f 3/3/3 26/26/26 5/5/5
f 26/26/26 3/3/3 24/24/24
f 2/2/2 24/24/24 3/3/3
f 24/24/24 2/2/2 25/25/25
f 1/1/1 2/2/2 3/3/3
f 24/24/24 38/38/38 26/26/26
f 38/38/38 24/24/24 36/36/36
f 25/25/25 36/36/36 24/24/24
f 36/36/36 25/25/25 37/37/37
f 71/71/71 72/72/72 73/73/73
