mtllib CH09_SMAUG_PLAYSURFACE_LAIR105.mtl
g lair105
usemtl Material_#67482
v 268.908203 331.388092 -3550.885742
vn -1.000000 0.000539 -0.000006
vt -3.461574 1.000000
v 269.030609 397.640778 -3553.072266
vn -0.999998 0.001847 -0.000021
vt -3.454125 0.000000
v 269.030579 396.389069 -3658.784668
vn -0.999998 0.001847 -0.000021
vt -3.073470 0.000000
v 268.908142 330.136383 -3656.598145
vn -1.000000 0.000539 -0.000006
vt -3.080918 1.000000
v -125.653145 397.640778 -3553.072266
vn 0.999998 0.001847 -0.000022
vt -3.081688 0.000000
v -125.530739 331.388092 -3550.885498
vn 1.000000 0.000539 -0.000007
vt -3.089987 1.000000
v -125.530785 330.136383 -3656.597900
vn 1.000000 0.000539 -0.000007
vt -2.709332 1.000000
v -125.653191 396.389069 -3658.784668
vn 0.999998 0.001847 -0.000022
vt -2.701031 0.000000
v 269.030457 392.652771 -3974.344238
vn -0.999998 0.001847 -0.000022
vt -1.937184 0.000000
v 268.908051 326.400085 -3972.157715
vn -1.000000 0.000539 -0.000007
vt -1.944631 1.000000
v -125.653191 396.389069 -3658.784668
vn 0.999998 0.001847 -0.000022
vt -3.701031 0.000000
v -125.530785 330.136383 -3656.597900
vn 1.000000 0.000539 -0.000007
vt -3.709332 1.000000
v -125.530884 326.400085 -3972.157471
vn 0.999999 0.000975 -0.000012
vt -2.573045 1.000000
v -125.653290 392.652771 -3974.344238
vn 0.999998 0.001847 -0.000022
vt -2.564745 0.000000
v 268.908051 326.400085 -3972.157715
vn -1.000000 0.000539 -0.000007
vt -3.944631 1.000000
v 269.030457 392.652771 -3974.344238
vn -0.999998 0.001847 -0.000022
vt -3.937184 0.000000
v 269.030273 386.153748 -4523.255371
vn -0.999998 0.001847 -0.000022
vt -1.960632 0.000000
v 268.907867 319.901062 -4521.068848
vn -0.999999 0.000975 -0.000012
vt -1.968081 1.000000
v -125.653290 392.652771 -3974.344238
vn 0.999998 0.001847 -0.000022
vt -3.564745 0.000000
v -125.530884 326.400085 -3972.157471
vn 0.999999 0.000975 -0.000012
vt -3.573045 1.000000
v -125.531067 319.901062 -4521.068359
vn 0.995737 0.001434 0.092232
vt -1.596495 1.000000
v -125.653481 386.153748 -4523.255371
vn 0.995694 0.004896 0.092576
vt -1.588194 0.000000
v 268.907867 319.901062 -4521.068848
vn -0.999999 0.000975 -0.000012
vt -3.968081 1.000000
v 269.030273 386.153748 -4523.255371
vn -0.999998 0.001847 -0.000022
vt -3.960632 0.000000
v 227.437881 381.239471 -5068.547363
vn -0.920762 0.003593 0.390107
vt -1.852483 0.000000
v 228.764816 314.986786 -5066.805176
vn -0.921435 -0.004842 0.388501
vt -1.863370 1.000000
v 228.764816 314.986786 -5066.805176
vn -0.921435 -0.004842 0.388501
vt -3.863370 1.000000
v 227.437881 381.239471 -5068.547363
vn -0.920762 0.003593 0.390107
vt -3.852483 0.000000
v -4.695196 377.804932 -5330.333496
vn -0.637576 0.002535 0.770383
vt -2.102628 0.000000
v -2.905790 311.552246 -5329.070801
vn -0.638710 -0.001798 0.769446
vt -2.113398 1.000000
v -250.175461 375.110107 -5476.579102
vn -0.379227 0.002579 0.925300
vt -0.722407 0.000000
v -248.095078 308.857422 -5475.894531
vn -0.380757 -0.001715 0.924673
vt -0.732106 1.000000
v -527.687073 372.415283 -5544.663086
vn -0.102681 0.002223 0.994712
vt 0.487749 0.000000
v -525.497498 306.162598 -5544.616699
vn -0.103765 -0.001823 0.994600
vt 0.479967 1.000000
v -352.327026 375.110077 -5095.343750
vn 0.459473 0.008868 -0.888147
vt -1.739969 0.000000
v -350.182831 308.857391 -5094.895996
vn 0.460933 0.000232 -0.887435
vt -1.749037 1.000000
v -511.731262 306.162567 -5150.418457
vn 0.147529 -0.000109 -0.989058
vt -0.987354 1.000000
v -513.912659 372.415253 -5150.219727
vn 0.145592 0.007761 -0.989314
vt -0.980484 0.000000
v -911.244446 367.871094 -5531.269043
vn -0.203088 -0.006027 0.979142
vt 1.773268 0.000000
v -909.054871 301.618408 -5531.222656
vn -0.201358 -0.001783 0.979516
vt 1.765487 1.000000
v -895.288696 301.618378 -5137.024414
vn 0.166158 0.002453 -0.986096
vt 0.298165 1.000000
v -897.470093 367.871063 -5136.825684
vn 0.165780 0.008416 -0.986127
vt 0.305035 0.000000
v -1090.430420 362.005859 -5616.577148
vn -0.638673 -0.010611 0.769405
vt 2.703536 0.000000
v -1088.795532 295.753174 -5615.119629
vn -0.634971 0.002806 0.772531
vt 2.692602 1.000000
v -1334.338989 295.753174 -5306.428223
vn 0.610088 0.006314 -0.792308
vt 2.434881 1.000000
v -1336.126831 362.005859 -5307.693848
vn 0.611209 0.001374 -0.791468
vt 2.445656 0.000000
v -1218.142090 357.522461 -5792.117676
vn -0.885849 -0.002678 0.463965
vt 3.779729 0.000000
v -1217.528076 291.269775 -5790.015137
vn -0.883924 0.003814 0.467616
vt 3.770021 1.000000
v -1336.126831 362.005859 -5307.693848
vn 0.611209 0.001374 -0.791468
vt 1.445656 0.000000
v -1334.338989 295.753174 -5306.428223
vn 0.610088 0.006314 -0.792308
vt 1.434881 1.000000
v -1589.341919 291.269775 -5658.348633
vn 0.907442 0.004270 -0.420155
vt 3.588822 1.000000
v -1590.187378 357.522461 -5660.369141
vn 0.907934 -0.001195 -0.419111
vt 3.599038 0.000000
v -1217.528076 291.269775 -5790.015137
vn -0.883924 0.003814 0.467616
vt 2.770021 1.000000
v -1218.142090 357.522461 -5792.117676
vn -0.885849 -0.002678 0.463965
vt 2.779729 0.000000
v -1263.359131 352.515869 -5921.634277
vn -0.989347 0.001816 0.145568
vt 3.403333 0.000000
v -1263.577515 286.263184 -5919.455078
vn -0.988921 0.003667 0.148401
vt 3.396245 1.000000
v -1590.187378 357.522461 -5660.369141
vn 0.907934 -0.001195 -0.419111
vt 2.599038 0.000000
v -1589.341919 291.269775 -5658.348633
vn 0.907442 0.004270 -0.420155
vt 2.588822 1.000000
v -1657.640503 286.263184 -5936.659668
vn 0.995146 0.002352 -0.098387
vt 3.828477 1.000000
v -1657.667603 352.515869 -5938.850098
vn 0.995296 -0.002795 -0.096842
vt 3.836459 0.000000
v -1263.577515 286.263184 -5919.455078
vn -0.988921 0.003667 0.148401
vt 2.396245 1.000000
v -1263.359131 352.515869 -5921.634277
vn -0.989347 0.001816 0.145568
vt 2.403333 0.000000
v -1247.117065 348.107208 -6293.640137
vn -0.999046 0.001858 -0.043641
vt 3.686395 0.000000
v -1247.335449 281.854523 -6291.460938
vn -0.999047 0.000980 -0.043631
vt 3.679307 1.000000
v -1657.667603 352.515869 -5938.850098
vn 0.995296 -0.002795 -0.096842
vt 1.836459 0.000000
v -1657.640503 286.263184 -5936.659668
vn 0.995146 0.002352 -0.098387
vt 1.828477 1.000000
v -1641.398438 281.854523 -6308.665527
vn 0.999048 0.000976 0.043607
vt 3.111538 1.000000
v -1641.425537 348.107208 -6310.855957
vn 0.999048 0.001850 0.043597
vt 3.119521 0.000000
v -1247.335449 281.854523 -6291.460938
vn -0.999047 0.000980 -0.043631
vt 2.679307 1.000000
v -1247.117065 348.107208 -6293.640137
vn -0.999046 0.001858 -0.043641
vt 2.686395 0.000000
v -1230.599731 343.623840 -6671.951172
vn -0.999046 0.001858 -0.043641
vt 3.991205 0.000000
v -1230.818115 277.371155 -6669.771973
vn -0.999047 0.000980 -0.043631
vt 3.984116 1.000000
v -1641.425537 348.107208 -6310.855957
vn 0.999048 0.001850 0.043597
vt 2.119521 0.000000
v -1641.398438 281.854523 -6308.665527
vn 0.999048 0.000976 0.043607
vt 2.111538 1.000000
v -1624.881104 277.371155 -6686.976563
vn 0.999048 0.000976 0.043607
vt 3.416348 1.000000
v -1624.908203 343.623840 -6689.166992
vn 0.999048 0.001850 0.043597
vt 3.424330 0.000000
v -1230.818115 277.371155 -6669.771973
vn -0.999047 0.000980 -0.043631
vt 2.984116 1.000000
v -1230.599731 343.623840 -6671.951172
vn -0.999046 0.001858 -0.043641
vt 2.991205 0.000000
v -1223.166992 341.606262 -6842.191406
vn -0.999046 0.001858 -0.043641
vt 3.578369 0.000000
v -1223.385376 275.353577 -6840.012207
vn -0.999047 0.000980 -0.043630
vt 3.571281 1.000000
v -1624.908203 343.623840 -6689.166992
vn 0.999048 0.001850 0.043597
vt 2.424330 0.000000
v -1624.881104 277.371155 -6686.976563
vn 0.999048 0.000976 0.043607
vt 2.416348 1.000000
v -1617.448364 275.353577 -6857.216797
vn 0.999048 0.000976 0.043607
vt 3.003513 1.000000
v -1617.475464 341.606262 -6859.407227
vn 0.999048 0.001850 0.043597
vt 3.011497 0.000000
v -1223.385376 275.353577 -6840.012207
vn -0.999047 0.000980 -0.043630
vt 2.571281 1.000000
v -1223.166992 341.606262 -6842.191406
vn -0.999046 0.001858 -0.043641
vt 2.578369 0.000000
v -1209.677979 337.944885 -7180.851074
vn -0.999205 0.001984 -0.039821
vt 3.750929 0.000000
v -1209.896362 271.692200 -7178.671875
vn -0.999207 0.000577 -0.039806
vt 3.743841 1.000000
v -1617.475464 341.606262 -6859.407227
vn 0.999048 0.001850 0.043597
vt 2.011497 0.000000
v -1617.448364 275.353577 -6857.216797
vn 0.999048 0.000976 0.043607
vt 2.003513 1.000000
v -1603.959351 271.692200 -7166.170898
vn 0.999048 0.000540 0.043613
vt 3.069107 1.000000
v -1603.986450 337.944885 -7168.361328
vn 0.999048 0.001850 0.043597
vt 3.077090 0.000000
v -125.653481 386.153748 -4523.255371
vn 0.995694 0.004896 0.092576
vt -3.588194 0.000000
v -125.531067 319.901062 -4521.068359
vn 0.995737 0.001434 0.092232
vt -3.596495 1.000000
v -71.168564 314.986786 -4810.637207
vn 0.972728 -0.000315 -0.231949
vt -2.742833 1.000000
v -72.681992 381.239471 -4812.220703
vn 0.972081 0.016612 -0.234057
vt -2.731868 0.000000
v -72.681992 381.239471 -4812.220703
vn 0.972081 0.016612 -0.234057
vt -3.731868 0.000000
v -71.168564 314.986786 -4810.637207
vn 0.972728 -0.000315 -0.231949
vt -3.742833 1.000000
v -211.926117 311.552216 -4994.567383
vn 0.697800 0.000125 -0.716292
vt -2.591069 1.000000
v -213.845642 377.804901 -4995.622559
vn 0.696927 0.008771 -0.717088
vt -2.580594 0.000000
f 7/7/7 5/5/5 6/6/6
f 5/5/5 7/7/7 8/8/8
f 44/44/44 47/47/47 48/48/48
f 47/47/47 44/44/44 43/43/43
f 40/40/40 43/43/43 44/44/44
f 43/43/43 40/40/40 39/39/39
f 34/34/34 39/39/39 40/40/40
f 39/39/39 34/34/34 33/33/33
f 32/32/32 33/33/33 34/34/34
f 33/33/33 32/32/32 31/31/31
f 30/30/30 31/31/31 32/32/32
f 31/31/31 30/30/30 29/29/29
f 27/27/27 29/29/29 30/30/30
f 29/29/29 27/27/27 28/28/28
f 99/99/99 97/97/97 98/98/98
f 97/97/97 99/99/99 100/100/100
f 36/36/36 100/100/100 99/99/99
f 100/100/100 36/36/36 35/35/35
f 37/37/37 35/35/35 36/36/36
f 35/35/35 37/37/37 38/38/38
f 41/41/41 38/38/38 37/37/37
f 38/38/38 41/41/41 42/42/42
f 45/45/45 42/42/42 41/41/41
f 42/42/42 45/45/45 46/46/46
f 3/3/3 1/1/1 2/2/2
f 1/1/1 3/3/3 4/4/4
f 9/9/9 4/4/4 3/3/3
f 4/4/4 9/9/9 10/10/10
f 13/13/13 11/11/11 12/12/12
f 11/11/11 13/13/13 14/14/14
f 17/17/17 15/15/15 16/16/16
f 15/15/15 17/17/17 18/18/18
f 21/21/21 19/19/19 20/20/20
f 19/19/19 21/21/21 22/22/22
f 25/25/25 23/23/23 24/24/24
f 23/23/23 25/25/25 26/26/26
f 51/51/51 49/49/49 50/50/50
f 49/49/49 51/51/51 52/52/52
f 55/55/55 53/53/53 54/54/54
f 53/53/53 55/55/55 56/56/56
f 59/59/59 57/57/57 58/58/58
f 57/57/57 59/59/59 60/60/60
f 63/63/63 61/61/61 62/62/62
f 61/61/61 63/63/63 64/64/64
f 67/67/67 65/65/65 66/66/66
f 65/65/65 67/67/67 68/68/68
f 71/71/71 69/69/69 70/70/70
f 69/69/69 71/71/71 72/72/72
f 75/75/75 73/73/73 74/74/74
f 73/73/73 75/75/75 76/76/76
f 79/79/79 77/77/77 78/78/78
f 77/77/77 79/79/79 80/80/80
f 83/83/83 81/81/81 82/82/82
f 81/81/81 83/83/83 84/84/84
f 87/87/87 85/85/85 86/86/86
f 85/85/85 87/87/87 88/88/88
f 91/91/91 89/89/89 90/90/90
f 89/89/89 91/91/91 92/92/92
f 95/95/95 93/93/93 94/94/94
f 93/93/93 95/95/95 96/96/96
