mtllib CH09_SMAUG_PLAYSURFACE_LONELYMOUNTAIN_LM_PLAYSURFACE34.mtl
g M_playsurface34
usemtl fbyu
v -619.488342 168.395035 -7419.669922
vn -0.099193 0.534037 -0.839622
vt 0.000000 0.000000
v -700.685913 113.289635 -7457.719238
vn -0.353560 0.625862 -0.695192
vt 0.000000 0.181818
v -684.875000 146.048294 -7390.312012
vn -0.533970 0.731616 -0.423809
vt 0.090909 0.181818
v -619.488342 168.395035 -7419.669922
vn -0.099193 0.534037 -0.839622
vt 0.090909 0.000000
v -653.646851 179.065613 -7331.125488
vn -0.640800 0.767672 -0.007453
vt 0.181818 0.181818
v -619.488342 168.395035 -7419.669922
vn -0.099193 0.534037 -0.839622
vt 0.181818 0.000000
v -623.806396 207.968033 -7298.802734
vn -0.334059 0.833887 0.439361
vt 0.272727 0.181818
v -619.488342 168.395035 -7419.669922
vn -0.099193 0.534037 -0.839622
vt 0.272727 0.000000
v -594.799255 213.540573 -7304.375000
vn 0.435990 0.889905 0.134097
vt 0.363636 0.181818
v -619.488342 168.395035 -7419.669922
vn -0.099193 0.534037 -0.839622
vt 0.363636 0.000000
v -572.345276 190.662888 -7347.530273
vn 0.650921 0.608356 -0.454098
vt 0.454545 0.181818
v -619.488342 168.395035 -7419.669922
vn -0.099193 0.534037 -0.839622
vt 0.454545 0.000000
v -563.894043 161.644714 -7414.383301
vn 0.469568 0.454060 -0.757189
vt 0.545455 0.181818
v -619.488342 168.395035 -7419.669922
vn -0.099193 0.534037 -0.839622
vt 0.545455 0.000000
v -574.120544 126.059349 -7482.588867
vn 0.194307 0.428987 -0.882165
vt 0.636364 0.181818
v -619.488342 168.395035 -7419.669922
vn -0.099193 0.534037 -0.839622
vt 0.636364 0.000000
v -605.881836 96.903168 -7529.151855
vn 0.017387 0.549131 -0.835555
vt 0.727273 0.181818
v -619.488342 168.395035 -7419.669922
vn -0.099193 0.534037 -0.839622
vt 0.727273 0.000000
v -645.235840 93.209900 -7541.097168
vn -0.059828 0.634477 -0.770622
vt 0.818182 0.181818
v -619.488342 168.395035 -7419.669922
vn -0.099193 0.534037 -0.839622
vt 0.818182 0.000000
v -681.692810 96.266167 -7514.756836
vn -0.191582 0.609565 -0.769238
vt 0.909091 0.181818
v -619.488342 168.395035 -7419.669922
vn -0.099193 0.534037 -0.839622
vt 0.909091 0.000000
v -700.685913 113.289635 -7457.719238
vn -0.353560 0.625862 -0.695192
vt 1.000000 0.181818
v -767.748230 82.028389 -7364.046875
vn -0.691607 0.703656 0.162935
vt 0.090909 0.363636
v -760.238159 76.074165 -7486.294434
vn -0.518244 0.547758 -0.656799
vt 0.000000 0.363636
v -702.950500 120.081528 -7264.115723
vn -0.463459 0.464897 0.754372
vt 0.181818 0.363636
v -629.325745 159.425430 -7213.220703
vn -0.174762 0.286431 0.942027
vt 0.272727 0.363636
v -577.526428 157.051727 -7220.350586
vn 0.294680 0.279101 0.913929
vt 0.363636 0.363636
v -535.181885 107.058701 -7297.141602
vn 0.867277 0.327779 0.374688
vt 0.454545 0.363636
v -517.445190 40.551666 -7414.865723
vn 0.867896 0.279845 -0.410418
vt 0.545455 0.363636
v -542.085327 44.691784 -7529.248535
vn 0.608642 0.228249 -0.759906
vt 0.636364 0.363636
v -585.143921 62.994431 -7613.188477
vn 0.235882 0.307963 -0.921693
vt 0.727273 0.363636
v -644.547546 72.921646 -7634.990234
vn -0.050902 0.406864 -0.912070
vt 0.818182 0.363636
v -702.962219 75.001495 -7590.686523
vn -0.283523 0.449429 -0.847129
vt 0.909091 0.363636
v -760.238159 76.074165 -7486.294434
vn -0.518244 0.547758 -0.656799
vt 1.000000 0.363636
v -831.921082 -9.767582 -7340.964355
vn -0.905833 0.019889 0.423168
vt 0.090909 0.545455
v -801.142334 -45.471008 -7500.793945
vn -0.645748 -0.102075 -0.756697
vt 0.000000 0.545455
v -763.848145 12.047682 -7215.397461
vn -0.311377 0.066816 0.947935
vt 0.181818 0.545455
v -662.567078 15.454311 -7163.890625
vn -0.088959 0.004838 0.996024
vt 0.272727 0.545455
v -573.527527 5.418064 -7167.706543
vn 0.194413 -0.028288 0.980512
vt 0.363636 0.545455
v -512.965515 -21.951458 -7265.896973
vn 0.647796 -0.047359 0.760341
vt 0.454545 0.545455
v -489.972870 -52.862679 -7414.121094
vn 0.976927 -0.035372 -0.210623
vt 0.545455 0.545455
v -527.418274 -64.298492 -7553.953125
vn 0.624046 -0.028443 -0.780870
vt 0.636364 0.545455
v -578.421570 -59.751568 -7661.002930
vn 0.299954 -0.033971 -0.953349
vt 0.727273 0.545455
v -646.826416 -47.814915 -7690.593750
vn -0.048086 -0.019101 -0.998661
vt 0.818182 0.545455
v -718.338501 -49.593353 -7635.363281
vn -0.327349 -0.043529 -0.943900
vt 0.909091 0.545455
v -801.142334 -45.471008 -7500.793945
vn -0.645748 -0.102075 -0.756697
vt 1.000000 0.545455
v -771.814270 -107.715195 -7363.188965
vn -0.502696 -0.776128 0.380686
vt 0.090909 0.727273
v -746.738831 -126.956413 -7493.522461
vn -0.470593 -0.770809 -0.429414
vt 0.000000 0.727273
v -737.987427 -87.456871 -7254.485840
vn -0.246344 -0.486715 0.838107
vt 0.181818 0.727273
v -659.639160 -83.379059 -7211.544434
vn -0.097465 -0.400430 0.911129
vt 0.272727 0.727273
v -585.889465 -92.677734 -7213.669434
vn 0.041045 -0.410632 0.910877
vt 0.363636 0.727273
v -537.653503 -111.857353 -7292.622070
vn 0.306798 -0.499289 0.810300
vt 0.454545 0.727273
v -519.369629 -131.478058 -7414.143066
vn 0.580844 -0.721964 0.376015
vt 0.545455 0.727273
v -543.904175 -137.446701 -7532.563477
vn 0.517816 -0.687561 -0.509045
vt 0.636364 0.727273
v -588.749268 -135.211914 -7618.950195
vn 0.274535 -0.586617 -0.761913
vt 0.727273 0.727273
v -646.171570 -132.683456 -7642.074707
vn -0.014690 -0.535728 -0.844263
vt 0.818182 0.727273
v -697.892639 -131.163284 -7597.700684
vn -0.269929 -0.584480 -0.765194
vt 0.909091 0.727273
v -746.738831 -126.956413 -7493.522461
vn -0.470593 -0.770809 -0.429414
vt 1.000000 0.727273
v -649.970398 -110.051842 -7419.620605
vn -0.053653 -0.923411 0.380044
vt 0.000000 0.909091
v -649.970398 -110.051842 -7419.620605
vn -0.053653 -0.923411 0.380044
vt 0.090909 0.909091
v -737.987427 -87.456871 -7254.485840
vn -0.246344 -0.486715 0.838107
vt 0.181818 0.727273
v -649.970398 -110.051842 -7419.620605
vn -0.053653 -0.923411 0.380044
vt 0.181818 0.909091
v -649.970398 -110.051842 -7419.620605
vn -0.053653 -0.923411 0.380044
vt 0.272727 0.909091
v -649.970398 -110.051842 -7419.620605
vn -0.053653 -0.923411 0.380044
vt 0.363636 0.909091
v -649.970398 -110.051842 -7419.620605
vn -0.053653 -0.923411 0.380044
vt 0.454545 0.909091
v -649.970398 -110.051842 -7419.620605
vn -0.053653 -0.923411 0.380044
vt 0.545455 0.909091
v -649.970398 -110.051842 -7419.620605
vn -0.053653 -0.923411 0.380044
vt 0.636364 0.909091
v -649.970398 -110.051842 -7419.620605
vn -0.053653 -0.923411 0.380044
vt 0.727273 0.909091
v -646.171570 -132.683456 -7642.074707
vn -0.014690 -0.535728 -0.844263
vt 0.818182 0.727273
v -649.970398 -110.051842 -7419.620605
vn -0.053653 -0.923411 0.380044
vt 0.818182 0.909091
v -697.892639 -131.163284 -7597.700684
vn -0.269929 -0.584480 -0.765194
vt 0.909091 0.727273
v -649.970398 -110.051842 -7419.620605
vn -0.053653 -0.923411 0.380044
vt 0.909091 0.909091
f 61/61/61 62/62/62 48/48/48
f 60/60/60 48/48/48 49/49/49
f 48/48/48 37/37/37 49/49/49
f 37/37/37 48/48/48 36/36/36
f 50/50/50 36/36/36 48/48/48
f 36/36/36 50/50/50 38/38/38
f 51/51/51 38/38/38 50/50/50
f 38/38/38 51/51/51 39/39/39
f 52/52/52 39/39/39 51/51/51
f 39/39/39 52/52/52 40/40/40
f 53/53/53 40/40/40 52/52/52
f 40/40/40 53/53/53 41/41/41
f 54/54/54 41/41/41 53/53/53
f 41/41/41 54/54/54 42/42/42
f 55/55/55 42/42/42 54/54/54
f 42/42/42 55/55/55 43/43/43
f 56/56/56 43/43/43 55/55/55
f 43/43/43 56/56/56 44/44/44
f 57/57/57 44/44/44 56/56/56
f 44/44/44 57/57/57 45/45/45
f 66/66/66 54/54/54 53/53/53
f 67/67/67 55/55/55 54/54/54
f 63/63/63 51/51/51 50/50/50
f 64/64/64 52/52/52 51/51/51
f 65/65/65 53/53/53 52/52/52
f 68/68/68 56/56/56 55/55/55
f 69/69/69 70/70/70 56/56/56
f 71/71/71 72/72/72 70/70/70
f 73/73/73 59/59/59 72/72/72
f 58/58/58 45/45/45 57/57/57
f 45/45/45 58/58/58 46/46/46
f 59/59/59 46/46/46 58/58/58
f 46/46/46 59/59/59 47/47/47
f 34/34/34 47/47/47 35/35/35
f 47/47/47 34/34/34 46/46/46
f 33/33/33 46/46/46 34/34/34
f 46/46/46 33/33/33 45/45/45
f 32/32/32 45/45/45 33/33/33
f 45/45/45 32/32/32 44/44/44
f 31/31/31 44/44/44 32/32/32
f 44/44/44 31/31/31 43/43/43
f 30/30/30 43/43/43 31/31/31
f 43/43/43 30/30/30 42/42/42
f 29/29/29 42/42/42 30/30/30
f 42/42/42 29/29/29 41/41/41
f 28/28/28 41/41/41 29/29/29
f 41/41/41 28/28/28 40/40/40
f 27/27/27 40/40/40 28/28/28
f 40/40/40 27/27/27 39/39/39
f 26/26/26 39/39/39 27/27/27
f 39/39/39 26/26/26 38/38/38
f 21/21/21 35/35/35 23/23/23
f 35/35/35 21/21/21 34/34/34
f 19/19/19 34/34/34 21/21/21
f 34/34/34 19/19/19 33/33/33
f 17/17/17 33/33/33 19/19/19
f 33/33/33 17/17/17 32/32/32
f 15/15/15 32/32/32 17/17/17
f 32/32/32 15/15/15 31/31/31
f 13/13/13 31/31/31 15/15/15
f 31/31/31 13/13/13 30/30/30
f 11/11/11 30/30/30 13/13/13
f 30/30/30 11/11/11 29/29/29
f 9/9/9 29/29/29 11/11/11
f 29/29/29 9/9/9 28/28/28
f 7/7/7 28/28/28 9/9/9
f 28/28/28 7/7/7 27/27/27
f 5/5/5 27/27/27 7/7/7
f 27/27/27 5/5/5 26/26/26
f 10/10/10 9/9/9 11/11/11
f 8/8/8 7/7/7 9/9/9
f 12/12/12 11/11/11 13/13/13
f 14/14/14 13/13/13 15/15/15
f 16/16/16 15/15/15 17/17/17
f 6/6/6 5/5/5 7/7/7
f 18/18/18 17/17/17 19/19/19
f 20/20/20 19/19/19 21/21/21
f 22/22/22 21/21/21 23/23/23
f 4/4/4 3/3/3 5/5/5
f 3/3/3 26/26/26 5/5/5
f 26/26/26 3/3/3 24/24/24
f 2/2/2 24/24/24 3/3/3
f 24/24/24 2/2/2 25/25/25
f 1/1/1 2/2/2 3/3/3
f 24/24/24 38/38/38 26/26/26
f 38/38/38 24/24/24 36/36/36
f 25/25/25 36/36/36 24/24/24
f 36/36/36 25/25/25 37/37/37
