mtllib CH09_SMAUG_PLAYSURFACE_LAIR136.mtl
g lair136
usemtl vsdblt
v -2659.618164 636.748962 1269.663696
vn 0.102098 -0.993793 0.044166
vt 0.000000 0.776261
v -2731.815918 630.926514 1305.549683
vn 0.102098 -0.993793 0.044166
vt 0.000000 0.223739
v -2782.008301 620.904602 1196.071655
vn 0.102098 -0.993793 0.044166
vt 1.000000 0.223739
v -2709.201904 626.848511 1161.512451
vn 0.102098 -0.993793 0.044166
vt 1.000000 0.776261
v -2650.237305 631.662354 1133.523560
vn 0.102098 -0.993793 0.044166
vt 1.000000 1.223739
v -2601.145996 641.464478 1240.600220
vn 0.102098 -0.993793 0.044166
vt 0.000000 1.223739
v -2397.747559 682.831970 1716.148438
vn 0.098712 -0.994295 0.040406
vt 0.000000 0.776261
v -2467.882324 677.551025 1758.284546
vn 0.098576 -0.994300 0.040631
vt 0.000000 0.223739
v -2539.780518 666.364929 1661.723999
vn 0.098853 -0.994291 0.040174
vt 1.000000 0.223739
v -2469.411133 671.768250 1621.186157
vn 0.098992 -0.994286 0.039944
vt 1.000000 0.776261
v -2412.976563 676.132751 1588.729492
vn 0.099636 -0.994240 0.039503
vt 1.000000 1.223739
v -2342.317871 687.080505 1682.945190
vn 0.100065 -0.994200 0.039401
vt 0.000000 1.223739
f 3/3/3 1/1/1 2/2/2
f 1/1/1 3/3/3 4/4/4
f 5/5/5 1/1/1 4/4/4
f 1/1/1 5/5/5 6/6/6
f 9/9/9 7/7/7 8/8/8
f 7/7/7 9/9/9 10/10/10
f 11/11/11 7/7/7 10/10/10
f 7/7/7 11/11/11 12/12/12
