mtllib CH09_SMAUG_PLAYSURFACE_LAIR74.mtl
g lair74
usemtl 18_-_Default
v 3445.244141 869.968445 -428.550018
vn -0.975744 0.000000 0.218915
vt 0.000500 0.545409
v 3485.185547 869.968445 -259.813202
vn -0.985060 0.000000 0.172209
vt 0.123851 0.545409
v 3485.185547 1061.989258 -259.813202
vn -0.985060 0.000000 0.172209
vt 0.123851 0.363773
v 3445.244141 1061.989136 -428.550018
vn -0.975744 0.000000 0.218915
vt 0.000500 0.363773
v 3505.291748 869.968445 -111.727745
vn -0.995355 0.000000 0.096271
vt 0.248507 0.545409
v 3505.291748 1061.989258 -111.727745
vn -0.995355 0.000000 0.096271
vt 0.248507 0.363773
v 3516.522461 869.968506 37.216179
vn -0.999266 0.000000 0.038313
vt 0.374035 0.545409
v 3516.522461 1061.989258 37.216183
vn -0.999266 0.000000 0.038313
vt 0.374035 0.363773
v 3518.838379 869.968506 186.501892
vn -0.999805 0.000000 -0.019726
vt 0.500000 0.545409
v 3518.838379 1061.989258 186.501907
vn -0.999805 0.000000 -0.019726
vt 0.500000 0.363773
v 3512.231934 869.968506 335.611572
vn -0.996980 0.000000 -0.077662
vt 0.625965 0.545409
v 3512.231934 1061.989380 335.611572
vn -0.996980 0.000000 -0.077662
vt 0.625965 0.363773
v 3496.725342 869.968506 484.027985
vn -0.990803 0.000000 -0.135314
vt 0.751493 0.545409
v 3496.725342 1061.989380 484.027985
vn -0.990803 0.000000 -0.135314
vt 0.751493 0.363773
v 3472.373047 869.968506 631.236328
vn -0.943832 0.000000 -0.330426
vt 0.876149 0.545409
v 3472.373047 1061.989380 631.236267
vn -0.943832 0.000000 -0.330426
vt 0.876149 0.363773
v 3348.475586 869.968506 848.291321
vn -0.873200 0.000000 -0.487362
vt 0.999500 0.545409
v 3348.475586 1061.989258 848.291321
vn -0.873200 0.000000 -0.487362
vt 0.999500 0.363773
v 3485.185547 1254.010132 -259.813232
vn -0.985060 0.000000 0.172209
vt 0.123851 0.182136
v 3445.244141 1254.010010 -428.550018
vn -0.977347 0.007003 0.211528
vt 0.000500 0.182136
v 3505.291748 1254.010132 -111.727730
vn -0.995355 0.000000 0.096271
vt 0.248507 0.182136
v 3516.522461 1254.010132 37.216190
vn -0.999266 0.000000 0.038313
vt 0.374035 0.182136
v 3518.838379 1254.010132 186.501907
vn -0.999805 0.000000 -0.019726
vt 0.500000 0.182136
v 3512.231934 1254.010132 335.611572
vn -0.996980 0.000000 -0.077662
vt 0.625965 0.182136
v 3496.725342 1254.010132 484.027985
vn -0.990803 0.000000 -0.135314
vt 0.751493 0.182136
v 3472.373047 1254.010132 631.236267
vn -0.943832 0.000000 -0.330426
vt 0.876149 0.182136
v 3348.475586 1254.010132 848.291321
vn -0.873200 0.000000 -0.487362
vt 0.999500 0.182136
v 3485.185547 1446.030884 -259.813171
vn -0.986656 0.009067 0.162565
vt 0.123851 0.000499
v 3456.273438 1446.030884 -406.526489
vn -0.982601 0.034277 0.182540
vt 0.000500 0.000499
v 3505.291992 1446.031006 -111.727737
vn -0.995355 0.000000 0.096271
vt 0.248507 0.000499
v 3516.522461 1446.031006 37.216194
vn -0.999266 0.000000 0.038313
vt 0.374035 0.000500
v 3518.838623 1446.030884 186.501907
vn -0.999805 0.000000 -0.019726
vt 0.500000 0.000500
v 3512.231934 1446.030884 335.611603
vn -0.996980 0.000000 -0.077662
vt 0.625965 0.000500
v 3496.725342 1446.031006 484.027985
vn -0.990803 0.000000 -0.135314
vt 0.751494 0.000500
v 3472.373047 1446.031006 631.236328
vn -0.943832 0.000000 -0.330426
vt 0.876149 0.000500
v 3348.475586 1446.030884 848.291321
vn -0.873200 0.000000 -0.487362
vt 0.999500 0.000500
f 29/29/29 20/20/20 28/28/28
f 19/19/19 28/28/28 20/20/20
f 28/28/28 19/19/19 30/30/30
f 21/21/21 30/30/30 19/19/19
f 30/30/30 21/21/21 31/31/31
f 22/22/22 31/31/31 21/21/21
f 31/31/31 22/22/22 32/32/32
f 23/23/23 32/32/32 22/22/22
f 32/32/32 23/23/23 33/33/33
f 24/24/24 33/33/33 23/23/23
f 33/33/33 24/24/24 34/34/34
f 25/25/25 34/34/34 24/24/24
f 34/34/34 25/25/25 35/35/35
f 26/26/26 35/35/35 25/25/25
f 35/35/35 26/26/26 36/36/36
f 27/27/27 36/36/36 26/26/26
f 18/18/18 27/27/27 16/16/16
f 26/26/26 16/16/16 27/27/27
f 16/16/16 26/26/26 14/14/14
f 25/25/25 14/14/14 26/26/26
f 14/14/14 25/25/25 12/12/12
f 24/24/24 12/12/12 25/25/25
f 12/12/12 24/24/24 10/10/10
f 23/23/23 10/10/10 24/24/24
f 10/10/10 23/23/23 8/8/8
f 22/22/22 8/8/8 23/23/23
f 8/8/8 22/22/22 6/6/6
f 21/21/21 6/6/6 22/22/22
f 6/6/6 21/21/21 3/3/3
f 19/19/19 3/3/3 21/21/21
f 3/3/3 19/19/19 4/4/4
f 20/20/20 4/4/4 19/19/19
f 17/17/17 18/18/18 15/15/15
f 16/16/16 15/15/15 18/18/18
f 15/15/15 16/16/16 13/13/13
f 14/14/14 13/13/13 16/16/16
f 13/13/13 14/14/14 11/11/11
f 12/12/12 11/11/11 14/14/14
f 11/11/11 12/12/12 9/9/9
f 10/10/10 9/9/9 12/12/12
f 9/9/9 10/10/10 7/7/7
f 8/8/8 7/7/7 10/10/10
f 7/7/7 8/8/8 5/5/5
f 6/6/6 5/5/5 8/8/8
f 5/5/5 6/6/6 2/2/2
f 3/3/3 2/2/2 6/6/6
f 2/2/2 3/3/3 1/1/1
f 4/4/4 1/1/1 3/3/3
