mtllib INST_SM_DEBRIS_BLOCK_SMALLB.mtl
g Box01
usemtl vsdblt
v 1.256345 0.000000 -1.703858
vn 0.000000 -1.000000 0.000000
vt 1.000000 0.000000
v 1.256340 0.000002 -56.725601
vn 0.000000 -1.000000 0.000000
vt 1.000000 0.999001
v 51.356800 0.000002 -56.725605
vn 0.000000 -1.000000 0.000000
vt 1.999001 0.999001
v 51.356804 0.000000 -1.703862
vn 0.000000 -1.000000 0.000000
vt 1.999001 -0.000000
v -48.844116 0.000000 -1.703854
vn 0.000000 -1.000000 0.000000
vt 0.000999 0.000000
v -48.844120 0.000002 -56.725597
vn 0.000000 -1.000000 0.000000
vt 0.001000 0.999001
v 1.256350 -0.000002 53.317886
vn 0.000000 -1.000000 0.000000
vt 1.000000 -0.999001
v 51.356812 -0.000002 53.317883
vn 0.000000 -1.000000 0.000000
vt 1.999001 -0.999001
v -48.844109 -0.000002 53.317890
vn 0.000000 -1.000000 0.000000
vt 0.000999 -0.999001
v 1.256340 147.536255 -56.725594
vn 0.000000 0.000000 -1.000000
vt 1.000000 0.000000
v 51.356800 147.536255 -56.725601
vn 0.000000 0.000000 -1.000000
vt 0.000999 0.000000
v 51.356800 0.000002 -56.725605
vn 0.000000 0.000000 -1.000000
vt 0.000999 0.999001
v 1.256340 0.000002 -56.725601
vn 0.000000 0.000000 -1.000000
vt 1.000000 0.999001
v -48.844120 147.536255 -56.725590
vn 0.000000 0.000000 -1.000000
vt 1.999001 0.000000
v -48.844120 0.000002 -56.725597
vn 0.000000 0.000000 -1.000000
vt 1.999001 0.999001
v -48.844116 147.536255 -1.703847
vn -1.000000 0.000000 0.000000
vt 1.000000 0.000000
v -48.844120 147.536255 -56.725590
vn -1.000000 0.000000 0.000000
vt 0.000999 0.000000
v -48.844120 0.000002 -56.725597
vn -1.000000 0.000000 0.000000
vt 0.000999 0.999001
v -48.844116 0.000000 -1.703854
vn -1.000000 0.000000 0.000000
vt 1.000000 0.999001
v -48.844109 147.536255 53.317898
vn -1.000000 0.000000 0.000000
vt 1.999001 0.000000
v -48.844109 -0.000002 53.317890
vn -1.000000 0.000000 0.000000
vt 1.999001 0.999001
v 1.256350 147.536255 53.317894
vn 0.000000 0.000000 1.000000
vt 1.000000 0.000000
v -48.844109 147.536255 53.317898
vn 0.000000 0.000000 1.000000
vt 0.000999 0.000000
v -48.844109 -0.000002 53.317890
vn 0.000000 0.000000 1.000000
vt 0.000999 0.999001
v 1.256350 -0.000002 53.317886
vn 0.000000 0.000000 1.000000
vt 1.000000 0.999001
v 51.356812 147.536255 53.317886
vn 0.000000 0.000000 1.000000
vt 1.999001 0.000000
v 51.356812 -0.000002 53.317883
vn 0.000000 0.000000 1.000000
vt 1.999001 0.999001
v 51.356804 147.536255 -1.703856
vn 1.000000 0.000000 0.000000
vt 1.000000 0.000000
v 51.356812 147.536255 53.317886
vn 1.000000 0.000000 0.000000
vt 0.000999 0.000000
v 51.356812 -0.000002 53.317883
vn 1.000000 0.000000 0.000000
vt 0.000999 0.999001
v 51.356804 0.000000 -1.703862
vn 1.000000 0.000000 0.000000
vt 1.000000 0.999001
v 51.356800 147.536255 -56.725601
vn 1.000000 0.000000 0.000000
vt 1.999001 0.000000
v 51.356800 0.000002 -56.725605
vn 1.000000 0.000000 0.000000
vt 1.999001 0.999001
f 11/11/11 12/12/12 10/10/10
f 13/13/13 10/10/10 12/12/12
f 10/10/10 13/13/13 14/14/14
f 15/15/15 14/14/14 13/13/13
f 6/6/6 2/2/2 5/5/5
f 1/1/1 5/5/5 2/2/2
f 5/5/5 1/1/1 9/9/9
f 7/7/7 9/9/9 1/1/1
f 2/2/2 3/3/3 1/1/1
f 4/4/4 1/1/1 3/3/3
f 1/1/1 4/4/4 7/7/7
f 8/8/8 7/7/7 4/4/4
f 17/17/17 18/18/18 16/16/16
f 19/19/19 16/16/16 18/18/18
f 16/16/16 19/19/19 20/20/20
f 21/21/21 20/20/20 19/19/19
f 23/23/23 24/24/24 22/22/22
f 25/25/25 22/22/22 24/24/24
f 22/22/22 25/25/25 26/26/26
f 27/27/27 26/26/26 25/25/25
f 29/29/29 30/30/30 28/28/28
f 31/31/31 28/28/28 30/30/30
f 28/28/28 31/31/31 32/32/32
f 33/33/33 32/32/32 31/31/31
g Object01
usemtl Material_#66704
v 1.256340 295.072510 -56.725590
vn 0.000000 0.000000 -1.000000
vt 1.000000 0.005099
v 51.356800 295.072510 -56.725594
vn 0.000000 0.000000 -1.000000
vt 0.451098 0.005099
v 51.356800 147.536255 -56.725601
vn 0.000000 0.000000 -1.000000
vt 0.451098 -0.993902
v 1.256340 147.536255 -56.725594
vn 0.000000 0.000000 -1.000000
vt 1.000000 -0.993902
v -48.844120 295.072510 -56.725586
vn 0.000000 0.000000 -1.000000
vt 1.548901 0.005099
v -48.844120 147.536255 -56.725590
vn 0.000000 0.000000 -1.000000
vt 1.548901 -0.993902
v -48.844116 295.072510 -1.703841
vn -1.000000 0.000000 0.000000
vt 1.000000 0.005099
v -48.844120 295.072510 -56.725586
vn -1.000000 0.000000 0.000000
vt 0.451098 0.005099
v -48.844120 147.536255 -56.725590
vn -1.000000 0.000000 0.000000
vt 0.451098 -0.993902
v -48.844116 147.536255 -1.703847
vn -1.000000 0.000000 0.000000
vt 1.000000 -0.993902
v -48.844109 295.072510 53.317902
vn -1.000000 0.000000 0.000000
vt 1.548901 0.005099
v -48.844109 147.536255 53.317898
vn -1.000000 0.000000 0.000000
vt 1.548901 -0.993902
v 1.256350 295.072510 53.317898
vn 0.000000 0.000000 1.000000
vt 1.000000 0.005099
v -48.844109 295.072510 53.317902
vn 0.000000 0.000000 1.000000
vt 0.451098 0.005099
v -48.844109 147.536255 53.317898
vn 0.000000 0.000000 1.000000
vt 0.451098 -0.993902
v 1.256350 147.536255 53.317894
vn 0.000000 0.000000 1.000000
vt 1.000000 -0.993902
v 51.356812 295.072510 53.317894
vn 0.000000 0.000000 1.000000
vt 1.548901 0.005099
v 51.356812 147.536255 53.317886
vn 0.000000 0.000000 1.000000
vt 1.548901 -0.993902
v 51.356804 295.072510 -1.703850
vn 1.000000 0.000000 0.000000
vt 1.000000 0.005099
v 51.356812 295.072510 53.317894
vn 1.000000 0.000000 0.000000
vt 0.451098 0.005099
v 51.356812 147.536255 53.317886
vn 1.000000 0.000000 0.000000
vt 0.451098 -0.993902
v 51.356804 147.536255 -1.703856
vn 1.000000 0.000000 0.000000
vt 1.000000 -0.993902
v 51.356800 295.072510 -56.725594
vn 1.000000 0.000000 0.000000
vt 1.548901 0.005099
v 51.356800 147.536255 -56.725601
vn 1.000000 0.000000 0.000000
vt 1.548901 -0.993902
f 35/35/35 36/36/36 34/34/34
f 37/37/37 34/34/34 36/36/36
f 34/34/34 37/37/37 38/38/38
f 39/39/39 38/38/38 37/37/37
f 41/41/41 42/42/42 40/40/40
f 43/43/43 40/40/40 42/42/42
f 40/40/40 43/43/43 44/44/44
f 45/45/45 44/44/44 43/43/43
f 47/47/47 48/48/48 46/46/46
f 49/49/49 46/46/46 48/48/48
f 46/46/46 49/49/49 50/50/50
f 51/51/51 50/50/50 49/49/49
f 53/53/53 54/54/54 52/52/52
f 55/55/55 52/52/52 54/54/54
f 52/52/52 55/55/55 56/56/56
f 57/57/57 56/56/56 55/55/55
g Object02
usemtl Material_#67436
v 1.256345 295.072510 -1.703845
vn 0.000000 1.000000 0.000000
vt 0.500000 0.500000
v 51.356804 295.072510 -1.703850
vn 0.000000 1.000000 0.000000
vt 0.000500 0.500000
v 51.356800 295.072510 -56.725594
vn 0.000000 1.000000 0.000000
vt 0.000499 0.999500
v 1.256340 295.072510 -56.725590
vn 0.000000 1.000000 0.000000
vt 0.500000 0.999500
v -48.844116 295.072510 -1.703841
vn 0.000000 1.000000 0.000000
vt 0.999500 0.500000
v -48.844120 295.072510 -56.725586
vn 0.000000 1.000000 0.000000
vt 0.999500 0.999501
v 1.256350 295.072510 53.317898
vn 0.000000 1.000000 0.000000
vt 0.500000 0.000500
v 51.356812 295.072510 53.317894
vn 0.000000 1.000000 0.000000
vt 0.000500 0.000499
v -48.844109 295.072510 53.317902
vn 0.000000 1.000000 0.000000
vt 0.999501 0.000500
f 59/59/59 64/64/64 65/65/65
f 64/64/64 59/59/59 58/58/58
f 60/60/60 58/58/58 59/59/59
f 58/58/58 60/60/60 61/61/61
f 58/58/58 66/66/66 64/64/64
f 66/66/66 58/58/58 62/62/62
f 61/61/61 62/62/62 58/58/58
f 62/62/62 61/61/61 63/63/63
