mtllib INST_SM_WALKWAY_BROKENA.mtl
g Box51
usemtl 8_-_Default
v 16.727770 -16.675936 -260.596741
vn -0.005883 0.000000 -0.999983
vt 1.495005 0.999500
v -143.767670 -16.675936 -261.114807
vn 0.003228 0.000001 -0.999995
vt 3.992508 0.999501
v -143.767654 44.381454 -261.114777
vn 0.003228 0.000001 -0.999995
vt 3.992508 0.000504
v 16.727795 44.381454 -260.596710
vn -0.005883 0.000001 -0.999983
vt 1.495005 0.000504
v 140.923523 44.381454 -262.458954
vn 0.484430 0.000001 -0.874830
vt 2.114263 0.000503
v 140.923508 -16.675936 -262.458984
vn 0.485897 -0.013741 -0.873908
vt 2.114263 0.999499
v 16.727770 -16.675936 -260.596741
vn -0.005883 0.000000 -0.999983
vt 3.495005 0.999500
v 16.727795 44.381454 -260.596710
vn -0.005883 0.000001 -0.999983
vt 3.495005 0.000504
f 3/3/3 1/1/1 2/2/2
f 1/1/1 3/3/3 4/4/4
f 7/7/7 5/5/5 6/6/6
f 5/5/5 7/7/7 8/8/8
usemtl vsdblt
v -0.332943 -16.676025 -0.831419
vn 0.000000 -1.000000 0.000000
vt -0.154836 0.629619
v -30.332600 -16.676044 432.809692
vn 0.000000 -1.000000 0.000000
vt 1.000000 0.717881
v -272.007172 -16.676044 409.979523
vn 0.000000 -1.000000 0.000000
vt 1.000000 1.599151
v -180.302078 -16.676027 6.060690
vn 0.000000 -1.000000 0.000000
vt -0.130304 1.284722
v -143.767792 -16.675936 -261.115021
vn 0.000000 -1.000000 0.000000
vt -1.074955 1.164602
v 16.727667 -16.675936 -260.596985
vn 0.000000 -1.000000 0.000000
vt -1.081992 0.580062
v -180.272644 44.381443 0.520694
vn 0.000000 1.000000 0.000000
vt -0.142642 1.284883
v -0.300196 44.381443 -6.995326
vn 0.000000 1.000000 0.000000
vt -0.168563 0.629798
v 16.727661 44.381535 -260.596924
vn 0.000000 1.000000 0.000000
vt -1.081992 0.580062
v -143.767792 44.381535 -261.115021
vn 0.000000 1.000000 0.000000
vt -1.074955 1.164602
v -272.007172 44.381344 409.979492
vn 0.000000 1.000000 0.000000
vt 1.000000 1.599151
v -30.332600 44.381344 432.809692
vn 0.000000 1.000000 0.000000
vt 1.000000 0.717881
v 365.302704 -16.676044 422.981537
vn 0.000000 -1.000000 0.000000
vt 1.000000 -0.722523
v 276.917358 -16.676044 428.202698
vn 0.000000 -1.000000 0.000000
vt 1.000000 -0.400882
v 140.923370 -16.675936 -262.459198
vn 0.000000 -1.000000 0.000000
vt -1.092477 0.127839
v 348.725372 -16.676029 83.613403
vn 0.000000 -1.000000 0.000000
vt 0.015388 -0.645719
v 348.740234 44.381359 80.813011
vn 0.000000 1.000000 0.000000
vt 0.009151 -0.645637
v 140.923294 44.381454 -262.459076
vn 0.000000 1.000000 0.000000
vt -1.092477 0.127839
v 276.917358 44.381344 428.202728
vn 0.000000 1.000000 0.000000
vt 1.000000 -0.400882
v 365.302704 44.381344 422.981537
vn 0.000000 1.000000 0.000000
vt 1.000000 -0.722523
v 483.982239 -16.676037 265.792175
vn 0.000000 -1.000000 0.000000
vt 0.414152 -1.147136
v 497.927338 44.381344 411.872650
vn 0.000000 1.000000 0.000000
vt 1.000000 -1.204996
v 483.982239 44.381351 265.792145
vn 0.000000 1.000000 0.000000
vt 0.414152 -1.147136
v 497.927368 -16.676044 411.872681
vn 0.000000 -1.000000 0.000000
vt 1.000000 -1.204996
f 17/17/17 18/18/18 15/15/15
f 15/15/15 16/16/16 17/17/17
f 26/26/26 17/17/17 16/16/16
f 16/16/16 25/25/25 26/26/26
f 25/25/25 16/16/16 20/20/20
f 15/15/15 20/20/20 16/16/16
f 20/20/20 15/15/15 19/19/19
f 30/30/30 31/31/31 28/28/28
f 25/25/25 28/28/28 31/31/31
f 28/28/28 25/25/25 27/27/27
f 20/20/20 27/27/27 25/25/25
f 10/10/10 21/21/21 22/22/22
f 21/21/21 10/10/10 9/9/9
f 11/11/11 9/9/9 10/10/10
f 9/9/9 11/11/11 12/12/12
f 9/9/9 24/24/24 21/21/21
f 24/24/24 9/9/9 23/23/23
f 12/12/12 13/13/13 9/9/9
f 14/14/14 9/9/9 13/13/13
f 9/9/9 14/14/14 23/23/23
f 29/29/29 21/21/21 24/24/24
f 21/21/21 29/29/29 32/32/32
usemtl Material_#66736
v -79.430176 133.196030 -237.390274
vn 0.001741 -0.023977 0.999711
vt 1.460539 0.999500
v -78.652908 153.260101 -236.662033
vn -0.004161 0.023217 0.999722
vt 1.460539 0.000500
v -146.735077 153.260101 -235.954529
vn 0.015859 -0.018339 0.999706
vt 0.381618 0.000500
v -73.274437 153.260025 -269.179321
vn 0.000000 1.000000 -0.000002
vt 2.539461 0.999499
v -141.385315 153.260101 -267.364563
vn 0.000001 1.000000 0.000000
vt 3.618382 0.999500
v -146.735077 153.260101 -235.954529
vn 0.000001 1.000000 -0.000001
vt 3.618382 0.000503
v 53.187698 133.196030 -233.873734
vn -0.008436 0.083053 0.996509
vt 2.539460 0.999501
v 160.684525 133.196030 -234.942413
vn -0.000225 0.082723 0.996573
vt 3.413163 0.999500
v -146.735077 133.196030 -235.954529
vn 0.021327 0.000000 0.999773
vt 0.381618 0.999501
v 161.461761 153.260025 -234.214142
vn -0.010188 -0.035877 0.999304
vt 3.413164 0.000504
v 162.395462 153.260025 -235.943176
vn 0.777146 0.000000 -0.629320
vt 0.000499 0.999500
v 162.395462 133.196030 -235.943192
vn 0.777146 0.000000 -0.629320
vt 0.999500 0.999501
v 137.057510 133.196030 -267.232941
vn 0.426078 0.020357 -0.904457
vt 0.999500 0.000500
v 137.057556 153.260025 -267.232910
vn 0.777146 -0.000001 -0.629320
vt 0.000500 0.000500
v -78.652908 153.260101 -236.662033
vn 0.000000 1.000000 -0.000002
vt 2.539461 0.000502
v 56.876686 133.196030 -266.435822
vn 0.009745 0.005814 -0.999936
vt 1.460540 0.999500
v -74.051727 133.196030 -269.907593
vn -0.005614 0.036490 -0.999318
vt 2.539461 0.999501
v -73.274437 153.260025 -269.179321
vn -0.006308 0.004624 -0.999969
vt 2.539461 0.000500
v 137.834869 153.260025 -266.504730
vn 0.001359 -0.008916 -0.999959
vt 0.800443 0.000499
v 137.834869 153.260025 -266.504730
vn 0.000000 1.000000 -0.000001
vt 0.809709 1.091872
v 161.461761 153.260025 -234.214142
vn 0.000000 1.000000 0.000000
vt 0.587986 0.124344
v -146.735077 133.196030 -235.954529
vn -0.985804 -0.000001 -0.167903
vt 3.997987 0.999501
v -146.735077 153.260101 -235.954529
vn -0.985804 0.000000 -0.167902
vt 3.997987 0.000500
v -141.385315 153.260101 -267.364563
vn -0.655139 0.000001 -0.755508
vt 0.002000 0.000500
v -141.385254 133.196030 -267.364624
vn -0.657239 0.012173 -0.753583
vt 0.002000 0.999501
v -141.385254 133.196030 -267.364624
vn -0.657239 0.012173 -0.753583
vt 3.618382 0.999501
v -141.385315 153.260101 -267.364563
vn -0.655139 0.000001 -0.755508
vt 3.618382 0.000500
v -146.735077 133.196030 -235.954529
vn 0.000000 -1.000000 0.000000
vt 0.381618 0.000503
v -141.385254 133.196030 -267.364624
vn 0.000000 -1.000000 0.000000
vt 0.381618 0.999500
v -74.051727 133.196030 -269.907593
vn 0.000000 -1.000000 0.000000
vt 1.460539 0.999499
v -79.430176 133.196030 -237.390274
vn 0.000000 -1.000000 0.000000
vt 1.460539 0.000502
v 56.876686 133.196030 -266.435822
vn 0.000000 -1.000000 0.000000
vt 2.539460 0.999498
v 53.187698 133.196030 -233.873734
vn 0.000000 -1.000000 0.000000
vt 2.539461 0.000501
v 137.057587 133.196030 -267.233002
vn 0.426078 0.020357 -0.904457
vt 0.800444 0.999500
f 45/45/45 43/43/43 44/44/44
f 43/43/43 45/45/45 46/46/46
f 37/37/37 38/38/38 36/36/36
f 47/47/47 36/36/36 38/38/38
f 36/36/36 47/47/47 52/52/52
f 53/53/53 52/52/52 47/47/47
f 33/33/33 35/35/35 41/41/41
f 35/35/35 33/33/33 34/34/34
f 39/39/39 34/34/34 33/33/33
f 34/34/34 39/39/39 40/40/40
f 34/34/34 40/40/40 42/42/42
f 50/50/50 49/49/49 58/58/58
f 49/49/49 50/50/50 48/48/48
f 51/51/51 48/48/48 50/50/50
f 48/48/48 51/51/51 66/66/66
f 58/58/58 59/59/59 50/50/50
f 62/62/62 60/60/60 61/61/61
f 60/60/60 62/62/62 63/63/63
f 64/64/64 63/63/63 62/62/62
f 63/63/63 64/64/64 65/65/65
f 56/56/56 54/54/54 55/55/55
f 54/54/54 56/56/56 57/57/57
usemtl Material_#67436
v 483.982239 44.381351 265.792145
vn 0.802904 0.000000 -0.596109
vt -0.434201 0.592510
v 483.982239 -16.676037 265.792145
vn 0.802904 0.000000 -0.596109
vt -0.434201 0.999500
v 348.725342 -16.676029 83.613426
vn 0.831044 -0.011922 -0.556079
vt 0.201620 0.999500
v 348.740234 44.381359 80.813011
vn 0.832871 -0.025561 -0.552877
vt 0.210682 0.592510
v 348.725342 -16.676029 83.613426
vn 0.831044 -0.011922 -0.556079
vt 0.201620 0.999500
v 140.923309 -16.675936 -262.459137
vn 0.485897 -0.013741 -0.873908
vt 1.392728 0.999500
v 348.740234 44.381359 80.813011
vn 0.832871 -0.025561 -0.552877
vt 0.210682 0.592510
v 54.898621 133.196030 -234.874496
vn 0.000000 -1.000000 0.000000
vt 1.332696 0.000500
v 56.876610 133.196030 -266.435760
vn 0.000000 -1.000000 0.000000
vt 1.434201 0.000500
v 137.057510 133.196030 -267.232941
vn 0.000000 -1.000000 0.000000
vt 1.409499 0.000500
v 140.923294 44.381454 -262.459076
vn 0.484430 0.000001 -0.874830
vt 1.392728 0.592510
v 162.395462 133.196030 -235.943192
vn 0.000000 -1.000000 0.000000
vt 1.299577 0.000499
v -143.767792 -16.675936 -261.115021
vn -0.990711 -0.011815 -0.135472
vt -0.638861 0.633212
v -180.302078 -16.676027 6.060690
vn -0.983902 -0.005913 -0.178611
vt 0.315158 0.633213
v -180.272644 44.381443 0.520694
vn -0.990711 -0.011815 -0.135472
vt 0.293009 0.366788
v -143.767792 44.381535 -261.115021
vn -0.990406 0.000000 -0.138187
vt -0.638861 0.366788
v -180.302078 -16.676027 6.060690
vn -0.983902 -0.005913 -0.178611
vt 0.315158 0.633213
v -272.007233 -16.676044 409.979553
vn -0.975182 0.000001 -0.221404
vt 1.638861 0.633212
v -272.007172 44.381344 409.979492
vn -0.975182 0.000001 -0.221404
vt 1.638861 0.366789
f 83/83/83 84/84/84 85/85/85
f 81/81/81 80/80/80 85/85/85
f 80/80/80 81/81/81 79/79/79
f 82/82/82 79/79/79 81/81/81
f 69/69/69 67/67/67 68/68/68
f 67/67/67 69/69/69 73/73/73
f 72/72/72 70/70/70 71/71/71
f 70/70/70 72/72/72 77/77/77
f 76/76/76 74/74/74 75/75/75
f 74/74/74 76/76/76 78/78/78
usemtl Material_#66736
v -57.528294 67.875481 -244.655075
vn -0.994435 0.089250 0.055984
vt 0.750000 0.187349
v -47.416576 133.736526 -245.101013
vn -0.987004 0.151167 -0.054512
vt 0.750000 -0.859074
v -41.904072 133.736542 -251.276947
vn -0.546520 0.111651 -0.829970
vt 0.593583 -0.859074
v -46.146568 67.875481 -257.317993
vn -0.428242 0.056297 -0.901909
vt 0.593583 0.187349
v -49.308929 40.120033 -232.740997
vn -0.592967 0.006045 0.805204
vt 0.906416 0.655856
v -49.195328 67.875473 -232.866272
vn -0.336801 0.053852 0.940035
vt 0.906416 0.187349
v -57.723061 40.120033 -244.646667
vn -0.949667 0.006555 -0.313193
vt 0.750000 0.655855
v -29.166035 40.120033 -233.699890
vn 0.303504 0.004912 0.952818
vt 1.093583 0.655856
v -29.251688 67.875473 -233.815674
vn 0.433429 0.056615 0.899408
vt 1.093583 0.187349
v -17.888483 40.120033 -246.542999
vn 0.953558 0.006601 0.301137
vt 0.250000 0.655855
v -18.083401 67.875481 -246.532898
vn 0.993688 0.089369 -0.067808
vt 0.250000 0.187349
v -29.251688 67.875473 -233.815674
vn 0.433429 0.056615 0.899408
vt 0.093583 0.187349
v -29.166035 40.120033 -233.699890
vn 0.303504 0.004912 0.952818
vt 0.093583 0.655856
v -26.535751 40.120033 -258.371796
vn 0.583830 0.005980 -0.811854
vt 0.406416 0.655855
v -26.644907 67.875481 -258.246399
vn 0.331297 0.053321 -0.942019
vt 0.406416 0.187349
v -46.227798 40.120033 -257.434418
vn -0.300090 0.004878 -0.953898
vt 0.593583 0.655855
v -43.324028 133.736526 -239.369965
vn -0.432992 0.126434 0.892487
vt 0.906416 -0.859074
v -33.674831 133.736526 -239.829285
vn 0.551079 0.112189 0.826877
vt 1.093584 -0.859074
v -33.674831 133.736526 -239.829285
vn 0.551079 0.112189 0.826877
vt 0.093584 -0.859074
v -28.203440 133.736526 -246.015671
vn 0.987262 0.151314 0.049181
vt 0.250000 -0.859074
v -32.340088 133.736542 -251.732269
vn 0.428118 0.125830 -0.894920
vt 0.406417 -0.859074
v 89.020813 67.875557 -246.933990
vn -0.994435 0.089250 0.055984
vt 0.750000 0.187349
v 99.132530 133.736618 -247.379944
vn -0.987004 0.151167 -0.054514
vt 0.750000 -0.859074
v 104.645058 133.736618 -253.555847
vn -0.546519 0.111651 -0.829970
vt 0.593583 -0.859074
v 100.402534 67.875557 -259.596924
vn -0.428242 0.056297 -0.901909
vt 0.593583 0.187349
v 97.240181 40.120113 -235.019913
vn -0.592967 0.006045 0.805204
vt 0.906416 0.655856
v 97.353775 67.875557 -235.145187
vn -0.336801 0.053852 0.940035
vt 0.906416 0.187349
v 88.826042 40.120113 -246.925598
vn -0.949667 0.006554 -0.313194
vt 0.750000 0.655855
v 117.383072 40.120113 -235.978806
vn 0.303504 0.004912 0.952818
vt 1.093583 0.655856
v 117.297417 67.875557 -236.094604
vn 0.433429 0.056614 0.899408
vt 1.093583 0.187349
v 128.660629 40.120113 -248.821930
vn 0.953558 0.006601 0.301138
vt 0.250000 0.655855
v 128.465729 67.875557 -248.811798
vn 0.993688 0.089369 -0.067807
vt 0.250000 0.187349
v 117.297417 67.875557 -236.094604
vn 0.433429 0.056614 0.899408
vt 0.093583 0.187349
v 117.383072 40.120113 -235.978806
vn 0.303504 0.004912 0.952818
vt 0.093583 0.655856
v 120.013351 40.120113 -260.650726
vn 0.583830 0.005980 -0.811854
vt 0.406416 0.655855
v 119.904198 67.875557 -260.525299
vn 0.331297 0.053321 -0.942019
vt 0.406416 0.187349
v 100.321335 40.120113 -259.713318
vn -0.300090 0.004877 -0.953898
vt 0.593583 0.655855
v 103.225105 133.736618 -241.648849
vn -0.432991 0.126434 0.892487
vt 0.906416 -0.859074
v 112.874283 133.736618 -242.108200
vn 0.551079 0.112189 0.826877
vt 1.093584 -0.859074
v 112.874283 133.736618 -242.108200
vn 0.551079 0.112189 0.826877
vt 0.093584 -0.859074
v 118.345680 133.736618 -248.294586
vn 0.987262 0.151314 0.049181
vt 0.250000 -0.859074
v 114.209015 133.736618 -254.011185
vn 0.428118 0.125830 -0.894920
vt 0.406417 -0.859074
f 96/96/96 104/104/104 97/97/97
f 104/104/104 96/96/96 105/105/105
f 106/106/106 105/105/105 96/96/96
f 96/96/96 100/100/100 106/106/106
f 89/89/89 106/106/106 100/100/100
f 106/106/106 89/89/89 88/88/88
f 86/86/86 88/88/88 89/89/89
f 88/88/88 86/86/86 87/87/87
f 102/102/102 87/87/87 86/86/86
f 86/86/86 91/91/91 102/102/102
f 94/94/94 102/102/102 91/91/91
f 102/102/102 94/94/94 103/103/103
f 95/95/95 97/97/97 98/98/98
f 97/97/97 95/95/95 96/96/96
f 99/99/99 96/96/96 95/95/95
f 96/96/96 99/99/99 100/100/100
f 101/101/101 100/100/100 99/99/99
f 100/100/100 101/101/101 89/89/89
f 92/92/92 89/89/89 101/101/101
f 89/89/89 92/92/92 86/86/86
f 90/90/90 86/86/86 92/92/92
f 86/86/86 90/90/90 91/91/91
f 93/93/93 91/91/91 90/90/90
f 91/91/91 93/93/93 94/94/94
f 116/116/116 118/118/118 119/119/119
f 118/118/118 116/116/116 117/117/117
f 120/120/120 117/117/117 116/116/116
f 117/117/117 120/120/120 121/121/121
f 122/122/122 121/121/121 120/120/120
f 121/121/121 122/122/122 110/110/110
f 113/113/113 110/110/110 122/122/122
f 110/110/110 113/113/113 107/107/107
f 111/111/111 107/107/107 113/113/113
f 107/107/107 111/111/111 112/112/112
f 114/114/114 112/112/112 111/111/111
f 112/112/112 114/114/114 115/115/115
f 107/107/107 112/112/112 123/123/123
f 115/115/115 123/123/123 112/112/112
f 123/123/123 115/115/115 124/124/124
f 117/117/117 121/121/121 127/127/127
f 110/110/110 127/127/127 121/121/121
f 127/127/127 110/110/110 109/109/109
f 107/107/107 109/109/109 110/110/110
f 109/109/109 107/107/107 108/108/108
f 123/123/123 108/108/108 107/107/107
f 117/117/117 125/125/125 118/118/118
f 125/125/125 117/117/117 126/126/126
f 127/127/127 126/126/126 117/117/117
