mtllib INST_SM_BURNTWOODB.mtl
g Box02
usemtl jj
v -89.671349 -0.000002 44.442497
vn 0.000000 -1.000000 0.000000
vt 1.010121 0.129668
v -81.141449 -0.000005 119.308327
vn 0.000000 -1.000000 0.000000
vt 1.010121 0.129668
v -426.880585 -0.000007 158.700409
vn 0.000000 -1.000000 0.000000
vt 1.027024 0.738288
v -437.103149 -0.000004 84.027443
vn 0.000000 -1.000000 0.000000
vt 1.027107 0.741268
v 256.067810 -0.000000 5.050410
vn 0.000000 -1.000000 0.000000
vt 0.993218 -0.478952
v 264.597717 -0.000003 79.916237
vn 0.000000 -1.000000 0.000000
vt 0.993218 -0.478952
v 653.967041 0.000002 -40.284580
vn 0.581708 -0.770148 -0.261702
vt 0.973765 -1.179392
v 610.336914 -0.000002 40.524147
vn 0.000000 -1.000000 0.000000
vt 0.976315 -1.087573
v -98.201248 0.000001 -30.423330
vn 0.000000 -1.000000 0.000000
vt 1.010121 0.129668
v -443.940399 -0.000000 8.968756
vn 0.000000 -1.000000 0.000000
vt 1.027024 0.738288
v 247.537903 0.000003 -69.815422
vn 0.000000 -1.000000 0.000000
vt 0.993218 -0.478952
v 593.277100 0.000005 -109.207512
vn 0.000000 -1.000000 0.000000
vt 0.976315 -1.087573
v -89.671349 213.011230 44.442509
vn -0.000478 0.998843 -0.048084
vt -0.175527 0.132919
v -437.103149 207.819260 84.027451
vn -0.012942 0.975467 -0.219764
vt -0.129642 0.744440
v -426.880585 178.194458 158.700424
vn 0.108216 0.505854 0.855805
vt 0.035171 0.741008
v -81.141449 156.316345 119.308334
vn 0.122000 0.416115 0.901091
vt 0.140044 0.132054
v 256.067810 213.011230 5.050420
vn -0.002064 0.996790 0.080033
vt -0.192430 -0.475701
v 264.597717 127.865723 79.916245
vn 0.085853 0.406116 0.909780
vt 0.281501 -0.477001
v 653.967102 227.568665 -40.284576
vn 0.557484 0.822362 0.113721
vt -0.492019 -1.175373
v 610.336914 178.194458 40.524155
vn 0.336700 0.401160 0.851882
vt -0.015538 -1.084853
v -98.201248 156.316345 -30.423325
vn -0.090002 0.486364 -0.869109
vt 0.140044 0.132054
v -443.940399 178.194458 8.968764
vn -0.058337 0.562747 -0.824568
vt 0.035171 0.741008
v 247.537903 156.316345 -69.815414
vn -0.110577 0.446471 -0.887939
vt 0.123141 -0.476567
v 593.277100 178.194458 -109.207504
vn 0.161549 0.370737 -0.914580
vt -0.015538 -1.084853
v -81.141449 89.097221 119.308334
vn 0.113203 0.000000 0.993572
vt 0.514194 0.131028
v -426.880585 89.097221 158.700424
vn 0.113203 0.000000 0.993572
vt 0.531097 0.739648
v -426.880585 -0.000007 158.700409
vn 0.113203 0.000000 0.993572
vt 1.027024 0.738288
v -81.141449 -0.000005 119.308327
vn 0.113203 0.000000 0.993572
vt 1.010121 0.129668
v 264.597717 89.097229 79.916245
vn 0.113203 0.000000 0.993572
vt 0.497291 -0.477592
v 264.597717 -0.000003 79.916237
vn 0.113203 0.000000 0.993572
vt 0.993218 -0.478952
v 610.336914 89.097229 40.524151
vn 0.471231 0.000000 0.882010
vt 0.480388 -1.086213
v 610.336914 -0.000002 40.524147
vn 0.512930 -0.068848 0.855665
vt 0.976315 -1.087573
v -81.141449 156.316345 119.308334
vn 0.122000 0.416115 0.901091
vt 0.140044 0.132054
v -426.880585 178.194458 158.700424
vn 0.108216 0.505854 0.855805
vt 0.035171 0.741008
v 264.597717 127.865723 79.916245
vn 0.085853 0.406116 0.909780
vt 0.281501 -0.477001
v 610.336914 178.194458 40.524155
vn 0.336700 0.401160 0.851882
vt -0.015538 -1.084853
v 681.451782 89.097229 -43.416077
vn 0.998456 -0.055548 0.000392
vt 0.476494 -1.226415
v 610.336914 89.097229 40.524151
vn 0.471231 0.000000 0.882010
vt 0.480388 -1.086213
v 610.336914 -0.000002 40.524147
vn 0.512930 -0.068848 0.855665
vt 0.976315 -1.087573
v 653.967041 0.000002 -40.284580
vn 0.581708 -0.770148 -0.261702
vt 0.973765 -1.179392
v 593.277100 89.097237 -109.207504
vn 0.293479 -0.038220 -0.955201
vt 0.480388 -1.086213
v 593.277100 0.000005 -109.207512
vn 0.359464 0.000000 -0.933159
vt 0.976315 -1.087573
v 670.036499 184.852509 -42.115463
vn 0.964705 0.239298 -0.109914
vt -0.055934 -1.204859
v 610.336914 178.194458 40.524155
vn 0.336700 0.401160 0.851882
vt -0.015538 -1.084853
v 593.277100 178.194458 -109.207504
vn 0.161549 0.370737 -0.914580
vt -0.015538 -1.084853
v 247.537933 73.481888 -69.815422
vn -0.113203 0.000000 -0.993572
vt 0.584208 -0.477831
v 593.277100 89.097237 -109.207504
vn 0.293479 -0.038220 -0.955201
vt 0.480388 -1.086213
v 593.277100 0.000005 -109.207512
vn 0.359464 0.000000 -0.933159
vt 0.976315 -1.087573
v 247.537903 0.000003 -69.815422
vn -0.113203 0.000000 -0.993572
vt 0.993218 -0.478952
v -98.201218 81.269241 -30.423330
vn -0.113203 0.000000 -0.993572
vt 0.557766 0.130908
v -98.201248 0.000001 -30.423330
vn -0.113203 0.000000 -0.993572
vt 1.010121 0.129668
v -443.940399 89.097229 8.968760
vn -0.113203 0.000000 -0.993572
vt 0.531097 0.739648
v -443.940399 -0.000000 8.968756
vn -0.113203 0.000000 -0.993572
vt 1.027024 0.738288
v 247.537903 156.316345 -69.815414
vn -0.110577 0.446471 -0.887939
vt 0.123141 -0.476567
v 593.277100 178.194458 -109.207504
vn 0.161549 0.370737 -0.914580
vt -0.015538 -1.084853
v -98.201248 156.316345 -30.423325
vn -0.090002 0.486364 -0.869109
vt 0.140044 0.132054
v -443.940399 178.194458 8.968764
vn -0.058337 0.562747 -0.824568
vt 0.035171 0.741008
v -437.103149 89.097229 84.027443
vn -0.993932 0.000000 0.109994
vt -0.239338 0.463492
v -443.940399 89.097229 8.968760
vn -0.995877 0.000000 0.090716
vt -0.492779 0.463492
v -443.940399 -0.000000 8.968756
vn -0.995877 0.000000 0.090716
vt -0.492779 0.745425
v -437.103149 -0.000004 84.027443
vn -0.992691 0.000000 0.120688
vt -0.239338 0.745425
v -426.880585 89.097221 158.700424
vn -0.990759 0.000000 0.135633
vt 0.014103 0.463492
v -426.880585 -0.000007 158.700409
vn -0.990759 0.000000 0.135633
vt 0.014103 0.745425
v -437.103149 169.771378 84.027451
vn -0.993572 0.000000 0.113203
vt -0.239338 0.208213
v -443.940399 178.194458 8.968764
vn -0.995877 0.000000 0.090716
vt -0.492779 0.181559
v -426.880585 178.194458 158.700424
vn -0.990759 0.000000 0.135633
vt 0.014103 0.181559
v -437.103149 207.819260 84.027451
vn -0.993572 0.000000 0.113203
vt -0.239338 0.087817
v 653.967102 227.568665 -40.284576
vn 0.557484 0.822362 0.113721
vt -0.492019 -1.175373
f 8/8/8 6/6/6 7/7/7
f 5/5/5 7/7/7 6/6/6
f 7/7/7 5/5/5 12/12/12
f 11/11/11 12/12/12 5/5/5
f 6/6/6 2/2/2 5/5/5
f 1/1/1 5/5/5 2/2/2
f 5/5/5 1/1/1 11/11/11
f 9/9/9 11/11/11 1/1/1
f 2/2/2 3/3/3 1/1/1
f 4/4/4 1/1/1 3/3/3
f 1/1/1 4/4/4 9/9/9
f 10/10/10 9/9/9 4/4/4
f 20/20/20 19/19/19 18/18/18
f 17/17/17 18/18/18 19/19/19
f 18/18/18 17/17/17 16/16/16
f 13/13/13 16/16/16 17/17/17
f 16/16/16 13/13/13 15/15/15
f 14/14/14 15/15/15 13/13/13
f 22/22/22 14/14/14 21/21/21
f 13/13/13 21/21/21 14/14/14
f 21/21/21 13/13/13 23/23/23
f 17/17/17 23/23/23 13/13/13
f 23/23/23 17/17/17 24/24/24
f 19/19/19 24/24/24 17/17/17
f 26/26/26 33/33/33 34/34/34
f 33/33/33 26/26/26 25/25/25
f 27/27/27 25/25/25 26/26/26
f 25/25/25 27/27/27 28/28/28
f 25/25/25 35/35/35 33/33/33
f 35/35/35 25/25/25 29/29/29
f 28/28/28 29/29/29 25/25/25
f 29/29/29 28/28/28 30/30/30
f 29/29/29 36/36/36 35/35/35
f 36/36/36 29/29/29 31/31/31
f 30/30/30 31/31/31 29/29/29
f 31/31/31 30/30/30 32/32/32
f 44/44/44 38/38/38 37/37/37
f 39/39/39 37/37/37 38/38/38
f 37/37/37 39/39/39 40/40/40
f 40/40/40 41/41/41 37/37/37
f 41/41/41 40/40/40 42/42/42
f 41/41/41 45/45/45 37/37/37
f 43/43/43 37/37/37 45/45/45
f 37/37/37 43/43/43 44/44/44
f 68/68/68 44/44/44 43/43/43
f 45/45/45 68/68/68 43/43/43
f 47/47/47 54/54/54 55/55/55
f 54/54/54 47/47/47 46/46/46
f 48/48/48 46/46/46 47/47/47
f 46/46/46 48/48/48 49/49/49
f 46/46/46 56/56/56 54/54/54
f 56/56/56 46/46/46 50/50/50
f 49/49/49 50/50/50 46/46/46
f 50/50/50 49/49/49 51/51/51
f 50/50/50 57/57/57 56/56/56
f 57/57/57 50/50/50 52/52/52
f 51/51/51 52/52/52 50/50/50
f 52/52/52 51/51/51 53/53/53
f 65/65/65 59/59/59 58/58/58
f 60/60/60 58/58/58 59/59/59
f 58/58/58 60/60/60 61/61/61
f 61/61/61 62/62/62 58/58/58
f 62/62/62 61/61/61 63/63/63
f 62/62/62 66/66/66 58/58/58
f 64/64/64 58/58/58 66/66/66
f 58/58/58 64/64/64 65/65/65
f 67/67/67 65/65/65 64/64/64
f 66/66/66 67/67/67 64/64/64
