mtllib INST_SM_DEBRIS_BLOCK_SMALLE.mtl
g jgg01
usemtl 18_-_Default
v 149.608643 200.382156 51.892853
vn -0.008726 0.000000 0.999962
vt 0.746059 1.014014
v -150.379959 200.382187 49.274929
vn -0.008726 0.000000 0.999962
vt 0.746059 0.521896
v -150.379974 0.382046 49.274956
vn -0.008726 0.000000 0.999962
vt 0.253941 0.521896
v 149.608627 0.382027 51.892876
vn -0.008726 0.000000 0.999962
vt 0.253941 1.014015
v 150.481262 200.381729 -48.103485
vn 0.008726 -0.000001 -0.999962
vt 0.253942 1.014014
v 150.481247 0.381820 -48.103218
vn 0.008726 -0.000001 -0.999962
vt 0.746059 1.014015
v -149.507446 0.381847 -50.721012
vn 0.008726 -0.000001 -0.999962
vt 0.746059 0.521896
v -149.507385 200.381683 -50.721256
vn 0.008726 -0.000001 -0.999962
vt 0.253942 0.521896
v 149.608627 0.382027 51.892876
vn 0.894393 -0.447214 0.007806
vt 0.746059 0.759739
v 150.481247 0.381820 -48.103218
vn 0.447196 -0.894427 0.003904
vt 0.746059 0.601502
v 150.481262 200.381729 -48.103485
vn 0.707080 0.707107 0.006167
vt 0.253942 0.601502
v 149.608643 200.382156 51.892853
vn 0.707080 0.707107 0.006167
vt 0.253941 0.759739
v -150.379959 200.382187 49.274929
vn -0.707080 0.707107 -0.006173
vt 0.746059 0.759739
v -149.507385 200.381683 -50.721256
vn -0.707080 0.707107 -0.006174
vt 0.746058 0.601502
v -149.507446 0.381847 -50.721012
vn -0.894393 -0.447213 -0.007803
vt 0.253941 0.601502
v -150.379974 0.382046 49.274956
vn -0.447197 -0.894427 -0.003900
vt 0.253941 0.759739
v -150.379974 0.382046 49.274956
vn -0.447197 -0.894427 -0.003900
vt 0.478104 0.759739
v -149.507446 0.381847 -50.721012
vn -0.894393 -0.447213 -0.007803
vt 0.478104 0.601502
v 150.481247 0.381820 -48.103218
vn 0.447196 -0.894427 0.003904
vt -0.014015 0.601502
v 149.608627 0.382027 51.892876
vn 0.894393 -0.447214 0.007806
vt -0.014015 0.759739
v 150.481262 200.381729 -48.103485
vn 0.707080 0.707107 0.006167
vt 1.014014 0.601502
v -149.507385 200.381683 -50.721256
vn -0.707080 0.707107 -0.006174
vt 0.521896 0.601502
v -150.379959 200.382187 49.274929
vn -0.707080 0.707107 -0.006173
vt 0.521896 0.759739
v 149.608643 200.382156 51.892853
vn 0.707080 0.707107 0.006167
vt 1.014014 0.759739
f 3/3/3 1/1/1 2/2/2
f 1/1/1 3/3/3 4/4/4
f 7/7/7 5/5/5 6/6/6
f 5/5/5 7/7/7 8/8/8
f 11/11/11 9/9/9 10/10/10
f 9/9/9 11/11/11 12/12/12
f 15/15/15 13/13/13 14/14/14
f 13/13/13 15/15/15 16/16/16
f 19/19/19 17/17/17 18/18/18
f 17/17/17 19/19/19 20/20/20
f 23/23/23 21/21/21 22/22/22
f 21/21/21 23/23/23 24/24/24
