mtllib INST_TROLLHOLE_FANPLANTA.mtl
g nplantA_Lod1_01
usemtl Fanplant
v 91.145805 180.597168 0.000001
vn 0.000000 0.000000 -1.000000
vt 0.000000 0.000000
v 91.145805 -1.694409 -0.000017
vn 0.000000 0.000000 -1.000000
vt 0.000000 1.000000
v -91.145805 180.597168 0.000017
vn 0.000000 0.000000 -1.000000
vt 1.000000 0.000000
v -91.145805 -1.694409 -0.000001
vn 0.000000 0.000000 -1.000000
vt 1.000000 1.000000
v 0.000007 164.179184 -82.859779
vn -1.000000 0.000000 0.000000
vt 0.000000 0.000000
v -0.000014 -1.540371 -82.859787
vn -1.000000 0.000000 0.000000
vt 0.000000 1.000000
v 0.000014 164.179169 82.859802
vn -1.000000 0.000000 0.000000
vt 1.000000 0.000000
v -0.000007 -1.540378 82.859779
vn -1.000000 0.000000 0.000000
vt 1.000000 1.000000
v 87.072632 120.350456 7.706494
vn 0.640856 -0.422618 -0.640857
vt 0.000000 0.000000
v 47.017262 -1.129166 47.761871
vn 0.640856 -0.422618 -0.640857
vt 0.000000 1.000000
v -7.706516 120.350464 -87.072632
vn 0.640856 -0.422618 -0.640857
vt 1.000000 0.000000
v -47.761890 -1.129156 -47.017250
vn 0.640856 -0.422618 -0.640857
vt 1.000000 1.000000
v -87.072632 120.350464 -7.706482
vn -0.640856 -0.422618 0.640856
vt 0.000000 0.000000
v -47.017254 -1.129156 -47.761879
vn -0.640856 -0.422618 0.640856
vt 0.000000 1.000000
v 7.706503 120.350456 87.072655
vn -0.640856 -0.422618 0.640856
vt 1.000000 0.000000
v 47.761883 -1.129166 47.017258
vn -0.640856 -0.422618 0.640856
vt 1.000000 1.000000
v -7.706497 120.350464 87.072639
vn 0.640856 -0.422618 0.640856
vt 0.000000 0.000000
v -47.761879 -1.129166 47.017250
vn 0.640856 -0.422618 0.640856
vt 0.000000 1.000000
v 87.072639 120.350471 -7.706484
vn 0.640856 -0.422618 0.640856
vt 1.000000 0.000000
v 47.017258 -1.129156 -47.761879
vn 0.640856 -0.422618 0.640856
vt 1.000000 1.000000
v 7.706511 120.350487 -87.072617
vn -0.640856 -0.422618 -0.640857
vt 0.000000 0.000000
v 47.761887 -1.129156 -47.017242
vn -0.640856 -0.422618 -0.640857
vt 0.000000 1.000000
v -87.072639 120.350479 7.706496
vn -0.640856 -0.422618 -0.640857
vt 1.000000 0.000000
v -47.017265 -1.129166 47.761871
vn -0.640856 -0.422618 -0.640857
vt 1.000000 1.000000
v 64.449814 180.597168 -64.449814
vn -0.707107 0.000000 -0.707107
vt 0.000000 0.000000
v 64.449806 -1.694409 -64.449821
vn -0.707107 0.000000 -0.707107
vt 0.000000 1.000000
v -64.449806 180.597168 64.449829
vn -0.707107 0.000000 -0.707107
vt 1.000000 0.000000
v -64.449814 -1.694415 64.449814
vn -0.707107 0.000000 -0.707107
vt 1.000000 1.000000
v -64.449814 180.597153 -64.449806
vn -0.707107 0.000000 0.707107
vt 0.000000 0.000000
v -64.449821 -1.694409 -64.449806
vn -0.707107 0.000000 0.707107
vt 0.000000 1.000000
v 64.449821 180.597153 64.449806
vn -0.707107 0.000000 0.707107
vt 1.000000 0.000000
v 64.449814 -1.694415 64.449814
vn -0.707107 0.000000 0.707107
vt 1.000000 1.000000
f 1/1/1 2/2/2 3/3/3
f 4/4/4 3/3/3 2/2/2
f 5/5/5 6/6/6 7/7/7
f 8/8/8 7/7/7 6/6/6
f 9/9/9 10/10/10 11/11/11
f 12/12/12 11/11/11 10/10/10
f 13/13/13 14/14/14 15/15/15
f 16/16/16 15/15/15 14/14/14
f 17/17/17 18/18/18 19/19/19
f 20/20/20 19/19/19 18/18/18
f 21/21/21 22/22/22 23/23/23
f 24/24/24 23/23/23 22/22/22
f 25/25/25 26/26/26 27/27/27
f 28/28/28 27/27/27 26/26/26
f 29/29/29 30/30/30 31/31/31
f 32/32/32 31/31/31 30/30/30
