mtllib INST_TROLLHOLE_SHELFSTONE2M.mtl
g Stone2M_Lod1_01
usemtl Stalag
v -93.004356 0.000029 -0.000004
vn -0.376077 0.926589 0.000000
vt 0.598147 0.994680
v -71.387527 0.000018 51.866077
vn -0.299372 0.918414 0.258635
vt 0.698657 0.994680
v -45.636806 13.744518 33.178139
vn -0.408424 0.859091 0.308469
vt 0.699089 0.869297
v -58.810669 13.744527 -0.000151
vn -0.532343 0.846529 0.000000
vt 0.598147 0.869297
v -18.152998 13.744514 55.959648
vn -0.138932 0.868422 0.475963
vt 0.799858 0.869297
v -28.739901 0.000011 88.452377
vn -0.068020 0.925747 0.371975
vt 0.799083 0.994680
v -10.327425 33.204464 31.918276
vn -0.219537 0.663692 0.715064
vt 0.800949 0.711322
v -25.717060 33.204464 18.715906
vn -0.610142 0.643902 0.461646
vt 0.699679 0.711322
v -33.517612 33.204468 -0.000258
vn -0.792782 0.609505 0.000000
vt 0.598146 0.711322
v -45.636845 13.744534 -33.178444
vn -0.408426 0.859090 -0.308469
vt 0.497205 0.869297
v -71.387566 0.000040 -51.866096
vn -0.299373 0.918414 -0.258635
vt 0.497637 0.994680
v -25.717075 33.204472 -18.716423
vn -0.610143 0.643900 -0.461647
vt 0.496614 0.711322
v -10.327453 33.204472 -31.918800
vn -0.216430 0.713806 -0.666062
vt 0.395345 0.711322
v -18.153088 13.744539 -55.959965
vn -0.141535 0.888881 -0.435727
vt 0.396436 0.869297
v -28.739962 0.000047 -88.452423
vn -0.115266 0.927773 -0.354896
vt 0.397211 0.994680
v 27.267637 0.000011 83.921051
vn 0.153607 0.918261 0.364967
vt 0.897077 0.994680
v 17.472675 13.744515 53.683567
vn 0.167249 0.858918 0.484033
vt 0.897817 0.869297
v 47.632435 13.744519 34.585148
vn 0.409944 0.868266 0.279393
vt 0.995516 0.869297
v 75.242119 0.000018 54.666534
vn 0.333013 0.925622 0.179795
vt 0.994938 0.994680
v 27.195065 33.204464 19.726465
vn 0.611893 0.664115 0.429579
vt 0.995249 0.711322
v 9.883207 33.204464 30.283123
vn 0.250322 0.644405 0.722552
vt 0.898293 0.711322
v 75.242119 0.000018 54.666534
vn 0.333013 0.925622 0.179795
vt -0.001278 0.994680
v 88.239853 0.000029 -0.000061
vn 0.394765 0.918178 -0.033309
vt 0.098147 0.994680
v 56.476460 13.744526 -0.000185
vn 0.512210 0.858808 -0.009473
vt 0.098147 0.869297
v 47.632435 13.744519 34.585148
vn 0.409944 0.868266 0.279393
vt -0.000809 0.869297
v 47.632412 13.744534 -34.585506
vn 0.392430 0.868262 -0.303513
vt 0.197104 0.869297
v 75.242081 0.000040 -54.666649
vn 0.273898 0.925643 -0.261085
vt 0.197572 0.994680
v 27.195053 33.204472 -19.727020
vn 0.597678 0.664026 -0.449277
vt 0.196451 0.711322
v 31.885370 33.204468 -0.000279
vn 0.764338 0.644646 -0.014776
vt 0.098148 0.711322
v 27.195065 33.204464 19.726465
vn 0.611893 0.664115 0.429579
vt -0.000155 0.711322
v 27.267582 0.000046 -83.921143
vn 0.090269 0.918283 -0.385497
vt 0.297325 0.994680
v 17.472620 13.744536 -53.683910
vn 0.149228 0.858913 -0.489897
vt 0.296640 0.869297
v 9.883185 33.204472 -30.283661
vn 0.222189 0.644289 -0.731795
vt 0.295704 0.711322
v -14.100246 59.921375 10.239654
vn -0.746614 0.378281 0.547239
vt 0.701190 0.584273
v -17.807194 59.921383 -0.000326
vn -0.935082 0.354431 0.000001
vt 0.598144 0.584273
v -5.506853 59.921375 16.929432
vn -0.279786 0.388505 0.877943
vt 0.803593 0.584273
v -2.960049 89.270462 9.184436
vn -0.411128 0.170555 0.895480
vt 0.807698 0.442214
v -7.388566 89.270447 5.385358
vn -0.851608 0.166655 0.496981
vt 0.703433 0.442214
v -9.633280 89.270462 -0.000328
vn -0.985941 0.152888 -0.067420
vt 0.598142 0.442214
v -14.100259 59.921375 -10.240313
vn -0.746615 0.378280 -0.547239
vt 0.495099 0.584273
v -7.388571 89.270447 -5.386026
vn -0.794097 0.166659 -0.584496
vt 0.492854 0.442214
v -2.960066 89.270462 -9.185095
vn -0.257431 0.186733 -0.948082
vt 0.388594 0.442214
v -5.506879 59.921387 -16.930086
vn -0.280160 0.422296 -0.862077
vt 0.392700 0.584273
v 5.377564 59.921371 16.568342
vn 0.289736 0.378498 0.879086
vt 0.900302 0.584273
v 14.395505 59.921379 10.462914
vn 0.748458 0.388797 0.537259
vt 0.996204 0.584273
v 7.837455 89.270462 5.676223
vn 0.725589 0.162446 0.668679
vt 0.997926 0.442214
v 2.855793 89.270447 8.713923
vn 0.209753 0.159084 0.964726
vt 0.903424 0.442214
v 17.415495 59.921375 -0.000339
vn 0.925499 0.378729 -0.003949
vt 0.097547 0.584273
v 14.395505 59.921379 10.462914
vn 0.748458 0.388797 0.537259
vt 0.000170 0.584273
v 14.395499 59.921379 -10.463584
vn 0.742166 0.388972 -0.545793
vt 0.194925 0.584273
v 7.837452 89.270462 -5.676888
vn 0.860332 0.161518 -0.483468
vt 0.192632 0.442214
v 9.187129 89.270447 -0.000338
vn 0.983198 0.153535 0.098737
vt 0.096946 0.442214
v 7.837455 89.270462 5.676223
vn 0.725589 0.162446 0.668679
vt 0.001260 0.442214
v 5.377548 59.921379 -16.569012
vn 0.282254 0.378659 -0.881448
vt 0.293409 0.584273
v 2.855787 89.270447 -8.714594
vn 0.397479 0.157693 -0.903960
vt 0.290001 0.442214
v 9.722539 143.531967 6.550634
vn 0.852706 -0.204107 0.480867
vt 0.000626 0.180986
v 11.279988 143.531982 -0.000061
vn 0.975424 -0.196639 -0.099403
vt 0.094476 0.180986
v 16.508478 161.718964 0.000105
vn 0.874608 -0.484729 0.009934
vt 0.096310 0.080887
v 6.666834 117.927246 -4.547324
vn 0.808055 -0.041924 -0.587614
vt 0.187308 0.302898
v 2.791427 117.927238 -7.334868
vn 0.308518 -0.034873 -0.950579
vt 0.285957 0.302898
v 3.973726 143.531982 -10.056201
vn 0.206865 -0.198294 -0.958064
vt 0.288276 0.180986
v 9.722535 143.531967 -6.550702
vn 0.720916 -0.204433 -0.662184
vt 0.188325 0.180986
v -1.982360 117.927246 -7.357523
vn -0.309175 -0.028010 -0.950593
vt 0.386245 0.302898
v -2.737654 143.531967 -10.599127
vn -0.406665 -0.206889 -0.889843
vt 0.390284 0.180986
v -10.438452 143.531967 -0.000029
vn -0.971692 -0.208059 0.111918
vt 0.598147 0.180986
v -7.848125 143.531982 6.215006
vn -0.730076 -0.200364 0.653332
vt 0.708256 0.180986
v -12.639764 161.718964 9.470880
vn -0.702002 -0.509475 0.497622
vt 0.703933 0.080887
v -15.977089 161.718964 0.000127
vn -0.853205 -0.521372 -0.014578
vt 0.598148 0.080888
v -4.663731 161.718964 15.571425
vn -0.278038 -0.512306 0.812550
vt 0.808448 0.080888
v -2.737633 143.531967 10.599063
vn -0.193689 -0.206381 0.959110
vt 0.816102 0.180986
v -9.234227 175.181534 28.420197
vn -0.176076 -0.866810 0.466517
vt 0.801073 0.007731
v -22.937019 175.181534 16.664927
vn -0.433134 -0.855462 0.283865
vt 0.699748 0.007731
v -29.882561 175.181534 0.000224
vn -0.461708 -0.886274 -0.036658
vt 0.598148 0.007731
v 6.666837 117.927246 4.546919
vn 0.808512 -0.042081 0.586973
vt 0.000501 0.302898
v 8.120399 117.927238 -0.000219
vn 0.999052 -0.043525 -0.000360
vt 0.093904 0.302898
v -22.937031 175.181534 -16.664482
vn -0.390493 -0.854292 -0.343076
vt 0.496547 0.007731
v -12.639776 161.718964 -9.470613
vn -0.689812 -0.509417 -0.514445
vt 0.494886 0.080887
v -4.663758 161.718964 -15.571183
vn -0.250824 -0.512391 -0.821305
vt 0.392892 0.080888
v -9.234248 175.181534 -28.419762
vn -0.117799 -0.837111 -0.534198
vt 0.395222 0.007731
v -7.848131 143.531982 -6.215034
vn -0.846868 -0.200559 -0.492535
vt 0.493084 0.180986
v -1.982345 117.927246 7.357121
vn -0.308665 -0.028259 0.950751
vt 0.812002 0.302898
v 2.791430 117.927238 7.334426
vn 0.309073 -0.035029 0.950393
vt 0.904620 0.302898
v 3.973733 143.531982 10.056070
vn 0.395929 -0.197962 0.896689
vt 0.907038 0.180986
v 6.666837 117.927246 4.546919
vn 0.808512 -0.042081 0.586973
vt 0.995996 0.302898
v 9.722539 143.531967 6.550634
vn 0.852706 -0.204107 0.480867
vt 0.995918 0.180986
v 5.374859 161.718964 15.324125
vn 0.259504 -0.494351 0.829624
vt 0.902559 0.080887
v 13.641648 161.718964 9.623791
vn 0.693995 -0.497356 0.520584
vt 0.995439 0.080888
v 24.175461 175.181534 17.564722
vn 0.394644 -0.862507 0.316761
vt 0.994871 0.007731
v 8.761137 175.181534 26.964273
vn 0.137918 -0.850986 0.506755
vt 0.898174 0.007731
v -7.327840 117.927246 -0.000199
vn -0.999809 -0.019558 0.000183
vt 0.598142 0.302898
v -5.831084 117.927238 4.532857
vn -0.808730 -0.021114 0.587801
vt 0.705895 0.302898
v 13.641648 161.718964 9.623791
vn 0.693995 -0.497356 0.520584
vt 0.000315 0.080888
v 13.641643 161.718964 -9.623552
vn 0.710197 -0.497435 -0.498175
vt 0.192305 0.080888
v 24.175444 175.181534 -17.564306
vn 0.424482 -0.861966 -0.277181
vt 0.196376 0.007731
v 28.351664 175.181534 0.000206
vn 0.529931 -0.847637 0.026181
vt 0.098146 0.007731
v 24.175461 175.181534 17.564722
vn 0.394644 -0.862507 0.316761
vt -0.000084 0.007731
v -5.831088 117.927238 -4.533247
vn -0.808948 -0.021019 -0.587504
vt 0.491371 0.302898
v 8.761118 175.181534 -26.963848
vn 0.187337 -0.850221 -0.491964
vt 0.295596 0.007731
v 5.374845 161.718964 -15.323918
vn 0.278748 -0.494279 -0.823400
vt 0.291983 0.080887
f 86/86/86 88/88/88 89/89/89
f 88/88/88 86/86/86 87/87/87
f 83/83/83 87/87/87 86/86/86
f 87/87/87 83/83/83 85/85/85
f 83/83/83 84/84/84 85/85/85
f 84/84/84 83/83/83 82/82/82
f 70/70/70 82/82/82 83/83/83
f 82/82/82 70/70/70 81/81/81
f 66/66/66 81/81/81 70/70/70
f 81/81/81 66/66/66 91/91/91
f 65/65/65 91/91/91 66/66/66
f 91/91/91 65/65/65 90/90/90
f 80/80/80 90/90/90 65/65/65
f 90/90/90 80/80/80 97/97/97
f 64/64/64 97/97/97 80/80/80
f 97/97/97 64/64/64 63/63/63
f 61/61/61 63/63/63 64/64/64
f 63/63/63 61/61/61 60/60/60
f 62/62/62 60/60/60 61/61/61
f 60/60/60 62/62/62 59/59/59
f 57/57/57 59/59/59 62/62/62
f 59/59/59 57/57/57 75/75/75
f 56/56/56 75/75/75 57/57/57
f 75/75/75 56/56/56 74/74/74
f 92/92/92 56/56/56 58/58/58
f 57/57/57 58/58/58 56/56/56
f 58/58/58 57/57/57 93/93/93
f 62/62/62 93/93/93 57/57/57
f 93/93/93 62/62/62 99/99/99
f 61/61/61 99/99/99 62/62/62
f 99/99/99 61/61/61 78/78/78
f 64/64/64 78/78/78 61/61/61
f 78/78/78 64/64/64 77/77/77
f 80/80/80 77/77/77 64/64/64
f 77/77/77 80/80/80 68/68/68
f 65/65/65 68/68/68 80/80/80
f 68/68/68 65/65/65 67/67/67
f 66/66/66 67/67/67 65/65/65
f 67/67/67 66/66/66 69/69/69
f 70/70/70 69/69/69 66/66/66
f 69/69/69 70/70/70 86/86/86
f 83/83/83 86/86/86 70/70/70
f 96/96/96 92/92/92 95/95/95
f 58/58/58 95/95/95 92/92/92
f 95/95/95 58/58/58 94/94/94
f 93/93/93 94/94/94 58/58/58
f 94/94/94 93/93/93 98/98/98
f 99/99/99 98/98/98 93/93/93
f 98/98/98 99/99/99 79/79/79
f 78/78/78 79/79/79 99/99/99
f 79/79/79 78/78/78 76/76/76
f 77/77/77 76/76/76 78/78/78
f 76/76/76 77/77/77 73/73/73
f 68/68/68 73/73/73 77/77/77
f 73/73/73 68/68/68 72/72/72
f 67/67/67 72/72/72 68/68/68
f 72/72/72 67/67/67 71/71/71
f 69/69/69 71/71/71 67/67/67
f 71/71/71 69/69/69 89/89/89
f 86/86/86 89/89/89 69/69/69
f 52/52/52 74/74/74 53/53/53
f 74/74/74 52/52/52 75/75/75
f 51/51/51 75/75/75 52/52/52
f 75/75/75 51/51/51 59/59/59
f 55/55/55 59/59/59 51/51/51
f 59/59/59 55/55/55 60/60/60
f 42/42/42 60/60/60 55/55/55
f 60/60/60 42/42/42 63/63/63
f 41/41/41 63/63/63 42/42/42
f 63/63/63 41/41/41 97/97/97
f 39/39/39 97/97/97 41/41/41
f 97/97/97 39/39/39 90/90/90
f 38/38/38 90/90/90 39/39/39
f 90/90/90 38/38/38 91/91/91
f 37/37/37 91/91/91 38/38/38
f 91/91/91 37/37/37 81/81/81
f 47/47/47 81/81/81 37/37/37
f 81/81/81 47/47/47 82/82/82
f 46/46/46 82/82/82 47/47/47
f 82/82/82 46/46/46 84/84/84
f 45/45/45 46/46/46 44/44/44
f 47/47/47 44/44/44 46/46/46
f 44/44/44 47/47/47 36/36/36
f 37/37/37 36/36/36 47/47/47
f 36/36/36 37/37/37 34/34/34
f 38/38/38 34/34/34 37/37/37
f 34/34/34 38/38/38 35/35/35
f 39/39/39 35/35/35 38/38/38
f 35/35/35 39/39/39 41/41/41
f 40/40/40 41/41/41 42/42/42
f 41/41/41 40/40/40 35/35/35
f 9/9/9 35/35/35 40/40/40
f 35/35/35 9/9/9 34/34/34
f 8/8/8 34/34/34 9/9/9
f 34/34/34 8/8/8 36/36/36
f 7/7/7 36/36/36 8/8/8
f 36/36/36 7/7/7 44/44/44
f 21/21/21 44/44/44 7/7/7
f 44/44/44 21/21/21 45/45/45
f 20/20/20 45/45/45 21/21/21
f 17/17/17 20/20/20 21/21/21
f 20/20/20 17/17/17 18/18/18
f 16/16/16 18/18/18 17/17/17
f 18/18/18 16/16/16 19/19/19
f 53/53/53 49/49/49 52/52/52
f 48/48/48 52/52/52 49/49/49
f 52/52/52 48/48/48 51/51/51
f 50/50/50 51/51/51 48/48/48
f 51/51/51 50/50/50 55/55/55
f 54/54/54 55/55/55 50/50/50
f 55/55/55 54/54/54 42/42/42
f 43/43/43 42/42/42 54/54/54
f 42/42/42 43/43/43 40/40/40
f 12/12/12 40/40/40 43/43/43
f 40/40/40 12/12/12 9/9/9
f 4/4/4 9/9/9 12/12/12
f 9/9/9 4/4/4 8/8/8
f 3/3/3 8/8/8 4/4/4
f 8/8/8 3/3/3 7/7/7
f 5/5/5 7/7/7 3/3/3
f 7/7/7 5/5/5 21/21/21
f 17/17/17 21/21/21 5/5/5
f 49/49/49 30/30/30 48/48/48
f 29/29/29 48/48/48 30/30/30
f 48/48/48 29/29/29 50/50/50
f 28/28/28 50/50/50 29/29/29
f 50/50/50 28/28/28 54/54/54
f 33/33/33 54/54/54 28/28/28
f 54/54/54 33/33/33 43/43/43
f 13/13/13 43/43/43 33/33/33
f 43/43/43 13/13/13 12/12/12
f 10/10/10 12/12/12 13/13/13
f 12/12/12 10/10/10 4/4/4
f 1/1/1 4/4/4 10/10/10
f 4/4/4 1/1/1 3/3/3
f 2/2/2 3/3/3 1/1/1
f 3/3/3 2/2/2 5/5/5
f 6/6/6 5/5/5 2/2/2
f 5/5/5 6/6/6 17/17/17
f 16/16/16 17/17/17 6/6/6
f 30/30/30 25/25/25 29/29/29
f 24/24/24 29/29/29 25/25/25
f 29/29/29 24/24/24 28/28/28
f 26/26/26 28/28/28 24/24/24
f 28/28/28 26/26/26 33/33/33
f 32/32/32 33/33/33 26/26/26
f 33/33/33 32/32/32 13/13/13
f 14/14/14 13/13/13 32/32/32
f 13/13/13 14/14/14 10/10/10
f 11/11/11 10/10/10 14/14/14
f 10/10/10 11/11/11 1/1/1
f 14/14/14 15/15/15 11/11/11
f 15/15/15 14/14/14 31/31/31
f 32/32/32 31/31/31 14/14/14
f 31/31/31 32/32/32 27/27/27
f 26/26/26 27/27/27 32/32/32
f 27/27/27 26/26/26 23/23/23
f 24/24/24 23/23/23 26/26/26
f 23/23/23 24/24/24 22/22/22
f 25/25/25 22/22/22 24/24/24
usemtl Stalagtile1
v -54.800030 207.101608 39.814457
vn -0.067364 0.996683 0.045666
vt 0.735097 0.314078
v -71.695274 207.101593 0.000205
vn -0.083244 0.996529 0.000000
vt 0.812555 0.499999
v -109.013390 205.133057 0.000049
vn -0.643681 0.760586 -0.084756
vt 0.983644 0.500000
v -83.675598 205.133041 60.793983
vn -0.674817 0.603544 0.424685
vt 0.867480 0.216109
v -22.154930 207.101578 68.185715
vn -0.027923 0.997021 0.071894
vt 0.585432 0.181592
v -33.686913 205.133041 103.677986
vn -0.324810 0.646562 0.690258
vt 0.638302 0.015853
v 0.000134 215.311035 0.000329
vn 0.000000 1.000000 0.000000
vt 0.483859 0.499999
v -97.622314 191.647629 0.000093
vn -0.435944 -0.898373 0.053651
vt 0.931421 0.500000
v -74.932129 191.647614 54.440643
vn -0.337484 -0.904480 0.260809
vt 0.827395 0.245778
v -82.014694 198.783401 59.586514
vn -0.666465 -0.549205 0.504180
vt 0.874906 0.210618
v -108.146103 198.783401 0.000056
vn -0.830898 -0.555958 0.022800
vt 0.999501 0.500000
v -33.418877 198.783401 102.851776
vn -0.235067 -0.556021 0.797236
vt 0.643201 0.000499
v -30.166861 191.647614 92.843048
vn -0.094976 -0.916601 0.388358
vt 0.622164 0.066449
v -54.800091 207.101608 -39.813999
vn -0.067364 0.996683 -0.045665
vt 0.735097 0.685921
v -83.675636 205.133072 -60.793903
vn -0.608196 0.603289 -0.515887
vt 0.867480 0.783891
v -22.155046 207.101608 -68.185333
vn -0.022510 0.997343 -0.069278
vt 0.585432 0.818407
v -33.686985 205.133072 -103.677925
vn -0.158104 0.454436 -0.876636
vt 0.638302 0.984147
v -82.014771 198.783432 -59.586430
vn -0.685461 -0.549184 -0.478059
vt 0.874906 0.789382
v -33.419056 198.783417 -102.851692
vn -0.278434 -0.556016 -0.783148
vt 0.643202 0.999501
v -30.167040 191.647644 -92.842880
vn -0.151110 -0.927691 -0.341403
vt 0.622164 0.933551
v -74.932175 191.647644 -54.440495
vn -0.362613 -0.904136 -0.225944
vt 0.827395 0.754222
v 31.961363 205.133041 98.366669
vn 0.195377 0.603499 0.773057
vt 0.337330 0.040655
v 20.931967 207.101593 64.421165
vn 0.022613 0.996683 0.078179
vt 0.387895 0.199171
v 28.621546 191.647644 -88.087029
vn 0.119652 -0.904560 -0.409213
vt 0.352641 0.911342
v 78.978226 191.647644 -57.380653
vn 0.304934 -0.916674 -0.258311
vt 0.121775 0.767952
v 51.904175 184.549820 -37.742317
vn 0.192887 -0.971847 -0.135310
vt 0.245899 0.676246
v 58.002953 207.101593 42.141495
vn 0.059746 0.997021 0.048773
vt 0.217939 0.303211
v 28.621611 191.647614 88.087128
vn 0.143714 -0.904549 0.401420
vt 0.352641 0.088658
v 31.326965 198.783401 96.413284
vn 0.273548 -0.549204 0.789649
vt 0.334493 0.031768
v 87.492195 198.783401 63.566444
vn 0.685612 -0.555955 0.469947
vt 0.066697 0.191289
v 78.978256 191.647614 57.380749
vn 0.339898 -0.916665 0.210227
vt 0.121775 0.232048
v 88.193817 205.133041 64.076485
vn 0.556075 0.646606 0.522190
vt 0.079526 0.200781
v 103.428886 205.133057 -0.000022
vn 0.795549 0.603561 0.053069
vt 0.009679 0.500000
v 67.736893 207.101608 0.000082
vn 0.081340 0.996683 0.002652
vt 0.173313 0.500000
v 58.002926 207.101593 -42.141159
vn 0.064848 0.997021 -0.041750
vt 0.217939 0.696787
v 88.193779 205.133072 -64.076523
vn 0.668460 0.646618 -0.367487
vt 0.079525 0.799219
v 92.621399 191.647629 0.000030
vn 0.426079 -0.904598 -0.012655
vt 0.059227 0.500000
v 101.375961 198.783417 -0.000011
vn 0.835559 -0.549163 -0.016150
vt 0.000500 0.500000
v 87.492165 198.783432 -63.566441
vn 0.658800 -0.555974 -0.506829
vt 0.066697 0.808711
v 31.961292 205.133072 -98.366661
vn 0.296319 0.603524 -0.740239
vt 0.337330 0.959345
v 20.931892 207.101624 -64.420708
vn 0.027657 0.996683 -0.076539
vt 0.387895 0.800827
v 31.326872 198.783432 -96.413254
vn 0.242825 -0.549231 -0.799613
vt 0.334493 0.968232
v 18.761980 184.549820 -57.878616
vn 0.078732 -0.968832 -0.234875
vt 0.397843 0.770277
v -19.886688 184.549835 -61.067829
vn -0.075654 -0.969553 -0.232904
vt 0.575033 0.785170
v 8.761118 175.181534 -26.963848
vn 0.187337 -0.850221 -0.491964
vt 0.443694 0.625914
v -9.234248 175.181534 -28.419762
vn -0.117799 -0.837111 -0.534198
vt 0.526195 0.632712
v 24.175444 175.181534 -17.564306
vn 0.424482 -0.861966 -0.277181
vt 0.373025 0.582020
v -29.882561 175.181534 0.000224
vn -0.461708 -0.886274 -0.036658
vt 0.620860 0.499999
v -22.937019 175.181534 16.664927
vn -0.433134 -0.855462 0.283865
vt 0.589017 0.422180
v -49.279247 184.549805 35.771065
vn -0.201674 -0.968851 0.143721
vt 0.709786 0.332959
v 51.904198 184.549820 37.742619
vn 0.188256 -0.971858 0.141604
vt 0.245899 0.323752
v 60.813869 184.549805 0.000140
vn 0.247704 -0.968833 0.002316
vt 0.205052 0.499999
v 28.351664 175.181534 0.000206
vn 0.529931 -0.847637 0.026181
vt 0.353879 0.499999
v 24.175461 175.181534 17.564722
vn 0.394644 -0.862507 0.316761
vt 0.373025 0.417978
v -19.886574 184.549805 61.068176
vn -0.076442 -0.971868 0.222775
vt 0.575032 0.214829
v 18.762030 184.549789 57.878914
vn 0.074345 -0.968844 0.236251
vt 0.397843 0.229722
v 8.761137 175.181534 26.964273
vn 0.137918 -0.850986 0.506755
vt 0.443694 0.374084
v -9.234227 175.181534 28.420197
vn -0.176076 -0.866810 0.466517
vt 0.526195 0.367286
v -22.937031 175.181534 -16.664482
vn -0.390493 -0.854292 -0.343076
vt 0.589017 0.577819
v -49.279285 184.549820 -35.770733
vn -0.201674 -0.968851 -0.143721
vt 0.709786 0.667040
v -64.255753 184.549820 0.000178
vn -0.226212 -0.974078 0.000000
vt 0.778448 0.499999
f 151/151/151 152/152/152 125/125/125
f 146/146/146 125/125/125 152/152/152
f 125/125/125 146/146/146 142/142/142
f 144/144/144 142/142/142 146/146/146
f 142/142/142 144/144/144 143/143/143
f 145/145/145 143/143/143 144/144/144
f 143/143/143 145/145/145 158/158/158
f 159/159/159 158/158/158 147/147/147
f 158/158/158 159/159/159 143/143/143
f 119/119/119 143/143/143 159/159/159
f 143/143/143 119/119/119 142/142/142
f 123/123/123 142/142/142 119/119/119
f 142/142/142 123/123/123 125/125/125
f 124/124/124 125/125/125 123/123/123
f 125/125/125 124/124/124 151/151/151
f 136/136/136 151/151/151 124/124/124
f 151/151/151 136/136/136 150/150/150
f 130/130/130 150/150/150 136/136/136
f 150/150/150 130/130/130 155/155/155
f 127/127/127 155/155/155 130/130/130
f 155/155/155 127/127/127 154/154/154
f 112/112/112 154/154/154 127/127/127
f 154/154/154 112/112/112 149/149/149
f 108/108/108 149/149/149 112/112/112
f 149/149/149 108/108/108 160/160/160
f 108/108/108 107/107/107 160/160/160
f 120/120/120 160/160/160 107/107/107
f 115/115/115 116/116/116 114/114/114
f 118/118/118 114/114/114 116/116/116
f 114/114/114 118/118/118 117/117/117
f 119/119/119 117/117/117 118/118/118
f 117/117/117 119/119/119 120/120/120
f 159/159/159 120/120/120 119/119/119
f 120/120/120 159/159/159 160/160/160
f 147/147/147 160/160/160 159/159/159
f 160/160/160 147/147/147 149/149/149
f 148/148/148 149/149/149 147/147/147
f 149/149/149 148/148/148 154/154/154
f 157/157/157 154/154/154 148/148/148
f 154/154/154 157/157/157 155/155/155
f 156/156/156 155/155/155 157/157/157
f 155/155/155 156/156/156 150/150/150
f 153/153/153 150/150/150 156/156/156
f 150/150/150 153/153/153 151/151/151
f 152/152/152 151/151/151 153/153/153
f 115/115/115 106/106/106 140/140/140
f 106/106/106 115/115/115 113/113/113
f 114/114/114 113/113/113 115/115/115
f 113/113/113 114/114/114 102/102/102
f 126/126/126 133/133/133 106/106/106
f 134/134/134 106/106/106 133/133/133
f 106/106/106 134/134/134 140/140/140
f 106/106/106 122/122/122 126/126/126
f 122/122/122 106/106/106 104/104/104
f 100/100/100 104/104/104 106/106/106
f 101/101/101 100/100/100 106/106/106
f 106/106/106 113/113/113 101/101/101
f 102/102/102 101/101/101 113/113/113
f 101/101/101 102/102/102 100/100/100
f 103/103/103 100/100/100 102/102/102
f 100/100/100 103/103/103 104/104/104
f 105/105/105 104/104/104 103/103/103
f 104/104/104 105/105/105 122/122/122
f 121/121/121 122/122/122 105/105/105
f 122/122/122 121/121/121 126/126/126
f 131/131/131 126/126/126 121/121/121
f 126/126/126 131/131/131 133/133/133
f 132/132/132 133/133/133 131/131/131
f 133/133/133 132/132/132 134/134/134
f 135/135/135 134/134/134 132/132/132
f 134/134/134 135/135/135 140/140/140
f 139/139/139 140/140/140 135/135/135
f 140/140/140 139/139/139 115/115/115
f 116/116/116 115/115/115 139/139/139
f 114/114/114 117/117/117 102/102/102
f 110/110/110 102/102/102 117/117/117
f 102/102/102 110/110/110 103/103/103
f 109/109/109 103/103/103 110/110/110
f 103/103/103 109/109/109 105/105/105
f 111/111/111 105/105/105 109/109/109
f 105/105/105 111/111/111 121/121/121
f 128/128/128 121/121/121 111/111/111
f 121/121/121 128/128/128 131/131/131
f 129/129/129 131/131/131 128/128/128
f 131/131/131 129/129/129 132/132/132
f 137/137/137 132/132/132 129/129/129
f 132/132/132 137/137/137 135/135/135
f 138/138/138 135/135/135 137/137/137
f 135/135/135 138/138/138 139/139/139
f 141/141/141 139/139/139 138/138/138
f 139/139/139 141/141/141 116/116/116
f 118/118/118 116/116/116 141/141/141
f 117/117/117 120/120/120 110/110/110
f 107/107/107 110/110/110 120/120/120
f 110/110/110 107/107/107 109/109/109
f 108/108/108 109/109/109 107/107/107
f 109/109/109 108/108/108 111/111/111
f 112/112/112 111/111/111 108/108/108
f 111/111/111 112/112/112 128/128/128
f 127/127/127 128/128/128 112/112/112
f 128/128/128 127/127/127 129/129/129
f 130/130/130 129/129/129 127/127/127
f 129/129/129 130/130/130 137/137/137
f 136/136/136 137/137/137 130/130/130
f 137/137/137 136/136/136 138/138/138
f 124/124/124 138/138/138 136/136/136
f 138/138/138 124/124/124 141/141/141
f 123/123/123 141/141/141 124/124/124
f 141/141/141 123/123/123 118/118/118
f 119/119/119 118/118/118 123/123/123
