mtllib INST_TROLLHOLE_STONEA.mtl
g _StoneA_Lod1_01
usemtl StoneA
v 6.314700 54.811913 -4.719515
vn -0.138747 0.989605 0.037837
vt 0.500000 0.505518
v 5.719745 43.416046 23.067410
vn -0.170427 0.930202 0.325083
vt 0.500000 0.323875
v 21.835075 45.432823 25.332043
vn -0.181901 0.894878 0.407561
vt 0.426524 0.339579
v 33.883739 52.387005 21.495081
vn -0.103617 0.894140 0.435635
vt 0.365753 0.383975
v 42.415421 58.258739 13.958775
vn 0.231150 0.963712 0.133526
vt 0.328194 0.449387
v 37.974167 57.848701 3.885264
vn 0.275575 0.918179 -0.284615
vt 0.320342 0.524505
v 28.737492 47.023933 -9.386006
vn 0.155462 0.864606 -0.477794
vt 0.343555 0.596339
v 15.928618 42.468998 -19.353764
vn 0.451832 0.796225 -0.402335
vt 0.393818 0.652470
v -1.412695 47.596912 -28.318331
vn 0.432343 0.801033 -0.414036
vt 0.462441 0.683191
v -16.256559 52.162567 -32.455326
vn -0.041502 0.958118 -0.283352
vt 0.537559 0.683191
v -26.036327 46.999664 -26.730438
vn -0.454646 0.890669 -0.002282
vt 0.606182 0.652470
v -33.092422 46.525124 -19.380964
vn -0.498398 0.866588 0.024997
vt 0.656445 0.596339
v -33.029747 41.802658 -6.724052
vn -0.496074 0.857487 0.136479
vt 0.679658 0.524505
v -25.485281 42.355934 3.544839
vn -0.363220 0.914386 0.178800
vt 0.671806 0.449387
v -19.173107 40.261967 11.757090
vn -0.282484 0.935316 0.213043
vt 0.634247 0.383975
v -7.203897 42.007431 19.340857
vn -0.249404 0.936917 0.244915
vt 0.573476 0.339579
v 10.605960 29.549877 49.302460
vn -0.047906 0.802795 0.594327
vt 0.500000 0.173641
v 36.008945 26.898705 50.417004
vn 0.199077 0.673503 0.711872
vt 0.365753 0.202333
v 55.258888 28.771738 44.861038
vn 0.514106 0.577199 0.634457
vt 0.254718 0.283449
v 65.737785 38.976082 28.797239
vn 0.750217 0.605723 0.265092
vt 0.186095 0.402962
v 63.699989 41.563580 8.086989
vn 0.751048 0.642034 -0.154010
vt 0.171749 0.540209
v 47.037724 45.310436 -10.679774
vn 0.406443 0.803009 -0.435867
vt 0.214160 0.671457
v 20.829376 27.542162 -32.130322
vn 0.353809 0.793173 -0.495678
vt 0.305996 0.774012
v -3.876888 32.502060 -46.626755
vn 0.376029 0.720135 -0.583102
vt 0.431377 0.830143
v -30.997972 30.306793 -52.014423
vn -0.030543 0.615076 -0.787876
vt 0.568623 0.830143
v -55.844379 32.095486 -45.845287
vn -0.702760 0.588492 -0.399756
vt 0.694004 0.774012
v -65.931137 20.137421 -32.094894
vn -0.792849 0.602637 -0.090662
vt 0.785840 0.671457
v -66.030624 18.090082 -13.268870
vn -0.710210 0.701349 0.060920
vt 0.828251 0.540209
v -58.322987 24.217573 7.426387
vn -0.638977 0.756808 0.137656
vt 0.813905 0.402962
v -41.680794 29.959105 28.137323
vn -0.480630 0.822435 0.304296
vt 0.745282 0.283449
v -17.047888 31.424578 43.244385
vn -0.290409 0.844449 0.450076
vt 0.634247 0.202333
v 0.000015 -0.000009 63.035900
vn -0.075621 0.607591 0.790642
vt 0.500000 0.005500
v 33.587124 -0.000008 57.586151
vn 0.318634 0.401687 0.858557
vt 0.297738 0.048729
v 61.366711 -0.000006 42.179237
vn 0.721644 0.113183 0.682949
vt 0.130450 0.170940
v 78.535439 -0.000003 19.479147
vn 0.941022 0.171027 0.291937
vt 0.027059 0.351004
v 82.124672 0.000000 -6.589066
vn 0.926064 0.373739 -0.052202
vt 0.005445 0.557784
v 71.513802 0.000004 -31.517969
vn 0.758052 0.567012 -0.322265
vt 0.069344 0.755527
v 48.537548 0.000006 -50.997128
vn 0.391997 0.762551 -0.514640
vt 0.207707 0.910041
v 17.168711 0.000008 -61.658424
vn 0.322843 0.726845 -0.606192
vt 0.396610 0.994609
v -17.168755 0.000009 -61.658413
vn -0.090553 0.465888 -0.880198
vt 0.603390 0.994609
v -48.537582 0.000007 -50.997101
vn -0.596860 0.111273 -0.794592
vt 0.792293 0.910041
v -71.513824 0.000005 -31.517929
vn -0.921001 0.148504 -0.360144
vt 0.930656 0.755527
v -82.124672 0.000002 -6.589021
vn -0.849946 0.524931 -0.045153
vt 0.994555 0.557784
v -78.535423 -0.000002 19.479191
vn -0.732339 0.668262 0.130787
vt 0.972941 0.351004
v -61.366680 -0.000005 42.179272
vn -0.641768 0.682090 0.350553
vt 0.869550 0.170940
v -33.587078 -0.000007 57.586170
vn -0.442272 0.665890 0.600821
vt 0.702262 0.048729
f 21/21/21 37/37/37 22/22/22
f 38/38/38 22/22/22 37/37/37
f 22/22/22 38/38/38 23/23/23
f 39/39/39 23/23/23 38/38/38
f 23/23/23 39/39/39 24/24/24
f 40/40/40 24/24/24 39/39/39
f 24/24/24 40/40/40 25/25/25
f 41/41/41 25/25/25 40/40/40
f 25/25/25 41/41/41 26/26/26
f 42/42/42 26/26/26 41/41/41
f 26/26/26 42/42/42 27/27/27
f 43/43/43 27/27/27 42/42/42
f 27/27/27 43/43/43 28/28/28
f 44/44/44 28/28/28 43/43/43
f 28/28/28 44/44/44 29/29/29
f 45/45/45 29/29/29 44/44/44
f 29/29/29 45/45/45 30/30/30
f 46/46/46 30/30/30 45/45/45
f 5/5/5 21/21/21 6/6/6
f 22/22/22 6/6/6 21/21/21
f 6/6/6 22/22/22 7/7/7
f 23/23/23 7/7/7 22/22/22
f 7/7/7 23/23/23 8/8/8
f 24/24/24 8/8/8 23/23/23
f 8/8/8 24/24/24 9/9/9
f 25/25/25 9/9/9 24/24/24
f 9/9/9 25/25/25 10/10/10
f 26/26/26 10/10/10 25/25/25
f 10/10/10 26/26/26 11/11/11
f 27/27/27 11/11/11 26/26/26
f 11/11/11 27/27/27 12/12/12
f 28/28/28 12/12/12 27/27/27
f 12/12/12 28/28/28 13/13/13
f 29/29/29 13/13/13 28/28/28
f 13/13/13 29/29/29 14/14/14
f 30/30/30 14/14/14 29/29/29
f 1/1/1 11/11/11 12/12/12
f 11/11/11 1/1/1 10/10/10
f 9/9/9 1/1/1 8/8/8
f 1/1/1 9/9/9 10/10/10
f 12/12/12 13/13/13 1/1/1
f 14/14/14 1/1/1 13/13/13
f 1/1/1 14/14/14 15/15/15
f 5/5/5 6/6/6 1/1/1
f 7/7/7 1/1/1 6/6/6
f 1/1/1 7/7/7 8/8/8
f 16/16/16 1/1/1 15/15/15
f 1/1/1 16/16/16 2/2/2
f 14/14/14 30/30/30 15/15/15
f 31/31/31 15/15/15 30/30/30
f 15/15/15 31/31/31 16/16/16
f 17/17/17 16/16/16 31/31/31
f 16/16/16 17/17/17 2/2/2
f 18/18/18 2/2/2 17/17/17
f 2/2/2 18/18/18 3/3/3
f 19/19/19 3/3/3 18/18/18
f 3/3/3 19/19/19 4/4/4
f 20/20/20 4/4/4 19/19/19
f 21/21/21 36/36/36 37/37/37
f 36/36/36 21/21/21 20/20/20
f 5/5/5 20/20/20 21/21/21
f 20/20/20 5/5/5 4/4/4
f 1/1/1 4/4/4 5/5/5
f 4/4/4 1/1/1 3/3/3
f 2/2/2 3/3/3 1/1/1
f 30/30/30 46/46/46 31/31/31
f 32/32/32 31/31/31 46/46/46
f 31/31/31 32/32/32 17/17/17
f 33/33/33 17/17/17 32/32/32
f 17/17/17 33/33/33 18/18/18
f 34/34/34 18/18/18 33/33/33
f 18/18/18 34/34/34 19/19/19
f 35/35/35 19/19/19 34/34/34
f 19/19/19 35/35/35 20/20/20
f 36/36/36 20/20/20 35/35/35
