mtllib TROLLHOLE02_HOLECAP17.mtl
g HoleCap17
usemtl Stalagcap
v -1250.482910 -1154.151855 -6990.876465
vn 0.032779 0.992501 0.117760
vt 0.496959 0.638621
v -1179.477783 -1154.288940 -7002.542480
vn 0.086207 0.989683 0.114440
vt 0.608884 0.620013
v -1150.373047 -1150.256226 -7097.134277
vn 0.138833 0.990141 0.018629
vt 0.641847 0.507871
v -1171.805420 -1150.297485 -7169.854004
vn 0.085938 0.988871 -0.121444
vt 0.615743 0.390344
v -1251.617188 -1152.458618 -7191.826660
vn -0.021599 0.977041 -0.211954
vt 0.500884 0.349985
v -1331.034668 -1153.044067 -7165.803223
vn -0.081590 0.985337 -0.149845
vt 0.383995 0.391770
v -1351.282104 -1148.358032 -7094.531738
vn -0.040018 0.998887 -0.024954
vt 0.351031 0.512231
v -1322.558594 -1149.425659 -7001.361328
vn 0.044107 0.998173 0.041284
vt 0.401034 0.615871
f 2/2/2 3/3/3 1/1/1
f 7/7/7 1/1/1 3/3/3
f 1/1/1 7/7/7 8/8/8
f 5/5/5 3/3/3 4/4/4
f 3/3/3 5/5/5 7/7/7
f 6/6/6 7/7/7 5/5/5
