mtllib TROLLHOLE02_RM_PSURF197.mtl
g RM_Psurf197
usemtl Lvl_roast_m_cliffsides
v -2619.827148 -822.659607 -24638.699219
vn 0.482458 0.797568 0.362104
vt 3.064399 0.144483
v -2596.381836 -945.269104 -24615.320313
vn 0.777688 0.151690 0.610075
vt 3.067754 0.420475
v -2534.243896 -945.761719 -25024.605469
vn 0.918092 0.103110 0.382722
vt 3.589661 0.357296
v -2519.463867 -823.370789 -25018.072266
vn 0.764893 0.452601 0.458356
vt 3.589958 0.081925
v -2959.034180 -864.972778 -24378.136719
vn 0.674942 0.388570 0.627270
vt 2.586602 0.103961
v -2971.182373 -973.479309 -24388.792969
vn 0.751394 0.026841 0.659307
vt 2.592660 0.347440
v -3123.568848 -915.999512 -24004.460938
vn 0.794475 0.321559 0.515179
vt 2.051126 0.226120
v -3137.743896 -1007.498840 -24012.220703
vn 0.879306 0.024775 0.475612
vt 2.052621 0.429713
v -3298.008545 -1001.460938 -23742.191406
vn 0.618348 0.449640 0.644569
vt 1.643038 0.397082
v -3309.747803 -1064.475952 -23753.296875
vn 0.702656 0.093737 0.705328
vt 1.649855 0.534930
v -3608.256836 -998.215759 -23510.039063
vn 0.389670 0.419201 0.820017
vt 1.196554 0.285291
v -3616.721924 -1062.312378 -23523.804688
vn 0.522295 0.028848 0.852277
vt 1.208332 0.426704
v -4000.491943 -1133.102417 -23315.572266
vn 0.445010 0.462182 0.767043
vt 0.750140 0.443749
v -3999.183105 -1152.241455 -23318.427734
vn 0.525796 0.237770 0.816703
vt 0.754260 0.488232
v -4325.806152 -1157.378906 -23042.166016
vn 0.442853 0.403575 0.800630
vt 0.246236 0.397905
v -4323.621582 -1168.426636 -23041.789063
vn 0.504150 0.128515 0.854000
vt 0.246982 0.424789
v -4587.270508 -1190.525024 -22957.281250
vn 0.089877 0.894248 0.438455
vt 0.001998 0.361076
v -4325.805664 -1190.525024 -23042.167969
vn 0.527695 -0.156747 0.834847
vt 0.246237 0.474945
v -2332.887451 -909.781616 -25274.734375
vn 0.781401 -0.022881 0.623610
vt 3.998002 0.317968
v -2320.317139 -769.399170 -25264.580078
vn 0.687176 0.352053 0.635491
vt 3.992773 0.000500
v -2575.915527 -1067.345825 -24601.630859
vn 0.824255 0.118138 0.553757
vt 3.062632 0.717903
v -2511.730469 -1067.600586 -25014.636719
vn 0.913594 0.022209 0.406020
vt 3.590094 0.654344
v -2582.946533 -1190.524902 -24606.339844
vn 0.829443 -0.072872 0.553818
vt 3.064399 0.999501
v -2519.463867 -1190.525146 -25018.072266
vn 0.912452 -0.068677 0.403379
vt 3.589958 0.935290
v -2952.692627 -1081.364990 -24372.542969
vn 0.744745 0.084287 0.662005
vt 2.583403 0.611474
v -2959.034180 -1190.524902 -24378.136719
vn 0.814449 -0.082750 0.574304
vt 2.586602 0.860632
v -2313.750244 -1049.660889 -25259.238281
vn 0.768079 0.102111 0.632161
vt 3.989998 0.656518
v -2320.317139 -1190.525391 -25264.580078
vn 0.777104 -0.063169 0.626195
vt 3.992773 0.979310
v -3116.183350 -1098.264038 -24000.361328
vn 0.866086 0.107692 0.488158
vt 2.050279 0.654495
v -3123.568848 -1190.525024 -24004.460938
vn 0.859686 -0.103705 0.500185
vt 2.051126 0.864191
v -3291.921387 -1126.483398 -23736.375000
vn 0.722942 0.044150 0.689497
vt 1.639435 0.692149
v -3298.008545 -1190.525024 -23742.191406
vn 0.720249 -0.130336 0.681362
vt 1.643038 0.836517
v -3603.896484 -1125.347656 -23502.845703
vn 0.498006 0.235266 0.834650
vt 1.190363 0.584701
v -3608.256836 -1190.525024 -23510.039063
vn 0.518496 -0.181947 0.835498
vt 1.196554 0.732270
v -3996.282959 -1168.469360 -23308.810547
vn 0.537676 0.025724 0.842759
vt 0.744384 0.529693
v -4000.491943 -1190.525024 -23315.572266
vn 0.515178 -0.339533 0.786962
vt 0.750140 0.577214
f 23/23/23 24/24/24 22/22/22
f 28/28/28 22/22/22 24/24/24
f 22/22/22 28/28/28 27/27/27
f 34/34/34 32/32/32 31/31/31
f 30/30/30 31/31/31 32/32/32
f 31/31/31 30/30/30 29/29/29
f 26/26/26 29/29/29 30/30/30
f 29/29/29 26/26/26 25/25/25
f 23/23/23 25/25/25 26/26/26
f 25/25/25 23/23/23 21/21/21
f 22/22/22 21/21/21 23/23/23
f 21/21/21 22/22/22 3/3/3
f 27/27/27 3/3/3 22/22/22
f 3/3/3 27/27/27 19/19/19
f 3/3/3 2/2/2 21/21/21
f 6/6/6 21/21/21 2/2/2
f 21/21/21 6/6/6 25/25/25
f 8/8/8 25/25/25 6/6/6
f 25/25/25 8/8/8 29/29/29
f 10/10/10 29/29/29 8/8/8
f 29/29/29 10/10/10 31/31/31
f 33/33/33 31/31/31 10/10/10
f 31/31/31 33/33/33 34/34/34
f 35/35/35 34/34/34 33/33/33
f 34/34/34 35/35/35 36/36/36
f 18/18/18 36/36/36 35/35/35
f 35/35/35 16/16/16 18/18/18
f 16/16/16 35/35/35 14/14/14
f 33/33/33 14/14/14 35/35/35
f 14/14/14 33/33/33 12/12/12
f 10/10/10 12/12/12 33/33/33
f 16/16/16 17/17/17 18/18/18
f 17/17/17 16/16/16 15/15/15
f 14/14/14 15/15/15 16/16/16
f 15/15/15 14/14/14 13/13/13
f 12/12/12 13/13/13 14/14/14
f 13/13/13 12/12/12 11/11/11
f 10/10/10 11/11/11 12/12/12
f 11/11/11 10/10/10 9/9/9
f 8/8/8 9/9/9 10/10/10
f 9/9/9 8/8/8 7/7/7
f 6/6/6 7/7/7 8/8/8
f 7/7/7 6/6/6 5/5/5
f 2/2/2 5/5/5 6/6/6
f 5/5/5 2/2/2 1/1/1
f 3/3/3 1/1/1 2/2/2
f 1/1/1 3/3/3 4/4/4
f 19/19/19 4/4/4 3/3/3
f 4/4/4 19/19/19 20/20/20
