mtllib TROLLHOLE02_HOLECAP28.mtl
g HoleCap28
usemtl Stalagcap
v 1920.825439 -491.083984 -7521.639160
vn 0.056170 -0.994910 -0.083657
vt 0.496959 0.638621
v 2012.748901 -483.522552 -7515.243164
vn 0.147540 -0.982691 -0.112028
vt 0.608884 0.620013
v 2040.910645 -483.750580 -7431.562012
vn 0.173510 -0.984768 0.011202
vt 0.641847 0.507871
v 2014.141479 -483.418884 -7365.249023
vn 0.115378 -0.982428 0.146709
vt 0.615743 0.390344
v 1919.063843 -484.103577 -7344.340820
vn 0.016333 -0.971541 0.236307
vt 0.500884 0.349985
v 1825.659912 -486.587067 -7367.111816
vn -0.064186 -0.980204 0.187296
vt 0.383995 0.391770
v 1803.913086 -491.651367 -7431.836426
vn -0.085748 -0.994536 0.059541
vt 0.351031 0.512231
v 1834.247437 -494.710938 -7513.187012
vn 0.000966 -0.999972 -0.007413
vt 0.401034 0.615871
f 3/3/3 1/1/1 2/2/2
f 1/1/1 3/3/3 5/5/5
f 4/4/4 5/5/5 3/3/3
f 7/7/7 5/5/5 6/6/6
f 5/5/5 7/7/7 1/1/1
f 8/8/8 1/1/1 7/7/7
