mtllib TROLLHOLE02_PS-MAINSTALAG57.mtl
g Ps-MainStalag57
usemtl Stalag
v -162.712875 -633.026855 -7008.556152
vn 0.594443 -0.783782 -0.179789
vt 0.249904 0.999501
v -141.574875 -643.117126 -6823.342773
vn 0.595112 -0.801464 -0.059140
vt 0.373292 0.999501
v -164.568207 -678.508789 -6839.469727
vn 0.938358 -0.345462 -0.011855
vt 0.373292 0.928195
v -180.920700 -679.572998 -6979.796387
vn 0.891493 -0.360766 -0.274021
vt 0.249098 0.928195
v -159.819351 -656.369263 -6647.593262
vn 0.294275 -0.950732 0.097523
vt 0.496680 0.999501
v -178.728210 -680.866943 -6718.395020
vn 0.616506 -0.672493 0.409480
vt 0.497486 0.928195
v -181.554550 -722.170715 -6737.577637
vn 0.708638 -0.205266 0.675054
vt 0.497483 0.781096
v -170.649780 -728.027710 -6830.850586
vn 0.998926 0.046298 0.001713
vt 0.373290 0.781096
v -182.195786 -736.381348 -6938.780273
vn 0.933532 -0.148550 -0.326267
vt 0.249904 0.856889
v -215.718521 -680.301270 -7043.489258
vn 0.354102 -0.714565 -0.603331
vt 0.123292 0.928195
v -201.120483 -634.247681 -7089.181152
vn 0.340159 -0.854424 -0.392749
vt 0.123292 0.999501
v -211.095612 -737.435120 -6984.092773
vn 0.280804 -0.663178 -0.693789
vt 0.123292 0.856889
v -242.223114 -736.281860 -6967.440430
vn -0.583979 -0.685046 -0.435524
vt -0.003320 0.856889
v -255.454132 -683.555664 -7024.423828
vn -0.535423 -0.715090 -0.449409
vt -0.003320 0.928195
v -264.039001 -640.125183 -7094.100586
vn -0.126605 -0.919720 -0.371600
vt -0.003320 0.999501
v -245.413788 -671.284851 -6686.318848
vn -0.051464 -0.962451 0.266534
vt 0.623292 0.999501
v -235.469116 -690.405945 -6712.457031
vn -0.217605 -0.774366 0.594143
vt 0.623292 0.928195
v -326.600830 -676.844788 -6756.909668
vn -0.128903 -0.989049 0.071874
vt 0.749904 0.999501
v -287.272217 -697.418701 -6789.276367
vn -0.579121 -0.794875 0.181087
vt 0.749098 0.928195
v -256.230225 -737.249084 -6796.851074
vn -0.793018 -0.542770 0.276629
vt 0.749098 0.781096
v -220.006226 -728.606445 -6736.231934
vn -0.339096 -0.509199 0.791031
vt 0.623290 0.781096
v -315.513428 -667.631042 -6933.767090
vn -0.153205 -0.978900 -0.135217
vt 0.873292 0.999501
v -286.619598 -692.198364 -6916.476074
vn -0.728068 -0.669437 -0.147555
vt 0.873292 0.928195
v -264.039001 -640.125183 -7094.100586
vn -0.126605 -0.919720 -0.371600
vt 0.996680 0.999501
v -255.454132 -683.555664 -7024.423828
vn -0.535423 -0.715090 -0.449409
vt 0.996680 0.928195
v -242.223114 -736.281860 -6967.440430
vn -0.583979 -0.685046 -0.435524
vt 0.996680 0.856889
v -260.452026 -738.013733 -6889.472656
vn -0.836480 -0.542487 -0.077523
vt 0.873295 0.781096
v -155.740982 -796.460388 -6817.019043
vn 0.977932 0.208807 0.006934
vt 0.373282 0.482409
v -162.610870 -802.930359 -6884.458496
vn 0.925337 -0.052154 -0.375541
vt 0.249903 0.482409
v -164.944061 -791.665771 -6758.668457
vn 0.673371 0.072094 0.735781
vt 0.497472 0.482409
v -145.482361 -873.331421 -6753.998535
vn 0.691618 0.360246 0.626009
vt 0.496642 0.107930
v -137.721863 -873.963501 -6787.855957
vn 0.988650 0.148397 0.023429
vt 0.373272 0.107930
v -143.959793 -875.581055 -6824.942383
vn 0.819920 -0.296580 -0.489664
vt 0.249902 0.107930
v -184.692596 -803.627869 -6912.644531
vn 0.250519 -0.638245 -0.727931
vt 0.123645 0.482409
v -208.371460 -802.416870 -6902.106445
vn -0.601940 -0.668542 -0.436716
vt -0.002957 0.482409
v -164.293518 -875.755371 -6840.008789
vn 0.127719 -0.666054 -0.734888
vt 0.123654 0.107930
v -185.339447 -876.019165 -6832.227051
vn -0.697082 -0.495384 -0.518335
vt -0.002938 0.107930
v -220.032883 -803.161682 -6853.375977
vn -0.878103 -0.473959 -0.065563
vt 0.873303 0.482409
v -215.621307 -802.231140 -6795.555664
vn -0.875613 -0.356993 0.325359
vt 0.749099 0.482409
v -208.371460 -802.416870 -6902.106445
vn -0.601940 -0.668542 -0.436716
vt 0.996700 0.482409
v -185.339447 -876.019165 -6832.227051
vn -0.697082 -0.495384 -0.518335
vt 0.996719 0.107930
v -193.714188 -877.905029 -6800.775391
vn -0.992507 -0.109028 -0.055169
vt 0.873313 0.107930
v -188.090637 -878.805420 -6766.093262
vn -0.856050 0.191046 0.480291
vt 0.749907 0.107930
v -191.081451 -795.994263 -6757.750488
vn -0.364725 -0.204357 0.908413
vt 0.623283 0.482409
v -167.142548 -876.113159 -6748.623047
vn -0.258469 0.369696 0.892479
vt 0.623275 0.107930
v -76.312431 -1124.019653 -6507.858398
vn 0.227639 0.956110 0.184483
vt 0.249904 0.999501
v -73.067360 -1114.843262 -6674.314941
vn 0.447187 0.893538 -0.040167
vt 0.373292 0.999501
v -107.884315 -1071.831787 -6664.499512
vn 0.843068 0.515075 -0.154703
vt 0.373292 0.928195
v -107.080826 -1078.105103 -6569.485840
vn 0.648149 0.695851 0.309344
vt 0.249098 0.928195
v -123.693504 -1118.523926 -6837.274414
vn 0.080239 0.975888 -0.202988
vt 0.496680 0.999501
v -145.558029 -1074.215088 -6748.106445
vn 0.444276 0.646879 -0.619811
vt 0.497486 0.928195
v -155.136215 -1019.746033 -6735.712891
vn 0.630350 -0.067349 -0.773384
vt 0.497483 0.781096
v -129.892731 -1019.150208 -6682.390625
vn 0.972226 0.125086 -0.197815
vt 0.373290 0.781096
v -132.152313 -1020.831848 -6621.890625
vn 0.743654 0.558179 0.367988
vt 0.249904 0.856889
v -150.295319 -1092.732178 -6522.606445
vn 0.041141 0.777601 0.627411
vt 0.123292 0.928195
v -122.401566 -1144.912598 -6446.245605
vn -0.163395 0.931899 0.323830
vt 0.123292 0.999501
v -168.157440 -1024.828491 -6592.153809
vn 0.117827 0.746620 0.654733
vt 0.123292 0.856889
v -212.533295 -1028.263428 -6600.357910
vn -0.534455 0.626426 0.567405
vt -0.003320 0.856889
v -209.174530 -1105.565552 -6535.267578
vn -0.556989 0.609212 0.564469
vt -0.003320 0.928195
v -218.366989 -1176.839844 -6443.275391
vn -0.375947 0.860195 0.344569
vt -0.003320 0.999501
v -221.746490 -1129.859375 -6803.794922
vn -0.327153 0.907038 -0.265054
vt 0.623292 0.999501
v -212.954834 -1085.557251 -6760.767578
vn -0.346903 0.547829 -0.761276
vt 0.623292 0.928195
v -312.169586 -1160.786865 -6749.071289
vn -0.435376 0.899184 -0.043771
vt 0.749904 0.999501
v -264.686554 -1098.693115 -6713.888672
vn -0.832878 0.496419 -0.244711
vt 0.749098 0.928195
v -239.776093 -1025.978882 -6714.180664
vn -0.880230 0.190969 -0.434426
vt 0.749098 0.781096
v -201.641968 -1022.581604 -6743.916992
vn -0.249258 -0.025630 -0.968098
vt 0.623290 0.781096
v -294.395325 -1167.497559 -6593.755371
vn -0.422032 0.890511 0.169938
vt 0.873292 0.999501
v -255.365662 -1106.457520 -6618.875000
vn -0.851531 0.455252 0.260077
vt 0.873292 0.928195
v -218.366989 -1176.839844 -6443.275391
vn -0.375947 0.860195 0.344569
vt 0.996680 0.999501
v -209.174530 -1105.565552 -6535.267578
vn -0.556989 0.609212 0.564469
vt 0.996680 0.928195
v -212.533295 -1028.263428 -6600.357910
vn -0.534455 0.626426 0.567405
vt 0.996680 0.856889
v -239.906494 -1028.259888 -6653.680176
vn -0.892226 0.400415 0.208806
vt 0.873295 0.781096
v -134.472183 -950.693787 -6733.244629
vn 0.995068 -0.022128 -0.096696
vt 0.373282 0.482409
v -139.752182 -951.147034 -6695.900391
vn 0.746433 0.480174 0.460729
vt 0.249903 0.482409
v -148.036041 -950.693787 -6768.342773
vn 0.626963 -0.439895 -0.642969
vt 0.497472 0.482409
v -143.959793 -875.581055 -6824.942383
vn 0.819920 -0.296580 -0.489664
vt 0.496642 0.107930
v -145.482361 -873.331421 -6753.998535
vn 0.691618 0.360246 0.626009
vt 0.249902 0.107930
v -166.637222 -952.506714 -6680.458008
vn 0.005852 0.722544 0.691301
vt 0.123645 0.482409
v -196.283432 -953.413147 -6689.163574
vn -0.545867 0.659540 0.516755
vt -0.002957 0.482409
v -167.142548 -876.113159 -6748.623047
vn -0.258469 0.369696 0.892479
vt 0.123654 0.107930
v -188.090637 -878.805420 -6766.093262
vn -0.856050 0.191046 0.480291
vt -0.002938 0.107930
v -209.847305 -952.506714 -6724.261719
vn -0.927227 0.364000 0.088061
vt 0.873303 0.482409
v -204.567490 -951.147034 -6761.605957
vn -0.834200 -0.116419 -0.539034
vt 0.749099 0.482409
v -196.283432 -953.413147 -6689.163574
vn -0.545867 0.659540 0.516755
vt 0.996700 0.482409
v -188.090637 -878.805420 -6766.093262
vn -0.856050 0.191046 0.480291
vt 0.996719 0.107930
v -185.339447 -876.019165 -6832.227051
vn -0.697082 -0.495384 -0.518335
vt 0.749907 0.107930
v -177.682449 -950.693787 -6777.048340
vn -0.083630 -0.512170 -0.854803
vt 0.623283 0.482409
v -164.293518 -875.755371 -6840.008789
vn 0.127719 -0.666054 -0.734888
vt 0.623275 0.107930
f 23/23/23 25/25/25 26/26/26
f 25/25/25 23/23/23 24/24/24
f 23/23/23 22/22/22 24/24/24
f 23/23/23 18/18/18 22/22/22
f 18/18/18 23/23/23 19/19/19
f 16/16/16 18/18/18 17/17/17
f 19/19/19 17/17/17 18/18/18
f 17/17/17 19/19/19 20/20/20
f 23/23/23 20/20/20 19/19/19
f 20/20/20 23/23/23 27/27/27
f 26/26/26 27/27/27 23/23/23
f 27/27/27 26/26/26 38/38/38
f 40/40/40 38/38/38 26/26/26
f 38/38/38 40/40/40 41/41/41
f 38/38/38 20/20/20 27/27/27
f 20/20/20 38/38/38 39/39/39
f 17/17/17 5/5/5 16/16/16
f 5/5/5 17/17/17 6/6/6
f 6/6/6 3/3/3 5/5/5
f 3/3/3 6/6/6 7/7/7
f 17/17/17 7/7/7 6/6/6
f 7/7/7 17/17/17 21/21/21
f 20/20/20 21/21/21 17/17/17
f 21/21/21 20/20/20 44/44/44
f 39/39/39 44/44/44 20/20/20
f 44/44/44 39/39/39 43/43/43
f 38/38/38 43/43/43 39/39/39
f 43/43/43 38/38/38 42/42/42
f 41/41/41 42/42/42 38/38/38
f 44/44/44 7/7/7 21/21/21
f 7/7/7 44/44/44 30/30/30
f 3/3/3 9/9/9 4/4/4
f 9/9/9 3/3/3 8/8/8
f 7/7/7 8/8/8 3/3/3
f 8/8/8 7/7/7 28/28/28
f 30/30/30 28/28/28 7/7/7
f 28/28/28 30/30/30 31/31/31
f 44/44/44 31/31/31 30/30/30
f 31/31/31 44/44/44 45/45/45
f 43/43/43 45/45/45 44/44/44
f 28/28/28 33/33/33 29/29/29
f 33/33/33 28/28/28 32/32/32
f 31/31/31 32/32/32 28/28/28
f 8/8/8 28/28/28 9/9/9
f 29/29/29 9/9/9 28/28/28
f 9/9/9 29/29/29 34/34/34
f 33/33/33 34/34/34 29/29/29
f 34/34/34 33/33/33 36/36/36
f 34/34/34 37/37/37 35/35/35
f 37/37/37 34/34/34 36/36/36
f 3/3/3 2/2/2 5/5/5
f 2/2/2 3/3/3 1/1/1
f 4/4/4 1/1/1 3/3/3
f 1/1/1 4/4/4 10/10/10
f 9/9/9 10/10/10 4/4/4
f 10/10/10 9/9/9 12/12/12
f 34/34/34 12/12/12 9/9/9
f 12/12/12 34/34/34 13/13/13
f 35/35/35 13/13/13 34/34/34
f 10/10/10 13/13/13 14/14/14
f 13/13/13 10/10/10 12/12/12
f 10/10/10 14/14/14 15/15/15
f 15/15/15 11/11/11 10/10/10
f 1/1/1 10/10/10 11/11/11
f 55/55/55 58/58/58 59/59/59
f 58/58/58 55/55/55 57/57/57
f 54/54/54 57/57/57 55/55/55
f 57/57/57 54/54/54 78/78/78
f 74/74/74 78/78/78 54/54/54
f 78/78/78 74/74/74 77/77/77
f 73/73/73 77/77/77 74/74/74
f 77/77/77 73/73/73 32/32/32
f 76/76/76 32/32/32 73/73/73
f 78/78/78 58/58/58 57/57/57
f 58/58/58 78/78/78 79/79/79
f 55/55/55 49/49/49 54/54/54
f 55/55/55 59/59/59 60/60/60
f 78/78/78 81/81/81 79/79/79
f 81/81/81 78/78/78 80/80/80
f 77/77/77 80/80/80 78/78/78
f 60/60/60 56/56/56 55/55/55
f 46/46/46 55/55/55 56/56/56
f 55/55/55 46/46/46 49/49/49
f 48/48/48 49/49/49 46/46/46
f 49/49/49 48/48/48 54/54/54
f 48/48/48 50/50/50 51/51/51
f 50/50/50 48/48/48 47/47/47
f 46/46/46 47/47/47 48/48/48
f 62/62/62 50/50/50 61/61/61
f 50/50/50 62/62/62 51/51/51
f 52/52/52 51/51/51 62/62/62
f 51/51/51 52/52/52 48/48/48
f 53/53/53 48/48/48 52/52/52
f 48/48/48 53/53/53 54/54/54
f 73/73/73 54/54/54 53/53/53
f 54/54/54 73/73/73 74/74/74
f 73/73/73 53/53/53 52/52/52
f 62/62/62 61/61/61 63/63/63
f 62/62/62 66/66/66 52/52/52
f 76/76/76 73/73/73 75/75/75
f 52/52/52 75/75/75 73/73/73
f 75/75/75 52/52/52 87/87/87
f 66/66/66 87/87/87 52/52/52
f 87/87/87 66/66/66 65/65/65
f 62/62/62 65/65/65 66/66/66
f 65/65/65 62/62/62 64/64/64
f 63/63/63 64/64/64 62/62/62
f 64/64/64 63/63/63 68/68/68
f 67/67/67 68/68/68 63/63/63
f 68/68/68 67/67/67 69/69/69
f 65/65/65 64/64/64 68/68/68
f 76/76/76 75/75/75 87/87/87
f 69/69/69 70/70/70 68/68/68
f 65/65/65 83/83/83 87/87/87
f 70/70/70 71/71/71 68/68/68
f 72/72/72 68/68/68 71/71/71
f 68/68/68 72/72/72 65/65/65
f 82/82/82 65/65/65 72/72/72
f 65/65/65 82/82/82 83/83/83
f 86/86/86 83/83/83 82/82/82
f 83/83/83 86/86/86 87/87/87
f 88/88/88 87/87/87 86/86/86
f 87/87/87 88/88/88 76/76/76
f 82/82/82 84/84/84 85/85/85
f 84/84/84 82/82/82 71/71/71
f 72/72/72 71/71/71 82/82/82
f 82/82/82 42/42/42 86/86/86
f 42/42/42 82/82/82 85/85/85
