mtllib TROLLHOLE02_STONEA08.mtl
g StoneA08
usemtl StoneA
v 1003.880493 -1181.945313 -7770.613770
vn 0.199896 0.977588 0.066051
vt 0.500000 0.505518
v 1019.861694 -1189.559814 -7778.328125
vn 0.293238 0.953010 -0.076051
vt 0.500000 0.323875
v 1013.433350 -1187.310791 -7786.346680
vn 0.418436 0.908174 -0.011432
vt 0.426524 0.339579
v 1008.714355 -1183.756958 -7793.324707
vn 0.282998 0.940283 -0.189155
vt 0.365753 0.383975
v 1000.306580 -1181.413208 -7795.970215
vn 0.007573 0.931411 -0.363891
vt 0.328194 0.449387
v 994.395508 -1179.933350 -7791.682129
vn -0.303724 0.910028 -0.282135
vt 0.320342 0.524505
v 989.779480 -1181.304688 -7785.164063
vn -0.459074 0.872475 -0.167445
vt 0.343555 0.596339
v 987.955933 -1183.197998 -7770.750488
vn -0.474629 0.867019 -0.151679
vt 0.393818 0.652470
v 989.065491 -1181.084839 -7760.344238
vn -0.484045 0.865988 -0.125558
vt 0.462441 0.683191
v 992.718933 -1178.492188 -7751.108887
vn -0.251774 0.962627 0.099792
vt 0.537559 0.683191
v 1001.338074 -1179.851318 -7746.440430
vn 0.342829 0.902211 0.261694
vt 0.606182 0.652470
v 1006.767517 -1185.467285 -7747.739258
vn 0.465618 0.860768 0.205616
vt 0.656445 0.596339
v 1015.014282 -1190.139893 -7749.357910
vn 0.283206 0.942295 0.178533
vt 0.679658 0.524505
v 1020.216064 -1191.171021 -7755.608887
vn 0.092603 0.938139 0.333646
vt 0.671806 0.449387
v 1022.700256 -1187.917236 -7760.861328
vn 0.104410 0.989642 0.098524
vt 0.634247 0.383975
v 1022.677063 -1189.022827 -7769.514648
vn 0.218534 0.968771 -0.117158
vt 0.573476 0.339579
v 1035.414185 -1197.248047 -7783.041016
vn 0.405643 0.874986 -0.264297
vt 0.500000 0.173641
v 1025.651611 -1196.999390 -7800.176758
vn 0.444119 0.801136 -0.401172
vt 0.365753 0.202333
v 1012.370239 -1194.038818 -7813.997559
vn 0.209025 0.673363 -0.709148
vt 0.254718 0.283449
v 997.864685 -1196.138794 -7814.919434
vn -0.248178 0.571411 -0.782238
vt 0.186095 0.402962
v 986.658813 -1192.243164 -7805.992188
vn -0.521380 0.614582 -0.591989
vt 0.171749 0.540209
v 981.894714 -1193.848267 -7791.726563
vn -0.681660 0.640457 -0.353771
vt 0.214160 0.671457
v 978.895935 -1195.377075 -7772.858398
vn -0.742223 0.638856 -0.202405
vt 0.305996 0.774012
v 977.731750 -1196.928467 -7755.084961
vn -0.796753 0.603684 0.027391
vt 0.431377 0.830143
v 986.664307 -1191.853516 -7739.541016
vn -0.720303 0.556839 0.413635
vt 0.568623 0.830143
v 997.905090 -1189.739746 -7725.236816
vn -0.125141 0.645364 0.753555
vt 0.694004 0.774012
v 1013.866150 -1194.997437 -7723.896973
vn 0.365925 0.694814 0.619138
vt 0.785840 0.671457
v 1027.765015 -1197.492065 -7730.685059
vn 0.370005 0.806737 0.460729
vt 0.828251 0.540209
v 1036.085449 -1194.531372 -7742.262207
vn 0.334548 0.843221 0.420780
vt 0.813905 0.402962
v 1037.887329 -1187.615356 -7754.662598
vn 0.352432 0.907705 0.227736
vt 0.745282 0.283449
v 1039.000366 -1192.976929 -7767.338379
vn 0.380439 0.903567 -0.197062
vt 0.634247 0.202333
v 1047.317627 -1213.898438 -7788.392090
vn 0.570061 0.767452 -0.293339
vt 0.500000 0.005500
v 1032.946289 -1213.898438 -7805.692383
vn 0.466373 0.673069 -0.573998
vt 0.297738 0.048729
v 1014.852356 -1213.898438 -7816.344727
vn 0.238291 0.330216 -0.913332
vt 0.130450 0.170940
v 996.164551 -1213.898438 -7818.507324
vn -0.244421 0.180712 -0.952681
vt 0.027059 0.351004
v 980.114014 -1213.898438 -7811.806641
vn -0.530078 0.301691 -0.792464
vt 0.005445 0.557784
v 969.476135 -1213.898438 -7797.400391
vn -0.702370 0.529225 -0.476023
vt 0.069344 0.755527
v 966.090271 -1213.898438 -7777.780273
vn -0.732160 0.648679 -0.207743
vt 0.207707 0.910041
v 970.541809 -1213.898438 -7756.338379
vn -0.826916 0.559422 0.057072
vt 0.396610 0.994609
v 982.061157 -1213.898438 -7736.782227
vn -0.722048 0.388396 0.572534
vt 0.603390 0.994609
v 998.656433 -1213.898438 -7722.493652
vn -0.425582 0.174095 0.888015
vt 0.792293 0.910041
v 1017.458130 -1213.898438 -7715.942871
vn 0.145999 0.308685 0.939892
vt 0.930656 0.755527
v 1035.215332 -1213.898438 -7718.262695
vn 0.383166 0.557381 0.736553
vt 0.994555 0.557784
v 1048.857666 -1213.898438 -7729.052246
vn 0.505339 0.657289 0.559110
vt 0.972941 0.351004
v 1056.026245 -1213.898438 -7746.445313
vn 0.647223 0.651805 0.395288
vt 0.869550 0.170940
v 1055.481445 -1213.898438 -7767.435059
vn 0.688064 0.725561 -0.011367
vt 0.702262 0.048729
f 21/21/21 37/37/37 22/22/22
f 38/38/38 22/22/22 37/37/37
f 22/22/22 38/38/38 23/23/23
f 39/39/39 23/23/23 38/38/38
f 23/23/23 39/39/39 24/24/24
f 40/40/40 24/24/24 39/39/39
f 24/24/24 40/40/40 25/25/25
f 41/41/41 25/25/25 40/40/40
f 25/25/25 41/41/41 26/26/26
f 42/42/42 26/26/26 41/41/41
f 26/26/26 42/42/42 27/27/27
f 43/43/43 27/27/27 42/42/42
f 27/27/27 43/43/43 28/28/28
f 44/44/44 28/28/28 43/43/43
f 28/28/28 44/44/44 29/29/29
f 45/45/45 29/29/29 44/44/44
f 29/29/29 45/45/45 30/30/30
f 46/46/46 30/30/30 45/45/45
f 5/5/5 21/21/21 6/6/6
f 22/22/22 6/6/6 21/21/21
f 6/6/6 22/22/22 7/7/7
f 23/23/23 7/7/7 22/22/22
f 7/7/7 23/23/23 8/8/8
f 24/24/24 8/8/8 23/23/23
f 8/8/8 24/24/24 9/9/9
f 25/25/25 9/9/9 24/24/24
f 9/9/9 25/25/25 10/10/10
f 26/26/26 10/10/10 25/25/25
f 10/10/10 26/26/26 11/11/11
f 27/27/27 11/11/11 26/26/26
f 11/11/11 27/27/27 12/12/12
f 28/28/28 12/12/12 27/27/27
f 12/12/12 28/28/28 13/13/13
f 29/29/29 13/13/13 28/28/28
f 13/13/13 29/29/29 14/14/14
f 30/30/30 14/14/14 29/29/29
f 1/1/1 11/11/11 12/12/12
f 11/11/11 1/1/1 10/10/10
f 9/9/9 1/1/1 8/8/8
f 1/1/1 9/9/9 10/10/10
f 12/12/12 13/13/13 1/1/1
f 14/14/14 1/1/1 13/13/13
f 1/1/1 14/14/14 15/15/15
f 5/5/5 6/6/6 1/1/1
f 7/7/7 1/1/1 6/6/6
f 1/1/1 7/7/7 8/8/8
f 16/16/16 1/1/1 15/15/15
f 1/1/1 16/16/16 2/2/2
f 14/14/14 30/30/30 15/15/15
f 31/31/31 15/15/15 30/30/30
f 15/15/15 31/31/31 16/16/16
f 17/17/17 16/16/16 31/31/31
f 16/16/16 17/17/17 2/2/2
f 18/18/18 2/2/2 17/17/17
f 2/2/2 18/18/18 3/3/3
f 19/19/19 3/3/3 18/18/18
f 3/3/3 19/19/19 4/4/4
f 20/20/20 4/4/4 19/19/19
f 21/21/21 36/36/36 37/37/37
f 36/36/36 21/21/21 20/20/20
f 5/5/5 20/20/20 21/21/21
f 20/20/20 5/5/5 4/4/4
f 1/1/1 4/4/4 5/5/5
f 4/4/4 1/1/1 3/3/3
f 2/2/2 3/3/3 1/1/1
f 30/30/30 46/46/46 31/31/31
f 32/32/32 31/31/31 46/46/46
f 31/31/31 32/32/32 17/17/17
f 33/33/33 17/17/17 32/32/32
f 17/17/17 33/33/33 18/18/18
f 34/34/34 18/18/18 33/33/33
f 18/18/18 34/34/34 19/19/19
f 35/35/35 19/19/19 34/34/34
f 19/19/19 35/35/35 20/20/20
f 36/36/36 20/20/20 35/35/35
