mtllib TROLLHOLE02_HOLECAP49.mtl
g HoleCap49
usemtl Stalagcap
v -201.120560 -634.247620 -7089.181152
vn 0.340159 -0.854424 -0.392749
vt 0.496959 0.638621
v -162.712967 -633.026855 -7008.555664
vn 0.594443 -0.783782 -0.179789
vt 0.608884 0.620013
v -141.574951 -643.117065 -6823.342773
vn 0.595112 -0.801464 -0.059140
vt 0.641847 0.507871
v -159.819443 -656.369202 -6647.593262
vn 0.294275 -0.950732 0.097523
vt 0.615743 0.390344
v -245.413895 -671.284790 -6686.318848
vn -0.051464 -0.962451 0.266534
vt 0.500884 0.349985
v -326.600952 -676.844788 -6756.909180
vn -0.128903 -0.989049 0.071874
vt 0.383995 0.391770
v -315.513519 -667.630981 -6933.767090
vn -0.153205 -0.978900 -0.135217
vt 0.351031 0.512231
v -264.039124 -640.125183 -7094.100586
vn -0.126605 -0.919720 -0.371600
vt 0.401034 0.615871
f 2/2/2 3/3/3 1/1/1
f 7/7/7 1/1/1 3/3/3
f 1/1/1 7/7/7 8/8/8
f 5/5/5 3/3/3 4/4/4
f 3/3/3 5/5/5 7/7/7
f 6/6/6 7/7/7 5/5/5
