mtllib TROLLHOLE02_BOX324.mtl
g Box324
usemtl Lvl_roast_m_largebolders
v -6841.759277 -1354.410767 -14375.209961
vn 0.311790 0.936099 -0.162804
vt 1.241522 -0.179870
v -6936.003906 -1354.410889 -14397.844727
vn -0.316158 0.893783 -0.318113
vt 1.257360 -0.519916
v -6965.272949 -1266.526123 -14235.276367
vn -0.286544 0.918086 0.273879
vt 0.670551 -0.480959
v -6873.826660 -1266.526001 -14199.812500
vn 0.262640 0.952010 0.157154
vt 0.607799 -0.140913
v -6711.437012 -1359.227661 -14214.743164
vn 0.761541 0.623116 0.178275
vt 0.773348 0.422762
v -6762.687012 -1352.464722 -14142.992188
vn 0.168374 0.356858 0.918859
vt 0.486320 0.297530
v -6717.516602 -1440.526611 -14534.780273
vn 0.423456 0.257952 -0.868416
vt 1.885968 0.129679
v -6740.636719 -1360.234131 -14507.229492
vn 0.237102 0.864797 -0.442616
vt 1.773102 0.068118
v -6637.250488 -1431.220337 -14478.590820
vn 0.728352 0.588208 -0.351446
vt 1.745834 0.461636
v -6879.683105 -1352.952271 -14146.442383
vn -0.274119 0.244177 0.930181
vt 0.420266 -0.102159
v -7058.887207 -1355.666260 -14246.981445
vn -0.761818 0.444531 0.471196
vt 0.652029 -0.792513
v -6974.750000 -1427.659058 -14542.286133
vn -0.368393 0.532680 -0.761931
vt 1.740916 -0.746681
v -6846.729980 -1360.234131 -14497.563477
vn -0.131610 0.849086 -0.511598
vt 1.670822 -0.271929
v -6831.494141 -1441.014282 -14569.653320
vn 0.046003 0.464381 -0.884440
vt 1.934449 -0.271877
v -6674.059570 -1436.254761 -14364.929688
vn 0.847116 0.510784 0.146608
vt 1.321857 0.419242
v -6841.759277 -1354.410767 -14375.209961
vn 0.311790 0.936099 -0.162804
vt 1.241522 -0.179870
v -6841.759277 -1354.410767 -14375.209961
vn 0.311790 0.936099 -0.162804
vt 1.241522 -0.179870
v -6873.826660 -1266.526001 -14199.812500
vn 0.262640 0.952010 0.157154
vt 0.607799 -0.140913
v -6711.437012 -1359.227661 -14214.743164
vn 0.761541 0.623116 0.178275
vt 0.773348 0.422762
v -7029.838867 -1432.693359 -14383.842773
vn -0.630801 0.694066 -0.346933
vt 1.148144 -0.814644
v -6936.003906 -1354.410889 -14397.844727
vn -0.316158 0.893783 -0.318113
vt 1.257360 -0.519916
v -6750.519531 -1423.325562 -14142.401367
vn 0.385192 0.081664 0.919216
vt 0.492482 0.339799
v -6692.543945 -1427.865601 -14208.706055
vn 0.891192 0.224211 0.394342
vt 0.767305 0.504204
v -6586.195801 -1766.189697 -14463.958984
vn 0.911128 0.149887 -0.383901
vt 1.765197 0.831825
v -6553.767578 -1759.961914 -14310.268555
vn 0.960533 0.195920 0.197464
vt 1.236090 0.999001
v -6553.696777 -1946.643799 -14324.911133
vn 0.952321 0.044437 0.301844
vt 1.286441 0.982787
v -6532.914551 -1948.864380 -14430.488281
vn 0.914089 0.154474 -0.374940
vt 1.669107 0.965474
v -6592.248535 -1542.783569 -14460.180664
vn 0.946374 0.192149 -0.259722
vt 1.720074 0.672777
v -6662.690430 -1533.322144 -14349.030273
vn 0.944148 0.206820 0.256535
vt 1.276151 0.482426
v -6657.312500 -1581.859497 -14341.079102
vn 0.889626 0.338468 0.306603
vt 1.253296 0.514021
v -6575.928223 -1598.556763 -14450.977539
vn 0.937030 0.221580 -0.269957
vt 1.707195 0.778332
v -6627.500488 -1772.240356 -14536.257813
vn 0.519682 0.135669 -0.843519
vt 1.996878 0.665698
v -6613.666504 -1953.435547 -14511.902344
vn 0.329310 -0.119298 -0.936655
vt 1.894848 0.599831
v -6681.047852 -1605.917236 -14505.643555
vn 0.465579 0.060212 -0.882956
vt 1.828779 0.380439
v -6684.515137 -1550.792603 -14515.355469
vn 0.418182 -0.135800 -0.898155
vt 1.847840 0.296861
v -6739.719727 -1757.004517 -14089.129883
vn 0.268535 0.152549 0.951114
vt 0.315653 0.431112
v -6638.693359 -1753.734131 -14178.620117
vn 0.766536 0.003409 0.642192
vt 0.709838 0.771189
v -6658.068359 -1565.162109 -14196.631836
vn 0.868414 0.237567 0.435222
vt 0.755217 0.667112
v -6728.107422 -1565.068726 -14141.220703
vn 0.258744 0.187161 0.947640
vt 0.504806 0.424351
v -6799.483887 -1777.636963 -14560.155273
vn -0.009736 -0.012804 -0.999871
vt 1.983006 0.151263
v -6749.318848 -1959.476440 -14522.737305
vn -0.001968 -0.142678 -0.989767
vt 1.838540 0.112475
v -6821.662109 -1608.802979 -14535.880859
vn 0.084961 -0.076317 -0.993457
vt 1.843024 -0.108935
v -6807.462402 -1552.879028 -14560.129883
vn 0.070505 -0.318803 -0.945195
vt 1.921007 -0.163244
v -7008.176270 -1769.231079 -14534.471680
vn -0.069524 -0.021754 -0.997343
vt 1.720504 -0.705208
v -7010.180176 -1957.415283 -14532.150391
vn 0.035959 -0.012711 -0.999272
vt 1.686219 -0.836256
v -6993.788574 -1595.036743 -14503.632813
vn -0.188751 -0.055996 -0.980427
vt 1.604343 -0.722424
v -6982.987305 -1539.249756 -14516.515625
vn -0.273238 -0.243984 -0.930491
vt 1.649863 -0.730509
v -6878.605957 -1762.401123 -14113.018555
vn -0.390394 0.221240 0.893670
vt 0.301056 -0.086846
v -7050.072754 -1756.775513 -14250.591797
vn -0.552698 0.166852 0.816508
vt 0.672042 -0.757904
v -7062.634277 -1952.974121 -14204.563477
vn -0.583666 0.183678 0.790946
vt 0.502777 -0.762732
v -6893.609375 -1954.043945 -14088.363281
vn -0.291016 0.131545 0.947632
vt 0.207755 -0.102800
v -6866.005371 -1496.294189 -14157.537109
vn -0.308982 -0.074822 0.948120
vt 0.466781 -0.071953
v -7062.594727 -1492.990356 -14257.139648
vn -0.452022 -0.053663 0.890391
vt 0.683819 -0.819725
v -7064.447754 -1561.642090 -14262.218750
vn -0.441015 -0.047718 0.896230
vt 0.699712 -0.833329
v -6859.119141 -1567.954346 -14163.083008
vn -0.330010 0.055445 0.942348
vt 0.490035 -0.056852
v -6754.844727 -1948.003174 -14072.035156
vn 0.483932 0.000066 0.875106
vt 0.245456 0.392074
v -6738.967285 -1494.197144 -14141.811523
vn 0.320721 0.066552 0.944833
vt 0.498644 0.382075
v -6665.162109 -1944.423218 -14180.374023
vn 0.776618 -0.113499 0.619663
vt 0.693157 0.653854
v -7058.887207 -1355.666260 -14246.981445
vn -0.761818 0.444531 0.471196
vt 0.652029 -0.792513
v -6965.272949 -1266.526123 -14235.276367
vn -0.286544 0.918086 0.273879
vt 0.670551 -0.480959
v -6936.003906 -1354.410889 -14397.844727
vn -0.316158 0.893783 -0.318113
vt 1.257360 -0.519916
v -7029.838867 -1432.693359 -14383.842773
vn -0.630801 0.694066 -0.346933
vt 1.148144 -0.814644
v -6668.177734 -1484.784790 -14356.980469
vn 0.959545 0.174184 0.221207
vt 1.299006 0.450832
v -6675.241211 -1496.513916 -14202.668945
vn 0.883111 0.212198 0.418434
vt 0.761261 0.585658
v -6872.864258 -1424.623291 -14151.990234
vn -0.274265 -0.076453 0.958610
vt 0.443524 -0.087056
v -6613.192383 -1487.001953 -14469.385742
vn 0.956432 0.238948 -0.167753
vt 1.732954 0.567207
v -6695.534180 -1495.659668 -14525.068359
vn 0.497952 -0.047953 -0.865878
vt 1.866904 0.213270
v -6805.669434 -1496.946655 -14584.381836
vn 0.022204 -0.088086 -0.995865
vt 1.999001 -0.217560
v -6976.369141 -1483.454346 -14529.401367
vn -0.314588 -0.191489 -0.929713
vt 1.695389 -0.738595
v -7060.740723 -1424.328247 -14252.060547
vn -0.463141 -0.072957 0.883277
vt 0.667924 -0.806119
f 17/17/17 18/18/18 19/19/19
f 15/15/15 16/16/16 5/5/5
f 16/16/16 15/15/15 9/9/9
f 66/66/66 9/9/9 15/15/15
f 9/9/9 66/66/66 67/67/67
f 35/35/35 67/67/67 66/66/66
f 67/67/67 35/35/35 43/43/43
f 42/42/42 43/43/43 35/35/35
f 43/43/43 42/42/42 46/46/46
f 40/40/40 46/46/46 42/42/42
f 46/46/46 40/40/40 44/44/44
f 41/41/41 44/44/44 40/40/40
f 44/44/44 41/41/41 45/45/45
f 67/67/67 7/7/7 9/9/9
f 8/8/8 9/9/9 7/7/7
f 9/9/9 8/8/8 16/16/16
f 21/21/21 16/16/16 8/8/8
f 68/68/68 67/67/67 43/43/43
f 67/67/67 68/68/68 7/7/7
f 14/14/14 7/7/7 68/68/68
f 7/7/7 14/14/14 8/8/8
f 13/13/13 8/8/8 14/14/14
f 8/8/8 13/13/13 21/21/21
f 12/12/12 21/21/21 13/13/13
f 21/21/21 12/12/12 20/20/20
f 14/14/14 12/12/12 13/13/13
f 12/12/12 14/14/14 68/68/68
f 68/68/68 69/69/69 12/12/12
f 69/69/69 68/68/68 47/47/47
f 43/43/43 47/47/47 68/68/68
f 47/47/47 43/43/43 46/46/46
f 40/40/40 33/33/33 41/41/41
f 33/33/33 40/40/40 32/32/32
f 42/42/42 32/32/32 40/40/40
f 32/32/32 42/42/42 34/34/34
f 35/35/35 34/34/34 42/42/42
f 34/34/34 35/35/35 28/28/28
f 66/66/66 28/28/28 35/35/35
f 28/28/28 66/66/66 29/29/29
f 63/63/63 29/29/29 66/66/66
f 29/29/29 63/63/63 64/64/64
f 23/23/23 64/64/64 63/63/63
f 64/64/64 23/23/23 57/57/57
f 22/22/22 57/57/57 23/23/23
f 57/57/57 22/22/22 52/52/52
f 65/65/65 52/52/52 22/22/22
f 52/52/52 65/65/65 70/70/70
f 11/11/11 70/70/70 65/65/65
f 70/70/70 53/53/53 52/52/52
f 3/3/3 11/11/11 10/10/10
f 65/65/65 10/10/10 11/11/11
f 10/10/10 65/65/65 6/6/6
f 22/22/22 6/6/6 65/65/65
f 6/6/6 22/22/22 5/5/5
f 23/23/23 5/5/5 22/22/22
f 5/5/5 23/23/23 15/15/15
f 63/63/63 15/15/15 23/23/23
f 15/15/15 63/63/63 66/66/66
f 6/6/6 3/3/3 10/10/10
f 3/3/3 6/6/6 4/4/4
f 5/5/5 4/4/4 6/6/6
f 3/3/3 1/1/1 2/2/2
f 1/1/1 3/3/3 4/4/4
f 53/53/53 54/54/54 52/52/52
f 55/55/55 52/52/52 54/54/54
f 52/52/52 55/55/55 57/57/57
f 39/39/39 57/57/57 55/55/55
f 57/57/57 39/39/39 64/64/64
f 38/38/38 64/64/64 39/39/39
f 64/64/64 38/38/38 29/29/29
f 30/30/30 29/29/29 38/38/38
f 29/29/29 30/30/30 28/28/28
f 31/31/31 28/28/28 30/30/30
f 28/28/28 31/31/31 34/34/34
f 24/24/24 34/34/34 31/31/31
f 34/34/34 24/24/24 32/32/32
f 27/27/27 32/32/32 24/24/24
f 32/32/32 27/27/27 33/33/33
f 25/25/25 31/31/31 30/30/30
f 31/31/31 25/25/25 24/24/24
f 26/26/26 24/24/24 25/25/25
f 24/24/24 26/26/26 27/27/27
f 58/58/58 26/26/26 37/37/37
f 25/25/25 37/37/37 26/26/26
f 37/37/37 25/25/25 38/38/38
f 30/30/30 38/38/38 25/25/25
f 36/36/36 38/38/38 39/39/39
f 38/38/38 36/36/36 37/37/37
f 56/56/56 37/37/37 36/36/36
f 37/37/37 56/56/56 58/58/58
f 48/48/48 39/39/39 55/55/55
f 39/39/39 48/48/48 36/36/36
f 51/51/51 36/36/36 48/48/48
f 36/36/36 51/51/51 56/56/56
f 49/49/49 55/55/55 54/54/54
f 55/55/55 49/49/49 48/48/48
f 50/50/50 48/48/48 49/49/49
f 48/48/48 50/50/50 51/51/51
f 61/61/61 59/59/59 60/60/60
f 59/59/59 61/61/61 62/62/62
