mtllib TROLLHOLE02_HOLECAP105.mtl
g HoleCap105
usemtl Stalagcap
v -3995.230225 -698.768005 -11319.282227
vn -0.200519 -0.969318 0.142181
vt 0.496959 0.638621
v -4105.927246 -669.403076 -11320.754883
vn -0.273842 -0.956966 0.096055
vt 0.608884 0.620013
v -4156.244141 -659.570923 -11388.079102
vn -0.303811 -0.950976 0.057826
vt 0.641847 0.507871
v -4174.882813 -658.306641 -11503.795898
vn -0.371361 -0.927726 -0.037613
vt 0.615743 0.390344
v -4081.537109 -683.976257 -11590.561523
vn -0.286292 -0.950215 -0.122996
vt 0.500884 0.349985
v -3987.489258 -704.110291 -11600.412109
vn -0.135135 -0.977570 -0.161540
vt 0.383995 0.391770
v -3938.972412 -719.986877 -11515.437500
vn 0.105335 -0.982829 -0.151498
vt 0.351031 0.512231
v -3898.525146 -724.440002 -11402.000000
vn -0.022939 -0.997597 0.065380
vt 0.401034 0.615871
f 2/2/2 3/3/3 1/1/1
f 7/7/7 1/1/1 3/3/3
f 1/1/1 7/7/7 8/8/8
f 5/5/5 3/3/3 4/4/4
f 3/3/3 5/5/5 7/7/7
f 6/6/6 7/7/7 5/5/5
