mtllib TROLLHOLE02_HOLECAP160.mtl
g HoleCap160
usemtl Stalagcap
v -10487.434570 777.660522 -5199.395020
vn 0.147522 0.908042 -0.392042
vt 0.496959 0.638621
v -10632.291992 772.153076 -5225.958984
vn -0.205021 0.823431 -0.529082
vt 0.608884 0.620013
v -10694.713867 777.925293 -5140.512207
vn -0.493356 0.856667 -0.150738
vt 0.641847 0.507871
v -10676.108398 776.991638 -5057.361328
vn -0.332972 0.905067 0.264544
vt 0.615743 0.390344
v -10545.042969 775.873718 -4987.563965
vn -0.099114 0.940137 0.326067
vt 0.500884 0.349985
v -10385.407227 769.954529 -4961.062988
vn 0.024234 0.996763 0.076653
vt 0.383995 0.391770
v -10362.719727 775.556824 -5041.084961
vn 0.026636 0.999564 0.012772
vt 0.351031 0.512231
v -10341.267578 770.786926 -5111.951172
vn 0.073633 0.996280 -0.044768
vt 0.401034 0.615871
f 2/2/2 3/3/3 1/1/1
f 7/7/7 1/1/1 3/3/3
f 1/1/1 7/7/7 8/8/8
f 5/5/5 3/3/3 4/4/4
f 3/3/3 5/5/5 7/7/7
f 6/6/6 7/7/7 5/5/5
