mtllib TROLLHOLE02_HOLECAP207.mtl
g HoleCap207
usemtl Stalagcap
v -6556.139648 1262.084839 -9611.462891
vn 0.382542 -0.891122 -0.244056
vt 0.496959 0.638621
v -6569.138184 1253.773071 -9582.554688
vn 0.118915 -0.992336 0.033593
vt 0.608884 0.620013
v -6607.594238 1255.840210 -9590.174805
vn -0.190374 -0.935396 0.297979
vt 0.641847 0.507871
v -6640.199219 1263.960938 -9597.233398
vn -0.287544 -0.956434 0.050523
vt 0.615743 0.390344
v -6647.985840 1269.306030 -9628.664063
vn -0.108592 -0.965447 -0.236897
vt 0.500884 0.349985
v -6631.127441 1277.619507 -9657.424805
vn -0.177441 -0.799809 -0.573428
vt 0.383995 0.391770
v -6591.884277 1274.769287 -9656.177734
vn 0.081866 -0.745876 -0.661035
vt 0.351031 0.512231
v -6566.119629 1270.955566 -9642.894531
vn 0.321617 -0.807323 -0.494765
vt 0.401034 0.615871
f 2/2/2 3/3/3 1/1/1
f 7/7/7 1/1/1 3/3/3
f 1/1/1 7/7/7 8/8/8
f 5/5/5 3/3/3 4/4/4
f 3/3/3 5/5/5 7/7/7
f 6/6/6 7/7/7 5/5/5
