mtllib TROLLHOLE02_PS-MAINSTALAG68.mtl
g Ps-MainStalag68
usemtl Stalag
v 2058.996094 -706.421082 -7009.763672
vn 0.743724 -0.223319 -0.630082
vt 0.249902 0.107930
v 2061.999756 -705.955994 -6995.222656
vn 0.939765 -0.222091 0.259842
vt 0.363102 0.192597
v 2050.521240 -746.865112 -6996.690430
vn 0.781900 -0.585886 0.213000
vt 0.332583 0.072120
v 2046.749512 -748.894592 -7004.150879
vn 0.528177 -0.697307 -0.484554
vt 0.249907 0.063167
v 2050.440430 -706.474670 -6982.541016
vn 0.442909 -0.188299 0.876570
vt 0.500183 0.107930
v 2042.532104 -748.939636 -6990.731934
vn 0.326139 -0.661565 0.675252
vt 0.373923 0.054215
v 2034.841553 -753.032349 -6998.693359
vn -0.004081 -0.999955 -0.008604
vt 0.251204 0.000500
v 2038.210938 -746.684753 -7009.426758
vn 0.117485 -0.478812 -0.870021
vt 0.165941 0.072120
v 2040.675903 -705.741760 -7017.285645
vn 0.134247 -0.159498 -0.978028
vt 0.123310 0.107930
v 2027.144775 -748.714172 -7006.652832
vn -0.328628 -0.654497 -0.680909
vt 0.123961 0.054215
v 2019.223145 -706.164551 -7014.838867
vn -0.442766 -0.188132 -0.876678
vt -0.003281 0.107930
v 2028.987549 -705.955933 -6980.093262
vn -0.135419 -0.159650 0.977841
vt 0.625045 0.107930
v 2031.463501 -746.865112 -6987.956055
vn -0.122271 -0.483142 0.866962
vt 0.662198 0.072120
v 2042.532104 -748.939636 -6990.731934
vn 0.326139 -0.661565 0.675252
vt 0.618344 0.054215
v 2010.667725 -706.421021 -6987.615234
vn -0.745433 -0.223706 0.627921
vt 0.748066 0.190359
v 2022.927734 -748.894531 -6993.233398
vn -0.535245 -0.699506 0.473502
vt 0.743206 0.054215
v 2034.841553 -753.032349 -6998.693359
vn -0.004081 -0.999955 -0.008604
vt 0.736504 0.000500
v 2007.663086 -705.741760 -7002.156250
vn -0.939210 -0.222126 -0.261810
vt 0.861910 0.192597
v 2019.153198 -746.684753 -7000.692871
vn -0.782263 -0.582176 -0.221664
vt 0.827710 0.072120
v 2019.223145 -706.164551 -7014.838867
vn -0.442766 -0.188132 -0.876678
vt 0.996719 0.107930
v 2027.144775 -748.714172 -7006.652832
vn -0.328628 -0.654497 -0.680909
vt 0.866612 0.054215
v 2159.633789 -423.335724 -7048.802246
vn 0.144937 -0.988796 -0.035732
vt 0.249904 0.999501
v 2173.732178 -415.164734 -6951.755371
vn 0.245127 -0.965742 0.085178
vt 0.373292 0.999501
v 2131.174316 -438.280334 -6986.390625
vn 0.637963 -0.749535 0.176636
vt 0.373292 0.928195
v 2122.630371 -438.280334 -7038.926270
vn 0.508530 -0.730174 -0.456337
vt 0.249098 0.928195
v 2117.612793 -415.036316 -6862.564453
vn 0.142043 -0.983552 0.111573
vt 0.496680 0.999501
v 2091.542480 -438.280273 -6940.002441
vn 0.302257 -0.755449 0.581324
vt 0.497486 0.928195
v 2075.882568 -490.067596 -6956.205078
vn 0.438860 -0.280915 0.853516
vt 0.497483 0.781096
v 2104.572021 -490.067688 -6989.786133
vn 0.905732 -0.337281 0.256691
vt 0.373290 0.781096
v 2098.387695 -490.059174 -7027.815918
vn 0.727617 -0.329205 -0.601829
vt 0.249904 0.856889
v 2055.549316 -438.280334 -7064.634766
vn 0.119294 -0.674924 -0.728180
vt 0.123292 0.928195
v 2080.314209 -424.839020 -7087.111816
vn 0.049498 -0.994345 -0.093957
vt 0.123292 0.999501
v 2049.827637 -490.033813 -7046.425781
vn 0.130868 -0.248017 -0.959876
vt 0.123292 0.856889
v 1993.766602 -490.016876 -7041.166016
vn -0.438802 -0.281126 -0.853476
vt -0.003320 0.856889
v 1978.105591 -438.280334 -7057.368164
vn -0.288935 -0.764586 -0.576129
vt -0.003320 0.928195
v 1954.672363 -429.533020 -7083.437012
vn 0.024998 -0.996811 -0.075784
vt -0.003320 0.999501
v 2005.125366 -425.678406 -6899.053223
vn 0.046655 -0.995432 0.083295
vt 0.623292 0.999501
v 2014.098633 -438.280365 -6932.735840
vn -0.083062 -0.733172 0.674951
vt 0.623292 0.928195
v 1900.148682 -430.507904 -6923.678223
vn 0.080808 -0.996400 0.025625
vt 0.749904 0.999501
v 1947.017822 -438.280243 -6958.444336
vn -0.426972 -0.830744 0.357154
vt 0.749098 0.928195
v 1971.261841 -490.059265 -6969.555664
vn -0.727790 -0.329286 0.601575
vt 0.749098 0.781096
v 2019.821899 -490.067596 -6950.945801
vn -0.130991 -0.247884 0.959893
vt 0.623290 0.781096
v 1890.043091 -434.050140 -7009.262695
vn 0.126928 -0.991113 0.039790
vt 0.873292 0.999501
v 1938.474121 -438.280334 -7010.979980
vn -0.539005 -0.825867 -0.165583
vt 0.873292 0.928195
v 1954.672363 -429.533020 -7083.437012
vn 0.024998 -0.996811 -0.075784
vt 0.996680 0.999501
v 1978.105591 -438.280334 -7057.368164
vn -0.288935 -0.764586 -0.576129
vt 0.996680 0.928195
v 1993.766602 -490.016876 -7041.166016
vn -0.438802 -0.281126 -0.853476
vt 0.996680 0.856889
v 1965.077759 -490.033813 -7007.585938
vn -0.905595 -0.337511 -0.256873
vt 0.873295 0.781096
v 2080.765381 -599.824890 -6992.825684
vn 0.944768 -0.193955 0.264187
vt 0.373282 0.482409
v 2076.692139 -599.791016 -7017.873535
vn 0.759877 -0.189937 -0.621700
vt 0.249903 0.482409
v 2061.869629 -599.824890 -6970.708496
vn 0.453725 -0.159805 0.876696
vt 0.497472 0.482409
v 2044.709229 -599.689575 -7030.130859
vn 0.134313 -0.138909 -0.981155
vt 0.123645 0.482409
v 2007.785156 -599.621887 -7026.666016
vn -0.453644 -0.159985 -0.876705
vt -0.002957 0.482409
v 1988.889526 -599.689575 -7004.549316
vn -0.944533 -0.194096 -0.264922
vt 0.873303 0.482409
v 1992.962891 -599.791016 -6979.501465
vn -0.760357 -0.190045 0.621080
vt 0.749099 0.482409
v 2007.785156 -599.621887 -7026.666016
vn -0.453644 -0.159985 -0.876705
vt 0.996700 0.482409
v 2024.946045 -599.824768 -6967.244141
vn -0.134756 -0.138875 0.981099
vt 0.623283 0.482409
f 39/39/39 43/43/43 44/44/44
f 45/45/45 44/44/44 43/43/43
f 26/26/26 37/37/37 38/38/38
f 39/39/39 38/38/38 37/37/37
f 38/38/38 39/39/39 40/40/40
f 44/44/44 40/40/40 39/39/39
f 40/40/40 44/44/44 41/41/41
f 48/48/48 41/41/41 44/44/44
f 38/38/38 41/41/41 42/42/42
f 41/41/41 38/38/38 40/40/40
f 41/41/41 57/57/57 42/42/42
f 28/28/28 42/42/42 57/57/57
f 42/42/42 28/28/28 38/38/38
f 27/27/27 38/38/38 28/28/28
f 38/38/38 27/27/27 26/26/26
f 24/24/24 26/26/26 27/27/27
f 26/26/26 24/24/24 23/23/23
f 22/22/22 23/23/23 24/24/24
f 24/24/24 27/27/27 28/28/28
f 57/57/57 51/51/51 28/28/28
f 24/24/24 25/25/25 22/22/22
f 32/32/32 22/22/22 31/31/31
f 25/25/25 31/31/31 22/22/22
f 31/31/31 25/25/25 30/30/30
f 24/24/24 30/30/30 25/25/25
f 30/30/30 24/24/24 29/29/29
f 28/28/28 29/29/29 24/24/24
f 29/29/29 28/28/28 49/49/49
f 51/51/51 49/49/49 28/28/28
f 49/49/49 51/51/51 5/5/5
f 57/57/57 5/5/5 51/51/51
f 5/5/5 57/57/57 12/12/12
f 30/30/30 29/29/29 49/49/49
f 30/30/30 33/33/33 31/31/31
f 36/36/36 32/32/32 31/31/31
f 5/5/5 2/2/2 49/49/49
f 3/3/3 5/5/5 6/6/6
f 5/5/5 3/3/3 2/2/2
f 1/1/1 2/2/2 3/3/3
f 2/2/2 1/1/1 49/49/49
f 50/50/50 49/49/49 1/1/1
f 49/49/49 50/50/50 30/30/30
f 52/52/52 30/30/30 50/50/50
f 30/30/30 52/52/52 33/33/33
f 34/34/34 33/33/33 52/52/52
f 33/33/33 34/34/34 31/31/31
f 35/35/35 31/31/31 34/34/34
f 31/31/31 35/35/35 36/36/36
f 52/52/52 1/1/1 9/9/9
f 1/1/1 52/52/52 50/50/50
f 52/52/52 53/53/53 34/34/34
f 53/53/53 52/52/52 11/11/11
f 9/9/9 11/11/11 52/52/52
f 11/11/11 9/9/9 8/8/8
f 1/1/1 8/8/8 9/9/9
f 8/8/8 1/1/1 4/4/4
f 3/3/3 4/4/4 1/1/1
f 4/4/4 3/3/3 7/7/7
f 6/6/6 7/7/7 3/3/3
f 8/8/8 10/10/10 11/11/11
f 10/10/10 8/8/8 7/7/7
f 4/4/4 7/7/7 8/8/8
f 45/45/45 46/46/46 44/44/44
f 47/47/47 44/44/44 46/46/46
f 44/44/44 47/47/47 48/48/48
f 54/54/54 48/48/48 47/47/47
f 48/48/48 54/54/54 41/41/41
f 55/55/55 41/41/41 54/54/54
f 41/41/41 55/55/55 57/57/57
f 15/15/15 57/57/57 55/55/55
f 57/57/57 15/15/15 12/12/12
f 13/13/13 12/12/12 15/15/15
f 12/12/12 13/13/13 5/5/5
f 14/14/14 5/5/5 13/13/13
f 54/54/54 15/15/15 55/55/55
f 15/15/15 54/54/54 18/18/18
f 47/47/47 56/56/56 54/54/54
f 20/20/20 54/54/54 56/56/56
f 54/54/54 20/20/20 18/18/18
f 19/19/19 18/18/18 20/20/20
f 18/18/18 19/19/19 15/15/15
f 16/16/16 15/15/15 19/19/19
f 15/15/15 16/16/16 13/13/13
f 17/17/17 13/13/13 16/16/16
f 13/13/13 17/17/17 14/14/14
f 20/20/20 21/21/21 19/19/19
f 17/17/17 19/19/19 21/21/21
f 19/19/19 17/17/17 16/16/16
