mtllib TROLLHOLE02_PS-SECRETSTALAG.mtl
g Ps-SecretStalag
usemtl Stalag
v -11151.215820 845.013916 -4282.670898
vn -0.549420 -0.744962 0.378376
vt 0.743599 0.999501
v -11169.094727 857.307251 -4385.592285
vn -0.391810 -0.890417 -0.231606
vt 0.869969 0.999501
v -11133.401367 822.179565 -4393.875000
vn -0.874121 -0.450260 -0.182150
vt 0.869888 0.926612
v -11120.323242 811.867432 -4306.968750
vn -0.656843 -0.670373 0.345190
vt 0.744007 0.926612
v -11132.097656 897.466492 -4497.809570
vn -0.228970 -0.729812 -0.644164
vt 0.996339 0.999501
v -11103.280273 841.723328 -4466.529297
vn -0.438347 -0.389081 -0.810227
vt 0.996170 0.926612
v -11101.981445 788.615601 -4457.264648
vn -0.565475 0.092090 -0.819608
vt 0.996002 0.853724
v -11123.844727 777.960876 -4407.206055
vn -0.995095 0.000385 -0.098925
vt 0.869806 0.853724
v -11111.814453 775.000610 -4345.599121
vn -0.779295 -0.432669 0.453318
vt 0.743617 0.777169
v -11066.024414 778.198730 -4310.810547
vn -0.134031 -0.738038 0.661313
vt 0.618250 0.777169
v -11061.189453 817.032471 -4261.114258
vn -0.094065 -0.807618 0.582156
vt 0.618930 0.926612
v -11015.250977 788.972656 -4312.670898
vn 0.529997 -0.720185 0.447702
vt 0.493688 0.777169
v -10994.961914 834.003052 -4267.388672
vn 0.501858 -0.812728 0.295992
vt 0.494332 0.926612
v -10936.668945 871.866333 -4205.073730
vn 0.335239 -0.927642 0.164608
vt 0.493599 0.999501
v -11049.756836 851.734253 -4212.669434
vn -0.054452 -0.906286 0.419144
vt 0.618599 0.999501
v -11132.097656 897.466492 -4497.809570
vn -0.228970 -0.729812 -0.644164
vt 0.001543 0.999501
v -11024.836914 906.287781 -4493.651855
vn 0.285409 -0.700772 -0.653805
vt 0.122571 0.999501
v -11032.806641 864.253357 -4469.630371
vn 0.339261 -0.402530 -0.850219
vt 0.123472 0.926612
v -11103.280273 841.723328 -4466.529297
vn -0.438347 -0.389081 -0.810227
vt 0.001428 0.926612
v -10930.736328 918.790405 -4429.811523
vn 0.567332 -0.698851 -0.435595
vt 0.243599 0.999501
v -10969.431641 874.978027 -4420.601074
vn 0.727794 -0.523094 -0.443496
vt 0.246097 0.926612
v -10995.185547 820.813416 -4420.895020
vn 0.795573 -0.301517 -0.525501
vt 0.246990 0.777169
v -11046.092773 808.502319 -4457.404297
vn 0.318202 -0.079833 -0.944656
vt 0.124174 0.777169
v -11101.981445 788.615601 -4457.264648
vn -0.565475 0.092090 -0.819608
vt 0.001312 0.853724
v -10933.420898 888.824829 -4322.524414
vn 0.475015 -0.864460 -0.164530
vt 0.368599 0.999501
v -10960.595703 859.106445 -4336.869629
vn 0.794495 -0.605186 -0.050272
vt 0.369886 0.926612
v -10988.272461 808.740356 -4361.008789
vn 0.863803 -0.503718 0.010602
vt 0.370048 0.777169
v -11124.117188 709.514038 -4405.605957
vn -0.798468 -0.306907 0.517936
vt 0.742315 0.474617
v -11090.878906 710.547852 -4383.311523
vn -0.184717 -0.599234 0.778973
vt 0.615547 0.474617
v -11124.467773 633.313232 -4449.100098
vn -0.797778 -0.365023 0.479906
vt 0.740926 0.095510
v -11097.694336 631.465332 -4433.172363
vn -0.261072 -0.240307 0.934930
vt 0.611831 0.095510
v -11067.278320 634.716187 -4433.288574
vn 0.433012 -0.029696 0.900899
vt 0.496642 0.107930
v -11054.197266 717.236694 -4384.285156
vn 0.529503 -0.621668 0.577196
vt 0.490290 0.474617
v -11035.229492 731.162964 -4415.125977
vn 0.918475 -0.390772 0.060840
vt 0.367961 0.474617
v -11040.642578 740.436890 -4453.328613
vn 0.808368 -0.080921 -0.583089
vt 0.246658 0.474617
v -11051.491211 643.870911 -4454.573730
vn 0.925822 0.226666 0.302452
vt 0.364749 0.095510
v -11055.163086 651.921692 -4481.202637
vn 0.810480 0.314809 -0.493981
vt 0.246761 0.095510
v -11077.109375 733.168701 -4476.387207
vn 0.235088 0.194419 -0.952331
vt 0.124479 0.474617
v -11117.017578 720.245117 -4476.177246
vn -0.567171 0.272979 -0.777045
vt 0.001860 0.474617
v -11083.128906 651.859253 -4497.346191
vn 0.246323 0.180217 -0.952285
vt 0.124585 0.095510
v -11114.735352 646.698425 -4497.445801
vn -0.440005 -0.027724 -0.897567
vt -0.002938 0.107930
v -11132.758789 712.553406 -4444.572754
vn -0.989478 0.088244 -0.114656
vt 0.869177 0.474617
v -11117.017578 720.245117 -4476.177246
vn -0.567171 0.272979 -0.777045
vt 0.996085 0.474617
v -11114.735352 646.698425 -4497.445801
vn -0.440005 -0.027724 -0.897567
vt 0.996719 0.107930
v -11129.332031 639.453674 -4475.944336
vn -0.924149 -0.276791 -0.263317
vt 0.868547 0.095510
v -11105.177734 433.820038 -4381.119141
vn -0.309245 0.851429 0.423598
vt 0.249904 0.999501
v -10962.479492 408.408661 -4284.625000
vn -0.154390 0.840260 0.519737
vt 0.373292 0.999501
v -10991.782227 451.824066 -4334.913574
vn -0.260830 0.649297 0.714409
vt 0.373292 0.928195
v -11057.128906 471.987091 -4394.938477
vn -0.634266 0.645413 0.425615
vt 0.249098 0.928195
v -10799.983398 391.839447 -4237.708984
vn -0.015899 0.944908 0.326951
vt 0.496680 0.999501
v -10907.166992 437.459442 -4314.252441
vn 0.107228 0.805296 0.583096
vt 0.497486 0.928195
v -10938.028320 489.955048 -4357.454102
vn 0.127708 0.687280 0.715079
vt 0.497483 0.781096
v -10995.590820 496.634186 -4368.808105
vn -0.356311 0.435555 0.826641
vt 0.373290 0.781096
v -11040.997070 508.519196 -4408.315430
vn -0.874301 0.102861 0.474360
vt 0.249904 0.856889
v -11060.931641 482.383636 -4471.531738
vn -0.660691 0.739022 -0.131658
vt 0.123292 0.928195
v -11124.291992 449.204376 -4478.879395
vn -0.441636 0.896400 0.037746
vt 0.123292 0.999501
v -11043.218750 517.517334 -4460.017090
vn -0.927892 -0.065353 -0.367076
vt 0.123292 0.856889
v -11009.469727 521.279602 -4494.265625
vn -0.250211 0.151743 -0.956226
vt -0.003320 0.856889
v -11010.892578 483.298981 -4519.180176
vn -0.088208 0.785682 -0.612310
vt -0.003320 0.928195
v -11065.485352 464.472076 -4570.927734
vn -0.152591 0.984788 0.083115
vt -0.003320 0.999501
v -10783.332031 416.256927 -4327.453125
vn 0.015075 0.964297 0.264395
vt 0.623292 0.999501
v -10845.559570 444.458099 -4355.751465
vn 0.352108 0.859518 0.370472
vt 0.623292 0.928195
v -10754.200195 442.053009 -4420.456543
vn -0.057850 0.943858 0.325246
vt 0.749904 0.999501
v -10837.795898 460.938141 -4426.196289
vn 0.436519 0.898945 -0.036740
vt 0.749098 0.928195
v -10896.613281 508.430756 -4440.409180
vn 0.624259 0.753015 -0.208014
vt 0.749098 0.781096
v -10899.334961 496.575226 -4390.204102
vn 0.462046 0.793973 0.395120
vt 0.623290 0.781096
v -10905.386719 467.787018 -4526.383789
vn -0.113462 0.922588 0.368724
vt 0.873292 0.999501
v -10914.708984 475.017853 -4492.370605
vn 0.325671 0.792646 -0.515413
vt 0.873292 0.928195
v -11065.485352 464.472076 -4570.927734
vn -0.152591 0.984788 0.083115
vt 0.996680 0.999501
v -11010.892578 483.298981 -4519.180176
vn -0.088208 0.785682 -0.612310
vt 0.996680 0.928195
v -11009.469727 521.279602 -4494.265625
vn -0.250211 0.151743 -0.956226
vt 0.996680 0.856889
v -10946.962891 517.458374 -4481.413574
vn 0.411183 0.443917 -0.796157
vt 0.873295 0.781096
v -11048.413086 558.337769 -4414.949707
vn -0.361291 0.157997 0.918970
vt 0.373282 0.482409
v -11080.102539 564.304810 -4438.185547
vn -0.817264 -0.404017 0.410913
vt 0.249903 0.482409
v -11009.977539 557.331421 -4410.738281
vn 0.177099 0.569822 0.802458
vt 0.497472 0.482409
v -11097.694336 631.465332 -4433.172363
vn -0.261072 -0.240307 0.934930
vt 0.373272 0.107930
v -11124.467773 633.313232 -4449.100098
vn -0.797778 -0.365023 0.479906
vt 0.249902 0.107930
v -11082.751953 572.157837 -4471.290039
vn -0.740267 -0.571757 -0.353692
vt 0.123645 0.482409
v -11061.484375 578.061523 -4495.248535
vn -0.270895 -0.251557 -0.929158
vt -0.002957 0.482409
v -11129.332031 639.453674 -4475.944336
vn -0.924149 -0.276791 -0.263317
vt 0.123654 0.107930
v -11021.424805 578.180725 -4491.046387
vn 0.344821 0.256860 -0.902841
vt 0.873303 0.482409
v -10988.110352 573.339233 -4467.819824
vn 0.681272 0.665828 -0.304207
vt 0.749099 0.482409
v -11061.484375 578.061523 -4495.248535
vn -0.270895 -0.251557 -0.929158
vt 0.996700 0.482409
v -11083.128906 651.859253 -4497.346191
vn 0.246323 0.180217 -0.952285
vt 0.873313 0.107930
v -11055.163086 651.921692 -4481.202637
vn 0.810480 0.314809 -0.493981
vt 0.749907 0.107930
v -10987.085938 564.360657 -4434.705566
vn 0.550590 0.734990 0.395777
vt 0.623283 0.482409
v -11051.491211 643.870911 -4454.573730
vn 0.925822 0.226666 0.302452
vt 0.623275 0.107930
f 78/78/78 79/79/79 58/58/58
f 79/79/79 78/78/78 41/41/41
f 80/80/80 41/41/41 78/78/78
f 78/78/78 77/77/77 80/80/80
f 77/77/77 78/78/78 74/74/74
f 55/55/55 59/59/59 60/60/60
f 59/59/59 55/55/55 58/58/58
f 57/57/57 58/58/58 55/55/55
f 58/58/58 57/57/57 78/78/78
f 54/54/54 78/78/78 57/57/57
f 78/78/78 54/54/54 74/74/74
f 73/73/73 74/74/74 54/54/54
f 74/74/74 73/73/73 77/77/77
f 76/76/76 77/77/77 73/73/73
f 55/55/55 54/54/54 57/57/57
f 54/54/54 55/55/55 49/49/49
f 73/73/73 32/32/32 76/76/76
f 32/32/32 73/73/73 75/75/75
f 60/60/60 56/56/56 55/55/55
f 46/46/46 55/55/55 56/56/56
f 55/55/55 46/46/46 49/49/49
f 48/48/48 49/49/49 46/46/46
f 49/49/49 48/48/48 54/54/54
f 53/53/53 54/54/54 48/48/48
f 54/54/54 53/53/53 73/73/73
f 52/52/52 73/73/73 53/53/53
f 73/73/73 52/52/52 75/75/75
f 86/86/86 75/75/75 52/52/52
f 75/75/75 86/86/86 32/32/32
f 87/87/87 32/32/32 86/86/86
f 52/52/52 53/53/53 48/48/48
f 46/46/46 47/47/47 48/48/48
f 52/52/52 66/66/66 86/86/86
f 85/85/85 87/87/87 86/86/86
f 47/47/47 50/50/50 48/48/48
f 51/51/51 48/48/48 50/50/50
f 48/48/48 51/51/51 52/52/52
f 62/62/62 52/52/52 51/51/51
f 52/52/52 62/62/62 66/66/66
f 65/65/65 66/66/66 62/62/62
f 66/66/66 65/65/65 86/86/86
f 82/82/82 86/86/86 65/65/65
f 86/86/86 82/82/82 85/85/85
f 81/81/81 85/85/85 82/82/82
f 85/85/85 81/81/81 84/84/84
f 44/44/44 84/84/84 81/81/81
f 62/62/62 50/50/50 61/61/61
f 50/50/50 62/62/62 51/51/51
f 81/81/81 65/65/65 72/72/72
f 65/65/65 81/81/81 82/82/82
f 81/81/81 83/83/83 44/44/44
f 83/83/83 81/81/81 71/71/71
f 72/72/72 71/71/71 81/81/81
f 71/71/71 72/72/72 68/68/68
f 65/65/65 68/68/68 72/72/72
f 68/68/68 65/65/65 64/64/64
f 62/62/62 64/64/64 65/65/65
f 64/64/64 62/62/62 63/63/63
f 61/61/61 63/63/63 62/62/62
f 68/68/68 67/67/67 69/69/69
f 67/67/67 68/68/68 63/63/63
f 64/64/64 63/63/63 68/68/68
f 68/68/68 70/70/70 71/71/71
f 70/70/70 68/68/68 69/69/69
f 4/4/4 11/11/11 1/1/1
f 11/11/11 4/4/4 9/9/9
f 3/3/3 9/9/9 4/4/4
f 9/9/9 3/3/3 8/8/8
f 7/7/7 8/8/8 3/3/3
f 8/8/8 7/7/7 42/42/42
f 43/43/43 42/42/42 7/7/7
f 42/42/42 43/43/43 44/44/44
f 9/9/9 42/42/42 28/28/28
f 42/42/42 9/9/9 8/8/8
f 3/3/3 2/2/2 5/5/5
f 2/2/2 3/3/3 1/1/1
f 4/4/4 1/1/1 3/3/3
f 3/3/3 6/6/6 7/7/7
f 6/6/6 3/3/3 5/5/5
f 11/11/11 12/12/12 13/13/13
f 12/12/12 11/11/11 10/10/10
f 9/9/9 10/10/10 11/11/11
f 10/10/10 9/9/9 29/29/29
f 28/28/28 29/29/29 9/9/9
f 29/29/29 28/28/28 30/30/30
f 42/42/42 30/30/30 28/28/28
f 30/30/30 42/42/42 45/45/45
f 44/44/44 45/45/45 42/42/42
f 30/30/30 31/31/31 29/29/29
f 32/32/32 29/29/29 31/31/31
f 29/29/29 32/32/32 33/33/33
f 34/34/34 32/32/32 36/36/36
f 32/32/32 34/34/34 33/33/33
f 12/12/12 33/33/33 34/34/34
f 33/33/33 12/12/12 29/29/29
f 10/10/10 29/29/29 12/12/12
f 34/34/34 37/37/37 35/35/35
f 37/37/37 34/34/34 36/36/36
f 11/11/11 15/15/15 1/1/1
f 15/15/15 11/11/11 14/14/14
f 13/13/13 14/14/14 11/11/11
f 14/14/14 13/13/13 26/26/26
f 12/12/12 26/26/26 13/13/13
f 26/26/26 12/12/12 27/27/27
f 34/34/34 27/27/27 12/12/12
f 27/27/27 34/34/34 22/22/22
f 35/35/35 22/22/22 34/34/34
f 22/22/22 35/35/35 38/38/38
f 37/37/37 38/38/38 35/35/35
f 38/38/38 37/37/37 40/40/40
f 21/21/21 18/18/18 20/20/20
f 18/18/18 21/21/21 22/22/22
f 26/26/26 22/22/22 21/21/21
f 22/22/22 26/26/26 27/27/27
f 26/26/26 25/25/25 14/14/14
f 25/25/25 26/26/26 20/20/20
f 21/21/21 20/20/20 26/26/26
f 18/18/18 24/24/24 19/19/19
f 24/24/24 18/18/18 23/23/23
f 22/22/22 23/23/23 18/18/18
f 23/23/23 22/22/22 38/38/38
f 24/24/24 23/23/23 38/38/38
f 38/38/38 39/39/39 24/24/24
f 39/39/39 38/38/38 41/41/41
f 40/40/40 41/41/41 38/38/38
f 18/18/18 17/17/17 20/20/20
f 17/17/17 18/18/18 16/16/16
f 19/19/19 16/16/16 18/18/18
