mtllib TROLLHOLE02_HOLECAP124.mtl
g HoleCap124
usemtl Stalagcap
v -14636.975586 632.245911 -7008.216309
vn 0.149803 -0.985672 0.077520
vt 0.496959 0.638621
v -14683.343750 627.328430 -7051.868164
vn 0.003530 -0.995112 -0.098687
vt 0.608884 0.620013
v -14664.006836 646.149109 -7132.763184
vn 0.039105 -0.953539 -0.298720
vt 0.641847 0.507871
v -14621.196289 668.779846 -7181.569336
vn 0.234940 -0.944005 -0.231643
vt 0.615743 0.390344
v -14557.336914 682.693665 -7173.503906
vn 0.232620 -0.954307 -0.187577
vt 0.500884 0.349985
v -14512.849609 684.046814 -7125.199219
vn 0.202263 -0.966304 -0.159208
vt 0.383995 0.391770
v -14528.149414 668.995728 -7053.284180
vn 0.254918 -0.957337 -0.136095
vt 0.351031 0.512231
v -14584.365234 647.584473 -6984.668457
vn 0.300505 -0.952416 -0.051000
vt 0.401034 0.615871
f 2/2/2 3/3/3 1/1/1
f 7/7/7 1/1/1 3/3/3
f 1/1/1 7/7/7 8/8/8
f 5/5/5 3/3/3 4/4/4
f 3/3/3 5/5/5 7/7/7
f 6/6/6 7/7/7 5/5/5
