mtllib TROLLHOLE02_PS-MAINSTALAG27.mtl
g Ps-MainStalag27
usemtl Stalag
v -1594.986450 -1169.785522 -12163.311523
vn -0.572428 -0.121201 0.810948
vt 0.741562 0.095510
v -1597.910400 -1168.961182 -12169.134766
vn -0.975321 -0.084115 0.204140
vt 0.868865 0.095510
v -1595.096436 -1199.422241 -12170.296875
vn -0.907258 -0.403998 0.116915
vt 0.858777 0.063840
v -1593.363403 -1200.552979 -12167.913086
vn -0.432497 -0.689627 0.580828
vt 0.790081 0.048005
v -1597.753662 -1167.119873 -12176.333984
vn -0.905301 -0.100812 -0.412635
vt 0.996168 0.095510
v -1594.586060 -1199.220459 -12173.666016
vn -0.635118 -0.510094 -0.580026
vt 0.917384 0.048005
v -1592.106323 -1201.148804 -12171.606445
vn 0.312125 -0.864792 -0.393336
vt 0.838600 0.000499
v -1592.106323 -1201.148804 -12171.606445
vn 0.312125 -0.864792 -0.393336
vt 0.380460 0.000499
v -1589.609619 -1199.220581 -12169.597656
vn 0.898090 -0.436188 0.056345
vt 0.441973 0.055922
v -1591.115234 -1199.422241 -12167.041992
vn 0.442345 -0.485191 0.754268
vt 0.534708 0.063840
v -1593.363403 -1200.552979 -12167.913086
vn -0.432497 -0.689627 0.580828
vt 0.560693 0.048005
v -1586.489014 -1168.203369 -12167.124023
vn 0.945278 -0.096169 0.311771
vt 0.475822 0.180390
v -1590.234741 -1169.683472 -12162.859375
vn 0.379242 -0.119995 0.917484
vt 0.593479 0.182369
v -1597.753662 -1167.119873 -12176.333984
vn -0.905301 -0.100812 -0.412635
vt 0.002408 0.095510
v -1594.006104 -1161.909668 -12180.605469
vn -0.294654 -0.120120 -0.948024
vt 0.145881 0.182369
v -1593.071533 -1194.092407 -12176.247070
vn -0.039018 -0.290136 -0.956190
vt 0.209876 0.063840
v -1594.586060 -1199.220459 -12173.666016
vn -0.635118 -0.510094 -0.580026
vt 0.191434 0.048005
v -1589.256226 -1159.541504 -12180.145508
vn 0.574947 -0.115452 -0.810004
vt 0.259964 0.180390
v -1590.832153 -1193.890747 -12175.350586
vn 0.587655 -0.302192 -0.750561
vt 0.301771 0.055922
v -1586.330200 -1162.632080 -12174.329102
vn 0.959774 -0.083552 -0.268053
vt 0.366861 0.182369
v -1589.090210 -1194.092407 -12172.991211
vn 0.895519 -0.217669 -0.388157
vt 0.369986 0.063840
v -1608.061768 -925.148315 -12098.043945
vn -0.084217 -0.940600 0.328905
vt 0.743599 0.999501
v -1628.986694 -929.095215 -12135.422852
vn -0.265001 -0.951300 0.157487
vt 0.869969 0.999501
v -1618.893433 -949.547058 -12153.550781
vn -0.870700 -0.427154 0.243763
vt 0.869888 0.926612
v -1603.330200 -949.324524 -12122.918945
vn -0.562719 -0.500320 0.658048
vt 0.744007 0.926612
v -1638.077393 -932.385620 -12200.698242
vn -0.318840 -0.946560 -0.048630
vt 0.996339 0.999501
v -1620.434570 -949.535461 -12189.446289
vn -0.812133 -0.520795 -0.263081
vt 0.996170 0.926612
v -1610.980469 -995.255493 -12185.877930
vn -0.921948 -0.158850 -0.353239
vt 0.996002 0.853724
v -1610.662231 -998.216736 -12162.166016
vn -0.966466 -0.145154 0.211834
vt 0.869806 0.853724
v -1600.997192 -1000.869568 -12142.390625
vn -0.591397 -0.236248 0.770997
vt 0.743617 0.777169
v -1585.414185 -1001.597778 -12140.115234
vn 0.311938 -0.297609 0.902288
vt 0.618250 0.777169
v -1579.851074 -948.625916 -12115.996094
vn 0.236569 -0.586316 0.774770
vt 0.618930 0.926612
v -1573.108276 -1000.327087 -12152.800781
vn 0.913084 -0.220061 0.343295
vt 0.493688 0.777169
v -1561.870728 -948.153687 -12133.113281
vn 0.800009 -0.510783 0.314778
vt 0.494332 0.926612
v -1537.176880 -915.791626 -12115.452148
vn 0.454227 -0.871638 0.184190
vt 0.493599 0.999501
v -1569.296997 -919.335022 -12089.490234
vn 0.194712 -0.877725 0.437819
vt 0.618599 0.999501
v -1638.077393 -932.385620 -12200.698242
vn -0.318840 -0.946560 -0.048630
vt 0.001543 0.999501
v -1606.922729 -934.341858 -12243.007813
vn -0.036919 -0.991612 -0.123867
vt 0.122571 0.999501
v -1601.847534 -949.531555 -12212.161133
vn -0.322627 -0.626021 -0.709936
vt 0.123472 0.926612
v -1620.434570 -949.535461 -12189.446289
vn -0.812133 -0.520795 -0.263081
vt 0.001428 0.926612
v -1570.366455 -929.975586 -12244.012695
vn 0.269243 -0.953671 -0.134239
vt 0.243599 0.999501
v -1577.761353 -949.301270 -12210.834961
vn 0.495433 -0.604542 -0.623759
vt 0.246097 0.926612
v -1582.787842 -993.947754 -12199.085938
vn 0.554093 -0.192244 -0.809953
vt 0.246990 0.777169
v -1598.522705 -993.602173 -12199.962891
vn -0.373281 -0.202071 -0.905444
vt 0.124174 0.777169
v -1610.980469 -995.255493 -12185.877930
vn -0.921948 -0.158850 -0.353239
vt 0.001312 0.853724
v -1552.793823 -927.079346 -12178.196289
vn 0.555715 -0.829648 -0.053526
vt 0.368599 0.999501
v -1562.804932 -948.610413 -12174.606445
vn 0.903667 -0.383158 -0.191248
vt 0.369886 0.926612
v -1573.274414 -996.983215 -12177.911133
vn 0.963184 -0.140990 -0.228907
vt 0.370048 0.777169
v -1597.873535 -1088.790527 -12155.330078
vn -0.564101 -0.120365 0.816885
vt 0.742315 0.474617
v -1588.604736 -1089.512817 -12154.809570
vn 0.361821 -0.133057 0.922703
vt 0.615547 0.474617
v -1581.151245 -1087.791260 -12162.831055
vn 0.933501 -0.102608 0.343580
vt 0.490290 0.474617
v -1581.087280 -1082.626343 -12176.894531
vn 0.966367 -0.082509 -0.243572
vt 0.367961 0.474617
v -1586.597290 -1078.460815 -12188.457031
vn 0.549194 -0.115850 -0.827626
vt 0.246658 0.474617
v -1595.866089 -1079.737305 -12188.977539
vn -0.346282 -0.115495 -0.930994
vt 0.124479 0.474617
v -1603.319336 -1083.457520 -12180.955078
vn -0.916768 -0.091875 -0.388710
vt 0.001860 0.474617
v -1603.383423 -1086.623779 -12166.892578
vn -0.974745 -0.081858 0.207777
vt 0.869177 0.474617
v -1603.319336 -1083.457520 -12180.955078
vn -0.916768 -0.091875 -0.388710
vt 0.996085 0.474617
f 39/39/39 38/38/38 41/41/41
f 38/38/38 39/39/39 37/37/37
f 40/40/40 37/37/37 39/39/39
f 39/39/39 45/45/45 40/40/40
f 45/45/45 39/39/39 44/44/44
f 44/44/44 54/54/54 45/45/45
f 54/54/54 44/44/44 43/43/43
f 39/39/39 43/43/43 44/44/44
f 43/43/43 39/39/39 42/42/42
f 41/41/41 42/42/42 39/39/39
f 42/42/42 41/41/41 47/47/47
f 46/46/46 47/47/47 41/41/41
f 47/47/47 46/46/46 35/35/35
f 47/47/47 43/43/43 42/42/42
f 43/43/43 47/47/47 48/48/48
f 54/54/54 18/18/18 15/15/15
f 18/18/18 54/54/54 53/53/53
f 43/43/43 53/53/53 54/54/54
f 53/53/53 43/43/43 52/52/52
f 48/48/48 52/52/52 43/43/43
f 52/52/52 48/48/48 33/33/33
f 47/47/47 33/33/33 48/48/48
f 33/33/33 47/47/47 34/34/34
f 35/35/35 34/34/34 47/47/47
f 34/34/34 35/35/35 32/32/32
f 36/36/36 32/32/32 35/35/35
f 32/32/32 36/36/36 22/22/22
f 52/52/52 18/18/18 53/53/53
f 18/18/18 52/52/52 20/20/20
f 32/32/32 33/33/33 34/34/34
f 33/33/33 32/32/32 31/31/31
f 20/20/20 21/21/21 18/18/18
f 21/21/21 20/20/20 12/12/12
f 52/52/52 12/12/12 20/20/20
f 12/12/12 52/52/52 51/51/51
f 33/33/33 51/51/51 52/52/52
f 51/51/51 33/33/33 50/50/50
f 31/31/31 50/50/50 33/33/33
f 50/50/50 31/31/31 30/30/30
f 32/32/32 30/30/30 31/31/31
f 30/30/30 32/32/32 25/25/25
f 22/22/22 25/25/25 32/32/32
f 25/25/25 22/22/22 24/24/24
f 23/23/23 24/24/24 22/22/22
f 24/24/24 23/23/23 26/26/26
f 12/12/12 51/51/51 50/50/50
f 30/30/30 25/25/25 24/24/24
f 12/12/12 9/9/9 21/21/21
f 26/26/26 27/27/27 24/24/24
f 30/30/30 49/49/49 50/50/50
f 24/24/24 29/29/29 30/30/30
f 29/29/29 24/24/24 28/28/28
f 27/27/27 28/28/28 24/24/24
f 56/56/56 28/28/28 57/57/57
f 28/28/28 56/56/56 29/29/29
f 54/54/54 55/55/55 45/45/45
f 55/55/55 54/54/54 14/14/14
f 15/15/15 14/14/14 54/54/54
f 14/14/14 15/15/15 16/16/16
f 18/18/18 16/16/16 15/15/15
f 16/16/16 18/18/18 19/19/19
f 21/21/21 19/19/19 18/18/18
f 19/19/19 21/21/21 8/8/8
f 9/9/9 8/8/8 21/21/21
f 8/8/8 9/9/9 10/10/10
f 12/12/12 10/10/10 9/9/9
f 10/10/10 12/12/12 13/13/13
f 50/50/50 13/13/13 12/12/12
f 13/13/13 50/50/50 1/1/1
f 49/49/49 1/1/1 50/50/50
f 1/1/1 49/49/49 56/56/56
f 30/30/30 56/56/56 49/49/49
f 56/56/56 30/30/30 29/29/29
f 13/13/13 1/1/1 10/10/10
f 11/11/11 10/10/10 1/1/1
f 10/10/10 11/11/11 8/8/8
f 19/19/19 8/8/8 16/16/16
f 17/17/17 16/16/16 8/8/8
f 16/16/16 17/17/17 14/14/14
f 7/7/7 4/4/4 3/3/3
f 1/1/1 3/3/3 4/4/4
f 3/3/3 1/1/1 2/2/2
f 56/56/56 2/2/2 1/1/1
f 2/2/2 56/56/56 5/5/5
f 57/57/57 5/5/5 56/56/56
f 2/2/2 5/5/5 3/3/3
f 6/6/6 3/3/3 5/5/5
f 3/3/3 6/6/6 7/7/7
