mtllib TROLLHOLE02_STONEA09.mtl
g StoneA09
usemtl StoneA
v 1132.612061 -1156.760132 -8036.339355
vn 0.119958 0.992601 0.018785
vt 0.500000 0.505518
v 1146.697021 -1159.340576 -8051.102051
vn 0.431416 0.887676 0.160971
vt 0.500000 0.323875
v 1142.219971 -1156.026001 -8062.397461
vn 0.061438 0.957273 -0.282585
vt 0.426524 0.339579
v 1129.583740 -1160.961426 -8069.680664
vn -0.255917 0.823276 -0.506679
vt 0.365753 0.383975
v 1119.575806 -1164.062256 -8067.858887
vn -0.301001 0.858556 -0.415066
vt 0.328194 0.449387
v 1113.674072 -1165.363281 -8060.165527
vn -0.267192 0.918204 -0.292421
vt 0.320342 0.524505
v 1109.180054 -1163.731079 -8050.834473
vn -0.218732 0.874674 -0.432553
vt 0.343555 0.596339
v 1107.479980 -1157.833740 -8043.496582
vn -0.241530 0.922466 -0.301198
vt 0.393818 0.652470
v 1109.302124 -1157.716919 -8032.664551
vn -0.310809 0.946218 -0.089828
vt 0.462441 0.683191
v 1112.608887 -1152.743164 -8020.605957
vn -0.241450 0.955523 0.169348
vt 0.537559 0.683191
v 1119.855835 -1155.392334 -8011.189453
vn 0.099137 0.874256 0.475235
vt 0.606182 0.652470
v 1131.952026 -1162.413208 -8005.907227
vn 0.273747 0.861437 0.427771
vt 0.656445 0.596339
v 1140.785767 -1163.974121 -8009.138184
vn 0.391546 0.880335 0.267773
vt 0.679658 0.524505
v 1145.919067 -1167.548340 -8019.307129
vn 0.358448 0.910595 0.205746
vt 0.671806 0.449387
v 1145.890869 -1167.753052 -8029.223633
vn 0.268205 0.926479 0.264014
vt 0.634247 0.383975
v 1148.619995 -1162.843750 -8038.767090
vn 0.338962 0.891717 0.299910
vt 0.573476 0.339579
v 1164.361328 -1171.824097 -8058.137695
vn 0.531703 0.821787 -0.204835
vt 0.500000 0.173641
v 1148.338379 -1164.309570 -8075.951660
vn 0.285299 0.782710 -0.553145
vt 0.365753 0.202333
v 1128.098511 -1179.612061 -8086.933105
vn -0.192209 0.622664 -0.758515
vt 0.254718 0.283449
v 1113.427124 -1186.060913 -8088.241211
vn -0.305100 0.602645 -0.737383
vt 0.186095 0.402962
v 1100.112549 -1177.115967 -8079.231445
vn -0.418215 0.629334 -0.655008
vt 0.171749 0.540209
v 1086.709839 -1175.964111 -8067.749023
vn -0.583070 0.625592 -0.518328
vt 0.214160 0.671457
v 1081.559570 -1173.454102 -8049.201172
vn -0.712655 0.641928 -0.282935
vt 0.305996 0.774012
v 1091.960693 -1166.747437 -8028.281738
vn -0.626960 0.757260 0.182971
vt 0.431377 0.830143
v 1101.224243 -1168.505127 -8008.147949
vn -0.507643 0.711213 0.486287
vt 0.568623 0.830143
v 1113.473267 -1175.515259 -7995.652832
vn -0.163922 0.642503 0.748545
vt 0.694004 0.774012
v 1132.697754 -1175.398315 -7988.244141
vn 0.131888 0.670258 0.730315
vt 0.785840 0.671457
v 1153.632935 -1178.261353 -7988.347168
vn 0.359943 0.753571 0.550065
vt 0.828251 0.540209
v 1165.042725 -1181.588745 -8001.584961
vn 0.446967 0.791570 0.416699
vt 0.813905 0.402962
v 1168.936401 -1169.526855 -8019.519043
vn 0.408588 0.858242 0.310607
vt 0.745282 0.283449
v 1170.413818 -1168.810181 -8038.892578
vn 0.480003 0.875185 0.060405
vt 0.634247 0.202333
v 1178.693359 -1197.880493 -8061.536133
vn 0.685638 0.647157 -0.333299
vt 0.500000 0.005500
v 1161.016602 -1197.880493 -8082.815430
vn 0.498036 0.548062 -0.672003
vt 0.297738 0.048729
v 1138.761230 -1197.880493 -8095.917969
vn 0.009210 0.487183 -0.873251
vt 0.130450 0.170940
v 1115.775146 -1197.880493 -8098.578125
vn -0.256480 0.556507 -0.790265
vt 0.027059 0.351004
v 1096.032959 -1197.880493 -8090.335938
vn -0.447814 0.487327 -0.749650
vt 0.005445 0.557784
v 1082.948364 -1197.880493 -8072.616211
vn -0.706440 0.308810 -0.636851
vt 0.069344 0.755527
v 1078.783813 -1197.880493 -8048.483398
vn -0.928966 0.174064 -0.326687
vt 0.207707 0.910041
v 1084.259155 -1197.880493 -8022.109863
vn -0.905628 0.351127 0.237797
vt 0.396610 0.994609
v 1098.427979 -1197.880493 -7998.056152
vn -0.716293 0.416254 0.560052
vt 0.603390 0.994609
v 1118.840088 -1197.880493 -7980.480957
vn -0.278733 0.493325 0.823977
vt 0.792293 0.910041
v 1141.966309 -1197.880493 -7972.423828
vn 0.032555 0.556337 0.830319
vt 0.930656 0.755527
v 1163.807617 -1197.880493 -7975.277344
vn 0.305007 0.594450 0.744043
vt 0.994555 0.557784
v 1180.587646 -1197.880493 -7988.548340
vn 0.488872 0.729632 0.478165
vt 0.972941 0.351004
v 1189.405029 -1197.880493 -8009.941895
vn 0.596653 0.696250 0.399051
vt 0.869550 0.170940
v 1188.734863 -1197.880493 -8035.759277
vn 0.747550 0.657604 0.093413
vt 0.702262 0.048729
f 21/21/21 37/37/37 22/22/22
f 38/38/38 22/22/22 37/37/37
f 22/22/22 38/38/38 23/23/23
f 39/39/39 23/23/23 38/38/38
f 23/23/23 39/39/39 24/24/24
f 40/40/40 24/24/24 39/39/39
f 24/24/24 40/40/40 25/25/25
f 41/41/41 25/25/25 40/40/40
f 25/25/25 41/41/41 26/26/26
f 42/42/42 26/26/26 41/41/41
f 26/26/26 42/42/42 27/27/27
f 43/43/43 27/27/27 42/42/42
f 27/27/27 43/43/43 28/28/28
f 44/44/44 28/28/28 43/43/43
f 28/28/28 44/44/44 29/29/29
f 45/45/45 29/29/29 44/44/44
f 29/29/29 45/45/45 30/30/30
f 46/46/46 30/30/30 45/45/45
f 5/5/5 21/21/21 6/6/6
f 22/22/22 6/6/6 21/21/21
f 6/6/6 22/22/22 7/7/7
f 23/23/23 7/7/7 22/22/22
f 7/7/7 23/23/23 8/8/8
f 24/24/24 8/8/8 23/23/23
f 8/8/8 24/24/24 9/9/9
f 25/25/25 9/9/9 24/24/24
f 9/9/9 25/25/25 10/10/10
f 26/26/26 10/10/10 25/25/25
f 10/10/10 26/26/26 11/11/11
f 27/27/27 11/11/11 26/26/26
f 11/11/11 27/27/27 12/12/12
f 28/28/28 12/12/12 27/27/27
f 12/12/12 28/28/28 13/13/13
f 29/29/29 13/13/13 28/28/28
f 13/13/13 29/29/29 14/14/14
f 30/30/30 14/14/14 29/29/29
f 1/1/1 11/11/11 12/12/12
f 11/11/11 1/1/1 10/10/10
f 9/9/9 1/1/1 8/8/8
f 1/1/1 9/9/9 10/10/10
f 12/12/12 13/13/13 1/1/1
f 14/14/14 1/1/1 13/13/13
f 1/1/1 14/14/14 15/15/15
f 5/5/5 6/6/6 1/1/1
f 7/7/7 1/1/1 6/6/6
f 1/1/1 7/7/7 8/8/8
f 16/16/16 1/1/1 15/15/15
f 1/1/1 16/16/16 2/2/2
f 14/14/14 30/30/30 15/15/15
f 31/31/31 15/15/15 30/30/30
f 15/15/15 31/31/31 16/16/16
f 17/17/17 16/16/16 31/31/31
f 16/16/16 17/17/17 2/2/2
f 18/18/18 2/2/2 17/17/17
f 2/2/2 18/18/18 3/3/3
f 19/19/19 3/3/3 18/18/18
f 3/3/3 19/19/19 4/4/4
f 20/20/20 4/4/4 19/19/19
f 21/21/21 36/36/36 37/37/37
f 36/36/36 21/21/21 20/20/20
f 5/5/5 20/20/20 21/21/21
f 20/20/20 5/5/5 4/4/4
f 1/1/1 4/4/4 5/5/5
f 4/4/4 1/1/1 3/3/3
f 2/2/2 3/3/3 1/1/1
f 30/30/30 46/46/46 31/31/31
f 32/32/32 31/31/31 46/46/46
f 31/31/31 32/32/32 17/17/17
f 33/33/33 17/17/17 32/32/32
f 17/17/17 33/33/33 18/18/18
f 34/34/34 18/18/18 33/33/33
f 18/18/18 34/34/34 19/19/19
f 35/35/35 19/19/19 34/34/34
f 19/19/19 35/35/35 20/20/20
f 36/36/36 20/20/20 35/35/35
