mtllib TROLLHOLE02_HOLECAP211.mtl
g HoleCap211
usemtl Stalagcap
v -6784.253418 754.112976 -9850.322266
vn -0.091904 0.994386 0.052437
vt 0.496959 0.638621
v -6736.211914 755.173523 -9842.127930
vn 0.012518 0.979677 -0.200193
vt 0.608884 0.620013
v -6685.503906 753.148010 -9848.869141
vn 0.140164 0.982721 0.120885
vt 0.641847 0.507871
v -6668.485840 752.652161 -9905.466797
vn 0.147922 0.988960 -0.008782
vt 0.615743 0.390344
v -6680.562988 751.841003 -9954.351563
vn 0.153964 0.976399 -0.151459
vt 0.500884 0.349985
v -6732.718750 754.512695 -9972.791016
vn 0.058298 0.951910 -0.300778
vt 0.383995 0.391770
v -6785.715820 757.251770 -9958.493164
vn -0.110747 0.977975 -0.176920
vt 0.351031 0.512231
v -6800.314453 756.642944 -9909.167969
vn 0.053776 0.998154 0.028236
vt 0.401034 0.615871
f 2/2/2 3/3/3 1/1/1
f 7/7/7 1/1/1 3/3/3
f 1/1/1 7/7/7 8/8/8
f 5/5/5 3/3/3 4/4/4
f 3/3/3 5/5/5 7/7/7
f 6/6/6 7/7/7 5/5/5
