mtllib TROLLHOLE02_HOLECAP52.mtl
g HoleCap52
usemtl Stalagcap
v -1573.585205 -752.828613 -6949.456543
vn -0.097398 -0.928781 -0.357601
vt 0.401034 0.615871
v -1488.114502 -751.773804 -6952.438477
vn 0.097888 -0.935430 -0.339690
vt 0.496959 0.638621
v -1441.888794 -750.906372 -6923.783203
vn 0.344867 -0.914152 -0.213057
vt 0.608884 0.620013
v -1432.489868 -756.399048 -6840.912109
vn 0.435249 -0.900201 -0.014004
vt 0.641847 0.507871
v -1470.796753 -765.376465 -6755.744141
vn 0.194988 -0.977231 0.083666
vt 0.615743 0.390344
v -1538.505737 -770.830872 -6781.929199
vn -0.024759 -0.993337 0.112558
vt 0.500884 0.349985
v -1607.442627 -767.200134 -6801.902832
vn -0.054528 -0.998229 0.023789
vt 0.383995 0.391770
v -1615.833618 -766.228027 -6876.229980
vn -0.036413 -0.993884 -0.104257
vt 0.351031 0.512231
f 5/5/5 6/6/6 1/1/1
f 7/7/7 1/1/1 6/6/6
f 1/1/1 7/7/7 8/8/8
f 3/3/3 1/1/1 2/2/2
f 1/1/1 3/3/3 5/5/5
f 4/4/4 5/5/5 3/3/3
