mtllib TROLLHOLE02_RM_PSURF98.mtl
g RM_Psurf98
usemtl Lvl_roast_m_largebolders
v -581.369629 -479.480927 -19619.261719
vn 0.183273 0.865494 -0.466187
vt 0.700035 0.593688
v -665.585144 -443.960846 -19456.322266
vn 0.059806 0.996722 0.054492
vt 0.924567 -0.239595
v -528.951477 -496.543610 -19500.449219
vn 0.507529 0.804802 0.307748
vt 0.403134 0.080140
v -433.252411 -489.177094 -19551.496094
vn 0.661014 0.750242 0.014051
vt 0.052292 0.398485
v -488.934662 -574.089111 -19685.595703
vn 0.598780 0.049484 -0.799383
vt 0.373308 0.980972
v -424.955109 -605.547607 -19527.369141
vn 0.993620 0.112652 -0.005318
vt 0.001499 0.292260
v -1089.045654 -581.471985 -19656.353516
vn -0.904270 0.142304 -0.402548
vt 2.780928 0.347978
v -1030.514648 -486.590790 -19703.181641
vn -0.361737 0.819757 -0.444010
vt 2.577483 0.615823
v -1059.320190 -584.099426 -19747.585938
vn -0.411207 0.278207 -0.868050
vt 2.725735 0.800133
v -606.212708 -575.582886 -19710.013672
vn 0.107972 0.141203 -0.984075
vt 0.865324 0.998501
v -1149.386108 -599.092407 -19561.503906
vn -0.959146 0.202738 -0.197322
vt 2.957430 -0.146439
v -1078.236328 -472.636017 -19568.179688
vn -0.658485 0.748501 -0.078382
vt 2.674270 -0.056349
v -426.135712 -657.675781 -19521.087891
vn 0.838310 -0.176522 -0.515826
vt 0.001795 0.261847
v -485.076996 -627.887817 -19639.521484
vn 0.692253 -0.349638 -0.631300
vt 0.324820 0.768214
v -991.855225 -924.837708 -19741.982422
vn -0.219388 -0.110697 -0.969337
vt 2.448724 0.829624
v -823.977783 -916.081909 -19733.341797
vn 0.189480 -0.001748 -0.981883
vt 1.763206 0.927872
v -786.568665 -1123.098511 -19657.880859
vn 0.185528 -0.240805 -0.952676
vt 1.557976 0.605109
v -965.898926 -1099.100098 -19682.648438
vn -0.139548 -0.312474 -0.939620
vt 2.301350 0.572991
v -1027.398926 -747.698059 -19713.310547
vn -0.313156 -0.066484 -0.947372
vt 2.572101 0.665868
v -1038.038330 -693.170654 -19724.734375
vn -0.448047 -0.245487 -0.859645
vt 2.623307 0.710619
v -885.876038 -681.899658 -19712.324219
vn 0.111591 -0.239815 -0.964384
vt 1.998693 0.778207
v -874.656372 -739.055847 -19693.837891
vn 0.070992 -0.050361 -0.996205
vt 1.940100 0.700836
v -1106.250122 -936.546692 -19698.744141
vn -0.586570 -0.074408 -0.806473
vt 2.880796 0.532432
v -1096.466675 -1107.286377 -19652.382813
vn -0.201652 -0.267400 -0.942249
vt 2.808125 0.323232
v -1079.087646 -698.003540 -19659.798828
vn -0.783204 -0.062057 -0.618660
vt 2.743088 0.372349
v -1074.109375 -756.260498 -19661.519531
vn -0.785955 0.022472 -0.617875
vt 2.724171 0.384533
v -449.002625 -916.747559 -19489.646484
vn 0.826245 -0.149532 -0.543102
vt 0.071896 0.095585
v -481.315735 -912.070984 -19570.294922
vn 0.846336 -0.060933 -0.529153
vt 0.260204 0.446868
v -477.360443 -735.501526 -19547.357422
vn 0.740883 -0.157873 -0.652816
vt 0.227831 0.342633
v -428.497253 -761.947693 -19508.525391
vn 0.567799 -0.141588 -0.810899
vt 0.002387 0.201012
v -513.812073 -1087.738281 -19513.759766
vn 0.984829 -0.163201 0.058975
vt 0.351367 0.155037
v -473.467194 -1086.574097 -19588.183594
vn 0.853942 0.090933 -0.512362
vt 0.241208 0.537200
v -745.744141 -465.449249 -19649.089844
vn 0.028341 0.885969 -0.462878
vt 1.386497 0.597644
v -802.250671 -475.037872 -19514.394531
vn -0.075317 0.996660 0.031560
vt 1.519053 -0.080354
v -949.305359 -473.731964 -19517.195313
vn -0.057071 0.998172 0.019879
vt 2.116141 -0.188760
v -906.108521 -476.360504 -19639.335938
vn 0.023603 0.912134 -0.409213
vt 2.028489 0.419401
v -754.475769 -572.323364 -19713.408203
vn 0.149283 0.212845 -0.965615
vt 1.467726 0.891880
v -908.313721 -567.595825 -19749.294922
vn 0.060854 0.245079 -0.967591
vt 2.115872 0.932938
v -740.235413 -620.786377 -19706.578125
vn 0.099635 -0.174145 -0.979667
vt 1.405225 0.871633
v -897.095764 -624.743469 -19730.810547
vn 0.122462 -0.236485 -0.963887
vt 2.057287 0.855579
v -588.315979 -631.412598 -19690.107422
vn 0.228293 -0.298425 -0.926728
vt 0.778696 0.919991
v -672.777527 -902.816711 -19658.968750
vn 0.236032 -0.097769 -0.966814
vt 1.098271 0.704249
v -671.107666 -1082.155029 -19645.888672
vn 0.185749 -0.148407 -0.971325
vt 1.082179 0.644318
v -552.538330 -1107.493774 -19589.097656
vn 0.390610 -0.144700 -0.909113
vt 0.561838 0.476132
v -555.233459 -928.346985 -19650.013672
vn 0.497567 -0.093010 -0.862425
vt 0.616211 0.759412
v -711.750427 -717.726990 -19692.914063
vn 0.182344 -0.080595 -0.979926
vt 1.280204 0.831134
v -552.517090 -743.088806 -19650.289063
vn 0.492169 -0.155164 -0.856559
vt 0.605415 0.762946
v -1121.290039 -575.651123 -19435.232422
vn -0.903239 0.398250 0.159860
vt 2.753632 -0.715046
v -1059.808960 -512.371704 -19352.242188
vn -0.413125 0.899281 0.143602
vt 2.445618 -1.053201
v -946.448975 -483.590973 -19268.578125
vn -0.068533 0.996326 0.051360
vt 1.927183 -1.351641
v -664.690918 -487.667999 -19271.765625
vn 0.269891 0.935106 0.229641
vt 0.789259 -1.103853
v -528.533325 -549.749695 -19301.455078
vn 0.683106 0.713006 0.158078
vt 0.259452 -0.852175
v -464.011200 -603.128784 -19452.246094
vn 0.765199 0.612773 0.197433
vt 0.105944 -0.092110
v -480.644592 -597.846375 -19346.718750
vn 0.744627 0.662146 0.084223
vt 0.097956 -0.600453
v -1152.227051 -645.907837 -19564.578125
vn -0.972348 0.073554 -0.221650
vt 2.971119 -0.134384
v -1132.151001 -634.385010 -19454.787109
vn -0.981825 0.087758 0.168279
vt 2.811537 -0.632370
v -1084.066650 -639.737793 -19658.076172
vn -0.844888 -0.044086 -0.533124
vt 2.762008 0.360163
v -1086.809082 -924.085266 -19613.326172
vn -0.966116 -0.001013 -0.258108
vt 2.741175 0.148155
v -1157.909668 -739.552612 -19570.724609
vn -0.751443 -0.029485 -0.659139
vt 2.998502 -0.110271
v -800.819275 -490.577789 -19299.505859
vn -0.085849 0.988329 0.125837
vt 1.359927 -1.086334
v -946.448975 -483.590973 -19268.578125
vn -0.068533 0.996326 0.051360
vt 1.927183 -1.351641
v -800.819275 -490.577789 -19299.505859
vn -0.085849 0.988329 0.125837
vt 1.359927 -1.086334
v -802.250671 -475.037872 -19514.394531
vn -0.075317 0.996660 0.031560
vt 1.519053 -0.080354
v -802.250671 -475.037872 -19514.394531
vn -0.075317 0.996660 0.031560
vt 1.519053 -0.080354
v -949.305359 -473.731964 -19517.195313
vn -0.057071 0.998172 0.019879
vt 2.116141 -0.188760
v -946.448975 -483.590973 -19268.578125
vn -0.068533 0.996326 0.051360
vt 1.927183 -1.351641
v -427.316498 -709.811768 -19514.806641
vn 0.692867 -0.230196 -0.683334
vt 0.002091 0.231430
v -481.218719 -681.694702 -19593.439453
vn 0.721797 -0.320897 -0.613216
vt 0.276326 0.555423
v -570.416504 -687.250732 -19670.197266
vn 0.382363 -0.240161 -0.892256
vt 0.692056 0.841468
v -1048.679199 -638.635010 -19736.160156
vn -0.523433 -0.254352 -0.813217
vt 2.674521 0.755376
v -1155.068359 -692.730225 -19567.650391
vn -0.938707 0.068738 -0.337792
vt 2.984810 -0.122328
v -725.992920 -669.256714 -19699.746094
vn 0.105430 -0.171297 -0.979562
vt 1.342715 0.851384
v -1143.013672 -693.127686 -19474.345703
vn -0.982032 0.139157 0.127467
vt 2.869450 -0.549681
f 61/61/61 62/62/62 63/63/63
f 31/31/31 32/32/32 28/28/28
f 44/44/44 28/28/28 32/32/32
f 28/28/28 44/44/44 45/45/45
f 43/43/43 45/45/45 44/44/44
f 45/45/45 43/43/43 42/42/42
f 17/17/17 42/42/42 43/43/43
f 42/42/42 17/17/17 16/16/16
f 15/15/15 16/16/16 17/17/17
f 16/16/16 15/15/15 19/19/19
f 26/26/26 19/19/19 15/15/15
f 19/19/19 26/26/26 25/25/25
f 59/59/59 25/25/25 26/26/26
f 25/25/25 59/59/59 71/71/71
f 57/57/57 25/25/25 71/71/71
f 17/17/17 18/18/18 15/15/15
f 23/23/23 15/15/15 18/18/18
f 15/15/15 23/23/23 26/26/26
f 58/58/58 26/26/26 23/23/23
f 26/26/26 58/58/58 59/59/59
f 18/18/18 24/24/24 23/23/23
f 8/8/8 9/9/9 7/7/7
f 70/70/70 7/7/7 9/9/9
f 7/7/7 70/70/70 57/57/57
f 20/20/20 57/57/57 70/70/70
f 57/57/57 20/20/20 25/25/25
f 19/19/19 25/25/25 20/20/20
f 73/73/73 56/56/56 71/71/71
f 55/55/55 71/71/71 56/56/56
f 71/71/71 55/55/55 57/57/57
f 11/11/11 57/57/57 55/55/55
f 57/57/57 11/11/11 7/7/7
f 12/12/12 7/7/7 11/11/11
f 7/7/7 12/12/12 8/8/8
f 55/55/55 56/56/56 11/11/11
f 48/48/48 11/11/11 56/56/56
f 11/11/11 48/48/48 12/12/12
f 12/12/12 35/35/35 8/8/8
f 35/35/35 12/12/12 49/49/49
f 48/48/48 49/49/49 12/12/12
f 49/49/49 50/50/50 35/35/35
f 28/28/28 27/27/27 31/31/31
f 27/27/27 28/28/28 29/29/29
f 45/45/45 29/29/29 28/28/28
f 29/29/29 45/45/45 47/47/47
f 42/42/42 47/47/47 45/45/45
f 47/47/47 42/42/42 46/46/46
f 16/16/16 46/46/46 42/42/42
f 46/46/46 16/16/16 22/22/22
f 19/19/19 22/22/22 16/16/16
f 22/22/22 19/19/19 21/21/21
f 20/20/20 21/21/21 19/19/19
f 21/21/21 20/20/20 40/40/40
f 70/70/70 40/40/40 20/20/20
f 40/40/40 70/70/70 38/38/38
f 9/9/9 38/38/38 70/70/70
f 38/38/38 9/9/9 36/36/36
f 8/8/8 36/36/36 9/9/9
f 36/36/36 8/8/8 35/35/35
f 29/29/29 67/67/67 30/30/30
f 67/67/67 29/29/29 68/68/68
f 47/47/47 68/68/68 29/29/29
f 68/68/68 47/47/47 69/69/69
f 46/46/46 69/69/69 47/47/47
f 69/69/69 46/46/46 72/72/72
f 22/22/22 72/72/72 46/46/46
f 72/72/72 22/22/22 21/21/21
f 29/29/29 30/30/30 27/27/27
f 68/68/68 13/13/13 67/67/67
f 13/13/13 68/68/68 14/14/14
f 69/69/69 14/14/14 68/68/68
f 14/14/14 69/69/69 41/41/41
f 72/72/72 41/41/41 69/69/69
f 41/41/41 72/72/72 39/39/39
f 21/21/21 39/39/39 72/72/72
f 39/39/39 21/21/21 40/40/40
f 14/14/14 6/6/6 13/13/13
f 6/6/6 14/14/14 5/5/5
f 41/41/41 5/5/5 14/14/14
f 5/5/5 41/41/41 10/10/10
f 39/39/39 10/10/10 41/41/41
f 10/10/10 39/39/39 37/37/37
f 40/40/40 37/37/37 39/39/39
f 37/37/37 40/40/40 38/38/38
f 5/5/5 10/10/10 1/1/1
f 37/37/37 1/1/1 10/10/10
f 1/1/1 37/37/37 33/33/33
f 38/38/38 33/33/33 37/37/37
f 33/33/33 38/38/38 36/36/36
f 34/34/34 36/36/36 35/35/35
f 36/36/36 34/34/34 33/33/33
f 2/2/2 33/33/33 34/34/34
f 33/33/33 2/2/2 1/1/1
f 2/2/2 34/34/34 60/60/60
f 60/60/60 51/51/51 2/2/2
f 3/3/3 2/2/2 51/51/51
f 2/2/2 3/3/3 1/1/1
f 4/4/4 1/1/1 3/3/3
f 1/1/1 4/4/4 5/5/5
f 6/6/6 5/5/5 4/4/4
f 3/3/3 6/6/6 4/4/4
f 6/6/6 3/3/3 53/53/53
f 54/54/54 53/53/53 52/52/52
f 3/3/3 52/52/52 53/53/53
f 52/52/52 3/3/3 51/51/51
f 64/64/64 65/65/65 66/66/66
