mtllib TROLLHOLE02_PS-MAINSTALAG03.mtl
g Ps-MainStalag03
usemtl Stalag
v -1627.590942 -1188.031738 -12458.180664
vn -0.690984 -0.124142 -0.712131
vt 0.249902 0.107930
v -1623.053467 -1184.989258 -12459.619141
vn 0.221256 -0.118408 -0.968001
vt 0.363102 0.192597
v -1623.133301 -1218.346558 -12454.971680
vn 0.320134 -0.366194 -0.873737
vt 0.332583 0.072120
v -1625.020264 -1220.560791 -12453.720703
vn -0.469015 -0.592344 -0.655098
vt 0.249907 0.063167
v -1618.597778 -1183.025513 -12456.260742
vn 0.849251 -0.092793 -0.519772
vt 0.500183 0.107930
v -1621.302856 -1218.740356 -12452.926758
vn 0.788508 -0.392405 -0.473575
vt 0.373923 0.054215
v -1623.208740 -1222.144775 -12450.578125
vn 0.232284 -0.963000 -0.136657
vt 0.251204 0.000500
v -1626.182007 -1220.166992 -12451.210938
vn -0.916035 -0.396733 -0.059021
vt 0.165941 0.072120
v -1629.326782 -1188.762939 -12451.880859
vn -0.995681 -0.087229 -0.031793
vt 0.123310 0.107930
v -1625.113770 -1221.015991 -12448.226563
vn -0.680271 -0.604227 0.414900
vt 0.123961 0.054215
v -1627.817139 -1188.572266 -12444.889648
vn -0.834632 -0.101226 0.541426
vt -0.003281 0.107930
v -1617.088135 -1183.377441 -12449.268555
vn 0.996836 -0.078498 0.012468
vt 0.625045 0.107930
v -1620.234375 -1218.346558 -12449.941406
vn 0.958860 -0.277736 -0.058739
vt 0.662198 0.072120
v -1621.302856 -1218.740356 -12452.926758
vn 0.788508 -0.392405 -0.473575
vt 0.618344 0.054215
v -1618.823853 -1185.614014 -12442.969727
vn 0.746714 -0.113241 0.655435
vt 0.748066 0.190359
v -1621.396484 -1220.560791 -12447.433594
vn 0.717810 -0.540734 0.438583
vt 0.743206 0.054215
v -1623.208740 -1222.144775 -12450.578125
vn 0.232284 -0.963000 -0.136657
vt 0.736504 0.000500
v -1623.361450 -1187.151123 -12441.531250
vn -0.137077 -0.120403 0.983216
vt 0.861910 0.192597
v -1623.282959 -1220.166992 -12446.181641
vn -0.078761 -0.495320 0.865133
vt 0.827710 0.072120
v -1627.817139 -1188.572266 -12444.889648
vn -0.834632 -0.101226 0.541426
vt 0.996719 0.107930
v -1625.113770 -1221.015991 -12448.226563
vn -0.680271 -0.604227 0.414900
vt 0.866612 0.054215
v -1653.136108 -958.556091 -12497.392578
vn 0.073793 -0.986147 -0.148555
vt 0.249904 0.999501
v -1617.299438 -948.115662 -12511.735352
vn 0.305456 -0.949150 -0.076235
vt 0.373292 0.999501
v -1622.471924 -958.111633 -12493.707031
vn 0.310766 -0.614117 -0.725455
vt 0.373292 0.928195
v -1644.544312 -967.782593 -12487.595703
vn -0.473399 -0.588621 -0.655300
vt 0.249098 0.928195
v -1580.035889 -934.636658 -12490.756836
vn 0.364574 -0.931149 0.006866
vt 0.496680 0.999501
v -1600.766602 -948.440796 -12478.251953
vn 0.741251 -0.597108 -0.306609
vt 0.497486 0.928195
v -1607.218506 -990.786316 -12470.293945
vn 0.851653 -0.157262 -0.499957
vt 0.497483 0.781096
v -1622.682983 -999.418945 -12481.305664
vn 0.261826 -0.201869 -0.943767
vt 0.373290 0.781096
v -1638.409180 -1008.137085 -12476.951172
vn -0.657682 -0.209010 -0.723719
vt 0.249904 0.856889
v -1652.391602 -971.006226 -12456.801758
vn -0.839235 -0.542709 -0.033931
vt 0.123292 0.928195
v -1663.887817 -961.483826 -12461.210938
vn -0.099777 -0.995005 0.003053
vt 0.123292 0.999501
v -1644.000244 -1011.043030 -12455.011719
vn -0.988470 -0.148838 -0.027811
vt 0.123292 0.856889
v -1639.194336 -1008.222351 -12430.852539
vn -0.803018 -0.172791 0.570356
vt -0.003320 0.856889
v -1645.646240 -967.782593 -12422.894531
vn -0.570588 -0.643181 0.510635
vt -0.003320 0.928195
v -1657.326904 -955.651184 -12399.618164
vn -0.040001 -0.977196 0.208540
vt -0.003320 0.999501
v -1584.208008 -933.856689 -12437.920898
vn 0.462369 -0.885604 0.043818
vt 0.623292 0.999501
v -1594.021118 -945.217163 -12444.343750
vn 0.869276 -0.492907 0.037436
vt 0.623292 0.928195
v -1588.791870 -934.074890 -12386.178711
vn 0.371833 -0.924639 0.082357
vt 0.749904 0.999501
v -1601.868286 -948.440796 -12413.550781
vn 0.690069 -0.595585 0.411196
vt 0.749098 0.928195
v -1608.003540 -991.212952 -12424.195313
vn 0.741984 -0.187885 0.643552
vt 0.749098 0.781096
v -1602.412720 -988.136292 -12446.135742
vn 0.990119 -0.138233 0.023596
vt 0.623290 0.781096
v -1621.770020 -944.843201 -12376.795898
vn 0.262398 -0.948320 0.178428
vt 0.873292 0.999501
v -1623.940918 -958.111694 -12407.439453
vn 0.103376 -0.675082 0.730464
vt 0.873292 0.928195
v -1657.326904 -955.651184 -12399.618164
vn -0.040001 -0.977196 0.208540
vt 0.996680 0.999501
v -1645.646240 -967.782593 -12422.894531
vn -0.570588 -0.643181 0.510635
vt 0.996680 0.928195
v -1639.194336 -1008.222351 -12430.852539
vn -0.803018 -0.172791 0.570356
vt 0.996680 0.856889
v -1623.729736 -999.760376 -12419.841797
vn -0.080562 -0.206609 0.975101
vt 0.873295 0.781096
v -1622.890259 -1093.529175 -12469.169922
vn 0.224369 -0.113653 -0.967854
vt 0.373282 0.482409
v -1632.406128 -1099.388672 -12466.535156
vn -0.681853 -0.116179 -0.722204
vt 0.249903 0.482409
v -1613.532593 -1088.010986 -12462.506836
vn 0.849692 -0.088137 -0.519860
vt 0.497472 0.482409
v -1635.789063 -1101.341797 -12453.259766
vn -0.996140 -0.082911 -0.028818
vt 0.123645 0.482409
v -1632.881104 -1099.729980 -12438.641602
vn -0.822177 -0.095401 0.561181
vt -0.002957 0.482409
v -1623.523560 -1094.894531 -12431.978516
vn -0.126801 -0.114699 0.985274
vt 0.873303 0.482409
v -1614.007568 -1089.717773 -12434.613281
vn 0.735523 -0.105425 0.669247
vt 0.749099 0.482409
v -1632.881104 -1099.729980 -12438.641602
vn -0.822177 -0.095401 0.561181
vt 0.996700 0.482409
v -1610.624634 -1087.081909 -12447.888672
vn 0.996938 -0.075442 0.020593
vt 0.623283 0.482409
f 39/39/39 43/43/43 44/44/44
f 45/45/45 44/44/44 43/43/43
f 26/26/26 37/37/37 38/38/38
f 39/39/39 38/38/38 37/37/37
f 38/38/38 39/39/39 40/40/40
f 44/44/44 40/40/40 39/39/39
f 40/40/40 44/44/44 41/41/41
f 48/48/48 41/41/41 44/44/44
f 38/38/38 41/41/41 42/42/42
f 41/41/41 38/38/38 40/40/40
f 41/41/41 57/57/57 42/42/42
f 28/28/28 42/42/42 57/57/57
f 42/42/42 28/28/28 38/38/38
f 27/27/27 38/38/38 28/28/28
f 38/38/38 27/27/27 26/26/26
f 24/24/24 26/26/26 27/27/27
f 26/26/26 24/24/24 23/23/23
f 22/22/22 23/23/23 24/24/24
f 24/24/24 27/27/27 28/28/28
f 57/57/57 51/51/51 28/28/28
f 24/24/24 25/25/25 22/22/22
f 32/32/32 22/22/22 31/31/31
f 25/25/25 31/31/31 22/22/22
f 31/31/31 25/25/25 30/30/30
f 24/24/24 30/30/30 25/25/25
f 30/30/30 24/24/24 29/29/29
f 28/28/28 29/29/29 24/24/24
f 29/29/29 28/28/28 49/49/49
f 51/51/51 49/49/49 28/28/28
f 49/49/49 51/51/51 5/5/5
f 57/57/57 5/5/5 51/51/51
f 5/5/5 57/57/57 12/12/12
f 30/30/30 29/29/29 49/49/49
f 30/30/30 33/33/33 31/31/31
f 36/36/36 32/32/32 31/31/31
f 5/5/5 2/2/2 49/49/49
f 3/3/3 5/5/5 6/6/6
f 5/5/5 3/3/3 2/2/2
f 1/1/1 2/2/2 3/3/3
f 2/2/2 1/1/1 49/49/49
f 50/50/50 49/49/49 1/1/1
f 49/49/49 50/50/50 30/30/30
f 52/52/52 30/30/30 50/50/50
f 30/30/30 52/52/52 33/33/33
f 34/34/34 33/33/33 52/52/52
f 33/33/33 34/34/34 31/31/31
f 35/35/35 31/31/31 34/34/34
f 31/31/31 35/35/35 36/36/36
f 52/52/52 1/1/1 9/9/9
f 1/1/1 52/52/52 50/50/50
f 52/52/52 53/53/53 34/34/34
f 53/53/53 52/52/52 11/11/11
f 9/9/9 11/11/11 52/52/52
f 11/11/11 9/9/9 8/8/8
f 1/1/1 8/8/8 9/9/9
f 8/8/8 1/1/1 4/4/4
f 3/3/3 4/4/4 1/1/1
f 4/4/4 3/3/3 7/7/7
f 6/6/6 7/7/7 3/3/3
f 8/8/8 10/10/10 11/11/11
f 10/10/10 8/8/8 7/7/7
f 4/4/4 7/7/7 8/8/8
f 45/45/45 46/46/46 44/44/44
f 47/47/47 44/44/44 46/46/46
f 44/44/44 47/47/47 48/48/48
f 54/54/54 48/48/48 47/47/47
f 48/48/48 54/54/54 41/41/41
f 55/55/55 41/41/41 54/54/54
f 41/41/41 55/55/55 57/57/57
f 15/15/15 57/57/57 55/55/55
f 57/57/57 15/15/15 12/12/12
f 13/13/13 12/12/12 15/15/15
f 12/12/12 13/13/13 5/5/5
f 14/14/14 5/5/5 13/13/13
f 54/54/54 15/15/15 55/55/55
f 15/15/15 54/54/54 18/18/18
f 47/47/47 56/56/56 54/54/54
f 20/20/20 54/54/54 56/56/56
f 54/54/54 20/20/20 18/18/18
f 19/19/19 18/18/18 20/20/20
f 18/18/18 19/19/19 15/15/15
f 16/16/16 15/15/15 19/19/19
f 15/15/15 16/16/16 13/13/13
f 17/17/17 13/13/13 16/16/16
f 13/13/13 17/17/17 14/14/14
f 20/20/20 21/21/21 19/19/19
f 17/17/17 19/19/19 21/21/21
f 19/19/19 17/17/17 16/16/16
