mtllib TROLLHOLE02_HOLECAP46.mtl
g HoleCap46
usemtl Stalagcap
v 467.890594 -611.921021 -6991.745117
vn 0.028103 -0.933926 -0.356361
vt 0.496959 0.638621
v 532.195557 -613.661072 -6944.385254
vn 0.299041 -0.942749 -0.147644
vt 0.608884 0.620013
v 553.218811 -606.744934 -6824.155762
vn 0.267449 -0.961043 0.069772
vt 0.641847 0.507871
v 517.862854 -596.385559 -6703.195801
vn 0.030522 -0.993109 0.113149
vt 0.615743 0.390344
v 420.057678 -596.108887 -6738.689941
vn -0.056555 -0.991285 0.118979
vt 0.500884 0.349985
v 329.600403 -594.408752 -6771.944336
vn -0.135471 -0.987671 0.078446
vt 0.383995 0.391770
v 324.106262 -598.434204 -6887.942871
vn -0.318867 -0.946702 -0.045607
vt 0.351031 0.512231
v 371.401550 -597.819641 -6991.416992
vn -0.290827 -0.898600 -0.328540
vt 0.401034 0.615871
f 2/2/2 3/3/3 1/1/1
f 7/7/7 1/1/1 3/3/3
f 1/1/1 7/7/7 8/8/8
f 5/5/5 3/3/3 4/4/4
f 3/3/3 5/5/5 7/7/7
f 6/6/6 7/7/7 5/5/5
