mtllib TROLLHOLE02_PS-MAINSTALAG46.mtl
g Ps-MainStalag46
usemtl Stalag
v -327.165161 -679.823364 -5723.421387
vn -0.101030 -0.970391 -0.219396
vt 0.755013 0.999501
v -228.766953 -681.290405 -5726.968262
vn 0.022834 -0.962585 -0.270017
vt 0.874602 0.999501
v -223.886780 -708.257141 -5679.632813
vn 0.037951 -0.757909 -0.651255
vt 0.873766 0.915537
v -285.378326 -711.477722 -5665.925293
vn -0.364721 -0.770052 -0.523448
vt 0.752355 0.915537
v -120.520134 -680.479492 -5703.443359
vn 0.131927 -0.960303 -0.245789
vt 0.994191 0.999501
v -159.962143 -709.561707 -5660.277832
vn 0.363621 -0.788759 -0.495620
vt 0.994403 0.915537
v -189.020203 -761.856995 -5626.432129
vn 0.530793 -0.567928 -0.629060
vt 0.994615 0.831573
v -232.867493 -760.373535 -5640.591309
vn 0.036566 -0.514031 -0.856992
vt 0.872929 0.831573
v -275.129639 -762.335999 -5630.938477
vn -0.582414 -0.425738 -0.692489
vt 0.749211 0.758796
v -287.566895 -767.584717 -5596.995605
vn -0.990924 -0.130779 0.031089
vt 0.625801 0.758796
v -302.962280 -718.584778 -5621.376953
vn -0.784588 -0.619966 0.008046
vt 0.629399 0.915537
v -271.069641 -772.673828 -5561.040039
vn -0.680473 0.157537 0.715638
vt 0.502244 0.758796
v -278.575592 -725.053162 -5572.895020
vn -0.647297 -0.294662 0.702980
vt 0.505510 0.915537
v -309.245697 -698.165833 -5571.854004
vn -0.255217 -0.934591 0.247798
vt 0.505013 0.999501
v -347.378479 -691.171387 -5643.559082
vn -0.244549 -0.967394 -0.065916
vt 0.630013 0.999501
v -120.520134 -680.479492 -5703.443359
vn 0.131927 -0.960303 -0.245789
vt 0.003209 0.999501
v -73.512047 -691.592651 -5601.110352
vn 0.159296 -0.981027 -0.110499
vt 0.129111 0.999501
v -135.079453 -716.029968 -5605.640137
vn 0.601612 -0.790091 -0.117556
vt 0.130176 0.915537
v -159.962143 -709.561707 -5660.277832
vn 0.363621 -0.788759 -0.495620
vt 0.003422 0.915537
v -94.980423 -697.850220 -5527.985840
vn 0.104231 -0.985270 0.135567
vt 0.255013 0.999501
v -152.167374 -723.137024 -5554.936035
vn 0.449511 -0.712984 0.538139
vt 0.256334 0.915537
v -183.571899 -772.194763 -5553.457031
vn 0.639299 -0.192899 0.744370
vt 0.255273 0.758796
v -171.828827 -766.946045 -5588.936523
vn 0.855601 -0.508801 -0.095231
vt 0.129719 0.758796
v -189.020203 -761.856995 -5626.432129
vn 0.530793 -0.567928 -0.629060
vt 0.003634 0.831573
v -199.335358 -700.216736 -5525.781738
vn -0.080819 -0.919213 0.385377
vt 0.380013 0.999501
v -214.154984 -726.357605 -5547.384766
vn -0.129061 -0.296975 0.946123
vt 0.381300 0.915537
v -226.528290 -774.157288 -5545.342285
vn -0.071250 0.167591 0.983279
vt 0.379092 0.758796
v -277.691925 -848.431152 -5595.024902
vn -0.630251 -0.195857 -0.751281
vt 0.742386 0.456503
v -288.986603 -851.208740 -5567.335449
vn -0.991773 0.120126 -0.044231
vt 0.616235 0.456503
v -297.622833 -948.538391 -5565.093262
vn -0.633945 0.021338 -0.773084
vt 0.734012 0.081433
v -311.334320 -949.232849 -5534.181152
vn -0.945228 0.298196 -0.132754
vt 0.611831 0.095510
v -306.299133 -949.927246 -5499.464355
vn -0.703194 0.511661 0.493682
vt 0.473356 0.081433
v -279.617584 -853.986389 -5537.244629
vn -0.683960 0.348585 0.640849
vt 0.491452 0.456503
v -247.422363 -854.912231 -5524.014648
vn -0.100104 0.342338 0.934229
vt 0.369891 0.456503
v -215.345703 -853.986389 -5530.044922
vn 0.668582 0.029618 0.743048
vt 0.248998 0.456503
v -277.344574 -950.158691 -5482.815918
vn -0.138758 0.514708 0.846062
vt 0.357194 0.081433
v -246.638580 -949.927246 -5488.043945
vn 0.668846 0.170681 0.723542
vt 0.241032 0.081433
v -206.331528 -851.208740 -5557.734375
vn 0.940997 -0.336907 -0.031896
vt 0.126221 0.456503
v -217.981232 -848.431152 -5587.824219
vn 0.636110 -0.439970 -0.633869
vt 0.002502 0.456503
v -236.348099 -949.232849 -5518.954590
vn 0.966688 -0.252371 0.042709
vt 0.124585 0.095510
v -244.804169 -948.538391 -5553.672852
vn 0.748913 -0.354660 -0.559772
vt 0.001370 0.081433
v -247.895752 -847.505310 -5601.054688
vn 0.098402 -0.380036 -0.919723
vt 0.868056 0.456503
v -217.981232 -848.431152 -5587.824219
vn 0.636110 -0.439970 -0.633869
vt 0.993483 0.456503
v -244.804169 -948.538391 -5553.672852
vn 0.748913 -0.354660 -0.559772
vt 0.992351 0.081433
v -270.337708 -948.306946 -5570.321289
vn 0.178890 -0.258040 -0.949428
vt 0.863182 0.081433
v -460.150360 -1174.517456 -5279.598145
vn -0.144575 0.987580 0.061520
vt 0.743599 0.999501
v -382.013702 -1173.919189 -5220.162598
vn -0.020653 0.993956 0.107818
vt 0.869969 0.999501
v -365.762085 -1154.768311 -5294.410645
vn -0.071761 0.915575 0.395692
vt 0.869888 0.926612
v -431.361176 -1154.768311 -5342.250977
vn -0.462072 0.860415 0.214885
vt 0.744007 0.926612
v -270.889862 -1176.757568 -5232.058594
vn 0.148019 0.981855 0.118542
vt 0.996339 0.999501
v -291.459229 -1154.768311 -5316.139648
vn 0.395757 0.851843 0.343132
vt 0.996170 0.926612
v -294.961884 -1114.410767 -5369.694824
vn 0.613301 0.548359 0.568475
vt 0.996002 0.853724
v -351.154175 -1114.410767 -5353.523926
vn -0.091670 0.771541 0.629540
vt 0.869806 0.853724
v -401.235504 -1114.410767 -5388.882324
vn -0.606428 0.728638 0.318326
vt 0.743617 0.777169
v -409.402039 -1114.410767 -5469.376953
vn -0.819485 0.561879 -0.112860
vt 0.618250 0.777169
v -441.622528 -1154.768311 -5450.958984
vn -0.615890 0.784945 -0.067387
vt 0.618930 0.926612
v -382.333771 -1114.410767 -5543.476074
vn -0.605588 0.390093 -0.693607
vt 0.493688 0.777169
v -405.250031 -1154.768311 -5550.963379
vn -0.407462 0.799049 -0.442148
vt 0.494332 0.926612
v -454.281921 -1176.578979 -5629.728027
vn -0.081544 0.992284 -0.093396
vt 0.493599 0.999501
v -488.973267 -1175.197266 -5453.701172
vn -0.182563 0.983171 -0.006735
vt 0.618599 0.999501
v -270.889862 -1176.757568 -5232.058594
vn 0.148019 0.981855 0.118542
vt 0.001543 0.999501
v -223.269180 -1174.252563 -5395.349609
vn 0.249367 0.968211 0.019580
vt 0.122571 0.999501
v -255.086700 -1154.768311 -5416.143555
vn 0.751422 0.655568 0.074812
vt 0.123472 0.926612
v -291.459229 -1154.768311 -5316.139648
vn 0.395757 0.851843 0.343132
vt 0.001428 0.926612
v -241.967133 -1175.761719 -5554.687988
vn 0.213740 0.969913 -0.116553
vt 0.243599 0.999501
v -265.347870 -1154.768311 -5524.851074
vn 0.698752 0.605036 -0.381677
vt 0.246097 0.926612
v -277.200348 -1114.410767 -5524.289551
vn 0.861093 0.033485 -0.507344
vt 0.246990 0.777169
v -268.464142 -1114.410767 -5443.794434
vn 0.980824 0.159938 0.111373
vt 0.124174 0.777169
v -294.961884 -1114.410767 -5369.694824
vn 0.613301 0.548359 0.568475
vt 0.001312 0.853724
v -336.425354 -1172.783813 -5604.654297
vn 0.082138 0.972283 -0.218905
vt 0.368599 0.999501
v -330.947174 -1154.768311 -5572.692383
vn 0.175698 0.659084 -0.731258
vt 0.369886 0.926612
v -326.711700 -1114.410767 -5559.647949
vn 0.169409 0.131250 -0.976767
vt 0.370048 0.777169
v -353.193481 -1041.432861 -5445.647461
vn -0.666865 0.643191 0.376293
vt 0.742315 0.474617
v -358.722687 -1041.432861 -5499.323242
vn -0.868259 0.480104 -0.125007
vt 0.615547 0.474617
v -306.299133 -949.927246 -5499.464355
vn -0.703194 0.511661 0.493682
vt 0.740926 0.095510
v -297.622833 -948.538391 -5565.093262
vn -0.633945 0.021338 -0.773084
vt 0.482737 0.095510
v -339.480865 -1041.432861 -5548.048340
vn -0.626455 0.232061 -0.744112
vt 0.490290 0.474617
v -301.559021 -1041.432861 -5557.688477
vn 0.175857 -0.120937 -0.976959
vt 0.367961 0.474617
v -267.448151 -1041.432861 -5533.194824
vn 0.830075 -0.241649 -0.502574
vt 0.246658 0.474617
v -270.337708 -948.306946 -5570.321289
vn 0.178890 -0.258040 -0.949428
vt 0.364749 0.095510
v -244.804169 -948.538391 -5553.672852
vn 0.748913 -0.354660 -0.559772
vt 0.246761 0.095510
v -259.638428 -1041.432861 -5479.519043
vn 0.986963 -0.133970 0.089199
vt 0.124479 0.474617
v -276.599426 -1041.432861 -5430.794922
vn 0.672813 0.297836 0.677212
vt 0.001860 0.474617
v -246.638580 -949.927246 -5488.043945
vn 0.668846 0.170681 0.723542
vt 0.002408 0.095510
v -316.801758 -1041.432861 -5421.154785
vn -0.114847 0.641945 0.758101
vt 0.869177 0.474617
v -276.599426 -1041.432861 -5430.794922
vn 0.672813 0.297836 0.677212
vt 0.996085 0.474617
v -246.638580 -949.927246 -5488.043945
vn 0.668846 0.170681 0.723542
vt 0.996168 0.095510
v -277.344574 -950.158691 -5482.815918
vn -0.138758 0.514708 0.846062
vt 0.868547 0.095510
f 18/18/18 17/17/17 20/20/20
f 17/17/17 18/18/18 16/16/16
f 19/19/19 16/16/16 18/18/18
f 18/18/18 24/24/24 19/19/19
f 24/24/24 18/18/18 23/23/23
f 22/22/22 23/23/23 18/18/18
f 23/23/23 22/22/22 38/38/38
f 38/38/38 24/24/24 23/23/23
f 24/24/24 38/38/38 39/39/39
f 41/41/41 39/39/39 38/38/38
f 38/38/38 40/40/40 41/41/41
f 21/21/21 18/18/18 20/20/20
f 18/18/18 21/21/21 22/22/22
f 26/26/26 22/22/22 21/21/21
f 22/22/22 26/26/26 27/27/27
f 26/26/26 25/25/25 14/14/14
f 25/25/25 26/26/26 20/20/20
f 21/21/21 20/20/20 26/26/26
f 11/11/11 15/15/15 1/1/1
f 15/15/15 11/11/11 14/14/14
f 13/13/13 14/14/14 11/11/11
f 14/14/14 13/13/13 26/26/26
f 12/12/12 26/26/26 13/13/13
f 26/26/26 12/12/12 27/27/27
f 34/34/34 27/27/27 12/12/12
f 27/27/27 34/34/34 22/22/22
f 35/35/35 22/22/22 34/34/34
f 22/22/22 35/35/35 38/38/38
f 37/37/37 38/38/38 35/35/35
f 38/38/38 37/37/37 40/40/40
f 37/37/37 35/35/35 34/34/34
f 12/12/12 33/33/33 34/34/34
f 29/29/29 12/12/12 10/10/10
f 12/12/12 29/29/29 33/33/33
f 32/32/32 33/33/33 29/29/29
f 33/33/33 32/32/32 34/34/34
f 36/36/36 34/34/34 32/32/32
f 34/34/34 36/36/36 37/37/37
f 29/29/29 31/31/31 32/32/32
f 31/31/31 29/29/29 30/30/30
f 11/11/11 12/12/12 13/13/13
f 12/12/12 11/11/11 10/10/10
f 9/9/9 10/10/10 11/11/11
f 10/10/10 9/9/9 29/29/29
f 28/28/28 29/29/29 9/9/9
f 29/29/29 28/28/28 30/30/30
f 42/42/42 30/30/30 28/28/28
f 30/30/30 42/42/42 45/45/45
f 44/44/44 45/45/45 42/42/42
f 9/9/9 42/42/42 28/28/28
f 42/42/42 9/9/9 8/8/8
f 4/4/4 11/11/11 1/1/1
f 11/11/11 4/4/4 9/9/9
f 3/3/3 9/9/9 4/4/4
f 9/9/9 3/3/3 8/8/8
f 7/7/7 8/8/8 3/3/3
f 8/8/8 7/7/7 42/42/42
f 43/43/43 42/42/42 7/7/7
f 42/42/42 43/43/43 44/44/44
f 3/3/3 2/2/2 5/5/5
f 2/2/2 3/3/3 1/1/1
f 4/4/4 1/1/1 3/3/3
f 3/3/3 6/6/6 7/7/7
f 6/6/6 3/3/3 5/5/5
f 62/62/62 65/65/65 63/63/63
f 66/66/66 63/63/63 65/65/65
f 63/63/63 66/66/66 67/67/67
f 71/71/71 67/67/67 66/66/66
f 67/67/67 71/71/71 72/72/72
f 57/57/57 72/72/72 71/71/71
f 72/72/72 57/57/57 78/78/78
f 77/77/77 78/78/78 57/57/57
f 78/78/78 77/77/77 76/76/76
f 74/74/74 76/76/76 77/77/77
f 76/76/76 74/74/74 31/31/31
f 75/75/75 31/31/31 74/74/74
f 78/78/78 67/67/67 72/72/72
f 67/67/67 78/78/78 79/79/79
f 71/71/71 70/70/70 59/59/59
f 70/70/70 71/71/71 65/65/65
f 66/66/66 65/65/65 71/71/71
f 63/63/63 61/61/61 62/62/62
f 61/61/61 63/63/63 64/64/64
f 76/76/76 80/80/80 78/78/78
f 81/81/81 78/78/78 80/80/80
f 78/78/78 81/81/81 79/79/79
f 82/82/82 79/79/79 81/81/81
f 79/79/79 82/82/82 67/67/67
f 68/68/68 67/67/67 82/82/82
f 67/67/67 68/68/68 63/63/63
f 69/69/69 63/63/63 68/68/68
f 63/63/63 69/69/69 64/64/64
f 82/82/82 69/69/69 68/68/68
f 69/69/69 82/82/82 83/83/83
f 82/82/82 84/84/84 83/83/83
f 84/84/84 82/82/82 40/40/40
f 81/81/81 40/40/40 82/82/82
f 74/74/74 55/55/55 54/54/54
f 48/48/48 53/53/53 54/54/54
f 48/48/48 46/46/46 47/47/47
f 46/46/46 48/48/48 49/49/49
f 54/54/54 49/49/49 48/48/48
f 49/49/49 54/54/54 56/56/56
f 55/55/55 56/56/56 54/54/54
f 56/56/56 55/55/55 57/57/57
f 74/74/74 57/57/57 55/55/55
f 57/57/57 74/74/74 77/77/77
f 46/46/46 49/49/49 56/56/56
f 48/48/48 47/47/47 50/50/50
f 57/57/57 58/58/58 56/56/56
f 57/57/57 71/71/71 58/58/58
f 59/59/59 58/58/58 71/71/71
f 58/58/58 59/59/59 56/56/56
f 60/60/60 56/56/56 59/59/59
f 56/56/56 60/60/60 46/46/46
f 75/75/75 74/74/74 73/73/73
f 54/54/54 73/73/73 74/74/74
f 73/73/73 54/54/54 85/85/85
f 53/53/53 85/85/85 54/54/54
f 85/85/85 53/53/53 52/52/52
f 48/48/48 52/52/52 53/53/53
f 52/52/52 48/48/48 51/51/51
f 50/50/50 51/51/51 48/48/48
f 85/85/85 75/75/75 73/73/73
f 75/75/75 85/85/85 88/88/88
f 87/87/87 88/88/88 85/85/85
f 85/85/85 86/86/86 87/87/87
f 86/86/86 85/85/85 52/52/52
