mtllib TROLLHOLE02_RM_FALL_ROCK09.mtl
g RM_fall_rock09
usemtl lVL_roast_m_ground03
v 563.796692 -892.082031 -20240.869141
vn 0.048560 0.960275 -0.274799
vt 1.521059 0.655978
v 466.610413 -893.327026 -20234.953125
vn -0.227801 0.973690 -0.005904
vt 1.449997 0.072299
v 488.795990 -893.628540 -20161.652344
vn -0.056525 0.974350 0.217825
vt 0.569530 0.205541
v 575.368042 -894.415344 -20182.960938
vn 0.177968 0.962951 0.202614
vt 0.825473 0.725473
v 608.390564 -893.559204 -20224.308594
vn 0.255470 0.939938 -0.226388
vt 1.322141 0.923799
v 562.531738 -913.605652 -20249.566406
vn 0.148254 -0.009096 -0.988908
vt 0.867211 0.404118
v 561.577759 -928.619019 -20246.906250
vn 0.152939 -0.578518 -0.801203
vt 0.864123 0.713542
v 447.998383 -928.613098 -20249.570313
vn 0.019606 -0.149319 -0.988595
vt 1.390099 0.713421
v 443.605927 -913.613342 -20251.498047
vn 0.016245 0.000000 -0.999868
vt 1.391618 0.404278
v 443.605927 -913.613342 -20251.498047
vn -0.943323 0.007468 0.331792
vt 1.391618 0.404278
v 447.998383 -928.613098 -20249.570313
vn -0.687941 -0.723891 0.052144
vt 1.390099 0.713421
v 482.032776 -928.606445 -20152.070313
vn -0.278815 -0.616485 0.736348
vt 1.807863 0.713284
v 479.504547 -913.609436 -20149.433594
vn -0.943238 0.015427 0.331758
vt 1.808791 0.404197
v 479.504547 -913.609436 -20149.433594
vn 0.198347 0.003951 0.980124
vt -0.271209 0.404197
v 482.032776 -928.606445 -20152.070313
vn -0.278815 -0.616485 0.736348
vt -0.272137 0.713284
v 579.769531 -928.605652 -20171.968750
vn 0.424020 -0.567934 0.705449
vt 0.332178 0.713267
v 581.773743 -913.605530 -20170.128906
vn 0.639693 0.000001 0.768631
vt 0.329393 0.404117
v 620.992004 -928.605652 -20227.818359
vn 0.701034 -0.686715 -0.192289
vt 0.620156 0.713267
v 624.997314 -913.605530 -20228.689453
vn 0.804573 0.000001 0.593854
vt 0.618893 0.404117
v 624.997314 -913.605530 -20228.689453
vn 0.312683 -0.061352 -0.947874
vt 0.618893 0.404117
v 497.847076 -934.468018 -20162.167969
vn -0.232728 -0.906789 0.351528
vt 0.575719 0.259899
v 454.986420 -936.812500 -20241.726563
vn -0.279471 -0.943833 -0.176284
vt 1.531343 0.002488
v 547.950745 -942.492859 -20211.656250
vn 0.090752 -0.994738 -0.047536
vt 1.170160 0.560811
v 447.998383 -928.613098 -20249.570313
vn -0.687941 -0.723891 0.052144
vt 1.625566 -0.039480
v 561.577759 -928.619019 -20246.906250
vn 0.152939 -0.578518 -0.801203
vt 1.593576 0.642652
v 482.032776 -928.606445 -20152.070313
vn -0.278815 -0.616485 0.736348
vt 0.454434 0.164922
v 577.796814 -935.010681 -20182.363281
vn 0.229371 -0.898598 0.374046
vt 0.818301 0.740060
v 579.769531 -928.605652 -20171.968750
vn 0.424020 -0.567934 0.705449
vt 0.693450 0.751907
v 598.336060 -931.803894 -20209.083984
vn 0.335375 -0.924228 0.182553
vt 1.139253 0.863414
v 620.992004 -928.605652 -20227.818359
vn 0.701034 -0.686715 -0.192289
vt 1.364290 0.999480
v 447.998383 -898.613098 -20249.570313
vn -0.090644 0.705877 -0.702511
vt 1.625566 -0.039480
v 561.258911 -898.592468 -20248.548828
vn 0.450149 0.655710 -0.606144
vt 1.613286 0.640737
v 482.437256 -898.612305 -20152.390625
vn 0.451704 0.743757 0.492735
vt 0.458291 0.167352
v 579.769531 -898.605652 -20171.968750
vn 0.334213 0.615426 0.713829
vt 0.693450 0.751907
v 620.992004 -898.605652 -20227.818359
vn 0.503102 0.805703 0.312620
vt 1.364290 0.999480
v 447.998383 -898.613098 -20249.570313
vn -0.090644 0.705877 -0.702511
vt 1.390099 0.095124
v 561.258911 -898.592468 -20248.548828
vn 0.450149 0.655710 -0.606144
vt 0.870816 0.094699
v 620.992004 -898.605652 -20227.818359
vn 0.503102 0.805703 0.312620
vt 0.620156 0.094971
v 482.437256 -898.612305 -20152.390625
vn -0.916611 0.234738 0.323609
vt 1.808050 0.095107
v 447.998383 -898.613098 -20249.570313
vn -0.917958 0.226998 0.325308
vt 1.390099 0.095124
v 579.769531 -898.605652 -20171.968750
vn 0.334213 0.615426 0.713829
vt 0.332178 0.094971
v 482.437256 -898.612305 -20152.390625
vn 0.451704 0.743757 0.492735
vt -0.271950 0.095107
f 10/10/10 11/11/11 12/12/12
f 12/12/12 13/13/13 10/10/10
f 39/39/39 10/10/10 13/13/13
f 10/10/10 39/39/39 40/40/40
f 26/26/26 27/27/27 28/28/28
f 27/27/27 26/26/26 21/21/21
f 24/24/24 21/21/21 26/26/26
f 21/21/21 24/24/24 22/22/22
f 25/25/25 22/22/22 24/24/24
f 22/22/22 25/25/25 23/23/23
f 30/30/30 23/23/23 25/25/25
f 23/23/23 30/30/30 29/29/29
f 30/30/30 28/28/28 29/29/29
f 27/27/27 29/29/29 28/28/28
f 29/29/29 27/27/27 23/23/23
f 21/21/21 23/23/23 27/27/27
f 23/23/23 21/21/21 22/22/22
f 34/34/34 3/3/3 33/33/33
f 3/3/3 34/34/34 4/4/4
f 35/35/35 4/4/4 34/34/34
f 4/4/4 35/35/35 5/5/5
f 32/32/32 5/5/5 35/35/35
f 5/5/5 32/32/32 1/1/1
f 31/31/31 1/1/1 32/32/32
f 1/1/1 31/31/31 2/2/2
f 31/31/31 33/33/33 2/2/2
f 3/3/3 2/2/2 33/33/33
f 2/2/2 3/3/3 1/1/1
f 4/4/4 1/1/1 3/3/3
f 1/1/1 4/4/4 5/5/5
f 8/8/8 9/9/9 6/6/6
f 36/36/36 6/6/6 9/9/9
f 6/6/6 36/36/36 37/37/37
f 6/6/6 7/7/7 8/8/8
f 18/18/18 7/7/7 20/20/20
f 6/6/6 20/20/20 7/7/7
f 20/20/20 6/6/6 38/38/38
f 37/37/37 38/38/38 6/6/6
f 18/18/18 19/19/19 17/17/17
f 38/38/38 17/17/17 19/19/19
f 17/17/17 38/38/38 41/41/41
f 17/17/17 16/16/16 18/18/18
f 16/16/16 17/17/17 14/14/14
f 41/41/41 14/14/14 17/17/17
f 14/14/14 41/41/41 42/42/42
f 14/14/14 15/15/15 16/16/16
