mtllib TROLLHOLE02_RM_PSURF188.mtl
g RM_Psurf188
usemtl Lvl_roast_m_largebolders
v -1253.907837 -789.028381 -21346.765625
vn -0.742171 -0.152617 0.652603
vt 2.546557 -1.811368
v -1249.379639 -717.393799 -21367.031250
vn -0.696824 0.695383 0.175724
vt 2.580452 -1.720672
v -1258.729614 -776.853455 -21478.705078
vn -0.930538 0.129993 -0.342347
vt 2.881264 -1.316847
v -1033.360840 -755.028503 -21747.357422
vn -0.572433 0.251703 -0.780363
vt 2.780928 0.347978
v -1129.173828 -772.648926 -21688.558594
vn -0.775575 0.202738 -0.597814
vt 2.957430 -0.146439
v -1062.298340 -646.192505 -21663.369141
vn -0.659073 0.636991 -0.399831
vt 2.674270 -0.056349
v -960.225891 -660.147278 -21763.787109
vn -0.627312 0.364352 -0.688279
vt 2.577483 0.615823
v -1110.326416 -817.224670 -21300.136719
vn -0.609003 -0.071837 0.789908
vt 1.956617 -1.589248
v -1145.064941 -719.204102 -21267.234375
vn -0.642518 -0.056090 0.764215
vt 1.992633 -1.813107
v -1160.640747 -921.703247 -21509.271484
vn -0.935653 -0.154451 -0.317331
vt 2.629004 -0.924771
v -1193.333862 -873.424805 -21499.083984
vn -0.863960 -0.285327 -0.414923
vt 2.713082 -1.055450
v -1161.654663 -866.684204 -21607.427734
vn -0.970302 -0.017792 -0.241241
vt 2.869450 -0.549681
v -1162.844238 -925.426819 -21629.767578
vn -0.973715 -0.056582 -0.220631
vt 2.927364 -0.466992
v -1219.961914 -945.075073 -21416.482422
vn -0.970148 -0.241972 0.016206
vt 2.602098 -1.447974
v -1231.276123 -893.064697 -21393.246094
vn -0.950633 -0.242385 0.193768
vt 2.583587 -1.569093
v -1115.150146 -1099.520508 -21640.390625
vn -0.898867 -0.167846 -0.404803
vt 2.794468 -0.292671
v -1162.138306 -1077.735596 -21548.601563
vn -0.912791 0.019888 -0.407943
vt 2.728979 -0.777524
v -1183.958618 -1110.919189 -21417.232422
vn -0.935084 -0.204309 0.289614
vt 2.484222 -1.344370
v -999.283020 -793.860107 -21170.757813
vn -0.720602 -0.240162 0.650427
vt 1.274978 -1.776761
v -1041.780151 -702.065247 -21144.042969
vn -0.641742 -0.472828 0.603822
vt 1.351730 -1.998501
v -1242.592041 -841.046509 -21370.005859
vn -0.858897 -0.329843 0.391790
vt 2.565072 -1.690231
v -1130.739868 -851.346008 -21307.656250
vn -0.612700 0.078517 0.786405
vt 2.042641 -1.617399
v -1093.529541 -1081.941895 -21325.414063
vn -0.691479 -0.280019 0.665918
vt 1.961831 -1.444935
v -1171.572876 -919.598999 -21322.697266
vn -0.736129 -0.164428 0.656565
vt 2.214715 -1.673711
v -1110.326416 -817.224670 -21300.136719
vn -0.609003 -0.071837 0.789908
vt 1.956617 -1.589248
v -1130.739868 -851.346008 -21307.656250
vn -0.612700 0.078517 0.786405
vt 2.042641 -1.617399
v -1026.945923 -834.040955 -21189.958984
vn -0.748080 0.251209 0.614223
vt 1.413319 -1.780210
v -999.283020 -793.860107 -21170.757813
vn -0.720602 -0.240162 0.650427
vt 1.274978 -1.776761
v -999.389160 -1091.026367 -21254.798828
vn -0.624501 -0.350889 0.697765
vt 1.478317 -1.453474
v -1082.279907 -914.414734 -21228.371094
vn -0.733011 0.025066 0.679755
vt 1.690044 -1.787108
v -1159.275635 -749.207642 -21562.750000
vn -0.827127 0.348763 -0.440709
vt 2.753632 -0.715046
v -1140.397217 -685.928162 -21461.207031
vn -0.455467 0.874935 -0.164436
vt 2.445618 -1.053201
v -1075.185669 -657.147461 -21336.316406
vn -0.191515 0.978207 0.080206
vt 1.927183 -1.351641
v -968.766357 -647.288452 -21561.025391
vn -0.139633 0.989693 0.031793
vt 2.116141 -0.188760
v -1130.380127 -819.464355 -21692.566406
vn -0.776776 0.073554 -0.625467
vt 2.971119 -0.134384
v -1160.465088 -807.941528 -21585.085938
vn -0.930305 0.045888 -0.363905
vt 2.811537 -0.632370
v -1028.130859 -813.294312 -21746.722656
vn -0.469392 0.018010 -0.882806
vt 2.762008 0.360163
v -1132.793213 -913.109131 -21700.582031
vn -0.651163 -0.094630 -0.753015
vt 2.998502 -0.110271
v -1050.213257 -1097.641846 -21707.703125
vn -0.737605 -0.103207 -0.667298
vt 2.741175 0.148155
v -1017.671692 -929.817017 -21745.453125
vn -0.632264 -0.016669 -0.774574
vt 2.724171 0.384533
v -1030.242065 -1110.103271 -21792.998047
vn -0.960795 0.131380 -0.244157
vt 2.880796 0.532432
v -1075.185669 -657.147461 -21336.316406
vn -0.191515 0.978207 0.080206
vt 1.927183 -1.351641
v -930.736755 -664.134277 -21300.275391
vn 0.025212 0.995447 0.091923
vt 1.359927 -1.086334
v -837.821960 -648.594360 -21494.042969
vn 0.007595 0.997821 0.065539
vt 1.519053 -0.080354
v -837.821960 -648.594360 -21494.042969
vn 0.007595 0.997821 0.065539
vt 1.519053 -0.080354
v -968.766357 -647.288452 -21561.025391
vn -0.139633 0.989693 0.031793
vt 2.116141 -0.188760
v -1075.185669 -657.147461 -21336.316406
vn -0.191515 0.978207 0.080206
vt 1.927183 -1.351641
v -1226.031738 -825.139160 -21488.894531
vn -0.846046 -0.271706 -0.458675
vt 2.797173 -1.186149
v -1022.900879 -871.560059 -21746.087891
vn -0.398789 -0.000713 -0.917043
vt 2.743088 0.372349
v -1131.586670 -866.286743 -21696.574219
vn -0.783140 0.079197 -0.616782
vt 2.984810 -0.122328
v -1151.156372 -885.472534 -21315.175781
vn -0.683456 0.120260 0.720018
vt 2.128678 -1.645555
v -1054.612915 -874.227844 -21209.166016
vn -0.735817 0.235189 0.635028
vt 1.551682 -1.783659
v -1026.945923 -834.040955 -21189.958984
vn -0.748080 0.251209 0.614223
vt 1.413319 -1.780210
f 42/42/42 43/43/43 44/44/44
f 4/4/4 6/6/6 7/7/7
f 6/6/6 4/4/4 5/5/5
f 37/37/37 5/5/5 4/4/4
f 5/5/5 37/37/37 35/35/35
f 50/50/50 35/35/35 37/37/37
f 35/35/35 50/50/50 36/36/36
f 12/12/12 36/36/36 50/50/50
f 36/36/36 12/12/12 11/11/11
f 10/10/10 11/11/11 12/12/12
f 11/11/11 10/10/10 14/14/14
f 17/17/17 14/14/14 10/10/10
f 14/14/14 17/17/17 18/18/18
f 13/13/13 12/12/12 50/50/50
f 12/12/12 13/13/13 10/10/10
f 16/16/16 10/10/10 13/13/13
f 10/10/10 16/16/16 17/17/17
f 16/16/16 13/13/13 38/38/38
f 50/50/50 38/38/38 13/13/13
f 38/38/38 50/50/50 49/49/49
f 37/37/37 49/49/49 50/50/50
f 38/38/38 39/39/39 16/16/16
f 39/39/39 38/38/38 40/40/40
f 49/49/49 40/40/40 38/38/38
f 40/40/40 41/41/41 39/39/39
f 33/33/33 34/34/34 32/32/32
f 6/6/6 32/32/32 34/34/34
f 32/32/32 6/6/6 31/31/31
f 5/5/5 31/31/31 6/6/6
f 31/31/31 5/5/5 36/36/36
f 35/35/35 36/36/36 5/5/5
f 9/9/9 33/33/33 2/2/2
f 32/32/32 2/2/2 33/33/33
f 2/2/2 32/32/32 3/3/3
f 31/31/31 3/3/3 32/32/32
f 3/3/3 31/31/31 48/48/48
f 36/36/36 48/48/48 31/31/31
f 48/48/48 36/36/36 11/11/11
f 9/9/9 2/2/2 1/1/1
f 3/3/3 1/1/1 2/2/2
f 1/1/1 3/3/3 21/21/21
f 48/48/48 21/21/21 3/3/3
f 21/21/21 48/48/48 15/15/15
f 11/11/11 15/15/15 48/48/48
f 15/15/15 11/11/11 14/14/14
f 18/18/18 23/23/23 14/14/14
f 24/24/24 14/14/14 23/23/23
f 14/14/14 24/24/24 15/15/15
f 51/51/51 15/15/15 24/24/24
f 15/15/15 51/51/51 21/21/21
f 22/22/22 21/21/21 51/51/51
f 21/21/21 22/22/22 1/1/1
f 8/8/8 1/1/1 22/22/22
f 1/1/1 8/8/8 9/9/9
f 19/19/19 9/9/9 8/8/8
f 9/9/9 19/19/19 20/20/20
f 53/53/53 22/22/22 52/52/52
f 51/51/51 52/52/52 22/22/22
f 52/52/52 51/51/51 30/30/30
f 24/24/24 30/30/30 51/51/51
f 30/30/30 24/24/24 29/29/29
f 23/23/23 29/29/29 24/24/24
f 27/27/27 25/25/25 26/26/26
f 25/25/25 27/27/27 28/28/28
f 45/45/45 46/46/46 47/47/47
