mtllib TROLLHOLE02_HOLECAP145.mtl
g HoleCap145
usemtl Stalagcap
v -11021.961914 243.676743 -8461.853516
vn -0.337305 0.919895 -0.200045
vt 0.496959 0.638621
v -11090.316406 234.125610 -8294.190430
vn -0.412942 0.906001 0.092958
vt 0.608884 0.620013
v -10963.940430 243.119720 -8217.544922
vn -0.019963 0.999775 0.007107
vt 0.641847 0.507871
v -10862.670898 242.984406 -8224.239258
vn 0.119795 0.967892 0.220985
vt 0.615743 0.390344
v -10780.654297 243.064987 -8352.641602
vn 0.277514 0.954932 0.105310
vt 0.500884 0.349985
v -10745.171875 237.345322 -8502.895508
vn 0.087816 0.995989 -0.017177
vt 0.383995 0.391770
v -10823.044922 243.618698 -8537.259766
vn 0.153481 0.942181 -0.297892
vt 0.351031 0.512231
v -10911.381836 237.671066 -8585.570313
vn -0.083485 0.956822 -0.278428
vt 0.401034 0.615871
f 2/2/2 3/3/3 1/1/1
f 7/7/7 1/1/1 3/3/3
f 1/1/1 7/7/7 8/8/8
f 5/5/5 3/3/3 4/4/4
f 3/3/3 5/5/5 7/7/7
f 6/6/6 7/7/7 5/5/5
