mtllib TROLLHOLE02_HOLECAP185.mtl
g HoleCap185
usemtl Stalagcap
v -6295.735352 1298.167236 -10701.453125
vn -0.173471 -0.892724 0.415875
vt 0.496959 0.638621
v -6348.467285 1307.392334 -10712.553711
vn -0.393550 -0.885361 0.247496
vt 0.608884 0.620013
v -6356.204102 1303.415894 -10761.783203
vn -0.545623 -0.837628 -0.025998
vt 0.641847 0.507871
v -6324.992676 1296.754639 -10806.540039
vn -0.422121 -0.813576 -0.399885
vt 0.615743 0.390344
v -6262.278809 1281.486328 -10810.799805
vn -0.122266 -0.915256 -0.383871
vt 0.500884 0.349985
v -6215.817871 1276.802612 -10794.900391
vn 0.102595 -0.989326 -0.103481
vt 0.383995 0.391770
v -6204.463867 1283.596924 -10742.520508
vn -0.125286 -0.981855 0.142353
vt 0.351031 0.512231
v -6232.476563 1296.299683 -10690.461914
vn -0.064248 -0.976902 0.203800
vt 0.401034 0.615871
f 2/2/2 3/3/3 1/1/1
f 7/7/7 1/1/1 3/3/3
f 1/1/1 7/7/7 8/8/8
f 5/5/5 3/3/3 4/4/4
f 3/3/3 5/5/5 7/7/7
f 6/6/6 7/7/7 5/5/5
