mtllib TROLLHOLE02_BOX322.mtl
g Box322
usemtl Lvl_roast_m_largebolders
v -6597.365723 -1988.201294 -15925.903320
vn -0.019604 -0.707735 0.706206
vt 2.823294 -0.044553
v -6588.059082 -1901.973877 -15884.920898
vn 0.116531 -0.083055 0.989708
vt 2.998501 -0.048235
v -6744.149902 -1902.991821 -15960.651367
vn -0.444826 -0.068872 0.892965
vt 2.559273 0.486548
v -6744.300781 -1988.201294 -15960.620117
vn -0.504113 -0.555494 0.661284
vt 2.559273 0.487145
v -6304.985840 -1988.201294 -16283.442383
vn 0.637754 -0.760755 -0.120507
vt 1.605350 -1.432497
v -6175.621582 -1883.007446 -16295.881836
vn 0.858934 -0.468004 -0.207859
vt 1.662070 -1.933873
v -6188.528320 -1899.267090 -16154.851563
vn 0.774803 -0.551694 0.308730
vt 2.227635 -1.775740
v -6288.988770 -1988.201294 -16182.135742
vn 0.654568 -0.661982 0.365130
vt 2.032623 -1.414959
v -6582.278320 -2004.026611 -16539.138672
vn 0.064646 -0.524135 -0.849178
vt 0.329959 -0.576172
v -6584.954102 -1839.083008 -16618.974609
vn -0.151280 -0.098830 -0.983538
vt 0.001499 -0.627745
v -6445.186523 -1834.874756 -16647.410156
vn 0.432984 -0.446559 -0.783013
vt 0.001499 -1.181038
v -6550.875000 -2004.026611 -16526.857422
vn 0.491226 -0.551944 -0.673836
vt 0.406256 -0.686049
v -6743.094238 -1816.600098 -15960.866211
vn -0.460506 0.448469 0.766035
vt 2.559273 0.482368
v -6727.763672 -1776.975464 -16054.577148
vn -0.355132 0.767806 0.533249
vt 2.189081 0.351616
v -6838.064941 -1829.066284 -16025.734375
vn -0.581381 0.438649 0.685261
vt 2.215244 0.793213
v -6403.987793 -1622.297974 -16616.156250
vn 0.267979 0.359762 -0.893733
vt 0.163464 -1.313477
v -6362.583496 -1590.478516 -16549.099609
vn 0.390039 0.837966 -0.381684
vt 0.471904 -1.419006
v -6296.081055 -1636.728027 -16557.271484
vn 0.702997 0.228537 -0.673473
vt 0.493802 -1.678123
v -6174.413086 -1806.090088 -16160.754883
vn 0.900803 0.020800 0.433729
vt 2.215245 -1.833962
v -6217.029785 -1651.093994 -16124.353516
vn 0.522757 0.536938 0.662135
vt 2.328565 -1.643809
v -6319.543457 -1789.645996 -16047.038086
vn 0.380851 0.180652 0.906817
vt 2.559273 -1.194327
v -6589.946289 -1808.458008 -15927.413086
vn 0.249724 0.467886 0.847774
vt 2.823294 -0.073924
v -6538.062012 -1644.536743 -16059.039063
vn -0.055165 0.706922 0.705137
vt 2.328564 -0.372950
v -6160.584961 -1772.541870 -16305.540039
vn 0.973576 0.028402 -0.226590
vt 1.635105 -1.998502
v -6222.159668 -1582.846924 -16286.790039
vn 0.748694 0.657090 -0.087693
vt 1.660531 -1.749935
v -6554.537109 -1620.195801 -16585.527344
vn -0.193989 0.365744 -0.910274
vt 0.163464 -0.717502
v -6520.189453 -1527.197632 -16517.035156
vn 0.090979 0.800016 -0.593041
vt 0.471904 -0.795097
v -6837.472656 -1903.030762 -16022.822266
vn -0.737427 -0.237754 0.632198
vt 2.227634 0.793213
v -6759.813965 -1988.201294 -16024.904297
vn -0.534614 -0.777866 0.330323
vt 2.283691 0.496399
v -6338.653809 -1899.622559 -16043.150391
vn 0.570427 -0.296955 0.765788
vt 2.559273 -1.118677
v -6373.375488 -1988.201294 -16070.018555
vn 0.535578 -0.433944 0.724465
vt 2.420612 -1.007468
v -6417.296387 -1838.224243 -16523.193359
vn 0.615341 -0.361427 -0.700518
vt 0.532280 -1.190989
v -6429.737305 -2004.026611 -16489.656250
vn 0.501624 -0.349723 -0.791244
vt 0.658975 -1.117761
v -6917.663086 -1754.678223 -16151.532227
vn -0.656143 0.390214 0.645918
vt 1.635017 0.998501
v -6916.365723 -1851.497437 -16145.155273
vn -0.831037 -0.250042 0.496846
vt 1.662154 0.998501
v -6460.089844 -1797.789551 -16018.443359
vn 0.318912 0.385108 0.866018
vt 2.559273 -0.637951
v -6465.348633 -1900.640259 -15974.497070
vn 0.482013 -0.038299 0.875327
vt 2.734480 -0.583974
v -6220.856445 -1699.946655 -16433.757813
vn 0.879507 0.224642 -0.419527
vt 1.061059 -1.868552
v -6248.293945 -1858.187744 -16419.589844
vn 0.698704 -0.342790 -0.627939
vt 1.096139 -1.753296
v -6346.312500 -1988.201294 -16395.804688
vn 0.642413 -0.650369 -0.405370
vt 1.111848 -1.362301
v -6248.293945 -1858.187744 -16419.589844
vn 0.698704 -0.342790 -0.627939
vt 1.096139 -1.753296
v -6346.312500 -1988.201294 -16395.804688
vn 0.642413 -0.650369 -0.405370
vt 1.111848 -1.362301
v -6864.078125 -1988.201294 -16153.594727
vn -0.626640 -0.591240 0.507698
vt 1.671136 0.793213
v -6547.981934 -1527.428101 -16220.514648
vn -0.095586 0.757235 0.646110
vt 1.660473 -0.460124
v -6745.395996 -1623.237915 -16196.713867
vn -0.236918 0.670633 0.702938
vt 1.593609 0.308717
v -6220.856445 -1699.946655 -16433.757813
vn 0.879507 0.224642 -0.419527
vt 1.061059 -1.868552
v -6289.104492 -1601.920410 -16428.285156
vn 0.545863 0.795445 -0.263251
vt 1.026679 -1.604888
v -6289.104492 -1601.920410 -16428.285156
vn 0.545863 0.795445 -0.263251
vt 1.026679 -1.604888
v -6160.584961 -1772.541870 -16305.540039
vn 0.973576 0.028402 -0.226590
vt 1.635105 -1.998502
v -6175.621582 -1883.007446 -16295.881836
vn 0.858934 -0.468004 -0.207859
vt 1.662070 -1.933873
v -6724.751465 -2005.218018 -16551.921875
vn -0.050158 -0.337216 -0.940090
vt 0.159273 -0.044474
v -6726.323730 -1846.028931 -16590.212891
vn -0.201537 0.040911 -0.978626
vt 0.001499 -0.068111
v -6475.676270 -1988.201294 -16015.272461
vn 0.402944 -0.615687 0.677175
vt 2.559273 -0.576251
v -6645.984863 -2132.063965 -16197.973633
vn -0.091059 -0.874435 0.476521
vt 1.671108 -0.070151
v -6400.264160 -2132.063965 -16247.972656
vn 0.111606 -0.828679 0.548485
vt 1.671080 -1.042883
v -6369.635742 -1665.024170 -16093.305664
vn 0.160811 0.595801 0.786868
vt 2.328565 -1.039694
v -6375.302734 -1525.708374 -16255.639648
vn 0.239231 0.886130 0.396915
vt 1.660502 -1.143699
v -6444.551758 -1526.358276 -16396.666016
vn 0.356802 0.904455 -0.233780
vt 1.026651 -0.989529
v -6709.435547 -1628.902466 -16554.013672
vn -0.173815 0.451749 -0.875049
vt 0.163464 -0.104311
v -6684.608887 -1509.046509 -16483.582031
vn -0.114610 0.520828 -0.845933
vt 0.471904 -0.144215
v -6222.159668 -1582.846924 -16286.790039
vn 0.748694 0.657090 -0.087693
vt 1.660531 -1.749935
v -6289.104492 -1601.920410 -16428.285156
vn 0.545863 0.795445 -0.263251
vt 1.026679 -1.604888
v -6444.551758 -1526.358276 -16396.666016
vn 0.356802 0.904455 -0.233780
vt 1.026651 -0.989529
v -6375.302734 -1525.708374 -16255.639648
vn 0.239231 0.886130 0.396915
vt 1.660502 -1.143699
f 63/63/63 61/61/61 62/62/62
f 61/61/61 63/63/63 64/64/64
f 56/56/56 57/57/57 44/44/44
f 57/57/57 56/56/56 20/20/20
f 21/21/21 20/20/20 56/56/56
f 20/20/20 21/21/21 19/19/19
f 30/30/30 19/19/19 21/21/21
f 19/19/19 30/30/30 7/7/7
f 8/8/8 7/7/7 30/30/30
f 7/7/7 8/8/8 5/5/5
f 20/20/20 25/25/25 57/57/57
f 25/25/25 20/20/20 19/19/19
f 25/25/25 46/46/46 47/47/47
f 46/46/46 25/25/25 24/24/24
f 19/19/19 24/24/24 25/25/25
f 24/24/24 19/19/19 6/6/6
f 7/7/7 6/6/6 19/19/19
f 6/6/6 7/7/7 5/5/5
f 6/6/6 40/40/40 41/41/41
f 40/40/40 6/6/6 5/5/5
f 15/15/15 34/34/34 35/35/35
f 34/34/34 15/15/15 45/45/45
f 14/14/14 45/45/45 15/15/15
f 45/45/45 14/14/14 44/44/44
f 23/23/23 44/44/44 14/14/14
f 44/44/44 23/23/23 56/56/56
f 36/36/36 56/56/56 23/23/23
f 56/56/56 36/36/36 21/21/21
f 37/37/37 21/21/21 36/36/36
f 21/21/21 37/37/37 30/30/30
f 31/31/31 30/30/30 37/37/37
f 30/30/30 31/31/31 8/8/8
f 37/37/37 53/53/53 31/31/31
f 23/23/23 14/14/14 13/13/13
f 14/14/14 15/15/15 13/13/13
f 28/28/28 13/13/13 15/15/15
f 13/13/13 28/28/28 3/3/3
f 4/4/4 3/3/3 28/28/28
f 13/13/13 22/22/22 23/23/23
f 22/22/22 13/13/13 2/2/2
f 3/3/3 2/2/2 13/13/13
f 2/2/2 3/3/3 1/1/1
f 4/4/4 1/1/1 3/3/3
f 1/1/1 4/4/4 29/29/29
f 28/28/28 29/29/29 4/4/4
f 29/29/29 28/28/28 35/35/35
f 15/15/15 35/35/35 28/28/28
f 35/35/35 43/43/43 29/29/29
f 54/54/54 29/29/29 43/43/43
f 29/29/29 54/54/54 1/1/1
f 53/53/53 1/1/1 54/54/54
f 1/1/1 53/53/53 2/2/2
f 37/37/37 2/2/2 53/53/53
f 2/2/2 37/37/37 22/22/22
f 36/36/36 22/22/22 37/37/37
f 22/22/22 36/36/36 23/23/23
f 54/54/54 55/55/55 53/53/53
f 39/39/39 49/49/49 50/50/50
f 49/49/49 39/39/39 38/38/38
f 18/18/18 38/38/38 39/39/39
f 38/38/38 18/18/18 48/48/48
f 17/17/17 48/48/48 18/18/18
f 48/48/48 17/17/17 27/27/27
f 16/16/16 27/27/27 17/17/17
f 27/27/27 16/16/16 26/26/26
f 10/10/10 26/26/26 16/16/16
f 26/26/26 10/10/10 52/52/52
f 51/51/51 52/52/52 10/10/10
f 16/16/16 17/17/17 18/18/18
f 27/27/27 58/58/58 48/48/48
f 10/10/10 9/9/9 51/51/51
f 9/9/9 10/10/10 11/11/11
f 16/16/16 11/11/11 10/10/10
f 11/11/11 16/16/16 32/32/32
f 18/18/18 32/32/32 16/16/16
f 32/32/32 18/18/18 39/39/39
f 60/60/60 27/27/27 59/59/59
f 26/26/26 59/59/59 27/27/27
f 59/59/59 26/26/26 52/52/52
f 9/9/9 11/11/11 12/12/12
f 32/32/32 12/12/12 11/11/11
f 12/12/12 32/32/32 33/33/33
f 39/39/39 33/33/33 32/32/32
f 33/33/33 39/39/39 42/42/42
