mtllib TROLLHOLE02_RM_PSURF158.mtl
g RM_Psurf158
usemtl Lvl_roast_m_largebolders
v -405.181213 -648.565063 -24166.273438
vn 0.305096 0.898935 -0.314375
vt 1.211687 0.374387
v -555.687988 -566.731812 -24127.642578
vn 0.252259 0.932700 -0.257751
vt 1.591476 -0.255876
v -334.329041 -625.265930 -24015.656250
vn 0.360530 0.928743 0.086343
vt 0.652480 -0.047863
v -243.394257 -641.585266 -24021.074219
vn 0.623298 0.660280 0.418963
vt 0.382624 0.256603
v -975.527527 -1606.015503 -24412.562500
vn -0.854794 -0.194061 -0.481319
vt 3.535852 -0.341534
v -1003.894287 -1364.367676 -24440.804688
vn -0.849862 -0.128252 -0.511162
vt 3.687486 -0.309030
v -979.869934 -1364.257813 -24532.673828
vn -0.694054 -0.152546 -0.703576
vt 3.820005 0.156592
v -891.188354 -1623.485596 -24540.599609
vn -0.289020 -0.142513 -0.946656
vt 3.562790 0.464768
v -1078.648071 -1603.995239 -24126.929688
vn -0.809455 -0.415758 0.414642
vt 3.212008 -1.877173
v -1081.392456 -1525.485474 -24153.556641
vn -0.896038 -0.023644 0.443348
vt 3.280525 -1.772264
v -1128.252808 -1611.705811 -24231.498047
vn -0.914108 -0.390919 -0.107650
vt 3.601532 -1.585303
v -981.621338 -732.046570 -24490.345703
vn -0.591223 0.183515 -0.785352
vt 3.730047 -0.029106
v -934.271484 -755.567139 -24540.123047
vn -0.638491 0.252938 -0.726878
vt 3.695353 0.329420
v -943.107788 -802.942383 -24548.845703
vn -0.693808 0.109641 -0.711765
vt 3.742422 0.339232
v -1014.127014 -767.652649 -24474.183594
vn -0.565000 0.060413 -0.822876
vt 3.794449 -0.198531
v -420.487640 -793.399109 -23672.201172
vn 0.396386 0.143951 0.906728
vt 0.145712 -1.777288
v -450.020782 -769.081726 -23666.740234
vn 0.355536 0.315683 0.879738
vt 0.225012 -1.891936
v -540.934509 -806.891785 -23649.019531
vn -0.008735 0.187981 0.982134
vt 0.467078 -2.248732
v -556.855042 -850.120972 -23645.621094
vn -0.021319 0.045155 0.998753
vt 0.508803 -2.312471
v -1184.216919 -753.645996 -24065.453125
vn -0.912600 0.089995 0.398825
vt 3.400921 -2.465685
v -1203.562988 -723.499878 -24213.115234
vn -0.943192 0.266048 -0.199015
vt 3.793705 -1.896638
v -1202.702637 -747.538147 -24256.375000
vn -0.986213 -0.017314 -0.164574
vt 3.888527 -1.709728
v -1173.685059 -792.749756 -24034.882813
vn -0.944445 0.003201 0.328654
vt 3.299358 -2.563298
v -1078.319946 -1590.117310 -24302.128906
vn -0.676945 -0.334476 -0.655646
vt 3.605821 -1.129969
v -994.304688 -1693.587646 -24239.179688
vn -0.522340 -0.841589 -0.137438
vt 3.203356 -1.138095
v -949.110718 -696.435120 -24506.511719
vn -0.570716 0.155356 -0.806318
vt 3.665634 0.140346
v -1024.305176 -640.437988 -24454.802734
vn -0.711212 0.279191 -0.645159
vt 3.782345 -0.312569
v -981.709473 -576.563477 -24474.083984
vn -0.522473 0.650371 -0.551398
vt 3.693673 -0.098638
v -916.600159 -660.823669 -24522.675781
vn -0.117612 0.542779 -0.831600
vt 3.601222 0.309797
v -1194.750244 -714.536438 -24096.027344
vn -0.902111 0.105684 0.418361
vt 3.502498 -2.368057
v -1095.508057 -730.962463 -23987.470703
vn -0.622698 0.436509 0.649389
vt 2.950018 -2.523315
v -1090.393921 -678.481201 -24019.210938
vn -0.457171 0.725931 0.513828
vt 3.005682 -2.372311
v -1205.283569 -675.426880 -24126.603516
vn -0.748076 0.661545 0.052361
vt 3.604075 -2.270429
v -479.558380 -744.760742 -23661.277344
vn 0.407327 0.397586 0.822199
vt 0.304324 -2.006600
v -348.454651 -695.830872 -23812.388672
vn 0.555187 0.701603 0.446677
vt 0.238207 -0.957313
v -371.237732 -667.923950 -23833.441406
vn 0.376421 0.826089 0.419387
vt 0.356321 -0.938149
v -509.095978 -720.439758 -23655.816406
vn 0.077179 0.547052 0.833533
vt 0.383636 -2.121265
v -790.089539 -1355.717285 -24551.941406
vn -0.020181 -0.124169 -0.992056
vt 3.274761 0.825921
v -801.887268 -1526.761353 -24535.824219
vn 0.164874 -0.103800 -0.980837
vt 3.275031 0.720766
v -1092.022461 -1367.865601 -24111.648438
vn -0.906733 -0.239207 0.347298
vt 3.219052 -1.983650
v -1161.526123 -1338.889893 -24273.152344
vn -0.994537 -0.100944 -0.026569
vt 3.798610 -1.510861
v -974.045715 -1190.246582 -24570.900391
vn -0.630334 -0.011218 -0.776243
vt 3.888090 0.337432
v -834.212830 -1179.263062 -24580.617188
vn -0.225666 0.036489 -0.973521
vt 3.476245 0.811512
v -892.307739 -993.244873 -24553.816406
vn -0.597141 -0.062563 -0.799693
vt 3.596047 0.517594
v -973.287781 -994.356689 -24506.652344
vn -0.524119 0.063106 -0.849304
vt 3.740944 0.066130
v -1145.132690 -1151.836548 -24272.142578
vn -0.909790 0.030393 -0.413954
vt 3.745487 -1.464429
v -1088.616089 -1177.060059 -24377.304688
vn -0.878120 -0.116889 -0.463942
vt 3.807178 -0.841642
v -1076.072266 -1356.863525 -24378.974609
vn -0.757886 -0.108626 -0.643280
vt 3.772031 -0.795717
v -1109.818970 -713.763428 -24331.068359
vn -0.791446 0.461092 -0.401258
vt 3.768747 -1.104178
v -1140.798706 -971.689087 -24360.695313
vn -0.957079 -0.072633 -0.280578
vt 3.931607 -1.073863
v -1137.966919 -961.133301 -24239.888672
vn -0.972791 -0.043068 -0.227648
vt 3.650573 -1.579626
v -1166.116333 -1188.453125 -24139.195313
vn -0.972569 -0.127401 0.194625
vt 3.510960 -2.095602
v -1196.797974 -988.135559 -24147.498047
vn -0.983835 -0.047216 0.172743
vt 3.624842 -2.155179
v -782.929443 -841.044983 -23648.917969
vn -0.346967 0.197184 0.916915
vt 1.217478 -2.998002
v -793.862122 -989.506592 -23726.904297
vn -0.519482 -0.246679 0.818100
vt 1.427140 -2.699681
v -645.266846 -988.960815 -23660.519531
vn -0.163227 -0.208103 0.964391
vt 0.816618 -2.522600
v -425.960205 -1005.585938 -23648.056641
vn 0.304321 -0.319246 0.897480
vt 0.108273 -1.897060
v -834.181335 -1170.729858 -23809.716797
vn -0.561655 -0.286751 0.776091
vt 1.738832 -2.471739
v -667.903442 -1179.188843 -23757.207031
vn -0.130966 -0.460427 0.877983
vt 1.104729 -2.180846
v -515.356995 -1180.078003 -23755.744141
vn 0.051367 -0.543422 0.837887
vt 0.628257 -1.715034
v -254.717026 -996.411438 -23953.833984
vn 0.912147 -0.164169 0.375549
vt 0.266212 -0.064817
v -321.289581 -969.147705 -23834.070313
vn 0.875850 -0.136266 0.462945
vt 0.202806 -0.780912
v -335.539764 -1165.037476 -23831.244141
vn 0.859478 -0.175882 0.479961
vt 0.240638 -0.837046
v -302.514038 -1168.074097 -23959.710938
vn 0.931588 -0.267803 0.245817
vt 0.427715 -0.187691
v -628.825134 -629.619568 -24329.185547
vn 0.298059 0.862028 -0.409962
vt 2.272534 0.376194
v -719.622253 -578.738525 -24281.388672
vn 0.227368 0.924635 -0.305538
vt 2.446459 -0.108337
v -872.560120 -568.923218 -24377.923828
vn 0.159424 0.917864 -0.363469
vt 3.138402 -0.170437
v -812.838379 -625.000427 -24418.541016
vn 0.312195 0.797393 -0.516429
vt 3.044688 0.187355
v -1105.735596 -835.917236 -23923.998047
vn -0.712713 -0.016866 0.701253
vt 2.838699 -2.825302
v -956.744324 -800.063782 -23809.841797
vn -0.631740 0.093705 0.769496
vt 2.119284 -2.850470
v -947.429504 -749.680115 -23838.365234
vn -0.505461 0.525100 0.684675
vt 2.154672 -2.700161
v -1100.622192 -783.443787 -23955.732422
vn -0.645639 0.425512 0.634106
vt 2.894354 -2.674320
v -766.544067 -794.031616 -23693.113281
vn -0.252431 0.597340 0.761225
vt 1.266252 -2.759067
v -956.744324 -800.063782 -23809.841797
vn -0.631740 0.093705 0.769496
vt 2.119284 -2.850470
v -1021.392578 -945.638489 -23960.236328
vn -0.645767 -0.355067 0.675953
vt 2.658746 -2.409968
v -1134.628540 -953.136108 -24062.849609
vn -0.699047 -0.280090 0.657938
vt 3.241237 -2.323329
v -943.444580 -1165.998657 -23950.011719
vn -0.673634 -0.180380 0.716715
vt 2.393922 -2.212312
v -1066.255859 -1155.647827 -24037.419922
vn -0.683797 -0.117242 0.720192
vt 2.971849 -2.220057
v -956.744324 -800.063782 -23809.841797
vn -0.631740 0.093705 0.769496
vt 2.119284 -2.850470
v -782.929443 -841.044983 -23648.917969
vn -0.346967 0.197184 0.916915
vt 1.217478 -2.998002
v -766.544067 -794.031616 -23693.113281
vn -0.252431 0.597340 0.761225
vt 1.266252 -2.759067
v -947.429504 -749.680115 -23838.365234
vn -0.505461 0.525100 0.684675
vt 2.154672 -2.700161
v -1021.392578 -945.638489 -23960.236328
vn -0.645767 -0.355067 0.675953
vt 2.658746 -2.409968
v -943.444580 -1165.998657 -23950.011719
vn -0.673634 -0.180380 0.716715
vt 2.393922 -2.212312
v -1081.357300 -675.436035 -24326.533203
vn -0.706503 0.601964 -0.372147
vt 3.670240 -1.035426
v -1066.900879 -704.312439 -24435.521484
vn -0.740651 0.377764 -0.555635
vt 3.871017 -0.526500
v -1109.490234 -768.177307 -24416.242188
vn -0.820312 0.174259 -0.544722
vt 3.959676 -0.740399
v -1024.425171 -598.769897 -24317.458984
vn -0.499628 0.851086 -0.161318
vt 3.473197 -0.897902
v -898.907654 -540.356201 -24250.703125
vn -0.133097 0.990783 0.025180
vt 2.933417 -0.793822
v -553.049133 -553.118469 -24031.582031
vn 0.077982 0.975024 0.207960
vt 1.366805 -0.656847
v -733.768372 -699.990784 -23781.515625
vn -0.207511 0.739934 0.639873
vt 1.363814 -2.281126
v -259.631287 -776.193970 -23837.853516
vn 0.818565 0.423152 0.388450
vt 0.020077 -0.574002
v -284.528046 -725.889709 -23897.115234
vn 0.717291 0.656698 0.232896
vt 0.230857 -0.398640
v -325.671600 -723.737793 -23791.335938
vn 0.555159 0.694943 0.457004
vt 0.120094 -0.976477
v -302.891998 -751.640503 -23770.287109
vn 0.772718 0.221893 0.594701
vt 0.001998 -0.995638
v -1104.508545 -962.743896 -24440.105469
vn -0.689838 -0.067620 -0.720799
vt 3.998002 -0.623348
v -365.264221 -974.766724 -23729.742188
vn 0.805485 -0.142542 0.575218
vt 0.104093 -1.361331
v -1010.972595 -1176.093994 -24461.906250
vn -0.775314 -0.082531 -0.626161
vt 3.757000 -0.241053
v -414.023071 -1187.874756 -23775.191406
vn 0.548284 -0.409939 0.728927
vt 0.357763 -1.318635
v -742.316956 -558.863525 -24157.039063
vn -0.046900 0.997060 0.060601
vt 2.236614 -0.708189
v -928.797180 -648.897705 -23895.419922
vn -0.363392 0.766565 0.529457
vt 2.225458 -2.399499
v -733.768372 -699.990784 -23781.515625
vn -0.207511 0.739934 0.639873
vt 1.363814 -2.281126
v -553.049133 -553.118469 -24031.582031
vn 0.077982 0.975024 0.207960
vt 1.366805 -0.656847
v -553.049133 -553.118469 -24031.582031
vn 0.077982 0.975024 0.207960
vt 1.366805 -0.656847
v -742.316956 -558.863525 -24157.039063
vn -0.046900 0.997060 0.060601
vt 2.236614 -0.708189
v -928.797180 -648.897705 -23895.419922
vn -0.363392 0.766565 0.529457
vt 2.225458 -2.399499
v -928.797180 -648.897705 -23895.419922
vn -0.363392 0.766565 0.529457
vt 2.225458 -2.399499
v -250.976196 -693.446960 -23993.113281
vn 0.897995 0.099773 0.428545
vt 0.343127 0.114048
v -258.559296 -745.316406 -23965.146484
vn 0.870455 0.305494 0.385981
vt 0.303623 -0.028528
v -240.359070 -751.866821 -24087.320313
vn 0.986611 -0.063168 0.150362
vt 0.522501 0.548141
v -241.876663 -696.726074 -24054.197266
vn 0.986611 -0.063168 0.150362
vt 0.452563 0.402372
v -309.428528 -675.577820 -23956.384766
vn 0.627129 0.620362 0.471021
vt 0.441668 -0.223252
v -925.435181 -708.191833 -24531.398438
vn -0.638491 0.252938 -0.726878
vt 3.648284 0.319608
v -525.014038 -763.662537 -23652.417969
vn -0.077573 0.209697 0.974684
vt 0.425354 -2.184994
v -750.156189 -747.011169 -23737.314453
vn -0.280263 0.603836 0.746213
vt 1.315033 -2.520096
v -1204.423340 -699.461548 -24169.857422
vn -0.905497 0.349116 -0.241231
vt 3.698883 -2.083547
v -1052.891235 -637.102966 -24321.996094
vn -0.761479 0.577177 -0.294985
vt 3.571718 -0.966664
v -938.113342 -699.288879 -23866.892578
vn -0.471625 0.530297 0.704525
vt 2.190065 -2.549830
v -938.113342 -699.288879 -23866.892578
vn -0.471625 0.530297 0.704525
vt 2.190065 -2.549830
v -947.429504 -749.680115 -23838.365234
vn -0.505461 0.525100 0.684675
vt 2.154672 -2.700161
v -928.797180 -648.897705 -23895.419922
vn -0.363392 0.766565 0.529457
vt 2.225458 -2.399499
f 101/101/101 102/102/102 103/103/103
f 108/108/108 109/109/109 110/110/110
f 109/109/109 108/108/108 112/112/112
f 4/4/4 112/112/112 108/108/108
f 112/112/112 4/4/4 3/3/3
f 1/1/1 3/3/3 4/4/4
f 3/3/3 1/1/1 2/2/2
f 65/65/65 2/2/2 1/1/1
f 2/2/2 65/65/65 66/66/66
f 68/68/68 66/66/66 65/65/65
f 66/66/66 68/68/68 67/67/67
f 29/29/29 67/67/67 68/68/68
f 67/67/67 29/29/29 28/28/28
f 26/26/26 28/28/28 29/29/29
f 28/28/28 26/26/26 27/27/27
f 12/12/12 27/27/27 26/26/26
f 27/27/27 12/12/12 86/86/86
f 15/15/15 86/86/86 12/12/12
f 86/86/86 15/15/15 87/87/87
f 12/12/12 26/26/26 113/113/113
f 29/29/29 113/113/113 26/26/26
f 88/88/88 28/28/28 117/117/117
f 27/27/27 117/117/117 28/28/28
f 117/117/117 27/27/27 86/86/86
f 99/99/99 63/63/63 97/97/97
f 62/62/62 97/97/97 63/63/63
f 97/97/97 62/62/62 95/95/95
f 92/92/92 95/95/95 62/62/62
f 95/95/95 92/92/92 94/94/94
f 93/93/93 94/94/94 92/92/92
f 94/94/94 93/93/93 35/35/35
f 112/112/112 35/35/35 93/93/93
f 35/35/35 112/112/112 36/36/36
f 3/3/3 36/36/36 112/112/112
f 36/36/36 3/3/3 90/90/90
f 2/2/2 90/90/90 3/3/3
f 90/90/90 2/2/2 100/100/100
f 66/66/66 100/100/100 2/2/2
f 100/100/100 66/66/66 89/89/89
f 67/67/67 89/89/89 66/66/66
f 89/89/89 67/67/67 88/88/88
f 28/28/28 88/88/88 67/67/67
f 36/36/36 90/90/90 91/91/91
f 112/112/112 93/93/93 109/109/109
f 107/107/107 100/100/100 32/32/32
f 89/89/89 32/32/32 100/100/100
f 32/32/32 89/89/89 33/33/33
f 88/88/88 33/33/33 89/89/89
f 33/33/33 88/88/88 117/117/117
f 118/118/118 107/107/107 31/31/31
f 32/32/32 31/31/31 107/107/107
f 31/31/31 32/32/32 30/30/30
f 33/33/33 30/30/30 32/32/32
f 30/30/30 33/33/33 116/116/116
f 117/117/117 116/116/116 33/33/33
f 116/116/116 117/117/117 85/85/85
f 86/86/86 85/85/85 117/117/117
f 85/85/85 86/86/86 49/49/49
f 87/87/87 49/49/49 86/86/86
f 49/49/49 87/87/87 50/50/50
f 30/30/30 116/116/116 21/21/21
f 85/85/85 21/21/21 116/116/116
f 21/21/21 85/85/85 49/49/49
f 31/31/31 30/30/30 20/20/20
f 21/21/21 20/20/20 30/30/30
f 20/20/20 21/21/21 22/22/22
f 49/49/49 22/22/22 21/21/21
f 22/22/22 49/49/49 50/50/50
f 50/50/50 51/51/51 22/22/22
f 23/23/23 22/22/22 51/51/51
f 22/22/22 23/23/23 20/20/20
f 72/72/72 20/20/20 23/23/23
f 20/20/20 72/72/72 31/31/31
f 118/118/118 31/31/31 72/72/72
f 51/51/51 53/53/53 23/23/23
f 76/76/76 53/53/53 78/78/78
f 53/53/53 76/76/76 23/23/23
f 69/69/69 23/23/23 76/76/76
f 23/23/23 69/69/69 72/72/72
f 71/71/71 72/72/72 69/69/69
f 72/72/72 71/71/71 118/118/118
f 78/78/78 84/84/84 76/76/76
f 83/83/83 76/76/76 84/84/84
f 76/76/76 83/83/83 69/69/69
f 70/70/70 69/69/69 83/83/83
f 69/69/69 70/70/70 71/71/71
f 96/96/96 87/87/87 15/15/15
f 87/87/87 96/96/96 50/50/50
f 47/47/47 50/50/50 96/96/96
f 50/50/50 47/47/47 51/51/51
f 46/46/46 51/51/51 47/47/47
f 51/51/51 46/46/46 53/53/53
f 52/52/52 53/53/53 46/46/46
f 53/53/53 52/52/52 78/78/78
f 41/41/41 52/52/52 46/46/46
f 52/52/52 41/41/41 40/40/40
f 10/10/10 40/40/40 41/41/41
f 48/48/48 46/46/46 47/47/47
f 46/46/46 48/48/48 41/41/41
f 11/11/11 41/41/41 48/48/48
f 41/41/41 11/11/11 10/10/10
f 9/9/9 10/10/10 11/11/11
f 48/48/48 24/24/24 11/11/11
f 25/25/25 11/11/11 24/24/24
f 11/11/11 25/25/25 9/9/9
f 98/98/98 47/47/47 96/96/96
f 47/47/47 98/98/98 48/48/48
f 6/6/6 48/48/48 98/98/98
f 48/48/48 6/6/6 24/24/24
f 5/5/5 24/24/24 6/6/6
f 45/45/45 96/96/96 15/15/15
f 96/96/96 45/45/45 98/98/98
f 42/42/42 98/98/98 45/45/45
f 98/98/98 42/42/42 6/6/6
f 7/7/7 6/6/6 42/42/42
f 6/6/6 7/7/7 5/5/5
f 113/113/113 13/13/13 12/12/12
f 14/14/14 12/12/12 13/13/13
f 12/12/12 14/14/14 15/15/15
f 44/44/44 15/15/15 14/14/14
f 15/15/15 44/44/44 45/45/45
f 43/43/43 45/45/45 44/44/44
f 45/45/45 43/43/43 42/42/42
f 38/38/38 42/42/42 43/43/43
f 42/42/42 38/38/38 7/7/7
f 8/8/8 7/7/7 38/38/38
f 7/7/7 8/8/8 5/5/5
f 38/38/38 39/39/39 8/8/8
f 119/119/119 91/91/91 121/121/121
f 91/91/91 119/119/119 115/115/115
f 120/120/120 115/115/115 119/119/119
f 115/115/115 120/120/120 73/73/73
f 97/97/97 95/95/95 16/16/16
f 94/94/94 16/16/16 95/95/95
f 16/16/16 94/94/94 17/17/17
f 35/35/35 17/17/17 94/94/94
f 17/17/17 35/35/35 34/34/34
f 36/36/36 34/34/34 35/35/35
f 34/34/34 36/36/36 37/37/37
f 91/91/91 37/37/37 36/36/36
f 37/37/37 91/91/91 114/114/114
f 115/115/115 114/114/114 91/91/91
f 114/114/114 115/115/115 18/18/18
f 73/73/73 18/18/18 115/115/115
f 18/18/18 73/73/73 19/19/19
f 54/54/54 19/19/19 73/73/73
f 19/19/19 54/54/54 55/55/55
f 74/74/74 55/55/55 54/54/54
f 55/55/55 74/74/74 75/75/75
f 58/58/58 75/75/75 77/77/77
f 75/75/75 58/58/58 55/55/55
f 56/56/56 55/55/55 58/58/58
f 55/55/55 56/56/56 19/19/19
f 16/16/16 19/19/19 56/56/56
f 19/19/19 16/16/16 18/18/18
f 17/17/17 18/18/18 16/16/16
f 18/18/18 17/17/17 114/114/114
f 34/34/34 114/114/114 17/17/17
f 114/114/114 34/34/34 37/37/37
f 57/57/57 16/16/16 56/56/56
f 16/16/16 57/57/57 97/97/97
f 99/99/99 97/97/97 57/57/57
f 57/57/57 60/60/60 99/99/99
f 60/60/60 57/57/57 59/59/59
f 56/56/56 59/59/59 57/57/57
f 59/59/59 56/56/56 58/58/58
f 63/63/63 61/61/61 62/62/62
f 61/61/61 63/63/63 64/64/64
f 81/81/81 79/79/79 80/80/80
f 79/79/79 81/81/81 82/82/82
f 104/104/104 105/105/105 106/106/106
f 110/110/110 111/111/111 108/108/108
f 4/4/4 108/108/108 111/111/111
