mtllib TROLLHOLE02_HOLECAP101.mtl
g HoleCap101
usemtl Stalagcap
v -3921.382568 -758.869507 -12685.520508
vn -0.127073 -0.976875 0.171950
vt 0.496959 0.638621
v -4010.272705 -734.559021 -12681.745117
vn -0.322287 -0.941769 0.095928
vt 0.608884 0.620013
v -4082.051025 -708.905701 -12743.467773
vn -0.433533 -0.899616 0.052354
vt 0.641847 0.507871
v -3883.576416 -773.610168 -12769.157227
vn 0.119947 -0.982300 0.143872
vt 0.401034 0.615871
v -4063.262939 -717.236206 -12850.386719
vn -0.406187 -0.912815 -0.042206
vt 0.615743 0.390344
v -4024.103516 -728.765320 -12903.675781
vn -0.337713 -0.923578 -0.181530
vt 0.500884 0.349985
v -3930.050781 -754.022400 -12907.274414
vn -0.157660 -0.945470 -0.285007
vt 0.383995 0.391770
v -3847.632568 -773.411316 -12848.599609
vn 0.029241 -0.992292 -0.120426
vt 0.351031 0.512231
f 3/3/3 1/1/1 2/2/2
f 1/1/1 3/3/3 4/4/4
f 6/6/6 3/3/3 5/5/5
f 3/3/3 6/6/6 4/4/4
f 7/7/7 4/4/4 6/6/6
f 4/4/4 7/7/7 8/8/8
