mtllib TROLLHOLE02_PS-MAINSTALAG34.mtl
g Ps-MainStalag34
usemtl Stalag
v -1445.908203 -1100.703003 -11867.007813
vn -0.733064 -0.146615 0.664170
vt 0.734203 0.081433
v -1447.592285 -1100.213257 -11872.473633
vn -0.989951 -0.136329 -0.037563
vt 0.863277 0.081433
v -1444.104248 -1122.459473 -11872.231445
vn -0.906839 -0.419639 -0.039325
vt 0.860008 0.054455
v -1443.160156 -1123.001831 -11870.007813
vn -0.667915 -0.546288 0.505429
vt 0.793836 0.040966
v -1445.712769 -1099.501831 -11877.674805
vn -0.648303 -0.161838 -0.743984
vt 0.992351 0.081433
v -1442.584839 -1123.600586 -11874.101563
vn -0.529407 -0.609357 -0.590265
vt 0.922910 0.040966
v -1440.818359 -1124.947266 -11871.757813
vn -0.083000 -0.994491 0.064023
vt 0.853470 0.000499
v -1440.818359 -1124.947266 -11871.757813
vn -0.083000 -0.994491 0.064023
vt 0.301524 0.000499
v -1439.066040 -1123.600586 -11869.431641
vn 0.431280 -0.595213 0.678026
vt 0.404120 0.047710
v -1441.289307 -1122.459473 -11868.496094
vn -0.130698 -0.418251 0.898879
vt 0.502964 0.054455
v -1443.160156 -1123.001831 -11870.007813
vn -0.667915 -0.546288 0.505429
vt 0.517768 0.040966
v -1436.040894 -1099.205811 -11866.652344
vn 0.698439 -0.137546 0.702327
vt 0.462342 0.166770
v -1441.027466 -1100.015869 -11864.969727
vn -0.016802 -0.136898 0.990443
vt 0.581642 0.168456
v -1445.712769 -1099.501831 -11877.674805
vn -0.648303 -0.161838 -0.743984
vt 0.001370 0.081433
v -1440.728149 -1097.990356 -11879.039063
vn 0.118681 -0.137298 -0.983394
vt 0.137483 0.168456
v -1440.368652 -1123.058105 -11875.046875
vn 0.105519 -0.458240 -0.882543
vt 0.181309 0.054455
v -1442.584839 -1123.600586 -11874.101563
vn -0.529407 -0.609357 -0.590265
vt 0.151447 0.040966
v -1435.845581 -1097.331177 -11876.678711
vn 0.749883 -0.126559 -0.649352
vt 0.248713 0.166770
v -1438.490601 -1123.750244 -11873.526367
vn 0.630668 -0.613075 -0.475812
vt 0.265625 0.047710
v -1434.163086 -1097.792847 -11871.535156
vn 0.993288 -0.115484 0.006473
vt 0.355729 0.168456
v -1437.553589 -1123.058105 -11871.311523
vn 0.891093 -0.445427 0.086878
vt 0.338637 0.054455
v -1474.427246 -943.052979 -11813.823242
vn 0.134309 -0.990924 0.005533
vt 0.755013 0.999501
v -1488.250610 -938.317566 -11867.948242
vn -0.044578 -0.985662 -0.162739
vt 0.874602 0.999501
v -1475.626953 -946.474976 -11870.990234
vn -0.739038 -0.672014 -0.047123
vt 0.873766 0.915537
v -1463.047363 -951.111938 -11839.563477
vn -0.436453 -0.760523 0.480742
vt 0.752355 0.915537
v -1491.421509 -924.281372 -11922.005859
vn 0.088720 -0.933807 -0.346601
vt 0.994191 0.999501
v -1472.142334 -934.693054 -11902.968750
vn -0.337170 -0.717332 -0.609714
vt 0.994403 0.915537
v -1461.338501 -966.485840 -11893.510742
vn -0.659223 -0.304707 -0.687444
vt 0.994615 0.831573
v -1464.470337 -976.435181 -11872.385742
vn -0.967245 -0.251781 0.032318
vt 0.872929 0.831573
v -1456.216064 -980.712097 -11851.547852
vn -0.640996 -0.309873 0.702213
vt 0.749211 0.758796
v -1438.425781 -974.612122 -11845.889648
vn 0.206260 -0.322852 0.923701
vt 0.625801 0.758796
v -1438.005859 -943.131042 -11829.174805
vn 0.324243 -0.710982 0.623996
vt 0.629399 0.915537
v -1422.271484 -963.751343 -11853.766602
vn 0.841058 -0.240653 0.484466
vt 0.502244 0.758796
v -1415.710815 -929.677185 -11840.245117
vn 0.824770 -0.502374 0.259566
vt 0.505510 0.915537
v -1406.728882 -915.545898 -11817.561523
vn 0.588440 -0.807598 -0.039032
vt 0.505013 0.999501
v -1436.362183 -931.438354 -11800.482422
vn 0.381250 -0.921877 0.069219
vt 0.630013 0.999501
v -1491.421509 -924.281372 -11922.005859
vn 0.088720 -0.933807 -0.346601
vt 0.003209 0.999501
v -1453.346313 -907.015198 -11941.164063
vn 0.310819 -0.890938 -0.331091
vt 0.129111 0.999501
v -1448.990601 -921.239136 -11915.011719
vn 0.217449 -0.625771 -0.749084
vt 0.130176 0.915537
v -1472.142334 -934.693054 -11902.968750
vn -0.337170 -0.717332 -0.609714
vt 0.003422 0.915537
v -1418.221558 -896.788696 -11928.550781
vn 0.479847 -0.828578 -0.288452
vt 0.255013 0.999501
v -1423.092651 -913.258240 -11905.595703
vn 0.644501 -0.539595 -0.541715
vt 0.256334 0.915537
v -1426.965576 -949.412842 -11893.015625
vn 0.706647 -0.208004 -0.676302
vt 0.255273 0.758796
v -1444.969849 -955.568970 -11900.030273
vn 0.127454 -0.273094 -0.953507
vt 0.129719 0.758796
v -1461.338501 -966.485840 -11893.510742
vn -0.659223 -0.304707 -0.687444
vt 0.003634 0.831573
v -1401.682129 -901.814087 -11873.800781
vn 0.644182 -0.740562 -0.191307
vt 0.380013 0.999501
v -1411.369507 -917.895264 -11873.195313
vn 0.904435 -0.386813 -0.179926
vt 0.381300 0.915537
v -1418.925537 -953.745911 -11873.535156
vn 0.973754 -0.157174 -0.164617
vt 0.379092 0.758796
v -1450.381836 -1041.924438 -11860.775391
vn -0.670491 -0.150627 0.726467
vt 0.742386 0.456503
v -1439.753052 -1038.820190 -11857.627930
vn 0.090017 -0.148130 0.984863
vt 0.616235 0.456503
v -1429.745850 -1033.091797 -11862.000000
vn 0.799942 -0.136296 0.584394
vt 0.491452 0.456503
v -1427.238647 -1027.533691 -11872.628906
vn 0.989542 -0.108661 -0.094863
vt 0.369891 0.456503
v -1431.610107 -1024.994629 -11883.276367
vn 0.709254 -0.118983 -0.694839
vt 0.248998 0.456503
v -1442.238892 -1028.323242 -11887.703125
vn 0.099424 -0.140618 -0.985059
vt 0.126221 0.456503
v -1452.246338 -1034.276245 -11884.612305
vn -0.679093 -0.164466 -0.715390
vt 0.002502 0.456503
v -1454.753296 -1039.609863 -11872.703125
vn -0.990356 -0.136753 0.022237
vt 0.868056 0.456503
v -1452.246338 -1034.276245 -11884.612305
vn -0.679093 -0.164466 -0.715390
vt 0.993483 0.456503
f 39/39/39 38/38/38 41/41/41
f 38/38/38 39/39/39 37/37/37
f 40/40/40 37/37/37 39/39/39
f 39/39/39 45/45/45 40/40/40
f 45/45/45 39/39/39 44/44/44
f 44/44/44 54/54/54 45/45/45
f 54/54/54 44/44/44 43/43/43
f 39/39/39 43/43/43 44/44/44
f 43/43/43 39/39/39 42/42/42
f 41/41/41 42/42/42 39/39/39
f 42/42/42 41/41/41 47/47/47
f 46/46/46 47/47/47 41/41/41
f 47/47/47 46/46/46 35/35/35
f 47/47/47 43/43/43 42/42/42
f 43/43/43 47/47/47 48/48/48
f 54/54/54 18/18/18 15/15/15
f 18/18/18 54/54/54 53/53/53
f 43/43/43 53/53/53 54/54/54
f 53/53/53 43/43/43 52/52/52
f 48/48/48 52/52/52 43/43/43
f 52/52/52 48/48/48 33/33/33
f 47/47/47 33/33/33 48/48/48
f 33/33/33 47/47/47 34/34/34
f 35/35/35 34/34/34 47/47/47
f 34/34/34 35/35/35 32/32/32
f 36/36/36 32/32/32 35/35/35
f 32/32/32 36/36/36 22/22/22
f 52/52/52 18/18/18 53/53/53
f 18/18/18 52/52/52 20/20/20
f 32/32/32 33/33/33 34/34/34
f 33/33/33 32/32/32 31/31/31
f 20/20/20 21/21/21 18/18/18
f 21/21/21 20/20/20 12/12/12
f 52/52/52 12/12/12 20/20/20
f 12/12/12 52/52/52 51/51/51
f 33/33/33 51/51/51 52/52/52
f 51/51/51 33/33/33 50/50/50
f 31/31/31 50/50/50 33/33/33
f 50/50/50 31/31/31 30/30/30
f 32/32/32 30/30/30 31/31/31
f 30/30/30 32/32/32 25/25/25
f 22/22/22 25/25/25 32/32/32
f 25/25/25 22/22/22 24/24/24
f 23/23/23 24/24/24 22/22/22
f 24/24/24 23/23/23 26/26/26
f 12/12/12 51/51/51 50/50/50
f 30/30/30 25/25/25 24/24/24
f 12/12/12 9/9/9 21/21/21
f 26/26/26 27/27/27 24/24/24
f 30/30/30 49/49/49 50/50/50
f 24/24/24 29/29/29 30/30/30
f 29/29/29 24/24/24 28/28/28
f 27/27/27 28/28/28 24/24/24
f 56/56/56 28/28/28 57/57/57
f 28/28/28 56/56/56 29/29/29
f 54/54/54 55/55/55 45/45/45
f 55/55/55 54/54/54 14/14/14
f 15/15/15 14/14/14 54/54/54
f 14/14/14 15/15/15 16/16/16
f 18/18/18 16/16/16 15/15/15
f 16/16/16 18/18/18 19/19/19
f 21/21/21 19/19/19 18/18/18
f 19/19/19 21/21/21 8/8/8
f 9/9/9 8/8/8 21/21/21
f 8/8/8 9/9/9 10/10/10
f 12/12/12 10/10/10 9/9/9
f 10/10/10 12/12/12 13/13/13
f 50/50/50 13/13/13 12/12/12
f 13/13/13 50/50/50 1/1/1
f 49/49/49 1/1/1 50/50/50
f 1/1/1 49/49/49 56/56/56
f 30/30/30 56/56/56 49/49/49
f 56/56/56 30/30/30 29/29/29
f 13/13/13 1/1/1 10/10/10
f 11/11/11 10/10/10 1/1/1
f 10/10/10 11/11/11 8/8/8
f 19/19/19 8/8/8 16/16/16
f 17/17/17 16/16/16 8/8/8
f 16/16/16 17/17/17 14/14/14
f 7/7/7 4/4/4 3/3/3
f 1/1/1 3/3/3 4/4/4
f 3/3/3 1/1/1 2/2/2
f 56/56/56 2/2/2 1/1/1
f 2/2/2 56/56/56 5/5/5
f 57/57/57 5/5/5 56/56/56
f 2/2/2 5/5/5 3/3/3
f 6/6/6 3/3/3 5/5/5
f 3/3/3 6/6/6 7/7/7
