mtllib TROLLHOLE02_HOLECAP130.mtl
g HoleCap130
usemtl Stalagcap
v -10257.686523 1410.165771 -6833.818848
vn 0.007629 -0.999570 0.028323
vt 0.401034 0.615871
v -10366.600586 1410.524292 -6810.385254
vn -0.010658 -0.999357 -0.034247
vt 0.496959 0.638621
v -10489.879883 1412.887207 -6840.971680
vn -0.243678 -0.930263 0.274283
vt 0.608884 0.620013
v -10493.288086 1401.093750 -6947.838867
vn 0.120360 -0.987151 0.105100
vt 0.641847 0.507871
v -10430.167969 1398.474365 -7044.726074
vn 0.034643 -0.996459 0.076613
vt 0.615743 0.390344
v -10313.318359 1397.974365 -7047.493652
vn 0.026465 -0.961030 -0.275174
vt 0.500884 0.349985
v -10187.449219 1406.906860 -7049.648926
vn 0.186089 -0.978529 -0.088609
vt 0.383995 0.391770
v -10188.388672 1408.390137 -6937.294434
vn 0.364976 -0.919037 0.148874
vt 0.351031 0.512231
f 5/5/5 6/6/6 1/1/1
f 7/7/7 1/1/1 6/6/6
f 1/1/1 7/7/7 8/8/8
f 3/3/3 1/1/1 2/2/2
f 1/1/1 3/3/3 5/5/5
f 4/4/4 5/5/5 3/3/3
