mtllib TROLLHOLE02_RM_PSURF102.mtl
g RM_Psurf102
usemtl Lvl_roast_m_largebolders
v 1209.133667 -99.385864 -20743.837891
vn 0.065984 0.894841 0.441481
vt 1.224175 -0.179782
v 1246.398315 -99.385979 -20811.851563
vn 0.449775 0.836065 -0.314162
vt 1.232189 -0.519716
v 1094.451416 6.384895 -20880.830078
vn -0.172486 0.888445 -0.425340
vt 0.657601 -0.486725
v 1044.789673 6.385015 -20820.341797
vn -0.244303 0.914145 0.323503
vt 0.599734 -0.151524
v 1110.682983 -1067.744995 -20575.746094
vn -0.613830 -0.171906 0.770494
vt 1.184854 0.672982
v 1106.894653 -812.149292 -20497.882813
vn -0.575350 -0.105468 0.811079
vt 1.295062 0.984751
v 987.540344 -809.476746 -20647.906250
vn -0.726527 -0.054124 0.685003
vt 0.693747 0.636193
v 949.384216 -1064.966797 -20688.978516
vn -0.588018 -0.042039 0.807755
vt 0.512292 0.551675
v 1030.903198 -105.183105 -20683.750000
vn -0.371531 0.526728 0.764541
vt 0.770830 0.409814
v 970.274109 -97.043701 -20748.277344
vn -0.951237 0.306479 -0.034897
vt 0.483657 0.278399
v 1342.545044 -203.027954 -20592.962891
vn 0.712920 0.216802 0.666889
vt 1.869993 0.144115
v 1319.814819 -106.394531 -20621.109375
vn 0.383833 0.839678 0.384204
vt 1.756141 0.079395
v 1274.902100 -191.827637 -20542.414063
vn 0.098067 0.504112 0.858053
vt 1.741354 0.476289
v 993.411499 -97.630486 -20837.572266
vn -0.818751 0.215043 -0.532356
vt 0.414983 -0.116559
v 1120.726563 -100.896843 -20946.312500
vn -0.050632 0.268941 -0.961825
vt 0.635827 -0.794886
v 1390.316406 -187.541565 -20795.970703
vn 0.838121 0.370984 -0.399906
vt 1.699036 -0.744174
v 1326.744751 -106.394531 -20705.904297
vn 0.602033 0.796359 -0.058044
vt 1.644736 -0.265708
v 1393.432495 -203.614807 -20670.945313
vn 0.880962 0.407100 0.241196
vt 1.904247 -0.261883
v 1170.985718 -197.886597 -20609.349609
vn -0.372742 0.434187 0.820089
vt 1.317469 0.421636
v 1209.133667 -99.385864 -20743.837891
vn 0.065984 0.894841 0.441481
vt 1.224175 -0.179782
v 1044.789673 6.385015 -20820.341797
vn -0.244303 0.914145 0.323503
vt 0.599734 -0.151524
v 1247.742920 -193.600571 -20886.732422
vn 0.535572 0.263137 -0.802447
vt 1.119144 -0.814963
v 1246.398315 -99.385979 -20811.851563
vn 0.449775 0.836065 -0.314162
vt 1.232189 -0.519716
v 1339.182251 -1073.070679 -20541.484375
vn 0.356390 -0.151754 0.921931
vt 1.940222 0.351950
v 1299.590942 -820.323303 -20492.910156
vn 0.427222 -0.129027 0.894893
vt 1.894642 0.620559
v 1206.606934 -814.821777 -20447.724609
vn 0.053278 -0.093577 0.994186
vt 1.679779 0.982215
v 1232.980103 -1070.523315 -20509.265625
vn -0.222396 -0.254082 0.941266
vt 1.664475 0.689260
v 967.625244 -182.326111 -20738.925781
vn -0.982680 0.059075 0.175644
vt 0.490154 0.320207
v 1021.296936 -187.790161 -20668.037109
vn -0.594694 0.178810 0.783815
vt 0.765917 0.490336
v 1244.116577 -594.969543 -20462.224609
vn -0.024200 0.138389 0.990082
vt 1.772288 0.850889
v 1092.408325 -587.474243 -20501.617188
vn -0.497431 0.183895 0.847788
vt 1.244729 0.999001
v 1247.938965 -326.096008 -20501.787109
vn -0.016225 0.237271 0.971308
vt 1.722118 0.688701
v 1153.166016 -314.708984 -20602.570313
vn -0.486563 0.177116 0.855504
vt 1.273348 0.483594
v 1144.250000 -373.124573 -20599.195313
vn -0.532747 0.305496 0.789210
vt 1.251248 0.514533
v 1234.448853 -393.220154 -20481.503906
vn -0.068224 0.272642 0.959694
vt 1.712429 0.794810
v 1319.314209 -602.251526 -20464.927734
vn 0.533275 0.165363 0.829622
vt 1.999001 0.690623
v 1303.863159 -402.078613 -20548.070313
vn 0.692945 0.138422 0.707578
vt 1.821445 0.396529
v 1316.764038 -335.735107 -20563.013672
vn 0.755108 -0.033829 0.654727
vt 1.837683 0.312462
v 913.463623 -583.914978 -20744.767578
vn -0.990928 0.130459 0.032275
vt 0.314674 0.405206
v 980.160889 -579.978943 -20621.806641
vn -0.803417 0.003509 0.595406
vt 0.711923 0.752855
v 1002.074036 -353.028992 -20636.623047
vn -0.632757 0.203077 0.747247
vt 0.756038 0.651345
v 962.330750 -352.916504 -20720.212891
vn -0.987152 0.157730 0.025548
vt 0.503178 0.403867
v 849.401306 -1066.273682 -20764.384766
vn -0.703281 0.056891 0.708632
vt 0.087232 0.456095
v 899.497742 -813.785217 -20762.185547
vn -0.930425 0.043312 0.363915
vt 0.244526 0.364953
v 1354.613647 -405.551636 -20648.857422
vn 0.949062 -0.039083 0.312655
vt 1.819592 -0.098303
v 1379.592896 -338.246155 -20649.867188
vn 0.923425 -0.255085 0.286736
vt 1.894726 -0.151978
v 1353.581665 -388.983704 -20808.607422
vn 0.974487 -0.030156 -0.222410
vt 1.566443 -0.720420
v 1365.827271 -321.843079 -20804.390625
vn 0.886881 -0.104656 -0.449987
vt 1.610649 -0.728323
v 1136.776001 -348.792542 -20948.421875
vn -0.122462 -0.063917 -0.990413
vt 0.681817 -0.835078
v 1131.427856 -266.168884 -20947.714844
vn -0.086410 0.047399 -0.995131
vt 0.666496 -0.821674
v 1271.834106 -310.456055 -20905.843750
vn 0.556102 0.153178 -0.816877
vt 1.163227 -0.937594
v 1283.869385 -368.888062 -20915.427734
vn 0.461053 0.020969 -0.887125
vt 1.185192 -0.999001
v 1002.184021 -270.145203 -20825.279297
vn -0.814579 -0.059203 -0.577023
vt 0.461163 -0.085989
v 1006.572327 -356.389526 -20819.125000
vn -0.799471 0.045443 -0.598983
vt 0.484268 -0.070685
v 961.666809 -590.409729 -20850.437500
vn -0.814464 0.200957 -0.544303
vt 0.297357 -0.103631
v 939.622192 -821.055481 -20866.099609
vn -0.914890 0.099288 -0.391302
vt 0.205148 -0.120937
v 964.977356 -267.621399 -20729.570313
vn -0.994095 0.050859 0.095858
vt 0.496661 0.362032
v 1365.122925 -608.746338 -20575.302734
vn 0.980588 0.124748 0.151278
vt 1.966969 0.168171
v 1381.170898 -598.629883 -20789.939453
vn 0.987302 0.137076 0.080279
vt 1.680384 -0.702407
v 1231.575195 -591.134583 -20825.060547
vn 0.455981 -0.255579 -0.852503
vt 1.165995 -0.541816
v 1122.326416 -583.639282 -20936.716797
vn -0.200391 0.057996 -0.977998
vt 0.655756 -0.760581
v 1120.726563 -100.896843 -20946.312500
vn -0.050632 0.268941 -0.961825
vt 0.635827 -0.794886
v 1094.451416 6.384895 -20880.830078
vn -0.172486 0.888445 -0.425340
vt 0.657601 -0.486725
v 1162.078369 -256.293335 -20605.955078
vn -0.455057 0.143093 0.878890
vt 1.295423 0.452627
v 1378.072876 -254.692322 -20800.177734
vn 0.803639 -0.041407 -0.593674
vt 1.654849 -0.736241
v 1259.791382 -252.023911 -20896.277344
vn 0.533013 0.157382 -0.831341
vt 1.141210 -0.876245
v 1011.686768 -270.409607 -20652.326172
vn -0.618422 0.176524 0.765763
vt 0.760986 0.570850
v 997.796875 -183.887939 -20831.427734
vn -0.840410 -0.061029 -0.538505
vt 0.438066 -0.101281
v 1261.423950 -258.961853 -20522.091797
vn -0.095873 0.222419 0.970226
vt 1.731760 0.582522
v 1329.658569 -269.381531 -20577.978516
vn 0.684669 -0.004093 0.728842
vt 1.853866 0.228320
v 1404.554199 -270.930420 -20650.931641
vn 0.970461 -0.070736 0.230654
vt 1.969721 -0.205827
v 1126.077759 -183.532822 -20947.011719
vn -0.153395 0.028159 -0.987764
vt 0.651166 -0.808276
v 1259.791382 -252.023911 -20896.277344
vn 0.533013 0.157382 -0.831341
vt 1.141210 -0.876245
v 1247.742920 -193.600571 -20886.732422
vn 0.535572 0.263137 -0.802447
vt 1.119144 -0.814963
v 1271.834106 -310.456055 -20905.843750
vn 0.556102 0.153178 -0.816877
vt 1.163227 -0.937594
v 1283.869385 -368.888062 -20915.427734
vn 0.461053 0.020969 -0.887125
vt 1.185192 -0.999001
f 3/3/3 1/1/1 2/2/2
f 1/1/1 3/3/3 4/4/4
f 10/10/10 3/3/3 14/14/14
f 3/3/3 10/10/10 4/4/4
f 9/9/9 4/4/4 10/10/10
f 3/3/3 15/15/15 14/14/14
f 68/68/68 14/14/14 15/15/15
f 14/14/14 68/68/68 10/10/10
f 28/28/28 10/10/10 68/68/68
f 10/10/10 28/28/28 9/9/9
f 29/29/29 9/9/9 28/28/28
f 9/9/9 29/29/29 19/19/19
f 64/64/64 19/19/19 29/29/29
f 19/19/19 64/64/64 69/69/69
f 45/45/45 36/36/36 58/58/58
f 36/36/36 45/45/45 37/37/37
f 38/38/38 37/37/37 45/45/45
f 37/37/37 38/38/38 32/32/32
f 69/69/69 32/32/32 38/38/38
f 32/32/32 69/69/69 33/33/33
f 64/64/64 33/33/33 69/69/69
f 33/33/33 64/64/64 67/67/67
f 29/29/29 67/67/67 64/64/64
f 67/67/67 29/29/29 57/57/57
f 28/28/28 57/57/57 29/29/29
f 57/57/57 28/28/28 53/53/53
f 68/68/68 53/53/53 28/28/28
f 53/53/53 68/68/68 72/72/72
f 15/15/15 72/72/72 68/68/68
f 72/72/72 15/15/15 74/74/74
f 72/72/72 50/50/50 53/53/53
f 50/50/50 72/72/72 73/73/73
f 74/74/74 73/73/73 72/72/72
f 73/73/73 51/51/51 50/50/50
f 49/49/49 50/50/50 51/51/51
f 50/50/50 49/49/49 53/53/53
f 54/54/54 53/53/53 49/49/49
f 53/53/53 54/54/54 57/57/57
f 42/42/42 57/57/57 54/54/54
f 57/57/57 42/42/42 67/67/67
f 41/41/41 67/67/67 42/42/42
f 67/67/67 41/41/41 33/33/33
f 34/34/34 33/33/33 41/41/41
f 33/33/33 34/34/34 32/32/32
f 35/35/35 32/32/32 34/34/34
f 32/32/32 35/35/35 37/37/37
f 30/30/30 37/37/37 35/35/35
f 37/37/37 30/30/30 36/36/36
f 31/31/31 34/34/34 41/41/41
f 34/34/34 31/31/31 35/35/35
f 30/30/30 35/35/35 31/31/31
f 51/51/51 52/52/52 49/49/49
f 25/25/25 36/36/36 26/26/26
f 30/30/30 26/26/26 36/36/36
f 26/26/26 30/30/30 6/6/6
f 31/31/31 6/6/6 30/30/30
f 6/6/6 31/31/31 40/40/40
f 41/41/41 40/40/40 31/31/31
f 40/40/40 41/41/41 39/39/39
f 42/42/42 39/39/39 41/41/41
f 39/39/39 42/42/42 55/55/55
f 54/54/54 55/55/55 42/42/42
f 55/55/55 54/54/54 61/61/61
f 49/49/49 61/61/61 54/54/54
f 61/61/61 49/49/49 60/60/60
f 52/52/52 60/60/60 49/49/49
f 26/26/26 24/24/24 25/25/25
f 24/24/24 26/26/26 27/27/27
f 6/6/6 27/27/27 26/26/26
f 55/55/55 56/56/56 39/39/39
f 44/44/44 39/39/39 56/56/56
f 39/39/39 44/44/44 40/40/40
f 7/7/7 40/40/40 44/44/44
f 40/40/40 7/7/7 6/6/6
f 5/5/5 6/6/6 7/7/7
f 6/6/6 5/5/5 27/27/27
f 7/7/7 8/8/8 5/5/5
f 8/8/8 7/7/7 43/43/43
f 44/44/44 43/43/43 7/7/7
f 47/47/47 58/58/58 59/59/59
f 58/58/58 47/47/47 45/45/45
f 46/46/46 45/45/45 47/47/47
f 45/45/45 46/46/46 38/38/38
f 70/70/70 38/38/38 46/46/46
f 38/38/38 70/70/70 69/69/69
f 13/13/13 69/69/69 70/70/70
f 69/69/69 13/13/13 19/19/19
f 20/20/20 19/19/19 13/13/13
f 19/19/19 20/20/20 9/9/9
f 21/21/21 9/9/9 20/20/20
f 47/47/47 48/48/48 46/46/46
f 71/71/71 46/46/46 48/48/48
f 23/23/23 20/20/20 12/12/12
f 13/13/13 12/12/12 20/20/20
f 12/12/12 13/13/13 11/11/11
f 70/70/70 11/11/11 13/13/13
f 71/71/71 70/70/70 46/46/46
f 70/70/70 71/71/71 11/11/11
f 18/18/18 11/11/11 71/71/71
f 11/11/11 18/18/18 12/12/12
f 17/17/17 12/12/12 18/18/18
f 12/12/12 17/17/17 23/23/23
f 16/16/16 23/23/23 17/17/17
f 23/23/23 16/16/16 22/22/22
f 65/65/65 22/22/22 16/16/16
f 22/22/22 65/65/65 66/66/66
f 48/48/48 66/66/66 65/65/65
f 66/66/66 48/48/48 75/75/75
f 47/47/47 75/75/75 48/48/48
f 75/75/75 47/47/47 76/76/76
f 48/48/48 65/65/65 71/71/71
f 16/16/16 71/71/71 65/65/65
f 71/71/71 16/16/16 18/18/18
f 17/17/17 18/18/18 16/16/16
f 23/23/23 62/62/62 63/63/63
f 62/62/62 23/23/23 22/22/22
