mtllib TROLLHOLE02_PS-SECRETSTALAG02.mtl
g -SecretStalag02
usemtl Stalag
v -11547.785156 828.682007 -4142.695801
vn 0.747824 -0.547870 -0.374963
vt 0.249904 0.999501
v -11539.472656 835.512573 -4016.537109
vn 0.615899 -0.766890 0.180409
vt 0.373292 0.999501
v -11559.827148 795.177002 -4059.567383
vn 0.696282 -0.684219 0.216875
vt 0.373292 0.928195
v -11574.193359 788.072510 -4143.199707
vn 0.678808 -0.530130 -0.508116
vt 0.249098 0.928195
v -11621.655273 839.084045 -3906.226318
vn 0.250018 -0.897516 0.363258
vt 0.496680 0.999501
v -11615.603516 803.085693 -3995.424072
vn 0.226891 -0.777534 0.586482
vt 0.497486 0.928195
v -11648.348633 750.493225 -4023.793213
vn 0.375100 -0.390221 0.840849
vt 0.497483 0.781096
v -11604.821289 743.558105 -4074.568604
vn 0.712349 -0.644246 0.278399
vt 0.373290 0.781096
v -11616.441406 736.325073 -4135.092773
vn 0.582528 -0.671845 -0.457477
vt 0.249904 0.856889
v -11670.283203 795.868408 -4195.475586
vn 0.216052 -0.508563 -0.833478
vt 0.123292 0.928195
v -11644.958008 834.879395 -4210.889160
vn 0.204709 -0.809609 -0.550117
vt 0.123292 0.999501
v -11694.517578 738.977722 -4168.640137
vn 0.125215 -0.524771 -0.841984
vt 0.123292 0.856889
v -11782.892578 743.622559 -4164.900391
vn -0.435911 -0.417902 -0.797082
vt -0.003320 0.856889
v -11781.287109 804.122803 -4199.286133
vn -0.301410 -0.639421 -0.707314
vt -0.003320 0.928195
v -11796.398438 837.625610 -4239.286133
vn 0.052845 -0.861152 -0.505593
vt -0.003320 0.999501
v -11758.340820 817.797119 -3964.102539
vn 0.022634 -0.976091 0.216182
vt 0.623292 0.999501
v -11729.940430 797.702393 -4001.613770
vn -0.142236 -0.686213 0.713359
vt 0.623292 0.928195
v -11893.828125 802.081360 -4034.414063
vn 0.083969 -0.986306 0.141947
vt 0.749904 0.999501
v -11829.363281 791.860596 -4056.268555
vn -0.537961 -0.755585 0.373750
vt 0.749098 0.928195
v -11812.768555 741.408630 -4052.486816
vn -0.784329 0.024385 0.619865
vt 0.749098 0.781096
v -11735.706055 746.947021 -4019.497559
vn -0.174467 -0.038159 0.983923
vt 0.623290 0.781096
v -11881.934570 806.791748 -4152.818359
vn 0.164112 -0.982565 -0.087367
vt 0.873292 0.999501
v -11840.396484 798.393982 -4137.521973
vn -0.611712 -0.737460 -0.286288
vt 0.873292 0.928195
v -11796.398438 837.625610 -4239.286133
vn 0.052845 -0.861152 -0.505593
vt 0.996680 0.999501
v -11781.287109 804.122803 -4199.286133
vn -0.301410 -0.639421 -0.707314
vt 0.996680 0.928195
v -11782.892578 743.622559 -4164.900391
vn -0.435911 -0.417902 -0.797082
vt 0.996680 0.856889
v -11825.402344 742.366821 -4113.569336
vn -0.953806 -0.195925 -0.227745
vt 0.873295 0.781096
v -11696.123047 646.838501 -4048.467041
vn 0.792624 -0.572297 0.210295
vt 0.373282 0.482409
v -11705.875977 641.351746 -4088.975098
vn 0.560100 -0.687607 -0.462044
vt 0.249903 0.482409
v -11720.741211 651.280640 -4010.960449
vn 0.513625 -0.131811 0.847830
vt 0.497472 0.482409
v -11783.111328 542.530457 -3973.289551
vn 0.687555 0.112372 0.717384
vt 0.482737 0.095510
v -11773.812500 540.665710 -4006.528809
vn 0.944730 -0.325616 0.038214
vt 0.373272 0.107930
v -11783.028320 536.645081 -4040.126221
vn 0.725364 -0.415982 -0.548459
vt 0.249902 0.107930
v -11755.970703 640.625183 -4106.996582
vn 0.072084 -0.536507 -0.840811
vt 0.123645 0.482409
v -11810.510742 641.960571 -4098.753418
vn -0.557104 -0.303343 -0.773058
vt -0.002957 0.482409
v -11811.329102 532.841064 -4051.679688
vn 0.025538 -0.285874 -0.957927
vt 0.123654 0.107930
v -11839.386719 530.793579 -4041.014893
vn -0.714824 -0.125617 -0.687929
vt 0.002408 0.095510
v -11833.600586 642.659851 -4060.468750
vn -0.989857 0.059815 -0.128862
vt 0.873303 0.482409
v -11822.320313 644.403931 -4019.184570
vn -0.716100 0.319537 0.620562
vt 0.749099 0.482409
v -11810.510742 641.960571 -4098.753418
vn -0.557104 -0.303343 -0.773058
vt 0.996700 0.482409
v -11839.386719 530.793579 -4041.014893
vn -0.714824 -0.125617 -0.687929
vt 0.996168 0.095510
v -11847.872070 532.041260 -4007.959473
vn -0.996344 0.084919 0.009339
vt 0.873313 0.107930
v -11837.843750 535.445374 -3974.547119
vn -0.761767 0.312312 0.567602
vt 0.749907 0.107930
v -11773.751953 648.873169 -4001.940186
vn -0.104654 0.276221 0.955379
vt 0.623283 0.482409
v -11810.355469 539.865906 -3962.809326
vn -0.057693 0.421543 0.904971
vt 0.623275 0.107930
v -11701.824219 299.744690 -4065.519775
vn 0.245320 0.965057 -0.092099
vt 0.743599 0.999501
v -11761.284180 298.125122 -4142.841797
vn 0.111178 0.947166 -0.300859
vt 0.869969 0.999501
v -11793.319336 330.547058 -4095.542725
vn 0.175300 0.727825 -0.662979
vt 0.869888 0.926612
v -11741.616211 336.985779 -4041.186279
vn 0.712566 0.609094 -0.348215
vt 0.744007 0.926612
v -11861.172852 293.413452 -4149.141602
vn -0.257437 0.922991 -0.286032
vt 0.996339 0.999501
v -11852.508789 325.570068 -4083.817139
vn -0.540691 0.687313 -0.485030
vt 0.996170 0.926612
v -11843.507813 373.756287 -4052.416748
vn -0.714246 0.346644 -0.608022
vt 0.996002 0.853724
v -11801.914063 381.436279 -4064.694336
vn 0.122244 0.431673 -0.893708
vt 0.869806 0.853724
v -11761.486328 391.486206 -4028.158203
vn 0.794291 0.382588 -0.471941
vt 0.743617 0.777169
v -11750.699219 397.219604 -3950.136230
vn 0.937817 0.346077 0.027017
vt 0.618250 0.777169
v -11734.115234 340.578125 -3934.084473
vn 0.850273 0.518977 0.087743
vt 0.618930 0.926612
v -11766.687500 397.431274 -3880.579102
vn 0.607696 0.535601 0.586376
vt 0.493688 0.777169
v -11763.702148 340.616577 -3841.630371
vn 0.503008 0.715757 0.484432
vt 0.494332 0.926612
v -11763.884766 295.853149 -3706.555664
vn 0.100860 0.985521 0.136291
vt 0.493599 0.999501
v -11704.775391 300.647583 -3878.267822
vn 0.301169 0.951972 0.055197
vt 0.618599 0.999501
v -11861.172852 293.413452 -4149.141602
vn -0.257437 0.922991 -0.286032
vt 0.001543 0.999501
v -11928.875977 297.046265 -4001.697266
vn -0.235566 0.969935 -0.061110
vt 0.122571 0.999501
v -11882.471680 326.363098 -3992.676514
vn -0.749381 0.653124 -0.108890
vt 0.123472 0.926612
v -11852.508789 325.570068 -4083.817139
vn -0.540691 0.687313 -0.485030
vt 0.001428 0.926612
v -11936.837891 294.216187 -3829.477295
vn -0.192354 0.979143 0.065407
vt 0.243599 0.999501
v -11875.344727 330.709839 -3886.887451
vn -0.617240 0.758850 0.207754
vt 0.246097 0.926612
v -11845.314453 382.030273 -3907.110107
vn -0.828704 0.411873 0.378959
vt 0.246990 0.777169
v -11857.797852 375.132324 -3983.996094
vn -0.958617 0.282467 -0.035568
vt 0.124174 0.777169
v -11843.507813 373.756287 -4052.416748
vn -0.714246 0.346644 -0.608022
vt 0.001312 0.853724
v -11850.533203 299.569092 -3772.922119
vn -0.191441 0.947521 0.256035
vt 0.368599 0.999501
v -11823.266602 336.393982 -3831.218994
vn -0.266363 0.791838 0.549585
vt 0.369886 0.926612
v -11806.583984 390.915833 -3869.436523
vn -0.291277 0.571510 0.767160
vt 0.370048 0.777169
v -11788.427734 455.697632 -4023.829346
vn 0.821378 0.098124 -0.561881
vt 0.742315 0.474617
v -11777.967773 460.687439 -3974.018066
vn 0.982337 0.187036 -0.005705
vt 0.615547 0.474617
v -11783.028320 536.645081 -4040.126221
vn 0.725364 -0.415982 -0.548459
vt 0.740926 0.095510
v -11773.812500 540.665710 -4006.528809
vn 0.944730 -0.325616 0.038214
vt 0.611831 0.095510
v -11785.792969 461.325012 -3927.146729
vn 0.696922 0.447349 0.560517
vt 0.490290 0.474617
v -11811.791016 456.309937 -3915.970703
vn -0.202098 0.505680 0.838716
vt 0.367961 0.474617
v -11839.161133 449.131470 -3936.758545
vn -0.836041 0.257644 0.484412
vt 0.246658 0.474617
v -11810.355469 539.865906 -3962.809326
vn -0.057693 0.421543 0.904971
vt 0.364749 0.095510
v -11837.843750 535.445374 -3974.547119
vn -0.761767 0.312312 0.567602
vt 0.246761 0.095510
v -11851.101563 443.278687 -3985.779297
vn -0.996591 0.080707 0.017127
vt 0.124479 0.474617
v -11844.759766 441.778137 -4031.859375
vn -0.802968 0.072108 -0.591644
vt 0.001860 0.474617
v -11847.872070 532.041260 -4007.959473
vn -0.996344 0.084919 0.009339
vt 0.124585 0.095510
v -11817.280273 447.656189 -4043.826660
vn 0.082567 0.094961 -0.992051
vt 0.869177 0.474617
v -11844.759766 441.778137 -4031.859375
vn -0.802968 0.072108 -0.591644
vt 0.996085 0.474617
v -11811.329102 532.841064 -4051.679688
vn 0.025538 -0.285874 -0.957927
vt 0.868547 0.095510
f 23/23/23 25/25/25 26/26/26
f 25/25/25 23/23/23 24/24/24
f 23/23/23 22/22/22 24/24/24
f 23/23/23 18/18/18 22/22/22
f 18/18/18 23/23/23 19/19/19
f 16/16/16 18/18/18 17/17/17
f 19/19/19 17/17/17 18/18/18
f 17/17/17 19/19/19 20/20/20
f 23/23/23 20/20/20 19/19/19
f 20/20/20 23/23/23 27/27/27
f 26/26/26 27/27/27 23/23/23
f 27/27/27 26/26/26 38/38/38
f 40/40/40 38/38/38 26/26/26
f 38/38/38 40/40/40 41/41/41
f 38/38/38 20/20/20 27/27/27
f 20/20/20 38/38/38 39/39/39
f 17/17/17 5/5/5 16/16/16
f 5/5/5 17/17/17 6/6/6
f 6/6/6 3/3/3 5/5/5
f 3/3/3 6/6/6 7/7/7
f 17/17/17 7/7/7 6/6/6
f 7/7/7 17/17/17 21/21/21
f 20/20/20 21/21/21 17/17/17
f 21/21/21 20/20/20 44/44/44
f 39/39/39 44/44/44 20/20/20
f 44/44/44 39/39/39 43/43/43
f 38/38/38 43/43/43 39/39/39
f 43/43/43 38/38/38 42/42/42
f 41/41/41 42/42/42 38/38/38
f 44/44/44 7/7/7 21/21/21
f 7/7/7 44/44/44 30/30/30
f 3/3/3 9/9/9 4/4/4
f 9/9/9 3/3/3 8/8/8
f 7/7/7 8/8/8 3/3/3
f 8/8/8 7/7/7 28/28/28
f 30/30/30 28/28/28 7/7/7
f 28/28/28 30/30/30 31/31/31
f 44/44/44 31/31/31 30/30/30
f 31/31/31 44/44/44 45/45/45
f 43/43/43 45/45/45 44/44/44
f 28/28/28 33/33/33 29/29/29
f 33/33/33 28/28/28 32/32/32
f 31/31/31 32/32/32 28/28/28
f 8/8/8 28/28/28 9/9/9
f 29/29/29 9/9/9 28/28/28
f 9/9/9 29/29/29 34/34/34
f 33/33/33 34/34/34 29/29/29
f 34/34/34 33/33/33 36/36/36
f 34/34/34 37/37/37 35/35/35
f 37/37/37 34/34/34 36/36/36
f 3/3/3 2/2/2 5/5/5
f 2/2/2 3/3/3 1/1/1
f 4/4/4 1/1/1 3/3/3
f 1/1/1 4/4/4 10/10/10
f 9/9/9 10/10/10 4/4/4
f 10/10/10 9/9/9 12/12/12
f 34/34/34 12/12/12 9/9/9
f 12/12/12 34/34/34 13/13/13
f 35/35/35 13/13/13 34/34/34
f 10/10/10 13/13/13 14/14/14
f 13/13/13 10/10/10 12/12/12
f 10/10/10 14/14/14 15/15/15
f 15/15/15 11/11/11 10/10/10
f 1/1/1 10/10/10 11/11/11
f 82/82/82 83/83/83 69/69/69
f 83/83/83 82/82/82 37/37/37
f 84/84/84 37/37/37 82/82/82
f 69/69/69 68/68/68 82/82/82
f 81/81/81 84/84/84 82/82/82
f 31/31/31 80/80/80 78/78/78
f 81/81/81 78/78/78 80/80/80
f 78/78/78 81/81/81 79/79/79
f 82/82/82 79/79/79 81/81/81
f 79/79/79 82/82/82 67/67/67
f 68/68/68 67/67/67 82/82/82
f 67/67/67 68/68/68 63/63/63
f 69/69/69 63/63/63 68/68/68
f 63/63/63 69/69/69 64/64/64
f 78/78/78 67/67/67 72/72/72
f 67/67/67 78/78/78 79/79/79
f 63/63/63 61/61/61 62/62/62
f 61/61/61 63/63/63 64/64/64
f 62/62/62 65/65/65 63/63/63
f 66/66/66 63/63/63 65/65/65
f 63/63/63 66/66/66 67/67/67
f 71/71/71 67/67/67 66/66/66
f 67/67/67 71/71/71 72/72/72
f 57/57/57 72/72/72 71/71/71
f 72/72/72 57/57/57 78/78/78
f 77/77/77 78/78/78 57/57/57
f 78/78/78 77/77/77 31/31/31
f 74/74/74 31/31/31 77/77/77
f 31/31/31 74/74/74 76/76/76
f 75/75/75 76/76/76 74/74/74
f 71/71/71 70/70/70 59/59/59
f 70/70/70 71/71/71 65/65/65
f 66/66/66 65/65/65 71/71/71
f 57/57/57 71/71/71 58/58/58
f 59/59/59 58/58/58 71/71/71
f 58/58/58 59/59/59 56/56/56
f 60/60/60 56/56/56 59/59/59
f 56/56/56 60/60/60 46/46/46
f 57/57/57 58/58/58 56/56/56
f 46/46/46 49/49/49 56/56/56
f 48/48/48 46/46/46 47/47/47
f 46/46/46 48/48/48 49/49/49
f 54/54/54 49/49/49 48/48/48
f 49/49/49 54/54/54 56/56/56
f 55/55/55 56/56/56 54/54/54
f 56/56/56 55/55/55 57/57/57
f 74/74/74 57/57/57 55/55/55
f 57/57/57 74/74/74 77/77/77
f 74/74/74 55/55/55 54/54/54
f 48/48/48 47/47/47 50/50/50
f 48/48/48 53/53/53 54/54/54
f 75/75/75 74/74/74 73/73/73
f 54/54/54 73/73/73 74/74/74
f 73/73/73 54/54/54 85/85/85
f 53/53/53 85/85/85 54/54/54
f 85/85/85 53/53/53 52/52/52
f 48/48/48 52/52/52 53/53/53
f 52/52/52 48/48/48 51/51/51
f 50/50/50 51/51/51 48/48/48
f 85/85/85 75/75/75 73/73/73
f 75/75/75 85/85/85 87/87/87
f 41/41/41 87/87/87 85/85/85
f 85/85/85 86/86/86 41/41/41
f 86/86/86 85/85/85 52/52/52
