mtllib TROLLHOLE02_HOLECAP153.mtl
g HoleCap153
usemtl Stalagcap
v -12585.765625 291.289124 -4011.919434
vn 0.140766 0.989745 0.024275
vt 0.496959 0.638621
v -12580.023438 291.099792 -4206.920898
vn -0.007119 0.999974 -0.001180
vt 0.608884 0.620013
v -12682.521484 290.269958 -4291.746094
vn -0.006793 0.999972 -0.003011
vt 0.641847 0.507871
v -12847.743164 288.679138 -4300.359863
vn -0.024226 0.999099 -0.034838
vt 0.615743 0.390344
v -12933.592773 289.260315 -4130.687500
vn -0.038460 0.999216 -0.009396
vt 0.500884 0.349985
v -12930.130859 288.724365 -3928.747070
vn -0.041090 0.998981 0.018695
vt 0.383995 0.391770
v -12792.355469 290.247620 -3879.681396
vn -0.005513 0.999982 0.002328
vt 0.351031 0.512231
v -12668.886719 289.622864 -3823.649414
vn 0.023496 0.999069 0.036170
vt 0.401034 0.615871
f 2/2/2 3/3/3 1/1/1
f 7/7/7 1/1/1 3/3/3
f 1/1/1 7/7/7 8/8/8
f 5/5/5 3/3/3 4/4/4
f 3/3/3 5/5/5 7/7/7
f 6/6/6 7/7/7 5/5/5
