mtllib TROLLHOLE02_HOLECAP193.mtl
g HoleCap193
usemtl Stalagcap
v -6680.334473 1366.294312 -10201.601563
vn 0.384286 -0.917365 -0.103760
vt 0.401034 0.615871
v -6684.038086 1362.632080 -10153.611328
vn 0.275513 -0.959891 -0.051989
vt 0.496959 0.638621
v -6723.612305 1349.630127 -10123.274414
vn 0.265516 -0.964082 -0.006795
vt 0.608884 0.620013
v -6770.114746 1338.290283 -10123.227539
vn 0.175553 -0.982249 -0.066090
vt 0.641847 0.507871
v -6794.604492 1339.613647 -10166.109375
vn 0.060873 -0.991815 -0.112236
vt 0.615743 0.390344
v -6793.982422 1348.999634 -10226.461914
vn -0.004093 -0.977078 -0.212840
vt 0.500884 0.349985
v -6751.430664 1356.013672 -10247.114258
vn 0.098753 -0.952598 -0.287759
vt 0.383995 0.391770
v -6705.197266 1365.164185 -10250.984375
vn 0.279656 -0.924085 -0.260498
vt 0.351031 0.512231
f 2/2/2 3/3/3 1/1/1
f 7/7/7 1/1/1 3/3/3
f 1/1/1 7/7/7 8/8/8
f 5/5/5 3/3/3 4/4/4
f 3/3/3 5/5/5 7/7/7
f 6/6/6 7/7/7 5/5/5
