mtllib TROLLHOLE02_PS-UPPERSTALAG20.mtl
g s-UpperStalag20
usemtl Stalag
v -6594.151855 928.353149 -9727.608398
vn 0.708917 0.168018 0.684986
vt 0.249902 0.107930
v -6589.395020 929.721497 -9737.906250
vn 0.972075 0.147440 0.182570
vt 0.363102 0.192597
v -6594.518555 959.490967 -9737.421875
vn 0.922111 0.285695 0.260940
vt 0.332583 0.072120
v -6597.985352 961.296021 -9732.629883
vn 0.635736 0.347353 0.689337
vt 0.249907 0.063167
v -6590.766113 933.667969 -9747.565430
vn 0.783918 0.210336 -0.584151
vt 0.500183 0.107930
v -6596.129883 965.054443 -9741.683594
vn 0.729069 0.522846 -0.441690
vt 0.373923 0.054215
v -6601.289063 970.348022 -9736.712891
vn 0.129715 0.975022 0.180293
vt 0.251204 0.000500
v -6602.774414 958.995300 -9729.471680
vn 0.169693 0.313364 0.934349
vt 0.165941 0.072120
v -6603.123535 929.133179 -9723.108398
vn 0.109952 0.195562 0.974508
vt 0.123310 0.107930
v -6606.449707 964.435181 -9731.745117
vn -0.557753 0.500783 0.661912
vt 0.123961 0.054215
v -6610.842773 932.816528 -9725.864258
vn -0.732199 0.185905 0.655228
vt -0.003281 0.107930
v -6598.485352 934.037476 -9750.322266
vn -0.052361 0.194764 -0.979452
vt 0.625045 0.107930
v -6599.806152 963.125427 -9743.958008
vn -0.029317 0.408684 -0.912205
vt 0.662198 0.072120
v -6596.129883 965.054443 -9741.683594
vn 0.729069 0.522846 -0.441690
vt 0.618344 0.054215
v -6607.457031 934.599792 -9745.822266
vn -0.714383 0.144010 -0.684776
vt 0.748066 0.190359
v -6604.594727 965.839233 -9740.798828
vn -0.611723 0.482943 -0.626547
vt 0.743206 0.054215
v -6601.289063 970.348022 -9736.712891
vn 0.129715 0.975022 0.180293
vt 0.736504 0.000500
v -6612.213867 933.449158 -9735.523438
vn -0.984409 0.111504 -0.136033
vt 0.861910 0.192597
v -6608.062012 962.629944 -9736.007813
vn -0.932597 0.345019 -0.105949
vt 0.827710 0.072120
v -6610.842773 932.816528 -9725.864258
vn -0.732199 0.185905 0.655228
vt 0.996719 0.107930
v -6606.449707 964.435181 -9731.745117
vn -0.557753 0.500783 0.661912
vt 0.866612 0.054215
v -6557.749512 751.139282 -9688.787109
vn 0.352140 0.886891 0.299034
vt 0.249904 0.999501
v -6543.583984 753.272095 -9747.256836
vn 0.315168 0.948726 0.024254
vt 0.373292 0.999501
v -6560.888184 768.596191 -9738.888672
vn 0.859858 0.505824 0.069182
vt 0.373292 0.928195
v -6574.161133 767.142151 -9699.112305
vn 0.613844 0.564833 0.551507
vt 0.249098 0.928195
v -6560.537109 753.791016 -9805.922852
vn 0.185663 0.976942 -0.105424
vt 0.496680 0.999501
v -6566.490234 769.392883 -9777.216797
vn 0.680948 0.576175 -0.452030
vt 0.497486 0.928195
v -6574.277344 803.135925 -9768.044922
vn 0.768381 0.271100 -0.579737
vt 0.497483 0.781096
v -6570.645020 802.425659 -9739.145508
vn 0.971090 0.215775 0.102102
vt 0.373290 0.781096
v -6580.786133 801.698181 -9708.937500
vn 0.738323 0.246064 0.627959
vt 0.249904 0.856889
v -6603.907715 765.508301 -9683.208984
vn 0.062940 0.572273 0.817644
vt 0.123292 0.928195
v -6593.283203 748.842773 -9668.156250
vn 0.017182 0.922689 0.385161
vt 0.123292 0.999501
v -6602.570801 801.560669 -9696.945313
vn 0.062657 0.285287 0.956392
vt 0.123292 0.856889
v -6622.166016 801.838623 -9704.745117
vn -0.759787 0.269663 0.591612
vt -0.003320 0.856889
v -6631.019043 764.761230 -9693.696289
vn -0.651054 0.586987 0.481223
vt -0.003320 0.928195
v -6643.331543 746.838501 -9673.296875
vn -0.197927 0.935474 0.292768
vt -0.003320 0.999501
v -6601.812012 755.453064 -9801.132813
vn -0.085266 0.865604 -0.493416
vt 0.623292 0.999501
v -6593.368164 769.054688 -9788.774414
vn -0.064897 0.616448 -0.784717
vt 0.623292 0.928195
v -6646.354492 753.646179 -9790.479492
vn -0.158093 0.963375 -0.216601
vt 0.749904 0.999501
v -6622.880859 767.830078 -9773.941406
vn -0.580743 0.666341 -0.467683
vt 0.749098 0.928195
v -6615.540527 802.892395 -9764.388672
vn -0.744368 0.230478 -0.626735
vt 0.749098 0.781096
v -6593.814453 803.221802 -9776.113281
vn -0.052354 0.276224 -0.959666
vt 0.623290 0.781096
v -6659.001953 753.246277 -9731.983398
vn -0.203437 0.977236 0.060196
vt 0.873292 0.999501
v -6636.387207 765.966980 -9733.094727
vn -0.805551 0.591876 -0.027759
vt 0.873292 0.928195
v -6643.331543 746.838501 -9673.296875
vn -0.197927 0.935474 0.292768
vt 0.996680 0.999501
v -6631.019043 764.761230 -9693.696289
vn -0.651054 0.586987 0.481223
vt 0.996680 0.928195
v -6622.166016 801.838623 -9704.745117
vn -0.759787 0.269663 0.591612
vt 0.996680 0.856889
v -6625.740723 802.356812 -9733.913086
vn -0.975733 0.197053 -0.095477
vt 0.873295 0.781096
v -6580.791992 866.750244 -9738.649414
vn 0.980179 0.145525 0.134429
vt 0.373282 0.482409
v -6587.934082 865.294373 -9719.073242
vn 0.743530 0.173584 0.645780
vt 0.249903 0.482409
v -6582.925781 868.794800 -9757.256836
vn 0.782520 0.191721 -0.592373
vt 0.497472 0.482409
v -6602.682617 866.378723 -9711.255859
vn 0.082438 0.196745 0.976983
vt 0.123645 0.482409
v -6615.761230 868.237244 -9716.166016
vn -0.770538 0.165626 0.615499
vt -0.002957 0.482409
v -6617.894531 869.104431 -9734.773438
vn -0.987808 0.103974 -0.115868
vt 0.873303 0.482409
v -6610.752441 869.383301 -9754.350586
vn -0.748395 0.137242 -0.648898
vt 0.749099 0.482409
v -6615.761230 868.237244 -9716.166016
vn -0.770538 0.165626 0.615499
vt 0.996700 0.482409
v -6596.004395 869.476135 -9762.167969
vn -0.056571 0.188627 -0.980418
vt 0.623283 0.482409
f 39/39/39 43/43/43 44/44/44
f 45/45/45 44/44/44 43/43/43
f 26/26/26 37/37/37 38/38/38
f 39/39/39 38/38/38 37/37/37
f 38/38/38 39/39/39 40/40/40
f 44/44/44 40/40/40 39/39/39
f 40/40/40 44/44/44 41/41/41
f 48/48/48 41/41/41 44/44/44
f 38/38/38 41/41/41 42/42/42
f 41/41/41 38/38/38 40/40/40
f 41/41/41 57/57/57 42/42/42
f 28/28/28 42/42/42 57/57/57
f 42/42/42 28/28/28 38/38/38
f 27/27/27 38/38/38 28/28/28
f 38/38/38 27/27/27 26/26/26
f 24/24/24 26/26/26 27/27/27
f 26/26/26 24/24/24 23/23/23
f 22/22/22 23/23/23 24/24/24
f 24/24/24 27/27/27 28/28/28
f 57/57/57 51/51/51 28/28/28
f 24/24/24 25/25/25 22/22/22
f 32/32/32 22/22/22 31/31/31
f 25/25/25 31/31/31 22/22/22
f 31/31/31 25/25/25 30/30/30
f 24/24/24 30/30/30 25/25/25
f 30/30/30 24/24/24 29/29/29
f 28/28/28 29/29/29 24/24/24
f 29/29/29 28/28/28 49/49/49
f 51/51/51 49/49/49 28/28/28
f 49/49/49 51/51/51 5/5/5
f 57/57/57 5/5/5 51/51/51
f 5/5/5 57/57/57 12/12/12
f 30/30/30 29/29/29 49/49/49
f 30/30/30 33/33/33 31/31/31
f 36/36/36 32/32/32 31/31/31
f 5/5/5 2/2/2 49/49/49
f 3/3/3 5/5/5 6/6/6
f 5/5/5 3/3/3 2/2/2
f 1/1/1 2/2/2 3/3/3
f 2/2/2 1/1/1 49/49/49
f 50/50/50 49/49/49 1/1/1
f 49/49/49 50/50/50 30/30/30
f 52/52/52 30/30/30 50/50/50
f 30/30/30 52/52/52 33/33/33
f 34/34/34 33/33/33 52/52/52
f 33/33/33 34/34/34 31/31/31
f 35/35/35 31/31/31 34/34/34
f 31/31/31 35/35/35 36/36/36
f 52/52/52 1/1/1 9/9/9
f 1/1/1 52/52/52 50/50/50
f 52/52/52 53/53/53 34/34/34
f 53/53/53 52/52/52 11/11/11
f 9/9/9 11/11/11 52/52/52
f 11/11/11 9/9/9 8/8/8
f 1/1/1 8/8/8 9/9/9
f 8/8/8 1/1/1 4/4/4
f 3/3/3 4/4/4 1/1/1
f 4/4/4 3/3/3 7/7/7
f 6/6/6 7/7/7 3/3/3
f 8/8/8 10/10/10 11/11/11
f 10/10/10 8/8/8 7/7/7
f 4/4/4 7/7/7 8/8/8
f 45/45/45 46/46/46 44/44/44
f 47/47/47 44/44/44 46/46/46
f 44/44/44 47/47/47 48/48/48
f 54/54/54 48/48/48 47/47/47
f 48/48/48 54/54/54 41/41/41
f 55/55/55 41/41/41 54/54/54
f 41/41/41 55/55/55 57/57/57
f 15/15/15 57/57/57 55/55/55
f 57/57/57 15/15/15 12/12/12
f 13/13/13 12/12/12 15/15/15
f 12/12/12 13/13/13 5/5/5
f 14/14/14 5/5/5 13/13/13
f 54/54/54 15/15/15 55/55/55
f 15/15/15 54/54/54 18/18/18
f 47/47/47 56/56/56 54/54/54
f 20/20/20 54/54/54 56/56/56
f 54/54/54 20/20/20 18/18/18
f 19/19/19 18/18/18 20/20/20
f 18/18/18 19/19/19 15/15/15
f 16/16/16 15/15/15 19/19/19
f 15/15/15 16/16/16 13/13/13
f 17/17/17 13/13/13 16/16/16
f 13/13/13 17/17/17 14/14/14
f 20/20/20 21/21/21 19/19/19
f 17/17/17 19/19/19 21/21/21
f 19/19/19 17/17/17 16/16/16
