mtllib TROLLHOLE02_HOLECAP146.mtl
g HoleCap146
usemtl Stalagcap
v -11338.453125 244.216202 -8611.907227
vn 0.078236 0.996747 -0.019341
vt 0.608884 0.620013
v -11296.895508 244.048080 -8511.978516
vn 0.107039 0.993331 -0.042843
vt 0.641847 0.507871
v -11221.051758 237.811340 -8467.092773
vn 0.109777 0.919927 0.376408
vt 0.615743 0.390344
v -11328.227539 244.509171 -8802.252930
vn 0.017399 0.999831 0.005977
vt 0.496959 0.638621
v -11114.770508 244.144241 -8573.869141
vn -0.156125 0.982953 -0.097102
vt 0.500884 0.349985
v -11059.458008 238.012405 -8724.875000
vn 0.274833 0.959210 -0.066206
vt 0.383995 0.391770
v -11162.487305 244.598526 -8829.125977
vn -0.000035 0.999995 0.003108
vt 0.351031 0.512231
v -11268.153320 238.243866 -8941.370117
vn -0.048780 0.979264 -0.196626
vt 0.401034 0.615871
f 3/3/3 1/1/1 2/2/2
f 1/1/1 3/3/3 4/4/4
f 6/6/6 3/3/3 5/5/5
f 3/3/3 6/6/6 4/4/4
f 7/7/7 4/4/4 6/6/6
f 4/4/4 7/7/7 8/8/8
