mtllib TROLLHOLE02_PS-MAINSTALAG13.mtl
g Ps-MainStalag13
usemtl Stalag
v 1129.343750 -964.520325 -11362.974609
vn 0.830915 -0.140585 -0.538346
vt 0.249902 0.107930
v 1131.405762 -964.196716 -11349.383789
vn 0.973648 -0.124470 0.191093
vt 0.363102 0.192597
v 1124.195435 -1011.625977 -11350.853516
vn 0.909699 -0.405625 0.088967
vt 0.332583 0.072120
v 1121.700806 -1012.698120 -11357.915039
vn 0.713554 -0.517472 -0.472296
vt 0.249907 0.063167
v 1124.197876 -966.116516 -11337.678711
vn 0.556315 -0.134004 0.820096
vt 0.500183 0.107930
v 1119.139893 -1016.223083 -11345.329102
vn 0.535214 -0.614153 0.579968
vt 0.373923 0.054215
v 1114.129395 -1019.909546 -11352.903320
vn 0.161528 -0.981060 -0.106909
vt 0.251204 0.000500
v 1116.175049 -1011.625977 -11362.970703
vn 0.280904 -0.409570 -0.867955
vt 0.165941 0.072120
v 1117.639160 -966.473877 -11370.182617
vn 0.219707 -0.130981 -0.966733
vt 0.123310 0.107930
v 1109.114502 -1016.223083 -11360.475586
vn -0.321292 -0.619550 -0.716191
vt 0.123961 0.054215
v 1104.048706 -969.532349 -11368.121094
vn -0.536059 -0.143271 -0.831934
vt -0.003281 0.107930
v 1110.606567 -966.105347 -11335.617188
vn -0.193764 -0.119053 0.973798
vt 0.625045 0.107930
v 1112.078003 -1015.150940 -11342.833008
vn -0.145125 -0.482182 0.863967
vt 0.662198 0.072120
v 1119.139893 -1016.223083 -11345.329102
vn 0.535214 -0.614153 0.579968
vt 0.618344 0.054215
v 1098.902344 -967.162964 -11342.825195
vn -0.821352 -0.133832 0.554500
vt 0.748066 0.190359
v 1106.553589 -1017.104309 -11347.889648
vn -0.625057 -0.661914 0.413731
vt 0.743206 0.054215
v 1114.129395 -1019.909546 -11352.903320
vn 0.161528 -0.981060 -0.106909
vt 0.736504 0.000500
v 1096.839966 -968.382507 -11356.416016
vn -0.974210 -0.125001 -0.187856
vt 0.861910 0.192597
v 1104.057129 -1015.150940 -11354.950195
vn -0.851239 -0.486622 -0.196447
vt 0.827710 0.072120
v 1104.048706 -969.532349 -11368.121094
vn -0.536059 -0.143271 -0.831934
vt 0.996719 0.107930
v 1109.114502 -1016.223083 -11360.475586
vn -0.321292 -0.619550 -0.716191
vt 0.866612 0.054215
v 1189.860229 -656.085876 -11402.181641
vn 0.183242 -0.982877 -0.019359
vt 0.249904 0.999501
v 1200.462891 -645.332642 -11323.400391
vn 0.040635 -0.985787 0.163014
vt 0.373292 0.999501
v 1174.181396 -659.223389 -11340.676758
vn 0.698183 -0.665677 0.263466
vt 0.373292 0.928195
v 1168.330566 -672.886719 -11388.778320
vn 0.713813 -0.611545 -0.341298
vt 0.249098 0.928195
v 1164.611328 -629.938354 -11244.082031
vn -0.105729 -0.951573 0.288668
vt 0.496680 0.999501
v 1150.000366 -645.560120 -11298.683594
vn 0.236945 -0.740629 0.628750
vt 0.497486 0.928195
v 1140.126465 -703.647339 -11313.603516
vn 0.508468 -0.207342 0.835745
vt 0.497483 0.781096
v 1157.652466 -715.107056 -11344.039063
vn 0.944512 -0.203916 0.257517
vt 0.373290 0.781096
v 1153.411865 -726.731934 -11378.904297
vn 0.834782 -0.224333 -0.502806
vt 0.249904 0.856889
v 1126.338135 -677.441162 -11412.959961
vn 0.176511 -0.622978 -0.762064
vt 0.123292 0.928195
v 1140.262329 -660.203918 -11434.299805
vn 0.072939 -0.972083 -0.223013
vt 0.123292 0.999501
v 1122.975830 -731.047485 -11396.430664
vn 0.197092 -0.213199 -0.956923
vt 0.123292 0.856889
v 1088.110718 -727.558105 -11392.190430
vn -0.569776 -0.222303 -0.791162
vt -0.003320 0.856889
v 1078.235840 -672.886719 -11407.108398
vn -0.488920 -0.697484 -0.523902
vt -0.003320 0.928195
v 1051.081055 -657.620850 -11433.134766
vn -0.113527 -0.988840 -0.096477
vt -0.003320 0.999501
v 1093.676758 -625.864746 -11265.414063
vn -0.186228 -0.779542 0.598024
vt 0.623292 0.999501
v 1101.898071 -641.005676 -11292.833008
vn -0.167183 -0.663313 0.729428
vt 0.623292 0.928195
v 1020.865112 -629.068848 -11287.587891
vn -0.058279 -0.951034 0.303541
vt 0.749904 0.999501
v 1059.905640 -645.560120 -11317.013672
vn -0.499354 -0.707135 0.500605
vt 0.749098 0.928195
v 1074.825317 -703.812561 -11326.888672
vn -0.793560 -0.206322 0.572445
vt 0.749098 0.781096
v 1105.261475 -699.827454 -11309.362305
vn -0.195144 -0.194102 0.961376
vt 0.623290 0.781096
v 1009.596680 -646.848206 -11364.887695
vn -0.037515 -0.982775 0.180959
vt 0.873292 0.999501
v 1054.055054 -659.223389 -11365.116211
vn -0.709368 -0.704618 0.017602
vt 0.873292 0.928195
v 1051.081055 -657.620850 -11433.134766
vn -0.113527 -0.988840 -0.096477
vt 0.996680 0.999501
v 1078.235840 -672.886719 -11407.108398
vn -0.488920 -0.697484 -0.523902
vt 0.996680 0.928195
v 1088.110718 -727.558105 -11392.190430
vn -0.569776 -0.222303 -0.791162
vt 0.996680 0.856889
v 1070.584717 -715.768005 -11361.753906
vn -0.970686 -0.201431 -0.131129
vt 0.873295 0.781096
v 1142.976196 -841.060913 -11347.027344
vn 0.970190 -0.107414 0.217239
vt 0.373282 0.482409
v 1140.165161 -846.570679 -11370.136719
vn 0.839246 -0.120366 -0.530262
vt 0.249903 0.482409
v 1131.359375 -836.212036 -11326.852539
vn 0.537171 -0.109213 0.836373
vt 0.497472 0.482409
v 1119.991089 -850.169739 -11381.753906
vn 0.206424 -0.113192 -0.971893
vt 0.123645 0.482409
v 1096.881470 -849.875305 -11378.943359
vn -0.560126 -0.118317 -0.819915
vt -0.002957 0.482409
v 1085.264282 -843.704590 -11358.768555
vn -0.979143 -0.106246 -0.173181
vt 0.873303 0.482409
v 1088.074951 -836.872925 -11335.659180
vn -0.818135 -0.108859 0.564627
vt 0.749099 0.482409
v 1096.881470 -849.875305 -11378.943359
vn -0.560126 -0.118317 -0.819915
vt 0.996700 0.482409
v 1108.249390 -834.595764 -11324.041992
vn -0.196843 -0.101119 0.975206
vt 0.623283 0.482409
f 39/39/39 43/43/43 44/44/44
f 45/45/45 44/44/44 43/43/43
f 26/26/26 37/37/37 38/38/38
f 39/39/39 38/38/38 37/37/37
f 38/38/38 39/39/39 40/40/40
f 44/44/44 40/40/40 39/39/39
f 40/40/40 44/44/44 41/41/41
f 48/48/48 41/41/41 44/44/44
f 38/38/38 41/41/41 42/42/42
f 41/41/41 38/38/38 40/40/40
f 41/41/41 57/57/57 42/42/42
f 28/28/28 42/42/42 57/57/57
f 42/42/42 28/28/28 38/38/38
f 27/27/27 38/38/38 28/28/28
f 38/38/38 27/27/27 26/26/26
f 24/24/24 26/26/26 27/27/27
f 26/26/26 24/24/24 23/23/23
f 22/22/22 23/23/23 24/24/24
f 24/24/24 27/27/27 28/28/28
f 57/57/57 51/51/51 28/28/28
f 24/24/24 25/25/25 22/22/22
f 32/32/32 22/22/22 31/31/31
f 25/25/25 31/31/31 22/22/22
f 31/31/31 25/25/25 30/30/30
f 24/24/24 30/30/30 25/25/25
f 30/30/30 24/24/24 29/29/29
f 28/28/28 29/29/29 24/24/24
f 29/29/29 28/28/28 49/49/49
f 51/51/51 49/49/49 28/28/28
f 49/49/49 51/51/51 5/5/5
f 57/57/57 5/5/5 51/51/51
f 5/5/5 57/57/57 12/12/12
f 30/30/30 29/29/29 49/49/49
f 30/30/30 33/33/33 31/31/31
f 36/36/36 32/32/32 31/31/31
f 5/5/5 2/2/2 49/49/49
f 3/3/3 5/5/5 6/6/6
f 5/5/5 3/3/3 2/2/2
f 1/1/1 2/2/2 3/3/3
f 2/2/2 1/1/1 49/49/49
f 50/50/50 49/49/49 1/1/1
f 49/49/49 50/50/50 30/30/30
f 52/52/52 30/30/30 50/50/50
f 30/30/30 52/52/52 33/33/33
f 34/34/34 33/33/33 52/52/52
f 33/33/33 34/34/34 31/31/31
f 35/35/35 31/31/31 34/34/34
f 31/31/31 35/35/35 36/36/36
f 52/52/52 1/1/1 9/9/9
f 1/1/1 52/52/52 50/50/50
f 52/52/52 53/53/53 34/34/34
f 53/53/53 52/52/52 11/11/11
f 9/9/9 11/11/11 52/52/52
f 11/11/11 9/9/9 8/8/8
f 1/1/1 8/8/8 9/9/9
f 8/8/8 1/1/1 4/4/4
f 3/3/3 4/4/4 1/1/1
f 4/4/4 3/3/3 7/7/7
f 6/6/6 7/7/7 3/3/3
f 8/8/8 10/10/10 11/11/11
f 10/10/10 8/8/8 7/7/7
f 4/4/4 7/7/7 8/8/8
f 45/45/45 46/46/46 44/44/44
f 47/47/47 44/44/44 46/46/46
f 44/44/44 47/47/47 48/48/48
f 54/54/54 48/48/48 47/47/47
f 48/48/48 54/54/54 41/41/41
f 55/55/55 41/41/41 54/54/54
f 41/41/41 55/55/55 57/57/57
f 15/15/15 57/57/57 55/55/55
f 57/57/57 15/15/15 12/12/12
f 13/13/13 12/12/12 15/15/15
f 12/12/12 13/13/13 5/5/5
f 14/14/14 5/5/5 13/13/13
f 54/54/54 15/15/15 55/55/55
f 15/15/15 54/54/54 18/18/18
f 47/47/47 56/56/56 54/54/54
f 20/20/20 54/54/54 56/56/56
f 54/54/54 20/20/20 18/18/18
f 19/19/19 18/18/18 20/20/20
f 18/18/18 19/19/19 15/15/15
f 16/16/16 15/15/15 19/19/19
f 15/15/15 16/16/16 13/13/13
f 17/17/17 13/13/13 16/16/16
f 13/13/13 17/17/17 14/14/14
f 20/20/20 21/21/21 19/19/19
f 17/17/17 19/19/19 21/21/21
f 19/19/19 17/17/17 16/16/16
