mtllib TROLLHOLE02_PS-MAINSTALAG02.mtl
g Ps-MainStalag02
usemtl Stalag
v -1811.709961 -1186.014282 -12523.042969
vn -0.963668 0.099892 0.247722
vt 0.741562 0.095510
v -1806.389404 -1187.843384 -12514.856445
vn -0.460350 0.121437 0.879392
vt 0.868865 0.095510
v -1804.426025 -1147.250488 -12520.858398
vn -0.427372 0.424891 0.798010
vt 0.858777 0.063840
v -1806.782593 -1144.767212 -12526.428711
vn -0.855731 0.472612 0.210623
vt 0.790081 0.048005
v -1798.545898 -1188.430908 -12514.886719
vn 0.505237 0.115733 0.855185
vt 0.996168 0.095510
v -1799.966553 -1144.767212 -12522.206055
vn 0.439063 0.528492 0.726581
vt 0.917384 0.048005
v -1801.627930 -1139.800781 -12530.079102
vn -0.002251 0.999997 0.001030
vt 0.838600 0.000499
v -1801.627930 -1139.800781 -12530.079102
vn -0.002251 0.999997 0.001030
vt 0.380460 0.000499
v -1803.218628 -1144.767212 -12538.001953
vn -0.439824 0.534235 -0.721906
vt 0.441973 0.055922
v -1807.027710 -1147.250366 -12533.495117
vn -0.905129 0.308251 -0.292786
vt 0.534708 0.063840
v -1806.782593 -1144.767212 -12526.428711
vn -0.855731 0.472612 0.210623
vt 0.560693 0.048005
v -1804.826660 -1186.014282 -12545.394531
vn -0.488044 0.126724 -0.863570
vt 0.475822 0.180390
v -1810.685181 -1186.232300 -12535.721680
vn -0.948097 0.085880 -0.306163
vt 0.593479 0.182369
v -1798.545898 -1188.430908 -12514.886719
vn 0.505237 0.115733 0.855185
vt 0.002408 0.095510
v -1792.678345 -1189.454468 -12524.565430
vn 0.949325 0.072290 0.305869
vt 0.145881 0.182369
v -1796.122070 -1147.250488 -12526.738281
vn 0.907009 0.302603 0.292859
vt 0.209876 0.063840
v -1799.966553 -1144.767212 -12522.206055
vn 0.439063 0.528492 0.726581
vt 0.191434 0.048005
v -1791.662231 -1188.430908 -12537.238281
vn 0.968213 0.087866 -0.234187
vt 0.259964 0.180390
v -1796.402588 -1144.767212 -12533.779297
vn 0.857311 0.470121 -0.209770
vt 0.301771 0.055922
v -1796.973999 -1187.843384 -12545.430664
vn 0.487232 0.117756 -0.865297
vt 0.366861 0.182369
v -1798.723633 -1147.250366 -12539.375000
vn 0.441151 0.426383 -0.789673
vt 0.369986 0.063840
v -1847.786621 -1480.654907 -12445.544922
vn -0.436564 0.892849 0.110603
vt 0.743599 0.999501
v -1824.565063 -1480.652344 -12411.396484
vn -0.089482 0.971475 0.219610
vt 0.869969 0.999501
v -1817.271729 -1454.724976 -12459.482422
vn -0.231427 0.704845 0.670548
vt 0.869888 0.926612
v -1836.513184 -1450.433716 -12486.478516
vn -0.855530 0.438250 0.275691
vt 0.744007 0.926612
v -1781.411377 -1483.724487 -12414.869141
vn 0.324928 0.898213 0.296034
vt 0.996339 0.999501
v -1790.444092 -1458.205078 -12466.094727
vn 0.533587 0.644757 0.547333
vt 0.996170 0.926612
v -1794.648682 -1404.196777 -12490.348633
vn 0.575686 0.252484 0.777713
vt 0.996002 0.853724
v -1813.389160 -1397.285034 -12489.244141
vn -0.333300 0.311627 0.889831
vt 0.869806 0.853724
v -1826.661011 -1390.170410 -12508.142578
vn -0.936561 0.191523 0.293551
vt 0.743617 0.777169
v -1824.478271 -1387.798950 -12541.260742
vn -0.958902 0.125856 -0.254299
vt 0.618250 0.777169
v -1835.551514 -1449.003296 -12540.890625
vn -0.927245 0.334538 -0.168229
vt 0.618930 0.926612
v -1811.282104 -1389.967651 -12568.373047
vn -0.520439 0.230373 -0.822236
vt 0.493688 0.777169
v -1817.863770 -1449.622559 -12588.208008
vn -0.524352 0.607221 -0.596941
vt 0.494332 0.926612
v -1828.853271 -1483.814331 -12646.237305
vn -0.204340 0.952289 -0.226693
vt 0.493599 0.999501
v -1850.347656 -1480.085815 -12544.678711
vn -0.553685 0.830729 -0.057643
vt 0.618599 0.999501
v -1781.411377 -1483.724487 -12414.869141
vn 0.324928 0.898213 0.296034
vt 0.001543 0.999501
v -1749.265869 -1476.469238 -12509.797852
vn 0.384910 0.915332 0.118373
vt 0.122571 0.999501
v -1768.646362 -1457.201904 -12512.512695
vn 0.834479 0.496564 0.238892
vt 0.123472 0.926612
v -1790.444092 -1458.205078 -12466.094727
vn 0.533587 0.644757 0.547333
vt 0.001428 0.926612
v -1739.999146 -1476.026733 -12600.843750
vn 0.273398 0.955714 -0.108922
vt 0.243599 0.999501
v -1763.574951 -1454.149170 -12566.023438
vn 0.793057 0.584099 -0.172884
vt 0.246097 0.926612
v -1777.214722 -1403.182739 -12550.128906
vn 0.951231 0.198620 -0.236028
vt 0.246990 0.777169
v -1780.425049 -1405.959839 -12517.235352
vn 0.945094 0.158484 0.285797
vt 0.124174 0.777169
v -1794.648682 -1404.196777 -12490.348633
vn 0.575686 0.252484 0.777713
vt 0.001312 0.853724
v -1781.907593 -1476.515991 -12625.718750
vn 0.104371 0.932288 -0.346333
vt 0.368599 0.999501
v -1786.926270 -1451.480225 -12593.920898
vn 0.325138 0.659078 -0.678160
vt 0.369886 0.926612
v -1791.514038 -1396.473755 -12569.251953
vn 0.483558 0.267077 -0.833572
vt 0.370048 0.777169
v -1818.364624 -1284.922974 -12518.638672
vn -0.959225 0.089460 0.268111
vt 0.742315 0.474617
v -1816.345703 -1283.311890 -12538.923828
vn -0.953109 0.074782 -0.293242
vt 0.615547 0.474617
v -1807.225464 -1284.922974 -12554.809570
vn -0.457114 0.113260 -0.882167
vt 0.490290 0.474617
v -1794.716919 -1289.756348 -12554.239258
vn 0.491434 0.110508 -0.863875
vt 0.367961 0.474617
v -1785.921753 -1294.589722 -12541.611328
vn 0.968814 0.079019 -0.234853
vt 0.246658 0.474617
v -1787.940796 -1296.200806 -12521.325195
vn 0.951554 0.065547 0.300413
vt 0.124479 0.474617
v -1797.061035 -1294.589722 -12505.439453
vn 0.501126 0.106314 0.858819
vt 0.001860 0.474617
v -1809.569336 -1289.756348 -12506.010742
vn -0.437085 0.121267 0.891208
vt 0.869177 0.474617
v -1797.061035 -1294.589722 -12505.439453
vn 0.501126 0.106314 0.858819
vt 0.996085 0.474617
f 39/39/39 38/38/38 41/41/41
f 38/38/38 39/39/39 37/37/37
f 40/40/40 37/37/37 39/39/39
f 39/39/39 45/45/45 40/40/40
f 45/45/45 39/39/39 44/44/44
f 44/44/44 54/54/54 45/45/45
f 54/54/54 44/44/44 43/43/43
f 39/39/39 43/43/43 44/44/44
f 43/43/43 39/39/39 42/42/42
f 41/41/41 42/42/42 39/39/39
f 42/42/42 41/41/41 47/47/47
f 46/46/46 47/47/47 41/41/41
f 47/47/47 46/46/46 35/35/35
f 47/47/47 43/43/43 42/42/42
f 43/43/43 47/47/47 48/48/48
f 54/54/54 18/18/18 15/15/15
f 18/18/18 54/54/54 53/53/53
f 43/43/43 53/53/53 54/54/54
f 53/53/53 43/43/43 52/52/52
f 48/48/48 52/52/52 43/43/43
f 52/52/52 48/48/48 33/33/33
f 47/47/47 33/33/33 48/48/48
f 33/33/33 47/47/47 34/34/34
f 35/35/35 34/34/34 47/47/47
f 34/34/34 35/35/35 32/32/32
f 36/36/36 32/32/32 35/35/35
f 32/32/32 36/36/36 22/22/22
f 52/52/52 18/18/18 53/53/53
f 18/18/18 52/52/52 20/20/20
f 32/32/32 33/33/33 34/34/34
f 33/33/33 32/32/32 31/31/31
f 20/20/20 21/21/21 18/18/18
f 21/21/21 20/20/20 12/12/12
f 52/52/52 12/12/12 20/20/20
f 12/12/12 52/52/52 51/51/51
f 33/33/33 51/51/51 52/52/52
f 51/51/51 33/33/33 50/50/50
f 31/31/31 50/50/50 33/33/33
f 50/50/50 31/31/31 30/30/30
f 32/32/32 30/30/30 31/31/31
f 30/30/30 32/32/32 25/25/25
f 22/22/22 25/25/25 32/32/32
f 25/25/25 22/22/22 24/24/24
f 23/23/23 24/24/24 22/22/22
f 24/24/24 23/23/23 26/26/26
f 12/12/12 51/51/51 50/50/50
f 30/30/30 25/25/25 24/24/24
f 12/12/12 9/9/9 21/21/21
f 26/26/26 27/27/27 24/24/24
f 30/30/30 49/49/49 50/50/50
f 24/24/24 29/29/29 30/30/30
f 29/29/29 24/24/24 28/28/28
f 27/27/27 28/28/28 24/24/24
f 56/56/56 28/28/28 57/57/57
f 28/28/28 56/56/56 29/29/29
f 54/54/54 55/55/55 45/45/45
f 55/55/55 54/54/54 14/14/14
f 15/15/15 14/14/14 54/54/54
f 14/14/14 15/15/15 16/16/16
f 18/18/18 16/16/16 15/15/15
f 16/16/16 18/18/18 19/19/19
f 21/21/21 19/19/19 18/18/18
f 19/19/19 21/21/21 8/8/8
f 9/9/9 8/8/8 21/21/21
f 8/8/8 9/9/9 10/10/10
f 12/12/12 10/10/10 9/9/9
f 10/10/10 12/12/12 13/13/13
f 50/50/50 13/13/13 12/12/12
f 13/13/13 50/50/50 1/1/1
f 49/49/49 1/1/1 50/50/50
f 1/1/1 49/49/49 56/56/56
f 30/30/30 56/56/56 49/49/49
f 56/56/56 30/30/30 29/29/29
f 13/13/13 1/1/1 10/10/10
f 11/11/11 10/10/10 1/1/1
f 10/10/10 11/11/11 8/8/8
f 19/19/19 8/8/8 16/16/16
f 17/17/17 16/16/16 8/8/8
f 16/16/16 17/17/17 14/14/14
f 7/7/7 4/4/4 3/3/3
f 1/1/1 3/3/3 4/4/4
f 3/3/3 1/1/1 2/2/2
f 56/56/56 2/2/2 1/1/1
f 2/2/2 56/56/56 5/5/5
f 57/57/57 5/5/5 56/56/56
f 2/2/2 5/5/5 3/3/3
f 6/6/6 3/3/3 5/5/5
f 3/3/3 6/6/6 7/7/7
