mtllib TROLLHOLE02_ZRM_PSURF113.mtl
g zRM_Psurf113
usemtl Lvl_roast_M_floor08
v 294.478149 -1194.655151 -19364.802734
vn 0.520646 0.832149 -0.190932
vt 0.788032 0.035575
v 443.097351 -1194.655151 -19289.867188
vn 0.000000 1.000000 0.000000
vt 0.720445 0.050128
v 459.698669 -1194.655151 -19522.701172
vn 0.000000 1.000000 0.000000
vt 0.771223 0.157993
v 273.995789 -1194.655151 -19494.123047
vn 0.463304 0.883156 -0.073380
vt 0.826121 0.085980
v 253.510513 -1194.655151 -19623.462891
vn 0.508113 0.859012 -0.062600
vt 0.864217 0.136392
v 1201.203857 -1194.655151 -19774.242188
vn 0.308448 0.851248 -0.424543
vt 0.585251 0.506072
v 1291.813721 -1194.655151 -19708.410156
vn 0.441670 0.850866 -0.284526
vt 0.539173 0.506072
v 1342.794312 -1194.655151 -19925.646484
vn 0.000000 1.000000 0.000000
vt 0.574737 0.618068
v 1110.593872 -1194.655151 -19840.074219
vn 0.081173 0.902812 -0.422306
vt 0.631329 0.506072
v 1134.239624 -1194.655151 -19957.019531
vn 0.000000 1.000000 0.000000
vt 0.651738 0.565147
v 1522.589478 -1194.655151 -19263.863281
vn 0.446071 0.842710 -0.301431
vt 0.354861 0.384120
v 1547.367432 -1194.655151 -19107.421875
vn 0.455378 0.887311 -0.072868
vt 0.308784 0.323144
v 1841.843140 -1194.655151 -19272.636719
vn 0.000000 1.000000 0.000000
vt 0.250723 0.490147
v 1431.979614 -1194.655151 -19329.695313
vn 0.000000 1.000000 0.000000
vt 0.400939 0.384120
v 1871.190430 -1194.655151 -19388.626953
vn 0.000000 1.000000 0.000000
vt 0.269005 0.550627
v 2408.534912 -1194.655151 -19988.822266
vn 0.000000 1.000000 0.000000
vt 0.235296 0.986938
v 2429.627930 -1194.655151 -20081.652344
vn 0.000000 1.000000 0.000000
vt 0.250723 1.034575
v 2106.021484 -1194.655151 -20316.767578
vn 0.000000 1.000000 0.000000
vt 0.415287 1.034575
v 2387.441895 -1194.655151 -19895.990234
vn 0.000000 1.000000 0.000000
vt 0.219868 0.939300
v 2017.957642 -1194.655151 -19968.705078
vn 0.000000 1.000000 0.000000
vt 0.360430 0.853090
v 923.390686 -1194.655151 -19962.484375
vn 0.000000 1.000000 0.000000
vt 0.723238 0.500081
v 954.152039 -1194.655151 -19815.296875
vn -0.418457 0.858222 -0.297233
vt 0.677406 0.445096
v 739.645081 -1194.655151 -19720.175781
vn 0.000000 1.000000 0.000000
vt 0.725800 0.334556
v 978.930054 -1194.655151 -19658.855469
vn 0.000000 1.000000 0.000000
vt 0.631329 0.384120
v 913.098083 -1194.655151 -19568.244141
vn -0.543752 0.807840 -0.227439
vt 0.631329 0.323144
v 892.571106 -1194.655151 -19444.718750
vn 0.000000 1.000000 0.000000
vt 0.608290 0.262168
v 872.044128 -1194.655151 -19321.193359
vn 0.000000 1.000000 0.000000
vt 0.585251 0.201192
v 665.886902 -1194.655151 -19421.939453
vn 0.000000 1.000000 0.000000
vt 0.678230 0.179594
v 591.738770 -1194.655151 -19214.919922
vn 0.000000 1.000000 0.000000
vt 0.652848 0.064684
v 740.380249 -1194.655151 -19139.972656
vn -0.538478 0.783108 -0.311100
vt 0.585251 0.079240
v 806.212158 -1194.655151 -19230.583984
vn 0.000000 1.000000 0.000000
vt 0.585251 0.140216
v 1157.888916 -1194.655029 -20073.980469
vn 0.000000 1.000000 0.000000
vt 0.672150 0.624231
v 1393.782715 -1194.655029 -20142.916016
vn 0.000000 1.000000 0.000000
vt 0.610306 0.730081
v 1444.770996 -1194.655029 -20360.183594
vn 0.000000 1.000000 0.000000
vt 0.645875 0.842094
v 1325.635254 -1194.655029 -20324.574219
vn 0.285490 0.593776 0.752280
vt 0.676917 0.788285
v 1261.263184 -1194.655029 -20261.513672
vn 0.000000 1.000000 0.000000
vt 0.683093 0.739911
v 1181.538208 -1194.655029 -20190.943359
vn 0.152193 0.674194 0.722704
vt 0.692563 0.683315
v 892.624695 -1194.655151 -20109.695313
vn 0.000000 1.000000 0.000000
vt 0.769077 0.555075
v 1929.893677 -1194.655151 -19620.644531
vn 0.000000 1.000000 0.000000
vt 0.305573 0.671605
v 566.166138 -1194.655151 -19872.130859
vn 0.000000 1.000000 0.000000
vt 0.820286 0.345970
v 599.300476 -1197.290161 -20359.224609
vn -0.549225 0.637449 0.540380
vt 0.927047 0.571115
v 265.826202 -1195.972656 -20162.392578
vn 0.448816 0.775711 -0.443663
vt 0.990442 0.377706
v 392.687103 -1194.655151 -20024.083984
vn 0.526726 0.846314 0.079449
vt 0.914772 0.357384
v 700.859497 -1194.655151 -20315.126953
vn -0.264113 0.785916 0.559088
vt 0.882581 0.584192
v 323.247528 -1194.655151 -19880.474609
vn 0.391805 0.890437 0.231539
vt 0.903156 0.271910
v 233.025040 -1194.655151 -19752.802734
vn 0.547821 0.830962 0.096926
vt 0.902312 0.186805
v 2324.162598 -1194.655151 -19617.498047
vn 0.000000 1.000000 0.000000
vt 0.173584 0.796388
v 2345.255859 -1194.655151 -19710.328125
vn 0.000000 1.000000 0.000000
vt 0.189012 0.844025
v 2366.348877 -1194.655151 -19803.160156
vn 0.000000 1.000000 0.000000
vt 0.204440 0.891663
v 2260.883545 -1194.655151 -19339.005859
vn 0.000000 1.000000 0.000000
vt 0.127301 0.653475
v 2281.976563 -1194.655151 -19431.835938
vn -0.629952 0.776492 -0.014869
vt 0.142728 0.701113
v 2303.069580 -1194.655151 -19524.667969
vn 0.000000 1.000000 0.000000
vt 0.158156 0.748750
v 1900.541992 -1194.655151 -19504.636719
vn 0.000000 1.000000 0.000000
vt 0.287289 0.611116
v 1308.333252 -1194.655151 -19604.111328
vn 0.620139 0.774029 -0.127694
vt 0.508453 0.465419
v 1324.852661 -1194.655151 -19499.810547
vn 0.000000 1.000000 0.000000
vt 0.477733 0.424766
v 1341.369629 -1194.655151 -19395.527344
vn 0.000000 1.000000 0.000000
vt 0.447017 0.384120
v 1068.800903 -1194.655029 -20257.951172
vn 0.000000 1.000000 0.000000
vt 0.746290 0.676753
v 861.858765 -1194.655151 -20256.906250
vn 0.000000 1.000000 0.000000
vt 0.814915 0.610069
v 493.536682 -1202.561157 -20675.576172
vn -0.002522 0.999869 -0.015997
vt 1.038749 0.676608
v -4.319558 -1198.608032 -20352.388672
vn -0.002315 0.999873 -0.015797
vt 1.126302 0.374942
v 116.959785 -1197.290283 -20286.757813
vn -0.001592 0.999896 -0.014303
vt 1.070064 0.384845
v 524.848694 -1199.925537 -20518.150391
vn -0.601686 0.771524 0.206699
vt 0.990259 0.617289
f 45/45/45 46/46/46 5/5/5
f 40/40/40 45/45/45 5/5/5
f 45/45/45 40/40/40 43/43/43
f 21/21/21 22/22/22 9/9/9
f 22/22/22 21/21/21 23/23/23
f 40/40/40 23/23/23 21/21/21
f 23/23/23 40/40/40 3/3/3
f 5/5/5 3/3/3 40/40/40
f 3/3/3 5/5/5 4/4/4
f 24/24/24 22/22/22 23/23/23
f 23/23/23 25/25/25 24/24/24
f 25/25/25 23/23/23 26/26/26
f 27/27/27 26/26/26 23/23/23
f 28/28/28 23/23/23 3/3/3
f 23/23/23 28/28/28 27/27/27
f 31/31/31 27/27/27 28/28/28
f 30/30/30 31/31/31 29/29/29
f 28/28/28 29/29/29 31/31/31
f 29/29/29 28/28/28 2/2/2
f 3/3/3 2/2/2 28/28/28
f 2/2/2 3/3/3 1/1/1
f 4/4/4 1/1/1 3/3/3
f 38/38/38 40/40/40 21/21/21
f 40/40/40 38/38/38 44/44/44
f 58/58/58 44/44/44 38/38/38
f 38/38/38 57/57/57 58/58/58
f 57/57/57 38/38/38 32/32/32
f 21/21/21 32/32/32 38/38/38
f 32/32/32 21/21/21 10/10/10
f 9/9/9 10/10/10 21/21/21
f 10/10/10 9/9/9 8/8/8
f 6/6/6 8/8/8 9/9/9
f 8/8/8 6/6/6 7/7/7
f 18/18/18 34/34/34 20/20/20
f 33/33/33 20/20/20 34/34/34
f 20/20/20 33/33/33 8/8/8
f 32/32/32 8/8/8 33/33/33
f 8/8/8 32/32/32 10/10/10
f 34/34/34 35/35/35 33/33/33
f 36/36/36 33/33/33 35/35/35
f 33/33/33 36/36/36 32/32/32
f 37/37/37 32/32/32 36/36/36
f 32/32/32 37/37/37 57/57/57
f 7/7/7 54/54/54 8/8/8
f 39/39/39 8/8/8 54/54/54
f 8/8/8 39/39/39 20/20/20
f 47/47/47 20/20/20 39/39/39
f 20/20/20 47/47/47 48/48/48
f 48/48/48 49/49/49 20/20/20
f 19/19/19 20/20/20 49/49/49
f 20/20/20 19/19/19 18/18/18
f 16/16/16 18/18/18 19/19/19
f 18/18/18 16/16/16 17/17/17
f 15/15/15 55/55/55 56/56/56
f 55/55/55 15/15/15 54/54/54
f 53/53/53 54/54/54 15/15/15
f 54/54/54 53/53/53 39/39/39
f 52/52/52 39/39/39 53/53/53
f 39/39/39 52/52/52 47/47/47
f 51/51/51 52/52/52 53/53/53
f 53/53/53 15/15/15 51/51/51
f 50/50/50 51/51/51 15/15/15
f 15/15/15 13/13/13 50/50/50
f 14/14/14 15/15/15 56/56/56
f 15/15/15 14/14/14 13/13/13
f 11/11/11 13/13/13 14/14/14
f 13/13/13 11/11/11 12/12/12
f 40/40/40 44/44/44 43/43/43
f 41/41/41 43/43/43 44/44/44
f 43/43/43 41/41/41 42/42/42
f 62/62/62 42/42/42 41/41/41
f 42/42/42 62/62/62 61/61/61
f 59/59/59 61/61/61 62/62/62
f 61/61/61 59/59/59 60/60/60
