mtllib TROLLHOLE02_HOLECAP205.mtl
g HoleCap205
usemtl Stalagcap
v -5818.774902 1191.370605 -9441.108398
vn 0.343922 -0.821084 -0.455564
vt 0.401034 0.615871
v -5826.953613 1176.444458 -9408.581055
vn 0.201691 -0.979356 0.013537
vt 0.496959 0.638621
v -5867.225586 1179.880005 -9402.405273
vn -0.131156 -0.902772 -0.409635
vt 0.608884 0.620013
v -5909.218750 1193.013428 -9417.320313
vn -0.162306 -0.921036 -0.354047
vt 0.641847 0.507871
v -5922.560059 1207.182251 -9448.064453
vn -0.287518 -0.881232 -0.375185
vt 0.615743 0.390344
v -5912.004395 1223.164673 -9483.828125
vn -0.107626 -0.895462 -0.431932
vt 0.500884 0.349985
v -5872.604004 1221.558838 -9490.316406
vn -0.045489 -0.694209 -0.718335
vt 0.383995 0.391770
v -5834.749023 1216.465454 -9482.083984
vn -0.001274 -0.853003 -0.521904
vt 0.351031 0.512231
f 2/2/2 3/3/3 1/1/1
f 7/7/7 1/1/1 3/3/3
f 1/1/1 7/7/7 8/8/8
f 5/5/5 3/3/3 4/4/4
f 3/3/3 5/5/5 7/7/7
f 6/6/6 7/7/7 5/5/5
