mtllib TROLLHOLE02_LUKEGROUND.mtl
g LukeGround
usemtl Lvl_roast_m_cliffsides01
v -1511.702148 -1190.524902 -24122.486328
vn -0.477748 0.791881 -0.380371
vt 1.071556 -0.932911
v -1167.689087 -1159.140625 -24320.480469
vn -0.380909 0.747360 -0.544391
vt 0.347468 -0.599553
v -1268.961670 -1184.653931 -24403.929688
vn -0.152944 0.981933 -0.111428
vt 0.560629 -0.459051
v -1385.504639 -1210.167114 -24471.185547
vn 0.003517 0.998482 -0.054971
vt 0.805932 -0.345812
v -1500.043823 -1191.673462 -24538.826172
vn 0.081471 0.996039 0.035624
vt 1.047017 -0.231929
v -1763.642578 -1190.525024 -24346.382813
vn -0.004616 0.999601 0.027855
vt 1.601846 -0.555941
v -1896.175293 -1190.524902 -24017.417969
vn 0.000000 1.000000 0.000000
vt 1.880805 -1.109814
v -1667.251587 -1190.524902 -23821.109375
vn -0.592861 0.805127 0.016935
vt 1.398961 -1.440333
v -1250.275024 -1190.525024 -23057.089844
vn 0.000000 1.000000 0.000000
vt 0.521298 -2.726697
v -1006.166687 -1190.525024 -22868.369141
vn -0.493505 0.808344 -0.320988
vt 0.007492 -3.044443
v -1045.054077 -1190.525024 -23218.355469
vn -0.714673 0.637909 0.286905
vt 0.089343 -2.455178
v -3123.569092 -1190.524902 -24004.460938
vn 0.000000 1.000000 0.000000
vt 3.464255 -1.131627
v -2892.920166 -1190.524902 -23835.714844
vn 0.000000 1.000000 0.000000
vt 2.978780 -1.415742
v -2714.925781 -1190.524902 -24189.416016
vn 0.000000 1.000000 0.000000
vt 2.604132 -0.820223
v -2959.034180 -1190.524902 -24378.136719
vn 0.000000 1.000000 0.000000
vt 3.117938 -0.502477
v -3298.008545 -1190.525024 -23742.191406
vn 0.000000 1.000000 0.000000
vt 2.831421 -1.573205
v -3608.256836 -1190.525024 -23510.039063
vn 0.000000 1.000000 0.000000
vt 3.484440 -1.964075
v -3341.326660 -1190.525024 -23342.333984
vn 0.085616 0.990826 0.104566
vt 2.922598 -2.246437
v -3341.326660 -1190.525024 -23342.333984
vn 0.085616 0.990826 0.104566
vt 3.922598 -2.246437
v -3071.074707 -1190.525024 -23574.632813
vn 0.104012 0.979700 0.171374
vt 3.353765 -1.855320
v -3298.008545 -1190.525024 -23742.191406
vn 0.000000 1.000000 0.000000
vt 3.831421 -1.573205
v -1482.536621 -1190.525024 -22401.722656
vn -0.375302 0.924019 -0.073056
vt 1.010169 -3.830126
v -1278.378052 -1190.525024 -22654.490234
vn -0.432579 0.804238 -0.407524
vt 0.580450 -3.404547
v -1509.026978 -1190.525024 -22823.236328
vn 0.000000 1.000000 0.000000
vt 1.065926 -3.120431
v -1709.470581 -1190.525024 -22569.281250
vn -0.209073 0.977651 -0.022084
vt 1.487825 -3.548011
v -1472.814697 -1190.525024 -22168.398438
vn -0.592624 0.805440 0.007970
vt 0.989706 -3.222970
v -1739.744995 -1190.525024 -22336.103516
vn -0.157651 0.986430 -0.045845
vt 1.551548 -2.940608
v -1788.774292 -1190.525024 -22056.595703
vn -0.117985 0.991879 -0.047493
vt 1.654746 -3.411209
v -1472.814697 -1190.525024 -21876.742188
vn -0.371459 0.923396 -0.096741
vt 0.989706 -3.714025
v -1939.462769 -1190.525024 -21400.373047
vn -0.268856 0.804913 -0.528991
vt 1.971919 -3.516078
v -1725.582397 -1190.525024 -21478.148438
vn -0.336420 0.642273 -0.688700
vt 1.521738 -3.385130
v -2083.293457 -1190.525024 -21663.041016
vn -0.068212 0.990110 -0.122592
vt 2.274658 -3.073832
v -2380.357178 -1190.525024 -21540.992188
vn -0.052872 0.989110 -0.137357
vt 2.899925 -3.279320
v -2425.554443 -1190.525146 -20904.558594
vn -0.590523 0.806471 -0.029792
vt 2.995059 -3.350871
v -2849.284912 -1190.525146 -21120.216797
vn -0.160233 0.985521 -0.055441
vt 3.886937 -2.987770
v -2857.433838 -1190.525146 -20960.886719
vn -0.119614 0.992615 -0.020175
vt 3.904089 -3.256031
v -2401.051025 -1190.525146 -20748.390625
vn -0.277136 0.960634 -0.019428
vt 2.943483 -3.613808
v -2590.825684 -1190.525146 -20155.978516
vn -0.419042 0.805421 -0.419167
vt 2.342926 -3.611240
v -2454.719971 -1190.525146 -20457.355469
vn -0.722992 0.640326 -0.259355
vt 2.056447 -3.103818
v -2919.886230 -1190.525146 -20672.224609
vn -0.072498 0.997003 -0.027001
vt 3.035541 -2.742046
v -3075.695313 -1190.525146 -20389.046875
vn -0.089979 0.993353 -0.071782
vt 3.363492 -3.218828
v -3174.135742 -1190.525146 -19990.707031
vn 0.004900 0.923499 -0.383570
vt 3.570693 -3.889504
v -2814.427734 -1190.525146 -20000.427734
vn -0.128479 0.806749 -0.576758
vt 2.813570 -3.873137
v -3301.811768 -1190.525146 -20215.281250
vn -0.054284 0.979026 -0.196373
vt 3.839428 -3.511393
v -3301.811768 -1190.525146 -20215.281250
vn -0.054284 0.979026 -0.196373
vt 2.839428 -3.511393
v -3644.514893 -1190.525146 -20185.785156
vn -0.018046 0.983352 -0.180811
vt 3.560759 -3.561056
v -3174.135742 -1190.525146 -19990.707031
vn 0.004900 0.923499 -0.383570
vt 2.570693 -3.889504
v -1809.091919 -1174.833008 -24780.906250
vn -0.043342 0.998516 0.032987
vt 1.697509 0.175656
v -2015.583008 -1190.525024 -24570.279297
vn -0.017905 0.999758 0.012766
vt 2.132137 -0.178971
v -1683.115967 -1172.217529 -24725.560547
vn -0.043364 0.998298 0.038991
vt 1.432351 0.082472
v -1618.645752 -1173.180054 -24617.927734
vn 0.017247 0.997190 0.072905
vt 1.296653 -0.098747
v -2176.238770 -1186.602417 -25146.568359
vn -0.020445 0.999788 0.002550
vt 2.470289 0.791314
v -2393.493652 -1190.525146 -24906.125000
vn -0.005227 0.999986 0.000714
vt 2.927573 0.386484
v -2267.523438 -1190.525146 -24794.175781
vn -0.008955 0.999947 0.005016
vt 2.662428 0.197999
v -2032.160156 -1182.679321 -25028.554688
vn -0.034017 0.999331 0.013394
vt 2.167029 0.592619
v -2125.099121 -1190.524902 -24213.724609
vn 0.000000 1.000000 0.000000
vt 2.362650 -0.779295
v -2468.484619 -1190.524902 -24508.185547
vn 0.000000 1.000000 0.000000
vt 3.085417 -0.283516
v -2354.022705 -1190.524902 -24410.033203
vn 0.000000 1.000000 0.000000
vt 2.844494 -0.448776
v -2714.925781 -1190.524902 -24189.416016
vn 0.000000 1.000000 0.000000
vt 3.604132 -0.820223
v -2470.817139 -1190.524902 -24000.695313
vn 0.000000 1.000000 0.000000
vt 3.090326 -1.137969
v -2662.271240 -1190.525024 -23666.968750
vn 0.059578 0.971068 0.231251
vt 3.493304 -1.699857
v -2431.622314 -1305.865112 -23498.222656
vn -0.019766 0.972406 0.232458
vt 3.007829 -1.983972
v -2226.708740 -1190.524902 -23811.974609
vn -0.008230 0.990993 0.133664
vt 2.576521 -1.455714
v -1494.383545 -1190.525024 -23245.810547
vn 0.000000 1.000000 0.000000
vt 1.035104 -2.408952
v -1739.675781 -1190.525024 -22991.982422
vn -0.238215 0.971138 0.012029
vt 1.551402 -2.836317
v -1970.324829 -1305.865112 -23160.728516
vn -0.218880 0.971673 0.089119
vt 2.036878 -2.552202
v -2163.338623 -1305.865234 -22904.398438
vn 0.000000 1.000000 0.000000
vt 2.443138 -2.983781
v -1936.404541 -1305.865234 -22736.839844
vn -0.226763 0.973921 -0.007493
vt 1.965482 -3.265896
v -2662.271240 -1190.525024 -23666.968750
vn 0.059578 0.971068 0.231251
vt 2.493304 -1.699857
v -2844.140625 -1305.865112 -23407.074219
vn 0.082045 0.975317 0.204999
vt 2.876108 -2.137435
v -2807.466064 -1305.865234 -23006.923828
vn 0.015720 0.999543 -0.025837
vt 3.798914 -2.811161
v -2617.206543 -1305.865112 -23239.515625
vn 0.000000 1.000000 0.000000
vt 3.398451 -2.419551
v -2844.140625 -1305.865112 -23407.074219
vn 0.082045 0.975317 0.204999
vt 3.876108 -2.137435
v -3074.396240 -1305.865112 -23174.628906
vn 0.137879 0.983496 0.117155
vt 3.360756 -2.528799
v -2807.466064 -1305.865234 -23006.923828
vn 0.015720 0.999543 -0.025837
vt 2.798914 -2.811161
v -2006.675293 -1305.865234 -22503.808594
vn -0.166371 0.983029 -0.077300
vt 2.113389 -3.658246
v -1739.744995 -1190.525024 -22336.103516
vn -0.157651 0.986430 -0.045845
vt 1.551548 -3.940608
v -2273.605469 -1305.865234 -22671.513672
vn 0.013957 0.999656 -0.022215
vt 2.675231 -3.375884
v -2420.693604 -1286.527222 -22416.302734
vn 0.019254 0.999297 -0.032178
vt 2.984826 -3.805576
v -2420.693604 -1286.527222 -22416.302734
vn 0.019254 0.999297 -0.032178
vt 2.984826 -2.805576
v -2104.733887 -1286.527222 -22236.449219
vn -0.151238 0.984975 -0.083378
vt 2.319786 -3.108393
v -2006.675293 -1305.865234 -22503.808594
vn -0.166371 0.983029 -0.077300
vt 2.113389 -2.658246
v -3684.532227 -1190.525024 -23135.718750
vn 0.098632 0.986162 0.133252
vt 3.644987 -2.594311
v -3368.572754 -1286.527222 -22955.865234
vn 0.120436 0.985140 0.122454
vt 2.979947 -2.897128
v -3368.572754 -1286.527222 -22955.865234
vn 0.120436 0.985140 0.122454
vt 3.979947 -2.897128
v -3299.682373 -1286.527222 -22495.763672
vn 0.000000 1.000000 0.000000
vt 3.834945 -3.671792
v -3052.613037 -1286.527222 -22776.011719
vn 0.014944 0.999566 -0.025385
vt 3.314906 -3.199944
v -3641.723389 -1286.527222 -22677.898438
vn 0.079769 0.990591 0.111208
vt 3.554882 -3.365135
v -3299.682373 -1286.527222 -22495.763672
vn 0.000000 1.000000 0.000000
vt 2.834945 -3.671792
v -2273.559082 -1286.527222 -21949.357422
vn -0.104890 0.989527 -0.099170
vt 2.675134 -3.591763
v -1931.517944 -1190.525024 -21767.222656
vn -0.061803 0.996565 -0.055122
vt 1.955197 -3.898421
v -3514.137451 -1286.527222 -22402.605469
vn 0.000000 1.000000 0.000000
vt 3.286335 -3.828637
v -3641.723389 -1286.527222 -22677.898438
vn 0.079769 0.990591 0.111208
vt 2.554882 -3.365135
v -3871.848633 -1286.527222 -22587.498047
vn 0.027033 0.994753 0.098671
vt 3.039255 -3.517339
v -3514.137451 -1286.527222 -22402.605469
vn 0.000000 1.000000 0.000000
vt 2.286335 -3.828637
v -1931.517944 -1190.525024 -21767.222656
vn -0.061803 0.996565 -0.055122
vt 1.955197 -2.898421
v -2273.559082 -1286.527222 -21949.357422
vn -0.104890 0.989527 -0.099170
vt 2.675134 -2.591763
v -2441.004395 -1286.527222 -21847.931641
vn -0.058446 0.989455 -0.132522
vt 3.027577 -2.762533
v -2798.715576 -1286.527222 -22032.822266
vn 0.000000 1.000000 0.000000
vt 2.780497 -3.451235
v -3145.483887 -1286.527222 -21938.894531
vn 0.000000 1.000000 0.000000
vt 3.510384 -3.609381
v -2762.920410 -1286.527222 -21739.943359
vn -0.048639 0.989624 -0.135198
vt 2.705154 -3.944350
v -2762.920410 -1286.527222 -21739.943359
vn -0.048639 0.989624 -0.135198
vt 3.705154 -3.944350
v -2441.004395 -1286.527222 -21847.931641
vn -0.058446 0.989455 -0.132522
vt 3.027577 -3.762533
v -2798.715576 -1286.527222 -22032.822266
vn 0.000000 1.000000 0.000000
vt 3.780497 -3.451235
v -2849.284912 -1190.525146 -21120.216797
vn -0.160233 0.985521 -0.055441
vt 2.886937 -3.987770
v -2677.420898 -1190.525146 -21418.945313
vn -0.062602 0.992493 -0.105068
vt 2.525193 -3.484808
v -3084.836426 -1286.527222 -21631.955078
vn -0.104309 0.993274 -0.050272
vt 3.382732 -3.126168
v -3273.015381 -1330.897827 -21335.876953
vn -0.156403 0.987426 -0.022999
vt 3.778816 -3.624670
v -3273.015381 -1330.897827 -21335.876953
vn -0.156403 0.987426 -0.022999
vt 2.778816 -3.624670
v -3696.745605 -1378.817017 -21551.535156
vn -0.105469 0.989764 0.096141
vt 3.670694 -3.261569
v -3770.199219 -1373.513428 -21385.880859
vn -0.041801 0.998087 -0.045552
vt 3.825301 -3.540476
v -3313.816406 -1311.703369 -21173.384766
vn -0.170845 0.982556 -0.073458
vt 2.864695 -3.898254
v -3385.052490 -1311.703369 -20887.093750
vn -0.162896 0.984025 -0.071830
vt 3.014635 -3.380275
v -2919.886230 -1190.525146 -20672.224609
vn -0.072498 0.997003 -0.027001
vt 2.035541 -3.742046
v -2857.433838 -1190.525146 -20960.886719
vn -0.119614 0.992615 -0.020175
vt 1.904089 -3.256031
v -3313.816406 -1311.703369 -21173.384766
vn -0.170845 0.982556 -0.073458
vt 2.864695 -2.898254
v -3075.695313 -1190.525146 -20389.046875
vn -0.089979 0.993353 -0.071782
vt 2.363492 -3.218828
v -3560.564697 -1311.703369 -20622.113281
vn -0.109462 0.988843 -0.101029
vt 3.384058 -2.826416
v -3789.196045 -1311.703369 -20430.134766
vn -0.092773 0.968720 -0.230164
vt 3.865287 -3.149649
v -1738.491943 -1190.525024 -23434.531250
vn -0.107703 0.993338 0.040973
vt 1.548910 -2.091206
v -1982.600342 -1190.525024 -23623.253906
vn -0.091404 0.988371 0.121522
vt 2.062715 -1.773460
v -2200.973389 -1305.865112 -23329.476563
vn -0.059769 0.994864 0.081695
vt 2.522352 -2.268087
v -2390.272461 -1305.865234 -23071.957031
vn 0.000000 1.000000 0.000000
vt 2.920795 -2.701666
v -2540.535645 -1305.865234 -22839.218750
vn 0.014143 0.999630 -0.023242
vt 3.237073 -3.093523
v -2736.653320 -1286.527222 -22596.156250
vn 0.015631 0.999525 -0.026548
vt 2.649866 -3.502760
v -2736.653320 -1286.527222 -22596.156250
vn 0.015631 0.999525 -0.026548
vt 3.649866 -3.502760
v -2615.600098 -1286.527222 -22131.492188
vn 0.000000 1.000000 0.000000
vt 3.395071 -3.285106
v -2736.653320 -1286.527222 -22596.156250
vn 0.015631 0.999525 -0.026548
vt 3.649866 -2.502760
v -2736.653320 -1286.527222 -22596.156250
vn 0.015631 0.999525 -0.026548
vt 2.649866 -2.502760
v -2957.641113 -1286.527222 -22313.626953
vn 0.000000 1.000000 0.000000
vt 3.115007 -2.978449
v -2615.600098 -1286.527222 -22131.492188
vn 0.000000 1.000000 0.000000
vt 2.395071 -3.285106
v -3156.426514 -1286.527222 -22217.714844
vn 0.000000 1.000000 0.000000
vt 3.533416 -3.139936
v -3514.137451 -1286.527222 -22402.605469
vn 0.000000 1.000000 0.000000
vt 2.286335 -2.828637
v -3910.610352 -1286.527222 -22336.794922
vn 0.000000 1.000000 0.000000
vt 3.120842 -2.939442
v -3528.047119 -1286.527222 -22137.843750
vn 0.000000 1.000000 0.000000
vt 2.315613 -3.274411
v -3528.047119 -1286.527222 -22137.843750
vn 0.000000 1.000000 0.000000
vt 3.315613 -3.274411
v -3156.426514 -1286.527222 -22217.714844
vn 0.000000 1.000000 0.000000
vt 2.533416 -3.139936
v -3514.137451 -1286.527222 -22402.605469
vn 0.000000 1.000000 0.000000
vt 3.286335 -2.828637
v -1599.198730 -1190.525024 -23578.064453
vn -0.537131 0.644682 0.543945
vt 1.255721 -1.849543
v -1317.265503 -1190.525024 -23412.792969
vn -0.332244 0.803485 0.493990
vt 0.662301 -2.127807
v -2957.641113 -1286.527222 -22313.626953
vn 0.000000 1.000000 0.000000
vt 3.115007 -3.978449
v -3299.682373 -1286.527222 -22495.763672
vn 0.000000 1.000000 0.000000
vt 3.834945 -2.671792
v -3299.682373 -1286.527222 -22495.763672
vn 0.000000 1.000000 0.000000
vt 2.834945 -2.671792
v -3145.483887 -1286.527222 -21938.894531
vn 0.000000 1.000000 0.000000
vt 2.510384 -3.609381
v -3084.836426 -1286.527222 -21631.955078
vn -0.104309 0.993274 -0.050272
vt 2.382732 -3.126168
v -3492.252197 -1286.527222 -21844.964844
vn -0.067558 0.992864 0.098268
vt 3.240271 -2.767528
v -3850.218750 -1373.513428 -21101.964844
vn -0.071734 0.996851 -0.033789
vt 3.993729 -3.018503
v -3770.199219 -1373.513428 -21385.880859
vn -0.041801 0.998087 -0.045552
vt 3.825301 -2.540476
v -1482.536621 -1190.525024 -22401.722656
vn -0.375302 0.924019 -0.073056
vt 1.010169 -2.830126
v -1589.476685 -1190.525024 -21585.087891
vn -0.440472 0.806245 -0.394908
vt 1.235260 -3.205078
v -1472.814697 -1190.525024 -21876.742188
vn -0.371459 0.923396 -0.096741
vt 0.989706 -2.714025
v -2762.920410 -1286.527222 -21739.943359
vn -0.048639 0.989624 -0.135198
vt 3.705154 -2.944350
v -2270.005371 -1190.525024 -21205.935547
vn -0.467708 0.805260 -0.364426
vt 2.667654 -2.843449
v -2677.420898 -1190.525146 -21418.945313
vn -0.062602 0.992493 -0.105068
vt 3.525193 -2.484808
v -3313.816406 -1311.703369 -21173.384766
vn -0.170845 0.982556 -0.073458
vt 3.864695 -3.898254
v -3313.816406 -1311.703369 -21173.384766
vn -0.170845 0.982556 -0.073458
vt 3.864695 -2.898254
v -2857.433838 -1190.525146 -20960.886719
vn -0.119614 0.992615 -0.020175
vt 2.904089 -3.256031
v -2849.284912 -1190.525146 -21120.216797
vn -0.160233 0.985521 -0.055441
vt 2.886937 -2.987770
v -2401.051025 -1190.525146 -20748.390625
vn -0.277136 0.960634 -0.019428
vt 1.943483 -2.613808
v -2401.051025 -1190.525146 -20748.390625
vn -0.277136 0.960634 -0.019428
vt 1.943483 -3.613808
v -2919.886230 -1190.525146 -20672.224609
vn -0.072498 0.997003 -0.027001
vt 3.035541 -3.742046
v -3385.052490 -1311.703369 -20887.093750
vn -0.162896 0.984025 -0.071830
vt 3.014635 -2.380275
v -2919.886230 -1190.525146 -20672.224609
vn -0.072498 0.997003 -0.027001
vt 2.035541 -2.742046
v -3145.483887 -1286.527222 -21938.894531
vn 0.000000 1.000000 0.000000
vt 2.510384 -2.609381
v -2762.920410 -1286.527222 -21739.943359
vn -0.048639 0.989624 -0.135198
vt 2.705154 -2.944350
v -3145.483887 -1286.527222 -21938.894531
vn 0.000000 1.000000 0.000000
vt 3.510384 -2.609381
v -2677.420898 -1190.525146 -21418.945313
vn -0.062602 0.992493 -0.105068
vt 3.525193 -3.484808
v -3899.667725 -1286.527344 -22057.974609
vn -0.046411 0.994899 0.089562
vt 3.097809 -3.408887
v -3492.252197 -1286.527222 -21844.964844
vn -0.067558 0.992864 0.098268
vt 2.240271 -3.767528
v -3492.252197 -1286.527222 -21844.964844
vn -0.067558 0.992864 0.098268
vt 3.240271 -3.767528
v -2270.005371 -1190.525024 -21205.935547
vn -0.467708 0.805260 -0.364426
vt 2.667654 -3.843449
v -2519.463867 -1190.525146 -25018.072266
vn 0.000000 1.000000 -0.000001
vt 3.192718 0.574969
v -2582.946533 -1190.524902 -24606.339844
vn 0.000000 1.000000 0.000000
vt 3.326339 -0.118256
v -2582.946533 -1190.524902 -24606.339844
vn 0.000000 1.000000 0.000000
vt 2.326339 -0.118256
v -2892.920166 -1190.524902 -23835.714844
vn 0.000000 1.000000 0.000000
vt 3.978780 -1.415742
v -2320.317139 -1190.525513 -25264.580078
vn -0.011661 0.999929 -0.002382
vt 2.773549 0.990010
f 16/16/16 17/17/17 18/18/18
f 18/18/18 83/83/83 84/84/84
f 84/84/84 88/88/88 89/89/89
f 92/92/92 89/89/89 88/88/88
f 25/25/25 77/77/77 22/22/22
f 77/77/77 25/25/25 76/76/76
f 68/68/68 76/76/76 25/25/25
f 76/76/76 68/68/68 78/78/78
f 67/67/67 78/78/78 68/68/68
f 78/78/78 67/67/67 124/124/124
f 123/123/123 124/124/124 67/67/67
f 124/124/124 123/123/123 72/72/72
f 122/122/122 72/72/72 123/123/123
f 72/72/72 122/122/122 62/62/62
f 121/121/121 62/62/62 122/122/122
f 62/62/62 121/121/121 63/63/63
f 56/56/56 63/63/63 121/121/121
f 63/63/63 56/56/56 60/60/60
f 58/58/58 60/60/60 56/56/56
f 60/60/60 58/58/58 59/59/59
f 57/57/57 59/59/59 58/58/58
f 59/59/59 57/57/57 173/173/173
f 76/76/76 78/78/78 79/79/79
f 124/124/124 79/79/79 78/78/78
f 124/124/124 126/126/126 79/79/79
f 126/126/126 124/124/124 71/71/71
f 72/72/72 71/71/71 124/124/124
f 71/71/71 72/72/72 73/73/73
f 62/62/62 73/73/73 72/72/72
f 73/73/73 62/62/62 61/61/61
f 63/63/63 61/61/61 62/62/62
f 61/61/61 63/63/63 60/60/60
f 60/60/60 175/175/175 61/61/61
f 175/175/175 60/60/60 59/59/59
f 53/53/53 173/173/173 57/57/57
f 173/173/173 53/53/53 172/172/172
f 176/176/176 172/172/172 53/53/53
f 53/53/53 57/57/57 54/54/54
f 58/58/58 54/54/54 57/57/57
f 54/54/54 58/58/58 49/49/49
f 56/56/56 49/49/49 58/58/58
f 49/49/49 56/56/56 6/6/6
f 7/7/7 6/6/6 56/56/56
f 6/6/6 7/7/7 1/1/1
f 8/8/8 1/1/1 7/7/7
f 176/176/176 53/53/53 52/52/52
f 54/54/54 52/52/52 53/53/53
f 52/52/52 54/54/54 55/55/55
f 49/49/49 55/55/55 54/54/54
f 55/55/55 49/49/49 48/48/48
f 6/6/6 48/48/48 49/49/49
f 48/48/48 6/6/6 50/50/50
f 51/51/51 50/50/50 6/6/6
f 51/51/51 6/6/6 5/5/5
f 1/1/1 5/5/5 6/6/6
f 5/5/5 1/1/1 4/4/4
f 3/3/3 4/4/4 1/1/1
f 1/1/1 2/2/2 3/3/3
f 121/121/121 7/7/7 56/56/56
f 7/7/7 121/121/121 8/8/8
f 120/120/120 8/8/8 121/121/121
f 8/8/8 120/120/120 139/139/139
f 64/64/64 139/139/139 120/120/120
f 139/139/139 64/64/64 140/140/140
f 11/11/11 140/140/140 64/64/64
f 64/64/64 9/9/9 11/11/11
f 10/10/10 11/11/11 9/9/9
f 9/9/9 23/23/23 10/10/10
f 23/23/23 9/9/9 24/24/24
f 64/64/64 24/24/24 9/9/9
f 24/24/24 64/64/64 65/65/65
f 120/120/120 65/65/65 64/64/64
f 65/65/65 120/120/120 66/66/66
f 121/121/121 66/66/66 120/120/120
f 66/66/66 121/121/121 122/122/122
f 67/67/67 122/122/122 123/123/123
f 122/122/122 67/67/67 66/66/66
f 68/68/68 66/66/66 67/67/67
f 66/66/66 68/68/68 65/65/65
f 25/25/25 65/65/65 68/68/68
f 65/65/65 25/25/25 24/24/24
f 22/22/22 24/24/24 25/25/25
f 24/24/24 22/22/22 23/23/23
f 141/141/141 125/125/125 87/87/87
f 75/75/75 87/87/87 125/125/125
f 87/87/87 75/75/75 74/74/74
f 70/70/70 74/74/74 75/75/75
f 74/74/74 70/70/70 20/20/20
f 69/69/69 20/20/20 70/70/70
f 20/20/20 69/69/69 13/13/13
f 87/87/87 86/86/86 141/141/141
f 86/86/86 87/87/87 85/85/85
f 74/74/74 85/85/85 87/87/87
f 85/85/85 74/74/74 19/19/19
f 20/20/20 19/19/19 74/74/74
f 19/19/19 20/20/20 21/21/21
f 13/13/13 21/21/21 20/20/20
f 21/21/21 13/13/13 12/12/12
f 14/14/14 12/12/12 13/13/13
f 12/12/12 14/14/14 15/15/15
f 174/174/174 15/15/15 14/14/14
f 91/91/91 29/29/29 28/28/28
f 26/26/26 28/28/28 29/29/29
f 28/28/28 26/26/26 27/27/27
f 149/149/149 27/27/27 26/26/26
f 81/81/81 27/27/27 82/82/82
f 27/27/27 81/81/81 28/28/28
f 90/90/90 28/28/28 81/81/81
f 28/28/28 90/90/90 91/91/91
f 80/80/80 81/81/81 82/82/82
f 81/81/81 80/80/80 90/90/90
f 127/127/127 90/90/90 80/80/80
f 90/90/90 127/127/127 103/103/103
f 104/104/104 103/103/103 127/127/127
f 103/103/103 104/104/104 102/102/102
f 127/127/127 80/80/80 128/128/128
f 167/167/167 171/171/171 33/33/33
f 30/30/30 33/33/33 171/171/171
f 33/33/33 30/30/30 32/32/32
f 31/31/31 32/32/32 30/30/30
f 32/32/32 31/31/31 96/96/96
f 150/150/150 96/96/96 31/31/31
f 96/96/96 150/150/150 151/151/151
f 33/33/33 152/152/152 167/167/167
f 152/152/152 33/33/33 98/98/98
f 32/32/32 98/98/98 33/33/33
f 98/98/98 32/32/32 97/97/97
f 96/96/96 97/97/97 32/32/32
f 99/99/99 100/100/100 101/101/101
f 100/100/100 99/99/99 132/132/132
f 130/130/130 132/132/132 99/99/99
f 132/132/132 130/130/130 142/142/142
f 129/129/129 130/130/130 131/131/131
f 99/99/99 131/131/131 130/130/130
f 107/107/107 106/106/106 165/165/165
f 106/106/106 107/107/107 105/105/105
f 108/108/108 105/105/105 107/107/107
f 105/105/105 108/108/108 155/155/155
f 107/107/107 165/165/165 166/166/166
f 146/146/146 145/145/145 164/164/164
f 145/145/145 146/146/146 109/109/109
f 110/110/110 109/109/109 146/146/146
f 109/109/109 110/110/110 111/111/111
f 111/111/111 112/112/112 109/109/109
f 143/143/143 138/138/138 137/137/137
f 136/136/136 137/137/137 138/138/138
f 137/137/137 136/136/136 144/144/144
f 170/170/170 144/144/144 136/136/136
f 163/163/163 162/162/162 117/117/117
f 118/118/118 117/117/117 162/162/162
f 117/117/117 118/118/118 45/45/45
f 119/119/119 45/45/45 118/118/118
f 45/45/45 46/46/46 47/47/47
f 40/40/40 39/39/39 159/159/159
f 39/39/39 40/40/40 38/38/38
f 41/41/41 38/38/38 40/40/40
f 38/38/38 41/41/41 43/43/43
f 44/44/44 43/43/43 41/41/41
f 43/43/43 44/44/44 42/42/42
f 154/154/154 34/34/34 153/153/153
f 34/34/34 154/154/154 35/35/35
f 36/36/36 34/34/34 35/35/35
f 34/34/34 36/36/36 37/37/37
f 114/114/114 115/115/115 113/113/113
f 116/116/116 113/113/113 115/115/115
f 113/113/113 116/116/116 147/147/147
f 148/148/148 147/147/147 116/116/116
f 93/93/93 94/94/94 95/95/95
f 133/133/133 134/134/134 135/135/135
f 135/135/135 168/168/168 169/169/169
f 156/156/156 157/157/157 158/158/158
f 160/160/160 157/157/157 161/161/161
