mtllib TROLLHOLE02_RM_PSURF103.mtl
g RM_Psurf103
usemtl Lvl_roast_m_largebolders
v 824.947449 -322.861755 -21009.578125
vn 0.242694 0.916842 -0.317019
vt 1.862283 -0.769805
v 751.446838 -322.861816 -20991.083984
vn -0.491878 0.866695 -0.083043
vt 1.886040 -1.279874
v 809.445435 -234.977066 -20835.960938
vn -0.162798 0.897793 0.409224
vt 1.005827 -1.221439
v 886.921997 -234.976944 -20841.845703
vn 0.351864 0.935965 -0.012694
vt 0.911698 -0.711370
v 992.504639 -327.678528 -20924.056641
vn 0.738725 0.636726 -0.221056
vt 1.160021 0.134143
v 990.255615 -320.915588 -20838.527344
vn 0.623718 0.342485 0.702624
vt 0.729480 -0.053705
v 836.017700 -408.977600 -21203.511719
vn 0.015880 0.248835 -0.968416
vt 2.828952 -0.305481
v 832.519592 -328.685120 -21169.054688
vn 0.020465 0.858950 -0.511650
vt 2.659652 -0.397823
v 918.335754 -399.671265 -21188.054688
vn 0.397827 0.546967 -0.736587
vt 2.618752 0.192454
v 911.039063 -321.403198 -20794.031250
vn 0.179301 0.241376 0.953724
vt 0.630399 -0.653239
v 744.903076 -324.117188 -20810.136719
vn -0.636413 0.305097 0.708445
vt 0.978043 -1.688769
v 662.345703 -396.109985 -21105.886719
vn -0.852843 0.414144 -0.318031
vt 2.611374 -1.620022
v 769.029419 -328.685120 -21118.810547
vn -0.410096 0.837912 -0.360173
vt 2.506233 -0.907893
v 746.697998 -409.465210 -21189.675781
vn -0.403848 0.466180 -0.787136
vt 2.901674 -0.907816
v 945.271729 -404.705627 -21071.255859
vn 0.420997 0.852480 -0.309902
vt 1.982785 0.128863
v 824.947449 -322.861755 -21009.578125
vn 0.242694 0.916842 -0.317019
vt 1.862283 -0.769805
v 886.921997 -234.976944 -20841.845703
vn 0.351864 0.935965 -0.012694
vt 0.911698 -0.711370
v 698.161133 -401.144348 -20942.007813
vn -0.935644 0.301170 0.184028
vt 1.722216 -1.721967
v 751.446838 -322.861816 -20991.083984
vn -0.491878 0.866695 -0.083043
vt 1.886040 -1.279874
v 998.703186 -391.776489 -20843.011719
vn 0.812683 0.071388 0.578317
vt 0.738722 0.009699
v 1010.298889 -396.316528 -20927.880859
vn 0.967691 0.195519 0.159207
vt 1.150957 0.256306
v 894.076050 -574.368225 -21204.916016
vn -0.036716 0.015835 -0.999200
vt 2.743169 0.070659
v 874.725159 -519.243530 -21204.447266
vn -0.023572 -0.039829 -0.998928
vt 2.771760 -0.054709
v 965.323425 -511.234497 -21195.257813
vn 0.081809 0.077741 -0.993611
vt 2.580111 0.509166
v 988.813721 -567.007751 -21198.857422
vn 0.056759 0.088110 -0.994492
vt 2.560793 0.667498
v 789.022827 -577.253967 -21176.003906
vn -0.355600 -0.286097 -0.889774
vt 2.764537 -0.663402
v 770.889465 -521.329956 -21193.330078
vn -0.409313 -0.300529 -0.861478
vt 2.881510 -0.744865
v 679.067627 -563.487671 -21070.800781
vn -0.959415 -0.180223 -0.216892
vt 2.406515 -1.583636
v 673.494202 -507.700684 -21082.496094
vn -0.939755 -0.126262 -0.317676
vt 2.474794 -1.595763
v 750.550964 -725.226440 -20817.832031
vn -0.735307 0.125202 0.666069
vt 1.008063 -1.636857
v 752.572388 -731.454285 -20971.615234
vn -0.963510 -0.099761 0.248388
vt 1.785416 -1.312106
v 706.710022 -923.645691 -20928.578125
vn -0.938464 0.180330 0.294561
vt 1.640365 -1.694226
v 763.871643 -921.425110 -20772.011719
vn -0.533160 0.127480 0.836355
vt 0.754166 -1.644098
v 732.200623 -530.092957 -20820.222656
vn -0.623448 -0.073198 0.778431
vt 1.049569 -1.749994
v 736.434326 -461.441223 -20816.861328
vn -0.651592 0.054597 0.756602
vt 1.025729 -1.729588
v 668.021118 -498.239258 -20946.662109
vn -0.967582 0.179310 0.177859
vt 1.794077 -1.906318
v 652.950012 -546.790283 -20948.990234
vn -0.977040 -0.109842 0.182559
vt 1.830010 -1.998501
v 924.391541 -730.852051 -20763.011719
vn -0.031392 0.228814 0.972964
vt 0.451584 -0.630269
v 928.913391 -922.494873 -20736.867188
vn -0.205788 0.127517 0.970253
vt 0.311633 -0.654200
v 913.506775 -464.745117 -20808.554688
vn 0.148076 -0.070063 0.986491
vt 0.700172 -0.607929
v 914.740417 -536.405273 -20815.816406
vn 0.122668 0.052929 0.991035
vt 0.735053 -0.585278
v 1007.151978 -462.648071 -20847.496094
vn 0.762795 0.061624 0.643697
vt 0.747966 0.073113
v 1015.600769 -533.519592 -20851.982422
vn 0.638600 0.186139 0.746687
vt 0.757209 0.136527
v 1033.066040 -725.455505 -20801.591797
vn 0.310492 0.267714 0.912099
vt 0.473479 0.146668
v 744.903076 -324.117188 -20810.136719
vn -0.636413 0.305097 0.708445
vt 0.978043 -1.688769
v 809.445435 -234.977066 -20835.960938
vn -0.162798 0.897793 0.409224
vt 1.005827 -1.221439
v 667.919922 -451.905334 -21094.191406
vn -0.986321 -0.051393 -0.156617
vt 2.543084 -1.607893
v 683.092285 -449.688171 -20944.335938
vn -0.961137 0.184127 0.205699
vt 1.758144 -1.814136
v 672.876282 -737.682068 -21103.175781
vn -0.879887 0.133172 0.456141
vt 2.580756 -1.557812
v 647.973267 -925.866272 -21085.191406
vn -0.925656 0.155460 0.344955
vt 2.529329 -1.754385
v 706.710022 -923.645691 -20928.578125
vn -0.938464 0.180330 0.294561
vt 1.640365 -1.694226
v 752.572388 -731.454285 -20971.615234
vn -0.963510 -0.099761 0.248388
vt 1.785416 -1.312106
v 652.950012 -546.790283 -20948.990234
vn -0.977040 -0.109842 0.182559
vt 1.830010 -1.998501
v 1028.095825 -464.964783 -20931.707031
vn 0.945865 0.184494 0.267023
vt 1.141891 0.378487
v 1045.892700 -533.613037 -20935.533203
vn 0.917314 0.219293 0.332334
vt 1.132826 0.500668
v 912.272888 -393.074158 -20801.292969
vn 0.194332 -0.072146 0.978279
vt 0.665285 -0.630584
v 855.371460 -464.110596 -21203.980469
vn 0.078484 -0.004962 -0.996903
vt 2.800356 -0.180095
v 941.829590 -455.452881 -21191.656250
vn 0.118532 0.092089 -0.988671
vt 2.599431 0.350810
v 752.753357 -465.397583 -21210.660156
vn -0.491982 -0.085299 -0.866417
vt 2.998502 -0.826340
v 740.668701 -392.779175 -20813.500000
vn -0.599511 0.032300 0.799715
vt 1.001886 -1.709178
v 683.092285 -449.688171 -20944.335938
vn -0.961137 0.184127 0.205699
vt 1.758144 -1.814136
v 698.161133 -401.144348 -20942.007813
vn -0.935644 0.301170 0.184028
vt 1.722216 -1.721967
v 668.021118 -498.239258 -20946.662109
vn -0.967582 0.179310 0.177859
vt 1.794077 -1.906318
f 16/16/16 5/5/5 15/15/15
f 5/5/5 16/16/16 17/17/17
f 15/15/15 9/9/9 16/16/16
f 8/8/8 16/16/16 9/9/9
f 16/16/16 8/8/8 19/19/19
f 19/19/19 45/45/45 46/46/46
f 45/45/45 19/19/19 18/18/18
f 9/9/9 7/7/7 8/8/8
f 7/7/7 9/9/9 57/57/57
f 58/58/58 57/57/57 9/9/9
f 57/57/57 58/58/58 23/23/23
f 24/24/24 23/23/23 58/58/58
f 23/23/23 24/24/24 22/22/22
f 25/25/25 22/22/22 24/24/24
f 22/22/22 26/26/26 23/23/23
f 27/27/27 23/23/23 26/26/26
f 23/23/23 27/27/27 57/57/57
f 59/59/59 57/57/57 27/27/27
f 57/57/57 59/59/59 7/7/7
f 14/14/14 7/7/7 59/59/59
f 7/7/7 14/14/14 8/8/8
f 13/13/13 8/8/8 14/14/14
f 8/8/8 13/13/13 19/19/19
f 12/12/12 19/19/19 13/13/13
f 19/19/19 12/12/12 18/18/18
f 47/47/47 18/18/18 12/12/12
f 18/18/18 47/47/47 48/48/48
f 29/29/29 48/48/48 47/47/47
f 48/48/48 29/29/29 63/63/63
f 28/28/28 63/63/63 29/29/29
f 63/63/63 28/28/28 53/53/53
f 52/52/52 53/53/53 28/28/28
f 14/14/14 12/12/12 13/13/13
f 12/12/12 14/14/14 59/59/59
f 59/59/59 47/47/47 12/12/12
f 47/47/47 59/59/59 29/29/29
f 27/27/27 29/29/29 59/59/59
f 29/29/29 27/27/27 28/28/28
f 26/26/26 28/28/28 27/27/27
f 50/50/50 51/51/51 49/49/49
f 52/52/52 49/49/49 51/51/51
f 49/49/49 52/52/52 28/28/28
f 36/36/36 37/37/37 34/34/34
f 31/31/31 34/34/34 37/37/37
f 34/34/34 31/31/31 30/30/30
f 32/32/32 30/30/30 31/31/31
f 30/30/30 32/32/32 33/33/33
f 34/34/34 35/35/35 36/36/36
f 61/61/61 36/36/36 35/35/35
f 62/62/62 61/61/61 60/60/60
f 35/35/35 60/60/60 61/61/61
f 60/60/60 35/35/35 40/40/40
f 34/34/34 40/40/40 35/35/35
f 40/40/40 34/34/34 41/41/41
f 30/30/30 41/41/41 34/34/34
f 41/41/41 30/30/30 38/38/38
f 33/33/33 38/38/38 30/30/30
f 38/38/38 33/33/33 39/39/39
f 40/40/40 56/56/56 60/60/60
f 11/11/11 56/56/56 10/10/10
f 56/56/56 11/11/11 60/60/60
f 62/62/62 60/60/60 11/11/11
f 10/10/10 3/3/3 11/11/11
f 3/3/3 10/10/10 6/6/6
f 56/56/56 6/6/6 10/10/10
f 6/6/6 56/56/56 20/20/20
f 40/40/40 20/20/20 56/56/56
f 20/20/20 40/40/40 42/42/42
f 41/41/41 42/42/42 40/40/40
f 42/42/42 41/41/41 43/43/43
f 38/38/38 43/43/43 41/41/41
f 43/43/43 38/38/38 44/44/44
f 54/54/54 43/43/43 55/55/55
f 43/43/43 54/54/54 42/42/42
f 21/21/21 42/42/42 54/54/54
f 42/42/42 21/21/21 20/20/20
f 5/5/5 20/20/20 21/21/21
f 20/20/20 5/5/5 6/6/6
f 4/4/4 6/6/6 5/5/5
f 6/6/6 4/4/4 3/3/3
f 1/1/1 3/3/3 4/4/4
f 3/3/3 1/1/1 2/2/2
