mtllib TROLLHOLE02_PS-UPPERSTALAG02.mtl
g s-UpperStalag02
usemtl Stalag
v -5678.197754 974.948608 -10182.202148
vn -0.809356 0.138995 0.570634
vt 0.734203 0.081433
v -5672.215820 974.587341 -10178.790039
vn -0.049752 0.128346 0.990481
vt 0.863277 0.081433
v -5671.791992 1003.379211 -10183.540039
vn -0.051325 0.508201 0.859708
vt 0.860008 0.054455
v -5674.390137 1004.525452 -10186.354492
vn -0.688141 0.602264 0.404647
vt 0.793836 0.040966
v -5665.760254 974.841858 -10181.638672
vn 0.734967 0.128228 0.665868
vt 0.992351 0.081433
v -5668.805664 1004.525452 -10185.982422
vn 0.624959 0.597381 0.502556
vt 0.922910 0.040966
v -5671.275879 1006.817566 -10190.551758
vn -0.000818 0.999999 -0.000861
vt 0.853470 0.000499
v -5671.275879 1006.817566 -10190.551758
vn -0.000818 0.999999 -0.000861
vt 0.301524 0.000499
v -5673.726563 1004.525452 -10195.084961
vn -0.624894 0.596980 -0.503112
vt 0.404120 0.047710
v -5675.728516 1003.379028 -10190.822266
vn -0.915205 0.397271 -0.067641
vt 0.502964 0.054455
v -5674.390137 1004.525452 -10186.354492
vn -0.688141 0.602264 0.404647
vt 0.517768 0.040966
v -5676.904297 975.290649 -10199.221680
vn -0.733383 0.130039 -0.667263
vt 0.462342 0.166770
v -5679.809082 974.886353 -10190.815430
vn -0.990047 0.121413 -0.071182
vt 0.581642 0.168456
v -5665.760254 974.841858 -10181.638672
vn 0.734967 0.128228 0.665868
vt 0.001370 0.081433
v -5662.853027 974.459717 -10190.039063
vn 0.990734 0.114491 0.073064
vt 0.137483 0.168456
v -5666.793457 1003.379211 -10190.226563
vn 0.916155 0.394895 0.068691
vt 0.181309 0.054455
v -5668.805664 1004.525452 -10185.982422
vn 0.624959 0.597381 0.502556
vt 0.151447 0.040966
v -5664.466309 974.757263 -10198.658203
vn 0.812605 0.130234 -0.568078
vt 0.248713 0.166770
v -5668.142090 1004.525452 -10194.712891
vn 0.689423 0.599096 -0.407161
vt 0.265625 0.047710
v -5670.446289 974.758911 -10202.065430
vn 0.055306 0.122816 -0.990887
vt 0.355729 0.168456
v -5670.729980 1003.379211 -10197.508789
vn 0.055297 0.503834 -0.862029
vt 0.338637 0.054455
v -5716.240723 748.612671 -10128.047852
vn -0.272408 0.932951 0.235363
vt 0.755013 0.999501
v -5668.527344 751.258362 -10120.113281
vn -0.011424 0.964495 0.263854
vt 0.874602 0.999501
v -5675.032227 769.845947 -10144.106445
vn -0.025847 0.617712 0.785980
vt 0.873766 0.915537
v -5703.020508 770.168396 -10156.224609
vn -0.630543 0.586715 0.508115
vt 0.752355 0.915537
v -5617.848145 749.196960 -10126.086914
vn 0.184591 0.962691 0.197868
vt 0.994191 0.999501
v -5645.312012 770.031433 -10154.770508
vn 0.539029 0.658027 0.525784
vt 0.994403 0.915537
v -5653.683594 814.679138 -10167.520508
vn 0.686833 0.224688 0.691213
vt 0.994615 0.831573
v -5673.982910 814.792297 -10160.519531
vn -0.020800 0.240026 0.970544
vt 0.872929 0.831573
v -5693.164063 815.246948 -10168.227539
vn -0.743157 0.233708 0.626975
vt 0.749211 0.758796
v -5698.066895 816.994690 -10190.410156
vn -0.979207 0.194153 -0.058805
vt 0.625801 0.758796
v -5710.041016 772.672546 -10190.641602
vn -0.856891 0.514747 -0.027800
vt 0.629399 0.915537
v -5689.809570 817.983093 -10212.356445
vn -0.681646 0.222319 -0.697089
vt 0.502244 0.758796
v -5697.825195 774.271423 -10224.574219
vn -0.585932 0.539384 -0.604772
vt 0.505510 0.915537
v -5715.174805 754.367126 -10237.207031
vn -0.211188 0.930781 -0.298405
vt 0.505013 0.999501
v -5731.266602 752.927185 -10187.674805
vn -0.453732 0.890834 0.023301
vt 0.630013 0.999501
v -5617.848145 749.196960 -10126.086914
vn 0.184591 0.962691 0.197868
vt 0.003209 0.999501
v -5599.849121 749.770813 -10183.626953
vn 0.214022 0.976810 0.006019
vt 0.129111 0.999501
v -5633.096191 769.051453 -10188.703125
vn 0.788736 0.613094 0.044857
vt 0.130176 0.915537
v -5645.312012 770.031433 -10154.770508
vn 0.539029 0.658027 0.525784
vt 0.003422 0.915537
v -5610.914551 749.139282 -10232.880859
vn 0.213802 0.952412 -0.217254
vt 0.255013 0.999501
v -5640.116699 768.976746 -10223.120117
vn 0.622246 0.611904 -0.488245
vt 0.256334 0.915537
v -5650.329102 813.992126 -10211.649414
vn 0.756607 0.228428 -0.612671
vt 0.255273 0.758796
v -5645.425781 813.955872 -10189.466797
vn 0.978746 0.193791 0.067092
vt 0.129719 0.758796
v -5653.683594 814.679138 -10167.520508
vn 0.686833 0.224688 0.691213
vt 0.003634 0.831573
v -5662.207031 751.887695 -10251.508789
vn 0.042086 0.873909 -0.484264
vt 0.380013 0.999501
v -5668.104980 771.878235 -10235.239258
vn 0.056826 0.524463 -0.849535
vt 0.381300 0.915537
v -5669.510254 816.158264 -10219.357422
vn 0.044923 0.234857 -0.970991
vt 0.379092 0.758796
v -5684.672852 897.681213 -10176.523438
vn -0.762573 0.126440 0.634425
vt 0.742386 0.456503
v -5687.622559 898.578613 -10190.573242
vn -0.991390 0.112535 -0.066947
vt 0.616235 0.456503
v -5682.550781 899.049377 -10204.442383
vn -0.697062 0.115762 -0.707605
vt 0.491452 0.456503
v -5670.165039 898.068665 -10208.824219
vn 0.041508 0.111124 -0.992939
vt 0.369891 0.456503
v -5658.486816 896.916016 -10203.899414
vn 0.769621 0.117847 -0.627532
vt 0.248998 0.456503
v -5655.537598 896.871887 -10189.849609
vn 0.991839 0.106097 0.070707
vt 0.126221 0.456503
v -5660.609375 897.254578 -10175.980469
vn 0.700178 0.114376 0.704747
vt 0.002502 0.456503
v -5672.994629 897.382019 -10171.598633
vn -0.031714 0.116487 0.992686
vt 0.868056 0.456503
v -5660.609375 897.254578 -10175.980469
vn 0.700178 0.114376 0.704747
vt 0.993483 0.456503
f 39/39/39 38/38/38 41/41/41
f 38/38/38 39/39/39 37/37/37
f 40/40/40 37/37/37 39/39/39
f 39/39/39 45/45/45 40/40/40
f 45/45/45 39/39/39 44/44/44
f 44/44/44 54/54/54 45/45/45
f 54/54/54 44/44/44 43/43/43
f 39/39/39 43/43/43 44/44/44
f 43/43/43 39/39/39 42/42/42
f 41/41/41 42/42/42 39/39/39
f 42/42/42 41/41/41 47/47/47
f 46/46/46 47/47/47 41/41/41
f 47/47/47 46/46/46 35/35/35
f 47/47/47 43/43/43 42/42/42
f 43/43/43 47/47/47 48/48/48
f 54/54/54 18/18/18 15/15/15
f 18/18/18 54/54/54 53/53/53
f 43/43/43 53/53/53 54/54/54
f 53/53/53 43/43/43 52/52/52
f 48/48/48 52/52/52 43/43/43
f 52/52/52 48/48/48 33/33/33
f 47/47/47 33/33/33 48/48/48
f 33/33/33 47/47/47 34/34/34
f 35/35/35 34/34/34 47/47/47
f 34/34/34 35/35/35 32/32/32
f 36/36/36 32/32/32 35/35/35
f 32/32/32 36/36/36 22/22/22
f 52/52/52 18/18/18 53/53/53
f 18/18/18 52/52/52 20/20/20
f 32/32/32 33/33/33 34/34/34
f 33/33/33 32/32/32 31/31/31
f 20/20/20 21/21/21 18/18/18
f 21/21/21 20/20/20 12/12/12
f 52/52/52 12/12/12 20/20/20
f 12/12/12 52/52/52 51/51/51
f 33/33/33 51/51/51 52/52/52
f 51/51/51 33/33/33 50/50/50
f 31/31/31 50/50/50 33/33/33
f 50/50/50 31/31/31 30/30/30
f 32/32/32 30/30/30 31/31/31
f 30/30/30 32/32/32 25/25/25
f 22/22/22 25/25/25 32/32/32
f 25/25/25 22/22/22 24/24/24
f 23/23/23 24/24/24 22/22/22
f 24/24/24 23/23/23 26/26/26
f 12/12/12 51/51/51 50/50/50
f 30/30/30 25/25/25 24/24/24
f 12/12/12 9/9/9 21/21/21
f 26/26/26 27/27/27 24/24/24
f 30/30/30 49/49/49 50/50/50
f 24/24/24 29/29/29 30/30/30
f 29/29/29 24/24/24 28/28/28
f 27/27/27 28/28/28 24/24/24
f 56/56/56 28/28/28 57/57/57
f 28/28/28 56/56/56 29/29/29
f 54/54/54 55/55/55 45/45/45
f 55/55/55 54/54/54 14/14/14
f 15/15/15 14/14/14 54/54/54
f 14/14/14 15/15/15 16/16/16
f 18/18/18 16/16/16 15/15/15
f 16/16/16 18/18/18 19/19/19
f 21/21/21 19/19/19 18/18/18
f 19/19/19 21/21/21 8/8/8
f 9/9/9 8/8/8 21/21/21
f 8/8/8 9/9/9 10/10/10
f 12/12/12 10/10/10 9/9/9
f 10/10/10 12/12/12 13/13/13
f 50/50/50 13/13/13 12/12/12
f 13/13/13 50/50/50 1/1/1
f 49/49/49 1/1/1 50/50/50
f 1/1/1 49/49/49 56/56/56
f 30/30/30 56/56/56 49/49/49
f 56/56/56 30/30/30 29/29/29
f 13/13/13 1/1/1 10/10/10
f 11/11/11 10/10/10 1/1/1
f 10/10/10 11/11/11 8/8/8
f 19/19/19 8/8/8 16/16/16
f 17/17/17 16/16/16 8/8/8
f 16/16/16 17/17/17 14/14/14
f 7/7/7 4/4/4 3/3/3
f 1/1/1 3/3/3 4/4/4
f 3/3/3 1/1/1 2/2/2
f 56/56/56 2/2/2 1/1/1
f 2/2/2 56/56/56 5/5/5
f 57/57/57 5/5/5 56/56/56
f 2/2/2 5/5/5 3/3/3
f 6/6/6 3/3/3 5/5/5
f 3/3/3 6/6/6 7/7/7
