mtllib TROLLHOLE02_HOLECAP59.mtl
g HoleCap59
usemtl Stalagcap
v 1519.519165 -413.516144 -6156.579590
vn 0.149594 -0.988526 -0.020918
vt 0.401034 0.615871
v 1574.435059 -408.341492 -6187.505371
vn 0.069290 -0.997592 -0.002889
vt 0.496959 0.638621
v 1672.628906 -402.996735 -6193.409668
vn 0.101402 -0.989223 -0.105615
vt 0.608884 0.620013
v 1727.305542 -399.645355 -6132.248535
vn 0.204063 -0.977004 -0.061821
vt 0.641847 0.507871
v 1725.146729 -399.786865 -6062.502441
vn 0.185832 -0.979313 0.080078
vt 0.615743 0.390344
v 1649.408325 -407.175903 -6044.522949
vn 0.130023 -0.979572 0.153407
vt 0.500884 0.349985
v 1564.834473 -413.412292 -6013.936523
vn 0.123666 -0.991621 0.037356
vt 0.383995 0.391770
v 1512.692505 -418.950562 -6084.017090
vn 0.186900 -0.980692 -0.057539
vt 0.351031 0.512231
f 5/5/5 6/6/6 1/1/1
f 7/7/7 1/1/1 6/6/6
f 1/1/1 7/7/7 8/8/8
f 3/3/3 1/1/1 2/2/2
f 1/1/1 3/3/3 5/5/5
f 4/4/4 5/5/5 3/3/3
