mtllib TROLLHOLE02_PS-MAINSTALAG26.mtl
g Ps-MainStalag26
usemtl Stalag
v -1762.017334 -1239.570557 -12210.445313
vn -0.727750 -0.076130 0.681604
vt 0.734203 0.081433
v -1763.701050 -1239.662354 -12215.291016
vn -0.993734 -0.061974 0.093014
vt 0.863277 0.081433
v -1761.452881 -1271.023438 -12215.400391
vn -0.935754 -0.352651 0.001355
vt 0.860008 0.054455
v -1760.579468 -1271.844849 -12213.430664
vn -0.633823 -0.591248 0.498692
vt 0.793836 0.040966
v -1762.995361 -1238.787720 -12220.357422
vn -0.818876 -0.090924 -0.566723
vt 0.992351 0.081433
v -1760.720825 -1271.185669 -12217.417969
vn -0.543538 -0.501885 -0.672813
vt 0.922910 0.040966
v -1759.311279 -1272.663696 -12215.461914
vn 0.334817 -0.910809 -0.241504
vt 0.853470 0.000499
v -1759.311279 -1272.663696 -12215.461914
vn 0.334817 -0.910809 -0.241504
vt 0.301524 0.000499
v -1757.913208 -1271.185669 -12213.522461
vn 0.837718 -0.438419 0.325604
vt 0.404120 0.047710
v -1759.206665 -1271.023438 -12212.284180
vn 0.160900 -0.449554 0.878642
vt 0.502964 0.054455
v -1760.579468 -1271.844849 -12213.430664
vn -0.633823 -0.591248 0.498692
vt 0.517768 0.040966
v -1755.387817 -1237.004761 -12211.091797
vn 0.867142 -0.082897 0.491114
vt 0.462342 0.166770
v -1758.535645 -1238.473755 -12208.984375
vn 0.122280 -0.089213 0.988478
vt 0.581642 0.168456
v -1762.995361 -1238.787720 -12220.357422
vn -0.818876 -0.090924 -0.566723
vt 0.001370 0.081433
v -1759.849365 -1235.342529 -12222.466797
vn -0.028080 -0.102844 -0.994301
vt 0.137483 0.168456
v -1759.433105 -1268.386719 -12218.663086
vn 0.198322 -0.285354 -0.937679
vt 0.181309 0.054455
v -1760.720825 -1271.185669 -12217.417969
vn -0.543538 -0.501885 -0.672813
vt 0.151447 0.040966
v -1756.366333 -1233.255615 -12221.003906
vn 0.745301 -0.086046 -0.661152
vt 0.248713 0.166770
v -1758.054565 -1268.548950 -12217.508789
vn 0.762987 -0.293128 -0.576131
vt 0.265625 0.047710
v -1754.683960 -1234.153931 -12216.160156
vn 0.990381 -0.067000 -0.121061
vt 0.355729 0.168456
v -1757.186890 -1268.386719 -12215.546875
vn 0.961983 -0.204450 -0.181078
vt 0.338637 0.054455
v -1788.925903 -980.867432 -12153.750000
vn 0.105553 -0.966185 0.235257
vt 0.755013 0.999501
v -1803.190430 -987.837708 -12202.313477
vn -0.131444 -0.990285 0.045357
vt 0.874602 0.999501
v -1788.144653 -1007.190796 -12208.935547
vn -0.861101 -0.483577 0.157033
vt 0.873766 0.915537
v -1775.886475 -1003.544312 -12180.471680
vn -0.461479 -0.576450 0.674346
vt 0.752355 0.915537
v -1805.581543 -983.392944 -12250.258789
vn -0.112326 -0.959717 -0.257539
vt 0.994191 0.999501
v -1786.938477 -1003.544373 -12238.697266
vn -0.679085 -0.511040 -0.526955
vt 0.994403 0.915537
v -1775.236450 -1055.595825 -12232.703125
vn -0.838070 -0.174029 -0.517062
vt 0.994615 0.831573
v -1776.132080 -1058.116821 -12213.300781
vn -0.971641 -0.162849 0.171444
vt 0.872929 0.831573
v -1768.522827 -1055.719360 -12195.098633
vn -0.632937 -0.205087 0.746546
vt 0.749211 0.758796
v -1754.665283 -1048.527100 -12190.293945
vn 0.227670 -0.218777 0.948843
vt 0.625801 0.758796
v -1753.922241 -992.604919 -12171.368164
vn 0.319533 -0.541921 0.777316
vt 0.629399 0.915537
v -1743.036377 -1041.211182 -12198.191406
vn 0.886161 -0.157287 0.435866
vt 0.502244 0.758796
v -1735.604492 -981.665466 -12182.345703
vn 0.867332 -0.369287 0.333710
vt 0.505510 0.915537
v -1725.557739 -953.187256 -12157.802734
vn 0.582973 -0.807972 0.085578
vt 0.505013 0.999501
v -1751.695190 -966.518982 -12140.147461
vn 0.407921 -0.881490 0.237859
vt 0.630013 0.999501
v -1805.581543 -983.392944 -12250.258789
vn -0.112326 -0.959717 -0.257539
vt 0.003209 0.999501
v -1772.634155 -970.726563 -12277.043945
vn 0.318703 -0.918072 -0.235738
vt 0.129111 0.999501
v -1768.509644 -992.604919 -12251.692383
vn 0.045108 -0.481731 -0.875157
vt 0.130176 0.915537
v -1786.938477 -1003.544373 -12238.697266
vn -0.679085 -0.511040 -0.526955
vt 0.003422 0.915537
v -1742.212524 -956.830017 -12270.200195
vn 0.513418 -0.844397 -0.152959
vt 0.255013 0.999501
v -1746.433716 -981.665527 -12244.606445
vn 0.726238 -0.367194 -0.581160
vt 0.256334 0.915537
v -1749.693970 -1040.593140 -12236.804688
vn 0.701189 -0.108556 -0.704662
vt 0.255273 0.758796
v -1763.579590 -1048.032715 -12241.105469
vn -0.087686 -0.151257 -0.984598
vt 0.129719 0.758796
v -1775.236450 -1055.595825 -12232.703125
vn -0.838070 -0.174029 -0.517062
vt 0.003634 0.831573
v -1724.458862 -950.470581 -12215.802734
vn 0.586378 -0.807537 -0.063604
vt 0.380013 0.999501
v -1734.286987 -978.018982 -12214.125000
vn 0.957439 -0.243698 -0.154666
vt 0.381300 0.915537
v -1742.112915 -1038.442871 -12218.097656
vn 0.980991 -0.092414 -0.170633
vt 0.379092 0.758796
v -1764.282471 -1150.961792 -12204.711914
vn -0.666620 -0.084657 0.740575
vt 0.742386 0.456503
v -1756.612427 -1147.395752 -12202.243164
vn 0.171635 -0.099282 0.980145
vt 0.616235 0.456503
v -1750.029785 -1143.335449 -12206.877930
vn 0.883152 -0.085410 0.461246
vt 0.491452 0.456503
v -1749.285645 -1140.663574 -12217.892578
vn 0.986378 -0.064836 -0.151181
vt 0.369891 0.456503
v -1753.292236 -1140.863525 -12228.186523
vn 0.702046 -0.082169 -0.707376
vt 0.248998 0.456503
v -1760.962158 -1145.418213 -12230.655273
vn -0.084752 -0.100235 -0.991348
vt 0.126221 0.456503
v -1767.544800 -1150.467407 -12226.020508
vn -0.850879 -0.091165 -0.517392
vt 0.002502 0.456503
v -1768.289063 -1152.150391 -12215.005859
vn -0.987569 -0.068830 0.141317
vt 0.868056 0.456503
v -1767.544800 -1150.467407 -12226.020508
vn -0.850879 -0.091165 -0.517392
vt 0.993483 0.456503
f 39/39/39 38/38/38 41/41/41
f 38/38/38 39/39/39 37/37/37
f 40/40/40 37/37/37 39/39/39
f 39/39/39 45/45/45 40/40/40
f 45/45/45 39/39/39 44/44/44
f 44/44/44 54/54/54 45/45/45
f 54/54/54 44/44/44 43/43/43
f 39/39/39 43/43/43 44/44/44
f 43/43/43 39/39/39 42/42/42
f 41/41/41 42/42/42 39/39/39
f 42/42/42 41/41/41 47/47/47
f 46/46/46 47/47/47 41/41/41
f 47/47/47 46/46/46 35/35/35
f 47/47/47 43/43/43 42/42/42
f 43/43/43 47/47/47 48/48/48
f 54/54/54 18/18/18 15/15/15
f 18/18/18 54/54/54 53/53/53
f 43/43/43 53/53/53 54/54/54
f 53/53/53 43/43/43 52/52/52
f 48/48/48 52/52/52 43/43/43
f 52/52/52 48/48/48 33/33/33
f 47/47/47 33/33/33 48/48/48
f 33/33/33 47/47/47 34/34/34
f 35/35/35 34/34/34 47/47/47
f 34/34/34 35/35/35 32/32/32
f 36/36/36 32/32/32 35/35/35
f 32/32/32 36/36/36 22/22/22
f 52/52/52 18/18/18 53/53/53
f 18/18/18 52/52/52 20/20/20
f 32/32/32 33/33/33 34/34/34
f 33/33/33 32/32/32 31/31/31
f 20/20/20 21/21/21 18/18/18
f 21/21/21 20/20/20 12/12/12
f 52/52/52 12/12/12 20/20/20
f 12/12/12 52/52/52 51/51/51
f 33/33/33 51/51/51 52/52/52
f 51/51/51 33/33/33 50/50/50
f 31/31/31 50/50/50 33/33/33
f 50/50/50 31/31/31 30/30/30
f 32/32/32 30/30/30 31/31/31
f 30/30/30 32/32/32 25/25/25
f 22/22/22 25/25/25 32/32/32
f 25/25/25 22/22/22 24/24/24
f 23/23/23 24/24/24 22/22/22
f 24/24/24 23/23/23 26/26/26
f 12/12/12 51/51/51 50/50/50
f 30/30/30 25/25/25 24/24/24
f 12/12/12 9/9/9 21/21/21
f 26/26/26 27/27/27 24/24/24
f 30/30/30 49/49/49 50/50/50
f 24/24/24 29/29/29 30/30/30
f 29/29/29 24/24/24 28/28/28
f 27/27/27 28/28/28 24/24/24
f 56/56/56 28/28/28 57/57/57
f 28/28/28 56/56/56 29/29/29
f 54/54/54 55/55/55 45/45/45
f 55/55/55 54/54/54 14/14/14
f 15/15/15 14/14/14 54/54/54
f 14/14/14 15/15/15 16/16/16
f 18/18/18 16/16/16 15/15/15
f 16/16/16 18/18/18 19/19/19
f 21/21/21 19/19/19 18/18/18
f 19/19/19 21/21/21 8/8/8
f 9/9/9 8/8/8 21/21/21
f 8/8/8 9/9/9 10/10/10
f 12/12/12 10/10/10 9/9/9
f 10/10/10 12/12/12 13/13/13
f 50/50/50 13/13/13 12/12/12
f 13/13/13 50/50/50 1/1/1
f 49/49/49 1/1/1 50/50/50
f 1/1/1 49/49/49 56/56/56
f 30/30/30 56/56/56 49/49/49
f 56/56/56 30/30/30 29/29/29
f 13/13/13 1/1/1 10/10/10
f 11/11/11 10/10/10 1/1/1
f 10/10/10 11/11/11 8/8/8
f 19/19/19 8/8/8 16/16/16
f 17/17/17 16/16/16 8/8/8
f 16/16/16 17/17/17 14/14/14
f 7/7/7 4/4/4 3/3/3
f 1/1/1 3/3/3 4/4/4
f 3/3/3 1/1/1 2/2/2
f 56/56/56 2/2/2 1/1/1
f 2/2/2 56/56/56 5/5/5
f 57/57/57 5/5/5 56/56/56
f 2/2/2 5/5/5 3/3/3
f 6/6/6 3/3/3 5/5/5
f 3/3/3 6/6/6 7/7/7
