mtllib TROLLHOLE02_HOLECAP51.mtl
g HoleCap51
usemtl Stalagcap
v -390.814575 -650.160828 -6620.379395
vn -0.062321 -0.996925 0.047513
vt 0.496959 0.638621
v -293.505035 -652.684448 -6584.476563
vn 0.040756 -0.998917 -0.022457
vt 0.608884 0.620013
v -250.314407 -651.534485 -6444.313965
vn 0.093983 -0.995560 0.005202
vt 0.641847 0.507871
v -273.645844 -649.828552 -6337.387695
vn 0.068740 -0.988331 0.135927
vt 0.615743 0.390344
v -385.150726 -647.052063 -6319.975098
vn -0.071480 -0.960757 0.268024
vt 0.500884 0.349985
v -497.020935 -643.849121 -6375.044434
vn -0.206750 -0.967577 0.145082
vt 0.383995 0.391770
v -521.448364 -640.864197 -6485.565918
vn -0.238544 -0.970975 -0.017443
vt 0.351031 0.512231
v -483.073517 -641.855713 -6609.344238
vn -0.127450 -0.991845 -0.000140
vt 0.401034 0.615871
f 2/2/2 3/3/3 1/1/1
f 7/7/7 1/1/1 3/3/3
f 1/1/1 7/7/7 8/8/8
f 5/5/5 3/3/3 4/4/4
f 3/3/3 5/5/5 7/7/7
f 6/6/6 7/7/7 5/5/5
