mtllib TROLLHOLE02_HOLECAP56.mtl
g HoleCap56
usemtl Stalagcap
v 2570.646973 -274.617432 -6136.608887
vn 0.065742 -0.951984 -0.299007
vt 0.401034 0.615871
v 2657.911133 -254.531677 -6160.143066
vn 0.166563 -0.919487 -0.356090
vt 0.496959 0.638621
v 2725.184326 -256.863007 -6104.972656
vn 0.212515 -0.953658 -0.213010
vt 0.608884 0.620013
v 2735.959229 -265.362885 -6034.826660
vn 0.289050 -0.949549 -0.121681
vt 0.641847 0.507871
v 2679.995361 -285.036957 -5992.332031
vn 0.311086 -0.944903 0.101900
vt 0.615743 0.390344
v 2624.385742 -291.762604 -5943.903809
vn 0.020187 -0.986930 0.159881
vt 0.500884 0.349985
v 2560.535889 -292.477356 -6007.541016
vn -0.210801 -0.975339 0.065392
vt 0.383995 0.391770
v 2541.941650 -286.254211 -6092.727539
vn -0.097467 -0.983557 -0.152038
vt 0.351031 0.512231
f 2/2/2 3/3/3 1/1/1
f 7/7/7 1/1/1 3/3/3
f 1/1/1 7/7/7 8/8/8
f 5/5/5 3/3/3 4/4/4
f 3/3/3 5/5/5 7/7/7
f 6/6/6 7/7/7 5/5/5
