mtllib TROLLHOLE02_PS-MAINSTALAG30.mtl
g Ps-MainStalag30
usemtl Stalag
v -756.091003 -1123.499634 -11866.316406
vn -0.795800 -0.073461 0.601087
vt 0.734203 0.081433
v -757.506775 -1125.575562 -11872.981445
vn -0.991435 -0.066170 -0.112599
vt 0.863277 0.081433
v -753.387817 -1178.042114 -11872.533203
vn -0.966524 -0.243761 0.080077
vt 0.860008 0.054455
v -752.056580 -1177.591919 -11869.396484
vn -0.761339 -0.300789 0.574360
vt 0.793836 0.040966
v -754.308777 -1129.313354 -11878.996094
vn -0.618353 -0.068975 -0.782868
vt 0.992351 0.081433
v -751.245361 -1183.296021 -11875.168945
vn -0.738010 -0.517654 -0.432870
vt 0.922910 0.040966
v -748.754517 -1184.891113 -11871.864258
vn -0.406655 -0.860212 0.307679
vt 0.853470 0.000499
v -748.754517 -1184.891113 -11871.864258
vn -0.406655 -0.860212 0.307679
vt 0.301524 0.000499
v -746.283997 -1183.296021 -11868.584961
vn 0.213425 -0.517501 0.828639
vt 0.404120 0.047710
v -749.418579 -1178.042236 -11867.265625
vn -0.343201 -0.243655 0.907108
vt 0.502964 0.054455
v -752.056580 -1177.591919 -11869.396484
vn -0.761339 -0.300789 0.574360
vt 0.517768 0.040966
v -743.411133 -1128.982056 -11864.534180
vn 0.582011 -0.070428 0.810125
vt 0.462342 0.166770
v -750.076355 -1125.354736 -11863.121094
vn -0.164173 -0.067246 0.984137
vt 0.581642 0.168456
v -754.308777 -1129.313354 -11878.996094
vn -0.618353 -0.068975 -0.782868
vt 0.001370 0.081433
v -747.646301 -1129.066040 -11880.412109
vn 0.142589 -0.058631 -0.988044
vt 0.137483 0.168456
v -748.120728 -1183.746216 -11876.501953
vn 0.018271 -0.473689 -0.880503
vt 0.181309 0.054455
v -751.245361 -1183.296021 -11875.168945
vn -0.738010 -0.517654 -0.432870
vt 0.151447 0.040966
v -741.629150 -1128.378784 -11877.213867
vn 0.797600 -0.063915 -0.599791
vt 0.248713 0.166770
v -745.472778 -1184.722046 -11874.357422
vn 0.555040 -0.719817 -0.416886
vt 0.265625 0.047710
v -740.215637 -1128.845093 -11870.551758
vn 0.988854 -0.059700 0.136393
vt 0.355729 0.168456
v -744.151550 -1183.746216 -11871.234375
vn 0.851950 -0.472869 0.224892
vt 0.338637 0.054455
v -800.023621 -773.781921 -11832.892578
vn 0.122892 -0.991694 0.037964
vt 0.755013 0.999501
v -805.284912 -770.124939 -11878.708008
vn 0.110704 -0.974143 -0.196952
vt 0.874602 0.999501
v -786.451538 -777.143555 -11876.437500
vn -0.712082 -0.656225 -0.249616
vt 0.873766 0.915537
v -781.114319 -782.332581 -11847.456055
vn -0.572645 -0.664756 0.479767
vt 0.752355 0.915537
v -796.504395 -755.717102 -11920.984375
vn 0.213540 -0.890476 -0.401813
vt 0.994191 0.999501
v -773.332703 -763.959045 -11902.825195
vn -0.199968 -0.593386 -0.779683
vt 0.994403 0.915537
v -766.056030 -825.324829 -11893.215820
vn -0.549730 -0.130427 -0.825097
vt 0.994615 0.831573
v -775.261536 -835.750549 -11874.700195
vn -0.974993 -0.129399 -0.180677
vt 0.872929 0.831573
v -771.516357 -840.064758 -11854.363281
vn -0.787271 -0.138434 0.600866
vt 0.749211 0.758796
v -753.000183 -833.710510 -11845.157227
vn -0.088359 -0.123803 0.988365
vt 0.625801 0.758796
v -754.727295 -773.401611 -11834.337891
vn 0.103705 -0.587793 0.802337
vt 0.629399 0.915537
v -732.663574 -822.264709 -11848.903320
vn 0.639952 -0.123341 0.758451
vt 0.502244 0.758796
v -725.746277 -758.346008 -11839.674805
vn 0.702656 -0.502678 0.503577
vt 0.505510 0.915537
v -716.304871 -743.576538 -11817.921875
vn 0.534059 -0.845292 0.016209
vt 0.505013 0.999501
v -755.441467 -761.177124 -11811.041992
vn 0.321112 -0.939469 0.119518
vt 0.630013 0.999501
v -796.504395 -755.717102 -11920.984375
vn 0.213540 -0.890476 -0.401813
vt 0.003209 0.999501
v -746.356323 -733.388794 -11928.699219
vn 0.384884 -0.834303 -0.394720
vt 0.129111 0.999501
v -744.351868 -748.903503 -11908.162109
vn 0.310082 -0.478121 -0.821736
vt 0.130176 0.915537
v -773.332703 -763.959045 -11902.825195
vn -0.199968 -0.593386 -0.779683
vt 0.003422 0.915537
v -707.827332 -720.600037 -11910.904297
vn 0.551760 -0.777573 -0.301565
vt 0.255013 0.999501
v -717.964661 -739.972473 -11895.042969
vn 0.741749 -0.441403 -0.504948
vt 0.256334 0.915537
v -727.203247 -806.455261 -11887.755859
vn 0.796719 -0.117885 -0.592741
vt 0.255273 0.758796
v -745.719421 -813.344238 -11896.960938
vn 0.188614 -0.116115 -0.975163
vt 0.129719 0.758796
v -766.056030 -825.324829 -11893.215820
vn -0.549730 -0.130427 -0.825097
vt 0.003634 0.831573
v -699.121765 -727.023376 -11862.593750
vn 0.651502 -0.748124 -0.125923
vt 0.380013 0.999501
v -712.627441 -745.161438 -11866.062500
vn 0.917009 -0.398861 0.001976
vt 0.381300 0.915537
v -723.457886 -811.304199 -11867.418945
vn 0.988950 -0.111655 0.097520
vt 0.379092 0.758796
v -762.876343 -982.388855 -11860.977539
vn -0.795471 -0.068645 0.602091
vt 0.742386 0.456503
v -751.359802 -980.802856 -11855.251953
vn -0.131283 -0.062322 0.989384
vt 0.616235 0.456503
v -738.711426 -977.224182 -11857.581055
vn 0.615620 -0.061539 0.785637
vt 0.491452 0.456503
v -732.985718 -971.948242 -11869.097656
vn 0.990714 -0.053939 0.124808
vt 0.369891 0.456503
v -735.315247 -969.106934 -11881.746094
vn 0.798382 -0.055345 -0.599603
vt 0.248998 0.456503
v -746.831787 -972.831848 -11887.471680
vn 0.155453 -0.053066 -0.986417
vt 0.126221 0.456503
v -759.480164 -978.549561 -11885.142578
vn -0.585905 -0.060381 -0.808127
vt 0.002502 0.456503
v -765.205750 -981.686462 -11873.625977
vn -0.987731 -0.061424 -0.143580
vt 0.868056 0.456503
v -759.480164 -978.549561 -11885.142578
vn -0.585905 -0.060381 -0.808127
vt 0.993483 0.456503
f 39/39/39 38/38/38 41/41/41
f 38/38/38 39/39/39 37/37/37
f 40/40/40 37/37/37 39/39/39
f 39/39/39 45/45/45 40/40/40
f 45/45/45 39/39/39 44/44/44
f 44/44/44 54/54/54 45/45/45
f 54/54/54 44/44/44 43/43/43
f 39/39/39 43/43/43 44/44/44
f 43/43/43 39/39/39 42/42/42
f 41/41/41 42/42/42 39/39/39
f 42/42/42 41/41/41 47/47/47
f 46/46/46 47/47/47 41/41/41
f 47/47/47 46/46/46 35/35/35
f 47/47/47 43/43/43 42/42/42
f 43/43/43 47/47/47 48/48/48
f 54/54/54 18/18/18 15/15/15
f 18/18/18 54/54/54 53/53/53
f 43/43/43 53/53/53 54/54/54
f 53/53/53 43/43/43 52/52/52
f 48/48/48 52/52/52 43/43/43
f 52/52/52 48/48/48 33/33/33
f 47/47/47 33/33/33 48/48/48
f 33/33/33 47/47/47 34/34/34
f 35/35/35 34/34/34 47/47/47
f 34/34/34 35/35/35 32/32/32
f 36/36/36 32/32/32 35/35/35
f 32/32/32 36/36/36 22/22/22
f 52/52/52 18/18/18 53/53/53
f 18/18/18 52/52/52 20/20/20
f 32/32/32 33/33/33 34/34/34
f 33/33/33 32/32/32 31/31/31
f 20/20/20 21/21/21 18/18/18
f 21/21/21 20/20/20 12/12/12
f 52/52/52 12/12/12 20/20/20
f 12/12/12 52/52/52 51/51/51
f 33/33/33 51/51/51 52/52/52
f 51/51/51 33/33/33 50/50/50
f 31/31/31 50/50/50 33/33/33
f 50/50/50 31/31/31 30/30/30
f 32/32/32 30/30/30 31/31/31
f 30/30/30 32/32/32 25/25/25
f 22/22/22 25/25/25 32/32/32
f 25/25/25 22/22/22 24/24/24
f 23/23/23 24/24/24 22/22/22
f 24/24/24 23/23/23 26/26/26
f 12/12/12 51/51/51 50/50/50
f 30/30/30 25/25/25 24/24/24
f 12/12/12 9/9/9 21/21/21
f 26/26/26 27/27/27 24/24/24
f 30/30/30 49/49/49 50/50/50
f 24/24/24 29/29/29 30/30/30
f 29/29/29 24/24/24 28/28/28
f 27/27/27 28/28/28 24/24/24
f 56/56/56 28/28/28 57/57/57
f 28/28/28 56/56/56 29/29/29
f 54/54/54 55/55/55 45/45/45
f 55/55/55 54/54/54 14/14/14
f 15/15/15 14/14/14 54/54/54
f 14/14/14 15/15/15 16/16/16
f 18/18/18 16/16/16 15/15/15
f 16/16/16 18/18/18 19/19/19
f 21/21/21 19/19/19 18/18/18
f 19/19/19 21/21/21 8/8/8
f 9/9/9 8/8/8 21/21/21
f 8/8/8 9/9/9 10/10/10
f 12/12/12 10/10/10 9/9/9
f 10/10/10 12/12/12 13/13/13
f 50/50/50 13/13/13 12/12/12
f 13/13/13 50/50/50 1/1/1
f 49/49/49 1/1/1 50/50/50
f 1/1/1 49/49/49 56/56/56
f 30/30/30 56/56/56 49/49/49
f 56/56/56 30/30/30 29/29/29
f 13/13/13 1/1/1 10/10/10
f 11/11/11 10/10/10 1/1/1
f 10/10/10 11/11/11 8/8/8
f 19/19/19 8/8/8 16/16/16
f 17/17/17 16/16/16 8/8/8
f 16/16/16 17/17/17 14/14/14
f 7/7/7 4/4/4 3/3/3
f 1/1/1 3/3/3 4/4/4
f 3/3/3 1/1/1 2/2/2
f 56/56/56 2/2/2 1/1/1
f 2/2/2 56/56/56 5/5/5
f 57/57/57 5/5/5 56/56/56
f 2/2/2 5/5/5 3/3/3
f 6/6/6 3/3/3 5/5/5
f 3/3/3 6/6/6 7/7/7
