mtllib TROLLHOLE02_PS-UPPERSTALAG.mtl
g Ps-UpperStalag
usemtl Stalag
v -6760.186035 1036.750732 -9630.443359
vn -0.869584 -0.077360 -0.487687
vt 0.741562 0.095510
v -6756.104004 1037.266479 -9633.440430
vn -0.327100 -0.066460 -0.942650
vt 0.868865 0.095510
v -6755.424805 1004.376709 -9630.944336
vn -0.223099 -0.380191 -0.897598
vt 0.858777 0.063840
v -6756.985840 1003.213257 -9629.311523
vn -0.594979 -0.663002 -0.454344
vt 0.790081 0.048005
v -6750.924316 1037.110107 -9633.641602
vn 0.359568 -0.079490 -0.929727
vt 0.996168 0.095510
v -6752.969727 1004.516235 -9630.829102
vn 0.305784 -0.521025 -0.796887
vt 0.917384 0.048005
v -6754.235840 1002.842834 -9628.615234
vn 0.197030 -0.975448 -0.098386
vt 0.838600 0.000499
v -6754.235840 1002.842834 -9628.615234
vn 0.197030 -0.975448 -0.098386
vt 0.380460 0.000499
v -6755.463867 1003.439941 -9626.391602
vn -0.091450 -0.643493 0.759969
vt 0.441973 0.055922
v -6757.419922 1003.515564 -9627.393555
vn -0.770788 -0.528445 0.355854
vt 0.534708 0.063840
v -6756.985840 1003.213257 -9629.311523
vn -0.594979 -0.663002 -0.454344
vt 0.560693 0.048005
v -6757.288574 1035.634644 -9622.672852
vn -0.373388 -0.104404 0.921781
vt 0.475822 0.180390
v -6760.430176 1036.246948 -9625.980469
vn -0.938464 -0.084777 0.334811
vt 0.593479 0.182369
v -6750.924316 1037.110107 -9633.641602
vn 0.359568 -0.079490 -0.929727
vt 0.002408 0.095510
v -6747.671387 1036.614136 -9630.293945
vn 0.924152 -0.086725 -0.372050
vt 0.145881 0.182369
v -6750.994629 1005.211121 -9629.822266
vn 0.818308 -0.408478 -0.404373
vt 0.209876 0.063840
v -6752.969727 1004.516235 -9630.829102
vn 0.305784 -0.521025 -0.796887
vt 0.191434 0.048005
v -6747.813965 1035.719971 -9625.793945
vn 0.878293 -0.108162 0.465728
vt 0.259964 0.180390
v -6751.448242 1004.256409 -9627.909180
vn 0.762078 -0.583406 0.280845
vt 0.301771 0.055922
v -6751.997559 1035.594604 -9622.833984
vn 0.316614 -0.101716 0.943085
vt 0.366861 0.182369
v -6752.989746 1004.349976 -9626.271484
vn 0.379376 -0.423885 0.822432
vt 0.369986 0.063840
v -6794.182129 1282.995483 -9645.065430
vn -0.486085 -0.824351 -0.290115
vt 0.743599 0.999501
v -6771.541504 1283.909546 -9662.804688
vn -0.158320 -0.901536 -0.402700
vt 0.869969 0.999501
v -6759.926758 1270.461914 -9651.800781
vn -0.309843 -0.470927 -0.825970
vt 0.869888 0.926612
v -6779.365723 1271.080811 -9637.725586
vn -0.676723 -0.540060 -0.500381
vt 0.744007 0.926612
v -6732.750977 1281.915161 -9666.338867
vn 0.064964 -0.832847 -0.549678
vt 0.996339 0.999501
v -6737.509277 1265.166504 -9652.050781
vn 0.321740 -0.457212 -0.829121
vt 0.996170 0.926612
v -6742.008789 1223.389038 -9644.906250
vn 0.436195 -0.136820 -0.889390
vt 0.996002 0.853724
v -6758.231445 1229.245605 -9645.165039
vn -0.319825 -0.115745 -0.940380
vt 0.869806 0.853724
v -6772.077637 1231.881226 -9635.424805
vn -0.845443 -0.131089 -0.517727
vt 0.743617 0.777169
v -6774.019043 1227.602783 -9619.229492
vn -0.973491 -0.160083 0.163368
vt 0.618250 0.777169
v -6782.436035 1264.474731 -9615.609375
vn -0.855340 -0.515495 0.051566
vt 0.618930 0.926612
v -6765.689941 1220.925293 -9606.003906
vn -0.534121 -0.190262 0.823721
vt 0.493688 0.777169
v -6771.273438 1256.185913 -9597.764648
vn -0.572145 -0.602898 0.556026
vt 0.494332 0.926612
v -6770.833984 1262.812866 -9575.252930
vn -0.335439 -0.942062 0.000392
vt 0.493599 0.999501
v -6793.643555 1274.472290 -9608.471680
vn -0.532883 -0.842807 -0.075584
vt 0.618599 0.999501
v -6732.750977 1281.915161 -9666.338867
vn 0.064964 -0.832847 -0.549678
vt 0.001543 0.999501
v -6710.402832 1268.163818 -9633.450195
vn 0.135529 -0.930446 -0.340444
vt 0.122571 0.999501
v -6725.503906 1257.742554 -9632.693359
vn 0.775430 -0.517592 -0.361672
vt 0.123472 0.926612
v -6737.509277 1265.166504 -9652.050781
vn 0.321740 -0.457212 -0.829121
vt 0.001428 0.926612
v -6709.466797 1260.006470 -9598.308594
vn 0.062095 -0.974452 -0.215843
vt 0.243599 0.999501
v -6727.731934 1252.001587 -9609.065430
vn 0.672681 -0.667290 0.319726
vt 0.246097 0.926612
v -6734.133301 1215.020386 -9614.337891
vn 0.851673 -0.162571 0.498220
vt 0.246990 0.777169
v -6732.935547 1218.004761 -9631.106445
vn 0.949911 -0.136502 -0.281134
vt 0.124174 0.777169
v -6742.008789 1223.389038 -9644.906250
vn 0.436195 -0.136820 -0.889390
vt 0.001312 0.853724
v -6741.055176 1257.520630 -9586.403320
vn 0.063802 -0.954713 0.290605
vt 0.368599 0.999501
v -6748.013672 1251.755493 -9596.502930
vn 0.155222 -0.659959 0.735092
vt 0.369886 0.926612
v -6748.723633 1216.362305 -9605.171875
vn 0.221766 -0.172142 0.959785
vt 0.370048 0.777169
v -6765.450195 1133.372192 -9632.738281
vn -0.861368 -0.065293 -0.503768
vt 0.742315 0.474617
v -6766.323730 1131.234741 -9622.972656
vn -0.965589 -0.078440 0.247963
vt 0.615547 0.474617
v -6760.862793 1127.768921 -9615.091797
vn -0.493800 -0.100039 0.863802
vt 0.490290 0.474617
v -6750.313477 1125.287109 -9614.874023
vn 0.266546 -0.097849 0.958842
vt 0.367961 0.474617
v -6741.435059 1124.450317 -9620.591797
vn 0.863970 -0.097413 0.494031
vt 0.246658 0.474617
v -6740.987793 1125.920288 -9630.514648
vn 0.946692 -0.079550 -0.312164
vt 0.124479 0.474617
v -6746.875000 1128.718872 -9638.551758
vn 0.435775 -0.074967 -0.896928
vt 0.001860 0.474617
v -6756.998535 1131.868286 -9638.612305
vn -0.313590 -0.060840 -0.947607
vt 0.869177 0.474617
v -6746.875000 1128.718872 -9638.551758
vn 0.435775 -0.074967 -0.896928
vt 0.996085 0.474617
f 39/39/39 38/38/38 41/41/41
f 38/38/38 39/39/39 37/37/37
f 40/40/40 37/37/37 39/39/39
f 39/39/39 45/45/45 40/40/40
f 45/45/45 39/39/39 44/44/44
f 44/44/44 54/54/54 45/45/45
f 54/54/54 44/44/44 43/43/43
f 39/39/39 43/43/43 44/44/44
f 43/43/43 39/39/39 42/42/42
f 41/41/41 42/42/42 39/39/39
f 42/42/42 41/41/41 47/47/47
f 46/46/46 47/47/47 41/41/41
f 47/47/47 46/46/46 35/35/35
f 47/47/47 43/43/43 42/42/42
f 43/43/43 47/47/47 48/48/48
f 54/54/54 18/18/18 15/15/15
f 18/18/18 54/54/54 53/53/53
f 43/43/43 53/53/53 54/54/54
f 53/53/53 43/43/43 52/52/52
f 48/48/48 52/52/52 43/43/43
f 52/52/52 48/48/48 33/33/33
f 47/47/47 33/33/33 48/48/48
f 33/33/33 47/47/47 34/34/34
f 35/35/35 34/34/34 47/47/47
f 34/34/34 35/35/35 32/32/32
f 36/36/36 32/32/32 35/35/35
f 32/32/32 36/36/36 22/22/22
f 52/52/52 18/18/18 53/53/53
f 18/18/18 52/52/52 20/20/20
f 32/32/32 33/33/33 34/34/34
f 33/33/33 32/32/32 31/31/31
f 20/20/20 21/21/21 18/18/18
f 21/21/21 20/20/20 12/12/12
f 52/52/52 12/12/12 20/20/20
f 12/12/12 52/52/52 51/51/51
f 33/33/33 51/51/51 52/52/52
f 51/51/51 33/33/33 50/50/50
f 31/31/31 50/50/50 33/33/33
f 50/50/50 31/31/31 30/30/30
f 32/32/32 30/30/30 31/31/31
f 30/30/30 32/32/32 25/25/25
f 22/22/22 25/25/25 32/32/32
f 25/25/25 22/22/22 24/24/24
f 23/23/23 24/24/24 22/22/22
f 24/24/24 23/23/23 26/26/26
f 12/12/12 51/51/51 50/50/50
f 30/30/30 25/25/25 24/24/24
f 12/12/12 9/9/9 21/21/21
f 26/26/26 27/27/27 24/24/24
f 30/30/30 49/49/49 50/50/50
f 24/24/24 29/29/29 30/30/30
f 29/29/29 24/24/24 28/28/28
f 27/27/27 28/28/28 24/24/24
f 56/56/56 28/28/28 57/57/57
f 28/28/28 56/56/56 29/29/29
f 54/54/54 55/55/55 45/45/45
f 55/55/55 54/54/54 14/14/14
f 15/15/15 14/14/14 54/54/54
f 14/14/14 15/15/15 16/16/16
f 18/18/18 16/16/16 15/15/15
f 16/16/16 18/18/18 19/19/19
f 21/21/21 19/19/19 18/18/18
f 19/19/19 21/21/21 8/8/8
f 9/9/9 8/8/8 21/21/21
f 8/8/8 9/9/9 10/10/10
f 12/12/12 10/10/10 9/9/9
f 10/10/10 12/12/12 13/13/13
f 50/50/50 13/13/13 12/12/12
f 13/13/13 50/50/50 1/1/1
f 49/49/49 1/1/1 50/50/50
f 1/1/1 49/49/49 56/56/56
f 30/30/30 56/56/56 49/49/49
f 56/56/56 30/30/30 29/29/29
f 13/13/13 1/1/1 10/10/10
f 11/11/11 10/10/10 1/1/1
f 10/10/10 11/11/11 8/8/8
f 19/19/19 8/8/8 16/16/16
f 17/17/17 16/16/16 8/8/8
f 16/16/16 17/17/17 14/14/14
f 7/7/7 4/4/4 3/3/3
f 1/1/1 3/3/3 4/4/4
f 3/3/3 1/1/1 2/2/2
f 56/56/56 2/2/2 1/1/1
f 2/2/2 56/56/56 5/5/5
f 57/57/57 5/5/5 56/56/56
f 2/2/2 5/5/5 3/3/3
f 6/6/6 3/3/3 5/5/5
f 3/3/3 6/6/6 7/7/7
