mtllib TROLLHOLE02_RM_PSURF198.mtl
g RM_Psurf198
usemtl Lvl_roast_m_cliffsides
v -3864.386475 -1055.512817 -19650.441406
vn -0.959160 0.280978 -0.032621
vt 3.620229 0.730112
v -3843.269775 -1123.018921 -19649.087891
vn -0.990093 0.071489 -0.120848
vt 3.608228 0.847673
v -3750.743408 -1129.620605 -19326.826172
vn -0.958816 -0.001809 0.284023
vt 3.953010 0.728932
v -3752.595215 -1062.205322 -19293.556641
vn -0.831131 0.484192 0.273458
vt 3.996004 0.592706
v -3747.724609 -1055.509888 -19922.652344
vn -0.653062 0.273803 -0.706075
vt 3.202583 0.742248
v -3733.738525 -1123.017700 -19906.775391
vn -0.534820 0.000007 -0.844966
vt 3.213454 0.859624
v -3475.513184 -1055.509888 -20000.425781
vn -0.125357 0.245356 -0.961294
vt 2.928256 0.624592
v -3472.916260 -1123.017700 -19979.427734
vn -0.068411 0.000011 -0.997657
vt 2.952950 0.746402
v -3174.136230 -1055.509888 -19990.705078
vn 0.004113 0.237742 -0.971320
vt 3.744913 0.469233
v -3174.191162 -1123.017822 -19969.546875
vn -0.007816 0.000011 -0.999969
vt 3.771528 0.592345
v -3472.916260 -1123.017700 -19979.427734
vn -0.068411 0.000011 -0.997657
vt 3.952950 0.746402
v -3475.513184 -1055.509888 -20000.425781
vn -0.125357 0.245356 -0.961294
vt 3.928256 0.624592
v -2814.428223 -1055.509888 -20000.425781
vn -0.288956 0.250975 -0.923859
vt 3.499298 0.289388
v -2807.823730 -1123.017700 -19980.324219
vn -0.405288 0.000009 -0.914189
vt 3.520265 0.409401
v -2590.826172 -1055.509888 -20155.976563
vn -0.735516 0.251623 -0.629048
vt 3.158809 0.216751
v -2574.554932 -1123.017578 -20142.449219
vn -0.823800 0.000004 -0.566881
vt 3.165243 0.333584
v -2454.720459 -1055.509888 -20457.353516
vn -0.924014 0.242368 -0.295728
vt 2.691909 0.226672
v -2434.525879 -1123.017578 -20451.035156
vn -0.965559 0.000000 -0.260183
vt 2.686743 0.343404
v -2401.051514 -1055.509888 -20748.388672
vn -0.969684 0.243454 -0.021055
vt 3.291492 0.275685
v -2379.893311 -1123.017456 -20748.107422
vn -0.998972 -0.000003 0.045337
vt 3.278116 0.393509
v -2434.525879 -1123.017578 -20451.035156
vn -0.965559 0.000000 -0.260183
vt 3.686743 0.343404
v -2454.720459 -1055.509888 -20457.353516
vn -0.924014 0.242368 -0.295728
vt 3.691909 0.226672
v -2425.554932 -1055.509888 -20904.556641
vn -0.956941 0.255362 -0.138038
vt 3.111215 0.329012
v -2404.666504 -1123.017456 -20901.177734
vn -0.964407 0.000001 -0.264422
vt 3.101906 0.446162
v -2270.005615 -1055.509888 -21205.933594
vn -0.712242 0.252672 -0.654881
vt 2.631699 0.329075
v -2254.635498 -1123.017578 -21191.390625
vn -0.656609 0.000007 -0.754231
vt 2.639994 0.446099
v -1939.463135 -1055.509888 -21400.371094
vn -0.417342 0.240375 -0.876382
vt 3.172971 0.212398
v -1930.445313 -1123.017700 -21381.230469
vn -0.397938 0.000010 -0.917412
vt 3.191164 0.331439
v -2254.635498 -1123.017578 -21191.390625
vn -0.656609 0.000007 -0.754231
vt 3.639994 0.446099
v -2270.005615 -1055.509888 -21205.933594
vn -0.712242 0.252672 -0.654881
vt 3.631699 0.329075
v -1725.582764 -1055.509888 -21478.146484
vn -0.464864 0.241607 -0.851779
vt 2.936490 0.124320
v -1715.301392 -1123.017700 -21459.652344
vn -0.532708 0.000008 -0.846299
vt 2.953050 0.242890
v -1589.477051 -1055.509888 -21585.085938
vn -0.767621 0.249616 -0.590297
vt 3.713840 0.083316
v -1572.538330 -1123.017578 -21572.404297
vn -0.850910 0.000004 -0.525311
vt 3.718778 0.200032
v -1715.301392 -1123.017700 -21459.652344
vn -0.532708 0.000008 -0.846299
vt 3.953050 0.242890
v -1725.582764 -1055.509888 -21478.146484
vn -0.464864 0.241607 -0.851779
vt 3.936490 0.124320
v -1472.815063 -1055.509888 -21876.740234
vn -0.949948 0.245900 -0.192697
vt 3.271770 0.100550
v -1452.036621 -1123.017456 -21872.740234
vn -0.991948 -0.000001 -0.126649
vt 3.263313 0.217593
v -1472.815063 -1055.509888 -22168.396484
vn -0.970734 0.239404 0.019017
vt 2.905396 0.176939
v -1451.659424 -1123.017334 -22168.837891
vn -0.999569 -0.000003 0.029365
vt 2.891114 0.294953
v -1482.536987 -1055.509888 -22401.720703
vn -0.922786 0.259769 -0.284581
vt 2.618606 0.242979
v -1462.443604 -1123.017456 -22395.087891
vn -0.903508 0.000002 -0.428571
vt 2.613900 0.359679
v -1278.378418 -1055.509766 -22654.488281
vn -0.684740 0.242683 -0.687194
vt 2.168611 0.205663
v -1263.516846 -1123.017578 -22639.427734
vn -0.675643 0.000006 -0.737229
vt 2.177888 0.322809
v -1006.167053 -1055.509766 -22868.367188
vn -0.874270 0.283554 -0.394017
vt 1.723310 0.123655
v -986.653259 -1123.017456 -22860.185547
vn -0.977458 0.000000 -0.211129
vt 1.720927 0.240243
v -1045.054443 -1055.509766 -23218.353516
vn -0.840265 0.275925 0.466711
vt 1.308895 0.235038
v -1026.803589 -1123.017212 -23229.062500
vn -0.780638 -0.000010 0.624983
vt 1.283601 0.357215
v -1317.265869 -1055.509766 -23412.791016
vn -0.530256 0.244155 0.811922
vt 1.242712 0.427408
v -1305.753906 -1123.017090 -23430.546875
vn -0.531458 -0.000011 0.847085
vt 1.329457 0.431764
v -1026.803589 -1123.017212 -23229.062500
vn -0.780638 -0.000010 0.624983
vt 1.346852 0.003350
v -1045.054443 -1055.509766 -23218.353516
vn -0.840265 0.275925 0.466711
vt 1.250499 0.004257
v -1599.199097 -1055.509766 -23578.062500
vn -0.751269 0.264186 0.604814
vt 1.224876 0.889562
v -1582.441162 -1123.017212 -23590.984375
vn -0.865618 -0.000008 0.500706
vt 1.333095 0.891701
v -1667.251953 -1055.509766 -23821.107422
vn -0.960999 0.265037 -0.078973
vt 0.955451 0.708394
v -1646.201172 -1123.017334 -23818.958984
vn -0.973069 0.000000 -0.230514
vt 0.944490 0.825783
v -1582.441162 -1123.017212 -23590.984375
vn -0.865618 -0.000008 0.500706
vt 1.189498 0.733744
v -1599.199097 -1055.509766 -23578.062500
vn -0.751269 0.264186 0.604814
vt 1.216602 0.610231
v -1511.702515 -1055.561523 -24122.484375
vn -0.696633 0.173498 -0.696133
vt 0.475934 0.708555
v -1496.401489 -1123.043335 -24107.869141
vn -0.682487 0.065723 -0.727937
vt 0.484365 0.825546
v -1167.689575 -1024.229370 -24320.478516
vn -0.499278 0.261050 -0.826181
vt 0.003998 0.526281
v -1157.134277 -1091.685303 -24302.140625
vn -0.488287 -0.099272 -0.867018
vt 0.020185 0.644653
v -3828.945557 -1022.320679 -19648.857422
vn -0.216059 0.975949 0.029022
vt 3.599222 0.648483
v -3710.845215 -1030.405884 -19287.042969
vn -0.313086 0.941695 0.123238
vt 3.977097 0.509242
v -3723.427002 -1022.154846 -19895.066406
vn -0.271399 0.936305 -0.222880
vt 3.221471 0.659149
v -3471.389404 -1022.107849 -19967.076172
vn -0.085449 0.868225 -0.488757
vt 2.967474 0.550124
v -3174.222900 -1022.106262 -19957.490234
vn 0.006737 0.974443 -0.224533
vt 3.786692 0.396931
v -3471.389404 -1022.107849 -19967.076172
vn -0.085449 0.868225 -0.488757
vt 3.967474 0.550124
v -2803.613525 -1022.114380 -19967.505859
vn -0.082733 0.963456 -0.254769
vt 3.533634 0.211652
v -2564.341797 -1022.190247 -20133.957031
vn -0.188692 0.959668 -0.208403
vt 3.169284 0.134069
v -1142.784546 -993.440247 -24296.693359
vn -0.220471 0.938917 -0.264249
vt 0.017717 0.448758
v -1486.685913 -1022.177612 -24098.578125
vn -0.312910 0.927434 -0.204827
vt 0.489733 0.626000
v -1631.760742 -1022.308044 -23817.484375
vn -0.367584 0.929927 0.010864
vt 0.936973 0.626188
v -1570.843750 -1022.460144 -23599.923828
vn -0.340514 0.874901 0.344380
vt 1.170742 0.538607
v -1570.843750 -1022.460144 -23599.923828
vn -0.340514 0.874901 0.344380
vt 0.963894 0.886318
v -1299.186035 -1022.491150 -23440.675781
vn -0.212541 0.924223 0.317236
vt 0.965445 0.427593
v -1013.694763 -1022.440674 -23236.753906
vn -0.446234 0.876724 0.179530
vt 0.952598 -0.003163
v -1013.694763 -1022.440674 -23236.753906
vn -0.446234 0.876724 0.179530
vt 1.265435 0.160948
v -971.130310 -1022.239929 -22853.673828
vn -0.297471 0.934505 -0.195480
vt 1.719033 0.038650
v -1254.912231 -1022.177551 -22630.705078
vn -0.278407 0.924156 -0.261582
vt 2.183262 0.124025
v -1448.844849 -1022.261108 -22390.597656
vn -0.239552 0.969756 -0.046773
vt 2.610718 0.159631
v -1439.615112 -1022.333252 -22169.087891
vn -0.382581 0.923906 0.005415
vt 2.882985 0.097072
v -1439.615112 -1022.289795 -21870.345703
vn -0.242365 0.968124 -0.063203
vt 3.258259 0.018745
v -1561.960571 -1022.199463 -21564.484375
vn -0.279862 0.926445 -0.251749
vt 3.721865 0.000500
v -1709.246826 -1022.139160 -21448.759766
vn -0.220818 0.863936 -0.452608
vt 3.962805 0.044757
v -1709.246826 -1022.139160 -21448.759766
vn -0.220818 0.863936 -0.452608
vt 2.962805 0.044757
v -1925.255371 -1022.133179 -21370.210938
vn -0.114676 0.967540 -0.225204
vt 3.201639 0.133700
v -2244.903564 -1022.178772 -21182.181641
vn -0.391073 0.868546 -0.304450
vt 3.645248 0.246618
v -2244.903564 -1022.178772 -21182.181641
vn -0.391073 0.868546 -0.304450
vt 2.645248 0.246618
v -2391.073486 -1022.295593 -20898.976563
vn -0.371872 0.928088 -0.019079
vt 3.095850 0.246781
v -2367.374756 -1022.326599 -20747.939453
vn -0.254447 0.966826 -0.022441
vt 3.270205 0.195265
v -2422.802734 -1022.267090 -20447.365234
vn -0.477828 0.861646 -0.171014
vt 3.683746 0.144533
v -2422.802734 -1022.267090 -20447.365234
vn -0.477828 0.861646 -0.171014
vt 2.683746 0.144533
v -3864.385986 -1190.525146 -19650.443359
vn -0.590093 0.805935 -0.047529
vt 3.620227 0.987359
v -3789.099365 -1190.525146 -19348.611328
vn -0.352444 0.930886 0.096092
vt 3.950532 0.870131
v -3747.724121 -1190.525146 -19922.654297
vn -0.456095 0.806107 -0.377054
vt 3.202581 0.999500
v -3475.512695 -1190.525146 -20000.427734
vn -0.081199 0.882026 -0.464152
vt 2.928254 0.881845
v -3174.135742 -1190.525146 -19990.707031
vn 0.004900 0.923499 -0.383570
vt 3.744910 0.726485
v -3475.512695 -1190.525146 -20000.427734
vn -0.081199 0.882026 -0.464152
vt 3.928254 0.881845
v -2814.427734 -1190.525146 -20000.427734
vn -0.128479 0.806749 -0.576758
vt 3.499296 0.546641
v -2590.825684 -1190.525146 -20155.978516
vn -0.419042 0.805421 -0.419167
vt 3.158807 0.474003
v -2454.719971 -1190.525146 -20457.355469
vn -0.722992 0.640326 -0.259355
vt 2.691907 0.483925
v -2401.051025 -1190.525146 -20748.390625
vn -0.277136 0.960634 -0.019428
vt 3.291489 0.532938
v -2454.719971 -1190.525146 -20457.355469
vn -0.722992 0.640326 -0.259355
vt 3.691907 0.483925
v -2425.554443 -1190.525146 -20904.558594
vn -0.590523 0.806471 -0.029792
vt 3.111213 0.586265
v -2270.005127 -1190.525146 -21205.935547
vn -0.467708 0.805260 -0.364426
vt 2.631697 0.586327
v -1939.462769 -1190.525024 -21400.373047
vn -0.268856 0.804913 -0.528991
vt 3.172968 0.469651
v -2270.005127 -1190.525146 -21205.935547
vn -0.467708 0.805260 -0.364426
vt 3.631697 0.586327
v -1725.582397 -1190.525024 -21478.148438
vn -0.336420 0.642273 -0.688700
vt 2.936488 0.381573
v -1589.476685 -1190.525024 -21585.087891
vn -0.440472 0.806245 -0.394908
vt 3.713837 0.340569
v -1725.582397 -1190.525024 -21478.148438
vn -0.336420 0.642273 -0.688700
vt 3.936488 0.381573
v -1472.814575 -1190.525024 -21876.742188
vn -0.371459 0.923396 -0.096741
vt 3.271767 0.357803
v -1472.814697 -1190.525024 -22168.398438
vn -0.592624 0.805440 0.007970
vt 2.905393 0.434191
v -1482.536621 -1190.525024 -22401.722656
vn -0.375302 0.924019 -0.073056
vt 2.618603 0.500231
v -1278.378052 -1190.525024 -22654.490234
vn -0.432579 0.804238 -0.407524
vt 2.168609 0.462915
v -1006.166626 -1190.525024 -22868.369141
vn -0.493505 0.808344 -0.320988
vt 1.723308 0.380907
v -1045.053955 -1190.525024 -23218.355469
vn -0.714673 0.637909 0.286905
vt 1.308893 0.492291
v -1317.265503 -1190.525024 -23412.792969
vn -0.332244 0.803485 0.493990
vt 1.470345 0.453880
v -1045.053955 -1190.525024 -23218.355469
vn -0.714673 0.637909 0.286905
vt 1.481552 0.005086
v -1599.198730 -1190.525024 -23578.064453
vn -0.537131 0.644682 0.543945
vt 1.473024 0.885262
v -1667.251587 -1190.525024 -23821.109375
vn -0.592861 0.805127 0.016935
vt 0.955448 0.965646
v -1599.198730 -1190.525024 -23578.064453
vn -0.537131 0.644682 0.543945
vt 1.216600 0.867483
v -1511.702148 -1190.524902 -24122.486328
vn -0.477748 0.791881 -0.380371
vt 0.475932 0.965709
v -1167.689209 -1159.140869 -24320.480469
vn -0.380909 0.747360 -0.544391
vt 0.003995 0.783336
f 58/58/58 74/74/74 73/73/73
f 55/55/55 73/73/73 72/72/72
f 73/73/73 55/55/55 58/58/58
f 57/57/57 58/58/58 55/55/55
f 57/57/57 121/121/121 122/122/122
f 121/121/121 57/57/57 56/56/56
f 55/55/55 56/56/56 57/57/57
f 56/56/56 55/55/55 59/59/59
f 72/72/72 59/59/59 55/55/55
f 59/59/59 72/72/72 71/71/71
f 71/71/71 61/61/61 59/59/59
f 61/61/61 62/62/62 59/59/59
f 60/60/60 59/59/59 62/62/62
f 59/59/59 60/60/60 56/56/56
f 123/123/123 56/56/56 60/60/60
f 56/56/56 123/123/123 121/121/121
f 60/60/60 124/124/124 123/123/123
f 124/124/124 60/60/60 62/62/62
f 84/84/84 36/36/36 85/85/85
f 36/36/36 84/84/84 33/33/33
f 83/83/83 33/33/33 84/84/84
f 33/33/33 83/83/83 37/37/37
f 82/82/82 37/37/37 83/83/83
f 37/37/37 82/82/82 39/39/39
f 81/81/81 39/39/39 82/82/82
f 39/39/39 81/81/81 41/41/41
f 80/80/80 41/41/41 81/81/81
f 41/41/41 80/80/80 43/43/43
f 79/79/79 43/43/43 80/80/80
f 43/43/43 79/79/79 45/45/45
f 78/78/78 45/45/45 79/79/79
f 45/45/45 78/78/78 47/47/47
f 46/46/46 47/47/47 48/48/48
f 47/47/47 46/46/46 45/45/45
f 44/44/44 45/45/45 46/46/46
f 45/45/45 44/44/44 43/43/43
f 42/42/42 43/43/43 44/44/44
f 43/43/43 42/42/42 41/41/41
f 40/40/40 41/41/41 42/42/42
f 41/41/41 40/40/40 39/39/39
f 38/38/38 39/39/39 40/40/40
f 39/39/39 38/38/38 37/37/37
f 34/34/34 37/37/37 38/38/38
f 37/37/37 34/34/34 33/33/33
f 35/35/35 33/33/33 34/34/34
f 33/33/33 35/35/35 36/36/36
f 111/111/111 35/35/35 110/110/110
f 34/34/34 110/110/110 35/35/35
f 110/110/110 34/34/34 112/112/112
f 38/38/38 112/112/112 34/34/34
f 112/112/112 38/38/38 113/113/113
f 40/40/40 113/113/113 38/38/38
f 113/113/113 40/40/40 114/114/114
f 42/42/42 114/114/114 40/40/40
f 114/114/114 42/42/42 115/115/115
f 44/44/44 115/115/115 42/42/42
f 115/115/115 44/44/44 116/116/116
f 46/46/46 116/116/116 44/44/44
f 116/116/116 46/46/46 117/117/117
f 48/48/48 117/117/117 46/46/46
f 9/9/9 11/11/11 12/12/12
f 11/11/11 9/9/9 10/10/10
f 13/13/13 10/10/10 9/9/9
f 10/10/10 13/13/13 14/14/14
f 15/15/15 14/14/14 13/13/13
f 14/14/14 15/15/15 16/16/16
f 17/17/17 16/16/16 15/15/15
f 16/16/16 17/17/17 18/18/18
f 99/99/99 11/11/11 98/98/98
f 10/10/10 98/98/98 11/11/11
f 98/98/98 10/10/10 100/100/100
f 14/14/14 100/100/100 10/10/10
f 100/100/100 14/14/14 101/101/101
f 16/16/16 101/101/101 14/14/14
f 101/101/101 16/16/16 102/102/102
f 18/18/18 102/102/102 16/16/16
f 15/15/15 93/93/93 17/17/17
f 93/93/93 15/15/15 70/70/70
f 13/13/13 70/70/70 15/15/15
f 70/70/70 13/13/13 69/69/69
f 9/9/9 69/69/69 13/13/13
f 69/69/69 9/9/9 67/67/67
f 12/12/12 67/67/67 9/9/9
f 67/67/67 12/12/12 68/68/68
f 19/19/19 91/91/91 90/90/90
f 91/91/91 19/19/19 22/22/22
f 21/21/21 22/22/22 19/19/19
f 22/22/22 92/92/92 91/91/91
f 21/21/21 103/103/103 104/104/104
f 103/103/103 21/21/21 20/20/20
f 19/19/19 20/20/20 21/21/21
f 20/20/20 19/19/19 23/23/23
f 90/90/90 23/23/23 19/19/19
f 23/23/23 90/90/90 89/89/89
f 20/20/20 105/105/105 103/103/103
f 105/105/105 20/20/20 24/24/24
f 23/23/23 24/24/24 20/20/20
f 24/24/24 23/23/23 25/25/25
f 89/89/89 25/25/25 23/23/23
f 25/25/25 26/26/26 24/24/24
f 106/106/106 24/24/24 26/26/26
f 24/24/24 106/106/106 105/105/105
f 97/97/97 96/96/96 6/6/6
f 2/2/2 6/6/6 96/96/96
f 6/6/6 2/2/2 5/5/5
f 1/1/1 5/5/5 2/2/2
f 5/5/5 1/1/1 65/65/65
f 63/63/63 65/65/65 1/1/1
f 96/96/96 94/94/94 2/2/2
f 6/6/6 8/8/8 97/97/97
f 8/8/8 6/6/6 7/7/7
f 5/5/5 7/7/7 6/6/6
f 7/7/7 5/5/5 66/66/66
f 65/65/65 66/66/66 5/5/5
f 94/94/94 95/95/95 2/2/2
f 3/3/3 2/2/2 95/95/95
f 2/2/2 3/3/3 1/1/1
f 4/4/4 1/1/1 3/3/3
f 1/1/1 4/4/4 63/63/63
f 64/64/64 63/63/63 4/4/4
f 88/88/88 87/87/87 30/30/30
f 27/27/27 30/30/30 87/87/87
f 30/30/30 27/27/27 29/29/29
f 28/28/28 29/29/29 27/27/27
f 29/29/29 28/28/28 107/107/107
f 109/109/109 107/107/107 28/28/28
f 107/107/107 108/108/108 29/29/29
f 28/28/28 32/32/32 109/109/109
f 32/32/32 28/28/28 31/31/31
f 27/27/27 31/31/31 28/28/28
f 31/31/31 27/27/27 86/86/86
f 87/87/87 86/86/86 27/27/27
f 77/77/77 76/76/76 52/52/52
f 49/49/49 52/52/52 76/76/76
f 52/52/52 49/49/49 51/51/51
f 50/50/50 51/51/51 49/49/49
f 51/51/51 50/50/50 118/118/118
f 120/120/120 118/118/118 50/50/50
f 118/118/118 119/119/119 51/51/51
f 50/50/50 54/54/54 120/120/120
f 54/54/54 50/50/50 53/53/53
f 49/49/49 53/53/53 50/50/50
f 53/53/53 49/49/49 75/75/75
f 76/76/76 75/75/75 49/49/49
