mtllib TROLLHOLE02_BOX328.mtl
g Box328
usemtl Lvl_roast_m_largebolders
v -5754.851074 -2079.496094 -15410.224609
vn -0.636678 -0.760755 0.126068
vt 1.605350 -1.432497
v -5884.102051 -1974.302246 -15396.657227
vn -0.840438 -0.523271 0.140893
vt 1.662070 -1.933873
v -5872.426758 -1990.561768 -15537.793945
vn -0.777468 -0.551694 -0.301956
vt 2.227635 -1.775740
v -5771.731934 -2079.496094 -15511.387695
vn -0.657730 -0.661982 -0.359404
vt 2.032623 -1.414959
v -5886.489746 -1897.384888 -15531.767578
vn -0.904554 0.020800 -0.425852
vt 2.215245 -1.833962
v -5844.192383 -1742.388672 -15568.540039
vn -0.528515 0.536938 -0.657548
vt 2.328565 -1.643809
v -5742.356934 -1880.940796 -15646.747070
vn -0.388750 0.180652 -0.903459
vt 2.559273 -1.194327
v -5319.574707 -1907.894897 -15736.612305
vn 0.387672 0.761648 -0.519233
vt 2.559273 0.482368
v -5473.008789 -1899.752808 -15768.726563
vn -0.371142 0.468477 -0.801738
vt 2.823294 -0.073924
v -5523.742188 -1735.831421 -15636.653320
vn 0.049009 0.706922 -0.705592
vt 2.328564 -0.372950
v -5334.086914 -1868.270264 -15642.769531
vn 0.426387 0.737516 -0.523703
vt 2.189081 0.351616
v -5899.053711 -1863.836670 -15386.868164
vn -0.991007 0.082819 -0.105105
vt 1.635105 -1.998502
v -5837.645020 -1674.141724 -15406.154297
vn -0.837969 0.506619 -0.202842
vt 1.660531 -1.749935
v -5723.281738 -1990.917358 -15650.801758
vn -0.577088 -0.296955 -0.760781
vt 2.559273 -1.118677
v -5688.326660 -2079.496094 -15624.236328
vn -0.541879 -0.433944 -0.719763
vt 2.420612 -1.007468
v -5602.065430 -1889.084351 -15676.566406
vn -0.326458 0.385108 -0.863202
vt 2.559273 -0.637951
v -5597.190918 -1991.935059 -15720.557617
vn -0.470987 0.028454 -0.881681
vt 2.734480 -0.583974
v -5712.545898 -2079.496094 -15298.227539
vn -0.630546 -0.682503 0.369597
vt 1.111848 -1.362301
v -5810.352539 -1949.482544 -15273.586914
vn -0.642806 -0.578696 0.501908
vt 1.096139 -1.753296
v -5315.214844 -1714.532715 -15500.792969
vn 0.355406 0.830925 -0.428078
vt 1.593609 0.308717
v -5512.413574 -1618.722778 -15475.270508
vn 0.130517 0.853488 -0.504503
vt 1.660473 -0.460124
v -5445.276855 -1606.453125 -15334.143555
vn 0.191971 0.970742 -0.144250
vt 1.026623 -0.319202
v -5268.173828 -1700.761719 -15371.781250
vn 0.414689 0.876428 -0.244758
vt 1.026594 0.383159
v -5586.507813 -2079.496094 -15679.874023
vn -0.434597 -0.422563 -0.795340
vt 2.559273 -0.576251
v -5691.863281 -1756.318970 -15600.917969
vn -0.167672 0.595801 -0.785435
vt 2.328565 -1.039694
v -5684.779785 -1617.003174 -15438.639648
vn -0.138958 0.923927 -0.356441
vt 1.660502 -1.143699
v -5475.266602 -1993.268555 -15811.201172
vn -0.555263 0.355007 -0.752099
vt 2.998501 -0.048235
v -5614.302734 -1617.653076 -15298.222656
vn -0.058850 0.997682 0.034155
vt 1.026651 -0.989529
v -5445.276855 -1606.453125 -15334.143555
vn 0.191971 0.970742 -0.144250
vt 1.026623 -0.319202
v -5512.413574 -1618.722778 -15475.270508
vn 0.130517 0.853488 -0.504503
vt 1.660473 -0.460124
f 29/29/29 26/26/26 28/28/28
f 26/26/26 29/29/29 30/30/30
f 26/26/26 6/6/6 13/13/13
f 6/6/6 26/26/26 25/25/25
f 21/21/21 25/25/25 26/26/26
f 25/25/25 21/21/21 10/10/10
f 11/11/11 10/10/10 21/21/21
f 12/12/12 13/13/13 5/5/5
f 6/6/6 5/5/5 13/13/13
f 5/5/5 6/6/6 7/7/7
f 25/25/25 7/7/7 6/6/6
f 7/7/7 25/25/25 16/16/16
f 10/10/10 16/16/16 25/25/25
f 2/2/2 12/12/12 5/5/5
f 20/20/20 21/21/21 22/22/22
f 21/21/21 20/20/20 11/11/11
f 22/22/22 23/23/23 20/20/20
f 2/2/2 1/1/1 18/18/18
f 1/1/1 2/2/2 3/3/3
f 5/5/5 3/3/3 2/2/2
f 3/3/3 5/5/5 14/14/14
f 7/7/7 14/14/14 5/5/5
f 14/14/14 7/7/7 17/17/17
f 16/16/16 17/17/17 7/7/7
f 17/17/17 16/16/16 9/9/9
f 10/10/10 9/9/9 16/16/16
f 9/9/9 10/10/10 8/8/8
f 11/11/11 8/8/8 10/10/10
f 18/18/18 19/19/19 2/2/2
f 9/9/9 27/27/27 17/17/17
f 15/15/15 17/17/17 24/24/24
f 17/17/17 15/15/15 14/14/14
f 4/4/4 14/14/14 15/15/15
f 14/14/14 4/4/4 3/3/3
f 1/1/1 3/3/3 4/4/4
