mtllib TROLLHOLE02_RM_PSURF187.mtl
g RM_Psurf187
usemtl Lvl_roast_m_largebolders
v -1077.285889 -259.157440 -21109.726563
vn -0.691463 0.673065 0.262418
vt 1.211687 0.374387
v -926.585083 -177.324203 -21071.861328
vn -0.344678 0.932700 0.106149
vt 1.591476 -0.255876
v -1067.683472 -235.858246 -21275.900391
vn -0.275641 0.928743 -0.247909
vt 0.652480 -0.047863
v -1150.183716 -252.177582 -21314.529297
vn -0.539595 0.689238 -0.483516
vt 0.382624 0.256603
v -1115.247314 -1132.082520 -21074.011719
vn -0.841093 0.253492 0.477811
vt 1.272624 0.635716
v -1067.880371 -974.587830 -21063.056641
vn -0.971115 -0.169556 0.167891
vt 1.388721 0.435472
v -1123.434448 -953.590942 -21177.816406
vn -0.990492 0.131172 0.041479
vt 0.899884 0.439350
v -1207.518433 -1108.151367 -21212.246094
vn -0.864469 0.492604 -0.100174
vt 0.641943 0.760857
v -1184.460693 -362.459198 -21257.759766
vn -0.962196 0.161865 -0.219038
vt 0.522501 0.548141
v -1110.169922 -355.908722 -21356.443359
vn -0.654972 0.176120 -0.734842
vt 0.303623 -0.028528
v -1090.161377 -407.778168 -21377.402344
vn -0.781592 0.010715 -0.623698
vt 0.264120 -0.171104
v -1201.596558 -417.591705 -21229.378906
vn -0.986530 0.156375 0.048018
vt 0.592430 0.693889
v -725.334045 -342.638977 -20549.873047
vn 0.144840 0.183515 0.972288
vt 3.730047 -0.029106
v -790.697388 -366.159546 -20528.722656
vn -0.462153 0.250842 0.850584
vt 3.695353 0.329420
v -787.094421 -413.534790 -20516.839844
vn -0.468685 0.177408 0.865368
vt 3.742422 0.339232
v -689.055237 -378.245056 -20548.568359
vn 0.104939 0.143713 0.984040
vt 3.794449 -0.198531
v -828.083069 -403.991425 -21536.623047
vn 0.084302 0.143951 -0.985987
vt 0.145712 -1.777288
v -799.523010 -379.674042 -21527.330078
vn 0.107324 0.315683 -0.942776
vt 0.225012 -1.891936
v -711.171265 -417.484100 -21499.523438
vn 0.476310 0.187981 -0.858948
vt 0.467078 -2.248732
v -695.558533 -460.713287 -21494.912109
vn 0.495299 0.045155 -0.867548
vt 0.508803 -2.312471
v -344.548401 -364.238403 -20826.605469
vn 0.992312 0.089995 0.084960
vt 3.400921 -2.465685
v -398.005371 -334.092285 -20687.607422
vn 0.733932 0.266048 0.624950
vt 3.793705 -1.896638
v -419.403137 -358.130554 -20650.000000
vn 0.753995 0.045884 0.655275
vt 3.888527 -1.709728
v -339.217041 -403.342102 -20858.498047
vn 0.981781 0.189993 -0.002793
vt 3.299358 -2.563298
v -1167.322144 -307.318390 -21286.144531
vn -0.968710 0.244658 -0.041764
vt 0.452563 0.402372
v -1083.789551 -313.076874 -21079.369141
vn -0.862764 0.313408 0.396753
vt 1.306007 0.474095
v -761.618286 -307.027527 -20551.179688
vn 0.116813 0.155356 0.980928
vt 3.665634 0.140346
v -670.863037 -251.030396 -20560.742188
vn 0.317182 0.279190 0.906338
vt 3.782345 -0.312569
v -717.497253 -187.155884 -20564.123047
vn 0.196054 0.650371 0.733881
vt 3.693673 -0.098638
v -797.902588 -271.416077 -20552.486328
vn -0.566013 0.449061 0.691357
vt 3.601222 0.309797
v -349.880707 -325.128845 -20794.710938
vn 0.992416 0.105684 0.062788
vt 3.502498 -2.368057
v -385.297546 -341.554810 -20937.466797
vn 0.857100 0.436510 -0.273568
vt 2.950018 -2.523315
v -404.936371 -289.073547 -20912.013672
vn 0.646947 0.725931 -0.233417
vt 3.005682 -2.372311
v -355.212982 -286.019287 -20762.814453
vn 0.682406 0.661545 0.310935
vt 3.604075 -2.270429
v -770.958679 -355.353058 -21518.037109
vn 0.034353 0.397586 -0.916922
vt 0.304324 -2.006600
v -958.278687 -306.423187 -21447.794922
vn -0.274772 0.701603 -0.657460
vt 0.238207 -0.957313
v -948.301880 -278.516266 -21418.421875
vn -0.130691 0.826089 -0.548177
vt 0.356321 -0.938149
v -742.394348 -331.032074 -21508.742188
vn 0.329901 0.547052 -0.769350
vt 0.383636 -2.121265
v -1108.148926 -607.003723 -21368.218750
vn -0.671026 -0.111500 -0.733002
vt 0.266212 -0.064817
v -1194.501465 -580.099365 -21267.148438
vn -0.943589 -0.072411 -0.323103
vt 0.473434 0.574571
v -897.952698 -789.855469 -20540.878906
vn -0.892588 -0.019109 0.450468
vt 3.476245 0.811512
v -1009.943970 -781.521729 -20698.542969
vn -0.848740 0.057106 0.525718
vt 2.745779 0.986324
v -964.078918 -989.755798 -20792.619141
vn -0.869595 -0.093156 0.484898
vt 2.495931 0.555171
v -923.046814 -966.309692 -20587.132813
vn -0.980333 -0.011198 0.197034
vt 3.274761 0.825921
v -889.175659 -405.699158 -20642.773438
vn -0.835882 0.179167 0.518845
vt 3.138118 0.538868
v -918.112122 -595.821533 -20683.970703
vn -0.818303 0.191847 0.541825
vt 2.947792 0.582997
v -834.109680 -603.837280 -20536.712891
vn -0.816291 0.259168 0.516238
vt 3.596048 0.517594
v -1068.948242 -778.666443 -21340.246094
vn -0.709197 -0.201394 -0.675633
vt 0.427715 -0.187691
v -1175.995605 -775.043701 -21240.576172
vn -0.947378 -0.237968 -0.214116
vt 0.595936 0.546862
v -1120.323120 -1108.806152 -21277.558594
vn -0.635161 0.152653 -0.757144
vt 0.559853 0.198506
v -1090.566650 -955.709900 -21295.238281
vn -0.806714 -0.087580 -0.584417
vt 0.547784 0.017040
v -536.671631 -324.355835 -20628.677734
vn 0.504072 0.461092 0.730278
vt 3.768748 -1.104178
v -523.582458 -582.281494 -20587.859375
vn 0.678914 0.008878 0.734164
vt 3.931607 -1.073863
v -468.427307 -571.725708 -20695.376953
vn 0.863622 -0.286365 0.414912
vt 3.650573 -1.579626
v -498.453217 -451.637299 -21384.142578
vn 0.742434 0.197184 -0.640242
vt 1.217478 -2.998002
v -526.057129 -600.098938 -21310.390625
vn 0.830950 -0.252683 -0.495655
vt 1.427140 -2.699681
v -624.969604 -599.553101 -21439.632813
vn 0.524643 -0.004480 -0.851311
vt 0.816617 -2.522600
v -811.752563 -616.178223 -21555.230469
vn 0.061249 0.091874 -0.993885
vt 0.108273 -1.897060
v -1048.488525 -386.786285 -21467.798828
vn -0.727787 0.262487 -0.633582
vt 0.020077 -0.574002
v -992.497009 -579.739990 -21441.703125
vn -0.607237 -0.142813 -0.781580
vt 0.202805 -0.780912
v -978.625122 -775.629822 -21437.388672
vn -0.526307 -0.175882 -0.831905
vt 0.240638 -0.837046
v -958.478210 -240.211960 -20859.843750
vn -0.717002 0.585495 0.378290
vt 2.272534 0.376194
v -855.878052 -189.330917 -20858.523438
vn -0.345605 0.924635 0.160022
vt 2.446459 -0.108337
v -767.536255 -179.515625 -20700.710938
vn -0.313537 0.917864 0.243353
vt 3.138402 -0.170437
v -839.401001 -235.592834 -20693.513672
vn -0.708635 0.576705 0.406507
vt 3.044688 0.187355
v -1096.796021 -420.907623 -21018.658203
vn -0.856118 0.227518 0.464002
vt 1.494635 0.673496
v -966.576111 -407.399963 -20824.888672
vn -0.848282 0.214521 0.484147
vt 2.380132 0.493896
v -963.877075 -351.676208 -20836.539063
vn -0.846654 0.219668 0.484689
vt 2.344270 0.454666
v -1090.293335 -366.996307 -21049.011719
vn -0.841143 0.326964 0.430781
vt 1.400328 0.573803
v -872.585754 -349.002747 -20659.685547
vn -0.840353 0.284016 0.461672
vt 3.106978 0.421709
v -346.022797 -446.509583 -20988.367188
vn 0.937846 0.045664 -0.344035
vt 2.838699 -2.825302
v -422.487579 -410.656097 -21159.783203
vn 0.922356 0.093705 -0.374806
vt 2.119284 -2.850470
v -444.283844 -360.272430 -21139.160156
vn 0.770906 0.525100 -0.360519
vt 2.154672 -2.700161
v -365.658722 -394.036133 -20962.917969
vn 0.869968 0.425512 -0.249190
vt 2.894355 -2.674320
v -533.941040 -404.623932 -21353.121094
vn 0.585066 0.597340 -0.548528
vt 1.266252 -2.759067
v -1045.961792 -1126.948853 -20925.929688
vn -0.962043 -0.163023 0.218853
vt 1.899435 0.642109
v -1113.869995 -948.641357 -20911.277344
vn -0.915132 -0.198244 0.351045
vt 1.838056 0.998002
v -904.987915 -1137.353760 -20595.667969
vn -0.963463 -0.030678 0.266077
vt 3.275032 0.720766
v -964.447876 -1136.497070 -20770.085938
vn -0.838824 -0.062769 0.540772
vt 2.573298 0.607993
v -1052.663208 -578.716064 -20857.085938
vn -0.842915 0.225821 0.488364
vt 2.126615 0.829984
v -1161.824219 -602.311157 -21118.773438
vn -0.949415 0.050469 0.309942
vt 1.040843 0.755587
v -422.487579 -410.656097 -21159.783203
vn 0.922356 0.093705 -0.374806
vt 2.119284 -2.850470
v -437.436066 -556.230835 -20996.765625
vn 0.803200 -0.504003 -0.317571
vt 2.658746 -2.409968
v -1109.402100 -766.793091 -20906.384766
vn -0.904926 -0.001564 0.425566
vt 1.862361 0.987860
v -1161.593872 -793.135437 -21113.152344
vn -0.978416 -0.171656 0.115047
vt 1.060674 0.767231
v -422.487579 -410.656097 -21159.783203
vn 0.922356 0.093705 -0.374806
vt 2.119284 -2.850470
v -498.453217 -451.637299 -21384.142578
vn 0.742434 0.197184 -0.640242
vt 1.217478 -2.998002
v -533.941040 -404.623932 -21353.121094
vn 0.585066 0.597340 -0.548528
vt 1.266252 -2.759067
v -444.283844 -360.272430 -21139.160156
vn 0.770906 0.525100 -0.360519
vt 2.154672 -2.700161
v -386.884918 -563.728516 -20852.556641
vn 0.745587 -0.598790 -0.292490
vt 3.241237 -2.323329
v -437.436066 -556.230835 -20996.765625
vn 0.803200 -0.504003 -0.317571
vt 2.658746 -2.409968
v -559.519775 -286.028442 -20646.246094
vn 0.443314 0.601964 0.664163
vt 3.670240 -1.035426
v -624.228882 -314.904846 -20557.363281
vn 0.385770 0.377764 0.841710
vt 3.871017 -0.526500
v -577.601746 -378.769714 -20553.982422
vn 0.557015 0.190982 0.808245
vt 3.959676 -0.740399
v -605.222900 -209.362305 -20681.384766
vn 0.362107 0.851087 0.380171
vt 3.473197 -0.897902
v -683.676270 -150.948608 -20799.943359
vn 0.128983 0.990783 0.041380
vt 2.933417 -0.793822
v -883.067566 -163.710800 -21157.541016
vn 0.030698 0.975024 -0.219968
vt 1.366805 -0.656847
v -604.927307 -310.583099 -21291.070313
vn 0.487685 0.739934 -0.463315
vt 1.363814 -2.281126
v -1054.886230 -336.482025 -21403.839844
vn -0.633251 0.521653 -0.571726
vt 0.230857 -0.398640
v -968.255493 -334.330109 -21477.167969
vn -0.269820 0.694943 -0.666522
vt 0.120094 -0.976477
v -978.230835 -362.232819 -21506.535156
vn -0.395311 0.221893 -0.891343
vt 0.001998 -0.995638
v -1018.940125 -959.406555 -21329.066406
vn -0.428896 -0.020315 -0.903126
vt 0.548951 -0.399975
v -1001.778992 -1121.083618 -21333.759766
vn -0.429953 -0.019431 -0.902642
vt 0.561034 -0.492158
v -593.366211 -573.336304 -20535.388672
vn 0.602989 0.027338 0.797281
vt 3.998002 -0.623348
v -904.070496 -585.359009 -21512.406250
vn -0.422020 -0.111048 -0.899760
vt 0.104093 -1.361331
v -882.907288 -798.467102 -21449.197266
vn -0.186280 -0.296337 -0.936741
vt 0.357763 -1.318635
v -776.598267 -169.455917 -20956.976563
vn 0.070133 0.997060 -0.030878
vt 2.236614 -0.708189
v -487.882721 -259.490021 -21097.910156
vn 0.571990 0.766565 -0.291900
vt 2.225458 -2.399499
v -604.927307 -310.583099 -21291.070313
vn 0.487685 0.739934 -0.463315
vt 1.363814 -2.281126
v -883.067566 -163.710800 -21157.541016
vn 0.030698 0.975024 -0.219968
vt 1.366805 -0.656847
v -883.067566 -163.710800 -21157.541016
vn 0.030698 0.975024 -0.219968
vt 1.366805 -0.656847
v -776.598267 -169.455917 -20956.976563
vn 0.070133 0.997060 -0.030878
vt 2.236614 -0.708189
v -487.882721 -259.490021 -21097.910156
vn 0.571990 0.766565 -0.291900
vt 2.225458 -2.399499
v -487.882721 -259.490021 -21097.910156
vn 0.571990 0.766565 -0.291900
vt 2.225458 -2.399499
v -1130.178345 -304.039276 -21335.484375
vn -0.584689 0.099773 -0.805099
vt 0.343126 0.114048
v -1061.284912 -286.170135 -21339.869141
vn -0.326380 0.620362 -0.713181
vt 0.441668 -0.223252
v -794.300232 -318.784241 -20540.605469
vn -0.400091 0.257212 0.879641
vt 3.648284 0.319608
v -855.993408 -292.297791 -20676.599609
vn -0.852505 0.279069 0.441991
vt 3.075833 0.304532
v -726.783997 -374.254852 -21504.132813
vn 0.533252 0.209697 -0.819554
vt 0.425354 -2.184994
v -569.434143 -357.603485 -21322.095703
vn 0.602362 0.603836 -0.522055
vt 1.315033 -2.520096
v -376.607605 -310.053955 -20725.212891
vn 0.680661 0.349116 0.644064
vt 3.698883 -2.083547
v -582.371277 -247.695374 -20663.814453
vn 0.528446 0.577177 0.622585
vt 3.571719 -0.966664
v -961.177673 -295.944092 -20848.191406
vn -0.841916 0.218785 0.493265
vt 2.308402 0.415430
v -466.083282 -309.881195 -21118.535156
vn 0.750642 0.530297 -0.394109
vt 2.190065 -2.549830
v -466.083282 -309.881195 -21118.535156
vn 0.750642 0.530297 -0.394109
vt 2.190065 -2.549830
v -444.283844 -360.272430 -21139.160156
vn 0.770906 0.525100 -0.360519
vt 2.154672 -2.700161
v -487.882721 -259.490021 -21097.910156
vn 0.571990 0.766565 -0.291900
vt 2.225458 -2.399499
f 108/108/108 109/109/109 110/110/110
f 50/50/50 8/8/8 7/7/7
f 5/5/5 7/7/7 8/8/8
f 7/7/7 5/5/5 6/6/6
f 76/76/76 6/6/6 5/5/5
f 6/6/6 76/76/76 77/77/77
f 79/79/79 77/77/77 76/76/76
f 77/77/77 79/79/79 43/43/43
f 78/78/78 43/43/43 79/79/79
f 43/43/43 78/78/78 44/44/44
f 43/43/43 44/44/44 41/41/41
f 50/50/50 102/102/102 103/103/103
f 102/102/102 50/50/50 51/51/51
f 7/7/7 51/51/51 50/50/50
f 51/51/51 7/7/7 49/49/49
f 6/6/6 49/49/49 7/7/7
f 49/49/49 6/6/6 85/85/85
f 77/77/77 85/85/85 6/6/6
f 85/85/85 77/77/77 84/84/84
f 43/43/43 84/84/84 77/77/77
f 84/84/84 43/43/43 42/42/42
f 41/41/41 42/42/42 43/43/43
f 42/42/42 41/41/41 47/47/47
f 49/49/49 48/48/48 51/51/51
f 48/48/48 49/49/49 40/40/40
f 85/85/85 40/40/40 49/49/49
f 40/40/40 85/85/85 81/81/81
f 84/84/84 81/81/81 85/85/85
f 81/81/81 84/84/84 80/80/80
f 42/42/42 80/80/80 84/84/84
f 80/80/80 42/42/42 46/46/46
f 47/47/47 46/46/46 42/42/42
f 46/46/46 47/47/47 15/15/15
f 61/61/61 48/48/48 39/39/39
f 40/40/40 39/39/39 48/48/48
f 61/61/61 105/105/105 106/106/106
f 105/105/105 61/61/61 60/60/60
f 39/39/39 60/60/60 61/61/61
f 60/60/60 39/39/39 11/11/11
f 40/40/40 11/11/11 39/39/39
f 11/11/11 40/40/40 12/12/12
f 81/81/81 12/12/12 40/40/40
f 12/12/12 81/81/81 66/66/66
f 80/80/80 66/66/66 81/81/81
f 66/66/66 80/80/80 67/67/67
f 46/46/46 67/67/67 80/80/80
f 67/67/67 46/46/46 45/45/45
f 15/15/15 45/45/45 46/46/46
f 45/45/45 15/15/15 14/14/14
f 13/13/13 14/14/14 15/15/15
f 14/14/14 13/13/13 117/117/117
f 27/27/27 117/117/117 13/13/13
f 117/117/117 27/27/27 30/30/30
f 93/93/93 13/13/13 16/16/16
f 15/15/15 16/16/16 13/13/13
f 105/105/105 17/17/17 58/58/58
f 17/17/17 105/105/105 101/101/101
f 60/60/60 101/101/101 105/105/105
f 27/27/27 13/13/13 28/28/28
f 93/93/93 28/28/28 13/13/13
f 28/28/28 93/93/93 122/122/122
f 92/92/92 122/122/122 93/93/93
f 122/122/122 92/92/92 121/121/121
f 122/122/122 121/121/121 34/34/34
f 34/34/34 95/95/95 122/122/122
f 29/29/29 122/122/122 95/95/95
f 122/122/122 29/29/29 28/28/28
f 27/27/27 28/28/28 29/29/29
f 121/121/121 31/31/31 34/34/34
f 31/31/31 121/121/121 22/22/22
f 92/92/92 22/22/22 121/121/121
f 22/22/22 92/92/92 52/52/52
f 93/93/93 52/52/52 92/92/92
f 52/52/52 93/93/93 94/94/94
f 16/16/16 94/94/94 93/93/93
f 22/22/22 21/21/21 31/31/31
f 21/21/21 22/22/22 23/23/23
f 52/52/52 23/23/23 22/22/22
f 23/23/23 52/52/52 53/53/53
f 94/94/94 53/53/53 52/52/52
f 53/53/53 94/94/94 104/104/104
f 23/23/23 24/24/24 21/21/21
f 53/53/53 54/54/54 23/23/23
f 29/29/29 30/30/30 27/27/27
f 30/30/30 29/29/29 64/64/64
f 95/95/95 64/64/64 29/29/29
f 64/64/64 95/95/95 96/96/96
f 34/34/34 96/96/96 95/95/95
f 96/96/96 34/34/34 33/33/33
f 31/31/31 33/33/33 34/34/34
f 33/33/33 31/31/31 32/32/32
f 21/21/21 32/32/32 31/31/31
f 32/32/32 21/21/21 74/74/74
f 24/24/24 74/74/74 21/21/21
f 74/74/74 24/24/24 71/71/71
f 33/33/33 107/107/107 96/96/96
f 107/107/107 33/33/33 114/114/114
f 32/32/32 114/114/114 33/33/33
f 114/114/114 32/32/32 124/124/124
f 74/74/74 124/124/124 32/32/32
f 124/124/124 74/74/74 73/73/73
f 71/71/71 73/73/73 74/74/74
f 73/73/73 71/71/71 72/72/72
f 91/91/91 71/71/71 90/90/90
f 71/71/71 91/91/91 72/72/72
f 2/2/2 97/97/97 3/3/3
f 97/97/97 2/2/2 107/107/107
f 63/63/63 107/107/107 2/2/2
f 107/107/107 63/63/63 96/96/96
f 64/64/64 96/96/96 63/63/63
f 30/30/30 64/64/64 65/65/65
f 63/63/63 65/65/65 64/64/64
f 65/65/65 63/63/63 62/62/62
f 2/2/2 62/62/62 63/63/63
f 62/62/62 2/2/2 1/1/1
f 3/3/3 1/1/1 2/2/2
f 1/1/1 3/3/3 4/4/4
f 4/4/4 25/25/25 1/1/1
f 26/26/26 1/1/1 25/25/25
f 1/1/1 26/26/26 62/62/62
f 123/123/123 62/62/62 26/26/26
f 62/62/62 123/123/123 65/65/65
f 118/118/118 65/65/65 123/123/123
f 65/65/65 118/118/118 30/30/30
f 117/117/117 30/30/30 118/118/118
f 37/37/37 97/97/97 98/98/98
f 97/97/97 37/37/37 3/3/3
f 116/116/116 3/3/3 37/37/37
f 3/3/3 116/116/116 4/4/4
f 115/115/115 4/4/4 116/116/116
f 4/4/4 115/115/115 25/25/25
f 9/9/9 25/25/25 115/115/115
f 25/25/25 9/9/9 26/26/26
f 69/69/69 26/26/26 9/9/9
f 26/26/26 69/69/69 123/123/123
f 68/68/68 123/123/123 69/69/69
f 123/123/123 68/68/68 118/118/118
f 70/70/70 118/118/118 68/68/68
f 118/118/118 70/70/70 117/117/117
f 14/14/14 117/117/117 70/70/70
f 10/10/10 115/115/115 116/116/116
f 115/115/115 10/10/10 9/9/9
f 98/98/98 38/38/38 37/37/37
f 70/70/70 45/45/45 14/14/14
f 45/45/45 70/70/70 67/67/67
f 68/68/68 67/67/67 70/70/70
f 67/67/67 68/68/68 66/66/66
f 69/69/69 66/66/66 68/68/68
f 66/66/66 69/69/69 12/12/12
f 9/9/9 12/12/12 69/69/69
f 12/12/12 9/9/9 11/11/11
f 10/10/10 11/11/11 9/9/9
f 11/11/11 10/10/10 99/99/99
f 116/116/116 99/99/99 10/10/10
f 99/99/99 116/116/116 36/36/36
f 37/37/37 36/36/36 116/116/116
f 36/36/36 37/37/37 35/35/35
f 38/38/38 35/35/35 37/37/37
f 35/35/35 38/38/38 119/119/119
f 98/98/98 119/119/119 38/38/38
f 119/119/119 98/98/98 120/120/120
f 18/18/18 35/35/35 119/119/119
f 35/35/35 18/18/18 36/36/36
f 100/100/100 36/36/36 18/18/18
f 36/36/36 100/100/100 99/99/99
f 59/59/59 99/99/99 100/100/100
f 99/99/99 59/59/59 11/11/11
f 59/59/59 60/60/60 11/11/11
f 60/60/60 59/59/59 101/101/101
f 100/100/100 101/101/101 59/59/59
f 101/101/101 100/100/100 17/17/17
f 18/18/18 17/17/17 100/100/100
f 17/17/17 18/18/18 19/19/19
f 119/119/119 19/19/19 18/18/18
f 19/19/19 119/119/119 120/120/120
f 125/125/125 120/120/120 98/98/98
f 120/120/120 125/125/125 126/126/126
f 98/98/98 127/127/127 125/125/125
f 17/17/17 57/57/57 58/58/58
f 57/57/57 17/17/17 20/20/20
f 19/19/19 20/20/20 17/17/17
f 20/20/20 19/19/19 75/75/75
f 120/120/120 75/75/75 19/19/19
f 75/75/75 120/120/120 126/126/126
f 56/56/56 57/57/57 20/20/20
f 56/56/56 82/82/82 83/83/83
f 82/82/82 56/56/56 55/55/55
f 20/20/20 55/55/55 56/56/56
f 55/55/55 20/20/20 75/75/75
f 88/88/88 86/86/86 87/87/87
f 86/86/86 88/88/88 89/89/89
f 111/111/111 112/112/112 113/113/113
