mtllib TROLLHOLE02_PS-UPPERSTALAG24.mtl
g s-UpperStalag24
usemtl Stalag
v -6747.681641 1150.949341 -10198.190430
vn -0.750923 -0.110250 -0.651122
vt 0.734203 0.081433
v -6739.679688 1149.374512 -10201.727539
vn -0.180572 -0.097107 -0.978756
vt 0.863277 0.081433
v -6738.833984 1118.146973 -10198.271484
vn -0.239742 -0.278337 -0.930082
vt 0.860008 0.054455
v -6742.928711 1118.004639 -10196.196289
vn -0.647752 -0.408073 -0.643346
vt 0.793836 0.040966
v -6730.771484 1146.279053 -10200.828125
vn 0.453793 -0.108127 -0.884523
vt 0.992351 0.081433
v -6734.194824 1114.219360 -10197.259766
vn 0.223179 -0.529092 -0.818689
vt 0.922910 0.040966
v -6738.111328 1112.154297 -10194.152344
vn -0.266631 -0.959455 -0.091401
vt 0.853470 0.000499
v -6738.111328 1112.154297 -10194.152344
vn -0.266631 -0.959455 -0.091401
vt 0.301524 0.000499
v -6741.996582 1116.029663 -10191.070313
vn -0.519230 -0.511674 0.684537
vt 0.404120 0.047710
v -6745.074707 1119.595337 -10193.320313
vn -0.925470 -0.377116 0.035901
vt 0.502964 0.054455
v -6742.928711 1118.004639 -10196.196289
vn -0.647752 -0.408073 -0.643346
vt 0.517768 0.040966
v -6745.128418 1147.796631 -10185.884766
vn -0.500019 -0.156071 0.851835
vt 0.462342 0.166770
v -6749.511719 1150.446533 -10191.558594
vn -0.978927 -0.120708 0.164717
vt 0.581642 0.168456
v -6730.771484 1146.279053 -10200.828125
vn 0.453793 -0.108127 -0.884523
vt 0.001370 0.081433
v -6726.393555 1145.840698 -10195.192383
vn 0.973908 -0.116283 -0.194890
vt 0.137483 0.168456
v -6731.101074 1114.906372 -10195.022461
vn 0.829670 -0.530374 -0.174215
vt 0.181309 0.054455
v -6734.194824 1114.219360 -10197.259766
vn 0.223179 -0.529092 -0.818689
vt 0.151447 0.040966
v -6728.235840 1145.850952 -10188.591797
vn 0.736611 -0.151893 0.659039
vt 0.248713 0.166770
v -6733.262695 1113.953979 -10192.133789
vn 0.458037 -0.601555 0.654472
vt 0.265625 0.047710
v -6736.225098 1146.912598 -10185.023438
vn 0.142809 -0.154256 0.977656
vt 0.355729 0.168456
v -6737.341797 1116.354492 -10190.070313
vn 0.053000 -0.362889 0.930324
vt 0.338637 0.054455
v -6793.982422 1348.999390 -10226.461914
vn -0.004093 -0.977078 -0.212840
vt 0.755013 0.999501
v -6751.430176 1356.013428 -10247.114258
vn 0.098753 -0.952598 -0.287759
vt 0.874602 0.999501
v -6747.968262 1344.690674 -10227.728516
vn -0.095663 -0.651826 -0.752311
vt 0.873766 0.915537
v -6773.343750 1339.680908 -10209.485352
vn -0.567906 -0.724640 -0.390358
vt 0.752355 0.915537
v -6705.197266 1365.163940 -10250.984375
vn 0.279656 -0.924085 -0.260498
vt 0.994191 0.999501
v -6716.632813 1349.326538 -10225.305664
vn 0.453516 -0.633239 -0.627162
vt 0.994403 0.915537
v -6722.167969 1311.265869 -10214.594727
vn 0.517434 -0.209144 -0.829772
vt 0.994615 0.831573
v -6744.324707 1309.190186 -10216.688477
vn -0.214313 -0.212544 -0.953360
vt 0.872929 0.831573
v -6762.816406 1306.520142 -10204.525391
vn -0.831552 -0.222349 -0.509001
vt 0.749211 0.758796
v -6763.990234 1304.128418 -10180.971680
vn -0.947941 -0.220552 0.229707
vt 0.625801 0.758796
v -6773.545410 1336.312378 -10174.358398
vn -0.633906 -0.765573 0.109824
vt 0.629399 0.915537
v -6751.666992 1303.673218 -10161.020508
vn -0.473456 -0.294513 0.830122
vt 0.502244 0.758796
v -6754.998047 1336.758911 -10145.250977
vn -0.172439 -0.839507 0.515259
vt 0.505510 0.915537
v -6770.114746 1338.290283 -10123.227539
vn 0.175553 -0.982249 -0.066090
vt 0.505013 0.999501
v -6794.604492 1339.613403 -10166.109375
vn 0.060873 -0.991815 -0.112236
vt 0.630013 0.999501
v -6705.197266 1365.163940 -10250.984375
vn 0.279656 -0.924085 -0.260498
vt 0.003209 0.999501
v -6680.334473 1366.294067 -10201.601563
vn 0.384286 -0.917365 -0.103760
vt 0.129111 0.999501
v -6698.548828 1351.573120 -10198.434570
vn 0.794596 -0.569348 -0.210858
vt 0.130176 0.915537
v -6716.632813 1349.326538 -10225.305664
vn 0.453516 -0.633239 -0.627162
vt 0.003422 0.915537
v -6684.038086 1362.631592 -10153.612305
vn 0.417227 -0.908736 0.010949
vt 0.255013 0.999501
v -6699.213867 1350.004395 -10165.544922
vn 0.749003 -0.607924 0.263481
vt 0.256334 0.915537
v -6711.332520 1310.547363 -10172.558594
vn 0.857287 -0.250489 0.449793
vt 0.255273 0.758796
v -6710.001953 1311.874878 -10195.377930
vn 0.948173 -0.198037 -0.248496
vt 0.129719 0.758796
v -6722.167969 1311.265869 -10214.594727
vn 0.517434 -0.209144 -0.829772
vt 0.003634 0.831573
v -6723.612305 1349.630005 -10123.274414
vn 0.265516 -0.964082 -0.006795
vt 0.380013 0.999501
v -6724.125977 1343.194702 -10145.065430
vn 0.374549 -0.711451 0.594601
vt 0.381300 0.915537
v -6729.667480 1306.813110 -10159.661133
vn 0.300690 -0.289371 0.908763
vt 0.379092 0.758796
v -6754.286621 1228.698730 -10200.863281
vn -0.823115 -0.102800 -0.558492
vt 0.742386 0.456503
v -6755.897461 1227.065430 -10187.073242
vn -0.971773 -0.111501 0.207906
vt 0.616235 0.456503
v -6748.364258 1225.515015 -10175.216797
vn -0.518010 -0.155774 0.841071
vt 0.491452 0.456503
v -6733.684082 1225.892212 -10173.933594
vn 0.218089 -0.157819 0.963084
vt 0.369891 0.456503
v -6720.965820 1226.938843 -10181.154297
vn 0.828643 -0.137642 0.542592
vt 0.248998 0.456503
v -6719.321777 1227.396973 -10194.803711
vn 0.969200 -0.101481 -0.224396
vt 0.126221 0.456503
v -6726.821777 1227.772217 -10206.521484
vn 0.516206 -0.097740 -0.850869
vt 0.002502 0.456503
v -6741.536133 1228.570313 -10207.943359
vn -0.204108 -0.092854 -0.974535
vt 0.868056 0.456503
v -6726.821777 1227.772217 -10206.521484
vn 0.516206 -0.097740 -0.850869
vt 0.993483 0.456503
f 39/39/39 38/38/38 41/41/41
f 38/38/38 39/39/39 37/37/37
f 40/40/40 37/37/37 39/39/39
f 39/39/39 45/45/45 40/40/40
f 45/45/45 39/39/39 44/44/44
f 44/44/44 54/54/54 45/45/45
f 54/54/54 44/44/44 43/43/43
f 39/39/39 43/43/43 44/44/44
f 43/43/43 39/39/39 42/42/42
f 41/41/41 42/42/42 39/39/39
f 42/42/42 41/41/41 47/47/47
f 46/46/46 47/47/47 41/41/41
f 47/47/47 46/46/46 35/35/35
f 47/47/47 43/43/43 42/42/42
f 43/43/43 47/47/47 48/48/48
f 54/54/54 18/18/18 15/15/15
f 18/18/18 54/54/54 53/53/53
f 43/43/43 53/53/53 54/54/54
f 53/53/53 43/43/43 52/52/52
f 48/48/48 52/52/52 43/43/43
f 52/52/52 48/48/48 33/33/33
f 47/47/47 33/33/33 48/48/48
f 33/33/33 47/47/47 34/34/34
f 35/35/35 34/34/34 47/47/47
f 34/34/34 35/35/35 32/32/32
f 36/36/36 32/32/32 35/35/35
f 32/32/32 36/36/36 22/22/22
f 52/52/52 18/18/18 53/53/53
f 18/18/18 52/52/52 20/20/20
f 32/32/32 33/33/33 34/34/34
f 33/33/33 32/32/32 31/31/31
f 20/20/20 21/21/21 18/18/18
f 21/21/21 20/20/20 12/12/12
f 52/52/52 12/12/12 20/20/20
f 12/12/12 52/52/52 51/51/51
f 33/33/33 51/51/51 52/52/52
f 51/51/51 33/33/33 50/50/50
f 31/31/31 50/50/50 33/33/33
f 50/50/50 31/31/31 30/30/30
f 32/32/32 30/30/30 31/31/31
f 30/30/30 32/32/32 25/25/25
f 22/22/22 25/25/25 32/32/32
f 25/25/25 22/22/22 24/24/24
f 23/23/23 24/24/24 22/22/22
f 24/24/24 23/23/23 26/26/26
f 12/12/12 51/51/51 50/50/50
f 30/30/30 25/25/25 24/24/24
f 12/12/12 9/9/9 21/21/21
f 26/26/26 27/27/27 24/24/24
f 30/30/30 49/49/49 50/50/50
f 24/24/24 29/29/29 30/30/30
f 29/29/29 24/24/24 28/28/28
f 27/27/27 28/28/28 24/24/24
f 56/56/56 28/28/28 57/57/57
f 28/28/28 56/56/56 29/29/29
f 54/54/54 55/55/55 45/45/45
f 55/55/55 54/54/54 14/14/14
f 15/15/15 14/14/14 54/54/54
f 14/14/14 15/15/15 16/16/16
f 18/18/18 16/16/16 15/15/15
f 16/16/16 18/18/18 19/19/19
f 21/21/21 19/19/19 18/18/18
f 19/19/19 21/21/21 8/8/8
f 9/9/9 8/8/8 21/21/21
f 8/8/8 9/9/9 10/10/10
f 12/12/12 10/10/10 9/9/9
f 10/10/10 12/12/12 13/13/13
f 50/50/50 13/13/13 12/12/12
f 13/13/13 50/50/50 1/1/1
f 49/49/49 1/1/1 50/50/50
f 1/1/1 49/49/49 56/56/56
f 30/30/30 56/56/56 49/49/49
f 56/56/56 30/30/30 29/29/29
f 13/13/13 1/1/1 10/10/10
f 11/11/11 10/10/10 1/1/1
f 10/10/10 11/11/11 8/8/8
f 19/19/19 8/8/8 16/16/16
f 17/17/17 16/16/16 8/8/8
f 16/16/16 17/17/17 14/14/14
f 7/7/7 4/4/4 3/3/3
f 1/1/1 3/3/3 4/4/4
f 3/3/3 1/1/1 2/2/2
f 56/56/56 2/2/2 1/1/1
f 2/2/2 56/56/56 5/5/5
f 57/57/57 5/5/5 56/56/56
f 2/2/2 5/5/5 3/3/3
f 6/6/6 3/3/3 5/5/5
f 3/3/3 6/6/6 7/7/7
