mtllib TROLLHOLE02_BOX329.mtl
g Box329
usemtl Lvl_roast_m_largebolders
v -7649.433105 -913.246094 -14366.574219
vn -0.320933 0.673065 0.666322
vt 1.211687 0.374387
v -7514.053223 -831.412842 -14442.842773
vn -0.176952 0.932700 0.314258
vt 1.591476 -0.255876
v -7756.854004 -889.946838 -14493.722656
vn -0.370592 0.928743 0.009911
vt 0.652480 -0.047863
v -7843.287598 -906.266235 -14464.953125
vn -0.724239 0.689238 0.020702
vt 0.382624 0.256603
v -7034.776855 -1870.696533 -14276.293945
vn 0.950242 -0.194061 0.243682
vt 3.535852 -0.341534
v -7000.067383 -1629.048706 -14256.357422
vn 0.953202 -0.128252 0.273784
vt 3.687486 -0.309030
v -6999.495605 -1628.938843 -14161.400391
vn 0.852503 -0.152546 0.499968
vt 3.820005 0.156592
v -7083.104004 -1888.166626 -14130.791992
vn 0.524184 -0.142513 0.839596
vt 3.562790 0.464768
v -7171.946289 -1783.110229 -14629.221680
vn 0.350979 -0.025149 -0.936046
vt 2.559936 -1.817339
v -7102.818848 -1619.635620 -14690.457031
vn 0.331574 -0.247329 -0.910432
vt 2.723233 -2.248724
v -7000.133789 -1632.546509 -14597.107422
vn 0.643092 -0.298584 -0.705181
vt 3.219052 -1.983650
v -6999.555176 -1790.166504 -14553.875977
vn 0.590858 0.024503 -0.806404
vt 3.280525 -1.772264
v -7009.097168 -1868.676147 -14578.883789
vn 0.591028 0.178727 -0.786602
vt 3.212008 -1.877173
v -6934.118164 -1876.386719 -14490.716797
vn 0.979029 -0.087117 -0.184157
vt 3.601532 -1.585303
v -7829.074219 -1016.547852 -14400.179688
vn -0.848729 0.161865 0.503447
vt 0.522501 0.548141
v -7843.114746 -1009.997314 -14522.900391
vn -0.980932 0.176120 -0.082183
vt 0.303623 -0.028528
v -7843.028320 -1061.866821 -14551.876953
vn -0.996272 0.010715 0.085597
vt 0.264120 -0.171104
v -7821.968262 -1071.680298 -14367.797852
vn -0.682551 0.156375 0.713913
vt 0.592430 0.693889
v -7008.758789 -996.727600 -14202.739258
vn 0.774341 0.183515 0.605572
vt 3.730047 -0.029106
v -7041.612305 -1020.248169 -14142.403320
vn 0.250269 0.250842 0.935117
vt 3.695353 0.329420
v -7030.819336 -1067.623413 -14136.263672
vn 0.404535 0.115481 0.907202
vt 3.742422 0.339232
v -6981.544434 -1032.333618 -14226.764648
vn 0.758724 0.060413 0.648605
vt 3.794449 -0.198531
v -6923.036621 -1018.326965 -14665.588867
vn 0.778281 0.089995 -0.621434
vt 3.400921 -2.465685
v -6866.131836 -988.180847 -14527.964844
vn 0.962563 0.266048 -0.051882
vt 3.793705 -1.896638
v -6855.766602 -1012.219116 -14485.957031
vn 0.995203 -0.017314 -0.096284
vt 3.888527 -1.709728
v -6941.121582 -1057.430664 -14692.391602
vn 0.827202 0.003201 -0.561895
vt 3.299358 -2.563298
v -7506.814941 -1780.067993 -14685.019531
vn 0.038745 0.007162 -0.999223
vt 1.284630 -1.459801
v -7416.990234 -1793.672119 -14695.650391
vn 0.159066 -0.087187 -0.983411
vt 1.591545 -1.681515
v -7393.525879 -1871.204712 -14714.180664
vn 0.136751 0.387465 -0.911685
vt 1.650072 -1.816861
v -7505.787598 -1867.482300 -14733.671875
vn 0.165423 0.481101 -0.860917
vt 1.221460 -1.700857
v -7836.181152 -961.407043 -14432.566406
vn -0.731426 0.244658 0.636521
vt 0.452563 0.402372
v -7633.253906 -967.165527 -14340.077148
vn -0.352721 0.313408 0.881682
vt 1.306008 0.474095
v -7035.978027 -961.116150 -14178.709961
vn 0.759959 0.155356 0.631131
vt 3.665635 0.140346
v -6976.728516 -905.119019 -14248.118164
vn 0.853957 0.279190 0.439102
vt 3.782345 -0.312569
v -7012.882813 -841.244507 -14218.468750
vn 0.647382 0.650371 0.397384
vt 3.693673 -0.098638
v -7063.196777 -925.504700 -14154.681641
vn 0.065327 0.449061 0.891110
vt 3.601222 0.309797
v -6904.948730 -979.217407 -14638.782227
vn 0.763093 0.105684 -0.637589
vt 3.502498 -2.368057
v -7028.905762 -995.643372 -14717.954102
vn 0.433406 0.436510 -0.788428
vt 2.950018 -2.523315
v -7025.631348 -943.162109 -14685.973633
vn 0.308605 0.725931 -0.614644
vt 3.005682 -2.372311
v -6886.860840 -940.107849 -14611.974609
vn 0.709034 0.661545 -0.244193
vt 3.604075 -2.270429
v -7177.822266 -1620.398315 -14093.668945
vn -0.009179 -0.094759 0.995458
vt 3.274761 0.825921
v -7170.598145 -1791.442383 -14112.291992
vn -0.326277 -0.057738 0.943509
vt 3.275032 0.720766
v -7849.753906 -1261.092407 -14532.833008
vn -0.996635 -0.075733 -0.031351
vt 0.266212 -0.064817
v -7842.820801 -1234.187988 -14400.079102
vn -0.906865 -0.072411 0.415153
vt 0.473434 0.574571
v -6891.198242 -1603.570801 -14459.095703
vn 0.967526 -0.100944 -0.231741
vt 3.798610 -1.510861
v -7127.780762 -1443.944092 -14077.391602
vn 0.076331 0.009770 0.997035
vt 3.476245 0.811512
v -7317.545410 -1435.610352 -14114.667969
vn -0.253774 0.057106 0.965576
vt 2.745779 0.986324
v -7349.032715 -1643.844360 -14214.478516
vn -0.297000 -0.093156 0.950323
vt 2.495931 0.555171
v -7191.553711 -1059.787720 -14157.344727
vn -0.249179 0.179167 0.951740
vt 3.138118 0.538868
v -7240.900879 -1249.910156 -14167.309570
vn -0.220609 0.191847 0.956309
vt 2.947792 0.582997
v -7078.602051 -1257.925903 -14118.315430
vn 0.325659 0.119734 0.937875
vt 3.596048 0.517594
v -6995.227051 -1454.927612 -14122.967773
vn 0.809762 -0.011218 0.586651
vt 3.888090 0.337432
v -7012.588379 -1259.037720 -14184.832031
vn 0.726076 0.063105 0.684713
vt 3.740944 0.066130
v -7802.064453 -1432.755005 -14539.527344
vn -0.975848 -0.217131 0.023973
vt 0.427715 -0.187691
v -7811.105957 -1429.132324 -14393.542969
vn -0.911138 -0.135177 0.389299
vt 0.595936 0.546862
v -6907.293945 -1416.517578 -14455.827148
vn 0.985929 0.030393 0.164379
vt 3.745487 -1.464429
v -6934.666992 -1441.741089 -14339.619141
vn 0.968276 -0.116889 0.220860
vt 3.807178 -0.841642
v -6946.351074 -1621.544556 -14334.760742
vn 0.898555 -0.108626 0.425206
vt 3.772031 -0.795717
v -6926.153320 -978.444458 -14389.767578
vn 0.868331 0.461092 0.182745
vt 3.768748 -1.104178
v -6888.561523 -1236.370117 -14369.169922
vn 0.997086 -0.072633 0.023308
vt 3.931607 -1.073863
v -6922.563477 -1225.814331 -14485.126953
vn 0.998563 -0.043068 -0.031885
vt 3.650573 -1.579626
v -6921.435059 -1453.134033 -14589.675781
vn 0.800073 -0.134765 -0.584569
vt 3.510960 -2.095602
v -6889.649414 -1252.816528 -14589.595703
vn 0.905603 -0.047216 -0.421491
vt 3.624842 -2.155179
v -7501.537109 -1443.869751 -14829.700195
vn 0.119702 -0.373578 -0.919843
vt 1.104729 -2.180846
v -7327.334473 -1435.410767 -14822.016602
vn 0.335442 -0.336372 -0.879962
vt 1.738832 -2.471739
v -7358.510742 -1625.495117 -14736.155273
vn 0.216388 -0.331175 -0.918422
vt 1.745214 -1.990921
v -7479.861816 -1616.830688 -14769.902344
vn 0.221414 -0.386362 -0.895377
vt 1.264477 -1.927838
v -7637.682129 -1114.801880 -14908.742188
vn -0.022886 -0.162561 -0.986433
vt 0.508803 -2.312471
v -7418.457520 -1105.725952 -14964.071289
vn 0.212046 -0.025737 -0.976921
vt 1.217478 -2.998002
v -7387.713379 -1254.187500 -14891.571289
vn 0.290042 -0.246679 -0.924676
vt 1.427140 -2.699681
v -7548.426758 -1253.641724 -14917.234375
vn 0.125713 -0.191442 -0.973420
vt 0.816617 -2.522600
v -7875.025391 -1040.874878 -14646.134766
vn -0.911278 0.382978 0.151327
vt 0.020077 -0.574002
v -7816.446777 -1233.828613 -14665.747070
vn -0.988076 -0.153956 0.001847
vt 0.202805 -0.780912
v -7268.762695 -1777.458008 -14636.785156
vn 0.194704 0.032275 -0.980331
vt 2.202996 -1.671854
v -7273.710938 -1891.114380 -14707.497070
vn 0.226822 0.430702 -0.873526
vt 2.088126 -2.010057
v -7153.456055 -1880.718994 -14644.813477
vn 0.407152 0.225537 -0.885077
vt 2.604697 -1.928854
v -7500.194336 -1781.037476 -14254.815430
vn -0.412276 -0.381160 0.827494
vt 1.899435 0.642109
v -7565.828125 -1878.703613 -14339.119141
vn -0.265894 -0.516103 0.814210
vt 1.548671 0.351596
v -7384.535645 -1888.046997 -14299.648438
vn -0.245584 -0.588241 0.770494
vt 2.251827 0.203554
v -7333.790039 -1790.585693 -14197.879883
vn -0.258542 -0.214905 0.941792
vt 2.573298 0.607993
v -7391.245605 -894.300598 -14267.097656
vn -0.259698 0.585495 0.767954
vt 2.272534 0.376194
v -7315.912598 -843.419556 -14336.764648
vn -0.140542 0.924635 0.353975
vt 2.446459 -0.108337
v -7143.200684 -833.604248 -14283.102539
vn -0.059919 0.917864 0.392346
vt 3.138402 -0.170437
v -7190.375488 -889.681458 -14228.413086
vn -0.234205 0.576705 0.782662
vt 3.044688 0.187355
v -7600.897461 -1074.996216 -14287.085938
vn -0.301609 0.227518 0.925887
vt 1.494635 0.673496
v -7373.058105 -1061.488525 -14236.167969
vn -0.282058 0.214521 0.935107
vt 2.380132 0.493896
v -7379.120117 -1005.764832 -14246.477539
vn -0.280503 0.219668 0.934379
vt 2.344270 0.454666
v -7617.074707 -1021.084961 -14313.579102
vn -0.313614 0.326964 0.891482
vt 1.400328 0.573803
v -7191.160645 -1003.091370 -14181.032227
vn -0.291778 0.284016 0.913346
vt 3.106978 0.421709
v -7035.455078 -1100.598145 -14781.911133
vn 0.506931 -0.016866 -0.861822
vt 2.838699 -2.825302
v -7208.915527 -1064.744751 -14853.617188
vn 0.411054 0.093705 -0.906782
vt 2.119284 -2.850470
v -7210.530762 -1014.361023 -14823.655273
vn 0.311031 0.525100 -0.792168
vt 2.154672 -2.700161
v -7032.180664 -1048.124756 -14749.935547
vn 0.459521 0.425512 -0.779602
vt 2.894355 -2.674320
v -7268.762695 -1777.458008 -14636.785156
vn 0.194704 0.032275 -0.980331
vt 2.202996 -1.671854
v -7228.909668 -1624.746338 -14697.671875
vn 0.240334 -0.223774 -0.944545
vt 2.261988 -2.046291
v -7539.366211 -1602.729980 -14197.440430
vn -0.422171 -0.198244 0.884574
vt 1.838056 0.998002
v -7610.484375 -1628.676392 -14339.195313
vn -0.706330 -0.214612 0.674566
vt 1.388721 0.435472
v -7652.384277 -1786.171143 -14314.537109
vn -0.339423 -0.267139 0.901903
vt 1.272624 0.635716
v -7457.666504 -1232.804688 -14200.264648
vn -0.275261 0.225821 0.934471
vt 2.126615 0.829984
v -7716.981934 -1256.399780 -14314.944336
vn -0.475331 0.050469 0.878358
vt 1.040843 0.755587
v -7208.915527 -1064.744751 -14853.617188
vn 0.411054 0.093705 -0.906782
vt 2.119284 -2.850470
v -7107.544922 -1210.319458 -14725.079102
vn 0.448814 -0.355067 -0.820057
vt 2.658746 -2.409968
v -6971.609375 -1217.817139 -14655.270508
vn 0.504941 -0.280090 -0.816446
vt 3.241237 -2.323329
v -7532.757813 -1420.881714 -14196.967773
vn -0.363471 -0.001564 0.931604
vt 1.862361 0.987860
v -7712.945801 -1447.224121 -14311.025391
vn -0.625194 -0.112015 0.772389
vt 1.060674 0.767231
v -7185.483398 -1430.679688 -14714.780273
vn 0.436311 -0.213231 -0.874165
vt 2.393922 -2.212312
v -7228.909668 -1624.746338 -14697.671875
vn 0.240334 -0.223774 -0.944545
vt 2.261988 -2.046291
v -7044.233887 -1420.328857 -14662.135742
vn 0.395633 -0.069767 -0.915755
vt 2.971849 -2.220057
v -7107.544922 -1210.319458 -14725.079102
vn 0.448814 -0.355067 -0.820057
vt 2.658746 -2.409968
v -7185.483398 -1430.679688 -14714.780273
vn 0.436311 -0.213231 -0.874165
vt 2.393922 -2.212312
v -7327.334473 -1435.410767 -14822.016602
vn 0.335442 -0.336372 -0.879962
vt 1.738832 -2.471739
v -7273.710938 -1891.114380 -14707.497070
vn 0.226822 0.430702 -0.873526
vt 2.088126 -2.010057
v -7732.438965 -1882.197510 -14400.105469
vn -0.290542 -0.490102 0.821818
vt 0.868502 0.366190
v -7422.846191 -1058.712524 -14917.140625
vn 0.214399 0.639570 -0.738230
vt 1.266252 -2.759067
v -7210.530762 -1014.361023 -14823.655273
vn 0.311031 0.525100 -0.792168
vt 2.154672 -2.700161
v -6954.819336 -940.117065 -14386.783203
vn 0.778748 0.601964 0.176611
vt 3.670240 -1.035426
v -6940.574707 -968.993469 -14277.767578
vn 0.859222 0.377764 0.345009
vt 3.871017 -0.526500
v -6904.426270 -1032.858276 -14307.412109
vn 0.933345 0.174259 0.313850
vt 3.959676 -0.740399
v -7012.160156 -863.450928 -14380.813477
vn 0.524356 0.851086 0.026509
vt 3.473197 -0.897902
v -7150.678223 -805.037231 -14412.808594
vn 0.122045 0.990783 -0.058770
vt 2.933417 -0.793822
v -7541.464355 -817.799377 -14534.948242
vn -0.129148 0.975024 -0.180691
vt 1.366805 -0.656847
v -7768.363281 -932.604858 -14679.281250
vn -0.402439 0.882736 -0.242527
vt 0.356321 -0.938149
v -7431.625000 -964.671692 -14823.266602
vn -0.002545 0.817301 -0.576205
vt 1.363814 -2.281126
v -7681.175293 -985.120667 -14886.534180
vn -0.015479 0.967678 -0.251712
vt 0.383636 -2.121265
v -7835.638672 -990.570618 -14595.335938
vn -0.852895 0.521653 0.021185
vt 0.230857 -0.398640
v -7823.274414 -988.418701 -14708.158203
vn -0.720002 0.692544 -0.044486
vt 0.120094 -0.976477
v -7850.725586 -1016.321411 -14722.594727
vn -0.712552 0.701618 -0.001144
vt 0.001998 -0.995638
v -6964.069336 -1854.798218 -14409.570313
vn 0.867634 -0.196656 0.456660
vt 3.605821 -1.129969
v -6903.062012 -1227.424927 -14283.072266
vn 0.852888 -0.067620 0.517696
vt 3.998002 -0.623348
v -6987.768066 -1440.775024 -14237.804688
vn 0.910958 -0.082531 0.404159
vt 3.757000 -0.241053
v -7326.175293 -823.544556 -14462.752930
vn 0.029617 0.997060 -0.070674
vt 2.236614 -0.708189
v -7213.761230 -913.578613 -14763.721680
vn 0.213977 0.766565 -0.605469
vt 2.225458 -2.399499
v -7431.625000 -964.671692 -14823.266602
vn -0.002545 0.817301 -0.576205
vt 1.363814 -2.281126
v -7541.464355 -817.799377 -14534.948242
vn -0.129148 0.975024 -0.180691
vt 1.366805 -0.656847
v -7541.464355 -817.799377 -14534.948242
vn -0.129148 0.975024 -0.180691
vt 1.366805 -0.656847
v -7326.175293 -823.544556 -14462.752930
vn 0.029617 0.997060 -0.070674
vt 2.236614 -0.708189
v -7213.761230 -913.578613 -14763.721680
vn 0.213977 0.766565 -0.605469
vt 2.225458 -2.399499
v -7213.761230 -913.578613 -14763.721680
vn 0.213977 0.766565 -0.605469
vt 2.225458 -2.399499
v -7843.201172 -958.127869 -14493.924805
vn -0.978312 0.099773 -0.181525
vt 0.343126 0.114048
v -7796.246094 -940.258728 -14544.529297
vn -0.727669 0.620362 -0.292659
vt 0.441668 -0.223252
v -7052.405273 -972.872864 -14148.542969
vn 0.315289 0.257212 0.913474
vt 3.648284 0.319608
v -7190.768066 -946.386414 -14204.722656
vn -0.314139 0.279069 0.907434
vt 3.075833 0.304532
v -6876.497070 -964.142517 -14569.972656
vn 0.937079 0.349116 -0.001348
vt 3.698883 -2.083547
v -6983.489746 -901.783997 -14383.797852
vn 0.811880 0.577177 0.087849
vt 3.571719 -0.966664
v -7385.182617 -950.032715 -14256.787109
vn -0.271164 0.218785 0.937338
vt 2.308402 0.415430
v -7212.145996 -963.969788 -14793.688477
vn 0.273211 0.530297 -0.802584
vt 2.190065 -2.549830
v -7427.235352 -1011.692078 -14870.204102
vn 0.146581 0.644681 -0.750267
vt 1.315033 -2.520096
v -7212.145996 -963.969788 -14793.688477
vn 0.273211 0.530297 -0.802584
vt 2.190065 -2.549830
v -7431.625000 -964.671692 -14823.266602
vn -0.002545 0.817301 -0.576205
vt 1.363814 -2.281126
v -7213.761230 -913.578613 -14763.721680
vn 0.213977 0.766565 -0.605469
vt 2.225458 -2.399499
v -7795.818848 -960.511780 -14693.719727
vn -0.705168 0.703886 -0.085332
vt 0.238207 -0.957313
f 132/132/132 133/133/133 134/134/134
f 58/58/58 128/128/128 14/14/14
f 128/128/128 58/58/58 6/6/6
f 130/130/130 6/6/6 58/58/58
f 6/6/6 130/130/130 52/52/52
f 53/53/53 52/52/52 130/130/130
f 52/52/52 53/53/53 46/46/46
f 51/51/51 46/46/46 53/53/53
f 46/46/46 51/51/51 47/47/47
f 50/50/50 47/47/47 51/51/51
f 47/47/47 50/50/50 99/99/99
f 86/86/86 99/99/99 50/50/50
f 99/99/99 86/86/86 85/85/85
f 87/87/87 85/85/85 86/86/86
f 85/85/85 87/87/87 88/88/88
f 145/145/145 88/88/88 87/87/87
f 88/88/88 145/145/145 32/32/32
f 81/81/81 32/32/32 145/145/145
f 32/32/32 81/81/81 1/1/1
f 31/31/31 1/1/1 4/4/4
f 1/1/1 31/31/31 32/32/32
f 15/15/15 32/32/32 31/31/31
f 32/32/32 15/15/15 88/88/88
f 18/18/18 88/88/88 15/15/15
f 88/88/88 18/18/18 85/85/85
f 100/100/100 85/85/85 18/18/18
f 85/85/85 100/100/100 99/99/99
f 104/104/104 99/99/99 100/100/100
f 99/99/99 104/104/104 47/47/47
f 48/48/48 47/47/47 104/104/104
f 47/47/47 48/48/48 46/46/46
f 41/41/41 46/46/46 48/48/48
f 46/46/46 41/41/41 52/52/52
f 7/7/7 52/52/52 41/41/41
f 52/52/52 7/7/7 6/6/6
f 5/5/5 6/6/6 7/7/7
f 6/6/6 5/5/5 128/128/128
f 15/15/15 31/31/31 139/139/139
f 4/4/4 139/139/139 31/31/31
f 5/5/5 7/7/7 8/8/8
f 41/41/41 8/8/8 7/7/7
f 8/8/8 41/41/41 42/42/42
f 48/48/48 42/42/42 41/41/41
f 1/1/1 3/3/3 4/4/4
f 140/140/140 4/4/4 3/3/3
f 4/4/4 140/140/140 139/139/139
f 16/16/16 139/139/139 140/140/140
f 139/139/139 16/16/16 15/15/15
f 17/17/17 15/15/15 16/16/16
f 15/15/15 17/17/17 18/18/18
f 44/44/44 18/18/18 17/17/17
f 18/18/18 44/44/44 100/100/100
f 105/105/105 100/100/100 44/44/44
f 100/100/100 105/105/105 104/104/104
f 96/96/96 104/104/104 105/105/105
f 104/104/104 96/96/96 48/48/48
f 80/80/80 48/48/48 96/96/96
f 48/48/48 80/80/80 42/42/42
f 17/17/17 72/72/72 73/73/73
f 72/72/72 17/17/17 125/125/125
f 16/16/16 125/125/125 17/17/17
f 125/125/125 16/16/16 140/140/140
f 17/17/17 43/43/43 44/44/44
f 43/43/43 17/17/17 73/73/73
f 44/44/44 55/55/55 105/105/105
f 55/55/55 44/44/44 54/54/54
f 43/43/43 54/54/54 44/44/44
f 3/3/3 122/122/122 140/140/140
f 151/151/151 140/140/140 122/122/122
f 140/140/140 151/151/151 125/125/125
f 126/126/126 125/125/125 151/151/151
f 125/125/125 126/126/126 72/72/72
f 127/127/127 72/72/72 126/126/126
f 2/2/2 1/1/1 81/81/81
f 1/1/1 2/2/2 3/3/3
f 121/121/121 3/3/3 2/2/2
f 3/3/3 121/121/121 122/122/122
f 123/123/123 122/122/122 121/121/121
f 122/122/122 123/123/123 124/124/124
f 86/86/86 89/89/89 87/87/87
f 142/142/142 87/87/87 89/89/89
f 87/87/87 142/142/142 145/145/145
f 84/84/84 145/145/145 142/142/142
f 145/145/145 84/84/84 81/81/81
f 82/82/82 81/81/81 84/84/84
f 81/81/81 82/82/82 2/2/2
f 131/131/131 2/2/2 82/82/82
f 2/2/2 131/131/131 121/121/121
f 36/36/36 84/84/84 142/142/142
f 141/141/141 142/142/142 89/89/89
f 142/142/142 141/141/141 36/36/36
f 33/33/33 36/36/36 141/141/141
f 20/20/20 89/89/89 49/49/49
f 89/89/89 20/20/20 141/141/141
f 19/19/19 141/141/141 20/20/20
f 141/141/141 19/19/19 33/33/33
f 22/22/22 19/19/19 21/21/21
f 20/20/20 21/21/21 19/19/19
f 21/21/21 20/20/20 49/49/49
f 82/82/82 84/84/84 83/83/83
f 36/36/36 83/83/83 84/84/84
f 83/83/83 36/36/36 35/35/35
f 33/33/33 35/35/35 36/36/36
f 35/35/35 33/33/33 34/34/34
f 19/19/19 34/34/34 33/33/33
f 34/34/34 19/19/19 117/117/117
f 22/22/22 117/117/117 19/19/19
f 117/117/117 22/22/22 118/118/118
f 129/129/129 118/118/118 22/22/22
f 118/118/118 129/129/129 60/60/60
f 57/57/57 60/60/60 129/129/129
f 60/60/60 57/57/57 61/61/61
f 56/56/56 61/61/61 57/57/57
f 61/61/61 56/56/56 63/63/63
f 62/62/62 63/63/63 56/56/56
f 63/63/63 62/62/62 108/108/108
f 10/10/10 108/108/108 62/62/62
f 108/108/108 10/10/10 95/95/95
f 94/94/94 95/95/95 10/10/10
f 117/117/117 118/118/118 59/59/59
f 60/60/60 59/59/59 118/118/118
f 59/59/59 60/60/60 25/25/25
f 61/61/61 25/25/25 60/60/60
f 25/25/25 61/61/61 26/26/26
f 63/63/63 26/26/26 61/61/61
f 26/26/26 63/63/63 103/103/103
f 108/108/108 103/103/103 63/63/63
f 103/103/103 108/108/108 110/110/110
f 95/95/95 110/110/110 108/108/108
f 103/103/103 90/90/90 26/26/26
f 90/90/90 103/103/103 109/109/109
f 110/110/110 109/109/109 103/103/103
f 109/109/109 110/110/110 111/111/111
f 109/109/109 91/91/91 90/90/90
f 35/35/35 34/34/34 144/144/144
f 117/117/117 144/144/144 34/34/34
f 144/144/144 117/117/117 116/116/116
f 59/59/59 116/116/116 117/117/117
f 116/116/116 59/59/59 24/24/24
f 25/25/25 24/24/24 59/59/59
f 24/24/24 25/25/25 23/23/23
f 26/26/26 23/23/23 25/25/25
f 23/23/23 26/26/26 93/93/93
f 90/90/90 93/93/93 26/26/26
f 93/93/93 90/90/90 92/92/92
f 91/91/91 92/92/92 90/90/90
f 92/92/92 146/146/146 93/93/93
f 38/38/38 93/93/93 146/146/146
f 93/93/93 38/38/38 23/23/23
f 37/37/37 23/23/23 38/38/38
f 23/23/23 37/37/37 24/24/24
f 143/143/143 24/24/24 37/37/37
f 24/24/24 143/143/143 116/116/116
f 144/144/144 116/116/116 143/143/143
f 144/144/144 119/119/119 35/35/35
f 119/119/119 144/144/144 40/40/40
f 143/143/143 40/40/40 144/144/144
f 40/40/40 143/143/143 37/37/37
f 39/39/39 37/37/37 38/38/38
f 37/37/37 39/39/39 40/40/40
f 120/120/120 40/40/40 39/39/39
f 40/40/40 120/120/120 119/119/119
f 83/83/83 119/119/119 120/120/120
f 119/119/119 83/83/83 35/35/35
f 138/138/138 38/38/38 146/146/146
f 38/38/38 138/138/138 39/39/39
f 131/131/131 39/39/39 138/138/138
f 39/39/39 131/131/131 120/120/120
f 82/82/82 120/120/120 131/131/131
f 120/120/120 82/82/82 83/83/83
f 112/112/112 94/94/94 9/9/9
f 10/10/10 9/9/9 94/94/94
f 9/9/9 10/10/10 11/11/11
f 62/62/62 11/11/11 10/10/10
f 11/11/11 62/62/62 45/45/45
f 56/56/56 45/45/45 62/62/62
f 45/45/45 56/56/56 58/58/58
f 57/57/57 58/58/58 56/56/56
f 58/58/58 57/57/57 130/130/130
f 129/129/129 130/130/130 57/57/57
f 130/130/130 129/129/129 53/53/53
f 22/22/22 53/53/53 129/129/129
f 53/53/53 22/22/22 51/51/51
f 21/21/21 51/51/51 22/22/22
f 51/51/51 21/21/21 50/50/50
f 49/49/49 50/50/50 21/21/21
f 50/50/50 49/49/49 86/86/86
f 89/89/89 86/86/86 49/49/49
f 9/9/9 11/11/11 12/12/12
f 45/45/45 12/12/12 11/11/11
f 12/12/12 45/45/45 14/14/14
f 58/58/58 14/14/14 45/45/45
f 14/14/14 13/13/13 12/12/12
f 76/76/76 12/12/12 13/13/13
f 12/12/12 76/76/76 9/9/9
f 112/112/112 9/9/9 76/76/76
f 148/148/148 149/149/149 150/150/150
f 149/149/149 148/148/148 147/147/147
f 115/115/115 147/147/147 148/148/148
f 147/147/147 115/115/115 114/114/114
f 101/101/101 114/114/114 115/115/115
f 114/114/114 101/101/101 69/69/69
f 70/70/70 69/69/69 101/101/101
f 69/69/69 70/70/70 68/68/68
f 71/71/71 68/68/68 70/70/70
f 101/101/101 102/102/102 70/70/70
f 71/71/71 70/70/70 65/65/65
f 102/102/102 65/65/65 70/70/70
f 65/65/65 64/64/64 71/71/71
f 64/64/64 65/65/65 66/66/66
f 106/106/106 66/66/66 65/65/65
f 66/66/66 106/106/106 107/107/107
f 107/107/107 28/28/28 66/66/66
f 28/28/28 107/107/107 74/74/74
f 66/66/66 67/67/67 64/64/64
f 67/67/67 66/66/66 27/27/27
f 28/28/28 27/27/27 66/66/66
f 27/27/27 28/28/28 29/29/29
f 74/74/74 29/29/29 28/28/28
f 29/29/29 74/74/74 75/75/75
f 29/29/29 30/30/30 27/27/27
f 113/113/113 78/78/78 98/98/98
f 77/77/77 98/98/98 78/78/78
f 98/98/98 77/77/77 97/97/97
f 96/96/96 97/97/97 77/77/77
f 97/97/97 96/96/96 105/105/105
f 77/77/77 80/80/80 96/96/96
f 80/80/80 77/77/77 79/79/79
f 78/78/78 79/79/79 77/77/77
f 135/135/135 136/136/136 137/137/137
