mtllib TROLLHOLE02_ZRM_PSURF206.mtl
g zRM_Psurf206
usemtl Lvl_roast_m_largebolders
v -2746.139404 -1287.295044 -24261.308594
vn -0.256688 -0.907537 0.332396
vt 0.241223 0.799655
v -2827.029541 -1293.427002 -24259.132813
vn -0.616977 -0.692566 0.373753
vt 0.109986 0.829048
v -2858.639893 -1274.657227 -24370.976563
vn -0.644789 -0.758503 -0.094445
vt 0.053091 0.651842
v -2657.852051 -1361.699585 -24351.611328
vn -0.177175 -0.963943 0.198553
vt 0.370634 0.659717
v -2664.842041 -1289.552246 -24160.875000
vn -0.320775 -0.815927 0.481005
vt 0.370644 0.931071
v -2711.108643 -1026.097046 -24184.037109
vn 0.201565 0.714113 0.670384
vt 0.342198 0.794386
v -2723.948730 -941.434265 -24327.488281
vn 0.437713 0.783768 0.440585
vt 0.342208 0.560266
v -2857.150879 -873.605896 -24310.535156
vn -0.225720 0.851041 0.474109
vt 0.157301 0.618595
v -2835.424805 -971.582642 -24193.406250
vn -0.241391 0.540891 0.805709
vt 0.157301 0.824852
v -2664.842041 -1289.552246 -24160.875000
vn -0.320775 -0.815927 0.481005
vt 0.370644 0.931071
v -2674.482666 -1226.093506 -24095.519531
vn -0.315860 -0.381608 0.868682
vt 0.365408 0.999500
v -2798.581055 -1202.285400 -24167.214844
vn -0.572898 -0.497552 0.651329
vt 0.177427 0.931071
v -2746.139404 -1287.295044 -24261.308594
vn -0.256688 -0.907537 0.332396
vt 0.241223 0.799655
v -2252.290771 -1234.582275 -24260.960938
vn 0.566147 -0.822317 -0.057212
vt 0.941098 0.651816
v -2198.868896 -1182.872681 -24237.939453
vn 0.992355 -0.120019 -0.028753
vt 0.999500 0.650588
v -2312.281006 -1218.485840 -24133.257813
vn 0.641908 -0.481626 0.596650
vt 0.853091 0.828849
v -2316.603760 -1263.290527 -24158.363281
vn 0.430598 -0.812880 0.392187
vt 0.853091 0.829048
v -2575.165771 -1218.561890 -24615.402344
vn 0.148431 -0.600892 -0.785428
vt 0.535117 0.189168
v -2580.275879 -1114.246948 -24715.134766
vn 0.079762 -0.347834 -0.934157
vt 0.554023 0.022042
v -2468.835938 -1111.153442 -24672.521484
vn 0.559852 -0.373966 -0.739402
vt 0.742545 0.074753
v -2490.307373 -1202.466064 -24601.050781
vn 0.521048 -0.599736 -0.607310
vt 0.677541 0.195014
v -2821.449707 -1256.162964 -24472.535156
vn -0.595606 -0.703652 -0.387462
vt 0.109986 0.474609
v -2903.234619 -1109.791870 -24470.015625
vn -0.973503 -0.190779 -0.126080
vt 0.000500 0.457418
v -2898.968506 -1080.595947 -24579.267578
vn -0.621226 -0.381489 -0.684503
vt 0.000500 0.272987
v -2805.966553 -1253.700073 -24492.593750
vn -0.265123 -0.831784 -0.487694
vt 0.135419 0.437984
v -2820.148193 -1088.821411 -24145.310547
vn -0.360976 0.157100 0.919248
vt 0.164600 0.931071
v -2835.424805 -971.582642 -24193.406250
vn -0.241391 0.540891 0.805709
vt 0.157301 0.824852
v -2895.357422 -1023.304138 -24220.035156
vn -0.880879 0.073510 0.467599
vt 0.054488 0.827751
v -2308.582031 -1172.952271 -24109.607422
vn 0.503915 0.399561 0.765781
vt 0.853091 0.827456
v -2422.861328 -1146.540894 -24147.511719
vn 0.140211 0.871657 0.469632
vt 0.729694 0.783872
v -2399.819092 -1195.552734 -24061.181641
vn 0.292258 0.326122 0.899016
vt 0.738415 0.931071
v -2888.617432 -862.369141 -24575.925781
vn -0.856099 0.361725 -0.369120
vt 0.054488 0.228841
v -2833.378418 -827.731445 -24588.621094
vn -0.256359 0.939394 -0.227636
vt 0.157301 0.193665
v -2824.516113 -858.643250 -24647.585938
vn -0.481741 0.317508 -0.816771
vt 0.164601 0.107293
v -2484.622314 -1026.967896 -24677.257813
vn 0.637447 0.200828 -0.743861
vt 0.738415 0.055346
v -2478.447998 -911.156860 -24615.599609
vn 0.701829 0.709278 -0.066043
vt 0.776188 0.118730
v -2395.757568 -1053.204224 -24513.472656
vn 0.883861 0.429244 -0.185848
vt 0.853091 0.268558
v -2691.992188 -1136.501465 -24115.576172
vn -0.297650 0.194432 0.934666
vt 0.353658 0.931071
v -2711.108643 -1026.097046 -24184.037109
vn 0.201565 0.714113 0.670384
vt 0.342198 0.794386
v -2258.972412 -1132.122437 -24228.894531
vn 0.540664 0.840988 0.020537
vt 0.941098 0.642025
v -2427.733154 -1065.245483 -24295.171875
vn 0.304615 0.895914 0.323339
vt 0.776188 0.542350
v -2484.622314 -1026.967896 -24677.257813
vn 0.637447 0.200828 -0.743861
vt 0.738415 0.055346
v -2602.036133 -996.434021 -24719.708984
vn 0.025241 0.130539 -0.991122
vt 0.545035 0.000500
v -2623.003662 -824.411865 -24649.013672
vn 0.247135 0.838351 -0.485894
vt 0.553510 0.083355
v -2478.447998 -911.156860 -24615.599609
vn 0.701829 0.709278 -0.066043
vt 0.776188 0.118730
v -2892.227539 -906.398499 -24455.851563
vn -0.963383 0.257901 0.073348
vt 0.054488 0.427499
v -2845.870850 -837.104309 -24449.222656
vn -0.460146 0.878573 0.127967
vt 0.157301 0.401634
v -2316.603760 -1263.290527 -24158.363281
vn 0.430598 -0.812880 0.392187
vt 0.853091 0.829048
v -2312.281006 -1218.485840 -24133.257813
vn 0.641908 -0.481626 0.596650
vt 0.853091 0.828849
v -2399.312500 -1235.185547 -24083.460938
vn 0.282683 -0.664585 0.691677
vt 0.742545 0.931071
v -2391.793945 -1266.947998 -24166.515625
vn 0.130291 -0.952516 0.275204
vt 0.761230 0.832133
v -2895.357422 -1023.304138 -24220.035156
vn -0.880879 0.073510 0.467599
vt 0.054488 0.827751
v -2868.045898 -1176.811157 -24243.894531
vn -0.861418 -0.287508 0.418686
vt 0.067451 0.828012
v -2798.581055 -1202.285400 -24167.214844
vn -0.572898 -0.497552 0.651329
vt 0.177427 0.931071
v -2820.148193 -1088.821411 -24145.310547
vn -0.360976 0.157100 0.919248
vt 0.164600 0.931071
v -2490.307373 -1202.466064 -24601.050781
vn 0.521048 -0.599736 -0.607310
vt 0.677541 0.195014
v -2468.835938 -1111.153442 -24672.521484
vn 0.559852 -0.373966 -0.739402
vt 0.742545 0.074753
v -2379.626221 -1131.882446 -24507.550781
vn 0.855027 -0.120063 -0.504494
vt 0.853091 0.293774
v -2397.100342 -1200.803711 -24494.539063
vn 0.714888 -0.505587 -0.483029
vt 0.806871 0.330844
v -2805.966553 -1253.700073 -24492.593750
vn -0.265123 -0.831784 -0.487694
vt 0.135419 0.437984
v -2898.968506 -1080.595947 -24579.267578
vn -0.621226 -0.381489 -0.684503
vt 0.000500 0.272987
v -2795.578369 -1096.854126 -24570.714844
vn -0.522651 -0.259322 -0.812150
vt 0.177427 0.269670
v -2755.476563 -1247.535034 -24573.806641
vn -0.505968 -0.588095 -0.630984
vt 0.219658 0.294080
v -2399.819092 -1195.552734 -24061.181641
vn 0.292258 0.326122 0.899016
vt 0.738415 0.931071
v -2550.792480 -1156.514648 -24031.876953
vn -0.027388 0.420531 0.906865
vt 0.545006 0.999501
v -2542.089111 -1214.372314 -24055.656250
vn -0.094665 -0.555983 0.825785
vt 0.554051 0.999501
v -2399.312500 -1235.185547 -24083.460938
vn 0.282683 -0.664585 0.691677
vt 0.742545 0.931071
v -2308.582031 -1172.952271 -24109.607422
vn 0.503915 0.399561 0.765781
vt 0.853091 0.827456
v -2312.281006 -1218.485840 -24133.257813
vn 0.641908 -0.481626 0.596650
vt 0.853091 0.828849
v -2827.029541 -1293.427002 -24259.132813
vn -0.616977 -0.692566 0.373753
vt 0.109986 0.829048
v -2868.045898 -1176.811157 -24243.894531
vn -0.861418 -0.287508 0.418686
vt 0.067451 0.828012
v -2368.774414 -1096.760742 -24375.671875
vn 0.670298 0.741898 -0.016959
vt 0.853091 0.454016
v -2310.265137 -1157.660400 -24372.125000
vn 0.874945 0.209315 -0.436644
vt 0.911493 0.472009
v -2824.516113 -858.643250 -24647.585938
vn -0.481741 0.317508 -0.816771
vt 0.164601 0.107293
v -2715.247314 -926.730469 -24690.017578
vn -0.199781 0.294286 -0.934603
vt 0.353686 0.043816
v -2687.065186 -1104.682251 -24680.751953
vn -0.447116 -0.259549 -0.855992
vt 0.365380 0.082235
v -2888.617432 -862.369141 -24575.925781
vn -0.856099 0.361725 -0.369120
vt 0.054488 0.228841
v -2894.990723 -958.283447 -24333.777344
vn -0.952205 0.289546 0.097310
vt 0.054488 0.631896
v -2907.269775 -1141.358398 -24359.845703
vn -0.984687 -0.154705 0.080362
vt 0.000500 0.643963
v -2575.165771 -1218.561890 -24615.402344
vn 0.148431 -0.600892 -0.785428
vt 0.535117 0.189168
v -2547.937256 -1331.670044 -24541.582031
vn 0.369570 -0.766204 -0.525690
vt 0.557027 0.319039
v -2658.579834 -1349.929810 -24531.308594
vn -0.186649 -0.861313 -0.472548
vt 0.370625 0.365994
v -2670.044678 -1230.896484 -24611.890625
vn -0.101084 -0.773537 -0.625638
vt 0.370616 0.212566
v -2397.100342 -1200.803711 -24494.539063
vn 0.714888 -0.505587 -0.483029
vt 0.806871 0.330844
v -2347.680664 -1215.104614 -24388.953125
vn 0.634029 -0.632843 -0.444428
vt 0.853091 0.474583
v -2547.937256 -1331.670044 -24541.582031
vn 0.369570 -0.766204 -0.525690
vt 0.557027 0.319039
v -2580.275879 -1114.246948 -24715.134766
vn 0.079762 -0.347834 -0.934157
vt 0.554023 0.022042
v -2539.422119 -1285.487915 -24134.351563
vn 0.035846 -0.863731 0.502676
vt 0.557045 0.931071
v -2542.089111 -1214.372314 -24055.656250
vn -0.094665 -0.555983 0.825785
vt 0.554051 0.999501
v -2539.422119 -1285.487915 -24134.351563
vn 0.035846 -0.863731 0.502676
vt 0.557045 0.931071
v -2587.260010 -1096.451294 -24168.593750
vn 0.331771 0.856834 0.394668
vt 0.531203 0.769572
v -2592.104980 -1007.408630 -24330.345703
vn 0.297853 0.850087 0.434323
vt 0.553491 0.513292
v -2550.792480 -1156.514648 -24031.876953
vn -0.027388 0.420531 0.906865
vt 0.545006 0.999501
v -2691.992188 -1136.501465 -24115.576172
vn -0.297650 0.194432 0.934666
vt 0.353658 0.931071
v -2731.630371 -842.715698 -24623.355469
vn -0.028515 0.933744 -0.356804
vt 0.342226 0.131704
v -2833.378418 -827.731445 -24588.621094
vn -0.256359 0.939394 -0.227636
vt 0.157301 0.193665
v -2468.835938 -1111.153442 -24672.521484
vn 0.559852 -0.373966 -0.739402
vt 0.742545 0.074753
v -2658.579834 -1349.929810 -24531.308594
vn -0.186649 -0.861313 -0.472548
vt 0.370625 0.365994
v -2821.449707 -1256.162964 -24472.535156
vn -0.595606 -0.703652 -0.387462
vt 0.109986 0.474609
v -2805.966553 -1253.700073 -24492.593750
vn -0.265123 -0.831784 -0.487694
vt 0.135419 0.437984
v -2755.476563 -1247.535034 -24573.806641
vn -0.505968 -0.588095 -0.630984
vt 0.219658 0.294080
v -2670.044678 -1230.896484 -24611.890625
vn -0.101084 -0.773537 -0.625638
vt 0.370616 0.212566
v -2858.639893 -1274.657227 -24370.976563
vn -0.644789 -0.758503 -0.094445
vt 0.053091 0.651842
v -2827.029541 -1293.427002 -24259.132813
vn -0.616977 -0.692566 0.373753
vt 0.109986 0.829048
v -2347.680664 -1215.104614 -24388.953125
vn 0.634029 -0.632843 -0.444428
vt 0.853091 0.474583
v -2541.288330 -1346.260010 -24338.494141
vn 0.277270 -0.960751 0.008901
vt 0.557036 0.643283
v -2252.290771 -1234.582275 -24260.960938
vn 0.566147 -0.822317 -0.057212
vt 0.941098 0.651816
v -2368.774414 -1096.760742 -24375.671875
vn 0.670298 0.741898 -0.016959
vt 0.853091 0.454016
v -2452.913086 -987.550720 -24466.365234
vn 0.544984 0.788822 0.284171
vt 0.776188 0.320102
v -2452.913086 -987.550720 -24466.365234
vn 0.544984 0.788822 0.284171
vt 0.776188 0.320102
v -2606.944580 -916.003052 -24494.353516
vn 0.408428 0.807737 0.425144
vt 0.553501 0.285434
v -2478.447998 -911.156860 -24615.599609
vn 0.701829 0.709278 -0.066043
vt 0.776188 0.118730
v -2623.003662 -824.411865 -24649.013672
vn 0.247135 0.838351 -0.485894
vt 0.553510 0.083355
v -2730.154785 -843.232849 -24478.171875
vn 0.257557 0.923285 0.284971
vt 0.342217 0.336824
v -2731.630371 -842.715698 -24623.355469
vn -0.028515 0.933744 -0.356804
vt 0.342226 0.131704
v -2857.150879 -873.605896 -24310.535156
vn -0.225720 0.851041 0.474109
vt 0.157301 0.618595
v -2845.870850 -837.104309 -24449.222656
vn -0.460146 0.878573 0.127967
vt 0.157301 0.401634
v -2892.227539 -906.398499 -24455.851563
vn -0.963383 0.257901 0.073348
vt 0.054488 0.427499
v -2835.424805 -971.582642 -24193.406250
vn -0.241391 0.540891 0.805709
vt 0.157301 0.824852
v -2258.972412 -1132.122437 -24228.894531
vn 0.540664 0.840988 0.020537
vt 0.941098 0.642025
v -2308.582031 -1172.952271 -24109.607422
vn 0.503915 0.399561 0.765781
vt 0.853091 0.827456
v -2888.617432 -862.369141 -24575.925781
vn -0.856099 0.361725 -0.369120
vt 0.054488 0.228841
f 26/26/26 27/27/27 28/28/28
f 88/88/88 66/66/66 11/11/11
f 38/38/38 11/11/11 66/66/66
f 11/11/11 38/38/38 26/26/26
f 39/39/39 26/26/26 38/38/38
f 26/26/26 39/39/39 27/27/27
f 11/11/11 10/10/10 88/88/88
f 10/10/10 11/11/11 12/12/12
f 26/26/26 12/12/12 11/11/11
f 12/12/12 13/13/13 10/10/10
f 12/12/12 70/70/70 13/13/13
f 70/70/70 12/12/12 71/71/71
f 66/66/66 65/65/65 38/38/38
f 65/65/65 66/66/66 64/64/64
f 67/67/67 64/64/64 66/66/66
f 64/64/64 67/67/67 68/68/68
f 69/69/69 68/68/68 67/67/67
f 6/6/6 8/8/8 9/9/9
f 8/8/8 6/6/6 7/7/7
f 91/91/91 7/7/7 6/6/6
f 7/7/7 91/91/91 92/92/92
f 30/30/30 92/92/92 91/91/91
f 92/92/92 30/30/30 41/41/41
f 29/29/29 41/41/41 30/30/30
f 41/41/41 29/29/29 40/40/40
f 29/29/29 30/30/30 31/31/31
f 91/91/91 31/31/31 30/30/30
f 31/31/31 91/91/91 93/93/93
f 6/6/6 93/93/93 91/91/91
f 93/93/93 6/6/6 94/94/94
f 47/47/47 8/8/8 114/114/114
f 7/7/7 114/114/114 8/8/8
f 114/114/114 7/7/7 111/111/111
f 92/92/92 111/111/111 7/7/7
f 111/111/111 92/92/92 109/109/109
f 41/41/41 109/109/109 92/92/92
f 109/109/109 41/41/41 108/108/108
f 40/40/40 108/108/108 41/41/41
f 34/34/34 32/32/32 33/33/33
f 47/47/47 33/33/33 32/32/32
f 33/33/33 47/47/47 115/115/115
f 114/114/114 115/115/115 47/47/47
f 115/115/115 114/114/114 113/113/113
f 111/111/111 113/113/113 114/114/114
f 113/113/113 111/111/111 112/112/112
f 109/109/109 112/112/112 111/111/111
f 32/32/32 46/46/46 47/47/47
f 97/97/97 87/87/87 42/42/42
f 43/43/43 42/42/42 87/87/87
f 42/42/42 43/43/43 44/44/44
f 75/75/75 44/44/44 43/43/43
f 44/44/44 75/75/75 95/95/95
f 74/74/74 95/95/95 75/75/75
f 95/95/95 74/74/74 96/96/96
f 76/76/76 43/43/43 87/87/87
f 43/43/43 76/76/76 75/75/75
f 74/74/74 75/75/75 76/76/76
f 44/44/44 45/45/45 42/42/42
f 62/62/62 74/74/74 76/76/76
f 74/74/74 62/62/62 77/77/77
f 61/61/61 77/77/77 62/62/62
f 62/62/62 60/60/60 61/61/61
f 60/60/60 62/62/62 63/63/63
f 76/76/76 63/63/63 62/62/62
f 63/63/63 76/76/76 83/83/83
f 87/87/87 83/83/83 76/76/76
f 83/83/83 87/87/87 80/80/80
f 82/82/82 80/80/80 81/81/81
f 80/80/80 82/82/82 83/83/83
f 4/4/4 5/5/5 1/1/1
f 5/5/5 4/4/4 90/90/90
f 106/106/106 90/90/90 4/4/4
f 90/90/90 106/106/106 51/51/51
f 107/107/107 51/51/51 106/106/106
f 51/51/51 107/107/107 48/48/48
f 85/85/85 107/107/107 106/106/106
f 50/50/50 48/48/48 49/49/49
f 48/48/48 50/50/50 51/51/51
f 89/89/89 51/51/51 50/50/50
f 51/51/51 89/89/89 90/90/90
f 3/3/3 1/1/1 2/2/2
f 1/1/1 3/3/3 4/4/4
f 98/98/98 4/4/4 3/3/3
f 4/4/4 98/98/98 106/106/106
f 86/86/86 106/106/106 98/98/98
f 106/106/106 86/86/86 85/85/85
f 21/21/21 85/85/85 86/86/86
f 85/85/85 21/21/21 84/84/84
f 19/19/19 20/20/20 18/18/18
f 21/21/21 18/18/18 20/20/20
f 18/18/18 21/21/21 86/86/86
f 102/102/102 100/100/100 101/101/101
f 100/100/100 102/102/102 99/99/99
f 98/98/98 99/99/99 102/102/102
f 99/99/99 98/98/98 3/3/3
f 35/35/35 36/36/36 37/37/37
f 110/110/110 37/37/37 36/36/36
f 37/37/37 110/110/110 72/72/72
f 73/73/73 72/72/72 120/120/120
f 72/72/72 73/73/73 37/37/37
f 58/58/58 37/37/37 73/73/73
f 37/37/37 58/58/58 35/35/35
f 57/57/57 35/35/35 58/58/58
f 15/15/15 121/121/121 16/16/16
f 121/121/121 15/15/15 120/120/120
f 73/73/73 120/120/120 15/15/15
f 58/58/58 56/56/56 57/57/57
f 56/56/56 58/58/58 59/59/59
f 73/73/73 59/59/59 58/58/58
f 59/59/59 73/73/73 105/105/105
f 15/15/15 105/105/105 73/73/73
f 105/105/105 15/15/15 14/14/14
f 16/16/16 14/14/14 15/15/15
f 14/14/14 16/16/16 17/17/17
f 117/117/117 118/118/118 78/78/78
f 79/79/79 78/78/78 118/118/118
f 78/78/78 79/79/79 52/52/52
f 53/53/53 52/52/52 79/79/79
f 52/52/52 53/53/53 54/54/54
f 54/54/54 55/55/55 52/52/52
f 116/116/116 52/52/52 119/119/119
f 52/52/52 116/116/116 78/78/78
f 117/117/117 78/78/78 116/116/116
f 79/79/79 118/118/118 23/23/23
f 122/122/122 23/23/23 118/118/118
f 23/23/23 122/122/122 24/24/24
f 79/79/79 104/104/104 53/53/53
f 104/104/104 79/79/79 103/103/103
f 23/23/23 103/103/103 79/79/79
f 103/103/103 23/23/23 22/22/22
f 24/24/24 22/22/22 23/23/23
f 22/22/22 24/24/24 25/25/25
