mtllib TROLLHOLE02_HOLECAP66.mtl
g HoleCap66
usemtl Stalagcap
v 580.932861 -700.229553 -5591.788086
vn 0.023637 -0.988592 -0.148754
vt 0.496959 0.638621
v 671.288391 -692.740601 -5580.786621
vn 0.247073 -0.929178 -0.274925
vt 0.608884 0.620013
v 711.046570 -701.570740 -5495.283203
vn 0.380374 -0.915452 -0.131387
vt 0.641847 0.507871
v 693.193115 -711.393494 -5422.809570
vn 0.315523 -0.927253 0.201610
vt 0.615743 0.390344
v 605.177246 -714.675598 -5391.920410
vn 0.047771 -0.941200 0.334454
vt 0.500884 0.349985
v 511.076385 -712.478760 -5408.642578
vn -0.121707 -0.984033 0.129871
vt 0.383995 0.391770
v 474.964600 -705.864624 -5479.002441
vn -0.169730 -0.983817 -0.057418
vt 0.351031 0.512231
v 488.673645 -697.714172 -5574.490234
vn -0.104294 -0.989122 -0.103735
vt 0.401034 0.615871
f 3/3/3 1/1/1 2/2/2
f 1/1/1 3/3/3 5/5/5
f 4/4/4 5/5/5 3/3/3
f 7/7/7 5/5/5 6/6/6
f 5/5/5 7/7/7 1/1/1
f 8/8/8 1/1/1 7/7/7
