mtllib TROLLHOLE02_HOLECAP72.mtl
g HoleCap72
usemtl Stalagcap
v -1503.322754 -770.264893 -5925.497070
vn -0.061937 -0.984349 -0.164989
vt 0.496959 0.638621
v -1424.089478 -769.429077 -5942.958496
vn 0.051379 -0.983450 -0.173740
vt 0.608884 0.620013
v -1371.009399 -770.913086 -5878.839355
vn 0.119598 -0.991479 -0.051624
vt 0.641847 0.507871
v -1366.017334 -770.132690 -5810.144531
vn 0.140029 -0.987613 0.070802
vt 0.615743 0.390344
v -1431.913818 -771.231079 -5758.600586
vn 0.077886 -0.985651 0.149756
vt 0.500884 0.349985
v -1515.253174 -772.445313 -5747.817383
vn -0.020278 -0.995205 0.095691
vt 0.383995 0.391770
v -1562.590210 -772.012451 -5801.404297
vn -0.087457 -0.995976 0.019551
vt 0.351031 0.512231
v -1574.820190 -769.223389 -5885.652832
vn -0.098111 -0.992713 -0.069968
vt 0.401034 0.615871
f 3/3/3 1/1/1 2/2/2
f 1/1/1 3/3/3 5/5/5
f 4/4/4 5/5/5 3/3/3
f 7/7/7 5/5/5 6/6/6
f 5/5/5 7/7/7 1/1/1
f 8/8/8 1/1/1 7/7/7
