mtllib TROLLHOLE02_HOLECAP12.mtl
g HoleCap12
usemtl Stalagcap
v -639.432739 -1184.201172 -6672.389160
vn 0.063130 0.962471 -0.263940
vt 0.496959 0.638621
v -743.288025 -1190.721191 -6714.547852
vn -0.103065 0.984114 -0.144559
vt 0.608884 0.620013
v -786.579834 -1186.825195 -6580.622559
vn -0.286850 0.957961 -0.005337
vt 0.641847 0.507871
v -529.290527 -1185.375977 -6644.543457
vn 0.106900 0.990053 -0.091474
vt 0.401034 0.615871
v -762.710022 -1187.500977 -6439.609375
vn -0.213386 0.966011 0.145905
vt 0.615743 0.390344
v -677.748108 -1190.655151 -6385.542969
vn -0.024592 0.966971 0.253697
vt 0.500884 0.349985
v -546.666138 -1195.760498 -6392.558594
vn 0.123187 0.964706 0.232739
vt 0.383995 0.391770
v -502.617462 -1186.918457 -6516.442871
vn 0.127116 0.990464 0.053135
vt 0.351031 0.512231
f 3/3/3 1/1/1 2/2/2
f 1/1/1 3/3/3 4/4/4
f 6/6/6 3/3/3 5/5/5
f 3/3/3 6/6/6 4/4/4
f 7/7/7 4/4/4 6/6/6
f 4/4/4 7/7/7 8/8/8
