mtllib TROLLHOLE02_HOLECAP199.mtl
g HoleCap199
usemtl Stalagcap
v -5733.340332 1350.986328 -10056.600586
vn -0.046423 -0.992095 -0.116589
vt 0.401034 0.615871
v -5745.027832 1346.051758 -10006.237305
vn -0.070656 -0.991023 -0.113496
vt 0.496959 0.638621
v -5809.662598 1349.885742 -9999.476563
vn -0.084847 -0.994775 0.056783
vt 0.608884 0.620013
v -5876.622070 1356.570068 -10024.635742
vn -0.082273 -0.995569 -0.045539
vt 0.641847 0.507871
v -5895.283203 1360.188843 -10070.036133
vn -0.053083 -0.995743 -0.075349
vt 0.615743 0.390344
v -5877.249512 1364.103027 -10122.735352
vn -0.035056 -0.995683 -0.085948
vt 0.500884 0.349985
v -5819.820313 1362.703369 -10129.945313
vn -0.028198 -0.979659 -0.198677
vt 0.383995 0.391770
v -5761.434082 1360.538818 -10120.262695
vn 0.061684 -0.970738 -0.232082
vt 0.351031 0.512231
f 2/2/2 3/3/3 1/1/1
f 7/7/7 1/1/1 3/3/3
f 1/1/1 7/7/7 8/8/8
f 5/5/5 3/3/3 4/4/4
f 3/3/3 5/5/5 7/7/7
f 6/6/6 7/7/7 5/5/5
