mtllib TROLLHOLE02_HOLECAP71.mtl
g HoleCap71
usemtl Stalagcap
v -1861.737671 -773.539673 -6070.273438
vn -0.049082 -0.993163 -0.105914
vt 0.401034 0.615871
v -1784.644897 -770.618103 -6101.026367
vn 0.031038 -0.978733 -0.202779
vt 0.496959 0.638621
v -1716.928711 -770.882202 -6060.859863
vn 0.100117 -0.991669 -0.081053
vt 0.608884 0.620013
v -1694.454590 -769.716736 -5999.753906
vn 0.117917 -0.992620 0.028320
vt 0.641847 0.507871
v -1746.539429 -771.691467 -5956.258301
vn 0.129863 -0.984693 0.116254
vt 0.615743 0.390344
v -1791.275757 -771.673950 -5908.587891
vn 0.026738 -0.995538 0.090495
vt 0.500884 0.349985
v -1860.433472 -774.377197 -5956.524414
vn -0.050849 -0.997132 0.056058
vt 0.383995 0.391770
v -1889.085815 -774.167847 -6026.632813
vn -0.075590 -0.996950 -0.019405
vt 0.351031 0.512231
f 2/2/2 3/3/3 1/1/1
f 7/7/7 1/1/1 3/3/3
f 1/1/1 7/7/7 8/8/8
f 5/5/5 3/3/3 4/4/4
f 3/3/3 5/5/5 7/7/7
f 6/6/6 7/7/7 5/5/5
