mtllib TROLLHOLE02_PS-SECRETSTALAG35.mtl
g -SecretStalag35
usemtl Stalag
v -13636.607422 854.484558 -4616.458008
vn 0.344114 -0.869553 -0.354207
vt 0.755013 0.999501
v -13564.319336 862.424744 -4515.296387
vn 0.601093 -0.776210 -0.190221
vt 0.874602 0.999501
v -13613.288086 813.290405 -4503.788574
vn 0.726595 -0.609247 -0.317613
vt 0.873766 0.915537
v -13665.621094 803.276184 -4555.229004
vn 0.263187 -0.652679 -0.710452
vt 0.752355 0.915537
v -13553.242188 865.598999 -4410.563477
vn 0.588120 -0.804815 0.079923
vt 0.994191 0.999501
v -13605.739258 809.510498 -4416.883301
vn 0.784388 -0.606093 0.131858
vt 0.994403 0.915537
v -13640.925781 745.560364 -4440.488770
vn 0.875878 -0.465021 0.128811
vt 0.994615 0.831573
v -13649.363281 749.673706 -4499.552734
vn 0.784333 -0.420896 -0.455706
vt 0.872929 0.831573
v -13688.182617 743.646240 -4529.808594
vn 0.135038 -0.363691 -0.921680
vt 0.749211 0.758796
v -13741.617188 727.360291 -4501.776367
vn -0.613902 -0.235725 -0.753364
vt 0.625801 0.758796
v -13743.597656 781.745728 -4528.341797
vn -0.337229 -0.642761 -0.687848
vt 0.629399 0.915537
v -13779.307617 712.090515 -4443.824707
vn -0.936793 -0.252738 -0.241956
vt 0.502244 0.758796
v -13801.204102 762.193665 -4453.712891
vn -0.658843 -0.699753 -0.276175
vt 0.505510 0.915537
v -13854.333984 791.708252 -4473.896484
vn -0.331453 -0.936810 -0.111920
vt 0.505013 0.999501
v -13761.643555 809.715271 -4571.439453
vn 0.082629 -0.955666 -0.282623
vt 0.630013 0.999501
v -13553.242188 865.598999 -4410.563477
vn 0.588120 -0.804815 0.079923
vt 0.003209 0.999501
v -13621.852539 846.598694 -4287.595215
vn 0.542015 -0.753235 0.372635
vt 0.129111 0.999501
v -13662.114258 789.659485 -4337.377441
vn 0.595966 -0.655892 0.463282
vt 0.130176 0.915537
v -13605.739258 809.510498 -4416.883301
vn 0.784388 -0.606093 0.131858
vt 0.003422 0.915537
v -13751.578125 813.764404 -4222.662109
vn 0.028413 -0.884563 0.465554
vt 0.255013 0.999501
v -13738.859375 767.830200 -4305.611816
vn 0.016722 -0.789005 0.614159
vt 0.256334 0.915537
v -13732.097656 716.271179 -4353.627930
vn 0.001297 -0.558481 0.829516
vt 0.255273 0.758796
v -13678.639648 731.423706 -4382.098145
vn 0.667344 -0.496813 0.554823
vt 0.129719 0.758796
v -13640.925781 745.560364 -4440.488770
vn 0.875878 -0.465021 0.128811
vt 0.003634 0.831573
v -13825.065430 786.489563 -4344.746094
vn -0.478285 -0.838890 0.259823
vt 0.380013 0.999501
v -13792.423828 758.114990 -4361.930664
vn -0.623580 -0.707863 0.331781
vt 0.381300 0.915537
v -13770.893555 709.110474 -4384.322266
vn -0.795500 -0.379106 0.472715
vt 0.379092 0.758796
v -13716.085938 645.831848 -4505.597656
vn 0.013873 -0.189381 -0.981806
vt 0.742386 0.456503
v -13749.068359 636.672485 -4485.017090
vn -0.710037 -0.015677 -0.703989
vt 0.616235 0.456503
v -13741.272461 535.101868 -4490.994629
vn -0.065225 -0.013408 -0.997781
vt 0.734012 0.081433
v -13762.727539 531.959412 -4478.342773
vn -0.751882 0.105300 -0.650834
vt 0.603684 0.081433
v -13773.130859 529.534546 -4454.269043
vn -0.998550 0.043155 0.032183
vt 0.473356 0.081433
v -13771.371094 627.762207 -4447.162598
vn -0.984293 -0.027627 -0.174370
vt 0.491452 0.456503
v -13764.745117 625.489868 -4411.938477
vn -0.801876 -0.177457 0.570529
vt 0.369891 0.456503
v -13739.600586 629.057861 -4395.980469
vn 0.033215 -0.334447 0.941829
vt 0.248998 0.456503
v -13763.241211 529.184448 -4429.964355
vn -0.742532 -0.076045 0.665480
vt 0.357194 0.081433
v -13742.042969 530.939697 -4418.425293
vn 0.023449 -0.034480 0.999130
vt 0.241032 0.081433
v -13706.344727 637.668945 -4415.921387
vn 0.714378 -0.310014 0.627339
vt 0.126221 0.456503
v -13683.769531 646.031006 -4453.136719
vn 0.942926 -0.307790 0.127106
vt 0.002502 0.456503
v -13718.514648 534.831055 -4432.651855
vn 0.732597 0.050815 0.678763
vt 0.121201 0.081433
v -13706.040039 538.004272 -4458.301270
vn 0.998784 0.007223 -0.048767
vt 0.001370 0.081433
v -13690.667969 648.851563 -4489.000000
vn 0.769877 -0.301579 -0.562441
vt 0.868056 0.456503
v -13683.769531 646.031006 -4453.136719
vn 0.942926 -0.307790 0.127106
vt 0.993483 0.456503
v -13706.040039 538.004272 -4458.301270
vn 0.998784 0.007223 -0.048767
vt 0.992351 0.081433
v -13718.000977 537.605835 -4481.031250
vn 0.677732 -0.074258 -0.731550
vt 0.863182 0.081433
v -13747.878906 291.923370 -4691.295898
vn -0.048489 0.983673 -0.173307
vt 0.755013 0.999501
v -13875.458984 294.307770 -4558.030273
vn -0.144900 0.985425 -0.089119
vt 0.874602 0.999501
v -13832.809570 315.248077 -4526.318359
vn -0.466302 0.843027 -0.268082
vt 0.873766 0.915537
v -13758.429688 315.941681 -4591.351074
vn -0.160250 0.902063 -0.400752
vt 0.752355 0.915537
v -13939.596680 292.254059 -4368.843750
vn -0.167837 0.985694 0.015442
vt 0.994191 0.999501
v -13851.000977 318.228668 -4427.964844
vn -0.475092 0.877706 0.062610
vt 0.994403 0.915537
v -13802.948242 363.563751 -4448.044434
vn -0.821212 0.529153 0.213560
vt 0.994615 0.831573
v -13801.798828 359.268829 -4497.541504
vn -0.744746 0.523399 -0.414012
vt 0.872929 0.831573
v -13760.885742 360.429352 -4524.835938
vn -0.198344 0.601242 -0.774059
vt 0.749211 0.758796
v -13685.746094 369.106537 -4510.532227
vn 0.237637 0.636937 -0.733376
vt 0.625801 0.758796
v -13651.345703 321.685883 -4569.981934
vn 0.209346 0.875970 -0.434569
vt 0.629399 0.915537
v -13628.867188 378.320404 -4467.529785
vn 0.688916 0.679315 -0.252836
vt 0.502244 0.758796
v -13578.804688 327.885468 -4493.460449
vn 0.589160 0.792335 -0.158418
vt 0.505510 0.915537
v -13533.578125 297.478424 -4507.374023
vn 0.236610 0.970867 -0.037848
vt 0.505013 0.999501
v -13605.115234 295.935028 -4625.597656
vn 0.100875 0.984185 -0.145614
vt 0.630013 0.999501
v -13939.596680 292.254059 -4368.843750
vn -0.167837 0.985694 0.015442
vt 0.003209 0.999501
v -13834.770508 296.368256 -4277.244629
vn -0.097335 0.990638 0.095718
vt 0.129111 0.999501
v -13789.521484 323.507050 -4349.371582
vn -0.309041 0.878240 0.364951
vt 0.130176 0.915537
v -13851.000977 318.228668 -4427.964844
vn -0.475092 0.877706 0.062610
vt 0.003422 0.915537
v -13718.329102 293.897614 -4166.325195
vn 0.009573 0.995066 0.098757
vt 0.255013 0.999501
v -13693.496094 328.330048 -4325.930176
vn 0.092640 0.869890 0.484468
vt 0.256334 0.915537
v -13696.375977 378.406281 -4372.134766
vn 0.069991 0.583754 0.808908
vt 0.255273 0.758796
v -13758.791992 371.253448 -4395.741211
vn -0.528966 0.559110 0.638428
vt 0.129719 0.758796
v -13802.948242 363.563751 -4448.044434
vn -0.821212 0.529153 0.213560
vt 0.003634 0.831573
v -13586.631836 297.991119 -4313.626953
vn 0.185299 0.978021 0.095595
vt 0.380013 0.999501
v -13608.056641 329.944855 -4393.034668
vn 0.543598 0.769344 0.335575
vt 0.381300 0.915537
v -13642.739258 381.090973 -4408.730957
vn 0.667857 0.580575 0.465724
vt 0.379092 0.758796
v -13755.685547 436.725189 -4494.395508
vn -0.142579 0.218503 -0.965364
vt 0.742386 0.456503
v -13712.162109 442.718781 -4484.545410
vn 0.443400 0.254884 -0.859320
vt 0.616235 0.456503
v -13718.000977 537.605835 -4481.031250
vn 0.677732 -0.074258 -0.731550
vt 0.603684 0.081433
v -13706.040039 538.004272 -4458.301270
vn 0.998784 0.007223 -0.048767
vt 0.473356 0.081433
v -13679.508789 448.563873 -4459.455078
vn 0.838957 0.434454 -0.327720
vt 0.491452 0.456503
v -13688.435547 449.345734 -4426.096191
vn 0.701073 0.434234 0.565630
vt 0.369891 0.456503
v -13720.096680 446.665802 -4406.722168
vn 0.009541 0.302175 0.953205
vt 0.248998 0.456503
v -13718.514648 534.831055 -4432.651855
vn 0.732597 0.050815 0.678763
vt 0.357194 0.081433
v -13755.644531 442.125702 -4423.584961
vn -0.653026 0.161945 0.739818
vt 0.126221 0.456503
v -13780.323242 437.733917 -4455.687988
vn -0.940250 0.189865 0.282632
vt 0.002502 0.456503
v -13763.241211 529.184448 -4429.964355
vn -0.742532 -0.076045 0.665480
vt 0.121201 0.081433
v -13773.130859 529.534546 -4454.269043
vn -0.998550 0.043155 0.032183
vt 0.001370 0.081433
v -13779.371094 435.498749 -4482.034180
vn -0.807369 0.240398 -0.538854
vt 0.868056 0.456503
v -13780.323242 437.733917 -4455.687988
vn -0.940250 0.189865 0.282632
vt 0.993483 0.456503
v -13773.130859 529.534546 -4454.269043
vn -0.998550 0.043155 0.032183
vt 0.992351 0.081433
v -13762.727539 531.959412 -4478.342773
vn -0.751882 0.105300 -0.650834
vt 0.863182 0.081433
f 18/18/18 17/17/17 20/20/20
f 17/17/17 18/18/18 16/16/16
f 19/19/19 16/16/16 18/18/18
f 18/18/18 24/24/24 19/19/19
f 24/24/24 18/18/18 23/23/23
f 22/22/22 23/23/23 18/18/18
f 23/23/23 22/22/22 38/38/38
f 38/38/38 24/24/24 23/23/23
f 24/24/24 38/38/38 39/39/39
f 41/41/41 39/39/39 38/38/38
f 38/38/38 40/40/40 41/41/41
f 21/21/21 18/18/18 20/20/20
f 18/18/18 21/21/21 22/22/22
f 26/26/26 22/22/22 21/21/21
f 22/22/22 26/26/26 27/27/27
f 26/26/26 25/25/25 14/14/14
f 25/25/25 26/26/26 20/20/20
f 21/21/21 20/20/20 26/26/26
f 11/11/11 15/15/15 1/1/1
f 15/15/15 11/11/11 14/14/14
f 13/13/13 14/14/14 11/11/11
f 14/14/14 13/13/13 26/26/26
f 12/12/12 26/26/26 13/13/13
f 26/26/26 12/12/12 27/27/27
f 34/34/34 27/27/27 12/12/12
f 27/27/27 34/34/34 22/22/22
f 35/35/35 22/22/22 34/34/34
f 22/22/22 35/35/35 38/38/38
f 37/37/37 38/38/38 35/35/35
f 38/38/38 37/37/37 40/40/40
f 37/37/37 35/35/35 34/34/34
f 12/12/12 33/33/33 34/34/34
f 29/29/29 12/12/12 10/10/10
f 12/12/12 29/29/29 33/33/33
f 32/32/32 33/33/33 29/29/29
f 33/33/33 32/32/32 34/34/34
f 36/36/36 34/34/34 32/32/32
f 34/34/34 36/36/36 37/37/37
f 29/29/29 31/31/31 32/32/32
f 31/31/31 29/29/29 30/30/30
f 11/11/11 12/12/12 13/13/13
f 12/12/12 11/11/11 10/10/10
f 9/9/9 10/10/10 11/11/11
f 10/10/10 9/9/9 29/29/29
f 28/28/28 29/29/29 9/9/9
f 29/29/29 28/28/28 30/30/30
f 42/42/42 30/30/30 28/28/28
f 30/30/30 42/42/42 45/45/45
f 44/44/44 45/45/45 42/42/42
f 9/9/9 42/42/42 28/28/28
f 42/42/42 9/9/9 8/8/8
f 4/4/4 11/11/11 1/1/1
f 11/11/11 4/4/4 9/9/9
f 3/3/3 9/9/9 4/4/4
f 9/9/9 3/3/3 8/8/8
f 7/7/7 8/8/8 3/3/3
f 8/8/8 7/7/7 42/42/42
f 43/43/43 42/42/42 7/7/7
f 42/42/42 43/43/43 44/44/44
f 3/3/3 2/2/2 5/5/5
f 2/2/2 3/3/3 1/1/1
f 4/4/4 1/1/1 3/3/3
f 3/3/3 6/6/6 7/7/7
f 6/6/6 3/3/3 5/5/5
f 85/85/85 30/30/30 73/73/73
f 30/30/30 85/85/85 88/88/88
f 87/87/87 88/88/88 85/85/85
f 85/85/85 86/86/86 87/87/87
f 86/86/86 85/85/85 52/52/52
f 30/30/30 74/74/74 73/73/73
f 54/54/54 73/73/73 74/74/74
f 73/73/73 54/54/54 85/85/85
f 53/53/53 85/85/85 54/54/54
f 85/85/85 53/53/53 52/52/52
f 48/48/48 52/52/52 53/53/53
f 52/52/52 48/48/48 51/51/51
f 50/50/50 51/51/51 48/48/48
f 48/48/48 53/53/53 54/54/54
f 74/74/74 55/55/55 54/54/54
f 48/48/48 47/47/47 50/50/50
f 48/48/48 46/46/46 47/47/47
f 46/46/46 48/48/48 49/49/49
f 54/54/54 49/49/49 48/48/48
f 49/49/49 54/54/54 56/56/56
f 55/55/55 56/56/56 54/54/54
f 56/56/56 55/55/55 57/57/57
f 74/74/74 57/57/57 55/55/55
f 57/57/57 74/74/74 77/77/77
f 46/46/46 49/49/49 56/56/56
f 57/57/57 58/58/58 56/56/56
f 57/57/57 71/71/71 58/58/58
f 59/59/59 58/58/58 71/71/71
f 58/58/58 59/59/59 56/56/56
f 60/60/60 56/56/56 59/59/59
f 56/56/56 60/60/60 46/46/46
f 71/71/71 70/70/70 59/59/59
f 70/70/70 71/71/71 65/65/65
f 66/66/66 65/65/65 71/71/71
f 62/62/62 65/65/65 63/63/63
f 66/66/66 63/63/63 65/65/65
f 63/63/63 66/66/66 67/67/67
f 71/71/71 67/67/67 66/66/66
f 67/67/67 71/71/71 72/72/72
f 57/57/57 72/72/72 71/71/71
f 72/72/72 57/57/57 78/78/78
f 77/77/77 78/78/78 57/57/57
f 78/78/78 77/77/77 76/76/76
f 74/74/74 76/76/76 77/77/77
f 76/76/76 74/74/74 75/75/75
f 30/30/30 75/75/75 74/74/74
f 78/78/78 67/67/67 72/72/72
f 67/67/67 78/78/78 79/79/79
f 63/63/63 61/61/61 62/62/62
f 61/61/61 63/63/63 64/64/64
f 76/76/76 80/80/80 78/78/78
f 37/37/37 78/78/78 80/80/80
f 78/78/78 37/37/37 79/79/79
f 81/81/81 79/79/79 37/37/37
f 79/79/79 81/81/81 67/67/67
f 68/68/68 67/67/67 81/81/81
f 67/67/67 68/68/68 63/63/63
f 69/69/69 63/63/63 68/68/68
f 63/63/63 69/69/69 64/64/64
f 81/81/81 69/69/69 68/68/68
f 69/69/69 81/81/81 82/82/82
f 81/81/81 84/84/84 82/82/82
f 84/84/84 81/81/81 83/83/83
f 37/37/37 83/83/83 81/81/81
