mtllib TROLLHOLE02_PS-SECRETSTALAG34.mtl
g -SecretStalag34
usemtl Stalag
v -14033.561523 866.703369 -4967.213867
vn -0.240776 -0.694891 -0.677608
vt 0.743599 0.999501
v -13925.584961 860.016907 -4941.964355
vn 0.426646 -0.488302 -0.761272
vt 0.869969 0.999501
v -13911.791992 797.033203 -4899.098633
vn 0.436198 -0.474235 -0.764743
vt 0.869888 0.926612
v -13995.524414 800.796570 -4916.934570
vn -0.171397 -0.540833 -0.823482
vt 0.744007 0.926612
v -13820.234375 857.365906 -4839.100098
vn 0.598216 -0.718844 -0.354121
vt 0.996339 0.999501
v -13864.293945 791.013245 -4833.027344
vn 0.799296 -0.580746 -0.154465
vt 0.996170 0.926612
v -13915.087891 726.566528 -4837.278320
vn 0.807179 -0.579895 -0.110378
vt 0.996002 0.853724
v -13942.277344 731.839783 -4882.169922
vn 0.416213 -0.450994 -0.789539
vt 0.869806 0.853724
v -13997.163086 737.979126 -4886.837891
vn -0.281862 -0.326394 -0.902231
vt 0.743617 0.777169
v -14054.096680 736.555115 -4840.462402
vn -0.769662 -0.241394 -0.591058
vt 0.618250 0.777169
v -14071.368164 799.577820 -4862.233398
vn -0.697964 -0.498753 -0.513898
vt 0.618930 0.926612
v -14082.817383 733.639526 -4774.716309
vn -0.982973 -0.174320 0.058106
vt 0.493688 0.777169
v -14103.656250 794.830078 -4777.729980
vn -0.854910 -0.517878 0.030521
vt 0.494332 0.926612
v -14154.617188 846.952148 -4731.818848
vn -0.610114 -0.791881 0.026171
vt 0.493599 0.999501
v -14122.019531 861.533752 -4873.596191
vn -0.503883 -0.791955 -0.344831
vt 0.618599 0.999501
v -13820.234375 857.365906 -4839.100098
vn 0.598216 -0.718844 -0.354121
vt 0.001543 0.999501
v -13852.123047 813.819763 -4703.096191
vn 0.369563 -0.929206 -0.000097
vt 0.122571 0.999501
v -13897.150391 785.461853 -4743.021973
vn 0.586062 -0.745216 0.318096
vt 0.123472 0.926612
v -13864.293945 791.013245 -4833.027344
vn 0.799296 -0.580746 -0.154465
vt 0.001428 0.926612
v -13953.881836 804.082947 -4619.330566
vn -0.040375 -0.993724 0.104323
vt 0.243599 0.999501
v -13973.560547 783.439453 -4682.820313
vn 0.088089 -0.794599 0.600711
vt 0.246097 0.926612
v -13995.603516 736.103760 -4708.056641
vn 0.199255 -0.417114 0.886743
vt 0.246990 0.777169
v -13941.237305 730.589539 -4762.982422
vn 0.688083 -0.549863 0.473490
vt 0.124174 0.777169
v -13915.087891 726.566528 -4837.278320
vn 0.807179 -0.579895 -0.110378
vt 0.001312 0.853724
v -14061.653320 816.017395 -4674.533691
vn -0.311211 -0.926732 0.210514
vt 0.368599 0.999501
v -14056.724609 788.006470 -4706.157227
vn -0.520146 -0.578728 0.628110
vt 0.369886 0.926612
v -14053.056641 735.304871 -4721.273926
vn -0.591148 -0.184989 0.785062
vt 0.370048 0.777169
v -14022.977539 646.556213 -4851.674805
vn -0.330032 -0.221565 -0.917599
vt 0.742315 0.474617
v -14060.515625 645.660461 -4819.695801
vn -0.805560 -0.043922 -0.590884
vt 0.615547 0.474617
v -14047.286133 547.848267 -4823.114258
vn -0.271801 -0.177091 -0.945919
vt 0.740926 0.095510
v -14073.481445 548.631775 -4800.383301
vn -0.822037 -0.050144 -0.567222
vt 0.611831 0.095510
v -14086.005859 549.446045 -4766.626953
vn -0.995195 0.088848 0.041148
vt 0.496642 0.107930
v -14079.962891 644.277649 -4774.890137
vn -0.999125 0.017412 0.038039
vt 0.490290 0.474617
v -14060.890625 646.974426 -4739.043945
vn -0.611684 -0.020591 0.790834
vt 0.367961 0.474617
v -14023.541016 648.527161 -4730.696289
vn 0.268137 -0.196812 0.943063
vt 0.246658 0.474617
v -14071.716797 550.746643 -4739.500977
vn -0.622276 0.227725 0.748942
vt 0.364749 0.095510
v -14044.638672 551.020752 -4731.790039
vn 0.253947 0.191303 0.948111
vt 0.246761 0.095510
v -13988.156250 643.711304 -4768.387695
vn 0.791779 -0.319772 0.520415
vt 0.124479 0.474617
v -13970.861328 639.382507 -4818.904785
vn 0.881898 -0.465582 -0.074086
vt 0.001860 0.474617
v -14018.800781 548.755371 -4756.281738
vn 0.842330 0.032331 0.537992
vt 0.124585 0.095510
v -14006.632813 546.459045 -4791.799316
vn 0.987613 -0.138682 -0.073408
vt -0.002938 0.107930
v -13987.781250 642.397156 -4849.039551
vn 0.448012 -0.456666 -0.768597
vt 0.869177 0.474617
v -13970.861328 639.382507 -4818.904785
vn 0.881898 -0.465582 -0.074086
vt 0.996085 0.474617
v -14006.632813 546.459045 -4791.799316
vn 0.987613 -0.138682 -0.073408
vt 0.996719 0.107930
v -14020.565430 546.640503 -4817.165039
vn 0.574384 -0.253764 -0.778259
vt 0.868547 0.095510
v -14049.530273 299.594971 -4943.360840
vn -0.137857 0.945304 -0.295629
vt 0.249904 0.999501
v -14151.612305 300.616486 -4799.513672
vn -0.276698 0.949769 -0.146206
vt 0.373292 0.999501
v -14103.452148 340.464813 -4798.642578
vn -0.662755 0.610352 -0.433850
vt 0.373292 0.928195
v -14029.100586 336.426270 -4872.664551
vn -0.132119 0.776458 -0.616163
vt 0.249098 0.928195
v -14229.806641 296.587250 -4590.395996
vn -0.209458 0.976943 -0.041339
vt 0.496680 0.999501
v -14150.583984 345.109283 -4685.443359
vn -0.748419 0.648722 -0.137947
vt 0.497486 0.928195
v -14109.413086 405.670135 -4705.914551
vn -0.909891 0.407216 -0.079203
vt 0.497483 0.781096
v -14081.290039 398.709747 -4778.661133
vn -0.798712 0.249167 -0.547700
vt 0.373290 0.781096
v -14032.335938 392.663971 -4827.208984
vn -0.225650 0.388432 -0.893422
vt 0.249904 0.856889
v -13963.054688 335.741272 -4849.875977
vn 0.509664 0.717490 -0.474817
vt 0.123292 0.928195
v -13964.951172 299.409485 -4924.301270
vn 0.404126 0.854310 -0.326857
vt 0.123292 0.999501
v -13986.483398 391.651581 -4813.573242
vn 0.601150 0.475902 -0.641978
vt 0.123292 0.856889
v -13967.203125 395.083160 -4758.283203
vn 0.910908 0.412610 -0.000160
vt -0.003320 0.856889
v -13939.986328 338.023834 -4762.293457
vn 0.864293 0.495514 0.086396
vt -0.003320 0.928195
v -13904.692383 295.406952 -4808.844238
vn 0.644466 0.764562 0.010407
vt -0.003320 0.999501
v -14182.145508 302.409637 -4510.591309
vn -0.250459 0.949803 0.187468
vt 0.623292 0.999501
v -14134.965820 347.612152 -4590.699707
vn -0.453074 0.831124 0.322424
vt 0.623292 0.928195
v -14110.888672 296.899261 -4441.854980
vn 0.114455 0.956612 0.267942
vt 0.749904 0.999501
v -14076.371094 347.147247 -4560.749023
vn 0.192719 0.803428 0.563349
vt 0.749098 0.928195
v -14049.580078 408.740997 -4629.652832
vn 0.222012 0.672854 0.705676
vt 0.749098 0.781096
v -14092.785156 409.427643 -4646.956055
vn -0.578935 0.668800 0.466413
vt 0.623290 0.781096
v -13980.590820 301.205719 -4607.543945
vn 0.299463 0.939973 0.163622
vt 0.873292 0.999501
v -13994.568359 342.888580 -4641.932129
vn 0.751320 0.474808 0.458340
vt 0.873292 0.928195
v -13904.692383 295.406952 -4808.844238
vn 0.644466 0.764562 0.010407
vt 0.996680 0.999501
v -13939.986328 338.023834 -4762.293457
vn 0.864293 0.495514 0.086396
vt 0.996680 0.928195
v -13967.203125 395.083160 -4758.283203
vn 0.910908 0.412610 -0.000160
vt 0.996680 0.856889
v -13997.979492 402.369659 -4681.868164
vn 0.782507 0.415092 0.464092
vt 0.873295 0.781096
v -14075.852539 467.206757 -4782.973145
vn -0.833863 -0.022514 -0.551512
vt 0.373282 0.482409
v -14044.402344 463.177887 -4812.825684
vn -0.245778 0.014381 -0.969220
vt 0.249903 0.482409
v -14091.855469 471.846466 -4738.305176
vn -0.985786 0.167929 0.005139
vt 0.497472 0.482409
v -14073.481445 548.631775 -4800.383301
vn -0.822037 -0.050144 -0.567222
vt 0.373272 0.107930
v -14047.286133 547.848267 -4823.114258
vn -0.271801 -0.177091 -0.945919
vt 0.249902 0.107930
v -14012.892578 462.504974 -4804.005859
vn 0.637001 0.125812 -0.760527
vt 0.123645 0.482409
v -13997.416016 464.793793 -4769.854492
vn 0.967171 0.245777 -0.064603
vt -0.002957 0.482409
v -14020.565430 546.640503 -4817.165039
vn 0.574384 -0.253764 -0.778259
vt 0.123654 0.107930
v -14014.065430 469.649933 -4723.713867
vn 0.800032 0.368278 0.473624
vt 0.873303 0.482409
v -14046.161133 473.895416 -4692.387695
vn 0.232212 0.561521 0.794211
vt 0.749099 0.482409
v -13997.416016 464.793793 -4769.854492
vn 0.967171 0.245777 -0.064603
vt 0.996700 0.482409
v -14018.800781 548.755371 -4756.281738
vn 0.842330 0.032331 0.537992
vt 0.873313 0.107930
v -14044.638672 551.020752 -4731.790039
vn 0.253947 0.191303 0.948111
vt 0.749907 0.107930
v -14077.024414 474.351715 -4702.680176
vn -0.624185 0.480952 0.615693
vt 0.623283 0.482409
v -14071.716797 550.746643 -4739.500977
vn -0.622276 0.227725 0.748942
vt 0.623275 0.107930
f 78/78/78 79/79/79 58/58/58
f 79/79/79 78/78/78 41/41/41
f 80/80/80 41/41/41 78/78/78
f 78/78/78 77/77/77 80/80/80
f 77/77/77 78/78/78 74/74/74
f 55/55/55 59/59/59 60/60/60
f 59/59/59 55/55/55 58/58/58
f 57/57/57 58/58/58 55/55/55
f 58/58/58 57/57/57 78/78/78
f 54/54/54 78/78/78 57/57/57
f 78/78/78 54/54/54 74/74/74
f 73/73/73 74/74/74 54/54/54
f 74/74/74 73/73/73 77/77/77
f 76/76/76 77/77/77 73/73/73
f 55/55/55 54/54/54 57/57/57
f 54/54/54 55/55/55 49/49/49
f 73/73/73 32/32/32 76/76/76
f 32/32/32 73/73/73 75/75/75
f 60/60/60 56/56/56 55/55/55
f 46/46/46 55/55/55 56/56/56
f 55/55/55 46/46/46 49/49/49
f 48/48/48 49/49/49 46/46/46
f 49/49/49 48/48/48 54/54/54
f 53/53/53 54/54/54 48/48/48
f 54/54/54 53/53/53 73/73/73
f 52/52/52 73/73/73 53/53/53
f 73/73/73 52/52/52 75/75/75
f 86/86/86 75/75/75 52/52/52
f 75/75/75 86/86/86 32/32/32
f 87/87/87 32/32/32 86/86/86
f 52/52/52 53/53/53 48/48/48
f 46/46/46 47/47/47 48/48/48
f 52/52/52 66/66/66 86/86/86
f 85/85/85 87/87/87 86/86/86
f 47/47/47 50/50/50 48/48/48
f 51/51/51 48/48/48 50/50/50
f 48/48/48 51/51/51 52/52/52
f 62/62/62 52/52/52 51/51/51
f 52/52/52 62/62/62 66/66/66
f 65/65/65 66/66/66 62/62/62
f 66/66/66 65/65/65 86/86/86
f 82/82/82 86/86/86 65/65/65
f 86/86/86 82/82/82 85/85/85
f 81/81/81 85/85/85 82/82/82
f 85/85/85 81/81/81 84/84/84
f 44/44/44 84/84/84 81/81/81
f 62/62/62 50/50/50 61/61/61
f 50/50/50 62/62/62 51/51/51
f 81/81/81 65/65/65 72/72/72
f 65/65/65 81/81/81 82/82/82
f 81/81/81 83/83/83 44/44/44
f 83/83/83 81/81/81 71/71/71
f 72/72/72 71/71/71 81/81/81
f 71/71/71 72/72/72 68/68/68
f 65/65/65 68/68/68 72/72/72
f 68/68/68 65/65/65 64/64/64
f 62/62/62 64/64/64 65/65/65
f 64/64/64 62/62/62 63/63/63
f 61/61/61 63/63/63 62/62/62
f 68/68/68 67/67/67 69/69/69
f 67/67/67 68/68/68 63/63/63
f 64/64/64 63/63/63 68/68/68
f 68/68/68 70/70/70 71/71/71
f 70/70/70 68/68/68 69/69/69
f 4/4/4 11/11/11 1/1/1
f 11/11/11 4/4/4 9/9/9
f 3/3/3 9/9/9 4/4/4
f 9/9/9 3/3/3 8/8/8
f 7/7/7 8/8/8 3/3/3
f 8/8/8 7/7/7 42/42/42
f 43/43/43 42/42/42 7/7/7
f 42/42/42 43/43/43 44/44/44
f 9/9/9 42/42/42 28/28/28
f 42/42/42 9/9/9 8/8/8
f 3/3/3 2/2/2 5/5/5
f 2/2/2 3/3/3 1/1/1
f 4/4/4 1/1/1 3/3/3
f 3/3/3 6/6/6 7/7/7
f 6/6/6 3/3/3 5/5/5
f 11/11/11 12/12/12 13/13/13
f 12/12/12 11/11/11 10/10/10
f 9/9/9 10/10/10 11/11/11
f 10/10/10 9/9/9 29/29/29
f 28/28/28 29/29/29 9/9/9
f 29/29/29 28/28/28 30/30/30
f 42/42/42 30/30/30 28/28/28
f 30/30/30 42/42/42 45/45/45
f 44/44/44 45/45/45 42/42/42
f 30/30/30 31/31/31 29/29/29
f 32/32/32 29/29/29 31/31/31
f 29/29/29 32/32/32 33/33/33
f 34/34/34 32/32/32 36/36/36
f 32/32/32 34/34/34 33/33/33
f 12/12/12 33/33/33 34/34/34
f 33/33/33 12/12/12 29/29/29
f 10/10/10 29/29/29 12/12/12
f 34/34/34 37/37/37 35/35/35
f 37/37/37 34/34/34 36/36/36
f 11/11/11 15/15/15 1/1/1
f 15/15/15 11/11/11 14/14/14
f 13/13/13 14/14/14 11/11/11
f 14/14/14 13/13/13 26/26/26
f 12/12/12 26/26/26 13/13/13
f 26/26/26 12/12/12 27/27/27
f 34/34/34 27/27/27 12/12/12
f 27/27/27 34/34/34 22/22/22
f 35/35/35 22/22/22 34/34/34
f 22/22/22 35/35/35 38/38/38
f 37/37/37 38/38/38 35/35/35
f 38/38/38 37/37/37 40/40/40
f 21/21/21 18/18/18 20/20/20
f 18/18/18 21/21/21 22/22/22
f 26/26/26 22/22/22 21/21/21
f 22/22/22 26/26/26 27/27/27
f 26/26/26 25/25/25 14/14/14
f 25/25/25 26/26/26 20/20/20
f 21/21/21 20/20/20 26/26/26
f 18/18/18 24/24/24 19/19/19
f 24/24/24 18/18/18 23/23/23
f 22/22/22 23/23/23 18/18/18
f 23/23/23 22/22/22 38/38/38
f 24/24/24 23/23/23 38/38/38
f 38/38/38 39/39/39 24/24/24
f 39/39/39 38/38/38 41/41/41
f 40/40/40 41/41/41 38/38/38
f 18/18/18 17/17/17 20/20/20
f 17/17/17 18/18/18 16/16/16
f 19/19/19 16/16/16 18/18/18
