mtllib TROLLHOLE02_HOLECAP44.mtl
g HoleCap44
usemtl Stalagcap
v 753.076843 -530.064209 -6984.574707
vn 0.045244 -0.995440 -0.083979
vt 0.401034 0.615871
v 787.824280 -527.326599 -7011.030273
vn 0.061226 -0.994810 -0.081273
vt 0.496959 0.638621
v 858.215881 -520.036804 -7019.563477
vn 0.153967 -0.969363 -0.191391
vt 0.608884 0.620013
v 896.372070 -518.118103 -6976.220703
vn 0.297795 -0.947318 -0.117928
vt 0.641847 0.507871
v 892.106628 -521.204895 -6917.086914
vn 0.238675 -0.970219 0.041354
vt 0.615743 0.390344
v 836.272339 -529.212036 -6902.583984
vn 0.170078 -0.980341 0.100028
vt 0.500884 0.349985
v 785.743652 -533.441406 -6858.228027
vn 0.135205 -0.990663 0.017525
vt 0.383995 0.391770
v 752.309265 -535.650269 -6915.861816
vn 0.085845 -0.994615 -0.058058
vt 0.351031 0.512231
f 5/5/5 6/6/6 1/1/1
f 7/7/7 1/1/1 6/6/6
f 1/1/1 7/7/7 8/8/8
f 3/3/3 1/1/1 2/2/2
f 1/1/1 3/3/3 5/5/5
f 4/4/4 5/5/5 3/3/3
