mtllib TROLLHOLE02_LUKEGROUND01.mtl
g LukeGround01
usemtl Lvl_roast_m_cliffsides01
v -5746.950195 -1942.118774 -16250.181641
vn -0.018290 0.981446 0.190865
vt 2.986022 -3.187349
v -5863.151367 -1944.250000 -16254.135742
vn -0.033549 0.979259 0.199814
vt 3.230605 -3.180693
v -5851.681641 -1999.588013 -15906.750000
vn -0.012352 0.996508 0.082582
vt 3.206463 -3.765579
v -5721.209473 -1999.533569 -15903.039063
vn -0.020616 0.998134 0.057472
vt 2.931843 -3.771828
v -5721.209473 -1999.533569 -15903.039063
vn -0.020616 0.998134 0.057472
vt 2.931843 -2.771828
v -5851.681641 -1999.588013 -15906.750000
vn -0.012352 0.996508 0.082582
vt 3.206463 -2.765579
v -5657.148926 -1999.611572 -15449.176758
vn -0.022568 0.997767 -0.062869
vt 2.797008 -3.535986
v -5657.148926 -1999.611572 -15449.176758
vn -0.022568 0.997767 -0.062869
vt 3.797008 -3.535986
v -5449.448242 -1988.171631 -15419.067383
vn -0.048748 0.995010 -0.087055
vt 3.359833 -3.586681
v -5721.209473 -1999.533569 -15903.039063
vn -0.020616 0.998134 0.057472
vt 3.931843 -2.771828
v -5449.448242 -1988.171631 -15419.067383
vn -0.048748 0.995010 -0.087055
vt 3.359833 -2.586681
v -5657.148926 -1999.611572 -15449.176758
vn -0.022568 0.997767 -0.062869
vt 3.797008 -2.535986
v -5550.658691 -1931.883789 -14970.477539
vn -0.038685 0.988207 -0.148155
vt 3.572864 -3.341961
v -5333.353516 -1914.832275 -14933.414063
vn -0.056798 0.986508 -0.153547
vt 3.115474 -3.404366
v -5394.553711 -1875.758789 -14674.084961
vn -0.050114 0.985594 -0.161536
vt 3.244289 -3.840994
v -5109.191406 -1851.359985 -14642.494141
vn -0.063183 0.985756 -0.155862
vt 2.643652 -3.894182
v -5109.191406 -1851.359985 -14642.494141
vn -0.063183 0.985756 -0.155862
vt 2.643652 -2.894182
v -5394.553711 -1875.758789 -14674.084961
vn -0.050114 0.985594 -0.161536
vt 3.244289 -2.840994
v -5277.164063 -1806.120972 -14280.279297
vn -0.050458 0.991659 -0.118602
vt 2.997206 -3.607841
v -5277.164063 -1806.120972 -14280.279297
vn -0.050458 0.991659 -0.118602
vt 3.997206 -3.607841
v -4973.191406 -1785.825195 -14260.780273
vn -0.055046 0.994048 -0.094013
vt 3.357396 -3.640671
v -5109.191406 -1851.359985 -14642.494141
vn -0.063183 0.985756 -0.155862
vt 3.643652 -2.894182
v -4973.191406 -1785.825195 -14260.780273
vn -0.055046 0.994048 -0.094013
vt 3.357396 -2.640671
v -5277.164063 -1806.120972 -14280.279297
vn -0.050458 0.991659 -0.118602
vt 3.997206 -2.607841
v -5227.311523 -1781.762085 -13991.035156
vn -0.034372 0.997977 -0.053481
vt 3.916587 -3.186153
v -4844.372559 -1767.125000 -14047.924805
vn -0.042406 0.998694 -0.028494
vt 3.114438 -3.107628
v -4986.760254 -1773.047485 -13813.794922
vn -0.015233 0.999479 -0.028468
vt 3.385956 -3.615656
v -5227.311523 -1781.762085 -13991.035156
vn -0.034372 0.997977 -0.053481
vt 2.916587 -3.186153
v -5182.903809 -1763.831543 -13682.850586
vn -0.005003 0.997288 -0.073429
vt 3.073695 -3.781734
v -4986.760254 -1773.047485 -13813.794922
vn -0.015233 0.999479 -0.028468
vt 2.385956 -3.615656
v -6078.480469 -1869.865234 -16609.914063
vn -0.037994 0.964527 0.261236
vt 3.683836 -2.581675
v -6095.553223 -1949.614990 -16262.042969
vn -0.012767 0.980986 0.193657
vt 3.719771 -3.167379
v -5979.352051 -1947.472778 -16258.088867
vn -0.036169 0.979912 0.196124
vt 3.475188 -3.174036
v -5976.550781 -1865.645386 -16605.718750
vn -0.080608 0.958964 0.271828
vt 3.469292 -2.588739
v -6486.199707 -1852.057983 -16626.701172
vn 0.067783 0.952817 0.295881
vt 3.542014 -2.553411
v -6560.357422 -1941.001465 -16277.857422
vn 0.018652 0.978269 0.206497
vt 3.698102 -3.140753
v -6444.156250 -1945.410156 -16273.903320
vn 0.026620 0.978623 0.203934
vt 3.453521 -3.147410
v -6384.270020 -1860.327393 -16622.503906
vn 0.058317 0.958364 0.279531
vt 3.327469 -2.560478
v -5982.153809 -2001.138672 -15910.459961
vn -0.018546 0.996408 0.082627
vt 3.481085 -2.759333
v -6112.625977 -2002.477905 -15914.170898
vn -0.010256 0.995598 0.093164
vt 3.755707 -2.753086
v -6072.550781 -2007.707397 -15509.395508
vn -0.008084 0.998368 -0.056540
vt 3.671355 -3.434597
v -5864.850098 -2002.846069 -15479.286133
vn -0.009645 0.998231 -0.058669
vt 3.234181 -3.485292
v -6634.515137 -1999.914429 -15929.013672
vn 0.003161 0.996041 0.088841
vt 2.854193 -2.728094
v -6903.354492 -2011.343018 -15629.833008
vn 0.025974 0.999159 -0.031733
vt 3.420053 -3.231819
v -6695.653320 -2011.410522 -15599.723633
vn 0.010151 0.999217 -0.038244
vt 2.982878 -3.282513
v -6695.653320 -2011.410522 -15599.723633
vn 0.010151 0.999217 -0.038244
vt 3.982878 -3.282513
v -6504.042969 -2002.023438 -15925.302734
vn 0.010329 0.995070 0.098641
vt 3.579571 -2.734343
v -6634.515137 -1999.914429 -15929.013672
vn 0.003161 0.996041 0.088841
vt 3.854193 -2.728094
v -5864.850098 -2002.846069 -15479.286133
vn -0.009645 0.998231 -0.058669
vt 3.234181 -2.485292
v -6072.550781 -2007.707397 -15509.395508
vn -0.008084 0.998368 -0.056540
vt 3.671355 -2.434597
v -5985.269531 -1948.380249 -15044.602539
vn 0.001426 0.989393 -0.145257
vt 3.487644 -3.217159
v -5767.964355 -1943.306030 -15007.540039
vn -0.007471 0.989208 -0.146326
vt 3.030253 -3.279560
v -6854.491211 -1964.344604 -15192.852539
vn 0.028323 0.990957 -0.131157
vt 3.317204 -3.967554
v -6854.491211 -1964.344604 -15192.852539
vn 0.028323 0.990957 -0.131157
vt 3.317204 -2.967554
v -6637.185547 -1963.025391 -15155.790039
vn 0.010221 0.990701 -0.135675
vt 2.859814 -3.029955
v -6695.653320 -2011.410522 -15599.723633
vn 0.010151 0.999217 -0.038244
vt 2.982878 -2.282513
v -5965.278320 -1896.761230 -14737.267578
vn 0.004589 0.987126 -0.159878
vt 3.445566 -3.734613
v -5679.916016 -1892.223755 -14705.675781
vn -0.021424 0.986633 -0.161542
vt 2.844928 -3.787802
v -7106.727539 -1902.611938 -14863.630859
vn 0.058173 0.986477 -0.153231
vt 3.848118 -3.521858
v -6821.365234 -1909.625610 -14832.040039
vn 0.023824 0.986482 -0.162130
vt 3.247479 -3.575047
v -5679.916016 -1892.223755 -14705.675781
vn -0.021424 0.986633 -0.161542
vt 2.844928 -2.787802
v -5965.278320 -1896.761230 -14737.267578
vn 0.004589 0.987126 -0.159878
vt 3.445566 -2.734613
v -5894.776367 -1825.470093 -14264.856445
vn -0.011110 0.992594 -0.120968
vt 3.289799 -3.594086
v -5581.136230 -1821.673950 -14299.777344
vn -0.035326 0.990205 -0.135078
vt 2.637013 -3.575010
v -6821.365234 -1909.625610 -14832.040039
vn 0.023824 0.986482 -0.162130
vt 3.247479 -2.575047
v -7106.727539 -1902.611938 -14863.630859
vn 0.058173 0.986477 -0.153231
vt 3.848118 -2.521858
v -7201.854980 -1825.205688 -14413.784180
vn 0.048137 0.985500 -0.162704
vt 3.836058 -3.410864
v -6897.882813 -1831.332153 -14394.285156
vn 0.013125 0.987213 -0.158867
vt 3.196249 -3.443691
v -5894.776367 -1825.470093 -14264.856445
vn -0.011110 0.992594 -0.120968
vt 3.289799 -2.594086
v -5807.699707 -1796.915283 -13939.854492
vn 0.000060 0.994698 -0.102838
vt 3.222439 -3.326338
v -5584.463379 -1795.949951 -14024.287109
vn -0.028927 0.995577 -0.089382
vt 2.666832 -3.138556
v -5581.136230 -1821.673950 -14299.777344
vn -0.035326 0.990205 -0.135078
vt 2.637013 -2.575010
v -7201.854980 -1825.205688 -14413.784180
vn 0.048137 0.985500 -0.162704
vt 2.836058 -2.410864
v -7323.568359 -1775.824219 -14166.695313
vn 0.067638 0.992718 -0.099680
vt 3.093660 -3.104792
v -6954.798340 -1792.969360 -14159.386719
vn 0.021315 0.992463 -0.120677
vt 2.317464 -3.117096
v -6954.798340 -1792.969360 -14159.386719
vn 0.021315 0.992463 -0.120677
vt 3.317464 -3.117096
v -6897.882813 -1831.332153 -14394.285156
vn 0.013125 0.987213 -0.158867
vt 3.196249 -2.443691
v -7201.854980 -1825.205688 -14413.784180
vn 0.048137 0.985500 -0.162704
vt 3.836058 -2.410864
v -5795.727539 -1761.873047 -13626.756836
vn -0.012467 0.996691 -0.080317
vt 3.358343 -3.973631
v -5525.952148 -1758.485596 -13672.665039
vn -0.008697 0.994486 -0.104512
vt 2.696556 -3.839209
v -7265.924316 -1780.832764 -13913.796875
vn 0.043233 0.998486 -0.034026
vt 3.005494 -3.763105
v -6933.560059 -1761.395630 -13912.952148
vn -0.010062 0.997326 -0.072391
vt 2.343707 -3.765715
v -6282.340332 -1866.046387 -16618.306641
vn 0.027316 0.963482 0.266375
vt 3.112925 -2.567545
v -6327.955566 -1948.091309 -16269.950195
vn 0.013459 0.980814 0.194482
vt 3.208937 -3.154066
v -6211.754395 -1949.389648 -16265.996094
vn 0.003244 0.982062 0.188531
vt 2.964354 -3.160723
v -6180.410156 -1869.539917 -16614.111328
vn 0.010799 0.965351 0.260731
vt 2.898380 -2.574609
v -6373.570801 -2002.592041 -15921.591797
vn 0.000179 0.995867 0.090820
vt 3.304950 -2.740590
v -6487.952637 -2012.410645 -15569.614258
vn 0.002787 0.998986 -0.044930
vt 3.545704 -3.333208
v -6280.251465 -2010.243042 -15539.504883
vn -0.002841 0.999129 -0.041637
vt 3.108530 -3.383904
v -6243.098145 -2002.534668 -15917.881836
vn -0.001134 0.995037 0.099494
vt 3.030328 -2.746837
v -6280.251465 -2010.243042 -15539.504883
vn -0.002841 0.999129 -0.041637
vt 3.108530 -2.383904
v -6487.952637 -2012.410645 -15569.614258
vn 0.002787 0.998986 -0.044930
vt 3.545704 -2.333208
v -6419.880371 -1958.234741 -15118.727539
vn 0.002581 0.989923 -0.141581
vt 3.402424 -3.092358
v -6202.574707 -1953.005493 -15081.665039
vn 0.002883 0.990132 -0.140109
vt 2.945034 -3.154758
v -6536.002930 -1905.539307 -14800.449219
vn 0.002237 0.985079 -0.172091
vt 3.646842 -3.628235
v -6250.640625 -1901.215332 -14768.858398
vn 0.008307 0.986273 -0.164915
vt 3.046204 -3.681425
v -6250.640625 -1901.215332 -14768.858398
vn 0.008307 0.986273 -0.164915
vt 3.046204 -2.681425
v -6536.002930 -1905.539307 -14800.449219
vn 0.002237 0.985079 -0.172091
vt 3.646842 -2.628235
v -6628.379883 -1829.245728 -14397.524414
vn 0.011519 0.989422 -0.144607
vt 3.556440 -3.476522
v -6282.602539 -1827.408081 -14311.833984
vn 0.016718 0.991407 -0.129742
vt 2.916632 -3.535305
v -6628.379883 -1829.245728 -14397.524414
vn 0.011519 0.989422 -0.144607
vt 3.556440 -2.476522
v -6592.080566 -1796.525513 -14107.349609
vn 0.022481 0.991415 -0.128804
vt 3.658051 -3.175604
v -6240.158203 -1796.755127 -14028.258789
vn 0.027345 0.992701 -0.117457
vt 2.998635 -3.200886
v -6282.602539 -1827.408081 -14311.833984
vn 0.016718 0.991407 -0.129742
vt 2.916632 -2.535305
v -6568.059570 -1761.125244 -13835.789063
vn 0.015637 0.997940 -0.062220
vt 3.681919 -3.846176
v -6182.404785 -1762.229858 -13722.707031
vn 0.013140 0.998683 -0.049591
vt 3.059058 -3.919119
v -6695.653320 -2011.410522 -15599.723633
vn 0.010151 0.999217 -0.038244
vt 3.982878 -2.282513
v -6637.185547 -1963.025391 -15155.790039
vn 0.010221 0.990701 -0.135675
vt 3.859814 -3.029955
v -6536.002930 -1905.539307 -14800.449219
vn 0.002237 0.985079 -0.172091
vt 2.646842 -3.628235
v -6536.002930 -1905.539307 -14800.449219
vn 0.002237 0.985079 -0.172091
vt 2.646842 -2.628235
v -6628.379883 -1829.245728 -14397.524414
vn 0.011519 0.989422 -0.144607
vt 2.556440 -3.476522
v -6592.080566 -1796.525513 -14107.349609
vn 0.022481 0.991415 -0.128804
vt 2.658051 -3.175604
v -6628.379883 -1829.245728 -14397.524414
vn 0.011519 0.989422 -0.144607
vt 2.556440 -2.476522
v -6933.560059 -1761.395630 -13912.952148
vn -0.010062 0.997326 -0.072391
vt 3.343707 -3.765715
v -6568.059570 -1761.125244 -13835.789063
vn 0.015637 0.997940 -0.062220
vt 2.681919 -3.846176
v -6180.410156 -1869.539917 -16614.111328
vn 0.010799 0.965351 0.260731
vt 3.898380 -2.574609
v -6211.754395 -1949.389648 -16265.996094
vn 0.003244 0.982062 0.188531
vt 3.964354 -3.160723
v -6112.625977 -2002.477905 -15914.170898
vn -0.010256 0.995598 0.093164
vt 2.755707 -2.753086
v -6072.550781 -2007.707397 -15509.395508
vn -0.008084 0.998368 -0.056540
vt 2.671355 -3.434597
v -6072.550781 -2007.707397 -15509.395508
vn -0.008084 0.998368 -0.056540
vt 2.671355 -2.434597
v -6202.574707 -1953.005493 -15081.665039
vn 0.002883 0.990132 -0.140109
vt 3.945034 -3.154758
v -5985.269531 -1948.380249 -15044.602539
vn 0.001426 0.989393 -0.145257
vt 2.487644 -3.217159
v -5965.278320 -1896.761230 -14737.267578
vn 0.004589 0.987126 -0.159878
vt 2.445566 -3.734613
v -5965.278320 -1896.761230 -14737.267578
vn 0.004589 0.987126 -0.159878
vt 2.445566 -2.734613
v -6282.602539 -1827.408081 -14311.833984
vn 0.016718 0.991407 -0.129742
vt 3.916632 -3.535305
v -6282.602539 -1827.408081 -14311.833984
vn 0.016718 0.991407 -0.129742
vt 3.916632 -2.535305
v -6240.158203 -1796.755127 -14028.258789
vn 0.027345 0.992701 -0.117457
vt 3.998635 -3.200886
v -5807.699707 -1796.915283 -13939.854492
vn 0.000060 0.994698 -0.102838
vt 2.222439 -3.326338
v -5795.727539 -1761.873047 -13626.756836
vn -0.012467 0.996691 -0.080317
vt 2.358343 -3.973631
v -5874.621094 -1859.035522 -16601.521484
vn -0.085133 0.952684 0.291797
vt 3.254746 -2.595806
v -5657.148926 -1999.611572 -15449.176758
vn -0.022568 0.997767 -0.062869
vt 2.797008 -2.535986
v -5550.658691 -1931.883789 -14970.477539
vn -0.038685 0.988207 -0.148155
vt 2.572864 -3.341961
v -5679.916016 -1892.223755 -14705.675781
vn -0.021424 0.986633 -0.161542
vt 3.844928 -3.787802
v -5679.916016 -1892.223755 -14705.675781
vn -0.021424 0.986633 -0.161542
vt 3.844928 -2.787802
v -5581.136230 -1821.673950 -14299.777344
vn -0.035326 0.990205 -0.135078
vt 3.637013 -3.575010
v -5277.164063 -1806.120972 -14280.279297
vn -0.050458 0.991659 -0.118602
vt 2.997206 -2.607841
v -5581.136230 -1821.673950 -14299.777344
vn -0.035326 0.990205 -0.135078
vt 3.637013 -2.575010
v -5584.463379 -1795.949951 -14024.287109
vn -0.028927 0.995577 -0.089382
vt 3.666832 -3.138556
v -5525.952148 -1758.485596 -13672.665039
vn -0.008697 0.994486 -0.104512
vt 3.696556 -3.839209
v -6764.987305 -1999.918701 -15932.723633
vn 0.602275 0.778927 0.174748
vt 3.128813 -2.721847
v -7111.055176 -2000.652832 -15659.942383
vn 0.054394 0.998303 -0.020779
vt 3.857226 -3.181124
v -7071.796387 -1960.491089 -15229.915039
vn 0.055573 0.990275 -0.127544
vt 3.774593 -3.905151
v -7071.796387 -1960.491089 -15229.915039
vn 0.055573 0.990275 -0.127544
vt 2.774593 -2.905151
v -7392.089844 -1885.127808 -14895.221680
vn 0.076896 0.985846 -0.148982
vt 3.448756 -3.468666
v -7106.727539 -1902.611938 -14863.630859
vn 0.058173 0.986477 -0.153231
vt 2.848118 -3.521858
v -7071.796387 -1960.491089 -15229.915039
vn 0.055573 0.990275 -0.127544
vt 3.774593 -2.905151
v -7106.727539 -1902.611938 -14863.630859
vn 0.058173 0.986477 -0.153231
vt 2.848118 -2.521858
v -7392.089844 -1885.127808 -14895.221680
vn 0.076896 0.985846 -0.148982
vt 3.448756 -2.468666
v -7404.970703 -1811.561401 -14416.770508
vn 0.064932 0.985640 -0.155877
vt 3.475868 -3.378033
v -7201.854980 -1825.205688 -14413.784180
vn 0.048137 0.985500 -0.162704
vt 2.836058 -3.410864
v -7404.970703 -1811.561401 -14416.770508
vn 0.064932 0.985640 -0.155877
vt 2.475868 -2.378033
v -7807.921875 -1754.515259 -14174.004883
vn 0.045516 0.990758 -0.127775
vt 3.324010 -3.009176
v -7323.568359 -1775.824219 -14166.695313
vn 0.067638 0.992718 -0.099680
vt 2.093660 -3.104792
v -7404.970703 -1811.561401 -14416.770508
vn 0.064932 0.985640 -0.155877
vt 3.475868 -2.378033
v -7558.555664 -1736.015259 -13875.957031
vn 0.117376 0.992779 -0.024758
vt 2.667282 -3.838352
v -7558.555664 -1736.015259 -13875.957031
vn 0.117376 0.992779 -0.024758
vt 3.667282 -3.838352
v -6764.987305 -1999.918701 -15932.723633
vn 0.602275 0.778927 0.174748
vt 3.128813 -3.721847
v -6634.515137 -1999.914429 -15929.013672
vn 0.003161 0.996041 0.088841
vt 2.854193 -3.728094
v -6560.357422 -1941.001465 -16277.857422
vn 0.018652 0.978269 0.206497
vt 2.698102 -3.140753
v -6851.894043 -1939.043457 -16281.977539
vn 0.569665 0.744687 0.347739
vt 3.311736 -3.133815
v -5772.691406 -1852.974243 -16597.324219
vn -0.079404 0.947930 0.308423
vt 3.040203 -2.602872
v -6112.625977 -2002.477905 -15914.170898
vn -0.010256 0.995598 0.093164
vt 3.755707 -3.753086
v -5982.153809 -2001.138672 -15910.459961
vn -0.018546 0.996408 0.082627
vt 3.481085 -3.759333
v -6634.515137 -1999.914429 -15929.013672
vn 0.003161 0.996041 0.088841
vt 3.854193 -3.728094
v -6504.042969 -2002.023438 -15925.302734
vn 0.010329 0.995070 0.098641
vt 3.579571 -3.734343
v -6373.570801 -2002.592041 -15921.591797
vn 0.000179 0.995867 0.090820
vt 3.304950 -3.740590
v -6243.098145 -2002.534668 -15917.881836
vn -0.001134 0.995037 0.099494
vt 3.030328 -3.746837
v -6112.625977 -2002.477905 -15914.170898
vn -0.010256 0.995598 0.093164
vt 2.755707 -3.753086
v -6588.129395 -1844.892944 -16630.896484
vn 0.046742 0.951032 0.305539
vt 3.756558 -2.546347
v -6588.129395 -1844.892944 -16630.896484
vn 0.046742 0.951032 0.305539
vt 2.756558 -2.546347
v -7515.744141 -1755.335693 -13566.539063
vn 0.089329 0.995963 -0.008864
vt 3.309285 -3.373610
v -7268.393555 -1762.114136 -13590.708008
vn -0.011564 0.999237 -0.037300
vt 2.817520 -3.355227
v -7265.924316 -1780.832764 -13913.796875
vn 0.043233 0.998486 -0.034026
vt 3.005494 -2.763105
v -7558.555664 -1736.015259 -13875.957031
vn 0.117376 0.992779 -0.024758
vt 3.667282 -2.838352
v -6959.028320 -1762.711792 -13577.506836
vn -0.000568 0.999993 0.003700
vt 3.273851 -3.378496
v -6561.561523 -1762.129150 -13521.833984
vn -0.000125 0.999999 0.001716
vt 2.769110 -3.429537
v -6568.059570 -1761.125244 -13835.789063
vn 0.015637 0.997940 -0.062220
vt 2.681919 -2.846176
v -6933.560059 -1761.395630 -13912.952148
vn -0.010062 0.997326 -0.072391
vt 3.343707 -2.765715
v -5858.687500 -1762.405518 -13382.758789
vn 0.000651 1.000000 -0.000103
vt 2.539041 -3.587160
v -5795.727539 -1761.873047 -13626.756836
vn -0.012467 0.996691 -0.080317
vt 2.358343 -2.973631
v -6182.404785 -1762.229858 -13722.707031
vn 0.013140 0.998683 -0.049591
vt 3.059058 -2.919119
v -6103.583008 -1761.815430 -13415.036133
vn 0.001142 0.999998 -0.001640
vt 3.030805 -3.563889
v -6561.561523 -1762.129150 -13521.833984
vn -0.000125 0.999999 0.001716
vt 3.769110 -3.429537
v -6568.059570 -1761.125244 -13835.789063
vn 0.015637 0.997940 -0.062220
vt 3.681919 -2.846176
v -7268.393555 -1762.114136 -13590.708008
vn -0.011564 0.999237 -0.037300
vt 3.817520 -3.355227
v -6933.560059 -1761.395630 -13912.952148
vn -0.010062 0.997326 -0.072391
vt 2.343707 -2.765715
f 20/20/20 21/21/21 22/22/22
f 4/4/4 1/1/1 3/3/3
f 2/2/2 3/3/3 1/1/1
f 3/3/3 2/2/2 163/163/163
f 33/33/33 163/163/163 2/2/2
f 163/163/163 33/33/33 162/162/162
f 32/32/32 162/162/162 33/33/33
f 162/162/162 32/32/32 117/117/117
f 116/116/116 117/117/117 32/32/32
f 1/1/1 161/161/161 2/2/2
f 130/130/130 2/2/2 161/161/161
f 2/2/2 130/130/130 33/33/33
f 116/116/116 32/32/32 31/31/31
f 33/33/33 31/31/31 32/32/32
f 31/31/31 33/33/33 34/34/34
f 130/130/130 34/34/34 33/33/33
f 165/165/165 36/36/36 164/164/164
f 36/36/36 165/165/165 37/37/37
f 166/166/166 37/37/37 165/165/165
f 37/37/37 166/166/166 84/84/84
f 167/167/167 84/84/84 166/166/166
f 84/84/84 167/167/167 85/85/85
f 168/168/168 85/85/85 167/167/167
f 83/83/83 85/85/85 86/86/86
f 85/85/85 83/83/83 84/84/84
f 38/38/38 84/84/84 83/83/83
f 84/84/84 38/38/38 37/37/37
f 35/35/35 37/37/37 38/38/38
f 37/37/37 35/35/35 36/36/36
f 169/169/169 36/36/36 35/35/35
f 123/123/123 122/122/122 96/96/96
f 94/94/94 96/96/96 122/122/122
f 96/96/96 94/94/94 93/93/93
f 91/91/91 93/93/93 94/94/94
f 93/93/93 91/91/91 92/92/92
f 120/120/120 91/91/91 94/94/94
f 108/108/108 92/92/92 107/107/107
f 92/92/92 108/108/108 93/93/93
f 95/95/95 93/93/93 108/108/108
f 93/93/93 95/95/95 96/96/96
f 58/58/58 132/132/132 52/52/52
f 131/131/131 52/52/52 132/132/132
f 52/52/52 131/131/131 49/49/49
f 51/51/51 49/49/49 50/50/50
f 49/49/49 51/51/51 52/52/52
f 57/57/57 52/52/52 51/51/51
f 52/52/52 57/57/57 58/58/58
f 121/121/121 51/51/51 50/50/50
f 44/44/44 43/43/43 140/140/140
f 43/43/43 44/44/44 45/45/45
f 53/53/53 45/45/45 44/44/44
f 140/140/140 141/141/141 44/44/44
f 142/142/142 44/44/44 141/141/141
f 44/44/44 142/142/142 53/53/53
f 118/118/118 90/90/90 89/89/89
f 87/87/87 89/89/89 90/90/90
f 89/89/89 87/87/87 88/88/88
f 47/47/47 88/88/88 87/87/87
f 88/88/88 47/47/47 46/46/46
f 48/48/48 46/46/46 47/47/47
f 89/89/89 119/119/119 118/118/118
f 13/13/13 11/11/11 12/12/12
f 11/11/11 13/13/13 14/14/14
f 15/15/15 14/14/14 13/13/13
f 14/14/14 15/15/15 16/16/16
f 133/133/133 15/15/15 13/13/13
f 70/70/70 69/69/69 126/126/126
f 69/69/69 70/70/70 71/71/71
f 79/79/79 71/71/71 70/70/70
f 71/71/71 79/79/79 80/80/80
f 71/71/71 72/72/72 69/69/69
f 126/126/126 127/127/127 70/70/70
f 146/146/146 59/59/59 54/54/54
f 60/60/60 54/54/54 59/59/59
f 54/54/54 60/60/60 55/55/55
f 109/109/109 55/55/55 60/60/60
f 54/54/54 55/55/55 56/56/56
f 66/66/66 67/67/67 65/65/65
f 68/68/68 65/65/65 67/67/67
f 65/65/65 68/68/68 110/110/110
f 111/111/111 110/110/110 68/68/68
f 76/76/76 77/77/77 78/78/78
f 77/77/77 76/76/76 112/112/112
f 114/114/114 112/112/112 76/76/76
f 112/112/112 114/114/114 115/115/115
f 112/112/112 113/113/113 77/77/77
f 134/134/134 135/135/135 18/18/18
f 19/19/19 18/18/18 135/135/135
f 18/18/18 19/19/19 17/17/17
f 98/98/98 99/99/99 97/97/97
f 100/100/100 97/97/97 99/99/99
f 97/97/97 100/100/100 124/124/124
f 103/103/103 102/102/102 105/105/105
f 102/102/102 103/103/103 101/101/101
f 104/104/104 101/101/101 103/103/103
f 105/105/105 106/106/106 103/103/103
f 128/128/128 103/103/103 106/106/106
f 106/106/106 129/129/129 128/128/128
f 170/170/170 160/160/160 159/159/159
f 157/157/157 159/159/159 160/160/160
f 159/159/159 157/157/157 158/158/158
f 173/173/173 172/172/172 186/186/186
f 172/172/172 173/173/173 171/171/171
f 174/174/174 171/171/171 173/173/173
f 176/176/176 177/177/177 175/175/175
f 178/178/178 175/175/175 177/177/177
f 175/175/175 178/178/178 185/185/185
f 181/181/181 179/179/179 180/180/180
f 179/179/179 181/181/181 182/182/182
f 183/183/183 182/182/182 181/181/181
f 181/181/181 184/184/184 183/183/183
f 25/25/25 23/23/23 24/24/24
f 23/23/23 25/25/25 26/26/26
f 27/27/27 26/26/26 25/25/25
f 138/138/138 136/136/136 137/137/137
f 136/136/136 138/138/138 28/28/28
f 29/29/29 28/28/28 138/138/138
f 28/28/28 29/29/29 30/30/30
f 138/138/138 139/139/139 29/29/29
f 40/40/40 41/41/41 39/39/39
f 42/42/42 39/39/39 41/41/41
f 39/39/39 42/42/42 6/6/6
f 7/7/7 6/6/6 42/42/42
f 6/6/6 7/7/7 5/5/5
f 63/63/63 62/62/62 125/125/125
f 62/62/62 63/63/63 61/61/61
f 64/64/64 61/61/61 63/63/63
f 74/74/74 73/73/73 154/154/154
f 73/73/73 74/74/74 75/75/75
f 81/81/81 75/75/75 74/74/74
f 75/75/75 81/81/81 82/82/82
f 156/156/156 81/81/81 74/74/74
f 143/143/143 144/144/144 145/145/145
f 149/149/149 147/147/147 148/148/148
f 147/147/147 149/149/149 150/150/150
f 151/151/151 152/152/152 153/153/153
f 155/155/155 153/153/153 152/152/152
f 8/8/8 9/9/9 10/10/10
