mtllib TROLLHOLE02_PS-UPPERSTALAG32.mtl
g s-UpperStalag32
usemtl Stalag
v -6627.183105 996.647095 -9521.218750
vn -0.885229 -0.068479 -0.460087
vt 0.734203 0.081433
v -6621.832520 995.394653 -9525.686523
vn -0.401915 -0.066149 -0.913284
vt 0.863277 0.081433
v -6621.085938 957.401550 -9522.576172
vn -0.482971 -0.352089 -0.801731
vt 0.860008 0.054455
v -6623.629883 957.596191 -9519.765625
vn -0.796303 -0.480159 -0.367897
vt 0.793836 0.040966
v -6614.939941 992.834290 -9526.361328
vn 0.289035 -0.083387 -0.953680
vt 0.992351 0.081433
v -6617.396973 955.066956 -9522.533203
vn -0.009604 -0.619305 -0.785092
vt 0.922910 0.040966
v -6619.560547 954.288574 -9518.770508
vn -0.318644 -0.947261 -0.034110
vt 0.853470 0.000499
v -6619.560547 954.288574 -9518.770508
vn -0.318644 -0.947261 -0.034110
vt 0.301524 0.000499
v -6621.706543 956.281128 -9515.038086
vn -0.393783 -0.586259 0.707980
vt 0.404120 0.047710
v -6624.533691 958.372742 -9516.579102
vn -0.888820 -0.385129 0.248345
vt 0.502964 0.054455
v -6623.629883 957.596191 -9519.765625
vn -0.796303 -0.480159 -0.367897
vt 0.517768 0.040966
v -6623.452637 993.583374 -9510.940430
vn -0.368410 -0.087134 0.925571
vt 0.462342 0.166770
v -6627.651367 995.934814 -9515.156250
vn -0.941664 -0.068440 0.329523
vt 0.581642 0.168456
v -6614.939941 992.834290 -9526.361328
vn 0.289035 -0.083387 -0.953680
vt 0.001370 0.081433
v -6610.220703 991.374390 -9522.006836
vn 0.904591 -0.095309 -0.415489
vt 0.137483 0.168456
v -6614.560547 954.878723 -9521.006836
vn 0.727620 -0.565451 -0.388374
vt 0.181309 0.054455
v -6617.396973 955.066956 -9522.533203
vn -0.009604 -0.619305 -0.785092
vt 0.151447 0.040966
v -6610.172363 990.774536 -9515.796875
vn 0.882234 -0.118301 0.455707
vt 0.248713 0.166770
v -6615.473145 954.442749 -9517.804688
vn 0.548632 -0.727829 0.411423
vt 0.265625 0.047710
v -6616.039551 991.914368 -9511.475586
vn 0.328541 -0.093392 0.939861
vt 0.355729 0.168456
v -6618.008301 955.849915 -9515.009766
vn 0.225683 -0.453702 0.862103
vt 0.338637 0.054455
v -6670.171387 1259.408936 -9542.078125
vn -0.150021 -0.983533 -0.100780
vt 0.755013 0.999501
v -6637.070313 1259.071655 -9554.931641
vn -0.050932 -0.975558 -0.213756
vt 0.874602 0.999501
v -6627.921387 1252.370972 -9544.455078
vn -0.229995 -0.604760 -0.762475
vt 0.873766 0.915537
v -6645.895996 1251.984009 -9530.992188
vn -0.599927 -0.703753 -0.380551
vt 0.752355 0.915537
v -6601.357422 1259.022827 -9556.369141
vn 0.095143 -0.946991 -0.306848
vt 0.994191 0.999501
v -6604.194336 1250.724243 -9543.446289
vn 0.307607 -0.558688 -0.770224
vt 0.994403 0.915537
v -6607.050781 1208.107178 -9537.793945
vn 0.380157 -0.107475 -0.918656
vt 0.994615 0.831573
v -6624.273438 1210.598511 -9537.835938
vn -0.336298 -0.119858 -0.934097
vt 0.872929 0.831573
v -6637.240234 1210.461426 -9527.371094
vn -0.871396 -0.137460 -0.470928
vt 0.749211 0.758796
v -6638.434082 1207.046143 -9510.708984
vn -0.958424 -0.138657 0.249394
vt 0.625801 0.758796
v -6647.487305 1249.701660 -9508.637695
vn -0.741559 -0.642611 0.192722
vt 0.629399 0.915537
v -6628.291992 1202.778320 -9497.104492
vn -0.485250 -0.144513 0.862350
vt 0.502244 0.758796
v -6633.542969 1246.720459 -9489.718750
vn -0.450477 -0.546019 0.706353
vt 0.505510 0.915537
v -6649.500488 1259.693115 -9479.365234
vn -0.166115 -0.934588 0.314564
vt 0.505013 0.999501
v -6670.388672 1259.631226 -9506.459961
vn -0.194308 -0.978077 0.074896
vt 0.630013 0.999501
v -6601.357422 1259.022827 -9556.369141
vn 0.095143 -0.946991 -0.306848
vt 0.003209 0.999501
v -6569.456055 1255.953369 -9520.476563
vn 0.211765 -0.965149 -0.153761
vt 0.129111 0.999501
v -6585.345215 1246.905762 -9522.381836
vn 0.744796 -0.528469 -0.407431
vt 0.130176 0.915537
v -6604.194336 1250.724243 -9543.446289
vn 0.307607 -0.558688 -0.770224
vt 0.003422 0.915537
v -6564.494141 1255.627441 -9487.576172
vn 0.181634 -0.967462 0.176140
vt 0.255013 0.999501
v -6582.031738 1243.786377 -9497.880859
vn 0.711898 -0.617507 0.334494
vt 0.256334 0.915537
v -6590.463867 1200.017944 -9505.022461
vn 0.885525 -0.172362 0.431436
vt 0.255273 0.758796
v -6593.089355 1203.636108 -9522.936523
vn 0.884211 -0.113934 -0.452978
vt 0.129719 0.758796
v -6607.050781 1208.107178 -9537.793945
vn 0.380157 -0.107475 -0.918656
vt 0.003634 0.831573
v -6602.688965 1257.616333 -9473.471680
vn 0.034043 -0.777041 0.628528
vt 0.380013 0.999501
v -6604.911133 1244.236450 -9486.563477
vn 0.120701 -0.505649 0.854254
vt 0.381300 0.915537
v -6607.250488 1200.083740 -9495.810547
vn 0.206848 -0.150780 0.966685
vt 0.379092 0.758796
v -6631.361328 1103.142334 -9523.933594
vn -0.887303 -0.054880 -0.457910
vt 0.742386 0.456503
v -6632.053711 1100.641479 -9513.041016
vn -0.954451 -0.056289 0.293011
vt 0.616235 0.456503
v -6625.288574 1097.074219 -9504.570313
vn -0.445707 -0.069275 0.892495
vt 0.491452 0.456503
v -6611.706543 1094.651001 -9504.595703
vn 0.268344 -0.083074 0.959734
vt 0.369891 0.456503
v -6600.839844 1094.156616 -9511.265625
vn 0.898134 -0.106476 0.426636
vt 0.248998 0.456503
v -6602.222168 1096.376221 -9522.730469
vn 0.895497 -0.076641 -0.438419
vt 0.126221 0.456503
v -6611.062012 1099.662231 -9531.773438
vn 0.349797 -0.062443 -0.934742
vt 0.002502 0.456503
v -6622.569824 1102.366699 -9531.176758
vn -0.367929 -0.055193 -0.928214
vt 0.868056 0.456503
v -6611.062012 1099.662231 -9531.773438
vn 0.349797 -0.062443 -0.934742
vt 0.993483 0.456503
f 39/39/39 38/38/38 41/41/41
f 38/38/38 39/39/39 37/37/37
f 40/40/40 37/37/37 39/39/39
f 39/39/39 45/45/45 40/40/40
f 45/45/45 39/39/39 44/44/44
f 44/44/44 54/54/54 45/45/45
f 54/54/54 44/44/44 43/43/43
f 39/39/39 43/43/43 44/44/44
f 43/43/43 39/39/39 42/42/42
f 41/41/41 42/42/42 39/39/39
f 42/42/42 41/41/41 47/47/47
f 46/46/46 47/47/47 41/41/41
f 47/47/47 46/46/46 35/35/35
f 47/47/47 43/43/43 42/42/42
f 43/43/43 47/47/47 48/48/48
f 54/54/54 18/18/18 15/15/15
f 18/18/18 54/54/54 53/53/53
f 43/43/43 53/53/53 54/54/54
f 53/53/53 43/43/43 52/52/52
f 48/48/48 52/52/52 43/43/43
f 52/52/52 48/48/48 33/33/33
f 47/47/47 33/33/33 48/48/48
f 33/33/33 47/47/47 34/34/34
f 35/35/35 34/34/34 47/47/47
f 34/34/34 35/35/35 32/32/32
f 36/36/36 32/32/32 35/35/35
f 32/32/32 36/36/36 22/22/22
f 52/52/52 18/18/18 53/53/53
f 18/18/18 52/52/52 20/20/20
f 32/32/32 33/33/33 34/34/34
f 33/33/33 32/32/32 31/31/31
f 20/20/20 21/21/21 18/18/18
f 21/21/21 20/20/20 12/12/12
f 52/52/52 12/12/12 20/20/20
f 12/12/12 52/52/52 51/51/51
f 33/33/33 51/51/51 52/52/52
f 51/51/51 33/33/33 50/50/50
f 31/31/31 50/50/50 33/33/33
f 50/50/50 31/31/31 30/30/30
f 32/32/32 30/30/30 31/31/31
f 30/30/30 32/32/32 25/25/25
f 22/22/22 25/25/25 32/32/32
f 25/25/25 22/22/22 24/24/24
f 23/23/23 24/24/24 22/22/22
f 24/24/24 23/23/23 26/26/26
f 12/12/12 51/51/51 50/50/50
f 30/30/30 25/25/25 24/24/24
f 12/12/12 9/9/9 21/21/21
f 26/26/26 27/27/27 24/24/24
f 30/30/30 49/49/49 50/50/50
f 24/24/24 29/29/29 30/30/30
f 29/29/29 24/24/24 28/28/28
f 27/27/27 28/28/28 24/24/24
f 56/56/56 28/28/28 57/57/57
f 28/28/28 56/56/56 29/29/29
f 54/54/54 55/55/55 45/45/45
f 55/55/55 54/54/54 14/14/14
f 15/15/15 14/14/14 54/54/54
f 14/14/14 15/15/15 16/16/16
f 18/18/18 16/16/16 15/15/15
f 16/16/16 18/18/18 19/19/19
f 21/21/21 19/19/19 18/18/18
f 19/19/19 21/21/21 8/8/8
f 9/9/9 8/8/8 21/21/21
f 8/8/8 9/9/9 10/10/10
f 12/12/12 10/10/10 9/9/9
f 10/10/10 12/12/12 13/13/13
f 50/50/50 13/13/13 12/12/12
f 13/13/13 50/50/50 1/1/1
f 49/49/49 1/1/1 50/50/50
f 1/1/1 49/49/49 56/56/56
f 30/30/30 56/56/56 49/49/49
f 56/56/56 30/30/30 29/29/29
f 13/13/13 1/1/1 10/10/10
f 11/11/11 10/10/10 1/1/1
f 10/10/10 11/11/11 8/8/8
f 19/19/19 8/8/8 16/16/16
f 17/17/17 16/16/16 8/8/8
f 16/16/16 17/17/17 14/14/14
f 7/7/7 4/4/4 3/3/3
f 1/1/1 3/3/3 4/4/4
f 3/3/3 1/1/1 2/2/2
f 56/56/56 2/2/2 1/1/1
f 2/2/2 56/56/56 5/5/5
f 57/57/57 5/5/5 56/56/56
f 2/2/2 5/5/5 3/3/3
f 6/6/6 3/3/3 5/5/5
f 3/3/3 6/6/6 7/7/7
