mtllib TROLLHOLE02_RM_PSURF39.mtl
g RM_Psurf39
usemtl Lvl_roast_m_largebolders
v 376.564667 -652.473694 -23572.865234
vn 0.354660 -0.056200 0.933305
vt 0.149140 0.658096
v 287.111786 -598.934814 -23563.861328
vn -0.066521 0.240783 0.968297
vt 0.035350 0.303684
v 267.657318 -697.588318 -23573.054688
vn -0.096888 -0.230926 0.968135
vt 0.281553 0.365649
v 345.109711 -795.123535 -23649.847656
vn 0.403306 -0.656335 0.637627
vt 0.705116 0.700724
v 416.199066 -761.493469 -23691.851563
vn 0.609507 -0.613596 0.501996
vt 0.741287 0.862142
v 427.419525 -686.622009 -23582.083984
vn 0.564795 -0.308918 0.765229
vt 0.234582 0.862142
v 514.298096 -413.250702 -23922.525391
vn 0.886527 0.315883 -0.338064
vt 0.684396 0.588772
v 413.540497 -326.199127 -23971.765625
vn 0.608116 0.711080 -0.352932
vt 0.684415 0.120532
v 436.664886 -312.121429 -23865.394531
vn 0.464245 0.871461 0.158218
vt 0.314603 0.237190
v 520.869507 -397.283539 -23815.738281
vn 0.834150 0.500094 0.232593
vt 0.314603 0.649703
v 502.744385 -679.814880 -23753.457031
vn 0.897845 -0.330910 0.290471
vt 0.730815 0.999001
v 471.192993 -618.176880 -23672.052734
vn 0.788867 0.001707 0.614561
vt 0.354853 0.862142
v 246.815857 -847.445618 -23932.250000
vn 0.030858 -0.955620 -0.292982
vt 1.730845 0.291513
v 306.646393 -770.617065 -24076.984375
vn -0.006277 -0.688456 -0.725251
vt 1.999001 0.301177
v 399.004852 -776.632385 -23988.664063
vn 0.398135 -0.784096 -0.476112
vt 1.706182 0.657698
v 309.951904 -859.572693 -23902.521484
vn 0.048357 -0.995207 -0.084996
vt 1.643542 0.528361
v -57.246124 -626.749451 -23854.523438
vn -0.971804 -0.187702 -0.142707
vt 1.114035 -0.937400
v -5.477631 -519.155518 -23931.726563
vn -0.946483 0.322614 -0.009465
vt 1.108046 -0.955915
v 12.150918 -588.353943 -24006.851563
vn -0.787420 -0.257134 -0.560225
vt 1.485090 -0.850493
v 20.972193 -699.513916 -23896.302734
vn -0.615536 -0.732294 -0.291310
vt 1.374974 -0.612583
v 193.316071 -577.698975 -23605.136719
vn -0.331470 0.253395 0.908801
vt 0.149140 -0.050781
v 231.029099 -471.751770 -23634.236328
vn -0.122044 0.541412 0.831852
vt 0.000999 -0.085163
v 164.823013 -459.805328 -23671.855469
vn -0.440165 0.465109 0.768068
vt 0.114329 -0.336180
v 138.377487 -565.528687 -23628.634766
vn -0.587520 0.190047 0.786576
vt 0.214246 -0.257661
v 528.258667 -509.490509 -23744.257813
vn 0.959226 0.038662 0.279984
vt 0.329201 0.862142
v 479.624146 -455.327118 -23705.830078
vn 0.522222 0.474706 0.708476
vt 0.108976 0.655503
v 456.097748 -668.999878 -24068.365234
vn 0.710915 -0.309715 -0.631408
vt 1.706182 0.654912
v 453.969208 -595.600586 -24039.433594
vn 0.863010 0.187504 -0.469101
vt 1.459388 0.567744
v 498.298706 -687.507690 -23986.607422
vn 0.861302 -0.208016 -0.463560
vt 1.476829 0.862142
v 182.213852 -306.265015 -23777.197266
vn -0.191027 0.719940 0.667229
vt 0.108976 -0.542318
v 221.505722 -214.056442 -23910.324219
vn -0.068848 0.993076 0.095183
vt 0.314603 -0.612671
v 127.146927 -289.673615 -23853.384766
vn -0.706079 0.664724 0.244120
vt 0.329201 -0.785415
v 59.744907 -476.384644 -24085.894531
vn -0.744994 0.004034 -0.667059
vt 1.476830 -0.889308
v 143.180588 -393.828888 -24145.548828
vn -0.078041 0.107054 -0.991186
vt 1.459388 -0.762539
v 185.178802 -517.601563 -24144.080078
vn -0.111880 -0.214366 -0.970325
vt 1.706182 -0.462885
v 523.386780 -558.861023 -23830.988281
vn 0.984005 -0.024590 0.176434
vt 0.707315 0.862142
v 368.805145 -632.727295 -24140.548828
vn 0.044430 -0.162978 -0.985629
vt 1.882196 0.284051
v 366.225220 -475.718597 -24112.523438
vn 0.390095 0.163964 -0.906058
vt 1.459388 0.084700
v 42.171364 -403.547028 -24010.160156
vn -0.897839 0.415754 -0.145028
vt 1.090070 -0.999001
v 169.681427 -260.875061 -24112.335938
vn -0.418738 0.803096 -0.423906
vt 1.062464 -0.833290
v 285.583435 -346.947906 -23760.019531
vn 0.188402 0.728553 0.658570
vt 0.108976 -0.145001
v 317.956604 -278.487305 -23876.150391
vn 0.324912 0.920209 0.218285
vt 0.314603 -0.196731
v 452.542542 -773.341492 -23925.671875
vn 0.622583 -0.719573 -0.307579
vt 1.485089 0.862142
v 363.505188 -857.549866 -23860.759766
vn 0.450153 -0.891907 0.043165
vt 1.491463 0.722448
v 419.150574 -570.674927 -23628.792969
vn 0.541678 0.257698 0.800111
vt 0.134902 0.656024
v 124.620178 -659.563293 -24040.486328
vn -0.478635 -0.542872 -0.690071
vt 1.706182 -0.412451
v 122.901535 -761.480896 -23906.103516
vn -0.663410 -0.516704 -0.541206
vt 1.505256 -0.207211
v 97.755043 -440.036530 -23744.166016
vn -0.702201 0.431414 0.566388
vt 0.319531 -0.620027
v 95.123184 -572.023804 -23669.089844
vn -0.809346 0.035303 0.586270
vt 0.368485 -0.411840
v 568.173889 -596.643066 -23932.273438
vn 0.942592 -0.019800 -0.333359
vt 1.090011 0.999001
v 516.779907 -693.992737 -23866.005859
vn 0.867280 -0.491828 0.077011
vt 1.108103 0.999001
v 275.613312 -566.845215 -24119.693359
vn -0.022985 -0.069275 -0.997333
vt 1.706182 -0.091967
v 215.772873 -711.471436 -24051.750000
vn -0.437681 -0.411440 -0.799470
vt 1.822987 -0.055983
v 87.189964 -329.867798 -23942.787109
vn -0.769557 0.637478 0.037481
vt 0.707373 -0.912368
v 36.415955 -471.614685 -23847.845703
vn -0.888107 0.349300 0.298758
vt 0.730759 -0.835530
v 388.520752 -395.152679 -23737.640625
vn 0.211345 0.738751 0.639984
vt 0.108976 0.263793
v 325.456848 -514.852905 -23614.474609
vn 0.227800 0.529727 0.817005
vt 0.000999 0.287926
v 44.725754 -609.904724 -23757.259766
vn -0.794898 0.276385 0.540137
vt 0.741232 -0.574867
v -57.246124 -626.749451 -23854.523438
vn -0.971804 -0.187702 -0.142707
vt 1.114035 -0.937400
v -49.590778 -704.204041 -23814.515625
vn -0.964749 -0.138864 0.223555
vt 1.152435 -0.787814
v 31.111219 -666.989197 -23705.136719
vn -0.808739 0.192094 0.555915
vt 0.705071 -0.513949
v 158.823334 -807.763733 -23942.437500
vn -0.545773 -0.583068 -0.601800
vt 1.706182 -0.050834
v 80.050873 -812.812622 -23867.263672
vn -0.572002 -0.668516 -0.475289
vt 1.507723 -0.255875
v -49.590778 -704.204041 -23814.515625
vn -0.964749 -0.138864 0.223555
vt 1.152435 -0.787814
v 44.725754 -609.904724 -23757.259766
vn -0.794898 0.276385 0.540137
vt 0.741232 -0.574867
v 36.415955 -471.614685 -23847.845703
vn -0.888107 0.349300 0.298758
vt 0.730759 -0.835530
v 407.943756 -816.579346 -23772.609375
vn 0.447693 -0.837597 0.313053
vt 1.114090 0.862142
v 461.177368 -523.136902 -23962.736328
vn 0.745859 0.203828 -0.634152
vt 1.062406 0.539144
v 395.044525 -345.852814 -24077.421875
vn 0.656430 0.326436 -0.680103
vt 1.062425 0.026584
v 87.189964 -329.867798 -23942.787109
vn -0.769557 0.637478 0.037481
vt 0.707373 -0.912368
v 175.025620 -267.249390 -23987.474609
vn -0.183831 0.966617 -0.178487
vt 0.684452 -0.736592
v 175.025620 -267.249390 -23987.474609
vn -0.183831 0.966617 -0.178487
vt 0.684452 -0.736592
v 42.171364 -403.547028 -24010.160156
vn -0.897839 0.415754 -0.145028
vt 1.090070 -0.999001
v -5.477631 -519.155518 -23931.726563
vn -0.946483 0.322614 -0.009465
vt 1.108046 -0.955915
v 120.265404 -647.665710 -23613.863281
vn -0.525996 0.117445 0.842339
vt 0.349816 -0.199498
v 233.428711 -877.666199 -23843.441406
vn -0.117905 -0.973906 -0.193922
vt 1.522532 0.338626
v 330.105469 -859.146423 -23747.656250
vn 0.324955 -0.927305 0.185767
vt 1.152479 0.681003
v 238.733200 -452.201813 -24115.433594
vn 0.219672 0.103278 -0.970092
vt 1.459388 -0.359796
v 278.145538 -296.101990 -24099.419922
vn 0.360245 0.627672 -0.690109
vt 1.062444 -0.429133
v 293.066101 -288.256775 -23985.298828
vn 0.263735 0.958676 -0.106700
vt 0.684434 -0.326353
v 198.821060 -867.881165 -23715.767578
vn -0.230552 -0.929231 0.288749
vt 1.114072 0.286566
v 215.572830 -816.262268 -23633.511719
vn -0.081470 -0.636291 0.767135
vt 0.741269 0.319434
v 63.715340 -754.293762 -23660.251953
vn -0.599682 -0.396906 0.694872
vt 0.741250 -0.268012
v 31.183853 -799.473694 -23745.285156
vn -0.717977 -0.623129 0.310193
vt 1.114053 -0.361922
v 293.066101 -288.256775 -23985.298828
vn 0.263735 0.958676 -0.106700
vt 0.684434 -0.326353
v 413.540497 -326.199127 -23971.765625
vn 0.608116 0.711080 -0.352932
vt 0.684415 0.120532
v 413.540497 -326.199127 -23971.765625
vn 0.608116 0.711080 -0.352932
vt 0.684415 0.120532
v 395.044525 -345.852814 -24077.421875
vn 0.656430 0.326436 -0.680103
vt 1.062425 0.026584
v 278.145538 -296.101990 -24099.419922
vn 0.360245 0.627672 -0.690109
vt 1.062444 -0.429133
v 31.183853 -799.473694 -23745.285156
vn -0.717977 -0.623129 0.310193
vt 1.114053 -0.361922
v 63.715340 -754.293762 -23660.251953
vn -0.599682 -0.396906 0.694872
vt 0.741250 -0.268012
v 31.111219 -666.989197 -23705.136719
vn -0.808739 0.192094 0.555915
vt 0.705071 -0.513949
f 87/87/87 88/88/88 89/89/89
f 40/40/40 70/70/70 71/71/71
f 70/70/70 40/40/40 39/39/39
f 33/33/33 39/39/39 40/40/40
f 39/39/39 33/33/33 18/18/18
f 19/19/19 18/18/18 33/33/33
f 18/18/18 19/19/19 17/17/17
f 20/20/20 17/17/17 19/19/19
f 17/17/17 20/20/20 47/47/47
f 46/46/46 47/47/47 20/20/20
f 47/47/47 46/46/46 53/53/53
f 35/35/35 53/53/53 46/46/46
f 53/53/53 35/35/35 52/52/52
f 78/78/78 52/52/52 35/35/35
f 52/52/52 78/78/78 38/38/38
f 69/69/69 38/38/38 78/78/78
f 38/38/38 69/69/69 28/28/28
f 68/68/68 28/28/28 69/69/69
f 28/28/28 68/68/68 29/29/29
f 78/78/78 79/79/79 69/69/69
f 79/79/79 78/78/78 34/34/34
f 35/35/35 34/34/34 78/78/78
f 34/34/34 35/35/35 33/33/33
f 46/46/46 33/33/33 35/35/35
f 33/33/33 46/46/46 19/19/19
f 20/20/20 19/19/19 46/46/46
f 40/40/40 34/34/34 33/33/33
f 34/34/34 40/40/40 79/79/79
f 38/38/38 37/37/37 52/52/52
f 53/53/53 52/52/52 37/37/37
f 27/27/27 28/28/28 29/29/29
f 68/68/68 69/69/69 8/8/8
f 27/27/27 38/38/38 28/28/28
f 38/38/38 27/27/27 37/37/37
f 14/14/14 37/37/37 27/27/27
f 37/37/37 14/14/14 53/53/53
f 62/62/62 53/53/53 14/14/14
f 53/53/53 62/62/62 47/47/47
f 63/63/63 47/47/47 62/62/62
f 47/47/47 63/63/63 17/17/17
f 64/64/64 17/17/17 63/63/63
f 29/29/29 43/43/43 27/27/27
f 15/15/15 27/27/27 43/43/43
f 27/27/27 15/15/15 14/14/14
f 13/13/13 14/14/14 15/15/15
f 14/14/14 13/13/13 62/62/62
f 76/76/76 62/62/62 13/13/13
f 62/62/62 76/76/76 63/63/63
f 16/16/16 15/15/15 43/43/43
f 15/15/15 16/16/16 13/13/13
f 29/29/29 51/51/51 43/43/43
f 44/44/44 43/43/43 51/51/51
f 43/43/43 44/44/44 16/16/16
f 67/67/67 16/16/16 44/44/44
f 16/16/16 67/67/67 13/13/13
f 77/77/77 13/13/13 67/67/67
f 13/13/13 77/77/77 76/76/76
f 81/81/81 76/76/76 77/77/77
f 76/76/76 81/81/81 63/63/63
f 90/90/90 63/63/63 81/81/81
f 63/63/63 90/90/90 64/64/64
f 92/92/92 64/64/64 90/90/90
f 51/51/51 67/67/67 44/44/44
f 67/67/67 51/51/51 11/11/11
f 90/90/90 91/91/91 92/92/92
f 5/5/5 11/11/11 12/12/12
f 11/11/11 5/5/5 67/67/67
f 4/4/4 67/67/67 5/5/5
f 67/67/67 4/4/4 77/77/77
f 82/82/82 77/77/77 4/4/4
f 77/77/77 82/82/82 81/81/81
f 83/83/83 81/81/81 82/82/82
f 81/81/81 83/83/83 84/84/84
f 61/61/61 83/83/83 75/75/75
f 82/82/82 75/75/75 83/83/83
f 75/75/75 82/82/82 3/3/3
f 4/4/4 3/3/3 82/82/82
f 3/3/3 4/4/4 1/1/1
f 5/5/5 1/1/1 4/4/4
f 1/1/1 5/5/5 6/6/6
f 12/12/12 6/6/6 5/5/5
f 6/6/6 12/12/12 1/1/1
f 45/45/45 1/1/1 12/12/12
f 50/50/50 29/29/29 68/68/68
f 29/29/29 50/50/50 51/51/51
f 36/36/36 51/51/51 50/50/50
f 51/51/51 36/36/36 11/11/11
f 25/25/25 11/11/11 36/36/36
f 11/11/11 25/25/25 12/12/12
f 26/26/26 12/12/12 25/25/25
f 12/12/12 26/26/26 45/45/45
f 57/57/57 45/45/45 26/26/26
f 45/45/45 57/57/57 1/1/1
f 2/2/2 1/1/1 57/57/57
f 1/1/1 2/2/2 3/3/3
f 21/21/21 3/3/3 2/2/2
f 3/3/3 21/21/21 75/75/75
f 24/24/24 75/75/75 21/21/21
f 75/75/75 24/24/24 58/58/58
f 49/49/49 58/58/58 24/24/24
f 58/58/58 49/49/49 55/55/55
f 25/25/25 10/10/10 26/26/26
f 7/7/7 36/36/36 50/50/50
f 22/22/22 2/2/2 57/57/57
f 2/2/2 22/22/22 21/21/21
f 23/23/23 21/21/21 22/22/22
f 21/21/21 23/23/23 24/24/24
f 49/49/49 24/24/24 48/48/48
f 23/23/23 48/48/48 24/24/24
f 48/48/48 23/23/23 30/30/30
f 22/22/22 30/30/30 23/23/23
f 30/30/30 22/22/22 41/41/41
f 57/57/57 41/41/41 22/22/22
f 41/41/41 57/57/57 56/56/56
f 26/26/26 56/56/56 57/57/57
f 56/56/56 26/26/26 9/9/9
f 10/10/10 9/9/9 26/26/26
f 9/9/9 10/10/10 7/7/7
f 25/25/25 7/7/7 10/10/10
f 7/7/7 25/25/25 36/36/36
f 30/30/30 41/41/41 42/42/42
f 56/56/56 42/42/42 41/41/41
f 42/42/42 56/56/56 9/9/9
f 48/48/48 55/55/55 49/49/49
f 55/55/55 48/48/48 32/32/32
f 30/30/30 32/32/32 48/48/48
f 32/32/32 30/30/30 31/31/31
f 42/42/42 31/31/31 30/30/30
f 31/31/31 42/42/42 72/72/72
f 80/80/80 72/72/72 42/42/42
f 9/9/9 80/80/80 42/42/42
f 80/80/80 9/9/9 8/8/8
f 7/7/7 8/8/8 9/9/9
f 8/8/8 7/7/7 68/68/68
f 50/50/50 68/68/68 7/7/7
f 31/31/31 72/72/72 32/32/32
f 54/54/54 32/32/32 72/72/72
f 32/32/32 54/54/54 55/55/55
f 73/73/73 55/55/55 54/54/54
f 55/55/55 73/73/73 74/74/74
f 85/85/85 40/40/40 71/71/71
f 40/40/40 85/85/85 79/79/79
f 86/86/86 79/79/79 85/85/85
f 59/59/59 60/60/60 58/58/58
f 61/61/61 58/58/58 60/60/60
f 58/58/58 61/61/61 75/75/75
f 18/18/18 65/65/65 66/66/66
f 65/65/65 18/18/18 17/17/17
