mtllib TROLLHOLE02_PS-SECRETSTALAG33.mtl
g -SecretStalag33
usemtl Stalag
v -14063.602539 701.366577 -4342.000488
vn -0.008604 -0.344655 -0.938690
vt 0.734203 0.081433
v -14053.804688 701.481750 -4336.855469
vn 0.730695 -0.357689 -0.581501
vt 0.863277 0.081433
v -14059.804688 684.983948 -4332.050781
vn 0.567141 -0.678599 -0.466749
vt 0.860008 0.054455
v -14065.579102 683.852356 -4333.332520
vn -0.001004 -0.774416 -0.632676
vt 0.793836 0.040966
v -14050.884766 700.813416 -4324.921875
vn 0.925531 -0.358786 0.121101
vt 0.992351 0.081433
v -14059.453125 683.635193 -4325.142090
vn 0.637358 -0.770365 0.017657
vt 0.922910 0.040966
v -14067.041992 681.396545 -4324.547852
vn 0.041538 -0.994433 -0.096838
vt 0.853470 0.000499
v -14067.041992 681.396545 -4324.547852
vn 0.041538 -0.994433 -0.096838
vt 0.301524 0.000499
v -14074.554688 682.849121 -4323.936035
vn -0.618693 -0.766358 -0.172957
vt 0.404120 0.047710
v -14071.886719 684.354980 -4331.086914
vn -0.533201 -0.607434 -0.588830
vt 0.502964 0.054455
v -14065.579102 683.852356 -4333.332520
vn -0.001004 -0.774416 -0.632676
vt 0.517768 0.040966
v -14082.350586 700.914307 -4323.403809
vn -0.942031 -0.298100 -0.153993
vt 0.462342 0.166770
v -14075.286133 701.522949 -4335.802734
vn -0.670056 -0.261614 -0.694682
vt 0.581642 0.168456
v -14050.884766 700.813416 -4324.921875
vn 0.925531 -0.358786 0.121101
vt 0.001370 0.081433
v -14057.999023 700.255310 -4312.625488
vn 0.665269 -0.316881 0.676020
vt 0.137483 0.168456
v -14062.095703 683.486511 -4318.000488
vn 0.576127 -0.653471 0.490971
vt 0.181309 0.054455
v -14059.453125 683.635193 -4325.142090
vn 0.637358 -0.770365 0.017657
vt 0.151447 0.040966
v -14069.750000 699.620667 -4306.532715
vn 0.004910 -0.366421 0.930436
vt 0.248713 0.166770
v -14068.442383 681.980652 -4315.770020
vn 0.069665 -0.837238 0.542383
vt 0.265625 0.047710
v -14079.480469 700.296509 -4311.572754
vn -0.755190 -0.327692 0.567720
vt 0.355729 0.168456
v -14074.176758 682.857544 -4317.036133
vn -0.578832 -0.714158 0.393614
vt 0.338637 0.054455
v -14049.286133 839.564697 -4448.818848
vn -0.153048 -0.987252 -0.043694
vt 0.755013 0.999501
v -13989.257813 832.475220 -4394.196289
vn -0.085028 -0.995638 0.038406
vt 0.874602 0.999501
v -14012.761719 821.259827 -4363.609375
vn 0.463058 -0.806278 -0.368094
vt 0.873766 0.915537
v -14050.651367 822.787842 -4387.134766
vn -0.011559 -0.805120 -0.592999
vt 0.752355 0.915537
v -13948.708984 836.012451 -4316.221680
vn 0.113373 -0.986377 0.119189
vt 0.994191 0.999501
v -14000.033203 821.606079 -4318.386719
vn 0.574370 -0.808303 0.129405
vt 0.994403 0.915537
v -14020.132813 789.965271 -4320.945313
vn 0.880393 -0.446264 0.160491
vt 0.994615 0.831573
v -14029.019531 789.850098 -4352.716797
vn 0.710710 -0.434622 -0.553168
vt 0.872929 0.831573
v -14055.633789 791.778748 -4369.045410
vn 0.011187 -0.407811 -0.912998
vt 0.749211 0.758796
v -14087.821289 794.728027 -4353.335449
vn -0.643201 -0.331581 -0.690179
vt 0.625801 0.758796
v -14096.208984 825.481140 -4364.953125
vn -0.562024 -0.660981 -0.497225
vt 0.629399 0.915537
v -14108.333008 797.281982 -4321.873535
vn -0.917441 -0.373801 -0.136291
vt 0.502244 0.758796
v -14125.202148 827.938049 -4320.402832
vn -0.805077 -0.581103 -0.119037
vt 0.505510 0.915537
v -14153.415039 858.076294 -4319.370605
vn -0.739025 -0.638867 0.213754
vt 0.505013 0.999501
v -14126.363281 849.567749 -4396.933594
vn -0.375209 -0.913564 -0.156904
vt 0.630013 0.999501
v -13948.708984 836.012451 -4316.221680
vn 0.113373 -0.986377 0.119189
vt 0.003209 0.999501
v -13972.821289 850.366089 -4227.452148
vn 0.004921 -0.973121 0.230241
vt 0.129111 0.999501
v -14029.956055 824.535767 -4275.479492
vn 0.363919 -0.764109 0.532636
vt 0.130176 0.915537
v -14000.033203 821.606079 -4318.386719
vn 0.574370 -0.808303 0.129405
vt 0.003422 0.915537
v -14024.088867 862.744568 -4193.903809
vn -0.189223 -0.874484 0.446622
vt 0.255013 0.999501
v -14076.441406 827.701660 -4254.940918
vn -0.118426 -0.682533 0.721196
vt 0.256334 0.915537
v -14073.784180 796.723694 -4275.458984
vn -0.067113 -0.447569 0.891727
vt 0.255273 0.758796
v -14041.120117 793.147095 -4290.325195
vn 0.557223 -0.412516 0.720648
vt 0.129719 0.758796
v -14020.132813 789.965271 -4320.945313
vn 0.880393 -0.446264 0.160491
vt 0.003634 0.831573
v -14101.804688 863.891724 -4238.117676
vn -0.530674 -0.647684 0.546708
vt 0.380013 0.999501
v -14113.402344 828.757080 -4276.823730
vn -0.645507 -0.550160 0.529759
vt 0.381300 0.915537
v -14099.920898 798.024841 -4290.943848
vn -0.726385 -0.421692 0.542716
vt 0.379092 0.758796
v -14060.118164 744.323486 -4353.952148
vn 0.011506 -0.286533 -0.958001
vt 0.742386 0.456503
v -14080.721680 745.861206 -4343.418945
vn -0.666714 -0.222862 -0.711214
vt 0.616235 0.456503
v -14093.829102 746.999756 -4322.794434
vn -0.956560 -0.254780 -0.141705
vt 0.491452 0.456503
v -14088.337891 746.945190 -4302.701172
vn -0.765423 -0.284332 0.577307
vt 0.369891 0.456503
v -14071.541992 745.949280 -4292.875488
vn -0.050452 -0.305224 0.950943
vt 0.248998 0.456503
v -14050.738281 744.264526 -4303.053711
vn 0.626251 -0.287261 0.724769
vt 0.126221 0.456503
v -14037.429688 742.978943 -4323.323242
vn 0.932629 -0.327045 0.152465
vt 0.002502 0.456503
v -14043.122070 743.180725 -4343.771484
vn 0.747617 -0.315576 -0.584363
vt 0.868056 0.456503
v -14037.429688 742.978943 -4323.323242
vn 0.932629 -0.327045 0.152465
vt 0.993483 0.456503
f 39/39/39 38/38/38 41/41/41
f 38/38/38 39/39/39 37/37/37
f 40/40/40 37/37/37 39/39/39
f 39/39/39 45/45/45 40/40/40
f 45/45/45 39/39/39 44/44/44
f 44/44/44 54/54/54 45/45/45
f 54/54/54 44/44/44 43/43/43
f 39/39/39 43/43/43 44/44/44
f 43/43/43 39/39/39 42/42/42
f 41/41/41 42/42/42 39/39/39
f 42/42/42 41/41/41 47/47/47
f 46/46/46 47/47/47 41/41/41
f 47/47/47 46/46/46 35/35/35
f 47/47/47 43/43/43 42/42/42
f 43/43/43 47/47/47 48/48/48
f 54/54/54 18/18/18 15/15/15
f 18/18/18 54/54/54 53/53/53
f 43/43/43 53/53/53 54/54/54
f 53/53/53 43/43/43 52/52/52
f 48/48/48 52/52/52 43/43/43
f 52/52/52 48/48/48 33/33/33
f 47/47/47 33/33/33 48/48/48
f 33/33/33 47/47/47 34/34/34
f 35/35/35 34/34/34 47/47/47
f 34/34/34 35/35/35 32/32/32
f 36/36/36 32/32/32 35/35/35
f 32/32/32 36/36/36 22/22/22
f 52/52/52 18/18/18 53/53/53
f 18/18/18 52/52/52 20/20/20
f 32/32/32 33/33/33 34/34/34
f 33/33/33 32/32/32 31/31/31
f 20/20/20 21/21/21 18/18/18
f 21/21/21 20/20/20 12/12/12
f 52/52/52 12/12/12 20/20/20
f 12/12/12 52/52/52 51/51/51
f 33/33/33 51/51/51 52/52/52
f 51/51/51 33/33/33 50/50/50
f 31/31/31 50/50/50 33/33/33
f 50/50/50 31/31/31 30/30/30
f 32/32/32 30/30/30 31/31/31
f 30/30/30 32/32/32 25/25/25
f 22/22/22 25/25/25 32/32/32
f 25/25/25 22/22/22 24/24/24
f 23/23/23 24/24/24 22/22/22
f 24/24/24 23/23/23 26/26/26
f 12/12/12 51/51/51 50/50/50
f 30/30/30 25/25/25 24/24/24
f 12/12/12 9/9/9 21/21/21
f 26/26/26 27/27/27 24/24/24
f 30/30/30 49/49/49 50/50/50
f 24/24/24 29/29/29 30/30/30
f 29/29/29 24/24/24 28/28/28
f 27/27/27 28/28/28 24/24/24
f 56/56/56 28/28/28 57/57/57
f 28/28/28 56/56/56 29/29/29
f 54/54/54 55/55/55 45/45/45
f 55/55/55 54/54/54 14/14/14
f 15/15/15 14/14/14 54/54/54
f 14/14/14 15/15/15 16/16/16
f 18/18/18 16/16/16 15/15/15
f 16/16/16 18/18/18 19/19/19
f 21/21/21 19/19/19 18/18/18
f 19/19/19 21/21/21 8/8/8
f 9/9/9 8/8/8 21/21/21
f 8/8/8 9/9/9 10/10/10
f 12/12/12 10/10/10 9/9/9
f 10/10/10 12/12/12 13/13/13
f 50/50/50 13/13/13 12/12/12
f 13/13/13 50/50/50 1/1/1
f 49/49/49 1/1/1 50/50/50
f 1/1/1 49/49/49 56/56/56
f 30/30/30 56/56/56 49/49/49
f 56/56/56 30/30/30 29/29/29
f 13/13/13 1/1/1 10/10/10
f 11/11/11 10/10/10 1/1/1
f 10/10/10 11/11/11 8/8/8
f 19/19/19 8/8/8 16/16/16
f 17/17/17 16/16/16 8/8/8
f 16/16/16 17/17/17 14/14/14
f 7/7/7 4/4/4 3/3/3
f 1/1/1 3/3/3 4/4/4
f 3/3/3 1/1/1 2/2/2
f 56/56/56 2/2/2 1/1/1
f 2/2/2 56/56/56 5/5/5
f 57/57/57 5/5/5 56/56/56
f 2/2/2 5/5/5 3/3/3
f 6/6/6 3/3/3 5/5/5
f 3/3/3 6/6/6 7/7/7
