mtllib TROLLHOLE02_HOLECAP97.mtl
g HoleCap97
usemtl Stalagcap
v -2836.526855 -897.057190 -11845.037109
vn 0.317955 -0.932816 0.169583
vt 0.496959 0.638621
v -2879.884033 -887.688293 -11765.864258
vn 0.093608 -0.937764 0.334420
vt 0.608884 0.620013
v -2949.153320 -880.784973 -11766.509766
vn -0.223873 -0.903372 0.365786
vt 0.641847 0.507871
v -3016.398438 -874.623169 -11821.332031
vn -0.431168 -0.879137 0.203006
vt 0.615743 0.390344
v -3010.837646 -883.491394 -11901.660156
vn -0.461054 -0.886386 -0.041823
vt 0.500884 0.349985
v -2980.337891 -884.126770 -11981.683594
vn -0.290772 -0.927695 -0.234166
vt 0.383995 0.391770
v -2893.130127 -897.908081 -11980.377930
vn -0.047509 -0.979144 -0.197536
vt 0.351031 0.512231
v -2835.477051 -902.570740 -11938.413086
vn 0.176086 -0.982257 -0.064541
vt 0.401034 0.615871
f 2/2/2 3/3/3 1/1/1
f 7/7/7 1/1/1 3/3/3
f 1/1/1 7/7/7 8/8/8
f 5/5/5 3/3/3 4/4/4
f 3/3/3 5/5/5 7/7/7
f 6/6/6 7/7/7 5/5/5
