mtllib TROLLHOLE02_HOLECAP30.mtl
g HoleCap30
usemtl Stalagcap
v 818.740173 -577.192749 -7785.669922
vn -0.069911 -0.993755 -0.086965
vt 0.401034 0.615871
v 875.572754 -575.429077 -7818.048828
vn 0.015878 -0.993609 -0.111756
vt 0.496959 0.638621
v 974.336914 -568.927979 -7830.310059
vn 0.112336 -0.959015 -0.260136
vt 0.608884 0.620013
v 1032.298706 -571.729797 -7772.814453
vn 0.208744 -0.968058 -0.138888
vt 0.641847 0.507871
v 1032.128296 -574.574158 -7705.505371
vn 0.185371 -0.980658 0.062825
vt 0.615743 0.390344
v 951.947815 -582.325195 -7684.072266
vn 0.097438 -0.973556 0.206625
vt 0.500884 0.349985
v 864.372742 -579.553894 -7653.040039
vn -0.023578 -0.989918 0.139666
vt 0.383995 0.391770
v 811.267578 -579.933167 -7715.025879
vn -0.111674 -0.993702 0.009227
vt 0.351031 0.512231
f 5/5/5 6/6/6 1/1/1
f 7/7/7 1/1/1 6/6/6
f 1/1/1 7/7/7 8/8/8
f 3/3/3 1/1/1 2/2/2
f 1/1/1 3/3/3 5/5/5
f 4/4/4 5/5/5 3/3/3
