mtllib CB_NEWPLAYSURFACE_CB_PLAYSURFACE157.mtl
g _playsurface157
usemtl Lvl_Cburst_rockground_mix
v -25352.951172 -398.960663 -15906.933594
vn -0.002248 0.999997 0.000010
vt 0.250374 -3.133337
v -25565.046875 -399.439362 -15930.237305
vn 0.305040 0.951418 0.041890
vt 0.527054 -3.105207
v -25581.298828 -399.439362 -15811.238281
vn 0.282131 0.950737 0.128455
vt 0.548255 -3.248837
v -25350.550781 -398.960663 -16021.874023
vn -0.002412 0.999997 -0.000045
vt 0.247242 -2.994604
v -25548.792969 -399.439362 -16049.235352
vn -0.002438 0.999997 -0.000240
vt 0.505852 -2.961576
v -25532.541016 -399.439362 -16168.234375
vn -0.002703 0.999996 -0.000204
vt 0.484650 -3.817945
v -25348.148438 -398.960663 -16136.813477
vn -0.002637 0.999997 0.000059
vt 0.244107 -3.855873
v -25355.529297 -398.960663 -16277.437500
vn -0.002798 0.999996 0.000390
vt 0.253736 -3.686142
v -25516.289063 -399.439362 -16287.233398
vn 0.299313 0.949631 -0.092801
vt 0.463449 -3.674314
v -26894.904297 -398.960541 -18129.447266
vn 0.000045 0.999997 0.002437
vt 2.261851 -3.450774
v -26955.029297 -399.439270 -17923.724609
vn -0.000119 0.999997 0.002292
vt 2.340289 -3.699078
v -26757.277344 -399.439270 -17913.496094
vn -0.000069 0.999998 0.002205
vt 2.082320 -3.711425
v -26616.566406 -398.960571 -18132.037109
vn -0.000157 0.999998 0.002173
vt 1.898762 -3.447649
v -26559.554688 -399.439270 -17903.269531
vn -0.001013 0.999998 0.001654
vt 1.824389 -3.723768
v -26365.515625 -398.960571 -18072.988281
vn -0.001171 0.999998 0.001512
vt 1.571266 -3.518921
v -26140.046875 -398.960602 -17693.740234
vn -0.002871 0.999996 0.000273
vt 1.277140 -3.976670
v -26559.554688 -399.439270 -17903.269531
vn -0.001013 0.999998 0.001654
vt 1.824389 -2.723768
v -26283.396484 -399.439301 -17524.830078
vn -0.003294 0.999995 -0.000036
vt 1.464141 -3.180541
v -26140.046875 -398.960602 -17693.740234
vn -0.002871 0.999996 0.000273
vt 1.277140 -2.976670
v -26207.251953 -398.960602 -17284.242188
vn -0.001981 0.999998 0.000500
vt 1.364810 -3.470934
v -26329.419922 -399.439301 -17279.357422
vn -0.003948 0.999992 -0.000740
vt 1.524180 -3.476826
v -26352.433594 -399.439331 -17156.619141
vn -0.003948 0.999992 -0.000740
vt 1.554202 -3.624971
v -26375.447266 -399.439331 -17033.880859
vn -0.001487 0.999999 0.000615
vt 1.584223 -3.773115
v -26176.562500 -399.199951 -17179.697266
vn -0.002107 0.999998 -0.000102
vt 1.324775 -3.597117
v -26337.093750 -399.439331 -16949.500000
vn -0.002066 0.999998 -0.000006
vt 1.534189 -3.874962
v -26146.048828 -398.960632 -17075.095703
vn -0.002818 0.999996 0.000067
vt 1.284971 -3.723372
v -26298.738281 -399.439331 -16865.119141
vn 0.195885 0.976568 -0.089127
vt 1.484155 -3.976809
v -26115.447266 -398.960632 -16970.523438
vn -0.001875 0.999998 0.001006
vt 1.245049 -3.849590
v -26298.738281 -399.439331 -16865.119141
vn 0.195885 0.976568 -0.089127
vt 1.484155 -2.976809
v -26260.380859 -399.439331 -16780.738281
vn -0.002070 0.999997 0.000941
vt 1.434119 -3.078656
v -26115.447266 -398.960632 -16970.523438
vn -0.001875 0.999998 0.001006
vt 1.245049 -2.849590
v -26222.027344 -399.439331 -16696.357422
vn -0.001223 0.999998 0.001606
vt 1.384084 -3.180504
v -25965.570313 -398.960632 -16837.505859
vn -0.001011 0.999997 0.002091
vt 1.049537 -3.010140
v -25690.166016 -399.439331 -16604.302734
vn 0.183182 0.911419 -0.368455
vt 0.690272 -3.291614
v -25489.607422 -398.960632 -16662.039063
vn -0.001832 0.999997 0.001876
vt 0.428641 -3.221931
v -25548.792969 -399.439362 -16049.235352
vn -0.002438 0.999997 -0.000240
vt 0.505852 -3.961576
v -25350.550781 -398.960663 -16021.874023
vn -0.002412 0.999997 -0.000045
vt 0.247242 -3.994604
v -25345.568359 -398.960693 -15766.303711
vn -0.002143 0.999998 0.000210
vt 0.240742 -3.303076
v -26714.513672 -397.524384 -18746.611328
vn 0.012207 0.987290 0.158461
vt 2.026535 -3.705864
v -26744.582031 -397.763733 -18643.748047
vn 0.000260 0.999997 0.002439
vt 2.065755 -3.830015
v -26264.789063 -397.763733 -18678.388672
vn -0.000314 0.999998 0.002034
vt 1.439867 -3.788208
v -26194.433594 -397.524384 -18787.660156
vn -0.030495 0.994298 0.102187
vt 1.348088 -3.656319
v -26194.433594 -397.524384 -18787.660156
vn -0.030495 0.994298 0.102187
vt 1.348088 -2.656319
v -26264.789063 -397.763733 -18678.388672
vn -0.000314 0.999998 0.002034
vt 1.439867 -2.788208
v -25880.419922 -397.763763 -18497.281250
vn -0.001539 0.999998 0.001150
vt 0.938454 -3.006802
v -25783.398438 -397.524384 -18582.142578
vn -0.175124 0.979831 0.096240
vt 0.811891 -2.904377
v -25781.671875 -397.763763 -18116.009766
vn -0.002758 0.999996 0.000326
vt 0.809641 -3.466993
v -25709.998047 -397.524414 -18200.466797
vn -0.155108 0.987800 0.013875
vt 0.716141 -3.365058
v -25786.755859 -397.763763 -17910.138672
vn 0.001030 0.999996 0.002535
vt 0.816273 -3.715482
v -25702.658203 -397.524414 -18035.318359
vn -0.159320 0.987199 0.007423
vt 0.706566 -3.564391
v -25775.234375 -398.601532 -17755.185547
vn -0.002006 0.999998 -0.000075
vt 0.801241 -3.902507
v -25694.968750 -398.481842 -17870.285156
vn 0.000612 0.999998 0.001711
vt 0.696535 -3.763584
v -25775.234375 -398.601532 -17755.185547
vn -0.002006 0.999998 -0.000075
vt 0.801241 -2.902507
v -25764.326172 -397.763794 -17600.031250
vn -0.005926 0.999980 -0.002172
vt 0.787010 -3.089777
v -25687.978516 -397.524445 -17705.021484
vn -0.172651 0.984969 0.005182
vt 0.687417 -2.963058
v -25687.978516 -397.524445 -17705.021484
vn -0.172651 0.984969 0.005182
vt 0.687417 -3.963058
v -25753.107422 -397.763794 -17444.978516
vn -0.001972 0.999998 0.000968
vt 0.772377 -3.276924
v -25680.638672 -397.524445 -17539.873047
vn -0.170593 0.980081 0.101685
vt 0.677843 -3.162391
v -25324.431641 -397.763794 -17190.378906
vn -0.001216 0.999998 0.001508
vt 0.213169 -3.584227
v -25196.203125 -397.524445 -17260.953125
vn -0.112231 0.987825 0.107734
vt 0.045895 -3.499044
v -25196.203125 -397.524445 -17260.953125
vn -0.112231 0.987825 0.107734
vt 0.045895 -2.499044
v -25324.431641 -397.763794 -17190.378906
vn -0.001216 0.999998 0.001508
vt 0.213169 -2.584227
v -24988.208984 -397.763824 -16806.373047
vn -0.002141 0.999997 0.000766
vt -0.225436 -3.047720
v -24887.927734 -397.524475 -16835.240234
vn -0.149297 0.988193 0.034426
vt -0.356252 -3.012878
v -24953.626953 -397.763855 -16252.943359
vn -0.002860 0.999996 0.000588
vt -0.270547 -3.715706
v -24873.246094 -397.524506 -16248.045898
vn -0.200603 0.978875 0.039518
vt -0.375404 -3.721619
v -24716.666016 -397.524506 -15837.020508
vn -0.152362 0.986649 0.057530
vt -0.579663 -3.217724
v -24822.712891 -397.763855 -15848.669922
vn -0.002344 0.999997 0.000771
vt -0.441323 -3.203660
v -24756.236328 -397.763885 -15653.958984
vn -0.002236 0.999997 0.000792
vt -0.528044 -3.438677
v -24638.367188 -397.524536 -15631.491211
vn -0.175095 0.984430 -0.015460
vt -0.681801 -3.465797
v -24887.158203 -397.763855 -16058.257813
vn -0.002757 0.999996 0.000883
vt -0.357254 -3.950689
v -24794.960938 -397.524506 -16042.548828
vn -0.148083 0.987385 0.056054
vt -0.477526 -3.969653
v -24854.935547 -397.763855 -15953.463867
vn -0.002527 0.999997 0.000779
vt -0.399289 -3.077175
v -24755.812500 -397.524506 -15939.785156
vn -0.149974 0.987059 0.056773
vt -0.528594 -3.093689
v -24794.960938 -397.524506 -16042.548828
vn -0.148083 0.987385 0.056054
vt -0.477526 -2.969653
v -24887.158203 -397.763855 -16058.257813
vn -0.002757 0.999996 0.000883
vt -0.357254 -2.950689
f 41/41/41 39/39/39 40/40/40
f 39/39/39 41/41/41 42/42/42
f 7/7/7 36/36/36 37/37/37
f 36/36/36 7/7/7 6/6/6
f 8/8/8 6/6/6 7/7/7
f 6/6/6 8/8/8 9/9/9
f 35/35/35 9/9/9 8/8/8
f 9/9/9 35/35/35 34/34/34
f 33/33/33 34/34/34 35/35/35
f 34/34/34 33/33/33 32/32/32
f 31/31/31 32/32/32 33/33/33
f 32/32/32 31/31/31 30/30/30
f 29/29/29 30/30/30 31/31/31
f 52/52/52 51/51/51 56/56/56
f 51/51/51 52/52/52 49/49/49
f 50/50/50 49/49/49 52/52/52
f 49/49/49 50/50/50 47/47/47
f 48/48/48 47/47/47 50/50/50
f 47/47/47 48/48/48 45/45/45
f 46/46/46 45/45/45 48/48/48
f 45/45/45 46/46/46 43/43/43
f 43/43/43 44/44/44 45/45/45
f 21/21/21 22/22/22 20/20/20
f 23/23/23 20/20/20 22/22/22
f 20/20/20 23/23/23 24/24/24
f 25/25/25 24/24/24 23/23/23
f 24/24/24 25/25/25 26/26/26
f 27/27/27 26/26/26 25/25/25
f 26/26/26 27/27/27 28/28/28
f 21/21/21 20/20/20 18/18/18
f 19/19/19 18/18/18 20/20/20
f 18/18/18 19/19/19 17/17/17
f 73/73/73 75/75/75 76/76/76
f 75/75/75 73/73/73 74/74/74
f 68/68/68 74/74/74 73/73/73
f 74/74/74 68/68/68 67/67/67
f 69/69/69 67/67/67 68/68/68
f 67/67/67 69/69/69 70/70/70
f 16/16/16 15/15/15 14/14/14
f 13/13/13 14/14/14 15/15/15
f 14/14/14 13/13/13 12/12/12
f 10/10/10 12/12/12 13/13/13
f 12/12/12 10/10/10 11/11/11
f 2/2/2 4/4/4 5/5/5
f 4/4/4 2/2/2 1/1/1
f 3/3/3 1/1/1 2/2/2
f 1/1/1 3/3/3 38/38/38
f 58/58/58 57/57/57 59/59/59
f 57/57/57 58/58/58 54/54/54
f 55/55/55 54/54/54 58/58/58
f 54/54/54 55/55/55 53/53/53
f 59/59/59 60/60/60 58/58/58
f 63/63/63 64/64/64 61/61/61
f 64/64/64 63/63/63 66/66/66
f 65/65/65 66/66/66 63/63/63
f 66/66/66 65/65/65 71/71/71
f 61/61/61 62/62/62 63/63/63
f 71/71/71 72/72/72 66/66/66
usemtl Lvl_Cburst_gground_mix
v -25709.115234 -398.481903 -16978.656250
vn -0.001089 0.999998 0.001836
vt 0.714989 -3.839773
v -25452.660156 -398.003174 -17119.804688
vn -0.001167 0.999998 0.001623
vt 0.380443 -3.669409
v -25825.576172 -398.003143 -17350.087891
vn -0.001917 0.999998 0.001006
vt 0.866912 -3.391459
v -25970.511719 -398.481903 -17160.304688
vn -0.001846 0.999998 0.001049
vt 1.055981 -3.620525
v -25840.669922 -398.003143 -17495.042969
vn -0.005240 0.999985 -0.001677
vt 0.886602 -3.216497
v -25993.359375 -398.481873 -17285.070313
vn -0.004112 0.999991 -0.000865
vt 1.085786 -3.469934
v -25855.500000 -398.721222 -17640.087891
vn -0.002106 0.999998 -0.000136
vt 0.905947 -3.041430
v -26016.031250 -398.960602 -17409.892578
vn -0.002180 0.999998 -0.000172
vt 1.115362 -3.319273
v -25870.855469 -398.003143 -17784.957031
vn 0.000520 0.999997 0.002183
vt 0.925979 -2.866572
v -26039.054688 -398.481873 -17534.599609
vn -0.000315 0.999999 0.001606
vt 1.145395 -3.168754
v -25870.855469 -398.003143 -17784.957031
vn 0.000520 0.999997 0.002183
vt 0.925979 -3.866572
v -25853.347656 -398.003113 -18031.556641
vn -0.002794 0.999996 0.000306
vt 0.903142 -3.568929
v -25996.699219 -398.481873 -17862.650391
vn -0.002833 0.999996 0.000292
vt 1.090142 -3.772799
v -25996.699219 -398.481873 -17862.650391
vn -0.002833 0.999996 0.000292
vt 1.090142 -2.772799
v -25977.437500 -398.003113 -18412.421875
vn -0.001463 0.999998 0.001226
vt 1.065017 -3.109225
v -26171.476563 -398.481842 -18242.705078
vn -0.001335 0.999998 0.001350
vt 1.318140 -3.314074
v -25452.660156 -398.003174 -17119.804688
vn -0.001167 0.999998 0.001623
vt 0.380443 -2.669409
v -25709.115234 -398.481903 -16978.656250
vn -0.001089 0.999998 0.001836
vt 0.714989 -2.839773
v -25289.046875 -398.481903 -16719.771484
vn -0.001980 0.999997 0.001340
vt 0.167010 -3.152247
v -26335.144531 -398.003082 -18569.117188
vn -0.000290 0.999998 0.002054
vt 1.531646 -2.920096
v -26475.855469 -398.481842 -18350.576172
vn -0.000241 0.999998 0.002098
vt 1.715204 -3.183872
v -26774.644531 -398.003113 -18540.888672
vn 0.000133 0.999997 0.002338
vt 2.104975 -2.954167
v -26834.773438 -398.481842 -18335.167969
vn 0.000073 0.999997 0.002314
vt 2.183413 -3.202472
v -25152.304688 -398.481934 -15994.509766
vn -0.002455 0.999997 0.000259
vt -0.011371 -3.027634
v -25350.550781 -398.960663 -16021.874023
vn -0.002412 0.999997 -0.000045
vt 0.247242 -2.994604
v -25352.951172 -398.960663 -15906.933594
vn -0.002248 0.999997 0.000010
vt 0.250374 -3.133337
v -25140.857422 -398.481934 -15883.628906
vn -0.002289 0.999997 0.000333
vt -0.026303 -3.161467
v -25163.751953 -398.481934 -16105.390625
vn -0.002685 0.999996 0.000396
vt 0.003561 -3.893801
v -25348.148438 -398.960663 -16136.813477
vn -0.002637 0.999997 0.000059
vt 0.244107 -3.855873
v -25350.550781 -398.960663 -16021.874023
vn -0.002412 0.999997 -0.000045
vt 0.247242 -3.994604
v -25163.751953 -398.481934 -16105.390625
vn -0.002685 0.999996 0.000396
vt 0.003561 -2.893801
v -24854.935547 -397.763855 -15953.463867
vn -0.002527 0.999997 0.000779
vt -0.399289 -3.077175
v -24954.058594 -398.003204 -15967.145508
vn -0.002498 0.999997 0.000567
vt -0.269983 -3.060662
v -24928.761719 -398.003204 -15860.323242
vn -0.002324 0.999997 0.000605
vt -0.302983 -3.189596
v -24822.712891 -397.763855 -15848.669922
vn -0.002344 0.999997 0.000771
vt -0.441323 -3.203660
v -24887.158203 -397.763855 -16058.257813
vn -0.002757 0.999996 0.000883
vt -0.357254 -2.950689
v -24979.355469 -398.003204 -16073.969727
vn -0.002728 0.999996 0.000693
vt -0.236982 -2.931726
v -24953.626953 -397.763855 -16252.943359
vn -0.002860 0.999996 0.000588
vt -0.270547 -3.715706
v -25034.005859 -398.003204 -16257.842773
vn -0.002955 0.999995 0.000584
vt -0.165691 -3.709792
v -24979.355469 -398.003204 -16073.969727
vn -0.002728 0.999996 0.000693
vt -0.236982 -3.931726
v -24887.158203 -397.763855 -16058.257813
vn -0.002757 0.999996 0.000883
vt -0.357254 -3.950689
v -25088.486328 -398.003174 -16777.505859
vn -0.002214 0.999997 0.000873
vt -0.094621 -3.082561
v -25109.833984 -398.481964 -15721.365234
vn -0.002189 0.999997 0.000495
vt -0.066773 -3.357317
v -24874.101563 -398.003235 -15676.427734
vn -0.002219 0.999997 0.000692
vt -0.374286 -3.411555
v -25194.767578 -398.481934 -16267.638672
vn -0.002825 0.999996 0.000443
vt 0.044023 -3.697968
v -25355.529297 -398.960663 -16277.437500
vn -0.002798 0.999996 0.000390
vt 0.253736 -3.686142
v -26744.582031 -397.763733 -18643.750000
vn 0.000163 0.999997 0.002349
vt 2.065755 -3.830015
v -26774.644531 -398.003113 -18540.888672
vn 0.000133 0.999997 0.002338
vt 2.104975 -3.954167
v -26335.144531 -398.003082 -18569.117188
vn -0.000290 0.999998 0.002054
vt 1.531646 -3.920096
v -26264.789063 -397.763733 -18678.388672
vn -0.000314 0.999998 0.002034
vt 1.439867 -3.788208
v -26894.902344 -398.960541 -18129.447266
vn -0.000025 0.999997 0.002277
vt 2.261851 -3.450774
v -26616.566406 -398.960571 -18132.037109
vn -0.000157 0.999998 0.002173
vt 1.898762 -3.447649
v -26264.789063 -397.763733 -18678.388672
vn -0.000314 0.999998 0.002034
vt 1.439867 -2.788208
v -25880.419922 -397.763763 -18497.281250
vn -0.001539 0.999998 0.001150
vt 0.938454 -3.006802
v -26365.515625 -398.960571 -18072.988281
vn -0.001171 0.999998 0.001512
vt 1.571266 -3.518921
v -25781.671875 -397.763763 -18116.009766
vn -0.002758 0.999996 0.000326
vt 0.809641 -3.466993
v -26140.046875 -398.960602 -17693.740234
vn -0.002871 0.999996 0.000273
vt 1.277140 -3.976670
v -25786.755859 -397.763763 -17910.138672
vn 0.001030 0.999996 0.002535
vt 0.816273 -3.715482
v -26140.046875 -398.960602 -17693.740234
vn -0.002871 0.999996 0.000273
vt 1.277140 -2.976670
v -26207.251953 -398.960602 -17284.242188
vn -0.001981 0.999998 0.000500
vt 1.364810 -3.470934
v -25775.234375 -398.601532 -17755.185547
vn -0.002006 0.999998 -0.000075
vt 0.801241 -2.902507
v -25775.234375 -398.601532 -17755.185547
vn -0.002006 0.999998 -0.000075
vt 0.801241 -3.902507
v -26176.562500 -399.199951 -17179.697266
vn -0.002107 0.999998 -0.000102
vt 1.324775 -3.597117
v -25764.326172 -397.763794 -17600.031250
vn -0.005926 0.999980 -0.002172
vt 0.787010 -3.089777
v -26146.048828 -398.960632 -17075.095703
vn -0.002818 0.999996 0.000067
vt 1.284971 -3.723372
v -25753.107422 -397.763794 -17444.978516
vn -0.001972 0.999998 0.000968
vt 0.772377 -3.276924
v -26115.447266 -398.960632 -16970.523438
vn -0.001875 0.999998 0.001006
vt 1.245049 -3.849590
v -25324.431641 -397.763794 -17190.378906
vn -0.001216 0.999998 0.001508
vt 0.213169 -3.584227
v -25970.511719 -398.481903 -17160.304688
vn -0.001846 0.999998 0.001049
vt 1.055981 -2.620525
v -26115.447266 -398.960632 -16970.523438
vn -0.001875 0.999998 0.001006
vt 1.245049 -2.849590
v -25965.570313 -398.960632 -16837.505859
vn -0.001011 0.999997 0.002091
vt 1.049537 -3.010140
v -25324.431641 -397.763794 -17190.378906
vn -0.001216 0.999998 0.001508
vt 0.213169 -2.584227
v -24988.208984 -397.763824 -16806.373047
vn -0.002141 0.999997 0.000766
vt -0.225436 -3.047720
v -25489.607422 -398.960632 -16662.039063
vn -0.001832 0.999997 0.001876
vt 0.428641 -3.221931
v -24756.236328 -397.763885 -15653.958984
vn -0.002236 0.999997 0.000792
vt -0.528044 -3.438677
v -25345.568359 -398.960693 -15766.303711
vn -0.002143 0.999998 0.000210
vt 0.240742 -3.303076
f 125/125/125 123/123/123 124/124/124
f 123/123/123 125/125/125 126/126/126
f 147/147/147 145/145/145 146/146/146
f 145/145/145 147/147/147 94/94/94
f 150/150/150 94/94/94 147/147/147
f 94/94/94 150/150/150 95/95/95
f 122/122/122 95/95/95 150/150/150
f 95/95/95 122/122/122 121/121/121
f 105/105/105 121/121/121 122/122/122
f 121/121/121 105/105/105 104/104/104
f 106/106/106 104/104/104 105/105/105
f 115/115/115 104/104/104 116/116/116
f 104/104/104 115/115/115 121/121/121
f 118/118/118 121/121/121 115/115/115
f 121/121/121 118/118/118 95/95/95
f 93/93/93 95/95/95 118/118/118
f 95/95/95 93/93/93 94/94/94
f 148/148/148 93/93/93 118/118/118
f 114/114/114 115/115/115 116/116/116
f 115/115/115 114/114/114 118/118/118
f 149/149/149 118/118/118 114/114/114
f 118/118/118 149/149/149 148/148/148
f 116/116/116 117/117/117 114/114/114
f 86/86/86 85/85/85 90/90/90
f 85/85/85 86/86/86 83/83/83
f 84/84/84 83/83/83 86/86/86
f 83/83/83 84/84/84 81/81/81
f 82/82/82 81/81/81 84/84/84
f 81/81/81 82/82/82 79/79/79
f 80/80/80 79/79/79 82/82/82
f 79/79/79 80/80/80 77/77/77
f 77/77/77 78/78/78 79/79/79
f 142/142/142 79/79/79 78/78/78
f 79/79/79 142/142/142 81/81/81
f 140/140/140 81/81/81 142/142/142
f 81/81/81 140/140/140 83/83/83
f 137/137/137 83/83/83 140/140/140
f 83/83/83 137/137/137 85/85/85
f 78/78/78 144/144/144 142/142/142
f 143/143/143 80/80/80 141/141/141
f 82/82/82 141/141/141 80/80/80
f 141/141/141 82/82/82 139/139/139
f 84/84/84 139/139/139 82/82/82
f 139/139/139 84/84/84 136/136/136
f 86/86/86 136/136/136 84/84/84
f 136/136/136 86/86/86 135/135/135
f 90/90/90 135/135/135 86/86/86
f 138/138/138 134/134/134 87/87/87
f 88/88/88 87/87/87 134/134/134
f 87/87/87 88/88/88 89/89/89
f 92/92/92 89/89/89 88/88/88
f 89/89/89 92/92/92 131/131/131
f 97/97/97 131/131/131 92/92/92
f 131/131/131 97/97/97 128/128/128
f 99/99/99 128/128/128 97/97/97
f 128/128/128 99/99/99 127/127/127
f 131/131/131 133/133/133 89/89/89
f 97/97/97 98/98/98 99/99/99
f 98/98/98 97/97/97 96/96/96
f 92/92/92 96/96/96 97/97/97
f 96/96/96 92/92/92 91/91/91
f 88/88/88 91/91/91 92/92/92
f 91/91/91 88/88/88 132/132/132
f 134/134/134 132/132/132 88/88/88
f 132/132/132 130/130/130 91/91/91
f 129/129/129 91/91/91 130/130/130
f 91/91/91 129/129/129 96/96/96
f 101/101/101 102/102/102 100/100/100
f 103/103/103 100/100/100 102/102/102
f 100/100/100 103/103/103 109/109/109
f 110/110/110 109/109/109 103/103/103
f 109/109/109 110/110/110 108/108/108
f 111/111/111 108/108/108 110/110/110
f 108/108/108 112/112/112 109/109/109
f 113/113/113 109/109/109 112/112/112
f 109/109/109 113/113/113 100/100/100
f 107/107/107 100/100/100 113/113/113
f 100/100/100 107/107/107 101/101/101
f 102/102/102 152/152/152 103/103/103
f 119/119/119 103/103/103 152/152/152
f 103/103/103 119/119/119 110/110/110
f 120/120/120 110/110/110 119/119/119
f 110/110/110 120/120/120 111/111/111
f 151/151/151 111/111/111 120/120/120
