mtllib CB_NEWPLAYSURFACE_CB_WATERFALLS13.mtl
g CB_waterfalls13
usemtl waterout
v -20213.804688 -861.383911 -10733.068359
vn 0.475927 -0.518670 -0.710264
vt 0.666499 0.999500
v -20220.763672 -823.063232 -10762.804688
vn 0.482051 -0.220307 -0.847993
vt 0.666499 0.899600
v -20088.576172 -830.727356 -10649.929688
vn 0.668607 -0.241444 -0.703327
vt 0.499999 0.899600
v -20089.285156 -861.280518 -10623.939453
vn 0.589423 -0.531331 -0.608497
vt 0.499999 0.999500
v -20145.806641 -277.661560 -10137.514648
vn 0.134669 0.986767 -0.090303
vt 0.000499 0.100400
v -20223.191406 -278.403595 -10260.903320
vn 0.114023 0.989325 -0.090743
vt 0.333499 0.100400
v -20235.742188 -276.186096 -10247.898438
vn 0.103908 0.991532 -0.077891
vt 0.333500 0.050450
v -20149.408203 -276.772034 -10134.053711
vn 0.125439 0.987786 -0.092432
vt 0.000499 0.050450
v -20434.841797 -277.355682 -10494.049805
vn 0.117548 0.986542 -0.113655
vt 0.666500 0.100400
v -20545.896484 -274.420990 -10575.576172
vn 0.132531 0.978653 -0.157082
vt 0.999500 0.100400
v -20548.425781 -273.544647 -10572.583008
vn 0.132416 0.981588 -0.137662
vt 0.999500 0.050450
v -20445.320313 -275.054108 -10480.619141
vn 0.108299 0.988959 -0.101152
vt 0.666500 0.050450
v -20244.546875 -274.764954 -10238.805664
vn 0.102379 0.991530 -0.079922
vt 0.333500 0.000500
v -20338.251953 -275.701752 -10364.840820
vn 0.094023 0.992352 -0.079988
vt 0.500000 0.050450
v -20347.115234 -274.127838 -10354.588867
vn 0.089531 0.993150 -0.075081
vt 0.500000 0.000500
v -20325.615234 -278.186249 -10379.492188
vn 0.114078 0.988517 -0.099097
vt 0.500000 0.100400
v -20452.632813 -273.582184 -10471.259766
vn 0.091873 0.992502 -0.080618
vt 0.666500 0.000500
v -19922.841797 -467.745087 -10317.235352
vn 0.820457 0.303674 -0.484390
vt 0.000499 0.699800
v -19997.251953 -592.583313 -10504.500977
vn 0.773251 0.253176 -0.581365
vt 0.333499 0.699800
v -20016.404297 -487.114899 -10486.749023
vn 0.751147 0.332634 -0.570205
vt 0.333499 0.599900
v -20398.707031 -287.798187 -10540.225586
vn 0.153954 0.972671 -0.173806
vt 0.666500 0.200300
v -20056.001953 -303.395508 -10221.453125
vn 0.313842 0.923527 -0.220455
vt 0.000499 0.400100
v -20081.392578 -348.034393 -10412.972656
vn 0.459768 0.806221 -0.372318
vt 0.333499 0.400100
v -20132.369141 -308.028534 -10356.731445
vn 0.292874 0.926565 -0.236012
vt 0.333499 0.300200
v -20535.257813 -278.061981 -10588.519531
vn 0.126991 0.978622 -0.161776
vt 0.999500 0.200300
v -20541.738281 -275.890656 -10580.499023
vn 0.129449 0.976738 -0.170955
vt 0.999500 0.150350
v -20009.144531 -332.444000 -10262.680664
vn 0.497503 0.799627 -0.336286
vt 0.000499 0.500000
v -20040.361328 -407.922760 -10459.768555
vn 0.643635 0.574591 -0.505548
vt 0.333499 0.500000
v -20180.406250 -288.498260 -10305.656250
vn 0.168545 0.977587 -0.126156
vt 0.333499 0.200300
v -20282.800781 -289.638153 -10429.343750
vn 0.157755 0.977128 -0.142596
vt 0.500000 0.200300
v -20357.263672 -307.856110 -10592.328125
vn 0.257908 0.918288 -0.300383
vt 0.666499 0.300200
v -20513.337891 -285.624359 -10617.155273
vn 0.157551 0.965845 -0.205722
vt 0.999500 0.300200
v -20550.126953 -272.955109 -10570.575195
vn 0.123010 0.985083 -0.120330
vt 0.999500 0.000500
v -20140.142578 -279.091858 -10143.005859
vn 0.148498 0.984464 -0.093693
vt 0.000499 0.150350
v -20131.271484 -281.155334 -10151.501953
vn 0.142085 0.985548 -0.092234
vt 0.000499 0.200300
v -20151.957031 -276.142761 -10131.623047
vn 0.139814 0.984257 -0.108125
vt 0.000499 0.000500
v -19895.843750 -585.019836 -10323.308594
vn 0.836124 0.263868 -0.480905
vt 0.000499 0.799700
v -19961.373047 -383.392548 -10298.677734
vn 0.710762 0.547271 -0.441942
vt 0.000499 0.599900
v -20100.857422 -288.252014 -10180.087891
vn 0.190378 0.973268 -0.128473
vt 0.000499 0.300200
v -19971.441406 -703.376709 -10524.721680
vn 0.790042 0.154848 -0.593174
vt 0.333499 0.799700
v -19870.882813 -685.593994 -10341.016602
vn 0.874091 0.100705 -0.475208
vt 0.000499 0.899600
v -19966.390625 -815.852783 -10523.847656
vn 0.829022 -0.132433 -0.543309
vt 0.333499 0.899600
v -19880.947266 -794.447693 -10354.664063
vn 0.889268 -0.158449 -0.429065
vt 0.000499 0.999500
v -19969.033203 -852.392334 -10503.441406
vn 0.736476 -0.403894 -0.542653
vt 0.333499 0.999500
v -20226.542969 -710.455933 -10766.302734
vn 0.537190 0.129821 -0.833411
vt 0.666499 0.799700
v -20092.640625 -724.381287 -10654.562500
vn 0.676385 0.172114 -0.716156
vt 0.499999 0.799700
v -20243.431641 -598.054504 -10741.974609
vn 0.528465 0.236294 -0.815408
vt 0.666499 0.699800
v -20112.925781 -613.249268 -10634.317383
vn 0.672435 0.239851 -0.700216
vt 0.499999 0.699800
v -20255.601563 -490.626923 -10720.763672
vn 0.528997 0.308651 -0.790504
vt 0.666499 0.599900
v -20129.931641 -504.139374 -10613.178711
vn 0.658005 0.335303 -0.674241
vt 0.499999 0.599900
v -20275.203125 -409.944489 -10693.792969
vn 0.490254 0.547912 -0.677822
vt 0.666499 0.500000
v -20150.230469 -420.724762 -10587.108398
vn 0.568510 0.591811 -0.571451
vt 0.499999 0.500000
v -20311.722656 -348.808258 -10648.003906
vn 0.382492 0.788687 -0.481324
vt 0.666499 0.400100
v -20187.875000 -355.862213 -10540.897461
vn 0.417339 0.811974 -0.408076
vt 0.499999 0.400100
v -20236.187500 -311.527130 -10483.808594
vn 0.264966 0.931240 -0.250172
vt 0.499999 0.300200
v -20390.599609 -811.137695 -10834.397461
vn 0.348468 -0.321976 -0.880285
vt 0.999499 0.999500
v -20403.578125 -701.469727 -10848.049805
vn 0.410361 0.064282 -0.909655
vt 0.999499 0.899600
v -20411.058594 -597.081543 -10819.611328
vn 0.411757 0.243272 -0.878223
vt 0.999499 0.799700
v -20408.613281 -474.460602 -10789.200195
vn 0.414628 0.276276 -0.867038
vt 0.999500 0.699800
v -20419.173828 -386.435883 -10752.473633
vn 0.398379 0.500847 -0.768405
vt 0.999500 0.599900
v -20447.238281 -332.486908 -10706.407227
vn 0.334549 0.765387 -0.549782
vt 0.999500 0.500000
v -20480.671875 -301.719269 -10660.858398
vn 0.241464 0.906810 -0.345530
vt 0.999500 0.400100
f 5/5/5 7/7/7 8/8/8
f 13/13/13 8/8/8 7/7/7
f 8/8/8 13/13/13 36/36/36
f 29/29/29 34/34/34 35/35/35
f 34/34/34 29/29/29 5/5/5
f 6/6/6 5/5/5 29/29/29
f 5/5/5 6/6/6 7/7/7
f 14/14/14 7/7/7 6/6/6
f 7/7/7 14/14/14 13/13/13
f 15/15/15 13/13/13 14/14/14
f 29/29/29 35/35/35 39/39/39
f 12/12/12 11/11/11 33/33/33
f 11/11/11 12/12/12 9/9/9
f 14/14/14 9/9/9 12/12/12
f 9/9/9 14/14/14 16/16/16
f 6/6/6 16/16/16 14/14/14
f 16/16/16 6/6/6 30/30/30
f 29/29/29 30/30/30 6/6/6
f 9/9/9 16/16/16 30/30/30
f 15/15/15 14/14/14 17/17/17
f 12/12/12 17/17/17 14/14/14
f 17/17/17 12/12/12 33/33/33
f 24/24/24 39/39/39 22/22/22
f 39/39/39 24/24/24 29/29/29
f 55/55/55 29/29/29 24/24/24
f 29/29/29 55/55/55 30/30/30
f 21/21/21 30/30/30 55/55/55
f 30/30/30 21/21/21 9/9/9
f 10/10/10 9/9/9 21/21/21
f 9/9/9 10/10/10 11/11/11
f 21/21/21 26/26/26 10/10/10
f 24/24/24 22/22/22 23/23/23
f 27/27/27 23/23/23 22/22/22
f 23/23/23 27/27/27 28/28/28
f 38/38/38 28/28/28 27/27/27
f 28/28/28 38/38/38 20/20/20
f 18/18/18 20/20/20 38/38/38
f 20/20/20 18/18/18 19/19/19
f 37/37/37 19/19/19 18/18/18
f 19/19/19 37/37/37 40/40/40
f 41/41/41 40/40/40 37/37/37
f 40/40/40 41/41/41 42/42/42
f 43/43/43 42/42/42 41/41/41
f 55/55/55 24/24/24 54/54/54
f 23/23/23 54/54/54 24/24/24
f 54/54/54 23/23/23 52/52/52
f 28/28/28 52/52/52 23/23/23
f 52/52/52 28/28/28 50/50/50
f 20/20/20 50/50/50 28/28/28
f 50/50/50 20/20/20 48/48/48
f 19/19/19 48/48/48 20/20/20
f 48/48/48 19/19/19 46/46/46
f 40/40/40 46/46/46 19/19/19
f 46/46/46 40/40/40 3/3/3
f 42/42/42 3/3/3 40/40/40
f 3/3/3 42/42/42 44/44/44
f 43/43/43 44/44/44 42/42/42
f 44/44/44 4/4/4 3/3/3
f 1/1/1 3/3/3 4/4/4
f 21/21/21 55/55/55 31/31/31
f 54/54/54 31/31/31 55/55/55
f 31/31/31 54/54/54 53/53/53
f 52/52/52 53/53/53 54/54/54
f 53/53/53 52/52/52 51/51/51
f 50/50/50 51/51/51 52/52/52
f 51/51/51 50/50/50 49/49/49
f 48/48/48 49/49/49 50/50/50
f 49/49/49 48/48/48 47/47/47
f 46/46/46 47/47/47 48/48/48
f 47/47/47 46/46/46 45/45/45
f 3/3/3 45/45/45 46/46/46
f 45/45/45 3/3/3 2/2/2
f 1/1/1 2/2/2 3/3/3
f 1/1/1 56/56/56 2/2/2
f 57/57/57 2/2/2 56/56/56
f 2/2/2 57/57/57 45/45/45
f 58/58/58 45/45/45 57/57/57
f 45/45/45 58/58/58 47/47/47
f 59/59/59 47/47/47 58/58/58
f 47/47/47 59/59/59 49/49/49
f 60/60/60 49/49/49 59/59/59
f 49/49/49 60/60/60 51/51/51
f 61/61/61 51/51/51 60/60/60
f 51/51/51 61/61/61 53/53/53
f 62/62/62 53/53/53 61/61/61
f 53/53/53 62/62/62 31/31/31
f 32/32/32 31/31/31 62/62/62
f 31/31/31 32/32/32 21/21/21
f 25/25/25 21/21/21 32/32/32
f 21/21/21 25/25/25 26/26/26
usemtl waterin
v -20351.546875 -277.475372 -10348.454102
vn 0.084665 0.993902 -0.070644
vt 0.500000 0.050450
v -20456.923828 -276.822113 -10463.310547
vn 0.098641 0.990995 -0.090550
vt 0.333500 0.050450
v -20464.337891 -275.492340 -10453.768555
vn 0.082566 0.994061 -0.070896
vt 0.333500 0.000500
v -20162.554688 -279.643616 -10122.638672
vn 0.120103 0.989599 -0.079172
vt 0.999500 0.100400
v -20237.980469 -280.015442 -10245.595703
vn 0.109202 0.990658 -0.081675
vt 0.666500 0.100400
v -20250.765625 -278.002075 -10232.388672
vn 0.094638 0.993185 -0.068021
vt 0.666500 0.050450
v -20446.298828 -278.921661 -10476.997070
vn 0.110552 0.987884 -0.108918
vt 0.333500 0.100400
v -20556.052734 -276.165985 -10557.526367
vn 0.132867 0.980090 -0.147545
vt 0.000500 0.100400
v -20558.607422 -275.346161 -10554.455078
vn 0.122052 0.984568 -0.125418
vt 0.000500 0.050450
v -20360.558594 -276.058685 -10338.023438
vn 0.080183 0.994605 -0.065809
vt 0.500000 0.000500
v -20101.388672 -719.788757 -10642.648438
vn 0.676982 0.178552 -0.714013
vt 0.500000 0.799700
v -20234.210938 -705.936035 -10753.741211
vn 0.537689 0.135930 -0.832114
vt 0.333500 0.799700
v -20251.539063 -594.395325 -10729.018555
vn 0.528531 0.242464 -0.813552
vt 0.333500 0.699800
v -20122.136719 -609.460144 -10621.963867
vn 0.672816 0.245996 -0.697714
vt 0.500000 0.699800
v -20264.101563 -488.047943 -10707.575195
vn 0.528369 0.317210 -0.787530
vt 0.333500 0.599900
v -20139.476563 -501.432098 -10600.617188
vn 0.657244 0.344193 -0.670493
vt 0.500000 0.599900
v -20284.240234 -408.244720 -10680.103516
vn 0.486590 0.559577 -0.670898
vt 0.333500 0.500000
v -20160.316406 -418.901947 -10574.098633
vn 0.564081 0.602861 -0.564245
vt 0.500000 0.500000
v -20321.410156 -347.981659 -10633.574219
vn 0.375070 0.798626 -0.470657
vt 0.333500 0.400100
v -20198.685547 -354.915436 -10527.213867
vn 0.409269 0.821091 -0.397881
vt 0.500000 0.400100
v -20367.648438 -307.954559 -10576.969727
vn 0.248824 0.924461 -0.288891
vt 0.333500 0.300200
v -20247.839844 -311.521149 -10469.270508
vn 0.255614 0.936630 -0.239552
vt 0.500000 0.300200
v -20409.666016 -288.680573 -10523.997070
vn 0.152262 0.974573 -0.164387
vt 0.333500 0.200300
v -20295.199219 -290.448151 -10413.998047
vn 0.148428 0.979975 -0.132731
vt 0.500000 0.200300
v -20338.699219 -279.737396 -10363.355469
vn 0.104808 0.990443 -0.089652
vt 0.500000 0.100400
v -19978.591797 -847.487671 -10492.812500
vn 0.740149 -0.397170 -0.542619
vt 0.666500 0.999500
v -20097.703125 -856.468079 -10612.695313
vn 0.593762 -0.523700 -0.610889
vt 0.500000 0.999500
v -20096.945313 -825.565247 -10638.452148
vn 0.671024 -0.234790 -0.703278
vt 0.500000 0.899600
v -19975.925781 -810.688599 -10512.935547
vn 0.831173 -0.126368 -0.541463
vt 0.666500 0.899600
v -20396.789063 -805.682617 -10821.875000
vn 0.349180 -0.315967 -0.882178
vt 0.000500 0.999500
v -20410.029297 -696.748657 -10834.953125
vn 0.410666 0.070163 -0.909082
vt 0.000500 0.899600
v -20228.046875 -817.887268 -10750.712891
vn 0.483299 -0.214282 -0.848826
vt 0.333500 0.899600
v -20221.140625 -856.464783 -10721.254883
vn 0.478785 -0.511939 -0.713220
vt 0.333500 0.999500
v -19981.408203 -698.890015 -10513.349609
vn 0.790716 0.161217 -0.590574
vt 0.666500 0.799700
v -20417.968750 -593.215271 -10806.111328
vn 0.411549 0.249511 -0.876568
vt 0.000500 0.799700
v -20007.646484 -588.960144 -10492.738281
vn 0.773423 0.259784 -0.578213
vt 0.666500 0.699800
v -20416.111328 -471.933868 -10775.481445
vn 0.414112 0.284250 -0.864704
vt 0.000500 0.699800
v -20027.167969 -484.561066 -10474.720703
vn 0.750228 0.341745 -0.566011
vt 0.666500 0.599900
v -20427.417969 -385.005890 -10738.065430
vn 0.395520 0.513418 -0.761555
vt 0.000500 0.599900
v -20051.732422 -406.243927 -10447.266602
vn 0.638880 0.586174 -0.498230
vt 0.666500 0.500000
v -20456.146484 -332.006500 -10691.103516
vn 0.327883 0.776735 -0.537750
vt 0.000500 0.500000
v -20093.589844 -347.232391 -10399.816406
vn 0.451332 0.815612 -0.362044
vt 0.666500 0.400100
v -20490.095703 -302.067902 -10644.629883
vn 0.232731 0.913953 -0.332454
vt 0.000500 0.400100
v -20145.535156 -308.159393 -10342.791016
vn 0.283327 0.932215 -0.225170
vt 0.666500 0.300200
v -20166.244141 -278.820007 -10119.123047
vn 0.115394 0.989989 -0.081273
vt 0.999500 0.050450
v -20523.148438 -286.672760 -10600.053711
vn 0.148435 0.969767 -0.193700
vt 0.000500 0.300200
v -20194.423828 -289.420197 -10291.006836
vn 0.166018 0.977950 -0.126695
vt 0.666500 0.200300
v -20545.302734 -279.573273 -10570.793945
vn 0.118912 0.983195 -0.138519
vt 0.000500 0.200300
v -20560.326172 -274.794830 -10552.393555
vn 0.112940 0.987647 -0.108619
vt 0.000500 0.000500
v -20259.736328 -276.725220 -10223.150391
vn 0.092889 0.993219 -0.069916
vt 0.666500 0.000500
v -19882.021484 -680.968567 -10330.171875
vn 0.874938 0.107007 -0.472264
vt 0.999500 0.899600
v -19907.425781 -581.258179 -10312.102539
vn 0.835929 0.270711 -0.477428
vt 0.999500 0.799700
v -20168.857422 -278.237793 -10116.652344
vn 0.129072 0.986965 -0.096125
vt 0.999500 0.000500
v -19934.841797 -465.292023 -10305.666016
vn 0.819470 0.312809 -0.480229
vt 0.999500 0.699800
v -19974.212891 -382.046234 -10286.432617
vn 0.705037 0.560229 -0.434818
vt 0.999500 0.599900
v -20022.988281 -332.071838 -10249.704102
vn 0.487291 0.810127 -0.325948
vt 0.999500 0.500000
v -20070.841797 -303.885010 -10207.801758
vn 0.303001 0.929717 -0.209325
vt 0.999500 0.400100
v -20116.611328 -289.478088 -10165.842773
vn 0.180497 0.976473 -0.117988
vt 0.999500 0.300200
v -20147.675781 -282.878967 -10136.841797
vn 0.131858 0.987809 -0.082743
vt 0.999500 0.200300
v -19891.517578 -789.056885 -10344.254883
vn 0.891497 -0.152677 -0.426525
vt 0.999500 0.999500
f 94/94/94 95/95/95 92/92/92
f 90/90/90 95/95/95 94/94/94
f 95/95/95 90/90/90 89/89/89
f 88/88/88 89/89/89 90/90/90
f 90/90/90 74/74/74 73/73/73
f 74/74/74 90/90/90 94/94/94
f 73/73/73 75/75/75 76/76/76
f 75/75/75 73/73/73 74/74/74
f 76/76/76 77/77/77 78/78/78
f 77/77/77 76/76/76 75/75/75
f 78/78/78 79/79/79 80/80/80
f 79/79/79 78/78/78 77/77/77
f 80/80/80 81/81/81 82/82/82
f 81/81/81 80/80/80 79/79/79
f 82/82/82 83/83/83 84/84/84
f 83/83/83 82/82/82 81/81/81
f 84/84/84 85/85/85 86/86/86
f 85/85/85 84/84/84 83/83/83
f 69/69/69 86/86/86 85/85/85
f 86/86/86 69/69/69 87/87/87
f 69/69/69 70/70/70 71/71/71
f 70/70/70 69/69/69 110/110/110
f 85/85/85 110/110/110 69/69/69
f 110/110/110 85/85/85 108/108/108
f 83/83/83 108/108/108 85/85/85
f 108/108/108 83/83/83 105/105/105
f 81/81/81 105/105/105 83/83/83
f 105/105/105 81/81/81 103/103/103
f 79/79/79 103/103/103 81/81/81
f 103/103/103 79/79/79 101/101/101
f 77/77/77 101/101/101 79/79/79
f 101/101/101 77/77/77 99/99/99
f 75/75/75 99/99/99 77/77/77
f 99/99/99 75/75/75 97/97/97
f 74/74/74 97/97/97 75/75/75
f 97/97/97 74/74/74 93/93/93
f 94/94/94 93/93/93 74/74/74
f 93/93/93 94/94/94 92/92/92
f 67/67/67 87/87/87 63/63/63
f 69/69/69 63/63/63 87/87/87
f 63/63/63 69/69/69 64/64/64
f 71/71/71 64/64/64 69/69/69
f 64/64/64 71/71/71 111/111/111
f 63/63/63 72/72/72 112/112/112
f 72/72/72 63/63/63 65/65/65
f 64/64/64 65/65/65 63/63/63
f 65/65/65 64/64/64 111/111/111
f 112/112/112 68/68/68 63/63/63
f 67/67/67 63/63/63 68/68/68
f 66/66/66 68/68/68 107/107/107
f 112/112/112 107/107/107 68/68/68
f 107/107/107 112/112/112 115/115/115
f 122/122/122 91/91/91 113/113/113
f 96/96/96 113/113/113 91/91/91
f 113/113/113 96/96/96 114/114/114
f 98/98/98 114/114/114 96/96/96
f 114/114/114 98/98/98 116/116/116
f 100/100/100 116/116/116 98/98/98
f 116/116/116 100/100/100 117/117/117
f 102/102/102 117/117/117 100/100/100
f 117/117/117 102/102/102 118/118/118
f 104/104/104 118/118/118 102/102/102
f 118/118/118 104/104/104 119/119/119
f 106/106/106 119/119/119 104/104/104
f 119/119/119 106/106/106 120/120/120
f 109/109/109 120/120/120 106/106/106
f 120/120/120 109/109/109 121/121/121
f 67/67/67 121/121/121 109/109/109
f 121/121/121 67/67/67 66/66/66
f 68/68/68 66/66/66 67/67/67
f 122/122/122 88/88/88 91/91/91
f 90/90/90 91/91/91 88/88/88
f 91/91/91 90/90/90 96/96/96
f 73/73/73 96/96/96 90/90/90
f 96/96/96 73/73/73 98/98/98
f 76/76/76 98/98/98 73/73/73
f 98/98/98 76/76/76 100/100/100
f 78/78/78 100/100/100 76/76/76
f 100/100/100 78/78/78 102/102/102
f 80/80/80 102/102/102 78/78/78
f 102/102/102 80/80/80 104/104/104
f 82/82/82 104/104/104 80/80/80
f 104/104/104 82/82/82 106/106/106
f 84/84/84 106/106/106 82/82/82
f 106/106/106 84/84/84 109/109/109
f 86/86/86 109/109/109 84/84/84
f 109/109/109 86/86/86 67/67/67
f 87/87/87 67/67/67 86/86/86
