mtllib CB_NEWPLAYSURFACE_CB_WATERFALLS10.mtl
g CB_waterfalls10
usemtl WaterChurned
v -13031.339844 -785.794922 -16663.865234
vn 0.005229 0.999979 -0.003826
vt 0.000000 0.750000
v -13084.834961 -785.929688 -16702.197266
vn 0.000829 0.999978 -0.006545
vt 0.000000 0.875000
v -13239.986328 -784.582642 -16516.037109
vn -0.009502 0.999892 -0.011196
vt 0.125000 0.875000
v -13162.335938 -783.982178 -16491.609375
vn 0.007721 0.999963 -0.003926
vt 0.125000 0.750000
v -13139.429688 -786.210938 -16740.929688
vn -0.008122 0.999908 -0.010871
vt 0.000000 1.000000
v -13319.249023 -786.249390 -16542.238281
vn -0.016963 0.999781 -0.012284
vt 0.125000 1.000000
v -13445.666016 -786.283936 -16323.556641
vn -0.025184 0.999646 -0.008561
vt 0.250000 1.000000
v -13348.836914 -783.615845 -16316.752930
vn -0.018121 0.999801 -0.008391
vt 0.250000 0.875000
v -13254.047852 -782.690918 -16312.059570
vn 0.009176 0.999958 -0.000664
vt 0.250000 0.750000
v -13365.084961 -783.409668 -16091.221680
vn -0.018235 0.999831 0.002224
vt 0.375000 0.875000
v -13267.192383 -782.442566 -16117.921875
vn 0.010109 0.999948 -0.001645
vt 0.375000 0.750000
v -13465.278320 -786.310730 -16064.898438
vn -0.027976 0.999602 0.003680
vt 0.375000 1.000000
v -13379.133789 -786.323608 -15823.564453
vn -0.022331 0.999635 0.015194
vt 0.500000 1.000000
v -13290.387695 -783.499756 -15883.014648
vn -0.014591 0.999845 0.009841
vt 0.500000 0.875000
v -13203.469727 -782.583374 -15940.976563
vn 0.008283 0.999951 -0.005416
vt 0.500000 0.750000
v -13126.403320 -783.421997 -15735.704102
vn -0.009158 0.999819 0.016690
vt 0.625000 0.875000
v -13064.581055 -782.459412 -15813.001953
vn 0.005520 0.999947 -0.008647
vt 0.625000 0.750000
v -13188.277344 -786.316284 -15656.854492
vn -0.014143 0.999572 0.025592
vt 0.625000 1.000000
v -12938.300781 -786.292236 -15579.132813
vn -0.002327 0.999591 0.028500
vt 0.750000 1.000000
v -12907.934570 -783.634644 -15663.318359
vn 0.000121 0.999773 0.021321
vt 0.750000 0.875000
v -12876.202148 -782.716492 -15746.965820
vn 0.004184 0.999959 -0.008081
vt 0.750000 0.750000
v -12669.786133 -784.595886 -15679.889648
vn 0.005930 0.999885 0.013979
vt 0.875000 0.875000
v -12664.008789 -784.000366 -15755.834961
vn 0.006364 0.999965 -0.005425
vt 0.875000 0.750000
v -12674.792969 -786.254944 -15604.759766
vn 0.004145 0.999741 0.022354
vt 0.875000 1.000000
v -12404.519531 -786.211060 -15682.062500
vn 0.006193 0.999900 0.012726
vt 1.000000 1.000000
v -12421.798828 -785.931335 -15740.938477
vn 0.005817 0.999982 0.001753
vt 1.000000 0.875000
v -12439.909180 -785.797729 -15802.157227
vn 0.005244 0.999981 -0.003281
vt 1.000000 0.750000
v -12923.625977 -786.041931 -16588.867188
vn -0.003554 0.999958 -0.008469
vt 0.000000 0.500000
v -12980.042969 -785.953308 -16626.337891
vn 0.002888 0.999996 -0.000819
vt 0.000000 0.625000
v -13087.907227 -785.514282 -16470.730469
vn 0.012464 0.999915 0.003915
vt 0.125000 0.625000
v -13007.389648 -786.201111 -16453.861328
vn -0.011655 0.999920 -0.004861
vt 0.125000 0.500000
v -13163.337891 -785.252136 -16311.587891
vn 0.019901 0.999790 0.004806
vt 0.250000 0.625000
v -13065.401367 -786.374023 -16317.580078
vn -0.016366 0.999853 -0.005022
vt 0.250000 0.500000
v -13173.900391 -785.343628 -16145.377930
vn 0.020343 0.999790 -0.002301
vt 0.375000 0.625000
v -13071.907227 -786.574341 -16178.742188
vn -0.016752 0.999853 0.003607
vt 0.375000 0.500000
v -13120.206055 -785.481873 -15995.960938
vn 0.016671 0.999801 -0.010965
vt 0.500000 0.625000
v -13026.750000 -786.684570 -16055.190430
vn -0.013823 0.999861 0.009299
vt 0.500000 0.500000
v -13002.863281 -785.359985 -15887.198242
vn 0.010240 0.999787 -0.017924
vt 0.625000 0.625000
v -12929.770508 -786.586975 -15964.765625
vn -0.010116 0.999840 0.014774
vt 0.625000 0.500000
v -12841.736328 -785.277100 -15829.533203
vn 0.003635 0.999786 -0.020360
vt 0.750000 0.625000
v -12795.965820 -786.393188 -15915.236328
vn -0.002055 0.999824 0.018654
vt 0.750000 0.500000
v -12656.690430 -785.532166 -15833.411133
vn 0.001406 0.999915 -0.012976
vt 0.875000 0.625000
v -12640.334961 -786.214844 -15914.368164
vn -0.000093 0.999900 0.014144
vt 0.875000 0.500000
v -12459.683594 -785.956177 -15868.061523
vn 0.001754 0.999996 -0.002268
vt 1.000000 0.625000
v -12473.791992 -786.044189 -15937.831055
vn 0.006024 0.999950 0.008011
vt 1.000000 0.500000
v -12780.678711 -785.397522 -16515.332031
vn 0.007968 0.998706 -0.050226
vt 0.000000 0.250000
v -12854.769531 -785.697876 -16550.701172
vn 0.006233 0.999763 -0.020865
vt 0.000000 0.375000
v -12911.470703 -783.064697 -16441.468750
vn -0.023501 0.999192 -0.032604
vt 0.125000 0.375000
v -12811.891602 -780.289856 -16433.091797
vn -0.000418 0.998523 -0.054338
vt 0.125000 0.250000
v -12948.930664 -781.131042 -16332.275391
vn -0.044690 0.998818 -0.019111
vt 0.250000 0.375000
v -12829.842773 -776.487976 -16351.460938
vn -0.008175 0.999576 -0.027933
vt 0.250000 0.250000
v -12947.910156 -780.596497 -16223.166016
vn -0.041613 0.999118 0.005666
vt 0.375000 0.375000
v -12821.272461 -775.297791 -16271.044922
vn -0.008171 0.999953 -0.005264
vt 0.375000 0.250000
v -12909.257813 -780.680664 -16125.885742
vn -0.033892 0.999168 0.022711
vt 0.500000 0.375000
v -12788.456055 -775.356079 -16198.475586
vn -0.004793 0.999983 0.003207
vt 0.500000 0.250000
v -12833.824219 -780.603333 -16052.181641
vn -0.022023 0.999043 0.037802
vt 0.625000 0.375000
v -12733.667969 -775.299683 -16140.385742
vn 0.001207 0.999946 0.010293
vt 0.625000 0.250000
v -12730.319336 -781.141541 -16008.291992
vn -0.000738 0.998619 0.052532
vt 0.750000 0.375000
v -12660.007813 -776.490784 -16101.643555
vn 0.020812 0.999590 0.019686
vt 0.750000 0.250000
v -12607.452148 -783.072205 -16000.456055
vn 0.019086 0.999082 0.038363
vt 0.875000 0.375000
v -12570.570313 -780.291870 -16087.117188
vn 0.045466 0.998708 0.022682
vt 0.875000 0.250000
v -12474.904297 -785.699097 -16010.647461
vn 0.020158 0.999787 0.004474
vt 1.000000 0.375000
v -12473.245117 -785.397949 -16084.698242
vn 0.045317 0.998903 0.011831
vt 1.000000 0.250000
v -12637.422852 -786.097473 -16460.308594
vn 0.036734 0.998853 -0.030708
vt 0.000000 0.000000
v -12708.558594 -785.617432 -16486.250000
vn 0.026336 0.998092 -0.055850
vt 0.000000 0.125000
v -12720.393555 -782.061340 -16428.279297
vn 0.033472 0.998685 -0.038835
vt 0.125000 0.125000
v -12632.937500 -786.106079 -16425.250000
vn 0.046478 0.998886 -0.008118
vt 0.125000 0.000000
v -12724.052734 -779.409546 -16370.918945
vn 0.041005 0.998575 -0.034166
vt 0.250000 0.125000
v -12624.912109 -786.113403 -16390.513672
vn 0.057556 0.997967 -0.027385
vt 0.250000 0.000000
v -12711.359375 -778.566223 -16314.772461
vn 0.042515 0.998834 -0.022850
vt 0.375000 0.125000
v -12609.807617 -786.118164 -16356.423828
vn 0.061118 0.997622 -0.031867
vt 0.375000 0.000000
v -12685.070313 -778.596680 -16263.389648
vn 0.038657 0.998914 -0.026028
vt 0.500000 0.125000
v -12590.394531 -786.119873 -16324.465820
vn 0.056482 0.997681 -0.037972
vt 0.500000 0.000000
v -12647.946289 -778.566345 -16220.321289
vn 0.037203 0.998823 -0.031107
vt 0.625000 0.125000
v -12569.441406 -786.118286 -16296.123047
vn 0.052840 0.997604 -0.044665
vt 0.625000 0.000000
v -12600.244141 -779.409790 -16188.233398
vn 0.045615 0.998607 -0.026516
vt 0.750000 0.125000
v -12545.753906 -786.113647 -16271.442383
vn 0.047289 0.997885 -0.044593
vt 0.750000 0.000000
v -12542.221680 -782.061646 -16169.791016
vn 0.046897 0.998704 -0.019764
vt 0.875000 0.125000
v -12518.138672 -786.106445 -16250.472656
vn 0.028832 0.998724 -0.041463
vt 0.875000 0.000000
v -12479.038086 -785.617676 -16158.171875
vn 0.058180 0.998247 -0.010861
vt 1.000000 0.125000
v -12488.558594 -786.097900 -16231.356445
vn 0.042846 0.998686 -0.028128
vt 1.000000 0.000000
f 42/42/42 44/44/44 45/45/45
f 42/42/42 40/40/40 21/21/21
f 16/16/16 20/20/20 21/21/21
f 42/42/42 27/27/27 44/44/44
f 27/27/27 42/42/42 23/23/23
f 21/21/21 23/23/23 42/42/42
f 23/23/23 21/21/21 22/22/22
f 20/20/20 22/22/22 21/21/21
f 22/22/22 20/20/20 19/19/19
f 16/16/16 19/19/19 20/20/20
f 19/19/19 16/16/16 18/18/18
f 13/13/13 18/18/18 16/16/16
f 25/25/25 26/26/26 22/22/22
f 27/27/27 22/22/22 26/26/26
f 22/22/22 27/27/27 23/23/23
f 19/19/19 24/24/24 22/22/22
f 25/25/25 22/22/22 24/24/24
f 16/16/16 14/14/14 13/13/13
f 60/60/60 62/62/62 63/63/63
f 62/62/62 60/60/60 45/45/45
f 43/43/43 45/45/45 60/60/60
f 45/45/45 43/43/43 42/42/42
f 41/41/41 42/42/42 43/43/43
f 42/42/42 41/41/41 40/40/40
f 38/38/38 40/40/40 41/41/41
f 40/40/40 38/38/38 21/21/21
f 17/17/17 21/21/21 38/38/38
f 21/21/21 17/17/17 16/16/16
f 15/15/15 16/16/16 17/17/17
f 16/16/16 15/15/15 14/14/14
f 10/10/10 14/14/14 15/15/15
f 14/14/14 10/10/10 13/13/13
f 12/12/12 13/13/13 10/10/10
f 15/15/15 17/17/17 38/38/38
f 41/41/41 43/43/43 60/60/60
f 7/7/7 12/12/12 10/10/10
f 15/15/15 11/11/11 10/10/10
f 41/41/41 39/39/39 38/38/38
f 5/5/5 6/6/6 3/3/3
f 7/7/7 3/3/3 6/6/6
f 3/3/3 7/7/7 8/8/8
f 10/10/10 8/8/8 7/7/7
f 8/8/8 10/10/10 9/9/9
f 11/11/11 9/9/9 10/10/10
f 9/9/9 11/11/11 34/34/34
f 15/15/15 34/34/34 11/11/11
f 34/34/34 15/15/15 36/36/36
f 38/38/38 36/36/36 15/15/15
f 36/36/36 38/38/38 37/37/37
f 39/39/39 37/37/37 38/38/38
f 37/37/37 39/39/39 56/56/56
f 41/41/41 56/56/56 39/39/39
f 56/56/56 41/41/41 58/58/58
f 60/60/60 58/58/58 41/41/41
f 58/58/58 60/60/60 59/59/59
f 61/61/61 59/59/59 60/60/60
f 3/3/3 9/9/9 4/4/4
f 9/9/9 3/3/3 8/8/8
f 34/34/34 37/37/37 35/35/35
f 37/37/37 34/34/34 36/36/36
f 56/56/56 59/59/59 57/57/57
f 59/59/59 56/56/56 58/58/58
f 63/63/63 61/61/61 60/60/60
f 59/59/59 61/61/61 78/78/78
f 63/63/63 78/78/78 61/61/61
f 78/78/78 63/63/63 80/80/80
f 78/78/78 81/81/81 79/79/79
f 81/81/81 78/78/78 80/80/80
f 79/79/79 77/77/77 78/78/78
f 76/76/76 78/78/78 77/77/77
f 78/78/78 76/76/76 59/59/59
f 74/74/74 59/59/59 76/76/76
f 59/59/59 74/74/74 57/57/57
f 55/55/55 57/57/57 74/74/74
f 57/57/57 55/55/55 56/56/56
f 54/54/54 56/56/56 55/55/55
f 56/56/56 54/54/54 37/37/37
f 52/52/52 37/37/37 54/54/54
f 37/37/37 52/52/52 35/35/35
f 33/33/33 35/35/35 52/52/52
f 35/35/35 33/33/33 34/34/34
f 32/32/32 34/34/34 33/33/33
f 34/34/34 32/32/32 9/9/9
f 30/30/30 9/9/9 32/32/32
f 9/9/9 30/30/30 4/4/4
f 1/1/1 4/4/4 30/30/30
f 30/30/30 33/33/33 31/31/31
f 33/33/33 30/30/30 32/32/32
f 52/52/52 55/55/55 53/53/53
f 55/55/55 52/52/52 54/54/54
f 74/74/74 77/77/77 75/75/75
f 77/77/77 74/74/74 76/76/76
f 30/30/30 29/29/29 1/1/1
f 29/29/29 30/30/30 28/28/28
f 31/31/31 28/28/28 30/30/30
f 28/28/28 31/31/31 48/48/48
f 33/33/33 48/48/48 31/31/31
f 48/48/48 33/33/33 50/50/50
f 52/52/52 50/50/50 33/33/33
f 50/50/50 52/52/52 51/51/51
f 53/53/53 51/51/51 52/52/52
f 51/51/51 53/53/53 70/70/70
f 55/55/55 70/70/70 53/53/53
f 70/70/70 55/55/55 72/72/72
f 74/74/74 72/72/72 55/55/55
f 72/72/72 74/74/74 73/73/73
f 75/75/75 73/73/73 74/74/74
f 70/70/70 72/72/72 73/73/73
f 46/46/46 47/47/47 48/48/48
f 28/28/28 48/48/48 47/47/47
f 64/64/64 65/65/65 66/66/66
f 46/46/46 66/66/66 65/65/65
f 66/66/66 46/46/46 49/49/49
f 48/48/48 49/49/49 46/46/46
f 49/49/49 48/48/48 51/51/51
f 50/50/50 51/51/51 48/48/48
f 66/66/66 49/49/49 51/51/51
f 66/66/66 67/67/67 64/64/64
f 68/68/68 51/51/51 70/70/70
f 51/51/51 68/68/68 66/66/66
f 69/69/69 66/66/66 68/68/68
f 66/66/66 69/69/69 67/67/67
f 73/73/73 71/71/71 70/70/70
f 69/69/69 70/70/70 71/71/71
f 70/70/70 69/69/69 68/68/68
f 4/4/4 1/1/1 3/3/3
f 2/2/2 3/3/3 1/1/1
f 3/3/3 2/2/2 5/5/5
