mtllib CB_NEWPLAYSURFACE_CB_PLAYSURFACE70.mtl
g B_playsurface70
usemtl Lvl_Cburst_rock03
v -4063.531006 182.389618 -7988.688965
vn -0.979869 -0.102326 -0.171426
vt 0.080929 2.231745
v -3972.626709 184.187286 -8394.367188
vn -0.973599 0.024205 -0.226977
vt -0.360389 2.232640
v -3945.787354 23.201172 -8353.546875
vn -0.974994 0.028232 -0.220430
vt -0.360386 2.411141
v -4029.736816 23.201157 -7983.104980
vn -0.964316 0.208044 -0.163746
vt 0.080932 2.410246
v -4102.521973 182.004318 -7603.781250
vn -0.986589 -0.055437 0.153525
vt 0.532767 2.222536
v -4068.953369 23.201139 -7610.085938
vn -0.949788 0.236723 0.204608
vt 0.532770 2.401037
v -3875.390625 159.013519 -7185.806641
vn -0.778561 -0.086723 0.621547
vt 1.056084 2.247023
v -3848.160645 -0.286126 -7206.627930
vn -0.701098 0.465595 0.540077
vt 1.056083 2.425524
v -3645.801025 -0.286134 -7013.750000
vn -0.656635 0.306824 0.688977
vt 1.397309 2.424411
v -3669.518066 159.421661 -6988.868164
vn -0.686847 -0.061201 0.724220
vt 1.397307 2.245910
v -3442.939209 158.614929 -6441.096191
vn -0.808002 -0.051394 0.586933
vt 2.243377 2.243443
v -3474.481934 159.376846 -6806.133301
vn -0.897181 -0.073080 0.435575
vt 1.738532 2.244798
v -3443.439941 -0.286142 -6820.874512
vn -0.892730 0.140137 0.428246
vt 1.738534 2.423299
v -3414.781250 -0.286158 -6460.471680
vn -0.740871 0.342469 0.577776
vt 2.243376 2.421945
v -4059.254150 249.090134 -7988.462891
vn -0.888095 0.434627 -0.149622
vt 0.072270 2.165215
v -3961.209717 249.090149 -8379.280273
vn -0.272048 0.794813 -0.542459
vt -0.392866 2.168408
v -4097.552734 249.090118 -7601.029297
vn -0.702166 0.691443 0.169910
vt 0.541744 2.156015
v -3874.683105 225.602905 -7192.611328
vn -0.770581 0.303087 0.560663
vt 1.043536 2.180637
v -3672.759766 225.602905 -7000.628906
vn -0.636404 0.381105 0.670633
vt 1.383631 2.179581
v -3434.036865 225.602875 -6437.468750
vn -0.678472 0.540106 0.497957
vt 2.232167 2.177002
v -3470.833984 225.602890 -6808.648438
vn -0.812172 0.377031 0.445224
vt 1.723729 2.178525
f 11/11/11 20/20/20 21/21/21
f 11/11/11 13/13/13 14/14/14
f 13/13/13 11/11/11 12/12/12
f 21/21/21 12/12/12 11/11/11
f 12/12/12 21/21/21 10/10/10
f 19/19/19 10/10/10 21/21/21
f 10/10/10 19/19/19 7/7/7
f 18/18/18 7/7/7 19/19/19
f 7/7/7 18/18/18 5/5/5
f 17/17/17 5/5/5 18/18/18
f 5/5/5 17/17/17 15/15/15
f 10/10/10 13/13/13 12/12/12
f 13/13/13 10/10/10 9/9/9
f 7/7/7 9/9/9 10/10/10
f 5/5/5 6/6/6 7/7/7
f 8/8/8 7/7/7 6/6/6
f 7/7/7 8/8/8 9/9/9
f 16/16/16 2/2/2 15/15/15
f 1/1/1 15/15/15 2/2/2
f 15/15/15 1/1/1 5/5/5
f 4/4/4 5/5/5 1/1/1
f 5/5/5 4/4/4 6/6/6
f 1/1/1 3/3/3 4/4/4
f 3/3/3 1/1/1 2/2/2
usemtl Lvl_Cburst_ground04a
v -3012.596924 264.933746 -7617.521973
vn -0.005599 0.999889 0.013794
vt -3.892664 -3.138618
v -3520.181641 264.933746 -7406.332520
vn 0.000000 1.000000 0.000000
vt -3.230518 -3.393520
v -3321.742188 264.933716 -7249.484863
vn 0.000000 1.000000 0.000000
vt -3.489384 -3.582836
v -3321.742188 264.933716 -7249.484863
vn 0.000000 1.000000 0.000000
vt -2.489384 -3.582836
v -2833.557861 264.933746 -7393.597656
vn 0.000000 1.000000 0.000000
vt -3.126221 -3.408894
v -3012.596924 264.933746 -7617.521973
vn -0.005599 0.999889 0.013794
vt -2.892664 -3.138618
v -2996.507568 264.933716 -7006.614258
vn 0.000000 1.000000 0.000000
vt -2.913652 -2.875978
v -3072.810547 264.933685 -6591.824707
vn 0.000000 1.000000 0.000000
vt -2.814114 -3.376629
v -2738.342041 264.933716 -6714.696289
vn 0.000000 1.000000 0.000000
vt -3.250429 -3.228321
v -2558.201172 264.933716 -7188.195313
vn 0.000000 1.000000 0.000000
vt -3.485422 -2.656813
v -2996.507568 264.933716 -7006.614258
vn 0.000000 1.000000 0.000000
vt -2.913652 -3.875978
v -2558.201172 264.933716 -7188.195313
vn 0.000000 1.000000 0.000000
vt -3.485422 -3.656813
f 22/22/22 23/23/23 24/24/24
f 26/26/26 32/32/32 33/33/33
f 32/32/32 26/26/26 25/25/25
f 27/27/27 25/25/25 26/26/26
f 30/30/30 28/28/28 29/29/29
f 28/28/28 30/30/30 31/31/31
usemtl Lvl_Cburst_rockground_mix
v -3809.299072 264.933746 -7733.992188
vn -0.004817 0.999970 0.006095
vt -2.853363 -2.998039
v -3520.181641 264.933746 -7406.332520
vn 0.000000 1.000000 0.000000
vt -3.230518 -3.393520
v -3012.596924 264.933746 -7617.521973
vn -0.005599 0.999889 0.013794
vt -3.892664 -3.138618
v -3611.437256 270.163971 -7962.320313
vn 0.134651 0.970840 -0.198341
vt -3.111477 -3.722448
v -3814.240479 264.933746 -8022.905273
vn -0.007223 0.999963 -0.004590
vt -2.846916 -3.649321
v -3809.299072 264.933746 -7733.992188
vn -0.004817 0.999970 0.006095
vt -2.853363 -3.998039
v -3243.958984 270.163971 -7877.251953
vn -0.091270 0.981162 -0.170269
vt -3.590851 -3.825123
v -3243.958984 270.163971 -7877.251953
vn -0.091270 0.981162 -0.170269
vt -3.590851 -2.825123
v -4021.158203 264.933746 -7981.743164
vn -0.225846 0.973387 -0.038885
vt 0.083211 2.104697
v -3937.160645 264.933777 -8340.085938
vn -0.082539 0.983527 -0.160819
vt -0.343359 2.105491
v -3961.209717 249.090149 -8379.280273
vn -0.272048 0.794813 -0.542459
vt -0.392866 2.168408
v -4059.254150 249.090134 -7988.462891
vn -0.888095 0.434627 -0.149622
vt 0.072270 2.165215
v -4097.552734 249.090118 -7601.029297
vn -0.702166 0.691443 0.169910
vt 0.541744 2.156015
v -4057.087646 264.933746 -7613.470215
vn -0.140394 0.989755 0.025971
vt 0.529501 2.096024
v -4021.158203 264.933746 -7981.743164
vn -0.225846 0.973387 -0.038885
vt 0.083211 2.104697
v -4059.254150 249.090134 -7988.462891
vn -0.888095 0.434627 -0.149622
vt 0.072270 2.165215
v -3846.125244 264.933716 -7207.744629
vn -0.370171 0.876833 0.306817
vt 1.057013 2.094007
v -3874.683105 225.602905 -7192.611328
vn -0.770581 0.303087 0.560663
vt 1.043536 2.180637
v -3470.833984 225.602890 -6808.648438
vn -0.812172 0.377031 0.445224
vt 1.723729 2.178525
v -3434.814209 264.933716 -6825.033203
vn -0.319108 0.941799 0.105755
vt 1.742942 2.092787
v -3640.470703 264.933716 -7016.389160
vn -0.281921 0.911068 0.300793
vt 1.399975 2.093397
v -3672.759766 225.602905 -7000.628906
vn -0.636404 0.381105 0.670633
vt 1.383631 2.179581
v -3434.036865 225.602875 -6437.468750
vn -0.678472 0.540106 0.497957
vt 2.232167 2.177002
v -3407.279297 264.933685 -6468.953125
vn -0.308165 0.930793 0.196620
vt 2.247965 2.091704
v -3846.125244 264.933716 -7207.744629
vn -0.370171 0.876833 0.306817
vt 1.057013 2.094007
v -3874.683105 225.602905 -7192.611328
vn -0.770581 0.303087 0.560663
vt 1.043536 2.180637
v -3672.759766 225.602905 -7000.628906
vn -0.636404 0.381105 0.670633
vt 1.383631 2.179581
v -3640.470703 264.933716 -7016.389160
vn -0.281921 0.911068 0.300793
vt 1.399975 2.093397
v -3434.814209 264.933716 -6825.033203
vn -0.319108 0.941799 0.105755
vt -3.341881 -3.095146
v -3407.279297 264.933685 -6468.953125
vn -0.308165 0.930793 0.196620
vt -3.377800 -3.524933
v -3072.810547 264.933685 -6591.824707
vn 0.000000 1.000000 0.000000
vt -3.814114 -3.376629
v -2996.507568 264.933716 -7006.614258
vn 0.000000 1.000000 0.000000
vt -3.913652 -2.875978
v -3640.470703 264.933716 -7016.389160
vn -0.281921 0.911068 0.300793
vt -3.073601 -3.864180
v -3321.742188 264.933716 -7249.484863
vn 0.000000 1.000000 0.000000
vt -3.489384 -3.582836
v -3846.125244 264.933716 -7207.744629
vn -0.370171 0.876833 0.306817
vt -2.805325 -3.633215
v -3321.742188 264.933716 -7249.484863
vn 0.000000 1.000000 0.000000
vt -3.489384 -2.582836
v -3640.470703 264.933716 -7016.389160
vn -0.281921 0.911068 0.300793
vt -3.073601 -2.864180
v -4057.087646 264.933746 -7613.470215
vn -0.140394 0.989755 0.025971
vt -2.530121 -3.143509
v -4021.158203 264.933746 -7981.743164
vn -0.225846 0.973387 -0.038885
vt -3.576994 -2.699005
v -4057.087646 264.933746 -7613.470215
vn -0.140394 0.989755 0.025971
vt -3.530121 -3.143509
v -3809.299072 264.933746 -7733.992188
vn -0.004817 0.999970 0.006095
vt -3.853363 -2.998039
v -3809.299072 264.933746 -7733.992188
vn -0.004817 0.999970 0.006095
vt -3.853363 -3.998039
v -3814.240479 264.933746 -8022.905273
vn -0.007223 0.999963 -0.004590
vt -3.846916 -3.649321
v -4021.158203 264.933746 -7981.743164
vn -0.225846 0.973387 -0.038885
vt -3.576994 -3.699005
v -3937.160645 264.933777 -8340.085938
vn -0.082539 0.983527 -0.160819
vt -3.686569 -3.266487
v -4029.736816 23.201157 -7983.104980
vn -0.964316 0.208044 -0.163746
vt 0.080932 2.410246
v -3945.787354 23.201172 -8353.546875
vn -0.974994 0.028232 -0.220430
vt -0.360386 2.411141
v -3987.177979 -50.955875 -8366.136719
vn -0.305648 0.705256 -0.639682
vt -0.378720 2.541241
v -4088.771484 -50.955891 -7993.820313
vn -0.423972 0.903302 -0.065523
vt 0.063609 2.537680
v -4068.953369 23.201139 -7610.085938
vn -0.949788 0.236723 0.204608
vt 0.532770 2.401037
v -4029.736816 23.201157 -7983.104980
vn -0.964316 0.208044 -0.163746
vt 0.080932 2.410246
v -4088.771484 -50.955891 -7993.820313
vn -0.423972 0.903302 -0.065523
vt 0.063609 2.537680
v -4126.154297 -50.955910 -7591.971680
vn -0.376703 0.918569 0.119689
vt 0.550719 2.528489
v -3848.160645 -0.286126 -7206.627930
vn -0.701098 0.465595 0.540077
vt 1.056083 2.425524
v -3901.207031 -50.955925 -7178.590820
vn -0.177586 0.974546 0.136836
vt 1.030989 2.528226
v -3699.716553 -50.955936 -6987.505371
vn -0.292852 0.905337 0.307574
vt 1.369960 2.527226
v -3645.801025 -0.286134 -7013.750000
vn -0.656635 0.306824 0.688977
vt 1.397309 2.424411
v -3848.160645 -0.286126 -7206.627930
vn -0.701098 0.465595 0.540077
vt 1.056083 2.425524
v -3699.716553 -50.955936 -6987.505371
vn -0.292852 0.905337 0.307574
vt 1.369960 2.527226
v -3414.781250 -0.286158 -6460.471680
vn -0.740871 0.342469 0.577776
vt 2.243376 2.421945
v -3443.439941 -0.286142 -6820.874512
vn -0.892730 0.140137 0.428246
vt 1.738534 2.423299
v -3498.228760 -50.955944 -6796.418457
vn -0.318976 0.935546 0.151684
vt 1.708928 2.526225
v -3453.290527 -50.955959 -6414.463379
vn -0.268355 0.943745 0.193211
vt 2.220958 2.524534
v -3645.801025 -0.286134 -7013.750000
vn -0.656635 0.306824 0.688977
vt 1.397309 2.424411
v -3699.716553 -50.955936 -6987.505371
vn -0.292852 0.905337 0.307574
vt 1.369960 2.527226
f 72/72/72 73/73/73 74/74/74
f 87/87/87 88/88/88 92/92/92
f 88/88/88 87/87/87 86/86/86
f 83/83/83 86/86/86 87/87/87
f 86/86/86 83/83/83 85/85/85
f 84/84/84 85/85/85 83/83/83
f 52/52/52 54/54/54 55/55/55
f 54/54/54 52/52/52 53/53/53
f 56/56/56 53/53/53 52/52/52
f 53/53/53 56/56/56 57/57/57
f 50/50/50 46/46/46 51/51/51
f 46/46/46 50/50/50 47/47/47
f 48/48/48 46/46/46 47/47/47
f 46/46/46 48/48/48 49/49/49
f 64/64/64 65/65/65 62/62/62
f 69/69/69 62/62/62 65/65/65
f 62/62/62 69/69/69 70/70/70
f 62/62/62 63/63/63 64/64/64
f 35/35/35 66/66/66 67/67/67
f 66/66/66 35/35/35 68/68/68
f 35/35/35 71/71/71 68/68/68
f 71/71/71 35/35/35 34/34/34
f 36/36/36 34/34/34 35/35/35
f 34/34/34 36/36/36 41/41/41
f 93/93/93 95/95/95 96/96/96
f 95/95/95 93/93/93 94/94/94
f 97/97/97 95/95/95 94/94/94
f 95/95/95 97/97/97 98/98/98
f 39/39/39 37/37/37 38/38/38
f 37/37/37 39/39/39 40/40/40
f 44/44/44 42/42/42 43/43/43
f 42/42/42 44/44/44 45/45/45
f 60/60/60 58/58/58 59/59/59
f 58/58/58 60/60/60 61/61/61
f 79/79/79 81/81/81 82/82/82
f 81/81/81 79/79/79 80/80/80
f 75/75/75 76/76/76 77/77/77
f 78/78/78 77/77/77 76/76/76
f 89/89/89 90/90/90 91/91/91
