mtllib CB_NEWPLAYSURFACE_CB_PLAYSURFACE72.mtl
g B_playsurface72
usemtl Lvl_Cburst_rock03
v -6455.402344 -353.663696 -8827.244141
vn -0.040061 0.426494 0.903603
vt 3.769019 3.334376
v -6455.401855 -166.106369 -8827.244141
vn -0.043591 -0.177354 0.983181
vt 3.769019 3.158438
v -6540.589355 -166.106369 -8831.020508
vn -0.043576 -0.177351 0.983182
vt 3.665037 3.159093
v -6540.590332 -353.663696 -8831.021484
vn -0.040042 0.426493 0.903604
vt 3.665037 3.335031
v -6468.005371 -91.597092 -8800.019531
vn -0.043776 0.151806 0.987440
vt 3.753407 3.074978
v -6553.194824 -91.597092 -8803.796875
vn -0.043745 0.151798 0.987443
vt 3.649421 3.075633
v -6452.458496 -45.725750 -8835.069336
vn -0.039970 0.493929 0.868583
vt 3.772678 3.031368
v -6382.823730 -91.597092 -8796.243164
vn -0.043771 0.151809 0.987440
vt 3.857381 3.074322
v -6367.277344 -45.725750 -8831.291992
vn -0.040104 0.488690 0.871536
vt 3.876655 3.030712
v -5315.212891 -166.106369 -8671.473633
vn 0.184521 -0.161335 0.969496
vt -2.521822 3.468211
v -5301.856934 -91.597099 -8644.609375
vn 0.252145 0.247142 0.935598
vt -2.519239 3.393337
v -5646.843262 -91.597099 -8577.600586
vn -0.004986 0.181196 0.983434
vt -3.051584 3.385292
v -5879.155762 -353.663727 -8709.790039
vn -0.357366 0.440210 0.823714
vt -3.365259 3.653372
v -5879.155762 -166.106369 -8709.787109
vn -0.391145 -0.187615 0.901003
vt -3.365260 3.453562
v -6114.667969 -166.106369 -8812.144531
vn -0.223150 -0.124307 0.966826
vt -3.674161 3.446932
v -6625.772949 -166.106369 -8834.794922
vn -0.457257 -0.179590 0.871013
vt 3.561062 3.159748
v -6625.773438 -353.663696 -8834.794922
vn -0.325739 0.629283 0.705618
vt 3.561059 3.335686
v -6127.270996 -91.597092 -8784.921875
vn -0.219326 0.158771 0.962646
vt -3.681295 3.371983
v -6370.222656 -353.663696 -8823.467773
vn -0.041226 0.364737 0.930198
vt 3.872993 3.333720
v -6370.222168 -166.106369 -8823.467773
vn -0.043263 -0.212681 0.976164
vt 3.872993 3.157783
v -6638.376465 -91.597092 -8807.568359
vn -0.460571 0.166866 0.871797
vt 3.545445 3.076288
v -6367.277344 -45.725750 -8831.291992
vn -0.040104 0.488690 0.871536
vt 2.876655 3.030712
v -6382.823730 -91.597092 -8796.243164
vn -0.043771 0.151809 0.987440
vt 2.857381 3.074322
v -6127.270996 -91.597092 -8784.921875
vn -0.219326 0.158771 0.962646
vt 3.169315 3.072357
v -6111.724609 -45.725754 -8819.966797
vn 0.138628 0.775772 0.615597
vt 3.188589 3.028747
v -6537.647949 -45.725750 -8838.843750
vn -0.039878 0.497041 0.866810
vt 3.668696 3.032023
v -6370.222168 -166.106369 -8823.467773
vn -0.043263 -0.212681 0.976164
vt 2.872993 3.157783
v -6114.667969 -166.106369 -8812.144531
vn -0.223150 -0.124307 0.966826
vt 3.184932 3.155817
v -6370.222656 -353.663696 -8823.467773
vn -0.041226 0.364737 0.930198
vt 2.872993 3.333720
v -6114.667969 -353.663696 -8812.146484
vn -0.200638 0.440908 0.874840
vt 3.184931 3.331755
v -6622.830078 -45.725750 -8842.617188
vn -0.339682 0.471910 0.813583
vt 3.564718 3.032678
v -6752.367676 -81.071938 -8960.764648
vn -0.930851 0.142647 0.336404
vt 3.299413 3.072421
v -6731.670410 -163.616638 -8970.162109
vn -0.940331 -0.112064 0.321279
vt 3.297462 3.163770
v -6728.707520 -35.200600 -8973.702148
vn -0.851755 0.380480 0.360206
vt 3.294671 3.027569
v -6731.670898 -351.099945 -8970.163086
vn -0.786098 0.491899 0.374280
vt 3.297462 3.325306
v -5643.644043 -353.663727 -8607.430664
vn -0.129360 0.386958 0.912978
vt -3.056359 3.660002
v -5643.644043 -166.106384 -8607.428711
vn -0.163118 -0.229862 0.959456
vt -3.056356 3.460193
v -5315.212402 -353.663727 -8671.475586
vn 0.126800 0.428831 0.894442
vt -2.521822 3.668020
v -5315.212402 -353.663727 -8671.475586
vn 0.126800 0.428831 0.894442
vt -3.521822 3.668020
v -5191.031738 -333.905090 -8689.251953
vn 0.192595 0.415010 0.889198
vt -3.373357 3.651615
v -5191.043945 -156.028259 -8689.245117
vn 0.234739 -0.037706 0.971327
vt -3.373375 3.462119
v -5315.212891 -166.106369 -8671.473633
vn 0.184521 -0.161335 0.969496
vt -3.521822 3.468211
v -5887.058105 -91.597099 -8681.262695
vn -0.390524 0.168478 0.905045
vt -3.366439 3.378638
v -5145.479980 -109.785744 -8694.831055
vn 0.292452 0.049715 0.954987
vt -3.319335 3.414690
v -5301.856934 -91.597099 -8644.609375
vn 0.252145 0.247142 0.935598
vt -3.519239 3.393337
v -6114.667969 -353.663696 -8812.146484
vn -0.200638 0.440908 0.874840
vt -3.674160 3.646741
v -4581.087891 -109.785851 -8894.912109
vn 0.396761 0.176269 0.900838
vt -3.589093 3.419201
v -4596.782227 -156.028259 -8894.218750
vn 0.402450 -0.075183 0.912349
vt -3.607134 3.467661
v -4408.771973 -156.028275 -8995.828125
vn 0.471462 -0.092894 0.876980
vt -3.347617 3.464300
v -4596.786621 -333.917816 -8894.219727
vn 0.356214 0.323738 0.876530
vt -2.607139 3.657171
v -4596.782227 -156.028259 -8894.218750
vn 0.402450 -0.075183 0.912349
vt -2.607134 3.467661
v -4581.087891 -109.785851 -8894.912109
vn 0.396761 0.176269 0.900838
vt -2.589093 3.419201
v -4408.774414 -333.908752 -8995.829102
vn 0.450358 0.325917 0.831237
vt -3.347619 3.653801
v -4596.786621 -333.917816 -8894.219727
vn 0.356214 0.323738 0.876530
vt -3.607139 3.657171
v -4389.266602 -109.785820 -8995.280273
vn 0.467864 0.137953 0.872967
vt -3.325851 3.416231
v -4220.763184 -333.899689 -9097.438477
vn 0.640488 0.290635 0.710849
vt -3.088101 3.650430
v -4220.761230 -156.028305 -9097.439453
vn 0.477690 -0.113356 0.871185
vt -3.088099 3.460939
v -4207.959473 -109.785782 -9097.572266
vn 0.650334 0.258358 0.714365
vt -3.073584 3.412391
f 24/24/24 25/25/25 22/22/22
f 22/22/22 23/23/23 24/24/24
f 27/27/27 24/24/24 23/23/23
f 24/24/24 27/27/27 28/28/28
f 29/29/29 28/28/28 27/27/27
f 28/28/28 29/29/29 30/30/30
f 7/7/7 8/8/8 9/9/9
f 8/8/8 7/7/7 5/5/5
f 26/26/26 5/5/5 7/7/7
f 5/5/5 26/26/26 6/6/6
f 31/31/31 6/6/6 26/26/26
f 6/6/6 31/31/31 21/21/21
f 32/32/32 21/21/21 31/31/31
f 21/21/21 32/32/32 16/16/16
f 33/33/33 16/16/16 32/32/32
f 16/16/16 33/33/33 35/35/35
f 31/31/31 34/34/34 32/32/32
f 20/20/20 8/8/8 2/2/2
f 5/5/5 2/2/2 8/8/8
f 2/2/2 5/5/5 3/3/3
f 6/6/6 3/3/3 5/5/5
f 3/3/3 6/6/6 16/16/16
f 21/21/21 16/16/16 6/6/6
f 2/2/2 19/19/19 20/20/20
f 19/19/19 2/2/2 1/1/1
f 3/3/3 1/1/1 2/2/2
f 1/1/1 3/3/3 4/4/4
f 16/16/16 4/4/4 3/3/3
f 4/4/4 16/16/16 17/17/17
f 35/35/35 17/17/17 16/16/16
f 13/13/13 15/15/15 46/46/46
f 15/15/15 13/13/13 14/14/14
f 36/36/36 14/14/14 13/13/13
f 14/14/14 36/36/36 37/37/37
f 10/10/10 37/37/37 36/36/36
f 37/37/37 10/10/10 12/12/12
f 11/11/11 12/12/12 10/10/10
f 36/36/36 38/38/38 10/10/10
f 43/43/43 37/37/37 12/12/12
f 37/37/37 43/43/43 14/14/14
f 18/18/18 14/14/14 43/43/43
f 14/14/14 18/18/18 15/15/15
f 42/42/42 44/44/44 45/45/45
f 44/44/44 42/42/42 41/41/41
f 39/39/39 41/41/41 42/42/42
f 41/41/41 39/39/39 40/40/40
f 52/52/52 44/44/44 51/51/51
f 41/41/41 51/51/51 44/44/44
f 51/51/51 41/41/41 50/50/50
f 40/40/40 50/50/50 41/41/41
f 54/54/54 53/53/53 48/48/48
f 49/49/49 48/48/48 53/53/53
f 48/48/48 49/49/49 47/47/47
f 55/55/55 47/47/47 49/49/49
f 58/58/58 55/55/55 57/57/57
f 49/49/49 57/57/57 55/55/55
f 57/57/57 49/49/49 56/56/56
f 53/53/53 56/56/56 49/49/49
usemtl Lvl_Cburst_rockground_mix
v -5643.644043 -353.663727 -8607.430664
vn -0.129360 0.386958 0.912978
vt -3.056359 3.660002
v -5879.155762 -353.663727 -8709.790039
vn -0.357366 0.440210 0.823714
vt -3.365259 3.653372
v -5894.960449 -399.439697 -8652.733398
vn -0.171315 0.901303 0.397874
vt -3.367621 3.802855
v -5288.501465 -399.439697 -8617.746094
vn 0.051877 0.925648 0.374813
vt -3.516654 3.817606
v -5145.476563 -399.439819 -8652.804688
vn 0.086952 0.955834 0.280751
vt -3.338877 3.820926
v -5191.031738 -333.905090 -8689.251953
vn 0.192595 0.415010 0.889198
vt -3.373357 3.651615
v -5894.960449 -399.439697 -8652.733398
vn -0.171315 0.901303 0.397874
vt -3.367621 3.802855
v -5650.042480 -399.439697 -8547.769531
vn -0.001492 0.947184 0.320688
vt -3.046809 3.809533
v -5643.644043 -353.663727 -8607.430664
vn -0.129360 0.386958 0.912978
vt -3.056359 3.660002
v -6790.932617 -375.929535 -8960.778320
vn -0.211487 0.950375 0.228167
vt -3.963818 -3.517313
v -6933.895996 -375.185333 -9000.427734
vn -0.037562 0.987305 0.154329
vt -3.777321 -3.469456
v -6830.652344 -399.439667 -8833.240234
vn -0.028490 0.994353 0.102232
vt -3.912001 -3.671251
v -6830.652344 -399.439667 -8833.240234
vn -0.028490 0.994353 0.102232
vt -2.912001 -3.671251
v -6650.979980 -399.439697 -8780.345703
vn -0.124578 0.946482 0.297745
vt -3.146385 -3.735094
v -6790.932617 -375.929535 -8960.778320
vn -0.211487 0.950375 0.228167
vt -2.963818 -3.517313
v -6455.402344 -353.663696 -8827.244141
vn -0.040061 0.426494 0.903603
vt 3.769019 3.334376
v -6480.608887 -399.439697 -8772.795898
vn -0.028177 0.771520 0.635580
vt 3.737791 3.411701
v -6395.429199 -399.439697 -8769.018555
vn -0.019815 0.894302 0.447026
vt 3.841763 3.411046
v -6370.222656 -353.663696 -8823.467773
vn -0.041226 0.364737 0.930198
vt 3.872993 3.333720
v -6370.222656 -353.663696 -8823.467773
vn -0.041226 0.364737 0.930198
vt 2.872993 3.333720
v -6395.429199 -399.439697 -8769.018555
vn -0.019815 0.894302 0.447026
vt 2.841763 3.411046
v -6139.874512 -399.439697 -8757.697266
vn -0.057417 0.965439 0.254227
vt 3.153702 3.409080
v -6114.667969 -353.663696 -8812.146484
vn -0.200638 0.440908 0.874840
vt 3.184931 3.331755
v -6540.590332 -353.663696 -8831.021484
vn -0.040042 0.426493 0.903604
vt 3.665037 3.335031
v -6565.796387 -399.439697 -8776.572266
vn -0.028163 0.771517 0.635585
vt 3.633807 3.412356
v -6625.773438 -353.663696 -8834.794922
vn -0.325739 0.629283 0.705618
vt 3.561059 3.335686
v -6650.979980 -399.439697 -8780.345703
vn -0.124578 0.946482 0.297745
vt 3.529832 3.413011
v -6790.932617 -375.929535 -8960.778320
vn -0.211487 0.950375 0.228167
vt 3.282992 3.417828
v -6731.670898 -351.099945 -8970.163086
vn -0.786098 0.491899 0.374280
vt 3.297462 3.325306
v -4220.763184 -333.899689 -9097.438477
vn 0.640488 0.290635 0.710849
vt -3.088101 3.650430
v -4408.774414 -333.908752 -8995.829102
vn 0.450358 0.325917 0.831237
vt -3.347619 3.653801
v -4362.385742 -399.439728 -8963.303711
vn 0.211305 0.897678 0.386684
vt -3.310372 3.822609
v -4160.384766 -399.439758 -9074.348633
vn 0.214216 0.895692 0.389676
vt -3.030673 3.818738
v -4596.786621 -333.917816 -8894.219727
vn 0.356214 0.323738 0.876530
vt -2.607139 3.657171
v -4564.385742 -399.439697 -8852.257813
vn 0.186911 0.899687 0.394497
vt -2.590073 3.826482
v -4596.786621 -333.917816 -8894.219727
vn 0.356214 0.323738 0.876530
vt -3.607139 3.657171
v -4564.385742 -399.439697 -8852.257813
vn 0.186911 0.899687 0.394497
vt -3.590073 3.826482
v -6139.874512 -399.439697 -8757.697266
vn -0.057417 0.965439 0.254227
vt -3.688428 3.796176
v -6114.667969 -353.663696 -8812.146484
vn -0.200638 0.440908 0.874840
vt -3.674160 3.646741
v -5315.212402 -353.663727 -8671.475586
vn 0.126800 0.428831 0.894442
vt -3.521822 3.668020
v -5288.501465 -399.439697 -8617.746094
vn 0.051877 0.925648 0.374813
vt -2.516654 3.817606
v -5315.212402 -353.663727 -8671.475586
vn 0.126800 0.428831 0.894442
vt -2.521822 3.668020
v -5136.001953 -48.885410 -8734.460938
vn 0.163458 0.873576 0.458417
vt -3.122679 -3.790480
v -4590.806152 -48.885399 -8926.941406
vn 0.217991 0.852115 0.475794
vt -3.833885 -3.558157
v -4630.855469 -45.725739 -9151.918945
vn 0.003183 0.999968 0.007376
vt -3.781643 -3.286608
v -5014.144043 -45.725739 -9148.780273
vn 0.001514 0.999990 0.004258
vt -3.281639 -3.290396
v -4389.266602 -109.785820 -8995.280273
vn 0.467864 0.137953 0.872967
vt -3.325851 3.416231
v -4393.503906 -48.885365 -9025.456055
vn 0.305708 0.765254 0.566506
vt -3.316599 3.291191
v -4590.806152 -48.885399 -8926.941406
vn 0.217991 0.852115 0.475794
vt -3.585167 3.293588
v -4581.087891 -109.785851 -8894.912109
vn 0.396761 0.176269 0.900838
vt -3.589093 3.419201
v -4207.959473 -109.785782 -9097.572266
vn 0.650334 0.258358 0.714365
vt -3.073584 3.412391
v -4231.031738 -48.885330 -9115.862305
vn 0.266516 0.836400 0.478962
vt -3.091124 3.287925
v -7599.307617 -371.463989 -9244.807617
vn 0.081872 0.969231 0.232139
vt -2.909290 -3.174494
v -7729.119141 -399.439667 -9097.748047
vn 0.071535 0.977385 0.199003
vt -2.739952 -3.351994
v -7459.585938 -399.439667 -9018.394531
vn -0.026464 0.996955 0.073348
vt -3.091557 -3.447769
v -7434.332031 -372.580353 -9139.219727
vn -0.065249 0.987909 0.140635
vt -3.124500 -3.301935
v -5825.177246 -45.725746 -8928.008789
vn 0.000000 1.000000 0.000000
vt -3.223644 -3.556866
v -6025.112793 -45.725746 -8994.374023
vn 0.639605 0.703137 0.310651
vt -2.962831 -3.476763
v -6111.724609 -45.725754 -8819.966797
vn 0.138628 0.775772 0.615597
vt -2.849844 -3.687271
v -5877.046387 -45.725758 -8719.638672
vn -0.165594 0.907456 0.386137
vt -3.155983 -3.808371
v -5287.073730 -45.725746 -8974.604492
vn 0.003958 0.999990 0.001896
vt -2.925602 -3.500626
v -5319.765137 -45.725758 -8682.057617
vn 0.095066 0.911126 0.401014
vt -2.882957 -3.853729
v -5319.765137 -45.725758 -8682.057617
vn 0.095066 0.911126 0.401014
vt -3.882957 -3.853729
v -5287.073730 -45.725746 -8974.604492
vn 0.003958 0.999990 0.001896
vt -3.925602 -3.500626
v -5575.929199 -45.725750 -8907.179688
vn 0.000000 1.000000 0.000000
vt -3.548792 -3.582006
v -5642.366699 -45.725761 -8619.309570
vn -0.100220 0.876586 0.470694
vt -3.462124 -3.929466
v -4393.503906 -48.885365 -9025.456055
vn 0.305708 0.765254 0.566506
vt -3.091267 -3.439251
v -4231.031738 -48.885330 -9115.862305
vn 0.266516 0.836400 0.478962
vt -3.303211 -3.330130
v -4360.646973 -47.305531 -9234.048828
vn 0.006727 0.999973 0.003025
vt -3.134130 -3.187479
v -4590.806152 -48.885399 -8926.941406
vn 0.217991 0.852115 0.475794
vt -2.833885 -3.558157
v -5319.765137 -45.725758 -8682.057617
vn 0.095066 0.911126 0.401014
vt -2.522040 3.282512
v -5642.366699 -45.725761 -8619.309570
vn -0.100220 0.876586 0.470694
vt -3.058256 3.274445
v -5646.843262 -91.597099 -8577.600586
vn -0.004986 0.181196 0.983434
vt -3.051584 3.385292
v -5301.856934 -91.597099 -8644.609375
vn 0.252145 0.247142 0.935598
vt -3.519239 3.393337
v -5145.479980 -109.785744 -8694.831055
vn 0.292452 0.049715 0.954987
vt -3.319335 3.414690
v -5136.001953 -48.885410 -8734.460938
vn 0.163458 0.873576 0.458417
vt -3.290203 3.289120
v -4630.855469 -45.725739 -9151.918945
vn 0.003183 0.999968 0.007376
vt -2.781643 -3.286608
v -5877.046387 -45.725758 -8719.638672
vn -0.165594 0.907456 0.386137
vt -3.365587 3.268082
v -5887.058105 -91.597099 -8681.262695
vn -0.390524 0.168478 0.905045
vt -3.366439 3.378638
v -5301.856934 -91.597099 -8644.609375
vn 0.252145 0.247142 0.935598
vt -2.519239 3.393337
v -5319.765137 -45.725758 -8682.057617
vn 0.095066 0.911126 0.401014
vt -3.522040 3.282512
v -6127.270996 -91.597092 -8784.921875
vn -0.219326 0.158771 0.962646
vt -3.681295 3.371983
v -4581.087891 -109.785851 -8894.912109
vn 0.396761 0.176269 0.900838
vt -2.589093 3.419201
v -6111.724609 -45.725754 -8819.966797
vn 0.138628 0.775772 0.615597
vt -3.672916 3.261719
v -4590.806152 -48.885399 -8926.941406
vn 0.217991 0.852115 0.475794
vt -2.585167 3.293588
f 68/68/68 69/69/69 70/70/70
f 86/86/86 85/85/85 84/84/84
f 83/83/83 84/84/84 85/85/85
f 84/84/84 83/83/83 82/82/82
f 75/75/75 82/82/82 83/83/83
f 82/82/82 75/75/75 74/74/74
f 76/76/76 74/74/74 75/75/75
f 74/74/74 76/76/76 77/77/77
f 84/84/84 87/87/87 86/86/86
f 138/138/138 129/129/129 131/131/131
f 130/130/130 131/131/131 129/129/129
f 131/131/131 130/130/130 137/137/137
f 136/136/136 137/137/137 130/130/130
f 137/137/137 136/136/136 140/140/140
f 142/142/142 140/140/140 136/136/136
f 116/116/116 117/117/117 115/115/115
f 118/118/118 115/115/115 117/117/117
f 115/115/115 118/118/118 123/123/123
f 124/124/124 123/123/123 118/118/118
f 123/123/123 124/124/124 121/121/121
f 121/121/121 122/122/122 123/123/123
f 93/93/93 92/92/92 63/63/63
f 64/64/64 63/63/63 92/92/92
f 63/63/63 64/64/64 62/62/62
f 98/98/98 62/62/62 64/64/64
f 94/94/94 95/95/95 89/89/89
f 90/90/90 89/89/89 95/95/95
f 89/89/89 90/90/90 88/88/88
f 91/91/91 88/88/88 90/90/90
f 105/105/105 107/107/107 108/108/108
f 107/107/107 105/105/105 106/106/106
f 109/109/109 106/106/106 105/105/105
f 106/106/106 109/109/109 110/110/110
f 99/99/99 100/100/100 66/66/66
f 67/67/67 66/66/66 100/100/100
f 66/66/66 67/67/67 65/65/65
f 60/60/60 61/61/61 59/59/59
f 61/61/61 60/60/60 96/96/96
f 97/97/97 96/96/96 60/60/60
f 103/103/103 101/101/101 102/102/102
f 101/101/101 103/103/103 104/104/104
f 119/119/119 101/101/101 104/104/104
f 101/101/101 119/119/119 120/120/120
f 127/127/127 125/125/125 126/126/126
f 125/125/125 127/127/127 128/128/128
f 135/135/135 128/128/128 127/127/127
f 132/132/132 133/133/133 134/134/134
f 141/141/141 134/134/134 133/133/133
f 134/134/134 141/141/141 143/143/143
f 134/134/134 139/139/139 132/132/132
f 78/78/78 80/80/80 81/81/81
f 80/80/80 78/78/78 79/79/79
f 113/113/113 111/111/111 112/112/112
f 111/111/111 113/113/113 114/114/114
f 71/71/71 72/72/72 73/73/73
usemtl Lvl_Cburst_gground_mix
v -7219.865234 -373.696747 -9079.740234
vn -0.040384 0.984785 0.169018
vt -3.404272 -3.373726
v -7434.332031 -372.580353 -9139.219727
vn -0.065249 0.987909 0.140635
vt -3.124500 -3.301935
v -7459.585938 -399.439667 -9018.394531
vn -0.026464 0.996955 0.073348
vt -3.091557 -3.447769
v -7190.050781 -399.439667 -8939.044922
vn -0.026119 0.995224 0.094059
vt -3.443165 -3.543545
v -7010.351563 -399.439667 -8886.142578
vn -0.025040 0.995654 0.089698
vt -3.677582 -3.607397
v -7076.880371 -374.441040 -9040.084961
vn -0.040389 0.986420 0.159199
vt -3.590797 -3.421589
v -6830.652344 -399.439667 -8833.240234
vn -0.028490 0.994353 0.102232
vt -3.912001 -3.671251
v -6933.895996 -375.185333 -9000.427734
vn -0.037562 0.987305 0.154329
vt -3.777321 -3.469456
f 145/145/145 146/146/146 144/144/144
f 147/147/147 144/144/144 146/146/146
f 144/144/144 147/147/147 149/149/149
f 148/148/148 149/149/149 147/147/147
f 149/149/149 148/148/148 151/151/151
f 150/150/150 151/151/151 148/148/148
