mtllib CB_NEWPLAYSURFACE_CB_WATERFALLS17.mtl
g CB_waterfalls17
usemtl waterout
v -23100.281250 -859.049500 -12701.078125
vn 0.103156 -0.514377 -0.851337
vt 0.666499 0.999500
v -23124.851563 -820.841919 -12724.894531
vn 0.060982 -0.221426 -0.973269
vt 0.666499 0.899600
v -22919.183594 -828.463135 -12679.323242
vn 0.253392 -0.229161 -0.939829
vt 0.499999 0.899600
v -22904.312500 -858.945435 -12655.889648
vn 0.225172 -0.522401 -0.822432
vt 0.499999 0.999500
v -22697.357422 -277.660065 -12127.830078
vn 0.070788 0.989829 -0.123397
vt 0.000499 0.100400
v -22864.660156 -278.400055 -12229.999023
vn 0.057743 0.991229 -0.118874
vt 0.333499 0.100400
v -22873.320313 -276.184601 -12212.064453
vn 0.053347 0.993293 -0.102584
vt 0.333500 0.050450
v -22699.900391 -276.771027 -12122.729492
vn 0.064108 0.990611 -0.120744
vt 0.000499 0.050450
v -23258.783203 -277.351959 -12396.472656
vn 0.057216 0.987646 -0.145885
vt 0.666500 0.100400
v -23445.291016 -274.420044 -12444.332031
vn 0.059679 0.978736 -0.196253
vt 0.999500 0.100400
v -23447.419922 -273.544373 -12440.916016
vn 0.064334 0.982074 -0.177175
vt 0.999500 0.050450
v -23266.015625 -275.052765 -12380.433594
vn 0.054335 0.989730 -0.132223
vt 0.666500 0.050450
v -22879.412109 -274.764374 -12199.518555
vn 0.052067 0.993217 -0.103968
vt 0.333500 0.000500
v -23067.443359 -275.700104 -12297.923828
vn 0.047360 0.993440 -0.104088
vt 0.500000 0.050450
v -23073.519531 -274.127350 -12284.779297
vn 0.045454 0.994153 -0.097943
vt 0.500000 0.000500
v -23058.802734 -278.182159 -12316.709961
vn 0.056666 0.990167 -0.127902
vt 0.500000 0.100400
v -23271.078125 -273.581879 -12369.261719
vn 0.046505 0.993321 -0.105593
vt 0.666500 0.000500
v -23233.771484 -287.777100 -12451.721680
vn 0.068448 0.973863 -0.216576
vt 0.666500 0.200300
v -23204.544922 -307.785767 -12514.380859
vn 0.107825 0.922886 -0.369669
vt 0.666499 0.300200
v -23419.982422 -285.609314 -12491.478516
vn 0.064327 0.965881 -0.250870
vt 0.999500 0.300200
v -22634.052734 -303.350067 -12252.456055
vn 0.158448 0.940569 -0.300373
vt 0.000499 0.400100
v -22769.363281 -347.847412 -12439.672852
vn 0.222299 0.837281 -0.499543
vt 0.333499 0.400100
v -22802.736328 -307.962860 -12362.102539
vn 0.142422 0.939956 -0.310160
vt 0.333499 0.300200
v -23436.585938 -278.057800 -12459.078125
vn 0.054161 0.978104 -0.200948
vt 0.999500 0.200300
v -23441.792969 -275.888489 -12449.956055
vn 0.053983 0.975942 -0.211242
vt 0.999500 0.150350
v -22599.310547 -332.323822 -12315.856445
vn 0.255784 0.839993 -0.478526
vt 0.000499 0.500000
v -22744.603516 -407.520996 -12504.736328
vn 0.319106 0.625213 -0.712236
vt 0.333499 0.500000
v -22835.343750 -288.478729 -12291.675781
vn 0.085066 0.982144 -0.167802
vt 0.333499 0.200300
v -23029.630859 -289.614471 -12380.665039
vn 0.076061 0.980304 -0.182262
vt 0.500000 0.200300
v -22524.974609 -467.190338 -12417.024414
vn 0.458923 0.375003 -0.805458
vt 0.000499 0.699800
v -22721.455078 -591.451599 -12574.166992
vn 0.386811 0.294332 -0.873926
vt 0.333499 0.699800
v -22731.189453 -486.411987 -12544.305664
vn 0.379917 0.386875 -0.840233
vt 0.333499 0.599900
v -23448.861328 -272.955139 -12438.625000
vn 0.061184 0.985747 -0.156718
vt 0.999500 0.000500
v -22693.396484 -279.089386 -12135.904297
vn 0.077874 0.988380 -0.130539
vt 0.000499 0.150350
v -22687.201172 -281.151031 -12148.416016
vn 0.074229 0.989076 -0.127349
vt 0.000499 0.200300
v -22701.716797 -276.142059 -12119.136719
vn 0.069927 0.988010 -0.137650
vt 0.000499 0.000500
v -22497.736328 -584.052429 -12443.560547
vn 0.465157 0.317785 -0.826221
vt 0.000499 0.799700
v -22561.074219 -383.116364 -12375.849609
vn 0.386399 0.615508 -0.686910
vt 0.000499 0.599900
v -22665.925781 -288.237640 -12190.680664
vn 0.098598 0.979404 -0.176201
vt 0.000499 0.300200
v -22711.345703 -701.724121 -12609.560547
vn 0.388241 0.182524 -0.903302
vt 0.333499 0.799700
v -22485.597656 -684.196899 -12479.031250
vn 0.491216 0.137773 -0.860073
vt 0.000499 0.899600
v -22712.763672 -813.702087 -12616.218750
vn 0.430662 -0.110415 -0.895734
vt 0.333499 0.899600
v -22509.314453 -792.618835 -12495.241211
vn 0.516714 -0.134614 -0.845509
vt 0.000499 0.999500
v -22703.755859 -850.136108 -12597.815430
vn 0.359814 -0.390923 -0.847179
vt 0.333499 0.999500
v -23128.513672 -708.740784 -12724.417969
vn 0.116283 0.133194 -0.984245
vt 0.666499 0.799700
v -22920.083984 -722.592957 -12678.776367
vn 0.261779 0.189037 -0.946434
vt 0.499999 0.799700
v -23130.757813 -596.874573 -12694.250000
vn 0.127516 0.238227 -0.962802
vt 0.666499 0.699800
v -22925.246094 -611.995789 -12648.308594
vn 0.272338 0.263050 -0.925547
vt 0.499999 0.699800
v -23134.447266 -489.892151 -12669.707031
vn 0.147927 0.310951 -0.938844
vt 0.666499 0.599900
v -22931.351563 -503.350220 -12618.889648
vn 0.277604 0.366274 -0.888133
vt 0.499999 0.599900
v -23146.619141 -409.522461 -12637.492188
vn 0.162363 0.554047 -0.816499
vt 0.666499 0.500000
v -22942.234375 -420.263062 -12584.361328
vn 0.246855 0.622792 -0.742423
vt 0.499999 0.500000
v -23171.648438 -348.610229 -12581.932617
vn 0.145600 0.796132 -0.587345
vt 0.666499 0.400100
v -22965.367188 -355.642090 -12524.472656
vn 0.186629 0.832503 -0.521640
vt 0.499999 0.400100
v -22997.847656 -311.448059 -12450.723633
vn 0.122796 0.940177 -0.317788
vt 0.499999 0.300200
v -23343.210938 -809.175110 -12716.331055
vn -0.054728 -0.333467 -0.941172
vt 0.999499 0.999500
v -23366.263672 -699.949463 -12725.154297
vn -0.009569 0.054627 -0.998461
vt 0.999499 0.899600
v -23361.355469 -596.023438 -12698.551758
vn 0.016720 0.230917 -0.972830
vt 0.999499 0.799700
v -23349.750000 -473.855774 -12675.422852
vn 0.037923 0.258473 -0.965274
vt 0.999500 0.699800
v -23351.732422 -386.132690 -12641.217773
vn 0.069011 0.485999 -0.871230
vt 0.999500 0.599900
v -23370.439453 -332.355286 -12591.801758
vn 0.093961 0.759445 -0.643751
vt 0.999500 0.500000
v -23395.699219 -301.670166 -12540.797852
vn 0.086651 0.905874 -0.414589
vt 0.999500 0.400100
f 14/14/14 15/15/15 13/13/13
f 17/17/17 14/14/14 12/12/12
f 14/14/14 17/17/17 15/15/15
f 33/33/33 17/17/17 12/12/12
f 6/6/6 16/16/16 14/14/14
f 9/9/9 14/14/14 16/16/16
f 14/14/14 9/9/9 12/12/12
f 11/11/11 12/12/12 9/9/9
f 12/12/12 11/11/11 33/33/33
f 6/6/6 14/14/14 7/7/7
f 13/13/13 7/7/7 14/14/14
f 7/7/7 13/13/13 8/8/8
f 36/36/36 8/8/8 13/13/13
f 7/7/7 8/8/8 5/5/5
f 34/34/34 28/28/28 5/5/5
f 6/6/6 5/5/5 28/28/28
f 5/5/5 6/6/6 7/7/7
f 10/10/10 18/18/18 25/25/25
f 18/18/18 10/10/10 9/9/9
f 11/11/11 9/9/9 10/10/10
f 43/43/43 44/44/44 42/42/42
f 3/3/3 42/42/42 44/44/44
f 42/42/42 3/3/3 40/40/40
f 46/46/46 40/40/40 3/3/3
f 40/40/40 46/46/46 31/31/31
f 48/48/48 31/31/31 46/46/46
f 31/31/31 48/48/48 32/32/32
f 50/50/50 32/32/32 48/48/48
f 32/32/32 50/50/50 27/27/27
f 52/52/52 27/27/27 50/50/50
f 27/27/27 52/52/52 22/22/22
f 54/54/54 22/22/22 52/52/52
f 22/22/22 54/54/54 23/23/23
f 55/55/55 23/23/23 54/54/54
f 23/23/23 55/55/55 28/28/28
f 29/29/29 28/28/28 55/55/55
f 28/28/28 29/29/29 6/6/6
f 16/16/16 6/6/6 29/29/29
f 43/43/43 42/42/42 41/41/41
f 40/40/40 41/41/41 42/42/42
f 41/41/41 40/40/40 37/37/37
f 31/31/31 37/37/37 40/40/40
f 37/37/37 31/31/31 30/30/30
f 32/32/32 30/30/30 31/31/31
f 30/30/30 32/32/32 38/38/38
f 27/27/27 38/38/38 32/32/32
f 38/38/38 27/27/27 26/26/26
f 22/22/22 26/26/26 27/27/27
f 26/26/26 22/22/22 21/21/21
f 23/23/23 21/21/21 22/22/22
f 21/21/21 23/23/23 39/39/39
f 28/28/28 39/39/39 23/23/23
f 39/39/39 28/28/28 35/35/35
f 34/34/34 35/35/35 28/28/28
f 2/2/2 1/1/1 56/56/56
f 1/1/1 2/2/2 3/3/3
f 45/45/45 3/3/3 2/2/2
f 3/3/3 45/45/45 46/46/46
f 47/47/47 46/46/46 45/45/45
f 46/46/46 47/47/47 48/48/48
f 49/49/49 48/48/48 47/47/47
f 48/48/48 49/49/49 50/50/50
f 51/51/51 50/50/50 49/49/49
f 50/50/50 51/51/51 52/52/52
f 53/53/53 52/52/52 51/51/51
f 52/52/52 53/53/53 54/54/54
f 19/19/19 54/54/54 53/53/53
f 54/54/54 19/19/19 55/55/55
f 18/18/18 55/55/55 19/19/19
f 55/55/55 18/18/18 29/29/29
f 9/9/9 29/29/29 18/18/18
f 29/29/29 9/9/9 16/16/16
f 18/18/18 24/24/24 25/25/25
f 24/24/24 18/18/18 20/20/20
f 19/19/19 20/20/20 18/18/18
f 20/20/20 19/19/19 62/62/62
f 53/53/53 62/62/62 19/19/19
f 62/62/62 53/53/53 61/61/61
f 51/51/51 61/61/61 53/53/53
f 61/61/61 51/51/51 60/60/60
f 49/49/49 60/60/60 51/51/51
f 60/60/60 49/49/49 59/59/59
f 47/47/47 59/59/59 49/49/49
f 59/59/59 47/47/47 58/58/58
f 45/45/45 58/58/58 47/47/47
f 58/58/58 45/45/45 57/57/57
f 2/2/2 57/57/57 45/45/45
f 57/57/57 2/2/2 56/56/56
f 44/44/44 4/4/4 3/3/3
f 1/1/1 3/3/3 4/4/4
usemtl waterin
v -23099.365234 -854.203186 -12686.818359
vn 0.104653 -0.507279 -0.855404
vt 0.333500 0.999500
v -23124.107422 -815.736145 -12710.458984
vn 0.062232 -0.215965 -0.974416
vt 0.333500 0.899600
v -22919.447266 -823.371643 -12664.814453
vn 0.255481 -0.220811 -0.941261
vt 0.500000 0.899600
v -22708.259766 -279.643036 -12106.010742
vn 0.063671 0.992054 -0.108515
vt 0.999500 0.100400
v -22873.779297 -280.012299 -12209.103516
vn 0.056412 0.992442 -0.108976
vt 0.666500 0.100400
v -22882.568359 -278.000824 -12190.887695
vn 0.049437 0.994613 -0.091110
vt 0.666500 0.050450
v -23264.390625 -278.917938 -12376.456055
vn 0.053927 0.988719 -0.139741
vt 0.333500 0.100400
v -23449.416016 -276.164612 -12424.446289
vn 0.063350 0.980121 -0.188016
vt 0.000500 0.100400
v -23451.539063 -275.345306 -12420.949219
vn 0.059964 0.984997 -0.161820
vt 0.000500 0.050450
v -23074.878906 -277.473724 -12277.205078
vn 0.043150 0.994773 -0.092550
vt 0.500000 0.050450
v -23271.644531 -276.820343 -12360.125000
vn 0.050072 0.991638 -0.118937
vt 0.333500 0.050450
v -23276.714844 -275.491547 -12348.743164
vn 0.042321 0.994720 -0.093497
vt 0.333500 0.000500
v -22921.328125 -718.059998 -12663.761719
vn 0.263393 0.196952 -0.944370
vt 0.500000 0.799700
v -23128.789063 -704.279236 -12709.510742
vn 0.117899 0.139194 -0.983222
vt 0.333500 0.799700
v -23132.132813 -593.260986 -12678.914063
vn 0.129277 0.244348 -0.961031
vt 0.333500 0.699800
v -22927.583984 -608.254211 -12632.755859
vn 0.274076 0.270838 -0.922783
vt 0.500000 0.699800
v -23136.980469 -487.344604 -12654.114258
vn 0.149716 0.319780 -0.935589
vt 0.333500 0.599900
v -22934.826172 -500.676086 -12603.076172
vn 0.278933 0.376794 -0.883302
vt 0.500000 0.599900
v -23150.152344 -407.843323 -12621.320313
vn 0.162957 0.566159 -0.808028
vt 0.333500 0.500000
v -22946.751953 -418.462463 -12567.961914
vn 0.246342 0.634410 -0.732693
vt 0.500000 0.500000
v -23176.062500 -347.795532 -12564.909180
vn 0.144070 0.806127 -0.573937
vt 0.333500 0.400100
v -22970.888672 -354.708374 -12507.195313
vn 0.184138 0.841197 -0.508409
vt 0.500000 0.400100
v -23209.642578 -307.889404 -12496.298828
vn 0.104885 0.928847 -0.355307
vt 0.333500 0.300200
v -22710.865234 -278.819855 -12100.823242
vn 0.060058 0.992317 -0.108164
vt 0.999500 0.050450
v -23004.261719 -311.447937 -12432.347656
vn 0.119317 0.945003 -0.304520
vt 0.500000 0.300200
v -23239.226563 -288.661011 -12432.647461
vn 0.069117 0.976286 -0.205156
vt 0.333500 0.200300
v -23036.615234 -290.426422 -12361.259766
vn 0.072196 0.982777 -0.170112
vt 0.500000 0.200300
v -23066.152344 -279.733429 -12296.305664
vn 0.052606 0.991823 -0.116279
vt 0.500000 0.100400
v -22705.031250 -845.303894 -12583.425781
vn 0.362689 -0.381174 -0.850390
vt 0.666500 0.999500
v -22904.445313 -854.205322 -12641.561523
vn 0.227775 -0.513212 -0.827485
vt 0.500000 0.999500
v -22714.195313 -808.607910 -12601.561523
vn 0.432621 -0.100343 -0.895974
vt 0.666500 0.899600
v -23341.445313 -803.792603 -12702.133789
vn -0.054199 -0.329076 -0.942747
vt 0.000500 0.999500
v -23365.394531 -695.288391 -12710.535156
vn -0.008230 0.058963 -0.998226
vt 0.000500 0.899600
v -22713.863281 -697.295410 -12594.291016
vn 0.389308 0.191951 -0.900885
vt 0.666500 0.799700
v -23361.554688 -592.204773 -12683.540039
vn 0.018383 0.235926 -0.971597
vt 0.000500 0.799700
v -22725.083984 -587.873657 -12558.364258
vn 0.387748 0.304037 -0.870180
vt 0.666500 0.699800
v -23351.435547 -471.359253 -12660.152344
vn 0.039881 0.265512 -0.963282
vt 0.000500 0.699800
v -22735.962891 -483.889282 -12528.122070
vn 0.380358 0.398695 -0.834488
vt 0.666500 0.599900
v -23354.621094 -384.720642 -12625.160156
vn 0.070631 0.498502 -0.864006
vt 0.000500 0.599900
v -22750.458984 -405.862732 -12487.860352
vn 0.317644 0.637546 -0.701881
vt 0.666500 0.500000
v -23374.103516 -331.884460 -12574.772461
vn 0.093745 0.771190 -0.629664
vt 0.000500 0.500000
v -22776.298828 -347.057343 -12421.837891
vn 0.219226 0.845929 -0.486153
vt 0.666500 0.400100
v -23399.763672 -302.023010 -12522.801758
vn 0.084552 0.913195 -0.398655
vt 0.000500 0.400100
v -22810.671875 -308.099030 -12343.133789
vn 0.138802 0.944762 -0.296917
vt 0.666500 0.300200
v -23424.160156 -286.659058 -12472.572266
vn 0.061189 0.969824 -0.236002
vt 0.000500 0.300200
v -22843.970703 -289.402557 -12271.700195
vn 0.083789 0.982194 -0.168150
vt 0.666500 0.200300
v -23440.740234 -279.569214 -12439.524414
vn 0.054313 0.983387 -0.173208
vt 0.000500 0.200300
v -23452.974609 -274.794281 -12418.603516
vn 0.056859 0.988222 -0.142069
vt 0.000500 0.000500
v -22888.748047 -276.724884 -12178.141602
vn 0.048018 0.994577 -0.092252
vt 0.666500 0.000500
v -22489.068359 -679.630432 -12463.451172
vn 0.491932 0.148769 -0.857829
vt 0.999500 0.899600
v -22502.330078 -580.337219 -12427.393555
vn 0.465174 0.328772 -0.821902
vt 0.999500 0.799700
v -22712.724609 -278.237885 -12097.169922
vn 0.065680 0.990071 -0.124281
vt 0.999500 0.000500
v -22530.925781 -464.767059 -12400.312500
vn 0.458581 0.387954 -0.799497
vt 0.999500 0.699800
v -23081.009766 -276.058014 -12263.835938
vn 0.041209 0.995399 -0.086507
vt 0.500000 0.000500
v -22568.369141 -381.787750 -12358.127930
vn 0.383379 0.629612 -0.675728
vt 0.999500 0.599900
v -22607.785156 -331.961334 -12297.012695
vn 0.251143 0.849352 -0.464251
vt 0.999500 0.500000
v -22643.500000 -303.844208 -12232.555664
vn 0.153978 0.945601 -0.286583
vt 0.999500 0.400100
v -22676.119141 -289.465912 -12169.848633
vn 0.094619 0.981925 -0.163922
vt 0.999500 0.300200
v -22697.861328 -282.875946 -12126.935547
vn 0.070661 0.990685 -0.116410
vt 0.999500 0.200300
v -22511.558594 -787.299683 -12480.410156
vn 0.518763 -0.123698 -0.845922
vt 0.999500 0.999500
f 66/66/66 68/68/68 86/86/86
f 111/111/111 86/86/86 68/68/68
f 86/86/86 111/111/111 114/114/114
f 72/72/72 68/68/68 67/67/67
f 68/68/68 72/72/72 111/111/111
f 72/72/72 116/116/116 111/111/111
f 116/116/116 72/72/72 74/74/74
f 73/73/73 74/74/74 72/72/72
f 74/74/74 73/73/73 110/110/110
f 67/67/67 90/90/90 72/72/72
f 69/69/69 72/72/72 90/90/90
f 72/72/72 69/69/69 73/73/73
f 71/71/71 73/73/73 69/69/69
f 73/73/73 71/71/71 110/110/110
f 122/122/122 93/93/93 112/112/112
f 96/96/96 112/112/112 93/93/93
f 112/112/112 96/96/96 113/113/113
f 98/98/98 113/113/113 96/96/96
f 113/113/113 98/98/98 115/115/115
f 100/100/100 115/115/115 98/98/98
f 115/115/115 100/100/100 117/117/117
f 102/102/102 117/117/117 100/100/100
f 117/117/117 102/102/102 118/118/118
f 104/104/104 118/118/118 102/102/102
f 118/118/118 104/104/104 119/119/119
f 106/106/106 119/119/119 104/104/104
f 119/119/119 106/106/106 120/120/120
f 108/108/108 120/120/120 106/106/106
f 120/120/120 108/108/108 121/121/121
f 67/67/67 121/121/121 108/108/108
f 121/121/121 67/67/67 66/66/66
f 68/68/68 66/66/66 67/67/67
f 122/122/122 91/91/91 93/93/93
f 65/65/65 93/93/93 91/91/91
f 93/93/93 65/65/65 96/96/96
f 75/75/75 96/96/96 65/65/65
f 96/96/96 75/75/75 98/98/98
f 78/78/78 98/98/98 75/75/75
f 98/98/98 78/78/78 100/100/100
f 80/80/80 100/100/100 78/78/78
f 100/100/100 80/80/80 102/102/102
f 82/82/82 102/102/102 80/80/80
f 102/102/102 82/82/82 104/104/104
f 84/84/84 104/104/104 82/82/82
f 104/104/104 84/84/84 106/106/106
f 87/87/87 106/106/106 84/84/84
f 106/106/106 87/87/87 108/108/108
f 89/89/89 108/108/108 87/87/87
f 108/108/108 89/89/89 67/67/67
f 90/90/90 67/67/67 89/89/89
f 64/64/64 63/63/63 94/94/94
f 63/63/63 64/64/64 65/65/65
f 76/76/76 65/65/65 64/64/64
f 65/65/65 76/76/76 75/75/75
f 77/77/77 75/75/75 76/76/76
f 75/75/75 77/77/77 78/78/78
f 79/79/79 78/78/78 77/77/77
f 78/78/78 79/79/79 80/80/80
f 81/81/81 80/80/80 79/79/79
f 80/80/80 81/81/81 82/82/82
f 83/83/83 82/82/82 81/81/81
f 82/82/82 83/83/83 84/84/84
f 85/85/85 84/84/84 83/83/83
f 84/84/84 85/85/85 87/87/87
f 88/88/88 87/87/87 85/85/85
f 87/87/87 88/88/88 89/89/89
f 69/69/69 89/89/89 88/88/88
f 89/89/89 69/69/69 90/90/90
f 69/69/69 70/70/70 71/71/71
f 70/70/70 69/69/69 109/109/109
f 88/88/88 109/109/109 69/69/69
f 109/109/109 88/88/88 107/107/107
f 85/85/85 107/107/107 88/88/88
f 107/107/107 85/85/85 105/105/105
f 83/83/83 105/105/105 85/85/85
f 105/105/105 83/83/83 103/103/103
f 81/81/81 103/103/103 83/83/83
f 103/103/103 81/81/81 101/101/101
f 79/79/79 101/101/101 81/81/81
f 101/101/101 79/79/79 99/99/99
f 77/77/77 99/99/99 79/79/79
f 99/99/99 77/77/77 97/97/97
f 76/76/76 97/97/97 77/77/77
f 97/97/97 76/76/76 95/95/95
f 64/64/64 95/95/95 76/76/76
f 95/95/95 64/64/64 94/94/94
f 91/91/91 92/92/92 65/65/65
f 63/63/63 65/65/65 92/92/92
