mtllib CB_NEWPLAYSURFACE_CB_WATERFALLS18.mtl
g CB_waterfalls18
usemtl WaterChurned
v -22125.283203 -797.986511 -12496.495117
vn -0.000261 0.999979 0.006474
vt 0.000000 0.750000
v -22036.662109 -798.175171 -12521.701172
vn 0.004607 0.999978 0.004723
vt 0.000000 0.875000
v -22105.412109 -796.289307 -12853.935547
vn 0.014677 0.999892 -0.000467
vt 0.125000 0.875000
v -22199.849609 -795.448669 -12790.145508
vn -0.001734 0.999963 0.008486
vt 0.125000 0.750000
v -21946.644531 -798.569031 -12547.761719
vn 0.013564 0.999908 0.000411
vt 0.000000 1.000000
v -22007.625000 -798.622742 -12917.944336
vn 0.020173 0.999781 -0.005629
vt 0.125000 1.000000
v -22137.048828 -798.671082 -13247.038086
vn 0.022378 0.999646 -0.014380
vt 0.250000 1.000000
v -22228.890625 -794.935852 -13146.876953
vn 0.017848 0.999801 -0.008958
vt 0.250000 0.875000
v -22316.644531 -793.640869 -13047.111328
vn -0.005192 0.999958 0.007595
vt 0.250000 0.750000
v -22461.833984 -794.647095 -13361.234375
vn 0.009611 0.999831 -0.015656
vt 0.375000 0.875000
v -22517.896484 -793.293213 -13230.708008
vn -0.005005 0.999948 0.008936
vt 0.375000 0.750000
v -22403.355469 -798.708618 -13493.953125
vn 0.014535 0.999602 -0.024186
vt 0.375000 1.000000
v -22742.849609 -798.726563 -13609.895508
vn 0.002010 0.999635 -0.026935
vt 0.500000 1.000000
v -22755.056641 -794.773193 -13460.849609
vn 0.001381 0.999845 -0.017545
vt 0.500000 0.875000
v -22767.300781 -793.490295 -13315.101563
vn -0.000918 0.999951 0.009854
vt 0.500000 0.750000
v -23059.375000 -794.664368 -13409.563477
vn -0.007361 0.999819 -0.017557
vt 0.625000 0.875000
v -23028.562500 -793.316711 -13274.460938
vn 0.003331 0.999947 0.009703
vt 0.625000 0.750000
v -23091.839844 -798.716309 -13546.075195
vn -0.011225 0.999572 -0.027000
vt 0.625000 1.000000
v -23394.857422 -798.682678 -13339.924805
vn -0.020856 0.999591 -0.019563
vt 0.750000 1.000000
v -23329.082031 -794.962097 -13233.284180
vn -0.016761 0.999773 -0.013178
vt 0.750000 0.875000
v -23265.089844 -793.676636 -13125.616211
vn 0.003720 0.999959 0.008305
vt 0.750000 0.750000
v -23518.478516 -796.307800 -12957.914063
vn -0.014631 0.999885 -0.004061
vt 0.875000 0.875000
v -23440.302734 -795.474121 -12885.396484
vn 0.000284 0.999965 0.008358
vt 0.875000 0.750000
v -23596.429688 -798.630493 -13028.876953
vn -0.020075 0.999742 -0.010671
vt 0.875000 1.000000
v -23747.283203 -798.569092 -12665.380859
vn -0.013815 0.999900 -0.003076
vt 1.000000 1.000000
v -23667.716797 -798.177490 -12633.000000
vn -0.004993 0.999982 0.003461
vt 1.000000 0.875000
v -23584.857422 -797.990417 -12599.490234
vn -0.000696 0.999981 0.006147
vt 1.000000 0.750000
v -22301.330078 -798.332336 -12443.840820
vn 0.008840 0.999958 0.002491
vt 0.000000 0.500000
v -22211.105469 -798.208313 -12472.997070
vn -0.001157 0.999996 0.002770
vt 0.000000 0.625000
v -22287.591797 -797.593628 -12726.794922
vn -0.010823 0.999915 0.007318
vt 0.125000 0.625000
v -22376.246094 -798.555176 -12653.276367
vn 0.011059 0.999920 -0.006095
vt 0.125000 0.500000
v -22396.216797 -797.226563 -12948.136719
vn -0.016149 0.999790 0.012583
vt 0.250000 0.625000
v -22475.005859 -798.797241 -12835.610352
vn 0.014118 0.999853 -0.009682
vt 0.250000 0.500000
v -22569.119141 -797.354614 -13104.564453
vn -0.010863 0.999790 0.017353
vt 0.375000 0.625000
v -22621.453125 -799.077698 -12963.738281
vn 0.007606 0.999853 -0.015356
vt 0.375000 0.500000
v -22779.625000 -797.548218 -13175.953125
vn -0.001797 0.999801 0.019873
vt 0.500000 0.625000
v -22796.177734 -799.231934 -13021.939453
vn 0.001327 0.999861 -0.016607
vt 0.500000 0.500000
v -23001.056641 -797.377563 -13142.176758
vn 0.007653 0.999787 0.019172
vt 0.625000 0.625000
v -22979.771484 -799.095337 -12994.490234
vn -0.005265 0.999840 -0.017114
vt 0.625000 0.500000
v -23204.664063 -797.261475 -13015.894531
vn 0.013671 0.999786 0.015519
vt 0.750000 0.625000
v -23150.652344 -798.824036 -12891.053711
vn -0.013319 0.999824 -0.013221
vt 0.750000 0.500000
v -23361.685547 -797.618591 -12809.767578
vn 0.009280 0.999915 0.009178
vt 0.875000 0.625000
v -23287.238281 -798.574341 -12721.292969
vn -0.011011 0.999900 -0.008877
vt 0.875000 0.500000
v -23495.416016 -798.212280 -12563.718750
vn 0.000683 0.999996 0.002784
vt 1.000000 0.625000
v -23406.677734 -798.335449 -12518.371094
vn -0.010020 0.999950 -0.000273
vt 1.000000 0.500000
v -22506.480469 -797.430176 -12351.307617
vn 0.034347 0.998706 0.037503
vt 0.000000 0.250000
v -22403.156250 -797.850647 -12401.661133
vn 0.012449 0.999763 0.017867
vt 0.000000 0.375000
v -22473.421875 -794.164185 -12558.984375
vn 0.040146 0.999192 0.001905
vt 0.125000 0.375000
v -22569.382813 -790.279419 -12457.179688
vn 0.042786 0.998523 0.033499
vt 0.125000 0.250000
v -22560.410156 -791.457092 -12695.191406
vn 0.042776 0.998818 -0.023078
vt 0.250000 0.375000
v -22643.177734 -784.956787 -12547.992188
vn 0.026950 0.999576 0.010991
vt 0.250000 0.250000
v -22680.845703 -790.708679 -12789.164063
vn 0.021471 0.999118 -0.036094
vt 0.375000 0.375000
v -22738.755859 -783.290527 -12608.686523
vn 0.009206 0.999953 -0.003118
vt 0.375000 0.250000
v -22821.117188 -790.826538 -12831.596680
vn 0.003324 0.999168 -0.040662
vt 0.500000 0.375000
v -22846.865234 -783.372131 -12635.975586
vn 0.000474 0.999983 -0.005747
vt 0.500000 0.250000
v -22967.613281 -790.718262 -12813.182617
vn -0.015874 0.999043 -0.040767
vt 0.625000 0.375000
v -22958.259766 -783.293152 -12626.574219
vn -0.008806 0.999946 -0.005463
vt 0.625000 0.250000
v -23105.908203 -791.471741 -12738.027344
vn -0.040652 0.998619 -0.033279
vt 0.750000 0.375000
v -23064.906250 -784.960754 -12579.632813
vn -0.028362 0.999590 0.004033
vt 0.750000 0.250000
v -23221.574219 -794.174683 -12610.237305
vn -0.041904 0.999082 -0.008945
vt 0.875000 0.375000
v -23158.767578 -790.282227 -12494.300781
vn -0.046054 0.998708 0.021462
vt 0.875000 0.250000
v -23325.927734 -797.852356 -12456.128906
vn -0.016050 0.999787 0.012991
vt 1.000000 0.375000
v -23246.238281 -797.430725 -12389.774414
vn -0.037469 0.998903 0.028101
vt 1.000000 0.250000
v -22691.617188 -798.410095 -12242.302734
vn 0.001164 0.998853 0.047865
vt 0.000000 0.000000
v -22601.199219 -797.738037 -12297.635742
vn 0.027314 0.998092 0.055378
vt 0.000000 0.125000
v -22654.398438 -792.759583 -12361.124023
vn 0.009556 0.998685 0.050371
vt 0.125000 0.125000
v -22733.939453 -798.422180 -12267.943359
vn -0.022580 0.998886 0.041428
vt 0.125000 0.000000
v -22714.056641 -789.046997 -12415.125000
vn 0.001212 0.998575 0.053360
vt 0.250000 0.125000
v -22778.992188 -798.432434 -12289.424805
vn -0.014398 0.997967 0.062091
vt 0.250000 0.000000
v -22786.636719 -787.866333 -12450.150391
vn -0.008584 0.998834 0.047498
vt 0.375000 0.125000
v -22829.505859 -798.439026 -12302.584961
vn -0.013107 0.997622 0.067670
vt 0.375000 0.000000
v -22865.845703 -787.908997 -12466.127930
vn -0.003695 0.998914 0.046456
vt 0.500000 0.125000
v -22881.439453 -798.441467 -12309.166016
vn -0.005444 0.997681 0.067841
vt 0.500000 0.000000
v -22945.386719 -787.866516 -12462.987305
vn 0.001185 0.998823 0.048480
vt 0.625000 0.125000
v -22930.753906 -798.439209 -12310.911133
vn 0.002061 0.997604 0.069157
vt 0.625000 0.000000
v -23022.119141 -789.047363 -12438.687500
vn -0.007645 0.998607 0.052205
vt 0.750000 0.125000
v -22978.439453 -798.432800 -12306.467773
vn 0.005461 0.997885 0.064769
vt 0.750000 0.000000
v -23092.892578 -792.759949 -12391.188477
vn -0.013727 0.998704 0.049006
vt 0.875000 0.125000
v -23025.482422 -798.422668 -12294.486328
vn 0.014501 0.998724 0.048375
vt 0.875000 0.000000
v -23160.689453 -797.738342 -12332.087891
vn -0.027718 0.998247 0.052294
vt 1.000000 0.125000
v -23072.207031 -798.410706 -12278.736328
vn -0.004659 0.998686 0.051041
vt 1.000000 0.000000
f 42/42/42 44/44/44 45/45/45
f 42/42/42 40/40/40 21/21/21
f 16/16/16 20/20/20 21/21/21
f 42/42/42 27/27/27 44/44/44
f 27/27/27 42/42/42 23/23/23
f 21/21/21 23/23/23 42/42/42
f 23/23/23 21/21/21 22/22/22
f 20/20/20 22/22/22 21/21/21
f 22/22/22 20/20/20 19/19/19
f 16/16/16 19/19/19 20/20/20
f 19/19/19 16/16/16 18/18/18
f 13/13/13 18/18/18 16/16/16
f 25/25/25 26/26/26 22/22/22
f 27/27/27 22/22/22 26/26/26
f 22/22/22 27/27/27 23/23/23
f 19/19/19 24/24/24 22/22/22
f 25/25/25 22/22/22 24/24/24
f 16/16/16 14/14/14 13/13/13
f 60/60/60 62/62/62 63/63/63
f 62/62/62 60/60/60 45/45/45
f 43/43/43 45/45/45 60/60/60
f 45/45/45 43/43/43 42/42/42
f 41/41/41 42/42/42 43/43/43
f 42/42/42 41/41/41 40/40/40
f 38/38/38 40/40/40 41/41/41
f 40/40/40 38/38/38 21/21/21
f 17/17/17 21/21/21 38/38/38
f 21/21/21 17/17/17 16/16/16
f 15/15/15 16/16/16 17/17/17
f 16/16/16 15/15/15 14/14/14
f 10/10/10 14/14/14 15/15/15
f 14/14/14 10/10/10 13/13/13
f 12/12/12 13/13/13 10/10/10
f 15/15/15 17/17/17 38/38/38
f 41/41/41 43/43/43 60/60/60
f 7/7/7 12/12/12 10/10/10
f 15/15/15 11/11/11 10/10/10
f 41/41/41 39/39/39 38/38/38
f 5/5/5 6/6/6 3/3/3
f 7/7/7 3/3/3 6/6/6
f 3/3/3 7/7/7 8/8/8
f 10/10/10 8/8/8 7/7/7
f 8/8/8 10/10/10 9/9/9
f 11/11/11 9/9/9 10/10/10
f 9/9/9 11/11/11 34/34/34
f 15/15/15 34/34/34 11/11/11
f 34/34/34 15/15/15 36/36/36
f 38/38/38 36/36/36 15/15/15
f 36/36/36 38/38/38 37/37/37
f 39/39/39 37/37/37 38/38/38
f 37/37/37 39/39/39 56/56/56
f 41/41/41 56/56/56 39/39/39
f 56/56/56 41/41/41 58/58/58
f 60/60/60 58/58/58 41/41/41
f 58/58/58 60/60/60 59/59/59
f 61/61/61 59/59/59 60/60/60
f 3/3/3 9/9/9 4/4/4
f 9/9/9 3/3/3 8/8/8
f 34/34/34 37/37/37 35/35/35
f 37/37/37 34/34/34 36/36/36
f 56/56/56 59/59/59 57/57/57
f 59/59/59 56/56/56 58/58/58
f 63/63/63 61/61/61 60/60/60
f 59/59/59 61/61/61 78/78/78
f 63/63/63 78/78/78 61/61/61
f 78/78/78 63/63/63 80/80/80
f 78/78/78 81/81/81 79/79/79
f 81/81/81 78/78/78 80/80/80
f 79/79/79 77/77/77 78/78/78
f 76/76/76 78/78/78 77/77/77
f 78/78/78 76/76/76 59/59/59
f 74/74/74 59/59/59 76/76/76
f 59/59/59 74/74/74 57/57/57
f 55/55/55 57/57/57 74/74/74
f 57/57/57 55/55/55 56/56/56
f 54/54/54 56/56/56 55/55/55
f 56/56/56 54/54/54 37/37/37
f 52/52/52 37/37/37 54/54/54
f 37/37/37 52/52/52 35/35/35
f 33/33/33 35/35/35 52/52/52
f 35/35/35 33/33/33 34/34/34
f 32/32/32 34/34/34 33/33/33
f 34/34/34 32/32/32 9/9/9
f 30/30/30 9/9/9 32/32/32
f 9/9/9 30/30/30 4/4/4
f 1/1/1 4/4/4 30/30/30
f 30/30/30 33/33/33 31/31/31
f 33/33/33 30/30/30 32/32/32
f 52/52/52 55/55/55 53/53/53
f 55/55/55 52/52/52 54/54/54
f 74/74/74 77/77/77 75/75/75
f 77/77/77 74/74/74 76/76/76
f 30/30/30 29/29/29 1/1/1
f 29/29/29 30/30/30 28/28/28
f 31/31/31 28/28/28 30/30/30
f 28/28/28 31/31/31 48/48/48
f 33/33/33 48/48/48 31/31/31
f 48/48/48 33/33/33 50/50/50
f 52/52/52 50/50/50 33/33/33
f 50/50/50 52/52/52 51/51/51
f 53/53/53 51/51/51 52/52/52
f 51/51/51 53/53/53 70/70/70
f 55/55/55 70/70/70 53/53/53
f 70/70/70 55/55/55 72/72/72
f 74/74/74 72/72/72 55/55/55
f 72/72/72 74/74/74 73/73/73
f 75/75/75 73/73/73 74/74/74
f 70/70/70 72/72/72 73/73/73
f 46/46/46 47/47/47 48/48/48
f 28/28/28 48/48/48 47/47/47
f 64/64/64 65/65/65 66/66/66
f 46/46/46 66/66/66 65/65/65
f 66/66/66 46/46/46 49/49/49
f 48/48/48 49/49/49 46/46/46
f 49/49/49 48/48/48 51/51/51
f 50/50/50 51/51/51 48/48/48
f 66/66/66 49/49/49 51/51/51
f 66/66/66 67/67/67 64/64/64
f 68/68/68 51/51/51 70/70/70
f 51/51/51 68/68/68 66/66/66
f 69/69/69 66/66/66 68/68/68
f 66/66/66 69/69/69 67/67/67
f 73/73/73 71/71/71 70/70/70
f 69/69/69 70/70/70 71/71/71
f 70/70/70 69/69/69 68/68/68
f 4/4/4 1/1/1 3/3/3
f 2/2/2 3/3/3 1/1/1
f 3/3/3 2/2/2 5/5/5
