mtllib CB_NEWPLAYSURFACE_CB_PLAYSURFACE122.mtl
g _playsurface122
usemtl Lvl_Cburst_rock03
v -16003.119141 -52.937660 -14511.232422
vn -0.165869 0.409083 0.897295
vt 1.085907 1.639820
v -16154.166992 -52.937660 -14539.525391
vn 0.032449 0.336221 0.941224
vt 0.899294 1.642237
v -16154.112305 -103.874977 -14479.524414
vn -0.000929 0.576162 0.817335
vt 0.905250 1.687503
v -16767.781250 63.689533 -15277.240234
vn 0.478503 -0.239793 -0.844710
vt 2.369689 2.346353
v -16754.515625 140.156921 -15314.920898
vn 0.263186 -0.027049 -0.964366
vt 2.348089 2.259501
v -16404.535156 140.156906 -14934.559570
vn 0.324086 -0.189384 -0.926878
vt 1.742172 2.257929
v -16951.312500 63.689491 -14264.174805
vn -0.052112 -0.293633 0.954497
vt -0.128205 1.514398
v -16724.617188 63.689499 -14441.192383
vn 0.399756 -0.159067 0.902714
vt 0.262685 1.513899
v -16708.939453 140.156998 -14404.450195
vn 0.357376 -0.204741 0.911243
vt 0.262444 1.426426
v -16949.466797 140.156937 -14224.271484
vn 0.047156 0.056647 0.997280
vt -0.122043 1.426972
v -17266.929688 63.689499 -14461.324219
vn -0.813055 -0.287506 0.506244
vt 3.000923 2.361589
v -17298.949219 140.156937 -14437.438477
vn -0.745604 -0.145844 0.650234
vt 3.022178 2.274716
v -17351.148438 140.156891 -14637.422852
vn -0.965712 -0.064950 0.251362
vt 2.770348 2.272688
v -15621.316406 140.038651 -14507.549805
vn 0.813261 -0.058729 0.578928
vt 0.432332 2.273824
v -15648.318359 63.571278 -14530.519531
vn 0.808884 -0.171411 0.562428
vt 0.441904 2.360488
v -15595.589844 63.453056 -14606.390625
vn 0.915533 -0.282578 0.286266
vt 0.553833 2.358875
v -15556.657227 139.920380 -14597.446289
vn 0.978444 -0.150236 0.141691
vt 0.566187 2.271597
v -17315.203125 63.689507 -14648.138672
vn -0.952287 -0.180545 0.246077
vt 2.765790 2.359766
v -17315.201172 -52.937656 -14648.138672
vn -0.916239 0.323186 0.236763
vt 2.765791 2.484013
v -17266.927734 -52.937664 -14461.324219
vn -0.773291 0.368409 0.516039
vt 3.000923 2.485835
v -17369.171875 -103.874977 -14632.033203
vn -0.735555 0.649609 0.192268
vt 2.772653 2.559574
v -17314.982422 -103.874985 -14425.393555
vn -0.570662 0.662873 0.484710
vt 3.037877 2.561707
v -15648.317383 -53.055885 -14530.519531
vn 0.780320 0.312294 0.541823
vt 0.441904 2.484735
v -15595.588867 -53.174107 -14606.390625
vn 0.897439 0.364333 0.248725
vt 0.553833 2.483120
v -16131.453125 140.156906 -14942.221680
vn -0.024431 -0.095606 -0.995119
vt 1.410018 2.261713
v -16142.534180 63.689518 -14904.118164
vn -0.023163 -0.225251 -0.974025
vt 1.429031 2.348668
v -16420.029297 63.689518 -14897.740234
vn 0.380755 -0.240607 -0.892824
vt 1.766349 2.344612
v -16142.533203 -52.937645 -14904.118164
vn -0.021937 0.404793 -0.914145
vt 1.429030 2.472914
v -16420.029297 -52.937645 -14897.740234
vn 0.375846 0.286904 -0.881150
vt 1.766348 2.468858
v -16125.877930 -103.874962 -14961.351563
vn -0.025601 0.567377 -0.823060
vt 1.400457 2.548659
v -16396.794922 -103.874962 -14953.057617
vn 0.366340 0.618850 -0.694853
vt 1.730081 2.545007
v -16951.312500 63.689491 -14264.174805
vn -0.052112 -0.293633 0.954497
vt 3.485314 2.370718
v -16949.466797 140.156937 -14224.271484
vn 0.047156 0.056647 0.997280
vt 3.501402 2.283581
v -17351.148438 140.156891 -14637.422852
vn -0.965712 -0.064950 0.251362
vt 3.770348 2.272688
v -17403.349609 140.156891 -14837.408203
vn -0.981286 -0.149011 -0.121955
vt 3.518516 2.270659
v -17363.476563 63.689514 -14834.953125
vn -0.978799 -0.204350 -0.013941
vt 3.530657 2.357944
v -17315.203125 63.689507 -14648.138672
vn -0.952287 -0.180545 0.246077
vt 3.765790 2.359766
v -17243.523438 140.156906 -15241.539063
vn -0.708853 0.027209 -0.704831
vt 2.951619 2.261636
v -17218.697266 63.689533 -15210.242188
vn -0.530092 -0.281896 -0.799711
vt 2.926108 2.348222
v -15858.371094 140.156967 -14949.883789
vn 0.197638 -0.150540 -0.968647
vt 1.077863 2.265498
v -15865.036133 63.689518 -14910.494141
vn 0.130661 -0.202407 -0.970546
vt 1.091712 2.352725
v -15601.545898 139.920441 -14853.204102
vn 0.766941 0.086373 -0.635879
vt 0.820867 2.269619
v -15632.330078 63.453064 -14827.747070
vn 0.787279 -0.287237 -0.545606
vt 0.848705 2.356018
v -15685.976563 140.156876 -14417.656250
vn 0.256327 -0.155958 0.953925
vt 0.298476 2.276050
v -15701.045898 63.689499 -14454.652344
vn 0.546327 -0.241167 0.802101
vt 0.329978 2.362102
v -16951.312500 -52.937672 -14264.174805
vn 0.089062 0.452914 0.887095
vt 3.485315 2.494964
v -17363.476563 -52.937649 -14834.953125
vn -0.833939 0.549502 -0.050922
vt 3.530657 2.482190
v -17315.201172 -52.937656 -14648.138672
vn -0.916239 0.323186 0.236763
vt 3.765791 2.484013
v -17218.697266 -52.937630 -15210.242188
vn -0.586392 0.438380 -0.681151
vt 2.926107 2.472468
v -16767.779297 -52.937630 -15277.240234
vn 0.272038 0.436455 -0.857614
vt 2.369688 2.470599
v -15865.035156 -52.937645 -14910.494141
vn 0.136883 0.542279 -0.828973
vt 1.091712 2.476970
v -15632.329102 -53.174099 -14827.747070
vn 0.664235 0.442712 -0.602327
vt 0.848705 2.480264
v -15701.043945 -52.937664 -14454.652344
vn 0.237379 0.503055 0.831016
vt 0.329978 2.486348
v -16948.597656 -103.874992 -14204.236328
vn 0.102080 0.686513 0.719917
vt 3.514366 2.570432
v -17423.363281 -103.874962 -14838.670898
vn -0.741895 0.668880 -0.046811
vt 3.512386 2.557441
v -17369.171875 -103.874977 -14632.033203
vn -0.735555 0.649609 0.192268
vt 3.772653 2.559574
v -17255.957031 -103.874947 -15257.272461
vn -0.440000 0.683621 -0.582291
vt 2.964385 2.548764
v -16747.875000 -103.874939 -15333.842773
vn 0.189584 0.674395 -0.713617
vt 2.337268 2.546496
v -15854.959961 -103.874962 -14969.643555
vn -0.150158 0.801191 -0.579262
vt 1.070834 2.552310
v -15685.976563 140.156876 -14417.656250
vn 0.256327 -0.155958 0.953925
vt 1.481076 1.423913
v -15842.025391 140.156876 -14444.960938
vn -0.168499 -0.009453 0.985656
vt 1.288475 1.426121
v -15852.070313 63.689499 -14482.942383
vn -0.175302 -0.246719 0.953100
vt 1.272521 1.513158
v -15701.045898 63.689499 -14454.652344
vn 0.546327 -0.241167 0.802101
vt 1.459108 1.510742
v -15998.098633 140.156876 -14472.268555
vn -0.169777 -0.118043 0.978387
vt 1.095841 1.428329
v -16003.120117 63.689503 -14511.232422
vn -0.177410 -0.228803 0.957170
vt 1.085907 1.515575
v -15852.070313 -52.937664 -14482.942383
vn -0.166751 0.397666 0.902250
vt 1.272521 1.637404
v -15701.043945 -52.937664 -14454.652344
vn 0.237379 0.503055 0.831016
vt 1.459108 1.634988
v -15995.550781 -103.874985 -14452.711914
vn -0.141118 0.581874 0.800942
vt 1.100861 1.685399
v -16439.392578 63.689499 -14490.357422
vn 0.163454 -0.267533 0.949584
vt 0.580893 1.514177
v -16431.554688 140.156937 -14452.013672
vn 0.167899 -0.105333 0.980161
vt 0.594195 1.427058
v -16724.615234 -52.937664 -14441.191406
vn 0.384731 0.489214 0.782721
vt 0.262686 1.638145
v -16951.312500 -52.937672 -14264.174805
vn 0.089062 0.452914 0.887095
vt -0.128205 1.638644
v -16948.597656 -103.874992 -14204.236328
vn 0.102080 0.686513 0.719917
vt -0.119019 1.683951
v -16701.173828 -103.874985 -14385.962891
vn 0.321826 0.608923 0.725011
vt 0.262186 1.683382
v -16427.642578 -103.874985 -14432.743164
vn 0.138073 0.575311 0.806197
vt 0.600850 1.684188
v -16439.390625 -52.937664 -14490.357422
vn 0.149340 0.473693 0.867936
vt 0.580895 1.638423
v -16154.167969 63.689503 -14539.525391
vn -0.044023 -0.190741 0.980653
vt 0.899294 1.517991
v -16154.170898 140.156937 -14499.577148
vn -0.025985 -0.205648 0.978281
vt 0.903209 1.430537
v -15836.978516 -103.874985 -14425.897461
vn -0.138633 0.601254 0.786940
vt 1.296488 1.683295
v -15678.417969 -103.874985 -14399.081055
vn 0.063714 0.778507 0.624394
vt 1.492099 1.681192
f 51/51/51 59/59/59 30/30/30
f 28/28/28 30/30/30 31/31/31
f 30/30/30 28/28/28 51/51/51
f 41/41/41 51/51/51 28/28/28
f 51/51/51 41/41/41 52/52/52
f 43/43/43 52/52/52 41/41/41
f 52/52/52 43/43/43 24/24/24
f 16/16/16 24/24/24 43/43/43
f 24/24/24 16/16/16 15/15/15
f 14/14/14 15/15/15 16/16/16
f 15/15/15 14/14/14 45/45/45
f 44/44/44 45/45/45 14/14/14
f 43/43/43 41/41/41 40/40/40
f 40/40/40 42/42/42 43/43/43
f 17/17/17 43/43/43 42/42/42
f 43/43/43 17/17/17 16/16/16
f 14/14/14 16/16/16 17/17/17
f 23/23/23 45/45/45 53/53/53
f 45/45/45 23/23/23 15/15/15
f 24/24/24 15/15/15 23/23/23
f 41/41/41 25/25/25 40/40/40
f 25/25/25 41/41/41 26/26/26
f 28/28/28 26/26/26 41/41/41
f 26/26/26 28/28/28 29/29/29
f 31/31/31 29/29/29 28/28/28
f 29/29/29 31/31/31 50/50/50
f 58/58/58 50/50/50 31/31/31
f 50/50/50 58/58/58 49/49/49
f 57/57/57 49/49/49 58/58/58
f 49/49/49 57/57/57 47/47/47
f 55/55/55 47/47/47 57/57/57
f 47/47/47 55/55/55 56/56/56
f 26/26/26 6/6/6 25/25/25
f 6/6/6 26/26/26 27/27/27
f 29/29/29 27/27/27 26/26/26
f 27/27/27 29/29/29 4/4/4
f 50/50/50 4/4/4 29/29/29
f 4/4/4 50/50/50 39/39/39
f 49/49/49 39/39/39 50/50/50
f 39/39/39 49/49/49 36/36/36
f 47/47/47 36/36/36 49/49/49
f 36/36/36 47/47/47 48/48/48
f 56/56/56 48/48/48 47/47/47
f 4/4/4 6/6/6 27/27/27
f 6/6/6 4/4/4 5/5/5
f 39/39/39 5/5/5 4/4/4
f 48/48/48 37/37/37 36/36/36
f 37/37/37 34/34/34 36/36/36
f 35/35/35 36/36/36 34/34/34
f 36/36/36 35/35/35 39/39/39
f 38/38/38 39/39/39 35/35/35
f 39/39/39 38/38/38 5/5/5
f 60/60/60 61/61/61 62/62/62
f 64/64/64 62/62/62 61/61/61
f 62/62/62 64/64/64 65/65/65
f 78/78/78 65/65/65 64/64/64
f 65/65/65 78/78/78 77/77/77
f 69/69/69 77/77/77 78/78/78
f 77/77/77 69/69/69 2/2/2
f 76/76/76 2/2/2 69/69/69
f 2/2/2 76/76/76 3/3/3
f 75/75/75 3/3/3 76/76/76
f 74/74/74 75/75/75 76/76/76
f 62/62/62 63/63/63 60/60/60
f 78/78/78 70/70/70 69/69/69
f 1/1/1 77/77/77 2/2/2
f 77/77/77 1/1/1 65/65/65
f 66/66/66 65/65/65 1/1/1
f 65/65/65 66/66/66 62/62/62
f 67/67/67 62/62/62 66/66/66
f 62/62/62 67/67/67 63/63/63
f 80/80/80 67/67/67 79/79/79
f 66/66/66 79/79/79 67/67/67
f 79/79/79 66/66/66 68/68/68
f 1/1/1 68/68/68 66/66/66
f 68/68/68 1/1/1 3/3/3
f 2/2/2 3/3/3 1/1/1
f 76/76/76 71/71/71 74/74/74
f 71/71/71 76/76/76 8/8/8
f 69/69/69 8/8/8 76/76/76
f 8/8/8 69/69/69 9/9/9
f 70/70/70 9/9/9 69/69/69
f 7/7/7 9/9/9 10/10/10
f 9/9/9 7/7/7 8/8/8
f 72/72/72 8/8/8 7/7/7
f 8/8/8 72/72/72 71/71/71
f 73/73/73 71/71/71 72/72/72
f 71/71/71 73/73/73 74/74/74
f 12/12/12 32/32/32 33/33/33
f 32/32/32 12/12/12 11/11/11
f 13/13/13 11/11/11 12/12/12
f 11/11/11 13/13/13 18/18/18
f 20/20/20 11/11/11 18/18/18
f 11/11/11 20/20/20 32/32/32
f 46/46/46 32/32/32 20/20/20
f 18/18/18 19/19/19 20/20/20
f 19/19/19 21/21/21 20/20/20
f 22/22/22 20/20/20 21/21/21
f 20/20/20 22/22/22 46/46/46
f 54/54/54 46/46/46 22/22/22
usemtl Lvl_Cburst_rockground_mix
v -16144.333984 188.472015 -14718.082031
vn 0.000000 1.000000 0.000000
vt -3.762286 -3.568277
v -16134.530273 188.472031 -14930.018555
vn -0.011090 0.780166 -0.625474
vt -3.775074 -3.312469
v -16407.923828 188.472031 -14926.570313
vn 0.261365 0.864074 -0.430192
vt -3.418430 -3.316631
v -16420.447266 188.472015 -14692.568359
vn 0.000000 1.000000 0.000000
vt -3.402095 -3.599072
v -15692.809570 188.472000 -14434.416016
vn 0.272383 0.697960 0.662314
vt -3.351299 -3.910662
v -15633.320313 188.472000 -14517.895508
vn 0.478415 0.809250 0.340931
vt -3.428905 -3.809900
v -15731.000000 188.471893 -14650.028320
vn 0.000000 1.000000 0.000000
vt -3.301481 -3.650415
v -15595.588867 -53.174107 -14606.390625
vn 0.897439 0.364333 0.248725
vt 0.553833 2.483120
v -15648.317383 -53.055885 -14530.519531
vn 0.780320 0.312294 0.541823
vt 0.441904 2.484735
v -15607.768555 -103.993202 -14496.006836
vn 0.304505 0.927801 0.215549
vt 0.427509 2.560915
v -15537.119141 -104.111427 -14592.931641
vn 0.349675 0.936387 0.030106
vt 0.572359 2.558380
v -15586.056641 -104.111412 -14865.941406
vn 0.217098 0.940533 -0.261277
vt 0.806839 2.556849
v -15854.959961 -103.874962 -14969.643555
vn -0.150158 0.801191 -0.579262
vt 1.070834 2.552310
v -15865.035156 -52.937645 -14910.494141
vn 0.136883 0.542279 -0.828973
vt 1.091712 2.476970
v -15632.329102 -53.174099 -14827.747070
vn 0.664235 0.442712 -0.602327
vt 0.848705 2.480264
v -15701.043945 -52.937664 -14454.652344
vn 0.237379 0.503055 0.831016
vt 0.329978 2.486348
v -15678.417969 -103.874985 -14399.081055
vn 0.063714 0.778507 0.624394
vt 0.282658 2.563450
v -17351.148438 140.156891 -14637.422852
vn -0.965712 -0.064950 0.251362
vt 3.770348 2.272688
v -17335.507813 188.472015 -14642.131836
vn -0.564223 0.812421 0.147056
vt 3.768309 2.178572
v -17386.130859 188.472015 -14836.358398
vn -0.739440 0.671725 -0.044882
vt 3.523747 2.176613
v -17403.349609 140.156891 -14837.408203
vn -0.981286 -0.149011 -0.121955
vt 3.518516 2.270659
v -15621.316406 140.038651 -14507.549805
vn 0.813261 -0.058729 0.578928
vt 0.432332 2.273824
v -15633.320313 188.472000 -14517.895508
vn 0.478415 0.809250 0.340931
vt 0.436732 2.179459
v -15692.809570 188.472000 -14434.416016
vn 0.272383 0.697960 0.662314
vt 0.312742 2.181570
v -15685.976563 140.156876 -14417.656250
vn 0.256327 -0.155958 0.953925
vt 0.298476 2.276050
v -16131.453125 140.156906 -14942.221680
vn -0.024431 -0.095606 -0.995119
vt 1.410018 2.261713
v -16134.530273 188.472031 -14930.018555
vn -0.011090 0.780166 -0.625474
vt 1.415536 2.166920
v -15861.134766 188.472031 -14933.466797
vn 0.111734 0.745360 -0.657232
vt 1.083619 2.171340
v -15858.371094 140.156967 -14949.883789
vn 0.197638 -0.150540 -0.968647
vt 1.077863 2.265498
v -17284.886719 188.472000 -14447.907227
vn -0.589429 0.678728 0.438066
vt 3.012869 2.180531
v -17298.949219 140.156937 -14437.438477
vn -0.745604 -0.145844 0.650234
vt 3.022178 2.274716
v -16949.466797 140.156937 -14224.271484
vn 0.047156 0.056647 0.997280
vt 3.501402 2.283581
v -16950.318359 188.472000 -14242.460938
vn 0.016525 0.852739 0.522076
vt 3.494056 2.189606
v -17351.148438 140.156891 -14637.422852
vn -0.965712 -0.064950 0.251362
vt 2.770348 2.272688
v -17298.949219 140.156937 -14437.438477
vn -0.745604 -0.145844 0.650234
vt 3.022178 2.274716
v -17284.886719 188.472000 -14447.907227
vn -0.589429 0.678728 0.438066
vt 3.012869 2.180531
v -17335.507813 188.472015 -14642.131836
vn -0.564223 0.812421 0.147056
vt 2.768309 2.178572
v -17243.523438 140.156906 -15241.539063
vn -0.708853 0.027209 -0.704831
vt 2.951619 2.261636
v -17232.328125 188.472031 -15227.436523
vn -0.250395 0.841860 -0.478095
vt 2.940111 2.167384
v -16754.515625 140.156921 -15314.920898
vn 0.263186 -0.027049 -0.964366
vt 2.348089 2.259501
v -17243.523438 140.156906 -15241.539063
vn -0.708853 0.027209 -0.704831
vt 2.951619 2.261636
v -17232.328125 188.472031 -15227.436523
vn -0.250395 0.841860 -0.478095
vt 2.940111 2.167384
v -16760.466797 188.472046 -15298.038086
vn 0.175763 0.841446 -0.510955
vt 2.357776 2.165354
v -16407.923828 188.472031 -14926.570313
vn 0.261365 0.864074 -0.430192
vt 1.747452 2.162500
v -16404.535156 140.156906 -14934.559570
vn 0.324086 -0.189384 -0.926878
vt 1.742172 2.257929
v -16754.515625 140.156921 -15314.920898
vn 0.263186 -0.027049 -0.964366
vt 2.348089 2.259501
v -16760.466797 188.472046 -15298.038086
vn 0.175763 0.841446 -0.510955
vt 2.357776 2.165354
v -16134.530273 188.472031 -14930.018555
vn -0.011090 0.780166 -0.625474
vt 1.415536 2.166920
v -16131.453125 140.156906 -14942.221680
vn -0.024431 -0.095606 -0.995119
vt 1.410018 2.261713
v -15601.545898 139.920441 -14853.204102
vn 0.766941 0.086373 -0.635879
vt 0.820867 2.269619
v -15615.405273 188.472015 -14841.731445
vn 0.411316 0.845242 -0.341153
vt 0.833398 2.175031
v -15573.829102 188.472015 -14601.377930
vn 0.714842 0.680023 0.163003
vt 0.560723 2.177348
v -15556.657227 139.920380 -14597.446289
vn 0.978444 -0.150236 0.141691
vt 0.566187 2.271597
v -16154.170898 140.156937 -14499.577148
vn -0.025985 -0.205648 0.978281
vt 0.903209 1.430537
v -15998.098633 140.156876 -14472.268555
vn -0.169777 -0.118043 0.978387
vt 1.095841 1.428329
v -16000.375977 188.471878 -14482.239258
vn -0.102798 0.765848 0.634751
vt 1.092090 1.378326
v -16154.134766 188.472000 -14506.148438
vn 0.040444 0.756939 0.652232
vt 0.902609 1.380052
v -15998.098633 140.156876 -14472.268555
vn -0.169777 -0.118043 0.978387
vt 1.095841 1.428329
v -15842.025391 140.156876 -14444.960938
vn -0.168499 -0.009453 0.985656
vt 1.288475 1.426121
v -15846.593750 188.471878 -14458.328125
vn -0.099126 0.784539 0.612105
vt 1.281601 1.376599
v -16000.375977 188.471878 -14482.239258
vn -0.102798 0.765848 0.634751
vt 1.092090 1.378326
v -16708.939453 140.156998 -14404.450195
vn 0.357376 -0.204741 0.911243
vt 0.262444 1.426426
v -16431.554688 140.156937 -14452.013672
vn 0.167899 -0.105333 0.980161
vt 0.594195 1.427058
v -16432.968750 188.472000 -14458.567383
vn 0.130695 0.631024 0.764675
vt 0.591830 1.376553
v -16711.802734 188.472000 -14410.989258
vn 0.242240 0.848282 0.470891
vt 0.262405 1.376029
v -16949.466797 140.156937 -14224.271484
vn 0.047156 0.056647 0.997280
vt -0.122043 1.426972
v -16708.939453 140.156998 -14404.450195
vn 0.357376 -0.204741 0.911243
vt 0.262444 1.426426
v -16711.802734 188.472000 -14410.989258
vn 0.242240 0.848282 0.470891
vt 0.262405 1.376029
v -16950.318359 188.472000 -14242.460938
vn 0.016525 0.852739 0.522076
vt -0.124865 1.378219
v -15685.976563 140.156876 -14417.656250
vn 0.256327 -0.155958 0.953925
vt 1.481076 1.423913
v -15692.809570 188.472000 -14434.416016
vn 0.272383 0.697960 0.662314
vt 1.471115 1.374873
v -16711.802734 188.472000 -14410.989258
vn 0.242240 0.848282 0.470891
vt -3.022019 -3.938936
v -16736.134766 188.472015 -14854.511719
vn 0.000000 1.000000 0.000000
vt -2.990279 -3.403606
v -17091.324219 188.472015 -14734.948242
vn 0.000000 1.000000 0.000000
vt -2.526936 -3.547918
v -17091.324219 188.472015 -14734.948242
vn 0.000000 1.000000 0.000000
vt -2.526936 -2.547918
v -16950.318359 188.472000 -14242.460938
vn 0.016525 0.852739 0.522076
vt -2.710876 -3.142349
v -16711.802734 188.472000 -14410.989258
vn 0.242240 0.848282 0.470891
vt -3.022019 -2.938936
v -15846.593750 188.471878 -14458.328125
vn -0.099126 0.784539 0.612105
vt -3.150688 -3.881800
v -15930.754883 188.471893 -14707.852539
vn 0.000000 1.000000 0.000000
vt -3.040899 -3.580622
v -16000.375977 188.471878 -14482.239258
vn -0.102798 0.765848 0.634751
vt -2.950079 -3.852940
v -16432.968750 188.472000 -14458.567383
vn 0.130695 0.631024 0.764675
vt -3.385759 -3.881510
v -16144.333984 188.472015 -14718.082031
vn 0.000000 1.000000 0.000000
vt -2.762286 -3.568277
v -16154.134766 188.472000 -14506.148438
vn 0.040444 0.756939 0.652232
vt -3.749500 -3.824081
v -16000.375977 188.471878 -14482.239258
vn -0.102798 0.765848 0.634751
vt -3.950079 -3.852940
v -17091.324219 188.472015 -14734.948242
vn 0.000000 1.000000 0.000000
vt -3.526936 -3.547918
v -17335.507813 188.472015 -14642.131836
vn -0.564223 0.812421 0.147056
vt -3.208395 -3.659946
v -17284.886719 188.472000 -14447.907227
vn -0.589429 0.678728 0.438066
vt -3.274431 -3.894375
v -17284.886719 188.472000 -14447.907227
vn -0.589429 0.678728 0.438066
vt -3.274431 -2.894375
v -16950.318359 188.472000 -14242.460938
vn 0.016525 0.852739 0.522076
vt -3.710876 -3.142349
v -17091.324219 188.472015 -14734.948242
vn 0.000000 1.000000 0.000000
vt -3.526936 -2.547918
v -15573.829102 188.472015 -14601.377930
vn 0.714842 0.680023 0.163003
vt -3.506512 -3.709137
v -15615.405273 188.472015 -14841.731445
vn 0.411316 0.845242 -0.341153
vt -3.452273 -3.419031
v -17232.328125 188.472031 -15227.436523
vn -0.250395 0.841860 -0.478095
vt -3.342996 -2.953487
v -17386.130859 188.472015 -14836.358398
vn -0.739440 0.671725 -0.044882
vt -3.142359 -3.425518
v -16736.134766 188.472015 -14854.511719
vn 0.000000 1.000000 0.000000
vt -3.990279 -3.403606
v -16760.466797 188.472046 -15298.038086
vn 0.175763 0.841446 -0.510955
vt -3.958540 -2.868272
v -15861.134766 188.472031 -14933.466797
vn 0.111734 0.745360 -0.657232
vt -3.131719 -3.308308
v -16134.530273 188.472031 -14930.018555
vn -0.011090 0.780166 -0.625474
vt -2.775074 -3.312469
v -16760.466797 188.472046 -15298.038086
vn 0.175763 0.841446 -0.510955
vt -2.958540 -2.868272
f 155/155/155 156/156/156 157/157/157
f 93/93/93 94/94/94 92/92/92
f 95/95/95 92/92/92 94/94/94
f 92/92/92 95/95/95 91/91/91
f 88/88/88 91/91/91 95/95/95
f 91/91/91 88/88/88 90/90/90
f 89/89/89 90/90/90 88/88/88
f 90/90/90 89/89/89 96/96/96
f 96/96/96 97/97/97 90/90/90
f 171/171/171 172/172/172 87/87/87
f 177/177/177 87/87/87 172/172/172
f 87/87/87 177/177/177 159/159/159
f 178/178/178 159/159/159 177/177/177
f 159/159/159 178/178/178 162/162/162
f 87/87/87 86/86/86 171/171/171
f 87/87/87 85/85/85 86/86/86
f 85/85/85 87/87/87 158/158/158
f 159/159/159 158/158/158 87/87/87
f 158/158/158 159/159/159 160/160/160
f 162/162/162 160/160/160 159/159/159
f 152/152/152 161/161/161 84/84/84
f 163/163/163 84/84/84 161/161/161
f 84/84/84 163/163/163 81/81/81
f 164/164/164 81/81/81 163/163/163
f 83/83/83 81/81/81 82/82/82
f 81/81/81 83/83/83 84/84/84
f 153/153/153 84/84/84 83/83/83
f 84/84/84 153/153/153 152/152/152
f 154/154/154 152/152/152 153/153/153
f 83/83/83 179/179/179 153/153/153
f 135/135/135 136/136/136 134/134/134
f 137/137/137 134/134/134 136/136/136
f 134/134/134 137/137/137 143/143/143
f 144/144/144 143/143/143 137/137/137
f 143/143/143 144/144/144 142/142/142
f 145/145/145 142/142/142 144/144/144
f 102/102/102 103/103/103 104/104/104
f 103/103/103 102/102/102 132/132/132
f 133/133/133 132/132/132 102/102/102
f 132/132/132 133/133/133 130/130/130
f 104/104/104 105/105/105 102/102/102
f 108/108/108 109/109/109 106/106/106
f 109/109/109 108/108/108 130/130/130
f 131/131/131 130/130/130 108/108/108
f 130/130/130 131/131/131 132/132/132
f 106/106/106 107/107/107 108/108/108
f 150/150/150 151/151/151 139/139/139
f 140/140/140 139/139/139 151/151/151
f 139/139/139 140/140/140 138/138/138
f 141/141/141 138/138/138 140/140/140
f 173/173/173 175/175/175 176/176/176
f 175/175/175 173/173/173 165/165/165
f 174/174/174 165/165/165 173/173/173
f 165/165/165 174/174/174 166/166/166
f 165/165/165 166/166/166 167/167/167
f 100/100/100 98/98/98 99/99/99
f 98/98/98 100/100/100 101/101/101
f 118/118/118 101/101/101 100/100/100
f 100/100/100 119/119/119 118/118/118
f 112/112/112 110/110/110 111/111/111
f 110/110/110 112/112/112 113/113/113
f 116/116/116 114/114/114 115/115/115
f 114/114/114 116/116/116 117/117/117
f 120/120/120 122/122/122 123/123/123
f 122/122/122 120/120/120 121/121/121
f 125/125/125 128/128/128 129/129/129
f 128/128/128 125/125/125 124/124/124
f 126/126/126 124/124/124 125/125/125
f 124/124/124 126/126/126 127/127/127
f 148/148/148 146/146/146 147/147/147
f 146/146/146 148/148/148 149/149/149
f 168/168/168 169/169/169 170/170/170
