mtllib CB_NEWPLAYSURFACE_CB_PLAYSURFACE117.mtl
g _playsurface117
usemtl Lvl_Cburst_rock03
v -14508.545898 -453.479736 -17002.560547
vn 0.888382 -0.153885 0.432548
vt 2.916669 1.985277
v -14530.328125 -569.132935 -17018.228516
vn 0.890921 -0.126119 0.436296
vt 2.925213 2.112383
v -14385.388672 -569.132935 -17313.896484
vn 0.890124 -0.134180 0.435516
vt 3.325418 2.107630
v -14366.891602 -453.479706 -17293.662109
vn 0.889678 -0.145477 0.432792
vt 3.310247 1.980745
v -14785.808594 -799.439331 -16418.980469
vn 0.829066 0.524926 0.192621
vt 3.130539 2.361976
v -14644.860352 -799.439331 -16709.101563
vn 0.777026 0.503709 0.377501
vt 3.522692 2.357491
v -14679.320313 -734.849182 -16724.355469
vn 0.860445 0.286938 0.421071
vt 3.525314 2.294343
v -14824.791016 -734.849182 -16427.947266
vn 0.963526 0.202393 0.175085
vt 3.124031 2.299131
v -14825.481445 -734.849243 -15942.163086
vn 0.957451 0.259222 -0.126855
vt 2.683406 2.307693
v -14785.808594 -799.439392 -15947.274414
vn 0.839325 0.523787 -0.145538
vt 2.669495 2.370733
v -14785.808594 -799.439392 -15947.274414
vn 0.839325 0.523787 -0.145538
vt 3.669495 2.370733
v -14825.481445 -734.849243 -15942.163086
vn 0.957451 0.259222 -0.126855
vt 3.683406 2.307693
v -14703.270508 -734.849243 -15478.600586
vn 0.964718 0.262552 -0.019623
vt 3.105446 2.319128
v -14663.283203 -799.439392 -15479.618164
vn 0.851596 0.522274 0.044875
vt 3.086809 2.382374
v -14850.107422 -734.849243 -14769.202148
vn 0.893362 0.343566 0.289598
vt 2.540329 2.324694
v -14815.447266 -799.439392 -14749.235352
vn 0.812407 0.518441 0.266860
vt 2.525776 2.387758
v -15271.014648 -734.849304 -14390.969727
vn 0.156735 0.252856 0.954724
vt 1.803356 2.351318
v -15256.719727 -799.439453 -14353.611328
vn 0.097442 0.522433 0.847095
vt 1.788708 2.414385
v -15100.483398 -799.439453 -14411.304688
vn 0.293550 0.505824 0.811154
vt 1.981981 2.406591
v -15121.544922 -734.849304 -14442.884766
vn 0.324563 0.199255 0.924639
vt 1.985769 2.343474
v -15678.958984 -734.849304 -14393.427734
vn -0.090805 0.349973 0.932348
vt 1.491998 2.352530
v -15682.776367 -799.439453 -14353.611328
vn -0.081146 0.526496 0.846296
vt 1.491258 2.415321
v -16154.482422 -799.439453 -14444.908203
vn -0.008585 0.526259 0.850281
vt 0.908196 2.423309
v -15997.262695 -799.439453 -14414.478516
vn -0.161774 0.522290 0.837283
vt 1.102530 2.420647
v -15995.681641 -734.849304 -14454.411133
vn -0.182870 0.257272 0.948878
vt 1.100535 2.357846
v -16154.054688 -734.849304 -14484.906250
vn -0.009418 0.260677 0.965380
vt 0.904791 2.360504
v -16687.052734 -799.439453 -14353.611328
vn 0.342364 0.523391 0.780288
vt 0.262328 2.419073
v -16420.767578 -799.439453 -14399.257813
vn 0.144547 0.517805 0.843199
vt 0.612502 2.420251
v -16428.548828 -734.849304 -14437.588867
vn 0.164006 0.255412 0.952820
vt 0.599269 2.357097
v -16703.044922 -734.849304 -14390.274414
vn 0.388434 0.261191 0.883685
vt 0.262178 2.356282
v -16956.996094 -734.849304 -14194.178711
vn 0.271690 0.216104 0.937808
vt -0.128253 2.354534
v -16945.730469 -799.439453 -14155.796875
vn 0.239071 0.532461 0.811992
vt -0.110775 2.417723
v -14846.031250 -569.132996 -14766.851563
vn 0.947208 -0.098303 0.305178
vt 2.538614 2.147477
v -14968.794922 -569.133057 -14491.771484
vn 0.667731 -0.135752 0.731920
vt 2.169026 2.158424
v -14972.073242 -734.849304 -14494.801758
vn 0.725604 0.194337 0.660100
vt 2.168188 2.335630
v -15679.407227 -569.133057 -14388.745117
vn -0.109984 -0.121070 0.986532
vt 1.491911 2.175280
v -15837.624023 -569.133057 -14419.225586
vn -0.187428 -0.135888 0.972834
vt 1.296356 2.177938
v -15837.307617 -734.849304 -14423.916992
vn -0.184730 0.216787 0.958581
vt 1.296282 2.355187
v -14533.849609 -734.849182 -17020.763672
vn 0.872126 0.238418 0.427263
vt 2.926596 2.289555
v -14388.378906 -734.849182 -17317.169922
vn 0.873664 0.231329 0.428016
vt 3.327877 2.284767
v -14948.523438 -453.479828 -14473.034180
vn 0.561226 -0.171453 0.809709
vt 2.174221 2.031112
v -15103.736328 -453.479828 -14416.214844
vn 0.335447 -0.181480 0.924414
vt 1.982589 2.038914
v -15119.065430 -569.133057 -14439.172852
vn 0.329623 -0.142581 0.933284
vt 1.985327 2.166263
v -15839.585938 -453.479828 -14390.222656
vn -0.186352 -0.187083 0.964507
vt 1.296815 2.050356
v -15996.998047 -453.479828 -14420.664063
vn -0.186791 -0.177029 0.966318
vt 1.102247 2.053018
v -15995.864258 -569.133057 -14449.713867
vn -0.187536 -0.135547 0.972860
vt 1.100775 2.180597
v -16427.634766 -569.133057 -14433.081055
vn 0.167102 -0.169270 0.971300
vt 0.600826 2.179890
v -16421.964844 -453.479828 -14405.203125
vn 0.166824 -0.162572 0.972492
vt 0.610462 2.052569
v -16689.517578 -453.479858 -14359.298828
vn 0.392839 -0.199801 0.897640
vt 0.262324 2.051446
v -16701.164063 -569.133057 -14385.960938
vn 0.400142 -0.100704 0.910903
vt 0.262195 2.179032
v -14222.011719 -399.439301 -17579.464844
vn 0.521715 0.712150 0.469740
vt 3.699157 1.917908
v -14362.960938 -399.439301 -17289.347656
vn 0.828621 0.387902 0.403633
vt 3.307007 1.922392
v -14225.237305 -453.479706 -17584.761719
vn 0.512268 -0.205204 0.833950
vt 3.703825 1.976213
v -14791.958008 -453.479767 -15946.483398
vn 0.976443 -0.187182 -0.107338
vt 2.671654 2.003068
v -14791.854492 -453.479767 -16420.357422
vn 0.945359 -0.190638 0.264489
vt 3.129516 1.994340
v -14785.808594 -399.439362 -16418.980469
vn 0.815668 0.548252 0.184676
vt 3.130539 1.935846
v -14785.808594 -399.439362 -15947.274414
vn 0.914226 0.385290 -0.125473
vt 2.669495 1.944603
v -14669.481445 -453.479797 -15479.467773
vn 0.983400 -0.166599 -0.071900
vt 3.089707 2.014677
v -14791.958008 -453.479767 -15946.483398
vn 0.976443 -0.187182 -0.107338
vt 3.671654 2.003068
v -14785.808594 -399.439362 -15947.274414
vn 0.914226 0.385290 -0.125473
vt 3.669495 1.944603
v -14663.283203 -399.439392 -15479.618164
vn 0.919089 0.394018 -0.005001
vt 3.086809 1.956244
v -14820.816406 -453.479828 -14752.334961
vn 0.936194 -0.172623 0.306173
vt 2.528039 2.020089
v -14815.447266 -399.439423 -14749.235352
vn 0.880358 0.386266 0.275262
vt 2.525776 1.961628
v -14944.201172 -399.439423 -14469.040039
vn 0.714839 0.386967 0.582462
vt 2.175328 1.972666
v -15682.776367 -399.439453 -14353.611328
vn -0.059557 0.388109 0.919687
vt 1.491258 1.989191
v -15682.197266 -453.479858 -14359.784180
vn -0.095368 -0.176891 0.979599
vt 1.491357 2.047694
v -15258.947266 -453.479858 -14359.395508
vn 0.172534 -0.154580 0.972799
vt 1.790961 2.046716
v -15256.719727 -399.439453 -14353.611328
vn 0.179806 0.386271 0.904690
vt 1.788708 1.988255
v -15840.007813 -399.439423 -14384.041992
vn -0.174730 0.390640 0.903809
vt 1.296909 1.991854
v -16420.767578 -399.439423 -14399.257813
vn 0.155765 0.387802 0.908486
vt 0.612502 1.994121
v -16154.411133 -453.479828 -14451.108398
vn 0.049453 -0.178709 0.982658
vt 0.907675 2.055680
v -16154.482422 -399.439423 -14444.908203
vn -0.044153 0.391875 0.918958
vt 0.908196 1.997179
v -16947.470703 -453.479858 -14161.748047
vn 0.155265 -0.158546 0.975067
vt -0.113478 2.050035
v -16687.052734 -399.439453 -14353.611328
vn 0.341768 0.392273 0.854000
vt 0.262328 1.992943
v -16945.730469 -399.439453 -14155.792969
vn 0.219768 0.617783 0.755014
vt -0.110775 1.991593
v -15840.019531 -799.439453 -14384.044922
vn -0.161600 0.523777 0.836387
vt 1.296894 2.417984
v -16154.104492 -569.133057 -14480.202148
vn -0.035285 -0.121615 0.991950
vt 0.905192 2.183256
v -15997.250977 -399.439423 -14414.476563
vn -0.174782 0.389970 0.904088
vt 1.102545 1.994516
v -14944.222656 -799.439453 -14469.018555
vn 0.575502 0.523241 0.628503
vt 2.175291 2.398796
v -15269.333008 -569.133057 -14386.575195
vn 0.189719 -0.148867 0.970487
vt 1.801633 2.174101
v -15100.460938 -399.439423 -14411.325195
vn 0.317611 0.377421 0.869872
vt 1.982017 1.980461
v -14503.911133 -799.439331 -16999.224609
vn 0.781083 0.494902 0.380763
vt 3.914849 2.353007
v -14533.849609 -734.849182 -17020.763672
vn 0.872126 0.238418 0.427263
vt 3.926596 2.289555
v -14222.011719 -799.439270 -17579.466797
vn 0.442635 0.536045 0.718839
vt 3.699156 2.344038
v -14242.907227 -734.849121 -17613.574219
vn 0.516476 0.217318 0.828267
vt 3.729157 2.279979
v -14362.960938 -799.439331 -17289.347656
vn 0.787860 0.481423 0.384068
vt 3.307004 2.348523
v -14503.911133 -399.439331 -16999.224609
vn 0.826964 0.393116 0.401983
vt 2.914849 1.926877
v -14650.200195 -453.479736 -16711.458984
vn 0.886162 -0.168570 0.431626
vt 3.523091 1.989809
v -14644.860352 -399.439331 -16709.101563
vn 0.826557 0.394035 0.401919
vt 3.522692 1.931361
v -14503.911133 -799.439331 -16999.224609
vn 0.781083 0.494902 0.380763
vt 2.914849 2.353007
v -14508.545898 -453.479736 -17002.560547
vn 0.888382 -0.153885 0.432548
vt 3.916669 1.985277
v -14503.911133 -399.439331 -16999.224609
vn 0.826964 0.393116 0.401983
vt 3.914849 1.926877
v -14675.266602 -569.132935 -16722.560547
vn 0.890422 -0.130410 0.436052
vt 3.525006 2.117136
v -14820.206055 -569.132935 -16426.892578
vn 0.964499 -0.137606 0.225403
vt 3.124799 2.121888
v -14820.814453 -569.132996 -15942.764648
vn 0.988204 -0.115164 -0.100946
vt 2.681770 2.130473
v -14820.814453 -569.132996 -15942.764648
vn 0.988204 -0.115164 -0.100946
vt 3.681770 2.130473
v -14698.566406 -569.132996 -15478.720703
vn 0.986522 -0.152344 -0.059705
vt 3.103254 2.141932
v -16955.669922 -569.133057 -14189.664063
vn 0.277833 -0.177338 0.944119
vt -0.126196 2.177331
v -14530.328125 -569.132935 -17018.228516
vn 0.890921 -0.126119 0.436296
vt 3.925213 2.112383
v -14240.450195 -569.132874 -17609.562500
vn 0.519986 -0.119590 0.845762
vt 3.725627 2.102878
f 56/56/56 57/57/57 54/54/54
f 54/54/54 55/55/55 56/56/56
f 55/55/55 54/54/54 94/94/94
f 95/95/95 94/94/94 54/54/54
f 94/94/94 95/95/95 8/8/8
f 9/9/9 8/8/8 95/95/95
f 89/89/89 56/56/56 88/88/88
f 55/55/55 88/88/88 56/56/56
f 88/88/88 55/55/55 93/93/93
f 94/94/94 93/93/93 55/55/55
f 93/93/93 94/94/94 7/7/7
f 8/8/8 7/7/7 94/94/94
f 7/7/7 8/8/8 5/5/5
f 9/9/9 5/5/5 8/8/8
f 5/5/5 9/9/9 10/10/10
f 5/5/5 6/6/6 7/7/7
f 92/92/92 89/89/89 91/91/91
f 88/88/88 91/91/91 89/89/89
f 91/91/91 88/88/88 99/99/99
f 93/93/93 99/99/99 88/88/88
f 99/99/99 93/93/93 83/83/83
f 7/7/7 83/83/83 93/93/93
f 83/83/83 7/7/7 82/82/82
f 6/6/6 82/82/82 7/7/7
f 76/76/76 22/22/22 21/21/21
f 18/18/18 21/21/21 22/22/22
f 21/21/21 18/18/18 17/17/17
f 19/19/19 17/17/17 18/18/18
f 17/17/17 19/19/19 20/20/20
f 79/79/79 20/20/20 19/19/19
f 20/20/20 79/79/79 35/35/35
f 15/15/15 35/35/35 79/79/79
f 35/35/35 15/15/15 33/33/33
f 13/13/13 33/33/33 15/15/15
f 33/33/33 13/13/13 97/97/97
f 12/12/12 97/97/97 13/13/13
f 97/97/97 12/12/12 96/96/96
f 97/97/97 96/96/96 59/59/59
f 13/13/13 11/11/11 12/12/12
f 11/11/11 13/13/13 14/14/14
f 15/15/15 14/14/14 13/13/13
f 14/14/14 15/15/15 16/16/16
f 79/79/79 16/16/16 15/15/15
f 58/58/58 59/59/59 60/60/60
f 59/59/59 58/58/58 97/97/97
f 62/62/62 97/97/97 58/58/58
f 97/97/97 62/62/62 33/33/33
f 34/34/34 33/33/33 62/62/62
f 33/33/33 34/34/34 35/35/35
f 20/20/20 35/35/35 34/34/34
f 63/63/63 62/62/62 61/61/61
f 58/58/58 61/61/61 62/62/62
f 61/61/61 58/58/58 60/60/60
f 24/24/24 76/76/76 38/38/38
f 21/21/21 38/38/38 76/76/76
f 38/38/38 21/21/21 36/36/36
f 17/17/17 36/36/36 21/21/21
f 36/36/36 17/17/17 80/80/80
f 20/20/20 80/80/80 17/17/17
f 80/80/80 20/20/20 43/43/43
f 34/34/34 43/43/43 20/20/20
f 43/43/43 34/34/34 41/41/41
f 62/62/62 41/41/41 34/34/34
f 41/41/41 62/62/62 64/64/64
f 63/63/63 64/64/64 62/62/62
f 64/64/64 81/81/81 41/41/41
f 42/42/42 41/41/41 81/81/81
f 41/41/41 42/42/42 43/43/43
f 42/42/42 80/80/80 43/43/43
f 80/80/80 42/42/42 67/67/67
f 81/81/81 67/67/67 42/42/42
f 67/67/67 81/81/81 68/68/68
f 36/36/36 80/80/80 66/66/66
f 67/67/67 66/66/66 80/80/80
f 66/66/66 67/67/67 65/65/65
f 68/68/68 65/65/65 67/67/67
f 25/25/25 24/24/24 38/38/38
f 24/24/24 25/25/25 23/23/23
f 26/26/26 23/23/23 25/25/25
f 65/65/65 69/69/69 66/66/66
f 44/44/44 66/66/66 69/69/69
f 66/66/66 44/44/44 36/36/36
f 37/37/37 36/36/36 44/44/44
f 36/36/36 37/37/37 38/38/38
f 46/46/46 38/38/38 37/37/37
f 38/38/38 46/46/46 25/25/25
f 77/77/77 25/25/25 46/46/46
f 25/25/25 77/77/77 26/26/26
f 29/29/29 26/26/26 77/77/77
f 26/26/26 29/29/29 23/23/23
f 28/28/28 23/23/23 29/29/29
f 37/37/37 44/44/44 46/46/46
f 45/45/45 46/46/46 44/44/44
f 46/46/46 45/45/45 77/77/77
f 71/71/71 77/77/77 45/45/45
f 77/77/77 71/71/71 47/47/47
f 48/48/48 47/47/47 71/71/71
f 47/47/47 48/48/48 49/49/49
f 50/50/50 49/49/49 98/98/98
f 49/49/49 50/50/50 47/47/47
f 29/29/29 47/47/47 50/50/50
f 47/47/47 29/29/29 77/77/77
f 78/78/78 44/44/44 69/69/69
f 44/44/44 78/78/78 45/45/45
f 72/72/72 45/45/45 78/78/78
f 45/45/45 72/72/72 71/71/71
f 70/70/70 71/71/71 72/72/72
f 71/71/71 70/70/70 48/48/48
f 74/74/74 48/48/48 70/70/70
f 48/48/48 74/74/74 49/49/49
f 73/73/73 49/49/49 74/74/74
f 49/49/49 73/73/73 98/98/98
f 74/74/74 75/75/75 73/73/73
f 29/29/29 27/27/27 28/28/28
f 27/27/27 29/29/29 30/30/30
f 50/50/50 30/30/30 29/29/29
f 30/30/30 50/50/50 31/31/31
f 98/98/98 31/31/31 50/50/50
f 31/31/31 27/27/27 30/30/30
f 27/27/27 31/31/31 32/32/32
f 3/3/3 100/100/100 53/53/53
f 100/100/100 3/3/3 85/85/85
f 40/40/40 85/85/85 3/3/3
f 85/85/85 40/40/40 84/84/84
f 86/86/86 84/84/84 40/40/40
f 53/53/53 4/4/4 3/3/3
f 4/4/4 53/53/53 51/51/51
f 90/90/90 86/86/86 39/39/39
f 40/40/40 39/39/39 86/86/86
f 39/39/39 40/40/40 2/2/2
f 3/3/3 2/2/2 40/40/40
f 2/2/2 3/3/3 1/1/1
f 4/4/4 1/1/1 3/3/3
f 1/1/1 4/4/4 52/52/52
f 51/51/51 52/52/52 4/4/4
f 52/52/52 87/87/87 1/1/1
