mtllib CB_NEWPLAYSURFACE_CB_PLAYSURFACE94.mtl
g B_playsurface94
usemtl Lvl_Cburst_rock03
v -14353.501953 -799.439575 -11045.369141
vn -0.863906 0.447335 0.231427
vt 3.558686 3.224456
v -14321.295898 -734.849426 -11021.646484
vn -0.953779 0.177129 0.242758
vt 3.524923 2.996139
v -14465.954102 -734.849426 -11589.998047
vn -0.959322 0.195547 0.203623
vt 2.916560 2.999546
v -14505.116211 -799.439575 -11581.852539
vn -0.852846 0.497185 0.159566
vt 2.913460 3.226205
v -14505.116211 -799.439575 -11581.852539
vn -0.852846 0.497185 0.159566
vt 3.913460 3.226205
v -14465.954102 -734.849426 -11589.998047
vn -0.959322 0.195547 0.203623
vt 3.916560 2.999546
v -14564.050781 -734.849365 -12249.480469
vn -0.809597 0.288925 -0.510955
vt 3.108403 3.011649
v -14598.417969 -799.439514 -12269.948242
vn -0.587958 0.542962 -0.599581
vt 3.073172 3.240147
v -14144.878906 -734.849365 -12399.832031
vn -0.531578 0.245011 -0.810799
vt 2.507108 3.013859
v -14166.899414 -799.439514 -12433.225586
vn -0.518908 0.527590 -0.672595
vt 2.485706 3.241115
v -14166.899414 -799.439514 -12433.225586
vn -0.518908 0.527590 -0.672595
vt 3.485706 3.241115
v -14144.878906 -734.849365 -12399.832031
vn -0.531578 0.245011 -0.810799
vt 3.507108 3.013859
v -13831.598633 -734.849365 -12724.213867
vn -0.776122 0.259211 -0.574843
vt 2.954032 3.020221
v -13863.670898 -799.439514 -12748.117188
vn -0.703193 0.525329 -0.479112
vt 2.948853 3.246902
v -13863.670898 -799.439514 -12748.117188
vn -0.703193 0.525329 -0.479112
vt 3.948853 3.246902
v -13831.598633 -734.849365 -12724.213867
vn -0.776122 0.259211 -0.574843
vt 3.954032 3.020221
v -13522.794922 -734.849365 -13271.086914
vn -0.883322 0.318453 -0.343992
vt 3.255011 3.025736
v -13560.443359 -799.439514 -13284.598633
vn -0.826522 0.509424 -0.239476
vt 3.283971 3.253556
v -13459.953125 -734.849304 -13655.266602
vn -0.787363 0.231565 -0.571346
vt 2.846486 3.027791
v -13490.466797 -799.439453 -13681.128906
vn -0.526875 0.537657 -0.658276
vt 2.859805 3.254666
v -13490.466797 -799.439453 -13681.128906
vn -0.526875 0.537657 -0.658276
vt 3.859805 3.254666
v -13459.953125 -734.849304 -13655.266602
vn -0.787363 0.231565 -0.571346
vt 3.846486 3.027791
v -13076.450195 -734.849304 -13785.107422
vn -0.422215 0.250107 -0.871310
vt 3.369372 3.043749
v -13093.936523 -799.439453 -13821.082031
vn -0.401423 0.524281 -0.750992
vt 3.362602 3.270454
v -12487.478516 -799.439453 -14205.949219
vn -0.629260 0.529929 -0.568514
vt 2.485871 3.273264
v -12790.707031 -799.439453 -14013.515625
vn -0.458247 0.518267 -0.722086
vt 2.924236 3.271860
v -12767.121094 -734.849304 -13982.125000
vn -0.512739 0.296115 -0.805862
vt 2.921701 3.045094
v -12457.791016 -734.849304 -14179.142578
vn -0.763657 0.202677 -0.612985
vt 2.474030 3.046437
v -12297.440430 -734.849304 -14498.059570
vn -0.928633 0.259193 -0.265444
vt 2.051830 3.044470
v -12335.864258 -799.439453 -14509.177734
vn -0.828639 0.527906 -0.186206
vt 2.083206 3.272524
v -12249.352539 -734.849243 -14972.357422
vn -0.962804 0.259100 -0.076657
vt 1.559015 3.046505
v -12289.214844 -799.439392 -14975.683594
vn -0.850712 0.521049 -0.069259
vt 1.597156 3.275411
v -12482.875977 -453.479858 -14201.795898
vn -0.691217 -0.192873 -0.696433
vt 2.484033 3.741753
v -12461.283203 -569.133057 -14182.294922
vn -0.734213 -0.137943 -0.664758
vt 2.475423 3.869209
v -12769.895508 -569.133057 -13985.815430
vn -0.532092 -0.133672 -0.836068
vt 2.922001 3.867858
v -12787.039063 -453.479858 -14008.656250
vn -0.527806 -0.175986 -0.830933
vt 2.923826 3.740358
v -14499.053711 -453.479950 -11583.150391
vn -0.965569 -0.163732 0.202157
vt 2.913898 3.694720
v -14348.504883 -453.479980 -11041.699219
vn -0.953099 -0.157431 0.258492
vt 3.553445 3.692713
v -14353.501953 -399.439575 -11045.369141
vn -0.958778 -0.092251 0.268766
vt 3.558687 3.634469
v -14505.116211 -399.439545 -11581.852539
vn -0.865942 0.469859 0.171396
vt 2.913460 3.636218
v -14593.084961 -453.479950 -12266.786133
vn -0.846895 -0.167513 -0.504686
vt 3.078622 3.708378
v -14499.053711 -453.479950 -11583.150391
vn -0.965569 -0.163732 0.202157
vt 3.913898 3.694720
v -14505.116211 -399.439545 -11581.852539
vn -0.865942 0.469859 0.171396
vt 3.913460 3.636218
v -14598.417969 -399.439545 -12269.948242
vn -0.768757 0.506272 -0.390770
vt 3.073172 3.650160
v -14166.899414 -399.439514 -12433.225586
vn -0.460165 0.485598 -0.743265
vt 2.485706 3.651128
v -14163.447266 -453.479919 -12428.075195
vn -0.536717 -0.193909 -0.821178
vt 2.488973 3.709540
v -13858.698242 -453.479919 -12744.414063
vn -0.775315 -0.165952 -0.609382
vt 2.949652 3.715413
v -14163.447266 -453.479919 -12428.075195
vn -0.536717 -0.193909 -0.821178
vt 3.488973 3.709540
v -14166.899414 -399.439514 -12433.225586
vn -0.460165 0.485598 -0.743265
vt 3.485706 3.651128
v -13863.670898 -399.439514 -12748.117188
vn -0.705202 0.495819 -0.506807
vt 2.948853 3.656915
v -13554.619141 -453.479889 -13282.473633
vn -0.917321 -0.184779 -0.352674
vt 3.279515 3.721894
v -13858.698242 -453.479919 -12744.414063
vn -0.775315 -0.165952 -0.609382
vt 3.949652 3.715413
v -13863.670898 -399.439514 -12748.117188
vn -0.705202 0.495819 -0.506807
vt 3.948853 3.656915
v -13560.443359 -399.439484 -13284.598633
vn -0.822550 0.499157 -0.272497
vt 3.283971 3.663569
v -13485.736328 -453.479858 -13677.120117
vn -0.752620 -0.163190 -0.637912
vt 2.857740 3.723147
v -13490.466797 -399.439453 -13681.128906
vn -0.688751 0.501812 -0.523266
vt 2.859805 3.664679
v -13093.936523 -399.439453 -13821.082031
vn -0.357472 0.492146 -0.793729
vt 3.362602 3.680468
v -13091.200195 -453.479858 -13815.518555
vn -0.428599 -0.173930 -0.886595
vt 3.363616 3.738963
v -13485.736328 -453.479858 -13677.120117
vn -0.752620 -0.163190 -0.637912
vt 3.857740 3.723147
v -13490.466797 -399.439453 -13681.128906
vn -0.688751 0.501812 -0.523266
vt 3.859805 3.664679
v -12790.708008 -399.439453 -14013.515625
vn -0.466006 0.493732 -0.734212
vt 2.924237 3.681873
v -12329.906250 -453.479828 -14507.464844
vn -0.935628 -0.188181 -0.298643
vt 2.078334 3.740821
v -12487.478516 -399.439453 -14205.949219
vn -0.628740 0.496492 -0.598484
vt 2.485871 3.683278
v -12335.864258 -399.439423 -14509.177734
vn -0.840189 0.495441 -0.220499
vt 2.083206 3.682537
v -12283.038086 -453.479828 -14975.151367
vn -0.984326 -0.156264 -0.081757
vt 1.591258 3.743579
v -12289.214844 -399.439423 -14975.683594
vn -0.569076 0.805244 -0.166535
vt 1.597156 3.685424
v -14465.954102 -734.849426 -11589.998047
vn -0.959322 0.195547 0.203623
vt 2.916560 3.999546
v -14321.295898 -734.849426 -11021.646484
vn -0.953779 0.177129 0.242758
vt 3.524923 3.996139
v -14325.083984 -569.133179 -11024.438477
vn -0.966382 -0.067885 0.247986
vt 3.528893 3.819085
v -14470.561523 -569.133179 -11589.040039
vn -0.967526 -0.141007 0.209788
vt 2.916195 3.822297
v -14465.954102 -734.849426 -11589.998047
vn -0.959322 0.195547 0.203623
vt 3.916560 3.999546
v -14470.561523 -569.133179 -11589.040039
vn -0.967526 -0.141007 0.209788
vt 3.916195 3.822297
v -14568.093750 -569.133118 -12251.889648
vn -0.899131 -0.171507 -0.402677
vt 3.104257 3.834617
v -14568.093750 -569.133118 -12251.889648
vn -0.899131 -0.171507 -0.402677
vt 3.104257 2.834617
v -14147.468750 -569.133118 -12403.760742
vn -0.499947 -0.114071 -0.858511
vt 2.504590 2.836681
v -14147.468750 -569.133118 -12403.760742
vn -0.499947 -0.114071 -0.858511
vt 3.504590 2.836681
v -13835.372070 -569.133118 -12727.024414
vn -0.781217 -0.151627 -0.605565
vt 2.953424 2.842975
v -13835.372070 -569.133118 -12727.024414
vn -0.781217 -0.151627 -0.605565
vt 3.953424 2.842975
v -13527.221680 -569.133118 -13272.676758
vn -0.938468 -0.100248 -0.330496
vt 3.258416 2.848624
v -13463.541016 -569.133057 -13658.309570
vn -0.749609 -0.185292 -0.635415
vt 2.848050 2.850568
v -13463.541016 -569.133057 -13658.309570
vn -0.749609 -0.185292 -0.635415
vt 3.848050 2.850568
v -13078.507813 -569.133057 -13789.338867
vn -0.427747 -0.135818 -0.893636
vt 3.368575 2.866506
v -12769.895508 -569.133057 -13985.815430
vn -0.532092 -0.133672 -0.836068
vt 2.922001 2.867858
v -12461.283203 -569.133057 -14182.294922
vn -0.734213 -0.137943 -0.664758
vt 2.475423 2.869209
v -12301.959961 -569.133057 -14499.368164
vn -0.942733 -0.115134 -0.313047
vt 2.055521 2.867386
v -12254.041992 -569.132996 -14972.750000
vn -0.985345 -0.146904 -0.086692
vt 1.563501 2.869520
v -14147.468750 -569.133118 -12403.760742
vn -0.499947 -0.114071 -0.858511
vt 2.504590 3.836681
v -13835.372070 -569.133118 -12727.024414
vn -0.781217 -0.151627 -0.605565
vt 2.953424 3.842975
v -14147.468750 -569.133118 -12403.760742
vn -0.499947 -0.114071 -0.858511
vt 3.504590 3.836681
v -13835.372070 -569.133118 -12727.024414
vn -0.781217 -0.151627 -0.605565
vt 3.953424 3.842975
v -13527.221680 -569.133118 -13272.676758
vn -0.938468 -0.100248 -0.330496
vt 3.258416 3.848624
v -13463.541016 -569.133057 -13658.309570
vn -0.749609 -0.185292 -0.635415
vt 2.848050 3.850568
v -13463.541016 -569.133057 -13658.309570
vn -0.749609 -0.185292 -0.635415
vt 3.848050 3.850568
v -13078.507813 -569.133057 -13789.338867
vn -0.427747 -0.135818 -0.893636
vt 3.368575 3.866506
v -12301.959961 -569.133057 -14499.368164
vn -0.942733 -0.115134 -0.313047
vt 2.055521 3.867386
v -12254.041992 -569.132996 -14972.750000
vn -0.985345 -0.146904 -0.086692
vt 1.563501 3.869520
f 3/3/3 1/1/1 2/2/2
f 1/1/1 3/3/3 4/4/4
f 82/82/82 22/22/22 81/81/81
f 22/22/22 82/82/82 23/23/23
f 83/83/83 23/23/23 82/82/82
f 23/23/23 83/83/83 27/27/27
f 84/84/84 27/27/27 83/83/83
f 27/27/27 84/84/84 28/28/28
f 85/85/85 28/28/28 84/84/84
f 28/28/28 85/85/85 29/29/29
f 86/86/86 29/29/29 85/85/85
f 29/29/29 86/86/86 31/31/31
f 27/27/27 28/28/28 25/25/25
f 29/29/29 25/25/25 28/28/28
f 25/25/25 29/29/29 30/30/30
f 31/31/31 30/30/30 29/29/29
f 30/30/30 31/31/31 32/32/32
f 23/23/23 21/21/21 22/22/22
f 21/21/21 23/23/23 24/24/24
f 27/27/27 24/24/24 23/23/23
f 24/24/24 27/27/27 26/26/26
f 25/25/25 26/26/26 27/27/27
f 96/96/96 95/95/95 62/62/62
f 34/34/34 62/62/62 95/95/95
f 62/62/62 34/34/34 33/33/33
f 35/35/35 33/33/33 34/34/34
f 33/33/33 35/35/35 36/36/36
f 94/94/94 36/36/36 35/35/35
f 36/36/36 94/94/94 58/58/58
f 93/93/93 58/58/58 94/94/94
f 58/58/58 93/93/93 59/59/59
f 62/62/62 33/33/33 63/63/63
f 36/36/36 63/63/63 33/33/33
f 63/63/63 36/36/36 61/61/61
f 58/58/58 61/61/61 36/36/36
f 61/61/61 58/58/58 57/57/57
f 59/59/59 57/57/57 58/58/58
f 57/57/57 59/59/59 60/60/60
f 63/63/63 64/64/64 62/62/62
f 65/65/65 62/62/62 64/64/64
f 62/62/62 65/65/65 96/96/96
f 64/64/64 66/66/66 65/65/65
f 87/87/87 73/73/73 46/46/46
f 41/41/41 46/46/46 73/73/73
f 46/46/46 41/41/41 45/45/45
f 44/44/44 45/45/45 41/41/41
f 71/71/71 72/72/72 73/73/73
f 42/42/42 73/73/73 72/72/72
f 73/73/73 42/42/42 41/41/41
f 43/43/43 41/41/41 42/42/42
f 41/41/41 43/43/43 44/44/44
f 69/69/69 67/67/67 68/68/68
f 67/67/67 69/69/69 70/70/70
f 38/38/38 70/70/70 69/69/69
f 70/70/70 38/38/38 37/37/37
f 39/39/39 37/37/37 38/38/38
f 37/37/37 39/39/39 40/40/40
f 90/90/90 52/52/52 51/51/51
f 53/53/53 51/51/51 52/52/52
f 51/51/51 53/53/53 54/54/54
f 51/51/51 91/91/91 90/90/90
f 51/51/51 92/92/92 91/91/91
f 92/92/92 51/51/51 55/55/55
f 54/54/54 55/55/55 51/51/51
f 55/55/55 54/54/54 56/56/56
f 20/20/20 18/18/18 19/19/19
f 17/17/17 19/19/19 18/18/18
f 19/19/19 17/17/17 79/79/79
f 16/16/16 79/79/79 17/17/17
f 79/79/79 16/16/16 78/78/78
f 17/17/17 15/15/15 16/16/16
f 15/15/15 17/17/17 18/18/18
f 79/79/79 80/80/80 19/19/19
f 7/7/7 8/8/8 5/5/5
f 8/8/8 7/7/7 9/9/9
f 75/75/75 9/9/9 7/7/7
f 9/9/9 10/10/10 8/8/8
f 5/5/5 6/6/6 7/7/7
f 74/74/74 7/7/7 6/6/6
f 7/7/7 74/74/74 75/75/75
f 48/48/48 88/88/88 89/89/89
f 88/88/88 48/48/48 47/47/47
f 49/49/49 47/47/47 48/48/48
f 47/47/47 49/49/49 50/50/50
f 76/76/76 77/77/77 12/12/12
f 13/13/13 12/12/12 77/77/77
f 12/12/12 13/13/13 11/11/11
f 14/14/14 11/11/11 13/13/13
