mtllib CB_NEWPLAYSURFACE_CB_PLAYSURFACE28.mtl
g B_playsurface28
usemtl Lvl_Cburst_rock03
v -13309.382813 -799.439331 -16751.638672
vn -0.762880 0.505105 0.403589
vt -0.693672 3.442554
v -13212.465820 -799.439331 -16569.919922
vn -0.521717 0.526506 0.671269
vt -0.448471 3.435679
v -13187.918945 -734.849182 -16601.503906
vn -0.591838 0.268626 0.759979
vt -0.458003 3.372773
v -13399.354492 -569.132935 -17297.191406
vn -0.876244 -0.119456 0.466825
vt -1.274857 3.210484
v -13395.199219 -734.849182 -17299.398438
vn -0.845292 0.268234 0.462095
vt -1.273574 3.387716
v -13367.854492 -734.849182 -16944.404297
vn -0.929476 0.258498 0.263160
vt -0.918341 3.386080
v -13208.665039 -453.479736 -16574.818359
vn -0.605891 -0.159447 0.779405
vt -0.449953 3.068034
v -13212.465820 -399.439331 -16569.919922
vn -0.609666 -0.113960 0.784424
vt -0.448471 3.009549
v -13309.381836 -399.439331 -16751.638672
vn -0.877482 -0.106568 0.467620
vt -0.693671 3.016424
v -13304.502930 -453.479736 -16754.941406
vn -0.869091 -0.179253 0.461031
vt -0.692819 3.074875
v -13281.591797 -569.132935 -16770.443359
vn -0.879910 -0.108970 0.462476
vt -0.688817 3.202216
v -13190.806641 -569.132935 -16597.789063
vn -0.604485 -0.177047 0.776693
vt -0.456882 3.195537
v -13277.886719 -734.849182 -16772.953125
vn -0.868791 0.192835 0.456089
vt -0.688172 3.379426
v -13372.375977 -569.132935 -16943.101563
vn -0.941751 -0.148948 0.301529
vt -0.920754 3.208896
v -13400.340820 -453.479736 -16935.064453
vn -0.958805 -0.164763 0.231401
vt -0.935686 3.081715
v -13425.045898 -453.479706 -17283.537109
vn -0.863913 -0.205324 0.459888
vt -1.282788 3.083008
v -12781.414063 -453.479736 -16470.351563
vn -0.472692 -0.198814 0.858508
vt -0.017720 3.076125
v -12767.366211 -569.132935 -16495.828125
vn -0.479061 -0.100596 0.871998
vt -0.030010 3.203441
v -12765.093750 -734.849182 -16499.949219
vn -0.464611 0.261430 0.846044
vt -0.031997 3.380647
v -12640.214844 -734.849182 -16379.169922
vn -0.672518 0.252549 0.695657
vt 0.179304 3.382955
v -12643.402344 -569.132935 -16375.957031
vn -0.685244 -0.166951 0.708921
vt 0.179721 3.205735
v -12663.105469 -453.479767 -16356.085938
vn -0.686603 -0.151947 0.710977
vt 0.182315 3.078328
v -12667.311523 -399.439362 -16351.856445
vn -0.427085 0.788625 0.442345
vt 0.182857 3.019862
v -12784.418945 -399.439362 -16464.925781
vn -0.477779 0.145838 0.866290
vt -0.015114 3.017678
v -13406.298828 -399.439331 -16933.355469
vn -0.933255 -0.112424 0.341168
vt -0.938872 3.023298
v -13430.528320 -399.439301 -17280.638672
vn -0.674379 0.672936 0.303924
vt -1.284495 3.024529
v -13430.527344 -799.439331 -17280.638672
vn -0.749581 0.530088 0.396403
vt -1.284495 3.450659
v -13406.298828 -799.439331 -16933.355469
vn -0.837053 0.517082 0.178798
vt -0.938872 3.449428
v -12784.417969 -799.439331 -16464.925781
vn -0.410974 0.520887 0.748182
vt -0.015114 3.443808
v -12667.311523 -799.439331 -16351.856445
vn -0.596766 0.511714 0.618077
vt 0.182857 3.445992
f 29/29/29 30/30/30 20/20/20
f 23/23/23 24/24/24 22/22/22
f 17/17/17 22/22/22 24/24/24
f 22/22/22 17/17/17 21/21/21
f 18/18/18 21/21/21 17/17/17
f 21/21/21 18/18/18 20/20/20
f 19/19/19 20/20/20 18/18/18
f 20/20/20 19/19/19 29/29/29
f 3/3/3 29/29/29 19/19/19
f 29/29/29 3/3/3 2/2/2
f 1/1/1 2/2/2 3/3/3
f 7/7/7 24/24/24 8/8/8
f 24/24/24 7/7/7 17/17/17
f 12/12/12 17/17/17 7/7/7
f 17/17/17 12/12/12 18/18/18
f 3/3/3 18/18/18 12/12/12
f 18/18/18 3/3/3 19/19/19
f 28/28/28 5/5/5 27/27/27
f 5/5/5 28/28/28 6/6/6
f 1/1/1 6/6/6 28/28/28
f 6/6/6 1/1/1 13/13/13
f 3/3/3 13/13/13 1/1/1
f 13/13/13 3/3/3 11/11/11
f 12/12/12 11/11/11 3/3/3
f 11/11/11 12/12/12 10/10/10
f 7/7/7 10/10/10 12/12/12
f 10/10/10 7/7/7 9/9/9
f 8/8/8 9/9/9 7/7/7
f 6/6/6 4/4/4 5/5/5
f 4/4/4 6/6/6 14/14/14
f 13/13/13 14/14/14 6/6/6
f 14/14/14 13/13/13 11/11/11
f 14/14/14 15/15/15 16/16/16
f 15/15/15 14/14/14 10/10/10
f 11/11/11 10/10/10 14/14/14
f 16/16/16 4/4/4 14/14/14
f 25/25/25 10/10/10 9/9/9
f 10/10/10 25/25/25 15/15/15
f 26/26/26 15/15/15 25/25/25
f 15/15/15 26/26/26 16/16/16
usemtl Lvl_Cburst_ground04a
v -11906.427734 -399.439301 -17482.328125
vn 0.000000 1.000000 0.000000
vt -3.290646 -3.231848
v -11798.416992 -399.439301 -17584.138672
vn 0.000000 1.000000 0.000000
vt -3.431545 -3.108963
v -11906.423828 -399.439301 -17766.636719
vn -0.120390 0.946478 0.299477
vt -3.290651 -2.888689
v -13394.727539 -399.439301 -17739.652344
vn 0.000000 1.000000 0.000000
vt -3.349155 -2.921259
v -13430.528320 -399.439301 -17280.638672
vn -0.674379 0.672936 0.303924
vt -3.302453 -3.475285
v -13187.614258 -399.439301 -17741.089844
vn -0.038889 0.998552 -0.037173
vt -3.619335 -2.919523
v -13187.614258 -399.439301 -17741.089844
vn -0.038889 0.998552 -0.037173
vt -3.619335 -3.919523
v -13165.256836 -399.439270 -17984.777344
vn 0.000000 1.000000 0.000000
vt -3.648499 -3.625394
v -13394.727539 -399.439301 -17739.652344
vn 0.000000 1.000000 0.000000
vt -3.349155 -3.921259
v -12022.367188 -399.439301 -17761.890625
vn 0.000000 1.000000 0.000000
vt -3.139402 -2.894419
v -11027.468750 -399.439301 -17781.531250
vn 0.000000 1.000000 0.000000
vt -3.437250 -3.870712
v -11042.364258 -399.439270 -18042.240234
vn 0.000000 1.000000 0.000000
vt -3.417818 -3.556037
v -11273.276367 -399.439270 -17919.335938
vn 0.000000 1.000000 0.000000
vt -3.116592 -3.704381
v -11256.518555 -399.439301 -17731.251953
vn 0.000000 1.000000 0.000000
vt -3.138454 -3.931398
v -13142.916992 -399.439270 -18228.460938
vn 0.000000 1.000000 0.000000
vt -3.677642 -3.331269
v -12902.698242 -399.439270 -18036.917969
vn 0.000000 1.000000 0.000000
vt -3.991009 -3.562462
v -11504.190430 -399.439301 -17796.429688
vn 0.089673 0.946479 0.310059
vt -2.815365 -3.852730
v -11504.190430 -399.439301 -17796.429688
vn 0.089673 0.946479 0.310059
vt -3.815365 -2.852730
v -11705.307617 -399.439301 -17781.531250
vn 0.000000 1.000000 0.000000
vt -3.553009 -2.870710
v -11641.993164 -399.439301 -17632.556641
vn 0.000000 1.000000 0.000000
vt -3.635601 -3.050525
v -11485.568359 -399.439301 -17680.972656
vn 0.000000 1.000000 0.000000
vt -3.839659 -2.992085
v -12138.309570 -399.439301 -17757.144531
vn 0.000000 1.000000 0.000000
vt -2.988155 -2.900146
v -12026.090820 -399.439301 -17451.167969
vn 0.000000 1.000000 0.000000
vt -3.134544 -3.269459
v -12396.180664 -399.439331 -16661.015625
vn 0.022943 0.993470 0.111762
vt -3.651764 -3.223166
v -12270.880859 -399.439331 -16522.843750
vn 0.000000 1.000000 0.000000
vt -3.815214 -3.389940
v -12150.372070 -399.439331 -16558.330078
vn 0.000000 1.000000 0.000000
vt -3.972420 -3.347107
v -12290.035156 -399.439331 -16683.363281
vn 0.015862 0.996885 0.077251
vt -3.790230 -3.196193
v -12926.907227 -399.439270 -18258.255859
vn 0.000000 1.000000 0.000000
vt -3.959429 -3.295306
v -12926.907227 -399.439270 -18258.255859
vn 0.000000 1.000000 0.000000
vt -2.959429 -3.295306
v -12902.698242 -399.439270 -18036.917969
vn 0.000000 1.000000 0.000000
vt -2.991009 -3.562462
v -12657.819336 -399.439270 -18141.201172
vn 0.000000 1.000000 0.000000
vt -3.310453 -3.436592
v -12591.711914 -399.439270 -18429.578125
vn 0.000000 1.000000 0.000000
vt -3.396690 -3.088522
v -12483.340820 -399.439270 -18076.515625
vn 0.000000 1.000000 0.000000
vt -3.538061 -3.514667
v -12397.316406 -399.439270 -18262.966797
vn -0.325452 0.863868 0.384464
vt -3.650280 -3.289621
v -12278.377930 -399.439270 -17959.980469
vn 0.000000 1.000000 0.000000
vt -3.805435 -3.655326
v -12202.920898 -399.439270 -18096.351563
vn -0.233047 0.945769 0.226295
vt -3.903870 -3.490726
v -12138.309570 -399.439301 -17757.144531
vn 0.000000 1.000000 0.000000
vt -2.988155 -3.900146
v -12096.491211 -399.439301 -17844.320313
vn 0.000000 1.000000 0.000000
vt -3.042707 -3.794927
v -12278.377930 -399.439270 -17959.980469
vn 0.000000 1.000000 0.000000
vt -2.805435 -3.655326
v -12353.837891 -399.439301 -17823.607422
vn 0.000000 1.000000 0.000000
vt -3.706999 -3.819926
v -12138.309570 -399.439301 -17757.144531
vn 0.000000 1.000000 0.000000
vt -3.988155 -3.900146
v -11913.872070 -399.439331 -17145.187500
vn 0.108457 0.994100 0.001237
vt -3.280935 -3.638774
v -11790.489258 -399.439301 -17202.763672
vn 0.000000 1.000000 0.000000
vt -3.441887 -3.569280
v -12022.367188 -399.439301 -17761.890625
vn 0.000000 1.000000 0.000000
vt -3.139402 -3.894419
v -13165.256836 -399.439270 -17984.777344
vn 0.000000 1.000000 0.000000
vt -2.648499 -3.625394
v -13187.614258 -399.439301 -17741.089844
vn -0.038889 0.998552 -0.037173
vt -2.619335 -3.919523
v -12878.490234 -399.439301 -17815.578125
vn -0.026833 0.993270 -0.112674
vt -3.022589 -3.829617
v -12723.927734 -399.439301 -17852.822266
vn 0.000000 1.000000 0.000000
vt -3.224215 -3.784664
v -12569.365234 -399.439270 -17890.066406
vn 0.003397 0.994100 -0.108415
vt -3.425844 -3.739709
v -13358.943359 -399.439270 -18198.664063
vn 0.063842 0.886635 0.458041
vt -3.395837 -3.367233
v -12054.672852 -399.439270 -17931.492188
vn 0.000000 1.000000 0.000000
vt -3.097260 -3.689709
v -12202.920898 -399.439270 -18096.351563
vn -0.233047 0.945769 0.226295
vt -2.903870 -3.490726
v -11778.835938 -399.439331 -17132.115234
vn 0.000000 1.000000 0.000000
vt -3.457088 -3.654554
v -11906.423828 -399.439301 -17766.636719
vn -0.120390 0.946478 0.299477
vt -3.290651 -3.888689
v -11940.846680 -399.439331 -16681.462891
vn 0.000000 1.000000 0.000000
vt -3.245747 -3.198488
v -11796.500000 -399.439331 -16886.531250
vn 0.000000 1.000000 0.000000
vt -3.434048 -2.950970
v -11995.808594 -399.439331 -16936.621094
vn 0.073992 0.996845 0.028717
vt -3.174049 -2.890512
v -12077.745117 -399.439331 -16728.054688
vn 0.000000 1.000000 0.000000
vt -3.067162 -3.142252
v -11485.568359 -399.439301 -17680.972656
vn 0.000000 1.000000 0.000000
vt -2.839659 -3.992085
v -12502.326172 -399.439331 -16638.671875
vn 0.000000 1.000000 0.000000
vt -3.513294 -3.250137
v -12784.418945 -399.439362 -16464.925781
vn -0.477779 0.145838 0.866290
vt -3.145306 -3.459847
v -12667.311523 -399.439362 -16351.856445
vn -0.427085 0.788625 0.442345
vt -3.298071 -3.596319
v -11796.500000 -399.439331 -16886.531250
vn 0.000000 1.000000 0.000000
vt -3.434048 -3.950970
v -11995.808594 -399.439331 -16936.621094
vn 0.073992 0.996845 0.028717
vt -3.174049 -3.890512
v -12150.372070 -399.439331 -16558.330078
vn 0.000000 1.000000 0.000000
vt -2.972420 -3.347107
v -12290.035156 -399.439331 -16683.363281
vn 0.015862 0.996885 0.077251
vt -2.790230 -3.196193
v -12391.390625 -399.439331 -16487.357422
vn 0.000000 1.000000 0.000000
vt -3.658010 -3.432772
f 34/34/34 35/35/35 36/36/36
f 71/71/71 65/65/65 70/70/70
f 63/63/63 70/70/70 65/65/65
f 70/70/70 63/63/63 79/79/79
f 61/61/61 79/79/79 63/63/63
f 79/79/79 61/61/61 78/78/78
f 60/60/60 78/78/78 61/61/61
f 78/78/78 60/60/60 77/77/77
f 75/75/75 77/77/77 60/60/60
f 77/77/77 75/75/75 76/76/76
f 59/59/59 60/60/60 61/61/61
f 61/61/61 62/62/62 59/59/59
f 62/62/62 61/61/61 64/64/64
f 63/63/63 64/64/64 61/61/61
f 64/64/64 63/63/63 66/66/66
f 65/65/65 66/66/66 63/63/63
f 53/53/53 40/40/40 52/52/52
f 40/40/40 53/53/53 31/31/31
f 72/72/72 31/31/31 53/53/53
f 31/31/31 72/72/72 73/73/73
f 83/83/83 73/73/73 72/72/72
f 33/33/33 31/31/31 32/32/32
f 31/31/31 33/33/33 40/40/40
f 72/72/72 93/93/93 83/83/83
f 93/93/93 72/72/72 94/94/94
f 33/33/33 32/32/32 49/49/49
f 50/50/50 49/49/49 32/32/32
f 49/49/49 50/50/50 48/48/48
f 51/51/51 48/48/48 50/50/50
f 69/69/69 81/81/81 82/82/82
f 81/81/81 69/69/69 68/68/68
f 67/67/67 68/68/68 69/69/69
f 68/68/68 67/67/67 74/74/74
f 81/81/81 74/74/74 84/84/84
f 74/74/74 81/81/81 68/68/68
f 43/43/43 41/41/41 42/42/42
f 41/41/41 43/43/43 44/44/44
f 47/47/47 44/44/44 43/43/43
f 44/44/44 47/47/47 89/89/89
f 91/91/91 92/92/92 90/90/90
f 97/97/97 90/90/90 92/92/92
f 90/90/90 97/97/97 54/54/54
f 55/55/55 54/54/54 97/97/97
f 54/54/54 55/55/55 56/56/56
f 56/56/56 57/57/57 54/54/54
f 45/45/45 46/46/46 58/58/58
f 46/46/46 45/45/45 38/38/38
f 80/80/80 38/38/38 45/45/45
f 38/38/38 80/80/80 39/39/39
f 37/37/37 38/38/38 39/39/39
f 86/86/86 87/87/87 85/85/85
f 88/88/88 85/85/85 87/87/87
f 85/85/85 88/88/88 95/95/95
f 96/96/96 95/95/95 88/88/88
