mtllib CH11_CINE05_SAVECARWINFAILURE_SWORD.mtl
g Mesh01
usemtl 4_-_Default
v -7205.449707 -297.695648 -6579.352051
vn 0.169363 -0.914531 0.367355
vt 0.377520 0.244482
v -7200.962891 -300.994751 -6587.405273
vn -0.586402 -0.788056 -0.187350
vt 0.220542 0.002471
v -7199.195801 -301.058594 -6585.151855
vn 0.016838 -0.808646 0.588054
vt 0.220542 0.244482
v -7206.937012 -298.340668 -6583.446777
vn 0.056093 -0.924507 -0.377014
vt 0.377520 0.000849
v -7200.884277 -298.783936 -6589.224609
vn -0.557617 -0.016490 -0.829935
vt 0.220542 0.002471
v -7206.823730 -295.157074 -6586.066406
vn 0.192135 -0.122813 -0.973653
vt 0.377520 0.000849
v -7199.038574 -296.636932 -6588.790527
vn 0.084348 0.738105 -0.669393
vt 0.220542 0.244482
v -7205.223145 -291.328491 -6584.591797
vn 0.310544 0.579967 -0.753127
vt 0.377520 0.244482
v -7197.271484 -296.700775 -6586.537109
vn 0.692946 0.713780 0.101705
vt 0.220542 0.459621
v -7201.621582 -292.157288 -6582.196777
vn 0.885356 0.268184 -0.379766
vt 0.390847 0.481477
v -7197.350098 -298.911591 -6584.717773
vn 0.671134 -0.062647 0.738684
vt 0.220542 0.459621
v -7201.734863 -295.340881 -6579.576660
vn 0.802549 -0.570623 0.174080
vt 0.377520 0.464885
v -7195.254395 -304.974121 -6591.993652
vn -0.693669 -0.711983 -0.109099
vt 0.377618 0.002471
v -7193.487793 -305.037933 -6589.740234
vn -0.078210 -0.733485 0.675191
vt 0.377618 0.244482
v -7195.175781 -302.763306 -6593.812988
vn -0.666870 0.057342 -0.742964
vt 0.377618 0.002471
v -7193.330078 -300.616302 -6593.379395
vn -0.024612 0.805166 -0.592538
vt 0.377618 0.244482
v -7191.563477 -300.680115 -6591.125488
vn 0.590848 0.783664 0.191752
vt 0.377618 0.459621
v -7191.642090 -302.890930 -6589.306152
vn 0.564049 0.014339 0.825617
vt 0.377618 0.459621
v -7190.358398 -309.898163 -6596.772949
vn -0.896732 -0.400305 0.188754
vt 0.220639 0.000849
v -7187.813965 -309.990051 -6593.528320
vn -0.359901 -0.389942 0.847595
vt 0.220639 0.244482
v -7190.245117 -306.714569 -6599.393066
vn -0.897679 0.241200 -0.368774
vt 0.220639 0.000849
v -7187.587402 -303.622894 -6598.768066
vn -0.361796 0.893067 -0.267461
vt 0.220639 0.244482
v -7185.042969 -303.714783 -6595.522949
vn 0.175035 0.903430 0.391379
vt 0.220639 0.464885
v -7185.156250 -306.898376 -6592.903320
vn 0.175983 0.261925 0.948907
vt 0.220639 0.464885
v -7215.747559 -303.633911 -6587.012695
vn 0.108224 -0.953867 0.280045
vt 0.937654 0.820251
v -7216.059570 -303.601044 -6590.232910
vn 0.018808 -0.923538 -0.383046
vt 0.998224 0.974523
v -7206.937012 -298.340668 -6583.446777
vn 0.056093 -0.924507 -0.377014
vt 0.610611 0.974523
v -7205.449707 -297.695648 -6579.352051
vn 0.169363 -0.914531 0.367355
vt 0.500091 0.820251
v -7216.059570 -303.601044 -6590.232910
vn 0.018808 -0.923538 -0.383046
vt 0.999500 0.934366
v -7215.946289 -300.417450 -6592.853027
vn -0.035894 -0.220689 -0.974684
vt 0.999500 0.481476
v -7206.823730 -295.157074 -6586.066406
vn 0.192135 -0.122813 -0.973653
vt 0.611887 0.481476
v -7206.937012 -298.340668 -6583.446777
vn 0.056093 -0.924507 -0.377014
vt 0.611887 0.934367
v -7215.946289 -300.417450 -6592.853027
vn -0.035894 -0.220689 -0.974684
vt 0.998224 0.974523
v -7215.520996 -297.266754 -6592.252930
vn -0.125128 0.383355 -0.915086
vt 0.937654 0.820251
v -7205.223145 -291.328491 -6584.591797
vn 0.310544 0.579967 -0.753127
vt 0.500091 0.820251
v -7206.823730 -295.157074 -6586.066406
vn 0.192135 -0.122813 -0.973653
vt 0.610611 0.974523
v -7194.860840 -285.353088 -6576.883301
vn 0.405891 0.595456 -0.693315
vt 0.059793 0.820251
v -7192.434570 -286.859802 -6575.362305
vn 0.891581 0.288867 -0.348768
vt -0.000777 0.974523
v -7201.621582 -292.157288 -6582.196777
vn 0.885356 0.268184 -0.379766
vt 0.389571 0.974523
v -7192.434570 -286.859802 -6575.362305
vn 0.891581 0.288867 -0.348768
vt 0.000500 0.481477
v -7192.547852 -290.043365 -6572.742188
vn 0.881465 -0.368795 0.294974
vt 0.000500 0.934367
v -7201.734863 -295.340881 -6579.576660
vn 0.802549 -0.570623 0.174080
vt 0.390848 0.934367
v -7192.547852 -290.043365 -6572.742188
vn 0.881465 -0.368795 0.294974
vt -0.000777 0.974522
v -7195.087402 -291.720276 -6571.643066
vn 0.447060 -0.607787 0.656302
vt 0.059793 0.820251
v -7201.734863 -295.340881 -6579.576660
vn 0.802549 -0.570623 0.174080
vt 0.389571 0.974523
v -7216.920410 -302.816345 -6586.070313
vn -0.605972 -0.542699 0.581615
vt 0.937654 0.626236
v -7219.145508 -301.449554 -6587.751953
vn -0.942830 -0.318683 0.097536
vt 0.998224 0.472399
v -7206.622559 -296.878082 -6578.409180
vn -0.365837 -0.440224 0.819979
vt 0.500091 0.626236
v -7219.032227 -298.265961 -6590.372070
vn -0.846706 0.465057 -0.258480
vt 0.999501 0.481476
v -7216.693848 -296.449158 -6591.310059
vn -0.301897 0.759123 -0.576707
vt 0.937654 0.626236
v -7206.395996 -290.510895 -6583.649414
vn -0.307707 0.909811 -0.278497
vt 0.500091 0.626236
v -7196.033203 -284.535522 -6575.940430
vn -0.045970 0.997289 -0.057460
vt 0.059793 0.626236
v -7195.520996 -284.708313 -6572.881836
vn 0.193417 0.841231 0.504896
vt 0.000500 0.481476
v -7195.634277 -287.891907 -6570.261719
vn -0.056666 0.164738 0.984708
vt -0.000777 0.472399
v -7196.260254 -290.902679 -6570.700195
vn -0.042849 -0.518786 0.853830
vt 0.059793 0.626236
v -7209.934570 -294.619812 -6582.301758
vn -0.984174 -0.173725 0.034941
vt 0.611887 0.481476
v -7219.145508 -301.449554 -6587.751953
vn -0.942830 -0.318683 0.097536
vt 0.999500 0.934367
v -7204.732422 -291.620026 -6578.431641
vn 0.063913 0.782323 0.619585
vt 0.389571 0.476486
v -7195.634277 -287.891907 -6570.261719
vn -0.056666 0.164738 0.984708
vt 0.000500 0.934367
v -7204.732422 -291.620026 -6578.431641
vn 0.063913 0.782323 0.619585
vt 0.390847 0.934367
v -7212.104004 -291.832336 -6574.952148
vn -0.166913 -0.657925 0.734353
vt 0.513880 0.000573
v -7211.962402 -287.854675 -6578.225586
vn -0.113132 0.853156 -0.509240
vt 0.513880 0.000573
v -7273.812012 -247.807175 -6526.127441
vn -0.117780 -0.774671 0.621299
vt 0.655758 0.229626
v -7273.860352 -250.054398 -6530.915039
vn -0.715706 0.014833 -0.698244
vt 0.668624 0.004960
v -7209.934570 -294.619812 -6582.301758
vn -0.984174 -0.173725 0.034941
vt 0.983358 0.004961
v -7215.996582 -288.112640 -6572.602051
vn -0.074485 -0.683363 0.726269
vt 0.982813 0.229627
v -7273.740234 -245.792297 -6527.785645
vn 0.045409 0.825124 -0.563124
vt 0.655758 0.229626
v -7215.925293 -286.097778 -6574.260254
vn -0.096132 0.802307 -0.589119
vt 0.982813 0.229627
v -7268.658203 -247.054626 -6527.044922
vn 0.561154 0.092911 0.822480
vt 0.668624 0.454292
v -7204.732422 -291.620026 -6578.431641
vn 0.063913 0.782323 0.619585
vt 0.983358 0.454293
v -7280.277344 -242.267639 -6521.730957
vn -0.684839 0.477430 0.550505
vt 0.622528 0.229626
v -7180.589844 -303.704102 -6597.363281
vn 0.653027 0.743566 0.143753
vt 0.615403 0.500191
v -7184.737305 -303.554291 -6602.652832
vn 0.035934 0.765251 -0.642729
vt 0.406264 0.500191
v -7186.708008 -302.953217 -6600.469727
vn -0.365756 0.915983 -0.164920
vt 0.430480 0.878065
v -7183.163086 -303.081268 -6595.948730
vn 0.117578 0.872694 0.473900
vt 0.569520 0.878065
v -7178.986816 -306.433716 -6599.552246
vn 0.889395 0.321108 -0.325370
vt 0.569010 0.236218
v -7182.304688 -306.313873 -6603.783691
vn 0.374483 0.240041 -0.895624
vt 0.464476 0.236217
v -7180.831543 -311.595337 -6601.669922
vn 0.684839 -0.477430 -0.550505
vt 0.507879 0.000500
v -7187.587402 -303.622894 -6598.768066
vn -0.361796 0.893067 -0.267461
vt 0.450100 0.999500
v -7185.042969 -303.714783 -6595.522949
vn 0.175035 0.903430 0.391379
vt 0.549899 0.999501
v -7180.774414 -308.893463 -6593.092285
vn 0.626052 -0.027930 0.779281
vt 0.615403 0.500191
v -7180.589844 -303.704102 -6597.363281
vn 0.653027 0.743566 0.143753
vt 0.406264 0.500191
v -7183.163086 -303.081268 -6595.948730
vn 0.117578 0.872694 0.473900
vt 0.430480 0.878065
v -7183.320801 -307.516632 -6592.298340
vn 0.074477 0.241743 0.967478
vt 0.569520 0.878065
v -7179.134277 -310.585236 -6596.135254
vn 0.949719 -0.222055 0.220737
vt 0.569010 0.236218
v -7178.986816 -306.433716 -6599.552246
vn 0.889395 0.321108 -0.325370
vt 0.464476 0.236217
v -7185.042969 -303.714783 -6595.522949
vn 0.175035 0.903430 0.391379
vt 0.450100 0.999500
v -7185.156250 -306.898376 -6592.903320
vn 0.175983 0.261925 0.948907
vt 0.549899 0.999501
v -7185.106934 -313.933044 -6594.110840
vn -0.018017 -0.777741 0.628326
vt 0.615403 0.500191
v -7180.774414 -308.893463 -6593.092285
vn 0.626052 -0.027930 0.779281
vt 0.406264 0.500191
v -7183.320801 -307.516632 -6592.298340
vn 0.074477 0.241743 0.967478
vt 0.430480 0.878065
v -7187.023926 -311.823975 -6593.168945
vn -0.451959 -0.345920 0.822237
vt 0.569520 0.878065
v -7182.600098 -314.616913 -6596.950684
vn 0.495131 -0.846285 0.196588
vt 0.569010 0.236218
v -7179.134277 -310.585236 -6596.135254
vn 0.949719 -0.222055 0.220737
vt 0.464476 0.236217
v -7185.156250 -306.898376 -6592.903320
vn 0.175983 0.261925 0.948907
vt 0.450100 0.999500
v -7187.813965 -309.990051 -6593.528320
vn -0.359901 -0.389942 0.847595
vt 0.549899 0.999501
v -7189.254395 -313.783234 -6599.400391
vn -0.635111 -0.756056 -0.158155
vt 0.615403 0.500191
v -7185.106934 -313.933044 -6594.110840
vn -0.018017 -0.777741 0.628326
vt 0.406264 0.500191
v -7187.023926 -311.823975 -6593.168945
vn -0.451959 -0.345920 0.822237
vt 0.430480 0.878065
v -7190.568848 -311.695923 -6597.689941
vn -0.935293 -0.302631 0.183417
vt 0.569520 0.878065
v -7185.917969 -314.497070 -6601.182129
vn -0.019782 -0.927352 -0.373667
vt 0.569010 0.236218
v -7182.600098 -314.616913 -6596.950684
vn 0.495131 -0.846285 0.196588
vt 0.464476 0.236217
v -7187.813965 -309.990051 -6593.528320
vn -0.359901 -0.389942 0.847595
vt 0.450100 0.999500
v -7190.358398 -309.898163 -6596.772949
vn -0.896732 -0.400305 0.188754
vt 0.549899 0.999501
v -7189.069824 -308.593872 -6603.671387
vn -0.608135 0.015439 -0.793683
vt 0.615403 0.500191
v -7189.254395 -313.783234 -6599.400391
vn -0.635111 -0.756056 -0.158155
vt 0.406264 0.500191
v -7190.568848 -311.695923 -6597.689941
vn -0.935293 -0.302631 0.183417
vt 0.430480 0.878065
v -7190.410645 -307.260559 -6601.340332
vn -0.892192 0.328321 -0.310161
vt 0.569520 0.878065
v -7185.770508 -310.345551 -6604.598633
vn -0.080106 -0.384189 -0.919773
vt 0.569010 0.236218
v -7185.917969 -314.497070 -6601.182129
vn -0.019782 -0.927352 -0.373667
vt 0.464476 0.236217
v -7190.358398 -309.898163 -6596.772949
vn -0.896732 -0.400305 0.188754
vt 0.450100 0.999500
v -7190.245117 -306.714569 -6599.393066
vn -0.897679 0.241200 -0.368774
vt 0.549899 0.999501
v -7184.737305 -303.554291 -6602.652832
vn 0.035934 0.765251 -0.642729
vt 0.615403 0.500191
v -7189.069824 -308.593872 -6603.671387
vn -0.608135 0.015439 -0.793683
vt 0.406264 0.500191
v -7190.410645 -307.260559 -6601.340332
vn -0.892192 0.328321 -0.310161
vt 0.430480 0.878065
v -7186.708008 -302.953217 -6600.469727
vn -0.365756 0.915983 -0.164920
vt 0.569520 0.878065
v -7182.304688 -306.313873 -6603.783691
vn 0.374483 0.240041 -0.895624
vt 0.569010 0.236218
v -7185.770508 -310.345551 -6604.598633
vn -0.080106 -0.384189 -0.919773
vt 0.464476 0.236217
v -7190.245117 -306.714569 -6599.393066
vn -0.897679 0.241200 -0.368774
vt 0.450100 0.999500
v -7187.587402 -303.622894 -6598.768066
vn -0.361796 0.893067 -0.267461
vt 0.549899 0.999501
v -7209.934570 -294.619812 -6582.301758
vn -0.984174 -0.173725 0.034941
vt 0.511035 0.446820
v -7212.104004 -291.832336 -6574.952148
vn -0.166913 -0.657925 0.734353
vt 0.515979 0.474092
v -7215.996582 -288.112640 -6572.602051
vn -0.074485 -0.683363 0.726269
vt 0.507753 0.474092
v -7204.732422 -291.620026 -6578.431641
vn 0.063913 0.782323 0.619585
vt 0.511035 0.504243
v -7215.996582 -288.112640 -6572.602051
vn -0.074485 -0.683363 0.726269
vt 0.507753 0.474092
v -7212.104004 -291.832336 -6574.952148
vn -0.166913 -0.657925 0.734353
vt 0.515979 0.474092
v -7209.934570 -294.619812 -6582.301758
vn -0.984174 -0.173725 0.034941
vt 0.511035 0.446820
v -7215.925293 -286.097778 -6574.260254
vn -0.096132 0.802307 -0.589119
vt 0.514317 0.474092
v -7211.962402 -287.854675 -6578.225586
vn -0.113132 0.853156 -0.509240
vt 0.506091 0.474092
v -7204.732422 -291.620026 -6578.431641
vn 0.063913 0.782323 0.619585
vt 0.511035 0.504243
v -7211.962402 -287.854675 -6578.225586
vn -0.113132 0.853156 -0.509240
vt 0.506091 0.474092
v -7215.925293 -286.097778 -6574.260254
vn -0.096132 0.802307 -0.589119
vt 0.514317 0.474092
f 59/59/59 53/53/53 60/60/60
f 51/51/51 58/58/58 52/52/52
f 53/53/53 52/52/52 58/58/58
f 56/56/56 49/49/49 57/57/57
f 49/49/49 56/56/56 51/51/51
f 62/62/62 51/51/51 56/56/56
f 51/51/51 62/62/62 58/58/58
f 50/50/50 49/49/49 51/51/51
f 47/47/47 46/46/46 56/56/56
f 48/48/48 56/56/56 46/46/46
f 56/56/56 48/48/48 61/61/61
f 58/58/58 61/61/61 48/48/48
f 58/58/58 48/48/48 54/54/54
f 55/55/55 54/54/54 48/48/48
f 47/47/47 26/26/26 46/46/46
f 25/25/25 46/46/46 26/26/26
f 46/46/46 25/25/25 48/48/48
f 28/28/28 48/48/48 25/25/25
f 48/48/48 28/28/28 55/55/55
f 44/44/44 55/55/55 28/28/28
f 55/55/55 44/44/44 54/54/54
f 43/43/43 54/54/54 44/44/44
f 54/54/54 43/43/43 53/53/53
f 38/38/38 53/53/53 43/43/43
f 53/53/53 38/38/38 52/52/52
f 37/37/37 52/52/52 38/38/38
f 52/52/52 37/37/37 51/51/51
f 35/35/35 51/51/51 37/37/37
f 51/51/51 35/35/35 50/50/50
f 34/34/34 50/50/50 35/35/35
f 50/50/50 34/34/34 49/49/49
f 33/33/33 49/49/49 34/34/34
f 35/35/35 33/33/33 34/34/34
f 33/33/33 35/35/35 36/36/36
f 28/28/28 43/43/43 44/44/44
f 43/43/43 28/28/28 45/45/45
f 33/33/33 47/47/47 49/49/49
f 47/47/47 33/33/33 26/26/26
f 27/27/27 25/25/25 26/26/26
f 25/25/25 27/27/27 28/28/28
f 39/39/39 37/37/37 38/38/38
f 37/37/37 39/39/39 35/35/35
f 2/2/2 1/1/1 4/4/4
f 1/1/1 2/2/2 3/3/3
f 13/13/13 3/3/3 2/2/2
f 3/3/3 13/13/13 14/14/14
f 19/19/19 14/14/14 13/13/13
f 14/14/14 19/19/19 20/20/20
f 3/3/3 12/12/12 1/1/1
f 12/12/12 3/3/3 11/11/11
f 14/14/14 11/11/11 3/3/3
f 11/11/11 14/14/14 18/18/18
f 20/20/20 18/18/18 14/14/14
f 18/18/18 20/20/20 24/24/24
f 11/11/11 10/10/10 12/12/12
f 10/10/10 11/11/11 9/9/9
f 18/18/18 9/9/9 11/11/11
f 9/9/9 18/18/18 17/17/17
f 24/24/24 17/17/17 18/18/18
f 17/17/17 24/24/24 23/23/23
f 9/9/9 8/8/8 10/10/10
f 8/8/8 9/9/9 7/7/7
f 17/17/17 7/7/7 9/9/9
f 7/7/7 17/17/17 16/16/16
f 23/23/23 16/16/16 17/17/17
f 16/16/16 23/23/23 22/22/22
f 7/7/7 6/6/6 8/8/8
f 6/6/6 7/7/7 5/5/5
f 16/16/16 5/5/5 7/7/7
f 5/5/5 16/16/16 15/15/15
f 22/22/22 15/15/15 16/16/16
f 15/15/15 22/22/22 21/21/21
f 5/5/5 4/4/4 6/6/6
f 4/4/4 5/5/5 2/2/2
f 15/15/15 2/2/2 5/5/5
f 2/2/2 15/15/15 13/13/13
f 21/21/21 13/13/13 15/15/15
f 13/13/13 21/21/21 19/19/19
f 42/42/42 40/40/40 41/41/41
f 40/40/40 42/42/42 10/10/10
f 84/84/84 87/87/87 88/88/88
f 87/87/87 84/84/84 83/83/83
f 81/81/81 83/83/83 84/84/84
f 83/83/83 81/81/81 82/82/82
f 85/85/85 82/82/82 81/81/81
f 82/82/82 85/85/85 86/86/86
f 78/78/78 86/86/86 85/85/85
f 78/78/78 94/94/94 93/93/93
f 90/90/90 93/93/93 94/94/94
f 93/93/93 90/90/90 89/89/89
f 91/91/91 89/89/89 90/90/90
f 89/89/89 91/91/91 92/92/92
f 95/95/95 92/92/92 91/91/91
f 92/92/92 95/95/95 96/96/96
f 78/78/78 102/102/102 101/101/101
f 98/98/98 101/101/101 102/102/102
f 101/101/101 98/98/98 97/97/97
f 99/99/99 97/97/97 98/98/98
f 97/97/97 99/99/99 100/100/100
f 103/103/103 100/100/100 99/99/99
f 100/100/100 103/103/103 104/104/104
f 78/78/78 110/110/110 109/109/109
f 106/106/106 109/109/109 110/110/110
f 109/109/109 106/106/106 105/105/105
f 107/107/107 105/105/105 106/106/106
f 105/105/105 107/107/107 108/108/108
f 111/111/111 108/108/108 107/107/107
f 108/108/108 111/111/111 112/112/112
f 78/78/78 118/118/118 117/117/117
f 114/114/114 117/117/117 118/118/118
f 117/117/117 114/114/114 113/113/113
f 115/115/115 113/113/113 114/114/114
f 113/113/113 115/115/115 116/116/116
f 119/119/119 116/116/116 115/115/115
f 116/116/116 119/119/119 120/120/120
f 78/78/78 77/77/77 76/76/76
f 73/73/73 76/76/76 77/77/77
f 76/76/76 73/73/73 72/72/72
f 74/74/74 72/72/72 73/73/73
f 72/72/72 74/74/74 75/75/75
f 79/79/79 75/75/75 74/74/74
f 75/75/75 79/79/79 80/80/80
f 63/63/63 64/64/64 65/65/65
f 64/64/64 63/63/63 71/71/71
f 69/69/69 71/71/71 63/63/63
f 71/71/71 69/69/69 67/67/67
f 70/70/70 67/67/67 69/69/69
f 67/67/67 70/70/70 68/68/68
f 71/71/71 67/67/67 64/64/64
f 68/68/68 64/64/64 67/67/67
f 64/64/64 68/68/68 65/65/65
f 66/66/66 63/63/63 65/65/65
f 63/63/63 66/66/66 69/69/69
f 70/70/70 69/69/69 66/66/66
f 31/31/31 29/29/29 30/30/30
f 29/29/29 31/31/31 32/32/32
f 121/121/121 122/122/122 123/123/123
f 124/124/124 125/125/125 126/126/126
f 127/127/127 128/128/128 129/129/129
f 130/130/130 131/131/131 132/132/132
