mtllib INST_RIVENDELL_FLASK2.mtl
g Inst_flask2_
usemtl pot4
v 10.163924 -12.117834 0.000004
vn 0.968317 -0.166236 -0.186352
vt 0.000000 0.833333
v 5.081968 -12.117831 -8.802217
vn 0.322773 -0.166236 -0.931764
vt 1.000000 0.833333
v 6.519819 4.633014 -11.292645
vn 0.501800 0.275464 -0.819949
vt 1.000000 0.480676
v 13.039626 4.633011 0.000006
vn 0.960997 0.275464 0.024597
vt 0.000000 0.480676
v -6.519818 4.633008 11.292644
vn -0.501800 0.275464 0.819949
vt 1.000000 0.480676
v -13.039626 4.633011 -0.000007
vn -0.960997 0.275464 -0.024597
vt 0.000000 0.480676
v -10.163924 -12.117834 -0.000011
vn -0.968317 -0.166236 0.186352
vt 0.000000 0.833333
v -5.081967 -12.117837 8.802209
vn -0.322773 -0.166236 0.931763
vt 1.000000 0.833333
v 13.039626 4.633011 0.000006
vn 0.960997 0.275464 0.024597
vt 1.000000 0.480676
v 6.519806 4.633008 11.292651
vn 0.459196 0.275464 0.844546
vt 0.000000 0.480676
v 5.081954 -12.117837 8.802217
vn 0.645544 -0.166236 0.745411
vt 0.000000 0.833333
v 10.163924 -12.117834 0.000004
vn 0.968317 -0.166236 -0.186352
vt 1.000000 0.833333
v 6.519806 4.633008 11.292651
vn 0.459196 0.275464 0.844546
vt 1.000000 0.480676
v -6.519818 4.633008 11.292644
vn -0.501800 0.275464 0.819949
vt 0.000000 0.480676
v -5.081967 -12.117837 8.802209
vn -0.322773 -0.166236 0.931763
vt 0.000000 0.833333
v 5.081954 -12.117837 8.802217
vn 0.645544 -0.166236 0.745411
vt 1.000000 0.833333
v 5.081968 -12.117831 -8.802217
vn 0.322773 -0.166236 -0.931764
vt 0.000000 0.833333
v -5.081957 -12.117831 -8.802224
vn -0.645544 -0.166236 -0.745411
vt 1.000000 0.833333
v -6.519808 4.633014 -11.292651
vn -0.459197 0.275464 -0.844546
vt 1.000000 0.480676
v -5.081957 -12.117831 -8.802224
vn -0.645544 -0.166236 -0.745411
vt 0.000000 0.833333
v -10.163924 -12.117834 -0.000011
vn -0.968317 -0.166236 0.186352
vt 1.000000 0.833333
v -13.039626 4.633011 -0.000007
vn -0.960997 0.275464 -0.024597
vt 1.000000 0.480676
v -6.519808 4.633014 -11.292651
vn -0.459197 0.275464 -0.844546
vt 0.000000 0.480676
v 6.519819 4.633014 -11.292645
vn 0.501800 0.275464 -0.819949
vt 0.000000 0.480676
f 3/3/3 1/1/1 2/2/2
f 1/1/1 3/3/3 4/4/4
f 7/7/7 5/5/5 6/6/6
f 5/5/5 7/7/7 8/8/8
f 11/11/11 9/9/9 10/10/10
f 9/9/9 11/11/11 12/12/12
f 15/15/15 13/13/13 14/14/14
f 13/13/13 15/15/15 16/16/16
f 19/19/19 17/17/17 18/18/18
f 17/17/17 19/19/19 24/24/24
f 22/22/22 20/20/20 21/21/21
f 20/20/20 22/22/22 23/23/23
usemtl flask_01
v 13.039626 4.633011 0.000006
vn 0.960997 0.275464 0.024597
vt 0.000000 0.277778
v 6.519819 4.633014 -11.292645
vn 0.501800 0.275464 -0.819949
vt 1.000000 0.277778
v 2.182309 14.428987 -3.779857
vn 0.430741 0.432122 -0.792296
vt 0.748756 0.000000
v -2.182299 14.428987 -3.779862
vn -0.470777 0.432122 -0.769181
vt 0.748756 0.000000
v 2.182309 14.428987 -3.779857
vn 0.430741 0.432122 -0.792296
vt 0.251244 0.000000
v 6.519819 4.633014 -11.292645
vn 0.501800 0.275464 -0.819949
vt 0.000000 0.277778
v -6.519808 4.633014 -11.292651
vn -0.459197 0.275464 -0.844546
vt 1.000000 0.277778
v 4.364608 14.428986 0.000007
vn 0.901519 0.432122 -0.023114
vt 0.251244 0.000000
v -6.519808 4.633014 -11.292651
vn -0.459197 0.275464 -0.844546
vt 0.000000 0.277778
v -13.039626 4.633011 -0.000007
vn -0.960997 0.275464 -0.024597
vt 1.000000 0.277778
v -4.364608 14.428986 -0.000004
vn -0.901519 0.432122 0.023115
vt 0.748756 0.000000
v -13.039626 4.633011 -0.000007
vn -0.960997 0.275464 -0.024597
vt 0.000000 0.277778
v -6.519818 4.633008 11.292644
vn -0.501800 0.275464 0.819949
vt 1.000000 0.277778
v -2.182309 14.428985 3.779860
vn -0.430742 0.432122 0.792296
vt 0.748756 0.000000
v -4.364608 14.428986 -0.000004
vn -0.901519 0.432122 0.023115
vt 0.251244 0.000000
v -2.182299 14.428987 -3.779862
vn -0.470777 0.432122 -0.769181
vt 0.251244 0.000000
v 4.364608 14.428986 0.000007
vn 0.901519 0.432122 -0.023114
vt 0.748756 0.000000
v 2.182298 14.428985 3.779866
vn 0.470777 0.432122 0.769181
vt 0.251244 0.000000
v 6.519806 4.633008 11.292651
vn 0.459196 0.275464 0.844546
vt 0.000000 0.277778
v 2.182298 14.428985 3.779866
vn 0.470777 0.432122 0.769181
vt 0.748756 0.000000
v -2.182309 14.428985 3.779860
vn -0.430742 0.432122 0.792296
vt 0.251244 0.000000
v -6.519818 4.633008 11.292644
vn -0.501800 0.275464 0.819949
vt 0.000000 0.277778
v 6.519806 4.633008 11.292651
vn 0.459196 0.275464 0.844546
vt 1.000000 0.277778
v 13.039626 4.633011 0.000006
vn 0.960997 0.275464 0.024597
vt 1.000000 0.277778
f 27/27/27 25/25/25 26/26/26
f 25/25/25 27/27/27 32/32/32
f 30/30/30 28/28/28 29/29/29
f 28/28/28 30/30/30 31/31/31
f 35/35/35 33/33/33 34/34/34
f 33/33/33 35/35/35 40/40/40
f 38/38/38 36/36/36 37/37/37
f 36/36/36 38/38/38 39/39/39
f 43/43/43 41/41/41 42/42/42
f 41/41/41 43/43/43 48/48/48
f 46/46/46 44/44/44 45/45/45
f 44/44/44 46/46/46 47/47/47
usemtl pot2
v 1.681962 20.364029 -2.913229
vn 0.000000 1.000000 0.000000
vt 0.508075 0.189439
v -1.681953 20.364029 -2.913234
vn 0.000000 1.000000 0.000000
vt 0.595389 0.103969
v 1.681952 20.364029 2.913241
vn 0.000000 1.000000 0.000000
vt 0.327979 0.115550
v 2.182309 14.428987 -3.779857
vn 0.430741 0.432122 -0.792296
vt 0.072650 0.468599
v -2.182299 14.428987 -3.779862
vn -0.470777 0.432122 -0.769181
vt 0.927350 0.468599
v -1.681953 20.364029 -2.913234
vn -0.322929 0.163346 -0.932220
vt 0.833333 0.306763
v -1.681962 20.364029 2.913236
vn -0.645862 0.163345 0.745775
vt 0.833333 0.306763
v -3.363914 20.364029 -0.000002
vn -0.968791 0.163346 -0.186445
vt 0.166667 0.306763
v -4.364608 14.428986 -0.000004
vn -0.901519 0.432122 0.023115
vt 0.072650 0.468599
v -2.182299 14.428987 -3.779862
vn -0.470777 0.432122 -0.769181
vt 0.072650 0.468599
v -4.364608 14.428986 -0.000004
vn -0.901519 0.432122 0.023115
vt 0.927350 0.468599
v -3.363914 20.364029 -0.000002
vn -0.968791 0.163346 -0.186445
vt 0.833333 0.306763
v -3.363914 20.364029 -0.000002
vn 0.000000 1.000000 0.000000
vt 0.550660 0.043981
v -1.681962 20.364029 2.913236
vn 0.000000 1.000000 0.000000
vt 0.402368 0.043636
v 3.363914 20.364029 0.000008
vn 0.000000 1.000000 0.000000
vt 0.360602 0.173214
v -1.681953 20.364029 -2.913234
vn -0.322929 0.163346 -0.932220
vt 0.166667 0.306763
v -2.182309 14.428985 3.779860
vn -0.430742 0.432122 0.792296
vt 0.927350 0.468599
v 1.681952 20.364029 2.913241
vn 0.322929 0.163345 0.932221
vt 0.833333 0.306763
v -1.681962 20.364029 2.913236
vn -0.645862 0.163345 0.745775
vt 0.166667 0.306763
v -2.182309 14.428985 3.779860
vn -0.430742 0.432122 0.792296
vt 0.072650 0.468599
v 1.681962 20.364029 -2.913229
vn 0.645862 0.163346 -0.745775
vt 0.833333 0.306763
v 3.363914 20.364029 0.000008
vn 0.968791 0.163346 0.186446
vt 0.166667 0.306763
v 4.364608 14.428986 0.000007
vn 0.901519 0.432122 -0.023114
vt 0.072650 0.468599
v 2.182309 14.428987 -3.779857
vn 0.430741 0.432122 -0.792296
vt 0.927350 0.468599
v 1.681962 20.364029 -2.913229
vn 0.645862 0.163346 -0.745775
vt 0.166667 0.306763
v 2.182298 14.428985 3.779866
vn 0.470777 0.432122 0.769181
vt 0.927350 0.468599
v 2.182298 14.428985 3.779866
vn 0.470777 0.432122 0.769181
vt 0.072650 0.468599
v 4.364608 14.428986 0.000007
vn 0.901519 0.432122 -0.023114
vt 0.927350 0.468599
v 3.363914 20.364029 0.000008
vn 0.968791 0.163346 0.186446
vt 0.833333 0.306763
v 1.681952 20.364029 2.913241
vn 0.322929 0.163345 0.932221
vt 0.166667 0.306763
f 54/54/54 52/52/52 53/53/53
f 52/52/52 54/54/54 73/73/73
f 51/51/51 50/50/50 61/61/61
f 50/50/50 51/51/51 49/49/49
f 63/63/63 49/49/49 51/51/51
f 61/61/61 62/62/62 51/51/51
f 57/57/57 55/55/55 56/56/56
f 55/55/55 57/57/57 65/65/65
f 60/60/60 58/58/58 59/59/59
f 58/58/58 60/60/60 64/64/64
f 68/68/68 66/66/66 67/67/67
f 66/66/66 68/68/68 74/74/74
f 71/71/71 69/69/69 70/70/70
f 69/69/69 71/71/71 72/72/72
f 77/77/77 75/75/75 76/76/76
f 75/75/75 77/77/77 78/78/78
