mtllib INST_SWORDLIGHT_BUCKET_02.mtl
g Inst_bucket_
usemtl barrel_handel2
v 0.000000 7.681550 -49.685017
vn -0.000018 0.579275 0.815132
vt 0.978867 0.497583
v 14.577213 7.654084 -49.665031
vn -0.000018 0.582283 0.812986
vt 0.158489 0.499396
v 14.146713 15.325866 -54.988735
vn -0.000080 0.570145 0.821544
vt 0.247706 0.000000
v 0.000000 15.380798 -55.028709
vn 0.000017 0.570156 0.821537
vt 0.978867 -0.002417
v -14.577213 7.654081 -49.665035
vn 0.000053 0.576235 0.817284
vt 0.156732 0.499396
v -14.146713 15.325861 -54.988739
vn 0.000107 0.570109 0.821569
vt 0.247706 0.000000
v 14.146713 15.247497 -55.095234
vn 0.000000 -0.573033 -0.819532
vt 0.247706 0.000000
v 14.577213 7.596622 -49.745590
vn 0.000000 -0.573033 -0.819532
vt 0.157610 0.499396
v 0.000000 7.624460 -49.765057
vn 0.000000 -0.573033 -0.819532
vt 0.978867 0.497583
v 0.000000 15.303173 -55.134163
vn 0.000000 -0.573033 -0.819532
vt 0.978867 -0.002417
v -14.577213 7.596622 -49.745590
vn 0.000000 -0.573033 -0.819532
vt 0.157610 0.499396
v -14.146713 15.247497 -55.095234
vn 0.000000 -0.573033 -0.819532
vt 0.247706 0.000000
v 0.000000 -0.054254 -44.395947
vn 0.000000 -0.573033 -0.819532
vt 0.978867 0.997583
v -14.096638 -0.054254 -44.395947
vn 0.000000 -0.573033 -0.819532
vt 0.000000 1.000000
v 14.096638 -0.054254 -44.395947
vn 0.000000 -0.573033 -0.819532
vt 0.000000 1.000000
v -14.096638 0.105013 -44.172665
vn 0.000000 0.588322 0.808627
vt 0.000000 1.000000
v 0.000000 0.105014 -44.172665
vn 0.000000 0.588321 0.808627
vt 0.978867 0.997583
v 14.096638 0.105015 -44.172661
vn 0.000000 0.588321 0.808627
vt 0.000000 1.000000
f 6/6/6 5/5/5 4/4/4
f 1/1/1 4/4/4 5/5/5
f 4/4/4 1/1/1 3/3/3
f 2/2/2 3/3/3 1/1/1
f 5/5/5 16/16/16 1/1/1
f 17/17/17 1/1/1 16/16/16
f 1/1/1 17/17/17 2/2/2
f 18/18/18 2/2/2 17/17/17
f 10/10/10 11/11/11 12/12/12
f 11/11/11 10/10/10 9/9/9
f 7/7/7 9/9/9 10/10/10
f 9/9/9 7/7/7 8/8/8
f 8/8/8 15/15/15 9/9/9
f 13/13/13 9/9/9 15/15/15
f 9/9/9 13/13/13 11/11/11
f 14/14/14 11/11/11 13/13/13
usemtl barrel
v -9.397048 9.412477 -45.160172
vn 0.584916 -0.772310 0.247811
vt 0.497042 0.000000
v -6.341665 6.357094 -61.894081
vn 0.488880 -0.370258 0.789877
vt 0.497042 1.000000
v 0.034769 8.998302 -61.894081
vn 0.108271 -0.784167 0.611031
vt 0.245792 1.000000
v 6.411203 6.357095 -61.894081
vn -0.477931 -0.631049 0.611031
vt -0.005458 1.000000
v 9.466586 9.412477 -45.160172
vn -0.772310 -0.584916 0.247811
vt -0.005458 0.000000
v 0.034769 13.319264 -45.160175
vn -0.132508 -0.959704 0.247811
vt 0.245792 0.000000
v 0.034769 8.998302 -61.894081
vn 0.108271 -0.784167 0.611031
vt 0.190831 1.000000
v -13.303833 -0.019340 -45.160175
vn 0.959704 -0.132507 0.247811
vt 0.748292 0.000000
v -8.982869 -0.019340 -61.894085
vn 0.607502 0.083879 0.789877
vt 0.748292 1.000000
v -9.397046 -9.451156 -45.160175
vn 0.772310 0.584916 0.247811
vt 0.999542 0.000000
v -6.341664 -6.395774 -61.894085
vn 0.370258 0.488880 0.789877
vt 0.999542 1.000000
v 0.034771 -13.357942 -45.160172
vn 0.132507 0.959704 0.247811
vt 1.250792 0.000000
v 0.034771 -9.036979 -61.894085
vn -0.083879 0.607502 0.789877
vt 1.250792 1.000000
v 9.466588 -9.451153 -45.160175
vn -0.584916 0.772310 0.247811
vt 1.502042 0.000000
v 6.411205 -6.395772 -61.894085
vn -0.488880 0.370258 0.789877
vt 1.502042 1.000000
v 13.373372 -0.019339 -45.160175
vn -0.959704 0.132507 0.247811
vt 1.753292 0.000000
v 9.052409 -0.019339 -61.894085
vn -0.607502 -0.083879 0.789877
vt 1.753292 1.000000
v 9.466586 9.412477 -45.160172
vn -0.772310 -0.584916 0.247811
vt 2.004542 0.000000
v 6.411203 6.357095 -61.894081
vn -0.477931 -0.631049 0.611031
vt 2.004542 1.000000
v 10.455553 -0.019339 -64.466858
vn 0.979684 0.135266 -0.148060
vt 1.753292 1.000000
v 7.403376 7.349268 -64.466858
vn 0.597094 0.788389 -0.148060
vt 2.004542 1.000000
v 9.466586 9.412477 -45.160172
vn 0.788389 0.597094 -0.148060
vt 2.004542 0.000000
v 7.403376 7.349268 -64.466858
vn 0.597094 0.788389 -0.148060
vt -0.005458 1.000000
v 0.034769 10.401444 -64.466858
vn -0.135266 0.979684 -0.148060
vt 0.190831 1.000000
v 0.034769 13.319264 -45.160175
vn 0.135266 0.979684 -0.148060
vt 0.245792 0.000000
v 9.466586 9.412477 -45.160172
vn 0.788389 0.597094 -0.148060
vt -0.005458 0.000000
v 0.034769 10.401444 -64.466858
vn -0.135266 0.979684 -0.148060
vt 0.245792 1.000000
v -7.333838 7.349267 -64.466858
vn -0.788389 0.597094 -0.148060
vt 0.497042 1.000000
v -9.397048 9.412477 -45.160172
vn -0.597094 0.788389 -0.148060
vt 0.497042 0.000000
v -10.386014 -0.019340 -64.466858
vn -0.979684 -0.135266 -0.148060
vt 0.748292 1.000000
v -13.303833 -0.019340 -45.160175
vn -0.979684 0.135266 -0.148060
vt 0.748292 0.000000
v -7.333837 -7.387946 -64.466858
vn -0.597094 -0.788389 -0.148060
vt 0.999542 1.000000
v -9.397046 -9.451156 -45.160175
vn -0.788389 -0.597094 -0.148060
vt 0.999542 0.000000
v 0.034771 -10.440122 -64.466858
vn 0.135266 -0.979684 -0.148060
vt 1.250792 1.000000
v 0.034771 -13.357942 -45.160172
vn -0.135266 -0.979684 -0.148060
vt 1.250792 0.000000
v 7.403378 -7.387944 -64.466858
vn 0.788389 -0.597094 -0.148060
vt 1.502042 1.000000
v 9.466588 -9.451153 -45.160175
vn 0.597094 -0.788389 -0.148060
vt 1.502042 0.000000
v 13.373372 -0.019339 -45.160175
vn 0.979684 -0.135266 -0.148060
vt 1.753292 0.000000
v 6.411205 -6.395772 -61.894085
vn -0.488880 0.370258 0.789877
vt 0.769479 0.591208
v 9.052409 -0.019339 -61.894085
vn -0.607502 -0.083879 0.789877
vt 0.881100 0.497588
v 0.034771 -9.036979 -61.894085
vn -0.083879 0.607502 0.789877
vt 0.500000 0.629986
v -8.982869 -0.019340 -61.894085
vn 0.607502 0.083879 0.789877
vt 0.118900 0.497588
v -6.341664 -6.395774 -61.894085
vn 0.370258 0.488880 0.789877
vt 0.230521 0.591208
v 0.034769 8.998302 -61.894081
vn 0.108271 -0.784167 0.611031
vt 0.500000 0.365190
v -6.341665 6.357094 -61.894081
vn 0.488880 -0.370258 0.789877
vt 0.230521 0.403968
v 6.411203 6.357095 -61.894081
vn -0.477931 -0.631049 0.611031
vt 0.769479 0.403968
f 24/24/24 22/22/22 23/23/23
f 22/22/22 24/24/24 25/25/25
f 19/19/19 21/21/21 24/24/24
f 21/21/21 19/19/19 20/20/20
f 26/26/26 20/20/20 19/19/19
f 20/20/20 26/26/26 27/27/27
f 28/28/28 27/27/27 26/26/26
f 27/27/27 28/28/28 29/29/29
f 30/30/30 29/29/29 28/28/28
f 29/29/29 30/30/30 31/31/31
f 32/32/32 31/31/31 30/30/30
f 31/31/31 32/32/32 33/33/33
f 34/34/34 33/33/33 32/32/32
f 33/33/33 34/34/34 35/35/35
f 36/36/36 35/35/35 34/34/34
f 35/35/35 36/36/36 37/37/37
f 39/39/39 40/40/40 38/38/38
f 56/56/56 38/38/38 40/40/40
f 38/38/38 56/56/56 54/54/54
f 55/55/55 54/54/54 56/56/56
f 54/54/54 55/55/55 52/52/52
f 53/53/53 52/52/52 55/55/55
f 52/52/52 53/53/53 50/50/50
f 51/51/51 50/50/50 53/53/53
f 50/50/50 51/51/51 48/48/48
f 49/49/49 48/48/48 51/51/51
f 48/48/48 49/49/49 46/46/46
f 47/47/47 46/46/46 49/49/49
f 46/46/46 47/47/47 45/45/45
f 43/43/43 45/45/45 47/47/47
f 43/43/43 41/41/41 42/42/42
f 41/41/41 43/43/43 44/44/44
f 57/57/57 58/58/58 59/59/59
f 60/60/60 59/59/59 58/58/58
f 59/59/59 60/60/60 61/61/61
f 63/63/63 60/60/60 62/62/62
f 58/58/58 62/62/62 60/60/60
f 62/62/62 58/58/58 64/64/64
